<?xml version="1.0" encoding="UTF-8"?>
<svg xmlns="http://www.w3.org/2000/svg" xmlns:xlink="http://www.w3.org/1999/xlink" width="500px" height="px" viewBox="0 0 499 375" version="1.1">
<g id="surface1">
<path style=" stroke:none;fill-rule:nonzero;fill:rgb(100%,100%,100%);fill-opacity:1;" d="M 0 374.835938 L 499.324219 374.835938 L 499.324219 0 L 0 0 Z M 0 374.835938 "/>
<path style=" stroke:none;fill-rule:nonzero;fill:rgb(100%,100%,100%);fill-opacity:1;" d="M 111.722656 333.605469 L 400.085938 333.605469 L 400.085938 44.980469 L 111.722656 44.980469 Z M 111.722656 333.605469 "/>
<path style="fill:none;stroke-width:0.8;stroke-linecap:butt;stroke-linejoin:round;stroke:rgb(0%,0%,0%);stroke-opacity:1;stroke-miterlimit:4;" d="M 113.153138 307.584242 L 113.153138 311.084961 " transform="matrix(1.083605,0,0,1.084599,0,0)"/>
<path style=" stroke:none;fill-rule:nonzero;fill:rgb(0%,0%,0%);fill-opacity:1;" d="M 122.613281 342.230469 C 122.0625 342.230469 121.648438 342.503906 121.367188 343.046875 C 121.085938 343.585938 120.957031 344.402344 120.957031 345.484375 C 120.957031 346.570312 121.085938 347.382812 121.367188 347.925781 C 121.648438 348.46875 122.0625 348.738281 122.613281 348.738281 C 123.167969 348.738281 123.578125 348.46875 123.859375 347.925781 C 124.132812 347.382812 124.273438 346.570312 124.273438 345.484375 C 124.273438 344.402344 124.132812 343.585938 123.859375 343.046875 C 123.578125 342.503906 123.167969 342.230469 122.613281 342.230469 Z M 122.613281 341.386719 C 123.492188 341.386719 124.164062 341.742188 124.640625 342.4375 C 125.105469 343.144531 125.34375 344.164062 125.34375 345.484375 C 125.34375 346.820312 125.105469 347.839844 124.640625 348.535156 C 124.164062 349.226562 123.492188 349.574219 122.601562 349.574219 C 121.714844 349.574219 121.042969 349.226562 120.578125 348.535156 C 120.109375 347.839844 119.882812 346.820312 119.882812 345.484375 C 119.882812 344.164062 120.109375 343.144531 120.578125 342.4375 C 121.042969 341.742188 121.726562 341.386719 122.613281 341.386719 Z M 122.613281 341.386719 "/>
<path style="fill:none;stroke-width:0.8;stroke-linecap:butt;stroke-linejoin:round;stroke:rgb(0%,0%,0%);stroke-opacity:1;stroke-miterlimit:4;" d="M 177.294519 307.584242 L 177.294519 311.084961 " transform="matrix(1.083605,0,0,1.084599,0,0)"/>
<path style=" stroke:none;fill-rule:nonzero;fill:rgb(0%,0%,0%);fill-opacity:1;" d="M 186.570312 348.535156 L 188.316406 348.535156 L 188.316406 342.503906 L 186.421875 342.882812 L 186.421875 341.90625 L 188.304688 341.527344 L 189.378906 341.527344 L 189.378906 348.535156 L 191.121094 348.535156 L 191.121094 349.433594 L 186.570312 349.433594 Z M 186.570312 348.535156 "/>
<path style=" stroke:none;fill-rule:nonzero;fill:rgb(0%,0%,0%);fill-opacity:1;" d="M 195.566406 342.230469 C 195.011719 342.230469 194.601562 342.503906 194.320312 343.046875 C 194.039062 343.585938 193.90625 344.402344 193.90625 345.484375 C 193.90625 346.570312 194.039062 347.382812 194.320312 347.925781 C 194.601562 348.46875 195.011719 348.738281 195.566406 348.738281 C 196.117188 348.738281 196.53125 348.46875 196.8125 347.925781 C 197.082031 347.382812 197.222656 346.570312 197.222656 345.484375 C 197.222656 344.402344 197.082031 343.585938 196.8125 343.046875 C 196.53125 342.503906 196.117188 342.230469 195.566406 342.230469 Z M 195.566406 341.386719 C 196.445312 341.386719 197.117188 341.742188 197.59375 342.4375 C 198.058594 343.144531 198.296875 344.164062 198.296875 345.484375 C 198.296875 346.820312 198.058594 347.839844 197.59375 348.535156 C 197.117188 349.226562 196.445312 349.574219 195.554688 349.574219 C 194.667969 349.574219 193.996094 349.226562 193.527344 348.535156 C 193.0625 347.839844 192.835938 346.820312 192.835938 345.484375 C 192.835938 344.164062 193.0625 343.144531 193.527344 342.4375 C 193.996094 341.742188 194.675781 341.386719 195.566406 341.386719 Z M 195.566406 341.386719 "/>
<path style="fill:none;stroke-width:0.8;stroke-linecap:butt;stroke-linejoin:round;stroke:rgb(0%,0%,0%);stroke-opacity:1;stroke-miterlimit:4;" d="M 241.439504 307.584242 L 241.439504 311.084961 " transform="matrix(1.083605,0,0,1.084599,0,0)"/>
<path style=" stroke:none;fill-rule:nonzero;fill:rgb(0%,0%,0%);fill-opacity:1;" d="M 256.8125 348.535156 L 260.542969 348.535156 L 260.542969 349.433594 L 255.523438 349.433594 L 255.523438 348.535156 C 255.925781 348.121094 256.476562 347.558594 257.183594 346.839844 C 257.875 346.136719 258.320312 345.679688 258.503906 345.476562 C 258.851562 345.09375 259.089844 344.769531 259.21875 344.5 C 259.351562 344.238281 259.425781 343.96875 259.425781 343.707031 C 259.425781 343.296875 259.273438 342.949219 258.980469 342.6875 C 258.6875 342.425781 258.308594 342.285156 257.832031 342.285156 C 257.496094 342.285156 257.140625 342.351562 256.769531 342.460938 C 256.402344 342.578125 256 342.753906 255.578125 342.992188 L 255.578125 341.90625 C 256.011719 341.734375 256.414062 341.601562 256.78125 341.515625 C 257.148438 341.429688 257.496094 341.386719 257.8125 341.386719 C 258.625 341.386719 259.273438 341.59375 259.761719 342.003906 C 260.25 342.417969 260.5 342.957031 260.5 343.640625 C 260.5 343.96875 260.433594 344.28125 260.3125 344.5625 C 260.195312 344.855469 259.976562 345.203125 259.652344 345.59375 C 259.566406 345.703125 259.285156 345.996094 258.808594 346.484375 C 258.332031 346.972656 257.671875 347.65625 256.8125 348.535156 Z M 256.8125 348.535156 "/>
<path style=" stroke:none;fill-rule:nonzero;fill:rgb(0%,0%,0%);fill-opacity:1;" d="M 265.070312 342.230469 C 264.519531 342.230469 264.105469 342.503906 263.824219 343.046875 C 263.542969 343.585938 263.414062 344.402344 263.414062 345.484375 C 263.414062 346.570312 263.542969 347.382812 263.824219 347.925781 C 264.105469 348.46875 264.519531 348.738281 265.070312 348.738281 C 265.625 348.738281 266.035156 348.46875 266.316406 347.925781 C 266.589844 347.382812 266.730469 346.570312 266.730469 345.484375 C 266.730469 344.402344 266.589844 343.585938 266.316406 343.046875 C 266.035156 342.503906 265.625 342.230469 265.070312 342.230469 Z M 265.070312 341.386719 C 265.949219 341.386719 266.621094 341.742188 267.097656 342.4375 C 267.5625 343.144531 267.800781 344.164062 267.800781 345.484375 C 267.800781 346.820312 267.5625 347.839844 267.097656 348.535156 C 266.621094 349.226562 265.949219 349.574219 265.0625 349.574219 C 264.171875 349.574219 263.5 349.226562 263.035156 348.535156 C 262.566406 347.839844 262.339844 346.820312 262.339844 345.484375 C 262.339844 344.164062 262.566406 343.144531 263.035156 342.4375 C 263.5 341.742188 264.183594 341.386719 265.070312 341.386719 Z M 265.070312 341.386719 "/>
<path style="fill:none;stroke-width:0.8;stroke-linecap:butt;stroke-linejoin:round;stroke:rgb(0%,0%,0%);stroke-opacity:1;stroke-miterlimit:4;" d="M 305.580884 307.584242 L 305.580884 311.084961 " transform="matrix(1.083605,0,0,1.084599,0,0)"/>
<path style=" stroke:none;fill-rule:nonzero;fill:rgb(0%,0%,0%);fill-opacity:1;" d="M 328.636719 345.171875 C 329.148438 345.28125 329.546875 345.507812 329.828125 345.855469 C 330.113281 346.203125 330.261719 346.636719 330.261719 347.132812 C 330.261719 347.914062 329.992188 348.523438 329.460938 348.945312 C 328.917969 349.367188 328.160156 349.574219 327.175781 349.574219 C 326.839844 349.574219 326.492188 349.542969 326.144531 349.476562 C 325.796875 349.421875 325.429688 349.324219 325.0625 349.195312 L 325.0625 348.164062 C 325.355469 348.339844 325.679688 348.46875 326.039062 348.554688 C 326.382812 348.640625 326.753906 348.683594 327.140625 348.683594 C 327.8125 348.683594 328.324219 348.554688 328.671875 348.296875 C 329.015625 348.035156 329.203125 347.644531 329.203125 347.132812 C 329.203125 346.679688 329.039062 346.308594 328.714844 346.050781 C 328.386719 345.789062 327.933594 345.648438 327.347656 345.648438 L 326.425781 345.648438 L 326.425781 344.769531 L 327.390625 344.769531 C 327.910156 344.769531 328.3125 344.671875 328.59375 344.457031 C 328.875 344.25 329.015625 343.945312 329.015625 343.542969 C 329.015625 343.144531 328.867188 342.828125 328.582031 342.613281 C 328.292969 342.394531 327.878906 342.285156 327.347656 342.285156 C 327.054688 342.285156 326.742188 342.320312 326.40625 342.382812 C 326.070312 342.449219 325.703125 342.546875 325.300781 342.675781 L 325.300781 341.722656 C 325.703125 341.613281 326.082031 341.527344 326.4375 341.472656 C 326.785156 341.417969 327.121094 341.386719 327.445312 341.386719 C 328.246094 341.386719 328.886719 341.570312 329.363281 341.9375 C 329.839844 342.308594 330.078125 342.808594 330.078125 343.4375 C 330.078125 343.871094 329.949219 344.238281 329.699219 344.542969 C 329.449219 344.847656 329.09375 345.0625 328.636719 345.171875 Z M 328.636719 345.171875 "/>
<path style=" stroke:none;fill-rule:nonzero;fill:rgb(0%,0%,0%);fill-opacity:1;" d="M 334.574219 342.230469 C 334.023438 342.230469 333.613281 342.503906 333.328125 343.046875 C 333.046875 343.585938 332.917969 344.402344 332.917969 345.484375 C 332.917969 346.570312 333.046875 347.382812 333.328125 347.925781 C 333.613281 348.46875 334.023438 348.738281 334.574219 348.738281 C 335.128906 348.738281 335.539062 348.46875 335.820312 347.925781 C 336.09375 347.382812 336.234375 346.570312 336.234375 345.484375 C 336.234375 344.402344 336.09375 343.585938 335.820312 343.046875 C 335.539062 342.503906 335.128906 342.230469 334.574219 342.230469 Z M 334.574219 341.386719 C 335.453125 341.386719 336.125 341.742188 336.601562 342.4375 C 337.066406 343.144531 337.308594 344.164062 337.308594 345.484375 C 337.308594 346.820312 337.066406 347.839844 336.601562 348.535156 C 336.125 349.226562 335.453125 349.574219 334.566406 349.574219 C 333.675781 349.574219 333.003906 349.226562 332.539062 348.535156 C 332.074219 347.839844 331.84375 346.820312 331.84375 345.484375 C 331.84375 344.164062 332.074219 343.144531 332.539062 342.4375 C 333.003906 341.742188 333.6875 341.386719 334.574219 341.386719 Z M 334.574219 341.386719 "/>
<path style=" stroke:none;fill-rule:nonzero;fill:rgb(0%,0%,0%);fill-opacity:1;" d="M 233.796875 356.355469 L 240.46875 356.355469 L 240.46875 357.257812 L 237.664062 357.257812 L 237.664062 364.261719 L 236.589844 364.261719 L 236.589844 357.257812 L 233.796875 357.257812 Z M 233.796875 356.355469 "/>
<path style=" stroke:none;fill-rule:nonzero;fill:rgb(0%,0%,0%);fill-opacity:1;" d="M 241.132812 358.328125 L 242.109375 358.328125 L 242.109375 364.261719 L 241.132812 364.261719 Z M 241.132812 356.019531 L 242.109375 356.019531 L 242.109375 357.257812 L 241.132812 357.257812 Z M 241.132812 356.019531 "/>
<path style=" stroke:none;fill-rule:nonzero;fill:rgb(0%,0%,0%);fill-opacity:1;" d="M 248.761719 359.46875 C 249 359.035156 249.292969 358.71875 249.628906 358.503906 C 249.964844 358.296875 250.367188 358.1875 250.832031 358.1875 C 251.441406 358.1875 251.917969 358.40625 252.253906 358.839844 C 252.589844 359.273438 252.761719 359.890625 252.761719 360.683594 L 252.761719 364.261719 L 251.785156 364.261719 L 251.785156 360.714844 C 251.785156 360.152344 251.679688 359.730469 251.484375 359.445312 C 251.277344 359.175781 250.972656 359.035156 250.5625 359.035156 C 250.050781 359.035156 249.652344 359.207031 249.359375 359.542969 C 249.066406 359.878906 248.925781 360.335938 248.925781 360.910156 L 248.925781 364.261719 L 247.949219 364.261719 L 247.949219 360.714844 C 247.949219 360.152344 247.84375 359.730469 247.648438 359.445312 C 247.441406 359.175781 247.125 359.035156 246.714844 359.035156 C 246.214844 359.035156 245.816406 359.207031 245.523438 359.542969 C 245.230469 359.878906 245.089844 360.335938 245.089844 360.910156 L 245.089844 364.261719 L 244.113281 364.261719 L 244.113281 358.328125 L 245.089844 358.328125 L 245.089844 359.25 C 245.304688 358.894531 245.578125 358.621094 245.890625 358.449219 C 246.195312 358.277344 246.5625 358.1875 246.996094 358.1875 C 247.429688 358.1875 247.789062 358.296875 248.089844 358.515625 C 248.394531 358.730469 248.613281 359.054688 248.761719 359.46875 Z M 248.761719 359.46875 "/>
<path style=" stroke:none;fill-rule:nonzero;fill:rgb(0%,0%,0%);fill-opacity:1;" d="M 259.773438 361.050781 L 259.773438 361.527344 L 255.296875 361.527344 C 255.339844 362.203125 255.535156 362.722656 255.902344 363.070312 C 256.261719 363.417969 256.761719 363.589844 257.410156 363.589844 C 257.777344 363.589844 258.148438 363.546875 258.492188 363.460938 C 258.839844 363.375 259.199219 363.230469 259.546875 363.035156 L 259.546875 363.957031 C 259.199219 364.109375 258.839844 364.230469 258.472656 364.296875 C 258.105469 364.359375 257.722656 364.402344 257.355469 364.402344 C 256.402344 364.402344 255.65625 364.132812 255.101562 363.589844 C 254.550781 363.046875 254.277344 362.300781 254.277344 361.355469 C 254.277344 360.390625 254.539062 359.621094 255.058594 359.046875 C 255.578125 358.480469 256.292969 358.1875 257.183594 358.1875 C 257.984375 358.1875 258.613281 358.449219 259.078125 358.957031 C 259.535156 359.480469 259.773438 360.171875 259.773438 361.050781 Z M 258.796875 360.769531 C 258.785156 360.238281 258.636719 359.816406 258.351562 359.492188 C 258.058594 359.175781 257.671875 359.011719 257.195312 359.011719 C 256.652344 359.011719 256.21875 359.175781 255.894531 359.480469 C 255.566406 359.78125 255.375 360.21875 255.328125 360.769531 Z M 258.796875 360.769531 "/>
<path style=" stroke:none;fill-rule:nonzero;fill:rgb(0%,0%,0%);fill-opacity:1;" d="M 264.726562 356.019531 L 266.96875 356.019531 L 266.96875 356.777344 L 265.699219 356.777344 L 265.699219 364.925781 L 266.96875 364.925781 L 266.96875 365.683594 L 264.726562 365.683594 Z M 264.726562 356.019531 "/>
<path style=" stroke:none;fill-rule:nonzero;fill:rgb(0%,0%,0%);fill-opacity:1;" d="M 272.820312 358.503906 L 272.820312 359.425781 C 272.539062 359.296875 272.253906 359.1875 271.964844 359.109375 C 271.660156 359.046875 271.355469 359.003906 271.042969 359.003906 C 270.554688 359.003906 270.1875 359.078125 269.949219 359.230469 C 269.710938 359.382812 269.589844 359.597656 269.589844 359.890625 C 269.589844 360.121094 269.675781 360.292969 269.851562 360.421875 C 270.023438 360.554688 270.371094 360.683594 270.890625 360.792969 L 271.226562 360.867188 C 271.917969 361.019531 272.40625 361.238281 272.699219 361.496094 C 272.980469 361.769531 273.132812 362.148438 273.132812 362.625 C 273.132812 363.179688 272.917969 363.613281 272.484375 363.925781 C 272.050781 364.25 271.441406 364.402344 270.683594 364.402344 C 270.359375 364.402344 270.035156 364.371094 269.6875 364.316406 C 269.339844 364.261719 268.984375 364.175781 268.605469 364.046875 L 268.605469 363.035156 C 268.960938 363.230469 269.320312 363.375 269.664062 363.460938 C 270.011719 363.558594 270.359375 363.601562 270.707031 363.601562 C 271.160156 363.601562 271.519531 363.523438 271.769531 363.375 C 272.007812 363.222656 272.136719 362.992188 272.136719 362.699219 C 272.136719 362.441406 272.039062 362.234375 271.867188 362.09375 C 271.691406 361.953125 271.300781 361.8125 270.695312 361.679688 L 270.359375 361.605469 C 269.753906 361.476562 269.308594 361.28125 269.046875 361.019531 C 268.777344 360.757812 268.648438 360.402344 268.648438 359.933594 C 268.648438 359.382812 268.84375 358.949219 269.234375 358.644531 C 269.621094 358.339844 270.1875 358.1875 270.921875 358.1875 C 271.28125 358.1875 271.617188 358.222656 271.941406 358.277344 C 272.253906 358.328125 272.546875 358.40625 272.820312 358.503906 Z M 272.820312 358.503906 "/>
<path style=" stroke:none;fill-rule:nonzero;fill:rgb(0%,0%,0%);fill-opacity:1;" d="M 276.957031 356.019531 L 276.957031 365.683594 L 274.714844 365.683594 L 274.714844 364.925781 L 275.984375 364.925781 L 275.984375 356.777344 L 274.714844 356.777344 L 274.714844 356.019531 Z M 276.957031 356.019531 "/>
<path style="fill:none;stroke-width:0.8;stroke-linecap:butt;stroke-linejoin:round;stroke:rgb(0%,0%,0%);stroke-opacity:1;stroke-miterlimit:4;" d="M 103.102772 279.971063 L 99.602447 279.971063 " transform="matrix(1.083605,0,0,1.084599,0,0)"/>
<path style=" stroke:none;fill-rule:nonzero;fill:rgb(0%,0%,0%);fill-opacity:1;" d="M 92.4375 306.875 L 96.164062 306.875 L 96.164062 307.777344 L 91.148438 307.777344 L 91.148438 306.875 C 91.546875 306.464844 92.101562 305.898438 92.804688 305.183594 C 93.5 304.480469 93.941406 304.023438 94.128906 303.816406 C 94.472656 303.4375 94.710938 303.113281 94.84375 302.839844 C 94.972656 302.582031 95.046875 302.308594 95.046875 302.050781 C 95.046875 301.636719 94.898438 301.289062 94.605469 301.03125 C 94.3125 300.769531 93.933594 300.628906 93.457031 300.628906 C 93.121094 300.628906 92.761719 300.695312 92.394531 300.800781 C 92.023438 300.921875 91.625 301.09375 91.203125 301.335938 L 91.203125 300.25 C 91.636719 300.074219 92.035156 299.945312 92.40625 299.859375 C 92.773438 299.773438 93.121094 299.730469 93.433594 299.730469 C 94.246094 299.730469 94.898438 299.933594 95.382812 300.347656 C 95.871094 300.757812 96.121094 301.300781 96.121094 301.984375 C 96.121094 302.308594 96.054688 302.625 95.9375 302.90625 C 95.816406 303.199219 95.601562 303.546875 95.277344 303.9375 C 95.1875 304.046875 94.90625 304.339844 94.429688 304.828125 C 93.953125 305.316406 93.292969 305.996094 92.4375 306.875 Z M 92.4375 306.875 "/>
<path style=" stroke:none;fill-rule:nonzero;fill:rgb(0%,0%,0%);fill-opacity:1;" d="M 98.417969 299.871094 L 102.613281 299.871094 L 102.613281 300.769531 L 99.394531 300.769531 L 99.394531 302.710938 C 99.546875 302.65625 99.707031 302.613281 99.859375 302.59375 C 100.011719 302.570312 100.175781 302.546875 100.324219 302.546875 C 101.203125 302.546875 101.898438 302.796875 102.417969 303.277344 C 102.9375 303.761719 103.195312 304.414062 103.195312 305.238281 C 103.195312 306.09375 102.925781 306.757812 102.394531 307.222656 C 101.863281 307.691406 101.117188 307.917969 100.164062 307.917969 C 99.828125 307.917969 99.492188 307.886719 99.144531 307.839844 C 98.796875 307.789062 98.449219 307.710938 98.082031 307.59375 L 98.082031 306.519531 C 98.398438 306.691406 98.722656 306.820312 99.070312 306.910156 C 99.40625 306.996094 99.761719 307.027344 100.140625 307.027344 C 100.75 307.027344 101.234375 306.875 101.59375 306.550781 C 101.941406 306.226562 102.125 305.792969 102.125 305.238281 C 102.125 304.695312 101.941406 304.261719 101.59375 303.9375 C 101.234375 303.613281 100.75 303.449219 100.140625 303.449219 C 99.859375 303.449219 99.566406 303.480469 99.285156 303.546875 C 99.003906 303.613281 98.710938 303.710938 98.417969 303.839844 Z M 98.417969 299.871094 "/>
<path style="fill:none;stroke-width:0.8;stroke-linecap:butt;stroke-linejoin:round;stroke:rgb(0%,0%,0%);stroke-opacity:1;stroke-miterlimit:4;" d="M 103.102772 245.795836 L 99.602447 245.795836 " transform="matrix(1.083605,0,0,1.084599,0,0)"/>
<path style=" stroke:none;fill-rule:nonzero;fill:rgb(0%,0%,0%);fill-opacity:1;" d="M 91.527344 262.800781 L 95.71875 262.800781 L 95.71875 263.703125 L 92.5 263.703125 L 92.5 265.644531 C 92.652344 265.589844 92.816406 265.546875 92.96875 265.523438 C 93.121094 265.503906 93.28125 265.480469 93.433594 265.480469 C 94.3125 265.480469 95.003906 265.730469 95.523438 266.207031 C 96.046875 266.695312 96.304688 267.347656 96.304688 268.171875 C 96.304688 269.027344 96.035156 269.691406 95.503906 270.15625 C 94.972656 270.621094 94.226562 270.851562 93.269531 270.851562 C 92.933594 270.851562 92.597656 270.816406 92.253906 270.773438 C 91.90625 270.71875 91.558594 270.644531 91.191406 270.523438 L 91.191406 269.453125 C 91.503906 269.625 91.832031 269.753906 92.175781 269.839844 C 92.511719 269.929688 92.871094 269.960938 93.25 269.960938 C 93.855469 269.960938 94.34375 269.808594 94.703125 269.484375 C 95.046875 269.160156 95.234375 268.722656 95.234375 268.171875 C 95.234375 267.628906 95.046875 267.195312 94.703125 266.871094 C 94.34375 266.542969 93.855469 266.382812 93.25 266.382812 C 92.96875 266.382812 92.675781 266.414062 92.394531 266.480469 C 92.113281 266.542969 91.820312 266.640625 91.527344 266.773438 Z M 91.527344 262.800781 "/>
<path style=" stroke:none;fill-rule:nonzero;fill:rgb(0%,0%,0%);fill-opacity:1;" d="M 100.695312 263.507812 C 100.140625 263.507812 99.730469 263.777344 99.449219 264.320312 C 99.167969 264.863281 99.035156 265.675781 99.035156 266.761719 C 99.035156 267.847656 99.167969 268.660156 99.449219 269.203125 C 99.730469 269.742188 100.140625 270.015625 100.695312 270.015625 C 101.246094 270.015625 101.660156 269.742188 101.941406 269.203125 C 102.210938 268.660156 102.351562 267.847656 102.351562 266.761719 C 102.351562 265.675781 102.210938 264.863281 101.941406 264.320312 C 101.660156 263.777344 101.246094 263.507812 100.695312 263.507812 Z M 100.695312 262.660156 C 101.570312 262.660156 102.242188 263.019531 102.71875 263.714844 C 103.1875 264.417969 103.425781 265.4375 103.425781 266.761719 C 103.425781 268.09375 103.1875 269.113281 102.71875 269.808594 C 102.242188 270.503906 101.570312 270.851562 100.683594 270.851562 C 99.792969 270.851562 99.121094 270.503906 98.65625 269.808594 C 98.191406 269.113281 97.964844 268.09375 97.964844 266.761719 C 97.964844 265.4375 98.191406 264.417969 98.65625 263.714844 C 99.121094 263.019531 99.804688 262.660156 100.695312 262.660156 Z M 100.695312 262.660156 "/>
<path style="fill:none;stroke-width:0.8;stroke-linecap:butt;stroke-linejoin:round;stroke:rgb(0%,0%,0%);stroke-opacity:1;stroke-miterlimit:4;" d="M 103.102772 211.620609 L 99.602447 211.620609 " transform="matrix(1.083605,0,0,1.084599,0,0)"/>
<path style=" stroke:none;fill-rule:nonzero;fill:rgb(0%,0%,0%);fill-opacity:1;" d="M 91.246094 225.734375 L 96.328125 225.734375 L 96.328125 226.191406 L 93.457031 233.640625 L 92.339844 233.640625 L 95.039062 226.636719 L 91.246094 226.636719 Z M 91.246094 225.734375 "/>
<path style=" stroke:none;fill-rule:nonzero;fill:rgb(0%,0%,0%);fill-opacity:1;" d="M 98.417969 225.734375 L 102.613281 225.734375 L 102.613281 226.636719 L 99.394531 226.636719 L 99.394531 228.578125 C 99.546875 228.523438 99.707031 228.480469 99.859375 228.457031 C 100.011719 228.4375 100.175781 228.414062 100.324219 228.414062 C 101.203125 228.414062 101.898438 228.664062 102.417969 229.140625 C 102.9375 229.628906 103.195312 230.28125 103.195312 231.105469 C 103.195312 231.960938 102.925781 232.621094 102.394531 233.089844 C 101.863281 233.554688 101.117188 233.78125 100.164062 233.78125 C 99.828125 233.78125 99.492188 233.75 99.144531 233.707031 C 98.796875 233.652344 98.449219 233.578125 98.082031 233.457031 L 98.082031 232.382812 C 98.398438 232.558594 98.722656 232.6875 99.070312 232.773438 C 99.40625 232.859375 99.761719 232.894531 100.140625 232.894531 C 100.75 232.894531 101.234375 232.742188 101.59375 232.417969 C 101.941406 232.089844 102.125 231.65625 102.125 231.105469 C 102.125 230.5625 101.941406 230.128906 101.59375 229.800781 C 101.234375 229.476562 100.75 229.316406 100.140625 229.316406 C 99.859375 229.316406 99.566406 229.347656 99.285156 229.414062 C 99.003906 229.476562 98.710938 229.574219 98.417969 229.703125 Z M 98.417969 225.734375 "/>
<path style="fill:none;stroke-width:0.8;stroke-linecap:butt;stroke-linejoin:round;stroke:rgb(0%,0%,0%);stroke-opacity:1;stroke-miterlimit:4;" d="M 103.102772 177.445383 L 99.602447 177.445383 " transform="matrix(1.083605,0,0,1.084599,0,0)"/>
<path style=" stroke:none;fill-rule:nonzero;fill:rgb(0%,0%,0%);fill-opacity:1;" d="M 84.808594 195.675781 L 86.554688 195.675781 L 86.554688 189.644531 L 84.65625 190.023438 L 84.65625 189.046875 L 86.542969 188.667969 L 87.617188 188.667969 L 87.617188 195.675781 L 89.359375 195.675781 L 89.359375 196.574219 L 84.808594 196.574219 Z M 84.808594 195.675781 "/>
<path style=" stroke:none;fill-rule:nonzero;fill:rgb(0%,0%,0%);fill-opacity:1;" d="M 93.804688 189.375 C 93.25 189.375 92.839844 189.644531 92.558594 190.1875 C 92.277344 190.730469 92.144531 191.542969 92.144531 192.625 C 92.144531 193.710938 92.277344 194.523438 92.558594 195.066406 C 92.839844 195.609375 93.25 195.878906 93.804688 195.878906 C 94.355469 195.878906 94.769531 195.609375 95.050781 195.066406 C 95.320312 194.523438 95.460938 193.710938 95.460938 192.625 C 95.460938 191.542969 95.320312 190.730469 95.050781 190.1875 C 94.769531 189.644531 94.355469 189.375 93.804688 189.375 Z M 93.804688 188.527344 C 94.679688 188.527344 95.351562 188.886719 95.828125 189.578125 C 96.296875 190.285156 96.535156 191.304688 96.535156 192.625 C 96.535156 193.960938 96.296875 194.980469 95.828125 195.675781 C 95.351562 196.367188 94.679688 196.714844 93.792969 196.714844 C 92.902344 196.714844 92.230469 196.367188 91.765625 195.675781 C 91.300781 194.980469 91.074219 193.960938 91.074219 192.625 C 91.074219 191.304688 91.300781 190.285156 91.765625 189.578125 C 92.230469 188.886719 92.914062 188.527344 93.804688 188.527344 Z M 93.804688 188.527344 "/>
<path style=" stroke:none;fill-rule:nonzero;fill:rgb(0%,0%,0%);fill-opacity:1;" d="M 100.695312 189.375 C 100.140625 189.375 99.730469 189.644531 99.449219 190.1875 C 99.167969 190.730469 99.039062 191.542969 99.039062 192.625 C 99.039062 193.710938 99.167969 194.523438 99.449219 195.066406 C 99.730469 195.609375 100.140625 195.878906 100.695312 195.878906 C 101.246094 195.878906 101.660156 195.609375 101.941406 195.066406 C 102.210938 194.523438 102.351562 193.710938 102.351562 192.625 C 102.351562 191.542969 102.210938 190.730469 101.941406 190.1875 C 101.660156 189.644531 101.246094 189.375 100.695312 189.375 Z M 100.695312 188.527344 C 101.574219 188.527344 102.246094 188.886719 102.722656 189.578125 C 103.1875 190.285156 103.425781 191.304688 103.425781 192.625 C 103.425781 193.960938 103.1875 194.980469 102.722656 195.675781 C 102.246094 196.367188 101.574219 196.714844 100.683594 196.714844 C 99.796875 196.714844 99.125 196.367188 98.65625 195.675781 C 98.191406 194.980469 97.964844 193.960938 97.964844 192.625 C 97.964844 191.304688 98.191406 190.285156 98.65625 189.578125 C 99.125 188.886719 99.804688 188.527344 100.695312 188.527344 Z M 100.695312 188.527344 "/>
<path style="fill:none;stroke-width:0.8;stroke-linecap:butt;stroke-linejoin:round;stroke:rgb(0%,0%,0%);stroke-opacity:1;stroke-miterlimit:4;" d="M 103.102772 143.270156 L 99.602447 143.270156 " transform="matrix(1.083605,0,0,1.084599,0,0)"/>
<path style=" stroke:none;fill-rule:nonzero;fill:rgb(0%,0%,0%);fill-opacity:1;" d="M 84.808594 158.609375 L 86.554688 158.609375 L 86.554688 152.578125 L 84.65625 152.957031 L 84.65625 151.980469 L 86.542969 151.601562 L 87.617188 151.601562 L 87.617188 158.609375 L 89.359375 158.609375 L 89.359375 159.507812 L 84.808594 159.507812 Z M 84.808594 158.609375 "/>
<path style=" stroke:none;fill-rule:nonzero;fill:rgb(0%,0%,0%);fill-opacity:1;" d="M 92.4375 158.609375 L 96.164062 158.609375 L 96.164062 159.507812 L 91.148438 159.507812 L 91.148438 158.609375 C 91.550781 158.195312 92.101562 157.632812 92.804688 156.917969 C 93.5 156.210938 93.945312 155.757812 94.128906 155.550781 C 94.476562 155.171875 94.714844 154.84375 94.84375 154.574219 C 94.972656 154.3125 95.050781 154.042969 95.050781 153.78125 C 95.050781 153.371094 94.898438 153.023438 94.605469 152.761719 C 94.3125 152.503906 93.933594 152.359375 93.457031 152.359375 C 93.121094 152.359375 92.761719 152.425781 92.394531 152.535156 C 92.027344 152.652344 91.625 152.828125 91.203125 153.066406 L 91.203125 151.980469 C 91.636719 151.808594 92.035156 151.679688 92.40625 151.589844 C 92.773438 151.503906 93.121094 151.460938 93.433594 151.460938 C 94.246094 151.460938 94.898438 151.667969 95.386719 152.078125 C 95.871094 152.492188 96.121094 153.035156 96.121094 153.71875 C 96.121094 154.042969 96.058594 154.355469 95.9375 154.640625 C 95.820312 154.933594 95.601562 155.277344 95.277344 155.667969 C 95.191406 155.777344 94.910156 156.070312 94.433594 156.558594 C 93.953125 157.046875 93.292969 157.730469 92.4375 158.609375 Z M 92.4375 158.609375 "/>
<path style=" stroke:none;fill-rule:nonzero;fill:rgb(0%,0%,0%);fill-opacity:1;" d="M 98.417969 151.601562 L 102.613281 151.601562 L 102.613281 152.503906 L 99.394531 152.503906 L 99.394531 154.445312 C 99.546875 154.390625 99.707031 154.347656 99.859375 154.324219 C 100.011719 154.300781 100.175781 154.28125 100.328125 154.28125 C 101.203125 154.28125 101.898438 154.53125 102.417969 155.007812 C 102.9375 155.496094 103.199219 156.144531 103.199219 156.972656 C 103.199219 157.828125 102.925781 158.488281 102.394531 158.957031 C 101.867188 159.421875 101.117188 159.648438 100.164062 159.648438 C 99.828125 159.648438 99.492188 159.617188 99.144531 159.574219 C 98.796875 159.519531 98.453125 159.445312 98.082031 159.324219 L 98.082031 158.25 C 98.398438 158.425781 98.722656 158.554688 99.070312 158.640625 C 99.40625 158.726562 99.761719 158.761719 100.140625 158.761719 C 100.75 158.761719 101.238281 158.609375 101.59375 158.28125 C 101.941406 157.957031 102.125 157.523438 102.125 156.972656 C 102.125 156.429688 101.941406 155.996094 101.59375 155.667969 C 101.238281 155.34375 100.75 155.179688 100.140625 155.179688 C 99.859375 155.179688 99.566406 155.214844 99.285156 155.277344 C 99.003906 155.34375 98.710938 155.441406 98.417969 155.570312 Z M 98.417969 151.601562 "/>
<path style="fill:none;stroke-width:0.8;stroke-linecap:butt;stroke-linejoin:round;stroke:rgb(0%,0%,0%);stroke-opacity:1;stroke-miterlimit:4;" d="M 103.102772 109.09493 L 99.602447 109.09493 " transform="matrix(1.083605,0,0,1.084599,0,0)"/>
<path style=" stroke:none;fill-rule:nonzero;fill:rgb(0%,0%,0%);fill-opacity:1;" d="M 84.808594 121.542969 L 86.554688 121.542969 L 86.554688 115.511719 L 84.65625 115.890625 L 84.65625 114.914062 L 86.542969 114.535156 L 87.617188 114.535156 L 87.617188 121.542969 L 89.359375 121.542969 L 89.359375 122.441406 L 84.808594 122.441406 Z M 84.808594 121.542969 "/>
<path style=" stroke:none;fill-rule:nonzero;fill:rgb(0%,0%,0%);fill-opacity:1;" d="M 91.527344 114.535156 L 95.722656 114.535156 L 95.722656 115.433594 L 92.503906 115.433594 L 92.503906 117.375 C 92.65625 117.320312 92.816406 117.277344 92.96875 117.257812 C 93.121094 117.234375 93.28125 117.214844 93.433594 117.214844 C 94.3125 117.214844 95.007812 117.464844 95.527344 117.941406 C 96.046875 118.429688 96.304688 119.078125 96.304688 119.902344 C 96.304688 120.761719 96.035156 121.421875 95.503906 121.886719 C 94.972656 122.355469 94.226562 122.582031 93.273438 122.582031 C 92.9375 122.582031 92.601562 122.550781 92.253906 122.507812 C 91.90625 122.453125 91.558594 122.375 91.191406 122.257812 L 91.191406 121.183594 C 91.507812 121.355469 91.832031 121.488281 92.179688 121.574219 C 92.515625 121.660156 92.871094 121.691406 93.25 121.691406 C 93.859375 121.691406 94.34375 121.542969 94.703125 121.214844 C 95.050781 120.890625 95.234375 120.457031 95.234375 119.902344 C 95.234375 119.359375 95.050781 118.925781 94.703125 118.601562 C 94.34375 118.277344 93.859375 118.113281 93.25 118.113281 C 92.96875 118.113281 92.675781 118.144531 92.394531 118.210938 C 92.113281 118.277344 91.820312 118.375 91.527344 118.503906 Z M 91.527344 114.535156 "/>
<path style=" stroke:none;fill-rule:nonzero;fill:rgb(0%,0%,0%);fill-opacity:1;" d="M 100.695312 115.238281 C 100.140625 115.238281 99.730469 115.511719 99.449219 116.054688 C 99.167969 116.59375 99.039062 117.410156 99.039062 118.492188 C 99.039062 119.578125 99.167969 120.390625 99.449219 120.933594 C 99.730469 121.476562 100.140625 121.746094 100.695312 121.746094 C 101.246094 121.746094 101.660156 121.476562 101.941406 120.933594 C 102.210938 120.390625 102.351562 119.578125 102.351562 118.492188 C 102.351562 117.410156 102.210938 116.59375 101.941406 116.054688 C 101.660156 115.511719 101.246094 115.238281 100.695312 115.238281 Z M 100.695312 114.394531 C 101.574219 114.394531 102.246094 114.75 102.722656 115.445312 C 103.1875 116.152344 103.425781 117.171875 103.425781 118.492188 C 103.425781 119.828125 103.1875 120.847656 102.722656 121.542969 C 102.246094 122.234375 101.574219 122.582031 100.683594 122.582031 C 99.796875 122.582031 99.125 122.234375 98.65625 121.542969 C 98.191406 120.847656 97.964844 119.828125 97.964844 118.492188 C 97.964844 117.171875 98.191406 116.152344 98.65625 115.445312 C 99.125 114.75 99.804688 114.394531 100.695312 114.394531 Z M 100.695312 114.394531 "/>
<path style="fill:none;stroke-width:0.8;stroke-linecap:butt;stroke-linejoin:round;stroke:rgb(0%,0%,0%);stroke-opacity:1;stroke-miterlimit:4;" d="M 103.102772 74.919703 L 99.602447 74.919703 " transform="matrix(1.083605,0,0,1.084599,0,0)"/>
<path style=" stroke:none;fill-rule:nonzero;fill:rgb(0%,0%,0%);fill-opacity:1;" d="M 84.808594 84.476562 L 86.554688 84.476562 L 86.554688 78.445312 L 84.65625 78.824219 L 84.65625 77.847656 L 86.542969 77.46875 L 87.617188 77.46875 L 87.617188 84.476562 L 89.359375 84.476562 L 89.359375 85.375 L 84.808594 85.375 Z M 84.808594 84.476562 "/>
<path style=" stroke:none;fill-rule:nonzero;fill:rgb(0%,0%,0%);fill-opacity:1;" d="M 91.246094 77.46875 L 96.328125 77.46875 L 96.328125 77.925781 L 93.457031 85.375 L 92.339844 85.375 L 95.039062 78.367188 L 91.246094 78.367188 Z M 91.246094 77.46875 "/>
<path style=" stroke:none;fill-rule:nonzero;fill:rgb(0%,0%,0%);fill-opacity:1;" d="M 98.417969 77.46875 L 102.613281 77.46875 L 102.613281 78.367188 L 99.394531 78.367188 L 99.394531 80.308594 C 99.546875 80.257812 99.707031 80.210938 99.859375 80.191406 C 100.011719 80.167969 100.175781 80.148438 100.328125 80.148438 C 101.203125 80.148438 101.898438 80.398438 102.417969 80.875 C 102.9375 81.363281 103.199219 82.011719 103.199219 82.835938 C 103.199219 83.695312 102.925781 84.355469 102.394531 84.820312 C 101.867188 85.289062 101.117188 85.515625 100.164062 85.515625 C 99.828125 85.515625 99.492188 85.484375 99.144531 85.441406 C 98.796875 85.386719 98.453125 85.308594 98.082031 85.191406 L 98.082031 84.117188 C 98.398438 84.289062 98.722656 84.421875 99.070312 84.507812 C 99.40625 84.59375 99.761719 84.625 100.140625 84.625 C 100.75 84.625 101.238281 84.476562 101.59375 84.148438 C 101.941406 83.824219 102.125 83.390625 102.125 82.835938 C 102.125 82.296875 101.941406 81.859375 101.59375 81.535156 C 101.238281 81.210938 100.75 81.046875 100.140625 81.046875 C 99.859375 81.046875 99.566406 81.082031 99.285156 81.144531 C 99.003906 81.210938 98.710938 81.308594 98.417969 81.4375 Z M 98.417969 77.46875 "/>
<path style=" stroke:none;fill-rule:nonzero;fill:rgb(0%,0%,0%);fill-opacity:1;" d="M 69.859375 222.132812 L 76 222.132812 L 76 220.84375 C 76 219.757812 75.761719 218.957031 75.265625 218.445312 C 74.765625 217.949219 73.988281 217.6875 72.925781 217.6875 C 71.863281 217.6875 71.09375 217.949219 70.59375 218.445312 C 70.105469 218.957031 69.859375 219.757812 69.859375 220.84375 Z M 68.980469 223.207031 L 68.980469 221.007812 C 68.980469 219.476562 69.304688 218.347656 69.933594 217.632812 C 70.574219 216.917969 71.570312 216.558594 72.925781 216.558594 C 74.289062 216.558594 75.285156 216.929688 75.925781 217.644531 C 76.566406 218.359375 76.878906 219.488281 76.878906 221.007812 L 76.878906 223.207031 Z M 68.980469 223.207031 "/>
<path style=" stroke:none;fill-rule:nonzero;fill:rgb(0%,0%,0%);fill-opacity:1;" d="M 70.953125 214.898438 L 70.953125 213.925781 L 76.878906 213.925781 L 76.878906 214.898438 Z M 68.644531 214.898438 L 68.644531 213.925781 L 69.878906 213.925781 L 69.878906 214.898438 Z M 68.644531 214.898438 "/>
<path style=" stroke:none;fill-rule:nonzero;fill:rgb(0%,0%,0%);fill-opacity:1;" d="M 71.125 208.101562 L 72.046875 208.101562 C 71.917969 208.382812 71.808594 208.664062 71.734375 208.957031 C 71.667969 209.261719 71.625 209.5625 71.625 209.878906 C 71.625 210.367188 71.699219 210.734375 71.851562 210.972656 C 72.003906 211.210938 72.21875 211.332031 72.511719 211.332031 C 72.738281 211.332031 72.914062 211.246094 73.042969 211.070312 C 73.171875 210.898438 73.304688 210.550781 73.410156 210.03125 L 73.488281 209.695312 C 73.640625 209 73.855469 208.511719 74.117188 208.21875 C 74.386719 207.9375 74.765625 207.785156 75.242188 207.785156 C 75.796875 207.785156 76.230469 208.003906 76.542969 208.4375 C 76.867188 208.871094 77.019531 209.476562 77.019531 210.238281 C 77.019531 210.5625 76.988281 210.886719 76.933594 211.234375 C 76.878906 211.582031 76.792969 211.9375 76.664062 212.320312 L 75.65625 212.320312 C 75.851562 211.960938 75.992188 211.601562 76.078125 211.257812 C 76.175781 210.910156 76.21875 210.5625 76.21875 210.214844 C 76.21875 209.757812 76.144531 209.402344 75.992188 209.152344 C 75.839844 208.914062 75.613281 208.78125 75.320312 208.78125 C 75.058594 208.78125 74.851562 208.878906 74.710938 209.054688 C 74.570312 209.226562 74.429688 209.617188 74.300781 210.226562 L 74.226562 210.5625 C 74.09375 211.167969 73.898438 211.613281 73.640625 211.875 C 73.378906 212.144531 73.023438 212.277344 72.554688 212.277344 C 72.003906 212.277344 71.570312 212.082031 71.265625 211.691406 C 70.964844 211.300781 70.8125 210.734375 70.8125 209.996094 C 70.8125 209.640625 70.84375 209.304688 70.898438 208.976562 C 70.953125 208.664062 71.027344 208.371094 71.125 208.101562 Z M 71.125 208.101562 "/>
<path style=" stroke:none;fill-rule:nonzero;fill:rgb(0%,0%,0%);fill-opacity:1;" d="M 69.273438 205.269531 L 70.953125 205.269531 L 70.953125 203.261719 L 71.710938 203.261719 L 71.710938 205.269531 L 74.929688 205.269531 C 75.417969 205.269531 75.730469 205.203125 75.859375 205.074219 C 76 204.945312 76.066406 204.671875 76.066406 204.261719 L 76.066406 203.261719 L 76.878906 203.261719 L 76.878906 204.261719 C 76.878906 205.019531 76.738281 205.539062 76.457031 205.820312 C 76.175781 206.105469 75.664062 206.246094 74.929688 206.246094 L 71.710938 206.246094 L 71.710938 206.960938 L 70.953125 206.960938 L 70.953125 206.246094 L 69.273438 206.246094 Z M 69.273438 205.269531 "/>
<path style=" stroke:none;fill-rule:nonzero;fill:rgb(0%,0%,0%);fill-opacity:1;" d="M 73.898438 199.28125 C 73.898438 200.074219 73.996094 200.617188 74.171875 200.917969 C 74.355469 201.222656 74.65625 201.375 75.089844 201.375 C 75.4375 201.375 75.71875 201.265625 75.914062 201.039062 C 76.121094 200.8125 76.21875 200.496094 76.21875 200.105469 C 76.21875 199.5625 76.035156 199.128906 75.644531 198.804688 C 75.265625 198.480469 74.753906 198.316406 74.117188 198.316406 L 73.898438 198.316406 Z M 73.5 197.339844 L 76.878906 197.339844 L 76.878906 198.316406 L 75.980469 198.316406 C 76.347656 198.542969 76.609375 198.828125 76.769531 199.152344 C 76.933594 199.476562 77.019531 199.890625 77.019531 200.367188 C 77.019531 200.972656 76.859375 201.460938 76.523438 201.820312 C 76.1875 202.179688 75.730469 202.351562 75.15625 202.351562 C 74.496094 202.351562 73.996094 202.132812 73.652344 201.679688 C 73.316406 201.234375 73.140625 200.574219 73.140625 199.683594 L 73.140625 198.316406 L 73.042969 198.316406 C 72.597656 198.316406 72.253906 198.46875 72.003906 198.761719 C 71.765625 199.054688 71.636719 199.464844 71.636719 199.996094 C 71.636719 200.34375 71.679688 200.671875 71.765625 200.996094 C 71.851562 201.320312 71.972656 201.625 72.121094 201.917969 L 71.222656 201.917969 C 71.09375 201.570312 70.984375 201.222656 70.917969 200.886719 C 70.855469 200.550781 70.8125 200.226562 70.8125 199.898438 C 70.8125 199.042969 71.039062 198.402344 71.484375 197.980469 C 71.925781 197.558594 72.597656 197.339844 73.5 197.339844 Z M 73.5 197.339844 "/>
<path style=" stroke:none;fill-rule:nonzero;fill:rgb(0%,0%,0%);fill-opacity:1;" d="M 73.304688 190.398438 L 76.878906 190.398438 L 76.878906 191.375 L 73.335938 191.375 C 72.773438 191.375 72.359375 191.496094 72.078125 191.710938 C 71.796875 191.929688 71.65625 192.253906 71.65625 192.6875 C 71.65625 193.21875 71.828125 193.632812 72.164062 193.933594 C 72.5 194.238281 72.957031 194.390625 73.53125 194.390625 L 76.878906 194.390625 L 76.878906 195.367188 L 70.953125 195.367188 L 70.953125 194.390625 L 71.875 194.390625 C 71.527344 194.164062 71.253906 193.890625 71.082031 193.566406 C 70.910156 193.25 70.8125 192.882812 70.8125 192.472656 C 70.8125 191.796875 71.027344 191.277344 71.449219 190.929688 C 71.875 190.582031 72.492188 190.398438 73.304688 190.398438 Z M 73.304688 190.398438 "/>
<path style=" stroke:none;fill-rule:nonzero;fill:rgb(0%,0%,0%);fill-opacity:1;" d="M 71.179688 184.183594 L 72.089844 184.183594 C 71.9375 184.464844 71.828125 184.738281 71.753906 185.019531 C 71.679688 185.300781 71.636719 185.574219 71.636719 185.855469 C 71.636719 186.484375 71.839844 186.984375 72.242188 187.328125 C 72.644531 187.675781 73.207031 187.851562 73.921875 187.851562 C 74.648438 187.851562 75.210938 187.675781 75.613281 187.328125 C 76.011719 186.984375 76.207031 186.484375 76.207031 185.855469 C 76.207031 185.574219 76.175781 185.300781 76.097656 185.019531 C 76.023438 184.738281 75.90625 184.464844 75.753906 184.183594 L 76.652344 184.183594 C 76.78125 184.464844 76.878906 184.75 76.933594 185.03125 C 76.988281 185.324219 77.019531 185.636719 77.019531 185.964844 C 77.019531 186.851562 76.75 187.566406 76.1875 188.089844 C 75.632812 188.621094 74.875 188.878906 73.921875 188.878906 C 72.957031 188.878906 72.199219 188.621094 71.644531 188.089844 C 71.09375 187.558594 70.8125 186.832031 70.8125 185.898438 C 70.8125 185.59375 70.84375 185.300781 70.910156 185.019531 C 70.972656 184.738281 71.0625 184.457031 71.179688 184.183594 Z M 71.179688 184.183594 "/>
<path style=" stroke:none;fill-rule:nonzero;fill:rgb(0%,0%,0%);fill-opacity:1;" d="M 73.671875 177.417969 L 74.148438 177.417969 L 74.148438 181.894531 C 74.820312 181.851562 75.339844 181.65625 75.6875 181.289062 C 76.035156 180.929688 76.207031 180.433594 76.207031 179.78125 C 76.207031 179.414062 76.164062 179.042969 76.078125 178.695312 C 75.992188 178.347656 75.851562 177.992188 75.65625 177.644531 L 76.578125 177.644531 C 76.726562 177.992188 76.847656 178.347656 76.910156 178.71875 C 76.976562 179.085938 77.019531 179.464844 77.019531 179.835938 C 77.019531 180.789062 76.75 181.539062 76.207031 182.089844 C 75.664062 182.644531 74.917969 182.914062 73.976562 182.914062 C 73.011719 182.914062 72.242188 182.65625 71.667969 182.132812 C 71.105469 181.613281 70.8125 180.898438 70.8125 180.007812 C 70.8125 179.207031 71.070312 178.578125 71.582031 178.109375 C 72.101562 177.65625 72.792969 177.417969 73.671875 177.417969 Z M 73.390625 178.394531 C 72.859375 178.402344 72.4375 178.554688 72.113281 178.835938 C 71.796875 179.128906 71.636719 179.519531 71.636719 179.996094 C 71.636719 180.539062 71.796875 180.972656 72.101562 181.300781 C 72.40625 181.625 72.835938 181.820312 73.390625 181.863281 Z M 73.390625 178.394531 "/>
<path style=" stroke:none;fill-rule:nonzero;fill:rgb(0%,0%,0%);fill-opacity:1;" d="M 68.644531 172.460938 L 68.644531 170.214844 L 69.402344 170.214844 L 69.402344 171.484375 L 77.539062 171.484375 L 77.539062 170.214844 L 78.300781 170.214844 L 78.300781 172.460938 Z M 68.644531 172.460938 "/>
<path style=" stroke:none;fill-rule:nonzero;fill:rgb(0%,0%,0%);fill-opacity:1;" d="M 72.089844 163.523438 C 71.65625 163.285156 71.34375 162.992188 71.125 162.65625 C 70.917969 162.320312 70.8125 161.917969 70.8125 161.453125 C 70.8125 160.84375 71.027344 160.367188 71.460938 160.03125 C 71.894531 159.695312 72.511719 159.519531 73.304688 159.519531 L 76.878906 159.519531 L 76.878906 160.496094 L 73.335938 160.496094 C 72.773438 160.496094 72.351562 160.605469 72.070312 160.800781 C 71.796875 161.007812 71.65625 161.308594 71.65625 161.722656 C 71.65625 162.230469 71.828125 162.632812 72.164062 162.925781 C 72.5 163.21875 72.957031 163.359375 73.53125 163.359375 L 76.878906 163.359375 L 76.878906 164.335938 L 73.335938 164.335938 C 72.773438 164.335938 72.351562 164.445312 72.070312 164.640625 C 71.796875 164.847656 71.65625 165.160156 71.65625 165.574219 C 71.65625 166.070312 71.828125 166.472656 72.164062 166.765625 C 72.5 167.058594 72.957031 167.199219 73.53125 167.199219 L 76.878906 167.199219 L 76.878906 168.175781 L 70.953125 168.175781 L 70.953125 167.199219 L 71.875 167.199219 C 71.515625 166.984375 71.246094 166.710938 71.070312 166.398438 C 70.898438 166.09375 70.8125 165.722656 70.8125 165.289062 C 70.8125 164.855469 70.917969 164.5 71.136719 164.195312 C 71.351562 163.890625 71.679688 163.675781 72.089844 163.523438 Z M 72.089844 163.523438 "/>
<path style=" stroke:none;fill-rule:nonzero;fill:rgb(0%,0%,0%);fill-opacity:1;" d="M 68.644531 155.300781 L 78.300781 155.300781 L 78.300781 157.546875 L 77.539062 157.546875 L 77.539062 156.277344 L 69.402344 156.277344 L 69.402344 157.546875 L 68.644531 157.546875 Z M 68.644531 155.300781 "/>
<path style="fill:none;stroke-width:2.5;stroke-linecap:square;stroke-linejoin:round;stroke:rgb(0%,0%,100%);stroke-opacity:1;stroke-miterlimit:4;" d="M 115.200702 53.569641 L 115.874812 53.900984 L 116.07308 54.066656 L 117.727713 55.489273 L 118.066571 55.838625 L 118.369379 56.166367 L 118.787544 56.695797 L 119.202103 57.149594 L 119.306645 57.203617 L 119.407581 57.459328 L 119.793301 57.833891 L 122.215771 61.12932 L 122.486136 61.622734 L 122.724057 61.878445 L 125.045591 65.41518 L 125.416892 66.1535 L 125.564692 66.229133 L 126.328923 67.597727 L 126.462304 67.673359 L 126.693015 68.224398 L 126.862444 68.300031 L 128.567545 71.192086 L 128.618013 71.404578 L 128.773023 71.483813 L 129.036178 71.912398 L 131.523535 76.18025 L 131.664125 76.263086 L 131.858788 76.839336 L 134.302887 81.024352 L 134.403823 81.244047 L 134.609301 81.323281 L 134.807568 81.906734 L 134.944553 81.985969 L 135.957521 83.898398 L 136.090901 83.981234 L 165.97524 135.433156 L 166.173507 135.652852 L 166.231185 136.009406 L 166.36096 136.092242 L 205.5062 202.969656 L 205.664814 203.052492 L 205.877501 203.625141 L 206.519167 204.583156 L 206.666967 204.802852 L 206.771508 205.155805 L 206.915702 205.238641 L 207.153624 205.811289 L 207.290609 205.894125 L 207.910646 207.125859 L 208.051235 207.208695 L 208.815467 208.523266 L 209.850063 210.410484 L 212.402309 214.649523 L 212.611391 214.869219 L 212.806054 215.308609 L 212.946643 215.524703 L 213.170145 216.100953 L 213.703665 216.839273 L 214.064152 217.631617 L 214.186717 217.714453 L 214.446268 218.150242 L 215.116773 219.381977 L 215.257362 219.464813 L 215.531332 220.037461 L 215.744019 220.339992 L 217.045376 222.666602 L 217.175151 222.745836 L 217.59692 223.541781 L 217.975431 224.060406 L 218.303474 224.715891 L 218.95235 225.807164 L 219.442612 226.819203 L 219.579597 226.902039 L 221.010728 229.307883 L 221.266674 229.743672 L 224.146962 234.692219 L 224.229874 234.771453 L 224.33802 235.128008 L 224.500239 235.210844 L 224.961662 236.086023 L 225.491577 236.961203 L 225.736708 237.533852 L 225.884507 237.616688 L 226.133243 238.189336 L 226.468496 238.625125 L 226.782119 239.280609 L 228.314187 241.906148 L 228.429543 241.988984 L 228.692698 242.424773 L 229.078419 243.080258 L 229.655197 244.092297 L 229.97603 244.614523 L 234.00627 251.349445 L 235.062496 253.132219 L 235.523919 253.802109 L 236.738759 255.800977 L 237.39124 256.690563 L 237.76975 257.133555 L 238.205939 257.796242 L 239.431594 259.7735 L 239.957904 260.425383 L 240.412117 261.077266 L 245.242638 268.705375 L 245.686036 269.324844 L 246.327702 270.347688 L 246.789125 270.95275 L 247.142402 271.557813 L 247.755229 272.559047 L 249.161127 274.727188 L 249.554057 275.307039 L 250.091182 276.268656 L 251.100545 278.152273 L 254.125027 283.464578 L 258.08317 288.251055 L 258.220155 288.265461 L 258.977177 289.083016 L 259.265566 289.349531 L 260.804844 290.847781 L 262.697399 292.374844 L 263.396743 292.853852 L 266.460879 294.733867 L 267.308022 295.050805 L 267.437797 295.000383 L 267.845147 295.191266 L 268.656242 295.353336 L 268.98789 295.335328 L 270.905679 295.457781 L 271.933065 295.2705 L 273.663401 294.870727 L 273.977024 294.701453 L 274.369955 294.553789 L 274.889055 294.341297 L 276.558108 293.520141 L 278.338912 292.475688 L 282.131231 289.875359 L 282.452064 289.583633 L 284.755574 287.815266 L 285.029543 287.609977 L 288.861516 284.397383 L 289.117461 284.094852 L 289.769942 283.633852 L 290.173687 283.212469 L 290.263809 283.190859 L 290.667554 282.765875 L 290.804539 282.744266 L 290.912685 282.538977 L 291.201074 282.312078 L 291.424576 282.171617 L 291.586795 282.056367 L 291.803087 281.728625 L 294.12462 279.427227 L 294.766286 278.832969 L 295.638664 277.856945 L 295.916239 277.40675 L 296.190209 277.215867 L 296.442549 276.801688 L 298.56221 274.240977 L 298.735244 274.021281 L 299.762631 272.656289 L 300.040205 272.306938 L 300.335804 271.957586 L 300.660242 271.424555 L 301.12527 270.761867 L 301.226206 270.700641 L 301.334352 270.398109 L 301.474942 270.336883 L 302.109398 269.29243 L 302.444651 268.917867 L 303.129576 267.786977 L 303.27377 267.718547 L 304.434537 265.856539 L 304.672458 265.590023 L 305.02213 264.873313 L 305.184349 264.801281 L 306.590247 262.474672 L 306.716417 262.399039 L 307.588795 260.850367 L 307.902418 260.565844 L 308.129525 260.155266 L 308.623391 259.200852 L 308.749562 259.121617 L 308.879337 258.786672 L 309.070395 258.707438 L 313.745906 250.96768 L 314.650727 249.361383 L 315.151804 248.648273 L 315.548339 248.014398 L 315.811494 247.463359 L 315.984528 247.380523 L 316.305361 246.616992 L 316.442346 246.537758 L 316.972261 245.561734 L 317.094826 245.4825 L 317.613927 244.636133 L 320.577127 239.644367 L 320.674458 239.565133 L 320.937614 239.14375 L 321.186349 238.718766 L 321.449504 238.164125 L 321.950581 237.447414 L 322.23897 236.892773 L 337.242422 212.070805 L 337.480343 211.638617 L 337.696635 211.426125 L 337.862459 210.997539 L 338.897056 209.279594 L 339.405342 208.285563 L 339.668497 207.990234 L 341.845836 204.33825 L 342.245976 203.556711 L 342.379356 203.477477 L 342.476688 203.128125 L 342.617278 203.048891 L 343.785254 201.11125 L 344.17458 200.333313 L 344.57472 199.825492 L 345.054167 198.827859 L 345.187547 198.748625 L 345.587687 197.970688 L 345.811189 197.5385 L 345.958988 197.459266 L 346.7088 196.169906 L 347.105336 195.388367 L 347.242321 195.309133 L 348.273312 193.454328 L 348.388668 193.375094 L 348.882535 192.51432 L 349.68642 191.224961 L 349.787356 190.875609 L 349.942365 190.796375 L 350.320876 190.148094 L 350.609265 189.582648 L 350.821952 189.28732 L 352.105285 187.133586 L 352.346811 186.701398 L 352.912775 185.703766 L 353.943766 183.978617 L 354.318673 183.333938 L 354.9315 182.390328 L 355.18384 182.174234 L 355.306406 181.745648 L 355.580376 181.309859 L 355.832716 180.744414 L 356.088662 180.449086 L 356.348212 180.016898 L 357.119653 178.723938 " transform="matrix(1.083605,0,0,1.084599,0,0)"/>
<path style="fill-rule:nonzero;fill:rgb(100%,64.705882%,0%);fill-opacity:1;stroke-width:2.5;stroke-linecap:butt;stroke-linejoin:round;stroke:rgb(100%,64.705882%,0%);stroke-opacity:1;stroke-miterlimit:4;" d="M 267.012423 298.486695 L 273.014525 292.486492 M 267.012423 292.486492 L 273.014525 298.486695 " transform="matrix(1.083605,0,0,1.084599,0,0)"/>
<path style="fill:none;stroke-width:0.8;stroke-linecap:square;stroke-linejoin:miter;stroke:rgb(0%,0%,0%);stroke-opacity:1;stroke-miterlimit:10;" d="M 103.102772 307.584242 L 103.102772 41.471992 M 369.217584 307.584242 L 369.217584 41.471992 M 103.102772 307.584242 L 369.217584 307.584242 M 103.102772 41.471992 L 369.217584 41.471992 " transform="matrix(1.083605,0,0,1.084599,0,0)"/>
<path style="fill-rule:nonzero;fill:rgb(100%,100%,100%);fill-opacity:0.8;stroke-width:1;stroke-linecap:butt;stroke-linejoin:miter;stroke:rgb(83.529412%,83.921569%,83.529412%);stroke-opacity:0.8;stroke-miterlimit:10;" d="M 184.965674 78.816594 L 362.216934 78.816594 C 363.550734 78.816594 364.217634 78.150305 364.217634 76.817727 L 364.217634 48.47343 C 364.217634 47.13725 363.550734 46.470961 362.216934 46.470961 L 184.965674 46.470961 C 183.631873 46.470961 182.964973 47.13725 182.964973 48.47343 L 182.964973 76.817727 C 182.964973 78.150305 183.631873 78.816594 184.965674 78.816594 Z M 184.965674 78.816594 " transform="matrix(1.083605,0,0,1.084599,0,0)"/>
<path style="fill:none;stroke-width:2.5;stroke-linecap:square;stroke-linejoin:round;stroke:rgb(0%,0%,100%);stroke-opacity:1;stroke-miterlimit:4;" d="M 186.966374 54.567273 L 206.966171 54.567273 " transform="matrix(1.083605,0,0,1.084599,0,0)"/>
<path style=" stroke:none;fill-rule:nonzero;fill:rgb(0%,0%,0%);fill-opacity:1;" d="M 235.074219 55.949219 L 235.074219 62.101562 L 236.363281 62.101562 C 237.445312 62.101562 238.246094 61.859375 238.757812 61.363281 C 239.253906 60.863281 239.515625 60.082031 239.515625 59.019531 C 239.515625 57.957031 239.253906 57.1875 238.757812 56.6875 C 238.246094 56.199219 237.445312 55.949219 236.363281 55.949219 Z M 234 55.070312 L 236.199219 55.070312 C 237.726562 55.070312 238.855469 55.398438 239.570312 56.027344 C 240.285156 56.664062 240.644531 57.664062 240.644531 59.019531 C 240.644531 60.386719 240.273438 61.382812 239.558594 62.023438 C 238.84375 62.664062 237.71875 62.976562 236.199219 62.976562 L 234 62.976562 Z M 234 55.070312 "/>
<path style=" stroke:none;fill-rule:nonzero;fill:rgb(0%,0%,0%);fill-opacity:1;" d="M 242.300781 57.046875 L 243.277344 57.046875 L 243.277344 62.976562 L 242.300781 62.976562 Z M 242.300781 54.734375 L 243.277344 54.734375 L 243.277344 55.972656 L 242.300781 55.972656 Z M 242.300781 54.734375 "/>
<path style=" stroke:none;fill-rule:nonzero;fill:rgb(0%,0%,0%);fill-opacity:1;" d="M 249.09375 57.21875 L 249.09375 58.140625 C 248.8125 58.011719 248.53125 57.902344 248.238281 57.828125 C 247.933594 57.761719 247.632812 57.71875 247.316406 57.71875 C 246.828125 57.71875 246.460938 57.792969 246.222656 57.945312 C 245.984375 58.097656 245.867188 58.316406 245.867188 58.605469 C 245.867188 58.835938 245.953125 59.007812 246.125 59.140625 C 246.300781 59.269531 246.644531 59.398438 247.164062 59.507812 L 247.5 59.582031 C 248.195312 59.734375 248.683594 59.953125 248.976562 60.210938 C 249.257812 60.484375 249.410156 60.863281 249.410156 61.339844 C 249.410156 61.894531 249.191406 62.328125 248.757812 62.640625 C 248.324219 62.96875 247.71875 63.121094 246.960938 63.121094 C 246.636719 63.121094 246.308594 63.085938 245.964844 63.03125 C 245.617188 62.976562 245.257812 62.890625 244.878906 62.761719 L 244.878906 61.753906 C 245.238281 61.949219 245.59375 62.089844 245.941406 62.175781 C 246.289062 62.273438 246.636719 62.316406 246.980469 62.316406 C 247.4375 62.316406 247.792969 62.242188 248.042969 62.089844 C 248.28125 61.9375 248.410156 61.710938 248.410156 61.417969 C 248.410156 61.15625 248.316406 60.949219 248.140625 60.808594 C 247.96875 60.667969 247.578125 60.527344 246.972656 60.398438 L 246.636719 60.320312 C 246.027344 60.191406 245.582031 59.996094 245.324219 59.734375 C 245.054688 59.476562 244.921875 59.117188 244.921875 58.652344 C 244.921875 58.097656 245.117188 57.664062 245.507812 57.359375 C 245.898438 57.054688 246.460938 56.90625 247.199219 56.90625 C 247.554688 56.90625 247.890625 56.9375 248.21875 56.992188 C 248.53125 57.046875 248.824219 57.121094 249.09375 57.21875 Z M 249.09375 57.21875 "/>
<path style=" stroke:none;fill-rule:nonzero;fill:rgb(0%,0%,0%);fill-opacity:1;" d="M 251.921875 55.363281 L 251.921875 57.046875 L 253.925781 57.046875 L 253.925781 57.804688 L 251.921875 57.804688 L 251.921875 61.027344 C 251.921875 61.515625 251.988281 61.828125 252.117188 61.957031 C 252.246094 62.101562 252.519531 62.164062 252.929688 62.164062 L 253.925781 62.164062 L 253.925781 62.976562 L 252.929688 62.976562 C 252.171875 62.976562 251.652344 62.835938 251.371094 62.554688 C 251.089844 62.273438 250.949219 61.761719 250.949219 61.027344 L 250.949219 57.804688 L 250.234375 57.804688 L 250.234375 57.046875 L 250.949219 57.046875 L 250.949219 55.363281 Z M 251.921875 55.363281 "/>
<path style=" stroke:none;fill-rule:nonzero;fill:rgb(0%,0%,0%);fill-opacity:1;" d="M 257.90625 59.996094 C 257.113281 59.996094 256.570312 60.09375 256.269531 60.265625 C 255.964844 60.453125 255.8125 60.753906 255.8125 61.1875 C 255.8125 61.535156 255.921875 61.816406 256.148438 62.011719 C 256.375 62.21875 256.691406 62.316406 257.082031 62.316406 C 257.621094 62.316406 258.054688 62.132812 258.382812 61.742188 C 258.707031 61.363281 258.867188 60.851562 258.867188 60.210938 L 258.867188 59.996094 Z M 259.84375 59.59375 L 259.84375 62.976562 L 258.867188 62.976562 L 258.867188 62.078125 C 258.640625 62.445312 258.359375 62.707031 258.035156 62.871094 C 257.710938 63.03125 257.296875 63.121094 256.820312 63.121094 C 256.214844 63.121094 255.726562 62.957031 255.367188 62.621094 C 255.011719 62.285156 254.835938 61.828125 254.835938 61.253906 C 254.835938 60.59375 255.054688 60.09375 255.507812 59.746094 C 255.953125 59.410156 256.613281 59.238281 257.503906 59.238281 L 258.867188 59.238281 L 258.867188 59.140625 C 258.867188 58.695312 258.71875 58.347656 258.425781 58.097656 C 258.132812 57.859375 257.71875 57.730469 257.1875 57.730469 C 256.84375 57.730469 256.515625 57.773438 256.191406 57.859375 C 255.867188 57.945312 255.5625 58.066406 255.269531 58.21875 L 255.269531 57.316406 C 255.617188 57.1875 255.964844 57.078125 256.300781 57.011719 C 256.636719 56.949219 256.960938 56.90625 257.285156 56.90625 C 258.144531 56.90625 258.78125 57.132812 259.203125 57.578125 C 259.628906 58.023438 259.84375 58.695312 259.84375 59.59375 Z M 259.84375 59.59375 "/>
<path style=" stroke:none;fill-rule:nonzero;fill:rgb(0%,0%,0%);fill-opacity:1;" d="M 266.777344 59.398438 L 266.777344 62.976562 L 265.804688 62.976562 L 265.804688 59.433594 C 265.804688 58.867188 265.683594 58.457031 265.46875 58.171875 C 265.25 57.890625 264.925781 57.75 264.492188 57.75 C 263.960938 57.75 263.550781 57.925781 263.246094 58.261719 C 262.941406 58.597656 262.792969 59.050781 262.792969 59.625 L 262.792969 62.976562 L 261.816406 62.976562 L 261.816406 57.046875 L 262.792969 57.046875 L 262.792969 57.96875 C 263.019531 57.621094 263.289062 57.347656 263.613281 57.175781 C 263.929688 57.003906 264.296875 56.90625 264.710938 56.90625 C 265.382812 56.90625 265.902344 57.121094 266.25 57.542969 C 266.59375 57.96875 266.777344 58.585938 266.777344 59.398438 Z M 266.777344 59.398438 "/>
<path style=" stroke:none;fill-rule:nonzero;fill:rgb(0%,0%,0%);fill-opacity:1;" d="M 272.988281 57.273438 L 272.988281 58.183594 C 272.707031 58.03125 272.4375 57.925781 272.152344 57.847656 C 271.871094 57.773438 271.601562 57.730469 271.320312 57.730469 C 270.691406 57.730469 270.191406 57.933594 269.847656 58.335938 C 269.5 58.738281 269.324219 59.300781 269.324219 60.015625 C 269.324219 60.742188 269.5 61.308594 269.847656 61.710938 C 270.191406 62.109375 270.691406 62.304688 271.320312 62.304688 C 271.601562 62.304688 271.871094 62.273438 272.152344 62.199219 C 272.4375 62.121094 272.707031 62.003906 272.988281 61.851562 L 272.988281 62.75 C 272.707031 62.878906 272.425781 62.976562 272.144531 63.03125 C 271.851562 63.085938 271.535156 63.121094 271.210938 63.121094 C 270.324219 63.121094 269.605469 62.847656 269.085938 62.285156 C 268.554688 61.730469 268.296875 60.972656 268.296875 60.015625 C 268.296875 59.050781 268.554688 58.292969 269.085938 57.738281 C 269.617188 57.1875 270.34375 56.90625 271.277344 56.90625 C 271.578125 56.90625 271.871094 56.9375 272.152344 57.003906 C 272.4375 57.066406 272.71875 57.152344 272.988281 57.273438 Z M 272.988281 57.273438 "/>
<path style=" stroke:none;fill-rule:nonzero;fill:rgb(0%,0%,0%);fill-opacity:1;" d="M 279.75 59.769531 L 279.75 60.246094 L 275.273438 60.246094 C 275.316406 60.917969 275.511719 61.4375 275.882812 61.785156 C 276.238281 62.132812 276.738281 62.304688 277.386719 62.304688 C 277.757812 62.304688 278.125 62.261719 278.472656 62.175781 C 278.816406 62.089844 279.175781 61.949219 279.523438 61.753906 L 279.523438 62.675781 C 279.175781 62.828125 278.816406 62.945312 278.449219 63.011719 C 278.082031 63.074219 277.703125 63.121094 277.332031 63.121094 C 276.378906 63.121094 275.632812 62.847656 275.078125 62.304688 C 274.527344 61.761719 274.257812 61.015625 274.257812 60.070312 C 274.257812 59.105469 274.515625 58.335938 275.035156 57.761719 C 275.554688 57.199219 276.273438 56.90625 277.160156 56.90625 C 277.960938 56.90625 278.589844 57.164062 279.054688 57.675781 C 279.511719 58.195312 279.75 58.890625 279.75 59.769531 Z M 278.773438 59.484375 C 278.765625 58.953125 278.613281 58.53125 278.332031 58.207031 C 278.039062 57.890625 277.648438 57.730469 277.171875 57.730469 C 276.628906 57.730469 276.195312 57.890625 275.871094 58.195312 C 275.546875 58.5 275.351562 58.933594 275.308594 59.484375 Z M 278.773438 59.484375 "/>
<path style=" stroke:none;fill-rule:nonzero;fill:rgb(0%,0%,0%);fill-opacity:1;" d="M 289.046875 60.015625 C 289.046875 59.300781 288.894531 58.75 288.601562 58.335938 C 288.300781 57.925781 287.898438 57.71875 287.390625 57.71875 C 286.871094 57.71875 286.46875 57.925781 286.175781 58.335938 C 285.871094 58.75 285.730469 59.300781 285.730469 60.015625 C 285.730469 60.734375 285.871094 61.296875 286.175781 61.710938 C 286.46875 62.121094 286.871094 62.316406 287.390625 62.316406 C 287.898438 62.316406 288.300781 62.121094 288.601562 61.710938 C 288.894531 61.296875 289.046875 60.734375 289.046875 60.015625 Z M 285.730469 57.945312 C 285.925781 57.597656 286.1875 57.339844 286.5 57.164062 C 286.816406 56.992188 287.195312 56.90625 287.628906 56.90625 C 288.34375 56.90625 288.929688 57.199219 289.382812 57.761719 C 289.828125 58.335938 290.054688 59.085938 290.054688 60.015625 C 290.054688 60.949219 289.828125 61.710938 289.382812 62.273438 C 288.929688 62.835938 288.34375 63.121094 287.628906 63.121094 C 287.195312 63.121094 286.816406 63.03125 286.5 62.871094 C 286.1875 62.707031 285.925781 62.445312 285.730469 62.089844 L 285.730469 62.976562 L 284.757812 62.976562 L 284.757812 54.734375 L 285.730469 54.734375 Z M 285.730469 57.945312 "/>
<path style=" stroke:none;fill-rule:nonzero;fill:rgb(0%,0%,0%);fill-opacity:1;" d="M 296.742188 59.769531 L 296.742188 60.246094 L 292.265625 60.246094 C 292.308594 60.917969 292.503906 61.4375 292.871094 61.785156 C 293.230469 62.132812 293.726562 62.304688 294.378906 62.304688 C 294.746094 62.304688 295.117188 62.261719 295.460938 62.175781 C 295.808594 62.089844 296.167969 61.949219 296.511719 61.753906 L 296.511719 62.675781 C 296.167969 62.828125 295.808594 62.945312 295.441406 63.011719 C 295.070312 63.074219 294.691406 63.121094 294.324219 63.121094 C 293.371094 63.121094 292.625 62.847656 292.070312 62.304688 C 291.519531 61.761719 291.246094 61.015625 291.246094 60.070312 C 291.246094 59.105469 291.507812 58.335938 292.027344 57.761719 C 292.546875 57.199219 293.261719 56.90625 294.152344 56.90625 C 294.953125 56.90625 295.582031 57.164062 296.046875 57.675781 C 296.503906 58.195312 296.742188 58.890625 296.742188 59.769531 Z M 295.765625 59.484375 C 295.753906 58.953125 295.601562 58.53125 295.320312 58.207031 C 295.027344 57.890625 294.636719 57.730469 294.160156 57.730469 C 293.621094 57.730469 293.1875 57.890625 292.863281 58.195312 C 292.535156 58.5 292.339844 58.933594 292.296875 59.484375 Z M 295.765625 59.484375 "/>
<path style=" stroke:none;fill-rule:nonzero;fill:rgb(0%,0%,0%);fill-opacity:1;" d="M 299.296875 55.363281 L 299.296875 57.046875 L 301.304688 57.046875 L 301.304688 57.804688 L 299.296875 57.804688 L 299.296875 61.027344 C 299.296875 61.515625 299.363281 61.828125 299.492188 61.957031 C 299.625 62.101562 299.894531 62.164062 300.304688 62.164062 L 301.304688 62.164062 L 301.304688 62.976562 L 300.304688 62.976562 C 299.546875 62.976562 299.027344 62.835938 298.746094 62.554688 C 298.464844 62.273438 298.324219 61.761719 298.324219 61.027344 L 298.324219 57.804688 L 297.609375 57.804688 L 297.609375 57.046875 L 298.324219 57.046875 L 298.324219 55.363281 Z M 299.296875 55.363281 "/>
<path style=" stroke:none;fill-rule:nonzero;fill:rgb(0%,0%,0%);fill-opacity:1;" d="M 302.019531 57.046875 L 302.992188 57.046875 L 304.207031 61.675781 L 305.421875 57.046875 L 306.570312 57.046875 L 307.78125 61.675781 L 308.996094 57.046875 L 309.972656 57.046875 L 308.421875 62.976562 L 307.273438 62.976562 L 305.996094 58.121094 L 304.714844 62.976562 L 303.566406 62.976562 Z M 302.019531 57.046875 "/>
<path style=" stroke:none;fill-rule:nonzero;fill:rgb(0%,0%,0%);fill-opacity:1;" d="M 316.515625 59.769531 L 316.515625 60.246094 L 312.042969 60.246094 C 312.085938 60.917969 312.28125 61.4375 312.648438 61.785156 C 313.003906 62.132812 313.503906 62.304688 314.15625 62.304688 C 314.523438 62.304688 314.890625 62.261719 315.238281 62.175781 C 315.585938 62.089844 315.941406 61.949219 316.289062 61.753906 L 316.289062 62.675781 C 315.941406 62.828125 315.585938 62.945312 315.214844 63.011719 C 314.847656 63.074219 314.46875 63.121094 314.101562 63.121094 C 313.148438 63.121094 312.398438 62.847656 311.847656 62.304688 C 311.292969 61.761719 311.023438 61.015625 311.023438 60.070312 C 311.023438 59.105469 311.28125 58.335938 311.804688 57.761719 C 312.324219 57.199219 313.039062 56.90625 313.925781 56.90625 C 314.730469 56.90625 315.355469 57.164062 315.824219 57.675781 C 316.277344 58.195312 316.515625 58.890625 316.515625 59.769531 Z M 315.542969 59.484375 C 315.53125 58.953125 315.378906 58.53125 315.097656 58.207031 C 314.804688 57.890625 314.414062 57.730469 313.9375 57.730469 C 313.394531 57.730469 312.960938 57.890625 312.636719 58.195312 C 312.3125 58.5 312.117188 58.933594 312.074219 59.484375 Z M 315.542969 59.484375 "/>
<path style=" stroke:none;fill-rule:nonzero;fill:rgb(0%,0%,0%);fill-opacity:1;" d="M 323.179688 59.769531 L 323.179688 60.246094 L 318.707031 60.246094 C 318.75 60.917969 318.945312 61.4375 319.3125 61.785156 C 319.667969 62.132812 320.167969 62.304688 320.820312 62.304688 C 321.1875 62.304688 321.554688 62.261719 321.902344 62.175781 C 322.25 62.089844 322.605469 61.949219 322.953125 61.753906 L 322.953125 62.675781 C 322.605469 62.828125 322.25 62.945312 321.878906 63.011719 C 321.511719 63.074219 321.132812 63.121094 320.765625 63.121094 C 319.8125 63.121094 319.0625 62.847656 318.511719 62.304688 C 317.957031 61.761719 317.6875 61.015625 317.6875 60.070312 C 317.6875 59.105469 317.945312 58.335938 318.46875 57.761719 C 318.988281 57.199219 319.703125 56.90625 320.589844 56.90625 C 321.394531 56.90625 322.019531 57.164062 322.488281 57.675781 C 322.941406 58.195312 323.179688 58.890625 323.179688 59.769531 Z M 322.207031 59.484375 C 322.195312 58.953125 322.042969 58.53125 321.761719 58.207031 C 321.46875 57.890625 321.078125 57.730469 320.601562 57.730469 C 320.058594 57.730469 319.625 57.890625 319.300781 58.195312 C 318.976562 58.5 318.78125 58.933594 318.738281 59.484375 Z M 322.207031 59.484375 "/>
<path style=" stroke:none;fill-rule:nonzero;fill:rgb(0%,0%,0%);fill-opacity:1;" d="M 329.703125 59.398438 L 329.703125 62.976562 L 328.730469 62.976562 L 328.730469 59.433594 C 328.730469 58.867188 328.609375 58.457031 328.394531 58.171875 C 328.175781 57.890625 327.851562 57.75 327.417969 57.75 C 326.886719 57.75 326.476562 57.925781 326.171875 58.261719 C 325.867188 58.597656 325.714844 59.050781 325.714844 59.625 L 325.714844 62.976562 L 324.742188 62.976562 L 324.742188 57.046875 L 325.714844 57.046875 L 325.714844 57.96875 C 325.945312 57.621094 326.214844 57.347656 326.539062 57.175781 C 326.855469 57.003906 327.222656 56.90625 327.632812 56.90625 C 328.304688 56.90625 328.828125 57.121094 329.171875 57.542969 C 329.519531 57.96875 329.703125 58.585938 329.703125 59.398438 Z M 329.703125 59.398438 "/>
<path style=" stroke:none;fill-rule:nonzero;fill:rgb(0%,0%,0%);fill-opacity:1;" d="M 338.339844 55.796875 C 337.558594 55.796875 336.941406 56.089844 336.488281 56.664062 C 336.03125 57.25 335.804688 58.03125 335.804688 59.03125 C 335.804688 60.027344 336.03125 60.820312 336.488281 61.394531 C 336.941406 61.980469 337.558594 62.261719 338.339844 62.261719 C 339.109375 62.261719 339.726562 61.980469 340.183594 61.394531 C 340.636719 60.820312 340.863281 60.027344 340.863281 59.03125 C 340.863281 58.03125 340.636719 57.25 340.183594 56.664062 C 339.726562 56.089844 339.109375 55.796875 338.339844 55.796875 Z M 338.339844 54.929688 C 339.445312 54.929688 340.324219 55.308594 340.996094 56.046875 C 341.65625 56.785156 341.992188 57.78125 341.992188 59.03125 C 341.992188 60.289062 341.65625 61.277344 340.996094 62.011719 C 340.324219 62.75 339.445312 63.121094 338.339844 63.121094 C 337.222656 63.121094 336.335938 62.75 335.675781 62.011719 C 335.003906 61.277344 334.679688 60.289062 334.679688 59.03125 C 334.679688 57.78125 335.003906 56.785156 335.675781 56.046875 C 336.335938 55.308594 337.222656 54.929688 338.339844 54.929688 Z M 338.339844 54.929688 "/>
<path style=" stroke:none;fill-rule:nonzero;fill:rgb(0%,0%,0%);fill-opacity:1;" d="M 348.394531 55.332031 L 348.394531 56.375 C 347.984375 56.179688 347.605469 56.035156 347.246094 55.9375 C 346.878906 55.851562 346.53125 55.796875 346.207031 55.796875 C 345.621094 55.796875 345.167969 55.917969 344.851562 56.132812 C 344.539062 56.363281 344.386719 56.6875 344.386719 57.101562 C 344.386719 57.445312 344.484375 57.71875 344.703125 57.890625 C 344.90625 58.074219 345.308594 58.21875 345.894531 58.324219 L 346.542969 58.457031 C 347.335938 58.605469 347.917969 58.878906 348.296875 59.257812 C 348.679688 59.648438 348.875 60.160156 348.875 60.796875 C 348.875 61.566406 348.613281 62.144531 348.105469 62.535156 C 347.582031 62.925781 346.835938 63.121094 345.851562 63.121094 C 345.46875 63.121094 345.070312 63.074219 344.648438 63 C 344.222656 62.925781 343.789062 62.804688 343.347656 62.632812 L 343.347656 61.523438 C 343.78125 61.773438 344.203125 61.957031 344.613281 62.078125 C 345.027344 62.207031 345.4375 62.261719 345.851562 62.261719 C 346.457031 62.261719 346.921875 62.144531 347.257812 61.90625 C 347.582031 61.664062 347.757812 61.328125 347.757812 60.875 C 347.757812 60.484375 347.636719 60.179688 347.398438 59.964844 C 347.160156 59.746094 346.769531 59.582031 346.230469 59.476562 L 345.578125 59.34375 C 344.777344 59.191406 344.203125 58.945312 343.84375 58.597656 C 343.488281 58.261719 343.3125 57.792969 343.3125 57.1875 C 343.3125 56.492188 343.550781 55.9375 344.050781 55.539062 C 344.539062 55.136719 345.222656 54.929688 346.089844 54.929688 C 346.457031 54.929688 346.824219 54.964844 347.214844 55.027344 C 347.59375 55.09375 347.984375 55.203125 348.394531 55.332031 Z M 348.394531 55.332031 "/>
<path style=" stroke:none;fill-rule:nonzero;fill:rgb(0%,0%,0%);fill-opacity:1;" d="M 356.640625 59.996094 C 355.851562 59.996094 355.308594 60.09375 355.007812 60.265625 C 354.703125 60.453125 354.550781 60.753906 354.550781 61.1875 C 354.550781 61.535156 354.660156 61.816406 354.886719 62.011719 C 355.113281 62.21875 355.429688 62.316406 355.820312 62.316406 C 356.359375 62.316406 356.792969 62.132812 357.121094 61.742188 C 357.445312 61.363281 357.605469 60.851562 357.605469 60.210938 L 357.605469 59.996094 Z M 358.582031 59.59375 L 358.582031 62.976562 L 357.605469 62.976562 L 357.605469 62.078125 C 357.378906 62.445312 357.097656 62.707031 356.773438 62.871094 C 356.449219 63.03125 356.035156 63.121094 355.558594 63.121094 C 354.953125 63.121094 354.464844 62.957031 354.105469 62.621094 C 353.75 62.285156 353.574219 61.828125 353.574219 61.253906 C 353.574219 60.59375 353.792969 60.09375 354.246094 59.746094 C 354.691406 59.410156 355.351562 59.238281 356.242188 59.238281 L 357.605469 59.238281 L 357.605469 59.140625 C 357.605469 58.695312 357.457031 58.347656 357.164062 58.097656 C 356.871094 57.859375 356.457031 57.730469 355.925781 57.730469 C 355.582031 57.730469 355.253906 57.773438 354.929688 57.859375 C 354.605469 57.945312 354.300781 58.066406 354.007812 58.21875 L 354.007812 57.316406 C 354.355469 57.1875 354.703125 57.078125 355.039062 57.011719 C 355.375 56.949219 355.699219 56.90625 356.023438 56.90625 C 356.882812 56.90625 357.519531 57.132812 357.941406 57.578125 C 358.367188 58.023438 358.582031 58.695312 358.582031 59.59375 Z M 358.582031 59.59375 "/>
<path style=" stroke:none;fill-rule:nonzero;fill:rgb(0%,0%,0%);fill-opacity:1;" d="M 365.515625 59.398438 L 365.515625 62.976562 L 364.542969 62.976562 L 364.542969 59.433594 C 364.542969 58.867188 364.421875 58.457031 364.207031 58.171875 C 363.988281 57.890625 363.664062 57.75 363.230469 57.75 C 362.699219 57.75 362.289062 57.925781 361.984375 58.261719 C 361.679688 58.597656 361.53125 59.050781 361.53125 59.625 L 361.53125 62.976562 L 360.554688 62.976562 L 360.554688 57.046875 L 361.53125 57.046875 L 361.53125 57.96875 C 361.757812 57.621094 362.027344 57.347656 362.351562 57.175781 C 362.667969 57.003906 363.035156 56.90625 363.449219 56.90625 C 364.121094 56.90625 364.640625 57.121094 364.984375 57.542969 C 365.332031 57.96875 365.515625 58.585938 365.515625 59.398438 Z M 365.515625 59.398438 "/>
<path style=" stroke:none;fill-rule:nonzero;fill:rgb(0%,0%,0%);fill-opacity:1;" d="M 371.359375 57.945312 L 371.359375 54.734375 L 372.332031 54.734375 L 372.332031 62.976562 L 371.359375 62.976562 L 371.359375 62.089844 C 371.152344 62.445312 370.890625 62.707031 370.578125 62.871094 C 370.261719 63.03125 369.894531 63.121094 369.460938 63.121094 C 368.746094 63.121094 368.160156 62.835938 367.707031 62.273438 C 367.25 61.710938 367.035156 60.949219 367.035156 60.015625 C 367.035156 59.085938 367.25 58.335938 367.707031 57.761719 C 368.160156 57.199219 368.746094 56.90625 369.460938 56.90625 C 369.894531 56.90625 370.261719 56.992188 370.578125 57.164062 C 370.890625 57.339844 371.152344 57.597656 371.359375 57.945312 Z M 368.042969 60.015625 C 368.042969 60.734375 368.183594 61.296875 368.476562 61.710938 C 368.769531 62.121094 369.167969 62.316406 369.6875 62.316406 C 370.210938 62.316406 370.609375 62.121094 370.914062 61.710938 C 371.207031 61.296875 371.359375 60.734375 371.359375 60.015625 C 371.359375 59.300781 371.207031 58.75 370.914062 58.335938 C 370.609375 57.925781 370.210938 57.71875 369.6875 57.71875 C 369.167969 57.71875 368.769531 57.925781 368.476562 58.335938 C 368.183594 58.75 368.042969 59.300781 368.042969 60.015625 Z M 368.042969 60.015625 "/>
<path style=" stroke:none;fill-rule:nonzero;fill:rgb(0%,0%,0%);fill-opacity:1;" d="M 376.742188 55.070312 L 383.417969 55.070312 L 383.417969 55.972656 L 380.613281 55.972656 L 380.613281 62.976562 L 379.539062 62.976562 L 379.539062 55.972656 L 376.742188 55.972656 Z M 376.742188 55.070312 "/>
<path style=" stroke:none;fill-rule:nonzero;fill:rgb(0%,0%,0%);fill-opacity:1;" d="M 389.183594 55.332031 L 389.183594 56.375 C 388.769531 56.179688 388.390625 56.035156 388.035156 55.9375 C 387.667969 55.851562 387.320312 55.796875 386.996094 55.796875 C 386.410156 55.796875 385.953125 55.917969 385.640625 56.132812 C 385.324219 56.363281 385.171875 56.6875 385.171875 57.101562 C 385.171875 57.445312 385.269531 57.71875 385.488281 57.890625 C 385.695312 58.074219 386.09375 58.21875 386.679688 58.324219 L 387.332031 58.457031 C 388.121094 58.605469 388.707031 58.878906 389.085938 59.257812 C 389.464844 59.648438 389.660156 60.160156 389.660156 60.796875 C 389.660156 61.566406 389.398438 62.144531 388.890625 62.535156 C 388.371094 62.925781 387.621094 63.121094 386.636719 63.121094 C 386.257812 63.121094 385.855469 63.074219 385.433594 63 C 385.011719 62.925781 384.578125 62.804688 384.132812 62.632812 L 384.132812 61.523438 C 384.566406 61.773438 384.988281 61.957031 385.402344 62.078125 C 385.8125 62.207031 386.226562 62.261719 386.636719 62.261719 C 387.242188 62.261719 387.710938 62.144531 388.046875 61.90625 C 388.371094 61.664062 388.542969 61.328125 388.542969 60.875 C 388.542969 60.484375 388.425781 60.179688 388.1875 59.964844 C 387.949219 59.746094 387.558594 59.582031 387.015625 59.476562 L 386.367188 59.34375 C 385.5625 59.191406 384.988281 58.945312 384.632812 58.597656 C 384.273438 58.261719 384.101562 57.792969 384.101562 57.1875 C 384.101562 56.492188 384.339844 55.9375 384.839844 55.539062 C 385.324219 55.136719 386.007812 54.929688 386.875 54.929688 C 387.242188 54.929688 387.613281 54.964844 388.003906 55.027344 C 388.382812 55.09375 388.769531 55.203125 389.183594 55.332031 Z M 389.183594 55.332031 "/>
<path style="fill-rule:nonzero;fill:rgb(100%,64.705882%,0%);fill-opacity:1;stroke-width:2.5;stroke-linecap:butt;stroke-linejoin:round;stroke:rgb(100%,64.705882%,0%);stroke-opacity:1;stroke-miterlimit:4;" d="M 193.967024 73.111719 L 199.965521 67.111516 M 193.967024 67.111516 L 199.965521 73.111719 " transform="matrix(1.083605,0,0,1.084599,0,0)"/>
<path style=" stroke:none;fill-rule:nonzero;fill:rgb(0%,0%,0%);fill-opacity:1;" d="M 238.574219 74.097656 C 238.8125 73.664062 239.105469 73.347656 239.441406 73.132812 C 239.777344 72.925781 240.175781 72.816406 240.644531 72.816406 C 241.25 72.816406 241.726562 73.035156 242.0625 73.46875 C 242.398438 73.902344 242.570312 74.519531 242.570312 75.3125 L 242.570312 78.890625 L 241.597656 78.890625 L 241.597656 75.34375 C 241.597656 74.78125 241.488281 74.359375 241.292969 74.074219 C 241.085938 73.804688 240.785156 73.664062 240.371094 73.664062 C 239.863281 73.664062 239.460938 73.835938 239.167969 74.171875 C 238.875 74.507812 238.734375 74.964844 238.734375 75.539062 L 238.734375 78.890625 L 237.761719 78.890625 L 237.761719 75.34375 C 237.761719 74.78125 237.652344 74.359375 237.457031 74.074219 C 237.25 73.804688 236.9375 73.664062 236.523438 73.664062 C 236.027344 73.664062 235.625 73.835938 235.332031 74.171875 C 235.039062 74.507812 234.898438 74.964844 234.898438 75.539062 L 234.898438 78.890625 L 233.925781 78.890625 L 233.925781 72.957031 L 234.898438 72.957031 L 234.898438 73.878906 C 235.117188 73.523438 235.386719 73.25 235.703125 73.078125 C 236.003906 72.90625 236.375 72.816406 236.808594 72.816406 C 237.238281 72.816406 237.597656 72.925781 237.902344 73.144531 C 238.203125 73.359375 238.421875 73.683594 238.574219 74.097656 Z M 238.574219 74.097656 "/>
<path style=" stroke:none;fill-rule:nonzero;fill:rgb(0%,0%,0%);fill-opacity:1;" d="M 244.511719 72.957031 L 245.484375 72.957031 L 245.484375 78.890625 L 244.511719 78.890625 Z M 244.511719 70.648438 L 245.484375 70.648438 L 245.484375 71.886719 L 244.511719 71.886719 Z M 244.511719 70.648438 "/>
<path style=" stroke:none;fill-rule:nonzero;fill:rgb(0%,0%,0%);fill-opacity:1;" d="M 252.453125 75.3125 L 252.453125 78.890625 L 251.480469 78.890625 L 251.480469 75.34375 C 251.480469 74.78125 251.359375 74.367188 251.144531 74.085938 C 250.925781 73.804688 250.601562 73.664062 250.167969 73.664062 C 249.636719 73.664062 249.226562 73.835938 248.921875 74.171875 C 248.617188 74.507812 248.464844 74.964844 248.464844 75.539062 L 248.464844 78.890625 L 247.492188 78.890625 L 247.492188 72.957031 L 248.464844 72.957031 L 248.464844 73.878906 C 248.695312 73.535156 248.964844 73.261719 249.289062 73.089844 C 249.605469 72.914062 249.972656 72.816406 250.382812 72.816406 C 251.054688 72.816406 251.578125 73.035156 251.921875 73.457031 C 252.269531 73.878906 252.453125 74.5 252.453125 75.3125 Z M 252.453125 75.3125 "/>
<path style=" stroke:none;fill-rule:nonzero;fill:rgb(0%,0%,0%);fill-opacity:1;" d="M 254.535156 77.546875 L 255.652344 77.546875 L 255.652344 78.890625 L 254.535156 78.890625 Z M 254.535156 77.546875 "/>
<path style=" stroke:none;fill-rule:nonzero;fill:rgb(0%,0%,0%);fill-opacity:1;" d="M 265.1875 73.859375 L 265.1875 70.648438 L 266.160156 70.648438 L 266.160156 78.890625 L 265.1875 78.890625 L 265.1875 78.003906 C 264.980469 78.359375 264.71875 78.621094 264.40625 78.78125 C 264.09375 78.945312 263.722656 79.03125 263.289062 79.03125 C 262.574219 79.03125 261.988281 78.75 261.535156 78.1875 C 261.078125 77.621094 260.863281 76.863281 260.863281 75.929688 C 260.863281 74.996094 261.078125 74.25 261.535156 73.675781 C 261.988281 73.109375 262.574219 72.816406 263.289062 72.816406 C 263.722656 72.816406 264.09375 72.90625 264.40625 73.078125 C 264.71875 73.25 264.980469 73.511719 265.1875 73.859375 Z M 261.871094 75.929688 C 261.871094 76.644531 262.011719 77.210938 262.304688 77.621094 C 262.597656 78.035156 262.996094 78.230469 263.515625 78.230469 C 264.039062 78.230469 264.4375 78.035156 264.742188 77.621094 C 265.035156 77.210938 265.1875 76.644531 265.1875 75.929688 C 265.1875 75.214844 265.035156 74.660156 264.742188 74.25 C 264.4375 73.835938 264.039062 73.632812 263.515625 73.632812 C 262.996094 73.632812 262.597656 73.835938 262.304688 74.25 C 262.011719 74.660156 261.871094 75.214844 261.871094 75.929688 Z M 261.871094 75.929688 "/>
<path style=" stroke:none;fill-rule:nonzero;fill:rgb(0%,0%,0%);fill-opacity:1;" d="M 268.167969 72.957031 L 269.140625 72.957031 L 269.140625 78.890625 L 268.167969 78.890625 Z M 268.167969 70.648438 L 269.140625 70.648438 L 269.140625 71.886719 L 268.167969 71.886719 Z M 268.167969 70.648438 "/>
<path style=" stroke:none;fill-rule:nonzero;fill:rgb(0%,0%,0%);fill-opacity:1;" d="M 274.960938 73.132812 L 274.960938 74.054688 C 274.679688 73.925781 274.398438 73.816406 274.105469 73.738281 C 273.800781 73.675781 273.496094 73.632812 273.183594 73.632812 C 272.695312 73.632812 272.328125 73.707031 272.089844 73.859375 C 271.851562 74.011719 271.730469 74.226562 271.730469 74.519531 C 271.730469 74.75 271.816406 74.921875 271.992188 75.050781 C 272.164062 75.183594 272.511719 75.3125 273.03125 75.421875 L 273.367188 75.496094 C 274.0625 75.648438 274.546875 75.867188 274.839844 76.125 C 275.121094 76.398438 275.273438 76.777344 275.273438 77.253906 C 275.273438 77.808594 275.058594 78.242188 274.625 78.554688 C 274.191406 78.878906 273.585938 79.03125 272.824219 79.03125 C 272.5 79.03125 272.175781 79 271.828125 78.945312 C 271.480469 78.890625 271.125 78.804688 270.746094 78.675781 L 270.746094 77.664062 C 271.101562 77.859375 271.460938 78.003906 271.808594 78.089844 C 272.152344 78.1875 272.5 78.230469 272.847656 78.230469 C 273.300781 78.230469 273.660156 78.152344 273.910156 78.003906 C 274.148438 77.851562 274.277344 77.621094 274.277344 77.328125 C 274.277344 77.070312 274.179688 76.863281 274.007812 76.722656 C 273.832031 76.582031 273.441406 76.441406 272.835938 76.308594 L 272.5 76.234375 C 271.894531 76.105469 271.449219 75.910156 271.1875 75.648438 C 270.917969 75.386719 270.789062 75.03125 270.789062 74.5625 C 270.789062 74.011719 270.984375 73.578125 271.375 73.273438 C 271.765625 72.96875 272.328125 72.816406 273.0625 72.816406 C 273.421875 72.816406 273.757812 72.851562 274.082031 72.90625 C 274.398438 72.957031 274.691406 73.035156 274.960938 73.132812 Z M 274.960938 73.132812 "/>
<path style=" stroke:none;fill-rule:nonzero;fill:rgb(0%,0%,0%);fill-opacity:1;" d="M 277.789062 71.277344 L 277.789062 72.957031 L 279.792969 72.957031 L 279.792969 73.71875 L 277.789062 73.71875 L 277.789062 76.9375 C 277.789062 77.425781 277.855469 77.742188 277.984375 77.871094 C 278.113281 78.011719 278.382812 78.078125 278.796875 78.078125 L 279.792969 78.078125 L 279.792969 78.890625 L 278.796875 78.890625 C 278.039062 78.890625 277.519531 78.75 277.234375 78.46875 C 276.953125 78.1875 276.8125 77.675781 276.8125 76.9375 L 276.8125 73.71875 L 276.097656 73.71875 L 276.097656 72.957031 L 276.8125 72.957031 L 276.8125 71.277344 Z M 277.789062 71.277344 "/>
<path style=" stroke:none;fill-rule:nonzero;fill:rgb(0%,0%,0%);fill-opacity:1;" d="M 283.769531 75.910156 C 282.980469 75.910156 282.4375 76.007812 282.132812 76.179688 C 281.832031 76.363281 281.679688 76.667969 281.679688 77.101562 C 281.679688 77.449219 281.785156 77.730469 282.015625 77.925781 C 282.242188 78.132812 282.554688 78.230469 282.945312 78.230469 C 283.488281 78.230469 283.921875 78.046875 284.246094 77.65625 C 284.570312 77.277344 284.734375 76.765625 284.734375 76.125 L 284.734375 75.910156 Z M 285.710938 75.507812 L 285.710938 78.890625 L 284.734375 78.890625 L 284.734375 77.992188 C 284.507812 78.359375 284.226562 78.621094 283.898438 78.78125 C 283.574219 78.945312 283.164062 79.03125 282.6875 79.03125 C 282.078125 79.03125 281.59375 78.871094 281.234375 78.535156 C 280.875 78.199219 280.703125 77.742188 280.703125 77.167969 C 280.703125 76.503906 280.921875 76.007812 281.375 75.660156 C 281.820312 75.324219 282.480469 75.148438 283.371094 75.148438 L 284.734375 75.148438 L 284.734375 75.050781 C 284.734375 74.605469 284.582031 74.261719 284.289062 74.011719 C 283.996094 73.773438 283.585938 73.640625 283.054688 73.640625 C 282.707031 73.640625 282.382812 73.683594 282.058594 73.773438 C 281.734375 73.859375 281.429688 73.976562 281.136719 74.128906 L 281.136719 73.230469 C 281.484375 73.101562 281.832031 72.992188 282.167969 72.925781 C 282.503906 72.859375 282.828125 72.816406 283.152344 72.816406 C 284.007812 72.816406 284.648438 73.046875 285.070312 73.492188 C 285.492188 73.933594 285.710938 74.605469 285.710938 75.507812 Z M 285.710938 75.507812 "/>
<path style=" stroke:none;fill-rule:nonzero;fill:rgb(0%,0%,0%);fill-opacity:1;" d="M 292.644531 75.3125 L 292.644531 78.890625 L 291.667969 78.890625 L 291.667969 75.34375 C 291.667969 74.78125 291.550781 74.367188 291.332031 74.085938 C 291.117188 73.804688 290.792969 73.664062 290.359375 73.664062 C 289.828125 73.664062 289.414062 73.835938 289.113281 74.171875 C 288.808594 74.507812 288.65625 74.964844 288.65625 75.539062 L 288.65625 78.890625 L 287.683594 78.890625 L 287.683594 72.957031 L 288.65625 72.957031 L 288.65625 73.878906 C 288.882812 73.535156 289.15625 73.261719 289.480469 73.089844 C 289.796875 72.914062 290.164062 72.816406 290.574219 72.816406 C 291.246094 72.816406 291.765625 73.035156 292.113281 73.457031 C 292.460938 73.878906 292.644531 74.5 292.644531 75.3125 Z M 292.644531 75.3125 "/>
<path style=" stroke:none;fill-rule:nonzero;fill:rgb(0%,0%,0%);fill-opacity:1;" d="M 298.855469 73.1875 L 298.855469 74.097656 C 298.570312 73.945312 298.300781 73.835938 298.019531 73.761719 C 297.738281 73.683594 297.46875 73.640625 297.183594 73.640625 C 296.554688 73.640625 296.058594 73.847656 295.710938 74.25 C 295.363281 74.652344 295.191406 75.214844 295.191406 75.929688 C 295.191406 76.65625 295.363281 77.222656 295.710938 77.621094 C 296.058594 78.023438 296.554688 78.21875 297.183594 78.21875 C 297.46875 78.21875 297.738281 78.1875 298.019531 78.109375 C 298.300781 78.035156 298.570312 77.914062 298.855469 77.761719 L 298.855469 78.664062 C 298.570312 78.792969 298.289062 78.890625 298.007812 78.945312 C 297.714844 79 297.402344 79.03125 297.078125 79.03125 C 296.1875 79.03125 295.472656 78.761719 294.953125 78.199219 C 294.421875 77.644531 294.160156 76.886719 294.160156 75.929688 C 294.160156 74.964844 294.421875 74.207031 294.953125 73.652344 C 295.484375 73.101562 296.210938 72.816406 297.140625 72.816406 C 297.445312 72.816406 297.738281 72.851562 298.019531 72.914062 C 298.300781 72.980469 298.582031 73.066406 298.855469 73.1875 Z M 298.855469 73.1875 "/>
<path style=" stroke:none;fill-rule:nonzero;fill:rgb(0%,0%,0%);fill-opacity:1;" d="M 305.617188 75.679688 L 305.617188 76.160156 L 301.140625 76.160156 C 301.183594 76.832031 301.378906 77.351562 301.746094 77.699219 C 302.105469 78.046875 302.601562 78.21875 303.253906 78.21875 C 303.621094 78.21875 303.988281 78.175781 304.335938 78.089844 C 304.683594 78.003906 305.042969 77.859375 305.386719 77.664062 L 305.386719 78.585938 C 305.042969 78.738281 304.683594 78.859375 304.316406 78.925781 C 303.945312 78.988281 303.566406 79.03125 303.199219 79.03125 C 302.246094 79.03125 301.496094 78.761719 300.945312 78.21875 C 300.394531 77.675781 300.121094 76.929688 300.121094 75.984375 C 300.121094 75.019531 300.382812 74.25 300.902344 73.675781 C 301.421875 73.109375 302.136719 72.816406 303.027344 72.816406 C 303.828125 72.816406 304.457031 73.078125 304.921875 73.585938 C 305.378906 74.109375 305.617188 74.800781 305.617188 75.679688 Z M 304.640625 75.398438 C 304.628906 74.867188 304.476562 74.445312 304.195312 74.121094 C 303.902344 73.804688 303.511719 73.640625 303.035156 73.640625 C 302.496094 73.640625 302.0625 73.804688 301.734375 74.109375 C 301.410156 74.414062 301.214844 74.847656 301.171875 75.398438 Z M 304.640625 75.398438 "/>
<path style=" stroke:none;fill-rule:nonzero;fill:rgb(0%,0%,0%);fill-opacity:1;" d="M 310.785156 73.96875 L 317.566406 73.96875 L 317.566406 74.855469 L 310.785156 74.855469 Z M 310.785156 76.125 L 317.566406 76.125 L 317.566406 77.027344 L 310.785156 77.027344 Z M 310.785156 76.125 "/>
<path style=" stroke:none;fill-rule:nonzero;fill:rgb(0%,0%,0%);fill-opacity:1;" d="M 323.507812 77.992188 L 325.25 77.992188 L 325.25 71.960938 L 323.355469 72.339844 L 323.355469 71.363281 L 325.238281 70.984375 L 326.3125 70.984375 L 326.3125 77.992188 L 328.058594 77.992188 L 328.058594 78.890625 L 323.507812 78.890625 Z M 323.507812 77.992188 "/>
<path style=" stroke:none;fill-rule:nonzero;fill:rgb(0%,0%,0%);fill-opacity:1;" d="M 333.453125 74.628906 C 333.960938 74.738281 334.363281 74.964844 334.644531 75.3125 C 334.925781 75.660156 335.078125 76.09375 335.078125 76.59375 C 335.078125 77.375 334.808594 77.980469 334.277344 78.402344 C 333.734375 78.828125 332.976562 79.03125 331.992188 79.03125 C 331.65625 79.03125 331.308594 79 330.960938 78.933594 C 330.613281 78.878906 330.246094 78.78125 329.878906 78.652344 L 329.878906 77.621094 C 330.171875 77.796875 330.496094 77.925781 330.851562 78.011719 C 331.199219 78.101562 331.566406 78.144531 331.957031 78.144531 C 332.628906 78.144531 333.140625 78.011719 333.484375 77.753906 C 333.832031 77.492188 334.015625 77.101562 334.015625 76.59375 C 334.015625 76.136719 333.855469 75.769531 333.527344 75.507812 C 333.203125 75.246094 332.75 75.105469 332.164062 75.105469 L 331.242188 75.105469 L 331.242188 74.226562 L 332.207031 74.226562 C 332.726562 74.226562 333.128906 74.128906 333.410156 73.914062 C 333.691406 73.707031 333.832031 73.402344 333.832031 73.003906 C 333.832031 72.601562 333.679688 72.285156 333.398438 72.070312 C 333.105469 71.851562 332.695312 71.742188 332.164062 71.742188 C 331.871094 71.742188 331.558594 71.777344 331.222656 71.839844 C 330.886719 71.90625 330.515625 72.003906 330.117188 72.132812 L 330.117188 71.179688 C 330.515625 71.070312 330.894531 70.984375 331.253906 70.929688 C 331.601562 70.875 331.9375 70.84375 332.261719 70.84375 C 333.0625 70.84375 333.703125 71.027344 334.179688 71.398438 C 334.65625 71.765625 334.894531 72.265625 334.894531 72.894531 C 334.894531 73.328125 334.765625 73.695312 334.515625 74 C 334.265625 74.304688 333.910156 74.519531 333.453125 74.628906 Z M 333.453125 74.628906 "/>
<path style=" stroke:none;fill-rule:nonzero;fill:rgb(0%,0%,0%);fill-opacity:1;" d="M 337.105469 77.546875 L 338.222656 77.546875 L 338.222656 78.890625 L 337.105469 78.890625 Z M 337.105469 77.546875 "/>
<path style=" stroke:none;fill-rule:nonzero;fill:rgb(0%,0%,0%);fill-opacity:1;" d="M 342.96875 74.507812 C 342.492188 74.507812 342.113281 74.683594 341.828125 75.007812 C 341.546875 75.335938 341.40625 75.789062 341.40625 76.355469 C 341.40625 76.929688 341.546875 77.382812 341.828125 77.710938 C 342.113281 78.035156 342.492188 78.199219 342.96875 78.199219 C 343.445312 78.199219 343.824219 78.035156 344.105469 77.710938 C 344.386719 77.382812 344.527344 76.929688 344.527344 76.355469 C 344.527344 75.789062 344.386719 75.335938 344.105469 75.007812 C 343.824219 74.683594 343.445312 74.507812 342.96875 74.507812 Z M 345.089844 71.160156 L 345.089844 72.132812 C 344.820312 72.003906 344.550781 71.90625 344.277344 71.839844 C 343.996094 71.777344 343.726562 71.742188 343.464844 71.742188 C 342.75 71.742188 342.207031 71.984375 341.839844 72.460938 C 341.472656 72.9375 341.253906 73.664062 341.210938 74.617188 C 341.417969 74.316406 341.679688 74.074219 341.992188 73.914062 C 342.304688 73.75 342.652344 73.664062 343.03125 73.664062 C 343.824219 73.664062 344.453125 73.914062 344.90625 74.390625 C 345.363281 74.867188 345.601562 75.527344 345.601562 76.355469 C 345.601562 77.167969 345.351562 77.816406 344.875 78.304688 C 344.398438 78.792969 343.757812 79.03125 342.96875 79.03125 C 342.058594 79.03125 341.351562 78.683594 340.875 77.992188 C 340.386719 77.296875 340.148438 76.277344 340.148438 74.945312 C 340.148438 73.695312 340.441406 72.699219 341.039062 71.960938 C 341.625 71.222656 342.425781 70.84375 343.421875 70.84375 C 343.683594 70.84375 343.953125 70.875 344.234375 70.917969 C 344.507812 70.972656 344.789062 71.050781 345.089844 71.160156 Z M 345.089844 71.160156 "/>
<path style=" stroke:none;fill-rule:nonzero;fill:rgb(0%,0%,0%);fill-opacity:1;" d="M 347.453125 70.984375 L 351.648438 70.984375 L 351.648438 71.886719 L 348.429688 71.886719 L 348.429688 73.828125 C 348.582031 73.773438 348.742188 73.730469 348.894531 73.707031 C 349.046875 73.683594 349.207031 73.664062 349.359375 73.664062 C 350.238281 73.664062 350.933594 73.914062 351.453125 74.390625 C 351.972656 74.878906 352.230469 75.527344 352.230469 76.355469 C 352.230469 77.210938 351.960938 77.871094 351.429688 78.339844 C 350.898438 78.804688 350.152344 79.03125 349.199219 79.03125 C 348.863281 79.03125 348.527344 79 348.179688 78.957031 C 347.832031 78.902344 347.484375 78.828125 347.117188 78.707031 L 347.117188 77.632812 C 347.433594 77.808594 347.757812 77.9375 348.105469 78.023438 C 348.441406 78.109375 348.796875 78.144531 349.175781 78.144531 C 349.785156 78.144531 350.269531 77.992188 350.628906 77.664062 C 350.976562 77.339844 351.160156 76.90625 351.160156 76.355469 C 351.160156 75.8125 350.976562 75.378906 350.628906 75.050781 C 350.269531 74.726562 349.785156 74.5625 349.175781 74.5625 C 348.894531 74.5625 348.601562 74.597656 348.320312 74.660156 C 348.039062 74.726562 347.746094 74.824219 347.453125 74.953125 Z M 347.453125 70.984375 "/>
<path style=" stroke:none;fill-rule:nonzero;fill:rgb(0%,0%,0%);fill-opacity:1;" d="M 362.253906 74.097656 C 362.492188 73.664062 362.785156 73.347656 363.121094 73.132812 C 363.457031 72.925781 363.859375 72.816406 364.324219 72.816406 C 364.933594 72.816406 365.410156 73.035156 365.746094 73.46875 C 366.082031 73.902344 366.253906 74.519531 366.253906 75.3125 L 366.253906 78.890625 L 365.277344 78.890625 L 365.277344 75.34375 C 365.277344 74.78125 365.171875 74.359375 364.976562 74.074219 C 364.769531 73.804688 364.464844 73.664062 364.054688 73.664062 C 363.546875 73.664062 363.144531 73.835938 362.851562 74.171875 C 362.558594 74.507812 362.417969 74.964844 362.417969 75.539062 L 362.417969 78.890625 L 361.441406 78.890625 L 361.441406 75.34375 C 361.441406 74.78125 361.335938 74.359375 361.140625 74.074219 C 360.933594 73.804688 360.621094 73.664062 360.207031 73.664062 C 359.710938 73.664062 359.308594 73.835938 359.015625 74.171875 C 358.722656 74.507812 358.582031 74.964844 358.582031 75.539062 L 358.582031 78.890625 L 357.605469 78.890625 L 357.605469 72.957031 L 358.582031 72.957031 L 358.582031 73.878906 C 358.800781 73.523438 359.070312 73.25 359.382812 73.078125 C 359.6875 72.90625 360.054688 72.816406 360.488281 72.816406 C 360.921875 72.816406 361.28125 72.925781 361.582031 73.144531 C 361.886719 73.359375 362.105469 73.683594 362.253906 74.097656 Z M 362.253906 74.097656 "/>
</g>
</svg>
