<svg xmlns="http://www.w3.org/2000/svg" xmlns:xlink="http://www.w3.org/1999/xlink" width="301pt" height="396" viewBox="0 0 301 297"><clipPath id="a"><path transform="matrix(1 0 0 -1 -69 305)" d="M0 0h460.8v345.6H0z"/></clipPath><g clip-path="url(#a)"><path d="M-69 305h460.8V-40.6H-69z" fill="#fff"/><path d="M34.104 266.984h266.112V.872H34.104z" fill="#fff"/><path stroke-width=".8" stroke-linejoin="round" fill="none" stroke="#000" d="M45.013 266.984v3.5"/><symbol id="b"><path transform="matrix(.001 0 0 .001 -.066 .013)" d="M318 664c-51 0-89-25-115-75s-38-125-38-225 12-175 38-225 64-75 115-75 89 25 115 75c25 50 38 125 38 225s-13 175-38 225c-26 50-64 75-115 75zm0 78c81 0 143-33 187-97 43-65 65-159 65-281 0-123-22-217-65-281-44-64-106-96-188-96S173 19 130 83 66 241 66 364c0 122 21 216 64 281 43 64 106 97 188 97z"/></symbol><use xlink:href="#b" transform="matrix(10 0 0 -10 42.493 281.708)"/><path stroke-width=".8" stroke-linejoin="round" fill="none" stroke="#000" d="M83.82 266.984v3.5"/><symbol id="c"><path transform="translate(-.11) scale(.001)" d="M124 83h161v556l-175-35v90l174 35h99V83h161V0H124v83z"/></symbol><use xlink:href="#c" transform="matrix(10 0 0 -10 78.56 281.578)"/><use xlink:href="#b" transform="matrix(10 0 0 -10 84.48 281.708)"/><path stroke-width=".8" stroke-linejoin="round" fill="none" stroke="#000" d="M122.626 266.984v3.5"/><symbol id="d"><path transform="translate(-.073) scale(.001)" d="M192 83h344V0H73v83c37 38 88 90 153 156 64 65 105 107 122 126 32 35 54 65 66 90 12 24 19 49 19 73 0 38-14 70-41 94s-62 37-106 37c-31 0-64-6-98-16-34-11-71-27-110-49v100c40 16 77 28 111 36s66 12 95 12c75 0 135-19 180-57s68-88 68-151c0-30-6-59-17-85-11-27-31-59-61-95-8-10-34-37-78-82S271 164 192 83z"/></symbol><use xlink:href="#d" transform="matrix(10 0 0 -10 116.996 281.578)"/><use xlink:href="#b" transform="matrix(10 0 0 -10 123.286 281.708)"/><path stroke-width=".8" stroke-linejoin="round" fill="none" stroke="#000" d="M161.432 266.984v3.5"/><symbol id="e"><path transform="matrix(.001 0 0 .001 -.076 .013)" d="M406 393c47-10 84-31 110-63s40-72 40-118c0-72-25-128-74-167-50-39-120-58-211-58-31 0-63 3-95 9-32 5-66 14-100 26v95c27-16 57-28 90-36 32-8 66-12 102-12 62 0 109 12 141 36s49 60 49 107c0 42-15 76-45 100s-72 37-126 37h-85v81h89c48 0 85 9 111 29 26 19 39 47 39 84s-14 66-40 86c-27 20-65 30-114 30-27 0-56-3-87-9s-65-15-102-27v88c37 10 72 18 105 23 32 5 63 8 93 8 74 0 133-17 177-51s66-80 66-138c0-40-12-74-35-102s-56-48-98-58z"/></symbol><use xlink:href="#e" transform="matrix(10 0 0 -10 155.833 281.708)"/><use xlink:href="#b" transform="matrix(10 0 0 -10 162.093 281.708)"/><path stroke-width=".8" stroke-linejoin="round" fill="none" stroke="#000" d="M200.239 266.984v3.5"/><symbol id="f"><path transform="translate(-.049) scale(.001)" d="M378 643 129 254h249v389zm-26 86h124V254h104v-82H476V0h-98v172H49v95l303 462z"/></symbol><use xlink:href="#f" transform="matrix(10 0 0 -10 194.37 281.578)"/><use xlink:href="#b" transform="matrix(10 0 0 -10 200.9 281.708)"/><path stroke-width=".8" stroke-linejoin="round" fill="none" stroke="#000" d="M239.045 266.984v3.5"/><symbol id="g"><path transform="matrix(.001 0 0 .001 -.077 .013)" d="M108 729h387v-83H198V467c14 5 29 9 43 11s29 4 43 4c81 0 145-23 193-67 48-45 72-105 72-181 0-79-25-140-74-183S357-13 269-13c-31 0-62 3-94 7-32 5-64 12-98 23v99c29-16 59-28 91-36 31-8 64-11 99-11 56 0 101 14 134 44 32 30 49 70 49 121 0 50-17 90-49 120-33 30-78 45-134 45-26 0-53-3-79-9s-53-15-80-27v366z"/></symbol><use xlink:href="#g" transform="matrix(10 0 0 -10 233.456 281.708)"/><use xlink:href="#b" transform="matrix(10 0 0 -10 239.706 281.708)"/><path stroke-width=".8" stroke-linejoin="round" fill="none" stroke="#000" d="M277.852 266.984v3.5"/><symbol id="h"><path transform="matrix(.001 0 0 .001 -.07 .013)" d="M330 404c-44 0-79-16-105-46s-39-72-39-124c0-53 13-95 39-125s61-45 105-45 79 15 105 45 39 72 39 125c0 52-13 94-39 124s-61 46-105 46zm196 309v-90c-25 12-50 21-75 27-26 6-51 9-75 9-66 0-116-22-150-66s-54-111-58-199c19 28 43 50 72 65s61 23 96 23c73 0 131-23 173-67s64-105 64-181c0-75-23-135-67-180S403-13 330-13c-84 0-149 32-193 96-45 64-67 158-67 281 0 115 27 207 82 275 54 68 128 103 220 103 24 0 49-3 75-7 25-5 51-12 79-22z"/></symbol><use xlink:href="#h" transform="matrix(10 0 0 -10 272.192 281.708)"/><use xlink:href="#b" transform="matrix(10 0 0 -10 278.512 281.708)"/><symbol id="i"><path transform="translate(.002) scale(.001)" d="M-2 729h616v-83H355V0h-99v646H-2v83z"/></symbol><symbol id="j"><path transform="translate(-.094) scale(.001)" d="M94 547h90V0H94v547zm0 213h90V646H94v114z"/></symbol><symbol id="k"><path transform="translate(-.091) scale(.001)" d="M520 442c22 40 49 69 80 89 31 19 68 29 111 29 56 0 100-20 131-60s47-97 47-170V0h-90v327c0 52-10 91-28 117-19 25-47 38-85 38-47 0-84-16-111-47s-40-73-40-126V0h-90v327c0 52-10 91-28 117-19 25-48 38-86 38-46 0-83-16-110-47s-40-73-40-126V0H91v547h90v-85c20 33 45 58 74 74 28 16 62 24 102 24s73-10 101-30 48-50 62-88z"/></symbol><symbol id="l"><path transform="matrix(.001 0 0 .001 -.055 .013)" d="M562 296v-44H149c4-62 22-110 56-142 33-32 79-48 139-48 34 0 68 4 100 12s65 21 97 39V28c-32-14-65-25-99-31s-69-10-103-10c-88 0-157 25-208 75S55 181 55 268c0 89 24 160 72 213 48 52 114 79 196 79 74 0 132-24 175-71 42-48 64-112 64-193zm-90 26c-1 49-15 88-41 118-27 29-63 44-107 44-50 0-90-15-120-43s-48-68-52-119h320z"/></symbol><symbol id="n"><path transform="matrix(.001 0 0 .001 -.086 .131)" d="M86 760h207v-70H176V-61h117v-70H86v891z"/></symbol><symbol id="o"><path transform="matrix(.001 0 0 .001 -.054 .013)" d="M443 531v-85c-26 12-52 22-79 29-28 6-56 10-85 10-45 0-79-7-101-21s-33-34-33-61c0-21 8-37 24-49s48-24 96-34l31-7c64-14 109-34 136-58 26-25 40-60 40-104 0-51-20-91-60-120-40-30-96-44-166-44-30 0-60 3-92 8S89 8 54 20v93c33-18 66-31 98-39 32-9 64-13 96-13 42 0 75 7 98 21 22 14 34 35 34 62 0 24-9 43-25 56s-52 26-108 38l-31 7c-56 12-97 30-121 54-25 24-37 57-37 100 0 51 18 91 54 119s88 42 156 42c33 0 64-3 94-8 29-5 56-12 81-21z"/></symbol><symbol id="p"><path transform="matrix(.001 0 0 .001 -.097 .131)" d="M304 760v-891H97v70h117v751H97v70h207z"/></symbol><use xlink:href="#i" transform="matrix(10 0 0 -10 146.757 295.25)"/><use xlink:href="#j" transform="matrix(10 0 0 -10 153.53 295.25)"/><use xlink:href="#k" transform="matrix(10 0 0 -10 156.28 295.25)"/><use xlink:href="#l" transform="matrix(10 0 0 -10 165.66 295.38)"/><use xlink:href="#m" transform="matrix(10 0 0 -10 171.26 295.25)"/><use xlink:href="#n" transform="matrix(10 0 0 -10 175.3 296.56)"/><use xlink:href="#o" transform="matrix(10 0 0 -10 178.88 295.38)"/><use xlink:href="#p" transform="matrix(10 0 0 -10 184.52 296.56)"/><path stroke-width=".8" stroke-linejoin="round" fill="none" stroke="#000" d="M34.104 249.571h-3.5"/><use xlink:href="#d" transform="matrix(10 0 0 -10 15.115 253.368)"/><use xlink:href="#g" transform="matrix(10 0 0 -10 21.515 253.498)"/><path stroke-width=".8" stroke-linejoin="round" fill="none" stroke="#000" d="M34.104 212.89h-3.5"/><use xlink:href="#e" transform="matrix(10 0 0 -10 15.145 216.817)"/><use xlink:href="#b" transform="matrix(10 0 0 -10 21.405 216.817)"/><path stroke-width=".8" stroke-linejoin="round" fill="none" stroke="#000" d="M34.104 176.208h-3.5"/><use xlink:href="#e" transform="matrix(10 0 0 -10 15.145 180.135)"/><use xlink:href="#g" transform="matrix(10 0 0 -10 21.515 180.135)"/><path stroke-width=".8" stroke-linejoin="round" fill="none" stroke="#000" d="M34.104 139.526h-3.5"/><use xlink:href="#f" transform="matrix(10 0 0 -10 14.875 143.323)"/><use xlink:href="#b" transform="matrix(10 0 0 -10 21.405 143.453)"/><path stroke-width=".8" stroke-linejoin="round" fill="none" stroke="#000" d="M34.104 102.845h-3.5"/><use xlink:href="#f" transform="matrix(10 0 0 -10 14.875 106.642)"/><use xlink:href="#g" transform="matrix(10 0 0 -10 21.515 106.772)"/><path stroke-width=".8" stroke-linejoin="round" fill="none" stroke="#000" d="M34.104 66.163h-3.5"/><use xlink:href="#g" transform="matrix(10 0 0 -10 15.155 70.09)"/><use xlink:href="#b" transform="matrix(10 0 0 -10 21.405 70.09)"/><path stroke-width=".8" stroke-linejoin="round" fill="none" stroke="#000" d="M34.104 29.481h-3.5"/><use xlink:href="#g" transform="matrix(10 0 0 -10 15.155 33.408)"/><use xlink:href="#g" transform="matrix(10 0 0 -10 21.515 33.408)"/><symbol id="q"><path transform="translate(-.098) scale(.001)" d="M197 648V81h119c100 0 174 22 221 68 46 46 70 118 70 216s-24 169-70 215c-47 45-121 68-221 68H197zm-99 81h203c141 0 245-30 311-88 66-59 99-151 99-276 0-126-34-218-100-277S441 0 301 0H98v729z"/></symbol><symbol id="r"><path transform="translate(-.027) scale(.001)" d="M183 702V547h185v-70H183V180c0-45 6-74 18-86 12-13 37-19 75-19h92V0h-92c-70 0-118 13-144 39s-39 73-39 141v297H27v70h66v155h90z"/></symbol><symbol id="s"><path transform="matrix(.001 0 0 .001 -.06 .013)" d="M343 275c-73 0-123-9-151-25-28-17-42-45-42-85 0-32 10-58 31-76 21-19 50-28 86-28 50 0 90 17 120 53 30 35 45 82 45 141v20h-89zm179 37V0h-90v83c-21-34-47-58-77-73s-68-23-112-23c-56 0-101 15-134 46s-49 73-49 126c0 61 20 107 62 139 41 31 102 47 184 47h126v9c0 41-14 73-41 96-27 22-65 34-114 34-32 0-62-4-92-12s-58-19-85-33v83c32 12 64 22 95 28s61 10 91 10c79 0 138-21 177-62s59-103 59-186z"/></symbol><symbol id="t"><path transform="translate(-.091) scale(.001)" d="M549 330V0h-90v327c0 52-11 90-31 116s-50 39-90 39c-49 0-87-16-115-47s-42-73-42-126V0H91v547h90v-85c21 32 46 57 76 73 29 16 63 25 101 25 62 0 110-20 142-59s49-96 49-171z"/></symbol><symbol id="u"><path transform="matrix(.001 0 0 .001 -.055 .013)" d="M488 526v-84c-26 14-51 24-77 31s-51 11-77 11c-58 0-104-19-136-56s-48-89-48-155c0-67 16-119 48-156s78-55 136-55c26 0 51 3 77 10s51 18 77 32V21C462 9 436 0 410-5c-27-5-56-8-86-8-82 0-148 25-196 77-49 51-73 121-73 209 0 89 24 159 73 210s116 77 202 77c28 0 55-3 81-9s52-14 77-25z"/></symbol><use xlink:href="#q" transform="matrix(0 -10 -10 0 8.307 165.198)"/><use xlink:href="#j" transform="matrix(0 -10 -10 0 8.307 157.538)"/><use xlink:href="#o" transform="matrix(0 -10 -10 0 8.437 155.158)"/><use xlink:href="#r" transform="matrix(0 -10 -10 0 8.307 150.218)"/><use xlink:href="#s" transform="matrix(0 -10 -10 0 8.437 145.968)"/><use xlink:href="#t" transform="matrix(0 -10 -10 0 8.307 139.528)"/><use xlink:href="#u" transform="matrix(0 -10 -10 0 8.437 133.548)"/><use xlink:href="#l" transform="matrix(0 -10 -10 0 8.437 128.048)"/><use xlink:href="#m" transform="matrix(0 -10 -10 0 8.307 122.448)"/><use xlink:href="#n" transform="matrix(0 -10 -10 0 9.617 118.408)"/><use xlink:href="#k" transform="matrix(0 -10 -10 0 8.307 114.458)"/><use xlink:href="#p" transform="matrix(0 -10 -10 0 9.617 104.658)"/><clipPath id="v"><path transform="matrix(1 0 0 -1 -69 305)" d="M103.104 38.016h266.112v266.112H103.104z"/></clipPath><g clip-path="url(#v)"><path stroke-width="2.5" stroke-linecap="square" stroke-linejoin="round" fill="none" stroke="#00f" d="m46.2 12.968.24.21.292.422.167.134.395.68.769 1.351.136.161.174.622.101.047.33.836.194.55.085.048.225.56.458 1.142.326.777.136.552.09.038.469 1.363.307.815.12.033.423 1.42.384.874.163.609 1.638 4.364.155.635.07.021.411 1.096.136.438 4.882 13.898.143.657.124.006.288 1.098.07.006.093.22.128.442.159.442.248.664 12.88 36.644.198.22.116.667.187.443.353 1.322h.066l.322 1.097.07-.001.225.877.108-.002.218.658.14.438.232.658.237.878.085-.002.078.44.12-.001.179.878.124-.002.582 1.758.144.441.202.44.186.881h.108l.361 1.1.156.44.306 1.098.66 1.535.19.88.085-.002.245.88.12-.001.097.438.322 1.096.124-.001.249 1.096.559 1.315.225.88 1.172 3.08.147.44 6.36 18.162.171.463.707 2.082.093.23.128.68.085.009.303 1.13.24.455.14.667 1.257 3.214.16.411.217.83.077-.02.082.42.078-.022 1.265 3.263.062-.04.221.758.085-.043.256.748.113.348.09-.046.24.735.062.17.132-.05.116.557.097-.054.3.661 1.377 3.098.12-.061.109.535.077-.062.322.85.086-.062.132.535.089-.063.338.85.054-.062.159.535.066-.061.105.377.081-.06.187.316.252.858.09-.061.053.378.09-.061 2.021 4.363.086-.058.058.38.16-.058.147.706 1.269 2.406.147.55.61 1.114.085.168.062.386.093-.052.698 1.512.09.168.128.557.089-.049.163.34.136.559.628 1.146.167.56.097-.048.202.73.082-.048.419 1.073.089-.047.027.39.078-.048.1.17.214.733.124-.046.043.389.078-.047 2.243 5.16.085-.048.16.556.057-.049 4.21 8.94.144.324.241.7.082-.055.617 1.498.077-.055.093.16.055.374.081-.055.221.691.09-.056.159.317.372 1.001.09-.057.252.683.097-.058.527 1.302.059-.06.147.309.148.52.085-.06.512.915.043.366.09-.062.22.668.113-.063.085.15.101.514.082-.063.1.15.063.363.062-.063.17.299.063.361.089-.063.229.659.085-.064.148.508.768 1.262.229.65 1.098 1.823.066.354.093-.066.113.143.043.354.081-.067.082.142.21.636.092-.068.218.633.232.423.097-.07.61 1.12.229.417.147.486.12-.071.125.483.085-.072.768 1.354.152.268.24.608.916 1.581.105-.076.07.337.062-.076 3.271 5.495.086-.083.217.564.097-.083.764 1.386.09-.085.14.235.073.318.085-.084.163.434.237.348.066-.085.086.317.081-.086.074.115.14.43.24.343.151.228.101-.087.062.313.066-.086.117.112.116.424.326.448.082-.087.089.111.132.42.12-.087.043.308.062-.088.252.527.066.11.07-.09.082.11.089.306.089-.09.229.324.062.305.109-.09.12.411 1.44 1.882.186.304.202-.093.578 1.096.097-.094.078.29.077-.094.443.58.248.478.093-.097.136.38.074-.096.07.285.104-.097.074.094.217.469.23.275.112-.098.046.092.066.28.086-.097.186.18.039.28.109-.1.135.18.218.455 1.02.94.082.27.074-.1 1.152 1.425.105-.103.066.264.1-.104.047.08.152.342.089-.104.151.34.086-.103.104.078.043.26.085-.105.078.078.229.411.09-.104.073.076.155.332.062-.105.082.255.081-.105.482.443.05.252.085-.107.086.252.112-.107.043.072.14.142.155.32.085-.108.237.388.16.139.077-.108.155.314.081-.109.074.245.078-.11.081.244.062-.109.357.441.031.066.078-.11.078.24.085-.11.078.24.081-.11.085.063.478.377.058.235.074-.111.252.183.132.293.085.06.12-.112.036.06.706.524.159.283.175-.057.423.494.174-.063.842.723.156-.068.081.048.093.213.05-.117.086.047.07.21.182-.07.086.045.128.255.081-.118.078.208.143-.117.031.045.125.088.166.248.113-.118.043.043.12.042.043.203.085-.12.066.203.074-.12.143.241.198-.08.055.04.14.237.088-.12.132.234.167.074.171-.085.21.264.085-.12.237.103.085.19.078-.123.147.222.194-.09.594.247.097.03.047.182.085-.123.143.209.113-.125.128.207.16-.098.061.026.078.178.17-.1.078.025.144.2.12-.125.12.198.23.07.089-.126.058.17.186-.103.058.021.059.169.135-.126.035.167.086-.126.22.35.125-.272.043.164.17-.109.047.163.078-.127.085.018.151.178.144.033.163-.112.085.158.175-.112.21.042.07.155.155-.115.155.166.318.045.097-.13.058.15.16-.119.228.027.066.146.082-.13.252.16.136-.122.159.149.163-.125.17.01.133.143.159-.127.089.003.081.137.14-.13.179.136.132-.132h.112l.054.132.156-.133.132.129.17-.135.183-.005.174.122.078-.133.039.125.054-.004.198-.138.136-.01.085.121.082-.133.066.12.233-.149.163.11.22-.028.067-.135.163.104.085-.135.101.113.085-.136.047.112.054-.012.198-.149.132-.027.097.109.136-.15.085.106.136-.15.082-.016.077.105.086-.137.143.087.322-.071.152-.156.147.08.183-.157.066-.02.15.075 2.873-.991.225-.206.167.039.065-.14.086.071.09-.14.088.07.206-.21.151.03.276-.214.05.065.23-.217.054.063.163-.18.155.022.112-.14.047.06.559-.293.07-.141.062.055.877-.494.136-.188.081.047.078-.142.077.047.462-.293.167-.1 1.343-.894.042-.142.078.032.229-.168.664-.545.205-.177.066.023.392-.385.179-.042.124-.205.093.018.225-.27.085.016.241-.271 1.54-1.275.455-.5.151-.073.59-.587.116-.08.24-.296.548-.471.61-.697.073-.015.73-.796.128-.103.326-.397.217-.193 1.777-1.99.326-.401 1.005-1.214.319-.431.15-.144.707-.927 1.238-1.574.303-.415.473-.629.76-1.105.323-.395 1.009-1.431 3.015-4.51 5.437-8.68 1.017-1.083 1.23-.82.931-.166.71.142.462.227.481.34 1.145 1.31.73 1.112.605 1.165 5.592 13.159.233.486.757 1.61.496.925.447.845.454.761.772 1.195.94 1.26 2.273 2.585.206.196.31.352.245.185.531.525 2.484 2.402.78.822 4.42 4.238.249.292 1.005.865.298.358.09-.007.345.356.047-.01.295.353.073-.011.256.283.148.053.229.28 2.95 2.334.085-.036.225.259.147.016.396.364.419.261.155.006.12.198 1.401.86.148-.013.081.146.171-.016 1.032.633.125-.031.073.145.062-.07.319.145.232.215.167-.04.776.326.175.061.206.205 2.018.675.073-.1.09.143.135-.08.09.142.093-.102.105.142.073-.103.05.142.067-.104.093.142.066-.105.159.16.066-.107.252.175.078.016.058-.11.093.143.155-.096.086.015.081.141.132-.099.097.014.078.14.058-.115.132.141.047-.116.17.152.458.065.12-.111.086.14.159-.113.09.008.298.164.078.007.151-.12.24.152.07.006.082-.13.062.14.163-.126.256.147.078-.134.163.142.116-.133.252.144.59.002.04-.141.069.14.147-.145.09-.002.217.133.505-.024.12-.154.163.132.073-.152.148.131.167-.16.066.138.167-.163.159.128.151-.167.144.126.167-.17.062.137.081-.16.175.124.07-.162.182.124.124-.178.078-.014.097.135.143-.18.303-.065.062.135.322-.222.105.135.05-.171.074.135.078-.02.155-.193.155.115.07-.02.086-.177.182.114.136-.2.108.135.047-.179.074.135.07-.024.17-.204.07.134.155-.207.152.11.085-.025.136-.21.09-.025.092.133.062-.186.16.107.07-.027.104-.188.05.133.105-.028.14-.22.23-.088.08.132.067-.193.17.1.148-.226.143-.065.09.131.116-.033.194-.266.093.131.058-.2.163.095.074-.035.23-.275.08.13.198-.241.187-.114.077.13.156-.246.081.129.24-.29.148-.082.09.128.061-.21.167.085.214-.3.163.084.081-.215.12.127.047-.045.221-.135.167-.265.093.127.206-.315.082.125.159-.27.252.077.287-.251.163-.277.062.125.097-.05.062-.228.179.074.434-.492.214.07.644-.681.09.122.057-.057.245-.355.078-.06.085.12.074-.06.093-.06.07-.241.066.12.232-.367.156-.125.066.12.252-.188.07-.247.089.12.062-.064.074-.065.178-.312.09.118.143-.315.07.117.148-.317.089-.067.089.118.066-.068 1.098-.977.23-.216.057-.26.19.042.598-.591.062-.264.09.114.081-.075.155-.152.062-.266.09.114.097-.076.275-.5.082-.08.089.114.066-.27.093.112.132-.351.116.112.047-.08.435-.405.279-.327.054-.276.12.112.187-.442.337-.332.063.111.461-.504.086-.281.112.11.194-.453.136-.086.047.11.05-.086.07-.087.167-.373.077.109.094-.088.058-.286.07.108.124-.089.124-.376.081-.09.059.108.167-.378.081.108.163-.381.09.107.061-.092.377-.466.108-.093.047-.294.074.106.935-1.13.338-.385.29-.39.237-.499.07.104.082-.302.07.103.322-.403.143-.406.082.101.147-.408.105.101.058-.306.078.1.147-.206.237-.516.124.099.043-.105.077-.104.132-.414.105.1.691-1.16.12.097.796-1.394.085.098.186-.219.167-.427.082-.11.081.096.047-.11.229-.334.186-.43.186-.337.094.096.143-.435.082-.113.143.095.392-.893.09.094 1.54-2.345"/></g><clipPath id="w"><path transform="matrix(1 0 0 -1 -69 305)" d="M103.104 38.016h266.112v266.112H103.104z"/></clipPath><g clip-path="url(#w)"><path d="m250.062 257.853 6-6m-6 0 6 6" fill="orange"/><path stroke-width="2.5" stroke-linejoin="round" fill="none" stroke="orange" d="m250.062 257.853 6-6m-6 0 6 6"/></g><path stroke-width=".8" stroke-linecap="square" stroke-miterlimit="10" fill="none" stroke="#000" d="M34.104 266.984V.872M300.216 266.984V.872M34.104 266.984h266.112M34.104.872h266.112"/><path d="M115.966 38.216h177.25c1.333 0 2-.667 2-2V7.872c0-1.333-.667-2-2-2h-177.25c-1.333 0-2 .667-2 2v28.344c0 1.333.667 2 2 2z" fill="#fff" fill-opacity=".8"/><path stroke-miterlimit="10" fill="none" stroke="#d5d6d5" stroke-opacity=".8" d="M115.966 38.216h177.25c1.333 0 2-.667 2-2V7.872c0-1.333-.667-2-2-2h-177.25c-1.333 0-2 .667-2 2v28.344c0 1.333.667 2 2 2z"/><path stroke-width="2.5" stroke-linecap="square" stroke-linejoin="round" fill="none" stroke="#00f" d="M117.966 13.966h20"/><symbol id="x"><path transform="matrix(.001 0 0 .001 -.091 .013)" d="M487 273c0 66-14 117-41 155-28 38-65 57-112 57-48 0-85-19-112-57-28-38-41-89-41-155s13-118 41-156c27-38 64-56 112-56 47 0 84 18 112 56 27 38 41 90 41 156zM181 464c18 32 42 56 71 72s64 24 104 24c66 0 120-27 162-79 41-53 62-122 62-208s-21-156-62-208c-42-52-96-78-162-78-40 0-75 8-104 23s-53 39-71 72V0H91v760h90V464z"/></symbol><symbol id="y"><path transform="translate(-.042) scale(.001)" d="M42 547h90l112-427 112 427h106l112-427 112 427h90L633 0H527L409 448 291 0H185L42 547z"/></symbol><symbol id="z"><path transform="matrix(.001 0 0 .001 -.056 .013)" d="M394 662c-72 0-129-27-171-80-42-54-63-126-63-218s21-165 63-218c42-54 99-80 171-80 71 0 128 26 170 80 42 53 63 126 63 218s-21 164-63 218c-42 53-99 80-170 80zm0 80c102 0 183-35 245-103 61-68 92-160 92-275 0-116-31-207-92-275C577 21 496-13 394-13 291-13 209 21 148 89c-62 68-92 159-92 275 0 115 30 207 92 275 61 68 143 103 246 103z"/></symbol><symbol id="A"><path transform="matrix(.001 0 0 .001 -.066 .013)" d="M535 705v-96c-38 18-73 31-106 40-34 8-66 13-96 13-54 0-96-11-125-31-29-21-43-51-43-89 0-32 9-57 29-73 19-17 56-30 110-40l60-12c73-14 127-39 162-74 35-36 53-83 53-142 0-71-24-124-71-160-48-36-117-54-208-54-35 0-72 4-111 11S110 16 69 32v102c40-23 79-40 117-51 38-12 76-17 114-17 56 0 99 11 130 33 30 22 46 53 46 95 0 36-11 64-33 84s-58 35-108 45l-60 12c-74 14-127 37-160 69-33 31-49 74-49 130 0 64 22 115 68 152 45 37 108 56 188 56 34 0 68-3 104-9 35-6 71-16 109-28z"/></symbol><symbol id="B"><path transform="matrix(.001 0 0 .001 -.055 .013)" d="M454 464v296h90V0h-90v82c-19-33-43-57-72-72s-63-23-103-23c-66 0-120 26-162 78S55 187 55 273s20 155 62 208c42 52 96 79 162 79 40 0 74-8 103-24s53-40 72-72zM148 273c0-66 13-118 40-156s64-56 112-56 85 18 113 56c27 38 41 90 41 156s-14 117-41 155c-28 38-65 57-113 57s-85-19-112-57-40-89-40-155z"/></symbol><use xlink:href="#q" transform="matrix(10 0 0 -10 146.946 17.466)"/><use xlink:href="#j" transform="matrix(10 0 0 -10 154.606 17.466)"/><use xlink:href="#o" transform="matrix(10 0 0 -10 156.986 17.596)"/><use xlink:href="#r" transform="matrix(10 0 0 -10 161.926 17.466)"/><use xlink:href="#s" transform="matrix(10 0 0 -10 166.176 17.596)"/><use xlink:href="#t" transform="matrix(10 0 0 -10 172.616 17.466)"/><use xlink:href="#u" transform="matrix(10 0 0 -10 178.596 17.596)"/><use xlink:href="#l" transform="matrix(10 0 0 -10 184.096 17.596)"/><use xlink:href="#m" transform="matrix(10 0 0 -10 189.696 17.466)"/><use xlink:href="#x" transform="matrix(10 0 0 -10 193.786 17.596)"/><use xlink:href="#l" transform="matrix(10 0 0 -10 199.776 17.596)"/><use xlink:href="#r" transform="matrix(10 0 0 -10 205.646 17.466)"/><use xlink:href="#y" transform="matrix(10 0 0 -10 209.716 17.466)"/><use xlink:href="#l" transform="matrix(10 0 0 -10 218.026 17.596)"/><use xlink:href="#l" transform="matrix(10 0 0 -10 224.176 17.596)"/><use xlink:href="#t" transform="matrix(10 0 0 -10 230.686 17.466)"/><use xlink:href="#m" transform="matrix(10 0 0 -10 236.116 17.466)"/><use xlink:href="#z" transform="matrix(10 0 0 -10 239.856 17.596)"/><use xlink:href="#A" transform="matrix(10 0 0 -10 247.826 17.596)"/><use xlink:href="#m" transform="matrix(10 0 0 -10 253.516 17.466)"/><use xlink:href="#s" transform="matrix(10 0 0 -10 257.296 17.596)"/><use xlink:href="#t" transform="matrix(10 0 0 -10 263.736 17.466)"/><use xlink:href="#B" transform="matrix(10 0 0 -10 269.716 17.596)"/><use xlink:href="#m" transform="matrix(10 0 0 -10 275.516 17.466)"/><use xlink:href="#i" transform="matrix(10 0 0 -10 278.676 17.466)"/><use xlink:href="#A" transform="matrix(10 0 0 -10 285.466 17.596)"/><path d="m124.966 32.513 6-6m-6 0 6 6" fill="orange"/><path stroke-width="2.5" stroke-linejoin="round" fill="none" stroke="orange" d="m124.966 32.513 6-6m-6 0 6 6"/><symbol id="C"><path transform="translate(-.107) scale(.001)" d="M107 124h103V0H107v124z"/></symbol><symbol id="D"><path transform="matrix(.001 0 0 .001 -.106 -.172)" d="M106 454h626v-82H106v82zm0-199h626v-83H106v83z"/></symbol><symbol id="E"><path transform="matrix(.001 0 0 .001 -.068 .013)" d="M318 346c-47 0-84-13-111-38s-40-59-40-103 13-79 40-104 64-37 111-37c46 0 83 12 110 38 27 25 41 59 41 103s-14 78-40 103c-27 25-64 38-111 38zm-99 42c-42 10-75 30-99 59s-35 64-35 106c0 58 20 104 62 138 41 34 98 51 171 51 72 0 129-17 171-51 41-34 62-80 62-138 0-42-12-77-36-106s-56-49-98-59c47-11 84-33 111-65 26-32 40-72 40-118 0-71-22-125-65-162-44-38-106-56-186-56S175 5 132 43c-43 37-64 91-64 162 0 46 13 86 40 118 26 32 63 54 111 65zm-36 156c0-38 11-68 35-89s57-31 100-31c42 0 75 10 99 31s36 51 36 89-12 67-36 88-57 32-99 32c-43 0-76-11-100-32s-35-50-35-88z"/></symbol><use xlink:href="#k" transform="matrix(10 0 0 -10 146.876 32.138)"/><use xlink:href="#j" transform="matrix(10 0 0 -10 156.646 32.138)"/><use xlink:href="#t" transform="matrix(10 0 0 -10 159.396 32.138)"/><use xlink:href="#C" transform="matrix(10 0 0 -10 165.896 32.138)"/><use xlink:href="#m" transform="matrix(10 0 0 -10 168.006 32.138)"/><use xlink:href="#B" transform="matrix(10 0 0 -10 171.736 32.268)"/><use xlink:href="#j" transform="matrix(10 0 0 -10 178.476 32.138)"/><use xlink:href="#o" transform="matrix(10 0 0 -10 180.856 32.268)"/><use xlink:href="#r" transform="matrix(10 0 0 -10 185.796 32.138)"/><use xlink:href="#s" transform="matrix(10 0 0 -10 190.046 32.268)"/><use xlink:href="#t" transform="matrix(10 0 0 -10 196.486 32.138)"/><use xlink:href="#u" transform="matrix(10 0 0 -10 202.466 32.268)"/><use xlink:href="#l" transform="matrix(10 0 0 -10 207.966 32.268)"/><use xlink:href="#m" transform="matrix(10 0 0 -10 213.566 32.138)"/><use xlink:href="#D" transform="matrix(10 0 0 -10 217.806 30.418)"/><use xlink:href="#m" transform="matrix(10 0 0 -10 225.126 32.138)"/><use xlink:href="#d" transform="matrix(10 0 0 -10 229.036 32.138)"/><use xlink:href="#f" transform="matrix(10 0 0 -10 235.156 32.138)"/><use xlink:href="#C" transform="matrix(10 0 0 -10 242.096 32.138)"/><use xlink:href="#d" transform="matrix(10 0 0 -10 244.936 32.138)"/><use xlink:href="#E" transform="matrix(10 0 0 -10 251.246 32.268)"/><use xlink:href="#m" transform="matrix(10 0 0 -10 256.926 32.138)"/><use xlink:href="#k" transform="matrix(10 0 0 -10 261.016 32.138)"/></g></svg>