<svg xmlns="http://www.w3.org/2000/svg" xmlns:xlink="http://www.w3.org/1999/xlink" width="307pt" height="396" viewBox="0 0 307 297"><clipPath id="a"><path transform="matrix(1 0 0 -1 -63 305)" d="M0 0h460.8v345.6H0z"/></clipPath><g clip-path="url(#a)"><path d="M-63 305h460.8V-40.6H-63z" fill="#fff"/><path d="M40.104 266.984h266.112V.872H40.104z" fill="#fff"/><path stroke-width=".8" stroke-linejoin="round" fill="none" stroke="#000" d="M51.013 266.984v3.5"/><symbol id="b"><path transform="matrix(.001 0 0 .001 -.066 .013)" d="M318 664c-51 0-89-25-115-75s-38-125-38-225 12-175 38-225 64-75 115-75 89 25 115 75c25 50 38 125 38 225s-13 175-38 225c-26 50-64 75-115 75zm0 78c81 0 143-33 187-97 43-65 65-159 65-281 0-123-22-217-65-281-44-64-106-96-188-96S173 19 130 83 66 241 66 364c0 122 21 216 64 281 43 64 106 97 188 97z"/></symbol><use xlink:href="#b" transform="matrix(10 0 0 -10 48.493 281.708)"/><path stroke-width=".8" stroke-linejoin="round" fill="none" stroke="#000" d="M89.82 266.984v3.5"/><symbol id="c"><path transform="translate(-.11) scale(.001)" d="M124 83h161v556l-175-35v90l174 35h99V83h161V0H124v83z"/></symbol><use xlink:href="#c" transform="matrix(10 0 0 -10 84.56 281.578)"/><use xlink:href="#b" transform="matrix(10 0 0 -10 90.48 281.708)"/><path stroke-width=".8" stroke-linejoin="round" fill="none" stroke="#000" d="M128.626 266.984v3.5"/><symbol id="d"><path transform="translate(-.073) scale(.001)" d="M192 83h344V0H73v83c37 38 88 90 153 156 64 65 105 107 122 126 32 35 54 65 66 90 12 24 19 49 19 73 0 38-14 70-41 94s-62 37-106 37c-31 0-64-6-98-16-34-11-71-27-110-49v100c40 16 77 28 111 36s66 12 95 12c75 0 135-19 180-57s68-88 68-151c0-30-6-59-17-85-11-27-31-59-61-95-8-10-34-37-78-82S271 164 192 83z"/></symbol><use xlink:href="#d" transform="matrix(10 0 0 -10 122.996 281.578)"/><use xlink:href="#b" transform="matrix(10 0 0 -10 129.286 281.708)"/><path stroke-width=".8" stroke-linejoin="round" fill="none" stroke="#000" d="M167.432 266.984v3.5"/><symbol id="e"><path transform="matrix(.001 0 0 .001 -.076 .013)" d="M406 393c47-10 84-31 110-63s40-72 40-118c0-72-25-128-74-167-50-39-120-58-211-58-31 0-63 3-95 9-32 5-66 14-100 26v95c27-16 57-28 90-36 32-8 66-12 102-12 62 0 109 12 141 36s49 60 49 107c0 42-15 76-45 100s-72 37-126 37h-85v81h89c48 0 85 9 111 29 26 19 39 47 39 84s-14 66-40 86c-27 20-65 30-114 30-27 0-56-3-87-9s-65-15-102-27v88c37 10 72 18 105 23 32 5 63 8 93 8 74 0 133-17 177-51s66-80 66-138c0-40-12-74-35-102s-56-48-98-58z"/></symbol><use xlink:href="#e" transform="matrix(10 0 0 -10 161.833 281.708)"/><use xlink:href="#b" transform="matrix(10 0 0 -10 168.093 281.708)"/><path stroke-width=".8" stroke-linejoin="round" fill="none" stroke="#000" d="M206.239 266.984v3.5"/><symbol id="f"><path transform="translate(-.049) scale(.001)" d="M378 643 129 254h249v389zm-26 86h124V254h104v-82H476V0h-98v172H49v95l303 462z"/></symbol><use xlink:href="#f" transform="matrix(10 0 0 -10 200.37 281.578)"/><use xlink:href="#b" transform="matrix(10 0 0 -10 206.9 281.708)"/><path stroke-width=".8" stroke-linejoin="round" fill="none" stroke="#000" d="M245.045 266.984v3.5"/><symbol id="g"><path transform="matrix(.001 0 0 .001 -.077 .013)" d="M108 729h387v-83H198V467c14 5 29 9 43 11s29 4 43 4c81 0 145-23 193-67 48-45 72-105 72-181 0-79-25-140-74-183S357-13 269-13c-31 0-62 3-94 7-32 5-64 12-98 23v99c29-16 59-28 91-36 31-8 64-11 99-11 56 0 101 14 134 44 32 30 49 70 49 121 0 50-17 90-49 120-33 30-78 45-134 45-26 0-53-3-79-9s-53-15-80-27v366z"/></symbol><use xlink:href="#g" transform="matrix(10 0 0 -10 239.456 281.708)"/><use xlink:href="#b" transform="matrix(10 0 0 -10 245.706 281.708)"/><path stroke-width=".8" stroke-linejoin="round" fill="none" stroke="#000" d="M283.852 266.984v3.5"/><symbol id="h"><path transform="matrix(.001 0 0 .001 -.07 .013)" d="M330 404c-44 0-79-16-105-46s-39-72-39-124c0-53 13-95 39-125s61-45 105-45 79 15 105 45 39 72 39 125c0 52-13 94-39 124s-61 46-105 46zm196 309v-90c-25 12-50 21-75 27-26 6-51 9-75 9-66 0-116-22-150-66s-54-111-58-199c19 28 43 50 72 65s61 23 96 23c73 0 131-23 173-67s64-105 64-181c0-75-23-135-67-180S403-13 330-13c-84 0-149 32-193 96-45 64-67 158-67 281 0 115 27 207 82 275 54 68 128 103 220 103 24 0 49-3 75-7 25-5 51-12 79-22z"/></symbol><use xlink:href="#h" transform="matrix(10 0 0 -10 278.192 281.708)"/><use xlink:href="#b" transform="matrix(10 0 0 -10 284.512 281.708)"/><symbol id="i"><path transform="translate(.002) scale(.001)" d="M-2 729h616v-83H355V0h-99v646H-2v83z"/></symbol><symbol id="j"><path transform="translate(-.094) scale(.001)" d="M94 547h90V0H94v547zm0 213h90V646H94v114z"/></symbol><symbol id="k"><path transform="translate(-.091) scale(.001)" d="M520 442c22 40 49 69 80 89 31 19 68 29 111 29 56 0 100-20 131-60s47-97 47-170V0h-90v327c0 52-10 91-28 117-19 25-47 38-85 38-47 0-84-16-111-47s-40-73-40-126V0h-90v327c0 52-10 91-28 117-19 25-48 38-86 38-46 0-83-16-110-47s-40-73-40-126V0H91v547h90v-85c20 33 45 58 74 74 28 16 62 24 102 24s73-10 101-30 48-50 62-88z"/></symbol><symbol id="l"><path transform="matrix(.001 0 0 .001 -.055 .013)" d="M562 296v-44H149c4-62 22-110 56-142 33-32 79-48 139-48 34 0 68 4 100 12s65 21 97 39V28c-32-14-65-25-99-31s-69-10-103-10c-88 0-157 25-208 75S55 181 55 268c0 89 24 160 72 213 48 52 114 79 196 79 74 0 132-24 175-71 42-48 64-112 64-193zm-90 26c-1 49-15 88-41 118-27 29-63 44-107 44-50 0-90-15-120-43s-48-68-52-119h320z"/></symbol><symbol id="n"><path transform="matrix(.001 0 0 .001 -.086 .131)" d="M86 760h207v-70H176V-61h117v-70H86v891z"/></symbol><symbol id="o"><path transform="matrix(.001 0 0 .001 -.054 .013)" d="M443 531v-85c-26 12-52 22-79 29-28 6-56 10-85 10-45 0-79-7-101-21s-33-34-33-61c0-21 8-37 24-49s48-24 96-34l31-7c64-14 109-34 136-58 26-25 40-60 40-104 0-51-20-91-60-120-40-30-96-44-166-44-30 0-60 3-92 8S89 8 54 20v93c33-18 66-31 98-39 32-9 64-13 96-13 42 0 75 7 98 21 22 14 34 35 34 62 0 24-9 43-25 56s-52 26-108 38l-31 7c-56 12-97 30-121 54-25 24-37 57-37 100 0 51 18 91 54 119s88 42 156 42c33 0 64-3 94-8 29-5 56-12 81-21z"/></symbol><symbol id="p"><path transform="matrix(.001 0 0 .001 -.097 .131)" d="M304 760v-891H97v70h117v751H97v70h207z"/></symbol><use xlink:href="#i" transform="matrix(10 0 0 -10 152.757 295.25)"/><use xlink:href="#j" transform="matrix(10 0 0 -10 159.53 295.25)"/><use xlink:href="#k" transform="matrix(10 0 0 -10 162.28 295.25)"/><use xlink:href="#l" transform="matrix(10 0 0 -10 171.66 295.38)"/><use xlink:href="#m" transform="matrix(10 0 0 -10 177.26 295.25)"/><use xlink:href="#n" transform="matrix(10 0 0 -10 181.3 296.56)"/><use xlink:href="#o" transform="matrix(10 0 0 -10 184.88 295.38)"/><use xlink:href="#p" transform="matrix(10 0 0 -10 190.52 296.56)"/><path stroke-width=".8" stroke-linejoin="round" fill="none" stroke="#000" d="M40.104 240.47h-3.5"/><use xlink:href="#h" transform="matrix(10 0 0 -10 21.085 244.397)"/><use xlink:href="#b" transform="matrix(10 0 0 -10 27.405 244.397)"/><path stroke-width=".8" stroke-linejoin="round" fill="none" stroke="#000" d="M40.104 205.584h-3.5"/><symbol id="q"><path transform="translate(-.082) scale(.001)" d="M82 729h469v-42L286 0H183l249 646H82v83z"/></symbol><use xlink:href="#q" transform="matrix(10 0 0 -10 21.205 209.381)"/><use xlink:href="#b" transform="matrix(10 0 0 -10 27.405 209.511)"/><path stroke-width=".8" stroke-linejoin="round" fill="none" stroke="#000" d="M40.104 170.699h-3.5"/><symbol id="r"><path transform="matrix(.001 0 0 .001 -.068 .013)" d="M318 346c-47 0-84-13-111-38s-40-59-40-103 13-79 40-104 64-37 111-37c46 0 83 12 110 38 27 25 41 59 41 103s-14 78-40 103c-27 25-64 38-111 38zm-99 42c-42 10-75 30-99 59s-35 64-35 106c0 58 20 104 62 138 41 34 98 51 171 51 72 0 129-17 171-51 41-34 62-80 62-138 0-42-12-77-36-106s-56-49-98-59c47-11 84-33 111-65 26-32 40-72 40-118 0-71-22-125-65-162-44-38-106-56-186-56S175 5 132 43c-43 37-64 91-64 162 0 46 13 86 40 118 26 32 63 54 111 65zm-36 156c0-38 11-68 35-89s57-31 100-31c42 0 75 10 99 31s36 51 36 89-12 67-36 88-57 32-99 32c-43 0-76-11-100-32s-35-50-35-88z"/></symbol><use xlink:href="#r" transform="matrix(10 0 0 -10 21.065 174.626)"/><use xlink:href="#b" transform="matrix(10 0 0 -10 27.405 174.626)"/><path stroke-width=".8" stroke-linejoin="round" fill="none" stroke="#000" d="M40.104 135.814h-3.5"/><symbol id="s"><path transform="matrix(.001 0 0 .001 -.063 .013)" d="M110 15v90c24-12 49-21 75-27 25-6 50-9 75-9 64 0 114 21 148 65s54 110 60 200c-20-28-44-50-72-65-29-15-61-22-96-22-74 0-132 22-174 66S63 417 63 494c0 74 22 134 66 180 44 45 103 68 177 68 84 0 149-33 193-97 44-65 67-159 67-281 0-116-28-207-82-275C429 21 356-13 264-13c-25 0-50 3-75 7-26 4-52 11-79 21zm196 309c44 0 79 15 105 45s39 72 39 125c0 52-13 94-39 124s-61 46-105 46-79-16-105-46-39-72-39-124c0-53 13-95 39-125s61-45 105-45z"/></symbol><use xlink:href="#s" transform="matrix(10 0 0 -10 21.015 139.74)"/><use xlink:href="#b" transform="matrix(10 0 0 -10 27.405 139.74)"/><path stroke-width=".8" stroke-linejoin="round" fill="none" stroke="#000" d="M40.104 100.928h-3.5"/><use xlink:href="#c" transform="matrix(10 0 0 -10 15.126 104.725)"/><use xlink:href="#b" transform="matrix(10 0 0 -10 21.046 104.855)"/><use xlink:href="#b" transform="matrix(10 0 0 -10 27.406 104.855)"/><path stroke-width=".8" stroke-linejoin="round" fill="none" stroke="#000" d="M40.104 66.043h-3.5"/><use xlink:href="#c" transform="matrix(10 0 0 -10 15.126 69.84)"/><use xlink:href="#c" transform="matrix(10 0 0 -10 21.486 69.84)"/><use xlink:href="#b" transform="matrix(10 0 0 -10 27.406 69.97)"/><path stroke-width=".8" stroke-linejoin="round" fill="none" stroke="#000" d="M40.104 31.158h-3.5"/><use xlink:href="#c" transform="matrix(10 0 0 -10 15.126 34.955)"/><use xlink:href="#d" transform="matrix(10 0 0 -10 21.116 34.955)"/><use xlink:href="#b" transform="matrix(10 0 0 -10 27.406 35.084)"/><symbol id="t"><path transform="matrix(.001 0 0 .001 -.056 .013)" d="M394 662c-72 0-129-27-171-80-42-54-63-126-63-218s21-165 63-218c42-54 99-80 171-80 71 0 128 26 170 80 42 53 63 126 63 218s-21 164-63 218c-42 53-99 80-170 80zm0 80c102 0 183-35 245-103 61-68 92-160 92-275 0-116-31-207-92-275C577 21 496-13 394-13 291-13 209 21 148 89c-62 68-92 159-92 275 0 115 30 207 92 275 61 68 143 103 246 103z"/></symbol><symbol id="u"><path transform="translate(-.091) scale(.001)" d="M411 463c-10 6-21 10-33 13-12 2-25 4-39 4-51 0-90-17-117-50-28-33-41-80-41-142V0H91v547h90v-85c18 33 43 58 73 74s67 24 111 24c6 0 13-1 21-1 7-1 15-2 25-4v-92z"/></symbol><symbol id="v"><path transform="translate(-.027) scale(.001)" d="M183 702V547h185v-70H183V180c0-45 6-74 18-86 12-13 37-19 75-19h92V0h-92c-70 0-118 13-144 39s-39 73-39 141v297H27v70h66v155h90z"/></symbol><symbol id="w"><path transform="translate(-.091) scale(.001)" d="M549 330V0h-90v327c0 52-11 90-31 116s-50 39-90 39c-49 0-87-16-115-47s-42-73-42-126V0H91v547h90v-85c21 32 46 57 76 73 29 16 63 25 101 25 62 0 110-20 142-59s49-96 49-171z"/></symbol><symbol id="x"><path transform="matrix(.001 0 0 .001 -.06 .013)" d="M343 275c-73 0-123-9-151-25-28-17-42-45-42-85 0-32 10-58 31-76 21-19 50-28 86-28 50 0 90 17 120 53 30 35 45 82 45 141v20h-89zm179 37V0h-90v83c-21-34-47-58-77-73s-68-23-112-23c-56 0-101 15-134 46s-49 73-49 126c0 61 20 107 62 139 41 31 102 47 184 47h126v9c0 41-14 73-41 96-27 22-65 34-114 34-32 0-62-4-92-12s-58-19-85-33v83c32 12 64 22 95 28s61 10 91 10c79 0 138-21 177-62s59-103 59-186z"/></symbol><symbol id="y"><path transform="matrix(.001 0 0 .001 -.055 .013)" d="M306 484c-48 0-86-19-114-57s-42-89-42-154c0-66 13-117 41-155s66-56 115-56c48 0 86 18 114 56s42 89 42 155c0 64-14 116-42 154s-66 57-114 57zm0 76c78 0 139-26 184-76 44-51 67-121 67-211s-23-160-67-210c-45-51-106-76-184-76-79 0-141 25-185 76-44 50-66 120-66 210s22 160 66 211c44 50 106 76 185 76z"/></symbol><symbol id="z"><path transform="matrix(.001 0 0 .001 -.095 -.432)" d="M250 679c-26 0-48-9-66-27s-27-40-27-66 9-48 27-66 40-26 66-26 48 8 66 26 27 40 27 66-9 48-27 66-40 27-66 27zm0 63c20 0 40-4 60-12 19-8 36-20 50-34 14-15 25-32 33-50 8-19 12-39 12-60 0-44-16-80-46-110s-67-44-110-44c-44 0-81 14-110 44-30 29-44 66-44 110 0 43 15 80 45 110s66 46 110 46z"/></symbol><use xlink:href="#t" transform="matrix(0 -10 -10 0 8.078 171.571)"/><use xlink:href="#u" transform="matrix(0 -10 -10 0 7.948 163.351)"/><use xlink:href="#j" transform="matrix(0 -10 -10 0 7.948 159.211)"/><use xlink:href="#v" transform="matrix(0 -10 -10 0 7.948 157.101)"/><use xlink:href="#l" transform="matrix(0 -10 -10 0 8.078 152.901)"/><use xlink:href="#w" transform="matrix(0 -10 -10 0 7.948 146.391)"/><use xlink:href="#v" transform="matrix(0 -10 -10 0 7.948 140.691)"/><use xlink:href="#x" transform="matrix(0 -10 -10 0 8.078 136.441)"/><use xlink:href="#v" transform="matrix(0 -10 -10 0 7.948 130.641)"/><use xlink:href="#j" transform="matrix(0 -10 -10 0 7.948 126.051)"/><use xlink:href="#y" transform="matrix(0 -10 -10 0 8.078 123.661)"/><use xlink:href="#w" transform="matrix(0 -10 -10 0 7.948 117.181)"/><use xlink:href="#m" transform="matrix(0 -10 -10 0 7.948 111.751)"/><use xlink:href="#n" transform="matrix(0 -10 -10 0 9.258 107.711)"/><use xlink:href="#z" transform="matrix(0 -10 -10 0 3.628 103.721)"/><use xlink:href="#p" transform="matrix(0 -10 -10 0 9.258 98.701)"/><clipPath id="A"><path transform="matrix(1 0 0 -1 -63 305)" d="M103.104 38.016h266.112v266.112H103.104z"/></clipPath><g clip-path="url(#A)"><path stroke-width="2.5" stroke-linecap="square" stroke-linejoin="round" fill="none" stroke="teal" d="M52.2 135.81h.12l.264.604.074-.413.159.503.082-.196.085.14.074-.332.178.266.058-.295.066.262.07-.409.16.119.414-.474.059.004.271-.2.04.11.19-.294.054.206.186-.185.105-.083.248-.076.392-.241.066.095.078-.26.073.183.699-.538.143.09.113-.152.225-.14.058.008.09-.234.12.009.194-.292.295-.12.252-.283.163-.06.066.085.151-.213.16.016.224.023.117-.142.043.229.124-.143.05.08.555.107.144.154.295.087.085.075.093-.07.043.148.19-.067.054.147.082-.07.206.076.112.076.151.076.086-.07.054.145.179-.067.22.219.078.072.14-.139.17.145.164.002.229.145.174-.068.136.072.093.001.202.213.082-.069.24.282.078-.07.078.002.213.21h.128l.19.28.16.001 1.164.767h.089l.21.207 2.033 1.096.151.344.148.002.543.211.081-.138.113.207.039-.138h.151l.97-.075.05.206.07-.138.241.067.54-.003.232.204.078-.068.078.137.073-.069h.412l.07.137.073-.068.544.069.073.068.156-.068.228.068.846.003.09.137.077-.068 1.017-.073.26-.068 1.75-.068.086.137.155-.136.136.069.267-.138.132.07 2.34.057.454.15.086-.067.066.139.178-.205.144.07.295-.275.198.068.182-.206.392.07.078-.207.085.138.085-.069h.583l.046-.139.074.068.225-.07.155-.07.26.138.214-.138.632.002.05.137.094-.136.07.068.236-.068 4.102.066.245.068h.372l.082.137.24-.069h.148l.155.07.233.068.07-.07.244.138.155-.069h.307l.078.137.081-.069h.47l.019.137.093-.084.124.077.384.285.09-.138.093.14.093-.135.047.138.066-.135.228-.069.245-.069.299 4.205.116.274.113.743.233-.572.345-2.082.43-4.433.633-6.834.551-5.825.249-2.565.213-2.521 1.153-13.627.915-12.77.187-3.847.613-11.328.95-17.748.525-9.882.388-6.458.694-10.924.167-2.148.462-5.793.295-2.896.481-3.668.369-2.07.4-1.344.547-.882.31-.019.17.055.269.292.166.592 1.972 4.316.283 1.03.388 1.111.148.95.395 1.7 1.176 5.82.928 3.992.314.875.369.812.252.435.931 1.729.218.58.326.74.698 1.482.19.411 1.366 1.697 1.153.326.147.022.167-.037.303.073.081.116.163-.073.474.015.151.094.295-.072.117.115.197-.057 2.954-.036.225-.115.784-.08.112-.079.047.08.233.029.077-.102.062.08.09-.058.089.116.163-.116.097.094.116-.159.411.022.167-.022.272-.072.082.116.077-.174.074.138.081-.16.082.044.116-.102.043.08.508-.051.043.094.058-.138.245.066.147-.102.237.037.462-.116.267.007.117.036 4.024.081.245.08.244-.131.066.058.093-.16.167.174.136-.152.147-.095.152-.021.48-.16.067.116.396-.13.143.065.245-.094 1.94.007.074.138.182-.174.086.094.038-.036 1.234.015.082.108.163-.102.077.16.26-.058.198-.007.082-.117.17.044.11.08.03-.116.074.022.307-.036.411.044h.128l.477.131.163-.094.707.044.14.058.08-.022.121.138.043-.116.151.022.23.08.069-.116.082.138.089-.08.089.08.229-.058.21.08.081-.058.155.08.935.102.09.058.054-.095 1.09.037.179.124.078-.103.077.073.691-.212.093.066.136-.175.074.08.07-.072.248-.08.147.036.148-.08.081.066.225-.117.31-.022.711-.05.147.022.536-.072.09-.058.155.138.07-.102.166.044.233-.044.144.066.17.022.152-.058.613.023h.163l.341.044.043-.138.163.152.318-.044.148.022.081-.08.062.174.082-.058.081-.094.082.116h.26l.093.044.047-.182.05.102.415.102.05-.16.156.117.403.102.156-.058h.155l.733.044.031.102.078-.044.163.036.244-.007.086.116.14-.036.066.058.244-.088.198.153.043-.13.085.036.047.102.085-.102.085.13.156-.065.1.073.167-.095.303.066.136-.13.159.13.175.095.046-.087.085.058.156-.015.136.015.473-.183.17-.036.373-.088 1.327-.18.063.094.166-.066 1.168.029.132-.036.412-.139.136.08.407-.065.078.058.062-.153.085.139.086-.058.24-.037 1.929-.025.077.138.136-.116.183.058.143-.036.218.044 1.482.232.085-.138.175.139.28.028.24.13.07-.196.182.117.066-.037.07.103.097-.183.058.103.24-.059.078-.036.07.095.066-.073.082-.102.17.219.04-.08.042-.069.221.208.699.122.264-.16.135.058.466-.247.155.058.225-.051.09.102.345-.137.039.072.054-.116.086.116.415-.144h.248l.128-.008.23.036.077-.102.066.088.248-.16.233.08.054-.102.086.059 2.557.058.132.095.039-.08.085-.022.054.138.09-.072.337-.058.062.116.059-.102.174.08.093-.138.063.08.062.022.097-.116.054.138.116-.116.074.08 1.374.08.09.095.154-.022.21.028.233.044.124-.08.05.095h1.265l.055.138.07-.116.062.08.159-.036.105-.022.073.124.066-.058.066-.08.078.08.26.08.206-.116.081.102.078-.08.163.022.108.08.043-.08h.085l.222.138.24-.08.093.102.05-.058.497.087.214.015.237-.044.097.102.042-.152.078.094.229-.022.09.037.073-.139.12.175.043-.102.143.044.357-.073.043.117.066-.138.307.08 3.178-.109.252-.058.14.022.074-.022.124.102.035-.116.081.094h.175l.066.044.248-.124.058.095.094-.058.05-.044.097.16.233-.116.074.08.077-.102.225.19.074-.183.109.16.368-.138.148.058.105-.087.128.065.085.022.24-.174.148.16.151-.116h1.106l.059.116.081-.043.113.058.05-.139.066.08.307-.027.24.109.26.036.12.043.078-.102.113.095.046-.059.245.015.062-.14.081.045.435-.212.035.037.14-.066.333-.05.319-.11.617-.086.077-.058.144.08.159.044.078.014.077-.102.078.124.136-.094h.19l.372.058.14-.044 2.344.03.058.124.318-.139.56.008.077-.058.073.102.144-.058.233.066.326.015.213.022.24.094.152-.13.23.182.088-.124.202.066.027-.058.066.102.71.057.074-.072.07.138.09-.058.232-.036.105.102.136-.095.217.037h.163l.082-.073.333-5.303.124-.57.152.006.186.281 1.176 13.22.272 4.4.229 3.202 1.808 26.581 2.018 42.566.295 7.772.229 5.883.815 20.81.43 13.087.536 15.603 1.944 47.551.85 12.451.17 1.512.23 2.06.38 2.244.09-.082.061.22.09-.028.155-.11.264-.545.198-.814.108-.217.295-1.268 1.836-4.872.477-2.245.559-3.765.993-8.99.125-.667.182-2.386.151-1.481.563-5.419 1.54-13.42.268-1.418.21-1.275 1.075-4.597.376-.849.179-.315.186-.267.202-.425.155-.172.21-.298.66-.361.054.126h.174l.128.22.19.156.21.394 2.022 5.216.167.554.167.321.046-.017.23.46.314.422 2.01 3.827 1.245 2.67.16.22.628.92.14.08.314.359.09-.042.45.5.081-.02.64.5.222.102.345.28.047-.06.081.023.062.158.086-.037 1.796.943h.136l.167.102.136.057.954.335h.532l.086.159.07-.082.302.101.396.082.07-.1.244.122.233-.04.147.09.377.146.182-.004.074-.041.062.12.07-.062.229.08.167-.14.159.058.081-.242.07.121.078.059.318-.24.078.08.081-.119.062.08h.408l.07.041.089-.1.054.163.124-.16.059.121.066-.06.298.002.156-.02.232.042.486.101.57.136.136-.022.062.16.07-.06.791.12.21-.001.555.12.462.063.388.18.388.06.159.06.35.101.073.16.054-.081.47.24.151-.019.062.14h.175l.058.08.179-.04.232.14.14.06.256.101.055-.02.15.12 1.394.68.132-.16.124.2.284.04.651.26.152.06h.112l.04.14.069-.1.147.12h.194l.063.12.05-.06.085-.04.066.18.117-.06.046.101.086.04.105-.12.12.2.09-.1.147.08.147.06.233.08.396.1.225.06.229.08.081-.02.245.16.182.06.299.16.058-.1.233.22.062-.12.299.16.035-.08.058.119.47.1.186.018.046-.019.156.1.702.243.085-.041.152.182.073-.12.152.143.221.018.244.042.16.063.47.097.376.143.112-.143.058.06.148.06.085-.1.058.1.4.037.093.202.058-.142 1.083.482.163-.023.54.28.244-.184.136.142.411.078.221.1.086-.082.174.06.082.023.206.202.159-.036.764.494.097-.077.062.178.09-.035.143-.06.09.161.065-.042.439.06.046-.185.055.024.201.06.047-.12.21.228.174-.084.058.119.163-.042.082.018.078-.143.085.279.167-.16.07.135.066-.1.388.118.066.125.322.111.151.126.074-.084.178.262.09-.143.213.22.066-.06.17.06h.156l.066.16.085-.16.082.16.062-.16.081.177h.214l.174.16.152.034.081.1.194-.041.194.143.113-.026.24.22.152.075.345.255.171-.069.68.396.08-.043.249.176.543.192.64.492.125.059.151-.016.248.29h.156l.248.118h.058l.062.117.086-.058.167.074.275.204.097-.044.07.161.078-.043.089.102.077-.117.222.234.95.57.167-.073.21.379.155.145.144.088.089.03.07.203.085-.16.144.176.089-.117.16.263.069-.16.28.174.03-.116.074.16.113-.16.042.058.09.16.066-.204.093.073.136.16.05-.116.05.102.3.13.185.014.136.117.066.013.171.103h.058l.105.249.058-.103.38.246.082-.058.376.352.796.392.12-.045.264.385.078-.135.233.264.089-.148.217.334.124-.116.23.174.209.07.477.289.124.025.319.148 2.165 1.239"/></g><clipPath id="B"><path transform="matrix(1 0 0 -1 -63 305)" d="M103.104 38.016h266.112v266.112H103.104z"/></clipPath><g clip-path="url(#B)"><path stroke-width="2.5" stroke-dasharray="9.25,4" stroke-linejoin="round" fill="none" stroke="red" d="m52.2 137.804 12.154.126 11.603.044 17.02.054.129-96.405h113.676l.093 163.917 1.094 1.212 2.643 2.933.318.315.769.747 1.863 1.482.853.503 1.23.512 1.172.242 1.324.034 1.859-.21 3.197-.305 2.084.046 1.805.296.974.249 1.133.308 2.643.817.508.163 10.862 2.69 3.958.937 9.089 2.462 2.483.73 4.424 1.37 1.475.48 1.067.362 2.379.805.508.195.862.309 7.295 2.926 3.105 1.418 1.618.785 1.634.811 4.513 2.428.683.407.481.275 1.386.85 1.408.889.916.616 1.432.962.198.166"/></g><path stroke-width=".8" stroke-linecap="square" stroke-miterlimit="10" fill="none" stroke="#000" d="M40.104 266.984V.872M306.216 266.984V.872M40.104 266.984h266.112M40.104.872h266.112"/><path d="M47.104 261.984h153.36c1.333 0 2-.667 2-2V231.64c0-1.333-.667-2-2-2H47.103c-1.333 0-2 .667-2 2v28.344c0 1.333.667 2 2 2z" fill="#fff" fill-opacity=".8"/><path stroke-miterlimit="10" fill="none" stroke="#d5d6d5" stroke-opacity=".8" d="M47.104 261.984h153.36c1.333 0 2-.667 2-2V231.64c0-1.333-.667-2-2-2H47.103c-1.333 0-2 .667-2 2v28.344c0 1.333.667 2 2 2z"/><path stroke-width="2.5" stroke-linecap="square" stroke-linejoin="round" fill="none" stroke="teal" d="M49.104 237.734h20"/><symbol id="C"><path transform="matrix(.001 0 0 .001 -.056 .013)" d="M644 673V569c-34 30-69 53-107 69-38 15-77 23-119 23-84 0-148-26-192-77s-66-124-66-220 22-170 66-221 108-76 192-76c42 0 81 7 119 23 38 15 73 38 107 69V56c-35-24-72-41-110-52s-79-17-122-17C302-13 215 20 151 87S56 246 56 364c0 117 31 209 95 277 64 67 151 101 261 101 44 0 85-6 123-17 38-12 75-29 109-52z"/></symbol><symbol id="D"><path transform="matrix(.001 0 0 .001 -.085 .013)" d="M85 216v331h90V219c0-52 10-90 30-116s50-39 91-39c48 0 87 15 115 46s42 73 42 127v310h90V0h-90v84c-22-34-48-58-76-74-29-15-62-23-100-23-63 0-111 19-143 58-33 38-49 95-49 171zm226 344z"/></symbol><symbol id="E"><path transform="matrix(.001 0 0 .001 -.086 .131)" d="M310 759c-44-76-76-150-97-223-22-73-32-147-32-222 0-76 10-150 32-223 21-74 53-147 97-222h-78C183-54 146 20 122 94S86 241 86 314c0 72 12 145 36 219s60 149 110 226h78z"/></symbol><symbol id="F"><path transform="matrix(.001 0 0 .001 -.066 .013)" d="M535 705v-96c-38 18-73 31-106 40-34 8-66 13-96 13-54 0-96-11-125-31-29-21-43-51-43-89 0-32 9-57 29-73 19-17 56-30 110-40l60-12c73-14 127-39 162-74 35-36 53-83 53-142 0-71-24-124-71-160-48-36-117-54-208-54-35 0-72 4-111 11S110 16 69 32v102c40-23 79-40 117-51 38-12 76-17 114-17 56 0 99 11 130 33 30 22 46 53 46 95 0 36-11 64-33 84s-58 35-108 45l-60 12c-74 14-127 37-160 69-33 31-49 74-49 130 0 64 22 115 68 152 45 37 108 56 188 56 34 0 68-3 104-9 35-6 71-16 109-28z"/></symbol><symbol id="G"><path transform="matrix(.001 0 0 .001 -.08 .131)" d="M80 759h78c48-77 85-152 109-226s37-147 37-219c0-73-13-146-37-220S206-54 158-131H80c43 75 75 148 97 222 21 73 32 147 32 223 0 75-11 149-32 222-22 73-54 147-97 223z"/></symbol><use xlink:href="#C" transform="matrix(10 0 0 -10 77.664 241.364)"/><use xlink:href="#D" transform="matrix(10 0 0 -10 84.934 241.364)"/><use xlink:href="#u" transform="matrix(10 0 0 -10 91.334 241.234)"/><use xlink:href="#u" transform="matrix(10 0 0 -10 95.272 241.234)"/><use xlink:href="#l" transform="matrix(10 0 0 -10 98.803 241.364)"/><use xlink:href="#w" transform="matrix(10 0 0 -10 105.313 241.234)"/><use xlink:href="#v" transform="matrix(10 0 0 -10 111.013 241.234)"/><use xlink:href="#m" transform="matrix(10 0 0 -10 114.663 241.234)"/><use xlink:href="#y" transform="matrix(10 0 0 -10 118.393 241.364)"/><use xlink:href="#u" transform="matrix(10 0 0 -10 124.873 241.234)"/><use xlink:href="#j" transform="matrix(10 0 0 -10 129.013 241.234)"/><use xlink:href="#l" transform="matrix(10 0 0 -10 131.403 241.364)"/><use xlink:href="#w" transform="matrix(10 0 0 -10 137.913 241.234)"/><use xlink:href="#v" transform="matrix(10 0 0 -10 143.613 241.234)"/><use xlink:href="#x" transform="matrix(10 0 0 -10 147.863 241.364)"/><use xlink:href="#v" transform="matrix(10 0 0 -10 153.663 241.234)"/><use xlink:href="#j" transform="matrix(10 0 0 -10 158.253 241.234)"/><use xlink:href="#y" transform="matrix(10 0 0 -10 160.643 241.364)"/><use xlink:href="#w" transform="matrix(10 0 0 -10 167.123 241.234)"/><use xlink:href="#m" transform="matrix(10 0 0 -10 172.553 241.234)"/><use xlink:href="#E" transform="matrix(10 0 0 -10 176.593 242.544)"/><use xlink:href="#t" transform="matrix(10 0 0 -10 180.193 241.364)"/><use xlink:href="#F" transform="matrix(10 0 0 -10 188.163 241.364)"/><use xlink:href="#G" transform="matrix(10 0 0 -10 194.653 242.544)"/><path stroke-width="2.5" stroke-dasharray="9.25,4" stroke-linejoin="round" fill="none" stroke="red" d="M49.104 252.406h20"/><symbol id="H"><path transform="translate(-.098) scale(.001)" d="M197 648V81h119c100 0 174 22 221 68 46 46 70 118 70 216s-24 169-70 215c-47 45-121 68-221 68H197zm-99 81h203c141 0 245-30 311-88 66-59 99-151 99-276 0-126-34-218-100-277S441 0 301 0H98v729z"/></symbol><symbol id="I"><path transform="matrix(.001 0 0 .001 -.055 .013)" d="M454 464v296h90V0h-90v82c-19-33-43-57-72-72s-63-23-103-23c-66 0-120 26-162 78S55 187 55 273s20 155 62 208c42 52 96 79 162 79 40 0 74-8 103-24s53-40 72-72zM148 273c0-66 13-118 40-156s64-56 112-56 85 18 113 56c27 38 41 90 41 156s-14 117-41 155c-28 38-65 57-113 57s-85-19-112-57-40-89-40-155z"/></symbol><use xlink:href="#H" transform="matrix(10 0 0 -10 78.084 255.906)"/><use xlink:href="#l" transform="matrix(10 0 0 -10 85.354 256.036)"/><use xlink:href="#o" transform="matrix(10 0 0 -10 91.494 256.036)"/><use xlink:href="#j" transform="matrix(10 0 0 -10 97.104 255.906)"/><use xlink:href="#u" transform="matrix(10 0 0 -10 99.854 255.906)"/><use xlink:href="#l" transform="matrix(10 0 0 -10 103.385 256.036)"/><use xlink:href="#I" transform="matrix(10 0 0 -10 109.535 256.036)"/><use xlink:href="#m" transform="matrix(10 0 0 -10 115.335 255.906)"/><use xlink:href="#y" transform="matrix(10 0 0 -10 119.065 256.036)"/><use xlink:href="#u" transform="matrix(10 0 0 -10 125.545 255.906)"/><use xlink:href="#j" transform="matrix(10 0 0 -10 129.685 255.906)"/><use xlink:href="#l" transform="matrix(10 0 0 -10 132.075 256.036)"/><use xlink:href="#w" transform="matrix(10 0 0 -10 138.585 255.906)"/><use xlink:href="#v" transform="matrix(10 0 0 -10 144.285 255.906)"/><use xlink:href="#x" transform="matrix(10 0 0 -10 148.535 256.036)"/><use xlink:href="#v" transform="matrix(10 0 0 -10 154.335 255.906)"/><use xlink:href="#j" transform="matrix(10 0 0 -10 158.925 255.906)"/><use xlink:href="#y" transform="matrix(10 0 0 -10 161.315 256.036)"/><use xlink:href="#w" transform="matrix(10 0 0 -10 167.795 255.906)"/><use xlink:href="#m" transform="matrix(10 0 0 -10 173.225 255.906)"/><use xlink:href="#E" transform="matrix(10 0 0 -10 177.265 257.216)"/><use xlink:href="#t" transform="matrix(10 0 0 -10 180.865 256.036)"/><use xlink:href="#F" transform="matrix(10 0 0 -10 188.835 256.036)"/><use xlink:href="#G" transform="matrix(10 0 0 -10 195.325 257.216)"/></g></svg>