<svg width="460.8" height="345.6" xmlns="http://www.w3.org/2000/svg" xmlns:xlink="http://www.w3.org/1999/xlink">

 <symbol id="a">
  <path id="svg_1" d="m0.252,0.677c-0.051,0 -0.089,-0.025 -0.115,-0.075s-0.038,-0.125 -0.038,-0.225s0.012,-0.175 0.038,-0.225s0.064,-0.075 0.115,-0.075s0.089,0.025 0.115,0.075c0.025,0.05 0.038,0.125 0.038,0.225s-0.013,0.175 -0.038,0.225c-0.026,0.05 -0.064,0.075 -0.115,0.075zm0,0.078c0.081,0 0.143,-0.033 0.187,-0.097c0.043,-0.065 0.065,-0.159 0.065,-0.281c0,-0.123 -0.022,-0.217 -0.065,-0.281c-0.044,-0.064 -0.106,-0.096 -0.188,-0.096s-0.144,0.032 -0.187,0.096s-0.064,0.158 -0.064,0.281c0,0.122 0.021,0.216 0.064,0.281c0.043,0.064 0.106,0.097 0.188,0.097z"/>
 </symbol>
 <symbol id="b">
  <path id="svg_2" d="m124,83l161,0l0,556l-175,-35l0,90l174,35l99,0l0,-646l161,0l0,-83l-420,0l0,83z" transform="translate(-.11) scale(.001)"/>
 </symbol>
 <symbol id="c">
  <path id="svg_3" d="m192,83l344,0l0,-83l-463,0l0,83c37,38 88,90 153,156c64,65 105,107 122,126c32,35 54,65 66,90c12,24 19,49 19,73c0,38 -14,70 -41,94s-62,37 -106,37c-31,0 -64,-6 -98,-16c-34,-11 -71,-27 -110,-49l0,100c40,16 77,28 111,36s66,12 95,12c75,0 135,-19 180,-57s68,-88 68,-151c0,-30 -6,-59 -17,-85c-11,-27 -31,-59 -61,-95c-8,-10 -34,-37 -78,-82s-105,-108 -184,-189z" transform="translate(-.073) scale(.001)"/>
 </symbol>
 <symbol id="d">
  <path id="svg_4" d="m0.33,0.406c0.047,-0.01 0.084,-0.031 0.11,-0.063s0.04,-0.072 0.04,-0.118c0,-0.072 -0.025,-0.128 -0.074,-0.167c-0.05,-0.039 -0.12,-0.058 -0.211,-0.058c-0.031,0 -0.063,0.003 -0.095,0.009c-0.032,0.005 -0.066,0.014 -0.1,0.026l0,0.095c0.027,-0.016 0.057,-0.028 0.09,-0.036c0.032,-0.008 0.066,-0.012 0.102,-0.012c0.062,0 0.109,0.012 0.141,0.036s0.049,0.06 0.049,0.107c0,0.042 -0.015,0.076 -0.045,0.1s-0.072,0.037 -0.126,0.037l-0.085,0l0,0.081l0.089,0c0.048,0 0.085,0.009 0.111,0.029c0.026,0.019 0.039,0.047 0.039,0.084s-0.014,0.066 -0.04,0.086c-0.027,0.02 -0.065,0.03 -0.114,0.03c-0.027,0 -0.056,-0.003 -0.087,-0.009s-0.065,-0.015 -0.102,-0.027l0,0.088c0.037,0.01 0.072,0.018 0.105,0.023c0.032,0.005 0.063,0.008 0.093,0.008c0.074,0 0.133,-0.017 0.177,-0.051s0.066,-0.08 0.066,-0.138c0,-0.04 -0.012,-0.074 -0.035,-0.102s-0.056,-0.048 -0.098,-0.058z"/>
 </symbol>
 <symbol id="e">
  <path id="svg_5" d="m378,643l-249,-389l249,0l0,389zm-26,86l124,0l0,-475l104,0l0,-82l-104,0l0,-172l-98,0l0,172l-329,0l0,95l303,462z" transform="translate(-.049) scale(.001)"/>
 </symbol>
 <symbol id="f">
  <path id="svg_6" d="m0.031,0.742l0.387,0l0,-0.083l-0.297,0l0,-0.179c0.014,0.005 0.029,0.009 0.043,0.011s0.029,0.004 0.043,0.004c0.081,0 0.145,-0.023 0.193,-0.067c0.048,-0.045 0.072,-0.105 0.072,-0.181c0,-0.079 -0.025,-0.14 -0.074,-0.183s-0.118,-0.064 -0.206,-0.064c-0.031,0 -0.062,0.003 -0.094,0.007c-0.032,0.005 -0.064,0.012 -0.098,0.023l0,0.099c0.029,-0.016 0.059,-0.028 0.091,-0.036c0.031,-0.008 0.064,-0.011 0.099,-0.011c0.056,0 0.101,0.014 0.134,0.044c0.032,0.03 0.049,0.07 0.049,0.121c0,0.05 -0.017,0.09 -0.049,0.12c-0.033,0.03 -0.078,0.045 -0.134,0.045c-0.026,0 -0.053,-0.003 -0.079,-0.009s-0.053,-0.015 -0.08,-0.027l0,0.366z"/>
 </symbol>
 <symbol id="g">
  <path id="svg_7" d="m0.26,0.417c-0.044,0 -0.079,-0.016 -0.105,-0.046s-0.039,-0.072 -0.039,-0.124c0,-0.053 0.013,-0.095 0.039,-0.125s0.061,-0.045 0.105,-0.045s0.079,0.015 0.105,0.045s0.039,0.072 0.039,0.125c0,0.052 -0.013,0.094 -0.039,0.124s-0.061,0.046 -0.105,0.046zm0.196,0.309l0,-0.09c-0.025,0.012 -0.05,0.021 -0.075,0.027c-0.026,0.006 -0.051,0.009 -0.075,0.009c-0.066,0 -0.116,-0.022 -0.15,-0.066s-0.054,-0.111 -0.058,-0.199c0.019,0.028 0.043,0.05 0.072,0.065s0.061,0.023 0.096,0.023c0.073,0 0.131,-0.023 0.173,-0.067s0.064,-0.105 0.064,-0.181c0,-0.075 -0.023,-0.135 -0.067,-0.18s-0.103,-0.067 -0.176,-0.067c-0.084,0 -0.149,0.032 -0.193,0.096c-0.045,0.064 -0.067,0.158 -0.067,0.281c0,0.115 0.027,0.207 0.082,0.275c0.054,0.068 0.128,0.103 0.22,0.103c0.024,0 0.049,-0.003 0.075,-0.007c0.025,-0.005 0.051,-0.012 0.079,-0.022z"/>
 </symbol>
 <symbol id="h">
  <path id="svg_8" d="m-2,729l616,0l0,-83l-259,0l0,-646l-99,0l0,646l-258,0l0,83z" transform="translate(.002) scale(.001)"/>
 </symbol>
 <symbol id="i">
  <path id="svg_9" d="m94,547l90,0l0,-547l-90,0l0,547zm0,213l90,0l0,-114l-90,0l0,114z" transform="translate(-.094) scale(.001)"/>
 </symbol>
 <symbol id="j">
  <path id="svg_10" d="m520,442c22,40 49,69 80,89c31,19 68,29 111,29c56,0 100,-20 131,-60s47,-97 47,-170l0,-330l-90,0l0,327c0,52 -10,91 -28,117c-19,25 -47,38 -85,38c-47,0 -84,-16 -111,-47s-40,-73 -40,-126l0,-309l-90,0l0,327c0,52 -10,91 -28,117c-19,25 -48,38 -86,38c-46,0 -83,-16 -110,-47s-40,-73 -40,-126l0,-309l-90,0l0,547l90,0l0,-85c20,33 45,58 74,74c28,16 62,24 102,24s73,-10 101,-30s48,-50 62,-88z" transform="translate(-.091) scale(.001)"/>
 </symbol>
 <symbol id="k">
  <path id="svg_11" d="m0.507,0.309l0,-0.044l-0.413,0c0.004,-0.062 0.022,-0.11 0.056,-0.142c0.033,-0.032 0.079,-0.048 0.139,-0.048c0.034,0 0.068,0.004 0.1,0.012s0.065,0.021 0.097,0.039l0,-0.085c-0.032,-0.014 -0.065,-0.025 -0.099,-0.031s-0.069,-0.01 -0.103,-0.01c-0.088,0 -0.157,0.025 -0.208,0.075s-0.076,0.119 -0.076,0.206c0,0.089 0.024,0.16 0.072,0.213c0.048,0.052 0.114,0.079 0.196,0.079c0.074,0 0.132,-0.024 0.175,-0.071c0.042,-0.048 0.064,-0.112 0.064,-0.193zm-0.09,0.026c-0.001,0.049 -0.015,0.088 -0.041,0.118c-0.027,0.029 -0.063,0.044 -0.107,0.044c-0.05,0 -0.09,-0.015 -0.12,-0.043s-0.048,-0.068 -0.052,-0.119l0.32,0z"/>
 </symbol>
 <symbol id="m">
  <path id="svg_12" d="m0,0.891l0.207,0l0,-0.07l-0.117,0l0,-0.751l0.117,0l0,-0.07l-0.207,0l0,0.891z"/>
 </symbol>
 <symbol id="n">
  <path id="svg_13" d="m0.389,0.544l0,-0.085c-0.026,0.012 -0.052,0.022 -0.079,0.029c-0.028,0.006 -0.056,0.01 -0.085,0.01c-0.045,0 -0.079,-0.007 -0.101,-0.021s-0.033,-0.034 -0.033,-0.061c0,-0.021 0.008,-0.037 0.024,-0.049s0.048,-0.024 0.096,-0.034l0.031,-0.007c0.064,-0.014 0.109,-0.034 0.136,-0.058c0.026,-0.025 0.04,-0.06 0.04,-0.104c0,-0.051 -0.02,-0.091 -0.06,-0.12c-0.04,-0.03 -0.096,-0.044 -0.166,-0.044c-0.03,0 -0.06,0.003 -0.092,0.008s-0.065,0.013 -0.1,0.025l0,0.093c0.033,-0.018 0.066,-0.031 0.098,-0.039c0.032,-0.009 0.064,-0.013 0.096,-0.013c0.042,0 0.075,0.007 0.098,0.021c0.022,0.014 0.034,0.035 0.034,0.062c0,0.024 -0.009,0.043 -0.025,0.056s-0.052,0.026 -0.108,0.038l-0.031,0.007c-0.056,0.012 -0.097,0.03 -0.121,0.054c-0.025,0.024 -0.037,0.057 -0.037,0.1c0,0.051 0.018,0.091 0.054,0.119s0.088,0.042 0.156,0.042c0.033,0 0.064,-0.003 0.094,-0.008c0.029,-0.005 0.056,-0.012 0.081,-0.021z"/>
 </symbol>
 <symbol id="o">
  <path id="svg_14" d="m0.207,0.891l0,-0.891l-0.207,0l0,0.07l0.117,0l0,0.751l-0.117,0l0,0.07l0.207,0z"/>
 </symbol>
 <symbol id="p">
  <path id="svg_15" d="m82,729l469,0l0,-42l-265,-687l-103,0l249,646l-350,0l0,83z" transform="translate(-.082) scale(.001)"/>
 </symbol>
 <symbol id="q">
  <path id="svg_16" d="m0.25,0.359c-0.047,0 -0.084,-0.013 -0.111,-0.038s-0.04,-0.059 -0.04,-0.103s0.013,-0.079 0.04,-0.104s0.064,-0.037 0.111,-0.037c0.046,0 0.083,0.012 0.11,0.038c0.027,0.025 0.041,0.059 0.041,0.103s-0.014,0.078 -0.04,0.103c-0.027,0.025 -0.064,0.038 -0.111,0.038zm-0.099,0.042c-0.042,0.01 -0.075,0.03 -0.099,0.059s-0.035,0.064 -0.035,0.106c0,0.058 0.02,0.104 0.062,0.138c0.041,0.034 0.098,0.051 0.171,0.051c0.072,0 0.129,-0.017 0.171,-0.051c0.041,-0.034 0.062,-0.08 0.062,-0.138c0,-0.042 -0.012,-0.077 -0.036,-0.106s-0.056,-0.049 -0.098,-0.059c0.047,-0.011 0.084,-0.033 0.111,-0.065c0.026,-0.032 0.04,-0.072 0.04,-0.118c0,-0.071 -0.022,-0.125 -0.065,-0.162c-0.044,-0.038 -0.106,-0.056 -0.186,-0.056s-0.142,0.018 -0.185,0.056c-0.043,0.037 -0.064,0.091 -0.064,0.162c0,0.046 0.013,0.086 0.04,0.118c0.026,0.032 0.063,0.054 0.111,0.065zm-0.036,0.156c0,-0.038 0.011,-0.068 0.035,-0.089s0.057,-0.031 0.1,-0.031c0.042,0 0.075,0.01 0.099,0.031s0.036,0.051 0.036,0.089s-0.012,0.067 -0.036,0.088s-0.057,0.032 -0.099,0.032c-0.043,0 -0.076,-0.011 -0.1,-0.032s-0.035,-0.05 -0.035,-0.088z"/>
 </symbol>
 <symbol id="r">
  <path id="svg_17" d="m0.047,0.028l0,0.09c0.024,-0.012 0.049,-0.021 0.075,-0.027c0.025,-0.006 0.05,-0.009 0.075,-0.009c0.064,0 0.114,0.021 0.148,0.065s0.054,0.11 0.06,0.2c-0.02,-0.028 -0.044,-0.05 -0.072,-0.065c-0.029,-0.015 -0.061,-0.022 -0.096,-0.022c-0.074,0 -0.132,0.022 -0.174,0.066s-0.063,0.104 -0.063,0.181c0,0.074 0.022,0.134 0.066,0.18c0.044,0.045 0.103,0.068 0.177,0.068c0.084,0 0.149,-0.033 0.193,-0.097c0.044,-0.065 0.067,-0.159 0.067,-0.281c0,-0.116 -0.028,-0.207 -0.082,-0.275c-0.055,-0.068 -0.128,-0.102 -0.22,-0.102c-0.025,0 -0.05,0.003 -0.075,0.007c-0.026,0.004 -0.052,0.011 -0.079,0.021zm0.196,0.309c0.044,0 0.079,0.015 0.105,0.045s0.039,0.072 0.039,0.125c0,0.052 -0.013,0.094 -0.039,0.124s-0.061,0.046 -0.105,0.046s-0.079,-0.016 -0.105,-0.046s-0.039,-0.072 -0.039,-0.124c0,-0.053 0.013,-0.095 0.039,-0.125s0.061,-0.045 0.105,-0.045z"/>
 </symbol>
 <symbol id="s">
  <path id="svg_18" d="m0.338,0.675c-0.072,0 -0.129,-0.027 -0.171,-0.08c-0.042,-0.054 -0.063,-0.126 -0.063,-0.218s0.021,-0.165 0.063,-0.218c0.042,-0.054 0.099,-0.08 0.171,-0.08c0.071,0 0.128,0.026 0.17,0.08c0.042,0.053 0.063,0.126 0.063,0.218s-0.021,0.164 -0.063,0.218c-0.042,0.053 -0.099,0.08 -0.17,0.08zm0,0.08c0.102,0 0.183,-0.035 0.245,-0.103c0.061,-0.068 0.092,-0.16 0.092,-0.275c0,-0.116 -0.031,-0.207 -0.092,-0.275c-0.062,-0.068 -0.143,-0.102 -0.245,-0.102c-0.103,0 -0.185,0.034 -0.246,0.102c-0.062,0.068 -0.092,0.159 -0.092,0.275c0,0.115 0.03,0.207 0.092,0.275c0.061,0.068 0.143,0.103 0.246,0.103z"/>
 </symbol>
 <symbol id="t">
  <path id="svg_19" d="m411,463c-10,6 -21,10 -33,13c-12,2 -25,4 -39,4c-51,0 -90,-17 -117,-50c-28,-33 -41,-80 -41,-142l0,-288l-90,0l0,547l90,0l0,-85c18,33 43,58 73,74s67,24 111,24c6,0 13,-1 21,-1c7,-1 15,-2 25,-4l0,-92z" transform="translate(-.091) scale(.001)"/>
 </symbol>
 <symbol id="u">
  <path id="svg_20" d="m183,702l0,-155l185,0l0,-70l-185,0l0,-297c0,-45 6,-74 18,-86c12,-13 37,-19 75,-19l92,0l0,-75l-92,0c-70,0 -118,13 -144,39s-39,73 -39,141l0,297l-66,0l0,70l66,0l0,155l90,0z" transform="translate(-.027) scale(.001)"/>
 </symbol>
 <symbol id="v">
  <path id="svg_21" d="m549,330l0,-330l-90,0l0,327c0,52 -11,90 -31,116s-50,39 -90,39c-49,0 -87,-16 -115,-47s-42,-73 -42,-126l0,-309l-90,0l0,547l90,0l0,-85c21,32 46,57 76,73c29,16 63,25 101,25c62,0 110,-20 142,-59s49,-96 49,-171z" transform="translate(-.091) scale(.001)"/>
 </symbol>
 <symbol id="w">
  <path id="svg_22" d="m0.283,0.288c-0.073,0 -0.123,-0.009 -0.151,-0.025c-0.028,-0.017 -0.042,-0.045 -0.042,-0.085c0,-0.032 0.01,-0.058 0.031,-0.076c0.021,-0.019 0.05,-0.028 0.086,-0.028c0.05,0 0.09,0.017 0.12,0.053c0.03,0.035 0.045,0.082 0.045,0.141l0,0.02l-0.089,0zm0.179,0.037l0,-0.312l-0.09,0l0,0.083c-0.021,-0.034 -0.047,-0.058 -0.077,-0.073s-0.068,-0.023 -0.112,-0.023c-0.056,0 -0.101,0.015 -0.134,0.046s-0.049,0.073 -0.049,0.126c0,0.061 0.02,0.107 0.062,0.139c0.041,0.031 0.102,0.047 0.184,0.047l0.126,0l0,0.009c0,0.041 -0.014,0.073 -0.041,0.096c-0.027,0.022 -0.065,0.034 -0.114,0.034c-0.032,0 -0.062,-0.004 -0.092,-0.012s-0.058,-0.019 -0.085,-0.033l0,0.083c0.032,0.012 0.064,0.022 0.095,0.028s0.061,0.01 0.091,0.01c0.079,0 0.138,-0.021 0.177,-0.062s0.059,-0.103 0.059,-0.186z"/>
 </symbol>
 <symbol id="x">
  <path id="svg_23" d="m0.251,0.497c-0.048,0 -0.086,-0.019 -0.114,-0.057s-0.042,-0.089 -0.042,-0.154c0,-0.066 0.013,-0.117 0.041,-0.155s0.066,-0.056 0.115,-0.056c0.048,0 0.086,0.018 0.114,0.056s0.042,0.089 0.042,0.155c0,0.064 -0.014,0.116 -0.042,0.154s-0.066,0.057 -0.114,0.057zm0,0.076c0.078,0 0.139,-0.026 0.184,-0.076c0.044,-0.051 0.067,-0.121 0.067,-0.211s-0.023,-0.16 -0.067,-0.21c-0.045,-0.051 -0.106,-0.076 -0.184,-0.076c-0.079,0 -0.141,0.025 -0.185,0.076c-0.044,0.05 -0.066,0.12 -0.066,0.21s0.022,0.16 0.066,0.211c0.044,0.05 0.106,0.076 0.185,0.076z"/>
 </symbol>
 <symbol id="y">
  <path id="svg_24" d="m0.155,0.247c-0.026,0 -0.048,-0.009 -0.066,-0.027s-0.027,-0.04 -0.027,-0.066s0.009,-0.048 0.027,-0.066s0.04,-0.026 0.066,-0.026s0.048,0.008 0.066,0.026s0.027,0.04 0.027,0.066s-0.009,0.048 -0.027,0.066s-0.04,0.027 -0.066,0.027zm0,0.063c0.02,0 0.04,-0.004 0.06,-0.012c0.019,-0.008 0.036,-0.02 0.05,-0.034c0.014,-0.015 0.025,-0.032 0.033,-0.05c0.008,-0.019 0.012,-0.039 0.012,-0.06c0,-0.044 -0.016,-0.08 -0.046,-0.11s-0.067,-0.044 -0.11,-0.044c-0.044,0 -0.081,0.014 -0.11,0.044c-0.03,0.029 -0.044,0.066 -0.044,0.11c0,0.043 0.015,0.08 0.045,0.11s0.066,0.046 0.11,0.046z"/>
 </symbol>
 <clipPath id="z">
  <path id="svg_25" d="m103.104,307.58401l266.112,0l0,-266.112l-266.112,0l0,266.112z"/>
 </clipPath>
 <clipPath id="A">
  <path id="svg_26" d="m103.104,307.58401l266.112,0l0,-266.112l-266.112,0l0,266.112z"/>
 </clipPath>
 <symbol id="B">
  <path id="svg_27" d="m0.588,0.686l0,-0.104c-0.034,0.03 -0.069,0.053 -0.107,0.069c-0.038,0.015 -0.077,0.023 -0.119,0.023c-0.084,0 -0.148,-0.026 -0.192,-0.077s-0.066,-0.124 -0.066,-0.22s0.022,-0.17 0.066,-0.221s0.108,-0.076 0.192,-0.076c0.042,0 0.081,0.007 0.119,0.023c0.038,0.015 0.073,0.038 0.107,0.069l0,-0.103c-0.035,-0.024 -0.072,-0.041 -0.11,-0.052s-0.079,-0.017 -0.122,-0.017c-0.11,0 -0.197,0.033 -0.261,0.1s-0.095,0.159 -0.095,0.277c0,0.117 0.031,0.209 0.095,0.277c0.064,0.067 0.151,0.101 0.261,0.101c0.044,0 0.085,-0.006 0.123,-0.017c0.038,-0.012 0.075,-0.029 0.109,-0.052z"/>
 </symbol>
 <symbol id="C">
  <path id="svg_28" d="m0,0.229l0,0.331l0.09,0l0,-0.328c0,-0.052 0.01,-0.09 0.03,-0.116s0.05,-0.039 0.091,-0.039c0.048,0 0.087,0.015 0.115,0.046s0.042,0.073 0.042,0.127l0,0.31l0.09,0l0,-0.547l-0.09,0l0,0.084c-0.022,-0.034 -0.048,-0.058 -0.076,-0.074c-0.029,-0.015 -0.062,-0.023 -0.1,-0.023c-0.063,0 -0.111,0.019 -0.143,0.058c-0.033,0.038 -0.049,0.095 -0.049,0.171zm0.226,0.344z"/>
 </symbol>
 <symbol id="D">
  <path id="svg_29" d="m0.224,0.89c-0.044,-0.076 -0.076,-0.15 -0.097,-0.223c-0.022,-0.073 -0.032,-0.147 -0.032,-0.222c0,-0.076 0.01,-0.15 0.032,-0.223c0.021,-0.074 0.053,-0.147 0.097,-0.222l-0.078,0c-0.049,0.077 -0.086,0.151 -0.11,0.225s-0.036,0.147 -0.036,0.22c0,0.072 0.012,0.145 0.036,0.219s0.06,0.149 0.11,0.226l0.078,0z"/>
 </symbol>
 <symbol id="E">
  <path id="svg_30" d="m0.469,0.718l0,-0.096c-0.038,0.018 -0.073,0.031 -0.106,0.04c-0.034,0.008 -0.066,0.013 -0.096,0.013c-0.054,0 -0.096,-0.011 -0.125,-0.031c-0.029,-0.021 -0.043,-0.051 -0.043,-0.089c0,-0.032 0.009,-0.057 0.029,-0.073c0.019,-0.017 0.056,-0.03 0.11,-0.04l0.06,-0.012c0.073,-0.014 0.127,-0.039 0.162,-0.074c0.035,-0.036 0.053,-0.083 0.053,-0.142c0,-0.071 -0.024,-0.124 -0.071,-0.16c-0.048,-0.036 -0.117,-0.054 -0.208,-0.054c-0.035,0 -0.072,0.004 -0.111,0.011s-0.079,0.018 -0.12,0.034l0,0.102c0.04,-0.023 0.079,-0.04 0.117,-0.051c0.038,-0.012 0.076,-0.017 0.114,-0.017c0.056,0 0.099,0.011 0.13,0.033c0.03,0.022 0.046,0.053 0.046,0.095c0,0.036 -0.011,0.064 -0.033,0.084s-0.058,0.035 -0.108,0.045l-0.06,0.012c-0.074,0.014 -0.127,0.037 -0.16,0.069c-0.033,0.031 -0.049,0.074 -0.049,0.13c0,0.064 0.022,0.115 0.068,0.152c0.045,0.037 0.108,0.056 0.188,0.056c0.034,0 0.068,-0.003 0.104,-0.009c0.035,-0.006 0.071,-0.016 0.109,-0.028z"/>
 </symbol>
 <symbol id="F">
  <path id="svg_31" d="m0,0.89l0.078,0c0.048,-0.077 0.085,-0.152 0.109,-0.226s0.037,-0.147 0.037,-0.219c0,-0.073 -0.013,-0.146 -0.037,-0.22s-0.061,-0.148 -0.109,-0.225l-0.078,0c0.043,0.075 0.075,0.148 0.097,0.222c0.021,0.073 0.032,0.147 0.032,0.223c0,0.075 -0.011,0.149 -0.032,0.222c-0.022,0.073 -0.054,0.147 -0.097,0.223z"/>
 </symbol>
 <symbol id="G">
  <path id="svg_32" d="m197,648l0,-567l119,0c100,0 174,22 221,68c46,46 70,118 70,216s-24,169 -70,215c-47,45 -121,68 -221,68l-119,0zm-99,81l203,0c141,0 245,-30 311,-88c66,-59 99,-151 99,-276c0,-126 -34,-218 -100,-277s-170,-88 -310,-88l-203,0l0,729z" transform="translate(-.098) scale(.001)"/>
 </symbol>
 <symbol id="H">
  <path id="svg_33" d="m0.399,0.477l0,0.296l0.09,0l0,-0.76l-0.09,0l0,0.082c-0.019,-0.033 -0.043,-0.057 -0.072,-0.072s-0.063,-0.023 -0.103,-0.023c-0.066,0 -0.12,0.026 -0.162,0.078s-0.062,0.122 -0.062,0.208s0.02,0.155 0.062,0.208c0.042,0.052 0.096,0.079 0.162,0.079c0.04,0 0.074,-0.008 0.103,-0.024s0.053,-0.04 0.072,-0.072zm-0.306,-0.191c0,-0.066 0.013,-0.118 0.04,-0.156s0.064,-0.056 0.112,-0.056s0.085,0.018 0.113,0.056c0.027,0.038 0.041,0.09 0.041,0.156s-0.014,0.117 -0.041,0.155c-0.028,0.038 -0.065,0.057 -0.113,0.057s-0.085,-0.019 -0.112,-0.057s-0.04,-0.089 -0.04,-0.155z"/>
 </symbol>
 <g>
  <title>Layer 1</title>
  <path id="svg_34" fill="#fff" d="m0,345.6l460.8,0l0,-345.6l-460.8,0l0,345.6z"/>
  <path id="svg_35" fill="#fff" d="m103.104,307.584l266.112,0l0,-266.112l-266.112,0l0,266.112z"/>
  <path id="svg_36" d="m114.013,307.584l0,3.5" stroke="#000" fill="none" stroke-linejoin="round" stroke-width="0.8"/>
  <use id="svg_37" transform="matrix(10 0 0 -10 111.493 322.308)" xlink:href="#a"/>
  <path id="svg_38" d="m152.82,307.584l0,3.5" stroke="#000" fill="none" stroke-linejoin="round" stroke-width="0.8"/>
  <use id="svg_39" transform="matrix(10 0 0 -10 147.56 322.178)" xlink:href="#b"/>
  <use id="svg_40" transform="matrix(10 0 0 -10 153.48 322.308)" xlink:href="#a"/>
  <path id="svg_41" d="m191.626,307.584l0,3.5" stroke="#000" fill="none" stroke-linejoin="round" stroke-width="0.8"/>
  <use id="svg_42" transform="matrix(10 0 0 -10 185.996 322.178)" xlink:href="#c"/>
  <use id="svg_43" transform="matrix(10 0 0 -10 192.286 322.308)" xlink:href="#a"/>
  <path id="svg_44" d="m230.432,307.584l0,3.5" stroke="#000" fill="none" stroke-linejoin="round" stroke-width="0.8"/>
  <use id="svg_45" transform="matrix(10 0 0 -10 224.833 322.308)" xlink:href="#d"/>
  <use id="svg_46" transform="matrix(10 0 0 -10 231.093 322.308)" xlink:href="#a"/>
  <path id="svg_47" d="m269.239,307.584l0,3.5" stroke="#000" fill="none" stroke-linejoin="round" stroke-width="0.8"/>
  <use id="svg_48" transform="matrix(10 0 0 -10 263.37 322.178)" xlink:href="#e"/>
  <use id="svg_49" transform="matrix(10 0 0 -10 269.9 322.308)" xlink:href="#a"/>
  <path id="svg_50" d="m308.045,307.584l0,3.5" stroke="#000" fill="none" stroke-linejoin="round" stroke-width="0.8"/>
  <use id="svg_51" transform="matrix(10 0 0 -10 302.456 322.308)" xlink:href="#f"/>
  <use id="svg_52" transform="matrix(10 0 0 -10 308.706 322.308)" xlink:href="#a"/>
  <path id="svg_53" d="m346.852,307.584l0,3.5" stroke="#000" fill="none" stroke-linejoin="round" stroke-width="0.8"/>
  <use id="svg_54" transform="matrix(10 0 0 -10 341.192 322.308)" xlink:href="#g"/>
  <use id="svg_55" transform="matrix(10 0 0 -10 347.512 322.308)" xlink:href="#a"/>
  <use id="svg_56" transform="matrix(10 0 0 -10 215.757 335.85)" xlink:href="#h"/>
  <use id="svg_57" transform="matrix(10 0 0 -10 222.53 335.85)" xlink:href="#i"/>
  <use id="svg_58" transform="matrix(10 0 0 -10 225.28 335.85)" xlink:href="#j"/>
  <use id="svg_59" transform="matrix(10 0 0 -10 234.66 335.98)" xlink:href="#k"/>
  <use id="svg_60" transform="matrix(10 0 0 -10 240.26 335.85)" xlink:href="#l"/>
  <use id="svg_61" transform="matrix(10 0 0 -10 244.3 337.16)" xlink:href="#m"/>
  <use id="svg_62" transform="matrix(10 0 0 -10 247.88 335.98)" xlink:href="#n"/>
  <use id="svg_63" transform="matrix(10 0 0 -10 253.52 337.16)" xlink:href="#o"/>
  <path id="svg_64" d="m103.104,281.07l-3.5,0" stroke="#000" fill="none" stroke-linejoin="round" stroke-width="0.8"/>
  <use id="svg_65" transform="matrix(10 0 0 -10 84.085 284.997)" xlink:href="#g"/>
  <use id="svg_66" transform="matrix(10 0 0 -10 90.405 284.997)" xlink:href="#a"/>
  <path id="svg_67" d="m103.104,246.184l-3.5,0" stroke="#000" fill="none" stroke-linejoin="round" stroke-width="0.8"/>
  <use id="svg_68" transform="matrix(10 0 0 -10 84.205 249.981)" xlink:href="#p"/>
  <use id="svg_69" transform="matrix(10 0 0 -10 90.405 250.111)" xlink:href="#a"/>
  <path id="svg_70" d="m103.104,211.299l-3.5,0" stroke="#000" fill="none" stroke-linejoin="round" stroke-width="0.8"/>
  <use id="svg_71" transform="matrix(10 0 0 -10 84.065 215.226)" xlink:href="#q"/>
  <use id="svg_72" transform="matrix(10 0 0 -10 90.405 215.226)" xlink:href="#a"/>
  <path id="svg_73" d="m103.104,176.414l-3.5,0" stroke="#000" fill="none" stroke-linejoin="round" stroke-width="0.8"/>
  <use id="svg_74" transform="matrix(10 0 0 -10 84.015 180.34)" xlink:href="#r"/>
  <use id="svg_75" transform="matrix(10 0 0 -10 90.405 180.34)" xlink:href="#a"/>
  <path id="svg_76" d="m103.104,141.528l-3.5,0" stroke="#000" fill="none" stroke-linejoin="round" stroke-width="0.8"/>
  <use id="svg_77" transform="matrix(10 0 0 -10 78.126 145.325)" xlink:href="#b"/>
  <use id="svg_78" transform="matrix(10 0 0 -10 84.046 145.455)" xlink:href="#a"/>
  <use id="svg_79" transform="matrix(10 0 0 -10 90.406 145.455)" xlink:href="#a"/>
  <path id="svg_80" d="m103.104,106.643l-3.5,0" stroke="#000" fill="none" stroke-linejoin="round" stroke-width="0.8"/>
  <use id="svg_81" transform="matrix(10 0 0 -10 78.126 110.44)" xlink:href="#b"/>
  <use id="svg_82" transform="matrix(10 0 0 -10 84.486 110.44)" xlink:href="#b"/>
  <use id="svg_83" transform="matrix(10 0 0 -10 90.406 110.57)" xlink:href="#a"/>
  <path id="svg_84" d="m103.104,71.758l-3.5,0" stroke="#000" fill="none" stroke-linejoin="round" stroke-width="0.8"/>
  <use id="svg_85" transform="matrix(10 0 0 -10 78.126 75.555)" xlink:href="#b"/>
  <use id="svg_86" transform="matrix(10 0 0 -10 84.116 75.555)" xlink:href="#c"/>
  <use id="svg_87" transform="matrix(10 0 0 -10 90.406 75.684)" xlink:href="#a"/>
  <use x="0.4499" y="0.02045" id="svg_88" transform="matrix(0 -10 -10 0 71.078 212.171)" xlink:href="#s"/>
  <use x="0.4499" y="0.02045" id="svg_89" transform="matrix(0 -10 -10 0 70.948 203.951)" xlink:href="#t"/>
  <use x="0.4499" y="0.02045" id="svg_90" transform="matrix(0 -10 -10 0 70.948 199.811)" xlink:href="#i"/>
  <use id="svg_92" transform="matrix(0 -10 -10 0 71.078 193.501)" xlink:href="#k"/>
  <use id="svg_93" transform="matrix(0 -10 -10 0 70.948 186.991)" xlink:href="#v"/>
  <use id="svg_94" transform="matrix(0 -10 -10 0 70.948 181.291)" xlink:href="#u"/>
  <use id="svg_95" transform="matrix(0 -10 -10 0 71.078 177.041)" xlink:href="#w"/>
  <use id="svg_96" transform="matrix(0 -10 -10 0 70.948 171.241)" xlink:href="#u"/>
  <use id="svg_97" transform="matrix(0 -10 -10 0 70.948 166.651)" xlink:href="#i"/>
  <use id="svg_98" transform="matrix(0 -10 -10 0 71.078 164.261)" xlink:href="#x"/>
  <use id="svg_99" transform="matrix(0 -10 -10 0 70.948 157.781)" xlink:href="#v"/>
  <use id="svg_100" transform="matrix(0 -10 -10 0 70.948 152.351)" xlink:href="#l"/>
  <use id="svg_101" transform="matrix(0 -10 -10 0 72.258 148.311)" xlink:href="#m"/>
  <use id="svg_102" transform="matrix(0 -10 -10 0 66.628 144.321)" xlink:href="#y"/>
  <use id="svg_103" transform="matrix(0 -10 -10 0 72.258 139.301)" xlink:href="#o"/>
  <g id="svg_104" clip-path="url(#z)">
   <path id="svg_105" d="m115.2,176.41l0.12,0l0.264,0.604l0.074,-0.413l0.159,0.503l0.082,-0.196l0.085,0.14l0.074,-0.332l0.178,0.266l0.058,-0.295l0.066,0.262l0.07,-0.409l0.16,0.119l0.414,-0.474l0.059,0.004l0.271,-0.2l0.04,0.11l0.19,-0.294l0.054,0.206l0.186,-0.185l0.105,-0.083l0.248,-0.076l0.392,-0.241l0.066,0.095l0.078,-0.26l0.073,0.183l0.699,-0.538l0.143,0.09l0.113,-0.152l0.225,-0.14l0.058,0.008l0.09,-0.234l0.12,0.009l0.194,-0.292l0.295,-0.12l0.252,-0.283l0.163,-0.06l0.066,0.085l0.151,-0.213l0.16,0.016l0.224,0.023l0.117,-0.142l0.043,0.229l0.124,-0.143l0.05,0.08l0.555,0.107l0.144,0.154l0.295,0.087l0.085,0.075l0.093,-0.07l0.043,0.148l0.19,-0.067l0.054,0.147l0.082,-0.07l0.206,0.076l0.112,0.076l0.151,0.076l0.086,-0.07l0.054,0.145l0.179,-0.067l0.22,0.219l0.078,0.072l0.14,-0.139l0.17,0.145l0.164,0.002l0.229,0.145l0.174,-0.068l0.136,0.072l0.093,0.001l0.202,0.213l0.082,-0.069l0.24,0.282l0.078,-0.07l0.078,0.002l0.213,0.21l0.128,0l0.19,0.28l0.16,0.001l1.164,0.767l0.089,0l0.21,0.207l2.033,1.096l0.151,0.344l0.148,0.002l0.543,0.211l0.081,-0.138l0.113,0.207l0.039,-0.138l0.151,0l0.97,-0.075l0.05,0.206l0.07,-0.138l0.241,0.067l0.54,-0.003l0.232,0.204l0.078,-0.067l0.078,0.136l0.073,-0.069l0.412,0l0.07,0.137l0.073,-0.068l0.544,0.069l0.073,0.068l0.156,-0.068l0.228,0.068l0.846,0.003l0.09,0.137l0.077,-0.068l1.017,-0.073l0.26,-0.068l1.75,-0.068l0.086,0.137l0.155,-0.136l0.136,0.069l0.267,-0.138l0.132,0.07l2.34,0.057l0.454,0.15l0.086,-0.067l0.066,0.139l0.178,-0.205l0.144,0.07l0.295,-0.275l0.198,0.068l0.182,-0.206l0.392,0.07l0.078,-0.207l0.085,0.138l0.085,-0.069l0.583,0l0.046,-0.139l0.074,0.068l0.225,-0.07l0.155,-0.07l0.26,0.138l0.214,-0.138l0.632,0.002l0.05,0.137l0.094,-0.136l0.07,0.068l0.236,-0.068l4.102,0.066l0.245,0.068l0.372,0l0.082,0.137l0.24,-0.069l0.148,0l0.155,0.07l0.233,0.068l0.07,-0.07l0.244,0.138l0.155,-0.069l0.307,0l0.078,0.137l0.081,-0.069l0.47,0l0.019,0.137l0.093,-0.084l0.124,0.077l0.384,0.285l0.09,-0.138l0.093,0.14l0.093,-0.135l0.047,0.138l0.066,-0.135l0.228,-0.069l0.245,-0.069l0.299,4.205l0.116,0.274l0.113,0.743l0.233,-0.572l0.345,-2.082l0.43,-4.433l0.633,-6.834l0.551,-5.825l0.249,-2.565l0.213,-2.521l1.153,-13.627l0.915,-12.77l0.187,-3.847l0.613,-11.328l0.95,-17.748l0.525,-9.882l0.388,-6.458l0.694,-10.924l0.167,-2.148l0.462,-5.793l0.295,-2.896l0.481,-3.668l0.369,-2.07l0.4,-1.344l0.547,-0.882l0.31,-0.019l0.17,0.055l0.269,0.292l0.166,0.592l1.972,4.316l0.283,1.03l0.388,1.111l0.148,0.95l0.395,1.7l1.176,5.82l0.928,3.992l0.314,0.875l0.369,0.812l0.252,0.435l0.931,1.729l0.218,0.58l0.326,0.74l0.698,1.482l0.19,0.411l1.366,1.697l1.153,0.326l0.147,0.022l0.167,-0.037l0.303,0.073l0.081,0.116l0.163,-0.073l0.474,0.015l0.151,0.094l0.295,-0.072l0.117,0.115l0.197,-0.057l2.954,-0.036l0.225,-0.115l0.784,-0.08l0.112,-0.079l0.047,0.08l0.233,0.029l0.077,-0.102l0.062,0.08l0.09,-0.058l0.089,0.116l0.163,-0.116l0.097,0.094l0.116,-0.159l0.411,0.022l0.167,-0.022l0.272,-0.072l0.082,0.116l0.077,-0.174l0.074,0.138l0.081,-0.16l0.082,0.044l0.116,-0.102l0.043,0.08l0.508,-0.051l0.043,0.094l0.058,-0.138l0.245,0.066l0.147,-0.102l0.237,0.037l0.462,-0.116l0.267,0.007l0.117,0.036l4.024,0.081l0.245,0.08l0.244,-0.131l0.066,0.058l0.093,-0.16l0.167,0.174l0.136,-0.152l0.147,-0.095l0.152,-0.021l0.48,-0.16l0.067,0.116l0.396,-0.13l0.143,0.065l0.245,-0.094l1.94,0.007l0.074,0.138l0.182,-0.174l0.086,0.094l0.038,-0.036l1.234,0.015l0.082,0.108l0.163,-0.102l0.077,0.16l0.26,-0.058l0.198,-0.007l0.082,-0.117l0.17,0.044l0.11,0.08l0.03,-0.116l0.074,0.022l0.307,-0.036l0.411,0.044l0.128,0l0.477,0.131l0.163,-0.094l0.707,0.044l0.14,0.058l0.08,-0.022l0.121,0.138l0.043,-0.116l0.151,0.022l0.23,0.08l0.069,-0.116l0.082,0.138l0.089,-0.08l0.089,0.08l0.229,-0.058l0.21,0.08l0.081,-0.058l0.155,0.08l0.935,0.102l0.09,0.058l0.054,-0.095l1.09,0.037l0.179,0.124l0.078,-0.103l0.077,0.073l0.691,-0.212l0.093,0.066l0.136,-0.175l0.074,0.08l0.07,-0.072l0.248,-0.08l0.147,0.036l0.148,-0.08l0.081,0.066l0.225,-0.117l0.31,-0.022l0.711,-0.05l0.147,0.022l0.536,-0.072l0.09,-0.058l0.155,0.138l0.07,-0.102l0.166,0.044l0.233,-0.044l0.144,0.066l0.17,0.022l0.152,-0.058l0.613,0.023l0.163,0l0.341,0.044l0.043,-0.138l0.163,0.152l0.318,-0.044l0.148,0.022l0.081,-0.08l0.062,0.174l0.082,-0.058l0.081,-0.094l0.082,0.116l0.26,0l0.093,0.044l0.047,-0.182l0.05,0.102l0.415,0.102l0.05,-0.16l0.156,0.117l0.403,0.102l0.156,-0.058l0.155,0l0.733,0.044l0.031,0.102l0.078,-0.044l0.163,0.036l0.244,-0.007l0.086,0.116l0.14,-0.036l0.066,0.058l0.244,-0.088l0.198,0.153l0.043,-0.13l0.085,0.036l0.047,0.102l0.085,-0.102l0.085,0.13l0.156,-0.065l0.1,0.073l0.167,-0.095l0.303,0.066l0.136,-0.13l0.159,0.13l0.175,0.095l0.046,-0.087l0.085,0.058l0.156,-0.015l0.136,0.015l0.473,-0.183l0.17,-0.036l0.373,-0.088l1.327,-0.18l0.063,0.094l0.166,-0.066l1.168,0.029l0.132,-0.036l0.412,-0.139l0.136,0.08l0.407,-0.065l0.078,0.058l0.062,-0.153l0.085,0.139l0.086,-0.058l0.24,-0.037l1.929,-0.025l0.077,0.138l0.136,-0.116l0.183,0.058l0.143,-0.036l0.218,0.044l1.482,0.232l0.085,-0.138l0.175,0.139l0.28,0.028l0.24,0.13l0.07,-0.196l0.182,0.117l0.066,-0.036l0.07,0.102l0.097,-0.183l0.058,0.103l0.24,-0.059l0.078,-0.036l0.07,0.095l0.066,-0.073l0.082,-0.102l0.17,0.219l0.04,-0.08l0.042,-0.069l0.221,0.208l0.699,0.122l0.264,-0.16l0.135,0.058l0.466,-0.247l0.155,0.058l0.225,-0.051l0.09,0.102l0.345,-0.137l0.039,0.072l0.054,-0.116l0.086,0.116l0.415,-0.144l0.248,0l0.128,-0.008l0.23,0.036l0.077,-0.102l0.066,0.088l0.248,-0.16l0.233,0.08l0.054,-0.102l0.086,0.059l2.557,0.058l0.132,0.095l0.039,-0.08l0.085,-0.022l0.054,0.138l0.09,-0.072l0.337,-0.058l0.062,0.116l0.059,-0.102l0.174,0.08l0.093,-0.138l0.063,0.08l0.062,0.022l0.097,-0.116l0.054,0.138l0.116,-0.116l0.074,0.08l1.374,0.08l0.09,0.095l0.154,-0.022l0.21,0.028l0.233,0.044l0.124,-0.08l0.05,0.095l1.265,0l0.055,0.138l0.07,-0.116l0.062,0.08l0.159,-0.036l0.105,-0.022l0.073,0.124l0.066,-0.058l0.066,-0.08l0.078,0.08l0.26,0.08l0.206,-0.116l0.081,0.102l0.078,-0.08l0.163,0.022l0.108,0.08l0.043,-0.08l0.085,0l0.222,0.138l0.24,-0.08l0.093,0.102l0.05,-0.058l0.497,0.087l0.214,0.015l0.237,-0.044l0.097,0.102l0.042,-0.152l0.078,0.094l0.229,-0.022l0.09,0.037l0.073,-0.139l0.12,0.175l0.043,-0.102l0.143,0.044l0.357,-0.073l0.043,0.117l0.066,-0.138l0.307,0.08l3.178,-0.109l0.252,-0.058l0.14,0.022l0.074,-0.022l0.124,0.102l0.035,-0.116l0.081,0.094l0.175,0l0.066,0.044l0.248,-0.124l0.058,0.095l0.094,-0.058l0.05,-0.044l0.097,0.16l0.233,-0.116l0.074,0.08l0.077,-0.102l0.225,0.19l0.074,-0.183l0.109,0.16l0.368,-0.138l0.148,0.058l0.105,-0.087l0.128,0.065l0.085,0.022l0.24,-0.174l0.148,0.16l0.151,-0.116l1.106,0l0.059,0.116l0.081,-0.043l0.113,0.058l0.05,-0.139l0.066,0.08l0.307,-0.027l0.24,0.109l0.26,0.036l0.12,0.043l0.078,-0.102l0.113,0.095l0.046,-0.059l0.245,0.015l0.062,-0.14l0.081,0.045l0.435,-0.212l0.035,0.037l0.14,-0.066l0.333,-0.05l0.319,-0.11l0.617,-0.086l0.077,-0.058l0.144,0.08l0.159,0.044l0.077,0.014l0.078,-0.102l0.078,0.124l0.136,-0.094l0.19,0l0.372,0.058l0.14,-0.044l2.344,0.03l0.058,0.124l0.318,-0.139l0.56,0.008l0.077,-0.058l0.073,0.102l0.144,-0.058l0.233,0.066l0.326,0.015l0.213,0.022l0.24,0.094l0.152,-0.13l0.23,0.182l0.088,-0.124l0.202,0.066l0.027,-0.058l0.066,0.102l0.71,0.057l0.074,-0.072l0.07,0.138l0.09,-0.058l0.232,-0.036l0.105,0.102l0.136,-0.095l0.217,0.037l0.163,0l0.082,-0.073l0.333,-5.303l0.125,-0.57l0.15,0.006l0.187,0.281l1.176,13.22l0.272,4.4l0.229,3.202l1.808,26.581l2.018,42.566l0.295,7.772l0.229,5.883l0.815,20.81l0.43,13.087l0.536,15.603l1.944,47.551l0.85,12.451l0.17,1.512l0.23,2.06l0.38,2.244l0.09,-0.082l0.061,0.22l0.09,-0.028l0.155,-0.11l0.264,-0.545l0.198,-0.814l0.108,-0.217l0.295,-1.268l1.836,-4.872l0.477,-2.245l0.559,-3.765l0.993,-8.99l0.125,-0.667l0.182,-2.386l0.151,-1.481l0.563,-5.419l1.54,-13.42l0.268,-1.418l0.21,-1.275l1.075,-4.597l0.376,-0.849l0.179,-0.315l0.186,-0.267l0.202,-0.425l0.155,-0.172l0.21,-0.298l0.66,-0.361l0.054,0.126l0.174,0l0.128,0.22l0.19,0.156l0.21,0.394l2.022,5.216l0.167,0.554l0.167,0.321l0.046,-0.017l0.23,0.46l0.314,0.422l2.01,3.827l1.245,2.67l0.16,0.22l0.628,0.92l0.14,0.08l0.314,0.359l0.09,-0.042l0.45,0.5l0.081,-0.02l0.64,0.5l0.222,0.103l0.345,0.28l0.047,-0.061l0.081,0.023l0.062,0.159l0.086,-0.038l1.796,0.943l0.136,0l0.167,0.102l0.136,0.057l0.954,0.335l0.532,0l0.086,0.159l0.07,-0.082l0.302,0.101l0.396,0.082l0.07,-0.1l0.244,0.122l0.233,-0.04l0.147,0.09l0.377,0.146l0.182,-0.004l0.074,-0.041l0.062,0.12l0.07,-0.062l0.229,0.08l0.167,-0.14l0.159,0.058l0.081,-0.242l0.07,0.121l0.078,0.059l0.318,-0.24l0.078,0.08l0.081,-0.119l0.062,0.08l0.408,0l0.07,0.041l0.089,-0.1l0.054,0.163l0.124,-0.16l0.059,0.121l0.066,-0.06l0.298,0.002l0.156,-0.02l0.232,0.042l0.486,0.101l0.57,0.136l0.136,-0.022l0.062,0.16l0.07,-0.06l0.791,0.12l0.21,-0.001l0.555,0.12l0.462,0.063l0.388,0.18l0.388,0.06l0.159,0.06l0.35,0.101l0.073,0.16l0.054,-0.081l0.47,0.24l0.151,-0.019l0.062,0.14l0.175,0l0.058,0.08l0.179,-0.04l0.232,0.14l0.14,0.06l0.256,0.101l0.055,-0.02l0.15,0.12l1.394,0.68l0.132,-0.16l0.124,0.2l0.284,0.04l0.651,0.26l0.152,0.06l0.112,0l0.04,0.14l0.069,-0.1l0.147,0.12l0.194,0l0.063,0.12l0.05,-0.06l0.085,-0.04l0.066,0.18l0.117,-0.06l0.046,0.101l0.086,0.04l0.105,-0.12l0.12,0.2l0.09,-0.1l0.147,0.08l0.147,0.06l0.233,0.08l0.396,0.1l0.225,0.06l0.229,0.08l0.081,-0.02l0.245,0.16l0.182,0.06l0.299,0.16l0.058,-0.1l0.233,0.22l0.062,-0.12l0.299,0.16l0.035,-0.08l0.058,0.119l0.47,0.1l0.186,0.018l0.046,-0.019l0.156,0.1l0.702,0.243l0.085,-0.041l0.152,0.182l0.073,-0.12l0.152,0.143l0.221,0.018l0.244,0.042l0.16,0.063l0.47,0.097l0.376,0.143l0.112,-0.143l0.058,0.06l0.148,0.06l0.085,-0.1l0.058,0.1l0.4,0.037l0.093,0.202l0.058,-0.142l1.083,0.482l0.163,-0.023l0.54,0.28l0.244,-0.184l0.136,0.142l0.411,0.078l0.221,0.1l0.086,-0.082l0.174,0.06l0.082,0.023l0.206,0.202l0.159,-0.036l0.764,0.494l0.097,-0.077l0.062,0.178l0.09,-0.035l0.143,-0.06l0.09,0.161l0.065,-0.042l0.439,0.06l0.046,-0.185l0.055,0.024l0.201,0.06l0.047,-0.12l0.21,0.228l0.174,-0.084l0.058,0.119l0.163,-0.042l0.082,0.018l0.078,-0.143l0.085,0.279l0.167,-0.16l0.07,0.135l0.066,-0.1l0.388,0.118l0.066,0.125l0.322,0.111l0.151,0.126l0.074,-0.084l0.178,0.262l0.09,-0.143l0.213,0.22l0.066,-0.06l0.17,0.06l0.156,0l0.066,0.16l0.085,-0.16l0.082,0.16l0.062,-0.16l0.081,0.177l0.214,0l0.174,0.16l0.152,0.034l0.081,0.1l0.194,-0.041l0.194,0.143l0.113,-0.026l0.24,0.22l0.152,0.075l0.345,0.255l0.171,-0.069l0.68,0.396l0.08,-0.043l0.249,0.176l0.543,0.192l0.64,0.492l0.125,0.059l0.151,-0.016l0.248,0.29l0.156,0l0.248,0.118l0.058,0l0.062,0.117l0.086,-0.058l0.167,0.074l0.275,0.204l0.097,-0.044l0.07,0.161l0.078,-0.043l0.089,0.102l0.077,-0.117l0.222,0.234l0.95,0.57l0.167,-0.073l0.21,0.379l0.155,0.145l0.144,0.088l0.089,0.03l0.07,0.203l0.085,-0.16l0.144,0.176l0.089,-0.117l0.16,0.263l0.069,-0.16l0.28,0.174l0.03,-0.116l0.074,0.16l0.113,-0.16l0.042,0.058l0.09,0.16l0.066,-0.204l0.093,0.073l0.136,0.16l0.05,-0.116l0.05,0.102l0.3,0.13l0.185,0.014l0.136,0.117l0.066,0.013l0.171,0.103l0.058,0l0.105,0.249l0.058,-0.103l0.38,0.246l0.082,-0.058l0.376,0.352l0.796,0.392l0.12,-0.045l0.264,0.385l0.078,-0.135l0.233,0.264l0.089,-0.148l0.217,0.334l0.124,-0.116l0.23,0.174l0.209,0.07l0.477,0.289l0.124,0.025l0.319,0.148l2.165,1.239" stroke="teal" fill="none" stroke-linejoin="round" stroke-linecap="square" stroke-width="2.5"/>
  </g>
  <g id="svg_106" clip-path="url(#A)">
   <path id="svg_107" d="m115.2,178.404l12.154,0.126l11.603,0.044l17.02,0.054l0.129,-96.405l113.676,0l0.093,163.917l1.094,1.212l2.643,2.933l0.318,0.315l0.769,0.747l1.863,1.482l0.853,0.503l1.23,0.512l1.172,0.242l1.324,0.034l1.858,-0.21l3.198,-0.305l2.084,0.046l1.805,0.296l0.974,0.249l1.133,0.308l2.643,0.817l0.508,0.163l10.862,2.69l3.958,0.937l9.089,2.462l2.483,0.73l4.424,1.37l1.475,0.48l1.067,0.362l2.379,0.805l0.508,0.195l0.862,0.309l7.295,2.926l3.105,1.418l1.618,0.785l1.634,0.811l4.513,2.428l0.683,0.407l0.481,0.275l1.386,0.85l1.408,0.889l0.916,0.616l1.432,0.962l0.198,0.166" stroke="red" fill="none" stroke-linejoin="round" stroke-dasharray="9.25,4" stroke-width="2.5"/>
  </g>
  <path id="svg_108" d="m103.104,307.584l0,-266.112m266.112,266.112l0,-266.112m-266.112,266.112l266.112,0m-266.112,-266.112l266.112,0" stroke="#000" fill="none" stroke-miterlimit="10" stroke-linecap="square" stroke-width="0.8"/>
  <path id="svg_109" fill-opacity="0.8" fill="#fff" d="m110.104,302.584l153.36,0c1.333,0 2,-0.667 2,-2l0,-28.344c0,-1.333 -0.667,-2 -2,-2l-153.36,0c-1.333,0 -2,0.667 -2,2l0,28.344c0,1.333 0.667,2 2,2z"/>
  <path id="svg_110" d="m110.104,302.584l153.36,0c1.333,0 2,-0.667 2,-2l0,-28.344c0,-1.333 -0.667,-2 -2,-2l-153.36,0c-1.333,0 -2,0.667 -2,2l0,28.344c0,1.333 0.667,2 2,2z" stroke-opacity="0.8" stroke="#d5d6d5" fill="none" stroke-miterlimit="10"/>
  <path id="svg_111" d="m112.104,278.334l20,0" stroke="teal" fill="none" stroke-linejoin="round" stroke-linecap="square" stroke-width="2.5"/>
  <use id="svg_112" transform="matrix(10 0 0 -10 140.664 281.964)" xlink:href="#B"/>
  <use id="svg_113" transform="matrix(10 0 0 -10 147.934 281.964)" xlink:href="#C"/>
  <use id="svg_114" transform="matrix(10 0 0 -10 154.334 281.834)" xlink:href="#t"/>
  <use id="svg_115" transform="matrix(10 0 0 -10 158.272 281.834)" xlink:href="#t"/>
  <use id="svg_116" transform="matrix(10 0 0 -10 161.803 281.964)" xlink:href="#k"/>
  <use id="svg_117" transform="matrix(10 0 0 -10 168.313 281.834)" xlink:href="#v"/>
  <use id="svg_118" transform="matrix(10 0 0 -10 174.013 281.834)" xlink:href="#u"/>
  <use id="svg_119" transform="matrix(10 0 0 -10 177.663 281.834)" xlink:href="#l"/>
  <use id="svg_120" transform="matrix(10 0 0 -10 181.393 281.964)" xlink:href="#x"/>
  <use id="svg_121" transform="matrix(10 0 0 -10 187.873 281.834)" xlink:href="#t"/>
  <use id="svg_122" transform="matrix(10 0 0 -10 192.013 281.834)" xlink:href="#i"/>
  <use id="svg_123" transform="matrix(10 0 0 -10 194.403 281.964)" xlink:href="#k"/>
  <use id="svg_124" transform="matrix(10 0 0 -10 200.913 281.834)" xlink:href="#v"/>
  <use id="svg_125" transform="matrix(10 0 0 -10 206.613 281.834)" xlink:href="#u"/>
  <use id="svg_126" transform="matrix(10 0 0 -10 210.863 281.964)" xlink:href="#w"/>
  <use id="svg_127" transform="matrix(10 0 0 -10 216.663 281.834)" xlink:href="#u"/>
  <use id="svg_128" transform="matrix(10 0 0 -10 221.253 281.834)" xlink:href="#i"/>
  <use id="svg_129" transform="matrix(10 0 0 -10 223.643 281.964)" xlink:href="#x"/>
  <use id="svg_130" transform="matrix(10 0 0 -10 230.123 281.834)" xlink:href="#v"/>
  <use id="svg_131" transform="matrix(10 0 0 -10 235.553 281.834)" xlink:href="#l"/>
  <use id="svg_132" transform="matrix(10 0 0 -10 239.593 283.144)" xlink:href="#D"/>
  <use id="svg_133" transform="matrix(10 0 0 -10 243.193 281.964)" xlink:href="#s"/>
  <use id="svg_134" transform="matrix(10 0 0 -10 251.163 281.964)" xlink:href="#E"/>
  <use id="svg_135" transform="matrix(10 0 0 -10 257.653 283.144)" xlink:href="#F"/>
  <path id="svg_136" d="m112.104,293.006l20,0" stroke="red" fill="none" stroke-linejoin="round" stroke-dasharray="9.25,4" stroke-width="2.5"/>
  <use id="svg_137" transform="matrix(10 0 0 -10 141.084 296.506)" xlink:href="#G"/>
  <use id="svg_138" transform="matrix(10 0 0 -10 148.354 296.636)" xlink:href="#k"/>
  <use id="svg_139" transform="matrix(10 0 0 -10 154.494 296.636)" xlink:href="#n"/>
  <use id="svg_140" transform="matrix(10 0 0 -10 160.104 296.506)" xlink:href="#i"/>
  <use id="svg_141" transform="matrix(10 0 0 -10 162.854 296.506)" xlink:href="#t"/>
  <use id="svg_142" transform="matrix(10 0 0 -10 166.385 296.636)" xlink:href="#k"/>
  <use id="svg_143" transform="matrix(10 0 0 -10 172.535 296.636)" xlink:href="#H"/>
  <use id="svg_144" transform="matrix(10 0 0 -10 178.335 296.506)" xlink:href="#l"/>
  <use id="svg_145" transform="matrix(10 0 0 -10 182.065 296.636)" xlink:href="#x"/>
  <use id="svg_146" transform="matrix(10 0 0 -10 188.545 296.506)" xlink:href="#t"/>
  <use id="svg_147" transform="matrix(10 0 0 -10 192.685 296.506)" xlink:href="#i"/>
  <use id="svg_148" transform="matrix(10 0 0 -10 195.075 296.636)" xlink:href="#k"/>
  <use id="svg_149" transform="matrix(10 0 0 -10 201.585 296.506)" xlink:href="#v"/>
  <use id="svg_150" transform="matrix(10 0 0 -10 207.285 296.506)" xlink:href="#u"/>
  <use id="svg_151" transform="matrix(10 0 0 -10 211.535 296.636)" xlink:href="#w"/>
  <use id="svg_152" transform="matrix(10 0 0 -10 217.335 296.506)" xlink:href="#u"/>
  <use id="svg_153" transform="matrix(10 0 0 -10 221.925 296.506)" xlink:href="#i"/>
  <use id="svg_154" transform="matrix(10 0 0 -10 224.315 296.636)" xlink:href="#x"/>
  <use id="svg_155" transform="matrix(10 0 0 -10 230.795 296.506)" xlink:href="#v"/>
  <use id="svg_156" transform="matrix(10 0 0 -10 236.225 296.506)" xlink:href="#l"/>
  <use id="svg_157" transform="matrix(10 0 0 -10 240.265 297.816)" xlink:href="#D"/>
  <use id="svg_158" transform="matrix(10 0 0 -10 243.865 296.636)" xlink:href="#s"/>
  <use id="svg_159" transform="matrix(10 0 0 -10 251.835 296.636)" xlink:href="#E"/>
  <use id="svg_160" transform="matrix(10 0 0 -10 258.325 297.816)" xlink:href="#F"/>
 </g>
</svg>