<svg xmlns="http://www.w3.org/2000/svg" xmlns:xlink="http://www.w3.org/1999/xlink" width="614.4" height="460.8" viewBox="0 0 460.8 345.6"><path d="M0 345.6h460.8V0H0z" fill="#fff"/><path d="M103.104 307.584h266.112V41.472H103.104z" fill="#fff"/><path stroke-width=".8" stroke-linejoin="round" fill="none" stroke="#000" d="M114.013 307.584v3.5"/><symbol id="a"><path transform="matrix(.001 0 0 .001 -.066 .013)" d="M318 664c-51 0-89-25-115-75s-38-125-38-225 12-175 38-225 64-75 115-75 89 25 115 75c25 50 38 125 38 225s-13 175-38 225c-26 50-64 75-115 75zm0 78c81 0 143-33 187-97 43-65 65-159 65-281 0-123-22-217-65-281-44-64-106-96-188-96S173 19 130 83 66 241 66 364c0 122 21 216 64 281 43 64 106 97 188 97z"/></symbol><use xlink:href="#a" transform="matrix(10 0 0 -10 111.493 322.308)"/><path stroke-width=".8" stroke-linejoin="round" fill="none" stroke="#000" d="M152.82 307.584v3.5"/><symbol id="b"><path transform="translate(-.11) scale(.001)" d="M124 83h161v556l-175-35v90l174 35h99V83h161V0H124v83z"/></symbol><use xlink:href="#b" transform="matrix(10 0 0 -10 147.56 322.178)"/><use xlink:href="#a" transform="matrix(10 0 0 -10 153.48 322.308)"/><path stroke-width=".8" stroke-linejoin="round" fill="none" stroke="#000" d="M191.626 307.584v3.5"/><symbol id="c"><path transform="translate(-.073) scale(.001)" d="M192 83h344V0H73v83c37 38 88 90 153 156 64 65 105 107 122 126 32 35 54 65 66 90 12 24 19 49 19 73 0 38-14 70-41 94s-62 37-106 37c-31 0-64-6-98-16-34-11-71-27-110-49v100c40 16 77 28 111 36s66 12 95 12c75 0 135-19 180-57s68-88 68-151c0-30-6-59-17-85-11-27-31-59-61-95-8-10-34-37-78-82S271 164 192 83z"/></symbol><use xlink:href="#c" transform="matrix(10 0 0 -10 185.996 322.178)"/><use xlink:href="#a" transform="matrix(10 0 0 -10 192.286 322.308)"/><path stroke-width=".8" stroke-linejoin="round" fill="none" stroke="#000" d="M230.432 307.584v3.5"/><symbol id="d"><path transform="matrix(.001 0 0 .001 -.076 .013)" d="M406 393c47-10 84-31 110-63s40-72 40-118c0-72-25-128-74-167-50-39-120-58-211-58-31 0-63 3-95 9-32 5-66 14-100 26v95c27-16 57-28 90-36 32-8 66-12 102-12 62 0 109 12 141 36s49 60 49 107c0 42-15 76-45 100s-72 37-126 37h-85v81h89c48 0 85 9 111 29 26 19 39 47 39 84s-14 66-40 86c-27 20-65 30-114 30-27 0-56-3-87-9s-65-15-102-27v88c37 10 72 18 105 23 32 5 63 8 93 8 74 0 133-17 177-51s66-80 66-138c0-40-12-74-35-102s-56-48-98-58z"/></symbol><use xlink:href="#d" transform="matrix(10 0 0 -10 224.833 322.308)"/><use xlink:href="#a" transform="matrix(10 0 0 -10 231.093 322.308)"/><path stroke-width=".8" stroke-linejoin="round" fill="none" stroke="#000" d="M269.239 307.584v3.5"/><symbol id="e"><path transform="translate(-.049) scale(.001)" d="M378 643 129 254h249v389zm-26 86h124V254h104v-82H476V0h-98v172H49v95l303 462z"/></symbol><use xlink:href="#e" transform="matrix(10 0 0 -10 263.37 322.178)"/><use xlink:href="#a" transform="matrix(10 0 0 -10 269.9 322.308)"/><path stroke-width=".8" stroke-linejoin="round" fill="none" stroke="#000" d="M308.045 307.584v3.5"/><symbol id="f"><path transform="matrix(.001 0 0 .001 -.077 .013)" d="M108 729h387v-83H198V467c14 5 29 9 43 11s29 4 43 4c81 0 145-23 193-67 48-45 72-105 72-181 0-79-25-140-74-183S357-13 269-13c-31 0-62 3-94 7-32 5-64 12-98 23v99c29-16 59-28 91-36 31-8 64-11 99-11 56 0 101 14 134 44 32 30 49 70 49 121 0 50-17 90-49 120-33 30-78 45-134 45-26 0-53-3-79-9s-53-15-80-27v366z"/></symbol><use xlink:href="#f" transform="matrix(10 0 0 -10 302.456 322.308)"/><use xlink:href="#a" transform="matrix(10 0 0 -10 308.706 322.308)"/><path stroke-width=".8" stroke-linejoin="round" fill="none" stroke="#000" d="M346.852 307.584v3.5"/><symbol id="g"><path transform="matrix(.001 0 0 .001 -.07 .013)" d="M330 404c-44 0-79-16-105-46s-39-72-39-124c0-53 13-95 39-125s61-45 105-45 79 15 105 45 39 72 39 125c0 52-13 94-39 124s-61 46-105 46zm196 309v-90c-25 12-50 21-75 27-26 6-51 9-75 9-66 0-116-22-150-66s-54-111-58-199c19 28 43 50 72 65s61 23 96 23c73 0 131-23 173-67s64-105 64-181c0-75-23-135-67-180S403-13 330-13c-84 0-149 32-193 96-45 64-67 158-67 281 0 115 27 207 82 275 54 68 128 103 220 103 24 0 49-3 75-7 25-5 51-12 79-22z"/></symbol><use xlink:href="#g" transform="matrix(10 0 0 -10 341.192 322.308)"/><use xlink:href="#a" transform="matrix(10 0 0 -10 347.512 322.308)"/><symbol id="h"><path transform="translate(.002) scale(.001)" d="M-2 729h616v-83H355V0h-99v646H-2v83z"/></symbol><symbol id="i"><path transform="translate(-.094) scale(.001)" d="M94 547h90V0H94v547zm0 213h90V646H94v114z"/></symbol><symbol id="j"><path transform="translate(-.091) scale(.001)" d="M520 442c22 40 49 69 80 89 31 19 68 29 111 29 56 0 100-20 131-60s47-97 47-170V0h-90v327c0 52-10 91-28 117-19 25-47 38-85 38-47 0-84-16-111-47s-40-73-40-126V0h-90v327c0 52-10 91-28 117-19 25-48 38-86 38-46 0-83-16-110-47s-40-73-40-126V0H91v547h90v-85c20 33 45 58 74 74 28 16 62 24 102 24s73-10 101-30 48-50 62-88z"/></symbol><symbol id="k"><path transform="matrix(.001 0 0 .001 -.055 .013)" d="M562 296v-44H149c4-62 22-110 56-142 33-32 79-48 139-48 34 0 68 4 100 12s65 21 97 39V28c-32-14-65-25-99-31s-69-10-103-10c-88 0-157 25-208 75S55 181 55 268c0 89 24 160 72 213 48 52 114 79 196 79 74 0 132-24 175-71 42-48 64-112 64-193zm-90 26c-1 49-15 88-41 118-27 29-63 44-107 44-50 0-90-15-120-43s-48-68-52-119h320z"/></symbol><symbol id="m"><path transform="matrix(.001 0 0 .001 -.086 .131)" d="M86 760h207v-70H176V-61h117v-70H86v891z"/></symbol><symbol id="n"><path transform="matrix(.001 0 0 .001 -.054 .013)" d="M443 531v-85c-26 12-52 22-79 29-28 6-56 10-85 10-45 0-79-7-101-21s-33-34-33-61c0-21 8-37 24-49s48-24 96-34l31-7c64-14 109-34 136-58 26-25 40-60 40-104 0-51-20-91-60-120-40-30-96-44-166-44-30 0-60 3-92 8S89 8 54 20v93c33-18 66-31 98-39 32-9 64-13 96-13 42 0 75 7 98 21 22 14 34 35 34 62 0 24-9 43-25 56s-52 26-108 38l-31 7c-56 12-97 30-121 54-25 24-37 57-37 100 0 51 18 91 54 119s88 42 156 42c33 0 64-3 94-8 29-5 56-12 81-21z"/></symbol><symbol id="o"><path transform="matrix(.001 0 0 .001 -.097 .131)" d="M304 760v-891H97v70h117v751H97v70h207z"/></symbol><use xlink:href="#h" transform="matrix(10 0 0 -10 215.757 335.85)"/><use xlink:href="#i" transform="matrix(10 0 0 -10 222.53 335.85)"/><use xlink:href="#j" transform="matrix(10 0 0 -10 225.28 335.85)"/><use xlink:href="#k" transform="matrix(10 0 0 -10 234.66 335.98)"/><use xlink:href="#l" transform="matrix(10 0 0 -10 240.26 335.85)"/><use xlink:href="#m" transform="matrix(10 0 0 -10 244.3 337.16)"/><use xlink:href="#n" transform="matrix(10 0 0 -10 247.88 335.98)"/><use xlink:href="#o" transform="matrix(10 0 0 -10 253.52 337.16)"/><path stroke-width=".8" stroke-linejoin="round" fill="none" stroke="#000" d="M103.104 268.178h-3.5"/><symbol id="p"><path transform="translate(-.107) scale(.001)" d="M107 124h103V0H107v124z"/></symbol><use xlink:href="#b" transform="matrix(10 0 0 -10 81.298 271.974)"/><use xlink:href="#p" transform="matrix(10 0 0 -10 87.628 271.974)"/><use xlink:href="#a" transform="matrix(10 0 0 -10 90.398 272.104)"/><path stroke-width=".8" stroke-linejoin="round" fill="none" stroke="#000" d="M103.104 220.044h-3.5"/><use xlink:href="#b" transform="matrix(10 0 0 -10 81.298 223.841)"/><use xlink:href="#p" transform="matrix(10 0 0 -10 87.628 223.841)"/><use xlink:href="#f" transform="matrix(10 0 0 -10 90.508 223.971)"/><path stroke-width=".8" stroke-linejoin="round" fill="none" stroke="#000" d="M103.104 171.911h-3.5"/><use xlink:href="#c" transform="matrix(10 0 0 -10 80.928 175.708)"/><use xlink:href="#p" transform="matrix(10 0 0 -10 87.628 175.708)"/><use xlink:href="#a" transform="matrix(10 0 0 -10 90.398 175.838)"/><path stroke-width=".8" stroke-linejoin="round" fill="none" stroke="#000" d="M103.104 123.778h-3.5"/><use xlink:href="#c" transform="matrix(10 0 0 -10 80.928 127.575)"/><use xlink:href="#p" transform="matrix(10 0 0 -10 87.628 127.575)"/><use xlink:href="#f" transform="matrix(10 0 0 -10 90.508 127.705)"/><path stroke-width=".8" stroke-linejoin="round" fill="none" stroke="#000" d="M103.104 75.645h-3.5"/><use xlink:href="#d" transform="matrix(10 0 0 -10 80.958 79.572)"/><use xlink:href="#p" transform="matrix(10 0 0 -10 87.628 79.442)"/><use xlink:href="#a" transform="matrix(10 0 0 -10 90.398 79.572)"/><symbol id="q"><path transform="matrix(.001 0 0 .001 -.066 .013)" d="M535 705v-96c-38 18-73 31-106 40-34 8-66 13-96 13-54 0-96-11-125-31-29-21-43-51-43-89 0-32 9-57 29-73 19-17 56-30 110-40l60-12c73-14 127-39 162-74 35-36 53-83 53-142 0-71-24-124-71-160-48-36-117-54-208-54-35 0-72 4-111 11S110 16 69 32v102c40-23 79-40 117-51 38-12 76-17 114-17 56 0 99 11 130 33 30 22 46 53 46 95 0 36-11 64-33 84s-58 35-108 45l-60 12c-74 14-127 37-160 69-33 31-49 74-49 130 0 64 22 115 68 152 45 37 108 56 188 56 34 0 68-3 104-9 35-6 71-16 109-28z"/></symbol><symbol id="r"><path transform="matrix(.001 0 0 .001 -.091 .207)" d="M181 82v-289H91v754h90v-83c18 32 42 56 71 72s64 24 104 24c66 0 120-27 162-79 41-53 62-122 62-208s-21-156-62-208c-42-52-96-78-162-78-40 0-75 8-104 23s-53 39-71 72zm306 191c0 66-14 117-41 155-28 38-65 57-112 57-48 0-85-19-112-57-28-38-41-89-41-155s13-118 41-156c27-38 64-56 112-56 47 0 84 18 112 56 27 38 41 90 41 156z"/></symbol><symbol id="s"><path transform="matrix(.001 0 0 .001 -.055 .013)" d="M454 464v296h90V0h-90v82c-19-33-43-57-72-72s-63-23-103-23c-66 0-120 26-162 78S55 187 55 273s20 155 62 208c42 52 96 79 162 79 40 0 74-8 103-24s53-40 72-72zM148 273c0-66 13-118 40-156s64-56 112-56 85 18 113 56c27 38 41 90 41 156s-14 117-41 155c-28 38-65 57-113 57s-85-19-112-57-40-89-40-155z"/></symbol><symbol id="t"><path transform="matrix(.001 0 0 .001 0 .092)" d="M254 729h83L83-92H0l254 821z"/></symbol><use xlink:href="#q" transform="matrix(0 -10 -10 0 74.25 204.212)"/><use xlink:href="#r" transform="matrix(0 -10 -10 0 76.19 197.612)"/><use xlink:href="#k" transform="matrix(0 -10 -10 0 74.25 191.622)"/><use xlink:href="#k" transform="matrix(0 -10 -10 0 74.25 185.472)"/><use xlink:href="#s" transform="matrix(0 -10 -10 0 74.25 179.322)"/><use xlink:href="#l" transform="matrix(0 -10 -10 0 74.12 173.522)"/><use xlink:href="#m" transform="matrix(0 -10 -10 0 75.43 169.482)"/><use xlink:href="#j" transform="matrix(0 -10 -10 0 74.12 165.532)"/><use xlink:href="#t" transform="matrix(0 -10 -10 0 75.04 156.702)"/><use xlink:href="#n" transform="matrix(0 -10 -10 0 74.25 152.792)"/><use xlink:href="#o" transform="matrix(0 -10 -10 0 75.43 147.152)"/><clipPath id="u"><path transform="matrix(1 0 0 -1 0 345.6)" d="M103.104 38.016h266.112v266.112H103.104z"/></clipPath><g clip-path="url(#u)"><path stroke-width="2.5" stroke-linecap="square" stroke-linejoin="round" fill="none" stroke="teal" d="m115.2 295.488.21-11.975.174-17.47.846-52.694.574-25.561.37-15.051.473-14.466.31-7.654 1.937-32.597.166-2.198.858-10.589.528-5.199.233-2.016.174-1.026.392-2.565 1.618-7.17.319-1.065.69-2.192 1.774-3.73h.07l.24-.293.388-.439.148-.146 1.409-1.466.706-.696.656-.441.085-2.088.039.512.217.584.148.22.624.732.241-.001.062-.073.12.037.295-.4.058.033.497-.585 1.362-.915.319-.04.966.109.182.036.09-.073.143.077.155.033.249-.036.205-.001.183.292.24-.04.23-.175.38-.114.55-.289.226.327.302.329.951-.329h.524l.163.11.38-.073.268.04.085-.114.05.078.385-.114h.233l.233-.11.55.476.389-.114.043-2.043.038.619.784 2.2.439.145.698-.145.237.256.33-.365.256.113.082.03.182-.29.578-.256.214-.069.302-.077.163.037.31.476.214-.11.237.183.423-.11.19.034.45-.107.19.33.062.073.326-.223.214.296.159-.037.477-.329.148-.07.085-.15.16.037.535-.183.275.073.183-.11.159.036.248-.073 1.463-.112.066-.073.24.073.086-.147.07.147.078-.074.57-.074.093-2.123.031.585.322 2.123.066-.07.179-.077.384.952.388.002.085-.605.05.425.164.404.116-.083.346-1.47.69-3.864.326-1.619.621-1.472.093-.03.23.25.248.449.756 2.922.38 2.249.086.258.295 2.478 1.172 6.838 1.16 4.013.09.127.302.973.16-.026.155-.314.159.074.143-.15.086-.013.155-.235.062.066.644-.885 1.498-5.173.357-1.56.85-2.488.225-.396.105.04.217-.259.05.034.036-2.06.054.398.473 1.133h.152l.081.039.155-.098.163-.03.225-.258.392-.39.408-.231.512-.607.16.032.147-.414.085.092.07-.271.112.157.055-.077.073-.042.156.14.07-.11.353.267.151-.037.291.185.38.013.23.312.306.198.167-.16.081.093.086-.133.089.06.299-.33.128-.351.21-.323.178-.363.167-.189.081.056.16-.257.077.015.31-.256.544-.002.151-.07.105.176.116-.125.078.069.248-.14.846-.036.24.238.156-.153 1.971-.641.194.283.35-.235.046.115.338.146.054.068.062-.163.07.043.101.052.062-.12.117.051.085-.124.046.128.532-.193.221.232.101-.134.074.088.058-.16.086.072.081-.166.322.257.221-.231.074.137.17-.202 1.23.15.412-.052.055.12.081-.188.163.235.058-.072.249-.026.31.437.062-.043.342-.025.213.205.307-.163.857.643.082-.137.159.068.09-.163.461.652.058.017.245-.206.384.21.147-.258.082.065.233.137.267-.231.117.098.846-.098.1-.111.144.072.093-.193.063.098.155-.072.143.111.167-.068.315.09.306.45.066.112.256-.232.055.069.073-.137.16.228.318-.16.252-.068.054-2.136.082.668.376 1.33.245.584.244.411.384.108.225-.182.225.133.09-.094.229.163 1.156-.64.229.033.427.202.136-.11.229.159.19.17.05-.03.14.069.24-.043.241.017.097-.072.086.127.038-.098.233.043.074-.153.17.179.168.042.531-.11.303.557.186-.111.21.167.077.133.062-.065.466-.356.085.137.078-.231.085.166.237-.42.066.185.167-.068.38-.137.225.356.385-.098.077.094.16-.163.248-.091.089.114.05-.091.202.052.194-.12.163.025.218-.137.368.072.039-.098.062.026.229-.094.485-.111.054-.023.082-.235.388.841h.489l.128.095.202-.12.05.136.043-2.083.027.531.295 1.376.082.062.47 1.024.465.039.089.144.229-.287.074-.043.07-.189.543.176.194-.25.112-.004.086-.068.225.136.244-.394.466.137.147-.069.23-.094.19-.065.05.13.155-.182.082.117.074-.137.07.11.166-.136.07.068.07-.137.093.206.237-.297.55.117.168-.052.124-.133.074.13.24-.27.714.296.23-.02.143.05.163-.069.194-.147.066.147.093-.137.047.157.05-.118.326-.16.14.137.073.147.082-.095.085.095.078-.231.159.065.392-.065.543-.04.221-.205.241.228.33.284.09-.19.05.095.252.095.132.326.124.026.043-.215.085.094.047-.111.512.669.081-.065.12-.235.218.068.054-2.178.047.669.159.84.175.118.131.303.21.557.512.317.043-.09.124.087.047-.186.225.206.058-.026.09.094.236-.352.093.095.05-.095.156.004.791-.75.23.326.112-.229.043.134.12-.111.043-.215.085.352.066-.163.415.623.194-.13.144.038.077-.068.249.163.089.042.21-.235.322.33.085-.12.078.025.147-.163.388-.117.225-.235h.124l.05-.231.098.068.047-.094.228.257.183-.072.357-.322h.081l.09-.232.077.095.144-.19.24-.012.23-.193.089.163.058-.189.085.095.101-.206.058.095.315-.072.081.14.105-.065.035.134.237-.137.1.094.047-.068.392.03.066-.167.163.189.085.016.07-.11.105.094.085-.163.074.095.361.61.318-.053.07-.11.097.153.058-.111.318-.124.07.127.066-.192.082.114.21-.02.042-2.067.07.678.225.91h.085l.148.417.306.56.086-.068.17.137.094-.052.046.12.423-.309.054.072.078-.124.078.12.077-.094.055.3.089-.094.081.163.357-.588.078-.133.039.193.054-.056.198.026.136-.258.085.027.148-.19.31.3.086-.133.143.228.078.11.066-.273.081.205.082-.068.318-.098.14.144.698.065.082.065.077-.104.23.133h.546l.156-.14.1.14.067-.09.073-.047.14.069.272-.232.287.323.14.056.089-.186.085.133.14-.231.233.231.077.095.252-.167.33-.185.439-.18.217.21.249-.115.225.068.232-.163.54.61.081-.137.109.137.043-.137.252.163.151.16.055-.062.085-.098.151.069.194-.232.047.095.085-.137.066.094h.54l.159-.094.105.068.14-.205.22.026.129-.167.054.101.132-.051.31-.115.322-.026.14.023.245-.134.077.137.303-.3.074.189.263-.304.214.17.078-.098.159.232.31-.232h.066l.233.275.163.188.07-.205.073.068.237-.163.23.043.182.03.124-.07.48-.029.07-.137.07.069.171.065.07-.134.082.14.24-.166.237.163.559.098.12.417.151.206.09-.137.073.094.16-.051.38-.232.477-.052.214-.003.159-.16.081.124.082-.098.093.095.066-.138.105.18.066-.137.279.372.248-.206.765.486.027-.166.05.1.167.044.253.296.07-.274.058.069.384-.193.555-.16.073.027.233-.069.093.013.148-.107.497.42.116-.026.221-.091.047-2.09.039.603.38 1.33.43 1.02.047-.029.167.046.14.137.244-.257.078.068.078-.163.15.137.23.206.244-.258.097-.189.05.026.393-.189.302-.28.315-.072.159-.137.155.274.214-.3.485.163.077-.137.086.205.054-.068.47.068.077.095.155-.095.241.069.221-.14.408.26.229-.3.229.232.24.3.132-.342.116.11.051-.163.244.232.218-.254.167-.183.159.016.217-.137.128-.11.047.11.058-.205.077.068.082.027.097-.099.128.262.093-.023.062-.14.101.094.086-.163.054.19.151-.216.086.026.143-.176.09.173.294-.34.245.395.147-.163.245.254.074.17.143-.205.09-.03.077-.163.074.095.28-.19.042-.068.217.091.245-.185.217-2.923.116-.425.276-2.806.186-1.05.132-4.818.078.186.07-.25.124.007.108-2.213.78-5.597.47-1.601.074-.091.089.194.093-.083.299.868.062.13 1.106 6.468.927 7.918.16 1.498.376 3.614.555 5.68.295 3.412.167 1.763.613 6.565.632 5.91.218 1.928.302 2.45.245 1.263.299 1.027.485.661.229-.225.182-.205.28-1.023.302-1.12.249-1.469.225-1.747.547-4.51.45-3.673.248-1.935.307-2.258.865-3.785.353-1.06.07-2.167.059.064.131.09.148.026.078-.138.178.094.05-.132.082.091.085.06.078-.137.14.086.384-.735.326-.973.151-.202.326-.86.458-.777.078.054.236-.405.156-.168.22-.322.203.044.135-.181.38.028.218.05.078.182.085-.18.082.217.058-.047.151.045.175-.104.062.084.07-.083.248.09.066-.04.093.124.256-.262 1.6-2.155.088.006.144-.233.19-.176.05.195.214-.231.202.032.085.06.124-.179.078.067.09-.214.065.035.613-.288.082.092.345-.18.268.303.318-.068.07.182.074-.038.473.338.082-.143.058.145.326-.4.143-.375.198.173.218.187.283.015.031-2.174.066.725.167.66.054-.217.16-.18.461.765.16-.097.092-.02.074.174.054-.13.388.247.171.015.346-.042.042-.04.074.192.09-.13.143.2.221-.044.179-.045.768.298.14-.105.042.095.066.123.058-.067.462.027.097.189.066-.061.24.006.094.163.058-.043.233.006.144.21.077-.065.315.215.415-.179.085.188.047-.048.47.104.15-.117.23.026.163.047.229-.209.225.312.17-.095.055.048.322-.207.31.165.156-.184.322-.184.236-.044.059-.14.077.136.167-.11.446.767.253-.185.225.302.617-.3.392.372.492-.162.05-.115.07.115.245-.28.26.143.047-1.831.073.672.307 1.114.252.83.38.467.055-.115.093.138.074-.162.24.3.07-.042.078.202.202-.18.05.089.066-.047.078.047.233-.44.128.091.035-.162.062.14.093.228.07-.085.465-.445h.16l.143-.184.757-.301.136.186.116.302.097-.026.066.099.081-.096.765.422.237-.162.628.392.621-.394.148-.023.073-.022.315.182.388-.019.24-.185.625.28.322-.046.132-.046h.365l.047-.089.066.043.496-.092.066-.07.055.163.066-.05.085.007.09.136.158-.185.3.023.344.398.276-.05h.062l.078-.14.085.093.334-.162.105.07.1-.09.074.066.124-.043.05.228.078-.07.156.279.17-.024.303-.004.07.12.237-.186.217.116.314.393.086-.096.225.052.09-.118.073.184.155-.208.384.234.155-.166.866-.19.07.145.306-.19.377.255.733-.303.124.045.342-.259.046.17.07-.12.086.003.318.55.155-.162.074.07.07-.163.085.304.085-.145.225.443.237.392.074.138.062-.44.09.163.154-.024.23.44.318-.35h.081l.07.302.066-.163.093-.024.082-.138.066.28.17-.28.07.118.163-.257.058.115.206-.187h.124l.07-.138.093.228.175-.273.046-.166.074.28.113-.141.058.138.14-.325.384.509.077-.284.074.28.404-.487.236.276.062-.048.245-.387.299.363.081-.114.12.114.144-.326.058.301.066-.162.086-.273.081.107.093-.135.206.415.24.439.187-.05.066-.137.066-2.179.05.602.245 1.109.089.02.16.464.061-.073.09.325.089-.138.143.251.136-.141.155.031.128-.141.086.089.046-.39.055.3.089-.325.369.875.232-.319.101-.28.062.139.319-.764.093.3.221-.49.221.279.082-.163.066.414.135-.162.059.113.058-.113.07-.35.089.113.062.3.074-.279.077.12.101.086.09-.248.062.248.081-.276.07.088h.237l.089-.138.132.23.085-.095.082.092.062-.085.081-.078.284-.05.046-.113.058.251.074-.138.078-.187.182.134.093-.156.05.273.086-.135.058.11.113-.3.077.25.163-.188h.066l.086-.187.213.572.07-.021.062.278.252-.466.226-.05.186.25.05-.138.078.11.14-.298.089.116.066-.304.093.113.132-.163.543-.13.132.282.202.247.054-.163.12.412.067-.3.12.275.178.546.16.116.061-.134.094.134.17-.326.136.275.148-.026h.112l.055-.185.14.383.38-.351.166.163.094-.24.058.026.07.111.124-.192.124.304.388-.129.062-.3.101.274.09-.188.061.137.167-.434.04.242.065-2.364.047.878.516 1.178.085-.085.303.848.271-.19.047.3.12-.326.031.053.074.084.155-.11.09.088.159-.415.388.359.147-.326h.105l.283-.375.082.244.147-.137.105.358.058-.11.303-.08.159-.16.167.081.21.384.104-.026.066-.137.07.084.097.026.062-.19.237.407.077-.293.082.107.12-.133.136.243.128.52.078-.41.081.273.09-.3.062.22.22-.326.335.22.314-.354.081-.027.07.164.078-.194.077.117.295-.52.094.436.058-.327.085.273.082-.136.143.272.17-.22.152.415.07-.03.09-.163.073.272.085-.027.23-.463.081.382.062-.163.116.132.132-.323.16-.081.403-.055.07-.353.066.136.062.003"/></g><clipPath id="v"><path transform="matrix(1 0 0 -1 0 345.6)" d="M103.104 38.016h266.112v266.112H103.104z"/></clipPath><g clip-path="url(#v)"><path stroke-width="2.5" stroke-dasharray="9.25,4" stroke-linejoin="round" fill="none" stroke="red" d="M115.2 75.645h241.92"/></g><path stroke-width=".8" stroke-linecap="square" stroke-miterlimit="10" fill="none" stroke="#000" d="M103.104 307.584V41.472M369.216 307.584V41.472M103.104 307.584h266.112M103.104 41.472h266.112"/><path d="M233.372 302.584h128.844c1.333 0 2-.667 2-2V272.24c0-1.333-.667-2-2-2H233.372c-1.333 0-2 .667-2 2v28.344c0 1.333.667 2 2 2z" fill="#fff" fill-opacity=".8"/><path stroke-miterlimit="10" fill="none" stroke="#d5d6d5" stroke-opacity=".8" d="M233.372 302.584h128.844c1.333 0 2-.667 2-2V272.24c0-1.333-.667-2-2-2H233.372c-1.333 0-2 .667-2 2v28.344c0 1.333.667 2 2 2z"/><path stroke-width="2.5" stroke-linecap="square" stroke-linejoin="round" fill="none" stroke="teal" d="M235.372 278.334h20"/><symbol id="w"><path transform="matrix(.001 0 0 .001 -.056 .013)" d="M644 673V569c-34 30-69 53-107 69-38 15-77 23-119 23-84 0-148-26-192-77s-66-124-66-220 22-170 66-221 108-76 192-76c42 0 81 7 119 23 38 15 73 38 107 69V56c-35-24-72-41-110-52s-79-17-122-17C302-13 215 20 151 87S56 246 56 364c0 117 31 209 95 277 64 67 151 101 261 101 44 0 85-6 123-17 38-12 75-29 109-52z"/></symbol><symbol id="x"><path transform="matrix(.001 0 0 .001 -.085 .013)" d="M85 216v331h90V219c0-52 10-90 30-116s50-39 91-39c48 0 87 15 115 46s42 73 42 127v310h90V0h-90v84c-22-34-48-58-76-74-29-15-62-23-100-23-63 0-111 19-143 58-33 38-49 95-49 171zm226 344z"/></symbol><symbol id="y"><path transform="translate(-.091) scale(.001)" d="M411 463c-10 6-21 10-33 13-12 2-25 4-39 4-51 0-90-17-117-50-28-33-41-80-41-142V0H91v547h90v-85c18 33 43 58 73 74s67 24 111 24c6 0 13-1 21-1 7-1 15-2 25-4v-92z"/></symbol><symbol id="z"><path transform="translate(-.091) scale(.001)" d="M549 330V0h-90v327c0 52-11 90-31 116s-50 39-90 39c-49 0-87-16-115-47s-42-73-42-126V0H91v547h90v-85c21 32 46 57 76 73 29 16 63 25 101 25 62 0 110-20 142-59s49-96 49-171z"/></symbol><symbol id="A"><path transform="translate(-.027) scale(.001)" d="M183 702V547h185v-70H183V180c0-45 6-74 18-86 12-13 37-19 75-19h92V0h-92c-70 0-118 13-144 39s-39 73-39 141v297H27v70h66v155h90z"/></symbol><symbol id="B"><path transform="matrix(.001 0 0 .001 -.086 .131)" d="M310 759c-44-76-76-150-97-223-22-73-32-147-32-222 0-76 10-150 32-223 21-74 53-147 97-222h-78C183-54 146 20 122 94S86 241 86 314c0 72 12 145 36 219s60 149 110 226h78z"/></symbol><symbol id="C"><path transform="matrix(.001 0 0 .001 -.056 .013)" d="M394 662c-72 0-129-27-171-80-42-54-63-126-63-218s21-165 63-218c42-54 99-80 171-80 71 0 128 26 170 80 42 53 63 126 63 218s-21 164-63 218c-42 53-99 80-170 80zm0 80c102 0 183-35 245-103 61-68 92-160 92-275 0-116-31-207-92-275C577 21 496-13 394-13 291-13 209 21 148 89c-62 68-92 159-92 275 0 115 30 207 92 275 61 68 143 103 246 103z"/></symbol><symbol id="D"><path transform="matrix(.001 0 0 .001 -.08 .131)" d="M80 759h78c48-77 85-152 109-226s37-147 37-219c0-73-13-146-37-220S206-54 158-131H80c43 75 75 148 97 222 21 73 32 147 32 223 0 75-11 149-32 222-22 73-54 147-97 223z"/></symbol><use xlink:href="#w" transform="matrix(10 0 0 -10 263.932 281.964)"/><use xlink:href="#x" transform="matrix(10 0 0 -10 271.202 281.964)"/><use xlink:href="#y" transform="matrix(10 0 0 -10 277.602 281.834)"/><use xlink:href="#y" transform="matrix(10 0 0 -10 281.54 281.834)"/><use xlink:href="#k" transform="matrix(10 0 0 -10 285.072 281.964)"/><use xlink:href="#z" transform="matrix(10 0 0 -10 291.582 281.834)"/><use xlink:href="#A" transform="matrix(10 0 0 -10 297.282 281.834)"/><use xlink:href="#l" transform="matrix(10 0 0 -10 300.932 281.834)"/><use xlink:href="#n" transform="matrix(10 0 0 -10 304.652 281.964)"/><use xlink:href="#r" transform="matrix(10 0 0 -10 310.232 283.904)"/><use xlink:href="#k" transform="matrix(10 0 0 -10 316.222 281.964)"/><use xlink:href="#k" transform="matrix(10 0 0 -10 322.372 281.964)"/><use xlink:href="#s" transform="matrix(10 0 0 -10 328.522 281.964)"/><use xlink:href="#l" transform="matrix(10 0 0 -10 334.322 281.834)"/><use xlink:href="#B" transform="matrix(10 0 0 -10 338.362 283.144)"/><use xlink:href="#C" transform="matrix(10 0 0 -10 341.962 281.964)"/><use xlink:href="#q" transform="matrix(10 0 0 -10 349.932 281.964)"/><use xlink:href="#D" transform="matrix(10 0 0 -10 356.422 283.144)"/><path stroke-width="2.5" stroke-dasharray="9.25,4" stroke-linejoin="round" fill="none" stroke="red" d="M235.372 293.006h20"/><symbol id="E"><path transform="translate(-.098) scale(.001)" d="M197 648V81h119c100 0 174 22 221 68 46 46 70 118 70 216s-24 169-70 215c-47 45-121 68-221 68H197zm-99 81h203c141 0 245-30 311-88 66-59 99-151 99-276 0-126-34-218-100-277S441 0 301 0H98v729z"/></symbol><use xlink:href="#E" transform="matrix(10 0 0 -10 264.352 296.506)"/><use xlink:href="#k" transform="matrix(10 0 0 -10 271.622 296.636)"/><use xlink:href="#n" transform="matrix(10 0 0 -10 277.762 296.636)"/><use xlink:href="#i" transform="matrix(10 0 0 -10 283.372 296.506)"/><use xlink:href="#y" transform="matrix(10 0 0 -10 286.122 296.506)"/><use xlink:href="#k" transform="matrix(10 0 0 -10 289.654 296.636)"/><use xlink:href="#s" transform="matrix(10 0 0 -10 295.803 296.636)"/><use xlink:href="#l" transform="matrix(10 0 0 -10 301.604 296.506)"/><use xlink:href="#n" transform="matrix(10 0 0 -10 305.324 296.636)"/><use xlink:href="#r" transform="matrix(10 0 0 -10 310.904 298.576)"/><use xlink:href="#k" transform="matrix(10 0 0 -10 316.894 296.636)"/><use xlink:href="#k" transform="matrix(10 0 0 -10 323.043 296.636)"/><use xlink:href="#s" transform="matrix(10 0 0 -10 329.193 296.636)"/><use xlink:href="#l" transform="matrix(10 0 0 -10 334.993 296.506)"/><use xlink:href="#B" transform="matrix(10 0 0 -10 339.034 297.816)"/><use xlink:href="#C" transform="matrix(10 0 0 -10 342.634 296.636)"/><use xlink:href="#q" transform="matrix(10 0 0 -10 350.604 296.636)"/><use xlink:href="#D" transform="matrix(10 0 0 -10 357.094 297.816)"/></svg>