<?xml version="1.0" encoding="UTF-8"?>
<svg xmlns="http://www.w3.org/2000/svg" xmlns:xlink="http://www.w3.org/1999/xlink" width="400px" height="px" viewBox="0 0 400 412" version="1.1">
<defs>
<clipPath id="clip1">
  <path d="M 0 0 L 400 0 L 400 409.527344 L 0 409.527344 Z M 0 0 "/>
</clipPath>
</defs>
<g id="surface1">
<g clip-path="url(#clip1)" clip-rule="nonzero">
<path style=" stroke:none;fill-rule:nonzero;fill:rgb(100%,100%,100%);fill-opacity:1;" d="M -82.03125 409.527344 L 517.96875 409.527344 L 517.96875 -39.925781 L -82.03125 -39.925781 Z M -82.03125 409.527344 "/>
</g>
<path style=" stroke:none;fill-rule:nonzero;fill:rgb(100%,100%,100%);fill-opacity:1;" d="M 52.21875 360.089844 L 398.71875 360.089844 L 398.71875 14.007812 L 52.21875 14.007812 Z M 52.21875 360.089844 "/>
<path style="fill:none;stroke-width:0.8;stroke-linecap:butt;stroke-linejoin:round;stroke:rgb(0%,0%,0%);stroke-opacity:1;stroke-miterlimit:4;" d="M 50.727 266.984618 L 50.727 270.483859 " transform="matrix(1.302083,0,0,1.300505,0,12.875)"/>
<path style=" stroke:none;fill-rule:nonzero;fill:rgb(0%,0%,0%);fill-opacity:1;" d="M 66.050781 370.433594 C 65.386719 370.433594 64.890625 370.757812 64.550781 371.410156 C 64.214844 372.058594 64.058594 373.035156 64.058594 374.335938 C 64.058594 375.636719 64.214844 376.609375 64.550781 377.261719 C 64.890625 377.910156 65.386719 378.234375 66.050781 378.234375 C 66.714844 378.234375 67.207031 377.910156 67.546875 377.261719 C 67.871094 376.609375 68.042969 375.636719 68.042969 374.335938 C 68.042969 373.035156 67.871094 372.058594 67.546875 371.410156 C 67.207031 370.757812 66.714844 370.433594 66.050781 370.433594 Z M 66.050781 369.417969 C 67.105469 369.417969 67.910156 369.847656 68.484375 370.679688 C 69.042969 371.527344 69.332031 372.75 69.332031 374.335938 C 69.332031 375.933594 69.042969 377.15625 68.484375 377.988281 C 67.910156 378.820312 67.105469 379.238281 66.035156 379.238281 C 64.96875 379.238281 64.160156 378.820312 63.601562 377.988281 C 63.042969 377.15625 62.769531 375.933594 62.769531 374.335938 C 62.769531 372.75 63.042969 371.527344 63.601562 370.679688 C 64.160156 369.847656 64.980469 369.417969 66.050781 369.417969 Z M 66.050781 369.417969 "/>
<path style="fill:none;stroke-width:0.8;stroke-linecap:butt;stroke-linejoin:round;stroke:rgb(0%,0%,0%);stroke-opacity:1;stroke-miterlimit:4;" d="M 96.939 266.984618 L 96.939 270.483859 " transform="matrix(1.302083,0,0,1.300505,0,12.875)"/>
<path style=" stroke:none;fill-rule:nonzero;fill:rgb(0%,0%,0%);fill-opacity:1;" d="M 119.558594 377.988281 L 121.652344 377.988281 L 121.652344 370.757812 L 119.375 371.214844 L 119.375 370.042969 L 121.640625 369.589844 L 122.929688 369.589844 L 122.929688 377.988281 L 125.027344 377.988281 L 125.027344 379.070312 L 119.558594 379.070312 Z M 119.558594 377.988281 "/>
<path style=" stroke:none;fill-rule:nonzero;fill:rgb(0%,0%,0%);fill-opacity:1;" d="M 130.363281 370.433594 C 129.699219 370.433594 129.207031 370.757812 128.867188 371.410156 C 128.527344 372.058594 128.371094 373.035156 128.371094 374.335938 C 128.371094 375.636719 128.527344 376.609375 128.867188 377.261719 C 129.207031 377.910156 129.699219 378.234375 130.363281 378.234375 C 131.027344 378.234375 131.523438 377.910156 131.863281 377.261719 C 132.1875 376.609375 132.355469 375.636719 132.355469 374.335938 C 132.355469 373.035156 132.1875 372.058594 131.863281 371.410156 C 131.523438 370.757812 131.027344 370.433594 130.363281 370.433594 Z M 130.363281 369.417969 C 131.417969 369.417969 132.226562 369.847656 132.800781 370.679688 C 133.359375 371.527344 133.644531 372.75 133.644531 374.335938 C 133.644531 375.933594 133.359375 377.15625 132.800781 377.988281 C 132.226562 378.820312 131.417969 379.238281 130.351562 379.238281 C 129.285156 379.238281 128.476562 378.820312 127.917969 377.988281 C 127.355469 377.15625 127.082031 375.933594 127.082031 374.335938 C 127.082031 372.75 127.355469 371.527344 127.917969 370.679688 C 128.476562 369.847656 129.296875 369.417969 130.363281 369.417969 Z M 130.363281 369.417969 "/>
<path style="fill:none;stroke-width:0.8;stroke-linecap:butt;stroke-linejoin:round;stroke:rgb(0%,0%,0%);stroke-opacity:1;stroke-miterlimit:4;" d="M 143.151 266.984618 L 143.151 270.483859 " transform="matrix(1.302083,0,0,1.300505,0,12.875)"/>
<path style=" stroke:none;fill-rule:nonzero;fill:rgb(0%,0%,0%);fill-opacity:1;" d="M 180.613281 377.988281 L 185.09375 377.988281 L 185.09375 379.070312 L 179.066406 379.070312 L 179.066406 377.988281 C 179.546875 377.496094 180.210938 376.820312 181.058594 375.960938 C 181.890625 375.113281 182.425781 374.570312 182.644531 374.320312 C 183.0625 373.867188 183.347656 373.476562 183.503906 373.152344 C 183.660156 372.839844 183.753906 372.515625 183.753906 372.203125 C 183.753906 371.707031 183.570312 371.292969 183.21875 370.980469 C 182.867188 370.667969 182.410156 370.5 181.839844 370.5 C 181.433594 370.5 181.003906 370.578125 180.5625 370.707031 C 180.121094 370.847656 179.636719 371.058594 179.128906 371.34375 L 179.128906 370.042969 C 179.652344 369.835938 180.132812 369.679688 180.574219 369.574219 C 181.019531 369.472656 181.433594 369.417969 181.8125 369.417969 C 182.789062 369.417969 183.570312 369.664062 184.15625 370.160156 C 184.742188 370.65625 185.042969 371.304688 185.042969 372.125 C 185.042969 372.515625 184.964844 372.890625 184.820312 373.230469 C 184.675781 373.582031 184.417969 373.996094 184.027344 374.464844 C 183.921875 374.59375 183.582031 374.945312 183.011719 375.53125 C 182.4375 376.117188 181.644531 376.9375 180.613281 377.988281 Z M 180.613281 377.988281 "/>
<path style=" stroke:none;fill-rule:nonzero;fill:rgb(0%,0%,0%);fill-opacity:1;" d="M 190.535156 370.433594 C 189.871094 370.433594 189.378906 370.757812 189.039062 371.410156 C 188.699219 372.058594 188.542969 373.035156 188.542969 374.335938 C 188.542969 375.636719 188.699219 376.609375 189.039062 377.261719 C 189.378906 377.910156 189.871094 378.234375 190.535156 378.234375 C 191.199219 378.234375 191.695312 377.910156 192.035156 377.261719 C 192.359375 376.609375 192.527344 375.636719 192.527344 374.335938 C 192.527344 373.035156 192.359375 372.058594 192.035156 371.410156 C 191.695312 370.757812 191.199219 370.433594 190.535156 370.433594 Z M 190.535156 369.417969 C 191.589844 369.417969 192.398438 369.847656 192.972656 370.679688 C 193.53125 371.527344 193.816406 372.75 193.816406 374.335938 C 193.816406 375.933594 193.53125 377.15625 192.972656 377.988281 C 192.398438 378.820312 191.589844 379.238281 190.523438 379.238281 C 189.457031 379.238281 188.648438 378.820312 188.089844 377.988281 C 187.527344 377.15625 187.253906 375.933594 187.253906 374.335938 C 187.253906 372.75 187.527344 371.527344 188.089844 370.679688 C 188.648438 369.847656 189.46875 369.417969 190.535156 369.417969 Z M 190.535156 369.417969 "/>
<path style="fill:none;stroke-width:0.8;stroke-linecap:butt;stroke-linejoin:round;stroke:rgb(0%,0%,0%);stroke-opacity:1;stroke-miterlimit:4;" d="M 189.366 266.984618 L 189.366 270.483859 " transform="matrix(1.302083,0,0,1.300505,0,12.875)"/>
<path style=" stroke:none;fill-rule:nonzero;fill:rgb(0%,0%,0%);fill-opacity:1;" d="M 243.574219 373.957031 C 244.1875 374.085938 244.667969 374.359375 245.007812 374.777344 C 245.34375 375.191406 245.527344 375.714844 245.527344 376.3125 C 245.527344 377.246094 245.203125 377.976562 244.5625 378.484375 C 243.914062 378.992188 243 379.238281 241.816406 379.238281 C 241.414062 379.238281 240.996094 379.199219 240.578125 379.121094 C 240.164062 379.054688 239.71875 378.9375 239.277344 378.78125 L 239.277344 377.546875 C 239.628906 377.753906 240.019531 377.910156 240.449219 378.015625 C 240.867188 378.121094 241.308594 378.171875 241.777344 378.171875 C 242.585938 378.171875 243.195312 378.015625 243.613281 377.703125 C 244.03125 377.390625 244.25 376.921875 244.25 376.3125 C 244.25 375.765625 244.054688 375.324219 243.664062 375.011719 C 243.273438 374.699219 242.726562 374.53125 242.023438 374.53125 L 240.917969 374.53125 L 240.917969 373.476562 L 242.078125 373.476562 C 242.703125 373.476562 243.183594 373.359375 243.523438 373.097656 C 243.859375 372.851562 244.03125 372.488281 244.03125 372.007812 C 244.03125 371.527344 243.847656 371.148438 243.507812 370.886719 C 243.15625 370.628906 242.664062 370.5 242.023438 370.5 C 241.671875 370.5 241.296875 370.539062 240.890625 370.617188 C 240.488281 370.691406 240.046875 370.808594 239.5625 370.964844 L 239.5625 369.820312 C 240.046875 369.691406 240.5 369.589844 240.929688 369.523438 C 241.347656 369.457031 241.75 369.417969 242.140625 369.417969 C 243.105469 369.417969 243.875 369.640625 244.445312 370.082031 C 245.019531 370.523438 245.304688 371.121094 245.304688 371.875 C 245.304688 372.398438 245.148438 372.839844 244.851562 373.203125 C 244.550781 373.566406 244.121094 373.828125 243.574219 373.957031 Z M 243.574219 373.957031 "/>
<path style=" stroke:none;fill-rule:nonzero;fill:rgb(0%,0%,0%);fill-opacity:1;" d="M 250.710938 370.433594 C 250.046875 370.433594 249.550781 370.757812 249.210938 371.410156 C 248.875 372.058594 248.71875 373.035156 248.71875 374.335938 C 248.71875 375.636719 248.875 376.609375 249.210938 377.261719 C 249.550781 377.910156 250.046875 378.234375 250.710938 378.234375 C 251.375 378.234375 251.867188 377.910156 252.207031 377.261719 C 252.53125 376.609375 252.703125 375.636719 252.703125 374.335938 C 252.703125 373.035156 252.53125 372.058594 252.207031 371.410156 C 251.867188 370.757812 251.375 370.433594 250.710938 370.433594 Z M 250.710938 369.417969 C 251.765625 369.417969 252.570312 369.847656 253.144531 370.679688 C 253.703125 371.527344 253.992188 372.75 253.992188 374.335938 C 253.992188 375.933594 253.703125 377.15625 253.144531 377.988281 C 252.570312 378.820312 251.765625 379.238281 250.695312 379.238281 C 249.628906 379.238281 248.820312 378.820312 248.261719 377.988281 C 247.703125 377.15625 247.429688 375.933594 247.429688 374.335938 C 247.429688 372.75 247.703125 371.527344 248.261719 370.679688 C 248.820312 369.847656 249.640625 369.417969 250.710938 369.417969 Z M 250.710938 369.417969 "/>
<path style="fill:none;stroke-width:0.8;stroke-linecap:butt;stroke-linejoin:round;stroke:rgb(0%,0%,0%);stroke-opacity:1;stroke-miterlimit:4;" d="M 235.578 266.984618 L 235.578 270.483859 " transform="matrix(1.302083,0,0,1.300505,0,12.875)"/>
<path style=" stroke:none;fill-rule:nonzero;fill:rgb(0%,0%,0%);fill-opacity:1;" d="M 303.382812 370.707031 L 300.140625 375.765625 L 303.382812 375.765625 Z M 303.042969 369.589844 L 304.660156 369.589844 L 304.660156 375.765625 L 306.011719 375.765625 L 306.011719 376.832031 L 304.660156 376.832031 L 304.660156 379.070312 L 303.382812 379.070312 L 303.382812 376.832031 L 299.097656 376.832031 L 299.097656 375.597656 Z M 303.042969 369.589844 "/>
<path style=" stroke:none;fill-rule:nonzero;fill:rgb(0%,0%,0%);fill-opacity:1;" d="M 310.882812 370.433594 C 310.21875 370.433594 309.722656 370.757812 309.386719 371.410156 C 309.046875 372.058594 308.890625 373.035156 308.890625 374.335938 C 308.890625 375.636719 309.046875 376.609375 309.386719 377.261719 C 309.722656 377.910156 310.21875 378.234375 310.882812 378.234375 C 311.546875 378.234375 312.042969 377.910156 312.378906 377.261719 C 312.707031 376.609375 312.875 375.636719 312.875 374.335938 C 312.875 373.035156 312.707031 372.058594 312.378906 371.410156 C 312.042969 370.757812 311.546875 370.433594 310.882812 370.433594 Z M 310.882812 369.417969 C 311.9375 369.417969 312.746094 369.847656 313.316406 370.679688 C 313.878906 371.527344 314.164062 372.75 314.164062 374.335938 C 314.164062 375.933594 313.878906 377.15625 313.316406 377.988281 C 312.746094 378.820312 311.9375 379.238281 310.871094 379.238281 C 309.800781 379.238281 308.996094 378.820312 308.433594 377.988281 C 307.875 377.15625 307.601562 375.933594 307.601562 374.335938 C 307.601562 372.75 307.875 371.527344 308.433594 370.679688 C 308.996094 369.847656 309.816406 369.417969 310.882812 369.417969 Z M 310.882812 369.417969 "/>
<path style="fill:none;stroke-width:0.8;stroke-linecap:butt;stroke-linejoin:round;stroke:rgb(0%,0%,0%);stroke-opacity:1;stroke-miterlimit:4;" d="M 281.79 266.984618 L 281.79 270.483859 " transform="matrix(1.302083,0,0,1.300505,0,12.875)"/>
<path style=" stroke:none;fill-rule:nonzero;fill:rgb(0%,0%,0%);fill-opacity:1;" d="M 360.039062 369.589844 L 365.078125 369.589844 L 365.078125 370.667969 L 361.210938 370.667969 L 361.210938 372.996094 C 361.394531 372.929688 361.589844 372.878906 361.773438 372.851562 C 361.953125 372.828125 362.148438 372.800781 362.332031 372.800781 C 363.386719 372.800781 364.21875 373.097656 364.84375 373.671875 C 365.46875 374.257812 365.78125 375.035156 365.78125 376.027344 C 365.78125 377.054688 365.457031 377.847656 364.820312 378.40625 C 364.179688 378.964844 363.28125 379.238281 362.136719 379.238281 C 361.734375 379.238281 361.328125 379.199219 360.914062 379.148438 C 360.496094 379.082031 360.078125 378.992188 359.636719 378.847656 L 359.636719 377.558594 C 360.015625 377.769531 360.40625 377.925781 360.820312 378.027344 C 361.226562 378.132812 361.65625 378.171875 362.109375 378.171875 C 362.839844 378.171875 363.425781 377.988281 363.855469 377.597656 C 364.273438 377.207031 364.492188 376.6875 364.492188 376.027344 C 364.492188 375.375 364.273438 374.855469 363.855469 374.464844 C 363.425781 374.074219 362.839844 373.878906 362.109375 373.878906 C 361.773438 373.878906 361.421875 373.917969 361.082031 373.996094 C 360.742188 374.074219 360.390625 374.191406 360.039062 374.347656 Z M 360.039062 369.589844 "/>
<path style=" stroke:none;fill-rule:nonzero;fill:rgb(0%,0%,0%);fill-opacity:1;" d="M 371.054688 370.433594 C 370.390625 370.433594 369.898438 370.757812 369.558594 371.410156 C 369.21875 372.058594 369.0625 373.035156 369.0625 374.335938 C 369.0625 375.636719 369.21875 376.609375 369.558594 377.261719 C 369.898438 377.910156 370.390625 378.234375 371.054688 378.234375 C 371.71875 378.234375 372.214844 377.910156 372.554688 377.261719 C 372.878906 376.609375 373.046875 375.636719 373.046875 374.335938 C 373.046875 373.035156 372.878906 372.058594 372.554688 371.410156 C 372.214844 370.757812 371.71875 370.433594 371.054688 370.433594 Z M 371.054688 369.417969 C 372.109375 369.417969 372.917969 369.847656 373.492188 370.679688 C 374.050781 371.527344 374.335938 372.75 374.335938 374.335938 C 374.335938 375.933594 374.050781 377.15625 373.492188 377.988281 C 372.917969 378.820312 372.109375 379.238281 371.042969 379.238281 C 369.976562 379.238281 369.167969 378.820312 368.609375 377.988281 C 368.046875 377.15625 367.773438 375.933594 367.773438 374.335938 C 367.773438 372.75 368.046875 371.527344 368.609375 370.679688 C 369.167969 369.847656 369.988281 369.417969 371.054688 369.417969 Z M 371.054688 369.417969 "/>
<path style=" stroke:none;fill-rule:nonzero;fill:rgb(0%,0%,0%);fill-opacity:1;" d="M 198.902344 387.367188 L 206.921875 387.367188 L 206.921875 388.449219 L 203.550781 388.449219 L 203.550781 396.847656 L 202.261719 396.847656 L 202.261719 388.449219 L 198.902344 388.449219 Z M 198.902344 387.367188 "/>
<path style=" stroke:none;fill-rule:nonzero;fill:rgb(0%,0%,0%);fill-opacity:1;" d="M 207.722656 389.734375 L 208.894531 389.734375 L 208.894531 396.847656 L 207.722656 396.847656 Z M 207.722656 386.964844 L 208.894531 386.964844 L 208.894531 388.449219 L 207.722656 388.449219 Z M 207.722656 386.964844 "/>
<path style=" stroke:none;fill-rule:nonzero;fill:rgb(0%,0%,0%);fill-opacity:1;" d="M 216.886719 391.101562 C 217.175781 390.582031 217.527344 390.203125 217.929688 389.945312 C 218.332031 389.695312 218.816406 389.566406 219.375 389.566406 C 220.105469 389.566406 220.675781 389.828125 221.082031 390.347656 C 221.484375 390.867188 221.691406 391.609375 221.691406 392.558594 L 221.691406 396.847656 L 220.519531 396.847656 L 220.519531 392.597656 C 220.519531 391.921875 220.390625 391.414062 220.15625 391.074219 C 219.910156 390.75 219.542969 390.582031 219.050781 390.582031 C 218.4375 390.582031 217.957031 390.789062 217.605469 391.191406 C 217.253906 391.59375 217.082031 392.140625 217.082031 392.832031 L 217.082031 396.847656 L 215.910156 396.847656 L 215.910156 392.597656 C 215.910156 391.921875 215.78125 391.414062 215.546875 391.074219 C 215.300781 390.75 214.921875 390.582031 214.425781 390.582031 C 213.828125 390.582031 213.347656 390.789062 212.996094 391.191406 C 212.644531 391.59375 212.472656 392.140625 212.472656 392.832031 L 212.472656 396.847656 L 211.300781 396.847656 L 211.300781 389.734375 L 212.472656 389.734375 L 212.472656 390.839844 C 212.734375 390.410156 213.058594 390.085938 213.4375 389.878906 C 213.800781 389.671875 214.246094 389.566406 214.765625 389.566406 C 215.285156 389.566406 215.714844 389.695312 216.082031 389.957031 C 216.445312 390.214844 216.707031 390.605469 216.886719 391.101562 Z M 216.886719 391.101562 "/>
<path style=" stroke:none;fill-rule:nonzero;fill:rgb(0%,0%,0%);fill-opacity:1;" d="M 230.117188 393 L 230.117188 393.570312 L 224.738281 393.570312 C 224.792969 394.378906 225.027344 395.003906 225.46875 395.417969 C 225.898438 395.835938 226.496094 396.042969 227.277344 396.042969 C 227.722656 396.042969 228.164062 395.992188 228.582031 395.886719 C 228.996094 395.78125 229.425781 395.613281 229.84375 395.378906 L 229.84375 396.484375 C 229.425781 396.667969 228.996094 396.808594 228.554688 396.886719 C 228.113281 396.964844 227.65625 397.019531 227.214844 397.019531 C 226.066406 397.019531 225.167969 396.691406 224.503906 396.042969 C 223.839844 395.390625 223.515625 394.496094 223.515625 393.363281 C 223.515625 392.207031 223.828125 391.28125 224.453125 390.59375 C 225.078125 389.917969 225.9375 389.566406 227.003906 389.566406 C 227.96875 389.566406 228.722656 389.878906 229.285156 390.488281 C 229.832031 391.113281 230.117188 391.945312 230.117188 393 Z M 228.945312 392.660156 C 228.933594 392.023438 228.75 391.515625 228.410156 391.125 C 228.058594 390.75 227.589844 390.554688 227.019531 390.554688 C 226.367188 390.554688 225.847656 390.75 225.457031 391.113281 C 225.066406 391.476562 224.832031 392 224.777344 392.660156 Z M 228.945312 392.660156 "/>
<path style=" stroke:none;fill-rule:nonzero;fill:rgb(0%,0%,0%);fill-opacity:1;" d="M 236.066406 386.964844 L 238.761719 386.964844 L 238.761719 387.875 L 237.238281 387.875 L 237.238281 397.640625 L 238.761719 397.640625 L 238.761719 398.554688 L 236.066406 398.554688 Z M 236.066406 386.964844 "/>
<path style=" stroke:none;fill-rule:nonzero;fill:rgb(0%,0%,0%);fill-opacity:1;" d="M 245.792969 389.945312 L 245.792969 391.050781 C 245.457031 390.894531 245.117188 390.761719 244.765625 390.671875 C 244.402344 390.59375 244.035156 390.542969 243.660156 390.542969 C 243.074219 390.542969 242.628906 390.632812 242.34375 390.816406 C 242.058594 390.996094 241.914062 391.257812 241.914062 391.609375 C 241.914062 391.882812 242.019531 392.089844 242.226562 392.246094 C 242.433594 392.402344 242.851562 392.558594 243.476562 392.6875 L 243.878906 392.777344 C 244.714844 392.960938 245.300781 393.222656 245.652344 393.53125 C 245.988281 393.859375 246.171875 394.3125 246.171875 394.886719 C 246.171875 395.546875 245.910156 396.070312 245.390625 396.445312 C 244.871094 396.835938 244.140625 397.019531 243.230469 397.019531 C 242.839844 397.019531 242.449219 396.980469 242.03125 396.914062 C 241.613281 396.847656 241.183594 396.746094 240.730469 396.589844 L 240.730469 395.378906 C 241.160156 395.613281 241.589844 395.78125 242.003906 395.886719 C 242.421875 396.003906 242.839844 396.054688 243.253906 396.054688 C 243.800781 396.054688 244.230469 395.964844 244.53125 395.78125 C 244.816406 395.601562 244.972656 395.328125 244.972656 394.976562 C 244.972656 394.664062 244.855469 394.417969 244.648438 394.25 C 244.441406 394.078125 243.972656 393.910156 243.242188 393.753906 L 242.839844 393.664062 C 242.109375 393.507812 241.574219 393.273438 241.261719 392.960938 C 240.9375 392.648438 240.78125 392.21875 240.78125 391.660156 C 240.78125 390.996094 241.015625 390.476562 241.484375 390.113281 C 241.953125 389.75 242.628906 389.566406 243.515625 389.566406 C 243.945312 389.566406 244.347656 389.605469 244.738281 389.671875 C 245.117188 389.734375 245.46875 389.828125 245.792969 389.945312 Z M 245.792969 389.945312 "/>
<path style=" stroke:none;fill-rule:nonzero;fill:rgb(0%,0%,0%);fill-opacity:1;" d="M 250.769531 386.964844 L 250.769531 398.554688 L 248.074219 398.554688 L 248.074219 397.640625 L 249.597656 397.640625 L 249.597656 387.875 L 248.074219 387.875 L 248.074219 386.964844 Z M 250.769531 386.964844 "/>
<path style="fill:none;stroke-width:0.8;stroke-linecap:butt;stroke-linejoin:round;stroke:rgb(0%,0%,0%);stroke-opacity:1;stroke-miterlimit:4;" d="M 40.104 236.203307 L 36.603 236.203307 " transform="matrix(1.302083,0,0,1.300505,0,12.875)"/>
<path style=" stroke:none;fill-rule:nonzero;fill:rgb(0%,0%,0%);fill-opacity:1;" d="M 29.042969 323.917969 L 33.523438 323.917969 L 33.523438 324.996094 L 27.492188 324.996094 L 27.492188 323.917969 C 27.976562 323.421875 28.640625 322.746094 29.484375 321.886719 C 30.320312 321.042969 30.851562 320.496094 31.074219 320.25 C 31.492188 319.792969 31.777344 319.402344 31.933594 319.078125 C 32.089844 318.765625 32.179688 318.441406 32.179688 318.128906 C 32.179688 317.636719 32 317.21875 31.648438 316.90625 C 31.296875 316.59375 30.839844 316.425781 30.265625 316.425781 C 29.863281 316.425781 29.433594 316.503906 28.992188 316.632812 C 28.546875 316.777344 28.066406 316.984375 27.558594 317.269531 L 27.558594 315.972656 C 28.078125 315.761719 28.5625 315.605469 29.003906 315.503906 C 29.445312 315.398438 29.863281 315.347656 30.242188 315.347656 C 31.21875 315.347656 32 315.59375 32.585938 316.085938 C 33.171875 316.582031 33.46875 317.230469 33.46875 318.050781 C 33.46875 318.441406 33.390625 318.820312 33.25 319.15625 C 33.105469 319.507812 32.84375 319.925781 32.453125 320.390625 C 32.351562 320.523438 32.011719 320.875 31.4375 321.457031 C 30.867188 322.042969 30.070312 322.863281 29.042969 323.917969 Z M 29.042969 323.917969 "/>
<path style=" stroke:none;fill-rule:nonzero;fill:rgb(0%,0%,0%);fill-opacity:1;" d="M 36.230469 315.515625 L 41.269531 315.515625 L 41.269531 316.59375 L 37.402344 316.59375 L 37.402344 318.921875 C 37.585938 318.859375 37.78125 318.804688 37.960938 318.78125 C 38.144531 318.753906 38.339844 318.726562 38.523438 318.726562 C 39.578125 318.726562 40.410156 319.027344 41.035156 319.597656 C 41.660156 320.183594 41.972656 320.964844 41.972656 321.953125 C 41.972656 322.980469 41.648438 323.773438 41.007812 324.332031 C 40.371094 324.890625 39.472656 325.164062 38.328125 325.164062 C 37.921875 325.164062 37.519531 325.125 37.101562 325.074219 C 36.6875 325.007812 36.269531 324.917969 35.828125 324.773438 L 35.828125 323.488281 C 36.203125 323.695312 36.59375 323.851562 37.011719 323.957031 C 37.414062 324.058594 37.84375 324.097656 38.300781 324.097656 C 39.03125 324.097656 39.617188 323.917969 40.046875 323.527344 C 40.460938 323.136719 40.683594 322.617188 40.683594 321.953125 C 40.683594 321.304688 40.460938 320.78125 40.046875 320.390625 C 39.617188 320.003906 39.03125 319.808594 38.300781 319.808594 C 37.960938 319.808594 37.609375 319.847656 37.273438 319.925781 C 36.933594 320.003906 36.582031 320.121094 36.230469 320.273438 Z M 36.230469 315.515625 "/>
<path style="fill:none;stroke-width:0.8;stroke-linecap:butt;stroke-linejoin:round;stroke:rgb(0%,0%,0%);stroke-opacity:1;stroke-miterlimit:4;" d="M 40.104 202.52949 L 36.603 202.52949 " transform="matrix(1.302083,0,0,1.300505,0,12.875)"/>
<path style=" stroke:none;fill-rule:nonzero;fill:rgb(0%,0%,0%);fill-opacity:1;" d="M 27.949219 271.726562 L 32.988281 271.726562 L 32.988281 272.804688 L 29.121094 272.804688 L 29.121094 275.132812 C 29.304688 275.066406 29.5 275.015625 29.679688 274.988281 C 29.863281 274.964844 30.058594 274.9375 30.242188 274.9375 C 31.296875 274.9375 32.128906 275.234375 32.753906 275.808594 C 33.378906 276.394531 33.691406 277.175781 33.691406 278.164062 C 33.691406 279.191406 33.367188 279.984375 32.726562 280.542969 C 32.089844 281.101562 31.191406 281.375 30.046875 281.375 C 29.640625 281.375 29.238281 281.335938 28.820312 281.285156 C 28.40625 281.21875 27.988281 281.128906 27.546875 280.984375 L 27.546875 279.695312 C 27.921875 279.90625 28.3125 280.0625 28.730469 280.164062 C 29.132812 280.269531 29.5625 280.308594 30.019531 280.308594 C 30.75 280.308594 31.335938 280.125 31.765625 279.734375 C 32.179688 279.347656 32.402344 278.824219 32.402344 278.164062 C 32.402344 277.511719 32.179688 276.992188 31.765625 276.601562 C 31.335938 276.210938 30.75 276.015625 30.019531 276.015625 C 29.679688 276.015625 29.328125 276.054688 28.992188 276.132812 C 28.652344 276.210938 28.300781 276.328125 27.949219 276.484375 Z M 27.949219 271.726562 "/>
<path style=" stroke:none;fill-rule:nonzero;fill:rgb(0%,0%,0%);fill-opacity:1;" d="M 38.964844 272.570312 C 38.300781 272.570312 37.804688 272.894531 37.46875 273.546875 C 37.128906 274.195312 36.972656 275.171875 36.972656 276.472656 C 36.972656 277.773438 37.128906 278.746094 37.46875 279.398438 C 37.804688 280.046875 38.300781 280.375 38.964844 280.375 C 39.628906 280.375 40.125 280.046875 40.460938 279.398438 C 40.789062 278.746094 40.957031 277.773438 40.957031 276.472656 C 40.957031 275.171875 40.789062 274.195312 40.460938 273.546875 C 40.125 272.894531 39.628906 272.570312 38.964844 272.570312 Z M 38.964844 271.554688 C 40.019531 271.554688 40.828125 271.984375 41.398438 272.816406 C 41.960938 273.664062 42.246094 274.886719 42.246094 276.472656 C 42.246094 278.070312 41.960938 279.292969 41.398438 280.125 C 40.828125 280.957031 40.019531 281.375 38.953125 281.375 C 37.882812 281.375 37.078125 280.957031 36.515625 280.125 C 35.957031 279.292969 35.683594 278.070312 35.683594 276.472656 C 35.683594 274.886719 35.957031 273.664062 36.515625 272.816406 C 37.078125 271.984375 37.898438 271.554688 38.964844 271.554688 Z M 38.964844 271.554688 "/>
<path style="fill:none;stroke-width:0.8;stroke-linecap:butt;stroke-linejoin:round;stroke:rgb(0%,0%,0%);stroke-opacity:1;stroke-miterlimit:4;" d="M 40.104 168.858677 L 36.603 168.858677 " transform="matrix(1.302083,0,0,1.300505,0,12.875)"/>
<path style=" stroke:none;fill-rule:nonzero;fill:rgb(0%,0%,0%);fill-opacity:1;" d="M 27.609375 227.933594 L 33.71875 227.933594 L 33.71875 228.480469 L 30.265625 237.414062 L 28.925781 237.414062 L 32.167969 229.015625 L 27.609375 229.015625 Z M 27.609375 227.933594 "/>
<path style=" stroke:none;fill-rule:nonzero;fill:rgb(0%,0%,0%);fill-opacity:1;" d="M 36.230469 227.933594 L 41.269531 227.933594 L 41.269531 229.015625 L 37.402344 229.015625 L 37.402344 231.339844 C 37.585938 231.277344 37.78125 231.222656 37.960938 231.199219 C 38.144531 231.171875 38.339844 231.148438 38.523438 231.148438 C 39.578125 231.148438 40.410156 231.445312 41.035156 232.019531 C 41.660156 232.601562 41.972656 233.382812 41.972656 234.371094 C 41.972656 235.398438 41.648438 236.191406 41.007812 236.75 C 40.371094 237.3125 39.472656 237.585938 38.328125 237.585938 C 37.921875 237.585938 37.519531 237.546875 37.101562 237.492188 C 36.6875 237.429688 36.269531 237.335938 35.828125 237.195312 L 35.828125 235.90625 C 36.203125 236.113281 36.59375 236.269531 37.011719 236.375 C 37.414062 236.480469 37.84375 236.519531 38.300781 236.519531 C 39.03125 236.519531 39.617188 236.335938 40.046875 235.945312 C 40.460938 235.554688 40.683594 235.035156 40.683594 234.371094 C 40.683594 233.722656 40.460938 233.203125 40.046875 232.8125 C 39.617188 232.421875 39.03125 232.226562 38.300781 232.226562 C 37.960938 232.226562 37.609375 232.265625 37.273438 232.34375 C 36.933594 232.421875 36.582031 232.539062 36.230469 232.695312 Z M 36.230469 227.933594 "/>
<path style="fill:none;stroke-width:0.8;stroke-linecap:butt;stroke-linejoin:round;stroke:rgb(0%,0%,0%);stroke-opacity:1;stroke-miterlimit:4;" d="M 40.104 135.187864 L 36.603 135.187864 " transform="matrix(1.302083,0,0,1.300505,0,12.875)"/>
<path style=" stroke:none;fill-rule:nonzero;fill:rgb(0%,0%,0%);fill-opacity:1;" d="M 19.878906 192.546875 L 21.972656 192.546875 L 21.972656 185.3125 L 19.695312 185.769531 L 19.695312 184.597656 L 21.960938 184.144531 L 23.25 184.144531 L 23.25 192.546875 L 25.347656 192.546875 L 25.347656 193.625 L 19.878906 193.625 Z M 19.878906 192.546875 "/>
<path style=" stroke:none;fill-rule:nonzero;fill:rgb(0%,0%,0%);fill-opacity:1;" d="M 30.683594 184.988281 C 30.019531 184.988281 29.527344 185.3125 29.1875 185.964844 C 28.847656 186.613281 28.691406 187.589844 28.691406 188.890625 C 28.691406 190.191406 28.847656 191.167969 29.1875 191.816406 C 29.527344 192.46875 30.019531 192.792969 30.683594 192.792969 C 31.347656 192.792969 31.84375 192.46875 32.183594 191.816406 C 32.507812 191.167969 32.675781 190.191406 32.675781 188.890625 C 32.675781 187.589844 32.507812 186.613281 32.183594 185.964844 C 31.84375 185.3125 31.347656 184.988281 30.683594 184.988281 Z M 30.683594 183.976562 C 31.738281 183.976562 32.546875 184.402344 33.121094 185.234375 C 33.679688 186.082031 33.964844 187.304688 33.964844 188.890625 C 33.964844 190.488281 33.679688 191.710938 33.121094 192.546875 C 32.546875 193.378906 31.738281 193.792969 30.671875 193.792969 C 29.605469 193.792969 28.796875 193.378906 28.238281 192.546875 C 27.675781 191.710938 27.402344 190.488281 27.402344 188.890625 C 27.402344 187.304688 27.675781 186.082031 28.238281 185.234375 C 28.796875 184.402344 29.617188 183.976562 30.683594 183.976562 Z M 30.683594 183.976562 "/>
<path style=" stroke:none;fill-rule:nonzero;fill:rgb(0%,0%,0%);fill-opacity:1;" d="M 38.964844 184.988281 C 38.300781 184.988281 37.808594 185.3125 37.46875 185.964844 C 37.128906 186.613281 36.972656 187.589844 36.972656 188.890625 C 36.972656 190.191406 37.128906 191.167969 37.46875 191.816406 C 37.808594 192.46875 38.300781 192.792969 38.964844 192.792969 C 39.628906 192.792969 40.125 192.46875 40.464844 191.816406 C 40.789062 191.167969 40.957031 190.191406 40.957031 188.890625 C 40.957031 187.589844 40.789062 186.613281 40.464844 185.964844 C 40.125 185.3125 39.628906 184.988281 38.964844 184.988281 Z M 38.964844 183.976562 C 40.019531 183.976562 40.828125 184.402344 41.402344 185.234375 C 41.960938 186.082031 42.246094 187.304688 42.246094 188.890625 C 42.246094 190.488281 41.960938 191.710938 41.402344 192.546875 C 40.828125 193.378906 40.019531 193.792969 38.953125 193.792969 C 37.886719 193.792969 37.078125 193.378906 36.519531 192.546875 C 35.957031 191.710938 35.683594 190.488281 35.683594 188.890625 C 35.683594 187.304688 35.957031 186.082031 36.519531 185.234375 C 37.078125 184.402344 37.898438 183.976562 38.964844 183.976562 Z M 38.964844 183.976562 "/>
<path style="fill:none;stroke-width:0.8;stroke-linecap:butt;stroke-linejoin:round;stroke:rgb(0%,0%,0%);stroke-opacity:1;stroke-miterlimit:4;" d="M 40.104 101.517051 L 36.603 101.517051 " transform="matrix(1.302083,0,0,1.300505,0,12.875)"/>
<path style=" stroke:none;fill-rule:nonzero;fill:rgb(0%,0%,0%);fill-opacity:1;" d="M 19.878906 148.753906 L 21.972656 148.753906 L 21.972656 141.523438 L 19.695312 141.980469 L 19.695312 140.808594 L 21.960938 140.355469 L 23.25 140.355469 L 23.25 148.753906 L 25.347656 148.753906 L 25.347656 149.835938 L 19.878906 149.835938 Z M 19.878906 148.753906 "/>
<path style=" stroke:none;fill-rule:nonzero;fill:rgb(0%,0%,0%);fill-opacity:1;" d="M 29.042969 148.753906 L 33.523438 148.753906 L 33.523438 149.835938 L 27.496094 149.835938 L 27.496094 148.753906 C 27.976562 148.261719 28.640625 147.585938 29.488281 146.726562 C 30.320312 145.882812 30.855469 145.335938 31.074219 145.089844 C 31.492188 144.632812 31.777344 144.242188 31.933594 143.917969 C 32.089844 143.605469 32.183594 143.28125 32.183594 142.96875 C 32.183594 142.472656 32 142.058594 31.648438 141.746094 C 31.296875 141.433594 30.839844 141.265625 30.269531 141.265625 C 29.863281 141.265625 29.433594 141.34375 28.992188 141.472656 C 28.550781 141.617188 28.066406 141.824219 27.558594 142.109375 L 27.558594 140.808594 C 28.082031 140.601562 28.5625 140.445312 29.003906 140.339844 C 29.449219 140.238281 29.863281 140.183594 30.242188 140.183594 C 31.21875 140.183594 32 140.433594 32.585938 140.925781 C 33.171875 141.421875 33.472656 142.070312 33.472656 142.890625 C 33.472656 143.28125 33.394531 143.65625 33.25 143.996094 C 33.105469 144.347656 32.847656 144.761719 32.457031 145.230469 C 32.351562 145.363281 32.011719 145.710938 31.441406 146.296875 C 30.867188 146.882812 30.074219 147.703125 29.042969 148.753906 Z M 29.042969 148.753906 "/>
<path style=" stroke:none;fill-rule:nonzero;fill:rgb(0%,0%,0%);fill-opacity:1;" d="M 36.230469 140.355469 L 41.269531 140.355469 L 41.269531 141.433594 L 37.402344 141.433594 L 37.402344 143.761719 C 37.585938 143.695312 37.78125 143.644531 37.964844 143.617188 C 38.144531 143.59375 38.339844 143.566406 38.523438 143.566406 C 39.578125 143.566406 40.410156 143.867188 41.035156 144.4375 C 41.660156 145.023438 41.972656 145.804688 41.972656 146.792969 C 41.972656 147.820312 41.648438 148.613281 41.011719 149.171875 C 40.371094 149.730469 39.472656 150.003906 38.328125 150.003906 C 37.925781 150.003906 37.519531 149.964844 37.105469 149.914062 C 36.6875 149.847656 36.269531 149.757812 35.828125 149.613281 L 35.828125 148.328125 C 36.207031 148.535156 36.597656 148.691406 37.011719 148.792969 C 37.417969 148.898438 37.847656 148.9375 38.300781 148.9375 C 39.03125 148.9375 39.617188 148.753906 40.046875 148.367188 C 40.464844 147.976562 40.683594 147.457031 40.683594 146.792969 C 40.683594 146.140625 40.464844 145.621094 40.046875 145.230469 C 39.617188 144.839844 39.03125 144.644531 38.300781 144.644531 C 37.964844 144.644531 37.613281 144.683594 37.273438 144.761719 C 36.933594 144.839844 36.582031 144.957031 36.230469 145.113281 Z M 36.230469 140.355469 "/>
<path style="fill:none;stroke-width:0.8;stroke-linecap:butt;stroke-linejoin:round;stroke:rgb(0%,0%,0%);stroke-opacity:1;stroke-miterlimit:4;" d="M 40.104 67.843234 L 36.603 67.843234 " transform="matrix(1.302083,0,0,1.300505,0,12.875)"/>
<path style=" stroke:none;fill-rule:nonzero;fill:rgb(0%,0%,0%);fill-opacity:1;" d="M 19.878906 104.964844 L 21.972656 104.964844 L 21.972656 97.734375 L 19.695312 98.1875 L 19.695312 97.019531 L 21.960938 96.5625 L 23.25 96.5625 L 23.25 104.964844 L 25.347656 104.964844 L 25.347656 106.042969 L 19.878906 106.042969 Z M 19.878906 104.964844 "/>
<path style=" stroke:none;fill-rule:nonzero;fill:rgb(0%,0%,0%);fill-opacity:1;" d="M 27.949219 96.5625 L 32.988281 96.5625 L 32.988281 97.644531 L 29.121094 97.644531 L 29.121094 99.972656 C 29.304688 99.90625 29.5 99.855469 29.683594 99.828125 C 29.863281 99.800781 30.058594 99.777344 30.242188 99.777344 C 31.296875 99.777344 32.128906 100.074219 32.753906 100.648438 C 33.378906 101.234375 33.691406 102.011719 33.691406 103 C 33.691406 104.027344 33.367188 104.820312 32.730469 105.382812 C 32.089844 105.941406 31.191406 106.214844 30.046875 106.214844 C 29.644531 106.214844 29.238281 106.175781 28.824219 106.121094 C 28.40625 106.058594 27.988281 105.964844 27.546875 105.824219 L 27.546875 104.535156 C 27.925781 104.742188 28.316406 104.898438 28.730469 105.003906 C 29.136719 105.109375 29.566406 105.148438 30.019531 105.148438 C 30.75 105.148438 31.335938 104.964844 31.765625 104.574219 C 32.183594 104.183594 32.402344 103.664062 32.402344 103 C 32.402344 102.351562 32.183594 101.832031 31.765625 101.441406 C 31.335938 101.050781 30.75 100.855469 30.019531 100.855469 C 29.683594 100.855469 29.332031 100.894531 28.992188 100.972656 C 28.652344 101.050781 28.300781 101.167969 27.949219 101.324219 Z M 27.949219 96.5625 "/>
<path style=" stroke:none;fill-rule:nonzero;fill:rgb(0%,0%,0%);fill-opacity:1;" d="M 38.964844 97.410156 C 38.300781 97.410156 37.808594 97.734375 37.46875 98.382812 C 37.128906 99.035156 36.972656 100.011719 36.972656 101.3125 C 36.972656 102.609375 37.128906 103.585938 37.46875 104.238281 C 37.808594 104.886719 38.300781 105.210938 38.964844 105.210938 C 39.628906 105.210938 40.125 104.886719 40.464844 104.238281 C 40.789062 103.585938 40.957031 102.609375 40.957031 101.3125 C 40.957031 100.011719 40.789062 99.035156 40.464844 98.382812 C 40.125 97.734375 39.628906 97.410156 38.964844 97.410156 Z M 38.964844 96.394531 C 40.019531 96.394531 40.828125 96.824219 41.402344 97.65625 C 41.960938 98.5 42.246094 99.722656 42.246094 101.3125 C 42.246094 102.910156 41.960938 104.132812 41.402344 104.964844 C 40.828125 105.796875 40.019531 106.214844 38.953125 106.214844 C 37.886719 106.214844 37.078125 105.796875 36.519531 104.964844 C 35.957031 104.132812 35.683594 102.910156 35.683594 101.3125 C 35.683594 99.722656 35.957031 98.5 36.519531 97.65625 C 37.078125 96.824219 37.898438 96.394531 38.964844 96.394531 Z M 38.964844 96.394531 "/>
<path style="fill:none;stroke-width:0.8;stroke-linecap:butt;stroke-linejoin:round;stroke:rgb(0%,0%,0%);stroke-opacity:1;stroke-miterlimit:4;" d="M 40.104 34.172421 L 36.603 34.172421 " transform="matrix(1.302083,0,0,1.300505,0,12.875)"/>
<path style=" stroke:none;fill-rule:nonzero;fill:rgb(0%,0%,0%);fill-opacity:1;" d="M 19.878906 61.175781 L 21.972656 61.175781 L 21.972656 53.945312 L 19.695312 54.398438 L 19.695312 53.230469 L 21.960938 52.773438 L 23.25 52.773438 L 23.25 61.175781 L 25.347656 61.175781 L 25.347656 62.253906 L 19.878906 62.253906 Z M 19.878906 61.175781 "/>
<path style=" stroke:none;fill-rule:nonzero;fill:rgb(0%,0%,0%);fill-opacity:1;" d="M 27.613281 52.773438 L 33.71875 52.773438 L 33.71875 53.320312 L 30.269531 62.253906 L 28.925781 62.253906 L 32.167969 53.855469 L 27.613281 53.855469 Z M 27.613281 52.773438 "/>
<path style=" stroke:none;fill-rule:nonzero;fill:rgb(0%,0%,0%);fill-opacity:1;" d="M 36.230469 52.773438 L 41.269531 52.773438 L 41.269531 53.855469 L 37.402344 53.855469 L 37.402344 56.183594 C 37.585938 56.117188 37.78125 56.066406 37.964844 56.039062 C 38.144531 56.011719 38.339844 55.988281 38.523438 55.988281 C 39.578125 55.988281 40.410156 56.285156 41.035156 56.859375 C 41.660156 57.441406 41.972656 58.222656 41.972656 59.210938 C 41.972656 60.238281 41.648438 61.03125 41.011719 61.59375 C 40.371094 62.152344 39.472656 62.425781 38.328125 62.425781 C 37.925781 62.425781 37.519531 62.386719 37.105469 62.332031 C 36.6875 62.269531 36.269531 62.175781 35.828125 62.035156 L 35.828125 60.746094 C 36.207031 60.953125 36.597656 61.109375 37.011719 61.214844 C 37.417969 61.320312 37.847656 61.359375 38.300781 61.359375 C 39.03125 61.359375 39.617188 61.175781 40.046875 60.785156 C 40.464844 60.394531 40.683594 59.875 40.683594 59.210938 C 40.683594 58.5625 40.464844 58.042969 40.046875 57.652344 C 39.617188 57.261719 39.03125 57.066406 38.300781 57.066406 C 37.964844 57.066406 37.613281 57.105469 37.273438 57.183594 C 36.933594 57.261719 36.582031 57.378906 36.230469 57.535156 Z M 36.230469 52.773438 "/>
<path style=" stroke:none;fill-rule:nonzero;fill:rgb(0%,0%,0%);fill-opacity:1;" d="M 1.910156 226.429688 L 9.292969 226.429688 L 9.292969 224.878906 C 9.292969 223.582031 9.007812 222.617188 8.410156 222.007812 C 7.808594 221.410156 6.871094 221.097656 5.597656 221.097656 C 4.320312 221.097656 3.394531 221.410156 2.796875 222.007812 C 2.210938 222.617188 1.910156 223.582031 1.910156 224.878906 Z M 0.855469 227.714844 L 0.855469 225.074219 C 0.855469 223.242188 1.246094 221.890625 2.003906 221.03125 C 2.769531 220.171875 3.96875 219.742188 5.597656 219.742188 C 7.238281 219.742188 8.433594 220.1875 9.203125 221.042969 C 9.972656 221.902344 10.347656 223.253906 10.347656 225.074219 L 10.347656 227.714844 Z M 0.855469 227.714844 "/>
<path style=" stroke:none;fill-rule:nonzero;fill:rgb(0%,0%,0%);fill-opacity:1;" d="M 3.226562 217.753906 L 3.226562 216.582031 L 10.347656 216.582031 L 10.347656 217.753906 Z M 0.453125 217.753906 L 0.453125 216.582031 L 1.9375 216.582031 L 1.9375 217.753906 Z M 0.453125 217.753906 "/>
<path style=" stroke:none;fill-rule:nonzero;fill:rgb(0%,0%,0%);fill-opacity:1;" d="M 3.433594 209.601562 L 4.542969 209.601562 C 4.386719 209.9375 4.253906 210.277344 4.164062 210.628906 C 4.085938 210.992188 4.035156 211.355469 4.035156 211.734375 C 4.035156 212.316406 4.125 212.761719 4.308594 213.046875 C 4.488281 213.332031 4.75 213.476562 5.101562 213.476562 C 5.375 213.476562 5.582031 213.371094 5.738281 213.164062 C 5.894531 212.957031 6.050781 212.539062 6.183594 211.914062 L 6.273438 211.511719 C 6.457031 210.679688 6.714844 210.09375 7.027344 209.742188 C 7.355469 209.40625 7.808594 209.222656 8.382812 209.222656 C 9.046875 209.222656 9.566406 209.484375 9.945312 210.003906 C 10.335938 210.523438 10.519531 211.25 10.519531 212.160156 C 10.519531 212.550781 10.480469 212.941406 10.414062 213.359375 C 10.347656 213.773438 10.246094 214.203125 10.089844 214.660156 L 8.878906 214.660156 C 9.113281 214.230469 9.28125 213.800781 9.386719 213.382812 C 9.503906 212.96875 9.554688 212.550781 9.554688 212.136719 C 9.554688 211.589844 9.464844 211.160156 9.28125 210.859375 C 9.097656 210.574219 8.824219 210.417969 8.472656 210.417969 C 8.160156 210.417969 7.914062 210.535156 7.746094 210.746094 C 7.574219 210.953125 7.40625 211.421875 7.25 212.148438 L 7.160156 212.550781 C 7.003906 213.28125 6.769531 213.8125 6.457031 214.125 C 6.144531 214.449219 5.714844 214.605469 5.152344 214.605469 C 4.488281 214.605469 3.96875 214.371094 3.605469 213.90625 C 3.238281 213.4375 3.058594 212.761719 3.058594 211.875 C 3.058594 211.445312 3.097656 211.042969 3.160156 210.652344 C 3.226562 210.277344 3.316406 209.925781 3.433594 209.601562 Z M 3.433594 209.601562 "/>
<path style=" stroke:none;fill-rule:nonzero;fill:rgb(0%,0%,0%);fill-opacity:1;" d="M 1.207031 206.207031 L 3.226562 206.207031 L 3.226562 203.800781 L 4.136719 203.800781 L 4.136719 206.207031 L 8.003906 206.207031 C 8.589844 206.207031 8.96875 206.128906 9.125 205.972656 C 9.292969 205.816406 9.371094 205.488281 9.371094 204.996094 L 9.371094 203.800781 L 10.347656 203.800781 L 10.347656 204.996094 C 10.347656 205.90625 10.179688 206.53125 9.839844 206.867188 C 9.503906 207.207031 8.890625 207.375 8.003906 207.375 L 4.136719 207.375 L 4.136719 208.234375 L 3.226562 208.234375 L 3.226562 207.375 L 1.207031 207.375 Z M 1.207031 206.207031 "/>
<path style=" stroke:none;fill-rule:nonzero;fill:rgb(0%,0%,0%);fill-opacity:1;" d="M 6.769531 199.027344 C 6.769531 199.976562 6.886719 200.625 7.09375 200.992188 C 7.316406 201.355469 7.679688 201.535156 8.199219 201.535156 C 8.617188 201.535156 8.957031 201.40625 9.191406 201.132812 C 9.4375 200.859375 9.554688 200.484375 9.554688 200.015625 C 9.554688 199.363281 9.332031 198.84375 8.863281 198.453125 C 8.410156 198.0625 7.796875 197.871094 7.027344 197.871094 L 6.769531 197.871094 Z M 6.285156 196.699219 L 10.347656 196.699219 L 10.347656 197.871094 L 9.269531 197.871094 C 9.710938 198.140625 10.023438 198.480469 10.21875 198.871094 C 10.414062 199.261719 10.519531 199.753906 10.519531 200.328125 C 10.519531 201.054688 10.324219 201.640625 9.917969 202.070312 C 9.515625 202.5 8.96875 202.707031 8.277344 202.707031 C 7.484375 202.707031 6.886719 202.445312 6.46875 201.902344 C 6.066406 201.367188 5.855469 200.574219 5.855469 199.507812 L 5.855469 197.871094 L 5.738281 197.871094 C 5.207031 197.871094 4.789062 198.050781 4.488281 198.402344 C 4.203125 198.753906 4.046875 199.246094 4.046875 199.886719 C 4.046875 200.300781 4.097656 200.691406 4.203125 201.082031 C 4.308594 201.472656 4.449219 201.835938 4.632812 202.1875 L 3.550781 202.1875 C 3.394531 201.769531 3.265625 201.355469 3.1875 200.953125 C 3.109375 200.546875 3.058594 200.15625 3.058594 199.769531 C 3.058594 198.742188 3.332031 197.972656 3.863281 197.464844 C 4.398438 196.957031 5.207031 196.699219 6.285156 196.699219 Z M 6.285156 196.699219 "/>
<path style=" stroke:none;fill-rule:nonzero;fill:rgb(0%,0%,0%);fill-opacity:1;" d="M 6.050781 188.375 L 10.347656 188.375 L 10.347656 189.546875 L 6.089844 189.546875 C 5.414062 189.546875 4.917969 189.6875 4.582031 189.949219 C 4.242188 190.210938 4.074219 190.597656 4.074219 191.121094 C 4.074219 191.757812 4.28125 192.25 4.683594 192.613281 C 5.089844 192.980469 5.636719 193.160156 6.324219 193.160156 L 10.347656 193.160156 L 10.347656 194.332031 L 3.226562 194.332031 L 3.226562 193.160156 L 4.332031 193.160156 C 3.917969 192.886719 3.589844 192.5625 3.382812 192.171875 C 3.175781 191.796875 3.058594 191.355469 3.058594 190.859375 C 3.058594 190.054688 3.316406 189.429688 3.824219 189.011719 C 4.332031 188.597656 5.074219 188.375 6.050781 188.375 Z M 6.050781 188.375 "/>
<path style=" stroke:none;fill-rule:nonzero;fill:rgb(0%,0%,0%);fill-opacity:1;" d="M 3.5 180.921875 L 4.59375 180.921875 C 4.410156 181.261719 4.28125 181.585938 4.191406 181.925781 C 4.097656 182.261719 4.046875 182.589844 4.046875 182.925781 C 4.046875 183.679688 4.292969 184.277344 4.777344 184.695312 C 5.257812 185.109375 5.933594 185.320312 6.792969 185.320312 C 7.667969 185.320312 8.34375 185.109375 8.824219 184.695312 C 9.308594 184.277344 9.542969 183.679688 9.542969 182.925781 C 9.542969 182.589844 9.503906 182.261719 9.410156 181.925781 C 9.320312 181.585938 9.175781 181.261719 8.996094 180.921875 L 10.074219 180.921875 C 10.230469 181.261719 10.347656 181.601562 10.414062 181.9375 C 10.480469 182.289062 10.519531 182.667969 10.519531 183.054688 C 10.519531 184.121094 10.191406 184.980469 9.515625 185.605469 C 8.851562 186.242188 7.941406 186.554688 6.792969 186.554688 C 5.636719 186.554688 4.722656 186.242188 4.058594 185.605469 C 3.394531 184.96875 3.058594 184.097656 3.058594 182.976562 C 3.058594 182.613281 3.097656 182.261719 3.175781 181.925781 C 3.253906 181.585938 3.355469 181.25 3.5 180.921875 Z M 3.5 180.921875 "/>
<path style=" stroke:none;fill-rule:nonzero;fill:rgb(0%,0%,0%);fill-opacity:1;" d="M 6.496094 172.808594 L 7.066406 172.808594 L 7.066406 178.179688 C 7.875 178.128906 8.5 177.894531 8.917969 177.453125 C 9.332031 177.023438 9.542969 176.425781 9.542969 175.644531 C 9.542969 175.203125 9.488281 174.757812 9.386719 174.34375 C 9.28125 173.925781 9.113281 173.496094 8.878906 173.082031 L 9.984375 173.082031 C 10.167969 173.496094 10.308594 173.925781 10.386719 174.367188 C 10.464844 174.8125 10.519531 175.265625 10.519531 175.707031 C 10.519531 176.851562 10.191406 177.75 9.542969 178.414062 C 8.890625 179.078125 7.992188 179.402344 6.859375 179.402344 C 5.699219 179.402344 4.777344 179.089844 4.085938 178.464844 C 3.410156 177.839844 3.058594 176.984375 3.058594 175.917969 C 3.058594 174.953125 3.371094 174.199219 3.980469 173.640625 C 4.605469 173.09375 5.441406 172.808594 6.496094 172.808594 Z M 6.15625 173.980469 C 5.519531 173.992188 5.011719 174.175781 4.621094 174.511719 C 4.242188 174.863281 4.046875 175.332031 4.046875 175.902344 C 4.046875 176.554688 4.242188 177.074219 4.605469 177.464844 C 4.972656 177.855469 5.492188 178.089844 6.15625 178.140625 Z M 6.15625 173.980469 "/>
<path style=" stroke:none;fill-rule:nonzero;fill:rgb(0%,0%,0%);fill-opacity:1;" d="M 0.453125 166.863281 L 0.453125 164.171875 L 1.363281 164.171875 L 1.363281 165.695312 L 11.144531 165.695312 L 11.144531 164.171875 L 12.054688 164.171875 L 12.054688 166.863281 Z M 0.453125 166.863281 "/>
<path style=" stroke:none;fill-rule:nonzero;fill:rgb(0%,0%,0%);fill-opacity:1;" d="M 4.59375 156.148438 C 4.074219 155.863281 3.695312 155.511719 3.433594 155.109375 C 3.1875 154.707031 3.058594 154.222656 3.058594 153.664062 C 3.058594 152.9375 3.316406 152.363281 3.839844 151.960938 C 4.359375 151.558594 5.101562 151.351562 6.050781 151.351562 L 10.347656 151.351562 L 10.347656 152.519531 L 6.089844 152.519531 C 5.414062 152.519531 4.90625 152.652344 4.566406 152.886719 C 4.242188 153.132812 4.074219 153.496094 4.074219 153.988281 C 4.074219 154.601562 4.28125 155.082031 4.683594 155.433594 C 5.089844 155.785156 5.636719 155.953125 6.324219 155.953125 L 10.347656 155.953125 L 10.347656 157.125 L 6.089844 157.125 C 5.414062 157.125 4.90625 157.253906 4.566406 157.488281 C 4.242188 157.734375 4.074219 158.113281 4.074219 158.605469 C 4.074219 159.207031 4.28125 159.6875 4.683594 160.039062 C 5.089844 160.390625 5.636719 160.558594 6.324219 160.558594 L 10.347656 160.558594 L 10.347656 161.726562 L 3.226562 161.726562 L 3.226562 160.558594 L 4.332031 160.558594 C 3.902344 160.296875 3.578125 159.972656 3.371094 159.59375 C 3.160156 159.230469 3.058594 158.789062 3.058594 158.269531 C 3.058594 157.75 3.1875 157.320312 3.449219 156.957031 C 3.707031 156.589844 4.097656 156.332031 4.59375 156.148438 Z M 4.59375 156.148438 "/>
<path style=" stroke:none;fill-rule:nonzero;fill:rgb(0%,0%,0%);fill-opacity:1;" d="M 0.453125 146.292969 L 12.054688 146.292969 L 12.054688 148.984375 L 11.144531 148.984375 L 11.144531 147.460938 L 1.363281 147.460938 L 1.363281 148.984375 L 0.453125 148.984375 Z M 0.453125 146.292969 "/>
<path style="fill:none;stroke-width:2.5;stroke-linecap:square;stroke-linejoin:round;stroke:rgb(0%,0%,100%);stroke-opacity:1;stroke-miterlimit:4;" d="M 52.2 12.966717 L 52.617 13.185983 L 53.646 13.891839 L 56.217 16.853428 L 56.58 17.421117 L 56.808 17.67943 L 60.018 22.623422 L 60.48 23.38034 L 60.741 23.758799 L 61.068 24.29645 L 61.959 25.765231 L 62.418 26.624272 L 62.787 27.173938 L 63.927 29.150334 L 64.011 29.231432 L 64.266 29.706007 L 65.925 32.586499 L 66.504 33.634769 L 66.666 33.878064 L 67.128 34.764138 L 68.787 37.599575 L 69.618 39.143447 L 69.798 39.383738 L 70.284 40.278823 L 70.635 40.930613 L 70.728 41.011711 L 71.13 41.7446 L 71.826 42.967081 L 74.076 46.95892 L 74.799 48.2625 L 74.892 48.343598 L 75.246 49.07949 L 75.93 50.136772 L 76.191 50.626365 L 100.155 92.704369 L 100.308 92.94466 L 101.319 94.722816 L 101.496 95.047209 L 101.652 95.209405 L 101.781 95.530795 L 102.078 96.017385 L 102.372 96.582069 L 102.711 97.149757 L 103.095 97.876638 L 103.371 98.28213 L 104.001 99.495601 L 104.19 99.738896 L 105.489 102.003641 L 105.789 102.571329 L 106.242 103.29821 L 106.407 103.6196 L 108.177 106.773422 L 108.369 107.016717 L 108.621 107.581402 L 108.756 107.6625 L 109.005 108.146086 L 109.476 109.035164 L 109.926 109.843143 L 110.136 110.00534 L 110.226 110.329733 L 110.568 110.894417 L 110.946 111.621299 L 112.167 113.711833 L 112.605 114.516808 L 112.83 114.838198 L 113.445 115.886468 L 113.718 116.370055 L 114.36 117.580522 L 114.6 117.823817 L 114.81 118.307403 L 115.956 120.244751 L 116.214 120.809436 L 116.301 120.890534 L 116.601 121.458222 L 116.853 121.86071 L 117.522 123.074181 L 117.633 123.155279 L 117.768 123.557767 L 117.87 123.638865 L 118.155 124.20355 L 118.743 125.176729 L 118.884 125.254824 L 118.965 125.582221 L 119.643 126.792688 L 119.979 127.438471 L 120.813 128.808131 L 121.395 129.856402 L 121.653 130.25889 L 122.028 130.985771 L 124.704 135.590352 L 124.989 136.155036 L 125.271 136.560528 L 126.459 138.744175 L 126.57 138.822269 L 126.831 139.308859 L 129.33 143.754248 L 130.74 146.181189 L 130.92 146.424484 L 131.931 148.283738 L 132.027 148.364836 L 132.315 148.929521 L 132.711 149.578307 L 132.843 149.899697 L 133.122 150.305188 L 133.506 151.032069 L 134.127 152.086347 L 134.505 152.813228 L 134.598 152.894326 L 134.964 153.621208 L 135.186 153.864502 L 135.717 154.91878 L 136.299 155.810862 L 136.446 156.21335 L 136.65 156.456644 L 136.815 156.781038 L 137.739 158.393993 L 138.111 159.039775 L 173.427 220.548331 L 173.616 220.848695 L 173.985 221.530522 L 174.546 222.347512 L 174.954 222.945237 L 175.599 223.978489 L 176.115 224.858556 L 176.583 225.669539 L 177.072 226.315322 L 177.318 226.747846 L 177.672 227.405643 L 177.882 227.612894 L 178.44 228.553034 L 181.494 233.079521 L 182.535 234.617385 L 183.177 235.590564 L 185.316 238.612227 L 186.9 240.904005 L 187.206 241.564806 L 187.656 242.354763 L 187.839 242.540989 L 193.098 249.42233 L 195.708 252.182676 L 195.981 252.371905 L 196.62 252.966626 L 196.809 253.059739 L 197.028 253.20091 L 197.457 253.528307 L 197.904 253.870722 L 198.099 253.933799 L 198.357 254.086984 L 200.415 254.801851 L 201.525 254.861924 L 202.716 254.663683 L 204.102 254.095995 L 204.948 253.585376 L 206.343 252.513076 L 206.79 252.092567 L 209.748 248.887682 L 210.003 248.716475 L 210.294 248.232888 L 210.66 247.836408 L 211.209 247.118538 L 214.176 243.541201 L 214.458 243.144721 L 214.734 242.865382 L 216.399 240.783859 L 216.687 240.510528 L 217.23 239.774636 L 217.422 239.615443 L 218.244 238.597209 L 218.529 238.254794 L 218.997 237.612015 L 219.546 236.912166 L 222.504 233.001426 L 222.786 232.610953 L 223.251 231.881068 L 223.779 231.154187 L 225.555 228.544023 L 226.098 227.624909 L 226.662 226.843962 L 227.199 225.978914 L 231.459 219.130613 L 231.945 218.295601 L 232.305 217.763956 L 232.482 217.382494 L 233.499 215.77855 L 234.222 214.556068 L 235.239 212.868022 L 236.076 211.411256 L 236.526 210.720419 L 237.411 209.33574 L 237.603 208.948271 L 237.855 208.48571 L 238.59 207.329308 L 238.77 207.019933 L 249.39 189.127245 L 249.798 188.42139 L 250.494 187.243962 L 250.767 186.691292 L 250.875 186.616201 L 251.379 185.748149 L 253.308 182.522239 L 253.554 181.966566 L 253.74 181.732282 L 254.109 181.023422 L 254.247 180.942324 L 254.4 180.626942 L 255.306 178.968932 L 255.426 178.890837 L 255.624 178.575455 L 256.056 177.785498 L 256.272 177.386013 L 256.506 176.992536 L 257.274 175.646905 L 259.497 171.850303 L 259.695 171.531917 L 260.79 169.711711 L 260.949 169.315231 L 261.318 168.762561 L 261.684 168.128792 L 261.882 167.9696 L 261.975 167.573119 L 263.613 164.71966 L 263.727 164.641566 L 265.755 161.079248 L 266.13 160.523574 L 266.406 159.9679 L 266.583 159.649515 L 266.865 159.256038 L 268.14 157.033343 L 268.824 155.925 L 269.253 155.047937 L 269.457 154.810649 L 269.808 154.095783 L 270 153.858495 L 270.099 153.621208 L 270.321 153.543113 L 270.459 152.984436 L 270.645 152.744144 L 271.116 151.94818 L 271.836 150.67764 L 272.787 149.088714 L 272.958 148.692233 L 273.15 148.454945 L 273.708 147.418689 L 276.687 142.324515 L 276.933 141.843932 L 277.221 141.447451 L 277.665 140.651487 L 294.12 112.161954 " transform="matrix(1.302083,0,0,1.300505,0,12.875)"/>
<path style="fill-rule:nonzero;fill:rgb(100%,64.705882%,0%);fill-opacity:1;stroke-width:2.5;stroke-linecap:butt;stroke-linejoin:round;stroke:rgb(100%,64.705882%,0%);stroke-opacity:1;stroke-miterlimit:4;" d="M 198.27 257.883586 L 204.27 251.885316 M 198.27 251.885316 L 204.27 257.883586 " transform="matrix(1.302083,0,0,1.300505,0,12.875)"/>
<path style="fill:none;stroke-width:0.8;stroke-linecap:square;stroke-linejoin:miter;stroke:rgb(0%,0%,0%);stroke-opacity:1;stroke-miterlimit:10;" d="M 40.104 266.984618 L 40.104 0.871056 M 306.216 266.984618 L 306.216 0.871056 M 40.104 266.984618 L 306.216 266.984618 M 40.104 0.871056 L 306.216 0.871056 " transform="matrix(1.302083,0,0,1.300505,0,12.875)"/>
<path style="fill-rule:nonzero;fill:rgb(100%,100%,100%);fill-opacity:0.8;stroke-width:1;stroke-linecap:butt;stroke-linejoin:miter;stroke:rgb(83.529412%,83.921569%,83.529412%);stroke-opacity:0.8;stroke-miterlimit:10;" d="M 121.965 38.215322 L 299.217 38.215322 C 300.549 38.215322 301.215 37.548513 301.215 36.214897 L 301.215 7.872542 C 301.215 6.538926 300.549 5.872118 299.217 5.872118 L 121.965 5.872118 C 120.633 5.872118 119.967 6.538926 119.967 7.872542 L 119.967 36.214897 C 119.967 37.548513 120.633 38.215322 121.965 38.215322 Z M 121.965 38.215322 " transform="matrix(1.302083,0,0,1.300505,0,12.875)"/>
<path style="fill:none;stroke-width:2.5;stroke-linecap:square;stroke-linejoin:round;stroke:rgb(0%,0%,100%);stroke-opacity:1;stroke-miterlimit:4;" d="M 123.966 13.96693 L 143.967 13.96693 " transform="matrix(1.302083,0,0,1.300505,0,12.875)"/>
<path style=" stroke:none;fill-rule:nonzero;fill:rgb(0%,0%,0%);fill-opacity:1;" d="M 200.4375 27.164062 L 200.4375 34.535156 L 201.988281 34.535156 C 203.289062 34.535156 204.253906 34.25 204.863281 33.652344 C 205.464844 33.054688 205.777344 32.117188 205.777344 30.84375 C 205.777344 29.566406 205.464844 28.644531 204.863281 28.046875 C 204.253906 27.460938 203.289062 27.164062 201.988281 27.164062 Z M 199.148438 26.109375 L 201.792969 26.109375 C 203.628906 26.109375 204.980469 26.5 205.839844 27.253906 C 206.699219 28.019531 207.128906 29.21875 207.128906 30.84375 C 207.128906 32.480469 206.6875 33.679688 205.828125 34.445312 C 204.96875 35.210938 203.613281 35.589844 201.792969 35.589844 L 199.148438 35.589844 Z M 199.148438 26.109375 "/>
<path style=" stroke:none;fill-rule:nonzero;fill:rgb(0%,0%,0%);fill-opacity:1;" d="M 209.121094 28.476562 L 210.292969 28.476562 L 210.292969 35.589844 L 209.121094 35.589844 Z M 209.121094 25.707031 L 210.292969 25.707031 L 210.292969 27.1875 L 209.121094 27.1875 Z M 209.121094 25.707031 "/>
<path style=" stroke:none;fill-rule:nonzero;fill:rgb(0%,0%,0%);fill-opacity:1;" d="M 217.285156 28.683594 L 217.285156 29.789062 C 216.949219 29.632812 216.609375 29.503906 216.257812 29.414062 C 215.894531 29.335938 215.527344 29.28125 215.152344 29.28125 C 214.566406 29.28125 214.121094 29.375 213.835938 29.554688 C 213.550781 29.738281 213.40625 29.996094 213.40625 30.347656 C 213.40625 30.621094 213.511719 30.828125 213.71875 30.984375 C 213.925781 31.140625 214.34375 31.296875 214.96875 31.429688 L 215.371094 31.519531 C 216.207031 31.699219 216.792969 31.960938 217.144531 32.273438 C 217.480469 32.597656 217.664062 33.054688 217.664062 33.625 C 217.664062 34.289062 217.402344 34.808594 216.882812 35.1875 C 216.363281 35.578125 215.632812 35.757812 214.722656 35.757812 C 214.332031 35.757812 213.941406 35.71875 213.523438 35.65625 C 213.105469 35.589844 212.675781 35.484375 212.222656 35.328125 L 212.222656 34.121094 C 212.652344 34.355469 213.082031 34.523438 213.496094 34.628906 C 213.914062 34.746094 214.332031 34.796875 214.746094 34.796875 C 215.292969 34.796875 215.722656 34.707031 216.023438 34.523438 C 216.308594 34.339844 216.464844 34.066406 216.464844 33.71875 C 216.464844 33.40625 216.347656 33.15625 216.140625 32.988281 C 215.933594 32.820312 215.464844 32.652344 214.734375 32.496094 L 214.332031 32.402344 C 213.601562 32.246094 213.066406 32.011719 212.753906 31.699219 C 212.429688 31.390625 212.273438 30.960938 212.273438 30.402344 C 212.273438 29.738281 212.507812 29.21875 212.976562 28.851562 C 213.445312 28.488281 214.121094 28.308594 215.007812 28.308594 C 215.4375 28.308594 215.839844 28.347656 216.230469 28.410156 C 216.609375 28.476562 216.960938 28.566406 217.285156 28.683594 Z M 217.285156 28.683594 "/>
<path style=" stroke:none;fill-rule:nonzero;fill:rgb(0%,0%,0%);fill-opacity:1;" d="M 220.683594 26.460938 L 220.683594 28.476562 L 223.09375 28.476562 L 223.09375 29.386719 L 220.683594 29.386719 L 220.683594 33.25 C 220.683594 33.832031 220.761719 34.210938 220.917969 34.367188 C 221.074219 34.535156 221.402344 34.613281 221.894531 34.613281 L 223.09375 34.613281 L 223.09375 35.589844 L 221.894531 35.589844 C 220.984375 35.589844 220.359375 35.421875 220.019531 35.082031 C 219.683594 34.746094 219.511719 34.132812 219.511719 33.25 L 219.511719 29.386719 L 218.652344 29.386719 L 218.652344 28.476562 L 219.511719 28.476562 L 219.511719 26.460938 Z M 220.683594 26.460938 "/>
<path style=" stroke:none;fill-rule:nonzero;fill:rgb(0%,0%,0%);fill-opacity:1;" d="M 227.871094 32.011719 C 226.921875 32.011719 226.269531 32.128906 225.90625 32.339844 C 225.542969 32.558594 225.359375 32.921875 225.359375 33.445312 C 225.359375 33.859375 225.488281 34.199219 225.761719 34.433594 C 226.035156 34.679688 226.414062 34.796875 226.882812 34.796875 C 227.535156 34.796875 228.054688 34.574219 228.445312 34.105469 C 228.835938 33.652344 229.03125 33.039062 229.03125 32.273438 L 229.03125 32.011719 Z M 230.203125 31.53125 L 230.203125 35.589844 L 229.03125 35.589844 L 229.03125 34.511719 C 228.757812 34.953125 228.417969 35.265625 228.027344 35.460938 C 227.636719 35.65625 227.144531 35.757812 226.570312 35.757812 C 225.839844 35.757812 225.253906 35.5625 224.824219 35.160156 C 224.394531 34.757812 224.1875 34.210938 224.1875 33.523438 C 224.1875 32.726562 224.449219 32.128906 224.996094 31.714844 C 225.527344 31.3125 226.324219 31.101562 227.390625 31.101562 L 229.03125 31.101562 L 229.03125 30.984375 C 229.03125 30.453125 228.847656 30.035156 228.496094 29.738281 C 228.144531 29.453125 227.652344 29.296875 227.011719 29.296875 C 226.597656 29.296875 226.207031 29.347656 225.816406 29.453125 C 225.425781 29.554688 225.058594 29.699219 224.707031 29.878906 L 224.707031 28.800781 C 225.125 28.644531 225.542969 28.515625 225.945312 28.4375 C 226.347656 28.359375 226.738281 28.308594 227.128906 28.308594 C 228.160156 28.308594 228.925781 28.578125 229.433594 29.113281 C 229.941406 29.644531 230.203125 30.453125 230.203125 31.53125 Z M 230.203125 31.53125 "/>
<path style=" stroke:none;fill-rule:nonzero;fill:rgb(0%,0%,0%);fill-opacity:1;" d="M 238.535156 31.296875 L 238.535156 35.589844 L 237.363281 35.589844 L 237.363281 31.335938 C 237.363281 30.660156 237.222656 30.167969 236.960938 29.828125 C 236.699219 29.492188 236.308594 29.320312 235.789062 29.320312 C 235.152344 29.320312 234.65625 29.527344 234.292969 29.933594 C 233.925781 30.335938 233.746094 30.882812 233.746094 31.570312 L 233.746094 35.589844 L 232.574219 35.589844 L 232.574219 28.476562 L 233.746094 28.476562 L 233.746094 29.582031 C 234.019531 29.164062 234.34375 28.839844 234.734375 28.632812 C 235.113281 28.425781 235.554688 28.308594 236.050781 28.308594 C 236.855469 28.308594 237.480469 28.566406 237.898438 29.074219 C 238.316406 29.582031 238.535156 30.324219 238.535156 31.296875 Z M 238.535156 31.296875 "/>
<path style=" stroke:none;fill-rule:nonzero;fill:rgb(0%,0%,0%);fill-opacity:1;" d="M 245.996094 28.75 L 245.996094 29.839844 C 245.660156 29.660156 245.332031 29.527344 244.996094 29.4375 C 244.65625 29.347656 244.332031 29.296875 243.992188 29.296875 C 243.238281 29.296875 242.636719 29.542969 242.222656 30.023438 C 241.804688 30.503906 241.597656 31.179688 241.597656 32.039062 C 241.597656 32.910156 241.804688 33.585938 242.222656 34.066406 C 242.636719 34.550781 243.238281 34.785156 243.992188 34.785156 C 244.332031 34.785156 244.65625 34.746094 244.996094 34.652344 C 245.332031 34.5625 245.660156 34.417969 245.996094 34.238281 L 245.996094 35.316406 C 245.660156 35.472656 245.320312 35.589844 244.980469 35.65625 C 244.628906 35.71875 244.253906 35.757812 243.863281 35.757812 C 242.792969 35.757812 241.933594 35.433594 241.308594 34.757812 C 240.671875 34.09375 240.359375 33.183594 240.359375 32.039062 C 240.359375 30.882812 240.671875 29.972656 241.308594 29.308594 C 241.949219 28.644531 242.820312 28.308594 243.941406 28.308594 C 244.304688 28.308594 244.65625 28.347656 244.996094 28.425781 C 245.332031 28.5 245.671875 28.605469 245.996094 28.75 Z M 245.996094 28.75 "/>
<path style=" stroke:none;fill-rule:nonzero;fill:rgb(0%,0%,0%);fill-opacity:1;" d="M 254.121094 31.738281 L 254.121094 32.3125 L 248.746094 32.3125 C 248.796875 33.117188 249.03125 33.742188 249.472656 34.160156 C 249.902344 34.574219 250.503906 34.785156 251.285156 34.785156 C 251.726562 34.785156 252.167969 34.730469 252.585938 34.628906 C 253.003906 34.523438 253.433594 34.355469 253.847656 34.121094 L 253.847656 35.226562 C 253.433594 35.40625 253.003906 35.550781 252.558594 35.628906 C 252.117188 35.707031 251.660156 35.757812 251.21875 35.757812 C 250.074219 35.757812 249.175781 35.433594 248.511719 34.785156 C 247.847656 34.132812 247.519531 33.234375 247.519531 32.105469 C 247.519531 30.945312 247.832031 30.023438 248.457031 29.335938 C 249.082031 28.65625 249.941406 28.308594 251.011719 28.308594 C 251.972656 28.308594 252.730469 28.617188 253.289062 29.230469 C 253.835938 29.855469 254.121094 30.6875 254.121094 31.738281 Z M 252.949219 31.402344 C 252.9375 30.765625 252.753906 30.257812 252.417969 29.867188 C 252.066406 29.492188 251.597656 29.296875 251.023438 29.296875 C 250.371094 29.296875 249.851562 29.492188 249.460938 29.855469 C 249.070312 30.21875 248.835938 30.738281 248.785156 31.402344 Z M 252.949219 31.402344 "/>
<path style=" stroke:none;fill-rule:nonzero;fill:rgb(0%,0%,0%);fill-opacity:1;" d="M 265.292969 32.039062 C 265.292969 31.179688 265.113281 30.519531 264.761719 30.023438 C 264.394531 29.527344 263.914062 29.28125 263.300781 29.28125 C 262.675781 29.28125 262.195312 29.527344 261.84375 30.023438 C 261.480469 30.519531 261.308594 31.179688 261.308594 32.039062 C 261.308594 32.898438 261.480469 33.574219 261.84375 34.066406 C 262.195312 34.5625 262.675781 34.796875 263.300781 34.796875 C 263.914062 34.796875 264.394531 34.5625 264.761719 34.066406 C 265.113281 33.574219 265.292969 32.898438 265.292969 32.039062 Z M 261.308594 29.554688 C 261.542969 29.140625 261.855469 28.828125 262.234375 28.617188 C 262.613281 28.410156 263.066406 28.308594 263.589844 28.308594 C 264.449219 28.308594 265.152344 28.65625 265.699219 29.335938 C 266.230469 30.023438 266.503906 30.921875 266.503906 32.039062 C 266.503906 33.15625 266.230469 34.066406 265.699219 34.746094 C 265.152344 35.421875 264.449219 35.757812 263.589844 35.757812 C 263.066406 35.757812 262.613281 35.65625 262.234375 35.460938 C 261.855469 35.265625 261.542969 34.953125 261.308594 34.523438 L 261.308594 35.589844 L 260.136719 35.589844 L 260.136719 25.707031 L 261.308594 25.707031 Z M 261.308594 29.554688 "/>
<path style=" stroke:none;fill-rule:nonzero;fill:rgb(0%,0%,0%);fill-opacity:1;" d="M 274.539062 31.738281 L 274.539062 32.3125 L 269.160156 32.3125 C 269.214844 33.117188 269.449219 33.742188 269.890625 34.160156 C 270.320312 34.574219 270.917969 34.785156 271.699219 34.785156 C 272.144531 34.785156 272.585938 34.730469 273.003906 34.628906 C 273.417969 34.523438 273.847656 34.355469 274.265625 34.121094 L 274.265625 35.226562 C 273.847656 35.40625 273.417969 35.550781 272.976562 35.628906 C 272.535156 35.707031 272.078125 35.757812 271.636719 35.757812 C 270.488281 35.757812 269.589844 35.433594 268.925781 34.785156 C 268.261719 34.132812 267.9375 33.234375 267.9375 32.105469 C 267.9375 30.945312 268.25 30.023438 268.875 29.335938 C 269.5 28.65625 270.359375 28.308594 271.425781 28.308594 C 272.390625 28.308594 273.144531 28.617188 273.707031 29.230469 C 274.253906 29.855469 274.539062 30.6875 274.539062 31.738281 Z M 273.367188 31.402344 C 273.355469 30.765625 273.171875 30.257812 272.832031 29.867188 C 272.480469 29.492188 272.011719 29.296875 271.441406 29.296875 C 270.789062 29.296875 270.269531 29.492188 269.878906 29.855469 C 269.488281 30.21875 269.253906 30.738281 269.199219 31.402344 Z M 273.367188 31.402344 "/>
<path style=" stroke:none;fill-rule:nonzero;fill:rgb(0%,0%,0%);fill-opacity:1;" d="M 277.613281 26.460938 L 277.613281 28.476562 L 280.019531 28.476562 L 280.019531 29.386719 L 277.613281 29.386719 L 277.613281 33.25 C 277.613281 33.832031 277.691406 34.210938 277.847656 34.367188 C 278.003906 34.535156 278.328125 34.613281 278.824219 34.613281 L 280.019531 34.613281 L 280.019531 35.589844 L 278.824219 35.589844 C 277.910156 35.589844 277.285156 35.421875 276.949219 35.082031 C 276.609375 34.746094 276.441406 34.132812 276.441406 33.25 L 276.441406 29.386719 L 275.582031 29.386719 L 275.582031 28.476562 L 276.441406 28.476562 L 276.441406 26.460938 Z M 277.613281 26.460938 "/>
<path style=" stroke:none;fill-rule:nonzero;fill:rgb(0%,0%,0%);fill-opacity:1;" d="M 280.878906 28.476562 L 282.050781 28.476562 L 283.511719 34.027344 L 284.96875 28.476562 L 286.347656 28.476562 L 287.808594 34.027344 L 289.265625 28.476562 L 290.4375 28.476562 L 288.574219 35.589844 L 287.195312 35.589844 L 285.660156 29.761719 L 284.121094 35.589844 L 282.742188 35.589844 Z M 280.878906 28.476562 "/>
<path style=" stroke:none;fill-rule:nonzero;fill:rgb(0%,0%,0%);fill-opacity:1;" d="M 298.300781 31.738281 L 298.300781 32.3125 L 292.925781 32.3125 C 292.976562 33.117188 293.210938 33.742188 293.652344 34.160156 C 294.082031 34.574219 294.683594 34.785156 295.464844 34.785156 C 295.90625 34.785156 296.347656 34.730469 296.765625 34.628906 C 297.183594 34.523438 297.613281 34.355469 298.027344 34.121094 L 298.027344 35.226562 C 297.613281 35.40625 297.183594 35.550781 296.738281 35.628906 C 296.296875 35.707031 295.839844 35.757812 295.398438 35.757812 C 294.253906 35.757812 293.355469 35.433594 292.691406 34.785156 C 292.027344 34.132812 291.699219 33.234375 291.699219 32.105469 C 291.699219 30.945312 292.011719 30.023438 292.636719 29.335938 C 293.261719 28.65625 294.121094 28.308594 295.191406 28.308594 C 296.152344 28.308594 296.910156 28.617188 297.46875 29.230469 C 298.015625 29.855469 298.300781 30.6875 298.300781 31.738281 Z M 297.128906 31.402344 C 297.117188 30.765625 296.933594 30.257812 296.597656 29.867188 C 296.246094 29.492188 295.777344 29.296875 295.203125 29.296875 C 294.550781 29.296875 294.03125 29.492188 293.640625 29.855469 C 293.25 30.21875 293.015625 30.738281 292.964844 31.402344 Z M 297.128906 31.402344 "/>
<path style=" stroke:none;fill-rule:nonzero;fill:rgb(0%,0%,0%);fill-opacity:1;" d="M 306.308594 31.738281 L 306.308594 32.3125 L 300.933594 32.3125 C 300.984375 33.117188 301.21875 33.742188 301.660156 34.160156 C 302.089844 34.574219 302.691406 34.785156 303.472656 34.785156 C 303.914062 34.785156 304.355469 34.730469 304.773438 34.628906 C 305.191406 34.523438 305.621094 34.355469 306.035156 34.121094 L 306.035156 35.226562 C 305.621094 35.40625 305.191406 35.550781 304.746094 35.628906 C 304.304688 35.707031 303.847656 35.757812 303.40625 35.757812 C 302.261719 35.757812 301.363281 35.433594 300.699219 34.785156 C 300.035156 34.132812 299.707031 33.234375 299.707031 32.105469 C 299.707031 30.945312 300.019531 30.023438 300.644531 29.335938 C 301.269531 28.65625 302.128906 28.308594 303.199219 28.308594 C 304.160156 28.308594 304.917969 28.617188 305.476562 29.230469 C 306.023438 29.855469 306.308594 30.6875 306.308594 31.738281 Z M 305.136719 31.402344 C 305.125 30.765625 304.941406 30.257812 304.605469 29.867188 C 304.253906 29.492188 303.785156 29.296875 303.210938 29.296875 C 302.558594 29.296875 302.039062 29.492188 301.648438 29.855469 C 301.257812 30.21875 301.023438 30.738281 300.972656 31.402344 Z M 305.136719 31.402344 "/>
<path style=" stroke:none;fill-rule:nonzero;fill:rgb(0%,0%,0%);fill-opacity:1;" d="M 314.148438 31.296875 L 314.148438 35.589844 L 312.976562 35.589844 L 312.976562 31.335938 C 312.976562 30.660156 312.832031 30.167969 312.574219 29.828125 C 312.3125 29.492188 311.921875 29.320312 311.402344 29.320312 C 310.761719 29.320312 310.269531 29.527344 309.902344 29.933594 C 309.539062 30.335938 309.355469 30.882812 309.355469 31.570312 L 309.355469 35.589844 L 308.183594 35.589844 L 308.183594 28.476562 L 309.355469 28.476562 L 309.355469 29.582031 C 309.628906 29.164062 309.957031 28.839844 310.347656 28.632812 C 310.722656 28.425781 311.167969 28.308594 311.660156 28.308594 C 312.46875 28.308594 313.09375 28.566406 313.511719 29.074219 C 313.925781 29.582031 314.148438 30.324219 314.148438 31.296875 Z M 314.148438 31.296875 "/>
<path style=" stroke:none;fill-rule:nonzero;fill:rgb(0%,0%,0%);fill-opacity:1;" d="M 324.527344 26.980469 C 323.589844 26.980469 322.847656 27.332031 322.300781 28.019531 C 321.753906 28.722656 321.480469 29.660156 321.480469 30.855469 C 321.480469 32.050781 321.753906 33 322.300781 33.691406 C 322.847656 34.394531 323.589844 34.730469 324.527344 34.730469 C 325.449219 34.730469 326.191406 34.394531 326.738281 33.691406 C 327.285156 33 327.558594 32.050781 327.558594 30.855469 C 327.558594 29.660156 327.285156 28.722656 326.738281 28.019531 C 326.191406 27.332031 325.449219 26.980469 324.527344 26.980469 Z M 324.527344 25.941406 C 325.855469 25.941406 326.910156 26.394531 327.714844 27.28125 C 328.511719 28.164062 328.914062 29.359375 328.914062 30.855469 C 328.914062 32.363281 328.511719 33.546875 327.714844 34.433594 C 326.910156 35.316406 325.855469 35.757812 324.527344 35.757812 C 323.183594 35.757812 322.117188 35.316406 321.324219 34.433594 C 320.515625 33.546875 320.125 32.363281 320.125 30.855469 C 320.125 29.359375 320.515625 28.164062 321.324219 27.28125 C 322.117188 26.394531 323.183594 25.941406 324.527344 25.941406 Z M 324.527344 25.941406 "/>
<path style=" stroke:none;fill-rule:nonzero;fill:rgb(0%,0%,0%);fill-opacity:1;" d="M 336.609375 26.421875 L 336.609375 27.667969 C 336.113281 27.433594 335.660156 27.265625 335.230469 27.148438 C 334.785156 27.046875 334.371094 26.980469 333.980469 26.980469 C 333.277344 26.980469 332.730469 27.125 332.351562 27.382812 C 331.972656 27.65625 331.792969 28.046875 331.792969 28.539062 C 331.792969 28.957031 331.910156 29.28125 332.167969 29.492188 C 332.417969 29.710938 332.898438 29.878906 333.601562 30.011719 L 334.382812 30.167969 C 335.332031 30.347656 336.035156 30.671875 336.492188 31.128906 C 336.949219 31.597656 337.183594 32.207031 337.183594 32.976562 C 337.183594 33.898438 336.871094 34.589844 336.257812 35.054688 C 335.632812 35.523438 334.734375 35.757812 333.550781 35.757812 C 333.09375 35.757812 332.613281 35.707031 332.105469 35.617188 C 331.597656 35.523438 331.074219 35.382812 330.542969 35.171875 L 330.542969 33.847656 C 331.0625 34.144531 331.570312 34.367188 332.066406 34.511719 C 332.558594 34.667969 333.054688 34.730469 333.550781 34.730469 C 334.277344 34.730469 334.839844 34.589844 335.242188 34.300781 C 335.632812 34.015625 335.839844 33.613281 335.839844 33.066406 C 335.839844 32.597656 335.699219 32.234375 335.410156 31.972656 C 335.125 31.714844 334.65625 31.519531 334.003906 31.390625 L 333.222656 31.234375 C 332.261719 31.050781 331.570312 30.75 331.140625 30.335938 C 330.710938 29.933594 330.503906 29.375 330.503906 28.644531 C 330.503906 27.8125 330.789062 27.148438 331.386719 26.667969 C 331.972656 26.1875 332.792969 25.941406 333.835938 25.941406 C 334.277344 25.941406 334.722656 25.980469 335.191406 26.058594 C 335.644531 26.136719 336.113281 26.265625 336.609375 26.421875 Z M 336.609375 26.421875 "/>
<path style=" stroke:none;fill-rule:nonzero;fill:rgb(0%,0%,0%);fill-opacity:1;" d="M 346.519531 32.011719 C 345.566406 32.011719 344.917969 32.128906 344.550781 32.339844 C 344.1875 32.558594 344.003906 32.921875 344.003906 33.445312 C 344.003906 33.859375 344.136719 34.199219 344.410156 34.433594 C 344.683594 34.679688 345.058594 34.796875 345.527344 34.796875 C 346.179688 34.796875 346.699219 34.574219 347.089844 34.105469 C 347.480469 33.652344 347.675781 33.039062 347.675781 32.273438 L 347.675781 32.011719 Z M 348.847656 31.53125 L 348.847656 35.589844 L 347.675781 35.589844 L 347.675781 34.511719 C 347.402344 34.953125 347.066406 35.265625 346.675781 35.460938 C 346.285156 35.65625 345.789062 35.757812 345.214844 35.757812 C 344.488281 35.757812 343.902344 35.5625 343.472656 35.160156 C 343.042969 34.757812 342.832031 34.210938 342.832031 33.523438 C 342.832031 32.726562 343.09375 32.128906 343.640625 31.714844 C 344.175781 31.3125 344.96875 31.101562 346.035156 31.101562 L 347.675781 31.101562 L 347.675781 30.984375 C 347.675781 30.453125 347.496094 30.035156 347.144531 29.738281 C 346.792969 29.453125 346.296875 29.296875 345.660156 29.296875 C 345.242188 29.296875 344.851562 29.347656 344.460938 29.453125 C 344.070312 29.554688 343.707031 29.699219 343.355469 29.878906 L 343.355469 28.800781 C 343.769531 28.644531 344.1875 28.515625 344.589844 28.4375 C 344.996094 28.359375 345.386719 28.308594 345.777344 28.308594 C 346.804688 28.308594 347.574219 28.578125 348.082031 29.113281 C 348.589844 29.644531 348.847656 30.453125 348.847656 31.53125 Z M 348.847656 31.53125 "/>
<path style=" stroke:none;fill-rule:nonzero;fill:rgb(0%,0%,0%);fill-opacity:1;" d="M 357.183594 31.296875 L 357.183594 35.589844 L 356.011719 35.589844 L 356.011719 31.335938 C 356.011719 30.660156 355.867188 30.167969 355.605469 29.828125 C 355.347656 29.492188 354.957031 29.320312 354.433594 29.320312 C 353.796875 29.320312 353.300781 29.527344 352.9375 29.933594 C 352.574219 30.335938 352.390625 30.882812 352.390625 31.570312 L 352.390625 35.589844 L 351.21875 35.589844 L 351.21875 28.476562 L 352.390625 28.476562 L 352.390625 29.582031 C 352.664062 29.164062 352.988281 28.839844 353.378906 28.632812 C 353.757812 28.425781 354.199219 28.308594 354.695312 28.308594 C 355.503906 28.308594 356.128906 28.566406 356.542969 29.074219 C 356.960938 29.582031 357.183594 30.324219 357.183594 31.296875 Z M 357.183594 31.296875 "/>
<path style=" stroke:none;fill-rule:nonzero;fill:rgb(0%,0%,0%);fill-opacity:1;" d="M 364.199219 29.554688 L 364.199219 25.707031 L 365.371094 25.707031 L 365.371094 35.589844 L 364.199219 35.589844 L 364.199219 34.523438 C 363.953125 34.953125 363.640625 35.265625 363.261719 35.460938 C 362.886719 35.65625 362.441406 35.757812 361.921875 35.757812 C 361.0625 35.757812 360.359375 35.421875 359.8125 34.746094 C 359.265625 34.066406 359.003906 33.15625 359.003906 32.039062 C 359.003906 30.921875 359.265625 30.023438 359.8125 29.335938 C 360.359375 28.65625 361.0625 28.308594 361.921875 28.308594 C 362.441406 28.308594 362.886719 28.410156 363.261719 28.617188 C 363.640625 28.828125 363.953125 29.140625 364.199219 29.554688 Z M 360.214844 32.039062 C 360.214844 32.898438 360.386719 33.574219 360.738281 34.066406 C 361.089844 34.5625 361.570312 34.796875 362.195312 34.796875 C 362.820312 34.796875 363.300781 34.5625 363.667969 34.066406 C 364.019531 33.574219 364.199219 32.898438 364.199219 32.039062 C 364.199219 31.179688 364.019531 30.519531 363.667969 30.023438 C 363.300781 29.527344 362.820312 29.28125 362.195312 29.28125 C 361.570312 29.28125 361.089844 29.527344 360.738281 30.023438 C 360.386719 30.519531 360.214844 31.179688 360.214844 32.039062 Z M 360.214844 32.039062 "/>
<path style=" stroke:none;fill-rule:nonzero;fill:rgb(0%,0%,0%);fill-opacity:1;" d="M 370.671875 26.109375 L 378.691406 26.109375 L 378.691406 27.1875 L 375.320312 27.1875 L 375.320312 35.589844 L 374.03125 35.589844 L 374.03125 27.1875 L 370.671875 27.1875 Z M 370.671875 26.109375 "/>
<path style=" stroke:none;fill-rule:nonzero;fill:rgb(0%,0%,0%);fill-opacity:1;" d="M 385.621094 26.421875 L 385.621094 27.667969 C 385.125 27.433594 384.667969 27.265625 384.238281 27.148438 C 383.796875 27.046875 383.378906 26.980469 382.988281 26.980469 C 382.285156 26.980469 381.738281 27.125 381.363281 27.382812 C 380.984375 27.65625 380.800781 28.046875 380.800781 28.539062 C 380.800781 28.957031 380.917969 29.28125 381.179688 29.492188 C 381.425781 29.710938 381.910156 29.878906 382.613281 30.011719 L 383.394531 30.167969 C 384.34375 30.347656 385.046875 30.671875 385.503906 31.128906 C 385.957031 31.597656 386.191406 32.207031 386.191406 32.976562 C 386.191406 33.898438 385.878906 34.589844 385.269531 35.054688 C 384.644531 35.523438 383.746094 35.757812 382.558594 35.757812 C 382.105469 35.757812 381.621094 35.707031 381.113281 35.617188 C 380.605469 35.523438 380.085938 35.382812 379.550781 35.171875 L 379.550781 33.847656 C 380.074219 34.144531 380.582031 34.367188 381.074219 34.511719 C 381.570312 34.667969 382.066406 34.730469 382.558594 34.730469 C 383.289062 34.730469 383.847656 34.589844 384.253906 34.300781 C 384.644531 34.015625 384.851562 33.613281 384.851562 33.066406 C 384.851562 32.597656 384.707031 32.234375 384.421875 31.972656 C 384.136719 31.714844 383.667969 31.519531 383.015625 31.390625 L 382.234375 31.234375 C 381.269531 31.050781 380.582031 30.75 380.152344 30.335938 C 379.722656 29.933594 379.511719 29.375 379.511719 28.644531 C 379.511719 27.8125 379.800781 27.148438 380.398438 26.667969 C 380.984375 26.1875 381.804688 25.941406 382.847656 25.941406 C 383.289062 25.941406 383.730469 25.980469 384.199219 26.058594 C 384.65625 26.136719 385.125 26.265625 385.621094 26.421875 Z M 385.621094 26.421875 "/>
<path style="fill-rule:nonzero;fill:rgb(100%,64.705882%,0%);fill-opacity:1;stroke-width:2.5;stroke-linecap:butt;stroke-linejoin:round;stroke:rgb(100%,64.705882%,0%);stroke-opacity:1;stroke-miterlimit:4;" d="M 130.965 32.514411 L 136.965 26.513137 M 130.965 26.513137 L 136.965 32.514411 " transform="matrix(1.302083,0,0,1.300505,0,12.875)"/>
<path style=" stroke:none;fill-rule:nonzero;fill:rgb(0%,0%,0%);fill-opacity:1;" d="M 204.644531 48.921875 C 204.929688 48.402344 205.28125 48.023438 205.683594 47.765625 C 206.089844 47.519531 206.570312 47.386719 207.128906 47.386719 C 207.859375 47.386719 208.433594 47.648438 208.835938 48.167969 C 209.238281 48.6875 209.449219 49.429688 209.449219 50.378906 L 209.449219 54.671875 L 208.277344 54.671875 L 208.277344 50.417969 C 208.277344 49.742188 208.144531 49.234375 207.910156 48.894531 C 207.664062 48.570312 207.300781 48.402344 206.804688 48.402344 C 206.191406 48.402344 205.710938 48.609375 205.359375 49.011719 C 205.007812 49.417969 204.839844 49.960938 204.839844 50.652344 L 204.839844 54.671875 L 203.667969 54.671875 L 203.667969 50.417969 C 203.667969 49.742188 203.535156 49.234375 203.300781 48.894531 C 203.054688 48.570312 202.675781 48.402344 202.183594 48.402344 C 201.582031 48.402344 201.101562 48.609375 200.75 49.011719 C 200.398438 49.417969 200.230469 49.960938 200.230469 50.652344 L 200.230469 54.671875 L 199.058594 54.671875 L 199.058594 47.558594 L 200.230469 47.558594 L 200.230469 48.664062 C 200.488281 48.234375 200.816406 47.90625 201.191406 47.699219 C 201.558594 47.492188 202 47.386719 202.519531 47.386719 C 203.042969 47.386719 203.472656 47.519531 203.835938 47.777344 C 204.199219 48.039062 204.460938 48.429688 204.644531 48.921875 Z M 204.644531 48.921875 "/>
<path style=" stroke:none;fill-rule:nonzero;fill:rgb(0%,0%,0%);fill-opacity:1;" d="M 211.777344 47.558594 L 212.949219 47.558594 L 212.949219 54.671875 L 211.777344 54.671875 Z M 211.777344 44.785156 L 212.949219 44.785156 L 212.949219 46.269531 L 211.777344 46.269531 Z M 211.777344 44.785156 "/>
<path style=" stroke:none;fill-rule:nonzero;fill:rgb(0%,0%,0%);fill-opacity:1;" d="M 221.324219 50.378906 L 221.324219 54.671875 L 220.152344 54.671875 L 220.152344 50.417969 C 220.152344 49.742188 220.007812 49.246094 219.746094 48.910156 C 219.488281 48.570312 219.097656 48.402344 218.574219 48.402344 C 217.9375 48.402344 217.441406 48.609375 217.078125 49.011719 C 216.714844 49.417969 216.53125 49.960938 216.53125 50.652344 L 216.53125 54.671875 L 215.359375 54.671875 L 215.359375 47.558594 L 216.53125 47.558594 L 216.53125 48.664062 C 216.804688 48.246094 217.128906 47.921875 217.519531 47.714844 C 217.898438 47.503906 218.339844 47.386719 218.835938 47.386719 C 219.644531 47.386719 220.269531 47.648438 220.683594 48.15625 C 221.101562 48.664062 221.324219 49.402344 221.324219 50.378906 Z M 221.324219 50.378906 "/>
<path style=" stroke:none;fill-rule:nonzero;fill:rgb(0%,0%,0%);fill-opacity:1;" d="M 223.824219 53.058594 L 225.164062 53.058594 L 225.164062 54.671875 L 223.824219 54.671875 Z M 223.824219 53.058594 "/>
<path style=" stroke:none;fill-rule:nonzero;fill:rgb(0%,0%,0%);fill-opacity:1;" d="M 236.621094 48.636719 L 236.621094 44.785156 L 237.792969 44.785156 L 237.792969 54.671875 L 236.621094 54.671875 L 236.621094 53.605469 C 236.375 54.035156 236.0625 54.34375 235.683594 54.539062 C 235.308594 54.734375 234.863281 54.839844 234.34375 54.839844 C 233.484375 54.839844 232.78125 54.5 232.234375 53.824219 C 231.6875 53.148438 231.425781 52.238281 231.425781 51.121094 C 231.425781 50 231.6875 49.105469 232.234375 48.414062 C 232.78125 47.738281 233.484375 47.386719 234.34375 47.386719 C 234.863281 47.386719 235.308594 47.492188 235.683594 47.699219 C 236.0625 47.90625 236.375 48.21875 236.621094 48.636719 Z M 232.636719 51.121094 C 232.636719 51.980469 232.808594 52.65625 233.160156 53.148438 C 233.511719 53.644531 233.992188 53.878906 234.617188 53.878906 C 235.242188 53.878906 235.722656 53.644531 236.089844 53.148438 C 236.441406 52.65625 236.621094 51.980469 236.621094 51.121094 C 236.621094 50.261719 236.441406 49.597656 236.089844 49.105469 C 235.722656 48.609375 235.242188 48.363281 234.617188 48.363281 C 233.992188 48.363281 233.511719 48.609375 233.160156 49.105469 C 232.808594 49.597656 232.636719 50.261719 232.636719 51.121094 Z M 232.636719 51.121094 "/>
<path style=" stroke:none;fill-rule:nonzero;fill:rgb(0%,0%,0%);fill-opacity:1;" d="M 240.203125 47.558594 L 241.375 47.558594 L 241.375 54.671875 L 240.203125 54.671875 Z M 240.203125 44.785156 L 241.375 44.785156 L 241.375 46.269531 L 240.203125 46.269531 Z M 240.203125 44.785156 "/>
<path style=" stroke:none;fill-rule:nonzero;fill:rgb(0%,0%,0%);fill-opacity:1;" d="M 248.367188 47.765625 L 248.367188 48.871094 C 248.027344 48.714844 247.691406 48.585938 247.339844 48.492188 C 246.972656 48.414062 246.609375 48.363281 246.230469 48.363281 C 245.644531 48.363281 245.203125 48.453125 244.917969 48.636719 C 244.628906 48.816406 244.488281 49.078125 244.488281 49.429688 C 244.488281 49.703125 244.589844 49.910156 244.800781 50.066406 C 245.007812 50.222656 245.425781 50.378906 246.050781 50.507812 L 246.453125 50.601562 C 247.285156 50.78125 247.871094 51.042969 248.222656 51.355469 C 248.5625 51.679688 248.746094 52.132812 248.746094 52.707031 C 248.746094 53.371094 248.484375 53.890625 247.964844 54.265625 C 247.441406 54.65625 246.714844 54.839844 245.800781 54.839844 C 245.410156 54.839844 245.019531 54.800781 244.605469 54.734375 C 244.1875 54.671875 243.757812 54.566406 243.300781 54.410156 L 243.300781 53.199219 C 243.730469 53.433594 244.160156 53.605469 244.578125 53.707031 C 244.996094 53.824219 245.410156 53.878906 245.828125 53.878906 C 246.375 53.878906 246.804688 53.785156 247.105469 53.605469 C 247.390625 53.421875 247.546875 53.148438 247.546875 52.796875 C 247.546875 52.484375 247.429688 52.238281 247.222656 52.070312 C 247.011719 51.902344 246.542969 51.730469 245.816406 51.574219 L 245.410156 51.484375 C 244.683594 51.328125 244.148438 51.09375 243.835938 50.78125 C 243.511719 50.46875 243.355469 50.039062 243.355469 49.480469 C 243.355469 48.816406 243.589844 48.296875 244.058594 47.933594 C 244.527344 47.570312 245.203125 47.386719 246.089844 47.386719 C 246.519531 47.386719 246.921875 47.425781 247.3125 47.492188 C 247.691406 47.558594 248.042969 47.648438 248.367188 47.765625 Z M 248.367188 47.765625 "/>
<path style=" stroke:none;fill-rule:nonzero;fill:rgb(0%,0%,0%);fill-opacity:1;" d="M 251.765625 45.542969 L 251.765625 47.558594 L 254.175781 47.558594 L 254.175781 48.46875 L 251.765625 48.46875 L 251.765625 52.328125 C 251.765625 52.914062 251.84375 53.292969 252 53.449219 C 252.15625 53.617188 252.480469 53.695312 252.976562 53.695312 L 254.175781 53.695312 L 254.175781 54.671875 L 252.976562 54.671875 C 252.066406 54.671875 251.441406 54.5 251.101562 54.164062 C 250.761719 53.824219 250.59375 53.214844 250.59375 52.328125 L 250.59375 48.46875 L 249.734375 48.46875 L 249.734375 47.558594 L 250.59375 47.558594 L 250.59375 45.542969 Z M 251.765625 45.542969 "/>
<path style=" stroke:none;fill-rule:nonzero;fill:rgb(0%,0%,0%);fill-opacity:1;" d="M 258.953125 51.09375 C 258.003906 51.09375 257.351562 51.210938 256.988281 51.417969 C 256.621094 51.640625 256.441406 52.003906 256.441406 52.523438 C 256.441406 52.941406 256.570312 53.277344 256.84375 53.511719 C 257.117188 53.761719 257.496094 53.878906 257.964844 53.878906 C 258.613281 53.878906 259.136719 53.65625 259.527344 53.1875 C 259.917969 52.734375 260.113281 52.121094 260.113281 51.355469 L 260.113281 51.09375 Z M 261.285156 50.613281 L 261.285156 54.671875 L 260.113281 54.671875 L 260.113281 53.589844 C 259.839844 54.035156 259.5 54.34375 259.109375 54.539062 C 258.71875 54.734375 258.222656 54.839844 257.652344 54.839844 C 256.921875 54.839844 256.335938 54.644531 255.90625 54.242188 C 255.476562 53.839844 255.269531 53.292969 255.269531 52.601562 C 255.269531 51.808594 255.527344 51.210938 256.074219 50.796875 C 256.609375 50.390625 257.402344 50.183594 258.472656 50.183594 L 260.113281 50.183594 L 260.113281 50.066406 C 260.113281 49.535156 259.929688 49.117188 259.578125 48.816406 C 259.226562 48.53125 258.730469 48.375 258.09375 48.375 C 257.675781 48.375 257.285156 48.429688 256.894531 48.53125 C 256.503906 48.636719 256.140625 48.78125 255.789062 48.960938 L 255.789062 47.882812 C 256.207031 47.726562 256.621094 47.597656 257.027344 47.519531 C 257.429688 47.441406 257.820312 47.386719 258.210938 47.386719 C 259.238281 47.386719 260.007812 47.660156 260.515625 48.195312 C 261.023438 48.726562 261.285156 49.535156 261.285156 50.613281 Z M 261.285156 50.613281 "/>
<path style=" stroke:none;fill-rule:nonzero;fill:rgb(0%,0%,0%);fill-opacity:1;" d="M 269.617188 50.378906 L 269.617188 54.671875 L 268.445312 54.671875 L 268.445312 50.417969 C 268.445312 49.742188 268.300781 49.246094 268.042969 48.910156 C 267.78125 48.570312 267.390625 48.402344 266.871094 48.402344 C 266.230469 48.402344 265.738281 48.609375 265.371094 49.011719 C 265.007812 49.417969 264.824219 49.960938 264.824219 50.652344 L 264.824219 54.671875 L 263.652344 54.671875 L 263.652344 47.558594 L 264.824219 47.558594 L 264.824219 48.664062 C 265.097656 48.246094 265.425781 47.921875 265.816406 47.714844 C 266.191406 47.503906 266.636719 47.386719 267.128906 47.386719 C 267.9375 47.386719 268.5625 47.648438 268.980469 48.15625 C 269.394531 48.664062 269.617188 49.402344 269.617188 50.378906 Z M 269.617188 50.378906 "/>
<path style=" stroke:none;fill-rule:nonzero;fill:rgb(0%,0%,0%);fill-opacity:1;" d="M 277.078125 47.828125 L 277.078125 48.921875 C 276.738281 48.742188 276.414062 48.609375 276.074219 48.519531 C 275.738281 48.429688 275.410156 48.375 275.074219 48.375 C 274.316406 48.375 273.71875 48.625 273.300781 49.105469 C 272.886719 49.585938 272.675781 50.261719 272.675781 51.121094 C 272.675781 51.992188 272.886719 52.667969 273.300781 53.148438 C 273.71875 53.628906 274.316406 53.863281 275.074219 53.863281 C 275.410156 53.863281 275.738281 53.824219 276.074219 53.734375 C 276.414062 53.644531 276.738281 53.5 277.078125 53.316406 L 277.078125 54.398438 C 276.738281 54.554688 276.402344 54.671875 276.0625 54.734375 C 275.710938 54.800781 275.332031 54.839844 274.941406 54.839844 C 273.875 54.839844 273.015625 54.515625 272.390625 53.839844 C 271.753906 53.175781 271.441406 52.265625 271.441406 51.121094 C 271.441406 49.960938 271.753906 49.050781 272.390625 48.390625 C 273.027344 47.726562 273.902344 47.386719 275.019531 47.386719 C 275.386719 47.386719 275.738281 47.425781 276.074219 47.503906 C 276.414062 47.582031 276.753906 47.6875 277.078125 47.828125 Z M 277.078125 47.828125 "/>
<path style=" stroke:none;fill-rule:nonzero;fill:rgb(0%,0%,0%);fill-opacity:1;" d="M 285.203125 50.820312 L 285.203125 51.394531 L 279.824219 51.394531 C 279.878906 52.199219 280.113281 52.824219 280.554688 53.238281 C 280.984375 53.65625 281.582031 53.863281 282.363281 53.863281 C 282.808594 53.863281 283.25 53.8125 283.667969 53.707031 C 284.082031 53.605469 284.511719 53.433594 284.929688 53.199219 L 284.929688 54.304688 C 284.511719 54.488281 284.082031 54.632812 283.640625 54.710938 C 283.199219 54.789062 282.742188 54.839844 282.300781 54.839844 C 281.152344 54.839844 280.253906 54.515625 279.589844 53.863281 C 278.925781 53.214844 278.601562 52.316406 278.601562 51.183594 C 278.601562 50.027344 278.914062 49.105469 279.539062 48.414062 C 280.164062 47.738281 281.023438 47.386719 282.089844 47.386719 C 283.054688 47.386719 283.808594 47.699219 284.371094 48.3125 C 284.917969 48.933594 285.203125 49.769531 285.203125 50.820312 Z M 284.03125 50.484375 C 284.019531 49.847656 283.835938 49.339844 283.496094 48.949219 C 283.144531 48.570312 282.675781 48.375 282.105469 48.375 C 281.453125 48.375 280.933594 48.570312 280.542969 48.933594 C 280.152344 49.300781 279.917969 49.820312 279.863281 50.484375 Z M 284.03125 50.484375 "/>
<path style=" stroke:none;fill-rule:nonzero;fill:rgb(0%,0%,0%);fill-opacity:1;" d="M 291.414062 48.765625 L 299.566406 48.765625 L 299.566406 49.832031 L 291.414062 49.832031 Z M 291.414062 51.355469 L 299.566406 51.355469 L 299.566406 52.433594 L 291.414062 52.433594 Z M 291.414062 51.355469 "/>
<path style=" stroke:none;fill-rule:nonzero;fill:rgb(0%,0%,0%);fill-opacity:1;" d="M 306.699219 53.589844 L 308.796875 53.589844 L 308.796875 46.359375 L 306.519531 46.816406 L 306.519531 45.644531 L 308.785156 45.191406 L 310.074219 45.191406 L 310.074219 53.589844 L 312.167969 53.589844 L 312.167969 54.671875 L 306.699219 54.671875 Z M 306.699219 53.589844 "/>
<path style=" stroke:none;fill-rule:nonzero;fill:rgb(0%,0%,0%);fill-opacity:1;" d="M 314.980469 53.589844 L 317.078125 53.589844 L 317.078125 46.359375 L 314.800781 46.816406 L 314.800781 45.644531 L 317.066406 45.191406 L 318.355469 45.191406 L 318.355469 53.589844 L 320.449219 53.589844 L 320.449219 54.671875 L 314.980469 54.671875 Z M 314.980469 53.589844 "/>
<path style=" stroke:none;fill-rule:nonzero;fill:rgb(0%,0%,0%);fill-opacity:1;" d="M 323.042969 53.058594 L 324.382812 53.058594 L 324.382812 54.671875 L 323.042969 54.671875 Z M 323.042969 53.058594 "/>
<path style=" stroke:none;fill-rule:nonzero;fill:rgb(0%,0%,0%);fill-opacity:1;" d="M 327.402344 53.589844 L 329.5 53.589844 L 329.5 46.359375 L 327.222656 46.816406 L 327.222656 45.644531 L 329.488281 45.191406 L 330.777344 45.191406 L 330.777344 53.589844 L 332.871094 53.589844 L 332.871094 54.671875 L 327.402344 54.671875 Z M 327.402344 53.589844 "/>
<path style=" stroke:none;fill-rule:nonzero;fill:rgb(0%,0%,0%);fill-opacity:1;" d="M 339.355469 49.558594 C 339.96875 49.691406 340.449219 49.960938 340.789062 50.378906 C 341.128906 50.796875 341.308594 51.316406 341.308594 51.914062 C 341.308594 52.851562 340.984375 53.578125 340.347656 54.085938 C 339.695312 54.59375 338.785156 54.839844 337.597656 54.839844 C 337.195312 54.839844 336.777344 54.800781 336.363281 54.722656 C 335.945312 54.65625 335.503906 54.539062 335.058594 54.382812 L 335.058594 53.148438 C 335.410156 53.355469 335.800781 53.511719 336.230469 53.617188 C 336.648438 53.722656 337.089844 53.773438 337.558594 53.773438 C 338.367188 53.773438 338.980469 53.617188 339.394531 53.304688 C 339.8125 52.992188 340.035156 52.523438 340.035156 51.914062 C 340.035156 51.367188 339.839844 50.925781 339.449219 50.613281 C 339.058594 50.300781 338.511719 50.132812 337.808594 50.132812 L 336.699219 50.132812 L 336.699219 49.078125 L 337.859375 49.078125 C 338.484375 49.078125 338.964844 48.960938 339.304688 48.703125 C 339.644531 48.453125 339.8125 48.089844 339.8125 47.609375 C 339.8125 47.128906 339.628906 46.75 339.292969 46.492188 C 338.941406 46.230469 338.445312 46.101562 337.808594 46.101562 C 337.457031 46.101562 337.078125 46.140625 336.675781 46.21875 C 336.269531 46.296875 335.828125 46.414062 335.347656 46.570312 L 335.347656 45.425781 C 335.828125 45.292969 336.285156 45.191406 336.714844 45.125 C 337.128906 45.058594 337.535156 45.019531 337.925781 45.019531 C 338.886719 45.019531 339.65625 45.242188 340.230469 45.683594 C 340.800781 46.125 341.089844 46.722656 341.089844 47.480469 C 341.089844 48 340.933594 48.441406 340.632812 48.804688 C 340.332031 49.167969 339.902344 49.429688 339.355469 49.558594 Z M 339.355469 49.558594 "/>
<path style=" stroke:none;fill-rule:nonzero;fill:rgb(0%,0%,0%);fill-opacity:1;" d="M 353.261719 48.921875 C 353.550781 48.402344 353.902344 48.023438 354.304688 47.765625 C 354.707031 47.519531 355.191406 47.386719 355.75 47.386719 C 356.480469 47.386719 357.050781 47.648438 357.457031 48.167969 C 357.859375 48.6875 358.066406 49.429688 358.066406 50.378906 L 358.066406 54.671875 L 356.894531 54.671875 L 356.894531 50.417969 C 356.894531 49.742188 356.765625 49.234375 356.53125 48.894531 C 356.285156 48.570312 355.917969 48.402344 355.425781 48.402344 C 354.8125 48.402344 354.332031 48.609375 353.980469 49.011719 C 353.628906 49.417969 353.457031 49.960938 353.457031 50.652344 L 353.457031 54.671875 L 352.285156 54.671875 L 352.285156 50.417969 C 352.285156 49.742188 352.15625 49.234375 351.921875 48.894531 C 351.675781 48.570312 351.296875 48.402344 350.800781 48.402344 C 350.203125 48.402344 349.722656 48.609375 349.371094 49.011719 C 349.019531 49.417969 348.847656 49.960938 348.847656 50.652344 L 348.847656 54.671875 L 347.675781 54.671875 L 347.675781 47.558594 L 348.847656 47.558594 L 348.847656 48.664062 C 349.109375 48.234375 349.433594 47.90625 349.8125 47.699219 C 350.175781 47.492188 350.621094 47.386719 351.140625 47.386719 C 351.660156 47.386719 352.089844 47.519531 352.457031 47.777344 C 352.820312 48.039062 353.082031 48.429688 353.261719 48.921875 Z M 353.261719 48.921875 "/>
</g>
</svg>
