<svg xmlns="http://www.w3.org/2000/svg" xmlns:xlink="http://www.w3.org/1999/xlink" width="319pt" height="298pt" viewBox="0 0 319 298"><clipPath id="a"><path transform="matrix(1 0 0 -1 -7 305)" d="M0 0h331.825v310.856H0z"/></clipPath><g clip-path="url(#a)"><path d="M-7 305h331.825V-5.856H-7z" fill="#fff"/><path d="M51.513 267.456h266.112V1.344H51.512z" fill="#fff"/><path stroke-width=".8" stroke-linejoin="round" fill="none" stroke="#000" d="M54.654 267.456v3.5"/><symbol id="b"><path transform="matrix(.001 0 0 .001 -.066 .013)" d="M318 664c-51 0-89-25-115-75s-38-125-38-225 12-175 38-225 64-75 115-75 89 25 115 75c25 50 38 125 38 225s-13 175-38 225c-26 50-64 75-115 75zm0 78c81 0 143-33 187-97 43-65 65-159 65-281 0-123-22-217-65-281-44-64-106-96-188-96S173 19 130 83 66 241 66 364c0 122 21 216 64 281 43 64 106 97 188 97z"/></symbol><use xlink:href="#b" transform="matrix(10 0 0 -10 52.134 282.18)"/><path stroke-width=".8" stroke-linejoin="round" fill="none" stroke="#000" d="M111.873 267.456v3.5"/><symbol id="c"><path transform="translate(-.11) scale(.001)" d="M124 83h161v556l-175-35v90l174 35h99V83h161V0H124v83z"/></symbol><use xlink:href="#c" transform="matrix(10 0 0 -10 106.614 282.05)"/><use xlink:href="#b" transform="matrix(10 0 0 -10 112.534 282.18)"/><path stroke-width=".8" stroke-linejoin="round" fill="none" stroke="#000" d="M169.093 267.456v3.5"/><symbol id="d"><path transform="translate(-.073) scale(.001)" d="M192 83h344V0H73v83c37 38 88 90 153 156 64 65 105 107 122 126 32 35 54 65 66 90 12 24 19 49 19 73 0 38-14 70-41 94s-62 37-106 37c-31 0-64-6-98-16-34-11-71-27-110-49v100c40 16 77 28 111 36s66 12 95 12c75 0 135-19 180-57s68-88 68-151c0-30-6-59-17-85-11-27-31-59-61-95-8-10-34-37-78-82S271 164 192 83z"/></symbol><use xlink:href="#d" transform="matrix(10 0 0 -10 163.464 282.05)"/><use xlink:href="#b" transform="matrix(10 0 0 -10 169.754 282.18)"/><path stroke-width=".8" stroke-linejoin="round" fill="none" stroke="#000" d="M226.313 267.456v3.5"/><symbol id="e"><path transform="matrix(.001 0 0 .001 -.076 .013)" d="M406 393c47-10 84-31 110-63s40-72 40-118c0-72-25-128-74-167-50-39-120-58-211-58-31 0-63 3-95 9-32 5-66 14-100 26v95c27-16 57-28 90-36 32-8 66-12 102-12 62 0 109 12 141 36s49 60 49 107c0 42-15 76-45 100s-72 37-126 37h-85v81h89c48 0 85 9 111 29 26 19 39 47 39 84s-14 66-40 86c-27 20-65 30-114 30-27 0-56-3-87-9s-65-15-102-27v88c37 10 72 18 105 23 32 5 63 8 93 8 74 0 133-17 177-51s66-80 66-138c0-40-12-74-35-102s-56-48-98-58z"/></symbol><use xlink:href="#e" transform="matrix(10 0 0 -10 220.714 282.18)"/><use xlink:href="#b" transform="matrix(10 0 0 -10 226.974 282.18)"/><path stroke-width=".8" stroke-linejoin="round" fill="none" stroke="#000" d="M283.533 267.456v3.5"/><symbol id="f"><path transform="translate(-.049) scale(.001)" d="M378 643 129 254h249v389zm-26 86h124V254h104v-82H476V0h-98v172H49v95l303 462z"/></symbol><use xlink:href="#f" transform="matrix(10 0 0 -10 277.664 282.05)"/><use xlink:href="#b" transform="matrix(10 0 0 -10 284.194 282.18)"/><symbol id="g"><path transform="translate(.002) scale(.001)" d="M-2 729h616v-83H355V0h-99v646H-2v83z"/></symbol><symbol id="h"><path transform="translate(-.094) scale(.001)" d="M94 547h90V0H94v547zm0 213h90V646H94v114z"/></symbol><symbol id="i"><path transform="translate(-.091) scale(.001)" d="M520 442c22 40 49 69 80 89 31 19 68 29 111 29 56 0 100-20 131-60s47-97 47-170V0h-90v327c0 52-10 91-28 117-19 25-47 38-85 38-47 0-84-16-111-47s-40-73-40-126V0h-90v327c0 52-10 91-28 117-19 25-48 38-86 38-46 0-83-16-110-47s-40-73-40-126V0H91v547h90v-85c20 33 45 58 74 74 28 16 62 24 102 24s73-10 101-30 48-50 62-88z"/></symbol><symbol id="j"><path transform="matrix(.001 0 0 .001 -.055 .013)" d="M562 296v-44H149c4-62 22-110 56-142 33-32 79-48 139-48 34 0 68 4 100 12s65 21 97 39V28c-32-14-65-25-99-31s-69-10-103-10c-88 0-157 25-208 75S55 181 55 268c0 89 24 160 72 213 48 52 114 79 196 79 74 0 132-24 175-71 42-48 64-112 64-193zm-90 26c-1 49-15 88-41 118-27 29-63 44-107 44-50 0-90-15-120-43s-48-68-52-119h320z"/></symbol><symbol id="l"><path transform="matrix(.001 0 0 .001 -.086 .131)" d="M86 760h207v-70H176V-61h117v-70H86v891z"/></symbol><symbol id="m"><path transform="matrix(.001 0 0 .001 -.054 .013)" d="M443 531v-85c-26 12-52 22-79 29-28 6-56 10-85 10-45 0-79-7-101-21s-33-34-33-61c0-21 8-37 24-49s48-24 96-34l31-7c64-14 109-34 136-58 26-25 40-60 40-104 0-51-20-91-60-120-40-30-96-44-166-44-30 0-60 3-92 8S89 8 54 20v93c33-18 66-31 98-39 32-9 64-13 96-13 42 0 75 7 98 21 22 14 34 35 34 62 0 24-9 43-25 56s-52 26-108 38l-31 7c-56 12-97 30-121 54-25 24-37 57-37 100 0 51 18 91 54 119s88 42 156 42c33 0 64-3 94-8 29-5 56-12 81-21z"/></symbol><symbol id="n"><path transform="matrix(.001 0 0 .001 -.097 .131)" d="M304 760v-891H97v70h117v751H97v70h207z"/></symbol><use xlink:href="#g" transform="matrix(10 0 0 -10 164.166 295.722)"/><use xlink:href="#h" transform="matrix(10 0 0 -10 170.939 295.722)"/><use xlink:href="#i" transform="matrix(10 0 0 -10 173.689 295.722)"/><use xlink:href="#j" transform="matrix(10 0 0 -10 183.069 295.852)"/><use xlink:href="#k" transform="matrix(10 0 0 -10 188.669 295.722)"/><use xlink:href="#l" transform="matrix(10 0 0 -10 192.709 297.032)"/><use xlink:href="#m" transform="matrix(10 0 0 -10 196.289 295.852)"/><use xlink:href="#n" transform="matrix(10 0 0 -10 201.929 297.032)"/><path stroke-width=".8" stroke-linejoin="round" fill="none" stroke="#000" d="M51.513 231.168h-3.5"/><symbol id="o"><path transform="translate(-.107) scale(.001)" d="M107 124h103V0H107v124z"/></symbol><use xlink:href="#b" transform="matrix(10 0 0 -10 22.91 235.095)"/><use xlink:href="#o" transform="matrix(10 0 0 -10 29.68 234.965)"/><use xlink:href="#b" transform="matrix(10 0 0 -10 32.45 235.095)"/><use xlink:href="#f" transform="matrix(10 0 0 -10 38.64 234.965)"/><clipPath id="p"><path transform="matrix(.01 0 0 -.01 13.872 234.965)" d="M-1021-463h2815v1696h-2815z"/></clipPath><g clip-path="url(#p)"><path d="M14.932 231.415h6.26v.83h-6.26v-.83z"/></g><path stroke-width=".8" stroke-linejoin="round" fill="none" stroke="#000" d="M51.513 182.784h-3.5"/><use xlink:href="#b" transform="matrix(10 0 0 -10 22.91 186.711)"/><use xlink:href="#o" transform="matrix(10 0 0 -10 29.68 186.581)"/><use xlink:href="#b" transform="matrix(10 0 0 -10 32.45 186.711)"/><use xlink:href="#d" transform="matrix(10 0 0 -10 38.88 186.581)"/><clipPath id="q"><path transform="matrix(.01 0 0 -.01 13.872 186.581)" d="M-1021-463h2815v1696h-2815z"/></clipPath><g clip-path="url(#q)"><path d="M14.932 183.031h6.26v.83h-6.26v-.83z"/></g><path stroke-width=".8" stroke-linejoin="round" fill="none" stroke="#000" d="M51.513 134.4h-3.5"/><use xlink:href="#b" transform="matrix(10 0 0 -10 22.907 138.327)"/><use xlink:href="#o" transform="matrix(10 0 0 -10 29.677 138.197)"/><use xlink:href="#b" transform="matrix(10 0 0 -10 32.447 138.327)"/><use xlink:href="#b" transform="matrix(10 0 0 -10 38.807 138.327)"/><path stroke-width=".8" stroke-linejoin="round" fill="none" stroke="#000" d="M51.513 86.016h-3.5"/><use xlink:href="#b" transform="matrix(10 0 0 -10 22.907 89.943)"/><use xlink:href="#o" transform="matrix(10 0 0 -10 29.677 89.813)"/><use xlink:href="#b" transform="matrix(10 0 0 -10 32.447 89.943)"/><use xlink:href="#d" transform="matrix(10 0 0 -10 38.877 89.813)"/><path stroke-width=".8" stroke-linejoin="round" fill="none" stroke="#000" d="M51.513 37.632h-3.5"/><use xlink:href="#b" transform="matrix(10 0 0 -10 22.907 41.56)"/><use xlink:href="#o" transform="matrix(10 0 0 -10 29.677 41.43)"/><use xlink:href="#b" transform="matrix(10 0 0 -10 32.447 41.56)"/><use xlink:href="#f" transform="matrix(10 0 0 -10 38.637 41.43)"/><symbol id="r"><path transform="translate(-.098) scale(.001)" d="M98 729h99V0H98v729z"/></symbol><symbol id="s"><path transform="translate(-.091) scale(.001)" d="M549 330V0h-90v327c0 52-11 90-31 116s-50 39-90 39c-49 0-87-16-115-47s-42-73-42-126V0H91v547h90v-85c21 32 46 57 76 73 29 16 63 25 101 25 62 0 110-20 142-59s49-96 49-171z"/></symbol><symbol id="t"><path transform="matrix(.001 0 0 .001 0 .092)" d="M254 729h83L83-92H0l254 821z"/></symbol><symbol id="u"><path transform="matrix(.001 0 0 .001 -.056 .013)" d="M394 662c-72 0-129-27-171-80-42-54-63-126-63-218s21-165 63-218c42-54 99-80 171-80 71 0 128 26 170 80 42 53 63 126 63 218s-21 164-63 218c-42 53-99 80-170 80zm0 80c102 0 183-35 245-103 61-68 92-160 92-275 0-116-31-207-92-275C577 21 496-13 394-13 291-13 209 21 148 89c-62 68-92 159-92 275 0 115 30 207 92 275 61 68 143 103 246 103z"/></symbol><symbol id="v"><path transform="matrix(.001 0 0 .001 -.085 .013)" d="M85 216v331h90V219c0-52 10-90 30-116s50-39 91-39c48 0 87 15 115 46s42 73 42 127v310h90V0h-90v84c-22-34-48-58-76-74-29-15-62-23-100-23-63 0-111 19-143 58-33 38-49 95-49 171zm226 344z"/></symbol><symbol id="w"><path transform="translate(-.027) scale(.001)" d="M183 702V547h185v-70H183V180c0-45 6-74 18-86 12-13 37-19 75-19h92V0h-92c-70 0-118 13-144 39s-39 73-39 141v297H27v70h66v155h90z"/></symbol><symbol id="x"><path transform="matrix(.001 0 0 .001 -.06 .013)" d="M343 275c-73 0-123-9-151-25-28-17-42-45-42-85 0-32 10-58 31-76 21-19 50-28 86-28 50 0 90 17 120 53 30 35 45 82 45 141v20h-89zm179 37V0h-90v83c-21-34-47-58-77-73s-68-23-112-23c-56 0-101 15-134 46s-49 73-49 126c0 61 20 107 62 139 41 31 102 47 184 47h126v9c0 41-14 73-41 96-27 22-65 34-114 34-32 0-62-4-92-12s-58-19-85-33v83c32 12 64 22 95 28s61 10 91 10c79 0 138-21 177-62s59-103 59-186z"/></symbol><symbol id="y"><path transform="translate(-.023) scale(.001)" d="M371 760v-75h-86c-32 0-55-7-67-20-13-13-19-36-19-70v-48h148v-70H199V0h-90v477H23v70h86v38c0 60 14 105 42 133s73 42 135 42h85z"/></symbol><symbol id="z"><path transform="matrix(.001 0 0 .001 -.03 .207)" d="M322-50c-26-64-51-107-75-127s-56-30-96-30H79v75h53c24 0 43 6 57 18s29 39 46 83l16 40L30 547h95l171-428 171 428h95L322-50z"/></symbol><symbol id="A"><path transform="translate(-.091) scale(.001)" d="M411 463c-10 6-21 10-33 13-12 2-25 4-39 4-51 0-90-17-117-50-28-33-41-80-41-142V0H91v547h90v-85c18 33 43 58 73 74s67 24 111 24c6 0 13-1 21-1 7-1 15-2 25-4v-92z"/></symbol><use xlink:href="#r" transform="matrix(0 -10 -10 0 7.794 178.577)"/><use xlink:href="#s" transform="matrix(0 -10 -10 0 7.794 175.696)"/><use xlink:href="#t" transform="matrix(0 -10 -10 0 8.714 170.267)"/><use xlink:href="#u" transform="matrix(0 -10 -10 0 7.924 166.337)"/><use xlink:href="#v" transform="matrix(0 -10 -10 0 7.924 158.177)"/><use xlink:href="#w" transform="matrix(0 -10 -10 0 7.794 152.416)"/><use xlink:href="#k" transform="matrix(0 -10 -10 0 7.794 148.767)"/><use xlink:href="#m" transform="matrix(0 -10 -10 0 7.924 145.047)"/><use xlink:href="#x" transform="matrix(0 -10 -10 0 7.924 139.776)"/><use xlink:href="#y" transform="matrix(0 -10 -10 0 7.794 134.017)"/><use xlink:href="#j" transform="matrix(0 -10 -10 0 7.924 130.177)"/><use xlink:href="#w" transform="matrix(0 -10 -10 0 7.794 124.306)"/><use xlink:href="#z" transform="matrix(0 -10 -10 0 9.864 120.356)"/><use xlink:href="#k" transform="matrix(0 -10 -10 0 7.794 114.737)"/><use xlink:href="#x" transform="matrix(0 -10 -10 0 7.924 110.957)"/><use xlink:href="#A" transform="matrix(0 -10 -10 0 7.794 104.516)"/><use xlink:href="#j" transform="matrix(0 -10 -10 0 7.924 100.985)"/><use xlink:href="#x" transform="matrix(0 -10 -10 0 7.924 94.785)"/><clipPath id="B"><path transform="matrix(1 0 0 -1 -7 305)" d="M58.513 37.544h266.112v266.112H58.512z"/></clipPath><g clip-path="url(#B)"><path stroke-width="1.5" stroke-linecap="square" stroke-linejoin="round" fill="none" stroke="red" d="M63.609 134.4h241.92"/></g><path stroke-width=".8" stroke-linecap="square" stroke-miterlimit="10" fill="none" stroke="#000" d="M51.513 267.456V1.344M317.625 267.456V1.344M51.513 267.456h266.112M51.513 1.344h266.112"/><path d="M105.093 24.016h205.531c1.334 0 2-.667 2-2V8.344c0-1.333-.666-2-2-2h-205.53c-1.334 0-2 .667-2 2v13.672c0 1.333.666 2 2 2z" fill="#fff" fill-opacity=".8"/><path stroke-miterlimit="10" fill="none" stroke="#d5d6d5" stroke-opacity=".8" d="M105.093 24.016h205.531c1.334 0 2-.667 2-2V8.344c0-1.333-.666-2-2-2h-205.53c-1.334 0-2 .667-2 2v13.672c0 1.333.666 2 2 2z"/><path stroke-width="1.5" stroke-linecap="square" stroke-linejoin="round" fill="none" stroke="red" d="M107.093 14.438h20"/><symbol id="C"><path transform="matrix(.001 0 0 .001 -.056 .013)" d="M644 673V569c-34 30-69 53-107 69-38 15-77 23-119 23-84 0-148-26-192-77s-66-124-66-220 22-170 66-221 108-76 192-76c42 0 81 7 119 23 38 15 73 38 107 69V56c-35-24-72-41-110-52s-79-17-122-17C302-13 215 20 151 87S56 246 56 364c0 117 31 209 95 277 64 67 151 101 261 101 44 0 85-6 123-17 38-12 75-29 109-52z"/></symbol><symbol id="D"><path transform="matrix(.001 0 0 .001 -.055 .013)" d="M306 484c-48 0-86-19-114-57s-42-89-42-154c0-66 13-117 41-155s66-56 115-56c48 0 86 18 114 56s42 89 42 155c0 64-14 116-42 154s-66 57-114 57zm0 76c78 0 139-26 184-76 44-51 67-121 67-211s-23-160-67-210c-45-51-106-76-184-76-79 0-141 25-185 76-44 50-66 120-66 210s22 160 66 211c44 50 106 76 185 76z"/></symbol><symbol id="E"><path transform="translate(-.094) scale(.001)" d="M94 760h90V0H94v760z"/></symbol><symbol id="F"><path transform="matrix(.001 0 0 .001 -.055 .013)" d="M488 526v-84c-26 14-51 24-77 31s-51 11-77 11c-58 0-104-19-136-56s-48-89-48-155c0-67 16-119 48-156s78-55 136-55c26 0 51 3 77 10s51 18 77 32V21C462 9 436 0 410-5c-27-5-56-8-86-8-82 0-148 25-196 77-49 51-73 121-73 209 0 89 24 159 73 210s116 77 202 77c28 0 55-3 81-9s52-14 77-25z"/></symbol><symbol id="G"><path transform="translate(-.091) scale(.001)" d="M549 330V0h-90v327c0 52-11 90-31 116s-50 39-90 39c-49 0-87-16-115-47s-42-73-42-126V0H91v760h90V462c21 32 46 57 76 73 29 16 63 25 101 25 62 0 110-20 142-59s49-96 49-171z"/></symbol><symbol id="H"><path transform="translate(-.091) scale(.001)" d="M91 760h90V311l268 236h115L274 291 576 0H459L181 267V0H91v760z"/></symbol><symbol id="I"><path transform="translate(-.042) scale(.001)" d="M42 547h90l112-427 112 427h106l112-427 112 427h90L633 0H527L409 448 291 0H185L42 547z"/></symbol><symbol id="J"><path transform="matrix(.001 0 0 .001 -.055 .013)" d="M454 464v296h90V0h-90v82c-19-33-43-57-72-72s-63-23-103-23c-66 0-120 26-162 78S55 187 55 273s20 155 62 208c42 52 96 79 162 79 40 0 74-8 103-24s53-40 72-72zM148 273c0-66 13-118 40-156s64-56 112-56 85 18 113 56c27 38 41 90 41 156s-14 117-41 155c-28 38-65 57-113 57s-85-19-112-57-40-89-40-155z"/></symbol><use xlink:href="#C" transform="matrix(10 0 0 -10 135.653 18.068)"/><use xlink:href="#D" transform="matrix(10 0 0 -10 142.623 18.068)"/><use xlink:href="#E" transform="matrix(10 0 0 -10 149.133 17.938)"/><use xlink:href="#E" transform="matrix(10 0 0 -10 151.913 17.938)"/><use xlink:href="#h" transform="matrix(10 0 0 -10 154.693 17.938)"/><use xlink:href="#m" transform="matrix(10 0 0 -10 157.073 18.068)"/><use xlink:href="#h" transform="matrix(10 0 0 -10 162.683 17.938)"/><use xlink:href="#D" transform="matrix(10 0 0 -10 165.073 18.068)"/><use xlink:href="#s" transform="matrix(10 0 0 -10 171.553 17.938)"/><use xlink:href="#k" transform="matrix(10 0 0 -10 176.983 17.938)"/><use xlink:href="#F" transform="matrix(10 0 0 -10 180.713 18.068)"/><use xlink:href="#G" transform="matrix(10 0 0 -10 186.573 17.938)"/><use xlink:href="#j" transform="matrix(10 0 0 -10 192.553 18.068)"/><use xlink:href="#F" transform="matrix(10 0 0 -10 198.703 18.068)"/><use xlink:href="#H" transform="matrix(10 0 0 -10 204.563 17.938)"/><use xlink:href="#k" transform="matrix(10 0 0 -10 209.443 17.938)"/><use xlink:href="#I" transform="matrix(10 0 0 -10 213.043 17.938)"/><use xlink:href="#h" transform="matrix(10 0 0 -10 221.743 17.938)"/><use xlink:href="#w" transform="matrix(10 0 0 -10 223.853 17.938)"/><use xlink:href="#G" transform="matrix(10 0 0 -10 228.413 17.938)"/><use xlink:href="#k" transform="matrix(10 0 0 -10 233.843 17.938)"/><use xlink:href="#m" transform="matrix(10 0 0 -10 237.563 18.068)"/><use xlink:href="#x" transform="matrix(10 0 0 -10 242.833 18.068)"/><use xlink:href="#y" transform="matrix(10 0 0 -10 248.593 17.938)"/><use xlink:href="#j" transform="matrix(10 0 0 -10 252.433 18.068)"/><use xlink:href="#w" transform="matrix(10 0 0 -10 258.303 17.938)"/><use xlink:href="#z" transform="matrix(10 0 0 -10 262.253 20.008)"/><use xlink:href="#k" transform="matrix(10 0 0 -10 267.873 17.938)"/><use xlink:href="#J" transform="matrix(10 0 0 -10 271.603 18.068)"/><use xlink:href="#D" transform="matrix(10 0 0 -10 277.953 18.068)"/><use xlink:href="#i" transform="matrix(10 0 0 -10 284.433 17.938)"/><use xlink:href="#x" transform="matrix(10 0 0 -10 293.863 18.068)"/><use xlink:href="#h" transform="matrix(10 0 0 -10 300.333 17.938)"/><use xlink:href="#s" transform="matrix(10 0 0 -10 303.083 17.938)"/></g></svg>