<svg xmlns="http://www.w3.org/2000/svg" xmlns:xlink="http://www.w3.org/1999/xlink" width="301pt" height="298pt" viewBox="0 0 301 298"><clipPath id="a"><path transform="matrix(1 0 0 -1 -7 305)" d="M0 0h313.903v310.856H0z"/></clipPath><g clip-path="url(#a)"><path d="M-7 305h313.903V-5.856H-7z" fill="#fff"/><path d="M33.59 267.456h266.113V1.344H33.59z" fill="#fff"/><path stroke-width=".8" stroke-linejoin="round" fill="none" stroke="#000" d="M36.732 267.456v3.5"/><symbol id="b"><path transform="matrix(.001 0 0 .001 -.066 .013)" d="M318 664c-51 0-89-25-115-75s-38-125-38-225 12-175 38-225 64-75 115-75 89 25 115 75c25 50 38 125 38 225s-13 175-38 225c-26 50-64 75-115 75zm0 78c81 0 143-33 187-97 43-65 65-159 65-281 0-123-22-217-65-281-44-64-106-96-188-96S173 19 130 83 66 241 66 364c0 122 21 216 64 281 43 64 106 97 188 97z"/></symbol><use xlink:href="#b" transform="matrix(10 0 0 -10 34.212 282.18)"/><path stroke-width=".8" stroke-linejoin="round" fill="none" stroke="#000" d="M93.952 267.456v3.5"/><symbol id="c"><path transform="translate(-.11) scale(.001)" d="M124 83h161v556l-175-35v90l174 35h99V83h161V0H124v83z"/></symbol><use xlink:href="#c" transform="matrix(10 0 0 -10 88.692 282.05)"/><use xlink:href="#b" transform="matrix(10 0 0 -10 94.612 282.18)"/><path stroke-width=".8" stroke-linejoin="round" fill="none" stroke="#000" d="M151.172 267.456v3.5"/><symbol id="d"><path transform="translate(-.073) scale(.001)" d="M192 83h344V0H73v83c37 38 88 90 153 156 64 65 105 107 122 126 32 35 54 65 66 90 12 24 19 49 19 73 0 38-14 70-41 94s-62 37-106 37c-31 0-64-6-98-16-34-11-71-27-110-49v100c40 16 77 28 111 36s66 12 95 12c75 0 135-19 180-57s68-88 68-151c0-30-6-59-17-85-11-27-31-59-61-95-8-10-34-37-78-82S271 164 192 83z"/></symbol><use xlink:href="#d" transform="matrix(10 0 0 -10 145.542 282.05)"/><use xlink:href="#b" transform="matrix(10 0 0 -10 151.832 282.18)"/><path stroke-width=".8" stroke-linejoin="round" fill="none" stroke="#000" d="M208.391 267.456v3.5"/><symbol id="e"><path transform="matrix(.001 0 0 .001 -.076 .013)" d="M406 393c47-10 84-31 110-63s40-72 40-118c0-72-25-128-74-167-50-39-120-58-211-58-31 0-63 3-95 9-32 5-66 14-100 26v95c27-16 57-28 90-36 32-8 66-12 102-12 62 0 109 12 141 36s49 60 49 107c0 42-15 76-45 100s-72 37-126 37h-85v81h89c48 0 85 9 111 29 26 19 39 47 39 84s-14 66-40 86c-27 20-65 30-114 30-27 0-56-3-87-9s-65-15-102-27v88c37 10 72 18 105 23 32 5 63 8 93 8 74 0 133-17 177-51s66-80 66-138c0-40-12-74-35-102s-56-48-98-58z"/></symbol><use xlink:href="#e" transform="matrix(10 0 0 -10 202.792 282.18)"/><use xlink:href="#b" transform="matrix(10 0 0 -10 209.052 282.18)"/><path stroke-width=".8" stroke-linejoin="round" fill="none" stroke="#000" d="M265.611 267.456v3.5"/><symbol id="f"><path transform="translate(-.049) scale(.001)" d="M378 643 129 254h249v389zm-26 86h124V254h104v-82H476V0h-98v172H49v95l303 462z"/></symbol><use xlink:href="#f" transform="matrix(10 0 0 -10 259.742 282.05)"/><use xlink:href="#b" transform="matrix(10 0 0 -10 266.272 282.18)"/><symbol id="g"><path transform="translate(.002) scale(.001)" d="M-2 729h616v-83H355V0h-99v646H-2v83z"/></symbol><symbol id="h"><path transform="translate(-.094) scale(.001)" d="M94 547h90V0H94v547zm0 213h90V646H94v114z"/></symbol><symbol id="i"><path transform="translate(-.091) scale(.001)" d="M520 442c22 40 49 69 80 89 31 19 68 29 111 29 56 0 100-20 131-60s47-97 47-170V0h-90v327c0 52-10 91-28 117-19 25-47 38-85 38-47 0-84-16-111-47s-40-73-40-126V0h-90v327c0 52-10 91-28 117-19 25-48 38-86 38-46 0-83-16-110-47s-40-73-40-126V0H91v547h90v-85c20 33 45 58 74 74 28 16 62 24 102 24s73-10 101-30 48-50 62-88z"/></symbol><symbol id="j"><path transform="matrix(.001 0 0 .001 -.055 .013)" d="M562 296v-44H149c4-62 22-110 56-142 33-32 79-48 139-48 34 0 68 4 100 12s65 21 97 39V28c-32-14-65-25-99-31s-69-10-103-10c-88 0-157 25-208 75S55 181 55 268c0 89 24 160 72 213 48 52 114 79 196 79 74 0 132-24 175-71 42-48 64-112 64-193zm-90 26c-1 49-15 88-41 118-27 29-63 44-107 44-50 0-90-15-120-43s-48-68-52-119h320z"/></symbol><symbol id="l"><path transform="matrix(.001 0 0 .001 -.086 .131)" d="M86 760h207v-70H176V-61h117v-70H86v891z"/></symbol><symbol id="m"><path transform="matrix(.001 0 0 .001 -.054 .013)" d="M443 531v-85c-26 12-52 22-79 29-28 6-56 10-85 10-45 0-79-7-101-21s-33-34-33-61c0-21 8-37 24-49s48-24 96-34l31-7c64-14 109-34 136-58 26-25 40-60 40-104 0-51-20-91-60-120-40-30-96-44-166-44-30 0-60 3-92 8S89 8 54 20v93c33-18 66-31 98-39 32-9 64-13 96-13 42 0 75 7 98 21 22 14 34 35 34 62 0 24-9 43-25 56s-52 26-108 38l-31 7c-56 12-97 30-121 54-25 24-37 57-37 100 0 51 18 91 54 119s88 42 156 42c33 0 64-3 94-8 29-5 56-12 81-21z"/></symbol><symbol id="n"><path transform="matrix(.001 0 0 .001 -.097 .131)" d="M304 760v-891H97v70h117v751H97v70h207z"/></symbol><use xlink:href="#g" transform="matrix(10 0 0 -10 146.244 295.722)"/><use xlink:href="#h" transform="matrix(10 0 0 -10 153.017 295.722)"/><use xlink:href="#i" transform="matrix(10 0 0 -10 155.767 295.722)"/><use xlink:href="#j" transform="matrix(10 0 0 -10 165.147 295.852)"/><use xlink:href="#k" transform="matrix(10 0 0 -10 170.747 295.722)"/><use xlink:href="#l" transform="matrix(10 0 0 -10 174.787 297.032)"/><use xlink:href="#m" transform="matrix(10 0 0 -10 178.367 295.852)"/><use xlink:href="#n" transform="matrix(10 0 0 -10 184.007 297.032)"/><path stroke-width=".8" stroke-linejoin="round" fill="none" stroke="#000" d="M33.59 265.178h-3.5"/><use xlink:href="#c" transform="matrix(10 0 0 -10 14.972 268.975)"/><use xlink:href="#b" transform="matrix(10 0 0 -10 20.892 269.105)"/><path stroke-width=".8" stroke-linejoin="round" fill="none" stroke="#000" d="M33.59 235.426h-3.5"/><symbol id="o"><path transform="matrix(.001 0 0 .001 -.077 .013)" d="M108 729h387v-83H198V467c14 5 29 9 43 11s29 4 43 4c81 0 145-23 193-67 48-45 72-105 72-181 0-79-25-140-74-183S357-13 269-13c-31 0-62 3-94 7-32 5-64 12-98 23v99c29-16 59-28 91-36 31-8 64-11 99-11 56 0 101 14 134 44 32 30 49 70 49 121 0 50-17 90-49 120-33 30-78 45-134 45-26 0-53-3-79-9s-53-15-80-27v366z"/></symbol><use xlink:href="#c" transform="matrix(10 0 0 -10 14.972 239.223)"/><use xlink:href="#o" transform="matrix(10 0 0 -10 21.002 239.353)"/><path stroke-width=".8" stroke-linejoin="round" fill="none" stroke="#000" d="M33.59 205.674h-3.5"/><use xlink:href="#d" transform="matrix(10 0 0 -10 14.602 209.471)"/><use xlink:href="#b" transform="matrix(10 0 0 -10 20.892 209.601)"/><path stroke-width=".8" stroke-linejoin="round" fill="none" stroke="#000" d="M33.59 175.922h-3.5"/><use xlink:href="#d" transform="matrix(10 0 0 -10 14.602 179.719)"/><use xlink:href="#o" transform="matrix(10 0 0 -10 21.002 179.849)"/><path stroke-width=".8" stroke-linejoin="round" fill="none" stroke="#000" d="M33.59 146.17h-3.5"/><use xlink:href="#e" transform="matrix(10 0 0 -10 14.632 150.097)"/><use xlink:href="#b" transform="matrix(10 0 0 -10 20.892 150.097)"/><path stroke-width=".8" stroke-linejoin="round" fill="none" stroke="#000" d="M33.59 116.418h-3.5"/><use xlink:href="#e" transform="matrix(10 0 0 -10 14.632 120.345)"/><use xlink:href="#o" transform="matrix(10 0 0 -10 21.002 120.345)"/><path stroke-width=".8" stroke-linejoin="round" fill="none" stroke="#000" d="M33.59 86.666h-3.5"/><use xlink:href="#f" transform="matrix(10 0 0 -10 14.362 90.463)"/><use xlink:href="#b" transform="matrix(10 0 0 -10 20.892 90.593)"/><path stroke-width=".8" stroke-linejoin="round" fill="none" stroke="#000" d="M33.59 56.914h-3.5"/><use xlink:href="#f" transform="matrix(10 0 0 -10 14.362 60.71)"/><use xlink:href="#o" transform="matrix(10 0 0 -10 21.002 60.84)"/><path stroke-width=".8" stroke-linejoin="round" fill="none" stroke="#000" d="M33.59 27.161h-3.5"/><use xlink:href="#o" transform="matrix(10 0 0 -10 14.642 31.088)"/><use xlink:href="#b" transform="matrix(10 0 0 -10 20.892 31.088)"/><symbol id="p"><path transform="translate(-.098) scale(.001)" d="M197 648V81h119c100 0 174 22 221 68 46 46 70 118 70 216s-24 169-70 215c-47 45-121 68-221 68H197zm-99 81h203c141 0 245-30 311-88 66-59 99-151 99-276 0-126-34-218-100-277S441 0 301 0H98v729z"/></symbol><symbol id="q"><path transform="translate(-.027) scale(.001)" d="M183 702V547h185v-70H183V180c0-45 6-74 18-86 12-13 37-19 75-19h92V0h-92c-70 0-118 13-144 39s-39 73-39 141v297H27v70h66v155h90z"/></symbol><symbol id="r"><path transform="matrix(.001 0 0 .001 -.06 .013)" d="M343 275c-73 0-123-9-151-25-28-17-42-45-42-85 0-32 10-58 31-76 21-19 50-28 86-28 50 0 90 17 120 53 30 35 45 82 45 141v20h-89zm179 37V0h-90v83c-21-34-47-58-77-73s-68-23-112-23c-56 0-101 15-134 46s-49 73-49 126c0 61 20 107 62 139 41 31 102 47 184 47h126v9c0 41-14 73-41 96-27 22-65 34-114 34-32 0-62-4-92-12s-58-19-85-33v83c32 12 64 22 95 28s61 10 91 10c79 0 138-21 177-62s59-103 59-186z"/></symbol><symbol id="s"><path transform="translate(-.091) scale(.001)" d="M549 330V0h-90v327c0 52-11 90-31 116s-50 39-90 39c-49 0-87-16-115-47s-42-73-42-126V0H91v547h90v-85c21 32 46 57 76 73 29 16 63 25 101 25 62 0 110-20 142-59s49-96 49-171z"/></symbol><symbol id="t"><path transform="matrix(.001 0 0 .001 -.055 .013)" d="M488 526v-84c-26 14-51 24-77 31s-51 11-77 11c-58 0-104-19-136-56s-48-89-48-155c0-67 16-119 48-156s78-55 136-55c26 0 51 3 77 10s51 18 77 32V21C462 9 436 0 410-5c-27-5-56-8-86-8-82 0-148 25-196 77-49 51-73 121-73 209 0 89 24 159 73 210s116 77 202 77c28 0 55-3 81-9s52-14 77-25z"/></symbol><use xlink:href="#p" transform="matrix(0 -10 -10 0 7.794 165.67)"/><use xlink:href="#h" transform="matrix(0 -10 -10 0 7.794 158.01)"/><use xlink:href="#m" transform="matrix(0 -10 -10 0 7.924 155.63)"/><use xlink:href="#q" transform="matrix(0 -10 -10 0 7.794 150.69)"/><use xlink:href="#r" transform="matrix(0 -10 -10 0 7.924 146.44)"/><use xlink:href="#s" transform="matrix(0 -10 -10 0 7.794 140)"/><use xlink:href="#t" transform="matrix(0 -10 -10 0 7.924 134.02)"/><use xlink:href="#j" transform="matrix(0 -10 -10 0 7.924 128.52)"/><use xlink:href="#k" transform="matrix(0 -10 -10 0 7.794 122.92)"/><use xlink:href="#l" transform="matrix(0 -10 -10 0 9.104 118.88)"/><use xlink:href="#i" transform="matrix(0 -10 -10 0 7.794 114.93)"/><use xlink:href="#n" transform="matrix(0 -10 -10 0 9.104 105.13)"/><clipPath id="u"><path transform="matrix(1 0 0 -1 -7 305)" d="M40.59 37.544h266.113v266.112H40.59z"/></clipPath><g clip-path="url(#u)"><path stroke-width="2.5" stroke-linecap="square" stroke-linejoin="round" fill="none" stroke="#00f" d="m45.687 13.44 1.493 3.71.086-.057.154.264.304 1.123.251.534.24.536.098-.062.114.6.11-.063.245.873.097-.066.252.878.086.272.166-.067.103.271.183.884.155.272.097-.07 2.535 6.354.097-.08.24.898.43 1.09.165-.084.246.543.19.899.211.543.109-.085.263.898.109.27.091-.086.103.628.103-.087.172.27.212.898.108-.088.218.539.269.898.114-.09.218.538.223.897.469 1.074.109-.093.097.628.103-.092.269.895.326.267 1.15 3.188.103-.097.223.528.115.623.097-.098.275.884.097-.098.223.882.795 1.822.447 1.036.108-.101.264.875.108.258.098-.102.108.257.218.872.618.921.086.615.137-.104.223.87.355.763.103-.105.315 1.122.108-.106.149.613.109-.107.12.254.194.866.367.76.108-.109.11.613.36.757.2.504.149-.108 1.024 2.623.131-.11.2.501.224.862.24.5.097-.112.2.86.253.498.148-.112.12.25.08.608.126-.112.103.609.12-.112.447 1.353.109-.113.36.743.132.608.08-.113.246.855.143-.113.32 1.101.103-.114.275.494.39 1.343.13.245.115-.114.24.85.144.246.074-.115.24.85.143-.115.126.605.097-.115.12.244.144.605.057-.115 1.064 2.555.092-.116.91 2.307.108.243.138-.116.206.845.28.485.097-.117.212.845.229.484.131-.117.103.242.338 1.087 1.144 2.417.206.483.155-.118.315.723.223.84.149-.118.566 1.564.126-.119.097.241.206.84.092-.118.383 1.082.252.482.12-.12.326 1.081.103.24.097-.119.12.24.218.84.149-.12.446 1.32.103-.12.12.241.223.84.36.72.104.24.114-.119 1.517 3.469.097-.12.103.24.103.597.12-.12.286.477.561 1.192.109.238.24.836.103.238.109-.12.217.476.223.833.092-.12.269.835.091-.12.115.595.103-.12.103.238.114.595.16.238.098-.12.68 1.428.092.595.39.714.097.238.108-.12.584 1.187.246.474.2.833.115-.12.103.596.085-.12.424 1.07.057-.12.109.237.12.594.143-.12.28.832.401.95.332.713.097-.12.263.833.103-.12 1.139 2.731.103-.12.126.238.223.831.126-.12.36 1.067.058-.12.251.474.212.83.166-.12.532 1.542.395.713.395.95.126-.12.36 1.07.075-.12.125.237.361 1.068.332.712.12-.12.217.831.475.95.115-.12.55 1.186.125.238.097.594.12-.12.126.238.367 1.07.085-.12.12.238.264.833.086-.12.131.237.36 1.07.115.237.086-.12.269.831.103-.12.2.833.28.476.098-.119.658 1.786.091-.12.378.715.097.596.098-.12.251.834.092-.12.28.476.195.835.109-.12.154.596.103-.12.458.949.108.594.098-.12.915 2.256.16-.12.103.596.11-.12 1.573 3.676.131-.12.32 1.07.264.474.097-.12.206.833.138-.12.211.475.275.83.109.238.114-.12.103.238.2.831.126.238.143-.12.252.832.292.714.137-.12.223.83.11-.119.21.83.15.238.103-.12 1.047 2.497.103-.12.2.476.229.833.269.475.692 1.427.115-.124.331.674.212.787.115-.149.394.963.287.572.12-.173.211.713.103.174.098-.187.154.168.115.522.103-.195.108.16.27.672.297.459.143-.207.217.298.138.505.108-.21.103.145.12.5.103-.213 1.048 1.61.12-.222.211.268.132.491.08-.223.109.49.378.398.085-.224.23.625.262.267.155-.222.881 1.444.075-.22.114.138.332.774.126-.216.12.498.143-.215.137.499.069-.214.12.5.075-.212.257.648.355.445.091-.208.24.302.23.661.143-.204.303.46.315.462.131.511.12-.203.12.511.126-.203.126.154.223.664.338.458.114-.205.224.66.24.304.103-.206.114.151.252.659.315.45.149-.206.349.805.08-.207.246.299.109.507.137-.208.366.45.114.506.092-.207.343.447.224.655.12.15.148-.208.521.743.223.295.24.654.086-.21.166.149.11.505.102-.21.246.295.2.651.115-.21.337.44.138.503.109-.21.2.29.263.647 1.247 1.582.115-.213.109.499.108-.214.235.64.423.424.75.98.109-.217.24.634.12-.218.4.537.281.617.326.382.103-.23.229.6.086.122.149-.237.475.462.234.577.178.216.143-.25.223.209.234.558.103-.255.24.197.23.548.08-.259.366.282.212.183.131.446.097-.265 1.025.787.16.438.109-.27.612.412.097.435 1.082.73.486.412.086-.27.503.335.31.253.154.437.12-.268.223.523.567.425.114-.267.904.681.103.435.115-.267.097.435.297.17.069-.267.326.253.149.434.114-.267.578.417.115.083.24.516.773.573.16-.268.074.43.075-.267.217.161.235.51.572.4.126-.27.126.428.091-.269.252.506.114.079.075-.27.131.427.143-.27.23.504.44.308.126-.269.091.078.24.503.144-.269.211.5.103-.268.11.077.102.422.132-.269.234.153.235.497.67.455.108.075.16-.268.223.495.212.15.097-.269.126.418.132-.269.103.418.109-.269.24.149.235.489.131-.27.206.146.223.486.12-.27.098.414.28.143.086-.27.24.484.103-.27.23.482.234.14.097-.27.229.138.12.41.086-.271.154.07.103.408.11-.27.096.407.155-.27.109.068.108.408.103-.272.23.476.137-.271.314.203.115.406.103-.27.263.139.206.482.109.073.103-.263.291.488.178.153.149-.259.228.494.355.239.12-.255.212.499.212.164.114-.252.109.417.097-.25.126.417.526.34.32.257.522.431.108-.245.258.175.246.507 1.476 1.14.097-.24.103.088.246.504.235.175.092-.24.114.087.16.413.092-.24.217.498.092-.24.269.496.103.085.114-.24.2.17.15.41.137-.24.303.254.223.491.126-.239.109.084.114.406.149.083.097-.239.103.083.12.405.098-.24.223.486.154.082.103-.24.778.574.275.483.103-.237.109.081.114.4.229.158.097-.237.138.079.097.396.097-.238.109.078.263.476.12.08.103-.233.103.083.292.483.195.17.131-.23.063.087.143.086.126.4.109-.225.234.49.086-.224.098.09.16.401.103-.221.217.493.109.09.091-.218.166.402.115-.218.126.092.217.493.097-.216.115.401.103-.215.744.56.166.492.343.279.109-.211.211.49.138-.21.074.093.258.487.383.276.046-.21.252.185.246.484.44.363.35.27.114-.208.114.09.212.474.286.176.086-.207.217.47.12-.207.195.174.143.38.12-.207.12.38.103-.203.23.47.102-.2.12.091.218.473.56.37.103-.195.218.475.109.094.108-.191.4.38.115.38.801.396.16.379.092-.183.132.099.086.378.091-.18.28.475.115-.18.074.377.155.098.091-.178.218.196.257.474.458.406.097-.17.098.374.486.413.12.104.092-.164.097.105.166.372.08-.161.149.371.12-.16.212.48.206.214.103-.155.251.22.098.372.16-.15.109.112.206.485.097-.146.109.373.114-.145.303.487.058-.141.206.232.274.487.097-.137.103.118.23.487.154.118.097-.132.115.368.085-.13.11.367.16-.129.205.239.218.484.103-.127.349.6.109-.123.12.361.108-.122.475.474.258.473.103-.119.12.352.092-.118.371.582.195.23.103-.115.16.115.218.456.114.109.086-.12.223.435.275.203.091-.123.115.321.103-.123.246.415.086-.122.108.316.166-.12.212.415.103-.117.097.1.115.312.166-.114.44.396.126.307.103-.11.109.098.108.304.098-.108.12.302.103-.107.389.489.109.095.114-.105.263.387.698.554.275.27.097-.098.252.365.218.176.131-.096.223.355.098-.095.108.086.258.346.149-.097.091.254.086-.101.338.384.171.065.08-.106.212.292.109-.109.343.33.109-.111.16.212.103-.111.103.208.092-.112.194.203.132-.112.166.241.103-.113.206.233.154.039.155-.112.063.187.08-.111.704.217.148.176.092-.106.069.174.268.067.07-.102.13.034.287.2.08.033.12-.098.109.163 1.573.312.252.175.115-.082.24.174.069-.078.148.143.103-.075.35.21.114-.068.332.215.251-.02 7.262 2.48.63.147.949.199 2.65.285.32-.02.446.026 1.705-.12.103-.066.366.01.223-.091.2.025.407-.123 1.46-.31.302-.2.264.006 1.161-.448.24-.2.075.05.16-.156.109.051.108-.16.132.052.086-.163.194-.005.27-.229.102.054.235-.238.092.055.223-.246.16.056.114-.188.11.057.21-.26.104.057.217-.267.836-.381.126-.214.074.06 1.007-.722.137-.084.223-.322.824-.466.086-.25.126.067.458-.538.795-.514.344-.472 1.041-.94 1.43-1.325.31-.344.108-.116.109.08.47-.667.096.081.103-.118.098-.32.509-.281.097-.327.103.083.258-.454.097.084.109-.125.217-.46.183.084.069-.338.091.085.155-.128.206-.471.103.086.257-.476.092.087.824-1.147.097.09.223-.494.103.09.27-.499.114-.137.097.09.229-.504.103.09.126-.369.086.091.137-.371.131.091.11-.14.102-.375.109.092.263-.141.275-.663.412-.581.097.092.115-.386.143.092.457-.835.08.093.115-.15.103-.393.097.094.132-.396.126.094.206-.55.114-.153.137.095.195-.555.154-.154.11.096.245-.56.487-.625.045.098.258-.568.103.098.12-.158.12-.415.092.098.635-1.056.217-.322.109-.16.086.099 1.167-1.893.069.101.154-.165.235-.598.572-.833.149.102.372-.943.211-.169.058.103.08-.44.189-.17.074.103.114-.17.103-.444.11.104.108-.445.086.104.16-.447.097.104.252-.62.092.105.091-.45.177-.174.086.105.109-.173.12-.453.115.105.223-.629.108.106.12-.456.104.106.229-.633.131.106.086-.458.166-.177.103.106.194-.638.15.107.297-.532.28-.641.097.107 1.591-2.81.097.108.115-.181.154-.474.098.11.778-1.28.131-.477.115.11.44-.737.435-1.038.367-.56.125.11.258-.373.189-.673.921-1.508.109.112.206-.38.251-.681.115.112.131-.493.115.112.206-.685.132-.191.114.112.338-.575.274-.69.075.114.097-.193.12-.498.2-.193.063.113.08-.5.258-.388.332-.584 1.373-2.343.103.114.097-.507.807-1.072.132-.51.097.113.143-.198.206-.71.355-.596.103.114.114-.513.155.114.108-.2.315-.912.263-.4.138.114.074-.515.109.114 1.653-3.14.069.116.223-.725.103.115.27-.725.096-.203.098.115.217-.727.16.116.218-.409.211-.727.218-.408.132.116.32-.934.166-.206.091.116.12-.526.104.116 1.373-2.794.109.116.103-.53.383-.62.55-1.035.09-.208.161.116.103-.207.109-.532.217-.417.258-.417.097.116.252-.743.063.117.257-.418.109-.534.091.117.246-.744.098-.21.126.118"/></g><clipPath id="v"><path transform="matrix(1 0 0 -1 -7 305)" d="M40.59 37.544h266.113v266.112H40.59z"/></clipPath><g clip-path="url(#v)"><path d="m224.652 258.36 6-6m-6 0 6 6" fill="orange"/><path stroke-width="2.5" stroke-linejoin="round" fill="none" stroke="orange" d="m224.652 258.36 6-6m-6 0 6 6"/></g><path stroke-width=".8" stroke-linecap="square" stroke-miterlimit="10" fill="none" stroke="#000" d="M33.59 267.456V1.344M299.703 267.456V1.344M33.59 267.456h266.113M33.59 1.344h266.113"/><path d="M98.328 38.688h194.375c1.333 0 2-.667 2-2V8.344c0-1.333-.667-2-2-2H98.328c-1.334 0-2 .667-2 2v28.344c0 1.333.666 2 2 2z" fill="#fff" fill-opacity=".8"/><path stroke-miterlimit="10" fill="none" stroke="#d5d6d5" stroke-opacity=".8" d="M98.328 38.688h194.375c1.333 0 2-.667 2-2V8.344c0-1.333-.667-2-2-2H98.328c-1.334 0-2 .667-2 2v28.344c0 1.333.666 2 2 2z"/><path stroke-width="2.5" stroke-linecap="square" stroke-linejoin="round" fill="none" stroke="#00f" d="M100.328 14.438h20"/><symbol id="w"><path transform="matrix(.001 0 0 .001 -.091 .013)" d="M487 273c0 66-14 117-41 155-28 38-65 57-112 57-48 0-85-19-112-57-28-38-41-89-41-155s13-118 41-156c27-38 64-56 112-56 47 0 84 18 112 56 27 38 41 90 41 156zM181 464c18 32 42 56 71 72s64 24 104 24c66 0 120-27 162-79 41-53 62-122 62-208s-21-156-62-208c-42-52-96-78-162-78-40 0-75 8-104 23s-53 39-71 72V0H91v760h90V464z"/></symbol><symbol id="x"><path transform="translate(-.042) scale(.001)" d="M42 547h90l112-427 112 427h106l112-427 112 427h90L633 0H527L409 448 291 0H185L42 547z"/></symbol><symbol id="y"><path transform="matrix(.001 0 0 .001 -.056 .013)" d="M394 662c-72 0-129-27-171-80-42-54-63-126-63-218s21-165 63-218c42-54 99-80 171-80 71 0 128 26 170 80 42 53 63 126 63 218s-21 164-63 218c-42 53-99 80-170 80zm0 80c102 0 183-35 245-103 61-68 92-160 92-275 0-116-31-207-92-275C577 21 496-13 394-13 291-13 209 21 148 89c-62 68-92 159-92 275 0 115 30 207 92 275 61 68 143 103 246 103z"/></symbol><symbol id="z"><path transform="matrix(.001 0 0 .001 -.066 .013)" d="M535 705v-96c-38 18-73 31-106 40-34 8-66 13-96 13-54 0-96-11-125-31-29-21-43-51-43-89 0-32 9-57 29-73 19-17 56-30 110-40l60-12c73-14 127-39 162-74 35-36 53-83 53-142 0-71-24-124-71-160-48-36-117-54-208-54-35 0-72 4-111 11S110 16 69 32v102c40-23 79-40 117-51 38-12 76-17 114-17 56 0 99 11 130 33 30 22 46 53 46 95 0 36-11 64-33 84s-58 35-108 45l-60 12c-74 14-127 37-160 69-33 31-49 74-49 130 0 64 22 115 68 152 45 37 108 56 188 56 34 0 68-3 104-9 35-6 71-16 109-28z"/></symbol><symbol id="A"><path transform="matrix(.001 0 0 .001 -.055 .013)" d="M454 464v296h90V0h-90v82c-19-33-43-57-72-72s-63-23-103-23c-66 0-120 26-162 78S55 187 55 273s20 155 62 208c42 52 96 79 162 79 40 0 74-8 103-24s53-40 72-72zM148 273c0-66 13-118 40-156s64-56 112-56 85 18 113 56c27 38 41 90 41 156s-14 117-41 155c-28 38-65 57-113 57s-85-19-112-57-40-89-40-155z"/></symbol><use xlink:href="#p" transform="matrix(10 0 0 -10 129.308 17.938)"/><use xlink:href="#h" transform="matrix(10 0 0 -10 136.968 17.938)"/><use xlink:href="#m" transform="matrix(10 0 0 -10 139.348 18.068)"/><use xlink:href="#q" transform="matrix(10 0 0 -10 144.288 17.938)"/><use xlink:href="#r" transform="matrix(10 0 0 -10 148.538 18.068)"/><use xlink:href="#s" transform="matrix(10 0 0 -10 154.978 17.938)"/><use xlink:href="#t" transform="matrix(10 0 0 -10 160.958 18.068)"/><use xlink:href="#j" transform="matrix(10 0 0 -10 166.458 18.068)"/><use xlink:href="#k" transform="matrix(10 0 0 -10 172.058 17.938)"/><use xlink:href="#w" transform="matrix(10 0 0 -10 176.148 18.068)"/><use xlink:href="#j" transform="matrix(10 0 0 -10 182.138 18.068)"/><use xlink:href="#q" transform="matrix(10 0 0 -10 188.008 17.938)"/><use xlink:href="#x" transform="matrix(10 0 0 -10 192.078 17.938)"/><use xlink:href="#j" transform="matrix(10 0 0 -10 200.388 18.068)"/><use xlink:href="#j" transform="matrix(10 0 0 -10 206.538 18.068)"/><use xlink:href="#s" transform="matrix(10 0 0 -10 213.048 17.938)"/><use xlink:href="#k" transform="matrix(10 0 0 -10 218.478 17.938)"/><use xlink:href="#y" transform="matrix(10 0 0 -10 222.218 18.068)"/><use xlink:href="#z" transform="matrix(10 0 0 -10 230.188 18.068)"/><use xlink:href="#k" transform="matrix(10 0 0 -10 235.878 17.938)"/><use xlink:href="#r" transform="matrix(10 0 0 -10 239.658 18.068)"/><use xlink:href="#s" transform="matrix(10 0 0 -10 246.098 17.938)"/><use xlink:href="#A" transform="matrix(10 0 0 -10 252.078 18.068)"/><use xlink:href="#k" transform="matrix(10 0 0 -10 257.878 17.938)"/><use xlink:href="#g" transform="matrix(10 0 0 -10 261.038 17.938)"/><use xlink:href="#z" transform="matrix(10 0 0 -10 267.828 18.068)"/><use xlink:href="#k" transform="matrix(10 0 0 -10 273.518 17.938)"/><use xlink:href="#c" transform="matrix(10 0 0 -10 277.798 17.938)"/><path d="m107.328 32.985 6-6m-6 0 6 6" fill="orange"/><path stroke-width="2.5" stroke-linejoin="round" fill="none" stroke="orange" d="m107.328 32.985 6-6m-6 0 6 6"/><symbol id="B"><path transform="translate(-.107) scale(.001)" d="M107 124h103V0H107v124z"/></symbol><symbol id="C"><path transform="matrix(.001 0 0 .001 -.055 .013)" d="M306 484c-48 0-86-19-114-57s-42-89-42-154c0-66 13-117 41-155s66-56 115-56c48 0 86 18 114 56s42 89 42 155c0 64-14 116-42 154s-66 57-114 57zm0 76c78 0 139-26 184-76 44-51 67-121 67-211s-23-160-67-210c-45-51-106-76-184-76-79 0-141 25-185 76-44 50-66 120-66 210s22 160 66 211c44 50 106 76 185 76z"/></symbol><symbol id="D"><path transform="matrix(.001 0 0 .001 -.106 -.172)" d="M106 454h626v-82H106v82zm0-199h626v-83H106v83z"/></symbol><symbol id="E"><path transform="matrix(.001 0 0 .001 -.07 .013)" d="M330 404c-44 0-79-16-105-46s-39-72-39-124c0-53 13-95 39-125s61-45 105-45 79 15 105 45 39 72 39 125c0 52-13 94-39 124s-61 46-105 46zm196 309v-90c-25 12-50 21-75 27-26 6-51 9-75 9-66 0-116-22-150-66s-54-111-58-199c19 28 43 50 72 65s61 23 96 23c73 0 131-23 173-67s64-105 64-181c0-75-23-135-67-180S403-13 330-13c-84 0-149 32-193 96-45 64-67 158-67 281 0 115 27 207 82 275 54 68 128 103 220 103 24 0 49-3 75-7 25-5 51-12 79-22z"/></symbol><use xlink:href="#i" transform="matrix(10 0 0 -10 129.238 32.61)"/><use xlink:href="#h" transform="matrix(10 0 0 -10 139.008 32.61)"/><use xlink:href="#s" transform="matrix(10 0 0 -10 141.758 32.61)"/><use xlink:href="#B" transform="matrix(10 0 0 -10 148.258 32.61)"/><use xlink:href="#k" transform="matrix(10 0 0 -10 150.368 32.61)"/><use xlink:href="#A" transform="matrix(10 0 0 -10 154.098 32.74)"/><use xlink:href="#h" transform="matrix(10 0 0 -10 160.838 32.61)"/><use xlink:href="#m" transform="matrix(10 0 0 -10 163.218 32.74)"/><use xlink:href="#q" transform="matrix(10 0 0 -10 168.158 32.61)"/><use xlink:href="#r" transform="matrix(10 0 0 -10 172.408 32.74)"/><use xlink:href="#s" transform="matrix(10 0 0 -10 178.848 32.61)"/><use xlink:href="#t" transform="matrix(10 0 0 -10 184.828 32.74)"/><use xlink:href="#j" transform="matrix(10 0 0 -10 190.328 32.74)"/><use xlink:href="#k" transform="matrix(10 0 0 -10 195.928 32.61)"/><use xlink:href="#q" transform="matrix(10 0 0 -10 199.378 32.61)"/><use xlink:href="#C" transform="matrix(10 0 0 -10 203.578 32.74)"/><use xlink:href="#k" transform="matrix(10 0 0 -10 209.148 32.61)"/><use xlink:href="#g" transform="matrix(10 0 0 -10 212.308 32.61)"/><use xlink:href="#z" transform="matrix(10 0 0 -10 219.098 32.74)"/><use xlink:href="#k" transform="matrix(10 0 0 -10 224.788 32.61)"/><use xlink:href="#c" transform="matrix(10 0 0 -10 229.068 32.61)"/><use xlink:href="#k" transform="matrix(10 0 0 -10 234.328 32.61)"/><use xlink:href="#D" transform="matrix(10 0 0 -10 238.568 30.89)"/><use xlink:href="#k" transform="matrix(10 0 0 -10 245.888 32.61)"/><use xlink:href="#c" transform="matrix(10 0 0 -10 250.168 32.61)"/><use xlink:href="#c" transform="matrix(10 0 0 -10 256.528 32.61)"/><use xlink:href="#B" transform="matrix(10 0 0 -10 262.858 32.61)"/><use xlink:href="#E" transform="matrix(10 0 0 -10 265.668 32.74)"/><use xlink:href="#o" transform="matrix(10 0 0 -10 272.098 32.74)"/><use xlink:href="#k" transform="matrix(10 0 0 -10 277.688 32.61)"/><use xlink:href="#i" transform="matrix(10 0 0 -10 281.778 32.61)"/></g></svg>