<svg xmlns="http://www.w3.org/2000/svg" xmlns:xlink="http://www.w3.org/1999/xlink" width="427.016" height="414.474" viewBox="0 0 320.262 310.856"><path d="M0 310.856h320.262V0H0z" fill="#fff"/><path d="M46.95 273.312h266.112V7.2H46.95z" fill="#fff"/><path stroke-width=".8" stroke-linejoin="round" fill="none" stroke="#000" d="M50.091 273.312v3.5"/><symbol id="a"><path transform="matrix(.001 0 0 .001 -.066 .013)" d="M318 664c-51 0-89-25-115-75s-38-125-38-225 12-175 38-225 64-75 115-75 89 25 115 75c25 50 38 125 38 225s-13 175-38 225c-26 50-64 75-115 75zm0 78c81 0 143-33 187-97 43-65 65-159 65-281 0-123-22-217-65-281-44-64-106-96-188-96S173 19 130 83 66 241 66 364c0 122 21 216 64 281 43 64 106 97 188 97z"/></symbol><use xlink:href="#a" transform="matrix(10 0 0 -10 47.571 288.036)"/><path stroke-width=".8" stroke-linejoin="round" fill="none" stroke="#000" d="M107.311 273.312v3.5"/><symbol id="b"><path transform="translate(-.11) scale(.001)" d="M124 83h161v556l-175-35v90l174 35h99V83h161V0H124v83z"/></symbol><use xlink:href="#b" transform="matrix(10 0 0 -10 102.052 287.906)"/><use xlink:href="#a" transform="matrix(10 0 0 -10 107.972 288.036)"/><path stroke-width=".8" stroke-linejoin="round" fill="none" stroke="#000" d="M164.53 273.312v3.5"/><symbol id="c"><path transform="translate(-.073) scale(.001)" d="M192 83h344V0H73v83c37 38 88 90 153 156 64 65 105 107 122 126 32 35 54 65 66 90 12 24 19 49 19 73 0 38-14 70-41 94s-62 37-106 37c-31 0-64-6-98-16-34-11-71-27-110-49v100c40 16 77 28 111 36s66 12 95 12c75 0 135-19 180-57s68-88 68-151c0-30-6-59-17-85-11-27-31-59-61-95-8-10-34-37-78-82S271 164 192 83z"/></symbol><use xlink:href="#c" transform="matrix(10 0 0 -10 158.901 287.906)"/><use xlink:href="#a" transform="matrix(10 0 0 -10 165.192 288.036)"/><path stroke-width=".8" stroke-linejoin="round" fill="none" stroke="#000" d="M221.75 273.312v3.5"/><symbol id="d"><path transform="matrix(.001 0 0 .001 -.076 .013)" d="M406 393c47-10 84-31 110-63s40-72 40-118c0-72-25-128-74-167-50-39-120-58-211-58-31 0-63 3-95 9-32 5-66 14-100 26v95c27-16 57-28 90-36 32-8 66-12 102-12 62 0 109 12 141 36s49 60 49 107c0 42-15 76-45 100s-72 37-126 37h-85v81h89c48 0 85 9 111 29 26 19 39 47 39 84s-14 66-40 86c-27 20-65 30-114 30-27 0-56-3-87-9s-65-15-102-27v88c37 10 72 18 105 23 32 5 63 8 93 8 74 0 133-17 177-51s66-80 66-138c0-40-12-74-35-102s-56-48-98-58z"/></symbol><use xlink:href="#d" transform="matrix(10 0 0 -10 216.151 288.036)"/><use xlink:href="#a" transform="matrix(10 0 0 -10 222.411 288.036)"/><path stroke-width=".8" stroke-linejoin="round" fill="none" stroke="#000" d="M278.97 273.312v3.5"/><symbol id="e"><path transform="translate(-.049) scale(.001)" d="M378 643 129 254h249v389zm-26 86h124V254h104v-82H476V0h-98v172H49v95l303 462z"/></symbol><use xlink:href="#e" transform="matrix(10 0 0 -10 273.101 287.906)"/><use xlink:href="#a" transform="matrix(10 0 0 -10 279.631 288.036)"/><symbol id="f"><path transform="translate(.002) scale(.001)" d="M-2 729h616v-83H355V0h-99v646H-2v83z"/></symbol><symbol id="g"><path transform="translate(-.094) scale(.001)" d="M94 547h90V0H94v547zm0 213h90V646H94v114z"/></symbol><symbol id="h"><path transform="translate(-.091) scale(.001)" d="M520 442c22 40 49 69 80 89 31 19 68 29 111 29 56 0 100-20 131-60s47-97 47-170V0h-90v327c0 52-10 91-28 117-19 25-47 38-85 38-47 0-84-16-111-47s-40-73-40-126V0h-90v327c0 52-10 91-28 117-19 25-48 38-86 38-46 0-83-16-110-47s-40-73-40-126V0H91v547h90v-85c20 33 45 58 74 74 28 16 62 24 102 24s73-10 101-30 48-50 62-88z"/></symbol><symbol id="i"><path transform="matrix(.001 0 0 .001 -.055 .013)" d="M562 296v-44H149c4-62 22-110 56-142 33-32 79-48 139-48 34 0 68 4 100 12s65 21 97 39V28c-32-14-65-25-99-31s-69-10-103-10c-88 0-157 25-208 75S55 181 55 268c0 89 24 160 72 213 48 52 114 79 196 79 74 0 132-24 175-71 42-48 64-112 64-193zm-90 26c-1 49-15 88-41 118-27 29-63 44-107 44-50 0-90-15-120-43s-48-68-52-119h320z"/></symbol><symbol id="k"><path transform="matrix(.001 0 0 .001 -.086 .131)" d="M86 760h207v-70H176V-61h117v-70H86v891z"/></symbol><symbol id="l"><path transform="matrix(.001 0 0 .001 -.054 .013)" d="M443 531v-85c-26 12-52 22-79 29-28 6-56 10-85 10-45 0-79-7-101-21s-33-34-33-61c0-21 8-37 24-49s48-24 96-34l31-7c64-14 109-34 136-58 26-25 40-60 40-104 0-51-20-91-60-120-40-30-96-44-166-44-30 0-60 3-92 8S89 8 54 20v93c33-18 66-31 98-39 32-9 64-13 96-13 42 0 75 7 98 21 22 14 34 35 34 62 0 24-9 43-25 56s-52 26-108 38l-31 7c-56 12-97 30-121 54-25 24-37 57-37 100 0 51 18 91 54 119s88 42 156 42c33 0 64-3 94-8 29-5 56-12 81-21z"/></symbol><symbol id="m"><path transform="matrix(.001 0 0 .001 -.097 .131)" d="M304 760v-891H97v70h117v751H97v70h207z"/></symbol><use xlink:href="#f" transform="matrix(10 0 0 -10 159.603 301.578)"/><use xlink:href="#g" transform="matrix(10 0 0 -10 166.376 301.578)"/><use xlink:href="#h" transform="matrix(10 0 0 -10 169.126 301.578)"/><use xlink:href="#i" transform="matrix(10 0 0 -10 178.506 301.708)"/><use xlink:href="#j" transform="matrix(10 0 0 -10 184.106 301.578)"/><use xlink:href="#k" transform="matrix(10 0 0 -10 188.146 302.888)"/><use xlink:href="#l" transform="matrix(10 0 0 -10 191.726 301.708)"/><use xlink:href="#m" transform="matrix(10 0 0 -10 197.366 302.888)"/><path stroke-width=".8" stroke-linejoin="round" fill="none" stroke="#000" d="M46.95 238.522h-3.5"/><symbol id="n"><path transform="matrix(.001 0 0 .001 -.068 .013)" d="M318 346c-47 0-84-13-111-38s-40-59-40-103 13-79 40-104 64-37 111-37c46 0 83 12 110 38 27 25 41 59 41 103s-14 78-40 103c-27 25-64 38-111 38zm-99 42c-42 10-75 30-99 59s-35 64-35 106c0 58 20 104 62 138 41 34 98 51 171 51 72 0 129-17 171-51 41-34 62-80 62-138 0-42-12-77-36-106s-56-49-98-59c47-11 84-33 111-65 26-32 40-72 40-118 0-71-22-125-65-162-44-38-106-56-186-56S175 5 132 43c-43 37-64 91-64 162 0 46 13 86 40 118 26 32 63 54 111 65zm-36 156c0-38 11-68 35-89s57-31 100-31c42 0 75 10 99 31s36 51 36 89-12 67-36 88-57 32-99 32c-43 0-76-11-100-32s-35-50-35-88z"/></symbol><use xlink:href="#n" transform="matrix(10 0 0 -10 27.911 242.45)"/><use xlink:href="#a" transform="matrix(10 0 0 -10 34.251 242.45)"/><path stroke-width=".8" stroke-linejoin="round" fill="none" stroke="#000" d="M46.95 196.363h-3.5"/><symbol id="o"><path transform="matrix(.001 0 0 .001 -.063 .013)" d="M110 15v90c24-12 49-21 75-27 25-6 50-9 75-9 64 0 114 21 148 65s54 110 60 200c-20-28-44-50-72-65-29-15-61-22-96-22-74 0-132 22-174 66S63 417 63 494c0 74 22 134 66 180 44 45 103 68 177 68 84 0 149-33 193-97 44-65 67-159 67-281 0-116-28-207-82-275C429 21 356-13 264-13c-25 0-50 3-75 7-26 4-52 11-79 21zm196 309c44 0 79 15 105 45s39 72 39 125c0 52-13 94-39 124s-61 46-105 46-79-16-105-46-39-72-39-124c0-53 13-95 39-125s61-45 105-45z"/></symbol><use xlink:href="#o" transform="matrix(10 0 0 -10 27.861 200.29)"/><use xlink:href="#a" transform="matrix(10 0 0 -10 34.251 200.29)"/><path stroke-width=".8" stroke-linejoin="round" fill="none" stroke="#000" d="M46.95 154.205h-3.5"/><use xlink:href="#b" transform="matrix(10 0 0 -10 21.972 158.001)"/><use xlink:href="#a" transform="matrix(10 0 0 -10 27.892 158.131)"/><use xlink:href="#a" transform="matrix(10 0 0 -10 34.252 158.131)"/><path stroke-width=".8" stroke-linejoin="round" fill="none" stroke="#000" d="M46.95 112.046h-3.5"/><use xlink:href="#b" transform="matrix(10 0 0 -10 21.972 115.842)"/><use xlink:href="#b" transform="matrix(10 0 0 -10 28.332 115.842)"/><use xlink:href="#a" transform="matrix(10 0 0 -10 34.252 115.972)"/><path stroke-width=".8" stroke-linejoin="round" fill="none" stroke="#000" d="M46.95 69.887h-3.5"/><use xlink:href="#b" transform="matrix(10 0 0 -10 21.972 73.684)"/><use xlink:href="#c" transform="matrix(10 0 0 -10 27.962 73.684)"/><use xlink:href="#a" transform="matrix(10 0 0 -10 34.252 73.814)"/><path stroke-width=".8" stroke-linejoin="round" fill="none" stroke="#000" d="M46.95 27.728h-3.5"/><use xlink:href="#b" transform="matrix(10 0 0 -10 21.972 31.525)"/><use xlink:href="#d" transform="matrix(10 0 0 -10 27.992 31.655)"/><use xlink:href="#a" transform="matrix(10 0 0 -10 34.252 31.655)"/><symbol id="p"><path transform="matrix(.001 0 0 .001 -.056 .013)" d="M394 662c-72 0-129-27-171-80-42-54-63-126-63-218s21-165 63-218c42-54 99-80 171-80 71 0 128 26 170 80 42 53 63 126 63 218s-21 164-63 218c-42 53-99 80-170 80zm0 80c102 0 183-35 245-103 61-68 92-160 92-275 0-116-31-207-92-275C577 21 496-13 394-13 291-13 209 21 148 89c-62 68-92 159-92 275 0 115 30 207 92 275 61 68 143 103 246 103z"/></symbol><symbol id="q"><path transform="translate(-.091) scale(.001)" d="M411 463c-10 6-21 10-33 13-12 2-25 4-39 4-51 0-90-17-117-50-28-33-41-80-41-142V0H91v547h90v-85c18 33 43 58 73 74s67 24 111 24c6 0 13-1 21-1 7-1 15-2 25-4v-92z"/></symbol><symbol id="r"><path transform="translate(-.091) scale(.001)" d="M549 330V0h-90v327c0 52-11 90-31 116s-50 39-90 39c-49 0-87-16-115-47s-42-73-42-126V0H91v547h90v-85c21 32 46 57 76 73 29 16 63 25 101 25 62 0 110-20 142-59s49-96 49-171z"/></symbol><symbol id="s"><path transform="translate(-.027) scale(.001)" d="M183 702V547h185v-70H183V180c0-45 6-74 18-86 12-13 37-19 75-19h92V0h-92c-70 0-118 13-144 39s-39 73-39 141v297H27v70h66v155h90z"/></symbol><symbol id="t"><path transform="matrix(.001 0 0 .001 -.06 .013)" d="M343 275c-73 0-123-9-151-25-28-17-42-45-42-85 0-32 10-58 31-76 21-19 50-28 86-28 50 0 90 17 120 53 30 35 45 82 45 141v20h-89zm179 37V0h-90v83c-21-34-47-58-77-73s-68-23-112-23c-56 0-101 15-134 46s-49 73-49 126c0 61 20 107 62 139 41 31 102 47 184 47h126v9c0 41-14 73-41 96-27 22-65 34-114 34-32 0-62-4-92-12s-58-19-85-33v83c32 12 64 22 95 28s61 10 91 10c79 0 138-21 177-62s59-103 59-186z"/></symbol><symbol id="u"><path transform="matrix(.001 0 0 .001 -.055 .013)" d="M306 484c-48 0-86-19-114-57s-42-89-42-154c0-66 13-117 41-155s66-56 115-56c48 0 86 18 114 56s42 89 42 155c0 64-14 116-42 154s-66 57-114 57zm0 76c78 0 139-26 184-76 44-51 67-121 67-211s-23-160-67-210c-45-51-106-76-184-76-79 0-141 25-185 76-44 50-66 120-66 210s22 160 66 211c44 50 106 76 185 76z"/></symbol><symbol id="v"><path transform="matrix(.001 0 0 .001 -.095 -.432)" d="M250 679c-26 0-48-9-66-27s-27-40-27-66 9-48 27-66 40-26 66-26 48 8 66 26 27 40 27 66-9 48-27 66-40 27-66 27zm0 63c20 0 40-4 60-12 19-8 36-20 50-34 14-15 25-32 33-50 8-19 12-39 12-60 0-44-16-80-46-110s-67-44-110-44c-44 0-81 14-110 44-30 29-44 66-44 110 0 43 15 80 45 110s66 46 110 46z"/></symbol><use xlink:href="#p" transform="matrix(0 -10 -10 0 14.924 175.938)"/><use xlink:href="#q" transform="matrix(0 -10 -10 0 14.794 167.718)"/><use xlink:href="#g" transform="matrix(0 -10 -10 0 14.794 163.578)"/><use xlink:href="#i" transform="matrix(0 -10 -10 0 14.924 161.188)"/><use xlink:href="#r" transform="matrix(0 -10 -10 0 14.794 154.678)"/><use xlink:href="#s" transform="matrix(0 -10 -10 0 14.794 148.978)"/><use xlink:href="#t" transform="matrix(0 -10 -10 0 14.924 144.728)"/><use xlink:href="#s" transform="matrix(0 -10 -10 0 14.794 138.928)"/><use xlink:href="#g" transform="matrix(0 -10 -10 0 14.794 134.338)"/><use xlink:href="#u" transform="matrix(0 -10 -10 0 14.924 131.948)"/><use xlink:href="#r" transform="matrix(0 -10 -10 0 14.794 125.468)"/><use xlink:href="#j" transform="matrix(0 -10 -10 0 14.794 120.038)"/><use xlink:href="#k" transform="matrix(0 -10 -10 0 16.104 115.998)"/><use xlink:href="#v" transform="matrix(0 -10 -10 0 10.474 112.008)"/><use xlink:href="#m" transform="matrix(0 -10 -10 0 16.104 106.988)"/><clipPath id="w"><path transform="matrix(1 0 0 -1 0 310.856)" d="M46.95 37.544h266.112v266.112H46.95z"/></clipPath><g clip-path="url(#w)"><path stroke-width="2.5" stroke-linecap="square" stroke-linejoin="round" fill="none" stroke="teal" d="m59.046 197.677.103-.676.109.613.12-.029.091.578.155-.626.091.556.247-.06.114-.58.103.527.103-.56.166.513.091-.54.086.503.155-1.033.469-.02.086-.488.103.479.234-.479.224.465.108-.464h.138l.097.454.103-.455.149.449.085-.449h.166l.103.44.184-.44.154.432.206-.432.097.423.149-.423.109.418.114-.832.103.414.097-.409.16.41.092-.405.12.404.172-.398.155.398.103-.39.16.002.206.388.097-.762.114.383.172-.374.109.38.097-.744.223.749.115-.365.12.733.206-1.083.103.364.166-.71.246.719.091-.35.098.356.108-.346.103.351.23-.687.142.004.109.35.092-.336.103.344.103-.337.28.685.212-.669.114.006.103-.328.126.337.475.015.097-.32.492.022.103.328.109-.643.2.65.12-.63.658.035.07.336.068-.308.097.32.057-.308.183.296.384-.002.326-.609.223.314.097-.605.12.307.355-.591.12.307.132-.292.074.303.12-.893.15.607.108-.288.115.303.183-.276.16.005.103.297.097-.574.109.3.114-.578.149.594.206-.276.109.297.108-.28.27.587.102-.851.212.3.143-.28.086.29.458.022.097-.273.578.023.109.284.148-.554.23.29.194.01.154-.552.212.288.109-.265.108.55.235-.54.126.285.2.003.252-.525.132.268.08-.262.126.278.125-.268.098.274.154-.26.206.01.132.272.2-.259.223.01.15.267.09-.528.098.274.2-.26.252.01.149-.261.2.537.126-.523.223.272.086-.26.234.27.126-.256.109.263.12-.256.12.262.12-.259.132.266.08-.255h.149l.097.269h.143l.069-.258.114.01.138.26.103-.253h.206l.068.26.138.007.149-.246h.103l.131.262.115-.513.12.52.12-.255.143.262.074-.516.132.522.109-.511.143.514.223-.51.12.267.303-.004.166.273.097-.515.11.26h.314l.172-.253.194.256.24.01.11-.255.205.258.149.258.315-.502.251.254.092-.246.189.256.091-.253.195.26h.114l.126.256.103-.253.235.26h.126l.114-.505.2.508.11-.25.154.004.108.252.132-.504.08.758.206-.245.103.251.263-.248.355.006.103.25.103-.497.223.256h.149l.091.5.218-.497.257.253.332.006.098-.25.263.5.211-.247.252.252.12.002.12-.249.207.25.103-.25.217.254.114-.002.103.25.235-.248.097.249.264.005.102-.254.12.249.224-.246.36.499h.103l.115-.494.103.494.148.004.098-.495.108.497.098-.25.103.246.166-.243.097.245.206-.245.114.248.275.002.097.247.103-.247.103.247.12-.243.178.245.109-.247.091.247.246.002.109-.494.114.741.11-.247.12.496.222-.494.224.247.103-.243.108.49.115-.494.091.245h.126l.235.245.114.002.206-.247.115.247h.16l.097-.247.115.249.206-.249.091.495.172-.246.189.248h.16l.103-.247.126.248.097-.248.109.248.097-.248.132.493.137-.246.114.246.103-.245.126.492.223-.492.098.245.217-.246.086.74.32-.494.103.248.058-.248.108.247.12-.248.143.246.11-.491.25.493.081-.247.109.493.131-.246.138.245.074-.247.12.246.098-.248h.709l.212.248.108.001.155.246.109-.247.12.247.194-.248.126.248.103-.246.12.246.126-.492.212.74h.149l.057-.248h.114l.138.247.103-.246.109.493.165-.495.184.247h.148l.08-.495.28.495.087-.247.229.494.223-.247.091.248h.126l.143-.248.08.248.138-.247.074.247h.126l.137-.247.223.494.103-.247.155.247.074-.247.12.247.126-.247.092.494.126-.493h.126l.085.246h.252l.2.247h.258l.091-.247.224.247h.12l.126-.247.263.494.103-.247.086.247h.12l.149-.247.114.247.086-.247.132.247h.137l.12-.247.303.494h.27l.102-.247.2.497.12-.496.16.248.098-.248.092.247.211-.247h.115l.143.248.097-.496.092.99.143-.494.108.248.126-.248.098.497.097-.497h.252l.091.247.16-.247.12.248.195-.248.109.248.154-.248.304.496h.148l.11-.249.108.248.097-.247.097.495.258-.495.132.247.108-.247.195.247.126.248.16-.248.212.496.103-.496.108.248h.338l.12-.248.217.743.138-.497.126.498.2-.497.223.25.366-.002.086-.249.36.498.115-.249.092.25.137-.001.109-.247.103.247.12-.247.154.246.223-.247.2.499.104-.251.126.25.143-.25.103.248.148-.25.218.251.074-.249.138.497.12-.003.103-.494.108.494.098-.246.114.248.252-.25.097.002.218.248h.137l.149.247.229-.249.217.25.206-.248.097.247.12.002.11-.248.268.248h.366l.08.25.075-.25.172.248.354 20.206.304 8.62.223 2.093.08-.36.206-.2.206-1.53.515-7.722 1.07-23.69.217-5.16.887-15.136.4-3.708.67-6.478.813-8.857.412-6.081.263-3.391.687-8.43 1.115-22.755.47-8.857.331-7.347 1.133-22.708 1.042-12.452.457-3.253.12-.277.327-1.545.12-.221 1.722-8.025.738-3.541.206-.92.687-2.687.149-.286.194-.758.876-2.577.377-.506.338-.596.807-1.121.2-.131.137-.366.126.052.126-.313.12.052.246-.312.32-.388.235-.039.424-.27.532-.166.984-.432.109.191.126-.318.234.205.401-2.02.607-1.037 1.04 5.68.556 3.807.458 1.77.343.561.097-.107.212.043.578-.074.132-.141.715.816.223.536 2.426 8.805.092.288.12-.159.177.252.183-.038.132.087.114-.16.075.29.217-.032.48.346.207-.038.692.264.126.21.12-.04 2.123 2.243.16-.08.23.255.468.255.2.08.132-.04.109.17.103-.17.16.296.075-.17.074.084.217.04.12-.125.115.21.154-.295.098.21.149-.21.08.166.091-.25.126.125.658-.22.132.085.251-.13.441.005.12-.12.601.415.212-.21h.103l.108-.217.103.086.252-.216.115-.004.103-.247.217.17.143-.165.27.134.17-.26.11.13.492-.202.103.081.097-.166.257.126.103-.256.109.215.097-.215.143.17.12-.17.35.04 1.04-.048.11-.04.103.166.229-.17.137.125.097-.126.097.086.115-.085.114.125.206-.125.155.125.103-.085.108.126.098-.085.154.085.109-.085.212.215.12-.04.109.17.452-.036.326.044.572.439.292-.133.177.039.733-.153.12-.205.211.028.11-.173.102.105.32-.33.126.061.19-.171.228.115.109-.124.069.098.143-.227.108.102.32-.214.201.12.893.103.217-.231.39-.074.257.013.12.15.212-.23.2-.087.686-.48.16.095.212-.188.19-.05.268.004.218-.235.2.003.149-.05.137.097.097-.19.206.05.12.047.103-.093.126.097.109-.29.114.243.15-.146.2.096.12-.093.097.093.223-.146.155.147.211-.193.103.196.109-.04.12.15.115-.136.223.2.274-.197.103-.144.384.09.166-.336.137.047.303-.246.263.029.12.21.207-.11.148.16.143-.183.092.257.298-.211.955-.27.103-.148.143.112.183-.298.092-.096.166.11.114-.148.235.118.32-.242.103.163.315-.091.154.057.36-.366.081.107.086-.157.715.073.075-.322.257.106.212-.267.171.11.046-.106.59.01.52-.325.292-.052.114-.164.126.053.086-.162.286.054.2-.107.224.055.194-.218.263.169.224-.041.171.171.058-.103.103.283.263-.324.223.178.95-.485.103.18.297-.46.115.18.16-.176.109.121.114-.236.103.061.218-.117.097-.12.16.184.092-.121.131.062.086-.365.092.184.16-.06.12-.246.114.123.075-.309.154.186.31-.312.148.186.109-.38.2.25.257-.324.098.191.097-.196.269-.005.526-.212.166.064.08-.137.27.602.417-.84.103.062.35-.451.16-.01.24-.312.074.062.097-.23.109.207.114-.382.212.21.092-.314.057.14.48-.13.098-.248.103.46.229-.422.154-.014.097-.252.2.213.373-.198.229.06.194-.441.258.23.2-.195.12.073.269-.277.092.244.125-.441.098.423.257-.45.103.247.212-.37.103.254.109-.362.16.164.091-.09.103.073.103-.367.16.35.126-.46.407-14.13.269-3.462.114.413.092-.03.463 5.616.36 6.735.693 14.581.109.204.2 1.296.257.59.103.208.11-.158.205.136.12-.245.103.396.166-.706.103.21.23-.137.234-.506.143.112.229-.424.114.113.12-.35.08.203.155.022.069-.17.097.204.109-.069.211.322.138-.173.217.313.715.937.103.092.664-18.48.463-3.998.11.224.25.002.985 6.359 1.087 11.907.075 1.457.183 1.322.166 3.033 1.384 14.814.784 6.808.35 2.717.469 4.14.217 2.542.229 3.238.56 10.969.138 1.554.326 7.682.698 13.162.561 7.96.36 4.058 3.697 47.01.4 10.737.27 6.798.469 12.928.108.386.212 1.182.538 2.05.16 1.111.109-.225.103.888.16.346.269 1.769.727 3.995.114.276.47 3.473h.097l.206 1.759.263 1.14.995 5.11.115-.04.332 1.688h.16l.2 1.012.16.042.2 1.136.098-.085.143.817.103-.043h.103l.326 1.227.16.857.103-.045.115.27.189.99.131.045.097-.09.258 1.25.109-.49.097.758.16.222.48 5.647.298 2.105.115-.207.343 1.282.406-1.788.384-5.18.692-7.917.366-.1.086.484.092-.18.263.22.114.524.103-.523.103.606.16.041.104.262.103-.041.206.083.171.524.206-.304.132-.22.074.304.16-.042.11-.262.108.22.131-.482.086.44.195-.482.269-.083.103-.22.143.18.091-.745.092.441.132-.604.091.481.16-.742.115.18.108-.301.103.22.327-.6.103.18.257-.56.109-.298.103.48.257-.377h.109l.126-.26.074.182.092-.594.16.258.183-.373.115.257.251-.63.126.515.08-.59.138.257.12-.038.103-.332.143.219.086-.256h.126l.08-.368.131.511.143-.33.2.255.127-.33h.246l.114.218.097-.328h.138l.08.254.108-.291.132.037.114.18.15-.254.074.18.623-.147.12.29.08-.29.086.215.246-.073.138-.215.091.215.2-.073.27.214.108-.324h.126l.086.215.12-.073.155.287.2-.36.166.5.063-.5.091.427.155-.037.109-.25.188.213.166-.072.103.285.418-.073.172.212.097-.285.086.46.154-.212.098.211.103-.248.103.212.154-.248.097.248.109-.32.114.53.287-.567.16.74.36-.53.103.42.132-.21.126.174.091-.456.086.739.155-.037.108-.32.11.037.096.246.16-.319.11.037.217.49.103-.354.103.036.12.245.149-.281.211.245.115-.245.114.49.103-.282.126.282.086-.282.137-.036.132.318.109-.355.103.037.108.244.264.244.177-.366.189.5.32.313.097-.418.115.247.206-.495.149.248.326-.779.114.741.103-.567.097.283.258-.074.109-.493.097.493.114-.283.138.283.097-.32.252.419h.206l.257-.037.12-.282.098.417.16-.172.046.38.6-.111.315.207.092.17.166-.414.154.488.063-.074.263-.244.086.28.092-.036.12-.28.149.28.108-.28.092.243.109-.244.131.524.103-.354.126.317h.206l.258-.28.223.243.103-.28.103.522.109-.316.165.28.15-.486.068.411.103-.448.2.727.212-.316.057.111.08.205.189-.242.074.242.115-.521.32.726.086-.558.16.484.098-.41.251.205.092-.242.091.242.178-.242.086.688.108-.483.235.279.223-.316.109.483.223-.483.229.241h.131l.086.167.27-.24.102.481.092-.482.149.482.12-.278.068.037.11-.037.165.166.212-.24.097.48.155-.24.103.24.131-.277.086.24.212-.277.217.48.286-.24.097.442.206-.442.212.442.155-.277.097.315.12-.076.109-.202.091.202.246-.24.212.278.132.24.114-.278.115.278.188-.278.138.24.154-.164.098.164.091-.202.235.441.223-.24.126.24.257-.314.075.314.114-.201.109.201.149-.277.08.555.108-.48.138-.037.143.517.194-.24.315-.038.126.278.126-.48.114.403.132-.163.32.479.246-.278.143.278.058-.278.137.278.12-.278.229.24.097-.039.12.24.2-.201.064.2.08-.2.166-.039.171.278.143-.039.11.2.113-.238.092.239.149.038.206-.315.355.476.091-.276.27.038.2.354.457-.045.132-.2.097.317.103-.078.246-.279h.24l.206-.077.264.479.091-.479.103.479h.115l.154-.24.109.24.206-.2.108.478.166-.517.31.517.108-.24.212.28.16-.04.114-.24.098.48.2-.48.257.28.126-.28.08.319.115-.079.109.24.372.039h.206l.114.24.154-.48.098.24.097-.279.218.718.16-.44.108.122.11.318.096-.478.332.2.132-.24.206.518.114-.24.378.239.103-.04.103.08.103-.28.269.24.091-.441.086.44.166.08.086-.32.103.08.137-.12.143.28.086-.319.109.52.103-.56.257.56.126-.2.183.24.264-.28.103.48.091-.48.263.24.11-.24.308.52.372-.08.143-.2.063.52.155-.48.103.48.108-.48.092.48h.246l.097-.28.126.52"/></g><clipPath id="x"><path transform="matrix(1 0 0 -1 0 310.856)" d="M46.95 37.544h266.112v266.112H46.95z"/></clipPath><g clip-path="url(#x)"><path stroke-width="2.5" stroke-dasharray="9.25,4" stroke-linejoin="round" fill="none" stroke="red" d="m59.046 199.675 69.825.017.115-155.1h22.321l.235 25.295h6.294l.132-25.296h4.79l.096 12.648h.12l.103-12.648.115 12.648.097-12.648h.16l.206 12.648h5.814l.235 12.648h7.1l.235-25.296h4.154l.115 12.648h4.314l.115 12.648h4.016l.098-25.296h.137l.097 25.296.206-25.296h2.655l.092 12.648.166-12.648.114 12.648h3.084l.046 12.648h2.318l.12-25.296h1.499l.326 12.648h1.522l.103 12.648h1.345l.154-37.943.2 12.647h.824l.195 12.648h.607l.188-37.943.246 50.59h.15l.21-37.942h.43l.252 12.647h.572l.206 12.648h.418l.166 12.648h11.209l.109 158.164.921.048h1.808l.166.672 2.73.71 3.072.658 4.057.486 4.675.184 6.506-.023 6.735-.053 45.684-.22 4.795-.052"/></g><path stroke-width=".8" stroke-linecap="square" stroke-miterlimit="10" fill="none" stroke="#000" d="M46.95 273.312V7.2M313.062 273.312V7.2M46.95 273.312h266.112M46.95 7.2h266.112"/><path d="M53.95 268.312h153.36c1.333 0 2-.667 2-2v-28.344c0-1.333-.667-2-2-2H53.95c-1.333 0-2 .667-2 2v28.344c0 1.333.667 2 2 2z" fill="#fff" fill-opacity=".8"/><path stroke-miterlimit="10" fill="none" stroke="#d5d6d5" stroke-opacity=".8" d="M53.95 268.312h153.36c1.333 0 2-.667 2-2v-28.344c0-1.333-.667-2-2-2H53.95c-1.333 0-2 .667-2 2v28.344c0 1.333.667 2 2 2z"/><path stroke-width="2.5" stroke-linecap="square" stroke-linejoin="round" fill="none" stroke="teal" d="M55.95 244.062h20"/><symbol id="y"><path transform="matrix(.001 0 0 .001 -.056 .013)" d="M644 673V569c-34 30-69 53-107 69-38 15-77 23-119 23-84 0-148-26-192-77s-66-124-66-220 22-170 66-221 108-76 192-76c42 0 81 7 119 23 38 15 73 38 107 69V56c-35-24-72-41-110-52s-79-17-122-17C302-13 215 20 151 87S56 246 56 364c0 117 31 209 95 277 64 67 151 101 261 101 44 0 85-6 123-17 38-12 75-29 109-52z"/></symbol><symbol id="z"><path transform="matrix(.001 0 0 .001 -.085 .013)" d="M85 216v331h90V219c0-52 10-90 30-116s50-39 91-39c48 0 87 15 115 46s42 73 42 127v310h90V0h-90v84c-22-34-48-58-76-74-29-15-62-23-100-23-63 0-111 19-143 58-33 38-49 95-49 171zm226 344z"/></symbol><symbol id="A"><path transform="matrix(.001 0 0 .001 -.086 .131)" d="M310 759c-44-76-76-150-97-223-22-73-32-147-32-222 0-76 10-150 32-223 21-74 53-147 97-222h-78C183-54 146 20 122 94S86 241 86 314c0 72 12 145 36 219s60 149 110 226h78z"/></symbol><symbol id="B"><path transform="matrix(.001 0 0 .001 -.066 .013)" d="M535 705v-96c-38 18-73 31-106 40-34 8-66 13-96 13-54 0-96-11-125-31-29-21-43-51-43-89 0-32 9-57 29-73 19-17 56-30 110-40l60-12c73-14 127-39 162-74 35-36 53-83 53-142 0-71-24-124-71-160-48-36-117-54-208-54-35 0-72 4-111 11S110 16 69 32v102c40-23 79-40 117-51 38-12 76-17 114-17 56 0 99 11 130 33 30 22 46 53 46 95 0 36-11 64-33 84s-58 35-108 45l-60 12c-74 14-127 37-160 69-33 31-49 74-49 130 0 64 22 115 68 152 45 37 108 56 188 56 34 0 68-3 104-9 35-6 71-16 109-28z"/></symbol><symbol id="C"><path transform="matrix(.001 0 0 .001 -.08 .131)" d="M80 759h78c48-77 85-152 109-226s37-147 37-219c0-73-13-146-37-220S206-54 158-131H80c43 75 75 148 97 222 21 73 32 147 32 223 0 75-11 149-32 222-22 73-54 147-97 223z"/></symbol><use xlink:href="#y" transform="matrix(10 0 0 -10 84.51 247.692)"/><use xlink:href="#z" transform="matrix(10 0 0 -10 91.78 247.692)"/><use xlink:href="#q" transform="matrix(10 0 0 -10 98.18 247.562)"/><use xlink:href="#q" transform="matrix(10 0 0 -10 102.118 247.562)"/><use xlink:href="#i" transform="matrix(10 0 0 -10 105.65 247.692)"/><use xlink:href="#r" transform="matrix(10 0 0 -10 112.16 247.562)"/><use xlink:href="#s" transform="matrix(10 0 0 -10 117.86 247.562)"/><use xlink:href="#j" transform="matrix(10 0 0 -10 121.51 247.562)"/><use xlink:href="#u" transform="matrix(10 0 0 -10 125.24 247.692)"/><use xlink:href="#q" transform="matrix(10 0 0 -10 131.72 247.562)"/><use xlink:href="#g" transform="matrix(10 0 0 -10 135.86 247.562)"/><use xlink:href="#i" transform="matrix(10 0 0 -10 138.25 247.692)"/><use xlink:href="#r" transform="matrix(10 0 0 -10 144.76 247.562)"/><use xlink:href="#s" transform="matrix(10 0 0 -10 150.46 247.562)"/><use xlink:href="#t" transform="matrix(10 0 0 -10 154.71 247.692)"/><use xlink:href="#s" transform="matrix(10 0 0 -10 160.51 247.562)"/><use xlink:href="#g" transform="matrix(10 0 0 -10 165.1 247.562)"/><use xlink:href="#u" transform="matrix(10 0 0 -10 167.49 247.692)"/><use xlink:href="#r" transform="matrix(10 0 0 -10 173.97 247.562)"/><use xlink:href="#j" transform="matrix(10 0 0 -10 179.4 247.562)"/><use xlink:href="#A" transform="matrix(10 0 0 -10 183.44 248.872)"/><use xlink:href="#p" transform="matrix(10 0 0 -10 187.04 247.692)"/><use xlink:href="#B" transform="matrix(10 0 0 -10 195.01 247.692)"/><use xlink:href="#C" transform="matrix(10 0 0 -10 201.5 248.872)"/><path stroke-width="2.5" stroke-dasharray="9.25,4" stroke-linejoin="round" fill="none" stroke="red" d="M55.95 258.734h20"/><symbol id="D"><path transform="translate(-.098) scale(.001)" d="M197 648V81h119c100 0 174 22 221 68 46 46 70 118 70 216s-24 169-70 215c-47 45-121 68-221 68H197zm-99 81h203c141 0 245-30 311-88 66-59 99-151 99-276 0-126-34-218-100-277S441 0 301 0H98v729z"/></symbol><symbol id="E"><path transform="matrix(.001 0 0 .001 -.055 .013)" d="M454 464v296h90V0h-90v82c-19-33-43-57-72-72s-63-23-103-23c-66 0-120 26-162 78S55 187 55 273s20 155 62 208c42 52 96 79 162 79 40 0 74-8 103-24s53-40 72-72zM148 273c0-66 13-118 40-156s64-56 112-56 85 18 113 56c27 38 41 90 41 156s-14 117-41 155c-28 38-65 57-113 57s-85-19-112-57-40-89-40-155z"/></symbol><use xlink:href="#D" transform="matrix(10 0 0 -10 84.93 262.234)"/><use xlink:href="#i" transform="matrix(10 0 0 -10 92.2 262.364)"/><use xlink:href="#l" transform="matrix(10 0 0 -10 98.34 262.364)"/><use xlink:href="#g" transform="matrix(10 0 0 -10 103.95 262.234)"/><use xlink:href="#q" transform="matrix(10 0 0 -10 106.7 262.234)"/><use xlink:href="#i" transform="matrix(10 0 0 -10 110.231 262.364)"/><use xlink:href="#E" transform="matrix(10 0 0 -10 116.381 262.364)"/><use xlink:href="#j" transform="matrix(10 0 0 -10 122.181 262.234)"/><use xlink:href="#u" transform="matrix(10 0 0 -10 125.911 262.364)"/><use xlink:href="#q" transform="matrix(10 0 0 -10 132.391 262.234)"/><use xlink:href="#g" transform="matrix(10 0 0 -10 136.531 262.234)"/><use xlink:href="#i" transform="matrix(10 0 0 -10 138.921 262.364)"/><use xlink:href="#r" transform="matrix(10 0 0 -10 145.431 262.234)"/><use xlink:href="#s" transform="matrix(10 0 0 -10 151.131 262.234)"/><use xlink:href="#t" transform="matrix(10 0 0 -10 155.381 262.364)"/><use xlink:href="#s" transform="matrix(10 0 0 -10 161.181 262.234)"/><use xlink:href="#g" transform="matrix(10 0 0 -10 165.771 262.234)"/><use xlink:href="#u" transform="matrix(10 0 0 -10 168.161 262.364)"/><use xlink:href="#r" transform="matrix(10 0 0 -10 174.641 262.234)"/><use xlink:href="#j" transform="matrix(10 0 0 -10 180.071 262.234)"/><use xlink:href="#A" transform="matrix(10 0 0 -10 184.111 263.544)"/><use xlink:href="#p" transform="matrix(10 0 0 -10 187.711 262.364)"/><use xlink:href="#B" transform="matrix(10 0 0 -10 195.681 262.364)"/><use xlink:href="#C" transform="matrix(10 0 0 -10 202.171 263.544)"/></svg>