<svg xmlns="http://www.w3.org/2000/svg" xmlns:xlink="http://www.w3.org/1999/xlink" width="422.787" height="414.474" viewBox="0 0 317.09 310.856"><path d="M0 310.856h317.09V0H0z" fill="#fff"/><path d="M43.778 273.312H309.89V7.2H43.778z" fill="#fff"/><path stroke-width=".8" stroke-linejoin="round" fill="none" stroke="#000" d="M46.92 273.312v3.5"/><symbol id="a"><path transform="matrix(.001 0 0 .001 -.066 .013)" d="M318 664c-51 0-89-25-115-75s-38-125-38-225 12-175 38-225 64-75 115-75 89 25 115 75c25 50 38 125 38 225s-13 175-38 225c-26 50-64 75-115 75zm0 78c81 0 143-33 187-97 43-65 65-159 65-281 0-123-22-217-65-281-44-64-106-96-188-96S173 19 130 83 66 241 66 364c0 122 21 216 64 281 43 64 106 97 188 97z"/></symbol><use xlink:href="#a" transform="matrix(10 0 0 -10 44.4 288.036)"/><path stroke-width=".8" stroke-linejoin="round" fill="none" stroke="#000" d="M104.14 273.312v3.5"/><symbol id="b"><path transform="translate(-.11) scale(.001)" d="M124 83h161v556l-175-35v90l174 35h99V83h161V0H124v83z"/></symbol><use xlink:href="#b" transform="matrix(10 0 0 -10 98.88 287.906)"/><use xlink:href="#a" transform="matrix(10 0 0 -10 104.8 288.036)"/><path stroke-width=".8" stroke-linejoin="round" fill="none" stroke="#000" d="M161.359 273.312v3.5"/><symbol id="c"><path transform="translate(-.073) scale(.001)" d="M192 83h344V0H73v83c37 38 88 90 153 156 64 65 105 107 122 126 32 35 54 65 66 90 12 24 19 49 19 73 0 38-14 70-41 94s-62 37-106 37c-31 0-64-6-98-16-34-11-71-27-110-49v100c40 16 77 28 111 36s66 12 95 12c75 0 135-19 180-57s68-88 68-151c0-30-6-59-17-85-11-27-31-59-61-95-8-10-34-37-78-82S271 164 192 83z"/></symbol><use xlink:href="#c" transform="matrix(10 0 0 -10 155.73 287.906)"/><use xlink:href="#a" transform="matrix(10 0 0 -10 162.02 288.036)"/><path stroke-width=".8" stroke-linejoin="round" fill="none" stroke="#000" d="M218.579 273.312v3.5"/><symbol id="d"><path transform="matrix(.001 0 0 .001 -.076 .013)" d="M406 393c47-10 84-31 110-63s40-72 40-118c0-72-25-128-74-167-50-39-120-58-211-58-31 0-63 3-95 9-32 5-66 14-100 26v95c27-16 57-28 90-36 32-8 66-12 102-12 62 0 109 12 141 36s49 60 49 107c0 42-15 76-45 100s-72 37-126 37h-85v81h89c48 0 85 9 111 29 26 19 39 47 39 84s-14 66-40 86c-27 20-65 30-114 30-27 0-56-3-87-9s-65-15-102-27v88c37 10 72 18 105 23 32 5 63 8 93 8 74 0 133-17 177-51s66-80 66-138c0-40-12-74-35-102s-56-48-98-58z"/></symbol><use xlink:href="#d" transform="matrix(10 0 0 -10 212.98 288.036)"/><use xlink:href="#a" transform="matrix(10 0 0 -10 219.24 288.036)"/><path stroke-width=".8" stroke-linejoin="round" fill="none" stroke="#000" d="M275.799 273.312v3.5"/><symbol id="e"><path transform="translate(-.049) scale(.001)" d="M378 643 129 254h249v389zm-26 86h124V254h104v-82H476V0h-98v172H49v95l303 462z"/></symbol><use xlink:href="#e" transform="matrix(10 0 0 -10 269.93 287.906)"/><use xlink:href="#a" transform="matrix(10 0 0 -10 276.46 288.036)"/><symbol id="f"><path transform="translate(.002) scale(.001)" d="M-2 729h616v-83H355V0h-99v646H-2v83z"/></symbol><symbol id="g"><path transform="translate(-.094) scale(.001)" d="M94 547h90V0H94v547zm0 213h90V646H94v114z"/></symbol><symbol id="h"><path transform="translate(-.091) scale(.001)" d="M520 442c22 40 49 69 80 89 31 19 68 29 111 29 56 0 100-20 131-60s47-97 47-170V0h-90v327c0 52-10 91-28 117-19 25-47 38-85 38-47 0-84-16-111-47s-40-73-40-126V0h-90v327c0 52-10 91-28 117-19 25-48 38-86 38-46 0-83-16-110-47s-40-73-40-126V0H91v547h90v-85c20 33 45 58 74 74 28 16 62 24 102 24s73-10 101-30 48-50 62-88z"/></symbol><symbol id="i"><path transform="matrix(.001 0 0 .001 -.055 .013)" d="M562 296v-44H149c4-62 22-110 56-142 33-32 79-48 139-48 34 0 68 4 100 12s65 21 97 39V28c-32-14-65-25-99-31s-69-10-103-10c-88 0-157 25-208 75S55 181 55 268c0 89 24 160 72 213 48 52 114 79 196 79 74 0 132-24 175-71 42-48 64-112 64-193zm-90 26c-1 49-15 88-41 118-27 29-63 44-107 44-50 0-90-15-120-43s-48-68-52-119h320z"/></symbol><symbol id="k"><path transform="matrix(.001 0 0 .001 -.086 .131)" d="M86 760h207v-70H176V-61h117v-70H86v891z"/></symbol><symbol id="l"><path transform="matrix(.001 0 0 .001 -.054 .013)" d="M443 531v-85c-26 12-52 22-79 29-28 6-56 10-85 10-45 0-79-7-101-21s-33-34-33-61c0-21 8-37 24-49s48-24 96-34l31-7c64-14 109-34 136-58 26-25 40-60 40-104 0-51-20-91-60-120-40-30-96-44-166-44-30 0-60 3-92 8S89 8 54 20v93c33-18 66-31 98-39 32-9 64-13 96-13 42 0 75 7 98 21 22 14 34 35 34 62 0 24-9 43-25 56s-52 26-108 38l-31 7c-56 12-97 30-121 54-25 24-37 57-37 100 0 51 18 91 54 119s88 42 156 42c33 0 64-3 94-8 29-5 56-12 81-21z"/></symbol><symbol id="m"><path transform="matrix(.001 0 0 .001 -.097 .131)" d="M304 760v-891H97v70h117v751H97v70h207z"/></symbol><use xlink:href="#f" transform="matrix(10 0 0 -10 156.431 301.578)"/><use xlink:href="#g" transform="matrix(10 0 0 -10 163.204 301.578)"/><use xlink:href="#h" transform="matrix(10 0 0 -10 165.954 301.578)"/><use xlink:href="#i" transform="matrix(10 0 0 -10 175.334 301.708)"/><use xlink:href="#j" transform="matrix(10 0 0 -10 180.934 301.578)"/><use xlink:href="#k" transform="matrix(10 0 0 -10 184.974 302.888)"/><use xlink:href="#l" transform="matrix(10 0 0 -10 188.554 301.708)"/><use xlink:href="#m" transform="matrix(10 0 0 -10 194.194 302.888)"/><path stroke-width=".8" stroke-linejoin="round" fill="none" stroke="#000" d="M43.778 247.157h-3.5"/><symbol id="n"><path transform="translate(-.107) scale(.001)" d="M107 124h103V0H107v124z"/></symbol><symbol id="o"><path transform="matrix(.001 0 0 .001 -.077 .013)" d="M108 729h387v-83H198V467c14 5 29 9 43 11s29 4 43 4c81 0 145-23 193-67 48-45 72-105 72-181 0-79-25-140-74-183S357-13 269-13c-31 0-62 3-94 7-32 5-64 12-98 23v99c29-16 59-28 91-36 31-8 64-11 99-11 56 0 101 14 134 44 32 30 49 70 49 121 0 50-17 90-49 120-33 30-78 45-134 45-26 0-53-3-79-9s-53-15-80-27v366z"/></symbol><use xlink:href="#a" transform="matrix(10 0 0 -10 21.532 251.084)"/><use xlink:href="#n" transform="matrix(10 0 0 -10 28.302 250.954)"/><use xlink:href="#o" transform="matrix(10 0 0 -10 31.182 251.084)"/><path stroke-width=".8" stroke-linejoin="round" fill="none" stroke="#000" d="M43.778 190.192h-3.5"/><use xlink:href="#b" transform="matrix(10 0 0 -10 21.972 193.989)"/><use xlink:href="#n" transform="matrix(10 0 0 -10 28.302 193.989)"/><use xlink:href="#a" transform="matrix(10 0 0 -10 31.072 194.119)"/><path stroke-width=".8" stroke-linejoin="round" fill="none" stroke="#000" d="M43.778 133.226h-3.5"/><use xlink:href="#b" transform="matrix(10 0 0 -10 21.972 137.023)"/><use xlink:href="#n" transform="matrix(10 0 0 -10 28.302 137.023)"/><use xlink:href="#o" transform="matrix(10 0 0 -10 31.182 137.153)"/><path stroke-width=".8" stroke-linejoin="round" fill="none" stroke="#000" d="M43.778 76.261h-3.5"/><use xlink:href="#c" transform="matrix(10 0 0 -10 21.602 80.058)"/><use xlink:href="#n" transform="matrix(10 0 0 -10 28.302 80.058)"/><use xlink:href="#a" transform="matrix(10 0 0 -10 31.072 80.188)"/><path stroke-width=".8" stroke-linejoin="round" fill="none" stroke="#000" d="M43.778 19.296h-3.5"/><use xlink:href="#c" transform="matrix(10 0 0 -10 21.602 23.093)"/><use xlink:href="#n" transform="matrix(10 0 0 -10 28.302 23.093)"/><use xlink:href="#o" transform="matrix(10 0 0 -10 31.182 23.223)"/><symbol id="p"><path transform="matrix(.001 0 0 .001 -.066 .013)" d="M535 705v-96c-38 18-73 31-106 40-34 8-66 13-96 13-54 0-96-11-125-31-29-21-43-51-43-89 0-32 9-57 29-73 19-17 56-30 110-40l60-12c73-14 127-39 162-74 35-36 53-83 53-142 0-71-24-124-71-160-48-36-117-54-208-54-35 0-72 4-111 11S110 16 69 32v102c40-23 79-40 117-51 38-12 76-17 114-17 56 0 99 11 130 33 30 22 46 53 46 95 0 36-11 64-33 84s-58 35-108 45l-60 12c-74 14-127 37-160 69-33 31-49 74-49 130 0 64 22 115 68 152 45 37 108 56 188 56 34 0 68-3 104-9 35-6 71-16 109-28z"/></symbol><symbol id="q"><path transform="matrix(.001 0 0 .001 -.091 .207)" d="M181 82v-289H91v754h90v-83c18 32 42 56 71 72s64 24 104 24c66 0 120-27 162-79 41-53 62-122 62-208s-21-156-62-208c-42-52-96-78-162-78-40 0-75 8-104 23s-53 39-71 72zm306 191c0 66-14 117-41 155-28 38-65 57-112 57-48 0-85-19-112-57-28-38-41-89-41-155s13-118 41-156c27-38 64-56 112-56 47 0 84 18 112 56 27 38 41 90 41 156z"/></symbol><symbol id="r"><path transform="matrix(.001 0 0 .001 -.055 .013)" d="M454 464v296h90V0h-90v82c-19-33-43-57-72-72s-63-23-103-23c-66 0-120 26-162 78S55 187 55 273s20 155 62 208c42 52 96 79 162 79 40 0 74-8 103-24s53-40 72-72zM148 273c0-66 13-118 40-156s64-56 112-56 85 18 113 56c27 38 41 90 41 156s-14 117-41 155c-28 38-65 57-113 57s-85-19-112-57-40-89-40-155z"/></symbol><symbol id="s"><path transform="matrix(.001 0 0 .001 0 .092)" d="M254 729h83L83-92H0l254 821z"/></symbol><use xlink:href="#p" transform="matrix(0 -10 -10 0 14.924 169.94)"/><use xlink:href="#q" transform="matrix(0 -10 -10 0 16.864 163.34)"/><use xlink:href="#i" transform="matrix(0 -10 -10 0 14.924 157.35)"/><use xlink:href="#i" transform="matrix(0 -10 -10 0 14.924 151.2)"/><use xlink:href="#r" transform="matrix(0 -10 -10 0 14.924 145.05)"/><use xlink:href="#j" transform="matrix(0 -10 -10 0 14.794 139.25)"/><use xlink:href="#k" transform="matrix(0 -10 -10 0 16.104 135.21)"/><use xlink:href="#h" transform="matrix(0 -10 -10 0 14.794 131.26)"/><use xlink:href="#s" transform="matrix(0 -10 -10 0 15.714 122.43)"/><use xlink:href="#l" transform="matrix(0 -10 -10 0 14.924 118.52)"/><use xlink:href="#m" transform="matrix(0 -10 -10 0 16.104 112.88)"/><clipPath id="t"><path transform="matrix(1 0 0 -1 0 310.856)" d="M43.778 37.544H309.89v266.112H43.778z"/></clipPath><g clip-path="url(#t)"><path stroke-width="2.5" stroke-linecap="square" stroke-linejoin="round" fill="none" stroke="teal" d="m55.874 261.216.67-6.068 1.064-6.934.223-1.127.246-1.126.424-1.994 5.184-19.417.137-.259.298-1.128.211-.434.567-1.646.938-2.255.258-.433.91-2.513.108-.001.32-.954.567-.693.326-3.033.057.086.292 1.04.16-.173.327-.434h.114l.223-.345.218-.349.95-1.734.406-1.215.263-.259.206-.695.372-.693.423-1.125.16-.087.458-.87.641-1.126h.16l.218-.347.309-.518.257-.262 1.059-1.388h.074l.126-.348.12.09.332-.697.132.088.206-.434.223-.173.154-.261.138.086.068-.345.332-.348.464-.434.297-.347.601-.519.435-.436.235-.17.354-.35.24-.088.361-.258.097-.173.212-.087.115-.259h.137l.103-.175.275.001.635-.695.967-.694.097.087.263-.345.16.173.166-.432.098.085.24-.086.08.086.378-.258.091.085.458-.347.246-.084.109-.09.097.087.246-.258.115.084.091-.173 1.865-.778.212-.086.31-.173.354-.09.263-.171.326-.087.103-.173.59-.086.126-.088.125.09.206-.262.573-.085.492-.174h.406l.12-.173.115.086.251-.085h.355l.092-.174.223.175.372-.175.103.087.326-.173.103.087.355-.259.2.172.166-.174.206.087.212-.086.371-.086h.206l.12-.175.378.089.578-.086.24-.088h.327l.103-.173.223.173.36.261.31-.173.589-.087.097-.087.109.174.091-.086.624-.087.126-.086.097.087.109-.089.229.089 1.814.087.143.087.108-.173.572-.002.332.262 1.019-.002.109-.17.263.172.212-.087.103.173.228-.172 1.128.086.497.26.2-.173h.699l.091-.173.35.173.337-.085.28-.002.08-.173.258.087h.412l.126-.174.212.174.137-.088.206.088 2.81.088.68.432.092-.172.103.172.223-.087.143.001.097-.262.235.348.109-.087.223.173.097-.173h3.479l.114-.175.212.088.109-.087.109.086.137-.086.126.173.103-.173.32.173.132-.173.234.085.086-.085.155.086.108-.086.098.173.114-.087.092.173.137-.085.109.086.103-.087.12.087.154-.174.224.088.103-.088.097.26.103-.173.126.086.395-.172.217.172.074-.086.138.087.12-.177.103.09.109-.088.211.087 2.467.084.08.088.074-.086.172-.001.96-35.454.298-6.76 1.208-32.002 1.276-14.242 1.602-11.616.212-.764.108-.546.464-.46.12.192.109-.303.263.017.452.835.114.065.12-1.491.538 1.914.332 1.134.39.923.537 1.38.567 1.812.12.217.212-.13.137.105.687-.878.326-.85 1.15-3.49.463-1.449.367-.795.194-.455.944-1.63.613-.766.892-1.623.149-.124.195-.331.326-.652.12-.015.229-.289.475-.579.103-.042.246-.285.091-.088.223-.364.24-.206.098-.241.137.073.235-.322.463-.61.367-.326.429-.678.126.075.2-.399h.114l.109-.427.109.19 1.001-.948.103-.086.303-.547.47-.462.4-6.529.52-4.991 1.128-11.702 1.013-8.6.652-4.562.263-1.325.544-3.066.492-1.576.217-.803.584-1.788.252-.642.12-.108.24-.492.098-.034.143-.42.72 4.003.493 1.929.726 2.02.384 1.701.154.116.235.58 1.573 2.165.12.075.104-.234.211.426.504.573.097-.041.092.153.263-.157.194.228.11-.082.16.157.114-.085.114.2.126-.081.115.193.12-.119.217.153.092-.194.24.152.103-.074.31-.007.216-.075.235.037.824-.227.092.153.125-.228h.24l.075-.193.275.156.109-.272.223.078.337.354.458 1.388.143.037.092.198.332-.384.103.037.366-.387.103.282.217.071.498.47.086-.306.412.385.189.153.103-.153.097.119.36-.154.11.191.096-.187.143.071.12-.075.115.116.235-.197.103.2.114-.312.109.193.372-.272h.126l.085-.19.24.153.104-.12.12.045.246-.16.309.041.32.003.727-.156 1.007.612.366 3.137.418 4.46.847 5.552.584 3.688 1.356 5.865.143.197.223.582.206.622.309 1.589.63 1.86.674.858.195.74.68 1.396.482-.229.091-.078.275.153.091-.07.218.154.091-.078.372.312.115.08.126-.08.074.272.149-.116.343.194.097.078.12-.078.23.194.108-.114.115.195.148-.157.098.232.103-.194.12.156.097-.159.126.084.097-.235.155.154.103-.27.211.464.452 1.59.115.115.377-.23.224-.35.326-.035.332-.194.108-.27.264 1.936.812 6.441.132.546.206 1.627.652 4.153.59 2.484.371 1.592.876 3.84.612 1.051.08.034.801 1.906.075.076.257-.155.212.192.217.39.384 1.009.206.155.269-.155.08.078.297-.036.166.27.24-.233.086.039.286-.078.2.155.224.117.194-.08.143.237.24 1.744.436 3.8.486 2.949.263.74.063.693.086-.618.744 5.78 1.11 5.934.47 1.862.09.543.16.274.31 1.122.246.31.109.388.824 6.747.463 2.717.338 1.978.795 5.238.24 1.317.44 4.733.894 7.481.303 1.823.263 2.562.275 1.627.429 3.064.366 2.133.195 1.241 1.848 8.183.572 1.82.372 1.086.091.077.206.813.287.658.291-3.689.922-4.971.131.15.675 2.746.098.041.114.265.166.027.44 2.08 1.5 5.28.286.7.4 1.437.32.971.321 1.005.355.699.355.576.097-.079.263.346.103-.077.664-7.508.36-2.979.556-5.982.76-5.57.298-2.322.31-1.99.308-.96.143-.975.16-.392.075-.515.183.026.051-.176.115.019.36-.623.206.124.618.468.31.42.486.558.189.307.263.217.086.067.097.229.166.064.286.712.366 1.122 1.024 5.818.962 7.753 1.092 4.006.166.166 1.133 5.474.435 2.36 1.74 7.416.355 1.025.206-.162.102.037.264-.47.211.667.315.584.492.282.435.74.103.414.103-.102.618 1.027.223.143.47.313.205.044.27.215.308.008.47.162.211-.035 1.711-.504.137-.126.103.071.086-.27.263-.043.212-.043.092-.2.131.087.355-.416.109.115.349-.305.109-.095.103.07 1.195-3.663.2-.036.104.151.097-.09.229.274.154-.012.103.158.23-.075.343.114.125.27.086-.113.092.185.154-.184.224.057.102.027.264.23.314-.012.098.084.509-.001.074.074.378-.172.132.113.085-.199.103.199.36-.257.104.1.143-.184.091.123.315-.454.16.126.327-.354.108.097.103-.342.115.099.257-.246.212-.071.47-.356.125.013.166-.33.16-.013.424-.416 1.047-.587.08-.245.131-.026.143-.157.115.17.212-.342.36-.099.097-.157h.458l.115-.187.148.014.206-.27.092.086.933-.615.137.101.458-.37h.103l.234-.157.206-.271.246.001.109-.174.229.001.246-.282.217-.086.08.001.166-.172.103.073.418-.17.607-.284.206-.085.251-.001.11-.159.217.072.343-.196.154.013.126-.172.08.099.103-.196.132.097.126-.184.177.073.63-.33.108.086.098-.185.12.159.103-.243.223.071.149-.072.114.074.212-.074.566-.185.132.16.109-.245.211.072.378-.087.063-.781.721 2.07.206.024.59-.099.102-.145.098.073.257-.172h.206l.115-.073.137.073.194-.258.155-.096.109.084.354-.171.12-.073.098-.197.16.185.155-.37.492-.171.091.086.109-.27.114.085.092-.184.166.197.154-.025.063-.172.44-.002.121-.07.149.072.2-.086.24.073.103-.244.126.16.36-.16.104.087.131-.102.092.087.315-.171.314.099.069-.197.206.071h.097l.212-.158.057.256.08-.096.481-.074.109-.099.108.072.086-.143.16-.028.098.198.114-.185.32.086.178.013.195-.099.234.073.332-.185.12.112.229-.186.235.087.085-.184.166.184.206-.197h.24l.464-.256.115.182.194-.197.39-.072 1.47-.284.097.158.12-.17.109.098.092-.1.211.185.126-.186.252.074.114-.072.19.085.25-.098.155.184.098-.185.183.086.263-.085h.343l.143-.172.19.257.257-.171.189.17.137-.084.446.071.458.015.114-.2.132.185.212-.1.108.071.246-.07.338.072.446-.172.12-.013.2.1.064-.099.08.097.257-.184.08.171.458-.183.252.098.103-.171.137.071.12-.186.098.088.091-.073.727.5.2.27.23.258.217-.158.131-.086.097.086.613-.285h.309l.744.014.097-.1.212.159.892.013h.383l.08.158.224-.186.183.17.069-.17.223.086.566-.072.12-.114.258.185.109-.27.32.269.217-.184.452.085.378.513.103-.085.103.17.28-.083.092-.002.092.114.085-.114.166.171.086-.156.103.17.138-.255.143.07.085-.156.11.057.102-.142.383.241 1.23-.112.092.084.166-.086.097.086.11-.171.36.186.429-.028.343-.016"/></g><clipPath id="u"><path transform="matrix(1 0 0 -1 0 310.856)" d="M43.778 37.544H309.89v266.112H43.778z"/></clipPath><g clip-path="url(#u)"><path stroke-width="2.5" stroke-dasharray="9.25,4" stroke-linejoin="round" fill="none" stroke="red" d="M55.874 190.192H125.7l.114-113.93h22.321l.235-56.966h6.294l.132 28.483h18.837l.234 28.482h12.715l.097 28.483h.137l.097-28.483.206 28.483h8.475l.12 28.482h4.795l.246 28.483h1.734l.188 28.483.247-28.483h.148l.212 28.483h94.51"/></g><path stroke-width=".8" stroke-linecap="square" stroke-miterlimit="10" fill="none" stroke="#000" d="M43.778 273.312V7.2M309.89 273.312V7.2M43.778 273.312H309.89M43.778 7.2H309.89"/><path d="M174.046 268.312H302.89c1.333 0 2-.667 2-2v-28.344c0-1.333-.667-2-2-2H174.046c-1.333 0-2 .667-2 2v28.344c0 1.333.667 2 2 2z" fill="#fff" fill-opacity=".8"/><path stroke-miterlimit="10" fill="none" stroke="#d5d6d5" stroke-opacity=".8" d="M174.046 268.312H302.89c1.333 0 2-.667 2-2v-28.344c0-1.333-.667-2-2-2H174.046c-1.333 0-2 .667-2 2v28.344c0 1.333.667 2 2 2z"/><path stroke-width="2.5" stroke-linecap="square" stroke-linejoin="round" fill="none" stroke="teal" d="M176.046 244.062h20"/><symbol id="v"><path transform="matrix(.001 0 0 .001 -.056 .013)" d="M644 673V569c-34 30-69 53-107 69-38 15-77 23-119 23-84 0-148-26-192-77s-66-124-66-220 22-170 66-221 108-76 192-76c42 0 81 7 119 23 38 15 73 38 107 69V56c-35-24-72-41-110-52s-79-17-122-17C302-13 215 20 151 87S56 246 56 364c0 117 31 209 95 277 64 67 151 101 261 101 44 0 85-6 123-17 38-12 75-29 109-52z"/></symbol><symbol id="w"><path transform="matrix(.001 0 0 .001 -.085 .013)" d="M85 216v331h90V219c0-52 10-90 30-116s50-39 91-39c48 0 87 15 115 46s42 73 42 127v310h90V0h-90v84c-22-34-48-58-76-74-29-15-62-23-100-23-63 0-111 19-143 58-33 38-49 95-49 171zm226 344z"/></symbol><symbol id="x"><path transform="translate(-.091) scale(.001)" d="M411 463c-10 6-21 10-33 13-12 2-25 4-39 4-51 0-90-17-117-50-28-33-41-80-41-142V0H91v547h90v-85c18 33 43 58 73 74s67 24 111 24c6 0 13-1 21-1 7-1 15-2 25-4v-92z"/></symbol><symbol id="y"><path transform="translate(-.091) scale(.001)" d="M549 330V0h-90v327c0 52-11 90-31 116s-50 39-90 39c-49 0-87-16-115-47s-42-73-42-126V0H91v547h90v-85c21 32 46 57 76 73 29 16 63 25 101 25 62 0 110-20 142-59s49-96 49-171z"/></symbol><symbol id="z"><path transform="translate(-.027) scale(.001)" d="M183 702V547h185v-70H183V180c0-45 6-74 18-86 12-13 37-19 75-19h92V0h-92c-70 0-118 13-144 39s-39 73-39 141v297H27v70h66v155h90z"/></symbol><symbol id="A"><path transform="matrix(.001 0 0 .001 -.086 .131)" d="M310 759c-44-76-76-150-97-223-22-73-32-147-32-222 0-76 10-150 32-223 21-74 53-147 97-222h-78C183-54 146 20 122 94S86 241 86 314c0 72 12 145 36 219s60 149 110 226h78z"/></symbol><symbol id="B"><path transform="matrix(.001 0 0 .001 -.056 .013)" d="M394 662c-72 0-129-27-171-80-42-54-63-126-63-218s21-165 63-218c42-54 99-80 171-80 71 0 128 26 170 80 42 53 63 126 63 218s-21 164-63 218c-42 53-99 80-170 80zm0 80c102 0 183-35 245-103 61-68 92-160 92-275 0-116-31-207-92-275C577 21 496-13 394-13 291-13 209 21 148 89c-62 68-92 159-92 275 0 115 30 207 92 275 61 68 143 103 246 103z"/></symbol><symbol id="C"><path transform="matrix(.001 0 0 .001 -.08 .131)" d="M80 759h78c48-77 85-152 109-226s37-147 37-219c0-73-13-146-37-220S206-54 158-131H80c43 75 75 148 97 222 21 73 32 147 32 223 0 75-11 149-32 222-22 73-54 147-97 223z"/></symbol><use xlink:href="#v" transform="matrix(10 0 0 -10 204.606 247.692)"/><use xlink:href="#w" transform="matrix(10 0 0 -10 211.876 247.692)"/><use xlink:href="#x" transform="matrix(10 0 0 -10 218.276 247.562)"/><use xlink:href="#x" transform="matrix(10 0 0 -10 222.215 247.562)"/><use xlink:href="#i" transform="matrix(10 0 0 -10 225.746 247.692)"/><use xlink:href="#y" transform="matrix(10 0 0 -10 232.256 247.562)"/><use xlink:href="#z" transform="matrix(10 0 0 -10 237.956 247.562)"/><use xlink:href="#j" transform="matrix(10 0 0 -10 241.606 247.562)"/><use xlink:href="#l" transform="matrix(10 0 0 -10 245.326 247.692)"/><use xlink:href="#q" transform="matrix(10 0 0 -10 250.906 249.632)"/><use xlink:href="#i" transform="matrix(10 0 0 -10 256.896 247.692)"/><use xlink:href="#i" transform="matrix(10 0 0 -10 263.046 247.692)"/><use xlink:href="#r" transform="matrix(10 0 0 -10 269.196 247.692)"/><use xlink:href="#j" transform="matrix(10 0 0 -10 274.996 247.562)"/><use xlink:href="#A" transform="matrix(10 0 0 -10 279.036 248.872)"/><use xlink:href="#B" transform="matrix(10 0 0 -10 282.636 247.692)"/><use xlink:href="#p" transform="matrix(10 0 0 -10 290.606 247.692)"/><use xlink:href="#C" transform="matrix(10 0 0 -10 297.096 248.872)"/><path stroke-width="2.5" stroke-dasharray="9.25,4" stroke-linejoin="round" fill="none" stroke="red" d="M176.046 258.734h20"/><symbol id="D"><path transform="translate(-.098) scale(.001)" d="M197 648V81h119c100 0 174 22 221 68 46 46 70 118 70 216s-24 169-70 215c-47 45-121 68-221 68H197zm-99 81h203c141 0 245-30 311-88 66-59 99-151 99-276 0-126-34-218-100-277S441 0 301 0H98v729z"/></symbol><use xlink:href="#D" transform="matrix(10 0 0 -10 205.026 262.234)"/><use xlink:href="#i" transform="matrix(10 0 0 -10 212.296 262.364)"/><use xlink:href="#l" transform="matrix(10 0 0 -10 218.436 262.364)"/><use xlink:href="#g" transform="matrix(10 0 0 -10 224.046 262.234)"/><use xlink:href="#x" transform="matrix(10 0 0 -10 226.796 262.234)"/><use xlink:href="#i" transform="matrix(10 0 0 -10 230.328 262.364)"/><use xlink:href="#r" transform="matrix(10 0 0 -10 236.478 262.364)"/><use xlink:href="#j" transform="matrix(10 0 0 -10 242.278 262.234)"/><use xlink:href="#l" transform="matrix(10 0 0 -10 245.998 262.364)"/><use xlink:href="#q" transform="matrix(10 0 0 -10 251.578 264.304)"/><use xlink:href="#i" transform="matrix(10 0 0 -10 257.568 262.364)"/><use xlink:href="#i" transform="matrix(10 0 0 -10 263.718 262.364)"/><use xlink:href="#r" transform="matrix(10 0 0 -10 269.868 262.364)"/><use xlink:href="#j" transform="matrix(10 0 0 -10 275.668 262.234)"/><use xlink:href="#A" transform="matrix(10 0 0 -10 279.708 263.544)"/><use xlink:href="#B" transform="matrix(10 0 0 -10 283.308 262.364)"/><use xlink:href="#p" transform="matrix(10 0 0 -10 291.278 262.364)"/><use xlink:href="#C" transform="matrix(10 0 0 -10 297.768 263.544)"/></svg>