<?xml version="1.0" encoding="UTF-8"?>
<svg xmlns="http://www.w3.org/2000/svg" xmlns:xlink="http://www.w3.org/1999/xlink" width="500px" height="px" viewBox="0 0 499 375" version="1.1">
<g id="surface1">
<path style=" stroke:none;fill-rule:nonzero;fill:rgb(100%,100%,100%);fill-opacity:1;" d="M 0 374.835938 L 499.324219 374.835938 L 499.324219 0 L 0 0 Z M 0 374.835938 "/>
<path style=" stroke:none;fill-rule:nonzero;fill:rgb(100%,100%,100%);fill-opacity:1;" d="M 111.722656 333.605469 L 400.085938 333.605469 L 400.085938 44.980469 L 111.722656 44.980469 Z M 111.722656 333.605469 "/>
<path style="fill:none;stroke-width:0.8;stroke-linecap:butt;stroke-linejoin:round;stroke:rgb(0%,0%,0%);stroke-opacity:1;stroke-miterlimit:4;" d="M 113.286518 307.584242 L 113.286518 311.084961 " transform="matrix(1.083605,0,0,1.084599,0,0)"/>
<path style=" stroke:none;fill-rule:nonzero;fill:rgb(0%,0%,0%);fill-opacity:1;" d="M 122.757812 342.230469 C 122.203125 342.230469 121.792969 342.503906 121.511719 343.046875 C 121.230469 343.585938 121.097656 344.402344 121.097656 345.484375 C 121.097656 346.570312 121.230469 347.382812 121.511719 347.925781 C 121.792969 348.46875 122.203125 348.738281 122.757812 348.738281 C 123.308594 348.738281 123.722656 348.46875 124.003906 347.925781 C 124.273438 347.382812 124.414062 346.570312 124.414062 345.484375 C 124.414062 344.402344 124.273438 343.585938 124.003906 343.046875 C 123.722656 342.503906 123.308594 342.230469 122.757812 342.230469 Z M 122.757812 341.386719 C 123.636719 341.386719 124.308594 341.742188 124.785156 342.4375 C 125.25 343.144531 125.488281 344.164062 125.488281 345.484375 C 125.488281 346.820312 125.25 347.839844 124.785156 348.535156 C 124.308594 349.226562 123.636719 349.574219 122.746094 349.574219 C 121.859375 349.574219 121.1875 349.226562 120.71875 348.535156 C 120.253906 347.839844 120.027344 346.820312 120.027344 345.484375 C 120.027344 344.164062 120.253906 343.144531 120.71875 342.4375 C 121.1875 341.742188 121.867188 341.386719 122.757812 341.386719 Z M 122.757812 341.386719 "/>
<path style="fill:none;stroke-width:0.8;stroke-linecap:butt;stroke-linejoin:round;stroke:rgb(0%,0%,0%);stroke-opacity:1;stroke-miterlimit:4;" d="M 172.193633 307.584242 L 172.193633 311.084961 " transform="matrix(1.083605,0,0,1.084599,0,0)"/>
<path style=" stroke:none;fill-rule:nonzero;fill:rgb(0%,0%,0%);fill-opacity:1;" d="M 181.042969 348.535156 L 182.789062 348.535156 L 182.789062 342.503906 L 180.890625 342.882812 L 180.890625 341.90625 L 182.777344 341.527344 L 183.851562 341.527344 L 183.851562 348.535156 L 185.59375 348.535156 L 185.59375 349.433594 L 181.042969 349.433594 Z M 181.042969 348.535156 "/>
<path style=" stroke:none;fill-rule:nonzero;fill:rgb(0%,0%,0%);fill-opacity:1;" d="M 190.039062 342.230469 C 189.484375 342.230469 189.074219 342.503906 188.792969 343.046875 C 188.507812 343.585938 188.378906 344.402344 188.378906 345.484375 C 188.378906 346.570312 188.507812 347.382812 188.792969 347.925781 C 189.074219 348.46875 189.484375 348.738281 190.039062 348.738281 C 190.589844 348.738281 191 348.46875 191.285156 347.925781 C 191.554688 347.382812 191.695312 346.570312 191.695312 345.484375 C 191.695312 344.402344 191.554688 343.585938 191.285156 343.046875 C 191 342.503906 190.589844 342.230469 190.039062 342.230469 Z M 190.039062 341.386719 C 190.914062 341.386719 191.585938 341.742188 192.0625 342.4375 C 192.53125 343.144531 192.769531 344.164062 192.769531 345.484375 C 192.769531 346.820312 192.53125 347.839844 192.0625 348.535156 C 191.585938 349.226562 190.914062 349.574219 190.027344 349.574219 C 189.136719 349.574219 188.464844 349.226562 188 348.535156 C 187.535156 347.839844 187.304688 346.820312 187.304688 345.484375 C 187.304688 344.164062 187.535156 343.144531 188 342.4375 C 188.464844 341.742188 189.148438 341.386719 190.039062 341.386719 Z M 190.039062 341.386719 "/>
<path style="fill:none;stroke-width:0.8;stroke-linecap:butt;stroke-linejoin:round;stroke:rgb(0%,0%,0%);stroke-opacity:1;stroke-miterlimit:4;" d="M 231.104353 307.584242 L 231.104353 311.084961 " transform="matrix(1.083605,0,0,1.084599,0,0)"/>
<path style=" stroke:none;fill-rule:nonzero;fill:rgb(0%,0%,0%);fill-opacity:1;" d="M 245.613281 348.535156 L 249.339844 348.535156 L 249.339844 349.433594 L 244.324219 349.433594 L 244.324219 348.535156 C 244.722656 348.121094 245.277344 347.558594 245.980469 346.839844 C 246.675781 346.136719 247.121094 345.679688 247.304688 345.476562 C 247.648438 345.09375 247.890625 344.769531 248.019531 344.5 C 248.148438 344.238281 248.222656 343.96875 248.222656 343.707031 C 248.222656 343.296875 248.074219 342.949219 247.78125 342.6875 C 247.488281 342.425781 247.109375 342.285156 246.632812 342.285156 C 246.296875 342.285156 245.9375 342.351562 245.570312 342.460938 C 245.203125 342.578125 244.800781 342.753906 244.378906 342.992188 L 244.378906 341.90625 C 244.8125 341.734375 245.210938 341.601562 245.582031 341.515625 C 245.949219 341.429688 246.296875 341.386719 246.609375 341.386719 C 247.421875 341.386719 248.074219 341.59375 248.558594 342.003906 C 249.046875 342.417969 249.296875 342.957031 249.296875 343.640625 C 249.296875 343.96875 249.230469 344.28125 249.113281 344.5625 C 248.992188 344.855469 248.777344 345.203125 248.453125 345.59375 C 248.367188 345.703125 248.082031 345.996094 247.605469 346.484375 C 247.128906 346.972656 246.46875 347.65625 245.613281 348.535156 Z M 245.613281 348.535156 "/>
<path style=" stroke:none;fill-rule:nonzero;fill:rgb(0%,0%,0%);fill-opacity:1;" d="M 253.871094 342.230469 C 253.316406 342.230469 252.90625 342.503906 252.625 343.046875 C 252.34375 343.585938 252.210938 344.402344 252.210938 345.484375 C 252.210938 346.570312 252.34375 347.382812 252.625 347.925781 C 252.90625 348.46875 253.316406 348.738281 253.871094 348.738281 C 254.421875 348.738281 254.835938 348.46875 255.117188 347.925781 C 255.386719 347.382812 255.527344 346.570312 255.527344 345.484375 C 255.527344 344.402344 255.386719 343.585938 255.117188 343.046875 C 254.835938 342.503906 254.421875 342.230469 253.871094 342.230469 Z M 253.871094 341.386719 C 254.746094 341.386719 255.417969 341.742188 255.898438 342.4375 C 256.363281 343.144531 256.601562 344.164062 256.601562 345.484375 C 256.601562 346.820312 256.363281 347.839844 255.898438 348.535156 C 255.417969 349.226562 254.746094 349.574219 253.859375 349.574219 C 252.972656 349.574219 252.300781 349.226562 251.832031 348.535156 C 251.367188 347.839844 251.140625 346.820312 251.140625 345.484375 C 251.140625 344.164062 251.367188 343.144531 251.832031 342.4375 C 252.300781 341.742188 252.980469 341.386719 253.871094 341.386719 Z M 253.871094 341.386719 "/>
<path style="fill:none;stroke-width:0.8;stroke-linecap:butt;stroke-linejoin:round;stroke:rgb(0%,0%,0%);stroke-opacity:1;stroke-miterlimit:4;" d="M 290.011468 307.584242 L 290.011468 311.084961 " transform="matrix(1.083605,0,0,1.084599,0,0)"/>
<path style=" stroke:none;fill-rule:nonzero;fill:rgb(0%,0%,0%);fill-opacity:1;" d="M 311.765625 345.171875 C 312.277344 345.28125 312.675781 345.507812 312.957031 345.855469 C 313.238281 346.203125 313.390625 346.636719 313.390625 347.132812 C 313.390625 347.914062 313.121094 348.523438 312.589844 348.945312 C 312.046875 349.367188 311.289062 349.574219 310.304688 349.574219 C 309.96875 349.574219 309.621094 349.542969 309.273438 349.476562 C 308.925781 349.421875 308.558594 349.324219 308.191406 349.195312 L 308.191406 348.164062 C 308.484375 348.339844 308.808594 348.46875 309.164062 348.554688 C 309.511719 348.640625 309.878906 348.683594 310.269531 348.683594 C 310.941406 348.683594 311.453125 348.554688 311.796875 348.296875 C 312.144531 348.035156 312.328125 347.644531 312.328125 347.132812 C 312.328125 346.679688 312.167969 346.308594 311.84375 346.050781 C 311.515625 345.789062 311.0625 345.648438 310.476562 345.648438 L 309.554688 345.648438 L 309.554688 344.769531 L 310.519531 344.769531 C 311.039062 344.769531 311.441406 344.671875 311.722656 344.457031 C 312.003906 344.25 312.144531 343.945312 312.144531 343.542969 C 312.144531 343.144531 311.992188 342.828125 311.710938 342.613281 C 311.417969 342.394531 311.007812 342.285156 310.476562 342.285156 C 310.183594 342.285156 309.871094 342.320312 309.535156 342.382812 C 309.199219 342.449219 308.828125 342.546875 308.429688 342.675781 L 308.429688 341.722656 C 308.828125 341.613281 309.207031 341.527344 309.566406 341.472656 C 309.914062 341.417969 310.25 341.386719 310.574219 341.386719 C 311.375 341.386719 312.015625 341.570312 312.492188 341.9375 C 312.96875 342.308594 313.207031 342.808594 313.207031 343.4375 C 313.207031 343.871094 313.078125 344.238281 312.828125 344.542969 C 312.578125 344.847656 312.222656 345.0625 311.765625 345.171875 Z M 311.765625 345.171875 "/>
<path style=" stroke:none;fill-rule:nonzero;fill:rgb(0%,0%,0%);fill-opacity:1;" d="M 317.703125 342.230469 C 317.152344 342.230469 316.738281 342.503906 316.457031 343.046875 C 316.175781 343.585938 316.046875 344.402344 316.046875 345.484375 C 316.046875 346.570312 316.175781 347.382812 316.457031 347.925781 C 316.738281 348.46875 317.152344 348.738281 317.703125 348.738281 C 318.257812 348.738281 318.667969 348.46875 318.949219 347.925781 C 319.222656 347.382812 319.363281 346.570312 319.363281 345.484375 C 319.363281 344.402344 319.222656 343.585938 318.949219 343.046875 C 318.667969 342.503906 318.257812 342.230469 317.703125 342.230469 Z M 317.703125 341.386719 C 318.582031 341.386719 319.253906 341.742188 319.730469 342.4375 C 320.195312 343.144531 320.433594 344.164062 320.433594 345.484375 C 320.433594 346.820312 320.195312 347.839844 319.730469 348.535156 C 319.253906 349.226562 318.582031 349.574219 317.695312 349.574219 C 316.804688 349.574219 316.132812 349.226562 315.667969 348.535156 C 315.199219 347.839844 314.972656 346.820312 314.972656 345.484375 C 314.972656 344.164062 315.199219 343.144531 315.667969 342.4375 C 316.132812 341.742188 316.816406 341.386719 317.703125 341.386719 Z M 317.703125 341.386719 "/>
<path style="fill:none;stroke-width:0.8;stroke-linecap:butt;stroke-linejoin:round;stroke:rgb(0%,0%,0%);stroke-opacity:1;stroke-miterlimit:4;" d="M 348.918583 307.584242 L 348.918583 311.084961 " transform="matrix(1.083605,0,0,1.084599,0,0)"/>
<path style=" stroke:none;fill-rule:nonzero;fill:rgb(0%,0%,0%);fill-opacity:1;" d="M 375.296875 342.460938 L 372.597656 346.679688 L 375.296875 346.679688 Z M 375.015625 341.527344 L 376.359375 341.527344 L 376.359375 346.679688 L 377.484375 346.679688 L 377.484375 347.566406 L 376.359375 347.566406 L 376.359375 349.433594 L 375.296875 349.433594 L 375.296875 347.566406 L 371.730469 347.566406 L 371.730469 346.539062 Z M 375.015625 341.527344 "/>
<path style=" stroke:none;fill-rule:nonzero;fill:rgb(0%,0%,0%);fill-opacity:1;" d="M 381.539062 342.230469 C 380.984375 342.230469 380.574219 342.503906 380.292969 343.046875 C 380.007812 343.585938 379.878906 344.402344 379.878906 345.484375 C 379.878906 346.570312 380.007812 347.382812 380.292969 347.925781 C 380.574219 348.46875 380.984375 348.738281 381.539062 348.738281 C 382.089844 348.738281 382.5 348.46875 382.785156 347.925781 C 383.054688 347.382812 383.195312 346.570312 383.195312 345.484375 C 383.195312 344.402344 383.054688 343.585938 382.785156 343.046875 C 382.5 342.503906 382.089844 342.230469 381.539062 342.230469 Z M 381.539062 341.386719 C 382.414062 341.386719 383.085938 341.742188 383.5625 342.4375 C 384.03125 343.144531 384.269531 344.164062 384.269531 345.484375 C 384.269531 346.820312 384.03125 347.839844 383.5625 348.535156 C 383.085938 349.226562 382.414062 349.574219 381.527344 349.574219 C 380.636719 349.574219 379.964844 349.226562 379.5 348.535156 C 379.035156 347.839844 378.804688 346.820312 378.804688 345.484375 C 378.804688 344.164062 379.035156 343.144531 379.5 342.4375 C 379.964844 341.742188 380.648438 341.386719 381.539062 341.386719 Z M 381.539062 341.386719 "/>
<path style=" stroke:none;fill-rule:nonzero;fill:rgb(0%,0%,0%);fill-opacity:1;" d="M 233.796875 356.355469 L 240.46875 356.355469 L 240.46875 357.257812 L 237.664062 357.257812 L 237.664062 364.261719 L 236.589844 364.261719 L 236.589844 357.257812 L 233.796875 357.257812 Z M 233.796875 356.355469 "/>
<path style=" stroke:none;fill-rule:nonzero;fill:rgb(0%,0%,0%);fill-opacity:1;" d="M 241.132812 358.328125 L 242.109375 358.328125 L 242.109375 364.261719 L 241.132812 364.261719 Z M 241.132812 356.019531 L 242.109375 356.019531 L 242.109375 357.257812 L 241.132812 357.257812 Z M 241.132812 356.019531 "/>
<path style=" stroke:none;fill-rule:nonzero;fill:rgb(0%,0%,0%);fill-opacity:1;" d="M 248.761719 359.46875 C 249 359.035156 249.292969 358.71875 249.628906 358.503906 C 249.964844 358.296875 250.367188 358.1875 250.832031 358.1875 C 251.441406 358.1875 251.917969 358.40625 252.253906 358.839844 C 252.589844 359.273438 252.761719 359.890625 252.761719 360.683594 L 252.761719 364.261719 L 251.785156 364.261719 L 251.785156 360.714844 C 251.785156 360.152344 251.679688 359.730469 251.484375 359.445312 C 251.277344 359.175781 250.972656 359.035156 250.5625 359.035156 C 250.050781 359.035156 249.652344 359.207031 249.359375 359.542969 C 249.066406 359.878906 248.925781 360.335938 248.925781 360.910156 L 248.925781 364.261719 L 247.949219 364.261719 L 247.949219 360.714844 C 247.949219 360.152344 247.84375 359.730469 247.648438 359.445312 C 247.441406 359.175781 247.125 359.035156 246.714844 359.035156 C 246.214844 359.035156 245.816406 359.207031 245.523438 359.542969 C 245.230469 359.878906 245.089844 360.335938 245.089844 360.910156 L 245.089844 364.261719 L 244.113281 364.261719 L 244.113281 358.328125 L 245.089844 358.328125 L 245.089844 359.25 C 245.304688 358.894531 245.578125 358.621094 245.890625 358.449219 C 246.195312 358.277344 246.5625 358.1875 246.996094 358.1875 C 247.429688 358.1875 247.789062 358.296875 248.089844 358.515625 C 248.394531 358.730469 248.613281 359.054688 248.761719 359.46875 Z M 248.761719 359.46875 "/>
<path style=" stroke:none;fill-rule:nonzero;fill:rgb(0%,0%,0%);fill-opacity:1;" d="M 259.773438 361.050781 L 259.773438 361.527344 L 255.296875 361.527344 C 255.339844 362.203125 255.535156 362.722656 255.902344 363.070312 C 256.261719 363.417969 256.761719 363.589844 257.410156 363.589844 C 257.777344 363.589844 258.148438 363.546875 258.492188 363.460938 C 258.839844 363.375 259.199219 363.230469 259.546875 363.035156 L 259.546875 363.957031 C 259.199219 364.109375 258.839844 364.230469 258.472656 364.296875 C 258.105469 364.359375 257.722656 364.402344 257.355469 364.402344 C 256.402344 364.402344 255.65625 364.132812 255.101562 363.589844 C 254.550781 363.046875 254.277344 362.300781 254.277344 361.355469 C 254.277344 360.390625 254.539062 359.621094 255.058594 359.046875 C 255.578125 358.480469 256.292969 358.1875 257.183594 358.1875 C 257.984375 358.1875 258.613281 358.449219 259.078125 358.957031 C 259.535156 359.480469 259.773438 360.171875 259.773438 361.050781 Z M 258.796875 360.769531 C 258.785156 360.238281 258.636719 359.816406 258.351562 359.492188 C 258.058594 359.175781 257.671875 359.011719 257.195312 359.011719 C 256.652344 359.011719 256.21875 359.175781 255.894531 359.480469 C 255.566406 359.78125 255.375 360.21875 255.328125 360.769531 Z M 258.796875 360.769531 "/>
<path style=" stroke:none;fill-rule:nonzero;fill:rgb(0%,0%,0%);fill-opacity:1;" d="M 264.726562 356.019531 L 266.96875 356.019531 L 266.96875 356.777344 L 265.699219 356.777344 L 265.699219 364.925781 L 266.96875 364.925781 L 266.96875 365.683594 L 264.726562 365.683594 Z M 264.726562 356.019531 "/>
<path style=" stroke:none;fill-rule:nonzero;fill:rgb(0%,0%,0%);fill-opacity:1;" d="M 272.820312 358.503906 L 272.820312 359.425781 C 272.539062 359.296875 272.253906 359.1875 271.964844 359.109375 C 271.660156 359.046875 271.355469 359.003906 271.042969 359.003906 C 270.554688 359.003906 270.1875 359.078125 269.949219 359.230469 C 269.710938 359.382812 269.589844 359.597656 269.589844 359.890625 C 269.589844 360.121094 269.675781 360.292969 269.851562 360.421875 C 270.023438 360.554688 270.371094 360.683594 270.890625 360.792969 L 271.226562 360.867188 C 271.917969 361.019531 272.40625 361.238281 272.699219 361.496094 C 272.980469 361.769531 273.132812 362.148438 273.132812 362.625 C 273.132812 363.179688 272.917969 363.613281 272.484375 363.925781 C 272.050781 364.25 271.441406 364.402344 270.683594 364.402344 C 270.359375 364.402344 270.035156 364.371094 269.6875 364.316406 C 269.339844 364.261719 268.984375 364.175781 268.605469 364.046875 L 268.605469 363.035156 C 268.960938 363.230469 269.320312 363.375 269.664062 363.460938 C 270.011719 363.558594 270.359375 363.601562 270.707031 363.601562 C 271.160156 363.601562 271.519531 363.523438 271.769531 363.375 C 272.007812 363.222656 272.136719 362.992188 272.136719 362.699219 C 272.136719 362.441406 272.039062 362.234375 271.867188 362.09375 C 271.691406 361.953125 271.300781 361.8125 270.695312 361.679688 L 270.359375 361.605469 C 269.753906 361.476562 269.308594 361.28125 269.046875 361.019531 C 268.777344 360.757812 268.648438 360.402344 268.648438 359.933594 C 268.648438 359.382812 268.84375 358.949219 269.234375 358.644531 C 269.621094 358.339844 270.1875 358.1875 270.921875 358.1875 C 271.28125 358.1875 271.617188 358.222656 271.941406 358.277344 C 272.253906 358.328125 272.546875 358.40625 272.820312 358.503906 Z M 272.820312 358.503906 "/>
<path style=" stroke:none;fill-rule:nonzero;fill:rgb(0%,0%,0%);fill-opacity:1;" d="M 276.957031 356.019531 L 276.957031 365.683594 L 274.714844 365.683594 L 274.714844 364.925781 L 275.984375 364.925781 L 275.984375 356.777344 L 274.714844 356.777344 L 274.714844 356.019531 Z M 276.957031 356.019531 "/>
<path style="fill:none;stroke-width:0.8;stroke-linecap:butt;stroke-linejoin:round;stroke:rgb(0%,0%,0%);stroke-opacity:1;stroke-miterlimit:4;" d="M 103.102772 269.778641 L 99.602447 269.778641 " transform="matrix(1.083605,0,0,1.084599,0,0)"/>
<path style=" stroke:none;fill-rule:nonzero;fill:rgb(0%,0%,0%);fill-opacity:1;" d="M 88.246094 295.820312 L 89.992188 295.820312 L 89.992188 289.789062 L 88.09375 290.167969 L 88.09375 289.191406 L 89.980469 288.8125 L 91.054688 288.8125 L 91.054688 295.820312 L 92.796875 295.820312 L 92.796875 296.71875 L 88.246094 296.71875 Z M 88.246094 295.820312 "/>
<path style=" stroke:none;fill-rule:nonzero;fill:rgb(0%,0%,0%);fill-opacity:1;" d="M 94.953125 295.375 L 96.070312 295.375 L 96.070312 296.71875 L 94.953125 296.71875 Z M 94.953125 295.375 "/>
<path style=" stroke:none;fill-rule:nonzero;fill:rgb(0%,0%,0%);fill-opacity:1;" d="M 100.6875 289.519531 C 100.132812 289.519531 99.722656 289.789062 99.441406 290.332031 C 99.160156 290.875 99.027344 291.6875 99.027344 292.773438 C 99.027344 293.855469 99.160156 294.671875 99.441406 295.210938 C 99.722656 295.753906 100.132812 296.027344 100.6875 296.027344 C 101.238281 296.027344 101.652344 295.753906 101.933594 295.210938 C 102.203125 294.671875 102.34375 293.855469 102.34375 292.773438 C 102.34375 291.6875 102.203125 290.875 101.933594 290.332031 C 101.652344 289.789062 101.238281 289.519531 100.6875 289.519531 Z M 100.6875 288.671875 C 101.5625 288.671875 102.234375 289.03125 102.710938 289.722656 C 103.179688 290.429688 103.417969 291.449219 103.417969 292.773438 C 103.417969 294.105469 103.179688 295.125 102.710938 295.820312 C 102.234375 296.515625 101.5625 296.859375 100.675781 296.859375 C 99.785156 296.859375 99.113281 296.515625 98.648438 295.820312 C 98.183594 295.125 97.957031 294.105469 97.957031 292.773438 C 97.957031 291.449219 98.183594 290.429688 98.648438 289.722656 C 99.113281 289.03125 99.796875 288.671875 100.6875 288.671875 Z M 100.6875 288.671875 "/>
<path style="fill:none;stroke-width:0.8;stroke-linecap:butt;stroke-linejoin:round;stroke:rgb(0%,0%,0%);stroke-opacity:1;stroke-miterlimit:4;" d="M 103.102772 222.302844 L 99.602447 222.302844 " transform="matrix(1.083605,0,0,1.084599,0,0)"/>
<path style=" stroke:none;fill-rule:nonzero;fill:rgb(0%,0%,0%);fill-opacity:1;" d="M 88.246094 244.328125 L 89.992188 244.328125 L 89.992188 238.296875 L 88.09375 238.679688 L 88.09375 237.703125 L 89.980469 237.320312 L 91.054688 237.320312 L 91.054688 244.328125 L 92.796875 244.328125 L 92.796875 245.230469 L 88.246094 245.230469 Z M 88.246094 244.328125 "/>
<path style=" stroke:none;fill-rule:nonzero;fill:rgb(0%,0%,0%);fill-opacity:1;" d="M 94.953125 243.882812 L 96.070312 243.882812 L 96.070312 245.230469 L 94.953125 245.230469 Z M 94.953125 243.882812 "/>
<path style=" stroke:none;fill-rule:nonzero;fill:rgb(0%,0%,0%);fill-opacity:1;" d="M 98.410156 237.320312 L 102.605469 237.320312 L 102.605469 238.222656 L 99.386719 238.222656 L 99.386719 240.164062 C 99.539062 240.109375 99.699219 240.066406 99.851562 240.042969 C 100.003906 240.023438 100.167969 240 100.316406 240 C 101.195312 240 101.890625 240.25 102.410156 240.726562 C 102.929688 241.214844 103.191406 241.867188 103.191406 242.691406 C 103.191406 243.546875 102.917969 244.210938 102.386719 244.675781 C 101.855469 245.140625 101.109375 245.371094 100.15625 245.371094 C 99.820312 245.371094 99.484375 245.335938 99.136719 245.292969 C 98.789062 245.238281 98.441406 245.164062 98.074219 245.042969 L 98.074219 243.972656 C 98.390625 244.144531 98.714844 244.273438 99.0625 244.359375 C 99.398438 244.449219 99.753906 244.480469 100.132812 244.480469 C 100.742188 244.480469 101.226562 244.328125 101.585938 244.003906 C 101.933594 243.679688 102.117188 243.242188 102.117188 242.691406 C 102.117188 242.148438 101.933594 241.714844 101.585938 241.390625 C 101.226562 241.0625 100.742188 240.902344 100.132812 240.902344 C 99.851562 240.902344 99.558594 240.933594 99.277344 241 C 98.996094 241.0625 98.703125 241.160156 98.410156 241.292969 Z M 98.410156 237.320312 "/>
<path style="fill:none;stroke-width:0.8;stroke-linecap:butt;stroke-linejoin:round;stroke:rgb(0%,0%,0%);stroke-opacity:1;stroke-miterlimit:4;" d="M 103.102772 174.830648 L 99.602447 174.830648 " transform="matrix(1.083605,0,0,1.084599,0,0)"/>
<path style=" stroke:none;fill-rule:nonzero;fill:rgb(0%,0%,0%);fill-opacity:1;" d="M 88.984375 192.835938 L 92.710938 192.835938 L 92.710938 193.738281 L 87.695312 193.738281 L 87.695312 192.835938 C 88.09375 192.425781 88.648438 191.859375 89.351562 191.144531 C 90.046875 190.441406 90.488281 189.984375 90.675781 189.777344 C 91.019531 189.398438 91.257812 189.074219 91.390625 188.800781 C 91.519531 188.542969 91.59375 188.269531 91.59375 188.011719 C 91.59375 187.597656 91.441406 187.25 91.152344 186.992188 C 90.859375 186.730469 90.480469 186.589844 90.003906 186.589844 C 89.667969 186.589844 89.308594 186.65625 88.941406 186.761719 C 88.570312 186.882812 88.171875 187.054688 87.75 187.296875 L 87.75 186.210938 C 88.179688 186.035156 88.582031 185.90625 88.949219 185.820312 C 89.320312 185.734375 89.667969 185.691406 89.980469 185.691406 C 90.792969 185.691406 91.441406 185.894531 91.929688 186.308594 C 92.417969 186.71875 92.667969 187.261719 92.667969 187.945312 C 92.667969 188.269531 92.601562 188.585938 92.484375 188.867188 C 92.363281 189.160156 92.148438 189.507812 91.824219 189.898438 C 91.734375 190.007812 91.453125 190.300781 90.976562 190.789062 C 90.5 191.277344 89.839844 191.957031 88.984375 192.835938 Z M 88.984375 192.835938 "/>
<path style=" stroke:none;fill-rule:nonzero;fill:rgb(0%,0%,0%);fill-opacity:1;" d="M 94.953125 192.394531 L 96.070312 192.394531 L 96.070312 193.738281 L 94.953125 193.738281 Z M 94.953125 192.394531 "/>
<path style=" stroke:none;fill-rule:nonzero;fill:rgb(0%,0%,0%);fill-opacity:1;" d="M 100.6875 186.535156 C 100.132812 186.535156 99.722656 186.808594 99.441406 187.347656 C 99.160156 187.890625 99.027344 188.703125 99.027344 189.789062 C 99.027344 190.875 99.160156 191.6875 99.441406 192.230469 C 99.722656 192.773438 100.132812 193.042969 100.6875 193.042969 C 101.238281 193.042969 101.652344 192.773438 101.933594 192.230469 C 102.203125 191.6875 102.34375 190.875 102.34375 189.789062 C 102.34375 188.703125 102.203125 187.890625 101.933594 187.347656 C 101.652344 186.808594 101.238281 186.535156 100.6875 186.535156 Z M 100.6875 185.691406 C 101.5625 185.691406 102.234375 186.046875 102.710938 186.742188 C 103.179688 187.445312 103.417969 188.464844 103.417969 189.789062 C 103.417969 191.125 103.179688 192.144531 102.710938 192.835938 C 102.234375 193.53125 101.5625 193.878906 100.675781 193.878906 C 99.785156 193.878906 99.113281 193.53125 98.648438 192.835938 C 98.183594 192.144531 97.957031 191.125 97.957031 189.789062 C 97.957031 188.464844 98.183594 187.445312 98.648438 186.742188 C 99.113281 186.046875 99.796875 185.691406 100.6875 185.691406 Z M 100.6875 185.691406 "/>
<path style="fill:none;stroke-width:0.8;stroke-linecap:butt;stroke-linejoin:round;stroke:rgb(0%,0%,0%);stroke-opacity:1;stroke-miterlimit:4;" d="M 103.102772 127.354852 L 99.602447 127.354852 " transform="matrix(1.083605,0,0,1.084599,0,0)"/>
<path style=" stroke:none;fill-rule:nonzero;fill:rgb(0%,0%,0%);fill-opacity:1;" d="M 88.984375 141.347656 L 92.710938 141.347656 L 92.710938 142.246094 L 87.695312 142.246094 L 87.695312 141.347656 C 88.09375 140.933594 88.648438 140.371094 89.351562 139.652344 C 90.046875 138.949219 90.488281 138.492188 90.675781 138.289062 C 91.019531 137.90625 91.257812 137.582031 91.390625 137.3125 C 91.519531 137.050781 91.59375 136.78125 91.59375 136.519531 C 91.59375 136.105469 91.441406 135.761719 91.152344 135.5 C 90.859375 135.238281 90.480469 135.097656 90.003906 135.097656 C 89.667969 135.097656 89.308594 135.164062 88.941406 135.273438 C 88.570312 135.390625 88.171875 135.566406 87.75 135.804688 L 87.75 134.71875 C 88.179688 134.546875 88.582031 134.414062 88.949219 134.328125 C 89.320312 134.242188 89.667969 134.199219 89.980469 134.199219 C 90.792969 134.199219 91.441406 134.40625 91.929688 134.816406 C 92.417969 135.230469 92.667969 135.769531 92.667969 136.453125 C 92.667969 136.78125 92.601562 137.09375 92.484375 137.375 C 92.363281 137.667969 92.148438 138.015625 91.824219 138.40625 C 91.734375 138.515625 91.453125 138.808594 90.976562 139.296875 C 90.5 139.785156 89.839844 140.46875 88.984375 141.347656 Z M 88.984375 141.347656 "/>
<path style=" stroke:none;fill-rule:nonzero;fill:rgb(0%,0%,0%);fill-opacity:1;" d="M 94.953125 140.902344 L 96.070312 140.902344 L 96.070312 142.246094 L 94.953125 142.246094 Z M 94.953125 140.902344 "/>
<path style=" stroke:none;fill-rule:nonzero;fill:rgb(0%,0%,0%);fill-opacity:1;" d="M 98.410156 134.339844 L 102.605469 134.339844 L 102.605469 135.238281 L 99.386719 135.238281 L 99.386719 137.179688 C 99.539062 137.125 99.699219 137.082031 99.851562 137.0625 C 100.003906 137.039062 100.167969 137.019531 100.316406 137.019531 C 101.195312 137.019531 101.890625 137.269531 102.410156 137.746094 C 102.929688 138.234375 103.191406 138.882812 103.191406 139.707031 C 103.191406 140.566406 102.917969 141.226562 102.386719 141.691406 C 101.855469 142.160156 101.109375 142.386719 100.15625 142.386719 C 99.820312 142.386719 99.484375 142.355469 99.136719 142.3125 C 98.789062 142.257812 98.441406 142.179688 98.074219 142.0625 L 98.074219 140.988281 C 98.390625 141.160156 98.714844 141.292969 99.0625 141.378906 C 99.398438 141.464844 99.753906 141.496094 100.132812 141.496094 C 100.742188 141.496094 101.226562 141.347656 101.585938 141.019531 C 101.933594 140.695312 102.117188 140.261719 102.117188 139.707031 C 102.117188 139.164062 101.933594 138.730469 101.585938 138.40625 C 101.226562 138.082031 100.742188 137.917969 100.132812 137.917969 C 99.851562 137.917969 99.558594 137.953125 99.277344 138.015625 C 98.996094 138.082031 98.703125 138.179688 98.410156 138.308594 Z M 98.410156 134.339844 "/>
<path style="fill:none;stroke-width:0.8;stroke-linecap:butt;stroke-linejoin:round;stroke:rgb(0%,0%,0%);stroke-opacity:1;stroke-miterlimit:4;" d="M 103.102772 79.879055 L 99.602447 79.879055 " transform="matrix(1.083605,0,0,1.084599,0,0)"/>
<path style=" stroke:none;fill-rule:nonzero;fill:rgb(0%,0%,0%);fill-opacity:1;" d="M 91.300781 86.492188 C 91.8125 86.601562 92.210938 86.828125 92.496094 87.175781 C 92.777344 87.523438 92.929688 87.957031 92.929688 88.457031 C 92.929688 89.238281 92.65625 89.84375 92.125 90.269531 C 91.585938 90.691406 90.824219 90.898438 89.839844 90.898438 C 89.503906 90.898438 89.15625 90.863281 88.808594 90.800781 C 88.464844 90.746094 88.09375 90.648438 87.726562 90.515625 L 87.726562 89.488281 C 88.019531 89.660156 88.34375 89.789062 88.703125 89.878906 C 89.046875 89.964844 89.417969 90.007812 89.808594 90.007812 C 90.480469 90.007812 90.988281 89.878906 91.335938 89.617188 C 91.679688 89.355469 91.867188 88.964844 91.867188 88.457031 C 91.867188 88 91.703125 87.632812 91.378906 87.371094 C 91.054688 87.113281 90.597656 86.972656 90.011719 86.972656 L 89.09375 86.972656 L 89.09375 86.09375 L 90.054688 86.09375 C 90.578125 86.09375 90.976562 85.996094 91.257812 85.777344 C 91.539062 85.570312 91.679688 85.269531 91.679688 84.867188 C 91.679688 84.464844 91.53125 84.152344 91.25 83.933594 C 90.957031 83.71875 90.542969 83.609375 90.011719 83.609375 C 89.71875 83.609375 89.40625 83.640625 89.070312 83.707031 C 88.734375 83.769531 88.367188 83.867188 87.964844 84 L 87.964844 83.042969 C 88.367188 82.9375 88.746094 82.847656 89.101562 82.796875 C 89.449219 82.742188 89.785156 82.707031 90.109375 82.707031 C 90.914062 82.707031 91.550781 82.894531 92.027344 83.261719 C 92.503906 83.628906 92.742188 84.128906 92.742188 84.757812 C 92.742188 85.191406 92.613281 85.5625 92.363281 85.863281 C 92.113281 86.167969 91.757812 86.386719 91.300781 86.492188 Z M 91.300781 86.492188 "/>
<path style=" stroke:none;fill-rule:nonzero;fill:rgb(0%,0%,0%);fill-opacity:1;" d="M 94.953125 89.410156 L 96.070312 89.410156 L 96.070312 90.757812 L 94.953125 90.757812 Z M 94.953125 89.410156 "/>
<path style=" stroke:none;fill-rule:nonzero;fill:rgb(0%,0%,0%);fill-opacity:1;" d="M 100.6875 83.554688 C 100.132812 83.554688 99.722656 83.824219 99.441406 84.367188 C 99.160156 84.910156 99.027344 85.722656 99.027344 86.808594 C 99.027344 87.894531 99.160156 88.707031 99.441406 89.25 C 99.722656 89.789062 100.132812 90.0625 100.6875 90.0625 C 101.238281 90.0625 101.652344 89.789062 101.933594 89.25 C 102.203125 88.707031 102.34375 87.894531 102.34375 86.808594 C 102.34375 85.722656 102.203125 84.910156 101.933594 84.367188 C 101.652344 83.824219 101.238281 83.554688 100.6875 83.554688 Z M 100.6875 82.707031 C 101.5625 82.707031 102.234375 83.066406 102.710938 83.761719 C 103.179688 84.464844 103.417969 85.484375 103.417969 86.808594 C 103.417969 88.140625 103.179688 89.160156 102.710938 89.855469 C 102.234375 90.550781 101.5625 90.898438 100.675781 90.898438 C 99.785156 90.898438 99.113281 90.550781 98.648438 89.855469 C 98.183594 89.160156 97.957031 88.140625 97.957031 86.808594 C 97.957031 85.484375 98.183594 84.464844 98.648438 83.761719 C 99.113281 83.066406 99.796875 82.707031 100.6875 82.707031 Z M 100.6875 82.707031 "/>
<path style=" stroke:none;fill-rule:nonzero;fill:rgb(0%,0%,0%);fill-opacity:1;" d="M 72.675781 216.402344 L 73.71875 216.402344 C 73.523438 216.8125 73.382812 217.191406 73.285156 217.550781 C 73.199219 217.917969 73.144531 218.265625 73.144531 218.59375 C 73.144531 219.179688 73.261719 219.632812 73.480469 219.949219 C 73.707031 220.261719 74.03125 220.414062 74.445312 220.414062 C 74.789062 220.414062 75.0625 220.316406 75.234375 220.101562 C 75.417969 219.894531 75.558594 219.492188 75.667969 218.90625 L 75.796875 218.257812 C 75.949219 217.464844 76.222656 216.878906 76.601562 216.5 C 76.988281 216.121094 77.5 215.925781 78.140625 215.925781 C 78.90625 215.925781 79.480469 216.183594 79.871094 216.695312 C 80.261719 217.214844 80.457031 217.964844 80.457031 218.949219 C 80.457031 219.328125 80.414062 219.730469 80.339844 220.152344 C 80.261719 220.578125 80.144531 221.011719 79.96875 221.457031 L 78.863281 221.457031 C 79.113281 221.023438 79.296875 220.597656 79.417969 220.1875 C 79.546875 219.773438 79.601562 219.363281 79.601562 218.949219 C 79.601562 218.34375 79.480469 217.875 79.242188 217.539062 C 79.003906 217.214844 78.667969 217.042969 78.214844 217.042969 C 77.824219 217.042969 77.519531 217.160156 77.304688 217.398438 C 77.085938 217.636719 76.925781 218.027344 76.816406 218.570312 L 76.6875 219.222656 C 76.535156 220.023438 76.285156 220.597656 75.9375 220.957031 C 75.601562 221.316406 75.136719 221.488281 74.53125 221.488281 C 73.835938 221.488281 73.285156 221.25 72.882812 220.75 C 72.480469 220.261719 72.277344 219.578125 72.277344 218.710938 C 72.277344 218.34375 72.308594 217.972656 72.375 217.582031 C 72.4375 217.203125 72.546875 216.8125 72.675781 216.402344 Z M 72.675781 216.402344 "/>
<path style=" stroke:none;fill-rule:nonzero;fill:rgb(0%,0%,0%);fill-opacity:1;" d="M 79.429688 213.355469 L 82.558594 213.355469 L 82.558594 214.328125 L 74.390625 214.328125 L 74.390625 213.355469 L 75.289062 213.355469 C 74.941406 213.160156 74.683594 212.898438 74.507812 212.582031 C 74.335938 212.269531 74.25 211.890625 74.25 211.457031 C 74.25 210.738281 74.542969 210.152344 75.105469 209.699219 C 75.679688 209.253906 76.425781 209.027344 77.359375 209.027344 C 78.289062 209.027344 79.050781 209.253906 79.613281 209.699219 C 80.175781 210.152344 80.457031 210.738281 80.457031 211.457031 C 80.457031 211.890625 80.371094 212.269531 80.207031 212.582031 C 80.046875 212.898438 79.785156 213.160156 79.429688 213.355469 Z M 77.359375 210.035156 C 76.644531 210.035156 76.089844 210.1875 75.679688 210.480469 C 75.265625 210.78125 75.0625 211.183594 75.0625 211.695312 C 75.0625 212.214844 75.265625 212.617188 75.679688 212.910156 C 76.089844 213.210938 76.644531 213.355469 77.359375 213.355469 C 78.074219 213.355469 78.636719 213.210938 79.050781 212.910156 C 79.460938 212.617188 79.65625 212.214844 79.65625 211.695312 C 79.65625 211.183594 79.460938 210.78125 79.050781 210.480469 C 78.636719 210.1875 78.074219 210.035156 77.359375 210.035156 Z M 77.359375 210.035156 "/>
<path style=" stroke:none;fill-rule:nonzero;fill:rgb(0%,0%,0%);fill-opacity:1;" d="M 77.109375 202.335938 L 77.585938 202.335938 L 77.585938 206.8125 C 78.257812 206.769531 78.777344 206.574219 79.125 206.207031 C 79.472656 205.847656 79.644531 205.347656 79.644531 204.699219 C 79.644531 204.328125 79.601562 203.960938 79.515625 203.613281 C 79.429688 203.265625 79.289062 202.910156 79.09375 202.5625 L 80.011719 202.5625 C 80.164062 202.910156 80.285156 203.265625 80.347656 203.636719 C 80.414062 204.003906 80.457031 204.382812 80.457031 204.753906 C 80.457031 205.707031 80.1875 206.457031 79.644531 207.007812 C 79.101562 207.5625 78.355469 207.832031 77.414062 207.832031 C 76.449219 207.832031 75.679688 207.574219 75.105469 207.050781 C 74.542969 206.53125 74.25 205.816406 74.25 204.925781 C 74.25 204.125 74.507812 203.496094 75.019531 203.027344 C 75.539062 202.574219 76.230469 202.335938 77.109375 202.335938 Z M 76.828125 203.308594 C 76.296875 203.320312 75.875 203.472656 75.550781 203.753906 C 75.234375 204.046875 75.070312 204.4375 75.070312 204.914062 C 75.070312 205.457031 75.234375 205.890625 75.539062 206.21875 C 75.839844 206.542969 76.273438 206.738281 76.828125 206.78125 Z M 76.828125 203.308594 "/>
<path style=" stroke:none;fill-rule:nonzero;fill:rgb(0%,0%,0%);fill-opacity:1;" d="M 77.109375 195.664062 L 77.585938 195.664062 L 77.585938 200.144531 C 78.257812 200.101562 78.777344 199.90625 79.125 199.535156 C 79.472656 199.179688 79.644531 198.679688 79.644531 198.027344 C 79.644531 197.660156 79.601562 197.289062 79.515625 196.945312 C 79.429688 196.597656 79.289062 196.238281 79.09375 195.890625 L 80.011719 195.890625 C 80.164062 196.238281 80.285156 196.597656 80.347656 196.964844 C 80.414062 197.335938 80.457031 197.714844 80.457031 198.082031 C 80.457031 199.035156 80.1875 199.785156 79.644531 200.339844 C 79.101562 200.890625 78.355469 201.164062 77.414062 201.164062 C 76.449219 201.164062 75.679688 200.902344 75.105469 200.382812 C 74.542969 199.859375 74.25 199.144531 74.25 198.257812 C 74.25 197.453125 74.507812 196.824219 75.019531 196.359375 C 75.539062 195.902344 76.230469 195.664062 77.109375 195.664062 Z M 76.828125 196.640625 C 76.296875 196.652344 75.875 196.800781 75.550781 197.085938 C 75.234375 197.378906 75.070312 197.769531 75.070312 198.246094 C 75.070312 198.789062 75.234375 199.222656 75.539062 199.546875 C 75.839844 199.871094 76.273438 200.066406 76.828125 200.109375 Z M 76.828125 196.640625 "/>
<path style=" stroke:none;fill-rule:nonzero;fill:rgb(0%,0%,0%);fill-opacity:1;" d="M 75.289062 190.164062 L 72.082031 190.164062 L 72.082031 189.1875 L 80.316406 189.1875 L 80.316406 190.164062 L 79.429688 190.164062 C 79.785156 190.371094 80.046875 190.632812 80.207031 190.945312 C 80.371094 191.261719 80.457031 191.628906 80.457031 192.0625 C 80.457031 192.777344 80.175781 193.363281 79.613281 193.820312 C 79.050781 194.277344 78.289062 194.492188 77.359375 194.492188 C 76.425781 194.492188 75.679688 194.277344 75.105469 193.820312 C 74.542969 193.363281 74.25 192.777344 74.25 192.0625 C 74.25 191.628906 74.335938 191.261719 74.507812 190.945312 C 74.683594 190.632812 74.941406 190.371094 75.289062 190.164062 Z M 77.359375 193.484375 C 78.074219 193.484375 78.636719 193.34375 79.050781 193.050781 C 79.460938 192.757812 79.65625 192.355469 79.65625 191.835938 C 79.65625 191.316406 79.460938 190.914062 79.050781 190.609375 C 78.636719 190.316406 78.074219 190.164062 77.359375 190.164062 C 76.644531 190.164062 76.089844 190.316406 75.679688 190.609375 C 75.265625 190.914062 75.0625 191.316406 75.0625 191.835938 C 75.0625 192.355469 75.265625 192.757812 75.679688 193.050781 C 76.089844 193.34375 76.644531 193.484375 77.359375 193.484375 Z M 77.359375 193.484375 "/>
<path style=" stroke:none;fill-rule:nonzero;fill:rgb(0%,0%,0%);fill-opacity:1;" d="M 72.082031 183.820312 L 72.082031 181.574219 L 72.839844 181.574219 L 72.839844 182.84375 L 80.976562 182.84375 L 80.976562 181.574219 L 81.734375 181.574219 L 81.734375 183.820312 Z M 72.082031 183.820312 "/>
<path style=" stroke:none;fill-rule:nonzero;fill:rgb(0%,0%,0%);fill-opacity:1;" d="M 75.527344 174.882812 C 75.09375 174.644531 74.78125 174.351562 74.5625 174.015625 C 74.355469 173.679688 74.25 173.277344 74.25 172.8125 C 74.25 172.203125 74.464844 171.726562 74.898438 171.390625 C 75.332031 171.054688 75.949219 170.878906 76.742188 170.878906 L 80.316406 170.878906 L 80.316406 171.855469 L 76.773438 171.855469 C 76.210938 171.855469 75.789062 171.964844 75.503906 172.160156 C 75.234375 172.367188 75.09375 172.671875 75.09375 173.082031 C 75.09375 173.59375 75.265625 173.992188 75.601562 174.285156 C 75.9375 174.578125 76.394531 174.71875 76.96875 174.71875 L 80.316406 174.71875 L 80.316406 175.695312 L 76.773438 175.695312 C 76.210938 175.695312 75.789062 175.804688 75.503906 176 C 75.234375 176.207031 75.09375 176.519531 75.09375 176.933594 C 75.09375 177.433594 75.265625 177.832031 75.601562 178.125 C 75.9375 178.417969 76.394531 178.558594 76.96875 178.558594 L 80.316406 178.558594 L 80.316406 179.535156 L 74.390625 179.535156 L 74.390625 178.558594 L 75.308594 178.558594 C 74.953125 178.34375 74.683594 178.070312 74.507812 177.757812 C 74.335938 177.453125 74.25 177.085938 74.25 176.652344 C 74.25 176.21875 74.355469 175.859375 74.574219 175.554688 C 74.789062 175.25 75.117188 175.035156 75.527344 174.882812 Z M 75.527344 174.882812 "/>
<path style=" stroke:none;fill-rule:nonzero;fill:rgb(0%,0%,0%);fill-opacity:1;" d="M 72.417969 167.203125 L 72.417969 166.304688 L 81.3125 169.058594 L 81.3125 169.957031 Z M 72.417969 167.203125 "/>
<path style=" stroke:none;fill-rule:nonzero;fill:rgb(0%,0%,0%);fill-opacity:1;" d="M 74.5625 161.5 L 75.484375 161.5 C 75.355469 161.78125 75.246094 162.0625 75.167969 162.355469 C 75.105469 162.660156 75.0625 162.964844 75.0625 163.277344 C 75.0625 163.765625 75.136719 164.132812 75.289062 164.375 C 75.441406 164.613281 75.65625 164.730469 75.949219 164.730469 C 76.175781 164.730469 76.351562 164.644531 76.480469 164.472656 C 76.609375 164.296875 76.742188 163.949219 76.847656 163.429688 L 76.925781 163.09375 C 77.078125 162.398438 77.292969 161.910156 77.554688 161.617188 C 77.824219 161.335938 78.203125 161.183594 78.679688 161.183594 C 79.234375 161.183594 79.667969 161.402344 79.980469 161.835938 C 80.304688 162.269531 80.457031 162.875 80.457031 163.636719 C 80.457031 163.960938 80.425781 164.285156 80.371094 164.632812 C 80.316406 164.980469 80.230469 165.339844 80.101562 165.71875 L 79.09375 165.71875 C 79.289062 165.359375 79.429688 165.003906 79.515625 164.65625 C 79.613281 164.308594 79.65625 163.960938 79.65625 163.613281 C 79.65625 163.160156 79.578125 162.800781 79.429688 162.550781 C 79.277344 162.3125 79.050781 162.183594 78.757812 162.183594 C 78.496094 162.183594 78.289062 162.28125 78.148438 162.453125 C 78.007812 162.625 77.867188 163.015625 77.738281 163.625 L 77.660156 163.960938 C 77.53125 164.566406 77.335938 165.011719 77.078125 165.273438 C 76.816406 165.542969 76.460938 165.675781 75.992188 165.675781 C 75.441406 165.675781 75.007812 165.480469 74.703125 165.089844 C 74.398438 164.699219 74.25 164.132812 74.25 163.398438 C 74.25 163.039062 74.28125 162.703125 74.335938 162.378906 C 74.390625 162.0625 74.464844 161.769531 74.5625 161.5 Z M 74.5625 161.5 "/>
<path style=" stroke:none;fill-rule:nonzero;fill:rgb(0%,0%,0%);fill-opacity:1;" d="M 72.082031 157.355469 L 81.734375 157.355469 L 81.734375 159.601562 L 80.976562 159.601562 L 80.976562 158.332031 L 72.839844 158.332031 L 72.839844 159.601562 L 72.082031 159.601562 Z M 72.082031 157.355469 "/>
<path style="fill:none;stroke-width:2.5;stroke-linecap:square;stroke-linejoin:round;stroke:rgb(0%,50.196078%,50.196078%);stroke-opacity:1;stroke-miterlimit:4;" d="M 115.200702 295.486594 L 116.974296 219.2055 L 118.167507 183.877773 L 119.818536 151.949922 L 121.675041 130.711508 L 122.190537 126.087102 L 122.514975 122.795273 L 124.883372 104.690219 L 126.310899 97.973305 L 127.36352 94.764313 L 127.62307 94.152047 L 127.828548 93.572195 L 130.770118 87.435133 L 131.39376 86.498727 L 131.9417 85.670367 L 133.603543 83.97043 L 133.726108 83.97043 L 135.250967 83.037625 L 135.369927 82.850344 L 135.506912 82.889961 L 135.777277 82.670266 L 135.953916 82.526203 L 136.202651 82.349727 L 136.346846 82.346125 L 136.530694 82.166047 L 136.901995 81.917539 L 137.478774 81.802289 L 137.532847 76.169445 L 138.066367 82.882758 L 138.185328 82.850344 L 138.322313 82.954789 L 138.664775 84.074875 L 138.881067 84.254953 L 139.447031 84.438633 L 139.623669 84.471047 L 139.73542 84.503461 L 140.54291 83.462609 L 140.989913 82.45057 L 141.963227 80.970328 L 142.204753 80.79025 L 142.323714 80.433695 L 142.770717 79.817828 L 142.918517 79.70618 L 143.978347 79.778211 L 144.3136 79.958289 L 144.670482 80.066336 L 144.962476 80.138367 L 145.002129 80.28243 L 145.272494 80.361664 L 146.739675 80.289633 L 146.894684 80.210398 L 147.175863 80.210398 L 147.493092 79.850242 L 148.188831 79.925875 L 148.430357 79.742195 L 149.15854 79.382039 L 149.396461 79.273992 L 149.695665 79.241578 L 149.742528 79.273992 L 149.973239 79.133531 L 150.214765 79.201961 L 150.521179 79.093914 L 150.679793 79.237977 L 150.802359 79.12993 L 151.04749 79.12993 L 151.339484 79.021883 L 151.764858 79.237977 L 151.887423 79.093914 L 151.959521 79.165945 L 153.095053 79.090313 L 153.264482 79.090313 L 153.877309 79.018281 L 154.468507 79.230773 L 154.879462 78.982266 L 155.380538 79.306406 L 156.119536 79.126328 L 157.420893 79.086711 L 157.514619 78.949852 L 157.795799 79.234375 L 157.979647 79.450469 L 158.834 79.342422 L 160.236293 79.302805 L 160.402117 78.794984 L 160.84912 79.194758 L 161.054597 79.086711 L 161.490786 79.126328 L 162.363164 79.086711 L 162.47852 78.240344 L 162.727255 78.809391 L 162.986806 78.740961 L 164.183621 74.559547 L 164.778424 72.081672 L 165.838255 68.152367 L 165.931981 68.271219 L 166.415033 68.725016 L 166.840407 69.441727 L 167.298225 68.645781 L 167.482074 69.250844 L 167.875004 71.750328 L 168.141764 73.11532 L 168.588767 75.571586 L 168.985303 77.354359 L 169.554871 80.448102 L 170.870648 86.289836 L 171.551967 89.066641 L 171.775469 89.27193 L 172.352247 90.662133 L 173.188576 92.639391 L 173.696862 93.615414 L 174.0213 94.396953 L 174.313295 94.677875 L 174.525982 94.544617 L 175.257769 94.004383 L 175.564183 94.105227 L 175.809314 94.094422 L 176.022001 93.658633 L 176.605989 93.154414 L 177.748732 90.543281 L 177.896531 90.489258 L 179.2808 87.878125 L 179.598028 87.161414 L 179.709779 87.031758 L 180.282953 85.836039 L 181.000321 84.726758 L 181.277896 83.689508 L 182.244 80.033922 L 183.887819 73.727586 L 184.122135 73.154938 L 184.936835 72.477844 L 185.261273 72.751563 L 186.115626 74.084141 L 187.391748 77.271523 L 189.107665 83.570656 L 189.396054 84.208133 L 189.832243 85.306609 L 190.596474 86.927313 L 190.993009 87.968164 L 192.896379 91.548117 L 193.483972 91.998313 L 195.380131 89.678906 L 196.317397 87.442336 L 197.907142 83.012414 L 198.267629 82.003977 L 199.450025 78.852609 L 199.904238 78.218734 L 200.545904 77.354359 L 200.639631 77.390375 L 200.740567 77.271523 L 201.046981 77.2175 L 201.59492 76.936578 L 202.532185 76.94018 L 202.643936 77.109453 L 202.730453 76.987 L 203.101754 77.012211 L 203.314441 76.821328 L 203.703767 76.277492 L 203.880405 76.338719 L 204.118326 75.971359 L 204.370667 76.482781 L 204.810461 76.34232 L 204.976285 76.536805 L 205.3584 76.36393 L 205.495385 75.146602 L 205.812614 75.161008 L 205.931574 75.114188 L 206.018091 74.930508 L 206.119027 75.038555 L 206.237988 74.851273 L 206.612894 73.439461 L 207.892621 69.15 L 208.559521 67.590523 L 208.707321 64.95418 L 208.898379 65.011805 L 209.071412 64.7705 L 209.248051 64.849734 L 209.424689 64.799313 L 209.777966 65.516023 L 210.170896 67.302398 L 211.331663 76.24868 L 212.939434 95.419797 L 213.390042 99.698453 L 213.837045 103.584539 L 214.850013 113.939031 L 215.102353 115.311227 L 215.275387 114.724172 L 215.614244 117.464961 L 216.854318 125.89982 L 217.294112 127.884281 L 218.429644 130.023609 L 218.660356 131.143695 L 219.060496 137.831797 L 219.428192 140.659023 L 219.662509 140.846305 L 219.911244 139.812656 L 220.145561 137.597695 L 220.423135 133.913297 L 221.78217 96.489461 L 222.218359 86.657195 L 223.361101 68.530531 L 223.822524 63.938539 L 224.150567 60.639508 L 224.586756 59.029609 L 225.098647 58.410141 L 226.118824 62.274617 L 226.738861 66.769367 L 227.531931 72.546273 L 228.004168 74.397477 L 228.721537 75.665227 L 228.858522 75.841703 L 229.045975 75.809289 L 229.323549 76.151438 L 229.71648 76.565617 L 230.012079 77.642484 L 230.188717 78.002641 L 230.671769 80.469711 L 231.309831 84.276563 L 232.110111 91.897469 L 232.575139 97.80043 L 232.957254 102.925453 L 233.440306 107.031234 L 233.634969 108.810406 L 233.941383 109.307422 L 234.081973 108.886039 L 234.312684 108.922055 L 234.467693 108.360211 L 234.867833 108.010859 L 235.610436 106.2605 L 236.16919 107.913617 L 236.522467 109.696391 L 236.670266 109.941297 L 237.560668 113.135883 L 238.011276 113.301555 L 238.220359 112.977414 L 238.479909 112.941398 L 238.735855 112.375953 L 239.128785 110.762453 L 239.377521 110.189805 L 239.828129 107.391391 L 240.350834 102.875031 L 240.916798 98.834078 L 241.40706 94.645461 L 241.619747 92.898703 L 241.864878 90.035461 L 242.441657 86.286234 L 243.29601 79.698977 L 244.36305 73.407047 L 244.680279 72.546273 L 245.163331 71.897992 L 245.682431 70.158438 L 246.435848 69.355289 L 246.724238 68.440492 L 246.861222 68.447695 L 247.337065 67.795813 L 247.672317 67.097109 L 248.050828 66.056258 L 248.310379 65.850969 L 248.897972 65.098242 L 249.370209 65.109047 L 249.546848 65.199086 L 249.680228 65.101844 L 250.700405 65.361156 L 250.819365 65.534031 L 250.923906 65.429586 L 252.099093 66.902625 L 252.221658 67.082703 L 252.715525 68.375664 L 252.8453 68.472906 L 253.086826 68.746625 L 253.24544 69.027547 L 253.422079 69.099578 L 253.883501 69.902727 L 254.171891 69.719047 L 254.784718 69.549773 L 255.047873 69.351688 L 255.372311 68.840266 L 255.642676 68.861875 L 255.732798 68.948313 L 255.891412 68.818656 L 256.050026 68.905094 L 256.143752 68.815055 L 256.327601 69.009539 L 256.605175 69.250844 L 256.767394 67.972289 L 256.864726 67.803016 L 256.940428 67.954281 L 257.268471 67.223164 L 258.530174 60.445023 L 259.020435 58.7775 L 259.17905 58.453359 L 259.283591 58.66225 L 259.427785 58.669453 L 259.532326 58.896352 L 259.932466 59.008 L 260.055032 59.483406 L 260.173993 57.430516 L 260.256904 53.569641 L 260.462382 57.019938 L 260.711118 59.407773 L 260.78682 61.233766 L 261.100443 62.825656 L 261.522212 67.871445 L 262.243186 77.534438 L 262.632511 81.272859 L 263.479655 89.095453 L 264.139345 93.62982 L 264.539485 97.551922 L 264.849504 100.969805 L 265.905729 105.925555 L 266.331104 107.340969 L 267.549548 111.360313 L 267.679323 111.486367 L 268.504838 114.630531 L 269.92876 119.809578 L 270.260408 120.266977 L 270.682177 120.396633 L 270.779508 120.360617 L 271.673515 117.745883 L 272.026792 114.983484 L 272.214245 114.180336 L 272.416117 112.203078 L 272.668458 110.153789 L 273.335358 102.860625 L 273.569675 100.188266 L 273.912137 95.776352 L 275.436995 78.013445 L 275.797482 75.290664 L 276.208436 73.46107 L 276.51485 72.19332 L 276.976273 70.806719 L 277.459325 69.989164 L 278.158669 68.04432 L 278.407405 67.785008 L 278.753472 67.367227 L 278.9229 67.381633 L 279.013022 67.550906 L 279.095934 67.334813 L 279.225709 67.504086 L 279.795278 67.388836 L 279.957497 67.565313 L 280.108901 67.417648 L 280.638817 68.555742 L 280.815455 68.663789 L 281.111054 69.391305 L 281.334556 69.747859 L 281.579687 69.981961 L 281.806793 70.02518 L 281.936568 70.219664 L 282.264611 71.563047 L 282.859414 72.982063 L 283.219901 73.720383 L 284.171585 76.263086 L 284.355434 76.327914 L 285.786565 78.434828 L 285.93076 78.442031 L 286.042511 78.319578 L 286.175891 78.380805 L 286.500329 78.089078 L 286.983381 77.296734 L 287.260956 76.860945 L 287.455618 76.536805 L 288.068445 74.617172 L 288.767789 71.876383 L 289.175139 70.569016 L 289.355383 69.805484 L 289.935766 68.332445 L 290.123219 68.123555 L 290.310672 67.763398 L 290.429633 67.763398 L 290.653134 67.392438 L 290.988387 67.298797 L 291.125372 67.428453 L 291.56877 66.434422 L 291.720175 66.564078 L 291.961701 66.610898 L 292.296953 66.787375 L 292.967458 66.625305 L 293.288291 66.445227 L 293.699246 66.247141 L 293.980426 66.211125 L 294.171484 66.023844 L 294.286839 66.088672 L 294.463478 65.836563 L 294.564414 65.962617 L 294.881642 65.883383 L 295.436792 65.757328 L 295.591801 65.595258 L 296.060433 65.343148 L 296.550695 65.350352 L 296.756173 65.443992 L 297.127474 65.609664 L 297.462726 65.685297 L 298.086368 66.10668 L 298.648727 66.693734 L 299.708558 67.331211 L 300.361038 67.280789 L 300.573726 67.215961 L 300.649428 67.324008 L 300.775598 67.277188 L 301.013519 67.518492 L 301.143294 67.446461 L 302.228359 68.134359 L 302.318481 68.408078 L 302.451861 68.300031 L 302.635709 68.404477 L 303.201673 68.501719 L 303.26656 68.836664 L 303.399941 68.901492 L 303.843339 68.57375 L 304.012768 68.73582 L 304.09568 68.580953 L 304.286738 68.905094 L 304.409303 68.779039 L 304.531868 68.822258 L 304.957243 68.746625 L 305.040155 68.732219 L 305.151905 68.933906 L 305.526811 68.869078 L 305.634957 68.714211 L 305.804386 68.847469 L 305.898113 68.75743 L 306.316277 69.21843 L 306.442447 69.276055 L 306.575827 69.063563 L 306.665949 69.261648 L 306.806539 69.063563 L 307.058879 69.261648 L 307.235518 69.052758 L 307.491463 69.261648 L 307.682521 69.045555 L 307.758223 69.222031 L 307.848345 69.146398 L 308.097081 69.286859 L 308.295349 69.243641 L 308.637811 69.708242 L 309.074 69.668625 L 309.149702 69.614602 L 309.539027 69.798281 L 309.668802 69.798281 L 309.975216 70.219664 L 310.263605 70.237672 L 310.476292 70.259281 L 311.48205 71.285727 L 311.867771 71.537836 L 312.109297 71.462203 L 312.203023 71.476609 L 312.336403 71.775539 L 312.462574 71.703508 L 312.585139 72.013242 L 312.650027 71.858375 L 313.057376 72.182516 L 313.140288 72.456234 L 313.522404 72.416617 L 313.605316 72.268953 L 314.005456 72.348188 L 314.423621 72.812789 L 314.56421 72.805586 L 314.665147 73.014477 L 314.906673 72.971258 L 315.306813 72.76957 L 315.624041 73.064898 L 315.995342 73.407047 L 316.089069 73.280992 L 316.182795 73.360227 L 316.431531 73.226969 L 316.568516 73.151336 L 316.665847 73.23057 L 316.896559 73.23057 L 317.156109 73.374633 L 317.397635 73.457469 L 317.743702 73.601531 L 317.844638 73.378234 L 317.963599 73.525898 L 318.309666 73.432258 L 319.01622 74.076938 L 319.488457 73.947281 L 320.047212 74.275023 L 320.119309 74.49832 L 320.335601 74.415484 L 320.602361 74.415484 L 320.836677 74.33625 L 321.644167 75.103383 L 321.856854 74.948516 L 321.968605 75.164609 L 322.094775 75.088977 L 322.224551 75.315875 L 322.570618 75.175414 L 322.671554 74.995336 L 322.833773 75.020547 L 323.442995 75.647219 L 323.522302 75.564383 L 323.655682 75.71925 L 323.817901 75.564383 L 323.98733 75.704844 L 324.466777 76.345922 L 324.621787 76.392742 L 324.708303 76.273891 L 324.838079 76.306305 L 324.910176 76.108219 L 325.313921 76.742094 L 325.768134 77.044625 L 325.991636 76.889758 L 326.175484 76.778109 L 326.597253 77.14907 L 326.67656 77.019414 L 326.827965 77.001406 L 326.954135 77.134664 L 327.170427 77.134664 L 327.534518 77.037422 L 328.01757 77.206695 L 328.107692 77.192289 L 328.356428 77.325547 L 328.478993 77.192289 L 328.684471 77.307539 L 328.97286 77.167078 L 329.297298 77.300336 L 329.51359 77.239109 L 329.650575 77.28593 L 329.993037 77.141867 L 330.227353 77.354359 L 330.353523 77.339953 L 330.486903 77.210297 L 330.941117 77.49482 L 331.070892 77.696508 L 331.312418 77.782945 L 331.406144 77.851375 L 331.871172 77.624477 L 332.354224 77.966625 L 332.844486 77.768539 L 332.963446 77.754133 L 333.049963 77.541641 L 333.161714 77.682102 L 333.309514 77.613672 L 333.478942 77.754133 L 333.569064 77.599266 L 333.66279 77.682102 L 333.774541 77.617273 L 334.427022 78.182719 L 334.506329 78.096281 L 334.592846 78.182719 L 334.848791 78.02425 L 335.371497 78.02425 L 335.454409 78.251148 L 335.522901 78.171914 L 335.984324 78.395211 L 336.236665 78.096281 L 336.600756 78.308773 L 336.744951 78.384406 L 336.831468 78.665328 L 337.826411 78.283563 L 338.035493 78.496055 L 338.273414 78.510461 L 338.370745 78.650922 L 338.615876 78.492453 L 338.691578 78.582492 L 339.095323 78.427625 L 339.4486 78.427625 L 339.563956 78.568086 L 339.769433 78.355594 L 339.953282 78.496055 L 340.047008 78.409617 L 340.378656 78.640117 L 341.791763 78.542875 L 341.950377 78.755367 L 342.022475 78.697742 L 342.14504 78.827398 L 342.29284 78.812992 L 342.368542 78.658125 L 342.667746 78.744563 L 342.887642 78.6005 L 342.970554 78.726555 L 343.194056 78.71575 L 343.435582 78.856211 L 343.666294 79.000273 L 343.90061 79.000273 L 344.001546 78.931844 L 344.15295 79.000273 L 344.347613 78.859813 L 344.718914 78.928242 L 345.173128 78.758969 L 345.555243 78.834602 L 345.64897 78.985867 L 346.135627 78.831 L 346.492508 79.101117 L 346.600654 79.187555 L 346.957536 78.964258 L 347.087311 79.101117 L 347.242321 79.101117 L 347.292789 78.949852 L 347.5235 78.960656 L 347.912826 78.960656 L 348.006552 78.874219 L 348.154352 79.032688 L 348.377853 79.086711 L 348.59054 79.216367 L 348.943817 79.021883 L 350.140633 78.921039 L 350.263198 78.769773 L 350.544378 78.834602 L 350.717411 78.694141 L 351.712354 78.76257 L 352.173777 78.906633 L 352.249479 78.823797 L 353.114647 79.104719 L 353.431875 79.162344 L 354.023073 79.093914 L 355.075694 79.007477 L 355.216284 78.924641 L 355.371293 79.079508 L 355.504673 78.949852 L 355.551537 79.137133 L 355.670497 79.079508 L 355.976911 79.432461 L 356.135525 79.425258 L 356.261695 79.346023 L 356.395075 79.504492 L 356.53206 79.421656 L 356.596948 79.716984 L 356.748352 79.70618 L 356.906966 79.479281 L 357.119653 79.634148 " transform="matrix(1.083605,0,0,1.084599,0,0)"/>
<path style="fill:none;stroke-width:2.5;stroke-linecap:butt;stroke-linejoin:round;stroke:rgb(100%,0%,0%);stroke-opacity:1;stroke-dasharray:9.25,4;stroke-miterlimit:4;" d="M 115.200702 79.879055 L 357.119653 79.879055 " transform="matrix(1.083605,0,0,1.084599,0,0)"/>
<path style="fill:none;stroke-width:0.8;stroke-linecap:square;stroke-linejoin:miter;stroke:rgb(0%,0%,0%);stroke-opacity:1;stroke-miterlimit:10;" d="M 103.102772 307.584242 L 103.102772 41.471992 M 369.217584 307.584242 L 369.217584 41.471992 M 103.102772 307.584242 L 369.217584 307.584242 M 103.102772 41.471992 L 369.217584 41.471992 " transform="matrix(1.083605,0,0,1.084599,0,0)"/>
<path style="fill-rule:nonzero;fill:rgb(100%,100%,100%);fill-opacity:0.8;stroke-width:1;stroke-linecap:butt;stroke-linejoin:miter;stroke:rgb(83.529412%,83.921569%,83.529412%);stroke-opacity:0.8;stroke-miterlimit:10;" d="M 233.371814 302.585273 L 362.216934 302.585273 C 363.550734 302.585273 364.217634 301.915383 364.217634 300.582805 L 364.217634 272.238508 C 364.217634 270.90593 363.550734 270.239641 362.216934 270.239641 L 233.371814 270.239641 C 232.038014 270.239641 231.371113 270.90593 231.371113 272.238508 L 231.371113 300.582805 C 231.371113 301.915383 232.038014 302.585273 233.371814 302.585273 Z M 233.371814 302.585273 " transform="matrix(1.083605,0,0,1.084599,0,0)"/>
<path style="fill:none;stroke-width:2.5;stroke-linecap:square;stroke-linejoin:round;stroke:rgb(0%,50.196078%,50.196078%);stroke-opacity:1;stroke-miterlimit:4;" d="M 235.372515 278.332352 L 255.372311 278.332352 " transform="matrix(1.083605,0,0,1.084599,0,0)"/>
<path style=" stroke:none;fill-rule:nonzero;fill:rgb(0%,0%,0%);fill-opacity:1;" d="M 292.371094 298.378906 L 292.371094 299.503906 C 292 299.179688 291.621094 298.929688 291.210938 298.757812 C 290.796875 298.59375 290.375 298.507812 289.921875 298.507812 C 289.011719 298.507812 288.316406 298.789062 287.839844 299.34375 C 287.363281 299.894531 287.125 300.6875 287.125 301.730469 C 287.125 302.769531 287.363281 303.574219 287.839844 304.125 C 288.316406 304.679688 289.011719 304.949219 289.921875 304.949219 C 290.375 304.949219 290.796875 304.875 291.210938 304.699219 C 291.621094 304.539062 292 304.289062 292.371094 303.953125 L 292.371094 305.070312 C 291.992188 305.328125 291.589844 305.515625 291.175781 305.632812 C 290.765625 305.753906 290.320312 305.816406 289.855469 305.816406 C 288.664062 305.816406 287.722656 305.460938 287.027344 304.734375 C 286.332031 304.007812 285.996094 303.007812 285.996094 301.730469 C 285.996094 300.460938 286.332031 299.460938 287.027344 298.722656 C 287.722656 297.996094 288.664062 297.628906 289.855469 297.628906 C 290.332031 297.628906 290.777344 297.695312 291.1875 297.8125 C 291.601562 297.945312 292 298.128906 292.371094 298.378906 Z M 292.371094 298.378906 "/>
<path style=" stroke:none;fill-rule:nonzero;fill:rgb(0%,0%,0%);fill-opacity:1;" d="M 293.875 303.335938 L 293.875 299.742188 L 294.851562 299.742188 L 294.851562 303.300781 C 294.851562 303.867188 294.960938 304.277344 295.175781 304.558594 C 295.394531 304.839844 295.71875 304.984375 296.164062 304.984375 C 296.683594 304.984375 297.105469 304.820312 297.410156 304.484375 C 297.710938 304.148438 297.863281 303.691406 297.863281 303.105469 L 297.863281 299.742188 L 298.839844 299.742188 L 298.839844 305.675781 L 297.863281 305.675781 L 297.863281 304.765625 C 297.625 305.132812 297.34375 305.394531 297.039062 305.566406 C 296.726562 305.730469 296.367188 305.816406 295.957031 305.816406 C 295.273438 305.816406 294.753906 305.613281 294.40625 305.1875 C 294.050781 304.777344 293.875 304.160156 293.875 303.335938 Z M 296.324219 299.601562 Z M 296.324219 299.601562 "/>
<path style=" stroke:none;fill-rule:nonzero;fill:rgb(0%,0%,0%);fill-opacity:1;" d="M 304.277344 300.65625 C 304.171875 300.589844 304.050781 300.546875 303.921875 300.515625 C 303.789062 300.492188 303.648438 300.472656 303.5 300.472656 C 302.945312 300.472656 302.523438 300.65625 302.230469 301.011719 C 301.925781 301.371094 301.785156 301.878906 301.785156 302.554688 L 301.785156 305.675781 L 300.8125 305.675781 L 300.8125 299.742188 L 301.785156 299.742188 L 301.785156 300.664062 C 301.980469 300.308594 302.253906 300.035156 302.578125 299.863281 C 302.902344 299.691406 303.304688 299.601562 303.78125 299.601562 C 303.84375 299.601562 303.921875 299.613281 304.007812 299.613281 C 304.082031 299.625 304.171875 299.636719 304.277344 299.65625 Z M 304.277344 300.65625 "/>
<path style=" stroke:none;fill-rule:nonzero;fill:rgb(0%,0%,0%);fill-opacity:1;" d="M 308.546875 300.65625 C 308.4375 300.589844 308.316406 300.546875 308.1875 300.515625 C 308.058594 300.492188 307.917969 300.472656 307.765625 300.472656 C 307.210938 300.472656 306.789062 300.65625 306.496094 301.011719 C 306.195312 301.371094 306.054688 301.878906 306.054688 302.554688 L 306.054688 305.675781 L 305.078125 305.675781 L 305.078125 299.742188 L 306.054688 299.742188 L 306.054688 300.664062 C 306.25 300.308594 306.519531 300.035156 306.84375 299.863281 C 307.167969 299.691406 307.570312 299.601562 308.046875 299.601562 C 308.113281 299.601562 308.1875 299.613281 308.273438 299.613281 C 308.351562 299.625 308.4375 299.636719 308.546875 299.65625 Z M 308.546875 300.65625 "/>
<path style=" stroke:none;fill-rule:nonzero;fill:rgb(0%,0%,0%);fill-opacity:1;" d="M 314.398438 302.464844 L 314.398438 302.945312 L 309.925781 302.945312 C 309.96875 303.617188 310.164062 304.136719 310.53125 304.484375 C 310.886719 304.832031 311.386719 305.003906 312.035156 305.003906 C 312.40625 305.003906 312.773438 304.960938 313.121094 304.875 C 313.46875 304.789062 313.824219 304.644531 314.171875 304.453125 L 314.171875 305.375 C 313.824219 305.523438 313.46875 305.644531 313.097656 305.710938 C 312.730469 305.773438 312.351562 305.816406 311.984375 305.816406 C 311.027344 305.816406 310.28125 305.546875 309.730469 305.003906 C 309.175781 304.460938 308.90625 303.714844 308.90625 302.769531 C 308.90625 301.804688 309.164062 301.035156 309.6875 300.460938 C 310.207031 299.894531 310.921875 299.601562 311.808594 299.601562 C 312.609375 299.601562 313.238281 299.863281 313.707031 300.375 C 314.160156 300.894531 314.398438 301.585938 314.398438 302.464844 Z M 313.425781 302.183594 C 313.414062 301.652344 313.261719 301.230469 312.980469 300.90625 C 312.6875 300.589844 312.296875 300.425781 311.820312 300.425781 C 311.277344 300.425781 310.84375 300.589844 310.519531 300.894531 C 310.195312 301.199219 310 301.632812 309.957031 302.183594 Z M 313.425781 302.183594 "/>
<path style=" stroke:none;fill-rule:nonzero;fill:rgb(0%,0%,0%);fill-opacity:1;" d="M 320.921875 302.097656 L 320.921875 305.675781 L 319.949219 305.675781 L 319.949219 302.128906 C 319.949219 301.566406 319.828125 301.152344 319.613281 300.871094 C 319.394531 300.589844 319.070312 300.449219 318.636719 300.449219 C 318.105469 300.449219 317.695312 300.621094 317.390625 300.957031 C 317.085938 301.296875 316.933594 301.75 316.933594 302.324219 L 316.933594 305.675781 L 315.960938 305.675781 L 315.960938 299.742188 L 316.933594 299.742188 L 316.933594 300.664062 C 317.164062 300.320312 317.433594 300.046875 317.757812 299.875 C 318.074219 299.699219 318.441406 299.601562 318.851562 299.601562 C 319.523438 299.601562 320.042969 299.820312 320.390625 300.242188 C 320.738281 300.664062 320.921875 301.285156 320.921875 302.097656 Z M 320.921875 302.097656 "/>
<path style=" stroke:none;fill-rule:nonzero;fill:rgb(0%,0%,0%);fill-opacity:1;" d="M 323.828125 298.0625 L 323.828125 299.742188 L 325.832031 299.742188 L 325.832031 300.503906 L 323.828125 300.503906 L 323.828125 303.722656 C 323.828125 304.210938 323.890625 304.527344 324.023438 304.65625 C 324.152344 304.796875 324.421875 304.863281 324.835938 304.863281 L 325.832031 304.863281 L 325.832031 305.675781 L 324.835938 305.675781 C 324.074219 305.675781 323.554688 305.535156 323.273438 305.253906 C 322.992188 304.972656 322.851562 304.460938 322.851562 303.722656 L 322.851562 300.503906 L 322.136719 300.503906 L 322.136719 299.742188 L 322.851562 299.742188 L 322.851562 298.0625 Z M 323.828125 298.0625 "/>
<path style=" stroke:none;fill-rule:nonzero;fill:rgb(0%,0%,0%);fill-opacity:1;" d="M 334.335938 299.917969 L 334.335938 300.839844 C 334.054688 300.710938 333.773438 300.601562 333.480469 300.523438 C 333.179688 300.460938 332.875 300.417969 332.558594 300.417969 C 332.074219 300.417969 331.703125 300.492188 331.464844 300.644531 C 331.226562 300.796875 331.109375 301.011719 331.109375 301.304688 C 331.109375 301.535156 331.195312 301.707031 331.367188 301.835938 C 331.542969 301.96875 331.886719 302.097656 332.410156 302.207031 L 332.746094 302.28125 C 333.4375 302.433594 333.925781 302.652344 334.21875 302.910156 C 334.5 303.183594 334.652344 303.5625 334.652344 304.039062 C 334.652344 304.59375 334.433594 305.027344 334 305.339844 C 333.566406 305.664062 332.960938 305.816406 332.203125 305.816406 C 331.878906 305.816406 331.550781 305.785156 331.207031 305.730469 C 330.859375 305.675781 330.5 305.589844 330.121094 305.460938 L 330.121094 304.453125 C 330.480469 304.644531 330.835938 304.789062 331.183594 304.875 C 331.53125 304.972656 331.878906 305.015625 332.222656 305.015625 C 332.679688 305.015625 333.039062 304.9375 333.285156 304.789062 C 333.523438 304.636719 333.65625 304.40625 333.65625 304.113281 C 333.65625 303.855469 333.558594 303.648438 333.382812 303.507812 C 333.210938 303.367188 332.820312 303.226562 332.214844 303.09375 L 331.878906 303.019531 C 331.269531 302.890625 330.828125 302.695312 330.566406 302.433594 C 330.296875 302.171875 330.164062 301.816406 330.164062 301.347656 C 330.164062 300.796875 330.359375 300.363281 330.75 300.058594 C 331.140625 299.753906 331.703125 299.601562 332.441406 299.601562 C 332.800781 299.601562 333.136719 299.636719 333.460938 299.691406 C 333.773438 299.742188 334.066406 299.820312 334.335938 299.917969 Z M 334.335938 299.917969 "/>
<path style=" stroke:none;fill-rule:nonzero;fill:rgb(0%,0%,0%);fill-opacity:1;" d="M 337.144531 304.789062 L 337.144531 307.921875 L 336.167969 307.921875 L 336.167969 299.742188 L 337.144531 299.742188 L 337.144531 300.644531 C 337.339844 300.296875 337.597656 300.035156 337.914062 299.863281 C 338.226562 299.691406 338.605469 299.601562 339.039062 299.601562 C 339.753906 299.601562 340.339844 299.894531 340.796875 300.460938 C 341.238281 301.035156 341.46875 301.78125 341.46875 302.714844 C 341.46875 303.648438 341.238281 304.40625 340.796875 304.972656 C 340.339844 305.535156 339.753906 305.816406 339.039062 305.816406 C 338.605469 305.816406 338.226562 305.730469 337.914062 305.566406 C 337.597656 305.40625 337.339844 305.144531 337.144531 304.789062 Z M 340.460938 302.714844 C 340.460938 302 340.308594 301.445312 340.015625 301.035156 C 339.710938 300.621094 339.3125 300.417969 338.800781 300.417969 C 338.28125 300.417969 337.882812 300.621094 337.589844 301.035156 C 337.285156 301.445312 337.144531 302 337.144531 302.714844 C 337.144531 303.433594 337.285156 303.996094 337.589844 304.40625 C 337.882812 304.820312 338.28125 305.015625 338.800781 305.015625 C 339.3125 305.015625 339.710938 304.820312 340.015625 304.40625 C 340.308594 303.996094 340.460938 303.433594 340.460938 302.714844 Z M 340.460938 302.714844 "/>
<path style=" stroke:none;fill-rule:nonzero;fill:rgb(0%,0%,0%);fill-opacity:1;" d="M 348.152344 302.464844 L 348.152344 302.945312 L 343.679688 302.945312 C 343.722656 303.617188 343.917969 304.136719 344.285156 304.484375 C 344.644531 304.832031 345.140625 305.003906 345.792969 305.003906 C 346.160156 305.003906 346.527344 304.960938 346.875 304.875 C 347.222656 304.789062 347.578125 304.644531 347.925781 304.453125 L 347.925781 305.375 C 347.578125 305.523438 347.222656 305.644531 346.851562 305.710938 C 346.484375 305.773438 346.105469 305.816406 345.738281 305.816406 C 344.785156 305.816406 344.035156 305.546875 343.484375 305.003906 C 342.929688 304.460938 342.660156 303.714844 342.660156 302.769531 C 342.660156 301.804688 342.917969 301.035156 343.441406 300.460938 C 343.960938 299.894531 344.675781 299.601562 345.5625 299.601562 C 346.367188 299.601562 346.992188 299.863281 347.460938 300.375 C 347.914062 300.894531 348.152344 301.585938 348.152344 302.464844 Z M 347.179688 302.183594 C 347.167969 301.652344 347.015625 301.230469 346.734375 300.90625 C 346.441406 300.589844 346.050781 300.425781 345.574219 300.425781 C 345.03125 300.425781 344.597656 300.589844 344.273438 300.894531 C 343.949219 301.199219 343.753906 301.632812 343.710938 302.183594 Z M 347.179688 302.183594 "/>
<path style=" stroke:none;fill-rule:nonzero;fill:rgb(0%,0%,0%);fill-opacity:1;" d="M 354.816406 302.464844 L 354.816406 302.945312 L 350.34375 302.945312 C 350.386719 303.617188 350.582031 304.136719 350.949219 304.484375 C 351.308594 304.832031 351.804688 305.003906 352.457031 305.003906 C 352.824219 305.003906 353.191406 304.960938 353.539062 304.875 C 353.886719 304.789062 354.242188 304.644531 354.589844 304.453125 L 354.589844 305.375 C 354.242188 305.523438 353.886719 305.644531 353.515625 305.710938 C 353.148438 305.773438 352.769531 305.816406 352.402344 305.816406 C 351.449219 305.816406 350.699219 305.546875 350.148438 305.003906 C 349.59375 304.460938 349.324219 303.714844 349.324219 302.769531 C 349.324219 301.804688 349.582031 301.035156 350.105469 300.460938 C 350.625 299.894531 351.339844 299.601562 352.226562 299.601562 C 353.03125 299.601562 353.660156 299.863281 354.125 300.375 C 354.578125 300.894531 354.816406 301.585938 354.816406 302.464844 Z M 353.84375 302.183594 C 353.832031 301.652344 353.679688 301.230469 353.398438 300.90625 C 353.105469 300.589844 352.714844 300.425781 352.238281 300.425781 C 351.695312 300.425781 351.261719 300.589844 350.9375 300.894531 C 350.613281 301.199219 350.417969 301.632812 350.375 302.183594 Z M 353.84375 302.183594 "/>
<path style=" stroke:none;fill-rule:nonzero;fill:rgb(0%,0%,0%);fill-opacity:1;" d="M 360.3125 300.644531 L 360.3125 297.433594 L 361.285156 297.433594 L 361.285156 305.675781 L 360.3125 305.675781 L 360.3125 304.789062 C 360.105469 305.144531 359.84375 305.40625 359.53125 305.566406 C 359.21875 305.730469 358.847656 305.816406 358.414062 305.816406 C 357.699219 305.816406 357.113281 305.535156 356.660156 304.972656 C 356.203125 304.40625 355.988281 303.648438 355.988281 302.714844 C 355.988281 301.78125 356.203125 301.035156 356.660156 300.460938 C 357.113281 299.894531 357.699219 299.601562 358.414062 299.601562 C 358.847656 299.601562 359.21875 299.691406 359.53125 299.863281 C 359.84375 300.035156 360.105469 300.296875 360.3125 300.644531 Z M 356.996094 302.714844 C 356.996094 303.433594 357.136719 303.996094 357.429688 304.40625 C 357.722656 304.820312 358.121094 305.015625 358.644531 305.015625 C 359.164062 305.015625 359.5625 304.820312 359.867188 304.40625 C 360.160156 303.996094 360.3125 303.433594 360.3125 302.714844 C 360.3125 302 360.160156 301.445312 359.867188 301.035156 C 359.5625 300.621094 359.164062 300.417969 358.644531 300.417969 C 358.121094 300.417969 357.722656 300.621094 357.429688 301.035156 C 357.136719 301.445312 356.996094 302 356.996094 302.714844 Z M 356.996094 302.714844 "/>
<path style=" stroke:none;fill-rule:nonzero;fill:rgb(0%,0%,0%);fill-opacity:1;" d="M 369.078125 297.445312 C 368.601562 298.269531 368.253906 299.070312 368.027344 299.863281 C 367.789062 300.65625 367.679688 301.457031 367.679688 302.269531 C 367.679688 303.09375 367.789062 303.898438 368.027344 304.691406 C 368.253906 305.492188 368.601562 306.285156 369.078125 307.097656 L 368.234375 307.097656 C 367.703125 306.261719 367.300781 305.460938 367.039062 304.65625 C 366.78125 303.855469 366.652344 303.0625 366.652344 302.269531 C 366.652344 301.492188 366.78125 300.699219 367.039062 299.894531 C 367.300781 299.09375 367.691406 298.28125 368.234375 297.445312 Z M 369.078125 297.445312 "/>
<path style=" stroke:none;fill-rule:nonzero;fill:rgb(0%,0%,0%);fill-opacity:1;" d="M 374.214844 298.496094 C 373.433594 298.496094 372.816406 298.789062 372.359375 299.363281 C 371.90625 299.949219 371.679688 300.730469 371.679688 301.730469 C 371.679688 302.726562 371.90625 303.519531 372.359375 304.09375 C 372.816406 304.679688 373.433594 304.960938 374.214844 304.960938 C 374.984375 304.960938 375.601562 304.679688 376.054688 304.09375 C 376.511719 303.519531 376.738281 302.726562 376.738281 301.730469 C 376.738281 300.730469 376.511719 299.949219 376.054688 299.363281 C 375.601562 298.789062 374.984375 298.496094 374.214844 298.496094 Z M 374.214844 297.628906 C 375.320312 297.628906 376.195312 298.007812 376.867188 298.746094 C 377.53125 299.484375 377.867188 300.480469 377.867188 301.730469 C 377.867188 302.988281 377.53125 303.972656 376.867188 304.710938 C 376.195312 305.449219 375.320312 305.816406 374.214844 305.816406 C 373.097656 305.816406 372.210938 305.449219 371.546875 304.710938 C 370.875 303.972656 370.550781 302.988281 370.550781 301.730469 C 370.550781 300.480469 370.875 299.484375 371.546875 298.746094 C 372.210938 298.007812 373.097656 297.628906 374.214844 297.628906 Z M 374.214844 297.628906 "/>
<path style=" stroke:none;fill-rule:nonzero;fill:rgb(0%,0%,0%);fill-opacity:1;" d="M 384.269531 298.03125 L 384.269531 299.070312 C 383.859375 298.875 383.480469 298.734375 383.121094 298.636719 C 382.753906 298.550781 382.40625 298.496094 382.082031 298.496094 C 381.496094 298.496094 381.039062 298.617188 380.726562 298.832031 C 380.414062 299.0625 380.261719 299.386719 380.261719 299.796875 C 380.261719 300.144531 380.359375 300.417969 380.574219 300.589844 C 380.78125 300.773438 381.183594 300.914062 381.765625 301.023438 L 382.417969 301.152344 C 383.207031 301.304688 383.792969 301.578125 384.171875 301.957031 C 384.550781 302.347656 384.746094 302.855469 384.746094 303.496094 C 384.746094 304.265625 384.488281 304.839844 383.976562 305.230469 C 383.457031 305.621094 382.710938 305.816406 381.722656 305.816406 C 381.34375 305.816406 380.945312 305.773438 380.519531 305.699219 C 380.097656 305.621094 379.664062 305.503906 379.21875 305.328125 L 379.21875 304.222656 C 379.652344 304.472656 380.078125 304.65625 380.488281 304.777344 C 380.898438 304.90625 381.3125 304.960938 381.722656 304.960938 C 382.332031 304.960938 382.796875 304.839844 383.132812 304.601562 C 383.457031 304.363281 383.628906 304.027344 383.628906 303.574219 C 383.628906 303.183594 383.511719 302.878906 383.273438 302.660156 C 383.035156 302.445312 382.644531 302.28125 382.101562 302.171875 L 381.453125 302.042969 C 380.652344 301.890625 380.078125 301.640625 379.71875 301.296875 C 379.363281 300.957031 379.1875 300.492188 379.1875 299.886719 C 379.1875 299.191406 379.425781 298.636719 379.925781 298.238281 C 380.414062 297.835938 381.09375 297.628906 381.960938 297.628906 C 382.332031 297.628906 382.699219 297.660156 383.089844 297.726562 C 383.46875 297.792969 383.859375 297.898438 384.269531 298.03125 Z M 384.269531 298.03125 "/>
<path style=" stroke:none;fill-rule:nonzero;fill:rgb(0%,0%,0%);fill-opacity:1;" d="M 386.21875 297.445312 L 387.066406 297.445312 C 387.585938 298.28125 387.988281 299.09375 388.246094 299.894531 C 388.507812 300.699219 388.648438 301.492188 388.648438 302.269531 C 388.648438 303.0625 388.507812 303.855469 388.246094 304.65625 C 387.988281 305.460938 387.585938 306.261719 387.066406 307.097656 L 386.21875 307.097656 C 386.6875 306.285156 387.035156 305.492188 387.273438 304.691406 C 387.5 303.898438 387.617188 303.09375 387.617188 302.269531 C 387.617188 301.457031 387.5 300.65625 387.273438 299.863281 C 387.035156 299.070312 386.6875 298.269531 386.21875 297.445312 Z M 386.21875 297.445312 "/>
<path style="fill:none;stroke-width:2.5;stroke-linecap:butt;stroke-linejoin:round;stroke:rgb(100%,0%,0%);stroke-opacity:1;stroke-dasharray:9.25,4;stroke-miterlimit:4;" d="M 235.372515 293.005117 L 255.372311 293.005117 " transform="matrix(1.083605,0,0,1.084599,0,0)"/>
<path style=" stroke:none;fill-rule:nonzero;fill:rgb(0%,0%,0%);fill-opacity:1;" d="M 287.527344 314.5625 L 287.527344 320.710938 L 288.816406 320.710938 C 289.898438 320.710938 290.699219 320.472656 291.210938 319.972656 C 291.707031 319.476562 291.96875 318.695312 291.96875 317.632812 C 291.96875 316.566406 291.707031 315.796875 291.210938 315.300781 C 290.699219 314.8125 289.898438 314.5625 288.816406 314.5625 Z M 286.453125 313.683594 L 288.652344 313.683594 C 290.179688 313.683594 291.308594 314.007812 292.023438 314.636719 C 292.738281 315.277344 293.09375 316.277344 293.09375 317.632812 C 293.09375 318.996094 292.726562 319.996094 292.011719 320.636719 C 291.296875 321.277344 290.167969 321.589844 288.652344 321.589844 L 286.453125 321.589844 Z M 286.453125 313.683594 "/>
<path style=" stroke:none;fill-rule:nonzero;fill:rgb(0%,0%,0%);fill-opacity:1;" d="M 299.824219 318.378906 L 299.824219 318.855469 L 295.347656 318.855469 C 295.394531 319.527344 295.585938 320.050781 295.957031 320.398438 C 296.3125 320.742188 296.8125 320.917969 297.460938 320.917969 C 297.832031 320.917969 298.199219 320.875 298.546875 320.789062 C 298.894531 320.699219 299.25 320.558594 299.597656 320.363281 L 299.597656 321.285156 C 299.25 321.4375 298.894531 321.558594 298.523438 321.621094 C 298.15625 321.6875 297.777344 321.730469 297.410156 321.730469 C 296.453125 321.730469 295.707031 321.460938 295.15625 320.917969 C 294.601562 320.375 294.332031 319.625 294.332031 318.683594 C 294.332031 317.71875 294.589844 316.949219 295.109375 316.375 C 295.632812 315.808594 296.347656 315.515625 297.234375 315.515625 C 298.035156 315.515625 298.664062 315.777344 299.132812 316.285156 C 299.585938 316.808594 299.824219 317.5 299.824219 318.378906 Z M 298.847656 318.097656 C 298.839844 317.566406 298.6875 317.144531 298.40625 316.816406 C 298.113281 316.503906 297.722656 316.339844 297.246094 316.339844 C 296.703125 316.339844 296.269531 316.503906 295.945312 316.808594 C 295.621094 317.109375 295.425781 317.542969 295.382812 318.097656 Z M 298.847656 318.097656 "/>
<path style=" stroke:none;fill-rule:nonzero;fill:rgb(0%,0%,0%);fill-opacity:1;" d="M 305.199219 315.832031 L 305.199219 316.753906 C 304.917969 316.621094 304.636719 316.515625 304.34375 316.4375 C 304.039062 316.375 303.738281 316.328125 303.421875 316.328125 C 302.933594 316.328125 302.566406 316.40625 302.328125 316.558594 C 302.089844 316.710938 301.96875 316.925781 301.96875 317.21875 C 301.96875 317.445312 302.058594 317.621094 302.230469 317.75 C 302.402344 317.878906 302.75 318.011719 303.269531 318.121094 L 303.605469 318.195312 C 304.300781 318.347656 304.789062 318.5625 305.082031 318.824219 C 305.363281 319.09375 305.515625 319.476562 305.515625 319.953125 C 305.515625 320.503906 305.296875 320.9375 304.863281 321.253906 C 304.429688 321.578125 303.824219 321.730469 303.066406 321.730469 C 302.738281 321.730469 302.414062 321.699219 302.066406 321.644531 C 301.722656 321.589844 301.363281 321.503906 300.984375 321.375 L 300.984375 320.363281 C 301.34375 320.558594 301.699219 320.699219 302.046875 320.789062 C 302.394531 320.886719 302.738281 320.929688 303.085938 320.929688 C 303.542969 320.929688 303.898438 320.851562 304.148438 320.699219 C 304.386719 320.546875 304.515625 320.320312 304.515625 320.027344 C 304.515625 319.769531 304.417969 319.5625 304.246094 319.421875 C 304.074219 319.28125 303.683594 319.140625 303.074219 319.007812 L 302.738281 318.933594 C 302.132812 318.800781 301.6875 318.605469 301.429688 318.347656 C 301.15625 318.085938 301.027344 317.730469 301.027344 317.261719 C 301.027344 316.710938 301.222656 316.277344 301.613281 315.972656 C 302.003906 315.667969 302.566406 315.515625 303.304688 315.515625 C 303.660156 315.515625 303.996094 315.546875 304.320312 315.601562 C 304.636719 315.65625 304.929688 315.734375 305.199219 315.832031 Z M 305.199219 315.832031 "/>
<path style=" stroke:none;fill-rule:nonzero;fill:rgb(0%,0%,0%);fill-opacity:1;" d="M 307.0625 315.65625 L 308.039062 315.65625 L 308.039062 321.589844 L 307.0625 321.589844 Z M 307.0625 313.347656 L 308.039062 313.347656 L 308.039062 314.582031 L 307.0625 314.582031 Z M 307.0625 313.347656 "/>
<path style=" stroke:none;fill-rule:nonzero;fill:rgb(0%,0%,0%);fill-opacity:1;" d="M 313.511719 316.566406 C 313.402344 316.503906 313.28125 316.460938 313.152344 316.425781 C 313.023438 316.40625 312.882812 316.382812 312.730469 316.382812 C 312.179688 316.382812 311.753906 316.566406 311.460938 316.925781 C 311.160156 317.285156 311.019531 317.792969 311.019531 318.464844 L 311.019531 321.589844 L 310.042969 321.589844 L 310.042969 315.65625 L 311.019531 315.65625 L 311.019531 316.578125 C 311.214844 316.222656 311.484375 315.949219 311.808594 315.777344 C 312.132812 315.601562 312.535156 315.515625 313.011719 315.515625 C 313.078125 315.515625 313.152344 315.527344 313.238281 315.527344 C 313.316406 315.539062 313.402344 315.546875 313.511719 315.570312 Z M 313.511719 316.566406 "/>
<path style=" stroke:none;fill-rule:nonzero;fill:rgb(0%,0%,0%);fill-opacity:1;" d="M 319.363281 318.378906 L 319.363281 318.855469 L 314.890625 318.855469 C 314.933594 319.527344 315.128906 320.050781 315.496094 320.398438 C 315.851562 320.742188 316.351562 320.917969 317.003906 320.917969 C 317.371094 320.917969 317.738281 320.875 318.085938 320.789062 C 318.433594 320.699219 318.789062 320.558594 319.136719 320.363281 L 319.136719 321.285156 C 318.789062 321.4375 318.433594 321.558594 318.0625 321.621094 C 317.695312 321.6875 317.316406 321.730469 316.949219 321.730469 C 315.996094 321.730469 315.246094 321.460938 314.695312 320.917969 C 314.140625 320.375 313.871094 319.625 313.871094 318.683594 C 313.871094 317.71875 314.128906 316.949219 314.652344 316.375 C 315.171875 315.808594 315.886719 315.515625 316.773438 315.515625 C 317.578125 315.515625 318.203125 315.777344 318.671875 316.285156 C 319.125 316.808594 319.363281 317.5 319.363281 318.378906 Z M 318.390625 318.097656 C 318.378906 317.566406 318.226562 317.144531 317.945312 316.816406 C 317.652344 316.503906 317.261719 316.339844 316.785156 316.339844 C 316.242188 316.339844 315.808594 316.503906 315.484375 316.808594 C 315.160156 317.109375 314.964844 317.542969 314.921875 318.097656 Z M 318.390625 318.097656 "/>
<path style=" stroke:none;fill-rule:nonzero;fill:rgb(0%,0%,0%);fill-opacity:1;" d="M 324.855469 316.558594 L 324.855469 313.347656 L 325.832031 313.347656 L 325.832031 321.589844 L 324.855469 321.589844 L 324.855469 320.699219 C 324.652344 321.058594 324.390625 321.320312 324.078125 321.480469 C 323.761719 321.644531 323.394531 321.730469 322.960938 321.730469 C 322.246094 321.730469 321.660156 321.449219 321.207031 320.886719 C 320.75 320.320312 320.535156 319.5625 320.535156 318.628906 C 320.535156 317.695312 320.75 316.949219 321.207031 316.375 C 321.660156 315.808594 322.246094 315.515625 322.960938 315.515625 C 323.394531 315.515625 323.761719 315.601562 324.078125 315.777344 C 324.390625 315.949219 324.652344 316.210938 324.855469 316.558594 Z M 321.542969 318.628906 C 321.542969 319.34375 321.683594 319.910156 321.976562 320.320312 C 322.265625 320.734375 322.667969 320.929688 323.1875 320.929688 C 323.707031 320.929688 324.109375 320.734375 324.414062 320.320312 C 324.707031 319.910156 324.855469 319.34375 324.855469 318.628906 C 324.855469 317.914062 324.707031 317.359375 324.414062 316.949219 C 324.109375 316.535156 323.707031 316.328125 323.1875 316.328125 C 322.667969 316.328125 322.265625 316.535156 321.976562 316.949219 C 321.683594 317.359375 321.542969 317.914062 321.542969 318.628906 Z M 321.542969 318.628906 "/>
<path style=" stroke:none;fill-rule:nonzero;fill:rgb(0%,0%,0%);fill-opacity:1;" d="M 335.066406 315.832031 L 335.066406 316.753906 C 334.785156 316.621094 334.503906 316.515625 334.210938 316.4375 C 333.90625 316.375 333.601562 316.328125 333.289062 316.328125 C 332.800781 316.328125 332.433594 316.40625 332.195312 316.558594 C 331.957031 316.710938 331.835938 316.925781 331.835938 317.21875 C 331.835938 317.445312 331.921875 317.621094 332.097656 317.75 C 332.269531 317.878906 332.617188 318.011719 333.136719 318.121094 L 333.472656 318.195312 C 334.167969 318.347656 334.652344 318.5625 334.945312 318.824219 C 335.226562 319.09375 335.378906 319.476562 335.378906 319.953125 C 335.378906 320.503906 335.164062 320.9375 334.730469 321.253906 C 334.296875 321.578125 333.691406 321.730469 332.929688 321.730469 C 332.605469 321.730469 332.28125 321.699219 331.933594 321.644531 C 331.585938 321.589844 331.230469 321.503906 330.851562 321.375 L 330.851562 320.363281 C 331.207031 320.558594 331.566406 320.699219 331.914062 320.789062 C 332.257812 320.886719 332.605469 320.929688 332.953125 320.929688 C 333.40625 320.929688 333.765625 320.851562 334.015625 320.699219 C 334.253906 320.546875 334.382812 320.320312 334.382812 320.027344 C 334.382812 319.769531 334.285156 319.5625 334.113281 319.421875 C 333.9375 319.28125 333.546875 319.140625 332.941406 319.007812 L 332.605469 318.933594 C 332 318.800781 331.554688 318.605469 331.292969 318.347656 C 331.023438 318.085938 330.894531 317.730469 330.894531 317.261719 C 330.894531 316.710938 331.089844 316.277344 331.480469 315.972656 C 331.867188 315.667969 332.433594 315.515625 333.167969 315.515625 C 333.527344 315.515625 333.863281 315.546875 334.1875 315.601562 C 334.503906 315.65625 334.792969 315.734375 335.066406 315.832031 Z M 335.066406 315.832031 "/>
<path style=" stroke:none;fill-rule:nonzero;fill:rgb(0%,0%,0%);fill-opacity:1;" d="M 337.871094 320.699219 L 337.871094 323.835938 L 336.898438 323.835938 L 336.898438 315.65625 L 337.871094 315.65625 L 337.871094 316.558594 C 338.066406 316.210938 338.328125 315.949219 338.640625 315.777344 C 338.957031 315.601562 339.335938 315.515625 339.769531 315.515625 C 340.484375 315.515625 341.070312 315.808594 341.523438 316.375 C 341.96875 316.949219 342.195312 317.695312 342.195312 318.628906 C 342.195312 319.5625 341.96875 320.320312 341.523438 320.886719 C 341.070312 321.449219 340.484375 321.730469 339.769531 321.730469 C 339.335938 321.730469 338.957031 321.644531 338.640625 321.480469 C 338.328125 321.320312 338.066406 321.058594 337.871094 320.699219 Z M 341.1875 318.628906 C 341.1875 317.914062 341.035156 317.359375 340.742188 316.949219 C 340.441406 316.535156 340.039062 316.328125 339.53125 316.328125 C 339.011719 316.328125 338.609375 316.535156 338.316406 316.949219 C 338.011719 317.359375 337.871094 317.914062 337.871094 318.628906 C 337.871094 319.34375 338.011719 319.910156 338.316406 320.320312 C 338.609375 320.734375 339.011719 320.929688 339.53125 320.929688 C 340.039062 320.929688 340.441406 320.734375 340.742188 320.320312 C 341.035156 319.910156 341.1875 319.34375 341.1875 318.628906 Z M 341.1875 318.628906 "/>
<path style=" stroke:none;fill-rule:nonzero;fill:rgb(0%,0%,0%);fill-opacity:1;" d="M 348.882812 318.378906 L 348.882812 318.855469 L 344.40625 318.855469 C 344.449219 319.527344 344.644531 320.050781 345.011719 320.398438 C 345.371094 320.742188 345.871094 320.917969 346.519531 320.917969 C 346.886719 320.917969 347.257812 320.875 347.601562 320.789062 C 347.949219 320.699219 348.308594 320.558594 348.652344 320.363281 L 348.652344 321.285156 C 348.308594 321.4375 347.949219 321.558594 347.582031 321.621094 C 347.214844 321.6875 346.832031 321.730469 346.464844 321.730469 C 345.511719 321.730469 344.765625 321.460938 344.210938 320.917969 C 343.660156 320.375 343.386719 319.625 343.386719 318.683594 C 343.386719 317.71875 343.648438 316.949219 344.167969 316.375 C 344.6875 315.808594 345.402344 315.515625 346.292969 315.515625 C 347.09375 315.515625 347.722656 315.777344 348.1875 316.285156 C 348.644531 316.808594 348.882812 317.5 348.882812 318.378906 Z M 347.90625 318.097656 C 347.894531 317.566406 347.742188 317.144531 347.460938 316.816406 C 347.167969 316.503906 346.78125 316.339844 346.304688 316.339844 C 345.761719 316.339844 345.328125 316.503906 345.003906 316.808594 C 344.675781 317.109375 344.480469 317.542969 344.4375 318.097656 Z M 347.90625 318.097656 "/>
<path style=" stroke:none;fill-rule:nonzero;fill:rgb(0%,0%,0%);fill-opacity:1;" d="M 355.542969 318.378906 L 355.542969 318.855469 L 351.070312 318.855469 C 351.113281 319.527344 351.308594 320.050781 351.675781 320.398438 C 352.035156 320.742188 352.53125 320.917969 353.183594 320.917969 C 353.550781 320.917969 353.917969 320.875 354.265625 320.789062 C 354.613281 320.699219 354.96875 320.558594 355.316406 320.363281 L 355.316406 321.285156 C 354.96875 321.4375 354.613281 321.558594 354.246094 321.621094 C 353.875 321.6875 353.496094 321.730469 353.128906 321.730469 C 352.175781 321.730469 351.425781 321.460938 350.875 320.917969 C 350.320312 320.375 350.050781 319.625 350.050781 318.683594 C 350.050781 317.71875 350.3125 316.949219 350.832031 316.375 C 351.351562 315.808594 352.066406 315.515625 352.953125 315.515625 C 353.757812 315.515625 354.386719 315.777344 354.851562 316.285156 C 355.304688 316.808594 355.542969 317.5 355.542969 318.378906 Z M 354.570312 318.097656 C 354.558594 317.566406 354.40625 317.144531 354.125 316.816406 C 353.832031 316.503906 353.441406 316.339844 352.964844 316.339844 C 352.425781 316.339844 351.992188 316.503906 351.664062 316.808594 C 351.339844 317.109375 351.144531 317.542969 351.101562 318.097656 Z M 354.570312 318.097656 "/>
<path style=" stroke:none;fill-rule:nonzero;fill:rgb(0%,0%,0%);fill-opacity:1;" d="M 361.039062 316.558594 L 361.039062 313.347656 L 362.015625 313.347656 L 362.015625 321.589844 L 361.039062 321.589844 L 361.039062 320.699219 C 360.832031 321.058594 360.574219 321.320312 360.257812 321.480469 C 359.945312 321.644531 359.574219 321.730469 359.140625 321.730469 C 358.425781 321.730469 357.84375 321.449219 357.386719 320.886719 C 356.933594 320.320312 356.714844 319.5625 356.714844 318.628906 C 356.714844 317.695312 356.933594 316.949219 357.386719 316.375 C 357.84375 315.808594 358.425781 315.515625 359.140625 315.515625 C 359.574219 315.515625 359.945312 315.601562 360.257812 315.777344 C 360.574219 315.949219 360.832031 316.210938 361.039062 316.558594 Z M 357.722656 318.628906 C 357.722656 319.34375 357.863281 319.910156 358.15625 320.320312 C 358.449219 320.734375 358.851562 320.929688 359.371094 320.929688 C 359.890625 320.929688 360.289062 320.734375 360.59375 320.320312 C 360.886719 319.910156 361.039062 319.34375 361.039062 318.628906 C 361.039062 317.914062 360.886719 317.359375 360.59375 316.949219 C 360.289062 316.535156 359.890625 316.328125 359.371094 316.328125 C 358.851562 316.328125 358.449219 316.535156 358.15625 316.949219 C 357.863281 317.359375 357.722656 317.914062 357.722656 318.628906 Z M 357.722656 318.628906 "/>
<path style=" stroke:none;fill-rule:nonzero;fill:rgb(0%,0%,0%);fill-opacity:1;" d="M 369.804688 313.359375 C 369.328125 314.183594 368.984375 314.984375 368.753906 315.777344 C 368.515625 316.566406 368.410156 317.371094 368.410156 318.183594 C 368.410156 319.007812 368.515625 319.8125 368.753906 320.601562 C 368.984375 321.40625 369.328125 322.199219 369.804688 323.011719 L 368.960938 323.011719 C 368.429688 322.175781 368.027344 321.375 367.769531 320.570312 C 367.507812 319.769531 367.378906 318.976562 367.378906 318.183594 C 367.378906 317.402344 367.507812 316.613281 367.769531 315.808594 C 368.027344 315.007812 368.417969 314.191406 368.960938 313.359375 Z M 369.804688 313.359375 "/>
<path style=" stroke:none;fill-rule:nonzero;fill:rgb(0%,0%,0%);fill-opacity:1;" d="M 374.941406 314.410156 C 374.164062 314.410156 373.542969 314.703125 373.089844 315.277344 C 372.632812 315.863281 372.40625 316.644531 372.40625 317.640625 C 372.40625 318.640625 372.632812 319.433594 373.089844 320.007812 C 373.542969 320.59375 374.164062 320.875 374.941406 320.875 C 375.710938 320.875 376.328125 320.59375 376.785156 320.007812 C 377.238281 319.433594 377.46875 318.640625 377.46875 317.640625 C 377.46875 316.644531 377.238281 315.863281 376.785156 315.277344 C 376.328125 314.703125 375.710938 314.410156 374.941406 314.410156 Z M 374.941406 313.542969 C 376.046875 313.542969 376.925781 313.921875 377.597656 314.660156 C 378.257812 315.398438 378.59375 316.394531 378.59375 317.640625 C 378.59375 318.898438 378.257812 319.886719 377.597656 320.625 C 376.925781 321.363281 376.046875 321.730469 374.941406 321.730469 C 373.828125 321.730469 372.9375 321.363281 372.277344 320.625 C 371.605469 319.886719 371.28125 318.898438 371.28125 317.640625 C 371.28125 316.394531 371.605469 315.398438 372.277344 314.660156 C 372.9375 313.921875 373.828125 313.542969 374.941406 313.542969 Z M 374.941406 313.542969 "/>
<path style=" stroke:none;fill-rule:nonzero;fill:rgb(0%,0%,0%);fill-opacity:1;" d="M 385 313.945312 L 385 314.984375 C 384.585938 314.789062 384.207031 314.648438 383.851562 314.550781 C 383.480469 314.464844 383.132812 314.410156 382.808594 314.410156 C 382.222656 314.410156 381.769531 314.527344 381.453125 314.746094 C 381.140625 314.972656 380.988281 315.300781 380.988281 315.710938 C 380.988281 316.058594 381.085938 316.328125 381.304688 316.503906 C 381.507812 316.6875 381.910156 316.828125 382.496094 316.9375 L 383.144531 317.066406 C 383.9375 317.21875 384.523438 317.492188 384.902344 317.871094 C 385.28125 318.261719 385.476562 318.769531 385.476562 319.410156 C 385.476562 320.179688 385.214844 320.753906 384.707031 321.144531 C 384.1875 321.535156 383.4375 321.730469 382.453125 321.730469 C 382.074219 321.730469 381.671875 321.6875 381.25 321.613281 C 380.828125 321.535156 380.394531 321.417969 379.949219 321.242188 L 379.949219 320.136719 C 380.382812 320.386719 380.804688 320.570312 381.214844 320.691406 C 381.628906 320.820312 382.039062 320.875 382.453125 320.875 C 383.058594 320.875 383.523438 320.753906 383.859375 320.515625 C 384.1875 320.277344 384.359375 319.941406 384.359375 319.484375 C 384.359375 319.09375 384.238281 318.792969 384 318.574219 C 383.761719 318.359375 383.371094 318.195312 382.832031 318.085938 L 382.179688 317.957031 C 381.378906 317.804688 380.804688 317.554688 380.445312 317.207031 C 380.089844 316.871094 379.917969 316.40625 379.917969 315.796875 C 379.917969 315.105469 380.15625 314.550781 380.652344 314.148438 C 381.140625 313.75 381.824219 313.542969 382.691406 313.542969 C 383.058594 313.542969 383.425781 313.574219 383.816406 313.640625 C 384.195312 313.703125 384.585938 313.8125 385 313.945312 Z M 385 313.945312 "/>
<path style=" stroke:none;fill-rule:nonzero;fill:rgb(0%,0%,0%);fill-opacity:1;" d="M 386.949219 313.359375 L 387.792969 313.359375 C 388.3125 314.191406 388.714844 315.007812 388.976562 315.808594 C 389.234375 316.613281 389.375 317.402344 389.375 318.183594 C 389.375 318.976562 389.234375 319.769531 388.976562 320.570312 C 388.714844 321.375 388.3125 322.175781 387.792969 323.011719 L 386.949219 323.011719 C 387.414062 322.199219 387.761719 321.40625 388 320.601562 C 388.226562 319.8125 388.347656 319.007812 388.347656 318.183594 C 388.347656 317.371094 388.226562 316.566406 388 315.777344 C 387.761719 314.984375 387.414062 314.183594 386.949219 313.359375 Z M 386.949219 313.359375 "/>
</g>
</svg>
