<?xml version="1.0" encoding="UTF-8"?>
<svg xmlns="http://www.w3.org/2000/svg" xmlns:xlink="http://www.w3.org/1999/xlink" width="400px" height="px" viewBox="0 0 400 416" version="1.1">
<defs>
<clipPath id="clip1">
  <path d="M 0 0 L 400 0 L 400 413.503906 L 0 413.503906 Z M 0 0 "/>
</clipPath>
</defs>
<g id="surface1">
<g clip-path="url(#clip1)" clip-rule="nonzero">
<path style=" stroke:none;fill-rule:nonzero;fill:rgb(100%,100%,100%);fill-opacity:1;" d="M -86.84375 413.503906 L 519.472656 413.503906 L 519.472656 -40.3125 L -86.84375 -40.3125 Z M -86.84375 413.503906 "/>
</g>
<path style=" stroke:none;fill-rule:nonzero;fill:rgb(100%,100%,100%);fill-opacity:1;" d="M 48.820312 363.585938 L 398.96875 363.585938 L 398.96875 14.144531 L 48.820312 14.144531 Z M 48.820312 363.585938 "/>
<path style="fill:none;stroke-width:0.8;stroke-linecap:butt;stroke-linejoin:round;stroke:rgb(0%,0%,0%);stroke-opacity:1;stroke-miterlimit:4;" d="M 47.28625 266.984675 L 47.28625 270.482993 " transform="matrix(1.315789,0,0,1.313131,0,13)"/>
<path style=" stroke:none;fill-rule:nonzero;fill:rgb(0%,0%,0%);fill-opacity:1;" d="M 62.21875 374.03125 C 61.546875 374.03125 61.046875 374.359375 60.707031 375.015625 C 60.363281 375.671875 60.207031 376.65625 60.207031 377.96875 C 60.207031 379.28125 60.363281 380.265625 60.707031 380.921875 C 61.046875 381.582031 61.546875 381.910156 62.21875 381.910156 C 62.890625 381.910156 63.390625 381.582031 63.730469 380.921875 C 64.058594 380.265625 64.230469 379.28125 64.230469 377.96875 C 64.230469 376.65625 64.058594 375.671875 63.730469 375.015625 C 63.390625 374.359375 62.890625 374.03125 62.21875 374.03125 Z M 62.21875 373.003906 C 63.285156 373.003906 64.101562 373.4375 64.679688 374.277344 C 65.246094 375.132812 65.535156 376.367188 65.535156 377.96875 C 65.535156 379.585938 65.246094 380.820312 64.679688 381.660156 C 64.101562 382.5 63.285156 382.917969 62.207031 382.917969 C 61.125 382.917969 60.308594 382.5 59.746094 381.660156 C 59.179688 380.820312 58.902344 379.585938 58.902344 377.96875 C 58.902344 376.367188 59.179688 375.132812 59.746094 374.277344 C 60.308594 373.4375 61.140625 373.003906 62.21875 373.003906 Z M 62.21875 373.003906 "/>
<path style="fill:none;stroke-width:0.8;stroke-linecap:butt;stroke-linejoin:round;stroke:rgb(0%,0%,0%);stroke-opacity:1;stroke-miterlimit:4;" d="M 106.195156 266.984675 L 106.195156 270.482993 " transform="matrix(1.315789,0,0,1.313131,0,13)"/>
<path style=" stroke:none;fill-rule:nonzero;fill:rgb(0%,0%,0%);fill-opacity:1;" d="M 132.992188 381.660156 L 135.113281 381.660156 L 135.113281 374.359375 L 132.808594 374.816406 L 132.808594 373.636719 L 135.097656 373.175781 L 136.402344 373.175781 L 136.402344 381.660156 L 138.519531 381.660156 L 138.519531 382.75 L 132.992188 382.75 Z M 132.992188 381.660156 "/>
<path style=" stroke:none;fill-rule:nonzero;fill:rgb(0%,0%,0%);fill-opacity:1;" d="M 143.914062 374.03125 C 143.242188 374.03125 142.742188 374.359375 142.402344 375.015625 C 142.058594 375.671875 141.902344 376.65625 141.902344 377.96875 C 141.902344 379.28125 142.058594 380.265625 142.402344 380.921875 C 142.742188 381.582031 143.242188 381.910156 143.914062 381.910156 C 144.585938 381.910156 145.085938 381.582031 145.425781 380.921875 C 145.757812 380.265625 145.925781 379.28125 145.925781 377.96875 C 145.925781 376.65625 145.757812 375.671875 145.425781 375.015625 C 145.085938 374.359375 144.585938 374.03125 143.914062 374.03125 Z M 143.914062 373.003906 C 144.980469 373.003906 145.796875 373.4375 146.375 374.277344 C 146.941406 375.132812 147.230469 376.367188 147.230469 377.96875 C 147.230469 379.585938 146.941406 380.820312 146.375 381.660156 C 145.796875 382.5 144.980469 382.917969 143.902344 382.917969 C 142.824219 382.917969 142.007812 382.5 141.441406 381.660156 C 140.875 380.820312 140.597656 379.585938 140.597656 377.96875 C 140.597656 376.367188 140.875 375.132812 141.441406 374.277344 C 142.007812 373.4375 142.835938 373.003906 143.914062 373.003906 Z M 143.914062 373.003906 "/>
<path style="fill:none;stroke-width:0.8;stroke-linecap:butt;stroke-linejoin:round;stroke:rgb(0%,0%,0%);stroke-opacity:1;stroke-miterlimit:4;" d="M 165.104063 266.984675 L 165.104063 270.482993 " transform="matrix(1.315789,0,0,1.313131,0,13)"/>
<path style=" stroke:none;fill-rule:nonzero;fill:rgb(0%,0%,0%);fill-opacity:1;" d="M 211.398438 381.660156 L 215.925781 381.660156 L 215.925781 382.75 L 209.832031 382.75 L 209.832031 381.660156 C 210.320312 381.160156 210.992188 380.476562 211.847656 379.609375 C 212.6875 378.757812 213.226562 378.207031 213.453125 377.957031 C 213.871094 377.496094 214.160156 377.101562 214.320312 376.773438 C 214.476562 376.460938 214.570312 376.128906 214.570312 375.816406 C 214.570312 375.316406 214.386719 374.894531 214.03125 374.582031 C 213.675781 374.265625 213.214844 374.09375 212.636719 374.09375 C 212.226562 374.09375 211.792969 374.175781 211.347656 374.304688 C 210.898438 374.449219 210.410156 374.660156 209.898438 374.949219 L 209.898438 373.636719 C 210.425781 373.425781 210.910156 373.269531 211.359375 373.164062 C 211.804688 373.058594 212.226562 373.003906 212.609375 373.003906 C 213.597656 373.003906 214.386719 373.253906 214.976562 373.753906 C 215.570312 374.253906 215.871094 374.910156 215.871094 375.738281 C 215.871094 376.128906 215.792969 376.511719 215.648438 376.851562 C 215.503906 377.207031 215.242188 377.628906 214.847656 378.101562 C 214.742188 378.230469 214.398438 378.585938 213.820312 379.175781 C 213.242188 379.769531 212.4375 380.59375 211.398438 381.660156 Z M 211.398438 381.660156 "/>
<path style=" stroke:none;fill-rule:nonzero;fill:rgb(0%,0%,0%);fill-opacity:1;" d="M 221.425781 374.03125 C 220.753906 374.03125 220.253906 374.359375 219.910156 375.015625 C 219.570312 375.671875 219.410156 376.65625 219.410156 377.96875 C 219.410156 379.28125 219.570312 380.265625 219.910156 380.921875 C 220.253906 381.582031 220.753906 381.910156 221.425781 381.910156 C 222.097656 381.910156 222.597656 381.582031 222.9375 380.921875 C 223.265625 380.265625 223.4375 379.28125 223.4375 377.96875 C 223.4375 376.65625 223.265625 375.671875 222.9375 375.015625 C 222.597656 374.359375 222.097656 374.03125 221.425781 374.03125 Z M 221.425781 373.003906 C 222.492188 373.003906 223.304688 373.4375 223.886719 374.277344 C 224.453125 375.132812 224.742188 376.367188 224.742188 377.96875 C 224.742188 379.585938 224.453125 380.820312 223.886719 381.660156 C 223.304688 382.5 222.492188 382.917969 221.410156 382.917969 C 220.332031 382.917969 219.515625 382.5 218.953125 381.660156 C 218.386719 380.820312 218.109375 379.585938 218.109375 377.96875 C 218.109375 376.367188 218.386719 375.132812 218.953125 374.277344 C 219.515625 373.4375 220.347656 373.003906 221.425781 373.003906 Z M 221.425781 373.003906 "/>
<path style="fill:none;stroke-width:0.8;stroke-linecap:butt;stroke-linejoin:round;stroke:rgb(0%,0%,0%);stroke-opacity:1;stroke-miterlimit:4;" d="M 224.01 266.984675 L 224.01 270.482993 " transform="matrix(1.315789,0,0,1.313131,0,13)"/>
<path style=" stroke:none;fill-rule:nonzero;fill:rgb(0%,0%,0%);fill-opacity:1;" d="M 291.726562 377.589844 C 292.34375 377.71875 292.832031 377.996094 293.171875 378.414062 C 293.515625 378.835938 293.699219 379.359375 293.699219 379.964844 C 293.699219 380.910156 293.371094 381.644531 292.726562 382.15625 C 292.070312 382.671875 291.148438 382.917969 289.949219 382.917969 C 289.542969 382.917969 289.121094 382.878906 288.699219 382.800781 C 288.277344 382.734375 287.832031 382.617188 287.382812 382.460938 L 287.382812 381.210938 C 287.738281 381.421875 288.132812 381.582031 288.570312 381.683594 C 288.988281 381.789062 289.4375 381.84375 289.910156 381.84375 C 290.726562 381.84375 291.34375 381.683594 291.765625 381.371094 C 292.1875 381.054688 292.410156 380.582031 292.410156 379.964844 C 292.410156 379.414062 292.214844 378.96875 291.820312 378.652344 C 291.421875 378.335938 290.871094 378.167969 290.160156 378.167969 L 289.042969 378.167969 L 289.042969 377.101562 L 290.214844 377.101562 C 290.84375 377.101562 291.332031 376.984375 291.671875 376.722656 C 292.015625 376.472656 292.1875 376.105469 292.1875 375.617188 C 292.1875 375.132812 292.003906 374.75 291.660156 374.488281 C 291.304688 374.226562 290.804688 374.09375 290.160156 374.09375 C 289.804688 374.09375 289.421875 374.132812 289.015625 374.214844 C 288.609375 374.292969 288.160156 374.410156 287.671875 374.566406 L 287.671875 373.414062 C 288.160156 373.28125 288.621094 373.175781 289.054688 373.109375 C 289.476562 373.042969 289.882812 373.003906 290.277344 373.003906 C 291.253906 373.003906 292.027344 373.230469 292.609375 373.675781 C 293.1875 374.121094 293.476562 374.726562 293.476562 375.488281 C 293.476562 376.011719 293.320312 376.460938 293.015625 376.828125 C 292.714844 377.195312 292.277344 377.457031 291.726562 377.589844 Z M 291.726562 377.589844 "/>
<path style=" stroke:none;fill-rule:nonzero;fill:rgb(0%,0%,0%);fill-opacity:1;" d="M 298.9375 374.03125 C 298.265625 374.03125 297.765625 374.359375 297.421875 375.015625 C 297.082031 375.671875 296.921875 376.65625 296.921875 377.96875 C 296.921875 379.28125 297.082031 380.265625 297.421875 380.921875 C 297.765625 381.582031 298.265625 381.910156 298.9375 381.910156 C 299.609375 381.910156 300.109375 381.582031 300.449219 380.921875 C 300.777344 380.265625 300.949219 379.28125 300.949219 377.96875 C 300.949219 376.65625 300.777344 375.671875 300.449219 375.015625 C 300.109375 374.359375 299.609375 374.03125 298.9375 374.03125 Z M 298.9375 373.003906 C 300.003906 373.003906 300.820312 373.4375 301.398438 374.277344 C 301.964844 375.132812 302.253906 376.367188 302.253906 377.96875 C 302.253906 379.585938 301.964844 380.820312 301.398438 381.660156 C 300.820312 382.5 300.003906 382.917969 298.921875 382.917969 C 297.84375 382.917969 297.027344 382.5 296.464844 381.660156 C 295.898438 380.820312 295.621094 379.585938 295.621094 377.96875 C 295.621094 376.367188 295.898438 375.132812 296.464844 374.277344 C 297.027344 373.4375 297.859375 373.003906 298.9375 373.003906 Z M 298.9375 373.003906 "/>
<path style="fill:none;stroke-width:0.8;stroke-linecap:butt;stroke-linejoin:round;stroke:rgb(0%,0%,0%);stroke-opacity:1;stroke-miterlimit:4;" d="M 282.918906 266.984675 L 282.918906 270.482993 " transform="matrix(1.315789,0,0,1.313131,0,13)"/>
<path style=" stroke:none;fill-rule:nonzero;fill:rgb(0%,0%,0%);fill-opacity:1;" d="M 368.867188 374.304688 L 365.59375 379.414062 L 368.867188 379.414062 Z M 368.527344 373.175781 L 370.15625 373.175781 L 370.15625 379.414062 L 371.527344 379.414062 L 371.527344 380.492188 L 370.15625 380.492188 L 370.15625 382.75 L 368.867188 382.75 L 368.867188 380.492188 L 364.539062 380.492188 L 364.539062 379.242188 Z M 368.527344 373.175781 "/>
<path style=" stroke:none;fill-rule:nonzero;fill:rgb(0%,0%,0%);fill-opacity:1;" d="M 376.449219 374.03125 C 375.777344 374.03125 375.277344 374.359375 374.933594 375.015625 C 374.59375 375.671875 374.433594 376.65625 374.433594 377.96875 C 374.433594 379.28125 374.59375 380.265625 374.933594 380.921875 C 375.277344 381.582031 375.777344 381.910156 376.449219 381.910156 C 377.117188 381.910156 377.617188 381.582031 377.960938 380.921875 C 378.289062 380.265625 378.460938 379.28125 378.460938 377.96875 C 378.460938 376.65625 378.289062 375.671875 377.960938 375.015625 C 377.617188 374.359375 377.117188 374.03125 376.449219 374.03125 Z M 376.449219 373.003906 C 377.511719 373.003906 378.328125 373.4375 378.90625 374.277344 C 379.472656 375.132812 379.761719 376.367188 379.761719 377.96875 C 379.761719 379.585938 379.472656 380.820312 378.90625 381.660156 C 378.328125 382.5 377.511719 382.917969 376.433594 382.917969 C 375.355469 382.917969 374.539062 382.5 373.972656 381.660156 C 373.40625 380.820312 373.132812 379.585938 373.132812 377.96875 C 373.132812 376.367188 373.40625 375.132812 373.972656 374.277344 C 374.539062 373.4375 375.367188 373.003906 376.449219 373.003906 Z M 376.449219 373.003906 "/>
<path style=" stroke:none;fill-rule:nonzero;fill:rgb(0%,0%,0%);fill-opacity:1;" d="M 197.046875 391.128906 L 205.152344 391.128906 L 205.152344 392.21875 L 201.746094 392.21875 L 201.746094 400.703125 L 200.445312 400.703125 L 200.445312 392.21875 L 197.046875 392.21875 Z M 197.046875 391.128906 "/>
<path style=" stroke:none;fill-rule:nonzero;fill:rgb(0%,0%,0%);fill-opacity:1;" d="M 205.960938 393.519531 L 207.144531 393.519531 L 207.144531 400.703125 L 205.960938 400.703125 Z M 205.960938 390.722656 L 207.144531 390.722656 L 207.144531 392.21875 L 205.960938 392.21875 Z M 205.960938 390.722656 "/>
<path style=" stroke:none;fill-rule:nonzero;fill:rgb(0%,0%,0%);fill-opacity:1;" d="M 215.222656 394.898438 C 215.511719 394.371094 215.867188 393.992188 216.277344 393.730469 C 216.683594 393.480469 217.171875 393.347656 217.738281 393.347656 C 218.472656 393.347656 219.050781 393.609375 219.460938 394.136719 C 219.867188 394.660156 220.078125 395.410156 220.078125 396.367188 L 220.078125 400.703125 L 218.894531 400.703125 L 218.894531 396.40625 C 218.894531 395.726562 218.761719 395.214844 218.527344 394.871094 C 218.277344 394.542969 217.90625 394.371094 217.40625 394.371094 C 216.789062 394.371094 216.300781 394.582031 215.949219 394.988281 C 215.59375 395.398438 215.421875 395.949219 215.421875 396.644531 L 215.421875 400.703125 L 214.238281 400.703125 L 214.238281 396.40625 C 214.238281 395.726562 214.105469 395.214844 213.867188 394.871094 C 213.617188 394.542969 213.238281 394.371094 212.738281 394.371094 C 212.132812 394.371094 211.644531 394.582031 211.289062 394.988281 C 210.933594 395.398438 210.761719 395.949219 210.761719 396.644531 L 210.761719 400.703125 L 209.578125 400.703125 L 209.578125 393.519531 L 210.761719 393.519531 L 210.761719 394.636719 C 211.027344 394.203125 211.355469 393.875 211.738281 393.664062 C 212.105469 393.453125 212.550781 393.347656 213.078125 393.347656 C 213.605469 393.347656 214.039062 393.480469 214.40625 393.742188 C 214.777344 394.003906 215.039062 394.398438 215.222656 394.898438 Z M 215.222656 394.898438 "/>
<path style=" stroke:none;fill-rule:nonzero;fill:rgb(0%,0%,0%);fill-opacity:1;" d="M 228.59375 396.816406 L 228.59375 397.394531 L 223.15625 397.394531 C 223.210938 398.207031 223.449219 398.835938 223.894531 399.257812 C 224.328125 399.679688 224.933594 399.886719 225.722656 399.886719 C 226.171875 399.886719 226.617188 399.835938 227.039062 399.730469 C 227.460938 399.625 227.894531 399.453125 228.316406 399.21875 L 228.316406 400.335938 C 227.894531 400.519531 227.460938 400.664062 227.011719 400.742188 C 226.566406 400.820312 226.105469 400.871094 225.65625 400.871094 C 224.5 400.871094 223.59375 400.542969 222.921875 399.886719 C 222.25 399.230469 221.921875 398.324219 221.921875 397.183594 C 221.921875 396.015625 222.238281 395.082031 222.867188 394.386719 C 223.5 393.703125 224.367188 393.347656 225.449219 393.347656 C 226.421875 393.347656 227.183594 393.664062 227.75 394.28125 C 228.300781 394.910156 228.59375 395.75 228.59375 396.816406 Z M 227.40625 396.472656 C 227.394531 395.832031 227.210938 395.316406 226.867188 394.925781 C 226.511719 394.542969 226.039062 394.347656 225.460938 394.347656 C 224.800781 394.347656 224.277344 394.542969 223.882812 394.910156 C 223.488281 395.277344 223.25 395.804688 223.199219 396.472656 Z M 227.40625 396.472656 "/>
<path style=" stroke:none;fill-rule:nonzero;fill:rgb(0%,0%,0%);fill-opacity:1;" d="M 234.605469 390.722656 L 237.328125 390.722656 L 237.328125 391.640625 L 235.789062 391.640625 L 235.789062 401.503906 L 237.328125 401.503906 L 237.328125 402.421875 L 234.605469 402.421875 Z M 234.605469 390.722656 "/>
<path style=" stroke:none;fill-rule:nonzero;fill:rgb(0%,0%,0%);fill-opacity:1;" d="M 244.433594 393.730469 L 244.433594 394.84375 C 244.09375 394.6875 243.75 394.554688 243.394531 394.464844 C 243.027344 394.386719 242.65625 394.332031 242.277344 394.332031 C 241.683594 394.332031 241.238281 394.425781 240.949219 394.609375 C 240.65625 394.792969 240.511719 395.054688 240.511719 395.410156 C 240.511719 395.6875 240.617188 395.894531 240.828125 396.054688 C 241.039062 396.210938 241.460938 396.367188 242.09375 396.5 L 242.5 396.59375 C 243.34375 396.777344 243.933594 397.039062 244.289062 397.355469 C 244.632812 397.683594 244.816406 398.140625 244.816406 398.71875 C 244.816406 399.390625 244.550781 399.914062 244.027344 400.296875 C 243.5 400.6875 242.761719 400.871094 241.84375 400.871094 C 241.449219 400.871094 241.050781 400.832031 240.632812 400.769531 C 240.210938 400.703125 239.777344 400.597656 239.316406 400.4375 L 239.316406 399.21875 C 239.75 399.453125 240.183594 399.625 240.605469 399.730469 C 241.027344 399.847656 241.449219 399.902344 241.867188 399.902344 C 242.421875 399.902344 242.855469 399.808594 243.15625 399.625 C 243.449219 399.441406 243.605469 399.164062 243.605469 398.8125 C 243.605469 398.496094 243.488281 398.246094 243.277344 398.074219 C 243.066406 397.90625 242.59375 397.734375 241.855469 397.578125 L 241.449219 397.484375 C 240.710938 397.328125 240.171875 397.089844 239.855469 396.777344 C 239.527344 396.460938 239.367188 396.027344 239.367188 395.460938 C 239.367188 394.792969 239.605469 394.269531 240.078125 393.898438 C 240.550781 393.53125 241.238281 393.347656 242.132812 393.347656 C 242.566406 393.347656 242.972656 393.386719 243.367188 393.453125 C 243.75 393.519531 244.105469 393.609375 244.433594 393.730469 Z M 244.433594 393.730469 "/>
<path style=" stroke:none;fill-rule:nonzero;fill:rgb(0%,0%,0%);fill-opacity:1;" d="M 249.460938 390.722656 L 249.460938 402.421875 L 246.738281 402.421875 L 246.738281 401.503906 L 248.277344 401.503906 L 248.277344 391.640625 L 246.738281 391.640625 L 246.738281 390.722656 Z M 249.460938 390.722656 "/>
<path style="fill:none;stroke-width:0.8;stroke-linecap:butt;stroke-linejoin:round;stroke:rgb(0%,0%,0%);stroke-opacity:1;stroke-miterlimit:4;" d="M 37.103438 229.18143 L 33.603281 229.18143 " transform="matrix(1.315789,0,0,1.313131,0,13)"/>
<path style=" stroke:none;fill-rule:nonzero;fill:rgb(0%,0%,0%);fill-opacity:1;" d="M 20.3125 317.839844 L 22.429688 317.839844 L 22.429688 310.539062 L 20.128906 310.996094 L 20.128906 309.816406 L 22.417969 309.355469 L 23.722656 309.355469 L 23.722656 317.839844 L 25.839844 317.839844 L 25.839844 318.929688 L 20.3125 318.929688 Z M 20.3125 317.839844 "/>
<path style=" stroke:none;fill-rule:nonzero;fill:rgb(0%,0%,0%);fill-opacity:1;" d="M 28.457031 317.300781 L 29.8125 317.300781 L 29.8125 318.929688 L 28.457031 318.929688 Z M 28.457031 317.300781 "/>
<path style=" stroke:none;fill-rule:nonzero;fill:rgb(0%,0%,0%);fill-opacity:1;" d="M 35.417969 310.207031 C 34.746094 310.207031 34.246094 310.539062 33.90625 311.195312 C 33.5625 311.851562 33.40625 312.835938 33.40625 314.148438 C 33.40625 315.460938 33.5625 316.445312 33.90625 317.101562 C 34.246094 317.757812 34.746094 318.085938 35.417969 318.085938 C 36.089844 318.085938 36.589844 317.757812 36.929688 317.101562 C 37.261719 316.445312 37.429688 315.460938 37.429688 314.148438 C 37.429688 312.835938 37.261719 311.851562 36.929688 311.195312 C 36.589844 310.539062 36.089844 310.207031 35.417969 310.207031 Z M 35.417969 309.183594 C 36.484375 309.183594 37.300781 309.617188 37.878906 310.457031 C 38.445312 311.3125 38.734375 312.546875 38.734375 314.148438 C 38.734375 315.761719 38.445312 316.996094 37.878906 317.839844 C 37.300781 318.679688 36.484375 319.097656 35.40625 319.097656 C 34.328125 319.097656 33.511719 318.679688 32.945312 317.839844 C 32.378906 316.996094 32.101562 315.761719 32.101562 314.148438 C 32.101562 312.546875 32.378906 311.3125 32.945312 310.457031 C 33.511719 309.617188 34.339844 309.183594 35.417969 309.183594 Z M 35.417969 309.183594 "/>
<path style="fill:none;stroke-width:0.8;stroke-linecap:butt;stroke-linejoin:round;stroke:rgb(0%,0%,0%);stroke-opacity:1;stroke-miterlimit:4;" d="M 37.103438 181.704267 L 33.603281 181.704267 " transform="matrix(1.315789,0,0,1.313131,0,13)"/>
<path style=" stroke:none;fill-rule:nonzero;fill:rgb(0%,0%,0%);fill-opacity:1;" d="M 20.3125 255.496094 L 22.429688 255.496094 L 22.429688 248.195312 L 20.128906 248.65625 L 20.128906 247.472656 L 22.417969 247.015625 L 23.722656 247.015625 L 23.722656 255.496094 L 25.839844 255.496094 L 25.839844 256.585938 L 20.3125 256.585938 Z M 20.3125 255.496094 "/>
<path style=" stroke:none;fill-rule:nonzero;fill:rgb(0%,0%,0%);fill-opacity:1;" d="M 28.457031 254.957031 L 29.8125 254.957031 L 29.8125 256.585938 L 28.457031 256.585938 Z M 28.457031 254.957031 "/>
<path style=" stroke:none;fill-rule:nonzero;fill:rgb(0%,0%,0%);fill-opacity:1;" d="M 32.65625 247.015625 L 37.746094 247.015625 L 37.746094 248.105469 L 33.839844 248.105469 L 33.839844 250.453125 C 34.023438 250.390625 34.222656 250.335938 34.40625 250.308594 C 34.589844 250.285156 34.785156 250.257812 34.972656 250.257812 C 36.035156 250.257812 36.878906 250.558594 37.511719 251.136719 C 38.140625 251.730469 38.457031 252.515625 38.457031 253.515625 C 38.457031 254.550781 38.128906 255.351562 37.484375 255.917969 C 36.839844 256.480469 35.929688 256.757812 34.773438 256.757812 C 34.367188 256.757812 33.957031 256.71875 33.535156 256.664062 C 33.117188 256.601562 32.695312 256.507812 32.246094 256.363281 L 32.246094 255.0625 C 32.628906 255.273438 33.023438 255.429688 33.445312 255.535156 C 33.851562 255.640625 34.285156 255.679688 34.746094 255.679688 C 35.484375 255.679688 36.078125 255.496094 36.511719 255.101562 C 36.929688 254.710938 37.15625 254.183594 37.15625 253.515625 C 37.15625 252.859375 36.929688 252.332031 36.511719 251.9375 C 36.078125 251.542969 35.484375 251.347656 34.746094 251.347656 C 34.40625 251.347656 34.050781 251.386719 33.707031 251.464844 C 33.367188 251.542969 33.011719 251.664062 32.65625 251.820312 Z M 32.65625 247.015625 "/>
<path style="fill:none;stroke-width:0.8;stroke-linecap:butt;stroke-linejoin:round;stroke:rgb(0%,0%,0%);stroke-opacity:1;stroke-miterlimit:4;" d="M 37.103438 134.230078 L 33.603281 134.230078 " transform="matrix(1.315789,0,0,1.313131,0,13)"/>
<path style=" stroke:none;fill-rule:nonzero;fill:rgb(0%,0%,0%);fill-opacity:1;" d="M 21.207031 193.15625 L 25.734375 193.15625 L 25.734375 194.246094 L 19.640625 194.246094 L 19.640625 193.15625 C 20.128906 192.65625 20.800781 191.972656 21.65625 191.109375 C 22.496094 190.253906 23.035156 189.703125 23.261719 189.453125 C 23.679688 188.992188 23.972656 188.601562 24.128906 188.273438 C 24.285156 187.957031 24.378906 187.628906 24.378906 187.3125 C 24.378906 186.8125 24.195312 186.394531 23.839844 186.078125 C 23.484375 185.761719 23.023438 185.59375 22.445312 185.59375 C 22.035156 185.59375 21.601562 185.671875 21.15625 185.804688 C 20.707031 185.949219 20.222656 186.15625 19.707031 186.445312 L 19.707031 185.132812 C 20.234375 184.921875 20.722656 184.765625 21.167969 184.660156 C 21.617188 184.554688 22.035156 184.503906 22.417969 184.503906 C 23.40625 184.503906 24.195312 184.753906 24.785156 185.25 C 25.378906 185.75 25.679688 186.40625 25.679688 187.234375 C 25.679688 187.628906 25.601562 188.007812 25.457031 188.351562 C 25.3125 188.703125 25.050781 189.125 24.65625 189.597656 C 24.550781 189.730469 24.207031 190.082031 23.628906 190.675781 C 23.050781 191.265625 22.246094 192.09375 21.207031 193.15625 Z M 21.207031 193.15625 "/>
<path style=" stroke:none;fill-rule:nonzero;fill:rgb(0%,0%,0%);fill-opacity:1;" d="M 28.457031 192.617188 L 29.8125 192.617188 L 29.8125 194.246094 L 28.457031 194.246094 Z M 28.457031 192.617188 "/>
<path style=" stroke:none;fill-rule:nonzero;fill:rgb(0%,0%,0%);fill-opacity:1;" d="M 35.417969 185.527344 C 34.746094 185.527344 34.246094 185.855469 33.90625 186.511719 C 33.5625 187.167969 33.40625 188.152344 33.40625 189.464844 C 33.40625 190.78125 33.5625 191.765625 33.90625 192.421875 C 34.246094 193.078125 34.746094 193.40625 35.417969 193.40625 C 36.089844 193.40625 36.589844 193.078125 36.929688 192.421875 C 37.261719 191.765625 37.429688 190.78125 37.429688 189.464844 C 37.429688 188.152344 37.261719 187.167969 36.929688 186.511719 C 36.589844 185.855469 36.089844 185.527344 35.417969 185.527344 Z M 35.417969 184.503906 C 36.484375 184.503906 37.300781 184.9375 37.878906 185.777344 C 38.445312 186.628906 38.734375 187.863281 38.734375 189.464844 C 38.734375 191.082031 38.445312 192.316406 37.878906 193.15625 C 37.300781 193.996094 36.484375 194.417969 35.40625 194.417969 C 34.328125 194.417969 33.511719 193.996094 32.945312 193.15625 C 32.378906 192.316406 32.101562 191.082031 32.101562 189.464844 C 32.101562 187.863281 32.378906 186.628906 32.945312 185.777344 C 33.511719 184.9375 34.339844 184.503906 35.417969 184.503906 Z M 35.417969 184.503906 "/>
<path style="fill:none;stroke-width:0.8;stroke-linecap:butt;stroke-linejoin:round;stroke:rgb(0%,0%,0%);stroke-opacity:1;stroke-miterlimit:4;" d="M 37.103438 86.755889 L 33.603281 86.755889 " transform="matrix(1.315789,0,0,1.313131,0,13)"/>
<path style=" stroke:none;fill-rule:nonzero;fill:rgb(0%,0%,0%);fill-opacity:1;" d="M 21.207031 130.816406 L 25.734375 130.816406 L 25.734375 131.90625 L 19.640625 131.90625 L 19.640625 130.816406 C 20.128906 130.316406 20.800781 129.632812 21.65625 128.765625 C 22.496094 127.914062 23.035156 127.363281 23.261719 127.113281 C 23.679688 126.652344 23.972656 126.257812 24.128906 125.929688 C 24.285156 125.617188 24.378906 125.289062 24.378906 124.972656 C 24.378906 124.472656 24.195312 124.054688 23.839844 123.738281 C 23.484375 123.421875 23.023438 123.25 22.445312 123.25 C 22.035156 123.25 21.601562 123.332031 21.15625 123.460938 C 20.707031 123.605469 20.222656 123.816406 19.707031 124.105469 L 19.707031 122.792969 C 20.234375 122.582031 20.722656 122.425781 21.167969 122.320312 C 21.617188 122.214844 22.035156 122.160156 22.417969 122.160156 C 23.40625 122.160156 24.195312 122.410156 24.785156 122.910156 C 25.378906 123.410156 25.679688 124.066406 25.679688 124.894531 C 25.679688 125.289062 25.601562 125.667969 25.457031 126.007812 C 25.3125 126.363281 25.050781 126.785156 24.65625 127.257812 C 24.550781 127.386719 24.207031 127.742188 23.628906 128.332031 C 23.050781 128.925781 22.246094 129.75 21.207031 130.816406 Z M 21.207031 130.816406 "/>
<path style=" stroke:none;fill-rule:nonzero;fill:rgb(0%,0%,0%);fill-opacity:1;" d="M 28.457031 130.277344 L 29.8125 130.277344 L 29.8125 131.90625 L 28.457031 131.90625 Z M 28.457031 130.277344 "/>
<path style=" stroke:none;fill-rule:nonzero;fill:rgb(0%,0%,0%);fill-opacity:1;" d="M 32.65625 122.332031 L 37.746094 122.332031 L 37.746094 123.421875 L 33.839844 123.421875 L 33.839844 125.773438 C 34.023438 125.707031 34.222656 125.65625 34.40625 125.628906 C 34.589844 125.601562 34.785156 125.574219 34.972656 125.574219 C 36.035156 125.574219 36.878906 125.878906 37.511719 126.457031 C 38.140625 127.046875 38.457031 127.835938 38.457031 128.832031 C 38.457031 129.871094 38.128906 130.671875 37.484375 131.234375 C 36.839844 131.800781 35.929688 132.074219 34.773438 132.074219 C 34.367188 132.074219 33.957031 132.035156 33.535156 131.984375 C 33.117188 131.917969 32.695312 131.828125 32.246094 131.683594 L 32.246094 130.382812 C 32.628906 130.59375 33.023438 130.75 33.445312 130.855469 C 33.851562 130.960938 34.285156 131 34.746094 131 C 35.484375 131 36.078125 130.816406 36.511719 130.421875 C 36.929688 130.027344 37.15625 129.503906 37.15625 128.832031 C 37.15625 128.175781 36.929688 127.652344 36.511719 127.257812 C 36.078125 126.863281 35.484375 126.664062 34.746094 126.664062 C 34.40625 126.664062 34.050781 126.707031 33.707031 126.785156 C 33.367188 126.863281 33.011719 126.980469 32.65625 127.140625 Z M 32.65625 122.332031 "/>
<path style="fill:none;stroke-width:0.8;stroke-linecap:butt;stroke-linejoin:round;stroke:rgb(0%,0%,0%);stroke-opacity:1;stroke-miterlimit:4;" d="M 37.103438 39.278726 L 33.603281 39.278726 " transform="matrix(1.315789,0,0,1.313131,0,13)"/>
<path style=" stroke:none;fill-rule:nonzero;fill:rgb(0%,0%,0%);fill-opacity:1;" d="M 24.023438 64.40625 C 24.640625 64.535156 25.128906 64.8125 25.472656 65.234375 C 25.8125 65.652344 25.996094 66.179688 25.996094 66.78125 C 25.996094 67.726562 25.667969 68.460938 25.023438 68.976562 C 24.367188 69.488281 23.445312 69.738281 22.246094 69.738281 C 21.839844 69.738281 21.417969 69.695312 20.996094 69.617188 C 20.578125 69.550781 20.128906 69.433594 19.679688 69.277344 L 19.679688 68.03125 C 20.035156 68.238281 20.429688 68.398438 20.867188 68.503906 C 21.285156 68.605469 21.734375 68.660156 22.207031 68.660156 C 23.023438 68.660156 23.640625 68.503906 24.0625 68.1875 C 24.484375 67.871094 24.707031 67.398438 24.707031 66.78125 C 24.707031 66.230469 24.511719 65.785156 24.117188 65.46875 C 23.722656 65.152344 23.167969 64.984375 22.457031 64.984375 L 21.339844 64.984375 L 21.339844 63.917969 L 22.511719 63.917969 C 23.140625 63.917969 23.628906 63.800781 23.972656 63.539062 C 24.3125 63.289062 24.484375 62.921875 24.484375 62.433594 C 24.484375 61.949219 24.300781 61.570312 23.957031 61.304688 C 23.601562 61.042969 23.101562 60.914062 22.457031 60.914062 C 22.101562 60.914062 21.722656 60.953125 21.3125 61.03125 C 20.90625 61.109375 20.457031 61.226562 19.972656 61.386719 L 19.972656 60.230469 C 20.457031 60.097656 20.917969 59.992188 21.351562 59.925781 C 21.773438 59.863281 22.179688 59.824219 22.578125 59.824219 C 23.550781 59.824219 24.328125 60.046875 24.90625 60.492188 C 25.484375 60.9375 25.773438 61.542969 25.773438 62.304688 C 25.773438 62.828125 25.617188 63.277344 25.3125 63.644531 C 25.011719 64.011719 24.578125 64.273438 24.023438 64.40625 Z M 24.023438 64.40625 "/>
<path style=" stroke:none;fill-rule:nonzero;fill:rgb(0%,0%,0%);fill-opacity:1;" d="M 28.457031 67.9375 L 29.8125 67.9375 L 29.8125 69.566406 L 28.457031 69.566406 Z M 28.457031 67.9375 "/>
<path style=" stroke:none;fill-rule:nonzero;fill:rgb(0%,0%,0%);fill-opacity:1;" d="M 35.417969 60.847656 C 34.746094 60.847656 34.246094 61.175781 33.90625 61.832031 C 33.5625 62.488281 33.40625 63.472656 33.40625 64.785156 C 33.40625 66.097656 33.5625 67.082031 33.90625 67.742188 C 34.246094 68.398438 34.746094 68.726562 35.417969 68.726562 C 36.089844 68.726562 36.589844 68.398438 36.929688 67.742188 C 37.261719 67.082031 37.429688 66.097656 37.429688 64.785156 C 37.429688 63.472656 37.261719 62.488281 36.929688 61.832031 C 36.589844 61.175781 36.089844 60.847656 35.417969 60.847656 Z M 35.417969 59.824219 C 36.484375 59.824219 37.300781 60.253906 37.878906 61.097656 C 38.445312 61.949219 38.734375 63.183594 38.734375 64.785156 C 38.734375 66.402344 38.445312 67.636719 37.878906 68.476562 C 37.300781 69.316406 36.484375 69.738281 35.40625 69.738281 C 34.328125 69.738281 33.511719 69.316406 32.945312 68.476562 C 32.378906 67.636719 32.101562 66.402344 32.101562 64.785156 C 32.101562 63.183594 32.378906 61.949219 32.945312 61.097656 C 33.511719 60.253906 34.339844 59.824219 35.417969 59.824219 Z M 35.417969 59.824219 "/>
<path style=" stroke:none;fill-rule:nonzero;fill:rgb(0%,0%,0%);fill-opacity:1;" d="M 1.40625 221.683594 L 2.671875 221.683594 C 2.433594 222.183594 2.261719 222.644531 2.144531 223.078125 C 2.039062 223.523438 1.972656 223.945312 1.972656 224.339844 C 1.972656 225.046875 2.117188 225.597656 2.382812 225.980469 C 2.65625 226.359375 3.050781 226.542969 3.550781 226.542969 C 3.972656 226.542969 4.300781 226.425781 4.511719 226.164062 C 4.738281 225.914062 4.90625 225.429688 5.039062 224.71875 L 5.199219 223.929688 C 5.382812 222.972656 5.710938 222.261719 6.171875 221.804688 C 6.644531 221.34375 7.261719 221.109375 8.039062 221.109375 C 8.972656 221.109375 9.671875 221.421875 10.144531 222.039062 C 10.617188 222.671875 10.855469 223.578125 10.855469 224.769531 C 10.855469 225.230469 10.800781 225.714844 10.710938 226.230469 C 10.617188 226.742188 10.472656 227.265625 10.261719 227.804688 L 8.921875 227.804688 C 9.222656 227.28125 9.449219 226.765625 9.59375 226.269531 C 9.75 225.769531 9.816406 225.269531 9.816406 224.769531 C 9.816406 224.035156 9.671875 223.472656 9.382812 223.0625 C 9.09375 222.671875 8.683594 222.460938 8.132812 222.460938 C 7.65625 222.460938 7.289062 222.605469 7.027344 222.894531 C 6.761719 223.183594 6.566406 223.65625 6.433594 224.3125 L 6.277344 225.097656 C 6.09375 226.070312 5.789062 226.765625 5.367188 227.199219 C 4.960938 227.632812 4.394531 227.84375 3.65625 227.84375 C 2.816406 227.84375 2.144531 227.554688 1.65625 226.949219 C 1.171875 226.359375 0.921875 225.53125 0.921875 224.484375 C 0.921875 224.035156 0.960938 223.589844 1.039062 223.117188 C 1.117188 222.65625 1.25 222.183594 1.40625 221.683594 Z M 1.40625 221.683594 "/>
<path style=" stroke:none;fill-rule:nonzero;fill:rgb(0%,0%,0%);fill-opacity:1;" d="M 9.605469 217.996094 L 13.40625 217.996094 L 13.40625 219.175781 L 3.488281 219.175781 L 3.488281 217.996094 L 4.578125 217.996094 C 4.15625 217.757812 3.84375 217.445312 3.632812 217.0625 C 3.421875 216.683594 3.316406 216.222656 3.316406 215.699219 C 3.316406 214.832031 3.671875 214.121094 4.355469 213.570312 C 5.050781 213.03125 5.960938 212.757812 7.09375 212.757812 C 8.222656 212.757812 9.144531 213.03125 9.828125 213.570312 C 10.511719 214.121094 10.855469 214.832031 10.855469 215.699219 C 10.855469 216.222656 10.75 216.683594 10.550781 217.0625 C 10.355469 217.445312 10.039062 217.757812 9.605469 217.996094 Z M 7.09375 213.976562 C 6.222656 213.976562 5.550781 214.160156 5.050781 214.515625 C 4.550781 214.882812 4.300781 215.371094 4.300781 215.988281 C 4.300781 216.617188 4.550781 217.101562 5.050781 217.457031 C 5.550781 217.824219 6.222656 217.996094 7.09375 217.996094 C 7.960938 217.996094 8.644531 217.824219 9.144531 217.457031 C 9.644531 217.101562 9.882812 216.617188 9.882812 215.988281 C 9.882812 215.371094 9.644531 214.882812 9.144531 214.515625 C 8.644531 214.160156 7.960938 213.976562 7.09375 213.976562 Z M 7.09375 213.976562 "/>
<path style=" stroke:none;fill-rule:nonzero;fill:rgb(0%,0%,0%);fill-opacity:1;" d="M 6.789062 204.652344 L 7.367188 204.652344 L 7.367188 210.078125 C 8.183594 210.023438 8.816406 209.789062 9.238281 209.34375 C 9.65625 208.910156 9.867188 208.304688 9.867188 207.515625 C 9.867188 207.070312 9.816406 206.625 9.710938 206.203125 C 9.605469 205.785156 9.433594 205.351562 9.199219 204.929688 L 10.316406 204.929688 C 10.5 205.351562 10.644531 205.785156 10.722656 206.230469 C 10.800781 206.675781 10.855469 207.136719 10.855469 207.582031 C 10.855469 208.738281 10.527344 209.644531 9.867188 210.3125 C 9.210938 210.984375 8.300781 211.3125 7.15625 211.3125 C 5.988281 211.3125 5.050781 210.996094 4.355469 210.367188 C 3.671875 209.734375 3.316406 208.871094 3.316406 207.792969 C 3.316406 206.820312 3.632812 206.058594 4.25 205.496094 C 4.882812 204.941406 5.722656 204.652344 6.789062 204.652344 Z M 6.449219 205.835938 C 5.800781 205.847656 5.289062 206.03125 4.894531 206.375 C 4.511719 206.730469 4.316406 207.203125 4.316406 207.78125 C 4.316406 208.4375 4.511719 208.960938 4.882812 209.355469 C 5.25 209.75 5.777344 209.984375 6.449219 210.039062 Z M 6.449219 205.835938 "/>
<path style=" stroke:none;fill-rule:nonzero;fill:rgb(0%,0%,0%);fill-opacity:1;" d="M 6.789062 196.578125 L 7.367188 196.578125 L 7.367188 202 C 8.183594 201.949219 8.816406 201.710938 9.238281 201.265625 C 9.65625 200.832031 9.867188 200.230469 9.867188 199.441406 C 9.867188 198.996094 9.816406 198.546875 9.710938 198.128906 C 9.605469 197.707031 9.433594 197.273438 9.199219 196.855469 L 10.316406 196.855469 C 10.5 197.273438 10.644531 197.707031 10.722656 198.152344 C 10.800781 198.601562 10.855469 199.058594 10.855469 199.507812 C 10.855469 200.664062 10.527344 201.566406 9.867188 202.238281 C 9.210938 202.90625 8.300781 203.234375 7.15625 203.234375 C 5.988281 203.234375 5.050781 202.921875 4.355469 202.289062 C 3.671875 201.660156 3.316406 200.792969 3.316406 199.714844 C 3.316406 198.746094 3.632812 197.984375 4.25 197.417969 C 4.882812 196.867188 5.722656 196.578125 6.789062 196.578125 Z M 6.449219 197.761719 C 5.800781 197.773438 5.289062 197.957031 4.894531 198.296875 C 4.511719 198.652344 4.316406 199.125 4.316406 199.703125 C 4.316406 200.359375 4.511719 200.886719 4.882812 201.28125 C 5.25 201.671875 5.777344 201.910156 6.449219 201.960938 Z M 6.449219 197.761719 "/>
<path style=" stroke:none;fill-rule:nonzero;fill:rgb(0%,0%,0%);fill-opacity:1;" d="M 4.578125 189.921875 L 0.683594 189.921875 L 0.683594 188.738281 L 10.683594 188.738281 L 10.683594 189.921875 L 9.605469 189.921875 C 10.039062 190.171875 10.355469 190.484375 10.550781 190.867188 C 10.75 191.246094 10.855469 191.695312 10.855469 192.21875 C 10.855469 193.085938 10.511719 193.792969 9.828125 194.347656 C 9.144531 194.898438 8.222656 195.160156 7.09375 195.160156 C 5.960938 195.160156 5.050781 194.898438 4.355469 194.347656 C 3.671875 193.792969 3.316406 193.085938 3.316406 192.21875 C 3.316406 191.695312 3.421875 191.246094 3.632812 190.867188 C 3.84375 190.484375 4.15625 190.171875 4.578125 189.921875 Z M 7.09375 193.9375 C 7.960938 193.9375 8.644531 193.769531 9.144531 193.414062 C 9.644531 193.058594 9.882812 192.574219 9.882812 191.941406 C 9.882812 191.3125 9.644531 190.828125 9.144531 190.460938 C 8.644531 190.105469 7.960938 189.921875 7.09375 189.921875 C 6.222656 189.921875 5.550781 190.105469 5.050781 190.460938 C 4.550781 190.828125 4.300781 191.3125 4.300781 191.941406 C 4.300781 192.574219 4.550781 193.058594 5.050781 193.414062 C 5.550781 193.769531 6.222656 193.9375 7.09375 193.9375 Z M 7.09375 193.9375 "/>
<path style=" stroke:none;fill-rule:nonzero;fill:rgb(0%,0%,0%);fill-opacity:1;" d="M 0.683594 182.238281 L 0.683594 179.519531 L 1.605469 179.519531 L 1.605469 181.058594 L 11.488281 181.058594 L 11.488281 179.519531 L 12.40625 179.519531 L 12.40625 182.238281 Z M 0.683594 182.238281 "/>
<path style=" stroke:none;fill-rule:nonzero;fill:rgb(0%,0%,0%);fill-opacity:1;" d="M 4.867188 171.417969 C 4.34375 171.128906 3.960938 170.773438 3.699219 170.367188 C 3.449219 169.960938 3.316406 169.476562 3.316406 168.910156 C 3.316406 168.175781 3.578125 167.597656 4.105469 167.191406 C 4.632812 166.785156 5.382812 166.574219 6.34375 166.574219 L 10.683594 166.574219 L 10.683594 167.753906 L 6.382812 167.753906 C 5.699219 167.753906 5.183594 167.886719 4.84375 168.121094 C 4.511719 168.371094 4.34375 168.738281 4.34375 169.238281 C 4.34375 169.855469 4.550781 170.34375 4.960938 170.695312 C 5.367188 171.050781 5.921875 171.222656 6.617188 171.222656 L 10.683594 171.222656 L 10.683594 172.402344 L 6.382812 172.402344 C 5.699219 172.402344 5.183594 172.535156 4.84375 172.769531 C 4.511719 173.019531 4.34375 173.402344 4.34375 173.902344 C 4.34375 174.503906 4.550781 174.992188 4.960938 175.34375 C 5.367188 175.699219 5.921875 175.871094 6.617188 175.871094 L 10.683594 175.871094 L 10.683594 177.050781 L 3.488281 177.050781 L 3.488281 175.871094 L 4.605469 175.871094 C 4.171875 175.609375 3.84375 175.28125 3.632812 174.898438 C 3.421875 174.53125 3.316406 174.085938 3.316406 173.558594 C 3.316406 173.035156 3.449219 172.601562 3.710938 172.234375 C 3.972656 171.867188 4.367188 171.601562 4.867188 171.417969 Z M 4.867188 171.417969 "/>
<path style=" stroke:none;fill-rule:nonzero;fill:rgb(0%,0%,0%);fill-opacity:1;" d="M 1.09375 162.121094 L 1.09375 161.03125 L 11.894531 164.367188 L 11.894531 165.457031 Z M 1.09375 162.121094 "/>
<path style=" stroke:none;fill-rule:nonzero;fill:rgb(0%,0%,0%);fill-opacity:1;" d="M 3.699219 155.214844 L 4.816406 155.214844 C 4.65625 155.554688 4.527344 155.898438 4.433594 156.253906 C 4.355469 156.621094 4.300781 156.988281 4.300781 157.367188 C 4.300781 157.960938 4.394531 158.40625 4.578125 158.695312 C 4.761719 158.984375 5.027344 159.128906 5.382812 159.128906 C 5.65625 159.128906 5.867188 159.023438 6.027344 158.8125 C 6.183594 158.601562 6.34375 158.183594 6.472656 157.550781 L 6.566406 157.144531 C 6.75 156.304688 7.011719 155.714844 7.328125 155.359375 C 7.65625 155.019531 8.117188 154.832031 8.699219 154.832031 C 9.367188 154.832031 9.894531 155.097656 10.277344 155.621094 C 10.671875 156.148438 10.855469 156.882812 10.855469 157.800781 C 10.855469 158.195312 10.816406 158.589844 10.75 159.007812 C 10.683594 159.429688 10.578125 159.863281 10.421875 160.324219 L 9.199219 160.324219 C 9.433594 159.890625 9.605469 159.457031 9.710938 159.035156 C 9.828125 158.617188 9.882812 158.195312 9.882812 157.773438 C 9.882812 157.222656 9.789062 156.789062 9.605469 156.488281 C 9.421875 156.199219 9.144531 156.042969 8.789062 156.042969 C 8.472656 156.042969 8.222656 156.160156 8.050781 156.371094 C 7.882812 156.582031 7.710938 157.054688 7.550781 157.789062 L 7.460938 158.195312 C 7.300781 158.929688 7.066406 159.46875 6.75 159.785156 C 6.433594 160.113281 6 160.269531 5.433594 160.269531 C 4.761719 160.269531 4.238281 160.035156 3.867188 159.5625 C 3.5 159.089844 3.316406 158.40625 3.316406 157.511719 C 3.316406 157.078125 3.355469 156.671875 3.421875 156.277344 C 3.488281 155.898438 3.578125 155.542969 3.699219 155.214844 Z M 3.699219 155.214844 "/>
<path style=" stroke:none;fill-rule:nonzero;fill:rgb(0%,0%,0%);fill-opacity:1;" d="M 0.683594 150.199219 L 12.40625 150.199219 L 12.40625 152.917969 L 11.488281 152.917969 L 11.488281 151.378906 L 1.605469 151.378906 L 1.605469 152.917969 L 0.683594 152.917969 Z M 0.683594 150.199219 "/>
<path style="fill:none;stroke-width:2.5;stroke-linecap:square;stroke-linejoin:round;stroke:rgb(0%,50.196078%,50.196078%);stroke-opacity:1;stroke-miterlimit:4;" d="M 49.201094 254.889303 L 50.973438 178.604567 L 52.169844 143.279297 L 53.820469 111.348227 L 55.672969 90.111418 L 56.1925 85.485667 L 56.516094 82.195583 L 58.885156 64.091196 L 60.310156 57.374189 L 61.364063 54.164423 L 61.625313 53.551623 L 61.830156 52.971544 L 64.769219 46.834615 L 65.392656 45.897566 L 65.941875 45.070583 L 67.604375 43.371995 L 67.726094 43.371995 L 69.252031 42.437921 L 69.370781 42.250511 L 69.507344 42.289183 L 69.774531 42.072025 L 69.952656 41.929237 L 70.202031 41.747776 L 70.3475 41.747776 L 70.531563 41.566316 L 70.899688 41.316436 L 71.478594 41.203395 L 71.532031 35.569201 L 72.069375 42.283233 L 72.185156 42.250511 L 72.321719 42.351653 L 72.663125 43.476112 L 72.879844 43.654597 L 73.446875 43.839032 L 73.625 43.871755 L 73.734844 43.904477 L 74.542344 42.863311 L 74.990625 41.851893 L 75.961406 40.370463 L 76.204844 40.191977 L 76.320625 39.832031 L 76.768906 39.219231 L 76.917344 39.10619 L 77.977188 39.177584 L 78.312656 39.359044 L 78.671875 39.466136 L 78.959844 39.53753 L 79.001406 39.683293 L 79.271563 39.760637 L 80.741094 39.689243 L 80.8925 39.611899 L 81.174531 39.608924 L 81.495156 39.251953 L 82.189844 39.326322 L 82.430313 39.141887 L 83.160625 38.781941 L 83.395156 38.67485 L 83.695 38.642127 L 83.745469 38.67485 L 83.974063 38.535036 L 84.214531 38.603456 L 84.523281 38.493389 L 84.680625 38.636178 L 84.805313 38.529087 L 85.045781 38.529087 L 85.339688 38.421995 L 85.764219 38.636178 L 85.888906 38.493389 L 85.960156 38.564784 L 87.097188 38.490415 L 87.266406 38.493389 L 87.877969 38.41902 L 88.46875 38.633203 L 88.881406 38.383323 L 89.380156 38.707572 L 90.119375 38.526112 L 91.419688 38.48744 L 91.514688 38.347626 L 91.796719 38.633203 L 91.977813 38.850361 L 92.832813 38.743269 L 94.237031 38.704597 L 94.400313 38.192939 L 94.848594 38.594531 L 95.053438 38.48744 L 95.489844 38.526112 L 96.362656 38.48744 L 96.481406 37.639633 L 96.727813 38.207812 L 96.986094 38.142368 L 98.1825 33.959856 L 98.77625 31.481881 L 99.836094 27.552224 L 99.931094 27.674189 L 100.415 28.126352 L 100.839531 28.840294 L 101.299688 28.043059 L 101.480781 28.64991 L 101.875625 31.148708 L 102.139844 32.514123 L 102.588125 34.974249 L 102.982969 36.753155 L 103.555938 39.84988 L 104.868125 45.692308 L 105.550938 48.467758 L 105.776563 48.673017 L 106.3525 50.06223 L 107.189688 52.03747 L 107.697344 53.016166 L 108.020938 53.798528 L 108.314844 54.078155 L 108.525625 53.947266 L 109.255938 53.405859 L 109.564688 53.507001 L 109.811094 53.495102 L 110.021875 53.060787 L 110.606719 52.555078 L 111.749688 49.943239 L 111.895156 49.886719 L 113.281563 47.277855 L 113.599219 46.563912 L 113.712031 46.433023 L 114.282031 45.234195 L 115.000469 44.124609 L 115.276563 43.089393 L 116.244375 39.436388 L 117.886094 33.126923 L 118.123594 32.555769 L 118.937031 31.877524 L 119.260625 32.151202 L 120.112656 33.483894 L 121.392188 36.669862 L 123.108125 42.970403 L 123.396094 43.609976 L 123.829531 44.707662 L 124.598438 46.325931 L 124.993281 47.370072 L 126.89625 50.948708 L 127.484063 51.397897 L 129.381094 49.077584 L 130.31625 46.840565 L 131.9075 42.414123 L 132.266719 41.402704 L 133.45125 38.255409 L 133.905469 37.615835 L 134.546719 36.753155 L 134.641719 36.791827 L 134.739688 36.669862 L 135.048438 36.619291 L 135.594688 36.336689 L 136.532813 36.339663 L 136.642656 36.5122 L 136.731719 36.38726 L 137.102813 36.411058 L 137.313594 36.220673 L 137.705469 35.679267 L 137.880625 35.738762 L 138.118125 35.372867 L 138.370469 35.884525 L 138.812813 35.744712 L 138.976094 35.938071 L 139.359063 35.76256 L 139.495625 34.545883 L 139.813281 34.560757 L 139.932031 34.516136 L 140.018125 34.328726 L 140.119063 34.438792 L 140.237813 34.251382 L 140.614844 32.841346 L 141.894375 28.548768 L 142.559375 26.989994 L 142.704844 24.354357 L 142.900781 24.410877 L 143.07 24.172897 L 143.248125 24.25024 L 143.423281 24.199669 L 143.776563 24.913612 L 144.171406 26.701442 L 145.332188 35.649519 L 146.94125 54.821845 L 147.389531 59.096575 L 147.837813 62.984585 L 148.850156 73.336749 L 149.1025 74.708113 L 149.274688 74.12506 L 149.616094 76.864814 L 150.854063 85.298257 L 151.296406 87.282422 L 152.430469 89.424249 L 152.662031 90.542758 L 153.059844 97.230018 L 153.427969 100.059014 L 153.6625 100.246424 L 153.908906 99.211208 L 154.146406 96.997987 L 154.4225 93.31226 L 155.782188 55.889784 L 156.218594 46.058203 L 157.361563 27.930018 L 157.821719 23.339964 L 158.15125 20.040956 L 158.587656 18.428636 L 159.10125 17.809886 L 160.119531 21.677073 L 160.737031 26.16896 L 161.532656 31.948918 L 162.004688 33.796244 L 162.723125 35.066466 L 162.856719 35.241977 L 163.046719 35.209255 L 163.322813 35.551352 L 163.717656 35.964844 L 164.011563 37.044681 L 164.189688 37.404627 L 164.673594 39.870703 L 165.308906 43.675421 L 166.110469 51.29973 L 166.573594 57.198678 L 166.956563 62.327163 L 167.440469 66.432332 L 167.636406 68.211238 L 167.942188 68.708023 L 168.081719 68.285607 L 168.313281 68.321304 L 168.464688 67.762049 L 168.868438 67.411028 L 169.607656 65.658894 L 170.16875 67.312861 L 170.522031 69.097716 L 170.670469 69.338672 L 171.561094 72.536538 L 172.012344 72.70015 L 172.220156 72.378876 L 172.478438 72.343179 L 172.736719 71.775 L 173.125625 70.16268 L 173.377969 69.591526 L 173.82625 66.792278 L 174.351719 62.273618 L 174.915781 58.233894 L 175.405625 54.045433 L 175.619375 52.299249 L 175.865781 49.434555 L 176.441719 45.686358 L 177.296719 39.097266 L 178.3625 32.808624 L 178.680156 31.948918 L 179.164063 31.297446 L 179.683594 29.557212 L 180.437656 28.754026 L 180.725625 27.840775 L 180.862188 27.846725 L 181.337188 27.195252 L 181.672656 26.496184 L 182.049688 25.457993 L 182.310938 25.24976 L 182.89875 24.50012 L 183.370781 24.509044 L 183.545938 24.598287 L 183.6825 24.503095 L 184.700781 24.758924 L 184.819531 24.934435 L 184.926406 24.830319 L 186.099063 26.302825 L 186.220781 26.484285 L 186.716563 27.778305 L 186.847188 27.873498 L 187.087656 28.147175 L 187.247969 28.426803 L 187.423125 28.501172 L 187.883281 29.301382 L 188.17125 29.119922 L 188.782813 28.950361 L 189.05 28.751052 L 189.373594 28.239393 L 189.64375 28.263191 L 189.732813 28.346484 L 189.893125 28.21857 L 190.050469 28.304838 L 190.145469 28.21262 L 190.326563 28.411929 L 190.602656 28.652885 L 190.768906 27.373738 L 190.863906 27.204177 L 190.941094 27.355889 L 191.270625 26.624099 L 192.529375 19.844621 L 193.019219 18.175781 L 193.179531 17.851532 L 193.286406 18.06274 L 193.425938 18.06869 L 193.532813 18.297746 L 193.930625 18.407812 L 194.055313 18.883774 L 194.174063 16.828215 L 194.257188 12.966977 L 194.462031 16.417698 L 194.711406 18.80643 L 194.785625 20.632933 L 195.100313 22.224429 L 195.521875 27.269621 L 196.243281 36.934615 L 196.632188 40.673888 L 197.478281 48.494531 L 198.140313 53.03104 L 198.538125 56.951773 L 198.849844 60.369772 L 199.906719 65.325721 L 200.33125 66.738732 L 201.551406 70.760607 L 201.679063 70.885547 L 202.504375 74.029868 L 203.929375 79.208924 L 204.258906 79.667037 L 204.683438 79.797927 L 204.778438 79.76223 L 205.672031 77.147416 L 206.028281 74.383864 L 206.215313 73.580679 L 206.414219 71.605439 L 206.669531 69.552855 L 207.334531 62.261719 L 207.569063 59.58741 L 207.913438 55.175841 L 209.436406 37.413552 L 209.795625 34.691647 L 210.208281 32.862169 L 210.514063 31.591947 L 210.974219 30.205709 L 211.458125 29.38765 L 212.15875 27.445132 L 212.405156 27.183353 L 212.755469 26.766887 L 212.924688 26.778786 L 213.01375 26.951322 L 213.096875 26.734165 L 213.224531 26.903726 L 213.794531 26.790685 L 213.954844 26.966196 L 214.109219 26.817458 L 214.637656 27.956791 L 214.815781 28.063882 L 215.109688 28.789724 L 215.335313 29.146695 L 215.581719 29.381701 L 215.804375 29.426322 L 215.935 29.616707 L 216.264531 30.961298 L 216.86125 32.380258 L 217.220469 33.120974 L 218.173438 35.661418 L 218.354531 35.726863 L 219.788438 37.835968 L 219.927969 37.841917 L 220.040781 37.719952 L 220.177344 37.782422 L 220.500938 37.490895 L 220.981875 36.69366 L 221.260938 36.26232 L 221.453906 35.938071 L 222.068438 34.016376 L 222.769063 31.276623 L 223.175781 29.967728 L 223.356875 29.20619 L 223.935781 27.733684 L 224.122813 27.525451 L 224.312813 27.16253 L 224.428594 27.16253 L 224.654219 26.79366 L 224.989688 26.698468 L 225.12625 26.829357 L 225.565625 25.835787 L 225.72 25.963702 L 225.960469 26.011298 L 226.295938 26.186809 L 226.969844 26.026172 L 227.2875 25.844712 L 227.700156 25.645403 L 227.982188 25.609706 L 228.169219 25.42527 L 228.287969 25.48774 L 228.466094 25.234886 L 228.564063 25.3628 L 228.881719 25.282482 L 229.436875 25.154567 L 229.59125 24.99393 L 230.060313 24.74405 L 230.550156 24.752975 L 230.755 24.842218 L 231.126094 25.008804 L 231.461563 25.086148 L 232.087969 25.508564 L 232.649063 26.091617 L 233.708906 26.73119 L 234.362031 26.680619 L 234.572813 26.618149 L 234.65 26.72524 L 234.774688 26.677644 L 235.015156 26.915625 L 235.145781 26.844231 L 236.229375 27.534375 L 236.318438 27.808053 L 236.452031 27.700962 L 236.636094 27.805078 L 237.200156 27.90027 L 237.265469 28.236418 L 237.402031 28.298888 L 237.844375 27.974639 L 238.013594 28.138251 L 238.096719 27.980589 L 238.28375 28.304838 L 238.408438 28.176923 L 238.533125 28.224519 L 238.954688 28.147175 L 239.037813 28.135276 L 239.150625 28.334585 L 239.527656 28.269141 L 239.634531 28.114453 L 239.80375 28.248317 L 239.89875 28.159075 L 240.317344 28.617188 L 240.442031 28.673708 L 240.575625 28.4625 L 240.664688 28.661809 L 240.807188 28.4625 L 241.059531 28.661809 L 241.234688 28.450601 L 241.49 28.661809 L 241.682969 28.444651 L 241.760156 28.620162 L 241.849219 28.545793 L 242.095625 28.688582 L 242.294531 28.64396 L 242.638906 29.108023 L 243.075313 29.066376 L 243.149531 29.015805 L 243.541406 29.20024 L 243.669063 29.20024 L 243.974844 29.619681 L 244.265781 29.634555 L 244.476563 29.658353 L 245.482969 30.684645 L 245.865938 30.9375 L 246.109375 30.863131 L 246.201406 30.878005 L 246.337969 31.175481 L 246.459688 31.104087 L 246.584375 31.416436 L 246.649688 31.258774 L 247.056406 31.583023 L 247.139531 31.856701 L 247.5225 31.818029 L 247.602656 31.669291 L 248.003438 31.749609 L 248.422031 32.213672 L 248.564531 32.204748 L 248.665469 32.412981 L 248.905938 32.371334 L 249.306719 32.16905 L 249.624375 32.463552 L 249.995469 32.808624 L 250.090469 32.680709 L 250.185469 32.761028 L 250.431875 32.627163 L 250.568438 32.552794 L 250.666406 32.633113 L 250.897969 32.633113 L 251.15625 32.772927 L 251.396719 32.859195 L 251.744063 32.999008 L 251.845 32.778876 L 251.96375 32.924639 L 252.311094 32.832422 L 253.017656 33.477945 L 253.489688 33.347055 L 254.047813 33.674279 L 254.119063 33.900361 L 254.335781 33.817067 L 254.602969 33.817067 L 254.8375 33.736749 L 255.645 34.504237 L 255.855781 34.346575 L 255.968594 34.563732 L 256.093281 34.489363 L 256.223906 34.715445 L 256.57125 34.572656 L 256.669219 34.394171 L 256.835469 34.417969 L 257.441094 35.048618 L 257.524219 34.96235 L 257.654844 35.117037 L 257.818125 34.965325 L 257.990313 35.105138 L 258.468281 35.744712 L 258.619688 35.792308 L 258.70875 35.673317 L 258.839375 35.70604 L 258.907656 35.509706 L 259.314375 36.143329 L 259.768594 36.44378 L 259.994219 36.289093 L 260.175313 36.179026 L 260.599844 36.547897 L 260.677031 36.419982 L 260.828438 36.402133 L 260.953125 36.533023 L 261.169844 36.533023 L 261.535 36.437831 L 262.018906 36.604417 L 262.107969 36.592518 L 262.354375 36.726382 L 262.479063 36.592518 L 262.683906 36.708534 L 262.971875 36.565745 L 263.298438 36.699609 L 263.515156 36.637139 L 263.651719 36.684736 L 263.993125 36.541947 L 264.227656 36.753155 L 264.352344 36.741256 L 264.485938 36.610367 L 264.940156 36.895944 L 265.070781 37.095252 L 265.31125 37.184495 L 265.40625 37.252915 L 265.872344 37.023858 L 266.35625 37.36893 L 266.843125 37.166647 L 266.961875 37.154748 L 267.050938 36.940565 L 267.160781 37.083353 L 267.309219 37.011959 L 267.481406 37.154748 L 267.5675 37.00006 L 267.6625 37.083353 L 267.775313 37.014934 L 268.428438 37.580138 L 268.505625 37.496845 L 268.591719 37.580138 L 268.847031 37.425451 L 269.369531 37.425451 L 269.452656 37.651532 L 269.523906 37.571214 L 269.984063 37.794321 L 270.236406 37.496845 L 270.601563 37.711028 L 270.744063 37.785397 L 270.833125 38.065024 L 271.827656 37.684255 L 272.035469 37.898438 L 272.275938 37.910337 L 272.367969 38.053125 L 272.617344 37.892488 L 272.691563 37.981731 L 273.095313 37.827043 L 273.445625 37.827043 L 273.564375 37.966857 L 273.772188 37.755649 L 273.953281 37.898438 L 274.048281 37.809195 L 274.377813 38.038251 L 275.790938 37.943059 L 275.95125 38.154267 L 276.019531 38.097746 L 276.144219 38.225661 L 276.292656 38.213762 L 276.369844 38.0561 L 276.669688 38.145343 L 276.889375 37.999579 L 276.969531 38.124519 L 277.195156 38.115595 L 277.435625 38.258383 L 277.667188 38.398197 L 277.901719 38.398197 L 277.999688 38.332752 L 278.154063 38.398197 L 278.35 38.261358 L 278.718125 38.326803 L 279.172344 38.160216 L 279.555313 38.234585 L 279.650313 38.386298 L 280.134219 38.231611 L 280.493438 38.502314 L 280.600313 38.585607 L 280.959531 38.3625 L 281.087188 38.502314 L 281.241563 38.502314 L 281.295 38.350601 L 281.523594 38.359525 L 281.9125 38.359525 L 282.0075 38.276232 L 282.152969 38.430919 L 282.378594 38.48744 L 282.589375 38.618329 L 282.942656 38.421995 L 284.139063 38.320853 L 284.26375 38.169141 L 284.545781 38.234585 L 284.715 38.091797 L 285.7125 38.163191 L 286.172656 38.30598 L 286.246875 38.222686 L 287.11375 38.505288 L 287.431406 38.564784 L 288.022188 38.493389 L 289.076094 38.407121 L 289.215625 38.323828 L 289.37 38.478516 L 289.506563 38.350601 L 289.554063 38.538011 L 289.669844 38.478516 L 289.975625 38.835487 L 290.135938 38.823588 L 290.260625 38.746244 L 290.394219 38.906881 L 290.530781 38.820613 L 290.596094 39.118089 L 290.750469 39.10619 L 290.907813 38.877133 L 291.118594 39.034796 " transform="matrix(1.315789,0,0,1.313131,0,13)"/>
<path style="fill:none;stroke-width:2.5;stroke-linecap:butt;stroke-linejoin:round;stroke:rgb(100%,0%,0%);stroke-opacity:1;stroke-dasharray:9.25,4;stroke-miterlimit:4;" d="M 49.201094 39.278726 L 291.118594 39.278726 " transform="matrix(1.315789,0,0,1.313131,0,13)"/>
<path style="fill:none;stroke-width:0.8;stroke-linecap:square;stroke-linejoin:miter;stroke:rgb(0%,0%,0%);stroke-opacity:1;stroke-miterlimit:10;" d="M 37.103438 266.984675 L 37.103438 0.871605 M 303.21625 266.984675 L 303.21625 0.871605 M 37.103438 266.984675 L 303.21625 266.984675 M 37.103438 0.871605 L 303.21625 0.871605 " transform="matrix(1.315789,0,0,1.313131,0,13)"/>
<path style="fill-rule:nonzero;fill:rgb(100%,100%,100%);fill-opacity:0.8;stroke-width:1;stroke-linecap:butt;stroke-linejoin:miter;stroke:rgb(83.529412%,83.921569%,83.529412%);stroke-opacity:0.8;stroke-miterlimit:10;" d="M 167.372188 261.984105 L 296.215938 261.984105 C 297.548906 261.984105 298.216875 261.317758 298.216875 259.985066 L 298.216875 231.638582 C 298.216875 230.305889 297.548906 229.639543 296.215938 229.639543 L 167.372188 229.639543 C 166.039219 229.639543 165.37125 230.305889 165.37125 231.638582 L 165.37125 259.985066 C 165.37125 261.317758 166.039219 261.984105 167.372188 261.984105 Z M 167.372188 261.984105 " transform="matrix(1.315789,0,0,1.313131,0,13)"/>
<path style="fill:none;stroke-width:2.5;stroke-linecap:square;stroke-linejoin:round;stroke:rgb(0%,50.196078%,50.196078%);stroke-opacity:1;stroke-miterlimit:4;" d="M 169.373125 237.733864 L 189.370625 237.733864 " transform="matrix(1.315789,0,0,1.313131,0,13)"/>
<path style=" stroke:none;fill-rule:nonzero;fill:rgb(0%,0%,0%);fill-opacity:1;" d="M 268.171875 320.933594 L 268.171875 322.300781 C 267.726562 321.90625 267.265625 321.605469 266.765625 321.394531 C 266.265625 321.195312 265.753906 321.09375 265.199219 321.09375 C 264.09375 321.09375 263.253906 321.433594 262.671875 322.101562 C 262.09375 322.773438 261.804688 323.730469 261.804688 324.992188 C 261.804688 326.253906 262.09375 327.222656 262.671875 327.894531 C 263.253906 328.5625 264.09375 328.890625 265.199219 328.890625 C 265.753906 328.890625 266.265625 328.800781 266.765625 328.589844 C 267.265625 328.394531 267.726562 328.089844 268.171875 327.683594 L 268.171875 329.035156 C 267.714844 329.351562 267.226562 329.574219 266.726562 329.71875 C 266.226562 329.863281 265.6875 329.941406 265.121094 329.941406 C 263.671875 329.941406 262.527344 329.507812 261.6875 328.628906 C 260.84375 327.75 260.4375 326.542969 260.4375 324.992188 C 260.4375 323.457031 260.84375 322.246094 261.6875 321.355469 C 262.527344 320.476562 263.671875 320.027344 265.121094 320.027344 C 265.699219 320.027344 266.238281 320.105469 266.738281 320.25 C 267.238281 320.410156 267.726562 320.632812 268.171875 320.933594 Z M 268.171875 320.933594 "/>
<path style=" stroke:none;fill-rule:nonzero;fill:rgb(0%,0%,0%);fill-opacity:1;" d="M 270.003906 326.9375 L 270.003906 322.589844 L 271.1875 322.589844 L 271.1875 326.894531 C 271.1875 327.578125 271.320312 328.078125 271.582031 328.417969 C 271.84375 328.761719 272.238281 328.929688 272.777344 328.929688 C 273.410156 328.929688 273.921875 328.734375 274.292969 328.328125 C 274.660156 327.921875 274.84375 327.367188 274.84375 326.660156 L 274.84375 322.589844 L 276.027344 322.589844 L 276.027344 329.773438 L 274.84375 329.773438 L 274.84375 328.667969 C 274.554688 329.117188 274.214844 329.429688 273.84375 329.640625 C 273.464844 329.835938 273.027344 329.941406 272.527344 329.941406 C 271.699219 329.941406 271.070312 329.691406 270.648438 329.179688 C 270.214844 328.683594 270.003906 327.933594 270.003906 326.9375 Z M 272.976562 322.417969 Z M 272.976562 322.417969 "/>
<path style=" stroke:none;fill-rule:nonzero;fill:rgb(0%,0%,0%);fill-opacity:1;" d="M 282.632812 323.691406 C 282.503906 323.613281 282.359375 323.5625 282.199219 323.519531 C 282.042969 323.496094 281.871094 323.46875 281.6875 323.46875 C 281.015625 323.46875 280.503906 323.691406 280.148438 324.125 C 279.777344 324.558594 279.609375 325.175781 279.609375 325.988281 L 279.609375 329.773438 L 278.421875 329.773438 L 278.421875 322.589844 L 279.609375 322.589844 L 279.609375 323.707031 C 279.84375 323.273438 280.171875 322.945312 280.570312 322.734375 C 280.964844 322.523438 281.449219 322.417969 282.027344 322.417969 C 282.109375 322.417969 282.199219 322.429688 282.304688 322.429688 C 282.398438 322.445312 282.503906 322.457031 282.632812 322.484375 Z M 282.632812 323.691406 "/>
<path style=" stroke:none;fill-rule:nonzero;fill:rgb(0%,0%,0%);fill-opacity:1;" d="M 287.816406 323.691406 C 287.683594 323.613281 287.539062 323.5625 287.382812 323.519531 C 287.222656 323.496094 287.050781 323.46875 286.867188 323.46875 C 286.199219 323.46875 285.683594 323.691406 285.328125 324.125 C 284.960938 324.558594 284.789062 325.175781 284.789062 325.988281 L 284.789062 329.773438 L 283.605469 329.773438 L 283.605469 322.589844 L 284.789062 322.589844 L 284.789062 323.707031 C 285.027344 323.273438 285.355469 322.945312 285.75 322.734375 C 286.144531 322.523438 286.632812 322.417969 287.210938 322.417969 C 287.289062 322.417969 287.382812 322.429688 287.488281 322.429688 C 287.578125 322.445312 287.683594 322.457031 287.816406 322.484375 Z M 287.816406 323.691406 "/>
<path style=" stroke:none;fill-rule:nonzero;fill:rgb(0%,0%,0%);fill-opacity:1;" d="M 294.921875 325.886719 L 294.921875 326.460938 L 289.488281 326.460938 C 289.542969 327.277344 289.777344 327.90625 290.226562 328.328125 C 290.660156 328.746094 291.265625 328.957031 292.054688 328.957031 C 292.503906 328.957031 292.949219 328.90625 293.371094 328.800781 C 293.792969 328.695312 294.226562 328.523438 294.648438 328.289062 L 294.648438 329.402344 C 294.226562 329.589844 293.792969 329.734375 293.34375 329.8125 C 292.898438 329.890625 292.4375 329.941406 291.988281 329.941406 C 290.832031 329.941406 289.921875 329.613281 289.253906 328.957031 C 288.582031 328.300781 288.253906 327.394531 288.253906 326.253906 C 288.253906 325.085938 288.570312 324.152344 289.199219 323.457031 C 289.832031 322.773438 290.699219 322.417969 291.777344 322.417969 C 292.753906 322.417969 293.515625 322.734375 294.082031 323.351562 C 294.632812 323.980469 294.921875 324.820312 294.921875 325.886719 Z M 293.738281 325.542969 C 293.726562 324.898438 293.542969 324.386719 293.199219 323.996094 C 292.84375 323.613281 292.371094 323.417969 291.792969 323.417969 C 291.132812 323.417969 290.609375 323.613281 290.214844 323.980469 C 289.820312 324.347656 289.582031 324.875 289.527344 325.542969 Z M 293.738281 325.542969 "/>
<path style=" stroke:none;fill-rule:nonzero;fill:rgb(0%,0%,0%);fill-opacity:1;" d="M 302.84375 325.4375 L 302.84375 329.773438 L 301.660156 329.773438 L 301.660156 325.476562 C 301.660156 324.796875 301.515625 324.296875 301.253906 323.953125 C 300.988281 323.613281 300.59375 323.441406 300.070312 323.441406 C 299.421875 323.441406 298.921875 323.652344 298.554688 324.058594 C 298.1875 324.46875 298.003906 325.019531 298.003906 325.714844 L 298.003906 329.773438 L 296.820312 329.773438 L 296.820312 322.589844 L 298.003906 322.589844 L 298.003906 323.707031 C 298.277344 323.285156 298.609375 322.957031 299.003906 322.746094 C 299.382812 322.535156 299.832031 322.417969 300.332031 322.417969 C 301.148438 322.417969 301.777344 322.679688 302.199219 323.191406 C 302.621094 323.707031 302.84375 324.453125 302.84375 325.4375 Z M 302.84375 325.4375 "/>
<path style=" stroke:none;fill-rule:nonzero;fill:rgb(0%,0%,0%);fill-opacity:1;" d="M 306.371094 320.554688 L 306.371094 322.589844 L 308.804688 322.589844 L 308.804688 323.507812 L 306.371094 323.507812 L 306.371094 327.410156 C 306.371094 328 306.449219 328.378906 306.609375 328.539062 C 306.765625 328.707031 307.09375 328.785156 307.59375 328.785156 L 308.804688 328.785156 L 308.804688 329.773438 L 307.59375 329.773438 C 306.671875 329.773438 306.042969 329.601562 305.699219 329.261719 C 305.359375 328.917969 305.1875 328.300781 305.1875 327.410156 L 305.1875 323.507812 L 304.320312 323.507812 L 304.320312 322.589844 L 305.1875 322.589844 L 305.1875 320.554688 Z M 306.371094 320.554688 "/>
<path style=" stroke:none;fill-rule:nonzero;fill:rgb(0%,0%,0%);fill-opacity:1;" d="M 319.132812 322.800781 L 319.132812 323.914062 C 318.792969 323.757812 318.449219 323.625 318.09375 323.535156 C 317.726562 323.457031 317.359375 323.402344 316.976562 323.402344 C 316.382812 323.402344 315.9375 323.496094 315.648438 323.679688 C 315.359375 323.863281 315.214844 324.125 315.214844 324.480469 C 315.214844 324.753906 315.320312 324.964844 315.527344 325.125 C 315.738281 325.28125 316.160156 325.4375 316.792969 325.570312 L 317.199219 325.660156 C 318.042969 325.84375 318.632812 326.109375 318.988281 326.421875 C 319.332031 326.75 319.515625 327.210938 319.515625 327.789062 C 319.515625 328.457031 319.253906 328.984375 318.726562 329.363281 C 318.199219 329.757812 317.464844 329.941406 316.542969 329.941406 C 316.148438 329.941406 315.753906 329.902344 315.332031 329.835938 C 314.910156 329.773438 314.476562 329.667969 314.015625 329.507812 L 314.015625 328.289062 C 314.449219 328.523438 314.882812 328.695312 315.304688 328.800781 C 315.726562 328.917969 316.148438 328.972656 316.570312 328.972656 C 317.121094 328.972656 317.554688 328.878906 317.859375 328.695312 C 318.148438 328.511719 318.304688 328.234375 318.304688 327.882812 C 318.304688 327.566406 318.1875 327.316406 317.976562 327.144531 C 317.765625 326.976562 317.292969 326.804688 316.554688 326.648438 L 316.148438 326.554688 C 315.410156 326.398438 314.871094 326.160156 314.554688 325.84375 C 314.226562 325.53125 314.070312 325.097656 314.070312 324.53125 C 314.070312 323.863281 314.304688 323.335938 314.777344 322.96875 C 315.253906 322.601562 315.9375 322.417969 316.832031 322.417969 C 317.265625 322.417969 317.671875 322.457031 318.070312 322.523438 C 318.449219 322.589844 318.804688 322.679688 319.132812 322.800781 Z M 319.132812 322.800781 "/>
<path style=" stroke:none;fill-rule:nonzero;fill:rgb(0%,0%,0%);fill-opacity:1;" d="M 322.542969 328.695312 L 322.542969 332.488281 L 321.359375 332.488281 L 321.359375 322.589844 L 322.542969 322.589844 L 322.542969 323.679688 C 322.777344 323.257812 323.09375 322.945312 323.476562 322.734375 C 323.859375 322.523438 324.320312 322.417969 324.84375 322.417969 C 325.714844 322.417969 326.421875 322.773438 326.976562 323.457031 C 327.515625 324.152344 327.792969 325.058594 327.792969 326.1875 C 327.792969 327.316406 327.515625 328.234375 326.976562 328.917969 C 326.421875 329.601562 325.714844 329.941406 324.84375 329.941406 C 324.320312 329.941406 323.859375 329.835938 323.476562 329.640625 C 323.09375 329.445312 322.777344 329.128906 322.542969 328.695312 Z M 326.570312 326.1875 C 326.570312 325.320312 326.382812 324.652344 326.027344 324.152344 C 325.660156 323.652344 325.171875 323.402344 324.554688 323.402344 C 323.921875 323.402344 323.4375 323.652344 323.082031 324.152344 C 322.714844 324.652344 322.542969 325.320312 322.542969 326.1875 C 322.542969 327.054688 322.714844 327.738281 323.082031 328.234375 C 323.4375 328.734375 323.921875 328.972656 324.554688 328.972656 C 325.171875 328.972656 325.660156 328.734375 326.027344 328.234375 C 326.382812 327.738281 326.570312 327.054688 326.570312 326.1875 Z M 326.570312 326.1875 "/>
<path style=" stroke:none;fill-rule:nonzero;fill:rgb(0%,0%,0%);fill-opacity:1;" d="M 335.910156 325.886719 L 335.910156 326.460938 L 330.476562 326.460938 C 330.527344 327.277344 330.765625 327.90625 331.214844 328.328125 C 331.648438 328.746094 332.253906 328.957031 333.042969 328.957031 C 333.488281 328.957031 333.9375 328.90625 334.359375 328.800781 C 334.777344 328.695312 335.214844 328.523438 335.632812 328.289062 L 335.632812 329.402344 C 335.214844 329.589844 334.777344 329.734375 334.332031 329.8125 C 333.882812 329.890625 333.421875 329.941406 332.976562 329.941406 C 331.820312 329.941406 330.910156 329.613281 330.238281 328.957031 C 329.570312 328.300781 329.238281 327.394531 329.238281 326.253906 C 329.238281 325.085938 329.554688 324.152344 330.1875 323.457031 C 330.820312 322.773438 331.6875 322.417969 332.765625 322.417969 C 333.738281 322.417969 334.503906 322.734375 335.070312 323.351562 C 335.621094 323.980469 335.910156 324.820312 335.910156 325.886719 Z M 334.726562 325.542969 C 334.714844 324.898438 334.527344 324.386719 334.1875 323.996094 C 333.832031 323.613281 333.359375 323.417969 332.777344 323.417969 C 332.121094 323.417969 331.59375 323.613281 331.199219 323.980469 C 330.804688 324.347656 330.570312 324.875 330.515625 325.542969 Z M 334.726562 325.542969 "/>
<path style=" stroke:none;fill-rule:nonzero;fill:rgb(0%,0%,0%);fill-opacity:1;" d="M 344.003906 325.886719 L 344.003906 326.460938 L 338.570312 326.460938 C 338.621094 327.277344 338.859375 327.90625 339.304688 328.328125 C 339.738281 328.746094 340.34375 328.957031 341.132812 328.957031 C 341.582031 328.957031 342.027344 328.90625 342.449219 328.800781 C 342.871094 328.695312 343.304688 328.523438 343.726562 328.289062 L 343.726562 329.402344 C 343.304688 329.589844 342.871094 329.734375 342.421875 329.8125 C 341.976562 329.890625 341.515625 329.941406 341.070312 329.941406 C 339.910156 329.941406 339.003906 329.613281 338.332031 328.957031 C 337.660156 328.300781 337.332031 327.394531 337.332031 326.253906 C 337.332031 325.085938 337.648438 324.152344 338.277344 323.457031 C 338.910156 322.773438 339.777344 322.417969 340.859375 322.417969 C 341.832031 322.417969 342.59375 322.734375 343.160156 323.351562 C 343.714844 323.980469 344.003906 324.820312 344.003906 325.886719 Z M 342.820312 325.542969 C 342.804688 324.898438 342.621094 324.386719 342.277344 323.996094 C 341.921875 323.613281 341.449219 323.417969 340.871094 323.417969 C 340.214844 323.417969 339.6875 323.613281 339.292969 323.980469 C 338.898438 324.347656 338.660156 324.875 338.609375 325.542969 Z M 342.820312 325.542969 "/>
<path style=" stroke:none;fill-rule:nonzero;fill:rgb(0%,0%,0%);fill-opacity:1;" d="M 350.671875 323.679688 L 350.671875 319.792969 L 351.859375 319.792969 L 351.859375 329.773438 L 350.671875 329.773438 L 350.671875 328.695312 C 350.421875 329.128906 350.109375 329.445312 349.726562 329.640625 C 349.34375 329.835938 348.898438 329.941406 348.371094 329.941406 C 347.503906 329.941406 346.792969 329.601562 346.238281 328.917969 C 345.6875 328.234375 345.421875 327.316406 345.421875 326.1875 C 345.421875 325.058594 345.6875 324.152344 346.238281 323.457031 C 346.792969 322.773438 347.503906 322.417969 348.371094 322.417969 C 348.898438 322.417969 349.34375 322.523438 349.726562 322.734375 C 350.109375 322.945312 350.421875 323.257812 350.671875 323.679688 Z M 346.648438 326.1875 C 346.648438 327.054688 346.820312 327.738281 347.171875 328.234375 C 347.527344 328.734375 348.015625 328.972656 348.648438 328.972656 C 349.277344 328.972656 349.765625 328.734375 350.132812 328.234375 C 350.488281 327.738281 350.671875 327.054688 350.671875 326.1875 C 350.671875 325.320312 350.488281 324.652344 350.132812 324.152344 C 349.765625 323.652344 349.277344 323.402344 348.648438 323.402344 C 348.015625 323.402344 347.527344 323.652344 347.171875 324.152344 C 346.820312 324.652344 346.648438 325.320312 346.648438 326.1875 Z M 346.648438 326.1875 "/>
<path style=" stroke:none;fill-rule:nonzero;fill:rgb(0%,0%,0%);fill-opacity:1;" d="M 361.320312 319.804688 C 360.738281 320.804688 360.320312 321.773438 360.042969 322.734375 C 359.753906 323.691406 359.621094 324.664062 359.621094 325.648438 C 359.621094 326.648438 359.753906 327.617188 360.042969 328.578125 C 360.320312 329.546875 360.738281 330.507812 361.320312 331.492188 L 360.292969 331.492188 C 359.648438 330.480469 359.160156 329.507812 358.84375 328.539062 C 358.527344 327.566406 358.371094 326.605469 358.371094 325.648438 C 358.371094 324.703125 358.527344 323.746094 358.84375 322.773438 C 359.160156 321.800781 359.632812 320.816406 360.292969 319.804688 Z M 361.320312 319.804688 "/>
<path style=" stroke:none;fill-rule:nonzero;fill:rgb(0%,0%,0%);fill-opacity:1;" d="M 367.554688 321.078125 C 366.609375 321.078125 365.859375 321.433594 365.304688 322.128906 C 364.753906 322.839844 364.476562 323.785156 364.476562 324.992188 C 364.476562 326.199219 364.753906 327.160156 365.304688 327.855469 C 365.859375 328.5625 366.609375 328.90625 367.554688 328.90625 C 368.488281 328.90625 369.238281 328.5625 369.792969 327.855469 C 370.34375 327.160156 370.621094 326.199219 370.621094 324.992188 C 370.621094 323.785156 370.34375 322.839844 369.792969 322.128906 C 369.238281 321.433594 368.488281 321.078125 367.554688 321.078125 Z M 367.554688 320.027344 C 368.898438 320.027344 369.964844 320.488281 370.777344 321.382812 C 371.582031 322.273438 371.988281 323.480469 371.988281 324.992188 C 371.988281 326.515625 371.582031 327.710938 370.777344 328.601562 C 369.964844 329.496094 368.898438 329.941406 367.554688 329.941406 C 366.199219 329.941406 365.121094 329.496094 364.320312 328.601562 C 363.503906 327.710938 363.109375 326.515625 363.109375 324.992188 C 363.109375 323.480469 363.503906 322.273438 364.320312 321.382812 C 365.121094 320.488281 366.199219 320.027344 367.554688 320.027344 Z M 367.554688 320.027344 "/>
<path style=" stroke:none;fill-rule:nonzero;fill:rgb(0%,0%,0%);fill-opacity:1;" d="M 379.765625 320.515625 L 379.765625 321.773438 C 379.265625 321.539062 378.804688 321.367188 378.371094 321.25 C 377.921875 321.144531 377.503906 321.078125 377.109375 321.078125 C 376.398438 321.078125 375.84375 321.222656 375.464844 321.484375 C 375.082031 321.761719 374.898438 322.15625 374.898438 322.65625 C 374.898438 323.074219 375.015625 323.402344 375.277344 323.613281 C 375.527344 323.835938 376.015625 324.007812 376.726562 324.136719 L 377.515625 324.296875 C 378.476562 324.480469 379.1875 324.808594 379.648438 325.269531 C 380.109375 325.742188 380.34375 326.359375 380.34375 327.132812 C 380.34375 328.066406 380.027344 328.761719 379.410156 329.234375 C 378.777344 329.707031 377.871094 329.941406 376.671875 329.941406 C 376.214844 329.941406 375.726562 329.890625 375.214844 329.796875 C 374.699219 329.707031 374.171875 329.5625 373.632812 329.351562 L 373.632812 328.011719 C 374.160156 328.3125 374.671875 328.539062 375.171875 328.683594 C 375.671875 328.839844 376.171875 328.90625 376.671875 328.90625 C 377.410156 328.90625 377.976562 328.761719 378.382812 328.472656 C 378.777344 328.183594 378.988281 327.777344 378.988281 327.222656 C 378.988281 326.75 378.84375 326.382812 378.554688 326.121094 C 378.265625 325.859375 377.792969 325.660156 377.132812 325.53125 L 376.34375 325.371094 C 375.371094 325.1875 374.671875 324.886719 374.238281 324.46875 C 373.804688 324.058594 373.59375 323.496094 373.59375 322.761719 C 373.59375 321.917969 373.882812 321.25 374.488281 320.765625 C 375.082031 320.277344 375.910156 320.027344 376.964844 320.027344 C 377.410156 320.027344 377.859375 320.066406 378.332031 320.148438 C 378.792969 320.226562 379.265625 320.355469 379.765625 320.515625 Z M 379.765625 320.515625 "/>
<path style=" stroke:none;fill-rule:nonzero;fill:rgb(0%,0%,0%);fill-opacity:1;" d="M 382.132812 319.804688 L 383.160156 319.804688 C 383.792969 320.816406 384.277344 321.800781 384.59375 322.773438 C 384.910156 323.746094 385.082031 324.703125 385.082031 325.648438 C 385.082031 326.605469 384.910156 327.566406 384.59375 328.539062 C 384.277344 329.507812 383.792969 330.480469 383.160156 331.492188 L 382.132812 331.492188 C 382.699219 330.507812 383.121094 329.546875 383.410156 328.578125 C 383.6875 327.617188 383.832031 326.648438 383.832031 325.648438 C 383.832031 324.664062 383.6875 323.691406 383.410156 322.734375 C 383.121094 321.773438 382.699219 320.804688 382.132812 319.804688 Z M 382.132812 319.804688 "/>
<path style="fill:none;stroke-width:2.5;stroke-linecap:butt;stroke-linejoin:round;stroke:rgb(100%,0%,0%);stroke-opacity:1;stroke-dasharray:9.25,4;stroke-miterlimit:4;" d="M 169.373125 252.405379 L 189.370625 252.405379 " transform="matrix(1.315789,0,0,1.313131,0,13)"/>
<path style=" stroke:none;fill-rule:nonzero;fill:rgb(0%,0%,0%);fill-opacity:1;" d="M 262.292969 340.527344 L 262.292969 347.972656 L 263.859375 347.972656 C 265.171875 347.972656 266.148438 347.6875 266.765625 347.082031 C 267.371094 346.476562 267.6875 345.53125 267.6875 344.246094 C 267.6875 342.957031 267.371094 342.027344 266.765625 341.421875 C 266.148438 340.832031 265.171875 340.527344 263.859375 340.527344 Z M 260.988281 339.464844 L 263.660156 339.464844 C 265.515625 339.464844 266.882812 339.859375 267.753906 340.621094 C 268.621094 341.394531 269.054688 342.605469 269.054688 344.246094 C 269.054688 345.898438 268.609375 347.109375 267.738281 347.882812 C 266.871094 348.65625 265.503906 349.039062 263.660156 349.039062 L 260.988281 349.039062 Z M 260.988281 339.464844 "/>
<path style=" stroke:none;fill-rule:nonzero;fill:rgb(0%,0%,0%);fill-opacity:1;" d="M 277.226562 345.152344 L 277.226562 345.730469 L 271.792969 345.730469 C 271.84375 346.542969 272.082031 347.171875 272.527344 347.59375 C 272.964844 348.015625 273.570312 348.222656 274.359375 348.222656 C 274.804688 348.222656 275.253906 348.171875 275.671875 348.066406 C 276.09375 347.960938 276.527344 347.789062 276.949219 347.554688 L 276.949219 348.671875 C 276.527344 348.855469 276.09375 349 275.648438 349.078125 C 275.199219 349.15625 274.738281 349.207031 274.292969 349.207031 C 273.132812 349.207031 272.226562 348.878906 271.554688 348.222656 C 270.882812 347.566406 270.554688 346.660156 270.554688 345.519531 C 270.554688 344.351562 270.871094 343.417969 271.503906 342.722656 C 272.132812 342.039062 273.003906 341.683594 274.082031 341.683594 C 275.054688 341.683594 275.820312 342 276.382812 342.617188 C 276.9375 343.246094 277.226562 344.085938 277.226562 345.152344 Z M 276.042969 344.808594 C 276.027344 344.167969 275.84375 343.65625 275.503906 343.261719 C 275.148438 342.878906 274.671875 342.683594 274.09375 342.683594 C 273.4375 342.683594 272.910156 342.878906 272.515625 343.246094 C 272.121094 343.613281 271.882812 344.140625 271.832031 344.808594 Z M 276.042969 344.808594 "/>
<path style=" stroke:none;fill-rule:nonzero;fill:rgb(0%,0%,0%);fill-opacity:1;" d="M 283.753906 342.066406 L 283.753906 343.179688 C 283.410156 343.023438 283.070312 342.894531 282.714844 342.800781 C 282.34375 342.722656 281.976562 342.667969 281.59375 342.667969 C 281.003906 342.667969 280.554688 342.761719 280.265625 342.945312 C 279.976562 343.128906 279.832031 343.390625 279.832031 343.746094 C 279.832031 344.023438 279.9375 344.230469 280.148438 344.390625 C 280.359375 344.546875 280.777344 344.703125 281.410156 344.835938 L 281.820312 344.929688 C 282.660156 345.113281 283.253906 345.375 283.609375 345.691406 C 283.949219 346.019531 284.132812 346.476562 284.132812 347.054688 C 284.132812 347.726562 283.871094 348.25 283.34375 348.632812 C 282.820312 349.023438 282.082031 349.207031 281.160156 349.207031 C 280.765625 349.207031 280.371094 349.167969 279.949219 349.105469 C 279.527344 349.039062 279.09375 348.933594 278.632812 348.777344 L 278.632812 347.554688 C 279.070312 347.789062 279.503906 347.960938 279.921875 348.066406 C 280.34375 348.183594 280.765625 348.238281 281.1875 348.238281 C 281.738281 348.238281 282.171875 348.144531 282.476562 347.960938 C 282.765625 347.777344 282.921875 347.5 282.921875 347.148438 C 282.921875 346.832031 282.804688 346.582031 282.59375 346.410156 C 282.382812 346.242188 281.910156 346.070312 281.171875 345.914062 L 280.765625 345.820312 C 280.027344 345.664062 279.488281 345.425781 279.171875 345.113281 C 278.84375 344.796875 278.6875 344.363281 278.6875 343.796875 C 278.6875 343.128906 278.921875 342.605469 279.398438 342.234375 C 279.871094 341.867188 280.554688 341.683594 281.449219 341.683594 C 281.882812 341.683594 282.292969 341.722656 282.6875 341.789062 C 283.070312 341.855469 283.421875 341.949219 283.753906 342.066406 Z M 283.753906 342.066406 "/>
<path style=" stroke:none;fill-rule:nonzero;fill:rgb(0%,0%,0%);fill-opacity:1;" d="M 286.015625 341.855469 L 287.199219 341.855469 L 287.199219 349.039062 L 286.015625 349.039062 Z M 286.015625 339.058594 L 287.199219 339.058594 L 287.199219 340.554688 L 286.015625 340.554688 Z M 286.015625 339.058594 "/>
<path style=" stroke:none;fill-rule:nonzero;fill:rgb(0%,0%,0%);fill-opacity:1;" d="M 293.84375 342.957031 C 293.714844 342.878906 293.570312 342.828125 293.410156 342.789062 C 293.253906 342.761719 293.082031 342.734375 292.898438 342.734375 C 292.226562 342.734375 291.714844 342.957031 291.359375 343.390625 C 290.988281 343.824219 290.820312 344.441406 290.820312 345.257812 L 290.820312 349.039062 L 289.632812 349.039062 L 289.632812 341.855469 L 290.820312 341.855469 L 290.820312 342.972656 C 291.054688 342.539062 291.382812 342.210938 291.777344 342 C 292.171875 341.789062 292.660156 341.683594 293.238281 341.683594 C 293.320312 341.683594 293.410156 341.699219 293.515625 341.699219 C 293.609375 341.710938 293.714844 341.722656 293.84375 341.75 Z M 293.84375 342.957031 "/>
<path style=" stroke:none;fill-rule:nonzero;fill:rgb(0%,0%,0%);fill-opacity:1;" d="M 300.953125 345.152344 L 300.953125 345.730469 L 295.519531 345.730469 C 295.570312 346.542969 295.808594 347.171875 296.253906 347.59375 C 296.691406 348.015625 297.292969 348.222656 298.085938 348.222656 C 298.53125 348.222656 298.980469 348.171875 299.398438 348.066406 C 299.820312 347.960938 300.253906 347.789062 300.675781 347.554688 L 300.675781 348.671875 C 300.253906 348.855469 299.820312 349 299.375 349.078125 C 298.925781 349.15625 298.464844 349.207031 298.019531 349.207031 C 296.859375 349.207031 295.953125 348.878906 295.28125 348.222656 C 294.609375 347.566406 294.28125 346.660156 294.28125 345.519531 C 294.28125 344.351562 294.597656 343.417969 295.230469 342.722656 C 295.859375 342.039062 296.730469 341.683594 297.808594 341.683594 C 298.78125 341.683594 299.542969 342 300.109375 342.617188 C 300.664062 343.246094 300.953125 344.085938 300.953125 345.152344 Z M 299.769531 344.808594 C 299.753906 344.167969 299.570312 343.65625 299.230469 343.261719 C 298.875 342.878906 298.398438 342.683594 297.820312 342.683594 C 297.164062 342.683594 296.636719 342.878906 296.242188 343.246094 C 295.847656 343.613281 295.609375 344.140625 295.558594 344.808594 Z M 299.769531 344.808594 "/>
<path style=" stroke:none;fill-rule:nonzero;fill:rgb(0%,0%,0%);fill-opacity:1;" d="M 307.625 342.945312 L 307.625 339.058594 L 308.808594 339.058594 L 308.808594 349.039062 L 307.625 349.039062 L 307.625 347.960938 C 307.375 348.394531 307.058594 348.710938 306.675781 348.90625 C 306.292969 349.105469 305.847656 349.207031 305.320312 349.207031 C 304.453125 349.207031 303.742188 348.867188 303.191406 348.183594 C 302.636719 347.5 302.375 346.582031 302.375 345.453125 C 302.375 344.324219 302.636719 343.417969 303.191406 342.722656 C 303.742188 342.039062 304.453125 341.683594 305.320312 341.683594 C 305.847656 341.683594 306.292969 341.789062 306.675781 342 C 307.058594 342.210938 307.375 342.523438 307.625 342.945312 Z M 303.597656 345.453125 C 303.597656 346.320312 303.769531 347.003906 304.125 347.5 C 304.480469 348 304.964844 348.238281 305.597656 348.238281 C 306.230469 348.238281 306.714844 348 307.085938 347.5 C 307.441406 347.003906 307.625 346.320312 307.625 345.453125 C 307.625 344.585938 307.441406 343.917969 307.085938 343.417969 C 306.714844 342.917969 306.230469 342.667969 305.597656 342.667969 C 304.964844 342.667969 304.480469 342.917969 304.125 343.417969 C 303.769531 343.917969 303.597656 344.585938 303.597656 345.453125 Z M 303.597656 345.453125 "/>
<path style=" stroke:none;fill-rule:nonzero;fill:rgb(0%,0%,0%);fill-opacity:1;" d="M 320.015625 342.066406 L 320.015625 343.179688 C 319.675781 343.023438 319.332031 342.894531 318.976562 342.800781 C 318.609375 342.722656 318.242188 342.667969 317.859375 342.667969 C 317.265625 342.667969 316.820312 342.761719 316.53125 342.945312 C 316.242188 343.128906 316.097656 343.390625 316.097656 343.746094 C 316.097656 344.023438 316.203125 344.230469 316.410156 344.390625 C 316.621094 344.546875 317.042969 344.703125 317.675781 344.835938 L 318.082031 344.929688 C 318.925781 345.113281 319.515625 345.375 319.871094 345.691406 C 320.214844 346.019531 320.398438 346.476562 320.398438 347.054688 C 320.398438 347.726562 320.136719 348.25 319.609375 348.632812 C 319.082031 349.023438 318.347656 349.207031 317.425781 349.207031 C 317.03125 349.207031 316.636719 349.167969 316.214844 349.105469 C 315.792969 349.039062 315.359375 348.933594 314.898438 348.777344 L 314.898438 347.554688 C 315.332031 347.789062 315.765625 347.960938 316.1875 348.066406 C 316.609375 348.183594 317.03125 348.238281 317.453125 348.238281 C 318.003906 348.238281 318.4375 348.144531 318.742188 347.960938 C 319.03125 347.777344 319.1875 347.5 319.1875 347.148438 C 319.1875 346.832031 319.070312 346.582031 318.859375 346.410156 C 318.648438 346.242188 318.175781 346.070312 317.4375 345.914062 L 317.03125 345.820312 C 316.292969 345.664062 315.753906 345.425781 315.4375 345.113281 C 315.109375 344.796875 314.953125 344.363281 314.953125 343.796875 C 314.953125 343.128906 315.1875 342.605469 315.660156 342.234375 C 316.136719 341.867188 316.820312 341.683594 317.714844 341.683594 C 318.148438 341.683594 318.554688 341.722656 318.953125 341.789062 C 319.332031 341.855469 319.6875 341.949219 320.015625 342.066406 Z M 320.015625 342.066406 "/>
<path style=" stroke:none;fill-rule:nonzero;fill:rgb(0%,0%,0%);fill-opacity:1;" d="M 323.425781 347.960938 L 323.425781 351.757812 L 322.242188 351.757812 L 322.242188 341.855469 L 323.425781 341.855469 L 323.425781 342.945312 C 323.664062 342.523438 323.980469 342.210938 324.359375 342 C 324.742188 341.789062 325.203125 341.683594 325.730469 341.683594 C 326.597656 341.683594 327.308594 342.039062 327.859375 342.722656 C 328.398438 343.417969 328.675781 344.324219 328.675781 345.453125 C 328.675781 346.582031 328.398438 347.5 327.859375 348.183594 C 327.308594 348.867188 326.597656 349.207031 325.730469 349.207031 C 325.203125 349.207031 324.742188 349.105469 324.359375 348.90625 C 323.980469 348.710938 323.664062 348.394531 323.425781 347.960938 Z M 327.453125 345.453125 C 327.453125 344.585938 327.269531 343.917969 326.914062 343.417969 C 326.542969 342.917969 326.058594 342.667969 325.441406 342.667969 C 324.808594 342.667969 324.320312 342.917969 323.964844 343.417969 C 323.597656 343.917969 323.425781 344.585938 323.425781 345.453125 C 323.425781 346.320312 323.597656 347.003906 323.964844 347.5 C 324.320312 348 324.808594 348.238281 325.441406 348.238281 C 326.058594 348.238281 326.542969 348 326.914062 347.5 C 327.269531 347.003906 327.453125 346.320312 327.453125 345.453125 Z M 327.453125 345.453125 "/>
<path style=" stroke:none;fill-rule:nonzero;fill:rgb(0%,0%,0%);fill-opacity:1;" d="M 336.792969 345.152344 L 336.792969 345.730469 L 331.359375 345.730469 C 331.414062 346.542969 331.648438 347.171875 332.097656 347.59375 C 332.53125 348.015625 333.136719 348.222656 333.925781 348.222656 C 334.375 348.222656 334.820312 348.171875 335.242188 348.066406 C 335.664062 347.960938 336.097656 347.789062 336.519531 347.554688 L 336.519531 348.671875 C 336.097656 348.855469 335.664062 349 335.214844 349.078125 C 334.769531 349.15625 334.308594 349.207031 333.859375 349.207031 C 332.703125 349.207031 331.792969 348.878906 331.125 348.222656 C 330.453125 347.566406 330.125 346.660156 330.125 345.519531 C 330.125 344.351562 330.441406 343.417969 331.070312 342.722656 C 331.703125 342.039062 332.570312 341.683594 333.648438 341.683594 C 334.625 341.683594 335.386719 342 335.953125 342.617188 C 336.503906 343.246094 336.792969 344.085938 336.792969 345.152344 Z M 335.609375 344.808594 C 335.597656 344.167969 335.414062 343.65625 335.070312 343.261719 C 334.714844 342.878906 334.242188 342.683594 333.664062 342.683594 C 333.003906 342.683594 332.480469 342.878906 332.085938 343.246094 C 331.691406 343.613281 331.453125 344.140625 331.398438 344.808594 Z M 335.609375 344.808594 "/>
<path style=" stroke:none;fill-rule:nonzero;fill:rgb(0%,0%,0%);fill-opacity:1;" d="M 344.886719 345.152344 L 344.886719 345.730469 L 339.453125 345.730469 C 339.503906 346.542969 339.742188 347.171875 340.1875 347.59375 C 340.621094 348.015625 341.226562 348.222656 342.015625 348.222656 C 342.464844 348.222656 342.910156 348.171875 343.332031 348.066406 C 343.753906 347.960938 344.1875 347.789062 344.609375 347.554688 L 344.609375 348.671875 C 344.1875 348.855469 343.753906 349 343.304688 349.078125 C 342.859375 349.15625 342.398438 349.207031 341.953125 349.207031 C 340.792969 349.207031 339.886719 348.878906 339.214844 348.222656 C 338.542969 347.566406 338.214844 346.660156 338.214844 345.519531 C 338.214844 344.351562 338.53125 343.417969 339.160156 342.722656 C 339.792969 342.039062 340.660156 341.683594 341.742188 341.683594 C 342.714844 341.683594 343.476562 342 344.042969 342.617188 C 344.597656 343.246094 344.886719 344.085938 344.886719 345.152344 Z M 343.703125 344.808594 C 343.6875 344.167969 343.503906 343.65625 343.160156 343.261719 C 342.804688 342.878906 342.332031 342.683594 341.753906 342.683594 C 341.097656 342.683594 340.570312 342.878906 340.175781 343.246094 C 339.78125 343.613281 339.542969 344.140625 339.492188 344.808594 Z M 343.703125 344.808594 "/>
<path style=" stroke:none;fill-rule:nonzero;fill:rgb(0%,0%,0%);fill-opacity:1;" d="M 351.554688 342.945312 L 351.554688 339.058594 L 352.742188 339.058594 L 352.742188 349.039062 L 351.554688 349.039062 L 351.554688 347.960938 C 351.304688 348.394531 350.992188 348.710938 350.609375 348.90625 C 350.226562 349.105469 349.78125 349.207031 349.253906 349.207031 C 348.386719 349.207031 347.675781 348.867188 347.121094 348.183594 C 346.570312 347.5 346.304688 346.582031 346.304688 345.453125 C 346.304688 344.324219 346.570312 343.417969 347.121094 342.722656 C 347.675781 342.039062 348.386719 341.683594 349.253906 341.683594 C 349.78125 341.683594 350.226562 341.789062 350.609375 342 C 350.992188 342.210938 351.304688 342.523438 351.554688 342.945312 Z M 347.53125 345.453125 C 347.53125 346.320312 347.703125 347.003906 348.054688 347.5 C 348.410156 348 348.898438 348.238281 349.53125 348.238281 C 350.160156 348.238281 350.648438 348 351.015625 347.5 C 351.371094 347.003906 351.554688 346.320312 351.554688 345.453125 C 351.554688 344.585938 351.371094 343.917969 351.015625 343.417969 C 350.648438 342.917969 350.160156 342.667969 349.53125 342.667969 C 348.898438 342.667969 348.410156 342.917969 348.054688 343.417969 C 347.703125 343.917969 347.53125 344.585938 347.53125 345.453125 Z M 347.53125 345.453125 "/>
<path style=" stroke:none;fill-rule:nonzero;fill:rgb(0%,0%,0%);fill-opacity:1;" d="M 362.203125 339.070312 C 361.625 340.070312 361.203125 341.042969 360.925781 342 C 360.636719 342.957031 360.503906 343.929688 360.503906 344.914062 C 360.503906 345.914062 360.636719 346.882812 360.925781 347.84375 C 361.203125 348.816406 361.625 349.773438 362.203125 350.757812 L 361.175781 350.757812 C 360.53125 349.746094 360.042969 348.777344 359.730469 347.804688 C 359.414062 346.832031 359.253906 345.875 359.253906 344.914062 C 359.253906 343.96875 359.414062 343.011719 359.730469 342.039062 C 360.042969 341.066406 360.519531 340.082031 361.175781 339.070312 Z M 362.203125 339.070312 "/>
<path style=" stroke:none;fill-rule:nonzero;fill:rgb(0%,0%,0%);fill-opacity:1;" d="M 368.441406 340.34375 C 367.492188 340.34375 366.742188 340.699219 366.191406 341.394531 C 365.636719 342.105469 365.359375 343.050781 365.359375 344.257812 C 365.359375 345.464844 365.636719 346.425781 366.191406 347.121094 C 366.742188 347.832031 367.492188 348.171875 368.441406 348.171875 C 369.375 348.171875 370.125 347.832031 370.675781 347.121094 C 371.230469 346.425781 371.503906 345.464844 371.503906 344.257812 C 371.503906 343.050781 371.230469 342.105469 370.675781 341.394531 C 370.125 340.699219 369.375 340.34375 368.441406 340.34375 Z M 368.441406 339.292969 C 369.78125 339.292969 370.847656 339.753906 371.664062 340.648438 C 372.464844 341.539062 372.875 342.75 372.875 344.257812 C 372.875 345.78125 372.464844 346.976562 371.664062 347.871094 C 370.847656 348.761719 369.78125 349.207031 368.441406 349.207031 C 367.085938 349.207031 366.003906 348.761719 365.203125 347.871094 C 364.386719 346.976562 363.992188 345.78125 363.992188 344.257812 C 363.992188 342.75 364.386719 341.539062 365.203125 340.648438 C 366.003906 339.753906 367.085938 339.292969 368.441406 339.292969 Z M 368.441406 339.292969 "/>
<path style=" stroke:none;fill-rule:nonzero;fill:rgb(0%,0%,0%);fill-opacity:1;" d="M 380.648438 339.78125 L 380.648438 341.042969 C 380.148438 340.804688 379.691406 340.632812 379.253906 340.515625 C 378.808594 340.410156 378.386719 340.34375 377.992188 340.34375 C 377.28125 340.34375 376.730469 340.488281 376.347656 340.753906 C 375.964844 341.027344 375.78125 341.421875 375.78125 341.921875 C 375.78125 342.339844 375.898438 342.667969 376.164062 342.878906 C 376.414062 343.101562 376.898438 343.273438 377.609375 343.40625 L 378.398438 343.5625 C 379.359375 343.746094 380.070312 344.074219 380.53125 344.535156 C 380.992188 345.007812 381.230469 345.625 381.230469 346.398438 C 381.230469 347.332031 380.914062 348.027344 380.292969 348.5 C 379.664062 348.972656 378.753906 349.207031 377.558594 349.207031 C 377.097656 349.207031 376.609375 349.15625 376.097656 349.0625 C 375.585938 348.972656 375.058594 348.828125 374.519531 348.617188 L 374.519531 347.277344 C 375.042969 347.582031 375.558594 347.804688 376.058594 347.949219 C 376.558594 348.105469 377.058594 348.171875 377.558594 348.171875 C 378.292969 348.171875 378.859375 348.027344 379.269531 347.738281 C 379.664062 347.449219 379.875 347.042969 379.875 346.492188 C 379.875 346.019531 379.730469 345.648438 379.441406 345.386719 C 379.148438 345.125 378.675781 344.929688 378.019531 344.796875 L 377.230469 344.640625 C 376.253906 344.457031 375.558594 344.152344 375.125 343.734375 C 374.691406 343.324219 374.480469 342.761719 374.480469 342.027344 C 374.480469 341.1875 374.769531 340.515625 375.375 340.03125 C 375.964844 339.542969 376.792969 339.292969 377.847656 339.292969 C 378.292969 339.292969 378.742188 339.335938 379.214844 339.414062 C 379.675781 339.492188 380.148438 339.621094 380.648438 339.78125 Z M 380.648438 339.78125 "/>
<path style=" stroke:none;fill-rule:nonzero;fill:rgb(0%,0%,0%);fill-opacity:1;" d="M 383.019531 339.070312 L 384.042969 339.070312 C 384.675781 340.082031 385.164062 341.066406 385.480469 342.039062 C 385.792969 343.011719 385.964844 343.96875 385.964844 344.914062 C 385.964844 345.875 385.792969 346.832031 385.480469 347.804688 C 385.164062 348.777344 384.675781 349.746094 384.042969 350.757812 L 383.019531 350.757812 C 383.585938 349.773438 384.003906 348.816406 384.292969 347.84375 C 384.570312 346.882812 384.714844 345.914062 384.714844 344.914062 C 384.714844 343.929688 384.570312 342.957031 384.292969 342 C 384.003906 341.042969 383.585938 340.070312 383.019531 339.070312 Z M 383.019531 339.070312 "/>
</g>
</svg>
