<?xml version="1.0" encoding="UTF-8"?>
<svg xmlns="http://www.w3.org/2000/svg" xmlns:xlink="http://www.w3.org/1999/xlink" width="500px" height="px" viewBox="0 0 499 375" version="1.1">
<g id="surface1">
<path style=" stroke:none;fill-rule:nonzero;fill:rgb(100%,100%,100%);fill-opacity:1;" d="M 0 374.835938 L 499.324219 374.835938 L 499.324219 0 L 0 0 Z M 0 374.835938 "/>
<path style=" stroke:none;fill-rule:nonzero;fill:rgb(100%,100%,100%);fill-opacity:1;" d="M 111.722656 333.605469 L 400.085938 333.605469 L 400.085938 44.980469 L 111.722656 44.980469 Z M 111.722656 333.605469 "/>
<path style="fill:none;stroke-width:0.8;stroke-linecap:butt;stroke-linejoin:round;stroke:rgb(0%,0%,0%);stroke-opacity:1;stroke-miterlimit:4;" d="M 112.17622 307.584242 L 112.17622 311.084961 " transform="matrix(1.083605,0,0,1.084599,0,0)"/>
<path style=" stroke:none;fill-rule:nonzero;fill:rgb(0%,0%,0%);fill-opacity:1;" d="M 121.554688 342.230469 C 121 342.230469 120.589844 342.503906 120.308594 343.046875 C 120.027344 343.585938 119.894531 344.402344 119.894531 345.484375 C 119.894531 346.570312 120.027344 347.382812 120.308594 347.925781 C 120.589844 348.46875 121 348.738281 121.554688 348.738281 C 122.105469 348.738281 122.519531 348.46875 122.800781 347.925781 C 123.070312 347.382812 123.210938 346.570312 123.210938 345.484375 C 123.210938 344.402344 123.070312 343.585938 122.800781 343.046875 C 122.519531 342.503906 122.105469 342.230469 121.554688 342.230469 Z M 121.554688 341.386719 C 122.429688 341.386719 123.101562 341.742188 123.578125 342.4375 C 124.046875 343.144531 124.285156 344.164062 124.285156 345.484375 C 124.285156 346.820312 124.046875 347.839844 123.578125 348.535156 C 123.101562 349.226562 122.429688 349.574219 121.542969 349.574219 C 120.652344 349.574219 119.980469 349.226562 119.515625 348.535156 C 119.050781 347.839844 118.824219 346.820312 118.824219 345.484375 C 118.824219 344.164062 119.050781 343.144531 119.515625 342.4375 C 119.980469 341.742188 120.664062 341.386719 121.554688 341.386719 Z M 121.554688 341.386719 "/>
<path style="fill:none;stroke-width:0.8;stroke-linecap:butt;stroke-linejoin:round;stroke:rgb(0%,0%,0%);stroke-opacity:1;stroke-miterlimit:4;" d="M 175.733612 307.584242 L 175.733612 311.084961 " transform="matrix(1.083605,0,0,1.084599,0,0)"/>
<path style=" stroke:none;fill-rule:nonzero;fill:rgb(0%,0%,0%);fill-opacity:1;" d="M 184.878906 348.535156 L 186.621094 348.535156 L 186.621094 342.503906 L 184.726562 342.882812 L 184.726562 341.90625 L 186.609375 341.527344 L 187.683594 341.527344 L 187.683594 348.535156 L 189.429688 348.535156 L 189.429688 349.433594 L 184.878906 349.433594 Z M 184.878906 348.535156 "/>
<path style=" stroke:none;fill-rule:nonzero;fill:rgb(0%,0%,0%);fill-opacity:1;" d="M 193.871094 342.230469 C 193.316406 342.230469 192.90625 342.503906 192.625 343.046875 C 192.34375 343.585938 192.214844 344.402344 192.214844 345.484375 C 192.214844 346.570312 192.34375 347.382812 192.625 347.925781 C 192.90625 348.46875 193.316406 348.738281 193.871094 348.738281 C 194.421875 348.738281 194.835938 348.46875 195.117188 347.925781 C 195.386719 347.382812 195.527344 346.570312 195.527344 345.484375 C 195.527344 344.402344 195.386719 343.585938 195.117188 343.046875 C 194.835938 342.503906 194.421875 342.230469 193.871094 342.230469 Z M 193.871094 341.386719 C 194.75 341.386719 195.421875 341.742188 195.898438 342.4375 C 196.363281 343.144531 196.601562 344.164062 196.601562 345.484375 C 196.601562 346.820312 196.363281 347.839844 195.898438 348.535156 C 195.421875 349.226562 194.75 349.574219 193.859375 349.574219 C 192.972656 349.574219 192.300781 349.226562 191.832031 348.535156 C 191.367188 347.839844 191.140625 346.820312 191.140625 345.484375 C 191.140625 344.164062 191.367188 343.144531 191.832031 342.4375 C 192.300781 341.742188 192.984375 341.386719 193.871094 341.386719 Z M 193.871094 341.386719 "/>
<path style="fill:none;stroke-width:0.8;stroke-linecap:butt;stroke-linejoin:round;stroke:rgb(0%,0%,0%);stroke-opacity:1;stroke-miterlimit:4;" d="M 239.291004 307.584242 L 239.291004 311.084961 " transform="matrix(1.083605,0,0,1.084599,0,0)"/>
<path style=" stroke:none;fill-rule:nonzero;fill:rgb(0%,0%,0%);fill-opacity:1;" d="M 254.484375 348.535156 L 258.210938 348.535156 L 258.210938 349.433594 L 253.195312 349.433594 L 253.195312 348.535156 C 253.597656 348.121094 254.148438 347.558594 254.851562 346.839844 C 255.546875 346.136719 255.992188 345.679688 256.175781 345.476562 C 256.523438 345.09375 256.761719 344.769531 256.890625 344.5 C 257.019531 344.238281 257.097656 343.96875 257.097656 343.707031 C 257.097656 343.296875 256.945312 342.949219 256.652344 342.6875 C 256.359375 342.425781 255.980469 342.285156 255.503906 342.285156 C 255.167969 342.285156 254.808594 342.351562 254.441406 342.460938 C 254.074219 342.578125 253.671875 342.753906 253.25 342.992188 L 253.25 341.90625 C 253.683594 341.734375 254.082031 341.601562 254.453125 341.515625 C 254.820312 341.429688 255.167969 341.386719 255.480469 341.386719 C 256.292969 341.386719 256.945312 341.59375 257.433594 342.003906 C 257.917969 342.417969 258.167969 342.957031 258.167969 343.640625 C 258.167969 343.96875 258.105469 344.28125 257.984375 344.5625 C 257.867188 344.855469 257.648438 345.203125 257.324219 345.59375 C 257.238281 345.703125 256.957031 345.996094 256.476562 346.484375 C 256 346.972656 255.339844 347.65625 254.484375 348.535156 Z M 254.484375 348.535156 "/>
<path style=" stroke:none;fill-rule:nonzero;fill:rgb(0%,0%,0%);fill-opacity:1;" d="M 262.742188 342.230469 C 262.1875 342.230469 261.777344 342.503906 261.496094 343.046875 C 261.214844 343.585938 261.082031 344.402344 261.082031 345.484375 C 261.082031 346.570312 261.214844 347.382812 261.496094 347.925781 C 261.777344 348.46875 262.1875 348.738281 262.742188 348.738281 C 263.292969 348.738281 263.707031 348.46875 263.988281 347.925781 C 264.257812 347.382812 264.398438 346.570312 264.398438 345.484375 C 264.398438 344.402344 264.257812 343.585938 263.988281 343.046875 C 263.707031 342.503906 263.292969 342.230469 262.742188 342.230469 Z M 262.742188 341.386719 C 263.621094 341.386719 264.292969 341.742188 264.769531 342.4375 C 265.234375 343.144531 265.472656 344.164062 265.472656 345.484375 C 265.472656 346.820312 265.234375 347.839844 264.769531 348.535156 C 264.292969 349.226562 263.621094 349.574219 262.730469 349.574219 C 261.84375 349.574219 261.171875 349.226562 260.703125 348.535156 C 260.238281 347.839844 260.011719 346.820312 260.011719 345.484375 C 260.011719 344.164062 260.238281 343.144531 260.703125 342.4375 C 261.171875 341.742188 261.851562 341.386719 262.742188 341.386719 Z M 262.742188 341.386719 "/>
<path style="fill:none;stroke-width:0.8;stroke-linecap:butt;stroke-linejoin:round;stroke:rgb(0%,0%,0%);stroke-opacity:1;stroke-miterlimit:4;" d="M 302.848396 307.584242 L 302.848396 311.084961 " transform="matrix(1.083605,0,0,1.084599,0,0)"/>
<path style=" stroke:none;fill-rule:nonzero;fill:rgb(0%,0%,0%);fill-opacity:1;" d="M 325.675781 345.171875 C 326.1875 345.28125 326.585938 345.507812 326.867188 345.855469 C 327.148438 346.203125 327.300781 346.636719 327.300781 347.132812 C 327.300781 347.914062 327.03125 348.523438 326.5 348.945312 C 325.957031 349.367188 325.199219 349.574219 324.214844 349.574219 C 323.878906 349.574219 323.53125 349.542969 323.183594 349.476562 C 322.835938 349.421875 322.46875 349.324219 322.101562 349.195312 L 322.101562 348.164062 C 322.394531 348.339844 322.71875 348.46875 323.074219 348.554688 C 323.421875 348.640625 323.789062 348.683594 324.179688 348.683594 C 324.851562 348.683594 325.363281 348.554688 325.707031 348.296875 C 326.054688 348.035156 326.238281 347.644531 326.238281 347.132812 C 326.238281 346.679688 326.078125 346.308594 325.753906 346.050781 C 325.425781 345.789062 324.972656 345.648438 324.386719 345.648438 L 323.464844 345.648438 L 323.464844 344.769531 L 324.429688 344.769531 C 324.949219 344.769531 325.351562 344.671875 325.632812 344.457031 C 325.914062 344.25 326.054688 343.945312 326.054688 343.542969 C 326.054688 343.144531 325.902344 342.828125 325.621094 342.613281 C 325.328125 342.394531 324.917969 342.285156 324.386719 342.285156 C 324.09375 342.285156 323.78125 342.320312 323.445312 342.382812 C 323.109375 342.449219 322.738281 342.546875 322.339844 342.675781 L 322.339844 341.722656 C 322.738281 341.613281 323.117188 341.527344 323.476562 341.472656 C 323.824219 341.417969 324.160156 341.386719 324.484375 341.386719 C 325.285156 341.386719 325.925781 341.570312 326.402344 341.9375 C 326.878906 342.308594 327.117188 342.808594 327.117188 343.4375 C 327.117188 343.871094 326.988281 344.238281 326.738281 344.542969 C 326.488281 344.847656 326.132812 345.0625 325.675781 345.171875 Z M 325.675781 345.171875 "/>
<path style=" stroke:none;fill-rule:nonzero;fill:rgb(0%,0%,0%);fill-opacity:1;" d="M 331.613281 342.230469 C 331.0625 342.230469 330.648438 342.503906 330.367188 343.046875 C 330.085938 343.585938 329.957031 344.402344 329.957031 345.484375 C 329.957031 346.570312 330.085938 347.382812 330.367188 347.925781 C 330.648438 348.46875 331.0625 348.738281 331.613281 348.738281 C 332.167969 348.738281 332.578125 348.46875 332.859375 347.925781 C 333.132812 347.382812 333.273438 346.570312 333.273438 345.484375 C 333.273438 344.402344 333.132812 343.585938 332.859375 343.046875 C 332.578125 342.503906 332.167969 342.230469 331.613281 342.230469 Z M 331.613281 341.386719 C 332.492188 341.386719 333.164062 341.742188 333.640625 342.4375 C 334.105469 343.144531 334.34375 344.164062 334.34375 345.484375 C 334.34375 346.820312 334.105469 347.839844 333.640625 348.535156 C 333.164062 349.226562 332.492188 349.574219 331.605469 349.574219 C 330.714844 349.574219 330.042969 349.226562 329.578125 348.535156 C 329.113281 347.839844 328.882812 346.820312 328.882812 345.484375 C 328.882812 344.164062 329.113281 343.144531 329.578125 342.4375 C 330.042969 341.742188 330.726562 341.386719 331.613281 341.386719 Z M 331.613281 341.386719 "/>
<path style="fill:none;stroke-width:0.8;stroke-linecap:butt;stroke-linejoin:round;stroke:rgb(0%,0%,0%);stroke-opacity:1;stroke-miterlimit:4;" d="M 366.405788 307.584242 L 366.405788 311.084961 " transform="matrix(1.083605,0,0,1.084599,0,0)"/>
<path style=" stroke:none;fill-rule:nonzero;fill:rgb(0%,0%,0%);fill-opacity:1;" d="M 394.242188 342.460938 L 391.546875 346.679688 L 394.242188 346.679688 Z M 393.960938 341.527344 L 395.304688 341.527344 L 395.304688 346.679688 L 396.433594 346.679688 L 396.433594 347.566406 L 395.304688 347.566406 L 395.304688 349.433594 L 394.242188 349.433594 L 394.242188 347.566406 L 390.679688 347.566406 L 390.679688 346.539062 Z M 393.960938 341.527344 "/>
<path style=" stroke:none;fill-rule:nonzero;fill:rgb(0%,0%,0%);fill-opacity:1;" d="M 400.484375 342.230469 C 399.933594 342.230469 399.519531 342.503906 399.238281 343.046875 C 398.957031 343.585938 398.828125 344.402344 398.828125 345.484375 C 398.828125 346.570312 398.957031 347.382812 399.238281 347.925781 C 399.519531 348.46875 399.933594 348.738281 400.484375 348.738281 C 401.039062 348.738281 401.449219 348.46875 401.730469 347.925781 C 402.003906 347.382812 402.144531 346.570312 402.144531 345.484375 C 402.144531 344.402344 402.003906 343.585938 401.730469 343.046875 C 401.449219 342.503906 401.039062 342.230469 400.484375 342.230469 Z M 400.484375 341.386719 C 401.363281 341.386719 402.035156 341.742188 402.511719 342.4375 C 402.976562 343.144531 403.214844 344.164062 403.214844 345.484375 C 403.214844 346.820312 402.976562 347.839844 402.511719 348.535156 C 402.035156 349.226562 401.363281 349.574219 400.472656 349.574219 C 399.585938 349.574219 398.914062 349.226562 398.449219 348.535156 C 397.980469 347.839844 397.753906 346.820312 397.753906 345.484375 C 397.753906 344.164062 397.980469 343.144531 398.449219 342.4375 C 398.914062 341.742188 399.597656 341.386719 400.484375 341.386719 Z M 400.484375 341.386719 "/>
<path style=" stroke:none;fill-rule:nonzero;fill:rgb(0%,0%,0%);fill-opacity:1;" d="M 233.796875 356.355469 L 240.46875 356.355469 L 240.46875 357.257812 L 237.664062 357.257812 L 237.664062 364.261719 L 236.589844 364.261719 L 236.589844 357.257812 L 233.796875 357.257812 Z M 233.796875 356.355469 "/>
<path style=" stroke:none;fill-rule:nonzero;fill:rgb(0%,0%,0%);fill-opacity:1;" d="M 241.132812 358.328125 L 242.109375 358.328125 L 242.109375 364.261719 L 241.132812 364.261719 Z M 241.132812 356.019531 L 242.109375 356.019531 L 242.109375 357.257812 L 241.132812 357.257812 Z M 241.132812 356.019531 "/>
<path style=" stroke:none;fill-rule:nonzero;fill:rgb(0%,0%,0%);fill-opacity:1;" d="M 248.761719 359.46875 C 249 359.035156 249.292969 358.71875 249.628906 358.503906 C 249.964844 358.296875 250.367188 358.1875 250.832031 358.1875 C 251.441406 358.1875 251.917969 358.40625 252.253906 358.839844 C 252.589844 359.273438 252.761719 359.890625 252.761719 360.683594 L 252.761719 364.261719 L 251.785156 364.261719 L 251.785156 360.714844 C 251.785156 360.152344 251.679688 359.730469 251.484375 359.445312 C 251.277344 359.175781 250.972656 359.035156 250.5625 359.035156 C 250.050781 359.035156 249.652344 359.207031 249.359375 359.542969 C 249.066406 359.878906 248.925781 360.335938 248.925781 360.910156 L 248.925781 364.261719 L 247.949219 364.261719 L 247.949219 360.714844 C 247.949219 360.152344 247.84375 359.730469 247.648438 359.445312 C 247.441406 359.175781 247.125 359.035156 246.714844 359.035156 C 246.214844 359.035156 245.816406 359.207031 245.523438 359.542969 C 245.230469 359.878906 245.089844 360.335938 245.089844 360.910156 L 245.089844 364.261719 L 244.113281 364.261719 L 244.113281 358.328125 L 245.089844 358.328125 L 245.089844 359.25 C 245.304688 358.894531 245.578125 358.621094 245.890625 358.449219 C 246.195312 358.277344 246.5625 358.1875 246.996094 358.1875 C 247.429688 358.1875 247.789062 358.296875 248.089844 358.515625 C 248.394531 358.730469 248.613281 359.054688 248.761719 359.46875 Z M 248.761719 359.46875 "/>
<path style=" stroke:none;fill-rule:nonzero;fill:rgb(0%,0%,0%);fill-opacity:1;" d="M 259.773438 361.050781 L 259.773438 361.527344 L 255.296875 361.527344 C 255.339844 362.203125 255.535156 362.722656 255.902344 363.070312 C 256.261719 363.417969 256.761719 363.589844 257.410156 363.589844 C 257.777344 363.589844 258.148438 363.546875 258.492188 363.460938 C 258.839844 363.375 259.199219 363.230469 259.546875 363.035156 L 259.546875 363.957031 C 259.199219 364.109375 258.839844 364.230469 258.472656 364.296875 C 258.105469 364.359375 257.722656 364.402344 257.355469 364.402344 C 256.402344 364.402344 255.65625 364.132812 255.101562 363.589844 C 254.550781 363.046875 254.277344 362.300781 254.277344 361.355469 C 254.277344 360.390625 254.539062 359.621094 255.058594 359.046875 C 255.578125 358.480469 256.292969 358.1875 257.183594 358.1875 C 257.984375 358.1875 258.613281 358.449219 259.078125 358.957031 C 259.535156 359.480469 259.773438 360.171875 259.773438 361.050781 Z M 258.796875 360.769531 C 258.785156 360.238281 258.636719 359.816406 258.351562 359.492188 C 258.058594 359.175781 257.671875 359.011719 257.195312 359.011719 C 256.652344 359.011719 256.21875 359.175781 255.894531 359.480469 C 255.566406 359.78125 255.375 360.21875 255.328125 360.769531 Z M 258.796875 360.769531 "/>
<path style=" stroke:none;fill-rule:nonzero;fill:rgb(0%,0%,0%);fill-opacity:1;" d="M 264.726562 356.019531 L 266.96875 356.019531 L 266.96875 356.777344 L 265.699219 356.777344 L 265.699219 364.925781 L 266.96875 364.925781 L 266.96875 365.683594 L 264.726562 365.683594 Z M 264.726562 356.019531 "/>
<path style=" stroke:none;fill-rule:nonzero;fill:rgb(0%,0%,0%);fill-opacity:1;" d="M 272.820312 358.503906 L 272.820312 359.425781 C 272.539062 359.296875 272.253906 359.1875 271.964844 359.109375 C 271.660156 359.046875 271.355469 359.003906 271.042969 359.003906 C 270.554688 359.003906 270.1875 359.078125 269.949219 359.230469 C 269.710938 359.382812 269.589844 359.597656 269.589844 359.890625 C 269.589844 360.121094 269.675781 360.292969 269.851562 360.421875 C 270.023438 360.554688 270.371094 360.683594 270.890625 360.792969 L 271.226562 360.867188 C 271.917969 361.019531 272.40625 361.238281 272.699219 361.496094 C 272.980469 361.769531 273.132812 362.148438 273.132812 362.625 C 273.132812 363.179688 272.917969 363.613281 272.484375 363.925781 C 272.050781 364.25 271.441406 364.402344 270.683594 364.402344 C 270.359375 364.402344 270.035156 364.371094 269.6875 364.316406 C 269.339844 364.261719 268.984375 364.175781 268.605469 364.046875 L 268.605469 363.035156 C 268.960938 363.230469 269.320312 363.375 269.664062 363.460938 C 270.011719 363.558594 270.359375 363.601562 270.707031 363.601562 C 271.160156 363.601562 271.519531 363.523438 271.769531 363.375 C 272.007812 363.222656 272.136719 362.992188 272.136719 362.699219 C 272.136719 362.441406 272.039062 362.234375 271.867188 362.09375 C 271.691406 361.953125 271.300781 361.8125 270.695312 361.679688 L 270.359375 361.605469 C 269.753906 361.476562 269.308594 361.28125 269.046875 361.019531 C 268.777344 360.757812 268.648438 360.402344 268.648438 359.933594 C 268.648438 359.382812 268.84375 358.949219 269.234375 358.644531 C 269.621094 358.339844 270.1875 358.1875 270.921875 358.1875 C 271.28125 358.1875 271.617188 358.222656 271.941406 358.277344 C 272.253906 358.328125 272.546875 358.40625 272.820312 358.503906 Z M 272.820312 358.503906 "/>
<path style=" stroke:none;fill-rule:nonzero;fill:rgb(0%,0%,0%);fill-opacity:1;" d="M 276.957031 356.019531 L 276.957031 365.683594 L 274.714844 365.683594 L 274.714844 364.925781 L 275.984375 364.925781 L 275.984375 356.777344 L 274.714844 356.777344 L 274.714844 356.019531 Z M 276.957031 356.019531 "/>
<path style="fill:none;stroke-width:0.8;stroke-linecap:butt;stroke-linejoin:round;stroke:rgb(0%,0%,0%);stroke-opacity:1;stroke-miterlimit:4;" d="M 103.102772 284.25332 L 99.602447 284.25332 " transform="matrix(1.083605,0,0,1.084599,0,0)"/>
<path style=" stroke:none;fill-rule:nonzero;fill:rgb(0%,0%,0%);fill-opacity:1;" d="M 92.4375 311.519531 L 96.164062 311.519531 L 96.164062 312.417969 L 91.148438 312.417969 L 91.148438 311.519531 C 91.546875 311.105469 92.101562 310.542969 92.804688 309.828125 C 93.5 309.121094 93.941406 308.667969 94.128906 308.460938 C 94.472656 308.082031 94.710938 307.757812 94.84375 307.484375 C 94.972656 307.222656 95.046875 306.953125 95.046875 306.691406 C 95.046875 306.28125 94.898438 305.933594 94.605469 305.671875 C 94.3125 305.414062 93.933594 305.273438 93.457031 305.273438 C 93.121094 305.273438 92.761719 305.335938 92.394531 305.445312 C 92.023438 305.566406 91.625 305.738281 91.203125 305.976562 L 91.203125 304.894531 C 91.636719 304.71875 92.035156 304.589844 92.40625 304.503906 C 92.773438 304.414062 93.121094 304.371094 93.433594 304.371094 C 94.246094 304.371094 94.898438 304.578125 95.382812 304.992188 C 95.871094 305.402344 96.121094 305.945312 96.121094 306.628906 C 96.121094 306.953125 96.054688 307.269531 95.9375 307.550781 C 95.816406 307.84375 95.601562 308.191406 95.277344 308.582031 C 95.1875 308.6875 94.90625 308.980469 94.429688 309.46875 C 93.953125 309.957031 93.292969 310.640625 92.4375 311.519531 Z M 92.4375 311.519531 "/>
<path style=" stroke:none;fill-rule:nonzero;fill:rgb(0%,0%,0%);fill-opacity:1;" d="M 100.695312 305.21875 C 100.140625 305.21875 99.730469 305.488281 99.449219 306.03125 C 99.167969 306.574219 99.035156 307.386719 99.035156 308.472656 C 99.035156 309.554688 99.167969 310.371094 99.449219 310.914062 C 99.730469 311.453125 100.140625 311.726562 100.695312 311.726562 C 101.246094 311.726562 101.660156 311.453125 101.941406 310.914062 C 102.210938 310.371094 102.351562 309.554688 102.351562 308.472656 C 102.351562 307.386719 102.210938 306.574219 101.941406 306.03125 C 101.660156 305.488281 101.246094 305.21875 100.695312 305.21875 Z M 100.695312 304.371094 C 101.570312 304.371094 102.242188 304.730469 102.71875 305.425781 C 103.1875 306.128906 103.425781 307.148438 103.425781 308.472656 C 103.425781 309.804688 103.1875 310.824219 102.71875 311.519531 C 102.242188 312.214844 101.570312 312.5625 100.683594 312.5625 C 99.792969 312.5625 99.121094 312.214844 98.65625 311.519531 C 98.191406 310.824219 97.964844 309.804688 97.964844 308.472656 C 97.964844 307.148438 98.191406 306.128906 98.65625 305.425781 C 99.121094 304.730469 99.804688 304.371094 100.695312 304.371094 Z M 100.695312 304.371094 "/>
<path style="fill:none;stroke-width:0.8;stroke-linecap:butt;stroke-linejoin:round;stroke:rgb(0%,0%,0%);stroke-opacity:1;stroke-miterlimit:4;" d="M 103.102772 235.232453 L 99.602447 235.232453 " transform="matrix(1.083605,0,0,1.084599,0,0)"/>
<path style=" stroke:none;fill-rule:nonzero;fill:rgb(0%,0%,0%);fill-opacity:1;" d="M 94.753906 254.988281 C 95.265625 255.097656 95.667969 255.324219 95.949219 255.671875 C 96.230469 256.019531 96.382812 256.453125 96.382812 256.953125 C 96.382812 257.734375 96.109375 258.339844 95.578125 258.761719 C 95.039062 259.1875 94.277344 259.394531 93.292969 259.394531 C 92.957031 259.394531 92.609375 259.359375 92.261719 259.296875 C 91.917969 259.242188 91.546875 259.144531 91.179688 259.011719 L 91.179688 257.984375 C 91.472656 258.15625 91.796875 258.285156 92.15625 258.375 C 92.5 258.460938 92.871094 258.503906 93.261719 258.503906 C 93.933594 258.503906 94.441406 258.375 94.789062 258.113281 C 95.136719 257.851562 95.320312 257.460938 95.320312 256.953125 C 95.320312 256.496094 95.15625 256.128906 94.832031 255.867188 C 94.507812 255.605469 94.050781 255.464844 93.464844 255.464844 L 92.546875 255.464844 L 92.546875 254.585938 L 93.507812 254.585938 C 94.03125 254.585938 94.429688 254.492188 94.710938 254.273438 C 94.996094 254.066406 95.136719 253.761719 95.136719 253.363281 C 95.136719 252.960938 94.984375 252.644531 94.703125 252.429688 C 94.410156 252.210938 93.996094 252.105469 93.464844 252.105469 C 93.171875 252.105469 92.859375 252.136719 92.523438 252.203125 C 92.1875 252.265625 91.820312 252.363281 91.417969 252.496094 L 91.417969 251.539062 C 91.820312 251.433594 92.199219 251.34375 92.554688 251.289062 C 92.902344 251.238281 93.238281 251.203125 93.5625 251.203125 C 94.367188 251.203125 95.003906 251.386719 95.480469 251.757812 C 95.957031 252.125 96.195312 252.625 96.195312 253.253906 C 96.195312 253.6875 96.066406 254.054688 95.816406 254.359375 C 95.570312 254.664062 95.210938 254.878906 94.753906 254.988281 Z M 94.753906 254.988281 "/>
<path style=" stroke:none;fill-rule:nonzero;fill:rgb(0%,0%,0%);fill-opacity:1;" d="M 100.695312 252.050781 C 100.140625 252.050781 99.730469 252.320312 99.449219 252.863281 C 99.167969 253.40625 99.035156 254.21875 99.035156 255.304688 C 99.035156 256.386719 99.167969 257.203125 99.449219 257.742188 C 99.730469 258.285156 100.140625 258.558594 100.695312 258.558594 C 101.246094 258.558594 101.660156 258.285156 101.941406 257.742188 C 102.210938 257.203125 102.351562 256.386719 102.351562 255.304688 C 102.351562 254.21875 102.210938 253.40625 101.941406 252.863281 C 101.660156 252.320312 101.246094 252.050781 100.695312 252.050781 Z M 100.695312 251.203125 C 101.570312 251.203125 102.242188 251.5625 102.71875 252.257812 C 103.1875 252.960938 103.425781 253.980469 103.425781 255.304688 C 103.425781 256.636719 103.1875 257.65625 102.71875 258.351562 C 102.242188 259.046875 101.570312 259.394531 100.683594 259.394531 C 99.792969 259.394531 99.121094 259.046875 98.65625 258.351562 C 98.191406 257.65625 97.964844 256.636719 97.964844 255.304688 C 97.964844 253.980469 98.191406 252.960938 98.65625 252.257812 C 99.121094 251.5625 99.804688 251.203125 100.695312 251.203125 Z M 100.695312 251.203125 "/>
<path style="fill:none;stroke-width:0.8;stroke-linecap:butt;stroke-linejoin:round;stroke:rgb(0%,0%,0%);stroke-opacity:1;stroke-miterlimit:4;" d="M 103.102772 186.211586 L 99.602447 186.211586 " transform="matrix(1.083605,0,0,1.084599,0,0)"/>
<path style=" stroke:none;fill-rule:nonzero;fill:rgb(0%,0%,0%);fill-opacity:1;" d="M 94.453125 199.105469 L 91.753906 203.328125 L 94.453125 203.328125 Z M 94.171875 198.175781 L 95.515625 198.175781 L 95.515625 203.328125 L 96.640625 203.328125 L 96.640625 204.214844 L 95.515625 204.214844 L 95.515625 206.082031 L 94.453125 206.082031 L 94.453125 204.214844 L 90.886719 204.214844 L 90.886719 203.183594 Z M 94.171875 198.175781 "/>
<path style=" stroke:none;fill-rule:nonzero;fill:rgb(0%,0%,0%);fill-opacity:1;" d="M 100.695312 198.878906 C 100.140625 198.878906 99.730469 199.152344 99.449219 199.691406 C 99.167969 200.234375 99.035156 201.046875 99.035156 202.132812 C 99.035156 203.21875 99.167969 204.03125 99.449219 204.574219 C 99.730469 205.117188 100.140625 205.386719 100.695312 205.386719 C 101.246094 205.386719 101.660156 205.117188 101.941406 204.574219 C 102.210938 204.03125 102.351562 203.21875 102.351562 202.132812 C 102.351562 201.046875 102.210938 200.234375 101.941406 199.691406 C 101.660156 199.152344 101.246094 198.878906 100.695312 198.878906 Z M 100.695312 198.035156 C 101.570312 198.035156 102.242188 198.390625 102.71875 199.085938 C 103.1875 199.789062 103.425781 200.808594 103.425781 202.132812 C 103.425781 203.46875 103.1875 204.488281 102.71875 205.179688 C 102.242188 205.875 101.570312 206.222656 100.683594 206.222656 C 99.792969 206.222656 99.121094 205.875 98.65625 205.179688 C 98.191406 204.488281 97.964844 203.46875 97.964844 202.132812 C 97.964844 200.808594 98.191406 199.789062 98.65625 199.085938 C 99.121094 198.390625 99.804688 198.035156 100.695312 198.035156 Z M 100.695312 198.035156 "/>
<path style="fill:none;stroke-width:0.8;stroke-linecap:butt;stroke-linejoin:round;stroke:rgb(0%,0%,0%);stroke-opacity:1;stroke-miterlimit:4;" d="M 103.102772 137.187117 L 99.602447 137.187117 " transform="matrix(1.083605,0,0,1.084599,0,0)"/>
<path style=" stroke:none;fill-rule:nonzero;fill:rgb(0%,0%,0%);fill-opacity:1;" d="M 91.527344 145.003906 L 95.71875 145.003906 L 95.71875 145.90625 L 92.5 145.90625 L 92.5 147.847656 C 92.652344 147.792969 92.816406 147.75 92.96875 147.726562 C 93.121094 147.707031 93.28125 147.683594 93.433594 147.683594 C 94.3125 147.683594 95.003906 147.933594 95.523438 148.410156 C 96.046875 148.898438 96.304688 149.550781 96.304688 150.375 C 96.304688 151.230469 96.035156 151.894531 95.503906 152.359375 C 94.972656 152.824219 94.226562 153.054688 93.269531 153.054688 C 92.933594 153.054688 92.597656 153.019531 92.253906 152.976562 C 91.90625 152.921875 91.558594 152.847656 91.191406 152.726562 L 91.191406 151.652344 C 91.503906 151.828125 91.832031 151.957031 92.175781 152.042969 C 92.511719 152.132812 92.871094 152.164062 93.25 152.164062 C 93.855469 152.164062 94.34375 152.011719 94.703125 151.6875 C 95.046875 151.359375 95.234375 150.925781 95.234375 150.375 C 95.234375 149.832031 95.046875 149.398438 94.703125 149.074219 C 94.34375 148.746094 93.855469 148.585938 93.25 148.585938 C 92.96875 148.585938 92.675781 148.617188 92.394531 148.683594 C 92.113281 148.746094 91.820312 148.84375 91.527344 148.976562 Z M 91.527344 145.003906 "/>
<path style=" stroke:none;fill-rule:nonzero;fill:rgb(0%,0%,0%);fill-opacity:1;" d="M 100.695312 145.710938 C 100.140625 145.710938 99.730469 145.980469 99.449219 146.523438 C 99.167969 147.066406 99.035156 147.878906 99.035156 148.964844 C 99.035156 150.046875 99.167969 150.863281 99.449219 151.40625 C 99.730469 151.945312 100.140625 152.21875 100.695312 152.21875 C 101.246094 152.21875 101.660156 151.945312 101.941406 151.40625 C 102.210938 150.863281 102.351562 150.046875 102.351562 148.964844 C 102.351562 147.878906 102.210938 147.066406 101.941406 146.523438 C 101.660156 145.980469 101.246094 145.710938 100.695312 145.710938 Z M 100.695312 144.863281 C 101.570312 144.863281 102.242188 145.222656 102.71875 145.917969 C 103.1875 146.621094 103.425781 147.640625 103.425781 148.964844 C 103.425781 150.296875 103.1875 151.316406 102.71875 152.011719 C 102.242188 152.707031 101.570312 153.054688 100.683594 153.054688 C 99.792969 153.054688 99.121094 152.707031 98.65625 152.011719 C 98.191406 151.316406 97.964844 150.296875 97.964844 148.964844 C 97.964844 147.640625 98.191406 146.621094 98.65625 145.917969 C 99.121094 145.222656 99.804688 144.863281 100.695312 144.863281 Z M 100.695312 144.863281 "/>
<path style="fill:none;stroke-width:0.8;stroke-linecap:butt;stroke-linejoin:round;stroke:rgb(0%,0%,0%);stroke-opacity:1;stroke-miterlimit:4;" d="M 103.102772 88.16625 L 99.602447 88.16625 " transform="matrix(1.083605,0,0,1.084599,0,0)"/>
<path style=" stroke:none;fill-rule:nonzero;fill:rgb(0%,0%,0%);fill-opacity:1;" d="M 93.933594 95.359375 C 93.457031 95.359375 93.078125 95.535156 92.792969 95.859375 C 92.511719 96.183594 92.371094 96.640625 92.371094 97.203125 C 92.371094 97.78125 92.511719 98.234375 92.792969 98.5625 C 93.078125 98.886719 93.457031 99.046875 93.933594 99.046875 C 94.410156 99.046875 94.789062 98.886719 95.070312 98.5625 C 95.351562 98.234375 95.492188 97.78125 95.492188 97.203125 C 95.492188 96.640625 95.351562 96.183594 95.070312 95.859375 C 94.789062 95.535156 94.410156 95.359375 93.933594 95.359375 Z M 96.054688 92.007812 L 96.054688 92.984375 C 95.785156 92.855469 95.515625 92.757812 95.242188 92.691406 C 94.960938 92.628906 94.691406 92.59375 94.429688 92.59375 C 93.714844 92.59375 93.171875 92.835938 92.804688 93.3125 C 92.4375 93.789062 92.21875 94.515625 92.175781 95.46875 C 92.382812 95.164062 92.644531 94.925781 92.957031 94.765625 C 93.269531 94.601562 93.617188 94.515625 93.996094 94.515625 C 94.789062 94.515625 95.417969 94.765625 95.871094 95.242188 C 96.328125 95.71875 96.566406 96.378906 96.566406 97.203125 C 96.566406 98.019531 96.316406 98.667969 95.839844 99.15625 C 95.363281 99.644531 94.722656 99.882812 93.933594 99.882812 C 93.023438 99.882812 92.316406 99.535156 91.839844 98.84375 C 91.351562 98.148438 91.113281 97.128906 91.113281 95.796875 C 91.113281 94.546875 91.40625 93.550781 92.003906 92.8125 C 92.589844 92.074219 93.390625 91.695312 94.386719 91.695312 C 94.648438 91.695312 94.917969 91.726562 95.199219 91.769531 C 95.472656 91.824219 95.753906 91.902344 96.054688 92.007812 Z M 96.054688 92.007812 "/>
<path style=" stroke:none;fill-rule:nonzero;fill:rgb(0%,0%,0%);fill-opacity:1;" d="M 100.695312 92.542969 C 100.140625 92.542969 99.730469 92.8125 99.449219 93.355469 C 99.167969 93.898438 99.035156 94.710938 99.035156 95.796875 C 99.035156 96.878906 99.167969 97.691406 99.449219 98.234375 C 99.730469 98.777344 100.140625 99.046875 100.695312 99.046875 C 101.246094 99.046875 101.660156 98.777344 101.941406 98.234375 C 102.210938 97.691406 102.351562 96.878906 102.351562 95.796875 C 102.351562 94.710938 102.210938 93.898438 101.941406 93.355469 C 101.660156 92.8125 101.246094 92.542969 100.695312 92.542969 Z M 100.695312 91.695312 C 101.570312 91.695312 102.242188 92.054688 102.71875 92.746094 C 103.1875 93.453125 103.425781 94.472656 103.425781 95.796875 C 103.425781 97.128906 103.1875 98.148438 102.71875 98.84375 C 102.242188 99.535156 101.570312 99.882812 100.683594 99.882812 C 99.792969 99.882812 99.121094 99.535156 98.65625 98.84375 C 98.191406 98.148438 97.964844 97.128906 97.964844 95.796875 C 97.964844 94.472656 98.191406 93.453125 98.65625 92.746094 C 99.121094 92.054688 99.804688 91.695312 100.695312 91.695312 Z M 100.695312 91.695312 "/>
<path style=" stroke:none;fill-rule:nonzero;fill:rgb(0%,0%,0%);fill-opacity:1;" d="M 76.75 222.132812 L 82.890625 222.132812 L 82.890625 220.84375 C 82.890625 219.757812 82.652344 218.957031 82.15625 218.445312 C 81.65625 217.949219 80.878906 217.6875 79.816406 217.6875 C 78.753906 217.6875 77.984375 217.949219 77.484375 218.445312 C 76.996094 218.957031 76.75 219.757812 76.75 220.84375 Z M 75.871094 223.207031 L 75.871094 221.007812 C 75.871094 219.476562 76.195312 218.347656 76.824219 217.632812 C 77.464844 216.917969 78.460938 216.558594 79.816406 216.558594 C 81.179688 216.558594 82.175781 216.929688 82.816406 217.644531 C 83.457031 218.359375 83.769531 219.488281 83.769531 221.007812 L 83.769531 223.207031 Z M 75.871094 223.207031 "/>
<path style=" stroke:none;fill-rule:nonzero;fill:rgb(0%,0%,0%);fill-opacity:1;" d="M 77.84375 214.898438 L 77.84375 213.925781 L 83.769531 213.925781 L 83.769531 214.898438 Z M 75.535156 214.898438 L 75.535156 213.925781 L 76.769531 213.925781 L 76.769531 214.898438 Z M 75.535156 214.898438 "/>
<path style=" stroke:none;fill-rule:nonzero;fill:rgb(0%,0%,0%);fill-opacity:1;" d="M 78.015625 208.101562 L 78.9375 208.101562 C 78.808594 208.382812 78.699219 208.664062 78.625 208.957031 C 78.558594 209.261719 78.515625 209.5625 78.515625 209.878906 C 78.515625 210.367188 78.589844 210.734375 78.742188 210.972656 C 78.894531 211.210938 79.109375 211.332031 79.402344 211.332031 C 79.632812 211.332031 79.804688 211.246094 79.933594 211.070312 C 80.0625 210.898438 80.195312 210.550781 80.300781 210.03125 L 80.378906 209.695312 C 80.53125 209 80.746094 208.511719 81.007812 208.21875 C 81.277344 207.9375 81.65625 207.785156 82.132812 207.785156 C 82.6875 207.785156 83.121094 208.003906 83.433594 208.4375 C 83.757812 208.871094 83.910156 209.476562 83.910156 210.238281 C 83.910156 210.5625 83.878906 210.886719 83.824219 211.234375 C 83.769531 211.582031 83.683594 211.9375 83.554688 212.320312 L 82.546875 212.320312 C 82.742188 211.960938 82.882812 211.601562 82.96875 211.257812 C 83.066406 210.910156 83.109375 210.5625 83.109375 210.214844 C 83.109375 209.757812 83.035156 209.402344 82.882812 209.152344 C 82.730469 208.914062 82.503906 208.78125 82.210938 208.78125 C 81.949219 208.78125 81.742188 208.878906 81.601562 209.054688 C 81.460938 209.226562 81.320312 209.617188 81.191406 210.226562 L 81.117188 210.5625 C 80.984375 211.167969 80.789062 211.613281 80.53125 211.875 C 80.269531 212.144531 79.914062 212.277344 79.445312 212.277344 C 78.894531 212.277344 78.460938 212.082031 78.15625 211.691406 C 77.855469 211.300781 77.703125 210.734375 77.703125 209.996094 C 77.703125 209.640625 77.734375 209.304688 77.789062 208.976562 C 77.84375 208.664062 77.917969 208.371094 78.015625 208.101562 Z M 78.015625 208.101562 "/>
<path style=" stroke:none;fill-rule:nonzero;fill:rgb(0%,0%,0%);fill-opacity:1;" d="M 76.164062 205.269531 L 77.84375 205.269531 L 77.84375 203.261719 L 78.601562 203.261719 L 78.601562 205.269531 L 81.820312 205.269531 C 82.308594 205.269531 82.621094 205.203125 82.75 205.074219 C 82.890625 204.945312 82.957031 204.671875 82.957031 204.261719 L 82.957031 203.261719 L 83.769531 203.261719 L 83.769531 204.261719 C 83.769531 205.019531 83.628906 205.539062 83.347656 205.820312 C 83.066406 206.105469 82.554688 206.246094 81.820312 206.246094 L 78.601562 206.246094 L 78.601562 206.960938 L 77.84375 206.960938 L 77.84375 206.246094 L 76.164062 206.246094 Z M 76.164062 205.269531 "/>
<path style=" stroke:none;fill-rule:nonzero;fill:rgb(0%,0%,0%);fill-opacity:1;" d="M 80.789062 199.28125 C 80.789062 200.074219 80.886719 200.617188 81.0625 200.917969 C 81.246094 201.222656 81.550781 201.375 81.980469 201.375 C 82.328125 201.375 82.609375 201.265625 82.804688 201.039062 C 83.011719 200.8125 83.109375 200.496094 83.109375 200.105469 C 83.109375 199.5625 82.925781 199.128906 82.535156 198.804688 C 82.15625 198.480469 81.644531 198.316406 81.007812 198.316406 L 80.789062 198.316406 Z M 80.390625 197.339844 L 83.769531 197.339844 L 83.769531 198.316406 L 82.871094 198.316406 C 83.238281 198.542969 83.5 198.828125 83.660156 199.152344 C 83.824219 199.476562 83.910156 199.890625 83.910156 200.367188 C 83.910156 200.972656 83.75 201.460938 83.414062 201.820312 C 83.078125 202.179688 82.621094 202.351562 82.046875 202.351562 C 81.386719 202.351562 80.886719 202.132812 80.542969 201.679688 C 80.207031 201.234375 80.03125 200.574219 80.03125 199.683594 L 80.03125 198.316406 L 79.933594 198.316406 C 79.488281 198.316406 79.144531 198.46875 78.894531 198.761719 C 78.65625 199.054688 78.527344 199.464844 78.527344 199.996094 C 78.527344 200.34375 78.570312 200.671875 78.65625 200.996094 C 78.742188 201.320312 78.863281 201.625 79.011719 201.917969 L 78.113281 201.917969 C 77.984375 201.570312 77.875 201.222656 77.808594 200.886719 C 77.746094 200.550781 77.703125 200.226562 77.703125 199.898438 C 77.703125 199.042969 77.929688 198.402344 78.375 197.980469 C 78.816406 197.558594 79.488281 197.339844 80.390625 197.339844 Z M 80.390625 197.339844 "/>
<path style=" stroke:none;fill-rule:nonzero;fill:rgb(0%,0%,0%);fill-opacity:1;" d="M 80.195312 190.398438 L 83.769531 190.398438 L 83.769531 191.375 L 80.226562 191.375 C 79.664062 191.375 79.25 191.496094 78.96875 191.710938 C 78.6875 191.929688 78.546875 192.253906 78.546875 192.6875 C 78.546875 193.21875 78.71875 193.632812 79.054688 193.933594 C 79.390625 194.238281 79.847656 194.390625 80.421875 194.390625 L 83.769531 194.390625 L 83.769531 195.367188 L 77.84375 195.367188 L 77.84375 194.390625 L 78.765625 194.390625 C 78.417969 194.164062 78.144531 193.890625 77.972656 193.566406 C 77.800781 193.25 77.703125 192.882812 77.703125 192.472656 C 77.703125 191.796875 77.917969 191.277344 78.339844 190.929688 C 78.765625 190.582031 79.382812 190.398438 80.195312 190.398438 Z M 80.195312 190.398438 "/>
<path style=" stroke:none;fill-rule:nonzero;fill:rgb(0%,0%,0%);fill-opacity:1;" d="M 78.070312 184.183594 L 78.980469 184.183594 C 78.828125 184.464844 78.71875 184.738281 78.644531 185.019531 C 78.570312 185.300781 78.527344 185.574219 78.527344 185.855469 C 78.527344 186.484375 78.730469 186.984375 79.132812 187.328125 C 79.535156 187.675781 80.097656 187.851562 80.8125 187.851562 C 81.539062 187.851562 82.101562 187.675781 82.503906 187.328125 C 82.902344 186.984375 83.097656 186.484375 83.097656 185.855469 C 83.097656 185.574219 83.066406 185.300781 82.988281 185.019531 C 82.914062 184.738281 82.796875 184.464844 82.644531 184.183594 L 83.542969 184.183594 C 83.671875 184.464844 83.769531 184.75 83.824219 185.03125 C 83.878906 185.324219 83.910156 185.636719 83.910156 185.964844 C 83.910156 186.851562 83.640625 187.566406 83.078125 188.089844 C 82.523438 188.621094 81.765625 188.878906 80.8125 188.878906 C 79.847656 188.878906 79.089844 188.621094 78.535156 188.089844 C 77.984375 187.558594 77.703125 186.832031 77.703125 185.898438 C 77.703125 185.59375 77.734375 185.300781 77.800781 185.019531 C 77.863281 184.738281 77.953125 184.457031 78.070312 184.183594 Z M 78.070312 184.183594 "/>
<path style=" stroke:none;fill-rule:nonzero;fill:rgb(0%,0%,0%);fill-opacity:1;" d="M 80.5625 177.417969 L 81.039062 177.417969 L 81.039062 181.894531 C 81.710938 181.851562 82.230469 181.65625 82.578125 181.289062 C 82.925781 180.929688 83.097656 180.433594 83.097656 179.78125 C 83.097656 179.414062 83.054688 179.042969 82.96875 178.695312 C 82.882812 178.347656 82.742188 177.992188 82.546875 177.644531 L 83.46875 177.644531 C 83.617188 177.992188 83.738281 178.347656 83.804688 178.71875 C 83.867188 179.085938 83.910156 179.464844 83.910156 179.835938 C 83.910156 180.789062 83.640625 181.539062 83.097656 182.089844 C 82.554688 182.644531 81.808594 182.914062 80.867188 182.914062 C 79.902344 182.914062 79.132812 182.65625 78.558594 182.132812 C 77.996094 181.613281 77.703125 180.898438 77.703125 180.007812 C 77.703125 179.207031 77.960938 178.578125 78.472656 178.109375 C 78.992188 177.65625 79.683594 177.417969 80.5625 177.417969 Z M 80.28125 178.394531 C 79.75 178.402344 79.328125 178.554688 79.003906 178.835938 C 78.6875 179.128906 78.527344 179.519531 78.527344 179.996094 C 78.527344 180.539062 78.6875 180.972656 78.992188 181.300781 C 79.296875 181.625 79.726562 181.820312 80.28125 181.863281 Z M 80.28125 178.394531 "/>
<path style=" stroke:none;fill-rule:nonzero;fill:rgb(0%,0%,0%);fill-opacity:1;" d="M 75.535156 172.460938 L 75.535156 170.214844 L 76.292969 170.214844 L 76.292969 171.484375 L 84.429688 171.484375 L 84.429688 170.214844 L 85.191406 170.214844 L 85.191406 172.460938 Z M 75.535156 172.460938 "/>
<path style=" stroke:none;fill-rule:nonzero;fill:rgb(0%,0%,0%);fill-opacity:1;" d="M 78.980469 163.523438 C 78.546875 163.285156 78.234375 162.992188 78.015625 162.65625 C 77.808594 162.320312 77.703125 161.917969 77.703125 161.453125 C 77.703125 160.84375 77.917969 160.367188 78.351562 160.03125 C 78.785156 159.695312 79.402344 159.519531 80.195312 159.519531 L 83.769531 159.519531 L 83.769531 160.496094 L 80.226562 160.496094 C 79.664062 160.496094 79.242188 160.605469 78.960938 160.800781 C 78.6875 161.007812 78.546875 161.308594 78.546875 161.722656 C 78.546875 162.230469 78.71875 162.632812 79.054688 162.925781 C 79.390625 163.21875 79.847656 163.359375 80.421875 163.359375 L 83.769531 163.359375 L 83.769531 164.335938 L 80.226562 164.335938 C 79.664062 164.335938 79.242188 164.445312 78.960938 164.640625 C 78.6875 164.847656 78.546875 165.160156 78.546875 165.574219 C 78.546875 166.070312 78.71875 166.472656 79.054688 166.765625 C 79.390625 167.058594 79.847656 167.199219 80.421875 167.199219 L 83.769531 167.199219 L 83.769531 168.175781 L 77.84375 168.175781 L 77.84375 167.199219 L 78.765625 167.199219 C 78.40625 166.984375 78.136719 166.710938 77.960938 166.398438 C 77.789062 166.09375 77.703125 165.722656 77.703125 165.289062 C 77.703125 164.855469 77.808594 164.5 78.027344 164.195312 C 78.242188 163.890625 78.570312 163.675781 78.980469 163.523438 Z M 78.980469 163.523438 "/>
<path style=" stroke:none;fill-rule:nonzero;fill:rgb(0%,0%,0%);fill-opacity:1;" d="M 75.535156 155.300781 L 85.191406 155.300781 L 85.191406 157.546875 L 84.429688 157.546875 L 84.429688 156.277344 L 76.292969 156.277344 L 76.292969 157.546875 L 75.535156 157.546875 Z M 75.535156 155.300781 "/>
<path style="fill:none;stroke-width:2.5;stroke-linecap:square;stroke-linejoin:round;stroke:rgb(0%,0%,100%);stroke-opacity:1;stroke-miterlimit:4;" d="M 115.200702 53.569641 L 115.975748 53.882977 L 116.776029 54.441219 L 117.742133 55.507281 L 118.892085 57.055953 L 122.078786 62.584352 L 123.596435 65.591656 L 125.110479 68.753828 L 126.137866 70.939977 L 127.395964 73.734789 L 128.567545 76.288297 L 129.050597 77.437195 L 129.493996 78.297969 L 129.692263 78.874219 L 131.851578 83.804758 L 140.622217 104.200406 L 141.901945 107.175297 L 142.186729 107.769555 L 143.152833 110.150188 L 166.184322 163.781055 L 166.645745 164.595008 L 166.937739 165.398156 L 173.545458 178.435813 L 173.826638 178.918422 L 174.194334 179.649539 L 176.209454 183.528422 L 177.993863 186.921094 L 178.631924 188.138422 L 179.410575 189.600656 L 179.922466 190.57668 L 182.442267 195.492813 L 182.838803 196.234734 L 185.246853 200.963586 L 185.636179 201.712711 L 197.315944 224.539414 L 197.589914 225.025625 L 198.087386 225.994445 L 198.739866 227.200969 L 198.829988 227.438672 L 199.04628 227.679977 L 199.230128 228.162586 L 200.264725 230.078617 L 201.115473 231.742539 L 204.835695 238.52068 L 205.329561 239.44268 L 206.101003 240.811273 L 206.602079 241.718867 L 206.886864 242.172664 L 207.243745 242.846156 L 211.180259 249.671117 L 212.182412 251.381859 L 212.997111 252.649609 L 213.213403 253.070992 L 214.348936 254.943805 L 215.120377 256.175539 L 223.364706 268.60093 L 224.258713 269.825461 L 224.958057 270.686234 L 230.11662 277.219469 L 230.570833 277.658859 L 231.764044 279.081477 L 234.327103 281.725023 L 238.133842 285.157313 L 240.293157 286.796023 L 241.057388 287.314648 L 243.328454 288.694047 L 247.538937 290.480422 L 249.820817 291.035063 L 251.709767 291.240352 L 255.40836 291.186328 L 260.887756 291.179125 L 262.780311 291.395219 L 265.188361 291.964266 L 267.376515 292.738602 L 268.876139 293.390484 L 272.841492 294.939156 L 273.980629 295.216477 L 275.765038 295.457781 L 277.545842 295.446977 L 279.301411 295.122836 L 280.82627 294.586203 L 282.16007 293.963133 L 283.24874 293.282438 L 287.585393 289.85375 L 290.137639 287.354266 L 291.147001 286.277398 L 292.772796 284.451406 L 294.67256 282.229242 L 296.853504 279.582094 L 298.933512 276.960156 L 299.52471 276.117391 L 300.85851 274.388641 L 307.188655 265.071398 L 307.779853 264.077367 L 308.684674 262.669156 L 313.017723 255.57768 L 313.608921 254.497211 L 313.918939 254.065023 L 314.153256 253.632836 L 314.376757 253.413141 L 314.58584 252.977352 L 316.788413 248.997625 L 318.07535 246.75025 L 323.976516 236.086023 L 324.304558 235.376516 L 330.533767 223.523773 L 332.826462 219.072242 L 333.983623 216.824867 L 334.372949 216.075742 L 341.75211 201.330945 L 342.119806 200.556609 L 342.487502 199.778672 L 342.82636 199.263648 L 345.400234 193.810883 L 345.623736 193.55157 L 345.92294 192.76643 L 346.672752 191.19975 L 347.956084 188.581414 L 349.214182 185.952273 L 351.636652 180.938898 L 352.523449 179.084094 L 352.912775 178.288148 L 354.935105 174.031102 L 356.337397 171.095828 L 356.611367 170.562797 L 357.119653 169.493133 " transform="matrix(1.083605,0,0,1.084599,0,0)"/>
<path style="fill-rule:nonzero;fill:rgb(100%,64.705882%,0%);fill-opacity:1;stroke-width:2.5;stroke-linecap:butt;stroke-linejoin:round;stroke:rgb(100%,64.705882%,0%);stroke-opacity:1;stroke-miterlimit:4;" d="M 273.508392 298.479492 L 279.510494 292.479289 M 273.508392 292.479289 L 279.510494 298.479492 " transform="matrix(1.083605,0,0,1.084599,0,0)"/>
<path style="fill:none;stroke-width:0.8;stroke-linecap:square;stroke-linejoin:miter;stroke:rgb(0%,0%,0%);stroke-opacity:1;stroke-miterlimit:10;" d="M 103.102772 307.584242 L 103.102772 41.471992 M 369.217584 307.584242 L 369.217584 41.471992 M 103.102772 307.584242 L 369.217584 307.584242 M 103.102772 41.471992 L 369.217584 41.471992 " transform="matrix(1.083605,0,0,1.084599,0,0)"/>
<path style="fill-rule:nonzero;fill:rgb(100%,100%,100%);fill-opacity:0.8;stroke-width:1;stroke-linecap:butt;stroke-linejoin:miter;stroke:rgb(83.529412%,83.921569%,83.529412%);stroke-opacity:0.8;stroke-miterlimit:10;" d="M 184.965674 78.816594 L 362.216934 78.816594 C 363.550734 78.816594 364.217634 78.150305 364.217634 76.817727 L 364.217634 48.47343 C 364.217634 47.13725 363.550734 46.470961 362.216934 46.470961 L 184.965674 46.470961 C 183.631873 46.470961 182.964973 47.13725 182.964973 48.47343 L 182.964973 76.817727 C 182.964973 78.150305 183.631873 78.816594 184.965674 78.816594 Z M 184.965674 78.816594 " transform="matrix(1.083605,0,0,1.084599,0,0)"/>
<path style="fill:none;stroke-width:2.5;stroke-linecap:square;stroke-linejoin:round;stroke:rgb(0%,0%,100%);stroke-opacity:1;stroke-miterlimit:4;" d="M 186.966374 54.567273 L 206.966171 54.567273 " transform="matrix(1.083605,0,0,1.084599,0,0)"/>
<path style=" stroke:none;fill-rule:nonzero;fill:rgb(0%,0%,0%);fill-opacity:1;" d="M 235.074219 55.949219 L 235.074219 62.101562 L 236.363281 62.101562 C 237.445312 62.101562 238.246094 61.859375 238.757812 61.363281 C 239.253906 60.863281 239.515625 60.082031 239.515625 59.019531 C 239.515625 57.957031 239.253906 57.1875 238.757812 56.6875 C 238.246094 56.199219 237.445312 55.949219 236.363281 55.949219 Z M 234 55.070312 L 236.199219 55.070312 C 237.726562 55.070312 238.855469 55.398438 239.570312 56.027344 C 240.285156 56.664062 240.644531 57.664062 240.644531 59.019531 C 240.644531 60.386719 240.273438 61.382812 239.558594 62.023438 C 238.84375 62.664062 237.71875 62.976562 236.199219 62.976562 L 234 62.976562 Z M 234 55.070312 "/>
<path style=" stroke:none;fill-rule:nonzero;fill:rgb(0%,0%,0%);fill-opacity:1;" d="M 242.300781 57.046875 L 243.277344 57.046875 L 243.277344 62.976562 L 242.300781 62.976562 Z M 242.300781 54.734375 L 243.277344 54.734375 L 243.277344 55.972656 L 242.300781 55.972656 Z M 242.300781 54.734375 "/>
<path style=" stroke:none;fill-rule:nonzero;fill:rgb(0%,0%,0%);fill-opacity:1;" d="M 249.09375 57.21875 L 249.09375 58.140625 C 248.8125 58.011719 248.53125 57.902344 248.238281 57.828125 C 247.933594 57.761719 247.632812 57.71875 247.316406 57.71875 C 246.828125 57.71875 246.460938 57.792969 246.222656 57.945312 C 245.984375 58.097656 245.867188 58.316406 245.867188 58.605469 C 245.867188 58.835938 245.953125 59.007812 246.125 59.140625 C 246.300781 59.269531 246.644531 59.398438 247.164062 59.507812 L 247.5 59.582031 C 248.195312 59.734375 248.683594 59.953125 248.976562 60.210938 C 249.257812 60.484375 249.410156 60.863281 249.410156 61.339844 C 249.410156 61.894531 249.191406 62.328125 248.757812 62.640625 C 248.324219 62.96875 247.71875 63.121094 246.960938 63.121094 C 246.636719 63.121094 246.308594 63.085938 245.964844 63.03125 C 245.617188 62.976562 245.257812 62.890625 244.878906 62.761719 L 244.878906 61.753906 C 245.238281 61.949219 245.59375 62.089844 245.941406 62.175781 C 246.289062 62.273438 246.636719 62.316406 246.980469 62.316406 C 247.4375 62.316406 247.792969 62.242188 248.042969 62.089844 C 248.28125 61.9375 248.410156 61.710938 248.410156 61.417969 C 248.410156 61.15625 248.316406 60.949219 248.140625 60.808594 C 247.96875 60.667969 247.578125 60.527344 246.972656 60.398438 L 246.636719 60.320312 C 246.027344 60.191406 245.582031 59.996094 245.324219 59.734375 C 245.054688 59.476562 244.921875 59.117188 244.921875 58.652344 C 244.921875 58.097656 245.117188 57.664062 245.507812 57.359375 C 245.898438 57.054688 246.460938 56.90625 247.199219 56.90625 C 247.554688 56.90625 247.890625 56.9375 248.21875 56.992188 C 248.53125 57.046875 248.824219 57.121094 249.09375 57.21875 Z M 249.09375 57.21875 "/>
<path style=" stroke:none;fill-rule:nonzero;fill:rgb(0%,0%,0%);fill-opacity:1;" d="M 251.921875 55.363281 L 251.921875 57.046875 L 253.925781 57.046875 L 253.925781 57.804688 L 251.921875 57.804688 L 251.921875 61.027344 C 251.921875 61.515625 251.988281 61.828125 252.117188 61.957031 C 252.246094 62.101562 252.519531 62.164062 252.929688 62.164062 L 253.925781 62.164062 L 253.925781 62.976562 L 252.929688 62.976562 C 252.171875 62.976562 251.652344 62.835938 251.371094 62.554688 C 251.089844 62.273438 250.949219 61.761719 250.949219 61.027344 L 250.949219 57.804688 L 250.234375 57.804688 L 250.234375 57.046875 L 250.949219 57.046875 L 250.949219 55.363281 Z M 251.921875 55.363281 "/>
<path style=" stroke:none;fill-rule:nonzero;fill:rgb(0%,0%,0%);fill-opacity:1;" d="M 257.90625 59.996094 C 257.113281 59.996094 256.570312 60.09375 256.269531 60.265625 C 255.964844 60.453125 255.8125 60.753906 255.8125 61.1875 C 255.8125 61.535156 255.921875 61.816406 256.148438 62.011719 C 256.375 62.21875 256.691406 62.316406 257.082031 62.316406 C 257.621094 62.316406 258.054688 62.132812 258.382812 61.742188 C 258.707031 61.363281 258.867188 60.851562 258.867188 60.210938 L 258.867188 59.996094 Z M 259.84375 59.59375 L 259.84375 62.976562 L 258.867188 62.976562 L 258.867188 62.078125 C 258.640625 62.445312 258.359375 62.707031 258.035156 62.871094 C 257.710938 63.03125 257.296875 63.121094 256.820312 63.121094 C 256.214844 63.121094 255.726562 62.957031 255.367188 62.621094 C 255.011719 62.285156 254.835938 61.828125 254.835938 61.253906 C 254.835938 60.59375 255.054688 60.09375 255.507812 59.746094 C 255.953125 59.410156 256.613281 59.238281 257.503906 59.238281 L 258.867188 59.238281 L 258.867188 59.140625 C 258.867188 58.695312 258.71875 58.347656 258.425781 58.097656 C 258.132812 57.859375 257.71875 57.730469 257.1875 57.730469 C 256.84375 57.730469 256.515625 57.773438 256.191406 57.859375 C 255.867188 57.945312 255.5625 58.066406 255.269531 58.21875 L 255.269531 57.316406 C 255.617188 57.1875 255.964844 57.078125 256.300781 57.011719 C 256.636719 56.949219 256.960938 56.90625 257.285156 56.90625 C 258.144531 56.90625 258.78125 57.132812 259.203125 57.578125 C 259.628906 58.023438 259.84375 58.695312 259.84375 59.59375 Z M 259.84375 59.59375 "/>
<path style=" stroke:none;fill-rule:nonzero;fill:rgb(0%,0%,0%);fill-opacity:1;" d="M 266.777344 59.398438 L 266.777344 62.976562 L 265.804688 62.976562 L 265.804688 59.433594 C 265.804688 58.867188 265.683594 58.457031 265.46875 58.171875 C 265.25 57.890625 264.925781 57.75 264.492188 57.75 C 263.960938 57.75 263.550781 57.925781 263.246094 58.261719 C 262.941406 58.597656 262.792969 59.050781 262.792969 59.625 L 262.792969 62.976562 L 261.816406 62.976562 L 261.816406 57.046875 L 262.792969 57.046875 L 262.792969 57.96875 C 263.019531 57.621094 263.289062 57.347656 263.613281 57.175781 C 263.929688 57.003906 264.296875 56.90625 264.710938 56.90625 C 265.382812 56.90625 265.902344 57.121094 266.25 57.542969 C 266.59375 57.96875 266.777344 58.585938 266.777344 59.398438 Z M 266.777344 59.398438 "/>
<path style=" stroke:none;fill-rule:nonzero;fill:rgb(0%,0%,0%);fill-opacity:1;" d="M 272.988281 57.273438 L 272.988281 58.183594 C 272.707031 58.03125 272.4375 57.925781 272.152344 57.847656 C 271.871094 57.773438 271.601562 57.730469 271.320312 57.730469 C 270.691406 57.730469 270.191406 57.933594 269.847656 58.335938 C 269.5 58.738281 269.324219 59.300781 269.324219 60.015625 C 269.324219 60.742188 269.5 61.308594 269.847656 61.710938 C 270.191406 62.109375 270.691406 62.304688 271.320312 62.304688 C 271.601562 62.304688 271.871094 62.273438 272.152344 62.199219 C 272.4375 62.121094 272.707031 62.003906 272.988281 61.851562 L 272.988281 62.75 C 272.707031 62.878906 272.425781 62.976562 272.144531 63.03125 C 271.851562 63.085938 271.535156 63.121094 271.210938 63.121094 C 270.324219 63.121094 269.605469 62.847656 269.085938 62.285156 C 268.554688 61.730469 268.296875 60.972656 268.296875 60.015625 C 268.296875 59.050781 268.554688 58.292969 269.085938 57.738281 C 269.617188 57.1875 270.34375 56.90625 271.277344 56.90625 C 271.578125 56.90625 271.871094 56.9375 272.152344 57.003906 C 272.4375 57.066406 272.71875 57.152344 272.988281 57.273438 Z M 272.988281 57.273438 "/>
<path style=" stroke:none;fill-rule:nonzero;fill:rgb(0%,0%,0%);fill-opacity:1;" d="M 279.75 59.769531 L 279.75 60.246094 L 275.273438 60.246094 C 275.316406 60.917969 275.511719 61.4375 275.882812 61.785156 C 276.238281 62.132812 276.738281 62.304688 277.386719 62.304688 C 277.757812 62.304688 278.125 62.261719 278.472656 62.175781 C 278.816406 62.089844 279.175781 61.949219 279.523438 61.753906 L 279.523438 62.675781 C 279.175781 62.828125 278.816406 62.945312 278.449219 63.011719 C 278.082031 63.074219 277.703125 63.121094 277.332031 63.121094 C 276.378906 63.121094 275.632812 62.847656 275.078125 62.304688 C 274.527344 61.761719 274.257812 61.015625 274.257812 60.070312 C 274.257812 59.105469 274.515625 58.335938 275.035156 57.761719 C 275.554688 57.199219 276.273438 56.90625 277.160156 56.90625 C 277.960938 56.90625 278.589844 57.164062 279.054688 57.675781 C 279.511719 58.195312 279.75 58.890625 279.75 59.769531 Z M 278.773438 59.484375 C 278.765625 58.953125 278.613281 58.53125 278.332031 58.207031 C 278.039062 57.890625 277.648438 57.730469 277.171875 57.730469 C 276.628906 57.730469 276.195312 57.890625 275.871094 58.195312 C 275.546875 58.5 275.351562 58.933594 275.308594 59.484375 Z M 278.773438 59.484375 "/>
<path style=" stroke:none;fill-rule:nonzero;fill:rgb(0%,0%,0%);fill-opacity:1;" d="M 289.046875 60.015625 C 289.046875 59.300781 288.894531 58.75 288.601562 58.335938 C 288.300781 57.925781 287.898438 57.71875 287.390625 57.71875 C 286.871094 57.71875 286.46875 57.925781 286.175781 58.335938 C 285.871094 58.75 285.730469 59.300781 285.730469 60.015625 C 285.730469 60.734375 285.871094 61.296875 286.175781 61.710938 C 286.46875 62.121094 286.871094 62.316406 287.390625 62.316406 C 287.898438 62.316406 288.300781 62.121094 288.601562 61.710938 C 288.894531 61.296875 289.046875 60.734375 289.046875 60.015625 Z M 285.730469 57.945312 C 285.925781 57.597656 286.1875 57.339844 286.5 57.164062 C 286.816406 56.992188 287.195312 56.90625 287.628906 56.90625 C 288.34375 56.90625 288.929688 57.199219 289.382812 57.761719 C 289.828125 58.335938 290.054688 59.085938 290.054688 60.015625 C 290.054688 60.949219 289.828125 61.710938 289.382812 62.273438 C 288.929688 62.835938 288.34375 63.121094 287.628906 63.121094 C 287.195312 63.121094 286.816406 63.03125 286.5 62.871094 C 286.1875 62.707031 285.925781 62.445312 285.730469 62.089844 L 285.730469 62.976562 L 284.757812 62.976562 L 284.757812 54.734375 L 285.730469 54.734375 Z M 285.730469 57.945312 "/>
<path style=" stroke:none;fill-rule:nonzero;fill:rgb(0%,0%,0%);fill-opacity:1;" d="M 296.742188 59.769531 L 296.742188 60.246094 L 292.265625 60.246094 C 292.308594 60.917969 292.503906 61.4375 292.871094 61.785156 C 293.230469 62.132812 293.726562 62.304688 294.378906 62.304688 C 294.746094 62.304688 295.117188 62.261719 295.460938 62.175781 C 295.808594 62.089844 296.167969 61.949219 296.511719 61.753906 L 296.511719 62.675781 C 296.167969 62.828125 295.808594 62.945312 295.441406 63.011719 C 295.070312 63.074219 294.691406 63.121094 294.324219 63.121094 C 293.371094 63.121094 292.625 62.847656 292.070312 62.304688 C 291.519531 61.761719 291.246094 61.015625 291.246094 60.070312 C 291.246094 59.105469 291.507812 58.335938 292.027344 57.761719 C 292.546875 57.199219 293.261719 56.90625 294.152344 56.90625 C 294.953125 56.90625 295.582031 57.164062 296.046875 57.675781 C 296.503906 58.195312 296.742188 58.890625 296.742188 59.769531 Z M 295.765625 59.484375 C 295.753906 58.953125 295.601562 58.53125 295.320312 58.207031 C 295.027344 57.890625 294.636719 57.730469 294.160156 57.730469 C 293.621094 57.730469 293.1875 57.890625 292.863281 58.195312 C 292.535156 58.5 292.339844 58.933594 292.296875 59.484375 Z M 295.765625 59.484375 "/>
<path style=" stroke:none;fill-rule:nonzero;fill:rgb(0%,0%,0%);fill-opacity:1;" d="M 299.296875 55.363281 L 299.296875 57.046875 L 301.304688 57.046875 L 301.304688 57.804688 L 299.296875 57.804688 L 299.296875 61.027344 C 299.296875 61.515625 299.363281 61.828125 299.492188 61.957031 C 299.625 62.101562 299.894531 62.164062 300.304688 62.164062 L 301.304688 62.164062 L 301.304688 62.976562 L 300.304688 62.976562 C 299.546875 62.976562 299.027344 62.835938 298.746094 62.554688 C 298.464844 62.273438 298.324219 61.761719 298.324219 61.027344 L 298.324219 57.804688 L 297.609375 57.804688 L 297.609375 57.046875 L 298.324219 57.046875 L 298.324219 55.363281 Z M 299.296875 55.363281 "/>
<path style=" stroke:none;fill-rule:nonzero;fill:rgb(0%,0%,0%);fill-opacity:1;" d="M 302.019531 57.046875 L 302.992188 57.046875 L 304.207031 61.675781 L 305.421875 57.046875 L 306.570312 57.046875 L 307.78125 61.675781 L 308.996094 57.046875 L 309.972656 57.046875 L 308.421875 62.976562 L 307.273438 62.976562 L 305.996094 58.121094 L 304.714844 62.976562 L 303.566406 62.976562 Z M 302.019531 57.046875 "/>
<path style=" stroke:none;fill-rule:nonzero;fill:rgb(0%,0%,0%);fill-opacity:1;" d="M 316.515625 59.769531 L 316.515625 60.246094 L 312.042969 60.246094 C 312.085938 60.917969 312.28125 61.4375 312.648438 61.785156 C 313.003906 62.132812 313.503906 62.304688 314.15625 62.304688 C 314.523438 62.304688 314.890625 62.261719 315.238281 62.175781 C 315.585938 62.089844 315.941406 61.949219 316.289062 61.753906 L 316.289062 62.675781 C 315.941406 62.828125 315.585938 62.945312 315.214844 63.011719 C 314.847656 63.074219 314.46875 63.121094 314.101562 63.121094 C 313.148438 63.121094 312.398438 62.847656 311.847656 62.304688 C 311.292969 61.761719 311.023438 61.015625 311.023438 60.070312 C 311.023438 59.105469 311.28125 58.335938 311.804688 57.761719 C 312.324219 57.199219 313.039062 56.90625 313.925781 56.90625 C 314.730469 56.90625 315.355469 57.164062 315.824219 57.675781 C 316.277344 58.195312 316.515625 58.890625 316.515625 59.769531 Z M 315.542969 59.484375 C 315.53125 58.953125 315.378906 58.53125 315.097656 58.207031 C 314.804688 57.890625 314.414062 57.730469 313.9375 57.730469 C 313.394531 57.730469 312.960938 57.890625 312.636719 58.195312 C 312.3125 58.5 312.117188 58.933594 312.074219 59.484375 Z M 315.542969 59.484375 "/>
<path style=" stroke:none;fill-rule:nonzero;fill:rgb(0%,0%,0%);fill-opacity:1;" d="M 323.179688 59.769531 L 323.179688 60.246094 L 318.707031 60.246094 C 318.75 60.917969 318.945312 61.4375 319.3125 61.785156 C 319.667969 62.132812 320.167969 62.304688 320.820312 62.304688 C 321.1875 62.304688 321.554688 62.261719 321.902344 62.175781 C 322.25 62.089844 322.605469 61.949219 322.953125 61.753906 L 322.953125 62.675781 C 322.605469 62.828125 322.25 62.945312 321.878906 63.011719 C 321.511719 63.074219 321.132812 63.121094 320.765625 63.121094 C 319.8125 63.121094 319.0625 62.847656 318.511719 62.304688 C 317.957031 61.761719 317.6875 61.015625 317.6875 60.070312 C 317.6875 59.105469 317.945312 58.335938 318.46875 57.761719 C 318.988281 57.199219 319.703125 56.90625 320.589844 56.90625 C 321.394531 56.90625 322.019531 57.164062 322.488281 57.675781 C 322.941406 58.195312 323.179688 58.890625 323.179688 59.769531 Z M 322.207031 59.484375 C 322.195312 58.953125 322.042969 58.53125 321.761719 58.207031 C 321.46875 57.890625 321.078125 57.730469 320.601562 57.730469 C 320.058594 57.730469 319.625 57.890625 319.300781 58.195312 C 318.976562 58.5 318.78125 58.933594 318.738281 59.484375 Z M 322.207031 59.484375 "/>
<path style=" stroke:none;fill-rule:nonzero;fill:rgb(0%,0%,0%);fill-opacity:1;" d="M 329.703125 59.398438 L 329.703125 62.976562 L 328.730469 62.976562 L 328.730469 59.433594 C 328.730469 58.867188 328.609375 58.457031 328.394531 58.171875 C 328.175781 57.890625 327.851562 57.75 327.417969 57.75 C 326.886719 57.75 326.476562 57.925781 326.171875 58.261719 C 325.867188 58.597656 325.714844 59.050781 325.714844 59.625 L 325.714844 62.976562 L 324.742188 62.976562 L 324.742188 57.046875 L 325.714844 57.046875 L 325.714844 57.96875 C 325.945312 57.621094 326.214844 57.347656 326.539062 57.175781 C 326.855469 57.003906 327.222656 56.90625 327.632812 56.90625 C 328.304688 56.90625 328.828125 57.121094 329.171875 57.542969 C 329.519531 57.96875 329.703125 58.585938 329.703125 59.398438 Z M 329.703125 59.398438 "/>
<path style=" stroke:none;fill-rule:nonzero;fill:rgb(0%,0%,0%);fill-opacity:1;" d="M 338.339844 55.796875 C 337.558594 55.796875 336.941406 56.089844 336.488281 56.664062 C 336.03125 57.25 335.804688 58.03125 335.804688 59.03125 C 335.804688 60.027344 336.03125 60.820312 336.488281 61.394531 C 336.941406 61.980469 337.558594 62.261719 338.339844 62.261719 C 339.109375 62.261719 339.726562 61.980469 340.183594 61.394531 C 340.636719 60.820312 340.863281 60.027344 340.863281 59.03125 C 340.863281 58.03125 340.636719 57.25 340.183594 56.664062 C 339.726562 56.089844 339.109375 55.796875 338.339844 55.796875 Z M 338.339844 54.929688 C 339.445312 54.929688 340.324219 55.308594 340.996094 56.046875 C 341.65625 56.785156 341.992188 57.78125 341.992188 59.03125 C 341.992188 60.289062 341.65625 61.277344 340.996094 62.011719 C 340.324219 62.75 339.445312 63.121094 338.339844 63.121094 C 337.222656 63.121094 336.335938 62.75 335.675781 62.011719 C 335.003906 61.277344 334.679688 60.289062 334.679688 59.03125 C 334.679688 57.78125 335.003906 56.785156 335.675781 56.046875 C 336.335938 55.308594 337.222656 54.929688 338.339844 54.929688 Z M 338.339844 54.929688 "/>
<path style=" stroke:none;fill-rule:nonzero;fill:rgb(0%,0%,0%);fill-opacity:1;" d="M 348.394531 55.332031 L 348.394531 56.375 C 347.984375 56.179688 347.605469 56.035156 347.246094 55.9375 C 346.878906 55.851562 346.53125 55.796875 346.207031 55.796875 C 345.621094 55.796875 345.167969 55.917969 344.851562 56.132812 C 344.539062 56.363281 344.386719 56.6875 344.386719 57.101562 C 344.386719 57.445312 344.484375 57.71875 344.703125 57.890625 C 344.90625 58.074219 345.308594 58.21875 345.894531 58.324219 L 346.542969 58.457031 C 347.335938 58.605469 347.917969 58.878906 348.296875 59.257812 C 348.679688 59.648438 348.875 60.160156 348.875 60.796875 C 348.875 61.566406 348.613281 62.144531 348.105469 62.535156 C 347.582031 62.925781 346.835938 63.121094 345.851562 63.121094 C 345.46875 63.121094 345.070312 63.074219 344.648438 63 C 344.222656 62.925781 343.789062 62.804688 343.347656 62.632812 L 343.347656 61.523438 C 343.78125 61.773438 344.203125 61.957031 344.613281 62.078125 C 345.027344 62.207031 345.4375 62.261719 345.851562 62.261719 C 346.457031 62.261719 346.921875 62.144531 347.257812 61.90625 C 347.582031 61.664062 347.757812 61.328125 347.757812 60.875 C 347.757812 60.484375 347.636719 60.179688 347.398438 59.964844 C 347.160156 59.746094 346.769531 59.582031 346.230469 59.476562 L 345.578125 59.34375 C 344.777344 59.191406 344.203125 58.945312 343.84375 58.597656 C 343.488281 58.261719 343.3125 57.792969 343.3125 57.1875 C 343.3125 56.492188 343.550781 55.9375 344.050781 55.539062 C 344.539062 55.136719 345.222656 54.929688 346.089844 54.929688 C 346.457031 54.929688 346.824219 54.964844 347.214844 55.027344 C 347.59375 55.09375 347.984375 55.203125 348.394531 55.332031 Z M 348.394531 55.332031 "/>
<path style=" stroke:none;fill-rule:nonzero;fill:rgb(0%,0%,0%);fill-opacity:1;" d="M 356.640625 59.996094 C 355.851562 59.996094 355.308594 60.09375 355.007812 60.265625 C 354.703125 60.453125 354.550781 60.753906 354.550781 61.1875 C 354.550781 61.535156 354.660156 61.816406 354.886719 62.011719 C 355.113281 62.21875 355.429688 62.316406 355.820312 62.316406 C 356.359375 62.316406 356.792969 62.132812 357.121094 61.742188 C 357.445312 61.363281 357.605469 60.851562 357.605469 60.210938 L 357.605469 59.996094 Z M 358.582031 59.59375 L 358.582031 62.976562 L 357.605469 62.976562 L 357.605469 62.078125 C 357.378906 62.445312 357.097656 62.707031 356.773438 62.871094 C 356.449219 63.03125 356.035156 63.121094 355.558594 63.121094 C 354.953125 63.121094 354.464844 62.957031 354.105469 62.621094 C 353.75 62.285156 353.574219 61.828125 353.574219 61.253906 C 353.574219 60.59375 353.792969 60.09375 354.246094 59.746094 C 354.691406 59.410156 355.351562 59.238281 356.242188 59.238281 L 357.605469 59.238281 L 357.605469 59.140625 C 357.605469 58.695312 357.457031 58.347656 357.164062 58.097656 C 356.871094 57.859375 356.457031 57.730469 355.925781 57.730469 C 355.582031 57.730469 355.253906 57.773438 354.929688 57.859375 C 354.605469 57.945312 354.300781 58.066406 354.007812 58.21875 L 354.007812 57.316406 C 354.355469 57.1875 354.703125 57.078125 355.039062 57.011719 C 355.375 56.949219 355.699219 56.90625 356.023438 56.90625 C 356.882812 56.90625 357.519531 57.132812 357.941406 57.578125 C 358.367188 58.023438 358.582031 58.695312 358.582031 59.59375 Z M 358.582031 59.59375 "/>
<path style=" stroke:none;fill-rule:nonzero;fill:rgb(0%,0%,0%);fill-opacity:1;" d="M 365.515625 59.398438 L 365.515625 62.976562 L 364.542969 62.976562 L 364.542969 59.433594 C 364.542969 58.867188 364.421875 58.457031 364.207031 58.171875 C 363.988281 57.890625 363.664062 57.75 363.230469 57.75 C 362.699219 57.75 362.289062 57.925781 361.984375 58.261719 C 361.679688 58.597656 361.53125 59.050781 361.53125 59.625 L 361.53125 62.976562 L 360.554688 62.976562 L 360.554688 57.046875 L 361.53125 57.046875 L 361.53125 57.96875 C 361.757812 57.621094 362.027344 57.347656 362.351562 57.175781 C 362.667969 57.003906 363.035156 56.90625 363.449219 56.90625 C 364.121094 56.90625 364.640625 57.121094 364.984375 57.542969 C 365.332031 57.96875 365.515625 58.585938 365.515625 59.398438 Z M 365.515625 59.398438 "/>
<path style=" stroke:none;fill-rule:nonzero;fill:rgb(0%,0%,0%);fill-opacity:1;" d="M 371.359375 57.945312 L 371.359375 54.734375 L 372.332031 54.734375 L 372.332031 62.976562 L 371.359375 62.976562 L 371.359375 62.089844 C 371.152344 62.445312 370.890625 62.707031 370.578125 62.871094 C 370.261719 63.03125 369.894531 63.121094 369.460938 63.121094 C 368.746094 63.121094 368.160156 62.835938 367.707031 62.273438 C 367.25 61.710938 367.035156 60.949219 367.035156 60.015625 C 367.035156 59.085938 367.25 58.335938 367.707031 57.761719 C 368.160156 57.199219 368.746094 56.90625 369.460938 56.90625 C 369.894531 56.90625 370.261719 56.992188 370.578125 57.164062 C 370.890625 57.339844 371.152344 57.597656 371.359375 57.945312 Z M 368.042969 60.015625 C 368.042969 60.734375 368.183594 61.296875 368.476562 61.710938 C 368.769531 62.121094 369.167969 62.316406 369.6875 62.316406 C 370.210938 62.316406 370.609375 62.121094 370.914062 61.710938 C 371.207031 61.296875 371.359375 60.734375 371.359375 60.015625 C 371.359375 59.300781 371.207031 58.75 370.914062 58.335938 C 370.609375 57.925781 370.210938 57.71875 369.6875 57.71875 C 369.167969 57.71875 368.769531 57.925781 368.476562 58.335938 C 368.183594 58.75 368.042969 59.300781 368.042969 60.015625 Z M 368.042969 60.015625 "/>
<path style=" stroke:none;fill-rule:nonzero;fill:rgb(0%,0%,0%);fill-opacity:1;" d="M 376.742188 55.070312 L 383.417969 55.070312 L 383.417969 55.972656 L 380.613281 55.972656 L 380.613281 62.976562 L 379.539062 62.976562 L 379.539062 55.972656 L 376.742188 55.972656 Z M 376.742188 55.070312 "/>
<path style=" stroke:none;fill-rule:nonzero;fill:rgb(0%,0%,0%);fill-opacity:1;" d="M 389.183594 55.332031 L 389.183594 56.375 C 388.769531 56.179688 388.390625 56.035156 388.035156 55.9375 C 387.667969 55.851562 387.320312 55.796875 386.996094 55.796875 C 386.410156 55.796875 385.953125 55.917969 385.640625 56.132812 C 385.324219 56.363281 385.171875 56.6875 385.171875 57.101562 C 385.171875 57.445312 385.269531 57.71875 385.488281 57.890625 C 385.695312 58.074219 386.09375 58.21875 386.679688 58.324219 L 387.332031 58.457031 C 388.121094 58.605469 388.707031 58.878906 389.085938 59.257812 C 389.464844 59.648438 389.660156 60.160156 389.660156 60.796875 C 389.660156 61.566406 389.398438 62.144531 388.890625 62.535156 C 388.371094 62.925781 387.621094 63.121094 386.636719 63.121094 C 386.257812 63.121094 385.855469 63.074219 385.433594 63 C 385.011719 62.925781 384.578125 62.804688 384.132812 62.632812 L 384.132812 61.523438 C 384.566406 61.773438 384.988281 61.957031 385.402344 62.078125 C 385.8125 62.207031 386.226562 62.261719 386.636719 62.261719 C 387.242188 62.261719 387.710938 62.144531 388.046875 61.90625 C 388.371094 61.664062 388.542969 61.328125 388.542969 60.875 C 388.542969 60.484375 388.425781 60.179688 388.1875 59.964844 C 387.949219 59.746094 387.558594 59.582031 387.015625 59.476562 L 386.367188 59.34375 C 385.5625 59.191406 384.988281 58.945312 384.632812 58.597656 C 384.273438 58.261719 384.101562 57.792969 384.101562 57.1875 C 384.101562 56.492188 384.339844 55.9375 384.839844 55.539062 C 385.324219 55.136719 386.007812 54.929688 386.875 54.929688 C 387.242188 54.929688 387.613281 54.964844 388.003906 55.027344 C 388.382812 55.09375 388.769531 55.203125 389.183594 55.332031 Z M 389.183594 55.332031 "/>
<path style="fill-rule:nonzero;fill:rgb(100%,64.705882%,0%);fill-opacity:1;stroke-width:2.5;stroke-linecap:butt;stroke-linejoin:round;stroke:rgb(100%,64.705882%,0%);stroke-opacity:1;stroke-miterlimit:4;" d="M 193.967024 73.111719 L 199.965521 67.111516 M 193.967024 67.111516 L 199.965521 73.111719 " transform="matrix(1.083605,0,0,1.084599,0,0)"/>
<path style=" stroke:none;fill-rule:nonzero;fill:rgb(0%,0%,0%);fill-opacity:1;" d="M 238.574219 74.097656 C 238.8125 73.664062 239.105469 73.347656 239.441406 73.132812 C 239.777344 72.925781 240.175781 72.816406 240.644531 72.816406 C 241.25 72.816406 241.726562 73.035156 242.0625 73.46875 C 242.398438 73.902344 242.570312 74.519531 242.570312 75.3125 L 242.570312 78.890625 L 241.597656 78.890625 L 241.597656 75.34375 C 241.597656 74.78125 241.488281 74.359375 241.292969 74.074219 C 241.085938 73.804688 240.785156 73.664062 240.371094 73.664062 C 239.863281 73.664062 239.460938 73.835938 239.167969 74.171875 C 238.875 74.507812 238.734375 74.964844 238.734375 75.539062 L 238.734375 78.890625 L 237.761719 78.890625 L 237.761719 75.34375 C 237.761719 74.78125 237.652344 74.359375 237.457031 74.074219 C 237.25 73.804688 236.9375 73.664062 236.523438 73.664062 C 236.027344 73.664062 235.625 73.835938 235.332031 74.171875 C 235.039062 74.507812 234.898438 74.964844 234.898438 75.539062 L 234.898438 78.890625 L 233.925781 78.890625 L 233.925781 72.957031 L 234.898438 72.957031 L 234.898438 73.878906 C 235.117188 73.523438 235.386719 73.25 235.703125 73.078125 C 236.003906 72.90625 236.375 72.816406 236.808594 72.816406 C 237.238281 72.816406 237.597656 72.925781 237.902344 73.144531 C 238.203125 73.359375 238.421875 73.683594 238.574219 74.097656 Z M 238.574219 74.097656 "/>
<path style=" stroke:none;fill-rule:nonzero;fill:rgb(0%,0%,0%);fill-opacity:1;" d="M 244.511719 72.957031 L 245.484375 72.957031 L 245.484375 78.890625 L 244.511719 78.890625 Z M 244.511719 70.648438 L 245.484375 70.648438 L 245.484375 71.886719 L 244.511719 71.886719 Z M 244.511719 70.648438 "/>
<path style=" stroke:none;fill-rule:nonzero;fill:rgb(0%,0%,0%);fill-opacity:1;" d="M 252.453125 75.3125 L 252.453125 78.890625 L 251.480469 78.890625 L 251.480469 75.34375 C 251.480469 74.78125 251.359375 74.367188 251.144531 74.085938 C 250.925781 73.804688 250.601562 73.664062 250.167969 73.664062 C 249.636719 73.664062 249.226562 73.835938 248.921875 74.171875 C 248.617188 74.507812 248.464844 74.964844 248.464844 75.539062 L 248.464844 78.890625 L 247.492188 78.890625 L 247.492188 72.957031 L 248.464844 72.957031 L 248.464844 73.878906 C 248.695312 73.535156 248.964844 73.261719 249.289062 73.089844 C 249.605469 72.914062 249.972656 72.816406 250.382812 72.816406 C 251.054688 72.816406 251.578125 73.035156 251.921875 73.457031 C 252.269531 73.878906 252.453125 74.5 252.453125 75.3125 Z M 252.453125 75.3125 "/>
<path style=" stroke:none;fill-rule:nonzero;fill:rgb(0%,0%,0%);fill-opacity:1;" d="M 254.535156 77.546875 L 255.652344 77.546875 L 255.652344 78.890625 L 254.535156 78.890625 Z M 254.535156 77.546875 "/>
<path style=" stroke:none;fill-rule:nonzero;fill:rgb(0%,0%,0%);fill-opacity:1;" d="M 265.1875 73.859375 L 265.1875 70.648438 L 266.160156 70.648438 L 266.160156 78.890625 L 265.1875 78.890625 L 265.1875 78.003906 C 264.980469 78.359375 264.71875 78.621094 264.40625 78.78125 C 264.09375 78.945312 263.722656 79.03125 263.289062 79.03125 C 262.574219 79.03125 261.988281 78.75 261.535156 78.1875 C 261.078125 77.621094 260.863281 76.863281 260.863281 75.929688 C 260.863281 74.996094 261.078125 74.25 261.535156 73.675781 C 261.988281 73.109375 262.574219 72.816406 263.289062 72.816406 C 263.722656 72.816406 264.09375 72.90625 264.40625 73.078125 C 264.71875 73.25 264.980469 73.511719 265.1875 73.859375 Z M 261.871094 75.929688 C 261.871094 76.644531 262.011719 77.210938 262.304688 77.621094 C 262.597656 78.035156 262.996094 78.230469 263.515625 78.230469 C 264.039062 78.230469 264.4375 78.035156 264.742188 77.621094 C 265.035156 77.210938 265.1875 76.644531 265.1875 75.929688 C 265.1875 75.214844 265.035156 74.660156 264.742188 74.25 C 264.4375 73.835938 264.039062 73.632812 263.515625 73.632812 C 262.996094 73.632812 262.597656 73.835938 262.304688 74.25 C 262.011719 74.660156 261.871094 75.214844 261.871094 75.929688 Z M 261.871094 75.929688 "/>
<path style=" stroke:none;fill-rule:nonzero;fill:rgb(0%,0%,0%);fill-opacity:1;" d="M 268.167969 72.957031 L 269.140625 72.957031 L 269.140625 78.890625 L 268.167969 78.890625 Z M 268.167969 70.648438 L 269.140625 70.648438 L 269.140625 71.886719 L 268.167969 71.886719 Z M 268.167969 70.648438 "/>
<path style=" stroke:none;fill-rule:nonzero;fill:rgb(0%,0%,0%);fill-opacity:1;" d="M 274.960938 73.132812 L 274.960938 74.054688 C 274.679688 73.925781 274.398438 73.816406 274.105469 73.738281 C 273.800781 73.675781 273.496094 73.632812 273.183594 73.632812 C 272.695312 73.632812 272.328125 73.707031 272.089844 73.859375 C 271.851562 74.011719 271.730469 74.226562 271.730469 74.519531 C 271.730469 74.75 271.816406 74.921875 271.992188 75.050781 C 272.164062 75.183594 272.511719 75.3125 273.03125 75.421875 L 273.367188 75.496094 C 274.0625 75.648438 274.546875 75.867188 274.839844 76.125 C 275.121094 76.398438 275.273438 76.777344 275.273438 77.253906 C 275.273438 77.808594 275.058594 78.242188 274.625 78.554688 C 274.191406 78.878906 273.585938 79.03125 272.824219 79.03125 C 272.5 79.03125 272.175781 79 271.828125 78.945312 C 271.480469 78.890625 271.125 78.804688 270.746094 78.675781 L 270.746094 77.664062 C 271.101562 77.859375 271.460938 78.003906 271.808594 78.089844 C 272.152344 78.1875 272.5 78.230469 272.847656 78.230469 C 273.300781 78.230469 273.660156 78.152344 273.910156 78.003906 C 274.148438 77.851562 274.277344 77.621094 274.277344 77.328125 C 274.277344 77.070312 274.179688 76.863281 274.007812 76.722656 C 273.832031 76.582031 273.441406 76.441406 272.835938 76.308594 L 272.5 76.234375 C 271.894531 76.105469 271.449219 75.910156 271.1875 75.648438 C 270.917969 75.386719 270.789062 75.03125 270.789062 74.5625 C 270.789062 74.011719 270.984375 73.578125 271.375 73.273438 C 271.765625 72.96875 272.328125 72.816406 273.0625 72.816406 C 273.421875 72.816406 273.757812 72.851562 274.082031 72.90625 C 274.398438 72.957031 274.691406 73.035156 274.960938 73.132812 Z M 274.960938 73.132812 "/>
<path style=" stroke:none;fill-rule:nonzero;fill:rgb(0%,0%,0%);fill-opacity:1;" d="M 277.789062 71.277344 L 277.789062 72.957031 L 279.792969 72.957031 L 279.792969 73.71875 L 277.789062 73.71875 L 277.789062 76.9375 C 277.789062 77.425781 277.855469 77.742188 277.984375 77.871094 C 278.113281 78.011719 278.382812 78.078125 278.796875 78.078125 L 279.792969 78.078125 L 279.792969 78.890625 L 278.796875 78.890625 C 278.039062 78.890625 277.519531 78.75 277.234375 78.46875 C 276.953125 78.1875 276.8125 77.675781 276.8125 76.9375 L 276.8125 73.71875 L 276.097656 73.71875 L 276.097656 72.957031 L 276.8125 72.957031 L 276.8125 71.277344 Z M 277.789062 71.277344 "/>
<path style=" stroke:none;fill-rule:nonzero;fill:rgb(0%,0%,0%);fill-opacity:1;" d="M 283.769531 75.910156 C 282.980469 75.910156 282.4375 76.007812 282.132812 76.179688 C 281.832031 76.363281 281.679688 76.667969 281.679688 77.101562 C 281.679688 77.449219 281.785156 77.730469 282.015625 77.925781 C 282.242188 78.132812 282.554688 78.230469 282.945312 78.230469 C 283.488281 78.230469 283.921875 78.046875 284.246094 77.65625 C 284.570312 77.277344 284.734375 76.765625 284.734375 76.125 L 284.734375 75.910156 Z M 285.710938 75.507812 L 285.710938 78.890625 L 284.734375 78.890625 L 284.734375 77.992188 C 284.507812 78.359375 284.226562 78.621094 283.898438 78.78125 C 283.574219 78.945312 283.164062 79.03125 282.6875 79.03125 C 282.078125 79.03125 281.59375 78.871094 281.234375 78.535156 C 280.875 78.199219 280.703125 77.742188 280.703125 77.167969 C 280.703125 76.503906 280.921875 76.007812 281.375 75.660156 C 281.820312 75.324219 282.480469 75.148438 283.371094 75.148438 L 284.734375 75.148438 L 284.734375 75.050781 C 284.734375 74.605469 284.582031 74.261719 284.289062 74.011719 C 283.996094 73.773438 283.585938 73.640625 283.054688 73.640625 C 282.707031 73.640625 282.382812 73.683594 282.058594 73.773438 C 281.734375 73.859375 281.429688 73.976562 281.136719 74.128906 L 281.136719 73.230469 C 281.484375 73.101562 281.832031 72.992188 282.167969 72.925781 C 282.503906 72.859375 282.828125 72.816406 283.152344 72.816406 C 284.007812 72.816406 284.648438 73.046875 285.070312 73.492188 C 285.492188 73.933594 285.710938 74.605469 285.710938 75.507812 Z M 285.710938 75.507812 "/>
<path style=" stroke:none;fill-rule:nonzero;fill:rgb(0%,0%,0%);fill-opacity:1;" d="M 292.644531 75.3125 L 292.644531 78.890625 L 291.667969 78.890625 L 291.667969 75.34375 C 291.667969 74.78125 291.550781 74.367188 291.332031 74.085938 C 291.117188 73.804688 290.792969 73.664062 290.359375 73.664062 C 289.828125 73.664062 289.414062 73.835938 289.113281 74.171875 C 288.808594 74.507812 288.65625 74.964844 288.65625 75.539062 L 288.65625 78.890625 L 287.683594 78.890625 L 287.683594 72.957031 L 288.65625 72.957031 L 288.65625 73.878906 C 288.882812 73.535156 289.15625 73.261719 289.480469 73.089844 C 289.796875 72.914062 290.164062 72.816406 290.574219 72.816406 C 291.246094 72.816406 291.765625 73.035156 292.113281 73.457031 C 292.460938 73.878906 292.644531 74.5 292.644531 75.3125 Z M 292.644531 75.3125 "/>
<path style=" stroke:none;fill-rule:nonzero;fill:rgb(0%,0%,0%);fill-opacity:1;" d="M 298.855469 73.1875 L 298.855469 74.097656 C 298.570312 73.945312 298.300781 73.835938 298.019531 73.761719 C 297.738281 73.683594 297.46875 73.640625 297.183594 73.640625 C 296.554688 73.640625 296.058594 73.847656 295.710938 74.25 C 295.363281 74.652344 295.191406 75.214844 295.191406 75.929688 C 295.191406 76.65625 295.363281 77.222656 295.710938 77.621094 C 296.058594 78.023438 296.554688 78.21875 297.183594 78.21875 C 297.46875 78.21875 297.738281 78.1875 298.019531 78.109375 C 298.300781 78.035156 298.570312 77.914062 298.855469 77.761719 L 298.855469 78.664062 C 298.570312 78.792969 298.289062 78.890625 298.007812 78.945312 C 297.714844 79 297.402344 79.03125 297.078125 79.03125 C 296.1875 79.03125 295.472656 78.761719 294.953125 78.199219 C 294.421875 77.644531 294.160156 76.886719 294.160156 75.929688 C 294.160156 74.964844 294.421875 74.207031 294.953125 73.652344 C 295.484375 73.101562 296.210938 72.816406 297.140625 72.816406 C 297.445312 72.816406 297.738281 72.851562 298.019531 72.914062 C 298.300781 72.980469 298.582031 73.066406 298.855469 73.1875 Z M 298.855469 73.1875 "/>
<path style=" stroke:none;fill-rule:nonzero;fill:rgb(0%,0%,0%);fill-opacity:1;" d="M 305.617188 75.679688 L 305.617188 76.160156 L 301.140625 76.160156 C 301.183594 76.832031 301.378906 77.351562 301.746094 77.699219 C 302.105469 78.046875 302.601562 78.21875 303.253906 78.21875 C 303.621094 78.21875 303.988281 78.175781 304.335938 78.089844 C 304.683594 78.003906 305.042969 77.859375 305.386719 77.664062 L 305.386719 78.585938 C 305.042969 78.738281 304.683594 78.859375 304.316406 78.925781 C 303.945312 78.988281 303.566406 79.03125 303.199219 79.03125 C 302.246094 79.03125 301.496094 78.761719 300.945312 78.21875 C 300.394531 77.675781 300.121094 76.929688 300.121094 75.984375 C 300.121094 75.019531 300.382812 74.25 300.902344 73.675781 C 301.421875 73.109375 302.136719 72.816406 303.027344 72.816406 C 303.828125 72.816406 304.457031 73.078125 304.921875 73.585938 C 305.378906 74.109375 305.617188 74.800781 305.617188 75.679688 Z M 304.640625 75.398438 C 304.628906 74.867188 304.476562 74.445312 304.195312 74.121094 C 303.902344 73.804688 303.511719 73.640625 303.035156 73.640625 C 302.496094 73.640625 302.0625 73.804688 301.734375 74.109375 C 301.410156 74.414062 301.214844 74.847656 301.171875 75.398438 Z M 304.640625 75.398438 "/>
<path style=" stroke:none;fill-rule:nonzero;fill:rgb(0%,0%,0%);fill-opacity:1;" d="M 310.785156 73.96875 L 317.566406 73.96875 L 317.566406 74.855469 L 310.785156 74.855469 Z M 310.785156 76.125 L 317.566406 76.125 L 317.566406 77.027344 L 310.785156 77.027344 Z M 310.785156 76.125 "/>
<path style=" stroke:none;fill-rule:nonzero;fill:rgb(0%,0%,0%);fill-opacity:1;" d="M 323.507812 77.992188 L 325.25 77.992188 L 325.25 71.960938 L 323.355469 72.339844 L 323.355469 71.363281 L 325.238281 70.984375 L 326.3125 70.984375 L 326.3125 77.992188 L 328.058594 77.992188 L 328.058594 78.890625 L 323.507812 78.890625 Z M 323.507812 77.992188 "/>
<path style=" stroke:none;fill-rule:nonzero;fill:rgb(0%,0%,0%);fill-opacity:1;" d="M 329.941406 70.984375 L 335.023438 70.984375 L 335.023438 71.441406 L 332.152344 78.890625 L 331.035156 78.890625 L 333.734375 71.886719 L 329.941406 71.886719 Z M 329.941406 70.984375 "/>
<path style=" stroke:none;fill-rule:nonzero;fill:rgb(0%,0%,0%);fill-opacity:1;" d="M 337.105469 77.546875 L 338.222656 77.546875 L 338.222656 78.890625 L 337.105469 78.890625 Z M 337.105469 77.546875 "/>
<path style=" stroke:none;fill-rule:nonzero;fill:rgb(0%,0%,0%);fill-opacity:1;" d="M 340.28125 70.984375 L 345.363281 70.984375 L 345.363281 71.441406 L 342.492188 78.890625 L 341.375 78.890625 L 344.074219 71.886719 L 340.28125 71.886719 Z M 340.28125 70.984375 "/>
<path style=" stroke:none;fill-rule:nonzero;fill:rgb(0%,0%,0%);fill-opacity:1;" d="M 347.625 77.992188 L 349.371094 77.992188 L 349.371094 71.960938 L 347.476562 72.339844 L 347.476562 71.363281 L 349.359375 70.984375 L 350.433594 70.984375 L 350.433594 77.992188 L 352.179688 77.992188 L 352.179688 78.890625 L 347.625 78.890625 Z M 347.625 77.992188 "/>
<path style=" stroke:none;fill-rule:nonzero;fill:rgb(0%,0%,0%);fill-opacity:1;" d="M 362.253906 74.097656 C 362.492188 73.664062 362.785156 73.347656 363.121094 73.132812 C 363.457031 72.925781 363.859375 72.816406 364.324219 72.816406 C 364.933594 72.816406 365.410156 73.035156 365.746094 73.46875 C 366.082031 73.902344 366.253906 74.519531 366.253906 75.3125 L 366.253906 78.890625 L 365.277344 78.890625 L 365.277344 75.34375 C 365.277344 74.78125 365.171875 74.359375 364.976562 74.074219 C 364.769531 73.804688 364.464844 73.664062 364.054688 73.664062 C 363.546875 73.664062 363.144531 73.835938 362.851562 74.171875 C 362.558594 74.507812 362.417969 74.964844 362.417969 75.539062 L 362.417969 78.890625 L 361.441406 78.890625 L 361.441406 75.34375 C 361.441406 74.78125 361.335938 74.359375 361.140625 74.074219 C 360.933594 73.804688 360.621094 73.664062 360.207031 73.664062 C 359.710938 73.664062 359.308594 73.835938 359.015625 74.171875 C 358.722656 74.507812 358.582031 74.964844 358.582031 75.539062 L 358.582031 78.890625 L 357.605469 78.890625 L 357.605469 72.957031 L 358.582031 72.957031 L 358.582031 73.878906 C 358.800781 73.523438 359.070312 73.25 359.382812 73.078125 C 359.6875 72.90625 360.054688 72.816406 360.488281 72.816406 C 360.921875 72.816406 361.28125 72.925781 361.582031 73.144531 C 361.886719 73.359375 362.105469 73.683594 362.253906 74.097656 Z M 362.253906 74.097656 "/>
</g>
</svg>
