<?xml version="1.0" encoding="UTF-8"?>
<svg xmlns="http://www.w3.org/2000/svg" xmlns:xlink="http://www.w3.org/1999/xlink" width="500px" height="px" viewBox="0 0 499 375" version="1.1">
<g id="surface1">
<path style=" stroke:none;fill-rule:nonzero;fill:rgb(100%,100%,100%);fill-opacity:1;" d="M 0 374.835938 L 499.324219 374.835938 L 499.324219 0 L 0 0 Z M 0 374.835938 "/>
<path style=" stroke:none;fill-rule:nonzero;fill:rgb(100%,100%,100%);fill-opacity:1;" d="M 111.722656 333.605469 L 400.085938 333.605469 L 400.085938 44.980469 L 111.722656 44.980469 Z M 111.722656 333.605469 "/>
<path style="fill:none;stroke-width:0.8;stroke-linecap:butt;stroke-linejoin:round;stroke:rgb(0%,0%,0%);stroke-opacity:1;stroke-miterlimit:4;" d="M 112.17622 307.584242 L 112.17622 311.084961 " transform="matrix(1.083605,0,0,1.084599,0,0)"/>
<path style=" stroke:none;fill-rule:nonzero;fill:rgb(0%,0%,0%);fill-opacity:1;" d="M 121.554688 342.230469 C 121 342.230469 120.589844 342.503906 120.308594 343.046875 C 120.027344 343.585938 119.894531 344.402344 119.894531 345.484375 C 119.894531 346.570312 120.027344 347.382812 120.308594 347.925781 C 120.589844 348.46875 121 348.738281 121.554688 348.738281 C 122.105469 348.738281 122.519531 348.46875 122.800781 347.925781 C 123.070312 347.382812 123.210938 346.570312 123.210938 345.484375 C 123.210938 344.402344 123.070312 343.585938 122.800781 343.046875 C 122.519531 342.503906 122.105469 342.230469 121.554688 342.230469 Z M 121.554688 341.386719 C 122.429688 341.386719 123.101562 341.742188 123.578125 342.4375 C 124.046875 343.144531 124.285156 344.164062 124.285156 345.484375 C 124.285156 346.820312 124.046875 347.839844 123.578125 348.535156 C 123.101562 349.226562 122.429688 349.574219 121.542969 349.574219 C 120.652344 349.574219 119.980469 349.226562 119.515625 348.535156 C 119.050781 347.839844 118.824219 346.820312 118.824219 345.484375 C 118.824219 344.164062 119.050781 343.144531 119.515625 342.4375 C 119.980469 341.742188 120.664062 341.386719 121.554688 341.386719 Z M 121.554688 341.386719 "/>
<path style="fill:none;stroke-width:0.8;stroke-linecap:butt;stroke-linejoin:round;stroke:rgb(0%,0%,0%);stroke-opacity:1;stroke-miterlimit:4;" d="M 175.733612 307.584242 L 175.733612 311.084961 " transform="matrix(1.083605,0,0,1.084599,0,0)"/>
<path style=" stroke:none;fill-rule:nonzero;fill:rgb(0%,0%,0%);fill-opacity:1;" d="M 184.878906 348.535156 L 186.621094 348.535156 L 186.621094 342.503906 L 184.726562 342.882812 L 184.726562 341.90625 L 186.609375 341.527344 L 187.683594 341.527344 L 187.683594 348.535156 L 189.429688 348.535156 L 189.429688 349.433594 L 184.878906 349.433594 Z M 184.878906 348.535156 "/>
<path style=" stroke:none;fill-rule:nonzero;fill:rgb(0%,0%,0%);fill-opacity:1;" d="M 193.871094 342.230469 C 193.316406 342.230469 192.90625 342.503906 192.625 343.046875 C 192.34375 343.585938 192.214844 344.402344 192.214844 345.484375 C 192.214844 346.570312 192.34375 347.382812 192.625 347.925781 C 192.90625 348.46875 193.316406 348.738281 193.871094 348.738281 C 194.421875 348.738281 194.835938 348.46875 195.117188 347.925781 C 195.386719 347.382812 195.527344 346.570312 195.527344 345.484375 C 195.527344 344.402344 195.386719 343.585938 195.117188 343.046875 C 194.835938 342.503906 194.421875 342.230469 193.871094 342.230469 Z M 193.871094 341.386719 C 194.75 341.386719 195.421875 341.742188 195.898438 342.4375 C 196.363281 343.144531 196.601562 344.164062 196.601562 345.484375 C 196.601562 346.820312 196.363281 347.839844 195.898438 348.535156 C 195.421875 349.226562 194.75 349.574219 193.859375 349.574219 C 192.972656 349.574219 192.300781 349.226562 191.832031 348.535156 C 191.367188 347.839844 191.140625 346.820312 191.140625 345.484375 C 191.140625 344.164062 191.367188 343.144531 191.832031 342.4375 C 192.300781 341.742188 192.984375 341.386719 193.871094 341.386719 Z M 193.871094 341.386719 "/>
<path style="fill:none;stroke-width:0.8;stroke-linecap:butt;stroke-linejoin:round;stroke:rgb(0%,0%,0%);stroke-opacity:1;stroke-miterlimit:4;" d="M 239.291004 307.584242 L 239.291004 311.084961 " transform="matrix(1.083605,0,0,1.084599,0,0)"/>
<path style=" stroke:none;fill-rule:nonzero;fill:rgb(0%,0%,0%);fill-opacity:1;" d="M 254.484375 348.535156 L 258.210938 348.535156 L 258.210938 349.433594 L 253.195312 349.433594 L 253.195312 348.535156 C 253.597656 348.121094 254.148438 347.558594 254.851562 346.839844 C 255.546875 346.136719 255.992188 345.679688 256.175781 345.476562 C 256.523438 345.09375 256.761719 344.769531 256.890625 344.5 C 257.019531 344.238281 257.097656 343.96875 257.097656 343.707031 C 257.097656 343.296875 256.945312 342.949219 256.652344 342.6875 C 256.359375 342.425781 255.980469 342.285156 255.503906 342.285156 C 255.167969 342.285156 254.808594 342.351562 254.441406 342.460938 C 254.074219 342.578125 253.671875 342.753906 253.25 342.992188 L 253.25 341.90625 C 253.683594 341.734375 254.082031 341.601562 254.453125 341.515625 C 254.820312 341.429688 255.167969 341.386719 255.480469 341.386719 C 256.292969 341.386719 256.945312 341.59375 257.433594 342.003906 C 257.917969 342.417969 258.167969 342.957031 258.167969 343.640625 C 258.167969 343.96875 258.105469 344.28125 257.984375 344.5625 C 257.867188 344.855469 257.648438 345.203125 257.324219 345.59375 C 257.238281 345.703125 256.957031 345.996094 256.476562 346.484375 C 256 346.972656 255.339844 347.65625 254.484375 348.535156 Z M 254.484375 348.535156 "/>
<path style=" stroke:none;fill-rule:nonzero;fill:rgb(0%,0%,0%);fill-opacity:1;" d="M 262.742188 342.230469 C 262.1875 342.230469 261.777344 342.503906 261.496094 343.046875 C 261.214844 343.585938 261.082031 344.402344 261.082031 345.484375 C 261.082031 346.570312 261.214844 347.382812 261.496094 347.925781 C 261.777344 348.46875 262.1875 348.738281 262.742188 348.738281 C 263.292969 348.738281 263.707031 348.46875 263.988281 347.925781 C 264.257812 347.382812 264.398438 346.570312 264.398438 345.484375 C 264.398438 344.402344 264.257812 343.585938 263.988281 343.046875 C 263.707031 342.503906 263.292969 342.230469 262.742188 342.230469 Z M 262.742188 341.386719 C 263.621094 341.386719 264.292969 341.742188 264.769531 342.4375 C 265.234375 343.144531 265.472656 344.164062 265.472656 345.484375 C 265.472656 346.820312 265.234375 347.839844 264.769531 348.535156 C 264.292969 349.226562 263.621094 349.574219 262.730469 349.574219 C 261.84375 349.574219 261.171875 349.226562 260.703125 348.535156 C 260.238281 347.839844 260.011719 346.820312 260.011719 345.484375 C 260.011719 344.164062 260.238281 343.144531 260.703125 342.4375 C 261.171875 341.742188 261.851562 341.386719 262.742188 341.386719 Z M 262.742188 341.386719 "/>
<path style="fill:none;stroke-width:0.8;stroke-linecap:butt;stroke-linejoin:round;stroke:rgb(0%,0%,0%);stroke-opacity:1;stroke-miterlimit:4;" d="M 302.848396 307.584242 L 302.848396 311.084961 " transform="matrix(1.083605,0,0,1.084599,0,0)"/>
<path style=" stroke:none;fill-rule:nonzero;fill:rgb(0%,0%,0%);fill-opacity:1;" d="M 325.675781 345.171875 C 326.1875 345.28125 326.585938 345.507812 326.867188 345.855469 C 327.148438 346.203125 327.300781 346.636719 327.300781 347.132812 C 327.300781 347.914062 327.03125 348.523438 326.5 348.945312 C 325.957031 349.367188 325.199219 349.574219 324.214844 349.574219 C 323.878906 349.574219 323.53125 349.542969 323.183594 349.476562 C 322.835938 349.421875 322.46875 349.324219 322.101562 349.195312 L 322.101562 348.164062 C 322.394531 348.339844 322.71875 348.46875 323.074219 348.554688 C 323.421875 348.640625 323.789062 348.683594 324.179688 348.683594 C 324.851562 348.683594 325.363281 348.554688 325.707031 348.296875 C 326.054688 348.035156 326.238281 347.644531 326.238281 347.132812 C 326.238281 346.679688 326.078125 346.308594 325.753906 346.050781 C 325.425781 345.789062 324.972656 345.648438 324.386719 345.648438 L 323.464844 345.648438 L 323.464844 344.769531 L 324.429688 344.769531 C 324.949219 344.769531 325.351562 344.671875 325.632812 344.457031 C 325.914062 344.25 326.054688 343.945312 326.054688 343.542969 C 326.054688 343.144531 325.902344 342.828125 325.621094 342.613281 C 325.328125 342.394531 324.917969 342.285156 324.386719 342.285156 C 324.09375 342.285156 323.78125 342.320312 323.445312 342.382812 C 323.109375 342.449219 322.738281 342.546875 322.339844 342.675781 L 322.339844 341.722656 C 322.738281 341.613281 323.117188 341.527344 323.476562 341.472656 C 323.824219 341.417969 324.160156 341.386719 324.484375 341.386719 C 325.285156 341.386719 325.925781 341.570312 326.402344 341.9375 C 326.878906 342.308594 327.117188 342.808594 327.117188 343.4375 C 327.117188 343.871094 326.988281 344.238281 326.738281 344.542969 C 326.488281 344.847656 326.132812 345.0625 325.675781 345.171875 Z M 325.675781 345.171875 "/>
<path style=" stroke:none;fill-rule:nonzero;fill:rgb(0%,0%,0%);fill-opacity:1;" d="M 331.613281 342.230469 C 331.0625 342.230469 330.648438 342.503906 330.367188 343.046875 C 330.085938 343.585938 329.957031 344.402344 329.957031 345.484375 C 329.957031 346.570312 330.085938 347.382812 330.367188 347.925781 C 330.648438 348.46875 331.0625 348.738281 331.613281 348.738281 C 332.167969 348.738281 332.578125 348.46875 332.859375 347.925781 C 333.132812 347.382812 333.273438 346.570312 333.273438 345.484375 C 333.273438 344.402344 333.132812 343.585938 332.859375 343.046875 C 332.578125 342.503906 332.167969 342.230469 331.613281 342.230469 Z M 331.613281 341.386719 C 332.492188 341.386719 333.164062 341.742188 333.640625 342.4375 C 334.105469 343.144531 334.34375 344.164062 334.34375 345.484375 C 334.34375 346.820312 334.105469 347.839844 333.640625 348.535156 C 333.164062 349.226562 332.492188 349.574219 331.605469 349.574219 C 330.714844 349.574219 330.042969 349.226562 329.578125 348.535156 C 329.113281 347.839844 328.882812 346.820312 328.882812 345.484375 C 328.882812 344.164062 329.113281 343.144531 329.578125 342.4375 C 330.042969 341.742188 330.726562 341.386719 331.613281 341.386719 Z M 331.613281 341.386719 "/>
<path style="fill:none;stroke-width:0.8;stroke-linecap:butt;stroke-linejoin:round;stroke:rgb(0%,0%,0%);stroke-opacity:1;stroke-miterlimit:4;" d="M 366.405788 307.584242 L 366.405788 311.084961 " transform="matrix(1.083605,0,0,1.084599,0,0)"/>
<path style=" stroke:none;fill-rule:nonzero;fill:rgb(0%,0%,0%);fill-opacity:1;" d="M 394.242188 342.460938 L 391.546875 346.679688 L 394.242188 346.679688 Z M 393.960938 341.527344 L 395.304688 341.527344 L 395.304688 346.679688 L 396.433594 346.679688 L 396.433594 347.566406 L 395.304688 347.566406 L 395.304688 349.433594 L 394.242188 349.433594 L 394.242188 347.566406 L 390.679688 347.566406 L 390.679688 346.539062 Z M 393.960938 341.527344 "/>
<path style=" stroke:none;fill-rule:nonzero;fill:rgb(0%,0%,0%);fill-opacity:1;" d="M 400.484375 342.230469 C 399.933594 342.230469 399.519531 342.503906 399.238281 343.046875 C 398.957031 343.585938 398.828125 344.402344 398.828125 345.484375 C 398.828125 346.570312 398.957031 347.382812 399.238281 347.925781 C 399.519531 348.46875 399.933594 348.738281 400.484375 348.738281 C 401.039062 348.738281 401.449219 348.46875 401.730469 347.925781 C 402.003906 347.382812 402.144531 346.570312 402.144531 345.484375 C 402.144531 344.402344 402.003906 343.585938 401.730469 343.046875 C 401.449219 342.503906 401.039062 342.230469 400.484375 342.230469 Z M 400.484375 341.386719 C 401.363281 341.386719 402.035156 341.742188 402.511719 342.4375 C 402.976562 343.144531 403.214844 344.164062 403.214844 345.484375 C 403.214844 346.820312 402.976562 347.839844 402.511719 348.535156 C 402.035156 349.226562 401.363281 349.574219 400.472656 349.574219 C 399.585938 349.574219 398.914062 349.226562 398.449219 348.535156 C 397.980469 347.839844 397.753906 346.820312 397.753906 345.484375 C 397.753906 344.164062 397.980469 343.144531 398.449219 342.4375 C 398.914062 341.742188 399.597656 341.386719 400.484375 341.386719 Z M 400.484375 341.386719 "/>
<path style=" stroke:none;fill-rule:nonzero;fill:rgb(0%,0%,0%);fill-opacity:1;" d="M 233.796875 356.355469 L 240.46875 356.355469 L 240.46875 357.257812 L 237.664062 357.257812 L 237.664062 364.261719 L 236.589844 364.261719 L 236.589844 357.257812 L 233.796875 357.257812 Z M 233.796875 356.355469 "/>
<path style=" stroke:none;fill-rule:nonzero;fill:rgb(0%,0%,0%);fill-opacity:1;" d="M 241.132812 358.328125 L 242.109375 358.328125 L 242.109375 364.261719 L 241.132812 364.261719 Z M 241.132812 356.019531 L 242.109375 356.019531 L 242.109375 357.257812 L 241.132812 357.257812 Z M 241.132812 356.019531 "/>
<path style=" stroke:none;fill-rule:nonzero;fill:rgb(0%,0%,0%);fill-opacity:1;" d="M 248.761719 359.46875 C 249 359.035156 249.292969 358.71875 249.628906 358.503906 C 249.964844 358.296875 250.367188 358.1875 250.832031 358.1875 C 251.441406 358.1875 251.917969 358.40625 252.253906 358.839844 C 252.589844 359.273438 252.761719 359.890625 252.761719 360.683594 L 252.761719 364.261719 L 251.785156 364.261719 L 251.785156 360.714844 C 251.785156 360.152344 251.679688 359.730469 251.484375 359.445312 C 251.277344 359.175781 250.972656 359.035156 250.5625 359.035156 C 250.050781 359.035156 249.652344 359.207031 249.359375 359.542969 C 249.066406 359.878906 248.925781 360.335938 248.925781 360.910156 L 248.925781 364.261719 L 247.949219 364.261719 L 247.949219 360.714844 C 247.949219 360.152344 247.84375 359.730469 247.648438 359.445312 C 247.441406 359.175781 247.125 359.035156 246.714844 359.035156 C 246.214844 359.035156 245.816406 359.207031 245.523438 359.542969 C 245.230469 359.878906 245.089844 360.335938 245.089844 360.910156 L 245.089844 364.261719 L 244.113281 364.261719 L 244.113281 358.328125 L 245.089844 358.328125 L 245.089844 359.25 C 245.304688 358.894531 245.578125 358.621094 245.890625 358.449219 C 246.195312 358.277344 246.5625 358.1875 246.996094 358.1875 C 247.429688 358.1875 247.789062 358.296875 248.089844 358.515625 C 248.394531 358.730469 248.613281 359.054688 248.761719 359.46875 Z M 248.761719 359.46875 "/>
<path style=" stroke:none;fill-rule:nonzero;fill:rgb(0%,0%,0%);fill-opacity:1;" d="M 259.773438 361.050781 L 259.773438 361.527344 L 255.296875 361.527344 C 255.339844 362.203125 255.535156 362.722656 255.902344 363.070312 C 256.261719 363.417969 256.761719 363.589844 257.410156 363.589844 C 257.777344 363.589844 258.148438 363.546875 258.492188 363.460938 C 258.839844 363.375 259.199219 363.230469 259.546875 363.035156 L 259.546875 363.957031 C 259.199219 364.109375 258.839844 364.230469 258.472656 364.296875 C 258.105469 364.359375 257.722656 364.402344 257.355469 364.402344 C 256.402344 364.402344 255.65625 364.132812 255.101562 363.589844 C 254.550781 363.046875 254.277344 362.300781 254.277344 361.355469 C 254.277344 360.390625 254.539062 359.621094 255.058594 359.046875 C 255.578125 358.480469 256.292969 358.1875 257.183594 358.1875 C 257.984375 358.1875 258.613281 358.449219 259.078125 358.957031 C 259.535156 359.480469 259.773438 360.171875 259.773438 361.050781 Z M 258.796875 360.769531 C 258.785156 360.238281 258.636719 359.816406 258.351562 359.492188 C 258.058594 359.175781 257.671875 359.011719 257.195312 359.011719 C 256.652344 359.011719 256.21875 359.175781 255.894531 359.480469 C 255.566406 359.78125 255.375 360.21875 255.328125 360.769531 Z M 258.796875 360.769531 "/>
<path style=" stroke:none;fill-rule:nonzero;fill:rgb(0%,0%,0%);fill-opacity:1;" d="M 264.726562 356.019531 L 266.96875 356.019531 L 266.96875 356.777344 L 265.699219 356.777344 L 265.699219 364.925781 L 266.96875 364.925781 L 266.96875 365.683594 L 264.726562 365.683594 Z M 264.726562 356.019531 "/>
<path style=" stroke:none;fill-rule:nonzero;fill:rgb(0%,0%,0%);fill-opacity:1;" d="M 272.820312 358.503906 L 272.820312 359.425781 C 272.539062 359.296875 272.253906 359.1875 271.964844 359.109375 C 271.660156 359.046875 271.355469 359.003906 271.042969 359.003906 C 270.554688 359.003906 270.1875 359.078125 269.949219 359.230469 C 269.710938 359.382812 269.589844 359.597656 269.589844 359.890625 C 269.589844 360.121094 269.675781 360.292969 269.851562 360.421875 C 270.023438 360.554688 270.371094 360.683594 270.890625 360.792969 L 271.226562 360.867188 C 271.917969 361.019531 272.40625 361.238281 272.699219 361.496094 C 272.980469 361.769531 273.132812 362.148438 273.132812 362.625 C 273.132812 363.179688 272.917969 363.613281 272.484375 363.925781 C 272.050781 364.25 271.441406 364.402344 270.683594 364.402344 C 270.359375 364.402344 270.035156 364.371094 269.6875 364.316406 C 269.339844 364.261719 268.984375 364.175781 268.605469 364.046875 L 268.605469 363.035156 C 268.960938 363.230469 269.320312 363.375 269.664062 363.460938 C 270.011719 363.558594 270.359375 363.601562 270.707031 363.601562 C 271.160156 363.601562 271.519531 363.523438 271.769531 363.375 C 272.007812 363.222656 272.136719 362.992188 272.136719 362.699219 C 272.136719 362.441406 272.039062 362.234375 271.867188 362.09375 C 271.691406 361.953125 271.300781 361.8125 270.695312 361.679688 L 270.359375 361.605469 C 269.753906 361.476562 269.308594 361.28125 269.046875 361.019531 C 268.777344 360.757812 268.648438 360.402344 268.648438 359.933594 C 268.648438 359.382812 268.84375 358.949219 269.234375 358.644531 C 269.621094 358.339844 270.1875 358.1875 270.921875 358.1875 C 271.28125 358.1875 271.617188 358.222656 271.941406 358.277344 C 272.253906 358.328125 272.546875 358.40625 272.820312 358.503906 Z M 272.820312 358.503906 "/>
<path style=" stroke:none;fill-rule:nonzero;fill:rgb(0%,0%,0%);fill-opacity:1;" d="M 276.957031 356.019531 L 276.957031 365.683594 L 274.714844 365.683594 L 274.714844 364.925781 L 275.984375 364.925781 L 275.984375 356.777344 L 274.714844 356.777344 L 274.714844 356.019531 Z M 276.957031 356.019531 "/>
<path style="fill:none;stroke-width:0.8;stroke-linecap:butt;stroke-linejoin:round;stroke:rgb(0%,0%,0%);stroke-opacity:1;stroke-miterlimit:4;" d="M 103.102772 276.927742 L 99.602447 276.927742 " transform="matrix(1.083605,0,0,1.084599,0,0)"/>
<path style=" stroke:none;fill-rule:nonzero;fill:rgb(0%,0%,0%);fill-opacity:1;" d="M 90.347656 297.273438 C 89.796875 297.273438 89.382812 297.542969 89.101562 298.085938 C 88.820312 298.628906 88.691406 299.441406 88.691406 300.527344 C 88.691406 301.613281 88.820312 302.425781 89.101562 302.96875 C 89.382812 303.507812 89.796875 303.78125 90.347656 303.78125 C 90.902344 303.78125 91.3125 303.507812 91.59375 302.96875 C 91.867188 302.425781 92.007812 301.613281 92.007812 300.527344 C 92.007812 299.441406 91.867188 298.628906 91.59375 298.085938 C 91.3125 297.542969 90.902344 297.273438 90.347656 297.273438 Z M 90.347656 296.425781 C 91.226562 296.425781 91.898438 296.785156 92.375 297.480469 C 92.839844 298.183594 93.078125 299.203125 93.078125 300.527344 C 93.078125 301.859375 92.839844 302.878906 92.375 303.574219 C 91.898438 304.269531 91.226562 304.617188 90.339844 304.617188 C 89.449219 304.617188 88.777344 304.269531 88.3125 303.574219 C 87.84375 302.878906 87.617188 301.859375 87.617188 300.527344 C 87.617188 299.203125 87.84375 298.183594 88.3125 297.480469 C 88.777344 296.785156 89.460938 296.425781 90.347656 296.425781 Z M 90.347656 296.425781 "/>
<path style=" stroke:none;fill-rule:nonzero;fill:rgb(0%,0%,0%);fill-opacity:1;" d="M 94.953125 303.128906 L 96.070312 303.128906 L 96.070312 304.476562 L 94.953125 304.476562 Z M 94.953125 303.128906 "/>
<path style=" stroke:none;fill-rule:nonzero;fill:rgb(0%,0%,0%);fill-opacity:1;" d="M 98.410156 296.566406 L 102.605469 296.566406 L 102.605469 297.46875 L 99.386719 297.46875 L 99.386719 299.410156 C 99.539062 299.355469 99.699219 299.3125 99.851562 299.289062 C 100.003906 299.269531 100.167969 299.246094 100.316406 299.246094 C 101.195312 299.246094 101.890625 299.496094 102.410156 299.972656 C 102.929688 300.460938 103.191406 301.113281 103.191406 301.9375 C 103.191406 302.792969 102.917969 303.457031 102.386719 303.921875 C 101.855469 304.386719 101.109375 304.617188 100.15625 304.617188 C 99.820312 304.617188 99.484375 304.582031 99.136719 304.539062 C 98.789062 304.484375 98.441406 304.410156 98.074219 304.289062 L 98.074219 303.21875 C 98.390625 303.390625 98.714844 303.519531 99.0625 303.605469 C 99.398438 303.695312 99.753906 303.726562 100.132812 303.726562 C 100.742188 303.726562 101.226562 303.574219 101.585938 303.25 C 101.933594 302.925781 102.117188 302.492188 102.117188 301.9375 C 102.117188 301.394531 101.933594 300.960938 101.585938 300.636719 C 101.226562 300.308594 100.742188 300.148438 100.132812 300.148438 C 99.851562 300.148438 99.558594 300.179688 99.277344 300.246094 C 98.996094 300.308594 98.703125 300.40625 98.410156 300.539062 Z M 98.410156 296.566406 "/>
<path style="fill:none;stroke-width:0.8;stroke-linecap:butt;stroke-linejoin:round;stroke:rgb(0%,0%,0%);stroke-opacity:1;stroke-miterlimit:4;" d="M 103.102772 235.113602 L 99.602447 235.113602 " transform="matrix(1.083605,0,0,1.084599,0,0)"/>
<path style=" stroke:none;fill-rule:nonzero;fill:rgb(0%,0%,0%);fill-opacity:1;" d="M 88.246094 258.222656 L 89.992188 258.222656 L 89.992188 252.191406 L 88.09375 252.570312 L 88.09375 251.59375 L 89.980469 251.214844 L 91.054688 251.214844 L 91.054688 258.222656 L 92.796875 258.222656 L 92.796875 259.121094 L 88.246094 259.121094 Z M 88.246094 258.222656 "/>
<path style=" stroke:none;fill-rule:nonzero;fill:rgb(0%,0%,0%);fill-opacity:1;" d="M 94.953125 257.777344 L 96.070312 257.777344 L 96.070312 259.121094 L 94.953125 259.121094 Z M 94.953125 257.777344 "/>
<path style=" stroke:none;fill-rule:nonzero;fill:rgb(0%,0%,0%);fill-opacity:1;" d="M 100.6875 251.917969 C 100.132812 251.917969 99.722656 252.191406 99.441406 252.734375 C 99.160156 253.277344 99.027344 254.089844 99.027344 255.171875 C 99.027344 256.257812 99.160156 257.070312 99.441406 257.613281 C 99.722656 258.15625 100.132812 258.425781 100.6875 258.425781 C 101.238281 258.425781 101.652344 258.15625 101.933594 257.613281 C 102.203125 257.070312 102.34375 256.257812 102.34375 255.171875 C 102.34375 254.089844 102.203125 253.277344 101.933594 252.734375 C 101.652344 252.191406 101.238281 251.917969 100.6875 251.917969 Z M 100.6875 251.074219 C 101.5625 251.074219 102.234375 251.433594 102.710938 252.125 C 103.179688 252.832031 103.417969 253.851562 103.417969 255.171875 C 103.417969 256.507812 103.179688 257.527344 102.710938 258.222656 C 102.234375 258.914062 101.5625 259.261719 100.675781 259.261719 C 99.785156 259.261719 99.113281 258.914062 98.648438 258.222656 C 98.183594 257.527344 97.957031 256.507812 97.957031 255.171875 C 97.957031 253.851562 98.183594 252.832031 98.648438 252.125 C 99.113281 251.433594 99.796875 251.074219 100.6875 251.074219 Z M 100.6875 251.074219 "/>
<path style="fill:none;stroke-width:0.8;stroke-linecap:butt;stroke-linejoin:round;stroke:rgb(0%,0%,0%);stroke-opacity:1;stroke-miterlimit:4;" d="M 103.102772 193.299461 L 99.602447 193.299461 " transform="matrix(1.083605,0,0,1.084599,0,0)"/>
<path style=" stroke:none;fill-rule:nonzero;fill:rgb(0%,0%,0%);fill-opacity:1;" d="M 88.246094 212.871094 L 89.992188 212.871094 L 89.992188 206.839844 L 88.09375 207.21875 L 88.09375 206.242188 L 89.980469 205.863281 L 91.054688 205.863281 L 91.054688 212.871094 L 92.796875 212.871094 L 92.796875 213.769531 L 88.246094 213.769531 Z M 88.246094 212.871094 "/>
<path style=" stroke:none;fill-rule:nonzero;fill:rgb(0%,0%,0%);fill-opacity:1;" d="M 94.953125 212.425781 L 96.070312 212.425781 L 96.070312 213.769531 L 94.953125 213.769531 Z M 94.953125 212.425781 "/>
<path style=" stroke:none;fill-rule:nonzero;fill:rgb(0%,0%,0%);fill-opacity:1;" d="M 98.410156 205.863281 L 102.605469 205.863281 L 102.605469 206.761719 L 99.386719 206.761719 L 99.386719 208.703125 C 99.539062 208.652344 99.699219 208.605469 99.851562 208.585938 C 100.003906 208.5625 100.167969 208.542969 100.316406 208.542969 C 101.195312 208.542969 101.890625 208.792969 102.410156 209.269531 C 102.929688 209.757812 103.191406 210.40625 103.191406 211.230469 C 103.191406 212.089844 102.917969 212.75 102.386719 213.21875 C 101.855469 213.683594 101.109375 213.910156 100.15625 213.910156 C 99.820312 213.910156 99.484375 213.878906 99.136719 213.835938 C 98.789062 213.78125 98.441406 213.703125 98.074219 213.585938 L 98.074219 212.511719 C 98.390625 212.683594 98.714844 212.816406 99.0625 212.902344 C 99.398438 212.988281 99.753906 213.023438 100.132812 213.023438 C 100.742188 213.023438 101.226562 212.871094 101.585938 212.542969 C 101.933594 212.21875 102.117188 211.785156 102.117188 211.230469 C 102.117188 210.691406 101.933594 210.257812 101.585938 209.929688 C 101.226562 209.605469 100.742188 209.441406 100.132812 209.441406 C 99.851562 209.441406 99.558594 209.476562 99.277344 209.539062 C 98.996094 209.605469 98.703125 209.703125 98.410156 209.832031 Z M 98.410156 205.863281 "/>
<path style="fill:none;stroke-width:0.8;stroke-linecap:butt;stroke-linejoin:round;stroke:rgb(0%,0%,0%);stroke-opacity:1;stroke-miterlimit:4;" d="M 103.102772 151.48532 L 99.602447 151.48532 " transform="matrix(1.083605,0,0,1.084599,0,0)"/>
<path style=" stroke:none;fill-rule:nonzero;fill:rgb(0%,0%,0%);fill-opacity:1;" d="M 88.984375 167.515625 L 92.710938 167.515625 L 92.710938 168.417969 L 87.695312 168.417969 L 87.695312 167.515625 C 88.09375 167.105469 88.648438 166.539062 89.351562 165.824219 C 90.046875 165.121094 90.488281 164.664062 90.675781 164.457031 C 91.019531 164.078125 91.257812 163.753906 91.390625 163.480469 C 91.519531 163.222656 91.59375 162.949219 91.59375 162.691406 C 91.59375 162.277344 91.441406 161.929688 91.152344 161.671875 C 90.859375 161.410156 90.480469 161.269531 90.003906 161.269531 C 89.667969 161.269531 89.308594 161.335938 88.941406 161.441406 C 88.570312 161.5625 88.171875 161.734375 87.75 161.972656 L 87.75 160.890625 C 88.179688 160.714844 88.582031 160.585938 88.949219 160.5 C 89.320312 160.414062 89.667969 160.367188 89.980469 160.367188 C 90.792969 160.367188 91.441406 160.574219 91.929688 160.988281 C 92.417969 161.398438 92.667969 161.941406 92.667969 162.625 C 92.667969 162.949219 92.601562 163.265625 92.484375 163.546875 C 92.363281 163.839844 92.148438 164.1875 91.824219 164.578125 C 91.734375 164.683594 91.453125 164.976562 90.976562 165.464844 C 90.5 165.953125 89.839844 166.636719 88.984375 167.515625 Z M 88.984375 167.515625 "/>
<path style=" stroke:none;fill-rule:nonzero;fill:rgb(0%,0%,0%);fill-opacity:1;" d="M 94.953125 167.070312 L 96.070312 167.070312 L 96.070312 168.417969 L 94.953125 168.417969 Z M 94.953125 167.070312 "/>
<path style=" stroke:none;fill-rule:nonzero;fill:rgb(0%,0%,0%);fill-opacity:1;" d="M 100.6875 161.214844 C 100.132812 161.214844 99.722656 161.484375 99.441406 162.027344 C 99.160156 162.570312 99.027344 163.382812 99.027344 164.46875 C 99.027344 165.554688 99.160156 166.367188 99.441406 166.910156 C 99.722656 167.453125 100.132812 167.722656 100.6875 167.722656 C 101.238281 167.722656 101.652344 167.453125 101.933594 166.910156 C 102.203125 166.367188 102.34375 165.554688 102.34375 164.46875 C 102.34375 163.382812 102.203125 162.570312 101.933594 162.027344 C 101.652344 161.484375 101.238281 161.214844 100.6875 161.214844 Z M 100.6875 160.367188 C 101.5625 160.367188 102.234375 160.726562 102.710938 161.421875 C 103.179688 162.125 103.417969 163.144531 103.417969 164.46875 C 103.417969 165.800781 103.179688 166.820312 102.710938 167.515625 C 102.234375 168.210938 101.5625 168.558594 100.675781 168.558594 C 99.785156 168.558594 99.113281 168.210938 98.648438 167.515625 C 98.183594 166.820312 97.957031 165.800781 97.957031 164.46875 C 97.957031 163.144531 98.183594 162.125 98.648438 161.421875 C 99.113281 160.726562 99.796875 160.367188 100.6875 160.367188 Z M 100.6875 160.367188 "/>
<path style="fill:none;stroke-width:0.8;stroke-linecap:butt;stroke-linejoin:round;stroke:rgb(0%,0%,0%);stroke-opacity:1;stroke-miterlimit:4;" d="M 103.102772 109.667578 L 99.602447 109.667578 " transform="matrix(1.083605,0,0,1.084599,0,0)"/>
<path style=" stroke:none;fill-rule:nonzero;fill:rgb(0%,0%,0%);fill-opacity:1;" d="M 88.984375 122.164062 L 92.710938 122.164062 L 92.710938 123.066406 L 87.695312 123.066406 L 87.695312 122.164062 C 88.09375 121.753906 88.648438 121.1875 89.351562 120.472656 C 90.046875 119.769531 90.488281 119.3125 90.675781 119.105469 C 91.019531 118.726562 91.257812 118.402344 91.390625 118.128906 C 91.519531 117.871094 91.59375 117.597656 91.59375 117.339844 C 91.59375 116.925781 91.441406 116.578125 91.152344 116.320312 C 90.859375 116.058594 90.480469 115.917969 90.003906 115.917969 C 89.667969 115.917969 89.308594 115.984375 88.941406 116.089844 C 88.570312 116.210938 88.171875 116.382812 87.75 116.621094 L 87.75 115.539062 C 88.179688 115.363281 88.582031 115.234375 88.949219 115.148438 C 89.320312 115.0625 89.667969 115.015625 89.980469 115.015625 C 90.792969 115.015625 91.441406 115.222656 91.929688 115.636719 C 92.417969 116.046875 92.667969 116.589844 92.667969 117.273438 C 92.667969 117.597656 92.601562 117.914062 92.484375 118.195312 C 92.363281 118.488281 92.148438 118.835938 91.824219 119.226562 C 91.734375 119.335938 91.453125 119.625 90.976562 120.113281 C 90.5 120.601562 89.839844 121.285156 88.984375 122.164062 Z M 88.984375 122.164062 "/>
<path style=" stroke:none;fill-rule:nonzero;fill:rgb(0%,0%,0%);fill-opacity:1;" d="M 94.953125 121.71875 L 96.070312 121.71875 L 96.070312 123.066406 L 94.953125 123.066406 Z M 94.953125 121.71875 "/>
<path style=" stroke:none;fill-rule:nonzero;fill:rgb(0%,0%,0%);fill-opacity:1;" d="M 98.410156 115.160156 L 102.605469 115.160156 L 102.605469 116.058594 L 99.386719 116.058594 L 99.386719 118 C 99.539062 117.945312 99.699219 117.902344 99.851562 117.878906 C 100.003906 117.859375 100.167969 117.835938 100.316406 117.835938 C 101.195312 117.835938 101.890625 118.085938 102.410156 118.5625 C 102.929688 119.050781 103.191406 119.703125 103.191406 120.527344 C 103.191406 121.382812 102.917969 122.046875 102.386719 122.511719 C 101.855469 122.976562 101.109375 123.207031 100.15625 123.207031 C 99.820312 123.207031 99.484375 123.171875 99.136719 123.128906 C 98.789062 123.074219 98.441406 123 98.074219 122.878906 L 98.074219 121.808594 C 98.390625 121.980469 98.714844 122.109375 99.0625 122.199219 C 99.398438 122.285156 99.753906 122.316406 100.132812 122.316406 C 100.742188 122.316406 101.226562 122.164062 101.585938 121.839844 C 101.933594 121.515625 102.117188 121.082031 102.117188 120.527344 C 102.117188 119.984375 101.933594 119.550781 101.585938 119.226562 C 101.226562 118.898438 100.742188 118.738281 100.132812 118.738281 C 99.851562 118.738281 99.558594 118.769531 99.277344 118.835938 C 98.996094 118.898438 98.703125 118.996094 98.410156 119.128906 Z M 98.410156 115.160156 "/>
<path style="fill:none;stroke-width:0.8;stroke-linecap:butt;stroke-linejoin:round;stroke:rgb(0%,0%,0%);stroke-opacity:1;stroke-miterlimit:4;" d="M 103.102772 67.853438 L 99.602447 67.853438 " transform="matrix(1.083605,0,0,1.084599,0,0)"/>
<path style=" stroke:none;fill-rule:nonzero;fill:rgb(0%,0%,0%);fill-opacity:1;" d="M 91.300781 73.449219 C 91.8125 73.558594 92.210938 73.785156 92.496094 74.132812 C 92.777344 74.480469 92.929688 74.914062 92.929688 75.414062 C 92.929688 76.191406 92.65625 76.800781 92.125 77.222656 C 91.585938 77.644531 90.824219 77.851562 89.839844 77.851562 C 89.503906 77.851562 89.15625 77.820312 88.808594 77.753906 C 88.464844 77.699219 88.09375 77.601562 87.726562 77.472656 L 87.726562 76.441406 C 88.019531 76.617188 88.34375 76.746094 88.703125 76.832031 C 89.046875 76.917969 89.417969 76.964844 89.808594 76.964844 C 90.480469 76.964844 90.988281 76.832031 91.335938 76.574219 C 91.679688 76.3125 91.867188 75.921875 91.867188 75.414062 C 91.867188 74.957031 91.703125 74.585938 91.378906 74.328125 C 91.054688 74.066406 90.597656 73.925781 90.011719 73.925781 L 89.09375 73.925781 L 89.09375 73.046875 L 90.054688 73.046875 C 90.578125 73.046875 90.976562 72.949219 91.257812 72.734375 C 91.539062 72.527344 91.679688 72.222656 91.679688 71.820312 C 91.679688 71.421875 91.53125 71.105469 91.25 70.890625 C 90.957031 70.671875 90.542969 70.5625 90.011719 70.5625 C 89.71875 70.5625 89.40625 70.597656 89.070312 70.660156 C 88.734375 70.726562 88.367188 70.824219 87.964844 70.953125 L 87.964844 70 C 88.367188 69.890625 88.746094 69.804688 89.101562 69.75 C 89.449219 69.695312 89.785156 69.664062 90.109375 69.664062 C 90.914062 69.664062 91.550781 69.847656 92.027344 70.21875 C 92.503906 70.585938 92.742188 71.085938 92.742188 71.714844 C 92.742188 72.148438 92.613281 72.515625 92.363281 72.820312 C 92.113281 73.125 91.757812 73.339844 91.300781 73.449219 Z M 91.300781 73.449219 "/>
<path style=" stroke:none;fill-rule:nonzero;fill:rgb(0%,0%,0%);fill-opacity:1;" d="M 94.953125 76.367188 L 96.070312 76.367188 L 96.070312 77.710938 L 94.953125 77.710938 Z M 94.953125 76.367188 "/>
<path style=" stroke:none;fill-rule:nonzero;fill:rgb(0%,0%,0%);fill-opacity:1;" d="M 100.6875 70.507812 C 100.132812 70.507812 99.722656 70.78125 99.441406 71.324219 C 99.160156 71.867188 99.027344 72.679688 99.027344 73.761719 C 99.027344 74.847656 99.160156 75.660156 99.441406 76.203125 C 99.722656 76.746094 100.132812 77.015625 100.6875 77.015625 C 101.238281 77.015625 101.652344 76.746094 101.933594 76.203125 C 102.203125 75.660156 102.34375 74.847656 102.34375 73.761719 C 102.34375 72.679688 102.203125 71.867188 101.933594 71.324219 C 101.652344 70.78125 101.238281 70.507812 100.6875 70.507812 Z M 100.6875 69.664062 C 101.5625 69.664062 102.234375 70.023438 102.710938 70.714844 C 103.179688 71.421875 103.417969 72.441406 103.417969 73.761719 C 103.417969 75.097656 103.179688 76.117188 102.710938 76.8125 C 102.234375 77.503906 101.5625 77.851562 100.675781 77.851562 C 99.785156 77.851562 99.113281 77.503906 98.648438 76.8125 C 98.183594 76.117188 97.957031 75.097656 97.957031 73.761719 C 97.957031 72.441406 98.183594 71.421875 98.648438 70.714844 C 99.113281 70.023438 99.796875 69.664062 100.6875 69.664062 Z M 100.6875 69.664062 "/>
<path style=" stroke:none;fill-rule:nonzero;fill:rgb(0%,0%,0%);fill-opacity:1;" d="M 72.675781 216.402344 L 73.71875 216.402344 C 73.523438 216.8125 73.382812 217.191406 73.285156 217.550781 C 73.199219 217.917969 73.144531 218.265625 73.144531 218.59375 C 73.144531 219.179688 73.261719 219.632812 73.480469 219.949219 C 73.707031 220.261719 74.03125 220.414062 74.445312 220.414062 C 74.789062 220.414062 75.0625 220.316406 75.234375 220.101562 C 75.417969 219.894531 75.558594 219.492188 75.667969 218.90625 L 75.796875 218.257812 C 75.949219 217.464844 76.222656 216.878906 76.601562 216.5 C 76.988281 216.121094 77.5 215.925781 78.140625 215.925781 C 78.90625 215.925781 79.480469 216.183594 79.871094 216.695312 C 80.261719 217.214844 80.457031 217.964844 80.457031 218.949219 C 80.457031 219.328125 80.414062 219.730469 80.339844 220.152344 C 80.261719 220.578125 80.144531 221.011719 79.96875 221.457031 L 78.863281 221.457031 C 79.113281 221.023438 79.296875 220.597656 79.417969 220.1875 C 79.546875 219.773438 79.601562 219.363281 79.601562 218.949219 C 79.601562 218.34375 79.480469 217.875 79.242188 217.539062 C 79.003906 217.214844 78.667969 217.042969 78.214844 217.042969 C 77.824219 217.042969 77.519531 217.160156 77.304688 217.398438 C 77.085938 217.636719 76.925781 218.027344 76.816406 218.570312 L 76.6875 219.222656 C 76.535156 220.023438 76.285156 220.597656 75.9375 220.957031 C 75.601562 221.316406 75.136719 221.488281 74.53125 221.488281 C 73.835938 221.488281 73.285156 221.25 72.882812 220.75 C 72.480469 220.261719 72.277344 219.578125 72.277344 218.710938 C 72.277344 218.34375 72.308594 217.972656 72.375 217.582031 C 72.4375 217.203125 72.546875 216.8125 72.675781 216.402344 Z M 72.675781 216.402344 "/>
<path style=" stroke:none;fill-rule:nonzero;fill:rgb(0%,0%,0%);fill-opacity:1;" d="M 79.429688 213.355469 L 82.558594 213.355469 L 82.558594 214.328125 L 74.390625 214.328125 L 74.390625 213.355469 L 75.289062 213.355469 C 74.941406 213.160156 74.683594 212.898438 74.507812 212.582031 C 74.335938 212.269531 74.25 211.890625 74.25 211.457031 C 74.25 210.738281 74.542969 210.152344 75.105469 209.699219 C 75.679688 209.253906 76.425781 209.027344 77.359375 209.027344 C 78.289062 209.027344 79.050781 209.253906 79.613281 209.699219 C 80.175781 210.152344 80.457031 210.738281 80.457031 211.457031 C 80.457031 211.890625 80.371094 212.269531 80.207031 212.582031 C 80.046875 212.898438 79.785156 213.160156 79.429688 213.355469 Z M 77.359375 210.035156 C 76.644531 210.035156 76.089844 210.1875 75.679688 210.480469 C 75.265625 210.78125 75.0625 211.183594 75.0625 211.695312 C 75.0625 212.214844 75.265625 212.617188 75.679688 212.910156 C 76.089844 213.210938 76.644531 213.355469 77.359375 213.355469 C 78.074219 213.355469 78.636719 213.210938 79.050781 212.910156 C 79.460938 212.617188 79.65625 212.214844 79.65625 211.695312 C 79.65625 211.183594 79.460938 210.78125 79.050781 210.480469 C 78.636719 210.1875 78.074219 210.035156 77.359375 210.035156 Z M 77.359375 210.035156 "/>
<path style=" stroke:none;fill-rule:nonzero;fill:rgb(0%,0%,0%);fill-opacity:1;" d="M 77.109375 202.335938 L 77.585938 202.335938 L 77.585938 206.8125 C 78.257812 206.769531 78.777344 206.574219 79.125 206.207031 C 79.472656 205.847656 79.644531 205.347656 79.644531 204.699219 C 79.644531 204.328125 79.601562 203.960938 79.515625 203.613281 C 79.429688 203.265625 79.289062 202.910156 79.09375 202.5625 L 80.011719 202.5625 C 80.164062 202.910156 80.285156 203.265625 80.347656 203.636719 C 80.414062 204.003906 80.457031 204.382812 80.457031 204.753906 C 80.457031 205.707031 80.1875 206.457031 79.644531 207.007812 C 79.101562 207.5625 78.355469 207.832031 77.414062 207.832031 C 76.449219 207.832031 75.679688 207.574219 75.105469 207.050781 C 74.542969 206.53125 74.25 205.816406 74.25 204.925781 C 74.25 204.125 74.507812 203.496094 75.019531 203.027344 C 75.539062 202.574219 76.230469 202.335938 77.109375 202.335938 Z M 76.828125 203.308594 C 76.296875 203.320312 75.875 203.472656 75.550781 203.753906 C 75.234375 204.046875 75.070312 204.4375 75.070312 204.914062 C 75.070312 205.457031 75.234375 205.890625 75.539062 206.21875 C 75.839844 206.542969 76.273438 206.738281 76.828125 206.78125 Z M 76.828125 203.308594 "/>
<path style=" stroke:none;fill-rule:nonzero;fill:rgb(0%,0%,0%);fill-opacity:1;" d="M 77.109375 195.664062 L 77.585938 195.664062 L 77.585938 200.144531 C 78.257812 200.101562 78.777344 199.90625 79.125 199.535156 C 79.472656 199.179688 79.644531 198.679688 79.644531 198.027344 C 79.644531 197.660156 79.601562 197.289062 79.515625 196.945312 C 79.429688 196.597656 79.289062 196.238281 79.09375 195.890625 L 80.011719 195.890625 C 80.164062 196.238281 80.285156 196.597656 80.347656 196.964844 C 80.414062 197.335938 80.457031 197.714844 80.457031 198.082031 C 80.457031 199.035156 80.1875 199.785156 79.644531 200.339844 C 79.101562 200.890625 78.355469 201.164062 77.414062 201.164062 C 76.449219 201.164062 75.679688 200.902344 75.105469 200.382812 C 74.542969 199.859375 74.25 199.144531 74.25 198.257812 C 74.25 197.453125 74.507812 196.824219 75.019531 196.359375 C 75.539062 195.902344 76.230469 195.664062 77.109375 195.664062 Z M 76.828125 196.640625 C 76.296875 196.652344 75.875 196.800781 75.550781 197.085938 C 75.234375 197.378906 75.070312 197.769531 75.070312 198.246094 C 75.070312 198.789062 75.234375 199.222656 75.539062 199.546875 C 75.839844 199.871094 76.273438 200.066406 76.828125 200.109375 Z M 76.828125 196.640625 "/>
<path style=" stroke:none;fill-rule:nonzero;fill:rgb(0%,0%,0%);fill-opacity:1;" d="M 75.289062 190.164062 L 72.082031 190.164062 L 72.082031 189.1875 L 80.316406 189.1875 L 80.316406 190.164062 L 79.429688 190.164062 C 79.785156 190.371094 80.046875 190.632812 80.207031 190.945312 C 80.371094 191.261719 80.457031 191.628906 80.457031 192.0625 C 80.457031 192.777344 80.175781 193.363281 79.613281 193.820312 C 79.050781 194.277344 78.289062 194.492188 77.359375 194.492188 C 76.425781 194.492188 75.679688 194.277344 75.105469 193.820312 C 74.542969 193.363281 74.25 192.777344 74.25 192.0625 C 74.25 191.628906 74.335938 191.261719 74.507812 190.945312 C 74.683594 190.632812 74.941406 190.371094 75.289062 190.164062 Z M 77.359375 193.484375 C 78.074219 193.484375 78.636719 193.34375 79.050781 193.050781 C 79.460938 192.757812 79.65625 192.355469 79.65625 191.835938 C 79.65625 191.316406 79.460938 190.914062 79.050781 190.609375 C 78.636719 190.316406 78.074219 190.164062 77.359375 190.164062 C 76.644531 190.164062 76.089844 190.316406 75.679688 190.609375 C 75.265625 190.914062 75.0625 191.316406 75.0625 191.835938 C 75.0625 192.355469 75.265625 192.757812 75.679688 193.050781 C 76.089844 193.34375 76.644531 193.484375 77.359375 193.484375 Z M 77.359375 193.484375 "/>
<path style=" stroke:none;fill-rule:nonzero;fill:rgb(0%,0%,0%);fill-opacity:1;" d="M 72.082031 183.820312 L 72.082031 181.574219 L 72.839844 181.574219 L 72.839844 182.84375 L 80.976562 182.84375 L 80.976562 181.574219 L 81.734375 181.574219 L 81.734375 183.820312 Z M 72.082031 183.820312 "/>
<path style=" stroke:none;fill-rule:nonzero;fill:rgb(0%,0%,0%);fill-opacity:1;" d="M 75.527344 174.882812 C 75.09375 174.644531 74.78125 174.351562 74.5625 174.015625 C 74.355469 173.679688 74.25 173.277344 74.25 172.8125 C 74.25 172.203125 74.464844 171.726562 74.898438 171.390625 C 75.332031 171.054688 75.949219 170.878906 76.742188 170.878906 L 80.316406 170.878906 L 80.316406 171.855469 L 76.773438 171.855469 C 76.210938 171.855469 75.789062 171.964844 75.503906 172.160156 C 75.234375 172.367188 75.09375 172.671875 75.09375 173.082031 C 75.09375 173.59375 75.265625 173.992188 75.601562 174.285156 C 75.9375 174.578125 76.394531 174.71875 76.96875 174.71875 L 80.316406 174.71875 L 80.316406 175.695312 L 76.773438 175.695312 C 76.210938 175.695312 75.789062 175.804688 75.503906 176 C 75.234375 176.207031 75.09375 176.519531 75.09375 176.933594 C 75.09375 177.433594 75.265625 177.832031 75.601562 178.125 C 75.9375 178.417969 76.394531 178.558594 76.96875 178.558594 L 80.316406 178.558594 L 80.316406 179.535156 L 74.390625 179.535156 L 74.390625 178.558594 L 75.308594 178.558594 C 74.953125 178.34375 74.683594 178.070312 74.507812 177.757812 C 74.335938 177.453125 74.25 177.085938 74.25 176.652344 C 74.25 176.21875 74.355469 175.859375 74.574219 175.554688 C 74.789062 175.25 75.117188 175.035156 75.527344 174.882812 Z M 75.527344 174.882812 "/>
<path style=" stroke:none;fill-rule:nonzero;fill:rgb(0%,0%,0%);fill-opacity:1;" d="M 72.417969 167.203125 L 72.417969 166.304688 L 81.3125 169.058594 L 81.3125 169.957031 Z M 72.417969 167.203125 "/>
<path style=" stroke:none;fill-rule:nonzero;fill:rgb(0%,0%,0%);fill-opacity:1;" d="M 74.5625 161.5 L 75.484375 161.5 C 75.355469 161.78125 75.246094 162.0625 75.167969 162.355469 C 75.105469 162.660156 75.0625 162.964844 75.0625 163.277344 C 75.0625 163.765625 75.136719 164.132812 75.289062 164.375 C 75.441406 164.613281 75.65625 164.730469 75.949219 164.730469 C 76.175781 164.730469 76.351562 164.644531 76.480469 164.472656 C 76.609375 164.296875 76.742188 163.949219 76.847656 163.429688 L 76.925781 163.09375 C 77.078125 162.398438 77.292969 161.910156 77.554688 161.617188 C 77.824219 161.335938 78.203125 161.183594 78.679688 161.183594 C 79.234375 161.183594 79.667969 161.402344 79.980469 161.835938 C 80.304688 162.269531 80.457031 162.875 80.457031 163.636719 C 80.457031 163.960938 80.425781 164.285156 80.371094 164.632812 C 80.316406 164.980469 80.230469 165.339844 80.101562 165.71875 L 79.09375 165.71875 C 79.289062 165.359375 79.429688 165.003906 79.515625 164.65625 C 79.613281 164.308594 79.65625 163.960938 79.65625 163.613281 C 79.65625 163.160156 79.578125 162.800781 79.429688 162.550781 C 79.277344 162.3125 79.050781 162.183594 78.757812 162.183594 C 78.496094 162.183594 78.289062 162.28125 78.148438 162.453125 C 78.007812 162.625 77.867188 163.015625 77.738281 163.625 L 77.660156 163.960938 C 77.53125 164.566406 77.335938 165.011719 77.078125 165.273438 C 76.816406 165.542969 76.460938 165.675781 75.992188 165.675781 C 75.441406 165.675781 75.007812 165.480469 74.703125 165.089844 C 74.398438 164.699219 74.25 164.132812 74.25 163.398438 C 74.25 163.039062 74.28125 162.703125 74.335938 162.378906 C 74.390625 162.0625 74.464844 161.769531 74.5625 161.5 Z M 74.5625 161.5 "/>
<path style=" stroke:none;fill-rule:nonzero;fill:rgb(0%,0%,0%);fill-opacity:1;" d="M 72.082031 157.355469 L 81.734375 157.355469 L 81.734375 159.601562 L 80.976562 159.601562 L 80.976562 158.332031 L 72.839844 158.332031 L 72.839844 159.601562 L 72.082031 159.601562 Z M 72.082031 157.355469 "/>
<path style="fill:none;stroke-width:2.5;stroke-linecap:square;stroke-linejoin:round;stroke:rgb(0%,50.196078%,50.196078%);stroke-opacity:1;stroke-miterlimit:4;" d="M 115.200702 295.486594 L 116.33263 242.104234 L 116.610205 231.256328 L 117.057208 216.399883 L 117.233847 206.952984 L 118.275653 174.917086 L 119.515727 145.009711 L 120.680098 126.494078 L 121.556081 116.251234 L 122.720453 106.512609 L 125.485385 86.909305 L 126.393811 82.299305 L 127.028267 79.529703 L 128.300785 75.65082 L 129.050597 74.123758 L 129.493996 73.457469 L 129.692263 73.014477 L 132.493244 69.200422 L 134.526389 67.100711 L 134.76431 66.974656 L 135.409581 66.621703 L 137.233643 65.923 L 137.43912 65.829359 L 138.322313 65.573648 L 139.591225 65.188281 L 139.980551 65.220695 L 140.373481 65.058625 L 140.863743 64.964984 L 141.653209 64.93257 L 142.186729 64.961383 L 142.543611 64.961383 L 142.803161 65.152266 L 144.551521 65.177477 L 144.944451 65.339547 L 145.193187 65.310734 L 146.090799 65.209891 L 146.74328 65.274719 L 147.035274 65.177477 L 147.633681 65.27832 L 147.875207 65.307133 L 148.264533 65.274719 L 148.769214 65.274719 L 150.798754 65.339547 L 151.16645 65.400773 L 151.55938 65.400773 L 151.808116 65.562844 L 152.312797 65.753727 L 153.214014 65.688898 L 154.630726 65.786141 L 154.915511 66.009438 L 155.113778 66.009438 L 155.373329 65.948211 L 155.481475 65.325141 L 155.755444 65.99143 L 156.00418 66.023844 L 156.27094 65.465602 L 156.761202 64.151031 L 157.518224 61.550703 L 158.534796 58.647844 L 159.050292 57.833891 L 159.169253 57.650211 L 159.926274 57.625 L 160.319205 58.089602 L 161.252865 60.059656 L 161.591723 61.338211 L 162.240598 63.96375 L 162.727255 65.811352 L 163.257171 67.687766 L 163.776271 69.549773 L 164.508059 72.358992 L 166.184322 77.228305 L 166.645745 78.006242 L 166.937739 78.838203 L 167.640688 80.055531 L 167.831746 80.574156 L 168.080481 80.977531 L 168.365266 81.006344 L 168.862737 80.714617 L 170.113626 79.796219 L 171.014842 78.614906 L 171.256368 78.117891 L 171.519523 77.527234 L 173.545458 72.56068 L 173.826638 72.070867 L 174.194334 71.404578 L 174.417836 71.04082 L 175.593022 70.100813 L 176.750184 70.198055 L 177.359406 69.708242 L 177.860483 69.121188 L 178.148872 68.836664 L 178.300276 68.670992 L 178.509359 68.670992 L 178.776119 68.663789 L 179.00683 68.487313 L 179.922466 67.921867 L 180.041427 67.990297 L 181.047184 67.410445 L 181.173355 67.486078 L 181.55547 67.345617 L 182.189927 67.053891 L 182.442267 67.129523 L 182.615301 67.104313 L 182.712632 67.273586 L 182.838803 67.226766 L 182.957763 67.342016 L 183.065909 67.25918 L 183.347089 67.460867 L 183.473259 67.406844 L 183.624663 67.518492 L 183.848165 67.399641 L 183.974335 67.543703 L 184.356451 67.475273 L 184.616002 67.547305 L 184.998117 67.356422 L 185.106263 67.410445 L 185.412677 67.201555 L 186.155279 66.942242 L 186.252611 67.021477 L 186.389596 66.927836 L 186.530185 67.039484 L 186.82218 66.920633 L 188.170399 65.995031 L 188.534491 65.973422 L 188.671476 66.052656 L 188.786831 65.959016 L 188.927421 66.03825 L 189.053592 65.937406 L 189.442917 66.056258 L 190.225173 66.121086 L 192.103308 65.962617 L 192.218664 65.840164 L 192.359254 65.951813 L 192.885564 65.735719 L 193.775966 65.548438 L 194.024702 65.519625 L 194.666368 65.209891 L 194.774514 65.317938 L 195.798296 65.235102 L 195.913652 65.317938 L 196.039822 65.141461 L 196.173202 65.260313 L 196.292162 65.166672 L 196.930224 65.613266 L 197.69085 65.584453 L 197.83144 65.526828 L 197.950401 65.616867 L 198.465897 65.386367 L 198.595672 65.41518 L 198.739866 65.325141 L 198.829988 65.443992 L 199.374323 65.123453 L 199.630268 65.217094 L 199.7276 65.209891 L 200.019594 65.407977 L 200.12774 65.263914 L 200.264725 65.436789 L 200.405315 65.382766 L 200.614397 65.209891 L 202.784526 65.242305 L 202.979189 65.076633 L 203.044076 65.361156 L 203.289207 65.41518 L 203.426192 65.296328 L 203.559572 65.325141 L 203.934478 65.667289 L 204.42474 65.501617 L 204.68429 65.505219 L 204.929421 65.53043 L 205.585507 65.483609 L 206.886864 65.825758 L 206.969775 65.951813 L 207.741217 65.951813 L 207.874597 66.063461 L 208.119728 66.009438 L 208.509053 66.009438 L 208.635224 66.034648 L 208.761394 66.236336 L 209.006525 66.1535 L 209.14351 66.211125 L 209.381431 66.157102 L 209.511206 66.211125 L 209.651796 66.041852 L 209.788781 66.189516 L 210.167292 65.984227 L 210.293462 66.077867 L 210.434052 65.984227 L 210.956757 66.531664 L 211.180259 66.441625 L 211.29201 66.441625 L 211.4326 66.329977 L 211.666916 66.445227 L 212.182412 66.823391 L 212.697908 66.621703 L 213.065604 66.538867 L 213.350388 66.654117 L 213.606334 66.654117 L 213.703665 66.830594 L 213.83344 66.79818 L 213.970425 66.888219 L 214.082176 66.79818 L 214.348936 66.834195 L 214.457082 66.711742 L 215.73681 67.201555 L 216.010779 67.079102 L 216.154974 67.176344 L 216.515461 67.057492 L 216.645236 67.115117 L 216.771406 67.021477 L 216.919206 67.089906 L 217.160732 66.938641 L 217.413072 66.999867 L 218.27103 66.888219 L 218.6928 66.91343 L 218.779316 66.79818 L 219.172247 66.902625 L 219.417378 66.963852 L 219.676928 67.140328 L 220.062649 67.021477 L 220.203239 67.046688 L 220.311384 66.938641 L 220.56733 66.999867 L 220.6935 66.423617 L 220.953051 66.823391 L 221.36761 67.615734 L 221.717282 67.450063 L 222.103003 67.5365 L 222.211149 67.388836 L 222.358948 67.504086 L 222.625708 67.331211 L 222.867234 67.280789 L 223.364706 67.197953 L 224.525473 67.021477 L 225.091437 66.963852 L 225.167139 66.906227 L 225.588908 67.010672 L 225.859273 67.046688 L 225.960209 67.071898 L 226.057541 66.938641 L 226.198131 67.014273 L 226.291857 66.870211 L 226.425237 67.046688 L 226.544198 66.931438 L 227.124581 67.360023 L 227.308429 67.558109 L 227.578794 67.547305 L 229.330759 67.306 L 229.611939 67.388836 L 229.882304 67.298797 L 230.120225 67.277188 L 230.336517 67.334813 L 230.570833 67.273586 L 230.740262 67.417648 L 231.014232 67.500484 L 231.244943 67.640945 L 231.536937 67.608531 L 231.890214 67.579719 L 232.164184 67.748992 L 232.66526 67.723781 L 232.780616 67.58332 L 233.177151 67.691367 L 233.278087 67.644547 L 233.418677 67.759797 L 233.537638 67.637344 L 233.678228 67.723781 L 234.060343 67.558109 L 234.55421 67.58332 L 234.943536 67.525695 L 235.069706 67.554508 L 235.253554 67.442859 L 235.329256 67.58332 L 235.559968 67.500484 L 235.967317 67.439258 L 236.093488 67.58332 L 236.724339 67.378031 L 237.614741 67.867844 L 237.874292 67.867844 L 238.000462 67.752594 L 238.133842 67.831828 L 238.281641 67.637344 L 238.382578 67.752594 L 238.782718 67.547305 L 238.869235 67.640945 L 239.002615 67.464469 L 239.269375 67.748992 L 239.409964 67.666156 L 239.774056 68.037117 L 240.040816 68.267617 L 240.671668 67.925469 L 241.183559 67.986695 L 241.28089 67.842633 L 241.439504 67.896656 L 241.691845 67.842633 L 242.200131 67.983094 L 242.430842 67.900258 L 242.939128 67.878648 L 243.079718 67.756195 L 243.616843 67.842633 L 243.714174 67.69857 L 244.211646 67.875047 L 244.348631 67.961484 L 244.482011 67.842633 L 244.62981 67.954281 L 244.856917 67.817422 L 245.253452 67.69857 L 245.379623 67.817422 L 245.898723 67.640945 L 246.136644 67.702172 L 246.381775 67.615734 L 246.522365 67.558109 L 246.879247 67.781406 L 247.160426 67.842633 L 248.288749 67.615734 L 248.411315 67.500484 L 248.670865 67.640945 L 248.908786 67.615734 L 249.168337 67.586922 L 249.420677 67.637344 L 250.444459 67.475273 L 250.592259 67.241172 L 251.136593 67.871445 L 251.219505 66.675727 L 251.327651 66.68293 L 251.619646 66.495648 L 253.634766 56.328438 L 254.316085 54.268344 L 254.510748 54.016234 L 255.1416 53.720906 L 255.26056 53.86857 L 255.649886 53.569641 L 256.233874 53.886578 L 256.305971 54.149492 L 256.446561 54.210719 L 257.459528 56.757023 L 257.895717 57.916727 L 257.975024 56.429281 L 258.573432 61.835227 L 260.015378 68.11275 L 261.619544 73.9905 L 261.889909 74.768438 L 262.780311 77.981031 L 264.045619 82.364133 L 264.186208 82.562219 L 264.553905 83.538242 L 265.188361 84.935648 L 265.469541 85.457875 L 265.718276 85.771211 L 265.959802 85.969297 L 266.334708 86.059336 L 266.608678 86.196195 L 267.116964 85.828836 L 267.477451 85.339023 L 267.870381 84.54668 L 271.291399 74.79725 L 271.431989 74.627977 L 271.68433 73.997703 L 271.824919 73.92207 L 272.080865 73.360227 L 272.49182 72.729953 L 272.841492 72.657922 L 272.942428 72.456234 L 273.083018 72.481445 L 273.580489 71.768336 L 273.865274 71.563047 L 274.1068 71.57025 L 274.24018 71.609867 L 274.341116 71.451398 L 274.474496 71.491016 L 275.357688 70.713078 L 275.480253 70.453766 L 275.765038 70.360125 L 276.139944 70.017977 L 276.406704 69.578586 L 277.145702 68.840266 L 277.419671 68.746625 L 277.787368 68.278422 L 278.054128 68.202789 L 278.147854 68.033516 L 278.277629 68.080336 L 278.555204 67.896656 L 279.553752 67.687766 L 280.725333 67.442859 L 280.82627 67.579719 L 281.103844 67.460867 L 281.536428 67.637344 L 282.358338 67.194352 L 282.502532 67.241172 L 282.610678 67.082703 L 283.10815 67.158336 L 283.63446 66.837797 L 283.807494 66.924234 L 283.890406 66.769367 L 284.027391 66.790977 L 284.44195 66.402008 L 284.510443 66.556875 L 285.159319 66.308367 L 285.548644 66.092273 L 285.660395 66.171508 L 285.775751 66.052656 L 286.024486 66.074266 L 286.388578 66.08507 L 286.475095 64.302297 L 287.048268 67.658953 L 287.206883 67.594125 L 287.715169 66.981859 L 287.80529 67.118719 L 288.07205 67.248375 L 288.21264 67.125922 L 288.450561 67.19075 L 289.661796 66.585688 L 289.737498 66.520859 L 289.856459 66.571281 L 290.245785 66.358789 L 290.779305 66.247141 L 291.399342 65.948211 L 292.156364 65.80775 L 292.639416 65.631273 L 292.772796 65.886984 L 292.90978 65.746523 L 293.176541 65.908594 L 294.178693 66.261547 L 294.67256 66.272352 L 295.483655 66.502852 L 295.721576 66.427219 L 295.966707 66.326375 L 296.103692 66.517258 L 296.319984 66.423617 L 296.586744 66.585688 L 297.10224 66.538867 L 297.552848 66.384 L 297.765535 66.416414 L 298.493718 66.290359 L 298.634308 66.207523 L 298.767688 66.261547 L 299.38412 66.016641 L 299.52471 66.070664 L 300.018576 65.778938 L 300.285336 65.879781 L 300.418716 65.73932 L 301.182948 65.818555 L 301.323538 65.930203 L 301.431684 65.804148 L 302.3329 65.836563 L 302.433836 65.948211 L 303.075503 65.73932 L 303.720774 65.919398 L 304.099285 65.717711 L 304.62199 65.843766 L 305.115857 65.775336 L 305.479948 65.638477 L 307.087718 65.64568 L 307.188655 65.512422 L 307.282381 65.573648 L 307.653682 65.512422 L 307.927652 65.57725 L 308.172783 65.699703 L 308.277324 65.50882 L 308.410704 65.64568 L 308.536875 65.440391 L 308.684674 65.580852 L 309.05237 65.454797 L 309.304711 65.386367 L 309.434486 65.321539 L 309.564261 65.53043 L 309.704851 65.458398 L 309.820207 65.649281 L 309.953587 65.64568 L 310.443849 66.171508 L 311.352275 66.113883 L 311.471235 66.247141 L 311.7416 66.131891 L 311.835327 66.31557 L 312.350823 66.265148 L 312.491413 66.33718 L 312.624793 66.272352 L 312.750963 66.409211 L 313.017723 66.340781 L 313.37821 66.398406 L 313.526009 66.549672 L 313.608921 66.412813 L 314.376757 66.556875 L 314.434435 66.484844 L 315.548339 66.492047 L 315.66009 66.301164 L 315.79347 66.427219 L 315.916035 66.304766 L 316.042206 66.369594 L 316.298151 66.239938 L 316.406297 66.492047 L 316.532467 66.492047 L 316.784808 66.751359 L 317.166924 66.801781 L 317.318328 66.816188 L 317.556249 66.690133 L 317.94918 66.618102 L 318.450256 66.441625 L 318.706201 66.571281 L 319.088317 66.819789 L 319.329843 66.945844 L 319.607418 66.744156 L 319.838129 66.884617 L 319.989534 67.003469 L 320.728531 66.758563 L 320.90517 66.873813 L 321.132276 66.758563 L 321.521602 67.010672 L 321.788362 66.996266 L 322.152453 66.942242 L 322.660739 66.935039 L 322.797724 66.816188 L 322.91308 66.935039 L 323.410552 66.744156 L 323.547536 66.863008 L 323.803482 66.812586 L 324.163969 67.057492 L 324.430729 67.187148 L 324.830869 67.179945 L 324.946224 66.981859 L 325.19496 67.179945 L 325.47614 67.111516 L 325.829417 67.417648 L 326.741448 67.356422 L 326.860408 67.284391 L 327.004603 67.356422 L 327.101934 67.226766 L 327.386719 67.230367 L 327.862561 67.025078 L 328.244677 67.212359 L 328.634002 67.02868 L 329.434283 67.079102 L 329.535219 67.14393 L 329.89931 67.003469 L 330.533767 67.25918 L 330.652727 67.197953 L 330.800527 67.262781 L 331.056472 67.176344 L 331.431378 67.316805 L 331.564758 67.183547 L 332.065835 67.309602 L 332.206425 67.302398 L 332.307361 67.183547 L 332.559701 67.248375 L 335.400336 67.097109 L 335.638257 66.956648 L 335.879783 67.140328 L 336.128519 67.471672 L 336.449352 67.590523 L 336.532264 67.475273 L 336.665644 67.532898 L 336.780999 67.396039 L 337.285681 67.723781 L 337.415456 67.975891 L 337.653377 67.857039 L 337.894903 67.857039 L 338.410399 67.601328 L 338.52936 67.730984 L 338.972758 67.486078 L 340.951829 67.287992 L 341.21859 67.219563 L 342.711004 67.273586 L 342.94532 67.594125 L 343.136378 67.460867 L 343.377904 67.518492 L 343.507679 67.392438 L 343.644664 67.525695 L 343.882585 67.464469 L 345.623736 67.392438 L 345.78235 67.590523 L 346.809737 67.644547 L 346.943117 67.842633 L 347.451403 67.770602 L 347.559549 67.65175 L 347.700139 67.900258 L 348.067835 67.702172 L 348.32378 67.637344 L 348.47158 67.702172 L 348.579726 67.518492 L 348.709501 67.58332 L 348.832066 67.511289 L 349.455708 67.885852 L 349.729678 67.630141 L 349.855848 67.637344 L 350.364135 68.015508 L 351.005801 67.774203 L 351.106737 67.943477 L 351.506877 67.896656 L 351.636652 68.022711 L 351.914227 67.770602 L 352.036792 67.896656 L 352.271109 67.770602 L 352.797419 68.080336 L 353.046155 67.961484 L 353.294891 67.947078 L 353.547231 67.88225 L 354.048308 67.893055 L 354.304253 67.770602 L 354.430423 67.817422 L 354.563803 67.702172 L 355.194655 68.199188 L 355.443391 68.134359 L 355.829111 67.943477 L 355.976911 68.123555 L 356.196808 68.119953 L 356.845684 68.127156 L 356.986273 67.936273 L 357.119653 68.008305 " transform="matrix(1.083605,0,0,1.084599,0,0)"/>
<path style="fill:none;stroke-width:2.5;stroke-linecap:butt;stroke-linejoin:round;stroke:rgb(100%,0%,0%);stroke-opacity:1;stroke-dasharray:9.25,4;stroke-miterlimit:4;" d="M 115.200702 67.853438 L 357.119653 67.853438 " transform="matrix(1.083605,0,0,1.084599,0,0)"/>
<path style="fill:none;stroke-width:0.8;stroke-linecap:square;stroke-linejoin:miter;stroke:rgb(0%,0%,0%);stroke-opacity:1;stroke-miterlimit:10;" d="M 103.102772 307.584242 L 103.102772 41.471992 M 369.217584 307.584242 L 369.217584 41.471992 M 103.102772 307.584242 L 369.217584 307.584242 M 103.102772 41.471992 L 369.217584 41.471992 " transform="matrix(1.083605,0,0,1.084599,0,0)"/>
<path style="fill-rule:nonzero;fill:rgb(100%,100%,100%);fill-opacity:0.8;stroke-width:1;stroke-linecap:butt;stroke-linejoin:miter;stroke:rgb(83.529412%,83.921569%,83.529412%);stroke-opacity:0.8;stroke-miterlimit:10;" d="M 233.371814 302.585273 L 362.216934 302.585273 C 363.550734 302.585273 364.217634 301.915383 364.217634 300.582805 L 364.217634 272.238508 C 364.217634 270.90593 363.550734 270.239641 362.216934 270.239641 L 233.371814 270.239641 C 232.038014 270.239641 231.371113 270.90593 231.371113 272.238508 L 231.371113 300.582805 C 231.371113 301.915383 232.038014 302.585273 233.371814 302.585273 Z M 233.371814 302.585273 " transform="matrix(1.083605,0,0,1.084599,0,0)"/>
<path style="fill:none;stroke-width:2.5;stroke-linecap:square;stroke-linejoin:round;stroke:rgb(0%,50.196078%,50.196078%);stroke-opacity:1;stroke-miterlimit:4;" d="M 235.372515 278.332352 L 255.372311 278.332352 " transform="matrix(1.083605,0,0,1.084599,0,0)"/>
<path style=" stroke:none;fill-rule:nonzero;fill:rgb(0%,0%,0%);fill-opacity:1;" d="M 292.371094 298.378906 L 292.371094 299.503906 C 292 299.179688 291.621094 298.929688 291.210938 298.757812 C 290.796875 298.59375 290.375 298.507812 289.921875 298.507812 C 289.011719 298.507812 288.316406 298.789062 287.839844 299.34375 C 287.363281 299.894531 287.125 300.6875 287.125 301.730469 C 287.125 302.769531 287.363281 303.574219 287.839844 304.125 C 288.316406 304.679688 289.011719 304.949219 289.921875 304.949219 C 290.375 304.949219 290.796875 304.875 291.210938 304.699219 C 291.621094 304.539062 292 304.289062 292.371094 303.953125 L 292.371094 305.070312 C 291.992188 305.328125 291.589844 305.515625 291.175781 305.632812 C 290.765625 305.753906 290.320312 305.816406 289.855469 305.816406 C 288.664062 305.816406 287.722656 305.460938 287.027344 304.734375 C 286.332031 304.007812 285.996094 303.007812 285.996094 301.730469 C 285.996094 300.460938 286.332031 299.460938 287.027344 298.722656 C 287.722656 297.996094 288.664062 297.628906 289.855469 297.628906 C 290.332031 297.628906 290.777344 297.695312 291.1875 297.8125 C 291.601562 297.945312 292 298.128906 292.371094 298.378906 Z M 292.371094 298.378906 "/>
<path style=" stroke:none;fill-rule:nonzero;fill:rgb(0%,0%,0%);fill-opacity:1;" d="M 293.875 303.335938 L 293.875 299.742188 L 294.851562 299.742188 L 294.851562 303.300781 C 294.851562 303.867188 294.960938 304.277344 295.175781 304.558594 C 295.394531 304.839844 295.71875 304.984375 296.164062 304.984375 C 296.683594 304.984375 297.105469 304.820312 297.410156 304.484375 C 297.710938 304.148438 297.863281 303.691406 297.863281 303.105469 L 297.863281 299.742188 L 298.839844 299.742188 L 298.839844 305.675781 L 297.863281 305.675781 L 297.863281 304.765625 C 297.625 305.132812 297.34375 305.394531 297.039062 305.566406 C 296.726562 305.730469 296.367188 305.816406 295.957031 305.816406 C 295.273438 305.816406 294.753906 305.613281 294.40625 305.1875 C 294.050781 304.777344 293.875 304.160156 293.875 303.335938 Z M 296.324219 299.601562 Z M 296.324219 299.601562 "/>
<path style=" stroke:none;fill-rule:nonzero;fill:rgb(0%,0%,0%);fill-opacity:1;" d="M 304.277344 300.65625 C 304.171875 300.589844 304.050781 300.546875 303.921875 300.515625 C 303.789062 300.492188 303.648438 300.472656 303.5 300.472656 C 302.945312 300.472656 302.523438 300.65625 302.230469 301.011719 C 301.925781 301.371094 301.785156 301.878906 301.785156 302.554688 L 301.785156 305.675781 L 300.8125 305.675781 L 300.8125 299.742188 L 301.785156 299.742188 L 301.785156 300.664062 C 301.980469 300.308594 302.253906 300.035156 302.578125 299.863281 C 302.902344 299.691406 303.304688 299.601562 303.78125 299.601562 C 303.84375 299.601562 303.921875 299.613281 304.007812 299.613281 C 304.082031 299.625 304.171875 299.636719 304.277344 299.65625 Z M 304.277344 300.65625 "/>
<path style=" stroke:none;fill-rule:nonzero;fill:rgb(0%,0%,0%);fill-opacity:1;" d="M 308.546875 300.65625 C 308.4375 300.589844 308.316406 300.546875 308.1875 300.515625 C 308.058594 300.492188 307.917969 300.472656 307.765625 300.472656 C 307.210938 300.472656 306.789062 300.65625 306.496094 301.011719 C 306.195312 301.371094 306.054688 301.878906 306.054688 302.554688 L 306.054688 305.675781 L 305.078125 305.675781 L 305.078125 299.742188 L 306.054688 299.742188 L 306.054688 300.664062 C 306.25 300.308594 306.519531 300.035156 306.84375 299.863281 C 307.167969 299.691406 307.570312 299.601562 308.046875 299.601562 C 308.113281 299.601562 308.1875 299.613281 308.273438 299.613281 C 308.351562 299.625 308.4375 299.636719 308.546875 299.65625 Z M 308.546875 300.65625 "/>
<path style=" stroke:none;fill-rule:nonzero;fill:rgb(0%,0%,0%);fill-opacity:1;" d="M 314.398438 302.464844 L 314.398438 302.945312 L 309.925781 302.945312 C 309.96875 303.617188 310.164062 304.136719 310.53125 304.484375 C 310.886719 304.832031 311.386719 305.003906 312.035156 305.003906 C 312.40625 305.003906 312.773438 304.960938 313.121094 304.875 C 313.46875 304.789062 313.824219 304.644531 314.171875 304.453125 L 314.171875 305.375 C 313.824219 305.523438 313.46875 305.644531 313.097656 305.710938 C 312.730469 305.773438 312.351562 305.816406 311.984375 305.816406 C 311.027344 305.816406 310.28125 305.546875 309.730469 305.003906 C 309.175781 304.460938 308.90625 303.714844 308.90625 302.769531 C 308.90625 301.804688 309.164062 301.035156 309.6875 300.460938 C 310.207031 299.894531 310.921875 299.601562 311.808594 299.601562 C 312.609375 299.601562 313.238281 299.863281 313.707031 300.375 C 314.160156 300.894531 314.398438 301.585938 314.398438 302.464844 Z M 313.425781 302.183594 C 313.414062 301.652344 313.261719 301.230469 312.980469 300.90625 C 312.6875 300.589844 312.296875 300.425781 311.820312 300.425781 C 311.277344 300.425781 310.84375 300.589844 310.519531 300.894531 C 310.195312 301.199219 310 301.632812 309.957031 302.183594 Z M 313.425781 302.183594 "/>
<path style=" stroke:none;fill-rule:nonzero;fill:rgb(0%,0%,0%);fill-opacity:1;" d="M 320.921875 302.097656 L 320.921875 305.675781 L 319.949219 305.675781 L 319.949219 302.128906 C 319.949219 301.566406 319.828125 301.152344 319.613281 300.871094 C 319.394531 300.589844 319.070312 300.449219 318.636719 300.449219 C 318.105469 300.449219 317.695312 300.621094 317.390625 300.957031 C 317.085938 301.296875 316.933594 301.75 316.933594 302.324219 L 316.933594 305.675781 L 315.960938 305.675781 L 315.960938 299.742188 L 316.933594 299.742188 L 316.933594 300.664062 C 317.164062 300.320312 317.433594 300.046875 317.757812 299.875 C 318.074219 299.699219 318.441406 299.601562 318.851562 299.601562 C 319.523438 299.601562 320.042969 299.820312 320.390625 300.242188 C 320.738281 300.664062 320.921875 301.285156 320.921875 302.097656 Z M 320.921875 302.097656 "/>
<path style=" stroke:none;fill-rule:nonzero;fill:rgb(0%,0%,0%);fill-opacity:1;" d="M 323.828125 298.0625 L 323.828125 299.742188 L 325.832031 299.742188 L 325.832031 300.503906 L 323.828125 300.503906 L 323.828125 303.722656 C 323.828125 304.210938 323.890625 304.527344 324.023438 304.65625 C 324.152344 304.796875 324.421875 304.863281 324.835938 304.863281 L 325.832031 304.863281 L 325.832031 305.675781 L 324.835938 305.675781 C 324.074219 305.675781 323.554688 305.535156 323.273438 305.253906 C 322.992188 304.972656 322.851562 304.460938 322.851562 303.722656 L 322.851562 300.503906 L 322.136719 300.503906 L 322.136719 299.742188 L 322.851562 299.742188 L 322.851562 298.0625 Z M 323.828125 298.0625 "/>
<path style=" stroke:none;fill-rule:nonzero;fill:rgb(0%,0%,0%);fill-opacity:1;" d="M 334.335938 299.917969 L 334.335938 300.839844 C 334.054688 300.710938 333.773438 300.601562 333.480469 300.523438 C 333.179688 300.460938 332.875 300.417969 332.558594 300.417969 C 332.074219 300.417969 331.703125 300.492188 331.464844 300.644531 C 331.226562 300.796875 331.109375 301.011719 331.109375 301.304688 C 331.109375 301.535156 331.195312 301.707031 331.367188 301.835938 C 331.542969 301.96875 331.886719 302.097656 332.410156 302.207031 L 332.746094 302.28125 C 333.4375 302.433594 333.925781 302.652344 334.21875 302.910156 C 334.5 303.183594 334.652344 303.5625 334.652344 304.039062 C 334.652344 304.59375 334.433594 305.027344 334 305.339844 C 333.566406 305.664062 332.960938 305.816406 332.203125 305.816406 C 331.878906 305.816406 331.550781 305.785156 331.207031 305.730469 C 330.859375 305.675781 330.5 305.589844 330.121094 305.460938 L 330.121094 304.453125 C 330.480469 304.644531 330.835938 304.789062 331.183594 304.875 C 331.53125 304.972656 331.878906 305.015625 332.222656 305.015625 C 332.679688 305.015625 333.039062 304.9375 333.285156 304.789062 C 333.523438 304.636719 333.65625 304.40625 333.65625 304.113281 C 333.65625 303.855469 333.558594 303.648438 333.382812 303.507812 C 333.210938 303.367188 332.820312 303.226562 332.214844 303.09375 L 331.878906 303.019531 C 331.269531 302.890625 330.828125 302.695312 330.566406 302.433594 C 330.296875 302.171875 330.164062 301.816406 330.164062 301.347656 C 330.164062 300.796875 330.359375 300.363281 330.75 300.058594 C 331.140625 299.753906 331.703125 299.601562 332.441406 299.601562 C 332.800781 299.601562 333.136719 299.636719 333.460938 299.691406 C 333.773438 299.742188 334.066406 299.820312 334.335938 299.917969 Z M 334.335938 299.917969 "/>
<path style=" stroke:none;fill-rule:nonzero;fill:rgb(0%,0%,0%);fill-opacity:1;" d="M 337.144531 304.789062 L 337.144531 307.921875 L 336.167969 307.921875 L 336.167969 299.742188 L 337.144531 299.742188 L 337.144531 300.644531 C 337.339844 300.296875 337.597656 300.035156 337.914062 299.863281 C 338.226562 299.691406 338.605469 299.601562 339.039062 299.601562 C 339.753906 299.601562 340.339844 299.894531 340.796875 300.460938 C 341.238281 301.035156 341.46875 301.78125 341.46875 302.714844 C 341.46875 303.648438 341.238281 304.40625 340.796875 304.972656 C 340.339844 305.535156 339.753906 305.816406 339.039062 305.816406 C 338.605469 305.816406 338.226562 305.730469 337.914062 305.566406 C 337.597656 305.40625 337.339844 305.144531 337.144531 304.789062 Z M 340.460938 302.714844 C 340.460938 302 340.308594 301.445312 340.015625 301.035156 C 339.710938 300.621094 339.3125 300.417969 338.800781 300.417969 C 338.28125 300.417969 337.882812 300.621094 337.589844 301.035156 C 337.285156 301.445312 337.144531 302 337.144531 302.714844 C 337.144531 303.433594 337.285156 303.996094 337.589844 304.40625 C 337.882812 304.820312 338.28125 305.015625 338.800781 305.015625 C 339.3125 305.015625 339.710938 304.820312 340.015625 304.40625 C 340.308594 303.996094 340.460938 303.433594 340.460938 302.714844 Z M 340.460938 302.714844 "/>
<path style=" stroke:none;fill-rule:nonzero;fill:rgb(0%,0%,0%);fill-opacity:1;" d="M 348.152344 302.464844 L 348.152344 302.945312 L 343.679688 302.945312 C 343.722656 303.617188 343.917969 304.136719 344.285156 304.484375 C 344.644531 304.832031 345.140625 305.003906 345.792969 305.003906 C 346.160156 305.003906 346.527344 304.960938 346.875 304.875 C 347.222656 304.789062 347.578125 304.644531 347.925781 304.453125 L 347.925781 305.375 C 347.578125 305.523438 347.222656 305.644531 346.851562 305.710938 C 346.484375 305.773438 346.105469 305.816406 345.738281 305.816406 C 344.785156 305.816406 344.035156 305.546875 343.484375 305.003906 C 342.929688 304.460938 342.660156 303.714844 342.660156 302.769531 C 342.660156 301.804688 342.917969 301.035156 343.441406 300.460938 C 343.960938 299.894531 344.675781 299.601562 345.5625 299.601562 C 346.367188 299.601562 346.992188 299.863281 347.460938 300.375 C 347.914062 300.894531 348.152344 301.585938 348.152344 302.464844 Z M 347.179688 302.183594 C 347.167969 301.652344 347.015625 301.230469 346.734375 300.90625 C 346.441406 300.589844 346.050781 300.425781 345.574219 300.425781 C 345.03125 300.425781 344.597656 300.589844 344.273438 300.894531 C 343.949219 301.199219 343.753906 301.632812 343.710938 302.183594 Z M 347.179688 302.183594 "/>
<path style=" stroke:none;fill-rule:nonzero;fill:rgb(0%,0%,0%);fill-opacity:1;" d="M 354.816406 302.464844 L 354.816406 302.945312 L 350.34375 302.945312 C 350.386719 303.617188 350.582031 304.136719 350.949219 304.484375 C 351.308594 304.832031 351.804688 305.003906 352.457031 305.003906 C 352.824219 305.003906 353.191406 304.960938 353.539062 304.875 C 353.886719 304.789062 354.242188 304.644531 354.589844 304.453125 L 354.589844 305.375 C 354.242188 305.523438 353.886719 305.644531 353.515625 305.710938 C 353.148438 305.773438 352.769531 305.816406 352.402344 305.816406 C 351.449219 305.816406 350.699219 305.546875 350.148438 305.003906 C 349.59375 304.460938 349.324219 303.714844 349.324219 302.769531 C 349.324219 301.804688 349.582031 301.035156 350.105469 300.460938 C 350.625 299.894531 351.339844 299.601562 352.226562 299.601562 C 353.03125 299.601562 353.660156 299.863281 354.125 300.375 C 354.578125 300.894531 354.816406 301.585938 354.816406 302.464844 Z M 353.84375 302.183594 C 353.832031 301.652344 353.679688 301.230469 353.398438 300.90625 C 353.105469 300.589844 352.714844 300.425781 352.238281 300.425781 C 351.695312 300.425781 351.261719 300.589844 350.9375 300.894531 C 350.613281 301.199219 350.417969 301.632812 350.375 302.183594 Z M 353.84375 302.183594 "/>
<path style=" stroke:none;fill-rule:nonzero;fill:rgb(0%,0%,0%);fill-opacity:1;" d="M 360.3125 300.644531 L 360.3125 297.433594 L 361.285156 297.433594 L 361.285156 305.675781 L 360.3125 305.675781 L 360.3125 304.789062 C 360.105469 305.144531 359.84375 305.40625 359.53125 305.566406 C 359.21875 305.730469 358.847656 305.816406 358.414062 305.816406 C 357.699219 305.816406 357.113281 305.535156 356.660156 304.972656 C 356.203125 304.40625 355.988281 303.648438 355.988281 302.714844 C 355.988281 301.78125 356.203125 301.035156 356.660156 300.460938 C 357.113281 299.894531 357.699219 299.601562 358.414062 299.601562 C 358.847656 299.601562 359.21875 299.691406 359.53125 299.863281 C 359.84375 300.035156 360.105469 300.296875 360.3125 300.644531 Z M 356.996094 302.714844 C 356.996094 303.433594 357.136719 303.996094 357.429688 304.40625 C 357.722656 304.820312 358.121094 305.015625 358.644531 305.015625 C 359.164062 305.015625 359.5625 304.820312 359.867188 304.40625 C 360.160156 303.996094 360.3125 303.433594 360.3125 302.714844 C 360.3125 302 360.160156 301.445312 359.867188 301.035156 C 359.5625 300.621094 359.164062 300.417969 358.644531 300.417969 C 358.121094 300.417969 357.722656 300.621094 357.429688 301.035156 C 357.136719 301.445312 356.996094 302 356.996094 302.714844 Z M 356.996094 302.714844 "/>
<path style=" stroke:none;fill-rule:nonzero;fill:rgb(0%,0%,0%);fill-opacity:1;" d="M 369.078125 297.445312 C 368.601562 298.269531 368.253906 299.070312 368.027344 299.863281 C 367.789062 300.65625 367.679688 301.457031 367.679688 302.269531 C 367.679688 303.09375 367.789062 303.898438 368.027344 304.691406 C 368.253906 305.492188 368.601562 306.285156 369.078125 307.097656 L 368.234375 307.097656 C 367.703125 306.261719 367.300781 305.460938 367.039062 304.65625 C 366.78125 303.855469 366.652344 303.0625 366.652344 302.269531 C 366.652344 301.492188 366.78125 300.699219 367.039062 299.894531 C 367.300781 299.09375 367.691406 298.28125 368.234375 297.445312 Z M 369.078125 297.445312 "/>
<path style=" stroke:none;fill-rule:nonzero;fill:rgb(0%,0%,0%);fill-opacity:1;" d="M 374.214844 298.496094 C 373.433594 298.496094 372.816406 298.789062 372.359375 299.363281 C 371.90625 299.949219 371.679688 300.730469 371.679688 301.730469 C 371.679688 302.726562 371.90625 303.519531 372.359375 304.09375 C 372.816406 304.679688 373.433594 304.960938 374.214844 304.960938 C 374.984375 304.960938 375.601562 304.679688 376.054688 304.09375 C 376.511719 303.519531 376.738281 302.726562 376.738281 301.730469 C 376.738281 300.730469 376.511719 299.949219 376.054688 299.363281 C 375.601562 298.789062 374.984375 298.496094 374.214844 298.496094 Z M 374.214844 297.628906 C 375.320312 297.628906 376.195312 298.007812 376.867188 298.746094 C 377.53125 299.484375 377.867188 300.480469 377.867188 301.730469 C 377.867188 302.988281 377.53125 303.972656 376.867188 304.710938 C 376.195312 305.449219 375.320312 305.816406 374.214844 305.816406 C 373.097656 305.816406 372.210938 305.449219 371.546875 304.710938 C 370.875 303.972656 370.550781 302.988281 370.550781 301.730469 C 370.550781 300.480469 370.875 299.484375 371.546875 298.746094 C 372.210938 298.007812 373.097656 297.628906 374.214844 297.628906 Z M 374.214844 297.628906 "/>
<path style=" stroke:none;fill-rule:nonzero;fill:rgb(0%,0%,0%);fill-opacity:1;" d="M 384.269531 298.03125 L 384.269531 299.070312 C 383.859375 298.875 383.480469 298.734375 383.121094 298.636719 C 382.753906 298.550781 382.40625 298.496094 382.082031 298.496094 C 381.496094 298.496094 381.039062 298.617188 380.726562 298.832031 C 380.414062 299.0625 380.261719 299.386719 380.261719 299.796875 C 380.261719 300.144531 380.359375 300.417969 380.574219 300.589844 C 380.78125 300.773438 381.183594 300.914062 381.765625 301.023438 L 382.417969 301.152344 C 383.207031 301.304688 383.792969 301.578125 384.171875 301.957031 C 384.550781 302.347656 384.746094 302.855469 384.746094 303.496094 C 384.746094 304.265625 384.488281 304.839844 383.976562 305.230469 C 383.457031 305.621094 382.710938 305.816406 381.722656 305.816406 C 381.34375 305.816406 380.945312 305.773438 380.519531 305.699219 C 380.097656 305.621094 379.664062 305.503906 379.21875 305.328125 L 379.21875 304.222656 C 379.652344 304.472656 380.078125 304.65625 380.488281 304.777344 C 380.898438 304.90625 381.3125 304.960938 381.722656 304.960938 C 382.332031 304.960938 382.796875 304.839844 383.132812 304.601562 C 383.457031 304.363281 383.628906 304.027344 383.628906 303.574219 C 383.628906 303.183594 383.511719 302.878906 383.273438 302.660156 C 383.035156 302.445312 382.644531 302.28125 382.101562 302.171875 L 381.453125 302.042969 C 380.652344 301.890625 380.078125 301.640625 379.71875 301.296875 C 379.363281 300.957031 379.1875 300.492188 379.1875 299.886719 C 379.1875 299.191406 379.425781 298.636719 379.925781 298.238281 C 380.414062 297.835938 381.09375 297.628906 381.960938 297.628906 C 382.332031 297.628906 382.699219 297.660156 383.089844 297.726562 C 383.46875 297.792969 383.859375 297.898438 384.269531 298.03125 Z M 384.269531 298.03125 "/>
<path style=" stroke:none;fill-rule:nonzero;fill:rgb(0%,0%,0%);fill-opacity:1;" d="M 386.21875 297.445312 L 387.066406 297.445312 C 387.585938 298.28125 387.988281 299.09375 388.246094 299.894531 C 388.507812 300.699219 388.648438 301.492188 388.648438 302.269531 C 388.648438 303.0625 388.507812 303.855469 388.246094 304.65625 C 387.988281 305.460938 387.585938 306.261719 387.066406 307.097656 L 386.21875 307.097656 C 386.6875 306.285156 387.035156 305.492188 387.273438 304.691406 C 387.5 303.898438 387.617188 303.09375 387.617188 302.269531 C 387.617188 301.457031 387.5 300.65625 387.273438 299.863281 C 387.035156 299.070312 386.6875 298.269531 386.21875 297.445312 Z M 386.21875 297.445312 "/>
<path style="fill:none;stroke-width:2.5;stroke-linecap:butt;stroke-linejoin:round;stroke:rgb(100%,0%,0%);stroke-opacity:1;stroke-dasharray:9.25,4;stroke-miterlimit:4;" d="M 235.372515 293.005117 L 255.372311 293.005117 " transform="matrix(1.083605,0,0,1.084599,0,0)"/>
<path style=" stroke:none;fill-rule:nonzero;fill:rgb(0%,0%,0%);fill-opacity:1;" d="M 287.527344 314.5625 L 287.527344 320.710938 L 288.816406 320.710938 C 289.898438 320.710938 290.699219 320.472656 291.210938 319.972656 C 291.707031 319.476562 291.96875 318.695312 291.96875 317.632812 C 291.96875 316.566406 291.707031 315.796875 291.210938 315.300781 C 290.699219 314.8125 289.898438 314.5625 288.816406 314.5625 Z M 286.453125 313.683594 L 288.652344 313.683594 C 290.179688 313.683594 291.308594 314.007812 292.023438 314.636719 C 292.738281 315.277344 293.09375 316.277344 293.09375 317.632812 C 293.09375 318.996094 292.726562 319.996094 292.011719 320.636719 C 291.296875 321.277344 290.167969 321.589844 288.652344 321.589844 L 286.453125 321.589844 Z M 286.453125 313.683594 "/>
<path style=" stroke:none;fill-rule:nonzero;fill:rgb(0%,0%,0%);fill-opacity:1;" d="M 299.824219 318.378906 L 299.824219 318.855469 L 295.347656 318.855469 C 295.394531 319.527344 295.585938 320.050781 295.957031 320.398438 C 296.3125 320.742188 296.8125 320.917969 297.460938 320.917969 C 297.832031 320.917969 298.199219 320.875 298.546875 320.789062 C 298.894531 320.699219 299.25 320.558594 299.597656 320.363281 L 299.597656 321.285156 C 299.25 321.4375 298.894531 321.558594 298.523438 321.621094 C 298.15625 321.6875 297.777344 321.730469 297.410156 321.730469 C 296.453125 321.730469 295.707031 321.460938 295.15625 320.917969 C 294.601562 320.375 294.332031 319.625 294.332031 318.683594 C 294.332031 317.71875 294.589844 316.949219 295.109375 316.375 C 295.632812 315.808594 296.347656 315.515625 297.234375 315.515625 C 298.035156 315.515625 298.664062 315.777344 299.132812 316.285156 C 299.585938 316.808594 299.824219 317.5 299.824219 318.378906 Z M 298.847656 318.097656 C 298.839844 317.566406 298.6875 317.144531 298.40625 316.816406 C 298.113281 316.503906 297.722656 316.339844 297.246094 316.339844 C 296.703125 316.339844 296.269531 316.503906 295.945312 316.808594 C 295.621094 317.109375 295.425781 317.542969 295.382812 318.097656 Z M 298.847656 318.097656 "/>
<path style=" stroke:none;fill-rule:nonzero;fill:rgb(0%,0%,0%);fill-opacity:1;" d="M 305.199219 315.832031 L 305.199219 316.753906 C 304.917969 316.621094 304.636719 316.515625 304.34375 316.4375 C 304.039062 316.375 303.738281 316.328125 303.421875 316.328125 C 302.933594 316.328125 302.566406 316.40625 302.328125 316.558594 C 302.089844 316.710938 301.96875 316.925781 301.96875 317.21875 C 301.96875 317.445312 302.058594 317.621094 302.230469 317.75 C 302.402344 317.878906 302.75 318.011719 303.269531 318.121094 L 303.605469 318.195312 C 304.300781 318.347656 304.789062 318.5625 305.082031 318.824219 C 305.363281 319.09375 305.515625 319.476562 305.515625 319.953125 C 305.515625 320.503906 305.296875 320.9375 304.863281 321.253906 C 304.429688 321.578125 303.824219 321.730469 303.066406 321.730469 C 302.738281 321.730469 302.414062 321.699219 302.066406 321.644531 C 301.722656 321.589844 301.363281 321.503906 300.984375 321.375 L 300.984375 320.363281 C 301.34375 320.558594 301.699219 320.699219 302.046875 320.789062 C 302.394531 320.886719 302.738281 320.929688 303.085938 320.929688 C 303.542969 320.929688 303.898438 320.851562 304.148438 320.699219 C 304.386719 320.546875 304.515625 320.320312 304.515625 320.027344 C 304.515625 319.769531 304.417969 319.5625 304.246094 319.421875 C 304.074219 319.28125 303.683594 319.140625 303.074219 319.007812 L 302.738281 318.933594 C 302.132812 318.800781 301.6875 318.605469 301.429688 318.347656 C 301.15625 318.085938 301.027344 317.730469 301.027344 317.261719 C 301.027344 316.710938 301.222656 316.277344 301.613281 315.972656 C 302.003906 315.667969 302.566406 315.515625 303.304688 315.515625 C 303.660156 315.515625 303.996094 315.546875 304.320312 315.601562 C 304.636719 315.65625 304.929688 315.734375 305.199219 315.832031 Z M 305.199219 315.832031 "/>
<path style=" stroke:none;fill-rule:nonzero;fill:rgb(0%,0%,0%);fill-opacity:1;" d="M 307.0625 315.65625 L 308.039062 315.65625 L 308.039062 321.589844 L 307.0625 321.589844 Z M 307.0625 313.347656 L 308.039062 313.347656 L 308.039062 314.582031 L 307.0625 314.582031 Z M 307.0625 313.347656 "/>
<path style=" stroke:none;fill-rule:nonzero;fill:rgb(0%,0%,0%);fill-opacity:1;" d="M 313.511719 316.566406 C 313.402344 316.503906 313.28125 316.460938 313.152344 316.425781 C 313.023438 316.40625 312.882812 316.382812 312.730469 316.382812 C 312.179688 316.382812 311.753906 316.566406 311.460938 316.925781 C 311.160156 317.285156 311.019531 317.792969 311.019531 318.464844 L 311.019531 321.589844 L 310.042969 321.589844 L 310.042969 315.65625 L 311.019531 315.65625 L 311.019531 316.578125 C 311.214844 316.222656 311.484375 315.949219 311.808594 315.777344 C 312.132812 315.601562 312.535156 315.515625 313.011719 315.515625 C 313.078125 315.515625 313.152344 315.527344 313.238281 315.527344 C 313.316406 315.539062 313.402344 315.546875 313.511719 315.570312 Z M 313.511719 316.566406 "/>
<path style=" stroke:none;fill-rule:nonzero;fill:rgb(0%,0%,0%);fill-opacity:1;" d="M 319.363281 318.378906 L 319.363281 318.855469 L 314.890625 318.855469 C 314.933594 319.527344 315.128906 320.050781 315.496094 320.398438 C 315.851562 320.742188 316.351562 320.917969 317.003906 320.917969 C 317.371094 320.917969 317.738281 320.875 318.085938 320.789062 C 318.433594 320.699219 318.789062 320.558594 319.136719 320.363281 L 319.136719 321.285156 C 318.789062 321.4375 318.433594 321.558594 318.0625 321.621094 C 317.695312 321.6875 317.316406 321.730469 316.949219 321.730469 C 315.996094 321.730469 315.246094 321.460938 314.695312 320.917969 C 314.140625 320.375 313.871094 319.625 313.871094 318.683594 C 313.871094 317.71875 314.128906 316.949219 314.652344 316.375 C 315.171875 315.808594 315.886719 315.515625 316.773438 315.515625 C 317.578125 315.515625 318.203125 315.777344 318.671875 316.285156 C 319.125 316.808594 319.363281 317.5 319.363281 318.378906 Z M 318.390625 318.097656 C 318.378906 317.566406 318.226562 317.144531 317.945312 316.816406 C 317.652344 316.503906 317.261719 316.339844 316.785156 316.339844 C 316.242188 316.339844 315.808594 316.503906 315.484375 316.808594 C 315.160156 317.109375 314.964844 317.542969 314.921875 318.097656 Z M 318.390625 318.097656 "/>
<path style=" stroke:none;fill-rule:nonzero;fill:rgb(0%,0%,0%);fill-opacity:1;" d="M 324.855469 316.558594 L 324.855469 313.347656 L 325.832031 313.347656 L 325.832031 321.589844 L 324.855469 321.589844 L 324.855469 320.699219 C 324.652344 321.058594 324.390625 321.320312 324.078125 321.480469 C 323.761719 321.644531 323.394531 321.730469 322.960938 321.730469 C 322.246094 321.730469 321.660156 321.449219 321.207031 320.886719 C 320.75 320.320312 320.535156 319.5625 320.535156 318.628906 C 320.535156 317.695312 320.75 316.949219 321.207031 316.375 C 321.660156 315.808594 322.246094 315.515625 322.960938 315.515625 C 323.394531 315.515625 323.761719 315.601562 324.078125 315.777344 C 324.390625 315.949219 324.652344 316.210938 324.855469 316.558594 Z M 321.542969 318.628906 C 321.542969 319.34375 321.683594 319.910156 321.976562 320.320312 C 322.265625 320.734375 322.667969 320.929688 323.1875 320.929688 C 323.707031 320.929688 324.109375 320.734375 324.414062 320.320312 C 324.707031 319.910156 324.855469 319.34375 324.855469 318.628906 C 324.855469 317.914062 324.707031 317.359375 324.414062 316.949219 C 324.109375 316.535156 323.707031 316.328125 323.1875 316.328125 C 322.667969 316.328125 322.265625 316.535156 321.976562 316.949219 C 321.683594 317.359375 321.542969 317.914062 321.542969 318.628906 Z M 321.542969 318.628906 "/>
<path style=" stroke:none;fill-rule:nonzero;fill:rgb(0%,0%,0%);fill-opacity:1;" d="M 335.066406 315.832031 L 335.066406 316.753906 C 334.785156 316.621094 334.503906 316.515625 334.210938 316.4375 C 333.90625 316.375 333.601562 316.328125 333.289062 316.328125 C 332.800781 316.328125 332.433594 316.40625 332.195312 316.558594 C 331.957031 316.710938 331.835938 316.925781 331.835938 317.21875 C 331.835938 317.445312 331.921875 317.621094 332.097656 317.75 C 332.269531 317.878906 332.617188 318.011719 333.136719 318.121094 L 333.472656 318.195312 C 334.167969 318.347656 334.652344 318.5625 334.945312 318.824219 C 335.226562 319.09375 335.378906 319.476562 335.378906 319.953125 C 335.378906 320.503906 335.164062 320.9375 334.730469 321.253906 C 334.296875 321.578125 333.691406 321.730469 332.929688 321.730469 C 332.605469 321.730469 332.28125 321.699219 331.933594 321.644531 C 331.585938 321.589844 331.230469 321.503906 330.851562 321.375 L 330.851562 320.363281 C 331.207031 320.558594 331.566406 320.699219 331.914062 320.789062 C 332.257812 320.886719 332.605469 320.929688 332.953125 320.929688 C 333.40625 320.929688 333.765625 320.851562 334.015625 320.699219 C 334.253906 320.546875 334.382812 320.320312 334.382812 320.027344 C 334.382812 319.769531 334.285156 319.5625 334.113281 319.421875 C 333.9375 319.28125 333.546875 319.140625 332.941406 319.007812 L 332.605469 318.933594 C 332 318.800781 331.554688 318.605469 331.292969 318.347656 C 331.023438 318.085938 330.894531 317.730469 330.894531 317.261719 C 330.894531 316.710938 331.089844 316.277344 331.480469 315.972656 C 331.867188 315.667969 332.433594 315.515625 333.167969 315.515625 C 333.527344 315.515625 333.863281 315.546875 334.1875 315.601562 C 334.503906 315.65625 334.792969 315.734375 335.066406 315.832031 Z M 335.066406 315.832031 "/>
<path style=" stroke:none;fill-rule:nonzero;fill:rgb(0%,0%,0%);fill-opacity:1;" d="M 337.871094 320.699219 L 337.871094 323.835938 L 336.898438 323.835938 L 336.898438 315.65625 L 337.871094 315.65625 L 337.871094 316.558594 C 338.066406 316.210938 338.328125 315.949219 338.640625 315.777344 C 338.957031 315.601562 339.335938 315.515625 339.769531 315.515625 C 340.484375 315.515625 341.070312 315.808594 341.523438 316.375 C 341.96875 316.949219 342.195312 317.695312 342.195312 318.628906 C 342.195312 319.5625 341.96875 320.320312 341.523438 320.886719 C 341.070312 321.449219 340.484375 321.730469 339.769531 321.730469 C 339.335938 321.730469 338.957031 321.644531 338.640625 321.480469 C 338.328125 321.320312 338.066406 321.058594 337.871094 320.699219 Z M 341.1875 318.628906 C 341.1875 317.914062 341.035156 317.359375 340.742188 316.949219 C 340.441406 316.535156 340.039062 316.328125 339.53125 316.328125 C 339.011719 316.328125 338.609375 316.535156 338.316406 316.949219 C 338.011719 317.359375 337.871094 317.914062 337.871094 318.628906 C 337.871094 319.34375 338.011719 319.910156 338.316406 320.320312 C 338.609375 320.734375 339.011719 320.929688 339.53125 320.929688 C 340.039062 320.929688 340.441406 320.734375 340.742188 320.320312 C 341.035156 319.910156 341.1875 319.34375 341.1875 318.628906 Z M 341.1875 318.628906 "/>
<path style=" stroke:none;fill-rule:nonzero;fill:rgb(0%,0%,0%);fill-opacity:1;" d="M 348.882812 318.378906 L 348.882812 318.855469 L 344.40625 318.855469 C 344.449219 319.527344 344.644531 320.050781 345.011719 320.398438 C 345.371094 320.742188 345.871094 320.917969 346.519531 320.917969 C 346.886719 320.917969 347.257812 320.875 347.601562 320.789062 C 347.949219 320.699219 348.308594 320.558594 348.652344 320.363281 L 348.652344 321.285156 C 348.308594 321.4375 347.949219 321.558594 347.582031 321.621094 C 347.214844 321.6875 346.832031 321.730469 346.464844 321.730469 C 345.511719 321.730469 344.765625 321.460938 344.210938 320.917969 C 343.660156 320.375 343.386719 319.625 343.386719 318.683594 C 343.386719 317.71875 343.648438 316.949219 344.167969 316.375 C 344.6875 315.808594 345.402344 315.515625 346.292969 315.515625 C 347.09375 315.515625 347.722656 315.777344 348.1875 316.285156 C 348.644531 316.808594 348.882812 317.5 348.882812 318.378906 Z M 347.90625 318.097656 C 347.894531 317.566406 347.742188 317.144531 347.460938 316.816406 C 347.167969 316.503906 346.78125 316.339844 346.304688 316.339844 C 345.761719 316.339844 345.328125 316.503906 345.003906 316.808594 C 344.675781 317.109375 344.480469 317.542969 344.4375 318.097656 Z M 347.90625 318.097656 "/>
<path style=" stroke:none;fill-rule:nonzero;fill:rgb(0%,0%,0%);fill-opacity:1;" d="M 355.542969 318.378906 L 355.542969 318.855469 L 351.070312 318.855469 C 351.113281 319.527344 351.308594 320.050781 351.675781 320.398438 C 352.035156 320.742188 352.53125 320.917969 353.183594 320.917969 C 353.550781 320.917969 353.917969 320.875 354.265625 320.789062 C 354.613281 320.699219 354.96875 320.558594 355.316406 320.363281 L 355.316406 321.285156 C 354.96875 321.4375 354.613281 321.558594 354.246094 321.621094 C 353.875 321.6875 353.496094 321.730469 353.128906 321.730469 C 352.175781 321.730469 351.425781 321.460938 350.875 320.917969 C 350.320312 320.375 350.050781 319.625 350.050781 318.683594 C 350.050781 317.71875 350.3125 316.949219 350.832031 316.375 C 351.351562 315.808594 352.066406 315.515625 352.953125 315.515625 C 353.757812 315.515625 354.386719 315.777344 354.851562 316.285156 C 355.304688 316.808594 355.542969 317.5 355.542969 318.378906 Z M 354.570312 318.097656 C 354.558594 317.566406 354.40625 317.144531 354.125 316.816406 C 353.832031 316.503906 353.441406 316.339844 352.964844 316.339844 C 352.425781 316.339844 351.992188 316.503906 351.664062 316.808594 C 351.339844 317.109375 351.144531 317.542969 351.101562 318.097656 Z M 354.570312 318.097656 "/>
<path style=" stroke:none;fill-rule:nonzero;fill:rgb(0%,0%,0%);fill-opacity:1;" d="M 361.039062 316.558594 L 361.039062 313.347656 L 362.015625 313.347656 L 362.015625 321.589844 L 361.039062 321.589844 L 361.039062 320.699219 C 360.832031 321.058594 360.574219 321.320312 360.257812 321.480469 C 359.945312 321.644531 359.574219 321.730469 359.140625 321.730469 C 358.425781 321.730469 357.84375 321.449219 357.386719 320.886719 C 356.933594 320.320312 356.714844 319.5625 356.714844 318.628906 C 356.714844 317.695312 356.933594 316.949219 357.386719 316.375 C 357.84375 315.808594 358.425781 315.515625 359.140625 315.515625 C 359.574219 315.515625 359.945312 315.601562 360.257812 315.777344 C 360.574219 315.949219 360.832031 316.210938 361.039062 316.558594 Z M 357.722656 318.628906 C 357.722656 319.34375 357.863281 319.910156 358.15625 320.320312 C 358.449219 320.734375 358.851562 320.929688 359.371094 320.929688 C 359.890625 320.929688 360.289062 320.734375 360.59375 320.320312 C 360.886719 319.910156 361.039062 319.34375 361.039062 318.628906 C 361.039062 317.914062 360.886719 317.359375 360.59375 316.949219 C 360.289062 316.535156 359.890625 316.328125 359.371094 316.328125 C 358.851562 316.328125 358.449219 316.535156 358.15625 316.949219 C 357.863281 317.359375 357.722656 317.914062 357.722656 318.628906 Z M 357.722656 318.628906 "/>
<path style=" stroke:none;fill-rule:nonzero;fill:rgb(0%,0%,0%);fill-opacity:1;" d="M 369.804688 313.359375 C 369.328125 314.183594 368.984375 314.984375 368.753906 315.777344 C 368.515625 316.566406 368.410156 317.371094 368.410156 318.183594 C 368.410156 319.007812 368.515625 319.8125 368.753906 320.601562 C 368.984375 321.40625 369.328125 322.199219 369.804688 323.011719 L 368.960938 323.011719 C 368.429688 322.175781 368.027344 321.375 367.769531 320.570312 C 367.507812 319.769531 367.378906 318.976562 367.378906 318.183594 C 367.378906 317.402344 367.507812 316.613281 367.769531 315.808594 C 368.027344 315.007812 368.417969 314.191406 368.960938 313.359375 Z M 369.804688 313.359375 "/>
<path style=" stroke:none;fill-rule:nonzero;fill:rgb(0%,0%,0%);fill-opacity:1;" d="M 374.941406 314.410156 C 374.164062 314.410156 373.542969 314.703125 373.089844 315.277344 C 372.632812 315.863281 372.40625 316.644531 372.40625 317.640625 C 372.40625 318.640625 372.632812 319.433594 373.089844 320.007812 C 373.542969 320.59375 374.164062 320.875 374.941406 320.875 C 375.710938 320.875 376.328125 320.59375 376.785156 320.007812 C 377.238281 319.433594 377.46875 318.640625 377.46875 317.640625 C 377.46875 316.644531 377.238281 315.863281 376.785156 315.277344 C 376.328125 314.703125 375.710938 314.410156 374.941406 314.410156 Z M 374.941406 313.542969 C 376.046875 313.542969 376.925781 313.921875 377.597656 314.660156 C 378.257812 315.398438 378.59375 316.394531 378.59375 317.640625 C 378.59375 318.898438 378.257812 319.886719 377.597656 320.625 C 376.925781 321.363281 376.046875 321.730469 374.941406 321.730469 C 373.828125 321.730469 372.9375 321.363281 372.277344 320.625 C 371.605469 319.886719 371.28125 318.898438 371.28125 317.640625 C 371.28125 316.394531 371.605469 315.398438 372.277344 314.660156 C 372.9375 313.921875 373.828125 313.542969 374.941406 313.542969 Z M 374.941406 313.542969 "/>
<path style=" stroke:none;fill-rule:nonzero;fill:rgb(0%,0%,0%);fill-opacity:1;" d="M 385 313.945312 L 385 314.984375 C 384.585938 314.789062 384.207031 314.648438 383.851562 314.550781 C 383.480469 314.464844 383.132812 314.410156 382.808594 314.410156 C 382.222656 314.410156 381.769531 314.527344 381.453125 314.746094 C 381.140625 314.972656 380.988281 315.300781 380.988281 315.710938 C 380.988281 316.058594 381.085938 316.328125 381.304688 316.503906 C 381.507812 316.6875 381.910156 316.828125 382.496094 316.9375 L 383.144531 317.066406 C 383.9375 317.21875 384.523438 317.492188 384.902344 317.871094 C 385.28125 318.261719 385.476562 318.769531 385.476562 319.410156 C 385.476562 320.179688 385.214844 320.753906 384.707031 321.144531 C 384.1875 321.535156 383.4375 321.730469 382.453125 321.730469 C 382.074219 321.730469 381.671875 321.6875 381.25 321.613281 C 380.828125 321.535156 380.394531 321.417969 379.949219 321.242188 L 379.949219 320.136719 C 380.382812 320.386719 380.804688 320.570312 381.214844 320.691406 C 381.628906 320.820312 382.039062 320.875 382.453125 320.875 C 383.058594 320.875 383.523438 320.753906 383.859375 320.515625 C 384.1875 320.277344 384.359375 319.941406 384.359375 319.484375 C 384.359375 319.09375 384.238281 318.792969 384 318.574219 C 383.761719 318.359375 383.371094 318.195312 382.832031 318.085938 L 382.179688 317.957031 C 381.378906 317.804688 380.804688 317.554688 380.445312 317.207031 C 380.089844 316.871094 379.917969 316.40625 379.917969 315.796875 C 379.917969 315.105469 380.15625 314.550781 380.652344 314.148438 C 381.140625 313.75 381.824219 313.542969 382.691406 313.542969 C 383.058594 313.542969 383.425781 313.574219 383.816406 313.640625 C 384.195312 313.703125 384.585938 313.8125 385 313.945312 Z M 385 313.945312 "/>
<path style=" stroke:none;fill-rule:nonzero;fill:rgb(0%,0%,0%);fill-opacity:1;" d="M 386.949219 313.359375 L 387.792969 313.359375 C 388.3125 314.191406 388.714844 315.007812 388.976562 315.808594 C 389.234375 316.613281 389.375 317.402344 389.375 318.183594 C 389.375 318.976562 389.234375 319.769531 388.976562 320.570312 C 388.714844 321.375 388.3125 322.175781 387.792969 323.011719 L 386.949219 323.011719 C 387.414062 322.199219 387.761719 321.40625 388 320.601562 C 388.226562 319.8125 388.347656 319.007812 388.347656 318.183594 C 388.347656 317.371094 388.226562 316.566406 388 315.777344 C 387.761719 314.984375 387.414062 314.183594 386.949219 313.359375 Z M 386.949219 313.359375 "/>
</g>
</svg>
