<?xml version="1.0" encoding="UTF-8"?>
<svg xmlns="http://www.w3.org/2000/svg" xmlns:xlink="http://www.w3.org/1999/xlink" width="400px" height="px" viewBox="0 0 400 393" version="1.1">
<g id="surface1">
<rect x="0" y="0" width="400" height="393" style="fill:rgb(100%,100%,100%);fill-opacity:1;stroke:none;"/>
<path style=" stroke:none;fill-rule:nonzero;fill:rgb(100%,100%,100%);fill-opacity:1;" d="M 48.390625 352.246094 L 398.539062 352.246094 L 398.539062 1.769531 L 48.390625 1.769531 Z M 48.390625 352.246094 "/>
<path style="fill:none;stroke-width:0.8;stroke-linecap:butt;stroke-linejoin:round;stroke:rgb(0%,0%,0%);stroke-opacity:1;stroke-miterlimit:4;" d="M 39.920781 267.456067 L 39.920781 270.955908 " transform="matrix(1.315789,0,0,1.317024,0,0.000000000000029946)"/>
<path style=" stroke:none;fill-rule:nonzero;fill:rgb(0%,0%,0%);fill-opacity:1;" d="M 52.527344 362.722656 C 51.855469 362.722656 51.355469 363.050781 51.011719 363.710938 C 50.671875 364.367188 50.511719 365.355469 50.511719 366.671875 C 50.511719 367.988281 50.671875 368.976562 51.011719 369.636719 C 51.355469 370.292969 51.855469 370.625 52.527344 370.625 C 53.199219 370.625 53.699219 370.292969 54.039062 369.636719 C 54.367188 368.976562 54.539062 367.988281 54.539062 366.671875 C 54.539062 365.355469 54.367188 364.367188 54.039062 363.710938 C 53.699219 363.050781 53.199219 362.722656 52.527344 362.722656 Z M 52.527344 361.695312 C 53.59375 361.695312 54.40625 362.128906 54.988281 362.972656 C 55.550781 363.828125 55.84375 365.066406 55.84375 366.671875 C 55.84375 368.292969 55.550781 369.53125 54.988281 370.375 C 54.40625 371.214844 53.59375 371.636719 52.511719 371.636719 C 51.433594 371.636719 50.617188 371.214844 50.050781 370.375 C 49.488281 369.53125 49.210938 368.292969 49.210938 366.671875 C 49.210938 365.066406 49.488281 363.828125 50.050781 362.972656 C 50.617188 362.128906 51.449219 361.695312 52.527344 361.695312 Z M 52.527344 361.695312 "/>
<path style="fill:none;stroke-width:0.8;stroke-linecap:butt;stroke-linejoin:round;stroke:rgb(0%,0%,0%);stroke-opacity:1;stroke-miterlimit:4;" d="M 97.140469 267.456067 L 97.140469 270.955908 " transform="matrix(1.315789,0,0,1.317024,0,0.000000000000029946)"/>
<path style=" stroke:none;fill-rule:nonzero;fill:rgb(0%,0%,0%);fill-opacity:1;" d="M 121.078125 370.375 L 123.199219 370.375 L 123.199219 363.050781 L 120.894531 363.511719 L 120.894531 362.328125 L 123.183594 361.867188 L 124.488281 361.867188 L 124.488281 370.375 L 126.605469 370.375 L 126.605469 371.464844 L 121.078125 371.464844 Z M 121.078125 370.375 "/>
<path style=" stroke:none;fill-rule:nonzero;fill:rgb(0%,0%,0%);fill-opacity:1;" d="M 132 362.722656 C 131.328125 362.722656 130.828125 363.050781 130.488281 363.710938 C 130.144531 364.367188 129.988281 365.355469 129.988281 366.671875 C 129.988281 367.988281 130.144531 368.976562 130.488281 369.636719 C 130.828125 370.292969 131.328125 370.625 132 370.625 C 132.671875 370.625 133.171875 370.292969 133.511719 369.636719 C 133.84375 368.976562 134.011719 367.988281 134.011719 366.671875 C 134.011719 365.355469 133.84375 364.367188 133.511719 363.710938 C 133.171875 363.050781 132.671875 362.722656 132 362.722656 Z M 132 361.695312 C 133.066406 361.695312 133.882812 362.128906 134.460938 362.972656 C 135.027344 363.828125 135.316406 365.066406 135.316406 366.671875 C 135.316406 368.292969 135.027344 369.53125 134.460938 370.375 C 133.882812 371.214844 133.066406 371.636719 131.988281 371.636719 C 130.90625 371.636719 130.09375 371.214844 129.527344 370.375 C 128.960938 369.53125 128.683594 368.292969 128.683594 366.671875 C 128.683594 365.066406 128.960938 363.828125 129.527344 362.972656 C 130.09375 362.128906 130.921875 361.695312 132 361.695312 Z M 132 361.695312 "/>
<path style="fill:none;stroke-width:0.8;stroke-linecap:butt;stroke-linejoin:round;stroke:rgb(0%,0%,0%);stroke-opacity:1;stroke-miterlimit:4;" d="M 154.360156 267.456067 L 154.360156 270.955908 " transform="matrix(1.315789,0,0,1.317024,0,0.000000000000029946)"/>
<path style=" stroke:none;fill-rule:nonzero;fill:rgb(0%,0%,0%);fill-opacity:1;" d="M 197.261719 370.375 L 201.789062 370.375 L 201.789062 371.464844 L 195.699219 371.464844 L 195.699219 370.375 C 196.183594 369.875 196.855469 369.1875 197.710938 368.320312 C 198.550781 367.464844 199.09375 366.910156 199.316406 366.660156 C 199.738281 366.199219 200.027344 365.804688 200.183594 365.472656 C 200.34375 365.15625 200.433594 364.828125 200.433594 364.511719 C 200.433594 364.011719 200.25 363.589844 199.894531 363.273438 C 199.539062 362.957031 199.078125 362.789062 198.5 362.789062 C 198.09375 362.789062 197.65625 362.867188 197.210938 363 C 196.761719 363.144531 196.277344 363.355469 195.761719 363.644531 L 195.761719 362.328125 C 196.289062 362.117188 196.777344 361.957031 197.222656 361.851562 C 197.671875 361.746094 198.09375 361.695312 198.472656 361.695312 C 199.460938 361.695312 200.25 361.945312 200.84375 362.445312 C 201.433594 362.945312 201.738281 363.605469 201.738281 364.433594 C 201.738281 364.828125 201.65625 365.210938 201.511719 365.554688 C 201.367188 365.910156 201.105469 366.332031 200.710938 366.804688 C 200.605469 366.9375 200.261719 367.292969 199.683594 367.882812 C 199.105469 368.476562 198.300781 369.308594 197.261719 370.375 Z M 197.261719 370.375 "/>
<path style=" stroke:none;fill-rule:nonzero;fill:rgb(0%,0%,0%);fill-opacity:1;" d="M 207.289062 362.722656 C 206.617188 362.722656 206.117188 363.050781 205.777344 363.710938 C 205.433594 364.367188 205.277344 365.355469 205.277344 366.671875 C 205.277344 367.988281 205.433594 368.976562 205.777344 369.636719 C 206.117188 370.292969 206.617188 370.625 207.289062 370.625 C 207.960938 370.625 208.460938 370.292969 208.800781 369.636719 C 209.132812 368.976562 209.300781 367.988281 209.300781 366.671875 C 209.300781 365.355469 209.132812 364.367188 208.800781 363.710938 C 208.460938 363.050781 207.960938 362.722656 207.289062 362.722656 Z M 207.289062 361.695312 C 208.355469 361.695312 209.171875 362.128906 209.75 362.972656 C 210.316406 363.828125 210.605469 365.066406 210.605469 366.671875 C 210.605469 368.292969 210.316406 369.53125 209.75 370.375 C 209.171875 371.214844 208.355469 371.636719 207.277344 371.636719 C 206.199219 371.636719 205.382812 371.214844 204.816406 370.375 C 204.25 369.53125 203.972656 368.292969 203.972656 366.671875 C 203.972656 365.066406 204.25 363.828125 204.816406 362.972656 C 205.382812 362.128906 206.210938 361.695312 207.289062 361.695312 Z M 207.289062 361.695312 "/>
<path style="fill:none;stroke-width:0.8;stroke-linecap:butt;stroke-linejoin:round;stroke:rgb(0%,0%,0%);stroke-opacity:1;stroke-miterlimit:4;" d="M 211.579844 267.456067 L 211.579844 270.955908 " transform="matrix(1.315789,0,0,1.317024,0,0.000000000000029946)"/>
<path style=" stroke:none;fill-rule:nonzero;fill:rgb(0%,0%,0%);fill-opacity:1;" d="M 275.367188 366.289062 C 275.988281 366.421875 276.472656 366.699219 276.816406 367.121094 C 277.15625 367.542969 277.34375 368.070312 277.34375 368.675781 C 277.34375 369.621094 277.011719 370.359375 276.367188 370.875 C 275.710938 371.386719 274.789062 371.636719 273.59375 371.636719 C 273.183594 371.636719 272.761719 371.597656 272.34375 371.519531 C 271.921875 371.453125 271.472656 371.335938 271.027344 371.175781 L 271.027344 369.925781 C 271.382812 370.136719 271.777344 370.292969 272.210938 370.398438 C 272.632812 370.503906 273.078125 370.558594 273.550781 370.558594 C 274.367188 370.558594 274.988281 370.398438 275.40625 370.082031 C 275.828125 369.769531 276.050781 369.292969 276.050781 368.675781 C 276.050781 368.121094 275.855469 367.671875 275.460938 367.359375 C 275.066406 367.042969 274.511719 366.871094 273.800781 366.871094 L 272.683594 366.871094 L 272.683594 365.804688 L 273.855469 365.804688 C 274.488281 365.804688 274.972656 365.683594 275.316406 365.421875 C 275.65625 365.171875 275.828125 364.800781 275.828125 364.316406 C 275.828125 363.828125 275.644531 363.445312 275.300781 363.183594 C 274.949219 362.917969 274.449219 362.789062 273.800781 362.789062 C 273.449219 362.789062 273.066406 362.828125 272.65625 362.90625 C 272.25 362.984375 271.800781 363.105469 271.316406 363.261719 L 271.316406 362.101562 C 271.800781 361.972656 272.261719 361.867188 272.699219 361.800781 C 273.117188 361.734375 273.527344 361.695312 273.921875 361.695312 C 274.894531 361.695312 275.671875 361.917969 276.25 362.367188 C 276.828125 362.8125 277.117188 363.417969 277.117188 364.183594 C 277.117188 364.710938 276.960938 365.15625 276.65625 365.527344 C 276.355469 365.894531 275.921875 366.160156 275.367188 366.289062 Z M 275.367188 366.289062 "/>
<path style=" stroke:none;fill-rule:nonzero;fill:rgb(0%,0%,0%);fill-opacity:1;" d="M 282.578125 362.722656 C 281.90625 362.722656 281.40625 363.050781 281.066406 363.710938 C 280.722656 364.367188 280.566406 365.355469 280.566406 366.671875 C 280.566406 367.988281 280.722656 368.976562 281.066406 369.636719 C 281.40625 370.292969 281.90625 370.625 282.578125 370.625 C 283.25 370.625 283.75 370.292969 284.09375 369.636719 C 284.421875 368.976562 284.59375 367.988281 284.59375 366.671875 C 284.59375 365.355469 284.421875 364.367188 284.09375 363.710938 C 283.75 363.050781 283.25 362.722656 282.578125 362.722656 Z M 282.578125 361.695312 C 283.644531 361.695312 284.460938 362.128906 285.039062 362.972656 C 285.605469 363.828125 285.894531 365.066406 285.894531 366.671875 C 285.894531 368.292969 285.605469 369.53125 285.039062 370.375 C 284.460938 371.214844 283.644531 371.636719 282.566406 371.636719 C 281.488281 371.636719 280.671875 371.214844 280.105469 370.375 C 279.539062 369.53125 279.261719 368.292969 279.261719 366.671875 C 279.261719 365.066406 279.539062 363.828125 280.105469 362.972656 C 280.671875 362.128906 281.5 361.695312 282.578125 361.695312 Z M 282.578125 361.695312 "/>
<path style="fill:none;stroke-width:0.8;stroke-linecap:butt;stroke-linejoin:round;stroke:rgb(0%,0%,0%);stroke-opacity:1;stroke-miterlimit:4;" d="M 268.799531 267.456067 L 268.799531 270.955908 " transform="matrix(1.315789,0,0,1.317024,0,0.000000000000029946)"/>
<path style=" stroke:none;fill-rule:nonzero;fill:rgb(0%,0%,0%);fill-opacity:1;" d="M 350.289062 363 L 347.011719 368.121094 L 350.289062 368.121094 Z M 349.949219 361.867188 L 351.578125 361.867188 L 351.578125 368.121094 L 352.949219 368.121094 L 352.949219 369.203125 L 351.578125 369.203125 L 351.578125 371.464844 L 350.289062 371.464844 L 350.289062 369.203125 L 345.960938 369.203125 L 345.960938 367.949219 Z M 349.949219 361.867188 "/>
<path style=" stroke:none;fill-rule:nonzero;fill:rgb(0%,0%,0%);fill-opacity:1;" d="M 357.867188 362.722656 C 357.199219 362.722656 356.699219 363.050781 356.355469 363.710938 C 356.011719 364.367188 355.855469 365.355469 355.855469 366.671875 C 355.855469 367.988281 356.011719 368.976562 356.355469 369.636719 C 356.699219 370.292969 357.199219 370.625 357.867188 370.625 C 358.539062 370.625 359.039062 370.292969 359.382812 369.636719 C 359.710938 368.976562 359.882812 367.988281 359.882812 366.671875 C 359.882812 365.355469 359.710938 364.367188 359.382812 363.710938 C 359.039062 363.050781 358.539062 362.722656 357.867188 362.722656 Z M 357.867188 361.695312 C 358.933594 361.695312 359.75 362.128906 360.328125 362.972656 C 360.894531 363.828125 361.183594 365.066406 361.183594 366.671875 C 361.183594 368.292969 360.894531 369.53125 360.328125 370.375 C 359.75 371.214844 358.933594 371.636719 357.855469 371.636719 C 356.777344 371.636719 355.960938 371.214844 355.394531 370.375 C 354.828125 369.53125 354.550781 368.292969 354.550781 366.671875 C 354.550781 365.066406 354.828125 363.828125 355.394531 362.972656 C 355.960938 362.128906 356.789062 361.695312 357.867188 361.695312 Z M 357.867188 361.695312 "/>
<path style=" stroke:none;fill-rule:nonzero;fill:rgb(0%,0%,0%);fill-opacity:1;" d="M 196.621094 379.871094 L 204.726562 379.871094 L 204.726562 380.964844 L 201.316406 380.964844 L 201.316406 389.472656 L 200.015625 389.472656 L 200.015625 380.964844 L 196.621094 380.964844 Z M 196.621094 379.871094 "/>
<path style=" stroke:none;fill-rule:nonzero;fill:rgb(0%,0%,0%);fill-opacity:1;" d="M 205.53125 382.269531 L 206.714844 382.269531 L 206.714844 389.472656 L 205.53125 389.472656 Z M 205.53125 379.464844 L 206.714844 379.464844 L 206.714844 380.964844 L 205.53125 380.964844 Z M 205.53125 379.464844 "/>
<path style=" stroke:none;fill-rule:nonzero;fill:rgb(0%,0%,0%);fill-opacity:1;" d="M 214.792969 383.652344 C 215.085938 383.125 215.441406 382.742188 215.847656 382.480469 C 216.253906 382.230469 216.742188 382.097656 217.308594 382.097656 C 218.042969 382.097656 218.625 382.359375 219.03125 382.886719 C 219.441406 383.414062 219.648438 384.164062 219.648438 385.125 L 219.648438 389.472656 L 218.464844 389.472656 L 218.464844 385.167969 C 218.464844 384.480469 218.335938 383.96875 218.097656 383.625 C 217.847656 383.296875 217.480469 383.125 216.980469 383.125 C 216.359375 383.125 215.875 383.335938 215.519531 383.742188 C 215.164062 384.152344 214.992188 384.707031 214.992188 385.402344 L 214.992188 389.472656 L 213.808594 389.472656 L 213.808594 385.167969 C 213.808594 384.480469 213.675781 383.96875 213.441406 383.625 C 213.191406 383.296875 212.808594 383.125 212.308594 383.125 C 211.703125 383.125 211.214844 383.335938 210.859375 383.742188 C 210.503906 384.152344 210.335938 384.707031 210.335938 385.402344 L 210.335938 389.472656 L 209.148438 389.472656 L 209.148438 382.269531 L 210.335938 382.269531 L 210.335938 383.386719 C 210.597656 382.953125 210.925781 382.625 211.308594 382.414062 C 211.675781 382.203125 212.125 382.097656 212.648438 382.097656 C 213.175781 382.097656 213.609375 382.230469 213.980469 382.492188 C 214.347656 382.757812 214.609375 383.152344 214.792969 383.652344 Z M 214.792969 383.652344 "/>
<path style=" stroke:none;fill-rule:nonzero;fill:rgb(0%,0%,0%);fill-opacity:1;" d="M 228.164062 385.574219 L 228.164062 386.152344 L 222.730469 386.152344 C 222.78125 386.96875 223.019531 387.601562 223.464844 388.023438 C 223.898438 388.445312 224.503906 388.65625 225.292969 388.65625 C 225.742188 388.65625 226.191406 388.605469 226.609375 388.5 C 227.03125 388.394531 227.464844 388.222656 227.886719 387.984375 L 227.886719 389.105469 C 227.464844 389.289062 227.03125 389.433594 226.585938 389.511719 C 226.136719 389.589844 225.675781 389.644531 225.230469 389.644531 C 224.070312 389.644531 223.164062 389.316406 222.492188 388.65625 C 221.820312 387.996094 221.492188 387.089844 221.492188 385.945312 C 221.492188 384.769531 221.808594 383.835938 222.441406 383.136719 C 223.070312 382.453125 223.941406 382.097656 225.019531 382.097656 C 225.992188 382.097656 226.753906 382.414062 227.320312 383.03125 C 227.875 383.664062 228.164062 384.507812 228.164062 385.574219 Z M 226.980469 385.230469 C 226.964844 384.585938 226.78125 384.074219 226.441406 383.679688 C 226.085938 383.296875 225.609375 383.097656 225.03125 383.097656 C 224.375 383.097656 223.847656 383.296875 223.453125 383.664062 C 223.058594 384.035156 222.820312 384.558594 222.769531 385.230469 Z M 226.980469 385.230469 "/>
<path style=" stroke:none;fill-rule:nonzero;fill:rgb(0%,0%,0%);fill-opacity:1;" d="M 234.175781 379.464844 L 236.898438 379.464844 L 236.898438 380.386719 L 235.359375 380.386719 L 235.359375 390.277344 L 236.898438 390.277344 L 236.898438 391.199219 L 234.175781 391.199219 Z M 234.175781 379.464844 "/>
<path style=" stroke:none;fill-rule:nonzero;fill:rgb(0%,0%,0%);fill-opacity:1;" d="M 244.003906 382.480469 L 244.003906 383.597656 C 243.664062 383.441406 243.320312 383.308594 242.964844 383.21875 C 242.597656 383.136719 242.230469 383.085938 241.847656 383.085938 C 241.253906 383.085938 240.808594 383.175781 240.519531 383.363281 C 240.230469 383.546875 240.085938 383.808594 240.085938 384.164062 C 240.085938 384.441406 240.191406 384.652344 240.398438 384.8125 C 240.609375 384.96875 241.03125 385.125 241.664062 385.257812 L 242.070312 385.351562 C 242.914062 385.535156 243.503906 385.796875 243.859375 386.113281 C 244.203125 386.445312 244.386719 386.90625 244.386719 387.484375 C 244.386719 388.15625 244.125 388.683594 243.597656 389.066406 C 243.070312 389.460938 242.335938 389.644531 241.414062 389.644531 C 241.019531 389.644531 240.625 389.605469 240.203125 389.539062 C 239.78125 389.472656 239.347656 389.367188 238.886719 389.210938 L 238.886719 387.984375 C 239.320312 388.222656 239.753906 388.394531 240.175781 388.5 C 240.597656 388.617188 241.019531 388.667969 241.441406 388.667969 C 241.992188 388.667969 242.425781 388.578125 242.730469 388.394531 C 243.019531 388.207031 243.175781 387.933594 243.175781 387.578125 C 243.175781 387.261719 243.058594 387.011719 242.847656 386.839844 C 242.636719 386.667969 242.164062 386.496094 241.425781 386.339844 L 241.019531 386.246094 C 240.28125 386.089844 239.742188 385.851562 239.425781 385.535156 C 239.097656 385.21875 238.941406 384.785156 238.941406 384.21875 C 238.941406 383.546875 239.175781 383.019531 239.648438 382.652344 C 240.125 382.28125 240.808594 382.097656 241.703125 382.097656 C 242.136719 382.097656 242.542969 382.136719 242.941406 382.203125 C 243.320312 382.269531 243.675781 382.359375 244.003906 382.480469 Z M 244.003906 382.480469 "/>
<path style=" stroke:none;fill-rule:nonzero;fill:rgb(0%,0%,0%);fill-opacity:1;" d="M 249.03125 379.464844 L 249.03125 391.199219 L 246.308594 391.199219 L 246.308594 390.277344 L 247.847656 390.277344 L 247.847656 380.386719 L 246.308594 380.386719 L 246.308594 379.464844 Z M 249.03125 379.464844 "/>
<path style="fill:none;stroke-width:0.8;stroke-linecap:butt;stroke-linejoin:round;stroke:rgb(0%,0%,0%);stroke-opacity:1;stroke-miterlimit:4;" d="M 36.776875 241.302171 L 33.276719 241.302171 " transform="matrix(1.315789,0,0,1.317024,0,0.000000000000029946)"/>
<path style=" stroke:none;fill-rule:nonzero;fill:rgb(0%,0%,0%);fill-opacity:1;" d="M 22.4375 314.054688 C 21.765625 314.054688 21.265625 314.382812 20.921875 315.042969 C 20.582031 315.703125 20.421875 316.6875 20.421875 318.007812 C 20.421875 319.324219 20.582031 320.3125 20.921875 320.96875 C 21.265625 321.628906 21.765625 321.957031 22.4375 321.957031 C 23.109375 321.957031 23.609375 321.628906 23.949219 320.96875 C 24.277344 320.3125 24.449219 319.324219 24.449219 318.007812 C 24.449219 316.6875 24.277344 315.703125 23.949219 315.042969 C 23.609375 314.382812 23.109375 314.054688 22.4375 314.054688 Z M 22.4375 313.027344 C 23.503906 313.027344 24.320312 313.460938 24.898438 314.304688 C 25.464844 315.160156 25.753906 316.398438 25.753906 318.007812 C 25.753906 319.625 25.464844 320.863281 24.898438 321.707031 C 24.320312 322.550781 23.503906 322.972656 22.421875 322.972656 C 21.34375 322.972656 20.527344 322.550781 19.964844 321.707031 C 19.398438 320.863281 19.121094 319.625 19.121094 318.007812 C 19.121094 316.398438 19.398438 315.160156 19.964844 314.304688 C 20.527344 313.460938 21.359375 313.027344 22.4375 313.027344 Z M 22.4375 313.027344 "/>
<path style=" stroke:none;fill-rule:nonzero;fill:rgb(0%,0%,0%);fill-opacity:1;" d="M 28.027344 321.167969 L 29.382812 321.167969 L 29.382812 322.800781 L 28.027344 322.800781 Z M 28.027344 321.167969 "/>
<path style=" stroke:none;fill-rule:nonzero;fill:rgb(0%,0%,0%);fill-opacity:1;" d="M 32.226562 313.199219 L 37.320312 313.199219 L 37.320312 314.292969 L 33.410156 314.292969 L 33.410156 316.648438 C 33.59375 316.582031 33.792969 316.53125 33.976562 316.503906 C 34.160156 316.476562 34.359375 316.453125 34.542969 316.453125 C 35.609375 316.453125 36.449219 316.753906 37.082031 317.335938 C 37.714844 317.925781 38.027344 318.71875 38.027344 319.71875 C 38.027344 320.757812 37.699219 321.5625 37.054688 322.128906 C 36.410156 322.695312 35.503906 322.972656 34.34375 322.972656 C 33.9375 322.972656 33.527344 322.933594 33.109375 322.878906 C 32.6875 322.8125 32.265625 322.722656 31.820312 322.574219 L 31.820312 321.273438 C 32.199219 321.484375 32.59375 321.640625 33.015625 321.746094 C 33.421875 321.851562 33.859375 321.890625 34.320312 321.890625 C 35.054688 321.890625 35.648438 321.707031 36.082031 321.3125 C 36.503906 320.917969 36.726562 320.390625 36.726562 319.71875 C 36.726562 319.058594 36.503906 318.53125 36.082031 318.136719 C 35.648438 317.742188 35.054688 317.546875 34.320312 317.546875 C 33.976562 317.546875 33.621094 317.585938 33.277344 317.664062 C 32.9375 317.742188 32.582031 317.859375 32.226562 318.019531 Z M 32.226562 313.199219 "/>
<path style="fill:none;stroke-width:0.8;stroke-linecap:butt;stroke-linejoin:round;stroke:rgb(0%,0%,0%);stroke-opacity:1;stroke-miterlimit:4;" d="M 36.776875 184.334844 L 33.276719 184.334844 " transform="matrix(1.315789,0,0,1.317024,0,0.000000000000029946)"/>
<path style=" stroke:none;fill-rule:nonzero;fill:rgb(0%,0%,0%);fill-opacity:1;" d="M 19.882812 246.683594 L 22.003906 246.683594 L 22.003906 239.359375 L 19.699219 239.820312 L 19.699219 238.636719 L 21.988281 238.175781 L 23.292969 238.175781 L 23.292969 246.683594 L 25.410156 246.683594 L 25.410156 247.777344 L 19.882812 247.777344 Z M 19.882812 246.683594 "/>
<path style=" stroke:none;fill-rule:nonzero;fill:rgb(0%,0%,0%);fill-opacity:1;" d="M 28.027344 246.144531 L 29.382812 246.144531 L 29.382812 247.777344 L 28.027344 247.777344 Z M 28.027344 246.144531 "/>
<path style=" stroke:none;fill-rule:nonzero;fill:rgb(0%,0%,0%);fill-opacity:1;" d="M 34.988281 239.03125 C 34.320312 239.03125 33.820312 239.359375 33.476562 240.019531 C 33.132812 240.675781 32.976562 241.664062 32.976562 242.980469 C 32.976562 244.296875 33.132812 245.285156 33.476562 245.945312 C 33.820312 246.605469 34.320312 246.933594 34.988281 246.933594 C 35.660156 246.933594 36.160156 246.605469 36.503906 245.945312 C 36.832031 245.285156 37.003906 244.296875 37.003906 242.980469 C 37.003906 241.664062 36.832031 240.675781 36.503906 240.019531 C 36.160156 239.359375 35.660156 239.03125 34.988281 239.03125 Z M 34.988281 238.003906 C 36.054688 238.003906 36.871094 238.4375 37.449219 239.28125 C 38.015625 240.136719 38.304688 241.375 38.304688 242.980469 C 38.304688 244.601562 38.015625 245.839844 37.449219 246.683594 C 36.871094 247.527344 36.054688 247.945312 34.976562 247.945312 C 33.898438 247.945312 33.082031 247.527344 32.515625 246.683594 C 31.949219 245.839844 31.671875 244.601562 31.671875 242.980469 C 31.671875 241.375 31.949219 240.136719 32.515625 239.28125 C 33.082031 238.4375 33.910156 238.003906 34.988281 238.003906 Z M 34.988281 238.003906 "/>
<path style="fill:none;stroke-width:0.8;stroke-linecap:butt;stroke-linejoin:round;stroke:rgb(0%,0%,0%);stroke-opacity:1;stroke-miterlimit:4;" d="M 36.776875 127.370483 L 33.276719 127.370483 " transform="matrix(1.315789,0,0,1.317024,0,0.000000000000029946)"/>
<path style=" stroke:none;fill-rule:nonzero;fill:rgb(0%,0%,0%);fill-opacity:1;" d="M 19.882812 171.660156 L 22.003906 171.660156 L 22.003906 164.335938 L 19.699219 164.796875 L 19.699219 163.609375 L 21.988281 163.148438 L 23.292969 163.148438 L 23.292969 171.660156 L 25.410156 171.660156 L 25.410156 172.75 L 19.882812 172.75 Z M 19.882812 171.660156 "/>
<path style=" stroke:none;fill-rule:nonzero;fill:rgb(0%,0%,0%);fill-opacity:1;" d="M 28.027344 171.117188 L 29.382812 171.117188 L 29.382812 172.75 L 28.027344 172.75 Z M 28.027344 171.117188 "/>
<path style=" stroke:none;fill-rule:nonzero;fill:rgb(0%,0%,0%);fill-opacity:1;" d="M 32.226562 163.148438 L 37.320312 163.148438 L 37.320312 164.242188 L 33.410156 164.242188 L 33.410156 166.601562 C 33.59375 166.535156 33.792969 166.480469 33.976562 166.457031 C 34.160156 166.429688 34.359375 166.402344 34.542969 166.402344 C 35.609375 166.402344 36.449219 166.707031 37.082031 167.285156 C 37.714844 167.878906 38.027344 168.667969 38.027344 169.667969 C 38.027344 170.710938 37.699219 171.511719 37.054688 172.078125 C 36.410156 172.644531 35.503906 172.921875 34.34375 172.921875 C 33.9375 172.921875 33.527344 172.882812 33.109375 172.832031 C 32.6875 172.765625 32.265625 172.671875 31.820312 172.527344 L 31.820312 171.222656 C 32.199219 171.433594 32.59375 171.59375 33.015625 171.699219 C 33.421875 171.804688 33.859375 171.84375 34.320312 171.84375 C 35.054688 171.84375 35.648438 171.660156 36.082031 171.261719 C 36.503906 170.867188 36.726562 170.339844 36.726562 169.667969 C 36.726562 169.011719 36.503906 168.484375 36.082031 168.089844 C 35.648438 167.695312 35.054688 167.496094 34.320312 167.496094 C 33.976562 167.496094 33.621094 167.535156 33.277344 167.613281 C 32.9375 167.695312 32.582031 167.8125 32.226562 167.96875 Z M 32.226562 163.148438 "/>
<path style="fill:none;stroke-width:0.8;stroke-linecap:butt;stroke-linejoin:round;stroke:rgb(0%,0%,0%);stroke-opacity:1;stroke-miterlimit:4;" d="M 36.776875 70.406123 L 33.276719 70.406123 " transform="matrix(1.315789,0,0,1.317024,0,0.000000000000029946)"/>
<path style=" stroke:none;fill-rule:nonzero;fill:rgb(0%,0%,0%);fill-opacity:1;" d="M 20.777344 96.632812 L 25.304688 96.632812 L 25.304688 97.726562 L 19.214844 97.726562 L 19.214844 96.632812 C 19.699219 96.132812 20.371094 95.449219 21.226562 94.578125 C 22.070312 93.722656 22.609375 93.167969 22.832031 92.917969 C 23.253906 92.457031 23.542969 92.0625 23.699219 91.734375 C 23.859375 91.417969 23.949219 91.089844 23.949219 90.773438 C 23.949219 90.269531 23.765625 89.851562 23.410156 89.535156 C 23.054688 89.21875 22.59375 89.046875 22.015625 89.046875 C 21.609375 89.046875 21.171875 89.125 20.726562 89.257812 C 20.277344 89.402344 19.792969 89.613281 19.277344 89.902344 L 19.277344 88.585938 C 19.804688 88.375 20.292969 88.21875 20.738281 88.113281 C 21.1875 88.007812 21.609375 87.953125 21.988281 87.953125 C 22.976562 87.953125 23.765625 88.203125 24.359375 88.703125 C 24.949219 89.203125 25.253906 89.863281 25.253906 90.691406 C 25.253906 91.089844 25.171875 91.46875 25.027344 91.8125 C 24.882812 92.167969 24.621094 92.589844 24.226562 93.0625 C 24.121094 93.195312 23.777344 93.550781 23.199219 94.144531 C 22.621094 94.734375 21.820312 95.566406 20.777344 96.632812 Z M 20.777344 96.632812 "/>
<path style=" stroke:none;fill-rule:nonzero;fill:rgb(0%,0%,0%);fill-opacity:1;" d="M 28.027344 96.09375 L 29.382812 96.09375 L 29.382812 97.726562 L 28.027344 97.726562 Z M 28.027344 96.09375 "/>
<path style=" stroke:none;fill-rule:nonzero;fill:rgb(0%,0%,0%);fill-opacity:1;" d="M 34.988281 88.980469 C 34.320312 88.980469 33.820312 89.308594 33.476562 89.96875 C 33.132812 90.628906 32.976562 91.613281 32.976562 92.933594 C 32.976562 94.25 33.132812 95.238281 33.476562 95.894531 C 33.820312 96.554688 34.320312 96.882812 34.988281 96.882812 C 35.660156 96.882812 36.160156 96.554688 36.503906 95.894531 C 36.832031 95.238281 37.003906 94.25 37.003906 92.933594 C 37.003906 91.613281 36.832031 90.628906 36.503906 89.96875 C 36.160156 89.308594 35.660156 88.980469 34.988281 88.980469 Z M 34.988281 87.953125 C 36.054688 87.953125 36.871094 88.386719 37.449219 89.230469 C 38.015625 90.085938 38.304688 91.324219 38.304688 92.933594 C 38.304688 94.550781 38.015625 95.789062 37.449219 96.632812 C 36.871094 97.476562 36.054688 97.898438 34.976562 97.898438 C 33.898438 97.898438 33.082031 97.476562 32.515625 96.632812 C 31.949219 95.789062 31.671875 94.550781 31.671875 92.933594 C 31.671875 91.324219 31.949219 90.085938 32.515625 89.230469 C 33.082031 88.386719 33.910156 87.953125 34.988281 87.953125 Z M 34.988281 87.953125 "/>
<path style="fill:none;stroke-width:0.8;stroke-linecap:butt;stroke-linejoin:round;stroke:rgb(0%,0%,0%);stroke-opacity:1;stroke-miterlimit:4;" d="M 36.776875 13.438796 L 33.276719 13.438796 " transform="matrix(1.315789,0,0,1.317024,0,0.000000000000029946)"/>
<path style=" stroke:none;fill-rule:nonzero;fill:rgb(0%,0%,0%);fill-opacity:1;" d="M 20.777344 21.609375 L 25.304688 21.609375 L 25.304688 22.703125 L 19.214844 22.703125 L 19.214844 21.609375 C 19.699219 21.109375 20.371094 20.421875 21.226562 19.554688 C 22.070312 18.699219 22.609375 18.144531 22.832031 17.894531 C 23.253906 17.433594 23.542969 17.039062 23.699219 16.710938 C 23.859375 16.394531 23.949219 16.0625 23.949219 15.746094 C 23.949219 15.246094 23.765625 14.824219 23.410156 14.507812 C 23.054688 14.195312 22.59375 14.023438 22.015625 14.023438 C 21.609375 14.023438 21.171875 14.101562 20.726562 14.234375 C 20.277344 14.378906 19.792969 14.589844 19.277344 14.878906 L 19.277344 13.5625 C 19.804688 13.351562 20.292969 13.191406 20.738281 13.085938 C 21.1875 12.980469 21.609375 12.929688 21.988281 12.929688 C 22.976562 12.929688 23.765625 13.179688 24.359375 13.679688 C 24.949219 14.179688 25.253906 14.839844 25.253906 15.667969 C 25.253906 16.0625 25.171875 16.445312 25.027344 16.789062 C 24.882812 17.144531 24.621094 17.566406 24.226562 18.039062 C 24.121094 18.171875 23.777344 18.527344 23.199219 19.121094 C 22.621094 19.710938 21.820312 20.542969 20.777344 21.609375 Z M 20.777344 21.609375 "/>
<path style=" stroke:none;fill-rule:nonzero;fill:rgb(0%,0%,0%);fill-opacity:1;" d="M 28.027344 21.070312 L 29.382812 21.070312 L 29.382812 22.703125 L 28.027344 22.703125 Z M 28.027344 21.070312 "/>
<path style=" stroke:none;fill-rule:nonzero;fill:rgb(0%,0%,0%);fill-opacity:1;" d="M 32.226562 13.101562 L 37.320312 13.101562 L 37.320312 14.195312 L 33.410156 14.195312 L 33.410156 16.550781 C 33.59375 16.484375 33.792969 16.433594 33.976562 16.40625 C 34.160156 16.378906 34.359375 16.351562 34.542969 16.351562 C 35.609375 16.351562 36.449219 16.65625 37.082031 17.234375 C 37.714844 17.828125 38.027344 18.617188 38.027344 19.621094 C 38.027344 20.660156 37.699219 21.464844 37.054688 22.03125 C 36.410156 22.597656 35.503906 22.871094 34.34375 22.871094 C 33.9375 22.871094 33.527344 22.832031 33.109375 22.78125 C 32.6875 22.714844 32.265625 22.621094 31.820312 22.476562 L 31.820312 21.171875 C 32.199219 21.382812 32.59375 21.542969 33.015625 21.648438 C 33.421875 21.753906 33.859375 21.792969 34.320312 21.792969 C 35.054688 21.792969 35.648438 21.609375 36.082031 21.214844 C 36.503906 20.816406 36.726562 20.292969 36.726562 19.621094 C 36.726562 18.960938 36.503906 18.433594 36.082031 18.039062 C 35.648438 17.644531 35.054688 17.445312 34.320312 17.445312 C 33.976562 17.445312 33.621094 17.484375 33.277344 17.566406 C 32.9375 17.644531 32.582031 17.761719 32.226562 17.921875 Z M 32.226562 13.101562 "/>
<path style=" stroke:none;fill-rule:nonzero;fill:rgb(0%,0%,0%);fill-opacity:1;" d="M 0.980469 209.925781 L 2.242188 209.925781 C 2.003906 210.425781 1.835938 210.886719 1.714844 211.320312 C 1.609375 211.769531 1.542969 212.191406 1.542969 212.585938 C 1.542969 213.296875 1.691406 213.851562 1.953125 214.230469 C 2.230469 214.613281 2.625 214.796875 3.125 214.796875 C 3.542969 214.796875 3.875 214.679688 4.085938 214.417969 C 4.308594 214.167969 4.480469 213.679688 4.609375 212.96875 L 4.769531 212.179688 C 4.953125 211.214844 5.28125 210.503906 5.742188 210.042969 C 6.214844 209.582031 6.835938 209.347656 7.609375 209.347656 C 8.542969 209.347656 9.242188 209.664062 9.714844 210.28125 C 10.191406 210.914062 10.425781 211.820312 10.425781 213.019531 C 10.425781 213.480469 10.375 213.96875 10.28125 214.484375 C 10.191406 214.996094 10.042969 215.523438 9.835938 216.0625 L 8.492188 216.0625 C 8.792969 215.535156 9.019531 215.023438 9.164062 214.523438 C 9.320312 214.023438 9.386719 213.519531 9.386719 213.019531 C 9.386719 212.285156 9.242188 211.71875 8.953125 211.308594 C 8.664062 210.914062 8.253906 210.703125 7.703125 210.703125 C 7.230469 210.703125 6.859375 210.847656 6.597656 211.136719 C 6.335938 211.425781 6.136719 211.902344 6.003906 212.558594 L 5.847656 213.351562 C 5.664062 214.324219 5.359375 215.023438 4.941406 215.457031 C 4.53125 215.890625 3.964844 216.101562 3.230469 216.101562 C 2.386719 216.101562 1.714844 215.8125 1.230469 215.207031 C 0.742188 214.613281 0.492188 213.785156 0.492188 212.730469 C 0.492188 212.285156 0.53125 211.835938 0.609375 211.359375 C 0.691406 210.898438 0.820312 210.425781 0.980469 209.925781 Z M 0.980469 209.925781 "/>
<path style=" stroke:none;fill-rule:nonzero;fill:rgb(0%,0%,0%);fill-opacity:1;" d="M 9.175781 206.226562 L 12.980469 206.226562 L 12.980469 207.410156 L 3.058594 207.410156 L 3.058594 206.226562 L 4.148438 206.226562 C 3.730469 205.988281 3.414062 205.671875 3.203125 205.289062 C 2.992188 204.90625 2.886719 204.445312 2.886719 203.921875 C 2.886719 203.050781 3.242188 202.339844 3.925781 201.785156 C 4.625 201.246094 5.53125 200.96875 6.664062 200.96875 C 7.792969 200.96875 8.714844 201.246094 9.398438 201.785156 C 10.085938 202.339844 10.425781 203.050781 10.425781 203.921875 C 10.425781 204.445312 10.320312 204.90625 10.125 205.289062 C 9.925781 205.671875 9.609375 205.988281 9.175781 206.226562 Z M 6.664062 202.195312 C 5.792969 202.195312 5.125 202.378906 4.625 202.734375 C 4.125 203.105469 3.875 203.589844 3.875 204.210938 C 3.875 204.84375 4.125 205.328125 4.625 205.683594 C 5.125 206.054688 5.792969 206.226562 6.664062 206.226562 C 7.53125 206.226562 8.214844 206.054688 8.714844 205.683594 C 9.214844 205.328125 9.453125 204.84375 9.453125 204.210938 C 9.453125 203.589844 9.214844 203.105469 8.714844 202.734375 C 8.214844 202.378906 7.53125 202.195312 6.664062 202.195312 Z M 6.664062 202.195312 "/>
<path style=" stroke:none;fill-rule:nonzero;fill:rgb(0%,0%,0%);fill-opacity:1;" d="M 6.359375 192.84375 L 6.941406 192.84375 L 6.941406 198.285156 C 7.753906 198.230469 8.386719 197.992188 8.808594 197.546875 C 9.230469 197.109375 9.441406 196.503906 9.441406 195.714844 C 9.441406 195.265625 9.386719 194.820312 9.28125 194.398438 C 9.175781 193.976562 9.003906 193.542969 8.769531 193.121094 L 9.886719 193.121094 C 10.070312 193.542969 10.214844 193.976562 10.292969 194.425781 C 10.375 194.871094 10.425781 195.332031 10.425781 195.78125 C 10.425781 196.941406 10.097656 197.847656 9.441406 198.519531 C 8.78125 199.191406 7.875 199.519531 6.730469 199.519531 C 5.558594 199.519531 4.625 199.207031 3.925781 198.574219 C 3.242188 197.941406 2.886719 197.070312 2.886719 195.992188 C 2.886719 195.015625 3.203125 194.253906 3.820312 193.6875 C 4.453125 193.132812 5.292969 192.84375 6.359375 192.84375 Z M 6.019531 194.027344 C 5.375 194.042969 4.859375 194.226562 4.464844 194.570312 C 4.085938 194.925781 3.886719 195.398438 3.886719 195.976562 C 3.886719 196.636719 4.085938 197.164062 4.453125 197.558594 C 4.820312 197.953125 5.347656 198.191406 6.019531 198.242188 Z M 6.019531 194.027344 "/>
<path style=" stroke:none;fill-rule:nonzero;fill:rgb(0%,0%,0%);fill-opacity:1;" d="M 6.359375 184.746094 L 6.941406 184.746094 L 6.941406 190.183594 C 7.753906 190.132812 8.386719 189.894531 8.808594 189.445312 C 9.230469 189.011719 9.441406 188.40625 9.441406 187.617188 C 9.441406 187.167969 9.386719 186.71875 9.28125 186.296875 C 9.175781 185.875 9.003906 185.441406 8.769531 185.019531 L 9.886719 185.019531 C 10.070312 185.441406 10.214844 185.875 10.292969 186.324219 C 10.375 186.773438 10.425781 187.234375 10.425781 187.679688 C 10.425781 188.839844 10.097656 189.75 9.441406 190.421875 C 8.78125 191.09375 7.875 191.421875 6.730469 191.421875 C 5.558594 191.421875 4.625 191.105469 3.925781 190.472656 C 3.242188 189.839844 2.886719 188.972656 2.886719 187.890625 C 2.886719 186.917969 3.203125 186.152344 3.820312 185.585938 C 4.453125 185.035156 5.292969 184.746094 6.359375 184.746094 Z M 6.019531 185.929688 C 5.375 185.941406 4.859375 186.128906 4.464844 186.46875 C 4.085938 186.824219 3.886719 187.300781 3.886719 187.878906 C 3.886719 188.539062 4.085938 189.0625 4.453125 189.460938 C 4.820312 189.855469 5.347656 190.089844 6.019531 190.144531 Z M 6.019531 185.929688 "/>
<path style=" stroke:none;fill-rule:nonzero;fill:rgb(0%,0%,0%);fill-opacity:1;" d="M 4.148438 178.066406 L 0.253906 178.066406 L 0.253906 176.882812 L 10.253906 176.882812 L 10.253906 178.066406 L 9.175781 178.066406 C 9.609375 178.316406 9.925781 178.632812 10.125 179.015625 C 10.320312 179.398438 10.425781 179.84375 10.425781 180.371094 C 10.425781 181.242188 10.085938 181.953125 9.398438 182.503906 C 8.714844 183.058594 7.792969 183.320312 6.664062 183.320312 C 5.53125 183.320312 4.625 183.058594 3.925781 182.503906 C 3.242188 181.953125 2.886719 181.242188 2.886719 180.371094 C 2.886719 179.84375 2.992188 179.398438 3.203125 179.015625 C 3.414062 178.632812 3.730469 178.316406 4.148438 178.066406 Z M 6.664062 182.097656 C 7.53125 182.097656 8.214844 181.925781 8.714844 181.570312 C 9.214844 181.214844 9.453125 180.726562 9.453125 180.09375 C 9.453125 179.464844 9.214844 178.976562 8.714844 178.605469 C 8.214844 178.25 7.53125 178.066406 6.664062 178.066406 C 5.792969 178.066406 5.125 178.25 4.625 178.605469 C 4.125 178.976562 3.875 179.464844 3.875 180.09375 C 3.875 180.726562 4.125 181.214844 4.625 181.570312 C 5.125 181.925781 5.792969 182.097656 6.664062 182.097656 Z M 6.664062 182.097656 "/>
<path style=" stroke:none;fill-rule:nonzero;fill:rgb(0%,0%,0%);fill-opacity:1;" d="M 0.253906 170.363281 L 0.253906 167.636719 L 1.175781 167.636719 L 1.175781 169.175781 L 11.058594 169.175781 L 11.058594 167.636719 L 11.980469 167.636719 L 11.980469 170.363281 Z M 0.253906 170.363281 "/>
<path style=" stroke:none;fill-rule:nonzero;fill:rgb(0%,0%,0%);fill-opacity:1;" d="M 4.441406 159.511719 C 3.914062 159.21875 3.53125 158.863281 3.269531 158.457031 C 3.019531 158.046875 2.886719 157.5625 2.886719 156.996094 C 2.886719 156.257812 3.148438 155.675781 3.675781 155.269531 C 4.203125 154.859375 4.953125 154.648438 5.914062 154.648438 L 10.253906 154.648438 L 10.253906 155.835938 L 5.953125 155.835938 C 5.269531 155.835938 4.753906 155.96875 4.414062 156.203125 C 4.085938 156.453125 3.914062 156.824219 3.914062 157.324219 C 3.914062 157.941406 4.125 158.429688 4.53125 158.785156 C 4.941406 159.140625 5.492188 159.3125 6.191406 159.3125 L 10.253906 159.3125 L 10.253906 160.496094 L 5.953125 160.496094 C 5.269531 160.496094 4.753906 160.628906 4.414062 160.867188 C 4.085938 161.117188 3.914062 161.5 3.914062 162 C 3.914062 162.605469 4.125 163.09375 4.53125 163.449219 C 4.941406 163.804688 5.492188 163.976562 6.191406 163.976562 L 10.253906 163.976562 L 10.253906 165.160156 L 3.058594 165.160156 L 3.058594 163.976562 L 4.175781 163.976562 C 3.742188 163.710938 3.414062 163.382812 3.203125 163 C 2.992188 162.632812 2.886719 162.183594 2.886719 161.65625 C 2.886719 161.128906 3.019531 160.695312 3.28125 160.328125 C 3.542969 159.957031 3.941406 159.695312 4.441406 159.511719 Z M 4.441406 159.511719 "/>
<path style=" stroke:none;fill-rule:nonzero;fill:rgb(0%,0%,0%);fill-opacity:1;" d="M 0.664062 150.183594 L 0.664062 149.09375 L 11.464844 152.4375 L 11.464844 153.53125 Z M 0.664062 150.183594 "/>
<path style=" stroke:none;fill-rule:nonzero;fill:rgb(0%,0%,0%);fill-opacity:1;" d="M 3.269531 143.257812 L 4.386719 143.257812 C 4.230469 143.601562 4.097656 143.941406 4.003906 144.296875 C 3.925781 144.667969 3.875 145.035156 3.875 145.417969 C 3.875 146.011719 3.964844 146.457031 4.148438 146.75 C 4.335938 147.039062 4.597656 147.183594 4.953125 147.183594 C 5.230469 147.183594 5.441406 147.078125 5.597656 146.867188 C 5.753906 146.65625 5.914062 146.234375 6.042969 145.601562 L 6.136719 145.195312 C 6.320312 144.351562 6.585938 143.757812 6.898438 143.402344 C 7.230469 143.058594 7.691406 142.875 8.269531 142.875 C 8.941406 142.875 9.464844 143.140625 9.847656 143.667969 C 10.242188 144.191406 10.425781 144.929688 10.425781 145.851562 C 10.425781 146.246094 10.386719 146.644531 10.320312 147.0625 C 10.253906 147.484375 10.148438 147.921875 9.992188 148.382812 L 8.769531 148.382812 C 9.003906 147.945312 9.175781 147.511719 9.28125 147.089844 C 9.398438 146.667969 9.453125 146.246094 9.453125 145.828125 C 9.453125 145.273438 9.359375 144.839844 9.175781 144.535156 C 8.992188 144.246094 8.714844 144.085938 8.359375 144.085938 C 8.042969 144.085938 7.792969 144.207031 7.625 144.417969 C 7.453125 144.628906 7.28125 145.101562 7.125 145.839844 L 7.03125 146.246094 C 6.875 146.984375 6.636719 147.523438 6.320312 147.839844 C 6.003906 148.171875 5.570312 148.328125 5.003906 148.328125 C 4.335938 148.328125 3.808594 148.089844 3.441406 147.617188 C 3.070312 147.144531 2.886719 146.457031 2.886719 145.5625 C 2.886719 145.128906 2.925781 144.71875 2.992188 144.324219 C 3.058594 143.941406 3.148438 143.585938 3.269531 143.257812 Z M 3.269531 143.257812 "/>
<path style=" stroke:none;fill-rule:nonzero;fill:rgb(0%,0%,0%);fill-opacity:1;" d="M 0.253906 138.226562 L 11.980469 138.226562 L 11.980469 140.953125 L 11.058594 140.953125 L 11.058594 139.414062 L 1.175781 139.414062 L 1.175781 140.953125 L 0.253906 140.953125 Z M 0.253906 138.226562 "/>
<path style="fill:none;stroke-width:2.5;stroke-linecap:square;stroke-linejoin:round;stroke:rgb(0%,50.196078%,50.196078%);stroke-opacity:1;stroke-miterlimit:4;" d="M 48.874531 255.360854 L 49.545469 249.292486 L 50.608281 242.358055 L 50.830938 241.230988 L 51.077344 240.10392 L 51.501875 238.11079 L 56.685313 218.692605 L 56.821875 218.434566 L 57.11875 217.307498 L 57.329531 216.874467 L 57.896563 215.228356 L 58.834688 212.971255 L 59.092969 212.54119 L 60.004375 210.02605 L 60.11125 210.02605 L 60.431875 209.071008 L 60.998906 208.376972 L 61.325469 205.345754 L 61.381875 205.431767 L 61.672813 206.469855 L 61.833125 206.297829 L 62.159688 205.864798 L 62.275469 205.864798 L 62.498125 205.51778 L 62.714844 205.170762 L 63.664844 203.435671 L 64.071563 202.222591 L 64.335781 201.961586 L 64.540625 201.267549 L 64.911719 200.573513 L 65.33625 199.449412 L 65.496563 199.363399 L 65.95375 198.491404 L 66.595 197.367303 L 66.755313 197.367303 L 66.972031 197.020285 L 67.280781 196.50124 L 67.539063 196.240235 L 68.598906 194.852163 L 68.673125 194.852163 L 68.797813 194.505145 L 68.916563 194.594124 L 69.249063 193.897122 L 69.382656 193.983135 L 69.5875 193.550103 L 69.810156 193.378077 L 69.964531 193.117072 L 70.104063 193.203085 L 70.172344 192.856067 L 70.501875 192.509049 L 70.967969 192.076018 L 71.264844 191.729 L 71.864531 191.209955 L 72.300938 190.773958 L 72.535469 190.601932 L 72.88875 190.251948 L 73.129219 190.165935 L 73.491406 189.90493 L 73.586406 189.73587 L 73.800156 189.646891 L 73.912969 189.388852 L 74.049531 189.388852 L 74.153438 189.21386 L 74.429531 189.21386 L 75.064844 188.519823 L 76.029688 187.825787 L 76.127656 187.9118 L 76.391875 187.567748 L 76.552188 187.739774 L 76.718438 187.306743 L 76.816406 187.392756 L 77.053906 187.306743 L 77.134063 187.392756 L 77.514063 187.134717 L 77.603125 187.22073 L 78.063281 186.873712 L 78.306719 186.787699 L 78.416563 186.69872 L 78.514531 186.787699 L 78.760938 186.526694 L 78.87375 186.612707 L 78.965781 186.437715 L 80.830156 185.660631 L 81.043906 185.574618 L 81.352656 185.402592 L 81.705938 185.313613 L 81.970156 185.141587 L 82.296719 185.052608 L 82.397656 184.880582 L 82.988438 184.794569 L 83.116094 184.70559 L 83.240781 184.797535 L 83.445625 184.533564 L 84.018594 184.450517 L 84.511406 184.275525 L 84.918125 184.275525 L 85.036875 184.103499 L 85.152656 184.189512 L 85.402031 184.103499 L 85.758281 184.103499 L 85.850313 183.931473 L 86.072969 184.106465 L 86.444063 183.931473 L 86.547969 184.017486 L 86.874531 183.84546 L 86.978438 183.931473 L 87.331719 183.673434 L 87.530625 183.84546 L 87.696875 183.670468 L 87.904688 183.756481 L 88.115469 183.670468 L 88.486563 183.584455 L 88.694375 183.584455 L 88.813125 183.409462 L 89.190156 183.498441 L 89.769063 183.412428 L 90.009531 183.326415 L 90.336094 183.326415 L 90.44 183.151423 L 90.662656 183.326415 L 91.021875 183.58742 L 91.330625 183.412428 L 91.921406 183.326415 L 92.019375 183.240402 L 92.12625 183.412428 L 92.218281 183.326415 L 92.841719 183.240402 L 92.969375 183.154389 L 93.064375 183.240402 L 93.174219 183.154389 L 93.402813 183.240402 L 95.216719 183.329381 L 95.359219 183.415394 L 95.469063 183.243368 L 96.039063 183.240402 L 96.371563 183.501407 L 97.389844 183.501407 L 97.499688 183.329381 L 97.763906 183.501407 L 97.974688 183.415394 L 98.078594 183.590386 L 98.307188 183.41836 L 99.435313 183.504373 L 99.931094 183.762413 L 100.13 183.590386 L 100.830625 183.590386 L 100.919688 183.415394 L 101.27 183.590386 L 101.608438 183.504373 L 101.8875 183.504373 L 101.967656 183.329381 L 102.225938 183.415394 L 102.638594 183.415394 L 102.763281 183.243368 L 102.977031 183.415394 L 103.113594 183.329381 L 103.318438 183.415394 L 106.129844 183.504373 L 106.809688 183.937405 L 106.901719 183.765378 L 107.002656 183.937405 L 107.228281 183.848426 L 107.370781 183.851392 L 107.465781 183.58742 L 107.703281 183.937405 L 107.810156 183.848426 L 108.032813 184.023418 L 108.130781 183.848426 L 111.610156 183.848426 L 111.722969 183.673434 L 111.936719 183.762413 L 112.043594 183.676399 L 112.153438 183.762413 L 112.29 183.676399 L 112.417656 183.848426 L 112.518594 183.676399 L 112.839219 183.848426 L 112.972813 183.676399 L 113.207344 183.759447 L 113.293438 183.676399 L 113.447813 183.762413 L 113.554688 183.676399 L 113.652656 183.848426 L 113.768438 183.762413 L 113.860469 183.934439 L 113.997031 183.848426 L 114.103906 183.934439 L 114.207813 183.848426 L 114.326563 183.934439 L 114.480938 183.762413 L 114.706563 183.851392 L 114.810469 183.762413 L 114.905469 184.020452 L 115.009375 183.848426 L 115.134063 183.934439 L 115.528906 183.762413 L 115.745625 183.934439 L 115.819844 183.848426 L 115.959375 183.934439 L 116.078125 183.759447 L 116.182031 183.848426 L 116.291875 183.759447 L 116.502656 183.848426 L 118.969688 183.931473 L 119.049844 184.020452 L 119.124063 183.934439 L 119.29625 183.934439 L 120.255156 148.47927 L 120.552031 141.716865 L 121.760313 109.717048 L 123.036875 95.474475 L 124.64 83.856783 L 124.850781 83.094529 L 124.957656 82.548791 L 125.42375 82.089066 L 125.5425 82.278888 L 125.652344 81.979326 L 125.913594 81.994156 L 126.367813 82.827592 L 126.480625 82.892844 L 126.602344 81.403928 L 127.139688 83.316977 L 127.472188 84.452942 L 127.861094 85.375358 L 128.398438 86.754532 L 128.965469 88.566738 L 129.084219 88.783254 L 129.297969 88.652751 L 129.434531 88.75656 L 130.120313 87.878634 L 130.446875 87.030367 L 131.595781 83.539424 L 132.058906 82.092032 L 132.427031 81.297153 L 132.62 80.840394 L 133.564063 79.212079 L 134.178594 78.443893 L 135.069219 76.821509 L 135.217656 76.696939 L 135.413594 76.367716 L 135.740156 75.715204 L 135.858906 75.700374 L 136.090469 75.412675 L 136.565469 74.831345 L 136.666406 74.789822 L 136.912813 74.505089 L 137.004844 74.41611 L 137.2275 74.054262 L 137.467969 73.846644 L 137.565938 73.606401 L 137.7025 73.677584 L 137.937031 73.35726 L 138.400156 72.746271 L 138.768281 72.420014 L 139.195781 71.743774 L 139.323438 71.817923 L 139.522344 71.420483 L 139.635156 71.420483 L 139.745 70.993384 L 139.854844 71.183206 L 140.855313 70.234097 L 140.959219 70.148084 L 141.262031 69.602346 L 141.731094 69.139655 L 142.131875 62.608596 L 142.651406 57.619839 L 143.779531 45.916134 L 144.791875 37.317796 L 145.445 32.756139 L 145.70625 31.430351 L 146.249531 28.363542 L 146.742344 26.788613 L 146.959063 25.984836 L 147.543906 24.196358 L 147.79625 23.555709 L 147.915 23.445969 L 148.155469 22.953618 L 148.253438 22.920992 L 148.395938 22.499825 L 149.117344 26.50388 L 149.610156 28.431759 L 150.334531 30.451582 L 150.720469 32.154047 L 150.874844 32.26972 L 151.109375 32.85105 L 152.682813 35.016205 L 152.801563 35.090355 L 152.905469 34.856043 L 153.11625 35.283142 L 153.620938 35.855574 L 153.718906 35.814051 L 153.810938 35.968281 L 154.072188 35.811085 L 154.268125 36.039464 L 154.377969 35.956417 L 154.538281 36.113613 L 154.651094 36.0276 L 154.763906 36.229286 L 154.891563 36.146239 L 155.007344 36.341993 L 155.126094 36.220388 L 155.342813 36.374618 L 155.434844 36.178865 L 155.675313 36.333095 L 155.779219 36.258946 L 156.087969 36.250048 L 156.304688 36.175899 L 156.539219 36.214456 L 157.361563 35.986077 L 157.453594 36.140307 L 157.58125 35.908962 L 157.81875 35.911927 L 157.895938 35.71914 L 158.169063 35.876336 L 158.278906 35.603467 L 158.501563 35.680582 L 158.84 36.033532 L 159.297188 37.421605 L 159.439688 37.460162 L 159.531719 37.655916 L 159.864219 37.273306 L 159.968125 37.308898 L 160.333281 36.923322 L 160.437188 37.205089 L 160.653906 37.276272 L 161.149688 37.747861 L 161.235781 37.4394 L 161.648438 37.824976 L 161.838438 37.979206 L 161.942344 37.824976 L 162.037344 37.943615 L 162.396563 37.792351 L 162.509375 37.982172 L 162.604375 37.795316 L 162.746875 37.8665 L 162.865625 37.792351 L 162.981406 37.905057 L 163.215938 37.709303 L 163.319844 37.908023 L 163.432656 37.596597 L 163.5425 37.792351 L 163.913594 37.519482 L 164.04125 37.519482 L 164.127344 37.326694 L 164.364844 37.480924 L 164.46875 37.362285 L 164.590469 37.406775 L 164.836875 37.246613 L 165.145625 37.288136 L 165.46625 37.291102 L 166.190625 37.133906 L 167.2 37.747861 L 167.565156 40.882888 L 167.98375 45.343702 L 168.829844 50.895992 L 169.414688 54.582689 L 170.771406 60.449372 L 170.913906 60.645126 L 171.136563 61.226455 L 171.341406 61.849308 L 171.650156 63.439066 L 172.279531 65.298728 L 172.956406 66.155892 L 173.149375 66.897384 L 173.829219 68.291388 L 174.313125 68.063009 L 174.402188 67.985894 L 174.678281 68.140124 L 174.770313 68.068941 L 174.987031 68.223171 L 175.079063 68.14309 L 175.450156 68.457483 L 175.565938 68.534598 L 175.690625 68.457483 L 175.764844 68.727385 L 175.913281 68.611713 L 176.257656 68.807467 L 176.352656 68.884582 L 176.474375 68.807467 L 176.702969 69.000254 L 176.812813 68.884582 L 176.925625 69.080336 L 177.074063 68.923139 L 177.172031 69.157451 L 177.275938 68.961697 L 177.394688 69.118893 L 177.492656 68.958731 L 177.620313 69.041778 L 177.715313 68.807467 L 177.869688 68.961697 L 177.973594 68.691794 L 178.184375 69.157451 L 178.635625 70.747209 L 178.751406 70.859916 L 179.128438 70.631536 L 179.354063 70.281552 L 179.677656 70.245961 L 180.010156 70.053173 L 180.12 69.78327 L 180.384219 71.720046 L 181.194688 78.15916 L 181.328281 78.704898 L 181.533125 80.333214 L 182.18625 84.485568 L 182.774063 86.971048 L 183.145156 88.560806 L 184.020938 92.401733 L 184.635469 93.451686 L 184.712656 93.487277 L 185.514219 95.391428 L 185.591406 95.468543 L 185.846719 95.314313 L 186.060469 95.504135 L 186.277188 95.895642 L 186.660156 96.904071 L 186.865 97.058302 L 187.135156 96.904071 L 187.215313 96.981186 L 187.512188 96.945595 L 187.678438 97.215498 L 187.918906 96.984152 L 188.005 97.02271 L 188.29 96.942629 L 188.488906 97.099825 L 188.714531 97.215498 L 188.9075 97.135417 L 189.05 97.372694 L 189.290469 99.116683 L 189.726875 102.916086 L 190.21375 105.867223 L 190.475 106.605749 L 190.540313 107.299785 L 190.626406 106.679898 L 191.368594 112.460568 L 192.478906 118.395468 L 192.947969 120.258095 L 193.04 120.800867 L 193.200313 121.073736 L 193.509063 122.194871 L 193.755469 122.506298 L 193.865313 122.894839 L 194.687656 129.642414 L 195.150781 132.35924 L 195.489219 134.334574 L 196.284844 139.575437 L 196.525313 140.892327 L 196.964688 145.623044 L 197.858281 153.106178 L 198.161094 154.927282 L 198.425313 157.489878 L 198.698438 159.118193 L 199.128906 162.182037 L 199.494063 164.314567 L 199.69 165.554342 L 201.536563 173.737444 L 202.109531 175.558548 L 202.480625 176.644092 L 202.572656 176.721207 L 202.7775 177.533882 L 203.065469 178.192327 L 203.356406 174.502664 L 204.276719 169.531703 L 204.410313 169.682968 L 205.084219 172.429453 L 205.182188 172.46801 L 205.295 172.734948 L 205.46125 172.761641 L 205.900625 174.840784 L 207.402813 180.120205 L 207.687813 180.820173 L 208.088594 182.258667 L 208.409219 183.228538 L 208.729844 184.234001 L 209.083125 184.933969 L 209.439375 185.509367 L 209.537344 185.429286 L 209.798594 185.776304 L 209.9025 185.699189 L 210.564531 178.192327 L 210.926719 175.21153 L 211.481875 169.229175 L 212.241875 163.659089 L 212.53875 161.336737 L 212.850469 159.349539 L 213.159219 158.388566 L 213.301719 157.412762 L 213.462031 157.021255 L 213.53625 156.505177 L 213.720313 156.53187 L 213.770781 156.356878 L 213.883594 156.374674 L 214.245781 155.751821 L 214.450625 155.876392 L 215.068125 156.345014 L 215.379844 156.763216 L 215.86375 157.323783 L 216.05375 157.629278 L 216.317969 157.845794 L 216.404063 157.914011 L 216.499063 158.14239 L 216.665313 158.204676 L 216.953281 158.919474 L 217.318438 160.040609 L 218.342656 165.859836 L 219.304531 173.609908 L 220.397031 177.616929 L 220.563281 177.783023 L 221.694375 183.258198 L 222.130781 185.616142 L 223.870469 193.034025 L 224.22375 194.057284 L 224.431563 193.897122 L 224.5325 193.932713 L 224.796719 193.461124 L 225.0075 194.131433 L 225.322188 194.715728 L 225.815 194.994529 L 226.251406 195.736021 L 226.352344 196.151256 L 226.45625 196.047448 L 227.07375 197.073672 L 227.296406 197.219004 L 227.768438 197.530431 L 227.973281 197.57492 L 228.243438 197.791436 L 228.549219 197.797368 L 229.02125 197.960496 L 229.232031 197.924905 L 230.942031 197.42069 L 231.078594 197.29612 L 231.1825 197.367303 L 231.268594 197.0974 L 231.529844 197.05291 L 231.743594 197.011387 L 231.835625 196.809701 L 231.96625 196.895714 L 232.319531 196.480479 L 232.429375 196.596151 L 232.779688 196.290657 L 232.886563 196.195746 L 232.990469 196.266929 L 234.186875 192.60396 L 234.385781 192.568368 L 234.489688 192.716667 L 234.587656 192.627688 L 234.81625 192.900557 L 234.970625 192.888693 L 235.071563 193.048855 L 235.303125 192.974706 L 235.644531 193.087413 L 235.772188 193.357316 L 235.858281 193.244609 L 235.950313 193.428499 L 236.101719 193.244609 L 236.327344 193.303928 L 236.428281 193.330622 L 236.6925 193.559001 L 237.007188 193.547137 L 237.105156 193.630184 L 237.612813 193.630184 L 237.687031 193.704334 L 238.067031 193.532308 L 238.197656 193.645014 L 238.28375 193.446295 L 238.384688 193.645014 L 238.746875 193.386975 L 238.850781 193.487818 L 238.993281 193.303928 L 239.085313 193.428499 L 239.4 192.974706 L 239.560313 193.099276 L 239.886875 192.746326 L 239.99375 192.844203 L 240.097656 192.500151 L 240.213438 192.598028 L 240.46875 192.354819 L 240.679531 192.28067 L 241.151563 191.924753 L 241.27625 191.939583 L 241.4425 191.610361 L 241.602813 191.595531 L 242.027344 191.180296 L 243.072344 190.593034 L 243.1525 190.346859 L 243.283125 190.323131 L 243.425625 190.165935 L 243.541406 190.334995 L 243.755156 189.993909 L 244.114375 189.893066 L 244.212344 189.73587 L 244.669531 189.73587 L 244.785313 189.549014 L 244.930781 189.563844 L 245.138594 189.293941 L 245.230625 189.379954 L 246.162813 188.765999 L 246.299375 188.866842 L 246.756563 188.496096 L 246.860469 188.496096 L 247.095 188.338899 L 247.299844 188.068997 L 247.54625 188.068997 L 247.656094 187.894004 L 247.884688 187.89697 L 248.131094 187.615204 L 248.347813 187.529191 L 248.427969 187.529191 L 248.594219 187.357164 L 248.698125 187.431314 L 249.11375 187.259288 L 249.722344 186.974555 L 249.927188 186.891508 L 250.179531 186.888542 L 250.289375 186.731345 L 250.506094 186.802529 L 250.850469 186.606775 L 251.001875 186.618639 L 251.129531 186.449579 L 251.209688 186.547455 L 251.310625 186.351702 L 251.444219 186.449579 L 251.568906 186.262723 L 251.747031 186.336872 L 252.376406 186.007649 L 252.48625 186.093663 L 252.584219 185.909773 L 252.702969 186.066969 L 252.806875 185.82376 L 253.029531 185.894943 L 253.177969 185.82376 L 253.290781 185.897909 L 253.504531 185.82376 L 254.068594 185.636904 L 254.202188 185.797066 L 254.312031 185.553857 L 254.522813 185.62504 L 254.899844 185.539027 L 254.962188 184.756011 L 255.683594 186.826256 L 255.891406 186.849984 L 256.479219 186.752107 L 256.583125 186.606775 L 256.681094 186.680924 L 256.936406 186.508898 L 257.144219 186.508898 L 257.257031 186.434749 L 257.393594 186.508898 L 257.589531 186.250859 L 257.743906 186.152982 L 257.85375 186.238995 L 258.207031 186.066969 L 258.325781 185.99282 L 258.42375 185.797066 L 258.584063 185.983922 L 258.741406 185.613176 L 259.23125 185.44115 L 259.323281 185.527163 L 259.433125 185.25726 L 259.545938 185.343273 L 259.637969 185.159383 L 259.804219 185.355137 L 259.958594 185.331409 L 260.020938 185.159383 L 260.460313 185.156417 L 260.582031 185.0882 L 260.730469 185.156417 L 260.932344 185.07337 L 261.169844 185.144553 L 261.27375 184.901344 L 261.401406 185.061506 L 261.760625 184.901344 L 261.864531 184.987357 L 261.995156 184.886514 L 262.087188 184.972527 L 262.401875 184.803467 L 262.716563 184.901344 L 262.784844 184.70559 L 262.989688 184.773807 L 263.087656 184.773807 L 263.301406 184.616611 L 263.357813 184.871684 L 263.437969 184.776773 L 263.918906 184.702624 L 264.025781 184.604747 L 264.135625 184.67593 L 264.221719 184.533564 L 264.382031 184.503904 L 264.48 184.702624 L 264.592813 184.518734 L 264.913438 184.604747 L 265.091563 184.616611 L 265.284531 184.518734 L 265.519063 184.589917 L 265.851563 184.406027 L 265.973281 184.518734 L 266.201875 184.331878 L 266.436406 184.420857 L 266.519531 184.234001 L 266.685781 184.420857 L 266.893594 184.222137 L 267.134063 184.222137 L 267.597188 183.967064 L 267.712969 184.147988 L 267.905938 183.952234 L 268.294844 183.878085 L 269.767344 183.596318 L 269.862344 183.753515 L 269.984063 183.584455 L 270.090938 183.682331 L 270.182969 183.581489 L 270.39375 183.768344 L 270.521406 183.581489 L 270.77375 183.652672 L 270.886563 183.581489 L 271.076563 183.667502 L 271.325938 183.569625 L 271.483281 183.753515 L 271.58125 183.566659 L 271.762344 183.652672 L 272.026563 183.569625 L 272.367969 183.566659 L 272.513438 183.397599 L 272.703438 183.652672 L 272.95875 183.483612 L 273.14875 183.652672 L 273.285313 183.569625 L 273.730625 183.640808 L 274.187813 183.655638 L 274.303594 183.453952 L 274.434219 183.640808 L 274.647969 183.539965 L 274.754844 183.611148 L 275.00125 183.539965 L 275.339688 183.614114 L 275.785 183.442088 L 275.90375 183.427258 L 276.105625 183.528101 L 276.167969 183.430224 L 276.248125 183.525135 L 276.506406 183.341245 L 276.586563 183.513271 L 277.04375 183.329381 L 277.296094 183.427258 L 277.4 183.258198 L 277.536563 183.329381 L 277.655313 183.142525 L 277.753281 183.228538 L 277.845313 183.157355 L 278.572656 183.658604 L 278.771563 183.928507 L 279.003125 184.18358 L 279.219844 184.026384 L 279.350469 183.940371 L 279.448438 184.026384 L 280.06 183.741651 L 280.36875 183.741651 L 281.113906 183.756481 L 281.208906 183.655638 L 281.422656 183.8158 L 282.313281 183.827664 L 282.69625 183.827664 L 282.776406 183.98486 L 283.002031 183.80097 L 283.183125 183.97003 L 283.254375 183.80097 L 283.477031 183.886983 L 284.041094 183.812834 L 284.162813 183.700127 L 284.421094 183.884017 L 284.527969 183.614114 L 284.848594 183.884017 L 285.065313 183.700127 L 285.516563 183.78614 L 285.896563 184.299253 L 286.000469 184.21324 L 286.101406 184.385266 L 286.383438 184.299253 L 286.475469 184.299253 L 286.564531 184.411959 L 286.650625 184.299253 L 286.816875 184.468313 L 286.902969 184.314082 L 287.006875 184.483142 L 287.143438 184.228069 L 287.285938 184.299253 L 287.372031 184.142056 L 287.481875 184.19841 L 287.582813 184.059009 L 287.965781 184.299253 L 289.197813 184.186546 L 289.289844 184.269593 L 289.456094 184.18358 L 289.551094 184.269593 L 289.660938 184.097567 L 290.023125 184.287389 L 290.450625 184.254763 L 290.795 184.239933 " transform="matrix(1.315789,0,0,1.317024,0,0.000000000000029946)"/>
<path style="fill:none;stroke-width:2.5;stroke-linecap:butt;stroke-linejoin:round;stroke:rgb(100%,0%,0%);stroke-opacity:1;stroke-dasharray:9.25,4;stroke-miterlimit:4;" d="M 48.874531 184.334844 L 118.699531 184.334844 L 118.815313 70.406123 L 141.134375 70.406123 L 141.368906 13.438796 L 147.662656 13.438796 L 147.79625 41.923942 L 166.632969 41.923942 L 166.8675 70.406123 L 179.582656 70.406123 L 179.677656 98.888303 L 179.817188 98.888303 L 179.912188 70.406123 L 180.12 98.888303 L 188.592813 98.888303 L 188.714531 127.370483 L 193.509063 127.370483 L 193.755469 155.852664 L 195.489219 155.852664 L 195.67625 184.334844 L 195.922656 155.852664 L 196.071094 155.852664 L 196.284844 184.334844 L 290.795 184.334844 " transform="matrix(1.315789,0,0,1.317024,0,0.000000000000029946)"/>
<path style="fill:none;stroke-width:0.8;stroke-linecap:square;stroke-linejoin:miter;stroke:rgb(0%,0%,0%);stroke-opacity:1;stroke-miterlimit:10;" d="M 36.776875 267.456067 L 36.776875 1.343583 M 302.889688 267.456067 L 302.889688 1.343583 M 36.776875 267.456067 L 302.889688 267.456067 M 36.776875 1.343583 L 302.889688 1.343583 " transform="matrix(1.315789,0,0,1.317024,0,0.000000000000029946)"/>
<path style="fill-rule:nonzero;fill:rgb(100%,100%,100%);fill-opacity:0.8;stroke-width:1;stroke-linecap:butt;stroke-linejoin:miter;stroke:rgb(83.529412%,83.921569%,83.529412%);stroke-opacity:0.8;stroke-miterlimit:10;" d="M 167.045625 262.455447 L 295.889375 262.455447 C 297.222344 262.455447 297.890313 261.79107 297.890313 260.456385 L 297.890313 232.110639 C 297.890313 230.77892 297.222344 230.111578 295.889375 230.111578 L 167.045625 230.111578 C 165.712656 230.111578 165.044688 230.77892 165.044688 232.110639 L 165.044688 260.456385 C 165.044688 261.79107 165.712656 262.455447 167.045625 262.455447 Z M 167.045625 262.455447 " transform="matrix(1.315789,0,0,1.317024,0,0.000000000000029946)"/>
<path style="fill:none;stroke-width:2.5;stroke-linecap:square;stroke-linejoin:round;stroke:rgb(0%,50.196078%,50.196078%);stroke-opacity:1;stroke-miterlimit:4;" d="M 169.046563 238.205701 L 189.047031 238.205701 " transform="matrix(1.315789,0,0,1.317024,0,0.000000000000029946)"/>
<path style=" stroke:none;fill-rule:nonzero;fill:rgb(0%,0%,0%);fill-opacity:1;" d="M 267.746094 309.46875 L 267.746094 310.839844 C 267.296875 310.445312 266.835938 310.140625 266.335938 309.929688 C 265.835938 309.734375 265.324219 309.628906 264.769531 309.628906 C 263.664062 309.628906 262.824219 309.96875 262.246094 310.640625 C 261.664062 311.3125 261.375 312.273438 261.375 313.539062 C 261.375 314.804688 261.664062 315.777344 262.246094 316.449219 C 262.824219 317.121094 263.664062 317.449219 264.769531 317.449219 C 265.324219 317.449219 265.835938 317.359375 266.335938 317.148438 C 266.835938 316.949219 267.296875 316.648438 267.746094 316.238281 L 267.746094 317.59375 C 267.285156 317.910156 266.796875 318.136719 266.296875 318.28125 C 265.796875 318.425781 265.257812 318.503906 264.691406 318.503906 C 263.246094 318.503906 262.101562 318.070312 261.257812 317.1875 C 260.414062 316.304688 260.007812 315.09375 260.007812 313.539062 C 260.007812 311.996094 260.414062 310.785156 261.257812 309.890625 C 262.101562 309.007812 263.246094 308.558594 264.691406 308.558594 C 265.269531 308.558594 265.808594 308.640625 266.308594 308.785156 C 266.808594 308.941406 267.296875 309.167969 267.746094 309.46875 Z M 267.746094 309.46875 "/>
<path style=" stroke:none;fill-rule:nonzero;fill:rgb(0%,0%,0%);fill-opacity:1;" d="M 269.574219 315.488281 L 269.574219 311.128906 L 270.757812 311.128906 L 270.757812 315.449219 C 270.757812 316.132812 270.890625 316.632812 271.152344 316.976562 C 271.414062 317.320312 271.808594 317.488281 272.351562 317.488281 C 272.980469 317.488281 273.496094 317.292969 273.863281 316.882812 C 274.230469 316.476562 274.414062 315.921875 274.414062 315.210938 L 274.414062 311.128906 L 275.601562 311.128906 L 275.601562 318.332031 L 274.414062 318.332031 L 274.414062 317.226562 C 274.125 317.675781 273.785156 317.988281 273.414062 318.199219 C 273.035156 318.398438 272.601562 318.503906 272.101562 318.503906 C 271.269531 318.503906 270.640625 318.253906 270.21875 317.738281 C 269.785156 317.238281 269.574219 316.488281 269.574219 315.488281 Z M 272.546875 310.957031 Z M 272.546875 310.957031 "/>
<path style=" stroke:none;fill-rule:nonzero;fill:rgb(0%,0%,0%);fill-opacity:1;" d="M 282.207031 312.234375 C 282.074219 312.15625 281.929688 312.101562 281.769531 312.0625 C 281.613281 312.039062 281.441406 312.011719 281.257812 312.011719 C 280.585938 312.011719 280.074219 312.234375 279.71875 312.667969 C 279.351562 313.105469 279.179688 313.722656 279.179688 314.539062 L 279.179688 318.332031 L 277.996094 318.332031 L 277.996094 311.128906 L 279.179688 311.128906 L 279.179688 312.246094 C 279.414062 311.8125 279.746094 311.484375 280.140625 311.273438 C 280.535156 311.0625 281.019531 310.957031 281.601562 310.957031 C 281.679688 310.957031 281.769531 310.96875 281.875 310.96875 C 281.96875 310.984375 282.074219 310.996094 282.207031 311.023438 Z M 282.207031 312.234375 "/>
<path style=" stroke:none;fill-rule:nonzero;fill:rgb(0%,0%,0%);fill-opacity:1;" d="M 287.386719 312.234375 C 287.257812 312.15625 287.113281 312.101562 286.953125 312.0625 C 286.796875 312.039062 286.625 312.011719 286.441406 312.011719 C 285.769531 312.011719 285.257812 312.234375 284.902344 312.667969 C 284.53125 313.105469 284.363281 313.722656 284.363281 314.539062 L 284.363281 318.332031 L 283.175781 318.332031 L 283.175781 311.128906 L 284.363281 311.128906 L 284.363281 312.246094 C 284.597656 311.8125 284.925781 311.484375 285.324219 311.273438 C 285.71875 311.0625 286.203125 310.957031 286.78125 310.957031 C 286.863281 310.957031 286.953125 310.96875 287.058594 310.96875 C 287.152344 310.984375 287.257812 310.996094 287.386719 311.023438 Z M 287.386719 312.234375 "/>
<path style=" stroke:none;fill-rule:nonzero;fill:rgb(0%,0%,0%);fill-opacity:1;" d="M 294.496094 314.433594 L 294.496094 315.015625 L 289.058594 315.015625 C 289.113281 315.832031 289.351562 316.460938 289.796875 316.882812 C 290.230469 317.304688 290.835938 317.515625 291.625 317.515625 C 292.074219 317.515625 292.519531 317.464844 292.941406 317.359375 C 293.363281 317.253906 293.796875 317.082031 294.21875 316.84375 L 294.21875 317.964844 C 293.796875 318.148438 293.363281 318.292969 292.914062 318.371094 C 292.46875 318.449219 292.007812 318.503906 291.558594 318.503906 C 290.402344 318.503906 289.496094 318.175781 288.824219 317.515625 C 288.152344 316.859375 287.824219 315.949219 287.824219 314.804688 C 287.824219 313.628906 288.140625 312.695312 288.769531 311.996094 C 289.402344 311.3125 290.269531 310.957031 291.351562 310.957031 C 292.324219 310.957031 293.085938 311.273438 293.652344 311.890625 C 294.207031 312.523438 294.496094 313.367188 294.496094 314.433594 Z M 293.308594 314.09375 C 293.296875 313.445312 293.113281 312.933594 292.769531 312.539062 C 292.414062 312.15625 291.941406 311.957031 291.363281 311.957031 C 290.707031 311.957031 290.179688 312.15625 289.785156 312.523438 C 289.390625 312.894531 289.152344 313.421875 289.101562 314.09375 Z M 293.308594 314.09375 "/>
<path style=" stroke:none;fill-rule:nonzero;fill:rgb(0%,0%,0%);fill-opacity:1;" d="M 302.414062 313.988281 L 302.414062 318.332031 L 301.230469 318.332031 L 301.230469 314.027344 C 301.230469 313.339844 301.085938 312.839844 300.824219 312.5 C 300.558594 312.15625 300.164062 311.984375 299.640625 311.984375 C 298.996094 311.984375 298.496094 312.195312 298.125 312.605469 C 297.757812 313.011719 297.574219 313.566406 297.574219 314.261719 L 297.574219 318.332031 L 296.390625 318.332031 L 296.390625 311.128906 L 297.574219 311.128906 L 297.574219 312.246094 C 297.851562 311.828125 298.179688 311.496094 298.574219 311.285156 C 298.957031 311.074219 299.402344 310.957031 299.902344 310.957031 C 300.71875 310.957031 301.351562 311.222656 301.769531 311.734375 C 302.191406 312.246094 302.414062 313 302.414062 313.988281 Z M 302.414062 313.988281 "/>
<path style=" stroke:none;fill-rule:nonzero;fill:rgb(0%,0%,0%);fill-opacity:1;" d="M 305.941406 309.085938 L 305.941406 311.128906 L 308.375 311.128906 L 308.375 312.050781 L 305.941406 312.050781 L 305.941406 315.960938 C 305.941406 316.554688 306.019531 316.9375 306.179688 317.09375 C 306.335938 317.265625 306.664062 317.34375 307.164062 317.34375 L 308.375 317.34375 L 308.375 318.332031 L 307.164062 318.332031 C 306.246094 318.332031 305.613281 318.160156 305.269531 317.820312 C 304.929688 317.476562 304.757812 316.859375 304.757812 315.960938 L 304.757812 312.050781 L 303.890625 312.050781 L 303.890625 311.128906 L 304.757812 311.128906 L 304.757812 309.085938 Z M 305.941406 309.085938 "/>
<path style=" stroke:none;fill-rule:nonzero;fill:rgb(0%,0%,0%);fill-opacity:1;" d="M 318.707031 311.339844 L 318.707031 312.457031 C 318.363281 312.300781 318.019531 312.167969 317.664062 312.078125 C 317.296875 311.996094 316.929688 311.945312 316.546875 311.945312 C 315.957031 311.945312 315.507812 312.039062 315.21875 312.222656 C 314.929688 312.40625 314.785156 312.667969 314.785156 313.023438 C 314.785156 313.300781 314.890625 313.511719 315.101562 313.671875 C 315.308594 313.828125 315.730469 313.988281 316.363281 314.117188 L 316.769531 314.210938 C 317.613281 314.394531 318.207031 314.65625 318.558594 314.972656 C 318.902344 315.304688 319.085938 315.765625 319.085938 316.34375 C 319.085938 317.015625 318.824219 317.542969 318.296875 317.925781 C 317.769531 318.320312 317.035156 318.503906 316.113281 318.503906 C 315.71875 318.503906 315.324219 318.464844 314.902344 318.398438 C 314.480469 318.332031 314.046875 318.226562 313.585938 318.070312 L 313.585938 316.84375 C 314.019531 317.082031 314.457031 317.253906 314.875 317.359375 C 315.296875 317.476562 315.71875 317.527344 316.140625 317.527344 C 316.691406 317.527344 317.125 317.4375 317.429688 317.253906 C 317.71875 317.066406 317.875 316.792969 317.875 316.4375 C 317.875 316.121094 317.757812 315.871094 317.546875 315.699219 C 317.335938 315.527344 316.863281 315.355469 316.125 315.199219 L 315.71875 315.105469 C 314.980469 314.949219 314.441406 314.710938 314.125 314.394531 C 313.796875 314.078125 313.640625 313.644531 313.640625 313.078125 C 313.640625 312.40625 313.875 311.878906 314.351562 311.511719 C 314.824219 311.140625 315.507812 310.957031 316.402344 310.957031 C 316.835938 310.957031 317.246094 310.996094 317.640625 311.0625 C 318.019531 311.128906 318.375 311.222656 318.707031 311.339844 Z M 318.707031 311.339844 "/>
<path style=" stroke:none;fill-rule:nonzero;fill:rgb(0%,0%,0%);fill-opacity:1;" d="M 322.113281 317.253906 L 322.113281 321.058594 L 320.929688 321.058594 L 320.929688 311.128906 L 322.113281 311.128906 L 322.113281 312.222656 C 322.351562 311.800781 322.664062 311.484375 323.046875 311.273438 C 323.429688 311.0625 323.890625 310.957031 324.414062 310.957031 C 325.285156 310.957031 325.996094 311.3125 326.546875 311.996094 C 327.085938 312.695312 327.363281 313.605469 327.363281 314.738281 C 327.363281 315.871094 327.085938 316.792969 326.546875 317.476562 C 325.996094 318.160156 325.285156 318.503906 324.414062 318.503906 C 323.890625 318.503906 323.429688 318.398438 323.046875 318.199219 C 322.664062 318.003906 322.351562 317.6875 322.113281 317.253906 Z M 326.140625 314.738281 C 326.140625 313.867188 325.957031 313.195312 325.601562 312.695312 C 325.230469 312.195312 324.746094 311.945312 324.125 311.945312 C 323.496094 311.945312 323.007812 312.195312 322.652344 312.695312 C 322.285156 313.195312 322.113281 313.867188 322.113281 314.738281 C 322.113281 315.605469 322.285156 316.292969 322.652344 316.792969 C 323.007812 317.292969 323.496094 317.527344 324.125 317.527344 C 324.746094 317.527344 325.230469 317.292969 325.601562 316.792969 C 325.957031 316.292969 326.140625 315.605469 326.140625 314.738281 Z M 326.140625 314.738281 "/>
<path style=" stroke:none;fill-rule:nonzero;fill:rgb(0%,0%,0%);fill-opacity:1;" d="M 335.480469 314.433594 L 335.480469 315.015625 L 330.046875 315.015625 C 330.101562 315.832031 330.335938 316.460938 330.785156 316.882812 C 331.21875 317.304688 331.824219 317.515625 332.613281 317.515625 C 333.058594 317.515625 333.507812 317.464844 333.929688 317.359375 C 334.351562 317.253906 334.785156 317.082031 335.207031 316.84375 L 335.207031 317.964844 C 334.785156 318.148438 334.351562 318.292969 333.902344 318.371094 C 333.457031 318.449219 332.996094 318.503906 332.546875 318.503906 C 331.390625 318.503906 330.480469 318.175781 329.808594 317.515625 C 329.140625 316.859375 328.808594 315.949219 328.808594 314.804688 C 328.808594 313.628906 329.125 312.695312 329.757812 311.996094 C 330.390625 311.3125 331.257812 310.957031 332.335938 310.957031 C 333.308594 310.957031 334.074219 311.273438 334.640625 311.890625 C 335.191406 312.523438 335.480469 313.367188 335.480469 314.433594 Z M 334.296875 314.09375 C 334.285156 313.445312 334.101562 312.933594 333.757812 312.539062 C 333.402344 312.15625 332.929688 311.957031 332.351562 311.957031 C 331.691406 311.957031 331.164062 312.15625 330.769531 312.523438 C 330.375 312.894531 330.140625 313.421875 330.085938 314.09375 Z M 334.296875 314.09375 "/>
<path style=" stroke:none;fill-rule:nonzero;fill:rgb(0%,0%,0%);fill-opacity:1;" d="M 343.574219 314.433594 L 343.574219 315.015625 L 338.140625 315.015625 C 338.191406 315.832031 338.429688 316.460938 338.875 316.882812 C 339.308594 317.304688 339.914062 317.515625 340.707031 317.515625 C 341.152344 317.515625 341.601562 317.464844 342.019531 317.359375 C 342.441406 317.253906 342.875 317.082031 343.296875 316.84375 L 343.296875 317.964844 C 342.875 318.148438 342.441406 318.292969 341.996094 318.371094 C 341.546875 318.449219 341.085938 318.503906 340.640625 318.503906 C 339.480469 318.503906 338.574219 318.175781 337.902344 317.515625 C 337.230469 316.859375 336.902344 315.949219 336.902344 314.804688 C 336.902344 313.628906 337.21875 312.695312 337.851562 311.996094 C 338.480469 311.3125 339.351562 310.957031 340.429688 310.957031 C 341.402344 310.957031 342.164062 311.273438 342.730469 311.890625 C 343.285156 312.523438 343.574219 313.367188 343.574219 314.433594 Z M 342.390625 314.09375 C 342.375 313.445312 342.191406 312.933594 341.851562 312.539062 C 341.496094 312.15625 341.019531 311.957031 340.441406 311.957031 C 339.785156 311.957031 339.257812 312.15625 338.863281 312.523438 C 338.46875 312.894531 338.230469 313.421875 338.179688 314.09375 Z M 342.390625 314.09375 "/>
<path style=" stroke:none;fill-rule:nonzero;fill:rgb(0%,0%,0%);fill-opacity:1;" d="M 350.246094 312.222656 L 350.246094 308.324219 L 351.429688 308.324219 L 351.429688 318.332031 L 350.246094 318.332031 L 350.246094 317.253906 C 349.996094 317.6875 349.679688 318.003906 349.296875 318.199219 C 348.914062 318.398438 348.46875 318.503906 347.941406 318.503906 C 347.074219 318.503906 346.363281 318.160156 345.808594 317.476562 C 345.257812 316.792969 344.996094 315.871094 344.996094 314.738281 C 344.996094 313.605469 345.257812 312.695312 345.808594 311.996094 C 346.363281 311.3125 347.074219 310.957031 347.941406 310.957031 C 348.46875 310.957031 348.914062 311.0625 349.296875 311.273438 C 349.679688 311.484375 349.996094 311.800781 350.246094 312.222656 Z M 346.21875 314.738281 C 346.21875 315.605469 346.390625 316.292969 346.746094 316.792969 C 347.101562 317.292969 347.585938 317.527344 348.21875 317.527344 C 348.851562 317.527344 349.335938 317.292969 349.707031 316.792969 C 350.058594 316.292969 350.246094 315.605469 350.246094 314.738281 C 350.246094 313.867188 350.058594 313.195312 349.707031 312.695312 C 349.335938 312.195312 348.851562 311.945312 348.21875 311.945312 C 347.585938 311.945312 347.101562 312.195312 346.746094 312.695312 C 346.390625 313.195312 346.21875 313.867188 346.21875 314.738281 Z M 346.21875 314.738281 "/>
<path style=" stroke:none;fill-rule:nonzero;fill:rgb(0%,0%,0%);fill-opacity:1;" d="M 360.890625 308.335938 C 360.308594 309.335938 359.890625 310.3125 359.613281 311.273438 C 359.324219 312.234375 359.191406 313.210938 359.191406 314.195312 C 359.191406 315.199219 359.324219 316.171875 359.613281 317.132812 C 359.890625 318.109375 360.308594 319.070312 360.890625 320.058594 L 359.863281 320.058594 C 359.21875 319.042969 358.730469 318.070312 358.414062 317.09375 C 358.101562 316.121094 357.941406 315.160156 357.941406 314.195312 C 357.941406 313.25 358.101562 312.289062 358.414062 311.3125 C 358.730469 310.339844 359.207031 309.351562 359.863281 308.335938 Z M 360.890625 308.335938 "/>
<path style=" stroke:none;fill-rule:nonzero;fill:rgb(0%,0%,0%);fill-opacity:1;" d="M 367.125 309.613281 C 366.179688 309.613281 365.429688 309.96875 364.875 310.667969 C 364.324219 311.378906 364.046875 312.328125 364.046875 313.539062 C 364.046875 314.75 364.324219 315.710938 364.875 316.410156 C 365.429688 317.121094 366.179688 317.464844 367.125 317.464844 C 368.058594 317.464844 368.808594 317.121094 369.363281 316.410156 C 369.914062 315.710938 370.191406 314.75 370.191406 313.539062 C 370.191406 312.328125 369.914062 311.378906 369.363281 310.667969 C 368.808594 309.96875 368.058594 309.613281 367.125 309.613281 Z M 367.125 308.558594 C 368.46875 308.558594 369.535156 309.019531 370.351562 309.917969 C 371.152344 310.8125 371.558594 312.023438 371.558594 313.539062 C 371.558594 315.066406 371.152344 316.265625 370.351562 317.160156 C 369.535156 318.054688 368.46875 318.503906 367.125 318.503906 C 365.769531 318.503906 364.691406 318.054688 363.890625 317.160156 C 363.074219 316.265625 362.679688 315.066406 362.679688 313.539062 C 362.679688 312.023438 363.074219 310.8125 363.890625 309.917969 C 364.691406 309.019531 365.769531 308.558594 367.125 308.558594 Z M 367.125 308.558594 "/>
<path style=" stroke:none;fill-rule:nonzero;fill:rgb(0%,0%,0%);fill-opacity:1;" d="M 379.335938 309.046875 L 379.335938 310.3125 C 378.835938 310.074219 378.375 309.902344 377.941406 309.785156 C 377.496094 309.679688 377.074219 309.613281 376.679688 309.613281 C 375.96875 309.613281 375.414062 309.757812 375.035156 310.023438 C 374.652344 310.296875 374.46875 310.695312 374.46875 311.195312 C 374.46875 311.617188 374.585938 311.945312 374.851562 312.15625 C 375.101562 312.378906 375.585938 312.550781 376.296875 312.683594 L 377.085938 312.839844 C 378.046875 313.023438 378.757812 313.355469 379.21875 313.816406 C 379.679688 314.289062 379.914062 314.910156 379.914062 315.683594 C 379.914062 316.621094 379.601562 317.320312 378.980469 317.792969 C 378.351562 318.265625 377.441406 318.503906 376.246094 318.503906 C 375.785156 318.503906 375.296875 318.449219 374.785156 318.359375 C 374.269531 318.265625 373.746094 318.121094 373.207031 317.910156 L 373.207031 316.566406 C 373.730469 316.871094 374.246094 317.09375 374.746094 317.238281 C 375.246094 317.398438 375.746094 317.464844 376.246094 317.464844 C 376.980469 317.464844 377.546875 317.320312 377.957031 317.027344 C 378.351562 316.738281 378.558594 316.332031 378.558594 315.777344 C 378.558594 315.304688 378.414062 314.933594 378.125 314.671875 C 377.835938 314.40625 377.363281 314.210938 376.707031 314.078125 L 375.914062 313.921875 C 374.941406 313.734375 374.246094 313.433594 373.808594 313.011719 C 373.375 312.605469 373.164062 312.039062 373.164062 311.300781 C 373.164062 310.457031 373.457031 309.785156 374.058594 309.296875 C 374.652344 308.8125 375.480469 308.558594 376.535156 308.558594 C 376.980469 308.558594 377.429688 308.601562 377.902344 308.679688 C 378.363281 308.757812 378.835938 308.890625 379.335938 309.046875 Z M 379.335938 309.046875 "/>
<path style=" stroke:none;fill-rule:nonzero;fill:rgb(0%,0%,0%);fill-opacity:1;" d="M 381.707031 308.335938 L 382.730469 308.335938 C 383.363281 309.351562 383.851562 310.339844 384.164062 311.3125 C 384.480469 312.289062 384.652344 313.25 384.652344 314.195312 C 384.652344 315.160156 384.480469 316.121094 384.164062 317.09375 C 383.851562 318.070312 383.363281 319.042969 382.730469 320.058594 L 381.707031 320.058594 C 382.269531 319.070312 382.691406 318.109375 382.980469 317.132812 C 383.257812 316.171875 383.402344 315.199219 383.402344 314.195312 C 383.402344 313.210938 383.257812 312.234375 382.980469 311.273438 C 382.691406 310.3125 382.269531 309.335938 381.707031 308.335938 Z M 381.707031 308.335938 "/>
<path style="fill:none;stroke-width:2.5;stroke-linecap:butt;stroke-linejoin:round;stroke:rgb(100%,0%,0%);stroke-opacity:1;stroke-dasharray:9.25,4;stroke-miterlimit:4;" d="M 169.046563 252.87834 L 189.047031 252.87834 " transform="matrix(1.315789,0,0,1.317024,0,0.000000000000029946)"/>
<path style=" stroke:none;fill-rule:nonzero;fill:rgb(0%,0%,0%);fill-opacity:1;" d="M 261.863281 329.121094 L 261.863281 336.589844 L 263.429688 336.589844 C 264.746094 336.589844 265.71875 336.300781 266.335938 335.695312 C 266.941406 335.085938 267.257812 334.140625 267.257812 332.847656 C 267.257812 331.558594 266.941406 330.625 266.335938 330.015625 C 265.71875 329.425781 264.746094 329.121094 263.429688 329.121094 Z M 260.558594 328.054688 L 263.230469 328.054688 C 265.085938 328.054688 266.457031 328.449219 267.324219 329.214844 C 268.191406 329.992188 268.625 331.203125 268.625 332.847656 C 268.625 334.507812 268.179688 335.71875 267.308594 336.496094 C 266.441406 337.273438 265.074219 337.65625 263.230469 337.65625 L 260.558594 337.65625 Z M 260.558594 328.054688 "/>
<path style=" stroke:none;fill-rule:nonzero;fill:rgb(0%,0%,0%);fill-opacity:1;" d="M 276.796875 333.757812 L 276.796875 334.335938 L 271.363281 334.335938 C 271.414062 335.152344 271.652344 335.785156 272.101562 336.207031 C 272.535156 336.628906 273.140625 336.839844 273.929688 336.839844 C 274.375 336.839844 274.824219 336.785156 275.246094 336.679688 C 275.664062 336.574219 276.101562 336.40625 276.519531 336.167969 L 276.519531 337.289062 C 276.101562 337.472656 275.664062 337.617188 275.21875 337.695312 C 274.769531 337.773438 274.308594 337.828125 273.863281 337.828125 C 272.707031 337.828125 271.796875 337.496094 271.125 336.839844 C 270.457031 336.179688 270.125 335.273438 270.125 334.125 C 270.125 332.953125 270.441406 332.019531 271.074219 331.320312 C 271.707031 330.636719 272.574219 330.28125 273.652344 330.28125 C 274.625 330.28125 275.390625 330.597656 275.957031 331.214844 C 276.507812 331.847656 276.796875 332.691406 276.796875 333.757812 Z M 275.613281 333.414062 C 275.601562 332.769531 275.414062 332.257812 275.074219 331.859375 C 274.71875 331.480469 274.246094 331.28125 273.664062 331.28125 C 273.007812 331.28125 272.480469 331.480469 272.085938 331.847656 C 271.691406 332.214844 271.457031 332.742188 271.402344 333.414062 Z M 275.613281 333.414062 "/>
<path style=" stroke:none;fill-rule:nonzero;fill:rgb(0%,0%,0%);fill-opacity:1;" d="M 283.324219 330.664062 L 283.324219 331.78125 C 282.980469 331.625 282.640625 331.492188 282.285156 331.398438 C 281.914062 331.320312 281.546875 331.269531 281.164062 331.269531 C 280.574219 331.269531 280.125 331.359375 279.835938 331.546875 C 279.546875 331.730469 279.402344 331.992188 279.402344 332.347656 C 279.402344 332.625 279.507812 332.835938 279.71875 332.992188 C 279.929688 333.152344 280.351562 333.308594 280.980469 333.441406 L 281.390625 333.535156 C 282.230469 333.71875 282.824219 333.980469 283.179688 334.296875 C 283.519531 334.625 283.707031 335.085938 283.707031 335.667969 C 283.707031 336.339844 283.441406 336.867188 282.914062 337.246094 C 282.390625 337.644531 281.652344 337.828125 280.730469 337.828125 C 280.335938 337.828125 279.941406 337.789062 279.519531 337.722656 C 279.101562 337.65625 278.664062 337.550781 278.207031 337.394531 L 278.207031 336.167969 C 278.640625 336.40625 279.074219 336.574219 279.496094 336.679688 C 279.914062 336.800781 280.335938 336.851562 280.757812 336.851562 C 281.308594 336.851562 281.746094 336.761719 282.046875 336.574219 C 282.335938 336.390625 282.496094 336.113281 282.496094 335.757812 C 282.496094 335.445312 282.375 335.191406 282.164062 335.023438 C 281.957031 334.851562 281.480469 334.679688 280.746094 334.523438 L 280.335938 334.429688 C 279.601562 334.269531 279.058594 334.035156 278.746094 333.71875 C 278.414062 333.402344 278.257812 332.96875 278.257812 332.402344 C 278.257812 331.730469 278.496094 331.203125 278.96875 330.832031 C 279.441406 330.464844 280.125 330.28125 281.019531 330.28125 C 281.457031 330.28125 281.863281 330.320312 282.257812 330.386719 C 282.640625 330.453125 282.996094 330.542969 283.324219 330.664062 Z M 283.324219 330.664062 "/>
<path style=" stroke:none;fill-rule:nonzero;fill:rgb(0%,0%,0%);fill-opacity:1;" d="M 285.585938 330.453125 L 286.769531 330.453125 L 286.769531 337.65625 L 285.585938 337.65625 Z M 285.585938 327.648438 L 286.769531 327.648438 L 286.769531 329.148438 L 285.585938 329.148438 Z M 285.585938 327.648438 "/>
<path style=" stroke:none;fill-rule:nonzero;fill:rgb(0%,0%,0%);fill-opacity:1;" d="M 293.414062 331.558594 C 293.285156 331.480469 293.140625 331.425781 292.980469 331.386719 C 292.824219 331.359375 292.652344 331.335938 292.46875 331.335938 C 291.796875 331.335938 291.285156 331.558594 290.929688 331.992188 C 290.558594 332.425781 290.390625 333.046875 290.390625 333.863281 L 290.390625 337.65625 L 289.207031 337.65625 L 289.207031 330.453125 L 290.390625 330.453125 L 290.390625 331.570312 C 290.625 331.136719 290.957031 330.808594 291.351562 330.597656 C 291.746094 330.386719 292.230469 330.28125 292.808594 330.28125 C 292.890625 330.28125 292.980469 330.292969 293.085938 330.292969 C 293.179688 330.308594 293.285156 330.320312 293.414062 330.347656 Z M 293.414062 331.558594 "/>
<path style=" stroke:none;fill-rule:nonzero;fill:rgb(0%,0%,0%);fill-opacity:1;" d="M 300.523438 333.757812 L 300.523438 334.335938 L 295.089844 334.335938 C 295.140625 335.152344 295.378906 335.785156 295.828125 336.207031 C 296.261719 336.628906 296.867188 336.839844 297.65625 336.839844 C 298.101562 336.839844 298.550781 336.785156 298.972656 336.679688 C 299.390625 336.574219 299.828125 336.40625 300.246094 336.167969 L 300.246094 337.289062 C 299.828125 337.472656 299.390625 337.617188 298.945312 337.695312 C 298.496094 337.773438 298.035156 337.828125 297.589844 337.828125 C 296.429688 337.828125 295.523438 337.496094 294.851562 336.839844 C 294.179688 336.179688 293.851562 335.273438 293.851562 334.125 C 293.851562 332.953125 294.167969 332.019531 294.800781 331.320312 C 295.429688 330.636719 296.300781 330.28125 297.378906 330.28125 C 298.351562 330.28125 299.117188 330.597656 299.679688 331.214844 C 300.234375 331.847656 300.523438 332.691406 300.523438 333.757812 Z M 299.339844 333.414062 C 299.328125 332.769531 299.140625 332.257812 298.800781 331.859375 C 298.445312 331.480469 297.972656 331.28125 297.390625 331.28125 C 296.734375 331.28125 296.207031 331.480469 295.8125 331.847656 C 295.417969 332.214844 295.179688 332.742188 295.128906 333.414062 Z M 299.339844 333.414062 "/>
<path style=" stroke:none;fill-rule:nonzero;fill:rgb(0%,0%,0%);fill-opacity:1;" d="M 307.195312 331.546875 L 307.195312 327.648438 L 308.378906 327.648438 L 308.378906 337.65625 L 307.195312 337.65625 L 307.195312 336.574219 C 306.945312 337.011719 306.628906 337.328125 306.246094 337.523438 C 305.867188 337.722656 305.417969 337.828125 304.890625 337.828125 C 304.023438 337.828125 303.3125 337.484375 302.761719 336.800781 C 302.207031 336.113281 301.945312 335.191406 301.945312 334.058594 C 301.945312 332.929688 302.207031 332.019531 302.761719 331.320312 C 303.3125 330.636719 304.023438 330.28125 304.890625 330.28125 C 305.417969 330.28125 305.867188 330.386719 306.246094 330.597656 C 306.628906 330.808594 306.945312 331.125 307.195312 331.546875 Z M 303.167969 334.058594 C 303.167969 334.929688 303.339844 335.613281 303.695312 336.113281 C 304.050781 336.617188 304.535156 336.851562 305.167969 336.851562 C 305.800781 336.851562 306.285156 336.617188 306.65625 336.113281 C 307.011719 335.613281 307.195312 334.929688 307.195312 334.058594 C 307.195312 333.191406 307.011719 332.519531 306.65625 332.019531 C 306.285156 331.519531 305.800781 331.269531 305.167969 331.269531 C 304.535156 331.269531 304.050781 331.519531 303.695312 332.019531 C 303.339844 332.519531 303.167969 333.191406 303.167969 334.058594 Z M 303.167969 334.058594 "/>
<path style=" stroke:none;fill-rule:nonzero;fill:rgb(0%,0%,0%);fill-opacity:1;" d="M 319.589844 330.664062 L 319.589844 331.78125 C 319.246094 331.625 318.90625 331.492188 318.550781 331.398438 C 318.179688 331.320312 317.8125 331.269531 317.429688 331.269531 C 316.839844 331.269531 316.390625 331.359375 316.101562 331.546875 C 315.8125 331.730469 315.667969 331.992188 315.667969 332.347656 C 315.667969 332.625 315.773438 332.835938 315.984375 332.992188 C 316.195312 333.152344 316.617188 333.308594 317.246094 333.441406 L 317.65625 333.535156 C 318.496094 333.71875 319.089844 333.980469 319.445312 334.296875 C 319.785156 334.625 319.972656 335.085938 319.972656 335.667969 C 319.972656 336.339844 319.707031 336.867188 319.179688 337.246094 C 318.65625 337.644531 317.917969 337.828125 316.996094 337.828125 C 316.601562 337.828125 316.207031 337.789062 315.785156 337.722656 C 315.367188 337.65625 314.929688 337.550781 314.472656 337.394531 L 314.472656 336.167969 C 314.90625 336.40625 315.339844 336.574219 315.761719 336.679688 C 316.179688 336.800781 316.601562 336.851562 317.023438 336.851562 C 317.578125 336.851562 318.011719 336.761719 318.3125 336.574219 C 318.601562 336.390625 318.761719 336.113281 318.761719 335.757812 C 318.761719 335.445312 318.640625 335.191406 318.429688 335.023438 C 318.222656 334.851562 317.746094 334.679688 317.011719 334.523438 L 316.601562 334.429688 C 315.867188 334.269531 315.328125 334.035156 315.011719 333.71875 C 314.679688 333.402344 314.523438 332.96875 314.523438 332.402344 C 314.523438 331.730469 314.761719 331.203125 315.234375 330.832031 C 315.707031 330.464844 316.390625 330.28125 317.285156 330.28125 C 317.722656 330.28125 318.128906 330.320312 318.523438 330.386719 C 318.90625 330.453125 319.261719 330.542969 319.589844 330.664062 Z M 319.589844 330.664062 "/>
<path style=" stroke:none;fill-rule:nonzero;fill:rgb(0%,0%,0%);fill-opacity:1;" d="M 322.996094 336.574219 L 322.996094 340.382812 L 321.8125 340.382812 L 321.8125 330.453125 L 322.996094 330.453125 L 322.996094 331.546875 C 323.234375 331.125 323.550781 330.808594 323.929688 330.597656 C 324.3125 330.386719 324.773438 330.28125 325.300781 330.28125 C 326.167969 330.28125 326.878906 330.636719 327.429688 331.320312 C 327.972656 332.019531 328.246094 332.929688 328.246094 334.058594 C 328.246094 335.191406 327.972656 336.113281 327.429688 336.800781 C 326.878906 337.484375 326.167969 337.828125 325.300781 337.828125 C 324.773438 337.828125 324.3125 337.722656 323.929688 337.523438 C 323.550781 337.328125 323.234375 337.011719 322.996094 336.574219 Z M 327.023438 334.058594 C 327.023438 333.191406 326.839844 332.519531 326.484375 332.019531 C 326.117188 331.519531 325.628906 331.269531 325.011719 331.269531 C 324.378906 331.269531 323.890625 331.519531 323.535156 332.019531 C 323.167969 332.519531 322.996094 333.191406 322.996094 334.058594 C 322.996094 334.929688 323.167969 335.613281 323.535156 336.113281 C 323.890625 336.617188 324.378906 336.851562 325.011719 336.851562 C 325.628906 336.851562 326.117188 336.617188 326.484375 336.113281 C 326.839844 335.613281 327.023438 334.929688 327.023438 334.058594 Z M 327.023438 334.058594 "/>
<path style=" stroke:none;fill-rule:nonzero;fill:rgb(0%,0%,0%);fill-opacity:1;" d="M 336.367188 333.757812 L 336.367188 334.335938 L 330.929688 334.335938 C 330.984375 335.152344 331.222656 335.785156 331.667969 336.207031 C 332.101562 336.628906 332.707031 336.839844 333.496094 336.839844 C 333.945312 336.839844 334.390625 336.785156 334.8125 336.679688 C 335.234375 336.574219 335.667969 336.40625 336.089844 336.167969 L 336.089844 337.289062 C 335.667969 337.472656 335.234375 337.617188 334.785156 337.695312 C 334.339844 337.773438 333.878906 337.828125 333.429688 337.828125 C 332.273438 337.828125 331.367188 337.496094 330.695312 336.839844 C 330.023438 336.179688 329.695312 335.273438 329.695312 334.125 C 329.695312 332.953125 330.011719 332.019531 330.640625 331.320312 C 331.273438 330.636719 332.140625 330.28125 333.222656 330.28125 C 334.195312 330.28125 334.957031 330.597656 335.523438 331.214844 C 336.078125 331.847656 336.367188 332.691406 336.367188 333.757812 Z M 335.179688 333.414062 C 335.167969 332.769531 334.984375 332.257812 334.640625 331.859375 C 334.285156 331.480469 333.8125 331.28125 333.234375 331.28125 C 332.578125 331.28125 332.050781 331.480469 331.65625 331.847656 C 331.261719 332.214844 331.023438 332.742188 330.972656 333.414062 Z M 335.179688 333.414062 "/>
<path style=" stroke:none;fill-rule:nonzero;fill:rgb(0%,0%,0%);fill-opacity:1;" d="M 344.457031 333.757812 L 344.457031 334.335938 L 339.023438 334.335938 C 339.078125 335.152344 339.3125 335.785156 339.761719 336.207031 C 340.195312 336.628906 340.800781 336.839844 341.589844 336.839844 C 342.035156 336.839844 342.484375 336.785156 342.90625 336.679688 C 343.328125 336.574219 343.761719 336.40625 344.179688 336.167969 L 344.179688 337.289062 C 343.761719 337.472656 343.328125 337.617188 342.878906 337.695312 C 342.429688 337.773438 341.972656 337.828125 341.523438 337.828125 C 340.367188 337.828125 339.457031 337.496094 338.785156 336.839844 C 338.117188 336.179688 337.785156 335.273438 337.785156 334.125 C 337.785156 332.953125 338.101562 332.019531 338.734375 331.320312 C 339.367188 330.636719 340.234375 330.28125 341.3125 330.28125 C 342.285156 330.28125 343.050781 330.597656 343.617188 331.214844 C 344.167969 331.847656 344.457031 332.691406 344.457031 333.757812 Z M 343.273438 333.414062 C 343.261719 332.769531 343.078125 332.257812 342.734375 331.859375 C 342.378906 331.480469 341.90625 331.28125 341.328125 331.28125 C 340.667969 331.28125 340.140625 331.480469 339.746094 331.847656 C 339.351562 332.214844 339.117188 332.742188 339.0625 333.414062 Z M 343.273438 333.414062 "/>
<path style=" stroke:none;fill-rule:nonzero;fill:rgb(0%,0%,0%);fill-opacity:1;" d="M 351.128906 331.546875 L 351.128906 327.648438 L 352.3125 327.648438 L 352.3125 337.65625 L 351.128906 337.65625 L 351.128906 336.574219 C 350.878906 337.011719 350.5625 337.328125 350.179688 337.523438 C 349.800781 337.722656 349.351562 337.828125 348.828125 337.828125 C 347.957031 337.828125 347.246094 337.484375 346.695312 336.800781 C 346.140625 336.113281 345.878906 335.191406 345.878906 334.058594 C 345.878906 332.929688 346.140625 332.019531 346.695312 331.320312 C 347.246094 330.636719 347.957031 330.28125 348.828125 330.28125 C 349.351562 330.28125 349.800781 330.386719 350.179688 330.597656 C 350.5625 330.808594 350.878906 331.125 351.128906 331.546875 Z M 347.101562 334.058594 C 347.101562 334.929688 347.273438 335.613281 347.628906 336.113281 C 347.984375 336.617188 348.472656 336.851562 349.101562 336.851562 C 349.734375 336.851562 350.222656 336.617188 350.589844 336.113281 C 350.945312 335.613281 351.128906 334.929688 351.128906 334.058594 C 351.128906 333.191406 350.945312 332.519531 350.589844 332.019531 C 350.222656 331.519531 349.734375 331.269531 349.101562 331.269531 C 348.472656 331.269531 347.984375 331.519531 347.628906 332.019531 C 347.273438 332.519531 347.101562 333.191406 347.101562 334.058594 Z M 347.101562 334.058594 "/>
<path style=" stroke:none;fill-rule:nonzero;fill:rgb(0%,0%,0%);fill-opacity:1;" d="M 361.773438 327.660156 C 361.195312 328.660156 360.773438 329.636719 360.496094 330.597656 C 360.207031 331.558594 360.078125 332.53125 360.078125 333.519531 C 360.078125 334.523438 360.207031 335.496094 360.496094 336.457031 C 360.773438 337.433594 361.195312 338.394531 361.773438 339.382812 L 360.746094 339.382812 C 360.101562 338.367188 359.617188 337.394531 359.300781 336.417969 C 358.984375 335.445312 358.828125 334.480469 358.828125 333.519531 C 358.828125 332.574219 358.984375 331.609375 359.300781 330.636719 C 359.617188 329.660156 360.089844 328.675781 360.746094 327.660156 Z M 361.773438 327.660156 "/>
<path style=" stroke:none;fill-rule:nonzero;fill:rgb(0%,0%,0%);fill-opacity:1;" d="M 368.011719 328.9375 C 367.0625 328.9375 366.3125 329.292969 365.761719 329.992188 C 365.207031 330.703125 364.929688 331.648438 364.929688 332.863281 C 364.929688 334.074219 365.207031 335.035156 365.761719 335.734375 C 366.3125 336.445312 367.0625 336.785156 368.011719 336.785156 C 368.945312 336.785156 369.695312 336.445312 370.246094 335.734375 C 370.800781 335.035156 371.078125 334.074219 371.078125 332.863281 C 371.078125 331.648438 370.800781 330.703125 370.246094 329.992188 C 369.695312 329.292969 368.945312 328.9375 368.011719 328.9375 Z M 368.011719 327.882812 C 369.351562 327.882812 370.417969 328.34375 371.234375 329.238281 C 372.035156 330.136719 372.445312 331.347656 372.445312 332.863281 C 372.445312 334.390625 372.035156 335.589844 371.234375 336.484375 C 370.417969 337.378906 369.351562 337.828125 368.011719 337.828125 C 366.65625 337.828125 365.578125 337.378906 364.773438 336.484375 C 363.957031 335.589844 363.5625 334.390625 363.5625 332.863281 C 363.5625 331.347656 363.957031 330.136719 364.773438 329.238281 C 365.578125 328.34375 366.65625 327.882812 368.011719 327.882812 Z M 368.011719 327.882812 "/>
<path style=" stroke:none;fill-rule:nonzero;fill:rgb(0%,0%,0%);fill-opacity:1;" d="M 380.222656 328.371094 L 380.222656 329.636719 C 379.722656 329.398438 379.261719 329.226562 378.828125 329.109375 C 378.378906 329.003906 377.957031 328.9375 377.5625 328.9375 C 376.851562 328.9375 376.300781 329.082031 375.917969 329.34375 C 375.535156 329.621094 375.351562 330.015625 375.351562 330.519531 C 375.351562 330.9375 375.472656 331.269531 375.734375 331.480469 C 375.984375 331.703125 376.472656 331.875 377.179688 332.007812 L 377.972656 332.164062 C 378.929688 332.347656 379.640625 332.675781 380.101562 333.136719 C 380.5625 333.613281 380.800781 334.230469 380.800781 335.007812 C 380.800781 335.945312 380.484375 336.640625 379.867188 337.117188 C 379.234375 337.589844 378.328125 337.828125 377.128906 337.828125 C 376.667969 337.828125 376.179688 337.773438 375.667969 337.683594 C 375.15625 337.589844 374.628906 337.445312 374.089844 337.234375 L 374.089844 335.890625 C 374.617188 336.195312 375.128906 336.417969 375.628906 336.5625 C 376.128906 336.722656 376.628906 336.785156 377.128906 336.785156 C 377.867188 336.785156 378.429688 336.640625 378.839844 336.351562 C 379.234375 336.0625 379.445312 335.652344 379.445312 335.101562 C 379.445312 334.625 379.300781 334.257812 379.011719 333.996094 C 378.722656 333.730469 378.246094 333.535156 377.589844 333.402344 L 376.800781 333.242188 C 375.828125 333.058594 375.128906 332.757812 374.695312 332.335938 C 374.261719 331.925781 374.050781 331.359375 374.050781 330.625 C 374.050781 329.78125 374.339844 329.109375 374.945312 328.621094 C 375.535156 328.132812 376.367188 327.882812 377.417969 327.882812 C 377.867188 327.882812 378.3125 327.921875 378.785156 328.003906 C 379.246094 328.082031 379.722656 328.214844 380.222656 328.371094 Z M 380.222656 328.371094 "/>
<path style=" stroke:none;fill-rule:nonzero;fill:rgb(0%,0%,0%);fill-opacity:1;" d="M 382.589844 327.660156 L 383.617188 327.660156 C 384.246094 328.675781 384.734375 329.660156 385.050781 330.636719 C 385.367188 331.609375 385.535156 332.574219 385.535156 333.519531 C 385.535156 334.480469 385.367188 335.445312 385.050781 336.417969 C 384.734375 337.394531 384.246094 338.367188 383.617188 339.382812 L 382.589844 339.382812 C 383.15625 338.394531 383.578125 337.433594 383.867188 336.457031 C 384.140625 335.496094 384.285156 334.523438 384.285156 333.519531 C 384.285156 332.53125 384.140625 331.558594 383.867188 330.597656 C 383.578125 329.636719 383.15625 328.660156 382.589844 327.660156 Z M 382.589844 327.660156 "/>
</g>
</svg>
