<?xml version="1.0" encoding="UTF-8" standalone="no"?>
<!-- Created with Inkscape (http://www.inkscape.org/) -->

<svg
   version="1.1"
   id="svg1527"
   width="576"
   height="384"
   viewBox="0 0 576 384"
   sodipodi:docname="Colreg_cons.svg"
   inkscape:version="1.2.2 (732a01da63, 2022-12-09)"
   xmlns:inkscape="http://www.inkscape.org/namespaces/inkscape"
   xmlns:sodipodi="http://sodipodi.sourceforge.net/DTD/sodipodi-0.dtd"
   xmlns="http://www.w3.org/2000/svg"
   xmlns:svg="http://www.w3.org/2000/svg">
  <defs
     id="defs1531">
    <clipPath
       clipPathUnits="userSpaceOnUse"
       id="clipPath1547">
      <path
         d="M 116.02523,36 H 326.77477 V 253.44 H 116.02523 Z"
         id="path1545" />
    </clipPath>
    <clipPath
       clipPathUnits="userSpaceOnUse"
       id="clipPath1557">
      <path
         d="M 116.02523,36 H 326.77477 V 253.44 H 116.02523 Z"
         id="path1555" />
    </clipPath>
    <clipPath
       clipPathUnits="userSpaceOnUse"
       id="clipPath1567">
      <path
         d="M 116.02523,36 H 326.77477 V 253.44 H 116.02523 Z"
         id="path1565" />
    </clipPath>
    <clipPath
       clipPathUnits="userSpaceOnUse"
       id="clipPath1577">
      <path
         d="M 116.02523,36 H 326.77477 V 253.44 H 116.02523 Z"
         id="path1575" />
    </clipPath>
    <clipPath
       clipPathUnits="userSpaceOnUse"
       id="clipPath1587">
      <path
         d="M 116.02523,36 H 326.77477 V 253.44 H 116.02523 Z"
         id="path1585" />
    </clipPath>
    <clipPath
       clipPathUnits="userSpaceOnUse"
       id="clipPath1597">
      <path
         d="M 116.02523,36 H 326.77477 V 253.44 H 116.02523 Z"
         id="path1595" />
    </clipPath>
    <clipPath
       clipPathUnits="userSpaceOnUse"
       id="clipPath1607">
      <path
         d="M 116.02523,36 H 326.77477 V 253.44 H 116.02523 Z"
         id="path1605" />
    </clipPath>
    <clipPath
       clipPathUnits="userSpaceOnUse"
       id="clipPath1617">
      <path
         d="M 116.02523,36 H 326.77477 V 253.44 H 116.02523 Z"
         id="path1615" />
    </clipPath>
    <clipPath
       clipPathUnits="userSpaceOnUse"
       id="clipPath1627">
      <path
         d="M 116.02523,36 H 326.77477 V 253.44 H 116.02523 Z"
         id="path1625" />
    </clipPath>
    <clipPath
       clipPathUnits="userSpaceOnUse"
       id="clipPath1637">
      <path
         d="M 116.02523,36 H 326.77477 V 253.44 H 116.02523 Z"
         id="path1635" />
    </clipPath>
    <clipPath
       clipPathUnits="userSpaceOnUse"
       id="clipPath1647">
      <path
         d="M 116.02523,36 H 326.77477 V 253.44 H 116.02523 Z"
         id="path1645" />
    </clipPath>
    <clipPath
       clipPathUnits="userSpaceOnUse"
       id="clipPath1657">
      <path
         d="M 116.02523,36 H 326.77477 V 253.44 H 116.02523 Z"
         id="path1655" />
    </clipPath>
    <clipPath
       clipPathUnits="userSpaceOnUse"
       id="clipPath1667">
      <path
         d="M 116.02523,36 H 326.77477 V 253.44 H 116.02523 Z"
         id="path1665" />
    </clipPath>
    <clipPath
       clipPathUnits="userSpaceOnUse"
       id="clipPath1677">
      <path
         d="M 116.02523,36 H 326.77477 V 253.44 H 116.02523 Z"
         id="path1675" />
    </clipPath>
    <clipPath
       clipPathUnits="userSpaceOnUse"
       id="clipPath1687">
      <path
         d="M 116.02523,36 H 326.77477 V 253.44 H 116.02523 Z"
         id="path1685" />
    </clipPath>
    <clipPath
       clipPathUnits="userSpaceOnUse"
       id="clipPath1697">
      <path
         d="M 116.02523,36 H 326.77477 V 253.44 H 116.02523 Z"
         id="path1695" />
    </clipPath>
    <clipPath
       clipPathUnits="userSpaceOnUse"
       id="clipPath1719">
      <path
         d="M -1021,-463 H 1794 V 1233 H -1021 Z"
         id="path1717" />
    </clipPath>
    <clipPath
       clipPathUnits="userSpaceOnUse"
       id="clipPath1739">
      <path
         d="M -1021,-463 H 1794 V 1233 H -1021 Z"
         id="path1737" />
    </clipPath>
    <clipPath
       clipPathUnits="userSpaceOnUse"
       id="clipPath1759">
      <path
         d="M -1021,-463 H 1794 V 1233 H -1021 Z"
         id="path1757" />
    </clipPath>
    <clipPath
       clipPathUnits="userSpaceOnUse"
       id="clipPath1803">
      <path
         d="M -1021,-463 H 1794 V 1233 H -1021 Z"
         id="path1801" />
    </clipPath>
    <clipPath
       clipPathUnits="userSpaceOnUse"
       id="clipPath1823">
      <path
         d="M -1021,-463 H 1794 V 1233 H -1021 Z"
         id="path1821" />
    </clipPath>
    <clipPath
       clipPathUnits="userSpaceOnUse"
       id="clipPath1873">
      <path
         d="M 116.02523,36 H 326.77477 V 253.44 H 116.02523 Z"
         id="path1871" />
    </clipPath>
  </defs>
  <sodipodi:namedview
     id="namedview1529"
     pagecolor="#ffffff"
     bordercolor="#999999"
     borderopacity="1"
     inkscape:showpageshadow="0"
     inkscape:pageopacity="0"
     inkscape:pagecheckerboard="0"
     inkscape:deskcolor="#d1d1d1"
     showgrid="false"
     inkscape:zoom="1.4713542"
     inkscape:cx="288.16991"
     inkscape:cy="192.33982"
     inkscape:window-width="1366"
     inkscape:window-height="745"
     inkscape:window-x="-8"
     inkscape:window-y="-8"
     inkscape:window-maximized="1"
     inkscape:current-layer="g1535">
    <inkscape:page
       x="0"
       y="0"
       id="page1533"
       width="576"
       height="384" />
  </sodipodi:namedview>
  <g
     id="g1535"
     inkscape:groupmode="layer"
     inkscape:label="Page 1"
     transform="matrix(1.3333333,0,0,-1.3333333,0,384)">
    <path
       d="M 0,0 H 432 V 288 H 0 Z"
       style="fill:#ffffff;fill-opacity:1;fill-rule:nonzero;stroke:none"
       id="path1537" />
    <path
       d="M 116.02523,36 H 326.77477 V 253.44 H 116.02523 Z"
       style="fill:#ffffff;fill-opacity:1;fill-rule:nonzero;stroke:none"
       id="path1539" />
    <g
       id="g1541">
      <g
         id="g1543"
         clip-path="url(#clipPath1547)">
        <path
           d="m 228.65211,113.62284 6.58882,-1.16178 2.32357,13.17763 -6.58882,1.16179 z"
           style="fill:#0000ff;fill-opacity:1;fill-rule:nonzero;stroke:#000000;stroke-width:1;stroke-linecap:butt;stroke-linejoin:miter;stroke-miterlimit:10;stroke-dasharray:none;stroke-opacity:1"
           id="path1549" />
      </g>
    </g>
    <g
       id="g1551">
      <g
         id="g1553"
         clip-path="url(#clipPath1557)">
        <path
           d="M 260.71539,289 188.29921,87.598232 400.31217,289"
           style="fill:none;stroke:#ff0000;stroke-width:1.5;stroke-linecap:square;stroke-linejoin:round;stroke-miterlimit:10;stroke-dasharray:none;stroke-opacity:1"
           id="path1559" />
      </g>
    </g>
    <g
       id="g1561">
      <g
         id="g1563"
         clip-path="url(#clipPath1567)">
        <path
           d="M 309.32315,11.006648 188.29921,87.598232 315.23064,289"
           style="fill:none;stroke:#800080;stroke-width:1.5;stroke-linecap:square;stroke-linejoin:round;stroke-miterlimit:10;stroke-dasharray:none;stroke-opacity:1"
           id="path1569" />
      </g>
    </g>
    <g
       id="g1571">
      <g
         id="g1573"
         clip-path="url(#clipPath1577)">
        <path
           d="M 67.275267,164.18982 188.29921,87.598232 315.23064,289"
           style="fill:none;stroke:#800080;stroke-width:1.5;stroke-linecap:square;stroke-linejoin:round;stroke-miterlimit:10;stroke-dasharray:none;stroke-opacity:1"
           id="path1579" />
      </g>
    </g>
    <g
       id="g1581">
      <g
         id="g1583"
         clip-path="url(#clipPath1587)">
        <path
           d="m 260.71539,289 -41.34963,-115.00037 -3.48535,-19.76646 1.52906,-5.51361 1.7162,-4.71524 2.37276,-5.20653 9.88322,-1.74268 11.00221,4.00448 5.26645,2.91924 L 400.31217,289"
           style="fill:none;stroke:#000000;stroke-width:1.5;stroke-linecap:square;stroke-linejoin:round;stroke-miterlimit:10;stroke-dasharray:none;stroke-opacity:1"
           id="path1589" />
      </g>
    </g>
    <g
       id="g1591">
      <g
         id="g1593"
         clip-path="url(#clipPath1597)">
        <path
           d="m 423.73145,727.08553 -5.91078,-1.14894 -198.45491,-551.93696 -3.48535,-19.76646 1.52906,-5.51361 1.7162,-4.71524 2.37276,-5.20653 9.88322,-1.74268 11.00221,4.00448 5.26645,2.91924 370.50145,351.95795 -3.25748,8.94984 z"
           style="fill:#ff0000;fill-opacity:1;fill-rule:nonzero;stroke:none"
           id="path1599" />
      </g>
    </g>
    <g
       id="g1601">
      <g
         id="g1603"
         clip-path="url(#clipPath1607)">
        <path
           d="m 266.68583,289 -42.96186,-119.48426 -3.48536,-19.76646 1.7162,-4.71523 9.88323,-1.74268 11.00221,4.00447 L 392.01033,289"
           style="fill:none;stroke:#000000;stroke-width:1.5;stroke-linecap:square;stroke-linejoin:round;stroke-miterlimit:10;stroke-dasharray:none;stroke-opacity:1"
           id="path1609" />
      </g>
    </g>
    <g
       id="g1611">
      <g
         id="g1613"
         clip-path="url(#clipPath1617)">
        <path
           d="m 422.17887,721.4527 -198.4549,-551.93696 -3.48536,-19.76646 1.7162,-4.71523 9.88323,-1.74268 11.00221,4.00447 370.50145,351.95795 z"
           style="fill:#fa8072;fill-opacity:1;fill-rule:nonzero;stroke:none"
           id="path1619" />
      </g>
    </g>
    <g
       id="g1621">
      <g
         id="g1623"
         clip-path="url(#clipPath1627)">
        <path
           d="M 309.32315,11.006648 188.29921,87.598232 315.23064,289"
           style="fill:none;stroke:#800080;stroke-width:1.5;stroke-linecap:butt;stroke-linejoin:round;stroke-miterlimit:10;stroke-dasharray:5.55, 2.4;stroke-dashoffset:0;stroke-opacity:1"
           id="path1629" />
      </g>
    </g>
    <g
       id="g1631">
      <g
         id="g1633"
         clip-path="url(#clipPath1637)">
        <path
           d="m 315.44196,197.84365 6.97072,39.53291 -3.43241,9.43046 -19.76645,3.48536 -22.00442,-8.00895 -6.97072,-39.53291 3.43241,-9.43047 19.76645,-3.48536 z"
           style="fill:#ffff00;fill-opacity:1;fill-rule:nonzero;stroke:#000000;stroke-width:1;stroke-linecap:butt;stroke-linejoin:miter;stroke-miterlimit:10;stroke-dasharray:none;stroke-opacity:1"
           id="path1639" />
      </g>
    </g>
    <g
       id="g1641">
      <g
         id="g1643"
         clip-path="url(#clipPath1647)">
        <path
           d="m 279.15107,214.76637 3.43241,-9.43047 6.58882,-1.16178 22.00442,8.00895 2.32357,13.17764 -3.43241,9.43046 -6.58882,1.16179 -22.00442,-8.00896 z"
           style="fill:#ffa500;fill-opacity:1;fill-rule:nonzero;stroke:#000000;stroke-width:1;stroke-linecap:butt;stroke-linejoin:miter;stroke-miterlimit:10;stroke-dasharray:none;stroke-opacity:1"
           id="path1649" />
      </g>
    </g>
    <g
       id="g1651">
      <g
         id="g1653"
         clip-path="url(#clipPath1657)">
        <path
           d="m 283.60727,220.77429 3.4324,-9.43046 22.00443,8.00895 -3.43241,9.43047 z"
           style="fill:#ff0000;fill-opacity:1;fill-rule:nonzero;stroke:#000000;stroke-width:1;stroke-linecap:butt;stroke-linejoin:miter;stroke-miterlimit:10;stroke-dasharray:none;stroke-opacity:1"
           id="path1659" />
      </g>
    </g>
    <g
       id="g1661">
      <g
         id="g1663"
         clip-path="url(#clipPath1667)">
        <path
           d="m 233.10831,119.07175 c 0.14825,0 0.29045,0.0589 0.39528,0.16373 0.10483,0.10484 0.16373,0.24704 0.16373,0.39529 0,0.14825 -0.0589,0.29045 -0.16373,0.39528 -0.10483,0.10483 -0.24703,0.16374 -0.39528,0.16374 -0.14826,0 -0.29046,-0.0589 -0.39529,-0.16374 -0.10483,-0.10483 -0.16373,-0.24703 -0.16373,-0.39528 0,-0.14825 0.0589,-0.29045 0.16373,-0.39529 0.10483,-0.10483 0.24703,-0.16373 0.39529,-0.16373 z"
           style="fill:#000000;fill-opacity:1;fill-rule:nonzero;stroke:#000000;stroke-width:1;stroke-linecap:butt;stroke-linejoin:round;stroke-miterlimit:10;stroke-dasharray:none;stroke-opacity:1"
           id="path1669" />
      </g>
    </g>
    <g
       id="g1671">
      <g
         id="g1673"
         clip-path="url(#clipPath1677)">
        <path
           d="m 296.32568,219.50452 c 0.14825,0 0.29045,0.0589 0.39528,0.16373 0.10484,0.10483 0.16374,0.24703 0.16374,0.39529 0,0.14825 -0.0589,0.29045 -0.16374,0.39528 -0.10483,0.10483 -0.24703,0.16373 -0.39528,0.16373 -0.14825,0 -0.29045,-0.0589 -0.39529,-0.16373 -0.10483,-0.10483 -0.16373,-0.24703 -0.16373,-0.39528 0,-0.14826 0.0589,-0.29046 0.16373,-0.39529 0.10484,-0.10483 0.24704,-0.16373 0.39529,-0.16373 z"
           style="fill:#000000;fill-opacity:1;fill-rule:nonzero;stroke:#000000;stroke-width:1;stroke-linecap:butt;stroke-linejoin:round;stroke-miterlimit:10;stroke-dasharray:none;stroke-opacity:1"
           id="path1679" />
      </g>
    </g>
    <g
       id="g1681">
      <g
         id="g1683"
         clip-path="url(#clipPath1687)">
        <path
           d="m 263.30966,207.04104 3.16227,3.16227 m -3.16227,0 3.16227,-3.16227"
           style="fill:#000000;fill-opacity:1;fill-rule:nonzero;stroke:#000000;stroke-width:1;stroke-linecap:butt;stroke-linejoin:round;stroke-miterlimit:10;stroke-dasharray:none;stroke-opacity:1"
           id="path1689" />
      </g>
    </g>
    <g
       id="g1691">
      <g
         id="g1693"
         clip-path="url(#clipPath1697)">
        <path
           d="m 188.29921,87.598232 8.51075,-5.318107 5.31811,8.51075 -8.51075,5.318107 z"
           style="fill:none;stroke:#800080;stroke-width:1;stroke-linecap:butt;stroke-linejoin:miter;stroke-miterlimit:10;stroke-dasharray:none;stroke-opacity:1"
           id="path1699" />
      </g>
    </g>
    <g
       id="g1867">
      <g
         id="g1869"
         clip-path="url(#clipPath1873)">
        <path
           d="m 296.68608,219.07334 -22.52309,-8.19774 1.711,-1.61999 -10.9832,-0.63344 8.82078,6.57463 -0.26939,-2.3408 22.5231,8.19774 0.7208,-1.9804"
           style="fill:#000000;fill-opacity:1;fill-rule:nonzero;stroke:none"
           id="path1875" />
      </g>
    </g>
    <g
       id="g1877">
      <path
         d="M 116.02523,36 V 253.44"
         style="fill:none;stroke:#000000;stroke-width:0.8;stroke-linecap:square;stroke-linejoin:miter;stroke-miterlimit:10;stroke-dasharray:none;stroke-opacity:1"
         id="path1879" />
      <path
         d="M 326.77477,36 V 253.44"
         style="fill:none;stroke:#000000;stroke-width:0.8;stroke-linecap:square;stroke-linejoin:miter;stroke-miterlimit:10;stroke-dasharray:none;stroke-opacity:1"
         id="path1881" />
      <path
         d="M 116.02523,36 H 326.77477"
         style="fill:none;stroke:#000000;stroke-width:0.8;stroke-linecap:square;stroke-linejoin:miter;stroke-miterlimit:10;stroke-dasharray:none;stroke-opacity:1"
         id="path1883" />
      <path
         d="M 116.02523,253.44 H 326.77477"
         style="fill:none;stroke:#000000;stroke-width:0.8;stroke-linecap:square;stroke-linejoin:miter;stroke-miterlimit:10;stroke-dasharray:none;stroke-opacity:1"
         id="path1885" />
      <g
         id="g1887"
         transform="translate(239.79877,115.95102)">
        <text
           xml:space="preserve"
           transform="scale(1,-1)"
           style="font-variant:normal;font-weight:normal;font-size:10px;font-family:'DejaVu Sans';-inkscape-font-specification:DejaVuSans;writing-mode:lr-tb;fill:#000000;fill-opacity:1;fill-rule:nonzero;stroke:none"
           id="text1891"><tspan
             x="0 7.8699999"
             y="0"
             sodipodi:role="line"
             id="tspan1889">OS</tspan></text>
      </g>
      <g
         id="g1893"
         transform="translate(251.50987,215.31264)">
        <text
           xml:space="preserve"
           transform="matrix(1,0,0,-1,0,0.703125)"
           style="font-style:italic;font-variant:normal;font-size:10px;font-family:'DejaVu Sans';-inkscape-font-specification:DejaVuSans-Oblique;writing-mode:lr-tb;fill:#000000;fill-opacity:1;fill-rule:nonzero;stroke:none"
           id="text1897"><tspan
             x="0"
             y="0"
             id="tspan1895">V</tspan></text>
        <text
           xml:space="preserve"
           transform="matrix(1,0,0,-1,6.8408203,-0.9375)"
           style="font-style:italic;font-variant:normal;font-size:7px;font-family:'DejaVu Sans';-inkscape-font-specification:DejaVuSans-Oblique;writing-mode:lr-tb;fill:#000000;fill-opacity:1;fill-rule:nonzero;stroke:none"
           id="text1901"><tspan
             x="0 4.2758789"
             y="0"
             sodipodi:role="line"
             id="tspan1899">TS</tspan></text>
      </g>
      <g
         id="g1903"
         transform="translate(166.20369,186.53538)">
        <text
           xml:space="preserve"
           transform="matrix(1,0,0,-1,0,0.703125)"
           style="font-style:italic;font-variant:normal;font-size:10px;font-family:'DejaVu Sans';-inkscape-font-specification:DejaVuSans-Oblique;writing-mode:lr-tb;fill:#800080;fill-opacity:1;fill-rule:nonzero;stroke:none"
           id="text1907"><tspan
             x="0"
             y="0"
             id="tspan1905">V</tspan></text>
        <text
           xml:space="preserve"
           transform="matrix(1,0,0,-1,6.8408203,-0.9375)"
           style="font-variant:normal;font-weight:normal;font-size:7px;font-family:'DejaVu Sans';-inkscape-font-specification:DejaVuSans;writing-mode:lr-tb;fill:#800080;fill-opacity:1;fill-rule:nonzero;stroke:none"
           id="text1911"><tspan
             x="0"
             y="0"
             id="tspan1909">1</tspan></text>
      </g>
      <g
         id="g1913"
         transform="translate(283.28677,119.63077)">
        <text
           xml:space="preserve"
           transform="matrix(1,0,0,-1,0,0.703125)"
           style="font-style:italic;font-variant:normal;font-size:10px;font-family:'DejaVu Sans';-inkscape-font-specification:DejaVuSans-Oblique;writing-mode:lr-tb;fill:#800080;fill-opacity:1;fill-rule:nonzero;stroke:none"
           id="text1917"><tspan
             x="0"
             y="0"
             id="tspan1915">V</tspan></text>
        <text
           xml:space="preserve"
           transform="matrix(1,0,0,-1,6.8408203,-0.9375)"
           style="font-variant:normal;font-weight:normal;font-size:7px;font-family:'DejaVu Sans';-inkscape-font-specification:DejaVuSans;writing-mode:lr-tb;fill:#800080;fill-opacity:1;fill-rule:nonzero;stroke:none"
           id="text1921"><tspan
             x="0"
             y="0"
             id="tspan1919">2</tspan></text>
      </g>
      <g
         id="g1923"
         transform="translate(166.20369,59.416615)">
        <text
           xml:space="preserve"
           transform="matrix(1,0,0,-1,0,0.703125)"
           style="font-style:italic;font-variant:normal;font-size:10px;font-family:'DejaVu Sans';-inkscape-font-specification:DejaVuSans-Oblique;writing-mode:lr-tb;fill:#800080;fill-opacity:1;fill-rule:nonzero;stroke:none"
           id="text1927"><tspan
             x="0"
             y="0"
             id="tspan1925">V</tspan></text>
        <text
           xml:space="preserve"
           transform="matrix(1,0,0,-1,6.8408203,-0.9375)"
           style="font-variant:normal;font-weight:normal;font-size:7px;font-family:'DejaVu Sans';-inkscape-font-specification:DejaVuSans;writing-mode:lr-tb;fill:#800080;fill-opacity:1;fill-rule:nonzero;stroke:none"
           id="text1931"><tspan
             x="0"
             y="0"
             id="tspan1929">3</tspan></text>
      </g>
    </g>
  </g>
</svg>
