<?xml version="1.0" encoding="UTF-8" standalone="no"?>
<!-- Created with Inkscape (http://www.inkscape.org/) -->

<svg
   version="1.1"
   id="svg2193"
   width="576"
   height="384"
   viewBox="0 0 576 384"
   sodipodi:docname="Colreg_cons_2.svg"
   inkscape:version="1.2.2 (732a01da63, 2022-12-09)"
   xmlns:inkscape="http://www.inkscape.org/namespaces/inkscape"
   xmlns:sodipodi="http://sodipodi.sourceforge.net/DTD/sodipodi-0.dtd"
   xmlns="http://www.w3.org/2000/svg"
   xmlns:svg="http://www.w3.org/2000/svg">
  <defs
     id="defs2197">
    <clipPath
       clipPathUnits="userSpaceOnUse"
       id="clipPath2213">
      <path
         d="M 116.02523,36 H 326.77477 V 253.44 H 116.02523 Z"
         id="path2211" />
    </clipPath>
    <clipPath
       clipPathUnits="userSpaceOnUse"
       id="clipPath2223">
      <path
         d="M 116.02523,36 H 326.77477 V 253.44 H 116.02523 Z"
         id="path2221" />
    </clipPath>
    <clipPath
       clipPathUnits="userSpaceOnUse"
       id="clipPath2233">
      <path
         d="M 116.02523,36 H 326.77477 V 253.44 H 116.02523 Z"
         id="path2231" />
    </clipPath>
    <clipPath
       clipPathUnits="userSpaceOnUse"
       id="clipPath2243">
      <path
         d="M 116.02523,36 H 326.77477 V 253.44 H 116.02523 Z"
         id="path2241" />
    </clipPath>
    <clipPath
       clipPathUnits="userSpaceOnUse"
       id="clipPath2253">
      <path
         d="M 116.02523,36 H 326.77477 V 253.44 H 116.02523 Z"
         id="path2251" />
    </clipPath>
    <clipPath
       clipPathUnits="userSpaceOnUse"
       id="clipPath2263">
      <path
         d="M 116.02523,36 H 326.77477 V 253.44 H 116.02523 Z"
         id="path2261" />
    </clipPath>
    <clipPath
       clipPathUnits="userSpaceOnUse"
       id="clipPath2273">
      <path
         d="M 116.02523,36 H 326.77477 V 253.44 H 116.02523 Z"
         id="path2271" />
    </clipPath>
    <clipPath
       clipPathUnits="userSpaceOnUse"
       id="clipPath2283">
      <path
         d="M 116.02523,36 H 326.77477 V 253.44 H 116.02523 Z"
         id="path2281" />
    </clipPath>
    <clipPath
       clipPathUnits="userSpaceOnUse"
       id="clipPath2293">
      <path
         d="M 116.02523,36 H 326.77477 V 253.44 H 116.02523 Z"
         id="path2291" />
    </clipPath>
    <clipPath
       clipPathUnits="userSpaceOnUse"
       id="clipPath2303">
      <path
         d="M 116.02523,36 H 326.77477 V 253.44 H 116.02523 Z"
         id="path2301" />
    </clipPath>
    <clipPath
       clipPathUnits="userSpaceOnUse"
       id="clipPath2313">
      <path
         d="M 116.02523,36 H 326.77477 V 253.44 H 116.02523 Z"
         id="path2311" />
    </clipPath>
    <clipPath
       clipPathUnits="userSpaceOnUse"
       id="clipPath2323">
      <path
         d="M 116.02523,36 H 326.77477 V 253.44 H 116.02523 Z"
         id="path2321" />
    </clipPath>
    <clipPath
       clipPathUnits="userSpaceOnUse"
       id="clipPath2333">
      <path
         d="M 116.02523,36 H 326.77477 V 253.44 H 116.02523 Z"
         id="path2331" />
    </clipPath>
    <clipPath
       clipPathUnits="userSpaceOnUse"
       id="clipPath2343">
      <path
         d="M 116.02523,36 H 326.77477 V 253.44 H 116.02523 Z"
         id="path2341" />
    </clipPath>
    <clipPath
       clipPathUnits="userSpaceOnUse"
       id="clipPath2353">
      <path
         d="M 116.02523,36 H 326.77477 V 253.44 H 116.02523 Z"
         id="path2351" />
    </clipPath>
    <clipPath
       clipPathUnits="userSpaceOnUse"
       id="clipPath2363">
      <path
         d="M 116.02523,36 H 326.77477 V 253.44 H 116.02523 Z"
         id="path2361" />
    </clipPath>
    <clipPath
       clipPathUnits="userSpaceOnUse"
       id="clipPath2373">
      <path
         d="M 116.02523,36 H 326.77477 V 253.44 H 116.02523 Z"
         id="path2371" />
    </clipPath>
    <clipPath
       clipPathUnits="userSpaceOnUse"
       id="clipPath2395">
      <path
         d="M -1021,-463 H 1794 V 1233 H -1021 Z"
         id="path2393" />
    </clipPath>
    <clipPath
       clipPathUnits="userSpaceOnUse"
       id="clipPath2415">
      <path
         d="M -1021,-463 H 1794 V 1233 H -1021 Z"
         id="path2413" />
    </clipPath>
    <clipPath
       clipPathUnits="userSpaceOnUse"
       id="clipPath2435">
      <path
         d="M -1021,-463 H 1794 V 1233 H -1021 Z"
         id="path2433" />
    </clipPath>
    <clipPath
       clipPathUnits="userSpaceOnUse"
       id="clipPath2479">
      <path
         d="M -1021,-463 H 1794 V 1233 H -1021 Z"
         id="path2477" />
    </clipPath>
    <clipPath
       clipPathUnits="userSpaceOnUse"
       id="clipPath2499">
      <path
         d="M -1021,-463 H 1794 V 1233 H -1021 Z"
         id="path2497" />
    </clipPath>
    <clipPath
       clipPathUnits="userSpaceOnUse"
       id="clipPath2549">
      <path
         d="M 116.02523,36 H 326.77477 V 253.44 H 116.02523 Z"
         id="path2547" />
    </clipPath>
  </defs>
  <sodipodi:namedview
     id="namedview2195"
     pagecolor="#ffffff"
     bordercolor="#999999"
     borderopacity="1"
     inkscape:showpageshadow="0"
     inkscape:pageopacity="0"
     inkscape:pagecheckerboard="0"
     inkscape:deskcolor="#d1d1d1"
     showgrid="false"
     inkscape:zoom="1.4713542"
     inkscape:cx="288.16991"
     inkscape:cy="192.33982"
     inkscape:window-width="1366"
     inkscape:window-height="745"
     inkscape:window-x="-8"
     inkscape:window-y="-8"
     inkscape:window-maximized="1"
     inkscape:current-layer="g2201">
    <inkscape:page
       x="0"
       y="0"
       id="page2199"
       width="576"
       height="384" />
  </sodipodi:namedview>
  <g
     id="g2201"
     inkscape:groupmode="layer"
     inkscape:label="Page 1"
     transform="matrix(1.3333333,0,0,-1.3333333,0,384)">
    <path
       d="M 0,0 H 432 V 288 H 0 Z"
       style="fill:#ffffff;fill-opacity:1;fill-rule:nonzero;stroke:none"
       id="path2203" />
    <path
       d="M 116.02523,36 H 326.77477 V 253.44 H 116.02523 Z"
       style="fill:#ffffff;fill-opacity:1;fill-rule:nonzero;stroke:none"
       id="path2205" />
    <g
       id="g2207">
      <g
         id="g2209"
         clip-path="url(#clipPath2213)">
        <path
           d="m 228.65211,113.62284 6.58882,-1.16178 2.32357,13.17763 -6.58882,1.16179 z"
           style="fill:#0000ff;fill-opacity:1;fill-rule:nonzero;stroke:#000000;stroke-width:1;stroke-linecap:butt;stroke-linejoin:miter;stroke-miterlimit:10;stroke-dasharray:none;stroke-opacity:1"
           id="path2215" />
      </g>
    </g>
    <g
       id="g2217">
      <g
         id="g2219"
         clip-path="url(#clipPath2223)">
        <path
           d="M 260.71539,289 188.29921,87.598232 400.31217,289"
           style="fill:none;stroke:#ff0000;stroke-width:1.5;stroke-linecap:square;stroke-linejoin:round;stroke-miterlimit:10;stroke-dasharray:none;stroke-opacity:1"
           id="path2225" />
      </g>
    </g>
    <g
       id="g2227">
      <g
         id="g2229"
         clip-path="url(#clipPath2233)">
        <path
           d="M 309.32315,11.006648 188.29921,87.598232 315.23064,289"
           style="fill:none;stroke:#800080;stroke-width:1.5;stroke-linecap:square;stroke-linejoin:round;stroke-miterlimit:10;stroke-dasharray:none;stroke-opacity:1"
           id="path2235" />
      </g>
    </g>
    <g
       id="g2237">
      <g
         id="g2239"
         clip-path="url(#clipPath2243)">
        <path
           d="M -1,207.39871 188.29921,87.598232 315.23064,289"
           style="fill:none;stroke:#800080;stroke-width:1.5;stroke-linecap:square;stroke-linejoin:round;stroke-miterlimit:10;stroke-dasharray:none;stroke-opacity:1"
           id="path2245" />
      </g>
    </g>
    <g
       id="g2247">
      <g
         id="g2249"
         clip-path="url(#clipPath2253)">
        <path
           d="M -416.8205,470.55615 188.29921,87.598232 517.76028,610.35325 Z"
           style="fill:#800080;fill-opacity:0.3;fill-rule:nonzero;stroke:#800080;stroke-width:1;stroke-linecap:butt;stroke-linejoin:miter;stroke-miterlimit:10;stroke-dasharray:none;stroke-opacity:0.3"
           id="path2255" />
      </g>
    </g>
    <g
       id="g2257">
      <g
         id="g2259"
         clip-path="url(#clipPath2263)">
        <path
           d="m 260.71539,289 -41.34963,-115.00037 -3.48535,-19.76646 1.52906,-5.51361 1.7162,-4.71524 2.37276,-5.20653 9.88322,-1.74268 11.00221,4.00448 5.26645,2.91924 L 400.31217,289"
           style="fill:none;stroke:#000000;stroke-width:1.5;stroke-linecap:square;stroke-linejoin:round;stroke-miterlimit:10;stroke-dasharray:none;stroke-opacity:1"
           id="path2265" />
      </g>
    </g>
    <g
       id="g2267">
      <g
         id="g2269"
         clip-path="url(#clipPath2273)">
        <path
           d="m 423.73145,727.08553 -5.91078,-1.14894 -198.45491,-551.93696 -3.48535,-19.76646 1.52906,-5.51361 1.7162,-4.71524 2.37276,-5.20653 9.88322,-1.74268 11.00221,4.00448 5.26645,2.91924 370.50145,351.95795 -3.25748,8.94984 z"
           style="fill:#ff0000;fill-opacity:1;fill-rule:nonzero;stroke:none"
           id="path2275" />
      </g>
    </g>
    <g
       id="g2277">
      <g
         id="g2279"
         clip-path="url(#clipPath2283)">
        <path
           d="m 266.68583,289 -42.96186,-119.48426 -3.48536,-19.76646 1.7162,-4.71523 9.88323,-1.74268 11.00221,4.00447 L 392.01033,289"
           style="fill:none;stroke:#000000;stroke-width:1.5;stroke-linecap:square;stroke-linejoin:round;stroke-miterlimit:10;stroke-dasharray:none;stroke-opacity:1"
           id="path2285" />
      </g>
    </g>
    <g
       id="g2287">
      <g
         id="g2289"
         clip-path="url(#clipPath2293)">
        <path
           d="m 422.17887,721.4527 -198.4549,-551.93696 -3.48536,-19.76646 1.7162,-4.71523 9.88323,-1.74268 11.00221,4.00447 370.50145,351.95795 z"
           style="fill:#fa8072;fill-opacity:1;fill-rule:nonzero;stroke:none"
           id="path2295" />
      </g>
    </g>
    <g
       id="g2297">
      <g
         id="g2299"
         clip-path="url(#clipPath2303)">
        <path
           d="M 309.32315,11.006648 188.29921,87.598232 315.23064,289"
           style="fill:none;stroke:#800080;stroke-width:1.5;stroke-linecap:butt;stroke-linejoin:round;stroke-miterlimit:10;stroke-dasharray:5.55, 2.4;stroke-dashoffset:0;stroke-opacity:1"
           id="path2305" />
      </g>
    </g>
    <g
       id="g2307">
      <g
         id="g2309"
         clip-path="url(#clipPath2313)">
        <path
           d="m 315.44196,197.84365 6.97072,39.53291 -3.43241,9.43046 -19.76645,3.48536 -22.00442,-8.00895 -6.97072,-39.53291 3.43241,-9.43047 19.76645,-3.48536 z"
           style="fill:#ffff00;fill-opacity:1;fill-rule:nonzero;stroke:#000000;stroke-width:1;stroke-linecap:butt;stroke-linejoin:miter;stroke-miterlimit:10;stroke-dasharray:none;stroke-opacity:1"
           id="path2315" />
      </g>
    </g>
    <g
       id="g2317">
      <g
         id="g2319"
         clip-path="url(#clipPath2323)">
        <path
           d="m 279.15107,214.76637 3.43241,-9.43047 6.58882,-1.16178 22.00442,8.00895 2.32357,13.17764 -3.43241,9.43046 -6.58882,1.16179 -22.00442,-8.00896 z"
           style="fill:#ffa500;fill-opacity:1;fill-rule:nonzero;stroke:#000000;stroke-width:1;stroke-linecap:butt;stroke-linejoin:miter;stroke-miterlimit:10;stroke-dasharray:none;stroke-opacity:1"
           id="path2325" />
      </g>
    </g>
    <g
       id="g2327">
      <g
         id="g2329"
         clip-path="url(#clipPath2333)">
        <path
           d="m 283.60727,220.77429 3.4324,-9.43046 22.00443,8.00895 -3.43241,9.43047 z"
           style="fill:#ff0000;fill-opacity:1;fill-rule:nonzero;stroke:#000000;stroke-width:1;stroke-linecap:butt;stroke-linejoin:miter;stroke-miterlimit:10;stroke-dasharray:none;stroke-opacity:1"
           id="path2335" />
      </g>
    </g>
    <g
       id="g2337">
      <g
         id="g2339"
         clip-path="url(#clipPath2343)">
        <path
           d="m 233.10831,119.07175 c 0.14825,0 0.29045,0.0589 0.39528,0.16373 0.10483,0.10484 0.16373,0.24704 0.16373,0.39529 0,0.14825 -0.0589,0.29045 -0.16373,0.39528 -0.10483,0.10483 -0.24703,0.16374 -0.39528,0.16374 -0.14826,0 -0.29046,-0.0589 -0.39529,-0.16374 -0.10483,-0.10483 -0.16373,-0.24703 -0.16373,-0.39528 0,-0.14825 0.0589,-0.29045 0.16373,-0.39529 0.10483,-0.10483 0.24703,-0.16373 0.39529,-0.16373 z"
           style="fill:#000000;fill-opacity:1;fill-rule:nonzero;stroke:#000000;stroke-width:1;stroke-linecap:butt;stroke-linejoin:round;stroke-miterlimit:10;stroke-dasharray:none;stroke-opacity:1"
           id="path2345" />
      </g>
    </g>
    <g
       id="g2347">
      <g
         id="g2349"
         clip-path="url(#clipPath2353)">
        <path
           d="m 296.32568,219.50452 c 0.14825,0 0.29045,0.0589 0.39528,0.16373 0.10484,0.10483 0.16374,0.24703 0.16374,0.39529 0,0.14825 -0.0589,0.29045 -0.16374,0.39528 -0.10483,0.10483 -0.24703,0.16373 -0.39528,0.16373 -0.14825,0 -0.29045,-0.0589 -0.39529,-0.16373 -0.10483,-0.10483 -0.16373,-0.24703 -0.16373,-0.39528 0,-0.14826 0.0589,-0.29046 0.16373,-0.39529 0.10484,-0.10483 0.24704,-0.16373 0.39529,-0.16373 z"
           style="fill:#000000;fill-opacity:1;fill-rule:nonzero;stroke:#000000;stroke-width:1;stroke-linecap:butt;stroke-linejoin:round;stroke-miterlimit:10;stroke-dasharray:none;stroke-opacity:1"
           id="path2355" />
      </g>
    </g>
    <g
       id="g2357">
      <g
         id="g2359"
         clip-path="url(#clipPath2363)">
        <path
           d="m 263.30966,207.04104 3.16227,3.16227 m -3.16227,0 3.16227,-3.16227"
           style="fill:#000000;fill-opacity:1;fill-rule:nonzero;stroke:#000000;stroke-width:1;stroke-linecap:butt;stroke-linejoin:round;stroke-miterlimit:10;stroke-dasharray:none;stroke-opacity:1"
           id="path2365" />
      </g>
    </g>
    <g
       id="g2367">
      <g
         id="g2369"
         clip-path="url(#clipPath2373)">
        <path
           d="m 188.29921,87.598232 8.51075,-5.318107 5.31811,8.51075 -8.51075,5.318107 z"
           style="fill:none;stroke:#800080;stroke-width:1;stroke-linecap:butt;stroke-linejoin:miter;stroke-miterlimit:10;stroke-dasharray:none;stroke-opacity:1"
           id="path2375" />
      </g>
    </g>
    <g
       id="g2543">
      <g
         id="g2545"
         clip-path="url(#clipPath2549)">
        <path
           d="m 296.68608,219.07334 -22.52309,-8.19774 1.711,-1.61999 -10.9832,-0.63344 8.82078,6.57463 -0.26939,-2.3408 22.5231,8.19774 0.7208,-1.9804"
           style="fill:#000000;fill-opacity:1;fill-rule:nonzero;stroke:none"
           id="path2551" />
      </g>
    </g>
    <g
       id="g2553">
      <path
         d="M 116.02523,36 V 253.44"
         style="fill:none;stroke:#000000;stroke-width:0.8;stroke-linecap:square;stroke-linejoin:miter;stroke-miterlimit:10;stroke-dasharray:none;stroke-opacity:1"
         id="path2555" />
      <path
         d="M 326.77477,36 V 253.44"
         style="fill:none;stroke:#000000;stroke-width:0.8;stroke-linecap:square;stroke-linejoin:miter;stroke-miterlimit:10;stroke-dasharray:none;stroke-opacity:1"
         id="path2557" />
      <path
         d="M 116.02523,36 H 326.77477"
         style="fill:none;stroke:#000000;stroke-width:0.8;stroke-linecap:square;stroke-linejoin:miter;stroke-miterlimit:10;stroke-dasharray:none;stroke-opacity:1"
         id="path2559" />
      <path
         d="M 116.02523,253.44 H 326.77477"
         style="fill:none;stroke:#000000;stroke-width:0.8;stroke-linecap:square;stroke-linejoin:miter;stroke-miterlimit:10;stroke-dasharray:none;stroke-opacity:1"
         id="path2561" />
      <g
         id="g2563"
         transform="translate(239.79877,115.95102)">
        <text
           xml:space="preserve"
           transform="scale(1,-1)"
           style="font-variant:normal;font-weight:normal;font-size:10px;font-family:'DejaVu Sans';-inkscape-font-specification:DejaVuSans;writing-mode:lr-tb;fill:#000000;fill-opacity:1;fill-rule:nonzero;stroke:none"
           id="text2567"><tspan
             x="0 7.8699999"
             y="0"
             sodipodi:role="line"
             id="tspan2565">OS</tspan></text>
      </g>
      <g
         id="g2569"
         transform="translate(251.50987,215.31264)">
        <text
           xml:space="preserve"
           transform="matrix(1,0,0,-1,0,0.703125)"
           style="font-style:italic;font-variant:normal;font-size:10px;font-family:'DejaVu Sans';-inkscape-font-specification:DejaVuSans-Oblique;writing-mode:lr-tb;fill:#000000;fill-opacity:1;fill-rule:nonzero;stroke:none"
           id="text2573"><tspan
             x="0"
             y="0"
             id="tspan2571">V</tspan></text>
        <text
           xml:space="preserve"
           transform="matrix(1,0,0,-1,6.8408203,-0.9375)"
           style="font-style:italic;font-variant:normal;font-size:7px;font-family:'DejaVu Sans';-inkscape-font-specification:DejaVuSans-Oblique;writing-mode:lr-tb;fill:#000000;fill-opacity:1;fill-rule:nonzero;stroke:none"
           id="text2577"><tspan
             x="0 4.2758789"
             y="0"
             sodipodi:role="line"
             id="tspan2575">TS</tspan></text>
      </g>
      <g
         id="g2579"
         transform="translate(166.20369,186.53538)">
        <text
           xml:space="preserve"
           transform="matrix(1,0,0,-1,0,0.703125)"
           style="font-style:italic;font-variant:normal;font-size:10px;font-family:'DejaVu Sans';-inkscape-font-specification:DejaVuSans-Oblique;writing-mode:lr-tb;fill:#800080;fill-opacity:1;fill-rule:nonzero;stroke:none"
           id="text2583"><tspan
             x="0"
             y="0"
             id="tspan2581">V</tspan></text>
        <text
           xml:space="preserve"
           transform="matrix(1,0,0,-1,6.8408203,-0.9375)"
           style="font-variant:normal;font-weight:normal;font-size:7px;font-family:'DejaVu Sans';-inkscape-font-specification:DejaVuSans;writing-mode:lr-tb;fill:#800080;fill-opacity:1;fill-rule:nonzero;stroke:none"
           id="text2587"><tspan
             x="0"
             y="0"
             id="tspan2585">1</tspan></text>
      </g>
      <g
         id="g2589"
         transform="translate(283.28677,119.63077)">
        <text
           xml:space="preserve"
           transform="matrix(1,0,0,-1,0,0.703125)"
           style="font-style:italic;font-variant:normal;font-size:10px;font-family:'DejaVu Sans';-inkscape-font-specification:DejaVuSans-Oblique;writing-mode:lr-tb;fill:#800080;fill-opacity:1;fill-rule:nonzero;stroke:none"
           id="text2593"><tspan
             x="0"
             y="0"
             id="tspan2591">V</tspan></text>
        <text
           xml:space="preserve"
           transform="matrix(1,0,0,-1,6.8408203,-0.9375)"
           style="font-variant:normal;font-weight:normal;font-size:7px;font-family:'DejaVu Sans';-inkscape-font-specification:DejaVuSans;writing-mode:lr-tb;fill:#800080;fill-opacity:1;fill-rule:nonzero;stroke:none"
           id="text2597"><tspan
             x="0"
             y="0"
             id="tspan2595">2</tspan></text>
      </g>
      <g
         id="g2599"
         transform="translate(166.20369,59.416615)">
        <text
           xml:space="preserve"
           transform="matrix(1,0,0,-1,0,0.703125)"
           style="font-style:italic;font-variant:normal;font-size:10px;font-family:'DejaVu Sans';-inkscape-font-specification:DejaVuSans-Oblique;writing-mode:lr-tb;fill:#800080;fill-opacity:1;fill-rule:nonzero;stroke:none"
           id="text2603"><tspan
             x="0"
             y="0"
             id="tspan2601">V</tspan></text>
        <text
           xml:space="preserve"
           transform="matrix(1,0,0,-1,6.8408203,-0.9375)"
           style="font-variant:normal;font-weight:normal;font-size:7px;font-family:'DejaVu Sans';-inkscape-font-specification:DejaVuSans;writing-mode:lr-tb;fill:#800080;fill-opacity:1;fill-rule:nonzero;stroke:none"
           id="text2607"><tspan
             x="0"
             y="0"
             id="tspan2605">3</tspan></text>
      </g>
    </g>
  </g>
</svg>
