<?xml version="1.0" encoding="UTF-8" standalone="no"?>
<!-- Created with Inkscape (http://www.inkscape.org/) -->

<svg
   version="1.1"
   id="svg3325"
   width="576"
   height="384"
   viewBox="0 0 576 384"
   sodipodi:docname="Expanded_vel_rel.svg"
   inkscape:version="1.2.2 (732a01da63, 2022-12-09)"
   xmlns:inkscape="http://www.inkscape.org/namespaces/inkscape"
   xmlns:sodipodi="http://sodipodi.sourceforge.net/DTD/sodipodi-0.dtd"
   xmlns="http://www.w3.org/2000/svg"
   xmlns:svg="http://www.w3.org/2000/svg">
  <defs
     id="defs3329">
    <clipPath
       clipPathUnits="userSpaceOnUse"
       id="clipPath3345">
      <path
         d="m 133.065,36 h 176.67 v 217.44 h -176.67 z"
         id="path3343" />
    </clipPath>
    <clipPath
       clipPathUnits="userSpaceOnUse"
       id="clipPath3355">
      <path
         d="m 133.065,36 h 176.67 v 217.44 h -176.67 z"
         id="path3353" />
    </clipPath>
    <clipPath
       clipPathUnits="userSpaceOnUse"
       id="clipPath3365">
      <path
         d="m 133.065,36 h 176.67 v 217.44 h -176.67 z"
         id="path3363" />
    </clipPath>
    <clipPath
       clipPathUnits="userSpaceOnUse"
       id="clipPath3375">
      <path
         d="m 133.065,36 h 176.67 v 217.44 h -176.67 z"
         id="path3373" />
    </clipPath>
    <clipPath
       clipPathUnits="userSpaceOnUse"
       id="clipPath3385">
      <path
         d="m 133.065,36 h 176.67 v 217.44 h -176.67 z"
         id="path3383" />
    </clipPath>
    <clipPath
       clipPathUnits="userSpaceOnUse"
       id="clipPath3469">
      <path
         d="m 133.065,36 h 176.67 v 217.44 h -176.67 z"
         id="path3467" />
    </clipPath>
    <clipPath
       clipPathUnits="userSpaceOnUse"
       id="clipPath3479">
      <path
         d="m 133.065,36 h 176.67 v 217.44 h -176.67 z"
         id="path3477" />
    </clipPath>
    <clipPath
       clipPathUnits="userSpaceOnUse"
       id="clipPath3489">
      <path
         d="m 133.065,36 h 176.67 v 217.44 h -176.67 z"
         id="path3487" />
    </clipPath>
    <clipPath
       clipPathUnits="userSpaceOnUse"
       id="clipPath3499">
      <path
         d="m 133.065,36 h 176.67 v 217.44 h -176.67 z"
         id="path3497" />
    </clipPath>
    <clipPath
       clipPathUnits="userSpaceOnUse"
       id="clipPath3509">
      <path
         d="m 133.065,36 h 176.67 v 217.44 h -176.67 z"
         id="path3507" />
    </clipPath>
    <clipPath
       clipPathUnits="userSpaceOnUse"
       id="clipPath3519">
      <path
         d="m 133.065,36 h 176.67 v 217.44 h -176.67 z"
         id="path3517" />
    </clipPath>
    <clipPath
       clipPathUnits="userSpaceOnUse"
       id="clipPath3529">
      <path
         d="m 133.065,36 h 176.67 v 217.44 h -176.67 z"
         id="path3527" />
    </clipPath>
    <clipPath
       clipPathUnits="userSpaceOnUse"
       id="clipPath3591">
      <path
         d="M -1021,-463 H 1794 V 1233 H -1021 Z"
         id="path3589" />
    </clipPath>
    <clipPath
       clipPathUnits="userSpaceOnUse"
       id="clipPath3623">
      <path
         d="M -1021,-463 H 1794 V 1233 H -1021 Z"
         id="path3621" />
    </clipPath>
    <clipPath
       clipPathUnits="userSpaceOnUse"
       id="clipPath3635">
      <path
         d="M -1021,-463 H 1794 V 1233 H -1021 Z"
         id="path3633" />
    </clipPath>
  </defs>
  <sodipodi:namedview
     id="namedview3327"
     pagecolor="#ffffff"
     bordercolor="#999999"
     borderopacity="1"
     inkscape:showpageshadow="0"
     inkscape:pageopacity="0"
     inkscape:pagecheckerboard="0"
     inkscape:deskcolor="#d1d1d1"
     showgrid="false"
     inkscape:zoom="1.4713542"
     inkscape:cx="288.16991"
     inkscape:cy="192.33982"
     inkscape:window-width="1366"
     inkscape:window-height="745"
     inkscape:window-x="-8"
     inkscape:window-y="-8"
     inkscape:window-maximized="1"
     inkscape:current-layer="g3333">
    <inkscape:page
       x="0"
       y="0"
       id="page3331"
       width="576"
       height="384" />
  </sodipodi:namedview>
  <g
     id="g3333"
     inkscape:groupmode="layer"
     inkscape:label="Page 1"
     transform="matrix(1.3333333,0,0,-1.3333333,0,384)">
    <path
       d="M 0,0 H 432 V 288 H 0 Z"
       style="fill:#ffffff;fill-opacity:1;fill-rule:nonzero;stroke:none"
       id="path3335" />
    <path
       d="m 133.065,36 h 176.67 v 217.44 h -176.67 z"
       style="fill:#ffffff;fill-opacity:1;fill-rule:nonzero;stroke:none"
       id="path3337" />
    <g
       id="g3339">
      <g
         id="g3341"
         clip-path="url(#clipPath3345)">
        <path
           d="m 144.39835,44.181402 13.38354,-2.359879 4.71976,26.767075 -13.38354,2.359879 z"
           style="fill:#0000ff;fill-opacity:1;fill-rule:nonzero;stroke:#000000;stroke-width:1;stroke-linecap:butt;stroke-linejoin:miter;stroke-miterlimit:10;stroke-dasharray:none;stroke-opacity:1"
           id="path3347" />
      </g>
    </g>
    <g
       id="g3349">
      <g
         id="g3351"
         clip-path="url(#clipPath3355)">
        <path
           d="m 229.92966,228.79531 -4.71976,-26.76707 6.97208,-19.15564 13.38354,-2.35988 44.69648,16.26819 4.71976,26.76708 -6.97208,19.15563 -13.38354,2.35988 z"
           style="fill:#ffa500;fill-opacity:0.5;fill-rule:nonzero;stroke:#000000;stroke-width:1;stroke-linecap:butt;stroke-linejoin:miter;stroke-miterlimit:10;stroke-dasharray:none;stroke-opacity:0.5"
           id="path3357" />
      </g>
    </g>
    <g
       id="g3359">
      <g
         id="g3361"
         clip-path="url(#clipPath3365)">
        <path
           d="m 234.26155,214.23184 6.97208,-19.15564 44.69648,16.26819 -6.97208,19.15563 z"
           style="fill:#ff0000;fill-opacity:1;fill-rule:nonzero;stroke:#000000;stroke-width:1;stroke-linecap:butt;stroke-linejoin:miter;stroke-miterlimit:10;stroke-dasharray:none;stroke-opacity:1"
           id="path3367" />
      </g>
    </g>
    <g
       id="g3369">
      <g
         id="g3371"
         clip-path="url(#clipPath3375)">
        <path
           d="m 153.45,55.825983 c 0.14825,0 0.29045,0.0589 0.39528,0.163732 0.10483,0.104831 0.16374,0.247032 0.16374,0.395285 0,0.148253 -0.0589,0.290454 -0.16374,0.395285 -0.10483,0.10483 -0.24703,0.163732 -0.39528,0.163732 -0.14825,0 -0.29045,-0.0589 -0.39529,-0.163732 -0.10483,-0.104831 -0.16373,-0.247032 -0.16373,-0.395285 0,-0.148253 0.0589,-0.290454 0.16373,-0.395285 0.10484,-0.10483 0.24704,-0.163732 0.39529,-0.163732 z"
           style="fill:#000000;fill-opacity:1;fill-rule:nonzero;stroke:#000000;stroke-width:1;stroke-linecap:butt;stroke-linejoin:round;stroke-miterlimit:10;stroke-dasharray:none;stroke-opacity:1"
           id="path3377" />
      </g>
    </g>
    <g
       id="g3379">
      <g
         id="g3381"
         clip-path="url(#clipPath3385)">
        <path
           d="m 260.09583,212.2291 c 0.14826,0 0.29046,0.0589 0.39529,0.16373 0.10483,0.10483 0.16373,0.24703 0.16373,0.39528 0,0.14826 -0.0589,0.29046 -0.16373,0.39529 -0.10483,0.10483 -0.24703,0.16373 -0.39529,0.16373 -0.14825,0 -0.29045,-0.0589 -0.39528,-0.16373 -0.10483,-0.10483 -0.16374,-0.24703 -0.16374,-0.39529 0,-0.14825 0.0589,-0.29045 0.16374,-0.39528 0.10483,-0.10483 0.24703,-0.16373 0.39528,-0.16373 z"
           style="fill:#000000;fill-opacity:1;fill-rule:nonzero;stroke:#000000;stroke-width:1;stroke-linecap:butt;stroke-linejoin:round;stroke-miterlimit:10;stroke-dasharray:none;stroke-opacity:1"
           id="path3387" />
      </g>
    </g>
    <g
       id="g3463">
      <g
         id="g3465"
         clip-path="url(#clipPath3469)">
        <path
           d="m 276.87846,199.14079 13.38354,-2.35988 4.71976,26.76708 -13.38354,2.35988 z"
           style="fill:#0000ff;fill-opacity:0.3;fill-rule:nonzero;stroke:#000000;stroke-width:1;stroke-linecap:butt;stroke-linejoin:miter;stroke-miterlimit:10;stroke-dasharray:none;stroke-opacity:0.3"
           id="path3471" />
      </g>
    </g>
    <g
       id="g3473">
      <g
         id="g3475"
         clip-path="url(#clipPath3479)">
        <path
           d="m 269.90638,218.29643 13.38354,-2.35988 4.71976,26.76707 -13.38354,2.35988 z"
           style="fill:#0000ff;fill-opacity:0.3;fill-rule:nonzero;stroke:#000000;stroke-width:1;stroke-linecap:butt;stroke-linejoin:miter;stroke-miterlimit:10;stroke-dasharray:none;stroke-opacity:0.3"
           id="path3481" />
      </g>
    </g>
    <g
       id="g3483">
      <g
         id="g3485"
         clip-path="url(#clipPath3489)">
        <path
           d="m 225.2099,202.02824 13.38354,-2.35988 4.71976,26.76707 -13.38354,2.35988 z"
           style="fill:#0000ff;fill-opacity:0.3;fill-rule:nonzero;stroke:#000000;stroke-width:1;stroke-linecap:butt;stroke-linejoin:miter;stroke-miterlimit:10;stroke-dasharray:none;stroke-opacity:0.3"
           id="path3491" />
      </g>
    </g>
    <g
       id="g3493">
      <g
         id="g3495"
         clip-path="url(#clipPath3499)">
        <path
           d="m 232.18198,182.8726 13.38354,-2.35988 4.71976,26.76708 -13.38354,2.35988 z"
           style="fill:#0000ff;fill-opacity:0.3;fill-rule:nonzero;stroke:#000000;stroke-width:1;stroke-linecap:butt;stroke-linejoin:miter;stroke-miterlimit:10;stroke-dasharray:none;stroke-opacity:0.3"
           id="path3501" />
      </g>
    </g>
    <g
       id="g3503">
      <g
         id="g3505"
         clip-path="url(#clipPath3509)">
        <path
           d="m 152.74448,56.916558 34.22167,45.421102 -1.94259,0.3576 7.43213,5.46049 -3.19903,-8.649841 -0.87947,1.768631 -34.22167,-45.421098 -1.41104,1.063116"
           style="fill:#800080;fill-opacity:1;fill-rule:nonzero;stroke:none"
           id="path3511" />
      </g>
    </g>
    <g
       id="g3513">
      <g
         id="g3515"
         clip-path="url(#clipPath3519)">
        <path
           d="m 152.58007,56.538392 5.69911,32.321243 -1.89325,-0.563146 4.14371,8.239123 1.07586,-9.159476 -1.58646,1.176715 -5.69911,-32.321243 -1.73986,0.306784"
           style="fill:#000000;fill-opacity:1;fill-rule:nonzero;stroke:none"
           id="path3521" />
      </g>
    </g>
    <g
       id="g3523">
      <g
         id="g3525"
         clip-path="url(#clipPath3529)">
        <path
           d="m 260.39796,211.95804 -24.45536,-8.90103 1.43432,-1.35803 -9.20714,-0.531 7.3944,5.51147 -0.22583,-1.96228 24.45536,8.90102 0.60425,-1.66015"
           style="fill:#000000;fill-opacity:1;fill-rule:nonzero;stroke:none"
           id="path3531" />
      </g>
    </g>
    <g
       id="g3533">
      <path
         d="M 133.065,36 V 253.44"
         style="fill:none;stroke:#000000;stroke-width:0.8;stroke-linecap:square;stroke-linejoin:miter;stroke-miterlimit:10;stroke-dasharray:none;stroke-opacity:1"
         id="path3535" />
      <path
         d="M 309.735,36 V 253.44"
         style="fill:none;stroke:#000000;stroke-width:0.8;stroke-linecap:square;stroke-linejoin:miter;stroke-miterlimit:10;stroke-dasharray:none;stroke-opacity:1"
         id="path3537" />
      <path
         d="m 133.065,36 h 176.67"
         style="fill:none;stroke:#000000;stroke-width:0.8;stroke-linecap:square;stroke-linejoin:miter;stroke-miterlimit:10;stroke-dasharray:none;stroke-opacity:1"
         id="path3539" />
      <path
         d="m 133.065,253.44 h 176.67"
         style="fill:none;stroke:#000000;stroke-width:0.8;stroke-linecap:square;stroke-linejoin:miter;stroke-miterlimit:10;stroke-dasharray:none;stroke-opacity:1"
         id="path3541" />
      <g
         id="g3543"
         transform="translate(167.04,52.9875)">
        <text
           xml:space="preserve"
           transform="scale(1,-1)"
           style="font-variant:normal;font-weight:normal;font-size:10px;font-family:'DejaVu Sans';-inkscape-font-specification:DejaVuSans;writing-mode:lr-tb;fill:#000000;fill-opacity:1;fill-rule:nonzero;stroke:none"
           id="text3547"><tspan
             x="0 7.8699999"
             y="0"
             sodipodi:role="line"
             id="tspan3545">OS</tspan></text>
      </g>
      <g
         id="g3549"
         transform="translate(294.75033,217.88436)">
        <text
           xml:space="preserve"
           transform="scale(1,-1)"
           style="font-variant:normal;font-weight:normal;font-size:10px;font-family:'DejaVu Sans';-inkscape-font-specification:DejaVuSans;writing-mode:lr-tb;fill:#000000;fill-opacity:1;fill-rule:nonzero;stroke:none"
           id="text3553"><tspan
             x="0 6.1100001"
             y="0"
             sodipodi:role="line"
             id="tspan3551">TS</tspan></text>
      </g>
      <g
         id="g3555"
         transform="translate(160.52964,96.535612)">
        <text
           xml:space="preserve"
           transform="matrix(1,0,0,-1,0,0.703125)"
           style="font-style:italic;font-variant:normal;font-size:10px;font-family:'DejaVu Sans';-inkscape-font-specification:DejaVuSans-Oblique;writing-mode:lr-tb;fill:#000000;fill-opacity:1;fill-rule:nonzero;stroke:none"
           id="text3559"><tspan
             x="0"
             y="0"
             id="tspan3557">V</tspan></text>
        <text
           xml:space="preserve"
           transform="matrix(1,0,0,-1,6.8408203,-0.9375)"
           style="font-style:italic;font-variant:normal;font-size:7px;font-family:'DejaVu Sans';-inkscape-font-specification:DejaVuSans-Oblique;writing-mode:lr-tb;fill:#000000;fill-opacity:1;fill-rule:nonzero;stroke:none"
           id="text3563"><tspan
             x="0 5.5097656"
             y="0"
             sodipodi:role="line"
             id="tspan3561">OS</tspan></text>
      </g>
      <g
         id="g3565"
         transform="translate(192.45569,108.15575)">
        <text
           xml:space="preserve"
           transform="matrix(1,0,0,-1,0,0.703125)"
           style="font-style:italic;font-variant:normal;font-size:10px;font-family:'DejaVu Sans';-inkscape-font-specification:DejaVuSans-Oblique;writing-mode:lr-tb;fill:#000000;fill-opacity:1;fill-rule:nonzero;stroke:none"
           id="text3569"><tspan
             x="0"
             y="0"
             id="tspan3567">V</tspan></text>
        <text
           xml:space="preserve"
           transform="matrix(1,0,0,-1,6.8408203,-0.9375)"
           style="font-style:italic;font-variant:normal;font-size:7px;font-family:'DejaVu Sans';-inkscape-font-specification:DejaVuSans-Oblique;writing-mode:lr-tb;fill:#000000;fill-opacity:1;fill-rule:nonzero;stroke:none"
           id="text3573"><tspan
             x="0 5.5097656"
             y="0"
             sodipodi:role="line"
             id="tspan3571">OS</tspan></text>
        <text
           xml:space="preserve"
           transform="matrix(1,0,0,-1,29.342773,0.703125)"
           style="font-style:italic;font-variant:normal;font-size:10px;font-family:'DejaVu Sans';-inkscape-font-specification:DejaVuSans-Oblique;writing-mode:lr-tb;fill:#000000;fill-opacity:1;fill-rule:nonzero;stroke:none"
           id="text3577"><tspan
             x="0"
             y="0"
             id="tspan3575">V</tspan></text>
        <text
           xml:space="preserve"
           transform="matrix(1,0,0,-1,36.183594,-0.9375)"
           style="font-style:italic;font-variant:normal;font-size:7px;font-family:'DejaVu Sans';-inkscape-font-specification:DejaVuSans-Oblique;writing-mode:lr-tb;fill:#000000;fill-opacity:1;fill-rule:nonzero;stroke:none"
           id="text3581"><tspan
             x="0 4.2758789"
             y="0"
             sodipodi:role="line"
             id="tspan3579">TS</tspan></text>
        <g
           id="g3583"
           transform="matrix(0.01,0,0,0.01,19.015625,0.703125)">
          <g
             id="g3585">
            <g
               id="g3587"
               clip-path="url(#clipPath3591)">
              <path
                 d="M 106,355 H 732 V 272 H 106 Z"
                 style="fill:#000000;fill-opacity:1;fill-rule:nonzero;stroke:none"
                 id="path3593" />
            </g>
          </g>
        </g>
      </g>
      <g
         id="g3595"
         transform="translate(208.46428,207.96298)">
        <text
           xml:space="preserve"
           transform="matrix(1,0,0,-1,0,0.703125)"
           style="font-style:italic;font-variant:normal;font-size:10px;font-family:'DejaVu Sans';-inkscape-font-specification:DejaVuSans-Oblique;writing-mode:lr-tb;fill:#000000;fill-opacity:1;fill-rule:nonzero;stroke:none"
           id="text3599"><tspan
             x="0"
             y="0"
             id="tspan3597">V</tspan></text>
        <text
           xml:space="preserve"
           transform="matrix(1,0,0,-1,6.8408203,-0.9375)"
           style="font-style:italic;font-variant:normal;font-size:7px;font-family:'DejaVu Sans';-inkscape-font-specification:DejaVuSans-Oblique;writing-mode:lr-tb;fill:#000000;fill-opacity:1;fill-rule:nonzero;stroke:none"
           id="text3603"><tspan
             x="0 4.2758789"
             y="0"
             sodipodi:role="line"
             id="tspan3601">TS</tspan></text>
      </g>
      <path
         d="m 207.36963,243.99141 c 17.9292,1.58977 33.12183,-2.5363 45.57788,-12.37821"
         style="fill:none;stroke:#000000;stroke-width:1;stroke-linecap:round;stroke-linejoin:round;stroke-miterlimit:10;stroke-dasharray:none;stroke-opacity:1"
         id="path3605" />
      <path
         d="m 251.04891,235.66231 1.8986,-4.04911 -4.37845,0.91058"
         style="fill:none;stroke:#000000;stroke-width:1;stroke-linecap:round;stroke-linejoin:round;stroke-miterlimit:10;stroke-dasharray:none;stroke-opacity:1"
         id="path3607" />
      <g
         id="g3609"
         transform="translate(155.375,234.6575)">
        <text
           xml:space="preserve"
           transform="matrix(1,0,0,-1,0,0.578125)"
           style="font-style:italic;font-variant:normal;font-size:10px;font-family:'DejaVu Sans';-inkscape-font-specification:DejaVuSans-Oblique;writing-mode:lr-tb;fill:#000000;fill-opacity:1;fill-rule:nonzero;stroke:none"
           id="text3613"><tspan
             x="0 6.1083984 33.110352 40.981445"
             y="0"
             sodipodi:role="line"
             id="tspan3611">TSOS</tspan></text>
        <g
           id="g3615"
           transform="matrix(0.01,0,0,0.01,14.404297,0.578125)">
          <g
             id="g3617">
            <g
               id="g3619"
               clip-path="url(#clipPath3623)">
              <path
                 d="m 517,550 c -31,12 -64,19 -98,19 -35,0 -68,-7 -98,-19 -30,-13 -58,-32 -82,-56 -25,-25 -44,-52 -56,-82 -12,-30 -18,-63 -18,-99 0,-34 6,-66 18,-96 12,-30 31,-58 56,-83 24,-25 52,-44 82,-56 30,-13 63,-19 98,-19 34,0 67,6 98,19 30,12 57,31 82,56 24,25 43,53 55,83 12,30 19,62 19,96 0,36 -7,69 -19,99 -12,30 -31,57 -55,82 -25,24 -52,43 -82,56 z m -224,68 c 39,16 81,25 126,25 44,0 86,-9 125,-25 39,-16 74,-40 106,-72 32,-32 57,-68 73,-106 16,-39 24,-81 24,-127 0,-44 -8,-86 -24,-124 C 707,150 683,115 651,83 619,51 583,27 544,11 505,-5 463,-13 419,-13 c -45,0 -87,8 -126,24 -39,16 -74,40 -105,72 -33,32 -57,67 -73,106 -16,38 -24,80 -24,124 0,46 8,88 24,127 16,38 40,74 73,106 31,32 66,56 105,72 z M 460,529 V 355 H 634 V 272 H 460 V 98 H 377 V 272 H 204 v 83 h 173 v 174 z"
                 style="fill:#000000;fill-opacity:1;fill-rule:nonzero;stroke:none"
                 id="path3625" />
            </g>
          </g>
        </g>
        <g
           id="g3627"
           transform="matrix(0.01,0,0,0.01,24.731445,0.578125)">
          <g
             id="g3629">
            <g
               id="g3631"
               clip-path="url(#clipPath3635)">
              <path
                 d="M 106,355 H 732 V 272 H 106 Z"
                 style="fill:#000000;fill-opacity:1;fill-rule:nonzero;stroke:none"
                 id="path3637" />
            </g>
          </g>
        </g>
      </g>
    </g>
  </g>
</svg>
