<?xml version="1.0" encoding="UTF-8" standalone="no"?>
<!-- Created with Inkscape (http://www.inkscape.org/) -->

<svg
   version="1.1"
   id="svg41633"
   width="576"
   height="384"
   viewBox="0 0 576 384"
   sodipodi:docname="Situation_1st.svg"
   inkscape:version="1.2.2 (732a01da63, 2022-12-09)"
   xmlns:inkscape="http://www.inkscape.org/namespaces/inkscape"
   xmlns:sodipodi="http://sodipodi.sourceforge.net/DTD/sodipodi-0.dtd"
   xmlns="http://www.w3.org/2000/svg"
   xmlns:svg="http://www.w3.org/2000/svg">
  <defs
     id="defs41637">
    <clipPath
       clipPathUnits="userSpaceOnUse"
       id="clipPath41653">
      <path
         d="m 133.065,36 h 176.67 v 217.44 h -176.67 z"
         id="path41651" />
    </clipPath>
    <clipPath
       clipPathUnits="userSpaceOnUse"
       id="clipPath41663">
      <path
         d="m 133.065,36 h 176.67 v 217.44 h -176.67 z"
         id="path41661" />
    </clipPath>
    <clipPath
       clipPathUnits="userSpaceOnUse"
       id="clipPath41673">
      <path
         d="m 133.065,36 h 176.67 v 217.44 h -176.67 z"
         id="path41671" />
    </clipPath>
    <clipPath
       clipPathUnits="userSpaceOnUse"
       id="clipPath41683">
      <path
         d="m 133.065,36 h 176.67 v 217.44 h -176.67 z"
         id="path41681" />
    </clipPath>
    <clipPath
       clipPathUnits="userSpaceOnUse"
       id="clipPath41767">
      <path
         d="m 133.065,36 h 176.67 v 217.44 h -176.67 z"
         id="path41765" />
    </clipPath>
    <clipPath
       clipPathUnits="userSpaceOnUse"
       id="clipPath41777">
      <path
         d="m 133.065,36 h 176.67 v 217.44 h -176.67 z"
         id="path41775" />
    </clipPath>
  </defs>
  <sodipodi:namedview
     id="namedview41635"
     pagecolor="#ffffff"
     bordercolor="#999999"
     borderopacity="1"
     inkscape:showpageshadow="0"
     inkscape:pageopacity="0"
     inkscape:pagecheckerboard="0"
     inkscape:deskcolor="#d1d1d1"
     showgrid="false"
     inkscape:zoom="1.4713542"
     inkscape:cx="288.16991"
     inkscape:cy="192.33982"
     inkscape:window-width="1366"
     inkscape:window-height="745"
     inkscape:window-x="-8"
     inkscape:window-y="-8"
     inkscape:window-maximized="1"
     inkscape:current-layer="g41641">
    <inkscape:page
       x="0"
       y="0"
       id="page41639"
       width="576"
       height="384" />
  </sodipodi:namedview>
  <g
     id="g41641"
     inkscape:groupmode="layer"
     inkscape:label="Page 1"
     transform="matrix(1.3333333,0,0,-1.3333333,0,384)">
    <path
       d="M 0,0 H 432 V 288 H 0 Z"
       style="fill:#ffffff;fill-opacity:1;fill-rule:nonzero;stroke:none"
       id="path41643" />
    <path
       d="m 133.065,36 h 176.67 v 217.44 h -176.67 z"
       style="fill:#ffffff;fill-opacity:1;fill-rule:nonzero;stroke:none"
       id="path41645" />
    <g
       id="g41647">
      <g
         id="g41649"
         clip-path="url(#clipPath41653)">
        <path
           d="m 234.26155,214.23184 6.97208,-19.15564 44.69648,16.26819 -6.97208,19.15563 z"
           style="fill:#ff0000;fill-opacity:1;fill-rule:nonzero;stroke:#000000;stroke-width:1;stroke-linecap:butt;stroke-linejoin:miter;stroke-miterlimit:10;stroke-dasharray:none;stroke-opacity:1"
           id="path41655" />
      </g>
    </g>
    <g
       id="g41657">
      <g
         id="g41659"
         clip-path="url(#clipPath41663)">
        <path
           d="m 144.39835,44.181402 13.38354,-2.359879 4.71976,26.767075 -13.38354,2.359879 z"
           style="fill:#0000ff;fill-opacity:1;fill-rule:nonzero;stroke:#000000;stroke-width:1;stroke-linecap:butt;stroke-linejoin:miter;stroke-miterlimit:10;stroke-dasharray:none;stroke-opacity:1"
           id="path41665" />
      </g>
    </g>
    <g
       id="g41667">
      <g
         id="g41669"
         clip-path="url(#clipPath41673)">
        <path
           d="m 153.45,55.825983 c 0.14825,0 0.29045,0.0589 0.39528,0.163732 0.10483,0.104831 0.16374,0.247032 0.16374,0.395285 0,0.148253 -0.0589,0.290454 -0.16374,0.395285 -0.10483,0.10483 -0.24703,0.163732 -0.39528,0.163732 -0.14825,0 -0.29045,-0.0589 -0.39529,-0.163732 -0.10483,-0.104831 -0.16373,-0.247032 -0.16373,-0.395285 0,-0.148253 0.0589,-0.290454 0.16373,-0.395285 0.10484,-0.10483 0.24704,-0.163732 0.39529,-0.163732 z"
           style="fill:#000000;fill-opacity:1;fill-rule:nonzero;stroke:#000000;stroke-width:1;stroke-linecap:butt;stroke-linejoin:round;stroke-miterlimit:10;stroke-dasharray:none;stroke-opacity:1"
           id="path41675" />
      </g>
    </g>
    <g
       id="g41677">
      <g
         id="g41679"
         clip-path="url(#clipPath41683)">
        <path
           d="m 260.09583,212.2291 c 0.14826,0 0.29046,0.0589 0.39529,0.16373 0.10483,0.10483 0.16373,0.24703 0.16373,0.39528 0,0.14826 -0.0589,0.29046 -0.16373,0.39529 -0.10483,0.10483 -0.24703,0.16373 -0.39529,0.16373 -0.14825,0 -0.29045,-0.0589 -0.39528,-0.16373 -0.10483,-0.10483 -0.16374,-0.24703 -0.16374,-0.39529 0,-0.14825 0.0589,-0.29045 0.16374,-0.39528 0.10483,-0.10483 0.24703,-0.16373 0.39528,-0.16373 z"
           style="fill:#000000;fill-opacity:1;fill-rule:nonzero;stroke:#000000;stroke-width:1;stroke-linecap:butt;stroke-linejoin:round;stroke-miterlimit:10;stroke-dasharray:none;stroke-opacity:1"
           id="path41685" />
      </g>
    </g>
    <g
       id="g41761">
      <g
         id="g41763"
         clip-path="url(#clipPath41767)">
        <path
           d="m 152.58007,56.538392 5.69911,32.321243 -1.89325,-0.563146 4.14371,8.239123 1.07586,-9.159476 -1.58646,1.176715 -5.69911,-32.321243 -1.73986,0.306784"
           style="fill:#000000;fill-opacity:1;fill-rule:nonzero;stroke:none"
           id="path41769" />
      </g>
    </g>
    <g
       id="g41771">
      <g
         id="g41773"
         clip-path="url(#clipPath41777)">
        <path
           d="m 260.39796,211.95804 -24.45536,-8.90103 1.43432,-1.35803 -9.20714,-0.531 7.3944,5.51147 -0.22583,-1.96228 24.45536,8.90102 0.60425,-1.66015"
           style="fill:#000000;fill-opacity:1;fill-rule:nonzero;stroke:none"
           id="path41779" />
      </g>
    </g>
    <g
       id="g41781">
      <path
         d="M 133.065,36 V 253.44"
         style="fill:none;stroke:#000000;stroke-width:0.8;stroke-linecap:square;stroke-linejoin:miter;stroke-miterlimit:10;stroke-dasharray:none;stroke-opacity:1"
         id="path41783" />
      <path
         d="M 309.735,36 V 253.44"
         style="fill:none;stroke:#000000;stroke-width:0.8;stroke-linecap:square;stroke-linejoin:miter;stroke-miterlimit:10;stroke-dasharray:none;stroke-opacity:1"
         id="path41785" />
      <path
         d="m 133.065,36 h 176.67"
         style="fill:none;stroke:#000000;stroke-width:0.8;stroke-linecap:square;stroke-linejoin:miter;stroke-miterlimit:10;stroke-dasharray:none;stroke-opacity:1"
         id="path41787" />
      <path
         d="m 133.065,253.44 h 176.67"
         style="fill:none;stroke:#000000;stroke-width:0.8;stroke-linecap:square;stroke-linejoin:miter;stroke-miterlimit:10;stroke-dasharray:none;stroke-opacity:1"
         id="path41789" />
      <g
         id="g41791"
         transform="translate(167.04,52.9875)">
        <text
           xml:space="preserve"
           transform="scale(1,-1)"
           style="font-variant:normal;font-weight:normal;font-size:10px;font-family:'DejaVu Sans';-inkscape-font-specification:DejaVuSans;writing-mode:lr-tb;fill:#000000;fill-opacity:1;fill-rule:nonzero;stroke:none"
           id="text41795"><tspan
             x="0 7.8699999 16.049999 22.389999 25.57 30.780001 37.119999 39.900002 46.25 49.43 53.330002 61.200001 67.550003"
             y="0"
             sodipodi:role="line"
             id="tspan41793">Own ship (OS)</tspan></text>
      </g>
      <g
         id="g41797"
         transform="translate(219.32583,236.57061)">
        <text
           xml:space="preserve"
           transform="scale(1,-1)"
           style="font-variant:normal;font-weight:normal;font-size:10px;font-family:'DejaVu Sans';-inkscape-font-specification:DejaVuSans;writing-mode:lr-tb;fill:#000000;fill-opacity:1;fill-rule:nonzero;stroke:none"
           id="text41801"><tspan
             x="0 4.4537501 10.58375 14.521875 20.871876 27.021875 30.941875 34.121876 39.331875 45.671875 48.451874 54.801876 57.981876 61.881874 67.991875 74.341873"
             y="0"
             sodipodi:role="line"
             id="tspan41799">Target ship (TS)</tspan></text>
      </g>
      <g
         id="g41803"
         transform="translate(160.52964,96.535612)">
        <text
           xml:space="preserve"
           transform="matrix(1,0,0,-1,0,0.703125)"
           style="font-style:italic;font-variant:normal;font-size:10px;font-family:'DejaVu Sans';-inkscape-font-specification:DejaVuSans-Oblique;writing-mode:lr-tb;fill:#000000;fill-opacity:1;fill-rule:nonzero;stroke:none"
           id="text41807"><tspan
             x="0"
             y="0"
             id="tspan41805">V</tspan></text>
        <text
           xml:space="preserve"
           transform="matrix(1,0,0,-1,6.8408203,-0.9375)"
           style="font-style:italic;font-variant:normal;font-size:7px;font-family:'DejaVu Sans';-inkscape-font-specification:DejaVuSans-Oblique;writing-mode:lr-tb;fill:#000000;fill-opacity:1;fill-rule:nonzero;stroke:none"
           id="text41811"><tspan
             x="0 5.5097656"
             y="0"
             sodipodi:role="line"
             id="tspan41809">OS</tspan></text>
      </g>
      <g
         id="g41813"
         transform="translate(211.18228,207.96298)">
        <text
           xml:space="preserve"
           transform="matrix(1,0,0,-1,0,0.703125)"
           style="font-style:italic;font-variant:normal;font-size:10px;font-family:'DejaVu Sans';-inkscape-font-specification:DejaVuSans-Oblique;writing-mode:lr-tb;fill:#000000;fill-opacity:1;fill-rule:nonzero;stroke:none"
           id="text41817"><tspan
             x="0"
             y="0"
             id="tspan41815">V</tspan></text>
        <text
           xml:space="preserve"
           transform="matrix(1,0,0,-1,6.8408203,-0.9375)"
           style="font-style:italic;font-variant:normal;font-size:7px;font-family:'DejaVu Sans';-inkscape-font-specification:DejaVuSans-Oblique;writing-mode:lr-tb;fill:#000000;fill-opacity:1;fill-rule:nonzero;stroke:none"
           id="text41821"><tspan
             x="0 4.2758789"
             y="0"
             sodipodi:role="line"
             id="tspan41819">TS</tspan></text>
      </g>
    </g>
  </g>
</svg>
