<?xml version="1.0" encoding="UTF-8" standalone="no"?>
<!-- Created with Inkscape (http://www.inkscape.org/) -->

<svg
   version="1.1"
   id="svg41939"
   width="576"
   height="384"
   viewBox="0 0 576 384"
   sodipodi:docname="Velocity_obst_5_1.svg"
   inkscape:version="1.2.2 (732a01da63, 2022-12-09)"
   xmlns:inkscape="http://www.inkscape.org/namespaces/inkscape"
   xmlns:sodipodi="http://sodipodi.sourceforge.net/DTD/sodipodi-0.dtd"
   xmlns="http://www.w3.org/2000/svg"
   xmlns:svg="http://www.w3.org/2000/svg">
  <defs
     id="defs41943">
    <clipPath
       clipPathUnits="userSpaceOnUse"
       id="clipPath41959">
      <path
         d="M 129.592,36 H 313.208 V 253.44 H 129.592 Z"
         id="path41957" />
    </clipPath>
    <clipPath
       clipPathUnits="userSpaceOnUse"
       id="clipPath41969">
      <path
         d="M 129.592,36 H 313.208 V 253.44 H 129.592 Z"
         id="path41967" />
    </clipPath>
    <clipPath
       clipPathUnits="userSpaceOnUse"
       id="clipPath41979">
      <path
         d="M 129.592,36 H 313.208 V 253.44 H 129.592 Z"
         id="path41977" />
    </clipPath>
    <clipPath
       clipPathUnits="userSpaceOnUse"
       id="clipPath41989">
      <path
         d="M 129.592,36 H 313.208 V 253.44 H 129.592 Z"
         id="path41987" />
    </clipPath>
    <clipPath
       clipPathUnits="userSpaceOnUse"
       id="clipPath41999">
      <path
         d="M 129.592,36 H 313.208 V 253.44 H 129.592 Z"
         id="path41997" />
    </clipPath>
    <clipPath
       clipPathUnits="userSpaceOnUse"
       id="clipPath42009">
      <path
         d="M 129.592,36 H 313.208 V 253.44 H 129.592 Z"
         id="path42007" />
    </clipPath>
    <clipPath
       clipPathUnits="userSpaceOnUse"
       id="clipPath42019">
      <path
         d="M 129.592,36 H 313.208 V 253.44 H 129.592 Z"
         id="path42017" />
    </clipPath>
    <clipPath
       clipPathUnits="userSpaceOnUse"
       id="clipPath42029">
      <path
         d="M 129.592,36 H 313.208 V 253.44 H 129.592 Z"
         id="path42027" />
    </clipPath>
    <clipPath
       clipPathUnits="userSpaceOnUse"
       id="clipPath42039">
      <path
         d="M 129.592,36 H 313.208 V 253.44 H 129.592 Z"
         id="path42037" />
    </clipPath>
    <clipPath
       clipPathUnits="userSpaceOnUse"
       id="clipPath42049">
      <path
         d="M 129.592,36 H 313.208 V 253.44 H 129.592 Z"
         id="path42047" />
    </clipPath>
    <clipPath
       clipPathUnits="userSpaceOnUse"
       id="clipPath42059">
      <path
         d="M 129.592,36 H 313.208 V 253.44 H 129.592 Z"
         id="path42057" />
    </clipPath>
    <clipPath
       clipPathUnits="userSpaceOnUse"
       id="clipPath42069">
      <path
         d="M 129.592,36 H 313.208 V 253.44 H 129.592 Z"
         id="path42067" />
    </clipPath>
    <clipPath
       clipPathUnits="userSpaceOnUse"
       id="clipPath42091">
      <path
         d="M -1021,-463 H 1794 V 1233 H -1021 Z"
         id="path42089" />
    </clipPath>
    <clipPath
       clipPathUnits="userSpaceOnUse"
       id="clipPath42135">
      <path
         d="M -1021,-463 H 1794 V 1233 H -1021 Z"
         id="path42133" />
    </clipPath>
    <clipPath
       clipPathUnits="userSpaceOnUse"
       id="clipPath42217">
      <path
         d="M 129.592,36 H 313.208 V 253.44 H 129.592 Z"
         id="path42215" />
    </clipPath>
    <clipPath
       clipPathUnits="userSpaceOnUse"
       id="clipPath42227">
      <path
         d="M 129.592,36 H 313.208 V 253.44 H 129.592 Z"
         id="path42225" />
    </clipPath>
    <clipPath
       clipPathUnits="userSpaceOnUse"
       id="clipPath42237">
      <path
         d="M 129.592,36 H 313.208 V 253.44 H 129.592 Z"
         id="path42235" />
    </clipPath>
    <clipPath
       clipPathUnits="userSpaceOnUse"
       id="clipPath42247">
      <path
         d="M 129.592,36 H 313.208 V 253.44 H 129.592 Z"
         id="path42245" />
    </clipPath>
    <clipPath
       clipPathUnits="userSpaceOnUse"
       id="clipPath42287">
      <path
         d="M -1021,-463 H 1794 V 1233 H -1021 Z"
         id="path42285" />
    </clipPath>
  </defs>
  <sodipodi:namedview
     id="namedview41941"
     pagecolor="#ffffff"
     bordercolor="#999999"
     borderopacity="1"
     inkscape:showpageshadow="0"
     inkscape:pageopacity="0"
     inkscape:pagecheckerboard="0"
     inkscape:deskcolor="#d1d1d1"
     showgrid="false"
     inkscape:zoom="1.4713542"
     inkscape:cx="288.16991"
     inkscape:cy="192.33982"
     inkscape:window-width="1366"
     inkscape:window-height="745"
     inkscape:window-x="-8"
     inkscape:window-y="-8"
     inkscape:window-maximized="1"
     inkscape:current-layer="g41947">
    <inkscape:page
       x="0"
       y="0"
       id="page41945"
       width="576"
       height="384" />
  </sodipodi:namedview>
  <g
     id="g41947"
     inkscape:groupmode="layer"
     inkscape:label="Page 1"
     transform="matrix(1.3333333,0,0,-1.3333333,0,384)">
    <path
       d="M 0,0 H 432 V 288 H 0 Z"
       style="fill:#ffffff;fill-opacity:1;fill-rule:nonzero;stroke:none"
       id="path41949" />
    <path
       d="M 129.592,36 H 313.208 V 253.44 H 129.592 Z"
       style="fill:#ffffff;fill-opacity:1;fill-rule:nonzero;stroke:none"
       id="path41951" />
    <g
       id="g41953">
      <g
         id="g41955"
         clip-path="url(#clipPath41959)">
        <path
           d="m 171.47527,51.481886 9.51718,-1.678136 3.35628,19.034364 -9.51719,1.678136 z"
           style="fill:#0000ff;fill-opacity:1;fill-rule:nonzero;stroke:#000000;stroke-width:1;stroke-linecap:butt;stroke-linejoin:miter;stroke-miterlimit:10;stroke-dasharray:none;stroke-opacity:1"
           id="path41961" />
      </g>
    </g>
    <g
       id="g41963">
      <g
         id="g41965"
         clip-path="url(#clipPath41969)">
        <path
           d="M 260.1939,289 177.912,60.16 418.80882,289"
           style="fill:none;stroke:#d3d3d3;stroke-width:1.5;stroke-linecap:square;stroke-linejoin:round;stroke-miterlimit:10;stroke-dasharray:none;stroke-opacity:1"
           id="path41971" />
      </g>
    </g>
    <g
       id="g41973">
      <g
         id="g41975"
         clip-path="url(#clipPath41979)">
        <path
           d="M 236.51568,289 150.66843,50.244152 402.00354,289"
           style="fill:none;stroke:#fa8072;stroke-width:1.5;stroke-linecap:square;stroke-linejoin:round;stroke-miterlimit:10;stroke-dasharray:none;stroke-opacity:1"
           id="path41981" />
      </g>
    </g>
    <g
       id="g41983">
      <g
         id="g41985"
         clip-path="url(#clipPath41989)">
        <path
           d="m 260.1939,289 -50.43111,-140.25752 -5.03441,-28.55155 2.47896,-6.81089 14.27577,-2.51721 15.89209,5.78425 L 418.80882,289"
           style="fill:none;stroke:#808080;stroke-width:1.5;stroke-linecap:square;stroke-linejoin:round;stroke-miterlimit:10;stroke-dasharray:none;stroke-opacity:1"
           id="path41991" />
      </g>
    </g>
    <g
       id="g41993">
      <g
         id="g41995"
         clip-path="url(#clipPath41999)">
        <path
           d="M 1770.4513,4489.2838 209.76279,148.74248 l -5.03441,-28.55155 2.47896,-6.81089 14.27577,-2.51721 15.89209,5.78425 2913.6966,2767.86682 z"
           style="fill:#d3d3d3;fill-opacity:1;fill-rule:nonzero;stroke:none"
           id="path42001" />
      </g>
    </g>
    <g
       id="g42003">
      <g
         id="g42005"
         clip-path="url(#clipPath42009)">
        <path
           d="m 236.51568,289 -53.99646,-150.17337 -5.03441,-28.55155 2.47896,-6.81089 14.27578,-2.5172 15.89208,5.78424 L 402.00354,289"
           style="fill:none;stroke:#ff0000;stroke-width:1.5;stroke-linecap:square;stroke-linejoin:round;stroke-miterlimit:10;stroke-dasharray:none;stroke-opacity:1"
           id="path42011" />
      </g>
    </g>
    <g
       id="g42013">
      <g
         id="g42015"
         clip-path="url(#clipPath42019)">
        <path
           d="m 469.1763,936.06891 -286.65708,-797.24228 -5.03441,-28.55155 2.47896,-6.81089 14.27578,-2.5172 15.89208,5.78424 535.16876,508.3837 z"
           style="fill:#fa8072;fill-opacity:1;fill-rule:nonzero;stroke:none"
           id="path42021" />
      </g>
    </g>
    <g
       id="g42023">
      <g
         id="g42025"
         clip-path="url(#clipPath42029)">
        <path
           d="m 296.83839,173.13416 10.06882,57.10309 -4.95793,13.62178 -28.55154,5.03441 -31.78417,-11.56849 -10.06881,-57.10309 4.95792,-13.62179 28.55155,-5.0344 z"
           style="fill:#ffff00;fill-opacity:1;fill-rule:nonzero;stroke:#000000;stroke-width:1;stroke-linecap:butt;stroke-linejoin:miter;stroke-miterlimit:10;stroke-dasharray:none;stroke-opacity:1"
           id="path42031" />
      </g>
    </g>
    <g
       id="g42033">
      <g
         id="g42035"
         clip-path="url(#clipPath42039)">
        <path
           d="m 244.41821,197.57809 4.95793,-13.62179 9.51718,-1.67813 31.78416,11.56849 3.35627,19.03436 -4.95792,13.62178 -9.51718,1.67814 -31.78417,-11.56849 z"
           style="fill:#ffa500;fill-opacity:1;fill-rule:nonzero;stroke:#000000;stroke-width:1;stroke-linecap:butt;stroke-linejoin:miter;stroke-miterlimit:10;stroke-dasharray:none;stroke-opacity:1"
           id="path42041" />
      </g>
    </g>
    <g
       id="g42043">
      <g
         id="g42045"
         clip-path="url(#clipPath42049)">
        <path
           d="m 250.85494,206.2562 4.95792,-13.62178 31.78417,11.56849 -4.95793,13.62178 z"
           style="fill:#ff0000;fill-opacity:1;fill-rule:nonzero;stroke:#000000;stroke-width:1;stroke-linecap:butt;stroke-linejoin:miter;stroke-miterlimit:10;stroke-dasharray:none;stroke-opacity:1"
           id="path42051" />
      </g>
    </g>
    <g
       id="g42053">
      <g
         id="g42055"
         clip-path="url(#clipPath42059)">
        <path
           d="m 177.912,59.600983 c 0.14825,0 0.29045,0.0589 0.39528,0.163732 0.10483,0.104831 0.16374,0.247032 0.16374,0.395285 0,0.148253 -0.0589,0.290454 -0.16374,0.395285 -0.10483,0.10483 -0.24703,0.163732 -0.39528,0.163732 -0.14825,0 -0.29045,-0.0589 -0.39529,-0.163732 -0.10483,-0.104831 -0.16373,-0.247032 -0.16373,-0.395285 0,-0.148253 0.0589,-0.290454 0.16373,-0.395285 0.10484,-0.10483 0.24704,-0.163732 0.39529,-0.163732 z"
           style="fill:#000000;fill-opacity:1;fill-rule:nonzero;stroke:#000000;stroke-width:1;stroke-linecap:butt;stroke-linejoin:round;stroke-miterlimit:10;stroke-dasharray:none;stroke-opacity:1"
           id="path42061" />
      </g>
    </g>
    <g
       id="g42063">
      <g
         id="g42065"
         clip-path="url(#clipPath42069)">
        <path
           d="m 269.22598,204.67054 c 0.14826,0 0.29046,0.0589 0.39529,0.16373 0.10483,0.10483 0.16373,0.24703 0.16373,0.39528 0,0.14826 -0.0589,0.29046 -0.16373,0.39529 -0.10483,0.10483 -0.24703,0.16373 -0.39529,0.16373 -0.14825,0 -0.29045,-0.0589 -0.39528,-0.16373 -0.10483,-0.10483 -0.16373,-0.24703 -0.16373,-0.39529 0,-0.14825 0.0589,-0.29045 0.16373,-0.39528 0.10483,-0.10483 0.24703,-0.16373 0.39528,-0.16373 z"
           style="fill:#000000;fill-opacity:1;fill-rule:nonzero;stroke:#000000;stroke-width:1;stroke-linecap:butt;stroke-linejoin:round;stroke-miterlimit:10;stroke-dasharray:none;stroke-opacity:1"
           id="path42071" />
      </g>
    </g>
    <g
       id="g42211">
      <g
         id="g42213"
         clip-path="url(#clipPath42217)">
        <path
           d="m 177.20871,60.75013 26.9668,32.137784 -1.99671,0.476971 8.01118,5.262509 -3.79144,-8.803292 -0.81645,1.883551 -26.9668,-32.137783 -1.40658,1.18026"
           style="fill:#800080;fill-opacity:1;fill-rule:nonzero;stroke:none"
           id="path42219" />
      </g>
    </g>
    <g
       id="g42221">
      <g
         id="g42223"
         clip-path="url(#clipPath42227)">
        <path
           d="m 177.00787,60.319423 3.5996,20.414356 -1.96769,-0.585287 4.30663,8.563054 1.11817,-9.519591 -1.64885,1.222978 -3.5996,-20.414356 -1.80826,0.318846"
           style="fill:#000000;fill-opacity:1;fill-rule:nonzero;stroke:none"
           id="path42229" />
      </g>
    </g>
    <g
       id="g42231">
      <g
         id="g42233"
         clip-path="url(#clipPath42237)">
        <path
           d="m 269.53998,204.36684 -19.47915,-7.08983 1.49072,-1.41142 -9.56914,-0.55188 7.68513,5.72815 -0.23471,-2.03942 19.47915,7.08983 0.628,-1.72543"
           style="fill:#000000;fill-opacity:1;fill-rule:nonzero;stroke:none"
           id="path42239" />
      </g>
    </g>
    <g
       id="g42241">
      <g
         id="g42243"
         clip-path="url(#clipPath42247)">
        <path
           d="m 178.07214,59.720016 -23.28371,-8.474579 0.76026,-0.719826 -4.88026,-0.281459 3.91942,2.92136 -0.11971,-1.040108 23.28372,8.47458 0.32028,-0.879968"
           style="fill:#ff0000;fill-opacity:1;fill-rule:nonzero;stroke:none"
           id="path42249" />
      </g>
    </g>
    <g
       id="g42251">
      <path
         d="M 129.592,36 V 253.44"
         style="fill:none;stroke:#000000;stroke-width:0.8;stroke-linecap:square;stroke-linejoin:miter;stroke-miterlimit:10;stroke-dasharray:none;stroke-opacity:1"
         id="path42253" />
      <path
         d="M 313.208,36 V 253.44"
         style="fill:none;stroke:#000000;stroke-width:0.8;stroke-linecap:square;stroke-linejoin:miter;stroke-miterlimit:10;stroke-dasharray:none;stroke-opacity:1"
         id="path42255" />
      <path
         d="M 129.592,36 H 313.208"
         style="fill:none;stroke:#000000;stroke-width:0.8;stroke-linecap:square;stroke-linejoin:miter;stroke-miterlimit:10;stroke-dasharray:none;stroke-opacity:1"
         id="path42257" />
      <path
         d="M 129.592,253.44 H 313.208"
         style="fill:none;stroke:#000000;stroke-width:0.8;stroke-linecap:square;stroke-linejoin:miter;stroke-miterlimit:10;stroke-dasharray:none;stroke-opacity:1"
         id="path42259" />
      <g
         id="g42261"
         transform="translate(217.43798,88.963394)">
        <text
           xml:space="preserve"
           transform="matrix(1,0,0,-1,0,0.703125)"
           style="font-style:italic;font-variant:normal;font-size:10px;font-family:'DejaVu Sans';-inkscape-font-specification:DejaVuSans-Oblique;writing-mode:lr-tb;fill:#800080;fill-opacity:1;fill-rule:nonzero;stroke:none"
           id="text42265"><tspan
             x="0"
             y="0"
             id="tspan42263">V</tspan></text>
        <text
           xml:space="preserve"
           transform="matrix(1,0,0,-1,6.8408203,-0.9375)"
           style="font-style:italic;font-variant:normal;font-size:7px;font-family:'DejaVu Sans';-inkscape-font-specification:DejaVuSans-Oblique;writing-mode:lr-tb;fill:#800080;fill-opacity:1;fill-rule:nonzero;stroke:none"
           id="text42269"><tspan
             x="0 5.5097656"
             y="0"
             sodipodi:role="line"
             id="tspan42267">OS</tspan></text>
        <text
           xml:space="preserve"
           transform="matrix(1,0,0,-1,29.342773,0.703125)"
           style="font-style:italic;font-variant:normal;font-size:10px;font-family:'DejaVu Sans';-inkscape-font-specification:DejaVuSans-Oblique;writing-mode:lr-tb;fill:#800080;fill-opacity:1;fill-rule:nonzero;stroke:none"
           id="text42273"><tspan
             x="0"
             y="0"
             id="tspan42271">V</tspan></text>
        <text
           xml:space="preserve"
           transform="matrix(1,0,0,-1,36.183594,-0.9375)"
           style="font-style:italic;font-variant:normal;font-size:7px;font-family:'DejaVu Sans';-inkscape-font-specification:DejaVuSans-Oblique;writing-mode:lr-tb;fill:#800080;fill-opacity:1;fill-rule:nonzero;stroke:none"
           id="text42277"><tspan
             x="0 4.2758789"
             y="0"
             sodipodi:role="line"
             id="tspan42275">TS</tspan></text>
        <g
           id="g42279"
           transform="matrix(0.01,0,0,0.01,19.015625,0.703125)">
          <g
             id="g42281">
            <g
               id="g42283"
               clip-path="url(#clipPath42287)">
              <path
                 d="M 106,355 H 732 V 272 H 106 Z"
                 style="fill:#800080;fill-opacity:1;fill-rule:nonzero;stroke:none"
                 id="path42289" />
            </g>
          </g>
        </g>
      </g>
      <g
         id="g42291"
         transform="translate(139.55483,42.996152)">
        <text
           xml:space="preserve"
           transform="matrix(1,0,0,-1,0,0.703125)"
           style="font-style:italic;font-variant:normal;font-size:10px;font-family:'DejaVu Sans';-inkscape-font-specification:DejaVuSans-Oblique;writing-mode:lr-tb;fill:#ff0000;fill-opacity:1;fill-rule:nonzero;stroke:none"
           id="text42295"><tspan
             x="0"
             y="0"
             id="tspan42293">V</tspan></text>
        <text
           xml:space="preserve"
           transform="matrix(1,0,0,-1,6.8408203,-0.9375)"
           style="font-style:italic;font-variant:normal;font-size:7px;font-family:'DejaVu Sans';-inkscape-font-specification:DejaVuSans-Oblique;writing-mode:lr-tb;fill:#ff0000;fill-opacity:1;fill-rule:nonzero;stroke:none"
           id="text42299"><tspan
             x="0 4.2758789"
             y="0"
             sodipodi:role="line"
             id="tspan42297">TS</tspan></text>
      </g>
      <g
         id="g42301"
         transform="translate(199.656,132.64)">
        <text
           xml:space="preserve"
           transform="scale(1,-1)"
           style="font-variant:normal;font-weight:normal;font-size:10px;font-family:'DejaVu Sans';-inkscape-font-specification:DejaVuSans;writing-mode:lr-tb;fill:#ff0000;fill-opacity:1;fill-rule:nonzero;stroke:none"
           id="text42305"><tspan
             x="0 6.6681252"
             y="0"
             sodipodi:role="line"
             id="tspan42303">VO</tspan></text>
      </g>
      <g
         id="g42307"
         transform="translate(187.576,57.744)">
        <text
           xml:space="preserve"
           transform="scale(1,-1)"
           style="font-variant:normal;font-weight:normal;font-size:10px;font-family:'DejaVu Sans';-inkscape-font-specification:DejaVuSans;writing-mode:lr-tb;fill:#000000;fill-opacity:1;fill-rule:nonzero;stroke:none"
           id="text42311"><tspan
             x="0 7.8699999"
             y="0"
             sodipodi:role="line"
             id="tspan42309">OS</tspan></text>
      </g>
      <g
         id="g42313"
         transform="translate(167.96721,90.161146)">
        <text
           xml:space="preserve"
           transform="matrix(1,0,0,-1,0,0.703125)"
           style="font-style:italic;font-variant:normal;font-size:10px;font-family:'DejaVu Sans';-inkscape-font-specification:DejaVuSans-Oblique;writing-mode:lr-tb;fill:#000000;fill-opacity:1;fill-rule:nonzero;stroke:none"
           id="text42317"><tspan
             x="0"
             y="0"
             id="tspan42315">V</tspan></text>
        <text
           xml:space="preserve"
           transform="matrix(1,0,0,-1,6.8408203,-0.9375)"
           style="font-style:italic;font-variant:normal;font-size:7px;font-family:'DejaVu Sans';-inkscape-font-specification:DejaVuSans-Oblique;writing-mode:lr-tb;fill:#000000;fill-opacity:1;fill-rule:nonzero;stroke:none"
           id="text42321"><tspan
             x="0 5.5097656"
             y="0"
             sodipodi:role="line"
             id="tspan42319">OS</tspan></text>
      </g>
      <g
         id="g42323"
         transform="translate(226.52001,190.48171)">
        <text
           xml:space="preserve"
           transform="matrix(1,0,0,-1,0,0.703125)"
           style="font-style:italic;font-variant:normal;font-size:10px;font-family:'DejaVu Sans';-inkscape-font-specification:DejaVuSans-Oblique;writing-mode:lr-tb;fill:#000000;fill-opacity:1;fill-rule:nonzero;stroke:none"
           id="text42327"><tspan
             x="0"
             y="0"
             id="tspan42325">V</tspan></text>
        <text
           xml:space="preserve"
           transform="matrix(1,0,0,-1,6.8408203,-0.9375)"
           style="font-style:italic;font-variant:normal;font-size:7px;font-family:'DejaVu Sans';-inkscape-font-specification:DejaVuSans-Oblique;writing-mode:lr-tb;fill:#000000;fill-opacity:1;fill-rule:nonzero;stroke:none"
           id="text42331"><tspan
             x="0 4.2758789"
             y="0"
             sodipodi:role="line"
             id="tspan42329">TS</tspan></text>
      </g>
    </g>
  </g>
</svg>
