<?xml version="1.0" encoding="UTF-8" standalone="no"?>
<!-- Created with Inkscape (http://www.inkscape.org/) -->

<svg
   version="1.1"
   id="svg395559"
   width="576"
   height="384"
   viewBox="0 0 576 384"
   sodipodi:docname="VO_unc_2.svg"
   inkscape:version="1.2.2 (732a01da63, 2022-12-09)"
   xmlns:inkscape="http://www.inkscape.org/namespaces/inkscape"
   xmlns:sodipodi="http://sodipodi.sourceforge.net/DTD/sodipodi-0.dtd"
   xmlns="http://www.w3.org/2000/svg"
   xmlns:svg="http://www.w3.org/2000/svg">
  <defs
     id="defs395563">
    <clipPath
       clipPathUnits="userSpaceOnUse"
       id="clipPath395579">
      <path
         d="M 129.592,36 H 313.208 V 253.44 H 129.592 Z"
         id="path395577" />
    </clipPath>
    <clipPath
       clipPathUnits="userSpaceOnUse"
       id="clipPath395589">
      <path
         d="M 129.592,36 H 313.208 V 253.44 H 129.592 Z"
         id="path395587" />
    </clipPath>
    <clipPath
       clipPathUnits="userSpaceOnUse"
       id="clipPath395599">
      <path
         d="M 129.592,36 H 313.208 V 253.44 H 129.592 Z"
         id="path395597" />
    </clipPath>
    <clipPath
       clipPathUnits="userSpaceOnUse"
       id="clipPath395609">
      <path
         d="M 129.592,36 H 313.208 V 253.44 H 129.592 Z"
         id="path395607" />
    </clipPath>
    <clipPath
       clipPathUnits="userSpaceOnUse"
       id="clipPath395619">
      <path
         d="M 129.592,36 H 313.208 V 253.44 H 129.592 Z"
         id="path395617" />
    </clipPath>
    <clipPath
       clipPathUnits="userSpaceOnUse"
       id="clipPath395629">
      <path
         d="M 129.592,36 H 313.208 V 253.44 H 129.592 Z"
         id="path395627" />
    </clipPath>
    <clipPath
       clipPathUnits="userSpaceOnUse"
       id="clipPath395639">
      <path
         d="M 129.592,36 H 313.208 V 253.44 H 129.592 Z"
         id="path395637" />
    </clipPath>
    <clipPath
       clipPathUnits="userSpaceOnUse"
       id="clipPath395649">
      <path
         d="M 129.592,36 H 313.208 V 253.44 H 129.592 Z"
         id="path395647" />
    </clipPath>
    <clipPath
       clipPathUnits="userSpaceOnUse"
       id="clipPath395659">
      <path
         d="M 129.592,36 H 313.208 V 253.44 H 129.592 Z"
         id="path395657" />
    </clipPath>
    <clipPath
       clipPathUnits="userSpaceOnUse"
       id="clipPath395669">
      <path
         d="M 129.592,36 H 313.208 V 253.44 H 129.592 Z"
         id="path395667" />
    </clipPath>
    <clipPath
       clipPathUnits="userSpaceOnUse"
       id="clipPath395679">
      <path
         d="M 129.592,36 H 313.208 V 253.44 H 129.592 Z"
         id="path395677" />
    </clipPath>
    <clipPath
       clipPathUnits="userSpaceOnUse"
       id="clipPath395701">
      <path
         d="M -1021,-463 H 1794 V 1233 H -1021 Z"
         id="path395699" />
    </clipPath>
    <clipPath
       clipPathUnits="userSpaceOnUse"
       id="clipPath395745">
      <path
         d="M -1021,-463 H 1794 V 1233 H -1021 Z"
         id="path395743" />
    </clipPath>
    <clipPath
       clipPathUnits="userSpaceOnUse"
       id="clipPath395827">
      <path
         d="M 129.592,36 H 313.208 V 253.44 H 129.592 Z"
         id="path395825" />
    </clipPath>
    <clipPath
       clipPathUnits="userSpaceOnUse"
       id="clipPath395837">
      <path
         d="M 129.592,36 H 313.208 V 253.44 H 129.592 Z"
         id="path395835" />
    </clipPath>
    <clipPath
       clipPathUnits="userSpaceOnUse"
       id="clipPath395965">
      <path
         d="M -1021,-463 H 1794 V 1233 H -1021 Z"
         id="path395963" />
    </clipPath>
  </defs>
  <sodipodi:namedview
     id="namedview395561"
     pagecolor="#ffffff"
     bordercolor="#999999"
     borderopacity="1"
     inkscape:showpageshadow="0"
     inkscape:pageopacity="0"
     inkscape:pagecheckerboard="0"
     inkscape:deskcolor="#d1d1d1"
     showgrid="false"
     inkscape:zoom="1.4713542"
     inkscape:cx="288.16991"
     inkscape:cy="192.33982"
     inkscape:window-width="1366"
     inkscape:window-height="745"
     inkscape:window-x="-8"
     inkscape:window-y="-8"
     inkscape:window-maximized="1"
     inkscape:current-layer="g395567">
    <inkscape:page
       x="0"
       y="0"
       id="page395565"
       width="576"
       height="384" />
  </sodipodi:namedview>
  <g
     id="g395567"
     inkscape:groupmode="layer"
     inkscape:label="Page 1"
     transform="matrix(1.3333333,0,0,-1.3333333,0,384)">
    <path
       d="M 0,0 H 432 V 288 H 0 Z"
       style="fill:#ffffff;fill-opacity:1;fill-rule:nonzero;stroke:none"
       id="path395569" />
    <path
       d="M 129.592,36 H 313.208 V 253.44 H 129.592 Z"
       style="fill:#ffffff;fill-opacity:1;fill-rule:nonzero;stroke:none"
       id="path395571" />
    <g
       id="g395573">
      <g
         id="g395575"
         clip-path="url(#clipPath395579)">
        <path
           d="m 171.47527,51.481886 9.51718,-1.678136 3.35628,19.034364 -9.51719,1.678136 z"
           style="fill:#0000ff;fill-opacity:1;fill-rule:nonzero;stroke:#000000;stroke-width:1;stroke-linecap:butt;stroke-linejoin:miter;stroke-miterlimit:10;stroke-dasharray:none;stroke-opacity:1"
           id="path395581" />
      </g>
    </g>
    <g
       id="g395583">
      <g
         id="g395585"
         clip-path="url(#clipPath395589)">
        <path
           d="m 212.10624,289 -54.04458,-150.30721 -5.03441,-28.55154 2.20865,-7.96411 2.47896,-6.810893 3.42731,-7.52055 14.27577,-2.517204 15.89208,5.784244 7.6071,4.21668 L 402.79156,289"
           style="fill:none;stroke:#000000;stroke-width:1.5;stroke-linecap:square;stroke-linejoin:round;stroke-miterlimit:10;stroke-dasharray:none;stroke-opacity:1"
           id="path395591" />
      </g>
    </g>
    <g
       id="g395593">
      <g
         id="g395595"
         clip-path="url(#clipPath395599)">
        <path
           d="m 453.25654,937.59466 -8.5378,-1.65958 -286.65708,-797.24229 -5.03441,-28.55154 2.20865,-7.96411 2.47896,-6.810893 3.42731,-7.52055 14.27577,-2.517204 15.89208,5.784244 7.6071,4.21668 535.16876,508.383703 -4.70525,12.92756 z"
           style="fill:#ff0000;fill-opacity:1;fill-rule:nonzero;stroke:none"
           id="path395601" />
      </g>
    </g>
    <g
       id="g395603">
      <g
         id="g395605"
         clip-path="url(#clipPath395609)">
        <path
           d="m 220.7302,289 -56.37336,-156.78394 -5.03441,-28.55154 2.47896,-6.810896 14.27578,-2.517204 15.89208,5.78425 L 390.80001,289"
           style="fill:none;stroke:#000000;stroke-width:1.5;stroke-linecap:square;stroke-linejoin:round;stroke-miterlimit:10;stroke-dasharray:none;stroke-opacity:1"
           id="path395611" />
      </g>
    </g>
    <g
       id="g395613">
      <g
         id="g395615"
         clip-path="url(#clipPath395619)">
        <path
           d="m 451.01392,929.45835 -286.65708,-797.24229 -5.03441,-28.55154 2.47896,-6.810896 14.27578,-2.517204 15.89208,5.78425 535.16876,508.3837 z"
           style="fill:#fa8072;fill-opacity:1;fill-rule:nonzero;stroke:none"
           id="path395621" />
      </g>
    </g>
    <g
       id="g395623">
      <g
         id="g395625"
         clip-path="url(#clipPath395629)">
        <path
           d="m 296.83839,173.13416 10.06882,57.10309 -4.95793,13.62178 -28.55154,5.03441 -31.78417,-11.56849 -10.06881,-57.10309 4.95792,-13.62179 28.55155,-5.0344 z"
           style="fill:#ffff00;fill-opacity:1;fill-rule:nonzero;stroke:#000000;stroke-width:1;stroke-linecap:butt;stroke-linejoin:miter;stroke-miterlimit:10;stroke-dasharray:none;stroke-opacity:1"
           id="path395631" />
      </g>
    </g>
    <g
       id="g395633">
      <g
         id="g395635"
         clip-path="url(#clipPath395639)">
        <path
           d="m 244.41821,197.57809 4.95793,-13.62179 9.51718,-1.67813 31.78416,11.56849 3.35627,19.03436 -4.95792,13.62178 -9.51718,1.67814 -31.78417,-11.56849 z"
           style="fill:#ffa500;fill-opacity:1;fill-rule:nonzero;stroke:#000000;stroke-width:1;stroke-linecap:butt;stroke-linejoin:miter;stroke-miterlimit:10;stroke-dasharray:none;stroke-opacity:1"
           id="path395641" />
      </g>
    </g>
    <g
       id="g395643">
      <g
         id="g395645"
         clip-path="url(#clipPath395649)">
        <path
           d="m 250.85494,206.2562 4.95792,-13.62178 31.78417,11.56849 -4.95793,13.62178 z"
           style="fill:#ff0000;fill-opacity:1;fill-rule:nonzero;stroke:#000000;stroke-width:1;stroke-linecap:butt;stroke-linejoin:miter;stroke-miterlimit:10;stroke-dasharray:none;stroke-opacity:1"
           id="path395651" />
      </g>
    </g>
    <g
       id="g395653">
      <g
         id="g395655"
         clip-path="url(#clipPath395659)">
        <path
           d="m 177.912,59.600983 c 0.14825,0 0.29045,0.0589 0.39528,0.163732 0.10483,0.104831 0.16374,0.247032 0.16374,0.395285 0,0.148253 -0.0589,0.290454 -0.16374,0.395285 -0.10483,0.10483 -0.24703,0.163732 -0.39528,0.163732 -0.14825,0 -0.29045,-0.0589 -0.39529,-0.163732 -0.10483,-0.104831 -0.16373,-0.247032 -0.16373,-0.395285 0,-0.148253 0.0589,-0.290454 0.16373,-0.395285 0.10484,-0.10483 0.24704,-0.163732 0.39529,-0.163732 z"
           style="fill:#000000;fill-opacity:1;fill-rule:nonzero;stroke:#000000;stroke-width:1;stroke-linecap:butt;stroke-linejoin:round;stroke-miterlimit:10;stroke-dasharray:none;stroke-opacity:1"
           id="path395661" />
      </g>
    </g>
    <g
       id="g395663">
      <g
         id="g395665"
         clip-path="url(#clipPath395669)">
        <path
           d="m 269.22598,204.67054 c 0.14826,0 0.29046,0.0589 0.39529,0.16373 0.10483,0.10483 0.16373,0.24703 0.16373,0.39528 0,0.14826 -0.0589,0.29046 -0.16373,0.39529 -0.10483,0.10483 -0.24703,0.16373 -0.39529,0.16373 -0.14825,0 -0.29045,-0.0589 -0.39528,-0.16373 -0.10483,-0.10483 -0.16373,-0.24703 -0.16373,-0.39529 0,-0.14825 0.0589,-0.29045 0.16373,-0.39528 0.10483,-0.10483 0.24703,-0.16373 0.39528,-0.16373 z"
           style="fill:#000000;fill-opacity:1;fill-rule:nonzero;stroke:#000000;stroke-width:1;stroke-linecap:butt;stroke-linejoin:round;stroke-miterlimit:10;stroke-dasharray:none;stroke-opacity:1"
           id="path395671" />
      </g>
    </g>
    <g
       id="g395673">
      <g
         id="g395675"
         clip-path="url(#clipPath395679)">
        <path
           d="m 223.16081,179.69521 -3.42731,7.52055 -2.20864,7.96411 8.5378,1.65958 1.84391,-6.64893 2.86133,-6.27863 z"
           style="fill:#008000;fill-opacity:1;fill-rule:nonzero;stroke:#000000;stroke-width:1.5;stroke-linecap:butt;stroke-linejoin:miter;stroke-miterlimit:10;stroke-dasharray:none;stroke-opacity:1"
           id="path395681" />
      </g>
    </g>
    <g
       id="g395821">
      <g
         id="g395823"
         clip-path="url(#clipPath395827)">
        <path
           d="m 177.00787,60.319423 3.5996,20.414356 -1.96769,-0.585287 4.30663,8.563054 1.11817,-9.519591 -1.64885,1.222978 -3.5996,-20.414356 -1.80826,0.318846"
           style="fill:#000000;fill-opacity:1;fill-rule:nonzero;stroke:none"
           id="path395829" />
      </g>
    </g>
    <g
       id="g395831">
      <g
         id="g395833"
         clip-path="url(#clipPath395837)">
        <path
           d="m 269.53998,204.36684 -37.64153,-13.7004 1.49072,-1.41142 -9.56913,-0.55188 7.68512,5.72816 -0.23471,-2.03943 37.64153,13.7004 0.628,-1.72543"
           style="fill:#000000;fill-opacity:1;fill-rule:nonzero;stroke:none"
           id="path395839" />
      </g>
    </g>
    <g
       id="g395841">
      <path
         d="M 129.592,36 V 253.44"
         style="fill:none;stroke:#000000;stroke-width:0.8;stroke-linecap:square;stroke-linejoin:miter;stroke-miterlimit:10;stroke-dasharray:none;stroke-opacity:1"
         id="path395843" />
      <path
         d="M 313.208,36 V 253.44"
         style="fill:none;stroke:#000000;stroke-width:0.8;stroke-linecap:square;stroke-linejoin:miter;stroke-miterlimit:10;stroke-dasharray:none;stroke-opacity:1"
         id="path395845" />
      <path
         d="M 129.592,36 H 313.208"
         style="fill:none;stroke:#000000;stroke-width:0.8;stroke-linecap:square;stroke-linejoin:miter;stroke-miterlimit:10;stroke-dasharray:none;stroke-opacity:1"
         id="path395847" />
      <path
         d="M 129.592,253.44 H 313.208"
         style="fill:none;stroke:#000000;stroke-width:0.8;stroke-linecap:square;stroke-linejoin:miter;stroke-miterlimit:10;stroke-dasharray:none;stroke-opacity:1"
         id="path395849" />
      <g
         id="g395851"
         transform="translate(187.576,132.64)">
        <text
           xml:space="preserve"
           transform="scale(1,-1)"
           style="font-variant:normal;font-weight:normal;font-size:10px;font-family:'DejaVu Sans';-inkscape-font-specification:DejaVuSans;writing-mode:lr-tb;fill:#ff0000;fill-opacity:1;fill-rule:nonzero;stroke:none"
           id="text395855"><tspan
             x="0 6.6681252"
             y="0"
             sodipodi:role="line"
             id="tspan395853">VO</tspan></text>
      </g>
      <g
         id="g395857"
         transform="translate(187.576,57.744)">
        <text
           xml:space="preserve"
           transform="scale(1,-1)"
           style="font-variant:normal;font-weight:normal;font-size:10px;font-family:'DejaVu Sans';-inkscape-font-specification:DejaVuSans;writing-mode:lr-tb;fill:#000000;fill-opacity:1;fill-rule:nonzero;stroke:none"
           id="text395861"><tspan
             x="0 7.8699999"
             y="0"
             sodipodi:role="line"
             id="tspan395859">OS</tspan></text>
      </g>
      <g
         id="g395863"
         transform="translate(185.36241,79.047546)">
        <text
           xml:space="preserve"
           transform="matrix(1,0,0,-1,0,0.703125)"
           style="font-style:italic;font-variant:normal;font-size:10px;font-family:'DejaVu Sans';-inkscape-font-specification:DejaVuSans-Oblique;writing-mode:lr-tb;fill:#000000;fill-opacity:1;fill-rule:nonzero;stroke:none"
           id="text395867"><tspan
             x="0"
             y="0"
             id="tspan395865">V</tspan></text>
        <text
           xml:space="preserve"
           transform="matrix(1,0,0,-1,6.8408203,-0.9375)"
           style="font-style:italic;font-variant:normal;font-size:7px;font-family:'DejaVu Sans';-inkscape-font-specification:DejaVuSans-Oblique;writing-mode:lr-tb;fill:#000000;fill-opacity:1;fill-rule:nonzero;stroke:none"
           id="text395871"><tspan
             x="0 5.5097656"
             y="0"
             sodipodi:role="line"
             id="tspan395869">OS</tspan></text>
      </g>
      <g
         id="g395873"
         transform="translate(232.51764,179.03914)">
        <text
           xml:space="preserve"
           transform="matrix(1,0,0,-1,0,0.703125)"
           style="font-style:italic;font-variant:normal;font-size:10px;font-family:'DejaVu Sans';-inkscape-font-specification:DejaVuSans-Oblique;writing-mode:lr-tb;fill:#000000;fill-opacity:1;fill-rule:nonzero;stroke:none"
           id="text395877"><tspan
             x="0"
             y="0"
             id="tspan395875">V</tspan></text>
        <text
           xml:space="preserve"
           transform="matrix(1,0,0,-1,6.8408203,-0.9375)"
           style="font-style:italic;font-variant:normal;font-size:7px;font-family:'DejaVu Sans';-inkscape-font-specification:DejaVuSans-Oblique;writing-mode:lr-tb;fill:#000000;fill-opacity:1;fill-rule:nonzero;stroke:none"
           id="text395881"><tspan
             x="0 4.2758789"
             y="0"
             sodipodi:role="line"
             id="tspan395879">TS</tspan></text>
      </g>
      <path
         d="m 187.96216,227.58146 c 22.2516,-5.07209 33.69793,-17.96169 34.339,-38.66882"
         style="fill:none;stroke:#000000;stroke-width:1;stroke-linecap:round;stroke-linejoin:round;stroke-miterlimit:10;stroke-dasharray:none;stroke-opacity:1"
         id="path395883" />
      <path
         d="m 224.17642,192.97261 -1.87526,-4.05997 -2.12282,3.93619"
         style="fill:none;stroke:#000000;stroke-width:1;stroke-linecap:round;stroke-linejoin:round;stroke-miterlimit:10;stroke-dasharray:none;stroke-opacity:1"
         id="path395885" />
      <g
         id="g395887"
         transform="translate(133.3664,238.567)">
        <text
           xml:space="preserve"
           transform="scale(1,-1)"
           style="font-variant:normal;font-weight:normal;font-size:10px;font-family:'DejaVu Sans';-inkscape-font-specification:DejaVuSans;writing-mode:lr-tb;fill:#000000;fill-opacity:1;fill-rule:nonzero;stroke:none"
           id="text395891"><tspan
             x="0 7.3200002 13.66 19.16 25.309999 29.42 33.34 39.470001 42.25 48.59 52.509998 58.43"
             y="0"
             sodipodi:role="line"
             id="tspan395889">Uncertainty </tspan></text>
      </g>
      <g
         id="g395893"
         transform="translate(133.3664,226.98263)">
        <text
           xml:space="preserve"
           transform="matrix(1,0,0,-1,0,0.40625)"
           style="font-variant:normal;font-weight:normal;font-size:10px;font-family:'DejaVu Sans';-inkscape-font-specification:DejaVuSans;writing-mode:lr-tb;fill:#000000;fill-opacity:1;fill-rule:nonzero;stroke:none"
           id="text395897"><tspan
             x="0 2.7783203 9.1162109"
             y="0"
             sodipodi:role="line"
             id="tspan395895">in </tspan></text>
        <text
           xml:space="preserve"
           transform="matrix(1,0,0,-1,12.294922,0.40625)"
           style="font-style:italic;font-variant:normal;font-size:10px;font-family:'DejaVu Sans';-inkscape-font-specification:DejaVuSans-Oblique;writing-mode:lr-tb;fill:#000000;fill-opacity:1;fill-rule:nonzero;stroke:none"
           id="text395901"><tspan
             x="0"
             y="0"
             id="tspan395899">V</tspan></text>
        <text
           xml:space="preserve"
           transform="matrix(1,0,0,-1,19.135742,-1.234375)"
           style="font-style:italic;font-variant:normal;font-size:7px;font-family:'DejaVu Sans';-inkscape-font-specification:DejaVuSans-Oblique;writing-mode:lr-tb;fill:#000000;fill-opacity:1;fill-rule:nonzero;stroke:none"
           id="text395905"><tspan
             x="0 4.2758789"
             y="0"
             sodipodi:role="line"
             id="tspan395903">TS</tspan></text>
      </g>
      <g
         id="g395907"
         transform="translate(133.3664,215.792)">
        <text
           xml:space="preserve"
           transform="scale(1,-1)"
           style="font-variant:normal;font-weight:normal;font-size:10px;font-family:'DejaVu Sans';-inkscape-font-specification:DejaVuSans;writing-mode:lr-tb;fill:#000000;fill-opacity:1;fill-rule:nonzero;stroke:none"
           id="text395911"><tspan
             x="0 3.9000001 11.22 17.559999 23.059999"
             y="0"
             sodipodi:role="line"
             id="tspan395909">(Unc)</tspan></text>
      </g>
      <path
         d="m 267.62689,108.49729 c -5.49838,15.5126 -16.64627,23.5377 -33.44365,24.07532"
         style="fill:none;stroke:#000000;stroke-width:1;stroke-linecap:round;stroke-linejoin:round;stroke-miterlimit:10;stroke-dasharray:none;stroke-opacity:1"
         id="path395913" />
      <path
         d="m 238.11722,130.44567 -3.93398,2.12694 4.06194,1.87102"
         style="fill:none;stroke:#000000;stroke-width:1;stroke-linecap:round;stroke-linejoin:round;stroke-miterlimit:10;stroke-dasharray:none;stroke-opacity:1"
         id="path395915" />
      <g
         id="g395917"
         transform="translate(241.064,96.999375)">
        <text
           xml:space="preserve"
           transform="scale(1,-1)"
           style="font-variant:normal;font-weight:normal;font-size:10px;font-family:'DejaVu Sans';-inkscape-font-specification:DejaVuSans;writing-mode:lr-tb;fill:#000000;fill-opacity:1;fill-rule:nonzero;stroke:none"
           id="text395921"><tspan
             x="0 6.6681252 14.538125 17.718124 25.898125 28.678125 32.598125 38.938126"
             y="0"
             sodipodi:role="line"
             id="tspan395919">VO with </tspan></text>
      </g>
      <g
         id="g395923"
         transform="translate(241.064,85.80875)">
        <text
           xml:space="preserve"
           transform="scale(1,-1)"
           style="font-variant:normal;font-weight:normal;font-size:10px;font-family:'DejaVu Sans';-inkscape-font-specification:DejaVuSans;writing-mode:lr-tb;fill:#000000;fill-opacity:1;fill-rule:nonzero;stroke:none"
           id="text395927"><tspan
             x="0 6.3400002 12.68 18.18 24.33 28.440001 32.360001 38.490002 41.27 47.610001 51.529999 57.450001"
             y="0"
             sodipodi:role="line"
             id="tspan395925">uncertainty </tspan></text>
      </g>
      <g
         id="g395929"
         transform="translate(241.064,74.224375)">
        <text
           xml:space="preserve"
           transform="matrix(1,0,0,-1,0,0.40625)"
           style="font-variant:normal;font-weight:normal;font-size:10px;font-family:'DejaVu Sans';-inkscape-font-specification:DejaVuSans;writing-mode:lr-tb;fill:#000000;fill-opacity:1;fill-rule:nonzero;stroke:none"
           id="text395933"><tspan
             x="0 2.7783203 9.1162109"
             y="0"
             sodipodi:role="line"
             id="tspan395931">in </tspan></text>
        <text
           xml:space="preserve"
           transform="matrix(1,0,0,-1,12.294922,0.40625)"
           style="font-style:italic;font-variant:normal;font-size:10px;font-family:'DejaVu Sans';-inkscape-font-specification:DejaVuSans-Oblique;writing-mode:lr-tb;fill:#000000;fill-opacity:1;fill-rule:nonzero;stroke:none"
           id="text395937"><tspan
             x="0"
             y="0"
             id="tspan395935">V</tspan></text>
        <text
           xml:space="preserve"
           transform="matrix(1,0,0,-1,19.135742,-1.234375)"
           style="font-style:italic;font-variant:normal;font-size:7px;font-family:'DejaVu Sans';-inkscape-font-specification:DejaVuSans-Oblique;writing-mode:lr-tb;fill:#000000;fill-opacity:1;fill-rule:nonzero;stroke:none"
           id="text395941"><tspan
             x="0 4.2758789"
             y="0"
             sodipodi:role="line"
             id="tspan395939">TS</tspan></text>
      </g>
      <g
         id="g395943"
         transform="translate(241.064,62.64)">
        <text
           xml:space="preserve"
           transform="matrix(1,0,0,-1,0,0.40625)"
           style="font-variant:normal;font-weight:normal;font-size:10px;font-family:'DejaVu Sans';-inkscape-font-specification:DejaVuSans;writing-mode:lr-tb;fill:#000000;fill-opacity:1;fill-rule:nonzero;stroke:none"
           id="text395947"><tspan
             x="0"
             y="0"
             id="tspan395945">(</tspan></text>
        <text
           xml:space="preserve"
           transform="matrix(1,0,0,-1,3.9013672,0.40625)"
           style="font-style:italic;font-variant:normal;font-size:10px;font-family:'DejaVu Sans';-inkscape-font-specification:DejaVuSans-Oblique;writing-mode:lr-tb;fill:#000000;fill-opacity:1;fill-rule:nonzero;stroke:none"
           id="text395951"><tspan
             x="0 6.8408203 26.987305 34.306641 40.644531"
             y="0"
             sodipodi:role="line"
             id="tspan395949">VOUnc</tspan></text>
        <text
           xml:space="preserve"
           transform="matrix(1,0,0,-1,50.043945,0.40625)"
           style="font-variant:normal;font-weight:normal;font-size:10px;font-family:'DejaVu Sans';-inkscape-font-specification:DejaVuSans;writing-mode:lr-tb;fill:#000000;fill-opacity:1;fill-rule:nonzero;stroke:none"
           id="text395955"><tspan
             x="0"
             y="0"
             id="tspan395953">)</tspan></text>
        <g
           id="g395957"
           transform="matrix(0.01,0,0,0.01,20.561523,0.40625)">
          <g
             id="g395959">
            <g
               id="g395961"
               clip-path="url(#clipPath395965)">
              <path
                 d="m 517,550 c -31,12 -64,19 -98,19 -35,0 -68,-7 -98,-19 -30,-13 -58,-32 -82,-56 -25,-25 -44,-52 -56,-82 -12,-30 -18,-63 -18,-99 0,-34 6,-66 18,-96 12,-30 31,-58 56,-83 24,-25 52,-44 82,-56 30,-13 63,-19 98,-19 34,0 67,6 98,19 30,12 57,31 82,56 24,25 43,53 55,83 12,30 19,62 19,96 0,36 -7,69 -19,99 -12,30 -31,57 -55,82 -25,24 -52,43 -82,56 z m -224,68 c 39,16 81,25 126,25 44,0 86,-9 125,-25 39,-16 74,-40 106,-72 32,-32 57,-68 73,-106 16,-39 24,-81 24,-127 0,-44 -8,-86 -24,-124 C 707,150 683,115 651,83 619,51 583,27 544,11 505,-5 463,-13 419,-13 c -45,0 -87,8 -126,24 -39,16 -74,40 -105,72 -33,32 -57,67 -73,106 -16,38 -24,80 -24,124 0,46 8,88 24,127 16,38 40,74 73,106 31,32 66,56 105,72 z M 460,529 V 355 H 634 V 272 H 460 V 98 H 377 V 272 H 204 v 83 h 173 v 174 z"
                 style="fill:#000000;fill-opacity:1;fill-rule:nonzero;stroke:none"
                 id="path395967" />
            </g>
          </g>
        </g>
      </g>
    </g>
  </g>
</svg>
