<?xml version="1.0" encoding="utf-8" standalone="no"?>
<!DOCTYPE svg PUBLIC "-//W3C//DTD SVG 1.1//EN"
  "http://www.w3.org/Graphics/SVG/1.1/DTD/svg11.dtd">
<svg xmlns:xlink="http://www.w3.org/1999/xlink" width="460.8pt" height="345.6pt" viewBox="0 0 460.8 345.6" xmlns="http://www.w3.org/2000/svg" version="1.1">
 <metadata>
  <rdf:RDF xmlns:dc="http://purl.org/dc/elements/1.1/" xmlns:cc="http://creativecommons.org/ns#" xmlns:rdf="http://www.w3.org/1999/02/22-rdf-syntax-ns#">
   <cc:Work>
    <dc:type rdf:resource="http://purl.org/dc/dcmitype/StillImage"/>
    <dc:date>2023-04-02T16:53:48.755410</dc:date>
    <dc:format>image/svg+xml</dc:format>
    <dc:creator>
     <cc:Agent>
      <dc:title>Matplotlib v3.5.1, https://matplotlib.org/</dc:title>
     </cc:Agent>
    </dc:creator>
   </cc:Work>
  </rdf:RDF>
 </metadata>
 <defs>
  <style type="text/css">*{stroke-linejoin: round; stroke-linecap: butt}</style>
 </defs>
 <g id="figure_1">
  <g id="patch_1">
   <path d="M 0 345.6 
L 460.8 345.6 
L 460.8 0 
L 0 0 
z
" style="fill: #ffffff"/>
  </g>
  <g id="axes_1">
   <g id="patch_2">
    <path d="M 103.104 307.584 
L 369.216 307.584 
L 369.216 41.472 
L 103.104 41.472 
z
" style="fill: #ffffff"/>
   </g>
   <g id="patch_3">
    <path d="M 109.451243 298.641314 
L 112.046686 301.236757 
L 118.535293 294.74815 
L 115.93985 292.152707 
z
" clip-path="url(#p401a1823ef)" style="fill: #0000ff; stroke: #000000; stroke-linejoin: miter"/>
   </g>
   <g id="patch_4">
    <path d="M 109.451243 298.641314 
L 112.046686 301.236757 
L 118.535293 294.74815 
L 115.93985 292.152707 
z
" clip-path="url(#p401a1823ef)" style="fill: #0000ff; stroke: #000000; stroke-linejoin: miter"/>
   </g>
   <g id="patch_5">
    <path d="M 8938.249863 -9048.959591 
L 126.19741 280.105041 
L 127.321773 281.289872 
L 127.840862 281.808961 
L 129.398128 283.366226 
L 130.582959 284.490589 
L 9459.647617 -8527.561853 
z
" clip-path="url(#p401a1823ef)" style="fill: #ff0000; opacity: 0.5"/>
   </g>
   <g id="patch_6">
    <path d="M 10135.002921 -838.821504 
L 144.2924 281.285427 
L 143.734832 281.814539 
L 142.696655 282.852716 
L 138.803491 286.745881 
L 138.274379 287.303448 
L 140.869822 289.898891 
L 142.427087 291.456157 
L 147.882529 296.368258 
L 9944.713511 1438.189698 
z
" clip-path="url(#p401a1823ef)" style="fill: #ff0000; opacity: 0.5"/>
   </g>
   <g id="line2d_1">
    <path d="M 112.280276 298.407724 
L 405.921103 4.766897 
" clip-path="url(#p401a1823ef)" style="fill: none; stroke: #808080; stroke-width: 1.5; stroke-linecap: square"/>
   </g>
   <g id="line2d_2">
    <path d="M 314.158345 96.529655 
L 314.158345 96.529655 
L 314.158345 96.529655 
L 314.158345 96.529655 
L 314.158345 96.529655 
L 314.158345 96.529655 
L 314.158345 96.529655 
L 313.84689 96.84111 
L 313.535436 97.152564 
L 313.223981 97.464019 
L 312.912527 97.775473 
L 312.601073 98.086927 
L 312.289618 98.398382 
L 311.978181 98.709819 
L 311.666727 99.021273 
L 311.355272 99.332728 
L 311.043818 99.644182 
L 310.732363 99.955637 
" clip-path="url(#p401a1823ef)" style="fill: none; stroke-dasharray: 9.6,2.4,1.5,2.4; stroke-dashoffset: 0; stroke: #ff0000; stroke-width: 1.5"/>
   </g>
   <g id="line2d_3">
    <path d="M 314.158345 298.407724 
L 314.158345 298.407724 
L 314.158345 298.407724 
L 314.158345 298.407724 
L 314.158345 298.407724 
L 314.158345 298.407724 
L 314.033763 298.283143 
L 313.909181 298.158562 
L 313.784599 298.03398 
L 313.660018 297.909399 
L 313.535436 297.784818 
L 313.410854 297.660237 
L 313.286272 297.535655 
L 313.161691 297.411074 
L 313.037109 297.286493 
L 312.912527 297.161912 
L 312.787945 297.03733 
L 312.663363 296.912749 
" clip-path="url(#p401a1823ef)" style="fill: none; stroke-dasharray: 1.5,2.475; stroke-dashoffset: 0; stroke: #ff0000; stroke-width: 1.5"/>
   </g>
   <g id="patch_7">
    <path d="M 290.942113 109.364117 
L 293.537555 111.95956 
L 301.323884 119.745888 
L 311.056794 110.012977 
L 330.522614 90.547156 
L 327.927172 87.951714 
L 320.140843 80.165385 
L 310.407933 89.898296 
z
" clip-path="url(#p401a1823ef)" style="fill: #ffff00; stroke: #000000; stroke-linejoin: miter"/>
   </g>
   <g id="patch_8">
    <path d="M 300.026162 105.470953 
L 302.621605 108.066395 
L 305.217048 110.661838 
L 314.949958 100.928928 
L 321.438565 94.440321 
L 318.843122 91.844878 
L 316.247679 89.249435 
L 306.514769 98.982345 
z
" clip-path="url(#p401a1823ef)" style="fill: #ffa500; stroke: #000000; stroke-linejoin: miter"/>
   </g>
   <g id="patch_9">
    <path d="M 304.568187 103.52437 
L 307.16363 106.119813 
L 316.89654 96.386903 
L 314.301097 93.79146 
z
" clip-path="url(#p401a1823ef)" style="fill: #ff0000; stroke: #000000; stroke-linejoin: miter"/>
   </g>
   <g id="patch_10">
    <path d="M 289.953239 298.859332 
L 302.930453 311.836545 
L 310.716782 319.622873 
L 315.907667 314.431988 
L 335.373487 294.966167 
L 322.396274 281.988953 
L 314.609945 274.202625 
L 309.41906 279.39351 
z
" clip-path="url(#p401a1823ef)" style="fill: #ffff00; stroke: #000000; stroke-linejoin: miter"/>
   </g>
   <g id="patch_11">
    <path d="M 299.037289 294.966167 
L 312.014503 307.943381 
L 314.609946 310.538824 
L 319.800831 305.347938 
L 326.289438 298.859331 
L 313.312224 285.882117 
L 310.716781 283.286675 
L 305.525896 288.47756 
z
" clip-path="url(#p401a1823ef)" style="fill: #ffa500; stroke: #000000; stroke-linejoin: miter"/>
   </g>
   <g id="patch_12">
    <path d="M 303.579314 293.019585 
L 316.556528 305.996799 
L 321.747413 300.805913 
L 308.770199 287.828699 
z
" clip-path="url(#p401a1823ef)" style="fill: url(#h8bcc93741f); stroke: #000000; stroke-linejoin: miter"/>
   </g>
   <g id="line2d_4">
    <path d="M 112.280276 298.407724 
L 112.280276 298.407724 
L 112.280276 298.407724 
L 112.280276 298.407724 
L 112.280276 298.407724 
L 112.280276 298.407724 
L 112.280276 298.407724 
L 112.436002 298.251998 
L 112.591729 298.096271 
L 112.747456 297.940544 
L 112.903182 297.784818 
L 113.058909 297.629091 
L 113.214635 297.473365 
L 113.370362 297.317638 
L 113.526088 297.161912 
L 113.681815 297.006185 
L 113.837542 296.850458 
L 113.993268 296.694732 
" clip-path="url(#p401a1823ef)" style="fill: none; stroke-dasharray: 5.55,2.4; stroke-dashoffset: 0; stroke: #008080; stroke-width: 1.5"/>
   </g>
   <g id="PathCollection_1">
    <defs>
     <path id="mb3aa7b21cf" d="M -3 0 
L 3 0 
M 0 3 
L 0 -3 
" style="stroke: #696969; stroke-width: 1.5"/>
    </defs>
    <g clip-path="url(#p401a1823ef)">
     <use xlink:href="#mb3aa7b21cf" x="350.863448" y="59.824552" style="fill: #696969; stroke: #696969; stroke-width: 1.5"/>
    </g>
   </g>
   <g id="PathCollection_2">
    <defs>
     <path id="m68e4a67c72" d="M 0 0.559017 
C 0.148253 0.559017 0.290454 0.500115 0.395285 0.395285 
C 0.500115 0.290454 0.559017 0.148253 0.559017 0 
C 0.559017 -0.148253 0.500115 -0.290454 0.395285 -0.395285 
C 0.290454 -0.500115 0.148253 -0.559017 0 -0.559017 
C -0.148253 -0.559017 -0.290454 -0.500115 -0.395285 -0.395285 
C -0.500115 -0.290454 -0.559017 -0.148253 -0.559017 0 
C -0.559017 0.148253 -0.500115 0.290454 -0.395285 0.395285 
C -0.290454 0.500115 -0.148253 0.559017 0 0.559017 
z
" style="stroke: #000000"/>
    </defs>
    <g clip-path="url(#p401a1823ef)">
     <use xlink:href="#m68e4a67c72" x="113.993268" y="296.694732" style="stroke: #000000"/>
    </g>
   </g>
   <g id="PathCollection_3">
    <g clip-path="url(#p401a1823ef)">
     <use xlink:href="#m68e4a67c72" x="310.732363" y="99.955637" style="stroke: #000000"/>
    </g>
   </g>
   <g id="PathCollection_4">
    <g clip-path="url(#p401a1823ef)">
     <use xlink:href="#m68e4a67c72" x="113.993268" y="296.694732" style="stroke: #000000"/>
    </g>
   </g>
   <g id="PathCollection_5">
    <g clip-path="url(#p401a1823ef)">
     <use xlink:href="#m68e4a67c72" x="312.663363" y="296.912749" style="stroke: #000000"/>
    </g>
   </g>
   <g id="matplotlib.axis_1">
    <g id="xtick_1">
     <g id="line2d_5">
      <defs>
       <path id="md78190a0d6" d="M 0 0 
L 0 3.5 
" style="stroke: #000000; stroke-width: 0.8"/>
      </defs>
      <g>
       <use xlink:href="#md78190a0d6" x="112.280276" y="307.584" style="stroke: #000000; stroke-width: 0.8"/>
      </g>
     </g>
     <g id="text_1">
      <!-- 0 -->
      <g transform="translate(109.099026 322.182437)scale(0.1 -0.1)">
       <defs>
        <path id="DejaVuSans-30" d="M 2034 4250 
Q 1547 4250 1301 3770 
Q 1056 3291 1056 2328 
Q 1056 1369 1301 889 
Q 1547 409 2034 409 
Q 2525 409 2770 889 
Q 3016 1369 3016 2328 
Q 3016 3291 2770 3770 
Q 2525 4250 2034 4250 
z
M 2034 4750 
Q 2819 4750 3233 4129 
Q 3647 3509 3647 2328 
Q 3647 1150 3233 529 
Q 2819 -91 2034 -91 
Q 1250 -91 836 529 
Q 422 1150 422 2328 
Q 422 3509 836 4129 
Q 1250 4750 2034 4750 
z
" transform="scale(0.015625)"/>
       </defs>
       <use xlink:href="#DejaVuSans-30"/>
      </g>
     </g>
    </g>
    <g id="xtick_2">
     <g id="line2d_6">
      <g>
       <use xlink:href="#md78190a0d6" x="148.985379" y="307.584" style="stroke: #000000; stroke-width: 0.8"/>
      </g>
     </g>
     <g id="text_2">
      <!-- 2 -->
      <g transform="translate(145.804129 322.182437)scale(0.1 -0.1)">
       <defs>
        <path id="DejaVuSans-32" d="M 1228 531 
L 3431 531 
L 3431 0 
L 469 0 
L 469 531 
Q 828 903 1448 1529 
Q 2069 2156 2228 2338 
Q 2531 2678 2651 2914 
Q 2772 3150 2772 3378 
Q 2772 3750 2511 3984 
Q 2250 4219 1831 4219 
Q 1534 4219 1204 4116 
Q 875 4013 500 3803 
L 500 4441 
Q 881 4594 1212 4672 
Q 1544 4750 1819 4750 
Q 2544 4750 2975 4387 
Q 3406 4025 3406 3419 
Q 3406 3131 3298 2873 
Q 3191 2616 2906 2266 
Q 2828 2175 2409 1742 
Q 1991 1309 1228 531 
z
" transform="scale(0.015625)"/>
       </defs>
       <use xlink:href="#DejaVuSans-32"/>
      </g>
     </g>
    </g>
    <g id="xtick_3">
     <g id="line2d_7">
      <g>
       <use xlink:href="#md78190a0d6" x="185.690483" y="307.584" style="stroke: #000000; stroke-width: 0.8"/>
      </g>
     </g>
     <g id="text_3">
      <!-- 4 -->
      <g transform="translate(182.509233 322.182437)scale(0.1 -0.1)">
       <defs>
        <path id="DejaVuSans-34" d="M 2419 4116 
L 825 1625 
L 2419 1625 
L 2419 4116 
z
M 2253 4666 
L 3047 4666 
L 3047 1625 
L 3713 1625 
L 3713 1100 
L 3047 1100 
L 3047 0 
L 2419 0 
L 2419 1100 
L 313 1100 
L 313 1709 
L 2253 4666 
z
" transform="scale(0.015625)"/>
       </defs>
       <use xlink:href="#DejaVuSans-34"/>
      </g>
     </g>
    </g>
    <g id="xtick_4">
     <g id="line2d_8">
      <g>
       <use xlink:href="#md78190a0d6" x="222.395586" y="307.584" style="stroke: #000000; stroke-width: 0.8"/>
      </g>
     </g>
     <g id="text_4">
      <!-- 6 -->
      <g transform="translate(219.214336 322.182437)scale(0.1 -0.1)">
       <defs>
        <path id="DejaVuSans-36" d="M 2113 2584 
Q 1688 2584 1439 2293 
Q 1191 2003 1191 1497 
Q 1191 994 1439 701 
Q 1688 409 2113 409 
Q 2538 409 2786 701 
Q 3034 994 3034 1497 
Q 3034 2003 2786 2293 
Q 2538 2584 2113 2584 
z
M 3366 4563 
L 3366 3988 
Q 3128 4100 2886 4159 
Q 2644 4219 2406 4219 
Q 1781 4219 1451 3797 
Q 1122 3375 1075 2522 
Q 1259 2794 1537 2939 
Q 1816 3084 2150 3084 
Q 2853 3084 3261 2657 
Q 3669 2231 3669 1497 
Q 3669 778 3244 343 
Q 2819 -91 2113 -91 
Q 1303 -91 875 529 
Q 447 1150 447 2328 
Q 447 3434 972 4092 
Q 1497 4750 2381 4750 
Q 2619 4750 2861 4703 
Q 3103 4656 3366 4563 
z
" transform="scale(0.015625)"/>
       </defs>
       <use xlink:href="#DejaVuSans-36"/>
      </g>
     </g>
    </g>
    <g id="xtick_5">
     <g id="line2d_9">
      <g>
       <use xlink:href="#md78190a0d6" x="259.10069" y="307.584" style="stroke: #000000; stroke-width: 0.8"/>
      </g>
     </g>
     <g id="text_5">
      <!-- 8 -->
      <g transform="translate(255.91944 322.182437)scale(0.1 -0.1)">
       <defs>
        <path id="DejaVuSans-38" d="M 2034 2216 
Q 1584 2216 1326 1975 
Q 1069 1734 1069 1313 
Q 1069 891 1326 650 
Q 1584 409 2034 409 
Q 2484 409 2743 651 
Q 3003 894 3003 1313 
Q 3003 1734 2745 1975 
Q 2488 2216 2034 2216 
z
M 1403 2484 
Q 997 2584 770 2862 
Q 544 3141 544 3541 
Q 544 4100 942 4425 
Q 1341 4750 2034 4750 
Q 2731 4750 3128 4425 
Q 3525 4100 3525 3541 
Q 3525 3141 3298 2862 
Q 3072 2584 2669 2484 
Q 3125 2378 3379 2068 
Q 3634 1759 3634 1313 
Q 3634 634 3220 271 
Q 2806 -91 2034 -91 
Q 1263 -91 848 271 
Q 434 634 434 1313 
Q 434 1759 690 2068 
Q 947 2378 1403 2484 
z
M 1172 3481 
Q 1172 3119 1398 2916 
Q 1625 2713 2034 2713 
Q 2441 2713 2670 2916 
Q 2900 3119 2900 3481 
Q 2900 3844 2670 4047 
Q 2441 4250 2034 4250 
Q 1625 4250 1398 4047 
Q 1172 3844 1172 3481 
z
" transform="scale(0.015625)"/>
       </defs>
       <use xlink:href="#DejaVuSans-38"/>
      </g>
     </g>
    </g>
    <g id="xtick_6">
     <g id="line2d_10">
      <g>
       <use xlink:href="#md78190a0d6" x="295.805793" y="307.584" style="stroke: #000000; stroke-width: 0.8"/>
      </g>
     </g>
     <g id="text_6">
      <!-- 10 -->
      <g transform="translate(289.443293 322.182437)scale(0.1 -0.1)">
       <defs>
        <path id="DejaVuSans-31" d="M 794 531 
L 1825 531 
L 1825 4091 
L 703 3866 
L 703 4441 
L 1819 4666 
L 2450 4666 
L 2450 531 
L 3481 531 
L 3481 0 
L 794 0 
L 794 531 
z
" transform="scale(0.015625)"/>
       </defs>
       <use xlink:href="#DejaVuSans-31"/>
       <use xlink:href="#DejaVuSans-30" x="63.623047"/>
      </g>
     </g>
    </g>
    <g id="xtick_7">
     <g id="line2d_11">
      <g>
       <use xlink:href="#md78190a0d6" x="332.510897" y="307.584" style="stroke: #000000; stroke-width: 0.8"/>
      </g>
     </g>
     <g id="text_7">
      <!-- 12 -->
      <g transform="translate(326.148397 322.182437)scale(0.1 -0.1)">
       <use xlink:href="#DejaVuSans-31"/>
       <use xlink:href="#DejaVuSans-32" x="63.623047"/>
      </g>
     </g>
    </g>
    <g id="xtick_8">
     <g id="line2d_12">
      <g>
       <use xlink:href="#md78190a0d6" x="369.216" y="307.584" style="stroke: #000000; stroke-width: 0.8"/>
      </g>
     </g>
     <g id="text_8">
      <!-- 14 -->
      <g transform="translate(362.8535 322.182437)scale(0.1 -0.1)">
       <use xlink:href="#DejaVuSans-31"/>
       <use xlink:href="#DejaVuSans-34" x="63.623047"/>
      </g>
     </g>
    </g>
    <g id="text_9">
     <!-- x-coordinate [m] -->
     <g transform="translate(194.367031 335.860562)scale(0.1 -0.1)">
      <defs>
       <path id="DejaVuSans-78" d="M 3513 3500 
L 2247 1797 
L 3578 0 
L 2900 0 
L 1881 1375 
L 863 0 
L 184 0 
L 1544 1831 
L 300 3500 
L 978 3500 
L 1906 2253 
L 2834 3500 
L 3513 3500 
z
" transform="scale(0.015625)"/>
       <path id="DejaVuSans-2d" d="M 313 2009 
L 1997 2009 
L 1997 1497 
L 313 1497 
L 313 2009 
z
" transform="scale(0.015625)"/>
       <path id="DejaVuSans-63" d="M 3122 3366 
L 3122 2828 
Q 2878 2963 2633 3030 
Q 2388 3097 2138 3097 
Q 1578 3097 1268 2742 
Q 959 2388 959 1747 
Q 959 1106 1268 751 
Q 1578 397 2138 397 
Q 2388 397 2633 464 
Q 2878 531 3122 666 
L 3122 134 
Q 2881 22 2623 -34 
Q 2366 -91 2075 -91 
Q 1284 -91 818 406 
Q 353 903 353 1747 
Q 353 2603 823 3093 
Q 1294 3584 2113 3584 
Q 2378 3584 2631 3529 
Q 2884 3475 3122 3366 
z
" transform="scale(0.015625)"/>
       <path id="DejaVuSans-6f" d="M 1959 3097 
Q 1497 3097 1228 2736 
Q 959 2375 959 1747 
Q 959 1119 1226 758 
Q 1494 397 1959 397 
Q 2419 397 2687 759 
Q 2956 1122 2956 1747 
Q 2956 2369 2687 2733 
Q 2419 3097 1959 3097 
z
M 1959 3584 
Q 2709 3584 3137 3096 
Q 3566 2609 3566 1747 
Q 3566 888 3137 398 
Q 2709 -91 1959 -91 
Q 1206 -91 779 398 
Q 353 888 353 1747 
Q 353 2609 779 3096 
Q 1206 3584 1959 3584 
z
" transform="scale(0.015625)"/>
       <path id="DejaVuSans-72" d="M 2631 2963 
Q 2534 3019 2420 3045 
Q 2306 3072 2169 3072 
Q 1681 3072 1420 2755 
Q 1159 2438 1159 1844 
L 1159 0 
L 581 0 
L 581 3500 
L 1159 3500 
L 1159 2956 
Q 1341 3275 1631 3429 
Q 1922 3584 2338 3584 
Q 2397 3584 2469 3576 
Q 2541 3569 2628 3553 
L 2631 2963 
z
" transform="scale(0.015625)"/>
       <path id="DejaVuSans-64" d="M 2906 2969 
L 2906 4863 
L 3481 4863 
L 3481 0 
L 2906 0 
L 2906 525 
Q 2725 213 2448 61 
Q 2172 -91 1784 -91 
Q 1150 -91 751 415 
Q 353 922 353 1747 
Q 353 2572 751 3078 
Q 1150 3584 1784 3584 
Q 2172 3584 2448 3432 
Q 2725 3281 2906 2969 
z
M 947 1747 
Q 947 1113 1208 752 
Q 1469 391 1925 391 
Q 2381 391 2643 752 
Q 2906 1113 2906 1747 
Q 2906 2381 2643 2742 
Q 2381 3103 1925 3103 
Q 1469 3103 1208 2742 
Q 947 2381 947 1747 
z
" transform="scale(0.015625)"/>
       <path id="DejaVuSans-69" d="M 603 3500 
L 1178 3500 
L 1178 0 
L 603 0 
L 603 3500 
z
M 603 4863 
L 1178 4863 
L 1178 4134 
L 603 4134 
L 603 4863 
z
" transform="scale(0.015625)"/>
       <path id="DejaVuSans-6e" d="M 3513 2113 
L 3513 0 
L 2938 0 
L 2938 2094 
Q 2938 2591 2744 2837 
Q 2550 3084 2163 3084 
Q 1697 3084 1428 2787 
Q 1159 2491 1159 1978 
L 1159 0 
L 581 0 
L 581 3500 
L 1159 3500 
L 1159 2956 
Q 1366 3272 1645 3428 
Q 1925 3584 2291 3584 
Q 2894 3584 3203 3211 
Q 3513 2838 3513 2113 
z
" transform="scale(0.015625)"/>
       <path id="DejaVuSans-61" d="M 2194 1759 
Q 1497 1759 1228 1600 
Q 959 1441 959 1056 
Q 959 750 1161 570 
Q 1363 391 1709 391 
Q 2188 391 2477 730 
Q 2766 1069 2766 1631 
L 2766 1759 
L 2194 1759 
z
M 3341 1997 
L 3341 0 
L 2766 0 
L 2766 531 
Q 2569 213 2275 61 
Q 1981 -91 1556 -91 
Q 1019 -91 701 211 
Q 384 513 384 1019 
Q 384 1609 779 1909 
Q 1175 2209 1959 2209 
L 2766 2209 
L 2766 2266 
Q 2766 2663 2505 2880 
Q 2244 3097 1772 3097 
Q 1472 3097 1187 3025 
Q 903 2953 641 2809 
L 641 3341 
Q 956 3463 1253 3523 
Q 1550 3584 1831 3584 
Q 2591 3584 2966 3190 
Q 3341 2797 3341 1997 
z
" transform="scale(0.015625)"/>
       <path id="DejaVuSans-74" d="M 1172 4494 
L 1172 3500 
L 2356 3500 
L 2356 3053 
L 1172 3053 
L 1172 1153 
Q 1172 725 1289 603 
Q 1406 481 1766 481 
L 2356 481 
L 2356 0 
L 1766 0 
Q 1100 0 847 248 
Q 594 497 594 1153 
L 594 3053 
L 172 3053 
L 172 3500 
L 594 3500 
L 594 4494 
L 1172 4494 
z
" transform="scale(0.015625)"/>
       <path id="DejaVuSans-65" d="M 3597 1894 
L 3597 1613 
L 953 1613 
Q 991 1019 1311 708 
Q 1631 397 2203 397 
Q 2534 397 2845 478 
Q 3156 559 3463 722 
L 3463 178 
Q 3153 47 2828 -22 
Q 2503 -91 2169 -91 
Q 1331 -91 842 396 
Q 353 884 353 1716 
Q 353 2575 817 3079 
Q 1281 3584 2069 3584 
Q 2775 3584 3186 3129 
Q 3597 2675 3597 1894 
z
M 3022 2063 
Q 3016 2534 2758 2815 
Q 2500 3097 2075 3097 
Q 1594 3097 1305 2825 
Q 1016 2553 972 2059 
L 3022 2063 
z
" transform="scale(0.015625)"/>
       <path id="DejaVuSans-20" transform="scale(0.015625)"/>
       <path id="DejaVuSans-5b" d="M 550 4863 
L 1875 4863 
L 1875 4416 
L 1125 4416 
L 1125 -397 
L 1875 -397 
L 1875 -844 
L 550 -844 
L 550 4863 
z
" transform="scale(0.015625)"/>
       <path id="DejaVuSans-6d" d="M 3328 2828 
Q 3544 3216 3844 3400 
Q 4144 3584 4550 3584 
Q 5097 3584 5394 3201 
Q 5691 2819 5691 2113 
L 5691 0 
L 5113 0 
L 5113 2094 
Q 5113 2597 4934 2840 
Q 4756 3084 4391 3084 
Q 3944 3084 3684 2787 
Q 3425 2491 3425 1978 
L 3425 0 
L 2847 0 
L 2847 2094 
Q 2847 2600 2669 2842 
Q 2491 3084 2119 3084 
Q 1678 3084 1418 2786 
Q 1159 2488 1159 1978 
L 1159 0 
L 581 0 
L 581 3500 
L 1159 3500 
L 1159 2956 
Q 1356 3278 1631 3431 
Q 1906 3584 2284 3584 
Q 2666 3584 2933 3390 
Q 3200 3197 3328 2828 
z
" transform="scale(0.015625)"/>
       <path id="DejaVuSans-5d" d="M 1947 4863 
L 1947 -844 
L 622 -844 
L 622 -397 
L 1369 -397 
L 1369 4416 
L 622 4416 
L 622 4863 
L 1947 4863 
z
" transform="scale(0.015625)"/>
      </defs>
      <use xlink:href="#DejaVuSans-78"/>
      <use xlink:href="#DejaVuSans-2d" x="59.179688"/>
      <use xlink:href="#DejaVuSans-63" x="95.263672"/>
      <use xlink:href="#DejaVuSans-6f" x="150.244141"/>
      <use xlink:href="#DejaVuSans-6f" x="211.425781"/>
      <use xlink:href="#DejaVuSans-72" x="272.607422"/>
      <use xlink:href="#DejaVuSans-64" x="311.970703"/>
      <use xlink:href="#DejaVuSans-69" x="375.447266"/>
      <use xlink:href="#DejaVuSans-6e" x="403.230469"/>
      <use xlink:href="#DejaVuSans-61" x="466.609375"/>
      <use xlink:href="#DejaVuSans-74" x="527.888672"/>
      <use xlink:href="#DejaVuSans-65" x="567.097656"/>
      <use xlink:href="#DejaVuSans-20" x="628.621094"/>
      <use xlink:href="#DejaVuSans-5b" x="660.408203"/>
      <use xlink:href="#DejaVuSans-6d" x="699.421875"/>
      <use xlink:href="#DejaVuSans-5d" x="796.833984"/>
     </g>
    </g>
   </g>
   <g id="matplotlib.axis_2">
    <g id="ytick_1">
     <g id="line2d_13">
      <defs>
       <path id="mb89c0ae765" d="M 0 0 
L -3.5 0 
" style="stroke: #000000; stroke-width: 0.8"/>
      </defs>
      <g>
       <use xlink:href="#mb89c0ae765" x="103.104" y="298.407724" style="stroke: #000000; stroke-width: 0.8"/>
      </g>
     </g>
     <g id="text_10">
      <!-- 0 -->
      <g transform="translate(89.7415 302.206943)scale(0.1 -0.1)">
       <use xlink:href="#DejaVuSans-30"/>
      </g>
     </g>
    </g>
    <g id="ytick_2">
     <g id="line2d_14">
      <g>
       <use xlink:href="#mb89c0ae765" x="103.104" y="261.702621" style="stroke: #000000; stroke-width: 0.8"/>
      </g>
     </g>
     <g id="text_11">
      <!-- 2 -->
      <g transform="translate(89.7415 265.501839)scale(0.1 -0.1)">
       <use xlink:href="#DejaVuSans-32"/>
      </g>
     </g>
    </g>
    <g id="ytick_3">
     <g id="line2d_15">
      <g>
       <use xlink:href="#mb89c0ae765" x="103.104" y="224.997517" style="stroke: #000000; stroke-width: 0.8"/>
      </g>
     </g>
     <g id="text_12">
      <!-- 4 -->
      <g transform="translate(89.7415 228.796736)scale(0.1 -0.1)">
       <use xlink:href="#DejaVuSans-34"/>
      </g>
     </g>
    </g>
    <g id="ytick_4">
     <g id="line2d_16">
      <g>
       <use xlink:href="#mb89c0ae765" x="103.104" y="188.292414" style="stroke: #000000; stroke-width: 0.8"/>
      </g>
     </g>
     <g id="text_13">
      <!-- 6 -->
      <g transform="translate(89.7415 192.091633)scale(0.1 -0.1)">
       <use xlink:href="#DejaVuSans-36"/>
      </g>
     </g>
    </g>
    <g id="ytick_5">
     <g id="line2d_17">
      <g>
       <use xlink:href="#mb89c0ae765" x="103.104" y="151.58731" style="stroke: #000000; stroke-width: 0.8"/>
      </g>
     </g>
     <g id="text_14">
      <!-- 8 -->
      <g transform="translate(89.7415 155.386529)scale(0.1 -0.1)">
       <use xlink:href="#DejaVuSans-38"/>
      </g>
     </g>
    </g>
    <g id="ytick_6">
     <g id="line2d_18">
      <g>
       <use xlink:href="#mb89c0ae765" x="103.104" y="114.882207" style="stroke: #000000; stroke-width: 0.8"/>
      </g>
     </g>
     <g id="text_15">
      <!-- 10 -->
      <g transform="translate(83.379 118.681426)scale(0.1 -0.1)">
       <use xlink:href="#DejaVuSans-31"/>
       <use xlink:href="#DejaVuSans-30" x="63.623047"/>
      </g>
     </g>
    </g>
    <g id="ytick_7">
     <g id="line2d_19">
      <g>
       <use xlink:href="#mb89c0ae765" x="103.104" y="78.177103" style="stroke: #000000; stroke-width: 0.8"/>
      </g>
     </g>
     <g id="text_16">
      <!-- 12 -->
      <g transform="translate(83.379 81.976322)scale(0.1 -0.1)">
       <use xlink:href="#DejaVuSans-31"/>
       <use xlink:href="#DejaVuSans-32" x="63.623047"/>
      </g>
     </g>
    </g>
    <g id="ytick_8">
     <g id="line2d_20">
      <g>
       <use xlink:href="#mb89c0ae765" x="103.104" y="41.472" style="stroke: #000000; stroke-width: 0.8"/>
      </g>
     </g>
     <g id="text_17">
      <!-- 14 -->
      <g transform="translate(83.379 45.271219)scale(0.1 -0.1)">
       <use xlink:href="#DejaVuSans-31"/>
       <use xlink:href="#DejaVuSans-34" x="63.623047"/>
      </g>
     </g>
    </g>
    <g id="text_18">
     <!-- y-coordinate [m] -->
     <g transform="translate(77.299313 216.233469)rotate(-90)scale(0.1 -0.1)">
      <defs>
       <path id="DejaVuSans-79" d="M 2059 -325 
Q 1816 -950 1584 -1140 
Q 1353 -1331 966 -1331 
L 506 -1331 
L 506 -850 
L 844 -850 
Q 1081 -850 1212 -737 
Q 1344 -625 1503 -206 
L 1606 56 
L 191 3500 
L 800 3500 
L 1894 763 
L 2988 3500 
L 3597 3500 
L 2059 -325 
z
" transform="scale(0.015625)"/>
      </defs>
      <use xlink:href="#DejaVuSans-79"/>
      <use xlink:href="#DejaVuSans-2d" x="57.429688"/>
      <use xlink:href="#DejaVuSans-63" x="93.513672"/>
      <use xlink:href="#DejaVuSans-6f" x="148.494141"/>
      <use xlink:href="#DejaVuSans-6f" x="209.675781"/>
      <use xlink:href="#DejaVuSans-72" x="270.857422"/>
      <use xlink:href="#DejaVuSans-64" x="310.220703"/>
      <use xlink:href="#DejaVuSans-69" x="373.697266"/>
      <use xlink:href="#DejaVuSans-6e" x="401.480469"/>
      <use xlink:href="#DejaVuSans-61" x="464.859375"/>
      <use xlink:href="#DejaVuSans-74" x="526.138672"/>
      <use xlink:href="#DejaVuSans-65" x="565.347656"/>
      <use xlink:href="#DejaVuSans-20" x="626.871094"/>
      <use xlink:href="#DejaVuSans-5b" x="658.658203"/>
      <use xlink:href="#DejaVuSans-6d" x="697.671875"/>
      <use xlink:href="#DejaVuSans-5d" x="795.083984"/>
     </g>
    </g>
   </g>
   <g id="Quiver_1">
    <path d="M 311.202787 100.426061 
L 295.970783 115.658065 
L 297.382055 116.128489 
L 291.266543 119.421457 
L 294.559511 113.305945 
L 295.029935 114.717217 
L 310.261939 99.485213 
L 311.202787 100.426061 
" clip-path="url(#p401a1823ef)"/>
   </g>
   <g id="Quiver_2">
    <path d="M 312.192939 297.383173 
L 308.640427 293.830661 
L 308.170003 295.241933 
L 304.877035 289.126421 
L 310.992547 292.419389 
L 309.581275 292.889813 
L 313.133787 296.442325 
L 312.192939 297.383173 
" clip-path="url(#p401a1823ef)"/>
   </g>
   <g id="patch_13">
    <path d="M 103.104 307.584 
L 103.104 41.472 
" style="fill: none; stroke: #000000; stroke-width: 0.8; stroke-linejoin: miter; stroke-linecap: square"/>
   </g>
   <g id="patch_14">
    <path d="M 369.216 307.584 
L 369.216 41.472 
" style="fill: none; stroke: #000000; stroke-width: 0.8; stroke-linejoin: miter; stroke-linecap: square"/>
   </g>
   <g id="patch_15">
    <path d="M 103.104 307.584 
L 369.216 307.584 
" style="fill: none; stroke: #000000; stroke-width: 0.8; stroke-linejoin: miter; stroke-linecap: square"/>
   </g>
   <g id="patch_16">
    <path d="M 103.104 41.472 
L 369.216 41.472 
" style="fill: none; stroke: #000000; stroke-width: 0.8; stroke-linejoin: miter; stroke-linecap: square"/>
   </g>
   <g id="text_19">
    <!-- time = 0.389 s -->
    <g transform="translate(191.55375 35.472)scale(0.12 -0.12)">
     <defs>
      <path id="DejaVuSans-3d" d="M 678 2906 
L 4684 2906 
L 4684 2381 
L 678 2381 
L 678 2906 
z
M 678 1631 
L 4684 1631 
L 4684 1100 
L 678 1100 
L 678 1631 
z
" transform="scale(0.015625)"/>
      <path id="DejaVuSans-2e" d="M 684 794 
L 1344 794 
L 1344 0 
L 684 0 
L 684 794 
z
" transform="scale(0.015625)"/>
      <path id="DejaVuSans-33" d="M 2597 2516 
Q 3050 2419 3304 2112 
Q 3559 1806 3559 1356 
Q 3559 666 3084 287 
Q 2609 -91 1734 -91 
Q 1441 -91 1130 -33 
Q 819 25 488 141 
L 488 750 
Q 750 597 1062 519 
Q 1375 441 1716 441 
Q 2309 441 2620 675 
Q 2931 909 2931 1356 
Q 2931 1769 2642 2001 
Q 2353 2234 1838 2234 
L 1294 2234 
L 1294 2753 
L 1863 2753 
Q 2328 2753 2575 2939 
Q 2822 3125 2822 3475 
Q 2822 3834 2567 4026 
Q 2313 4219 1838 4219 
Q 1578 4219 1281 4162 
Q 984 4106 628 3988 
L 628 4550 
Q 988 4650 1302 4700 
Q 1616 4750 1894 4750 
Q 2613 4750 3031 4423 
Q 3450 4097 3450 3541 
Q 3450 3153 3228 2886 
Q 3006 2619 2597 2516 
z
" transform="scale(0.015625)"/>
      <path id="DejaVuSans-39" d="M 703 97 
L 703 672 
Q 941 559 1184 500 
Q 1428 441 1663 441 
Q 2288 441 2617 861 
Q 2947 1281 2994 2138 
Q 2813 1869 2534 1725 
Q 2256 1581 1919 1581 
Q 1219 1581 811 2004 
Q 403 2428 403 3163 
Q 403 3881 828 4315 
Q 1253 4750 1959 4750 
Q 2769 4750 3195 4129 
Q 3622 3509 3622 2328 
Q 3622 1225 3098 567 
Q 2575 -91 1691 -91 
Q 1453 -91 1209 -44 
Q 966 3 703 97 
z
M 1959 2075 
Q 2384 2075 2632 2365 
Q 2881 2656 2881 3163 
Q 2881 3666 2632 3958 
Q 2384 4250 1959 4250 
Q 1534 4250 1286 3958 
Q 1038 3666 1038 3163 
Q 1038 2656 1286 2365 
Q 1534 2075 1959 2075 
z
" transform="scale(0.015625)"/>
      <path id="DejaVuSans-73" d="M 2834 3397 
L 2834 2853 
Q 2591 2978 2328 3040 
Q 2066 3103 1784 3103 
Q 1356 3103 1142 2972 
Q 928 2841 928 2578 
Q 928 2378 1081 2264 
Q 1234 2150 1697 2047 
L 1894 2003 
Q 2506 1872 2764 1633 
Q 3022 1394 3022 966 
Q 3022 478 2636 193 
Q 2250 -91 1575 -91 
Q 1294 -91 989 -36 
Q 684 19 347 128 
L 347 722 
Q 666 556 975 473 
Q 1284 391 1588 391 
Q 1994 391 2212 530 
Q 2431 669 2431 922 
Q 2431 1156 2273 1281 
Q 2116 1406 1581 1522 
L 1381 1569 
Q 847 1681 609 1914 
Q 372 2147 372 2553 
Q 372 3047 722 3315 
Q 1072 3584 1716 3584 
Q 2034 3584 2315 3537 
Q 2597 3491 2834 3397 
z
" transform="scale(0.015625)"/>
     </defs>
     <use xlink:href="#DejaVuSans-74"/>
     <use xlink:href="#DejaVuSans-69" x="39.208984"/>
     <use xlink:href="#DejaVuSans-6d" x="66.992188"/>
     <use xlink:href="#DejaVuSans-65" x="164.404297"/>
     <use xlink:href="#DejaVuSans-20" x="225.927734"/>
     <use xlink:href="#DejaVuSans-3d" x="257.714844"/>
     <use xlink:href="#DejaVuSans-20" x="341.503906"/>
     <use xlink:href="#DejaVuSans-30" x="373.291016"/>
     <use xlink:href="#DejaVuSans-2e" x="436.914062"/>
     <use xlink:href="#DejaVuSans-33" x="468.701172"/>
     <use xlink:href="#DejaVuSans-38" x="532.324219"/>
     <use xlink:href="#DejaVuSans-39" x="595.947266"/>
     <use xlink:href="#DejaVuSans-20" x="659.570312"/>
     <use xlink:href="#DejaVuSans-73" x="691.357422"/>
    </g>
   </g>
   <g id="Quiver_3">
    <path d="M 113.522844 296.224308 
L 119.021938 290.725214 
L 117.610666 290.25479 
L 123.726178 286.961822 
L 120.43321 293.077334 
L 119.962786 291.666062 
L 114.463692 297.165156 
L 113.522844 296.224308 
" clip-path="url(#p401a1823ef)" style="fill: url(#h5de7a99b43)"/>
   </g>
   <g id="Quiver_4">
    <path d="M 113.522844 296.224308 
L 119.021938 290.725214 
L 117.610666 290.25479 
L 123.726178 286.961822 
L 120.43321 293.077334 
L 119.962786 291.666062 
L 114.463692 297.165156 
L 113.522844 296.224308 
" clip-path="url(#p401a1823ef)" style="fill: url(#hfe8ad1bfc7)"/>
   </g>
   <g id="Quiver_5">
    <path d="M 113.522844 296.224308 
L 119.021938 290.725213 
L 117.610666 290.25479 
L 123.726178 286.961821 
L 120.43321 293.077333 
L 119.962786 291.666061 
L 114.463692 297.165156 
L 113.522844 296.224308 
" clip-path="url(#p401a1823ef)"/>
   </g>
   <g id="Quiver_6">
    <path d="M 113.522844 296.224308 
L 119.021938 290.725213 
L 117.610666 290.25479 
L 123.726178 286.961821 
L 120.43321 293.077333 
L 119.962786 291.666061 
L 114.463692 297.165156 
L 113.522844 296.224308 
" clip-path="url(#p401a1823ef)"/>
   </g>
  </g>
 </g>
 <defs>
  <clipPath id="p401a1823ef">
   <rect x="103.104" y="41.472" width="266.112" height="266.112"/>
  </clipPath>
 </defs>
 <defs>
  <pattern id="h8bcc93741f" patternUnits="userSpaceOnUse" x="0" y="0" width="72" height="72">
   <rect x="0" y="0" width="73" height="73" fill="#ff0000"/>
   <path d="M 0 70 
L 72 70 
M 0 66 
L 72 66 
M 0 62 
L 72 62 
M 0 58 
L 72 58 
M 0 54 
L 72 54 
M 0 50 
L 72 50 
M 0 46 
L 72 46 
M 0 42 
L 72 42 
M 0 38 
L 72 38 
M 0 34 
L 72 34 
M 0 30 
L 72 30 
M 0 26 
L 72 26 
M 0 22 
L 72 22 
M 0 18 
L 72 18 
M 0 14 
L 72 14 
M 0 10 
L 72 10 
M 0 6 
L 72 6 
M 0 2 
L 72 2 
M 2 72 
L 2 0 
M 6 72 
L 6 0 
M 10 72 
L 10 0 
M 14 72 
L 14 0 
M 18 72 
L 18 0 
M 22 72 
L 22 0 
M 26 72 
L 26 0 
M 30 72 
L 30 0 
M 34 72 
L 34 0 
M 38 72 
L 38 0 
M 42 72 
L 42 0 
M 46 72 
L 46 0 
M 50 72 
L 50 0 
M 54 72 
L 54 0 
M 58 72 
L 58 0 
M 62 72 
L 62 0 
M 66 72 
L 66 0 
M 70 72 
L 70 0 
" style="fill: #000000; stroke: #000000; stroke-width: 1.0; stroke-linecap: butt; stroke-linejoin: miter"/>
  </pattern>
  <pattern id="h5de7a99b43" patternUnits="userSpaceOnUse" x="0" y="0" width="72" height="72">
   <rect x="0" y="0" width="73" height="73" fill="#0000ff"/>
   <path d="M 0 70.5 
L 72 70.5 
M 0 67.5 
L 72 67.5 
M 0 64.5 
L 72 64.5 
M 0 61.5 
L 72 61.5 
M 0 58.5 
L 72 58.5 
M 0 55.5 
L 72 55.5 
M 0 52.5 
L 72 52.5 
M 0 49.5 
L 72 49.5 
M 0 46.5 
L 72 46.5 
M 0 43.5 
L 72 43.5 
M 0 40.5 
L 72 40.5 
M 0 37.5 
L 72 37.5 
M 0 34.5 
L 72 34.5 
M 0 31.5 
L 72 31.5 
M 0 28.5 
L 72 28.5 
M 0 25.5 
L 72 25.5 
M 0 22.5 
L 72 22.5 
M 0 19.5 
L 72 19.5 
M 0 16.5 
L 72 16.5 
M 0 13.5 
L 72 13.5 
M 0 10.5 
L 72 10.5 
M 0 7.5 
L 72 7.5 
M 0 4.5 
L 72 4.5 
M 0 1.5 
L 72 1.5 
" style="fill: #000000; stroke: #000000; stroke-width: 1.0; stroke-linecap: butt; stroke-linejoin: miter"/>
  </pattern>
  <pattern id="hfe8ad1bfc7" patternUnits="userSpaceOnUse" x="0" y="0" width="72" height="72">
   <rect x="0" y="0" width="73" height="73" fill="#808080"/>
   <path d="M 1.5 72 
L 1.5 0 
M 4.5 72 
L 4.5 0 
M 7.5 72 
L 7.5 0 
M 10.5 72 
L 10.5 0 
M 13.5 72 
L 13.5 0 
M 16.5 72 
L 16.5 0 
M 19.5 72 
L 19.5 0 
M 22.5 72 
L 22.5 0 
M 25.5 72 
L 25.5 0 
M 28.5 72 
L 28.5 0 
M 31.5 72 
L 31.5 0 
M 34.5 72 
L 34.5 0 
M 37.5 72 
L 37.5 0 
M 40.5 72 
L 40.5 0 
M 43.5 72 
L 43.5 0 
M 46.5 72 
L 46.5 0 
M 49.5 72 
L 49.5 0 
M 52.5 72 
L 52.5 0 
M 55.5 72 
L 55.5 0 
M 58.5 72 
L 58.5 0 
M 61.5 72 
L 61.5 0 
M 64.5 72 
L 64.5 0 
M 67.5 72 
L 67.5 0 
M 70.5 72 
L 70.5 0 
" style="fill: #000000; stroke: #000000; stroke-width: 1.0; stroke-linecap: butt; stroke-linejoin: miter"/>
  </pattern>
 </defs>
</svg>
