<svg xmlns="http://www.w3.org/2000/svg" xmlns:xlink="http://www.w3.org/1999/xlink" width="614.4" height="460.8" viewBox="0 0 460.8 345.6"><path d="M0 345.6h460.8V0H0z" fill="#fff"/><path d="M103.104 307.584h266.112V41.472H103.104z" fill="#fff"/><path stroke-width=".8" stroke-linejoin="round" fill="none" stroke="#000" d="M112.811 307.584v3.5"/><symbol id="a"><path transform="matrix(.001 0 0 .001 -.066 .013)" d="M318 664c-51 0-89-25-115-75s-38-125-38-225 12-175 38-225 64-75 115-75 89 25 115 75c25 50 38 125 38 225s-13 175-38 225c-26 50-64 75-115 75zm0 78c81 0 143-33 187-97 43-65 65-159 65-281 0-123-22-217-65-281-44-64-106-96-188-96S173 19 130 83 66 241 66 364c0 122 21 216 64 281 43 64 106 97 188 97z"/></symbol><use xlink:href="#a" transform="matrix(10 0 0 -10 110.292 322.308)"/><path stroke-width=".8" stroke-linejoin="round" fill="none" stroke="#000" d="M151.336 307.584v3.5"/><symbol id="b"><path transform="matrix(.001 0 0 .001 -.077 .013)" d="M108 729h387v-83H198V467c14 5 29 9 43 11s29 4 43 4c81 0 145-23 193-67 48-45 72-105 72-181 0-79-25-140-74-183S357-13 269-13c-31 0-62 3-94 7-32 5-64 12-98 23v99c29-16 59-28 91-36 31-8 64-11 99-11 56 0 101 14 134 44 32 30 49 70 49 121 0 50-17 90-49 120-33 30-78 45-134 45-26 0-53-3-79-9s-53-15-80-27v366z"/></symbol><use xlink:href="#b" transform="matrix(10 0 0 -10 148.927 322.308)"/><path stroke-width=".8" stroke-linejoin="round" fill="none" stroke="#000" d="M189.861 307.584v3.5"/><symbol id="c"><path transform="translate(-.11) scale(.001)" d="M124 83h161v556l-175-35v90l174 35h99V83h161V0H124v83z"/></symbol><use xlink:href="#c" transform="matrix(10 0 0 -10 184.602 322.178)"/><use xlink:href="#a" transform="matrix(10 0 0 -10 190.522 322.308)"/><path stroke-width=".8" stroke-linejoin="round" fill="none" stroke="#000" d="M228.386 307.584v3.5"/><use xlink:href="#c" transform="matrix(10 0 0 -10 223.126 322.178)"/><use xlink:href="#b" transform="matrix(10 0 0 -10 229.156 322.308)"/><path stroke-width=".8" stroke-linejoin="round" fill="none" stroke="#000" d="M266.91 307.584v3.5"/><symbol id="d"><path transform="translate(-.073) scale(.001)" d="M192 83h344V0H73v83c37 38 88 90 153 156 64 65 105 107 122 126 32 35 54 65 66 90 12 24 19 49 19 73 0 38-14 70-41 94s-62 37-106 37c-31 0-64-6-98-16-34-11-71-27-110-49v100c40 16 77 28 111 36s66 12 95 12c75 0 135-19 180-57s68-88 68-151c0-30-6-59-17-85-11-27-31-59-61-95-8-10-34-37-78-82S271 164 192 83z"/></symbol><use xlink:href="#d" transform="matrix(10 0 0 -10 261.281 322.178)"/><use xlink:href="#a" transform="matrix(10 0 0 -10 267.571 322.308)"/><path stroke-width=".8" stroke-linejoin="round" fill="none" stroke="#000" d="M305.435 307.584v3.5"/><use xlink:href="#d" transform="matrix(10 0 0 -10 299.806 322.178)"/><use xlink:href="#b" transform="matrix(10 0 0 -10 306.206 322.308)"/><path stroke-width=".8" stroke-linejoin="round" fill="none" stroke="#000" d="M343.96 307.584v3.5"/><symbol id="e"><path transform="matrix(.001 0 0 .001 -.076 .013)" d="M406 393c47-10 84-31 110-63s40-72 40-118c0-72-25-128-74-167-50-39-120-58-211-58-31 0-63 3-95 9-32 5-66 14-100 26v95c27-16 57-28 90-36 32-8 66-12 102-12 62 0 109 12 141 36s49 60 49 107c0 42-15 76-45 100s-72 37-126 37h-85v81h89c48 0 85 9 111 29 26 19 39 47 39 84s-14 66-40 86c-27 20-65 30-114 30-27 0-56-3-87-9s-65-15-102-27v88c37 10 72 18 105 23 32 5 63 8 93 8 74 0 133-17 177-51s66-80 66-138c0-40-12-74-35-102s-56-48-98-58z"/></symbol><use xlink:href="#e" transform="matrix(10 0 0 -10 338.36 322.308)"/><use xlink:href="#a" transform="matrix(10 0 0 -10 344.62 322.308)"/><symbol id="f"><path transform="translate(.002) scale(.001)" d="M-2 729h616v-83H355V0h-99v646H-2v83z"/></symbol><symbol id="g"><path transform="translate(-.094) scale(.001)" d="M94 547h90V0H94v547zm0 213h90V646H94v114z"/></symbol><symbol id="h"><path transform="translate(-.091) scale(.001)" d="M520 442c22 40 49 69 80 89 31 19 68 29 111 29 56 0 100-20 131-60s47-97 47-170V0h-90v327c0 52-10 91-28 117-19 25-47 38-85 38-47 0-84-16-111-47s-40-73-40-126V0h-90v327c0 52-10 91-28 117-19 25-48 38-86 38-46 0-83-16-110-47s-40-73-40-126V0H91v547h90v-85c20 33 45 58 74 74 28 16 62 24 102 24s73-10 101-30 48-50 62-88z"/></symbol><symbol id="i"><path transform="matrix(.001 0 0 .001 -.055 .013)" d="M562 296v-44H149c4-62 22-110 56-142 33-32 79-48 139-48 34 0 68 4 100 12s65 21 97 39V28c-32-14-65-25-99-31s-69-10-103-10c-88 0-157 25-208 75S55 181 55 268c0 89 24 160 72 213 48 52 114 79 196 79 74 0 132-24 175-71 42-48 64-112 64-193zm-90 26c-1 49-15 88-41 118-27 29-63 44-107 44-50 0-90-15-120-43s-48-68-52-119h320z"/></symbol><symbol id="k"><path transform="matrix(.001 0 0 .001 -.086 .131)" d="M86 760h207v-70H176V-61h117v-70H86v891z"/></symbol><symbol id="l"><path transform="matrix(.001 0 0 .001 -.054 .013)" d="M443 531v-85c-26 12-52 22-79 29-28 6-56 10-85 10-45 0-79-7-101-21s-33-34-33-61c0-21 8-37 24-49s48-24 96-34l31-7c64-14 109-34 136-58 26-25 40-60 40-104 0-51-20-91-60-120-40-30-96-44-166-44-30 0-60 3-92 8S89 8 54 20v93c33-18 66-31 98-39 32-9 64-13 96-13 42 0 75 7 98 21 22 14 34 35 34 62 0 24-9 43-25 56s-52 26-108 38l-31 7c-56 12-97 30-121 54-25 24-37 57-37 100 0 51 18 91 54 119s88 42 156 42c33 0 64-3 94-8 29-5 56-12 81-21z"/></symbol><symbol id="m"><path transform="matrix(.001 0 0 .001 -.097 .131)" d="M304 760v-891H97v70h117v751H97v70h207z"/></symbol><use xlink:href="#f" transform="matrix(10 0 0 -10 215.757 335.85)"/><use xlink:href="#g" transform="matrix(10 0 0 -10 222.53 335.85)"/><use xlink:href="#h" transform="matrix(10 0 0 -10 225.28 335.85)"/><use xlink:href="#i" transform="matrix(10 0 0 -10 234.66 335.98)"/><use xlink:href="#j" transform="matrix(10 0 0 -10 240.26 335.85)"/><use xlink:href="#k" transform="matrix(10 0 0 -10 244.3 337.16)"/><use xlink:href="#l" transform="matrix(10 0 0 -10 247.88 335.98)"/><use xlink:href="#m" transform="matrix(10 0 0 -10 253.52 337.16)"/><path stroke-width=".8" stroke-linejoin="round" fill="none" stroke="#000" d="M103.104 284.187h-3.5"/><use xlink:href="#d" transform="matrix(10 0 0 -10 84.115 287.984)"/><use xlink:href="#b" transform="matrix(10 0 0 -10 90.515 288.114)"/><path stroke-width=".8" stroke-linejoin="round" fill="none" stroke="#000" d="M103.104 249.396h-3.5"/><use xlink:href="#b" transform="matrix(10 0 0 -10 84.155 253.323)"/><use xlink:href="#a" transform="matrix(10 0 0 -10 90.405 253.323)"/><path stroke-width=".8" stroke-linejoin="round" fill="none" stroke="#000" d="M103.104 214.605h-3.5"/><symbol id="n"><path transform="translate(-.082) scale(.001)" d="M82 729h469v-42L286 0H183l249 646H82v83z"/></symbol><use xlink:href="#n" transform="matrix(10 0 0 -10 84.205 218.402)"/><use xlink:href="#b" transform="matrix(10 0 0 -10 90.515 218.532)"/><path stroke-width=".8" stroke-linejoin="round" fill="none" stroke="#000" d="M103.104 179.814h-3.5"/><use xlink:href="#c" transform="matrix(10 0 0 -10 78.126 183.611)"/><use xlink:href="#a" transform="matrix(10 0 0 -10 84.046 183.741)"/><use xlink:href="#a" transform="matrix(10 0 0 -10 90.406 183.741)"/><path stroke-width=".8" stroke-linejoin="round" fill="none" stroke="#000" d="M103.104 145.023h-3.5"/><use xlink:href="#c" transform="matrix(10 0 0 -10 78.126 148.82)"/><use xlink:href="#d" transform="matrix(10 0 0 -10 84.116 148.82)"/><use xlink:href="#b" transform="matrix(10 0 0 -10 90.516 148.95)"/><path stroke-width=".8" stroke-linejoin="round" fill="none" stroke="#000" d="M103.104 110.232h-3.5"/><use xlink:href="#c" transform="matrix(10 0 0 -10 78.126 114.03)"/><use xlink:href="#b" transform="matrix(10 0 0 -10 84.156 114.16)"/><use xlink:href="#a" transform="matrix(10 0 0 -10 90.406 114.16)"/><path stroke-width=".8" stroke-linejoin="round" fill="none" stroke="#000" d="M103.104 75.442h-3.5"/><use xlink:href="#c" transform="matrix(10 0 0 -10 78.126 79.238)"/><use xlink:href="#n" transform="matrix(10 0 0 -10 84.206 79.238)"/><use xlink:href="#b" transform="matrix(10 0 0 -10 90.516 79.368)"/><symbol id="o"><path transform="translate(-.098) scale(.001)" d="M197 648V81h119c100 0 174 22 221 68 46 46 70 118 70 216s-24 169-70 215c-47 45-121 68-221 68H197zm-99 81h203c141 0 245-30 311-88 66-59 99-151 99-276 0-126-34-218-100-277S441 0 301 0H98v729z"/></symbol><symbol id="p"><path transform="translate(-.027) scale(.001)" d="M183 702V547h185v-70H183V180c0-45 6-74 18-86 12-13 37-19 75-19h92V0h-92c-70 0-118 13-144 39s-39 73-39 141v297H27v70h66v155h90z"/></symbol><symbol id="q"><path transform="matrix(.001 0 0 .001 -.06 .013)" d="M343 275c-73 0-123-9-151-25-28-17-42-45-42-85 0-32 10-58 31-76 21-19 50-28 86-28 50 0 90 17 120 53 30 35 45 82 45 141v20h-89zm179 37V0h-90v83c-21-34-47-58-77-73s-68-23-112-23c-56 0-101 15-134 46s-49 73-49 126c0 61 20 107 62 139 41 31 102 47 184 47h126v9c0 41-14 73-41 96-27 22-65 34-114 34-32 0-62-4-92-12s-58-19-85-33v83c32 12 64 22 95 28s61 10 91 10c79 0 138-21 177-62s59-103 59-186z"/></symbol><symbol id="r"><path transform="translate(-.091) scale(.001)" d="M549 330V0h-90v327c0 52-11 90-31 116s-50 39-90 39c-49 0-87-16-115-47s-42-73-42-126V0H91v547h90v-85c21 32 46 57 76 73 29 16 63 25 101 25 62 0 110-20 142-59s49-96 49-171z"/></symbol><symbol id="s"><path transform="matrix(.001 0 0 .001 -.055 .013)" d="M488 526v-84c-26 14-51 24-77 31s-51 11-77 11c-58 0-104-19-136-56s-48-89-48-155c0-67 16-119 48-156s78-55 136-55c26 0 51 3 77 10s51 18 77 32V21C462 9 436 0 410-5c-27-5-56-8-86-8-82 0-148 25-196 77-49 51-73 121-73 209 0 89 24 159 73 210s116 77 202 77c28 0 55-3 81-9s52-14 77-25z"/></symbol><use xlink:href="#o" transform="matrix(0 -10 -10 0 70.948 205.798)"/><use xlink:href="#g" transform="matrix(0 -10 -10 0 70.948 198.138)"/><use xlink:href="#l" transform="matrix(0 -10 -10 0 71.078 195.758)"/><use xlink:href="#p" transform="matrix(0 -10 -10 0 70.948 190.818)"/><use xlink:href="#q" transform="matrix(0 -10 -10 0 71.078 186.568)"/><use xlink:href="#r" transform="matrix(0 -10 -10 0 70.948 180.128)"/><use xlink:href="#s" transform="matrix(0 -10 -10 0 71.078 174.148)"/><use xlink:href="#i" transform="matrix(0 -10 -10 0 71.078 168.648)"/><use xlink:href="#j" transform="matrix(0 -10 -10 0 70.948 163.048)"/><use xlink:href="#k" transform="matrix(0 -10 -10 0 72.258 159.008)"/><use xlink:href="#h" transform="matrix(0 -10 -10 0 70.948 155.058)"/><use xlink:href="#m" transform="matrix(0 -10 -10 0 72.258 145.258)"/><clipPath id="t"><path transform="matrix(1 0 0 -1 0 345.6)" d="M103.104 38.016h266.112v266.112H103.104z"/></clipPath><g clip-path="url(#t)"><path stroke-width="2.5" stroke-linecap="square" stroke-linejoin="round" fill="none" stroke="#00f" d="m115.2 53.568 2.204 1.047.87.698.555.345.123.278.224.198.331.394.216.056.385.576.208.058.462.613.178.06.084.288.463.54.655.622.285.513.146.065.139.33.185.066 1.356 1.88.408.368.231.518.147.382.154.072.285.461.47.705.139.404.154.074.947 1.473.309.504 1.533 2.793.177.078.616 1.282.147.079.439 1.034.917 1.499.948 1.962.17.08.138.515.524.9.439.913 1.641 3.107.432.95.47.957 2.696 5.833.2.085.417.98.27.654.4.654 2.427 5.463.17.324.177.08 1.95 4.432.107.077.47.957.154.56.162.076 4.792 9.893.232.07.809 1.824 1.178 2.343.232.37.315.6.286.83.169.07.3.827.247.07.146.298.232.825 1.702 3.041.116.523.2.07.594 1.182.516.886.254.815.154.07.17.293.316.813.138.07.355.811.115.07.116.517.84 1.242.108.515.17.07.16.515.163.07.554.877.24.806 1.078 2.04.262.362.447.873.454.873.178.29.13.51.14.072.647 1.162.339.8.577 1.161.232.072.377 1.089.17.072 2.797 5.433.123.072.2.506.154.073.324.794.092.073 1.549 2.886.385.577 1.31 2.808 2.79 4.96.146.502.177.073 1.572 2.866 1.225 2.289.347.784 5.485 9.968.424.852.37.851.74 1.207.454 1.06.347.567.262.566.17.073 2.612 5.011.13.282.409.564.863 1.688.162.072.593 1.334.154.071.809 1.404.447.842.555.842.724 1.121.508 1.12 2.466 4.47.432.836.639 1.114 1.34 2.224.625 1.111.254.555 1.526 3.048.292.76.131.07.478.83.3.552.494 1.036.2.07.547 1.31.17.068 1.71 3.233.478.824.454.823.155.069.431.822 2.242 3.28.455.82 1.055 1.909.516.812.501.811.586.81.663.81 2.38 3.764.879 1.339.763 1.336 2.558 3.928.246.53.254.264.378.793.208.264.578 1.055.855 1.314.331.787.578.785.586 1.043.185.26.377.781 4.53 7.433.17.252.193.503.239.25 2.581 4.24.247.248 1.178 2.237.686.741.786 1.477.724.98.609 1.213.77.963.417.716 1.248 2.124.346.468 1.087 1.852 1.117 1.822 1.21 2.007 3.952 6.066 4.084 5.114.3.383.14.26.43.366.332.394.316.2.44.506.908.692.647.527.286.151 1.687.998.485.161.609.212 1.464.262 1.002-.02 1.078-.21 1.079-.334 2.073-1.248.562-.476.316-.157.455-.504.616-.467.131-.263.377-.31.255-.2.447-.49.177-.294.223-.045.386-.524.924-1.1.154-.329.17-.052 5.077-7.079.316-.634.432-.536.64-1.122.284-.306 2.628-4.171.37-.683.084-.252.17-.07.293-.506.64-1.011 2.596-4.556.2-.072.262-.522.77-1.309.24-.263.215-.526.825-1.513.13-.074.14-.457.153-.074.154-.458.154-.074.363-.725.177-.075.239-.534.161-.268.286-.729.138-.075.347-.73 2.473-4.133.147-.469.154-.076.439-1.014.154-.076.208-.273.254-.744.154-.076.363-.746.1-.076.5-.823.116-.473.154-.076.162-.474.562-.826.67-1.38 2.474-4.237.316-.757.146-.078.971-1.874.193-.078.223-.76.147-.078.631-1.32.193-.078 1.71-3.289.093-.078.755-1.61.162-.078.154-.485.162-.078.154-.485.177-.079.755-1.613.44-.644.516-1.05 1.826-3.193.277-.771.193-.08.346-.771.178-.08 1.756-3.61 1.24-2.072.648-1.344.123-.08.601-1.344.162-.08.478-1.061.293-.285.778-1.712.478-.651.64-1.348.122-.08.732-1.429.378-.777.701-1.224.162-.492.162-.08.339-.572.277-.778 1.526-2.655.3-.572.316-.572.37-.779.108-.08.138-.493.17-.08.146-.492.154-.08.309-.574.47-1.066.393-.573.054-.287.346-.367.131-.493.17-.08.516-1.067.254-.08.324-.863.139-.494.161-.08 1.125-2.214.116-.08.6-1.146 1.858-3.646.223-.08.231-.781 2.597-4.68.177-.496.154-.08.162-.496.208-.08.293-.784.4-.864.77-1.233.494-1.072.578-.945.632-1.153.154-.496.339-.576.108-.289.154-.08.162-.497.154-.08.531-1.074.1-.288.347-.577.27-.578.154-.08.254-.29.416-1.072 1.472-2.68.47-.865.316-.785 1.394-2.391.293-.578 1.896-3.675.262-.578.585-.867.085-.082.116-.496.161-.082.77-1.445.44-1.075.308-.29.601-1.238 1.865-3.47.185-.29.454-1.076.116-.08.162-.498.146-.082 1.271-2.523.124-.082.223-.29.085-.496.17-.082.3-.787.17-.081.161-.29.293-.787.146-.081.756-1.448.4-.497.231-.869.147-.081.154-.498.162-.081.616-1.159"/></g><clipPath id="u"><path transform="matrix(1 0 0 -1 0 345.6)" d="M103.104 38.016h266.112v266.112H103.104z"/></clipPath><g clip-path="url(#u)"><path d="m258.116 298.487 6-6m-6 0 6 6" fill="orange"/><path stroke-width="2.5" stroke-linejoin="round" fill="none" stroke="orange" d="m258.116 298.487 6-6m-6 0 6 6"/></g><path stroke-width=".8" stroke-linecap="square" stroke-miterlimit="10" fill="none" stroke="#000" d="M103.104 307.584V41.472M369.216 307.584V41.472M103.104 307.584h266.112M103.104 41.472h266.112"/><path d="M184.966 78.816h177.25c1.333 0 2-.667 2-2V48.472c0-1.333-.667-2-2-2h-177.25c-1.333 0-2 .667-2 2v28.344c0 1.333.667 2 2 2z" fill="#fff" fill-opacity=".8"/><path stroke-miterlimit="10" fill="none" stroke="#d5d6d5" stroke-opacity=".8" d="M184.966 78.816h177.25c1.333 0 2-.667 2-2V48.472c0-1.333-.667-2-2-2h-177.25c-1.333 0-2 .667-2 2v28.344c0 1.333.667 2 2 2z"/><path stroke-width="2.5" stroke-linecap="square" stroke-linejoin="round" fill="none" stroke="#00f" d="M186.966 54.566h20"/><symbol id="v"><path transform="matrix(.001 0 0 .001 -.091 .013)" d="M487 273c0 66-14 117-41 155-28 38-65 57-112 57-48 0-85-19-112-57-28-38-41-89-41-155s13-118 41-156c27-38 64-56 112-56 47 0 84 18 112 56 27 38 41 90 41 156zM181 464c18 32 42 56 71 72s64 24 104 24c66 0 120-27 162-79 41-53 62-122 62-208s-21-156-62-208c-42-52-96-78-162-78-40 0-75 8-104 23s-53 39-71 72V0H91v760h90V464z"/></symbol><symbol id="w"><path transform="translate(-.042) scale(.001)" d="M42 547h90l112-427 112 427h106l112-427 112 427h90L633 0H527L409 448 291 0H185L42 547z"/></symbol><symbol id="x"><path transform="matrix(.001 0 0 .001 -.056 .013)" d="M394 662c-72 0-129-27-171-80-42-54-63-126-63-218s21-165 63-218c42-54 99-80 171-80 71 0 128 26 170 80 42 53 63 126 63 218s-21 164-63 218c-42 53-99 80-170 80zm0 80c102 0 183-35 245-103 61-68 92-160 92-275 0-116-31-207-92-275C577 21 496-13 394-13 291-13 209 21 148 89c-62 68-92 159-92 275 0 115 30 207 92 275 61 68 143 103 246 103z"/></symbol><symbol id="y"><path transform="matrix(.001 0 0 .001 -.066 .013)" d="M535 705v-96c-38 18-73 31-106 40-34 8-66 13-96 13-54 0-96-11-125-31-29-21-43-51-43-89 0-32 9-57 29-73 19-17 56-30 110-40l60-12c73-14 127-39 162-74 35-36 53-83 53-142 0-71-24-124-71-160-48-36-117-54-208-54-35 0-72 4-111 11S110 16 69 32v102c40-23 79-40 117-51 38-12 76-17 114-17 56 0 99 11 130 33 30 22 46 53 46 95 0 36-11 64-33 84s-58 35-108 45l-60 12c-74 14-127 37-160 69-33 31-49 74-49 130 0 64 22 115 68 152 45 37 108 56 188 56 34 0 68-3 104-9 35-6 71-16 109-28z"/></symbol><symbol id="z"><path transform="matrix(.001 0 0 .001 -.055 .013)" d="M454 464v296h90V0h-90v82c-19-33-43-57-72-72s-63-23-103-23c-66 0-120 26-162 78S55 187 55 273s20 155 62 208c42 52 96 79 162 79 40 0 74-8 103-24s53-40 72-72zM148 273c0-66 13-118 40-156s64-56 112-56 85 18 113 56c27 38 41 90 41 156s-14 117-41 155c-28 38-65 57-113 57s-85-19-112-57-40-89-40-155z"/></symbol><use xlink:href="#o" transform="matrix(10 0 0 -10 215.946 58.066)"/><use xlink:href="#g" transform="matrix(10 0 0 -10 223.606 58.066)"/><use xlink:href="#l" transform="matrix(10 0 0 -10 225.986 58.196)"/><use xlink:href="#p" transform="matrix(10 0 0 -10 230.926 58.066)"/><use xlink:href="#q" transform="matrix(10 0 0 -10 235.176 58.196)"/><use xlink:href="#r" transform="matrix(10 0 0 -10 241.616 58.066)"/><use xlink:href="#s" transform="matrix(10 0 0 -10 247.596 58.196)"/><use xlink:href="#i" transform="matrix(10 0 0 -10 253.096 58.196)"/><use xlink:href="#j" transform="matrix(10 0 0 -10 258.696 58.066)"/><use xlink:href="#v" transform="matrix(10 0 0 -10 262.786 58.196)"/><use xlink:href="#i" transform="matrix(10 0 0 -10 268.776 58.196)"/><use xlink:href="#p" transform="matrix(10 0 0 -10 274.646 58.066)"/><use xlink:href="#w" transform="matrix(10 0 0 -10 278.716 58.066)"/><use xlink:href="#i" transform="matrix(10 0 0 -10 287.026 58.196)"/><use xlink:href="#i" transform="matrix(10 0 0 -10 293.176 58.196)"/><use xlink:href="#r" transform="matrix(10 0 0 -10 299.686 58.066)"/><use xlink:href="#j" transform="matrix(10 0 0 -10 305.116 58.066)"/><use xlink:href="#x" transform="matrix(10 0 0 -10 308.856 58.196)"/><use xlink:href="#y" transform="matrix(10 0 0 -10 316.826 58.196)"/><use xlink:href="#j" transform="matrix(10 0 0 -10 322.516 58.066)"/><use xlink:href="#q" transform="matrix(10 0 0 -10 326.296 58.196)"/><use xlink:href="#r" transform="matrix(10 0 0 -10 332.736 58.066)"/><use xlink:href="#z" transform="matrix(10 0 0 -10 338.716 58.196)"/><use xlink:href="#j" transform="matrix(10 0 0 -10 344.516 58.066)"/><use xlink:href="#f" transform="matrix(10 0 0 -10 347.676 58.066)"/><use xlink:href="#y" transform="matrix(10 0 0 -10 354.466 58.196)"/><path d="m193.966 73.113 6-6m-6 0 6 6" fill="orange"/><path stroke-width="2.5" stroke-linejoin="round" fill="none" stroke="orange" d="m193.966 73.113 6-6m-6 0 6 6"/><symbol id="A"><path transform="translate(-.107) scale(.001)" d="M107 124h103V0H107v124z"/></symbol><symbol id="B"><path transform="matrix(.001 0 0 .001 -.106 -.172)" d="M106 454h626v-82H106v82zm0-199h626v-83H106v83z"/></symbol><symbol id="C"><path transform="matrix(.001 0 0 .001 -.07 .013)" d="M330 404c-44 0-79-16-105-46s-39-72-39-124c0-53 13-95 39-125s61-45 105-45 79 15 105 45 39 72 39 125c0 52-13 94-39 124s-61 46-105 46zm196 309v-90c-25 12-50 21-75 27-26 6-51 9-75 9-66 0-116-22-150-66s-54-111-58-199c19 28 43 50 72 65s61 23 96 23c73 0 131-23 173-67s64-105 64-181c0-75-23-135-67-180S403-13 330-13c-84 0-149 32-193 96-45 64-67 158-67 281 0 115 27 207 82 275 54 68 128 103 220 103 24 0 49-3 75-7 25-5 51-12 79-22z"/></symbol><symbol id="D"><path transform="matrix(.001 0 0 .001 -.068 .013)" d="M318 346c-47 0-84-13-111-38s-40-59-40-103 13-79 40-104 64-37 111-37c46 0 83 12 110 38 27 25 41 59 41 103s-14 78-40 103c-27 25-64 38-111 38zm-99 42c-42 10-75 30-99 59s-35 64-35 106c0 58 20 104 62 138 41 34 98 51 171 51 72 0 129-17 171-51 41-34 62-80 62-138 0-42-12-77-36-106s-56-49-98-59c47-11 84-33 111-65 26-32 40-72 40-118 0-71-22-125-65-162-44-38-106-56-186-56S175 5 132 43c-43 37-64 91-64 162 0 46 13 86 40 118 26 32 63 54 111 65zm-36 156c0-38 11-68 35-89s57-31 100-31c42 0 75 10 99 31s36 51 36 89-12 67-36 88-57 32-99 32c-43 0-76-11-100-32s-35-50-35-88z"/></symbol><use xlink:href="#h" transform="matrix(10 0 0 -10 215.876 72.738)"/><use xlink:href="#g" transform="matrix(10 0 0 -10 225.646 72.738)"/><use xlink:href="#r" transform="matrix(10 0 0 -10 228.396 72.738)"/><use xlink:href="#A" transform="matrix(10 0 0 -10 234.896 72.738)"/><use xlink:href="#j" transform="matrix(10 0 0 -10 237.006 72.738)"/><use xlink:href="#z" transform="matrix(10 0 0 -10 240.736 72.868)"/><use xlink:href="#g" transform="matrix(10 0 0 -10 247.476 72.738)"/><use xlink:href="#l" transform="matrix(10 0 0 -10 249.856 72.868)"/><use xlink:href="#p" transform="matrix(10 0 0 -10 254.796 72.738)"/><use xlink:href="#q" transform="matrix(10 0 0 -10 259.046 72.868)"/><use xlink:href="#r" transform="matrix(10 0 0 -10 265.486 72.738)"/><use xlink:href="#s" transform="matrix(10 0 0 -10 271.466 72.868)"/><use xlink:href="#i" transform="matrix(10 0 0 -10 276.966 72.868)"/><use xlink:href="#j" transform="matrix(10 0 0 -10 282.566 72.738)"/><use xlink:href="#B" transform="matrix(10 0 0 -10 286.806 71.018)"/><use xlink:href="#j" transform="matrix(10 0 0 -10 294.126 72.738)"/><use xlink:href="#c" transform="matrix(10 0 0 -10 298.406 72.738)"/><use xlink:href="#C" transform="matrix(10 0 0 -10 304.366 72.868)"/><use xlink:href="#A" transform="matrix(10 0 0 -10 311.096 72.738)"/><use xlink:href="#D" transform="matrix(10 0 0 -10 313.886 72.868)"/><use xlink:href="#D" transform="matrix(10 0 0 -10 320.246 72.868)"/><use xlink:href="#j" transform="matrix(10 0 0 -10 325.926 72.738)"/><use xlink:href="#h" transform="matrix(10 0 0 -10 330.016 72.738)"/></svg>