<svg xmlns="http://www.w3.org/2000/svg" xmlns:xlink="http://www.w3.org/1999/xlink" width="614.4" height="460.8" viewBox="0 0 460.8 345.6"><path d="M0 345.6h460.8V0H0z" fill="#fff"/><path d="M103.104 307.584h266.112V41.472H103.104z" fill="#fff"/><path stroke-width=".8" stroke-linejoin="round" fill="none" stroke="#000" d="M112.811 307.584v3.5"/><symbol id="a"><path transform="matrix(.001 0 0 .001 -.066 .013)" d="M318 664c-51 0-89-25-115-75s-38-125-38-225 12-175 38-225 64-75 115-75 89 25 115 75c25 50 38 125 38 225s-13 175-38 225c-26 50-64 75-115 75zm0 78c81 0 143-33 187-97 43-65 65-159 65-281 0-123-22-217-65-281-44-64-106-96-188-96S173 19 130 83 66 241 66 364c0 122 21 216 64 281 43 64 106 97 188 97z"/></symbol><use xlink:href="#a" transform="matrix(10 0 0 -10 110.292 322.308)"/><path stroke-width=".8" stroke-linejoin="round" fill="none" stroke="#000" d="M151.336 307.584v3.5"/><symbol id="b"><path transform="matrix(.001 0 0 .001 -.077 .013)" d="M108 729h387v-83H198V467c14 5 29 9 43 11s29 4 43 4c81 0 145-23 193-67 48-45 72-105 72-181 0-79-25-140-74-183S357-13 269-13c-31 0-62 3-94 7-32 5-64 12-98 23v99c29-16 59-28 91-36 31-8 64-11 99-11 56 0 101 14 134 44 32 30 49 70 49 121 0 50-17 90-49 120-33 30-78 45-134 45-26 0-53-3-79-9s-53-15-80-27v366z"/></symbol><use xlink:href="#b" transform="matrix(10 0 0 -10 148.927 322.308)"/><path stroke-width=".8" stroke-linejoin="round" fill="none" stroke="#000" d="M189.861 307.584v3.5"/><symbol id="c"><path transform="translate(-.11) scale(.001)" d="M124 83h161v556l-175-35v90l174 35h99V83h161V0H124v83z"/></symbol><use xlink:href="#c" transform="matrix(10 0 0 -10 184.602 322.178)"/><use xlink:href="#a" transform="matrix(10 0 0 -10 190.522 322.308)"/><path stroke-width=".8" stroke-linejoin="round" fill="none" stroke="#000" d="M228.386 307.584v3.5"/><use xlink:href="#c" transform="matrix(10 0 0 -10 223.126 322.178)"/><use xlink:href="#b" transform="matrix(10 0 0 -10 229.156 322.308)"/><path stroke-width=".8" stroke-linejoin="round" fill="none" stroke="#000" d="M266.91 307.584v3.5"/><symbol id="d"><path transform="translate(-.073) scale(.001)" d="M192 83h344V0H73v83c37 38 88 90 153 156 64 65 105 107 122 126 32 35 54 65 66 90 12 24 19 49 19 73 0 38-14 70-41 94s-62 37-106 37c-31 0-64-6-98-16-34-11-71-27-110-49v100c40 16 77 28 111 36s66 12 95 12c75 0 135-19 180-57s68-88 68-151c0-30-6-59-17-85-11-27-31-59-61-95-8-10-34-37-78-82S271 164 192 83z"/></symbol><use xlink:href="#d" transform="matrix(10 0 0 -10 261.281 322.178)"/><use xlink:href="#a" transform="matrix(10 0 0 -10 267.571 322.308)"/><path stroke-width=".8" stroke-linejoin="round" fill="none" stroke="#000" d="M305.435 307.584v3.5"/><use xlink:href="#d" transform="matrix(10 0 0 -10 299.806 322.178)"/><use xlink:href="#b" transform="matrix(10 0 0 -10 306.206 322.308)"/><path stroke-width=".8" stroke-linejoin="round" fill="none" stroke="#000" d="M343.96 307.584v3.5"/><symbol id="e"><path transform="matrix(.001 0 0 .001 -.076 .013)" d="M406 393c47-10 84-31 110-63s40-72 40-118c0-72-25-128-74-167-50-39-120-58-211-58-31 0-63 3-95 9-32 5-66 14-100 26v95c27-16 57-28 90-36 32-8 66-12 102-12 62 0 109 12 141 36s49 60 49 107c0 42-15 76-45 100s-72 37-126 37h-85v81h89c48 0 85 9 111 29 26 19 39 47 39 84s-14 66-40 86c-27 20-65 30-114 30-27 0-56-3-87-9s-65-15-102-27v88c37 10 72 18 105 23 32 5 63 8 93 8 74 0 133-17 177-51s66-80 66-138c0-40-12-74-35-102s-56-48-98-58z"/></symbol><use xlink:href="#e" transform="matrix(10 0 0 -10 338.36 322.308)"/><use xlink:href="#a" transform="matrix(10 0 0 -10 344.62 322.308)"/><symbol id="f"><path transform="translate(.002) scale(.001)" d="M-2 729h616v-83H355V0h-99v646H-2v83z"/></symbol><symbol id="g"><path transform="translate(-.094) scale(.001)" d="M94 547h90V0H94v547zm0 213h90V646H94v114z"/></symbol><symbol id="h"><path transform="translate(-.091) scale(.001)" d="M520 442c22 40 49 69 80 89 31 19 68 29 111 29 56 0 100-20 131-60s47-97 47-170V0h-90v327c0 52-10 91-28 117-19 25-47 38-85 38-47 0-84-16-111-47s-40-73-40-126V0h-90v327c0 52-10 91-28 117-19 25-48 38-86 38-46 0-83-16-110-47s-40-73-40-126V0H91v547h90v-85c20 33 45 58 74 74 28 16 62 24 102 24s73-10 101-30 48-50 62-88z"/></symbol><symbol id="i"><path transform="matrix(.001 0 0 .001 -.055 .013)" d="M562 296v-44H149c4-62 22-110 56-142 33-32 79-48 139-48 34 0 68 4 100 12s65 21 97 39V28c-32-14-65-25-99-31s-69-10-103-10c-88 0-157 25-208 75S55 181 55 268c0 89 24 160 72 213 48 52 114 79 196 79 74 0 132-24 175-71 42-48 64-112 64-193zm-90 26c-1 49-15 88-41 118-27 29-63 44-107 44-50 0-90-15-120-43s-48-68-52-119h320z"/></symbol><symbol id="k"><path transform="matrix(.001 0 0 .001 -.086 .131)" d="M86 760h207v-70H176V-61h117v-70H86v891z"/></symbol><symbol id="l"><path transform="matrix(.001 0 0 .001 -.054 .013)" d="M443 531v-85c-26 12-52 22-79 29-28 6-56 10-85 10-45 0-79-7-101-21s-33-34-33-61c0-21 8-37 24-49s48-24 96-34l31-7c64-14 109-34 136-58 26-25 40-60 40-104 0-51-20-91-60-120-40-30-96-44-166-44-30 0-60 3-92 8S89 8 54 20v93c33-18 66-31 98-39 32-9 64-13 96-13 42 0 75 7 98 21 22 14 34 35 34 62 0 24-9 43-25 56s-52 26-108 38l-31 7c-56 12-97 30-121 54-25 24-37 57-37 100 0 51 18 91 54 119s88 42 156 42c33 0 64-3 94-8 29-5 56-12 81-21z"/></symbol><symbol id="m"><path transform="matrix(.001 0 0 .001 -.097 .131)" d="M304 760v-891H97v70h117v751H97v70h207z"/></symbol><use xlink:href="#f" transform="matrix(10 0 0 -10 215.757 335.85)"/><use xlink:href="#g" transform="matrix(10 0 0 -10 222.53 335.85)"/><use xlink:href="#h" transform="matrix(10 0 0 -10 225.28 335.85)"/><use xlink:href="#i" transform="matrix(10 0 0 -10 234.66 335.98)"/><use xlink:href="#j" transform="matrix(10 0 0 -10 240.26 335.85)"/><use xlink:href="#k" transform="matrix(10 0 0 -10 244.3 337.16)"/><use xlink:href="#l" transform="matrix(10 0 0 -10 247.88 335.98)"/><use xlink:href="#m" transform="matrix(10 0 0 -10 253.52 337.16)"/><path stroke-width=".8" stroke-linejoin="round" fill="none" stroke="#000" d="M103.104 306.666h-3.5"/><symbol id="n"><path transform="translate(-.107) scale(.001)" d="M107 124h103V0H107v124z"/></symbol><use xlink:href="#a" transform="matrix(10 0 0 -10 80.858 310.593)"/><use xlink:href="#n" transform="matrix(10 0 0 -10 87.628 310.463)"/><use xlink:href="#b" transform="matrix(10 0 0 -10 90.508 310.593)"/><path stroke-width=".8" stroke-linejoin="round" fill="none" stroke="#000" d="M103.104 260.117h-3.5"/><use xlink:href="#c" transform="matrix(10 0 0 -10 81.298 263.914)"/><use xlink:href="#n" transform="matrix(10 0 0 -10 87.628 263.914)"/><use xlink:href="#a" transform="matrix(10 0 0 -10 90.398 264.044)"/><path stroke-width=".8" stroke-linejoin="round" fill="none" stroke="#000" d="M103.104 213.568h-3.5"/><use xlink:href="#c" transform="matrix(10 0 0 -10 81.298 217.365)"/><use xlink:href="#n" transform="matrix(10 0 0 -10 87.628 217.365)"/><use xlink:href="#b" transform="matrix(10 0 0 -10 90.508 217.495)"/><path stroke-width=".8" stroke-linejoin="round" fill="none" stroke="#000" d="M103.104 167.02h-3.5"/><use xlink:href="#d" transform="matrix(10 0 0 -10 80.928 170.817)"/><use xlink:href="#n" transform="matrix(10 0 0 -10 87.628 170.817)"/><use xlink:href="#a" transform="matrix(10 0 0 -10 90.398 170.947)"/><path stroke-width=".8" stroke-linejoin="round" fill="none" stroke="#000" d="M103.104 120.471h-3.5"/><use xlink:href="#d" transform="matrix(10 0 0 -10 80.928 124.268)"/><use xlink:href="#n" transform="matrix(10 0 0 -10 87.628 124.268)"/><use xlink:href="#b" transform="matrix(10 0 0 -10 90.508 124.398)"/><path stroke-width=".8" stroke-linejoin="round" fill="none" stroke="#000" d="M103.104 73.922h-3.5"/><use xlink:href="#e" transform="matrix(10 0 0 -10 80.958 77.85)"/><use xlink:href="#n" transform="matrix(10 0 0 -10 87.628 77.72)"/><use xlink:href="#a" transform="matrix(10 0 0 -10 90.398 77.85)"/><symbol id="o"><path transform="matrix(.001 0 0 .001 -.066 .013)" d="M535 705v-96c-38 18-73 31-106 40-34 8-66 13-96 13-54 0-96-11-125-31-29-21-43-51-43-89 0-32 9-57 29-73 19-17 56-30 110-40l60-12c73-14 127-39 162-74 35-36 53-83 53-142 0-71-24-124-71-160-48-36-117-54-208-54-35 0-72 4-111 11S110 16 69 32v102c40-23 79-40 117-51 38-12 76-17 114-17 56 0 99 11 130 33 30 22 46 53 46 95 0 36-11 64-33 84s-58 35-108 45l-60 12c-74 14-127 37-160 69-33 31-49 74-49 130 0 64 22 115 68 152 45 37 108 56 188 56 34 0 68-3 104-9 35-6 71-16 109-28z"/></symbol><symbol id="p"><path transform="matrix(.001 0 0 .001 -.091 .207)" d="M181 82v-289H91v754h90v-83c18 32 42 56 71 72s64 24 104 24c66 0 120-27 162-79 41-53 62-122 62-208s-21-156-62-208c-42-52-96-78-162-78-40 0-75 8-104 23s-53 39-71 72zm306 191c0 66-14 117-41 155-28 38-65 57-112 57-48 0-85-19-112-57-28-38-41-89-41-155s13-118 41-156c27-38 64-56 112-56 47 0 84 18 112 56 27 38 41 90 41 156z"/></symbol><symbol id="q"><path transform="matrix(.001 0 0 .001 -.055 .013)" d="M454 464v296h90V0h-90v82c-19-33-43-57-72-72s-63-23-103-23c-66 0-120 26-162 78S55 187 55 273s20 155 62 208c42 52 96 79 162 79 40 0 74-8 103-24s53-40 72-72zM148 273c0-66 13-118 40-156s64-56 112-56 85 18 113 56c27 38 41 90 41 156s-14 117-41 155c-28 38-65 57-113 57s-85-19-112-57-40-89-40-155z"/></symbol><symbol id="r"><path transform="matrix(.001 0 0 .001 0 .092)" d="M254 729h83L83-92H0l254 821z"/></symbol><use xlink:href="#o" transform="matrix(0 -10 -10 0 74.25 204.212)"/><use xlink:href="#p" transform="matrix(0 -10 -10 0 76.19 197.612)"/><use xlink:href="#i" transform="matrix(0 -10 -10 0 74.25 191.622)"/><use xlink:href="#i" transform="matrix(0 -10 -10 0 74.25 185.472)"/><use xlink:href="#q" transform="matrix(0 -10 -10 0 74.25 179.322)"/><use xlink:href="#j" transform="matrix(0 -10 -10 0 74.12 173.522)"/><use xlink:href="#k" transform="matrix(0 -10 -10 0 75.43 169.482)"/><use xlink:href="#h" transform="matrix(0 -10 -10 0 74.12 165.532)"/><use xlink:href="#r" transform="matrix(0 -10 -10 0 75.04 156.702)"/><use xlink:href="#l" transform="matrix(0 -10 -10 0 74.25 152.792)"/><use xlink:href="#m" transform="matrix(0 -10 -10 0 75.43 147.152)"/><clipPath id="s"><path transform="matrix(1 0 0 -1 0 345.6)" d="M103.104 38.016h266.112v266.112H103.104z"/></clipPath><g clip-path="url(#s)"><path stroke-width="2.5" stroke-linecap="square" stroke-linejoin="round" fill="none" stroke="teal" d="m115.2 295.488 1.225-50.997.308-10.66.332-9.633.246-4.71.37-13.314.593-15.053.555-6.516.123-7.26.224-5.064.547-5.492.077-2.333 2.003-21.004.278-1.45.208-2.907 1.98-18.948.408-1.347.231-4.003.894-7.048 1.086-6.31.232-.744.254-1.492.439-1.94.231-.534.254-1.134 1.048-3.26.64-1.519.747-2.017.493-.994.748-1.695.316-.708.17-.915.138.21.208-.01.316-.614.262-1.219.539-1.904 2.18-8.983.432-1.262.578-.984.624-.39.493.084.77.848.417.843.27.518.4.747.44 1.306.623 1.948 3.152 8.036 1.402 2.504.655.135.57.391.485.339.124.11.331.01.601-.084.955-.635.216-.04.123-.234.131.007.316-.354.285-.32.232-.117.67-.94.3-.426 1.017-1.734.393-.931 2.905-5.605.447-.567 1.418-.873.47.054.316-.027.138.013.355-.223.115-.051.116-.24.331-.2.177-.231.2.072.24-.228 1.178.079.108-.144.278-.072.316-.15 1.194-.346.632-.275.631-.046.625.052.123-.039.146.093.139-.105.64.127.138-.043.316.073.462-.073.185.11.147-.05.154.085.454-.093.74-.096.254.135.116-.092.139.134.123-.06.678.05.239-.38.354-.28.424.07.146-.029.324-.221 1.38-.04.47-.094 2.665.094.123-.095.47-.003.732-.064.17-.13.686-.066 1.24-.385 1.888-.223.13.028.255.221.64-.034.315-.063.116.124.94-.16.277.126.147.033.17-.096.176.031.417-.094.354.066.362.312.262.158.316-.127h.285l.94-.159.262-.03 1.171.09.462.133.262-.034.131-.063.756.316.13-.153.255.119.285.008.47.313.424.284.924-.188.632.033.316-.095.516.034.362-.036.386.07.354.124.123-.19.177.128.162-.127.154.064.139-.159.185.126.177-.16.355.098.994.982.3-.254.123.132.139-.133.547.004.262.033.154.253.17-.159.285.223.909-.253.293.094.154-.03.092.222.416-.19.1.031.316-.124.116-.005.13.193.47.222.14-.253.13.062.656-.157.554.064.355.159.439-.19.824.13.401-.19.146.155.17-.095.17.064.123-.097.354.064.817.351.115-.192.155.161.115-.13.316.063.37-.222.493.064.308-.06.77-.004.301-.125.455-.033.138-2.03.416 1.423.208.26.155.375.346 2.188.308.475.301.159.2.064.162-.128.424-.63.416.06.54-.251.184.064.34.38.207-.03.2.253.309-.253.847-.41.193-.255.2.002.293-.255.193.096.316-.348.161-.188.155.154.13-.157.178.1.123-.067.778.096.3-.032.124.094.632-.027 2.697.281.423-.158.154-.032.232.095.346-.13.586-.218.185.222 1.202-.353.362.008.162-.163h.508l.355-.126.447-.049.177.02.185-.13.439.063 1.07-.092.17-1.386.432-.317.262-.604.393-1.996 1.294-8.345.147-1.603 1.325-4.644.431-.502.386.242.454.516.4 1.236.386-.743.932 2.778.594 2.547.208.29.554 2.32 1.102 5.109.979 3.34 1.202 3.004.87 4.362.532 3.407.44 2.126 1.155 6.906.455 2.218.886 3.955.778 1.66.285.318.162.178.508-.085.324.026.77-1.16.154-.588.162-.167.316-.828.663-1.994.454-1.963.178-.346.3-1.956 1.472-6.935.755-2.215.986-1.4.254-.42.216-.184.431-.747.2.038.086-.236.161.046.478-.387 1.217-1.185.625-.81.3-.282.47-.549.447-.268.647-.507.123-.229.316-.02.3-.197.163-.01.439.27.855-.17.17.17.27-.056.115.09.154-.054.493.16.485-.034.116.12.116-.09.208.116.123-.097.162.181.17-.103.184.23.285-.214.447-.377.154.077.162-.06.455.071.447-.32.3-.104.293-.176.084.12.879-.72.223.017.216-.24.17.022.6-.57 1.102-.708.162.075.162-.126.123.064.478-.34.431.012.17-.142.154.145 1.002-.344.539.072.162-.141.177.141.123-.072.94.342.139.133.316-.011.17.206.285-.083.315-.086.293-.23.64-.452.74.308 1.772-.023.084-2.066.378 1.737.216 2.163.184.003.324-.573.147.06.138-.075.316.275.162.134 1.055-.487.2.059 1.18-.584.177.12.454-.103.324-.037.601-.273.778-.15.154-.09.154.051.162-.082.2.054.263-.023.446.03.293.05.863.02.224.059.17-.09.461.2.14-.08.33.126.155-.144.477.041.147.283 1.54-.039.286-.141 1.494-.036.116-.144.262.064.455-.161.33-.07.37-.145.14.077.092-.144.162.138.192-.145.108.07.316-.154.917.554.146-.144.224.151.108-.228.115.148.162-.148.678.57.247-.063.292-.208.162.13.609-.204.655.225.454-.08.363.013.223.221.34.064.284.077.162-.007.154-.14.162.083.154-.074.177.071.193-.067.239.211.17-.064.153.212h.2l.085.141h.154l.185.148.116-.148.216.074.732-.208.2.013.4.275.324-.198.17.064.115-.138.355.215.2.01.324.279.13.134.132-.064.17.141.246-.269h.138l.147-.144 1.556-.055 1.449-.07.115-.141.285.064 1.172.141.362.135.177.083.254-.147.116.077.108-.077.64.493.577-.359.447.289.208.134.17-.205.107.138.116-.141.185.003.123-.138.324.004.17-.141.277.269.339.224.932-.073.123.201.177.013.124.128.17-.07.13.077.794-.215.138.067.17-.13.485.13.124-.07.308.07 1.256-.083.285.134.485-.064.131.064.116-1.783.077.5.139.498.593 3.183.809-.289.123.282 1.11-.063.308-.128.262-.07.323-.212.154.006.178-.208.223.064.062-.208.17-.004.161-.201.154-.014.147-.282.138.077.154-.07.185.14.601-.644.34.004.115-.138.154-.003.624-.283.67.004.547.35.185-.149.124.135.192-.205.116.282.154-.064.193.269.115-.128.609-.09.316.211.624-.057.447-.141.154.074.162-.148.493-.074h.293l.238.141.108-.07.27.141.154-.134.547.073.27.205.362-.08.07-.128.269.057 1.094-.349.786.554.385-.07.239-.064 1.718-.225.27-.067 2.296-.094.624.353.308-.014.116-.14.077.07.262-.212.146.144.324-.15.478.493.755-.064.177-.148.13.135.348-.06.292-.071 1.064-.088.123.148.162-.067.346.138 1.071-.014.162-.07.131.084.162-.155.5.218 1.18-.077.154-.077.162.08.13-.147.162.067.324-.064"/></g><clipPath id="t"><path transform="matrix(1 0 0 -1 0 345.6)" d="M103.104 38.016h266.112v266.112H103.104z"/></clipPath><g clip-path="url(#t)"><path stroke-width="2.5" stroke-dasharray="9.25,4" stroke-linejoin="round" fill="none" stroke="red" d="M115.2 73.922h241.92"/></g><path stroke-width=".8" stroke-linecap="square" stroke-miterlimit="10" fill="none" stroke="#000" d="M103.104 307.584V41.472M369.216 307.584V41.472M103.104 307.584h266.112M103.104 41.472h266.112"/><path d="M233.372 302.584h128.844c1.333 0 2-.667 2-2V272.24c0-1.333-.667-2-2-2H233.372c-1.333 0-2 .667-2 2v28.344c0 1.333.667 2 2 2z" fill="#fff" fill-opacity=".8"/><path stroke-miterlimit="10" fill="none" stroke="#d5d6d5" stroke-opacity=".8" d="M233.372 302.584h128.844c1.333 0 2-.667 2-2V272.24c0-1.333-.667-2-2-2H233.372c-1.333 0-2 .667-2 2v28.344c0 1.333.667 2 2 2z"/><path stroke-width="2.5" stroke-linecap="square" stroke-linejoin="round" fill="none" stroke="teal" d="M235.372 278.334h20"/><symbol id="u"><path transform="matrix(.001 0 0 .001 -.056 .013)" d="M644 673V569c-34 30-69 53-107 69-38 15-77 23-119 23-84 0-148-26-192-77s-66-124-66-220 22-170 66-221 108-76 192-76c42 0 81 7 119 23 38 15 73 38 107 69V56c-35-24-72-41-110-52s-79-17-122-17C302-13 215 20 151 87S56 246 56 364c0 117 31 209 95 277 64 67 151 101 261 101 44 0 85-6 123-17 38-12 75-29 109-52z"/></symbol><symbol id="v"><path transform="matrix(.001 0 0 .001 -.085 .013)" d="M85 216v331h90V219c0-52 10-90 30-116s50-39 91-39c48 0 87 15 115 46s42 73 42 127v310h90V0h-90v84c-22-34-48-58-76-74-29-15-62-23-100-23-63 0-111 19-143 58-33 38-49 95-49 171zm226 344z"/></symbol><symbol id="w"><path transform="translate(-.091) scale(.001)" d="M411 463c-10 6-21 10-33 13-12 2-25 4-39 4-51 0-90-17-117-50-28-33-41-80-41-142V0H91v547h90v-85c18 33 43 58 73 74s67 24 111 24c6 0 13-1 21-1 7-1 15-2 25-4v-92z"/></symbol><symbol id="x"><path transform="translate(-.091) scale(.001)" d="M549 330V0h-90v327c0 52-11 90-31 116s-50 39-90 39c-49 0-87-16-115-47s-42-73-42-126V0H91v547h90v-85c21 32 46 57 76 73 29 16 63 25 101 25 62 0 110-20 142-59s49-96 49-171z"/></symbol><symbol id="y"><path transform="translate(-.027) scale(.001)" d="M183 702V547h185v-70H183V180c0-45 6-74 18-86 12-13 37-19 75-19h92V0h-92c-70 0-118 13-144 39s-39 73-39 141v297H27v70h66v155h90z"/></symbol><symbol id="z"><path transform="matrix(.001 0 0 .001 -.086 .131)" d="M310 759c-44-76-76-150-97-223-22-73-32-147-32-222 0-76 10-150 32-223 21-74 53-147 97-222h-78C183-54 146 20 122 94S86 241 86 314c0 72 12 145 36 219s60 149 110 226h78z"/></symbol><symbol id="A"><path transform="matrix(.001 0 0 .001 -.056 .013)" d="M394 662c-72 0-129-27-171-80-42-54-63-126-63-218s21-165 63-218c42-54 99-80 171-80 71 0 128 26 170 80 42 53 63 126 63 218s-21 164-63 218c-42 53-99 80-170 80zm0 80c102 0 183-35 245-103 61-68 92-160 92-275 0-116-31-207-92-275C577 21 496-13 394-13 291-13 209 21 148 89c-62 68-92 159-92 275 0 115 30 207 92 275 61 68 143 103 246 103z"/></symbol><symbol id="B"><path transform="matrix(.001 0 0 .001 -.08 .131)" d="M80 759h78c48-77 85-152 109-226s37-147 37-219c0-73-13-146-37-220S206-54 158-131H80c43 75 75 148 97 222 21 73 32 147 32 223 0 75-11 149-32 222-22 73-54 147-97 223z"/></symbol><use xlink:href="#u" transform="matrix(10 0 0 -10 263.932 281.964)"/><use xlink:href="#v" transform="matrix(10 0 0 -10 271.202 281.964)"/><use xlink:href="#w" transform="matrix(10 0 0 -10 277.602 281.834)"/><use xlink:href="#w" transform="matrix(10 0 0 -10 281.54 281.834)"/><use xlink:href="#i" transform="matrix(10 0 0 -10 285.072 281.964)"/><use xlink:href="#x" transform="matrix(10 0 0 -10 291.582 281.834)"/><use xlink:href="#y" transform="matrix(10 0 0 -10 297.282 281.834)"/><use xlink:href="#j" transform="matrix(10 0 0 -10 300.932 281.834)"/><use xlink:href="#l" transform="matrix(10 0 0 -10 304.652 281.964)"/><use xlink:href="#p" transform="matrix(10 0 0 -10 310.232 283.904)"/><use xlink:href="#i" transform="matrix(10 0 0 -10 316.222 281.964)"/><use xlink:href="#i" transform="matrix(10 0 0 -10 322.372 281.964)"/><use xlink:href="#q" transform="matrix(10 0 0 -10 328.522 281.964)"/><use xlink:href="#j" transform="matrix(10 0 0 -10 334.322 281.834)"/><use xlink:href="#z" transform="matrix(10 0 0 -10 338.362 283.144)"/><use xlink:href="#A" transform="matrix(10 0 0 -10 341.962 281.964)"/><use xlink:href="#o" transform="matrix(10 0 0 -10 349.932 281.964)"/><use xlink:href="#B" transform="matrix(10 0 0 -10 356.422 283.144)"/><path stroke-width="2.5" stroke-dasharray="9.25,4" stroke-linejoin="round" fill="none" stroke="red" d="M235.372 293.006h20"/><symbol id="C"><path transform="translate(-.098) scale(.001)" d="M197 648V81h119c100 0 174 22 221 68 46 46 70 118 70 216s-24 169-70 215c-47 45-121 68-221 68H197zm-99 81h203c141 0 245-30 311-88 66-59 99-151 99-276 0-126-34-218-100-277S441 0 301 0H98v729z"/></symbol><use xlink:href="#C" transform="matrix(10 0 0 -10 264.352 296.506)"/><use xlink:href="#i" transform="matrix(10 0 0 -10 271.622 296.636)"/><use xlink:href="#l" transform="matrix(10 0 0 -10 277.762 296.636)"/><use xlink:href="#g" transform="matrix(10 0 0 -10 283.372 296.506)"/><use xlink:href="#w" transform="matrix(10 0 0 -10 286.122 296.506)"/><use xlink:href="#i" transform="matrix(10 0 0 -10 289.654 296.636)"/><use xlink:href="#q" transform="matrix(10 0 0 -10 295.803 296.636)"/><use xlink:href="#j" transform="matrix(10 0 0 -10 301.604 296.506)"/><use xlink:href="#l" transform="matrix(10 0 0 -10 305.324 296.636)"/><use xlink:href="#p" transform="matrix(10 0 0 -10 310.904 298.576)"/><use xlink:href="#i" transform="matrix(10 0 0 -10 316.894 296.636)"/><use xlink:href="#i" transform="matrix(10 0 0 -10 323.043 296.636)"/><use xlink:href="#q" transform="matrix(10 0 0 -10 329.193 296.636)"/><use xlink:href="#j" transform="matrix(10 0 0 -10 334.993 296.506)"/><use xlink:href="#z" transform="matrix(10 0 0 -10 339.034 297.816)"/><use xlink:href="#A" transform="matrix(10 0 0 -10 342.634 296.636)"/><use xlink:href="#o" transform="matrix(10 0 0 -10 350.604 296.636)"/><use xlink:href="#B" transform="matrix(10 0 0 -10 357.094 297.816)"/></svg>