<?xml version="1.0" encoding="UTF-8"?>
<svg xmlns="http://www.w3.org/2000/svg" xmlns:xlink="http://www.w3.org/1999/xlink" width="400px" height="px" viewBox="0 0 400 374" version="1.1">
<g id="surface1">
<rect x="0" y="0" width="400" height="374" style="fill:rgb(100%,100%,100%);fill-opacity:1;stroke:none;"/>
<path style=" stroke:none;fill-rule:nonzero;fill:rgb(100%,100%,100%);fill-opacity:1;" d="M 64.550781 335.214844 L 398.027344 335.214844 L 398.027344 1.683594 L 64.550781 1.683594 Z M 64.550781 335.214844 "/>
<path style="fill:none;stroke-width:0.8;stroke-linecap:butt;stroke-linejoin:round;stroke:rgb(0%,0%,0%);stroke-opacity:1;stroke-miterlimit:4;" d="M 58.600008 267.454838 L 58.600008 270.95483 " transform="matrix(1.253133,0,0,1.253351,0,0.000000000000028498)"/>
<path style=" stroke:none;fill-rule:nonzero;fill:rgb(0%,0%,0%);fill-opacity:1;" d="M 73.433594 345.183594 C 72.792969 345.183594 72.316406 345.5 71.992188 346.125 C 71.667969 346.753906 71.515625 347.691406 71.515625 348.945312 C 71.515625 350.199219 71.667969 351.140625 71.992188 351.765625 C 72.316406 352.390625 72.792969 352.707031 73.433594 352.707031 C 74.074219 352.707031 74.550781 352.390625 74.875 351.765625 C 75.1875 351.140625 75.351562 350.199219 75.351562 348.945312 C 75.351562 347.691406 75.1875 346.753906 74.875 346.125 C 74.550781 345.5 74.074219 345.183594 73.433594 345.183594 Z M 73.433594 344.207031 C 74.449219 344.207031 75.226562 344.621094 75.777344 345.421875 C 76.316406 346.238281 76.589844 347.417969 76.589844 348.945312 C 76.589844 350.488281 76.316406 351.664062 75.777344 352.46875 C 75.226562 353.269531 74.449219 353.671875 73.421875 353.671875 C 72.394531 353.671875 71.617188 353.269531 71.078125 352.46875 C 70.539062 351.664062 70.277344 350.488281 70.277344 348.945312 C 70.277344 347.417969 70.539062 346.238281 71.078125 345.421875 C 71.617188 344.621094 72.40625 344.207031 73.433594 344.207031 Z M 73.433594 344.207031 "/>
<path style="fill:none;stroke-width:0.8;stroke-linecap:butt;stroke-linejoin:round;stroke:rgb(0%,0%,0%);stroke-opacity:1;stroke-miterlimit:4;" d="M 100.133414 267.454838 L 100.133414 270.95483 " transform="matrix(1.253133,0,0,1.253351,0,0.000000000000028498)"/>
<path style=" stroke:none;fill-rule:nonzero;fill:rgb(0%,0%,0%);fill-opacity:1;" d="M 122.847656 344.371094 L 127.699219 344.371094 L 127.699219 345.410156 L 123.976562 345.410156 L 123.976562 347.65625 C 124.152344 347.59375 124.339844 347.542969 124.515625 347.515625 C 124.691406 347.492188 124.878906 347.464844 125.054688 347.464844 C 126.070312 347.464844 126.871094 347.753906 127.472656 348.304688 C 128.074219 348.871094 128.375 349.621094 128.375 350.574219 C 128.375 351.566406 128.0625 352.328125 127.449219 352.867188 C 126.832031 353.40625 125.96875 353.671875 124.867188 353.671875 C 124.476562 353.671875 124.089844 353.632812 123.6875 353.582031 C 123.285156 353.519531 122.886719 353.433594 122.460938 353.292969 L 122.460938 352.054688 C 122.824219 352.253906 123.199219 352.40625 123.601562 352.503906 C 123.988281 352.605469 124.402344 352.644531 124.839844 352.644531 C 125.542969 352.644531 126.105469 352.46875 126.519531 352.089844 C 126.921875 351.714844 127.132812 351.214844 127.132812 350.574219 C 127.132812 349.949219 126.921875 349.445312 126.519531 349.070312 C 126.105469 348.695312 125.542969 348.507812 124.839844 348.507812 C 124.515625 348.507812 124.175781 348.542969 123.851562 348.621094 C 123.523438 348.695312 123.1875 348.808594 122.847656 348.957031 Z M 122.847656 344.371094 "/>
<path style="fill:none;stroke-width:0.8;stroke-linecap:butt;stroke-linejoin:round;stroke:rgb(0%,0%,0%);stroke-opacity:1;stroke-miterlimit:4;" d="M 141.663703 267.454838 L 141.663703 270.95483 " transform="matrix(1.253133,0,0,1.253351,0,0.000000000000028498)"/>
<path style=" stroke:none;fill-rule:nonzero;fill:rgb(0%,0%,0%);fill-opacity:1;" d="M 171.109375 352.46875 L 173.128906 352.46875 L 173.128906 345.5 L 170.933594 345.9375 L 170.933594 344.808594 L 173.117188 344.371094 L 174.355469 344.371094 L 174.355469 352.46875 L 176.375 352.46875 L 176.375 353.507812 L 171.109375 353.507812 Z M 171.109375 352.46875 "/>
<path style=" stroke:none;fill-rule:nonzero;fill:rgb(0%,0%,0%);fill-opacity:1;" d="M 181.511719 345.183594 C 180.871094 345.183594 180.394531 345.5 180.070312 346.125 C 179.746094 346.753906 179.59375 347.691406 179.59375 348.945312 C 179.59375 350.199219 179.746094 351.140625 180.070312 351.765625 C 180.394531 352.390625 180.871094 352.707031 181.511719 352.707031 C 182.148438 352.707031 182.625 352.390625 182.953125 351.765625 C 183.265625 351.140625 183.429688 350.199219 183.429688 348.945312 C 183.429688 347.691406 183.265625 346.753906 182.953125 346.125 C 182.625 345.5 182.148438 345.183594 181.511719 345.183594 Z M 181.511719 344.207031 C 182.527344 344.207031 183.304688 344.621094 183.855469 345.421875 C 184.394531 346.238281 184.667969 347.417969 184.667969 348.945312 C 184.667969 350.488281 184.394531 351.664062 183.855469 352.46875 C 183.304688 353.269531 182.527344 353.671875 181.5 353.671875 C 180.472656 353.671875 179.695312 353.269531 179.15625 352.46875 C 178.617188 351.664062 178.351562 350.488281 178.351562 348.945312 C 178.351562 347.417969 178.617188 346.238281 179.15625 345.421875 C 179.695312 344.621094 180.484375 344.207031 181.511719 344.207031 Z M 181.511719 344.207031 "/>
<path style="fill:none;stroke-width:0.8;stroke-linecap:butt;stroke-linejoin:round;stroke:rgb(0%,0%,0%);stroke-opacity:1;stroke-miterlimit:4;" d="M 183.197109 267.454838 L 183.197109 270.95483 " transform="matrix(1.253133,0,0,1.253351,0,0.000000000000028498)"/>
<path style=" stroke:none;fill-rule:nonzero;fill:rgb(0%,0%,0%);fill-opacity:1;" d="M 223.15625 352.46875 L 225.175781 352.46875 L 225.175781 345.5 L 222.980469 345.9375 L 222.980469 344.808594 L 225.160156 344.371094 L 226.402344 344.371094 L 226.402344 352.46875 L 228.417969 352.46875 L 228.417969 353.507812 L 223.15625 353.507812 Z M 223.15625 352.46875 "/>
<path style=" stroke:none;fill-rule:nonzero;fill:rgb(0%,0%,0%);fill-opacity:1;" d="M 230.925781 344.371094 L 235.777344 344.371094 L 235.777344 345.410156 L 232.054688 345.410156 L 232.054688 347.65625 C 232.230469 347.59375 232.417969 347.542969 232.59375 347.515625 C 232.769531 347.492188 232.957031 347.464844 233.132812 347.464844 C 234.148438 347.464844 234.949219 347.753906 235.550781 348.304688 C 236.152344 348.871094 236.453125 349.621094 236.453125 350.574219 C 236.453125 351.566406 236.140625 352.328125 235.523438 352.867188 C 234.910156 353.40625 234.046875 353.671875 232.945312 353.671875 C 232.554688 353.671875 232.167969 353.632812 231.765625 353.582031 C 231.363281 353.519531 230.964844 353.433594 230.539062 353.292969 L 230.539062 352.054688 C 230.902344 352.253906 231.277344 352.40625 231.679688 352.503906 C 232.066406 352.605469 232.480469 352.644531 232.917969 352.644531 C 233.621094 352.644531 234.183594 352.46875 234.597656 352.089844 C 235 351.714844 235.210938 351.214844 235.210938 350.574219 C 235.210938 349.949219 235 349.445312 234.597656 349.070312 C 234.183594 348.695312 233.621094 348.507812 232.917969 348.507812 C 232.59375 348.507812 232.253906 348.542969 231.929688 348.621094 C 231.601562 348.695312 231.265625 348.808594 230.925781 348.957031 Z M 230.925781 344.371094 "/>
<path style="fill:none;stroke-width:0.8;stroke-linecap:butt;stroke-linejoin:round;stroke:rgb(0%,0%,0%);stroke-opacity:1;stroke-miterlimit:4;" d="M 224.730516 267.454838 L 224.730516 270.95483 " transform="matrix(1.253133,0,0,1.253351,0,0.000000000000028498)"/>
<path style=" stroke:none;fill-rule:nonzero;fill:rgb(0%,0%,0%);fill-opacity:1;" d="M 276.054688 352.46875 L 280.363281 352.46875 L 280.363281 353.507812 L 274.5625 353.507812 L 274.5625 352.46875 C 275.027344 351.992188 275.664062 351.339844 276.480469 350.511719 C 277.28125 349.699219 277.796875 349.171875 278.007812 348.933594 C 278.410156 348.496094 278.683594 348.117188 278.835938 347.804688 C 278.984375 347.503906 279.074219 347.191406 279.074219 346.890625 C 279.074219 346.414062 278.898438 346.011719 278.558594 345.710938 C 278.222656 345.410156 277.785156 345.25 277.230469 345.25 C 276.84375 345.25 276.429688 345.324219 276.003906 345.449219 C 275.578125 345.585938 275.113281 345.785156 274.625 346.0625 L 274.625 344.808594 C 275.125 344.609375 275.589844 344.457031 276.015625 344.359375 C 276.441406 344.257812 276.84375 344.207031 277.207031 344.207031 C 278.148438 344.207031 278.898438 344.445312 279.460938 344.921875 C 280.027344 345.398438 280.316406 346.023438 280.316406 346.816406 C 280.316406 347.191406 280.238281 347.554688 280.101562 347.878906 C 279.964844 348.21875 279.714844 348.621094 279.335938 349.070312 C 279.238281 349.195312 278.910156 349.535156 278.359375 350.097656 C 277.808594 350.664062 277.042969 351.453125 276.054688 352.46875 Z M 276.054688 352.46875 "/>
<path style=" stroke:none;fill-rule:nonzero;fill:rgb(0%,0%,0%);fill-opacity:1;" d="M 285.601562 345.183594 C 284.964844 345.183594 284.488281 345.5 284.160156 346.125 C 283.835938 346.753906 283.683594 347.691406 283.683594 348.945312 C 283.683594 350.199219 283.835938 351.140625 284.160156 351.765625 C 284.488281 352.390625 284.964844 352.707031 285.601562 352.707031 C 286.242188 352.707031 286.71875 352.390625 287.042969 351.765625 C 287.355469 351.140625 287.519531 350.199219 287.519531 348.945312 C 287.519531 347.691406 287.355469 346.753906 287.042969 346.125 C 286.71875 345.5 286.242188 345.183594 285.601562 345.183594 Z M 285.601562 344.207031 C 286.617188 344.207031 287.394531 344.621094 287.945312 345.421875 C 288.484375 346.238281 288.761719 347.417969 288.761719 348.945312 C 288.761719 350.488281 288.484375 351.664062 287.945312 352.46875 C 287.394531 353.269531 286.617188 353.671875 285.589844 353.671875 C 284.5625 353.671875 283.785156 353.269531 283.246094 352.46875 C 282.707031 351.664062 282.445312 350.488281 282.445312 348.945312 C 282.445312 347.417969 282.707031 346.238281 283.246094 345.421875 C 283.785156 344.621094 284.574219 344.207031 285.601562 344.207031 Z M 285.601562 344.207031 "/>
<path style="fill:none;stroke-width:0.8;stroke-linecap:butt;stroke-linejoin:round;stroke:rgb(0%,0%,0%);stroke-opacity:1;stroke-miterlimit:4;" d="M 266.263922 267.454838 L 266.263922 270.95483 " transform="matrix(1.253133,0,0,1.253351,0,0.000000000000028498)"/>
<path style=" stroke:none;fill-rule:nonzero;fill:rgb(0%,0%,0%);fill-opacity:1;" d="M 328.101562 352.46875 L 332.410156 352.46875 L 332.410156 353.507812 L 326.609375 353.507812 L 326.609375 352.46875 C 327.074219 351.992188 327.710938 351.339844 328.527344 350.511719 C 329.328125 349.699219 329.84375 349.171875 330.054688 348.933594 C 330.457031 348.496094 330.730469 348.117188 330.882812 347.804688 C 331.03125 347.503906 331.121094 347.191406 331.121094 346.890625 C 331.121094 346.414062 330.945312 346.011719 330.605469 345.710938 C 330.269531 345.410156 329.828125 345.25 329.277344 345.25 C 328.890625 345.25 328.476562 345.324219 328.050781 345.449219 C 327.625 345.585938 327.160156 345.785156 326.671875 346.0625 L 326.671875 344.808594 C 327.171875 344.609375 327.636719 344.457031 328.0625 344.359375 C 328.488281 344.257812 328.890625 344.207031 329.253906 344.207031 C 330.191406 344.207031 330.945312 344.445312 331.507812 344.921875 C 332.074219 345.398438 332.359375 346.023438 332.359375 346.816406 C 332.359375 347.191406 332.285156 347.554688 332.148438 347.878906 C 332.011719 348.21875 331.757812 348.621094 331.382812 349.070312 C 331.285156 349.195312 330.957031 349.535156 330.40625 350.097656 C 329.855469 350.664062 329.089844 351.453125 328.101562 352.46875 Z M 328.101562 352.46875 "/>
<path style=" stroke:none;fill-rule:nonzero;fill:rgb(0%,0%,0%);fill-opacity:1;" d="M 335.015625 344.371094 L 339.867188 344.371094 L 339.867188 345.410156 L 336.144531 345.410156 L 336.144531 347.65625 C 336.320312 347.59375 336.507812 347.542969 336.683594 347.515625 C 336.859375 347.492188 337.046875 347.464844 337.222656 347.464844 C 338.238281 347.464844 339.039062 347.753906 339.640625 348.304688 C 340.242188 348.871094 340.542969 349.621094 340.542969 350.574219 C 340.542969 351.566406 340.230469 352.328125 339.617188 352.867188 C 339.003906 353.40625 338.136719 353.671875 337.035156 353.671875 C 336.648438 353.671875 336.257812 353.632812 335.855469 353.582031 C 335.457031 353.519531 335.054688 353.433594 334.628906 353.292969 L 334.628906 352.054688 C 334.992188 352.253906 335.367188 352.40625 335.769531 352.503906 C 336.15625 352.605469 336.570312 352.644531 337.011719 352.644531 C 337.710938 352.644531 338.277344 352.46875 338.6875 352.089844 C 339.089844 351.714844 339.304688 351.214844 339.304688 350.574219 C 339.304688 349.949219 339.089844 349.445312 338.6875 349.070312 C 338.277344 348.695312 337.710938 348.507812 337.011719 348.507812 C 336.683594 348.507812 336.347656 348.542969 336.019531 348.621094 C 335.695312 348.695312 335.355469 348.808594 335.015625 348.957031 Z M 335.015625 344.371094 "/>
<path style="fill:none;stroke-width:0.8;stroke-linecap:butt;stroke-linejoin:round;stroke:rgb(0%,0%,0%);stroke-opacity:1;stroke-miterlimit:4;" d="M 307.797328 267.454838 L 307.797328 270.95483 " transform="matrix(1.253133,0,0,1.253351,0,0.000000000000028498)"/>
<path style=" stroke:none;fill-rule:nonzero;fill:rgb(0%,0%,0%);fill-opacity:1;" d="M 382.828125 348.582031 C 383.417969 348.707031 383.882812 348.96875 384.207031 349.371094 C 384.53125 349.773438 384.707031 350.273438 384.707031 350.851562 C 384.707031 351.753906 384.394531 352.453125 383.78125 352.945312 C 383.152344 353.433594 382.277344 353.671875 381.136719 353.671875 C 380.75 353.671875 380.347656 353.632812 379.945312 353.558594 C 379.546875 353.496094 379.117188 353.382812 378.691406 353.230469 L 378.691406 352.042969 C 379.03125 352.242188 379.40625 352.390625 379.820312 352.492188 C 380.222656 352.59375 380.648438 352.644531 381.097656 352.644531 C 381.875 352.644531 382.464844 352.492188 382.867188 352.191406 C 383.265625 351.890625 383.480469 351.441406 383.480469 350.851562 C 383.480469 350.324219 383.292969 349.898438 382.917969 349.597656 C 382.539062 349.296875 382.015625 349.132812 381.335938 349.132812 L 380.273438 349.132812 L 380.273438 348.117188 L 381.386719 348.117188 C 381.988281 348.117188 382.453125 348.003906 382.777344 347.753906 C 383.105469 347.515625 383.265625 347.164062 383.265625 346.703125 C 383.265625 346.238281 383.089844 345.875 382.765625 345.625 C 382.425781 345.375 381.949219 345.25 381.335938 345.25 C 381 345.25 380.636719 345.285156 380.246094 345.359375 C 379.859375 345.4375 379.433594 345.550781 378.96875 345.699219 L 378.96875 344.597656 C 379.433594 344.472656 379.871094 344.371094 380.285156 344.308594 C 380.683594 344.246094 381.074219 344.207031 381.449219 344.207031 C 382.378906 344.207031 383.117188 344.421875 383.667969 344.847656 C 384.21875 345.273438 384.496094 345.851562 384.496094 346.578125 C 384.496094 347.078125 384.34375 347.503906 384.054688 347.855469 C 383.769531 348.207031 383.355469 348.457031 382.828125 348.582031 Z M 382.828125 348.582031 "/>
<path style=" stroke:none;fill-rule:nonzero;fill:rgb(0%,0%,0%);fill-opacity:1;" d="M 389.695312 345.183594 C 389.054688 345.183594 388.582031 345.5 388.253906 346.125 C 387.929688 346.753906 387.777344 347.691406 387.777344 348.945312 C 387.777344 350.199219 387.929688 351.140625 388.253906 351.765625 C 388.582031 352.390625 389.054688 352.707031 389.695312 352.707031 C 390.335938 352.707031 390.8125 352.390625 391.136719 351.765625 C 391.449219 351.140625 391.613281 350.199219 391.613281 348.945312 C 391.613281 347.691406 391.449219 346.753906 391.136719 346.125 C 390.8125 345.5 390.335938 345.183594 389.695312 345.183594 Z M 389.695312 344.207031 C 390.710938 344.207031 391.488281 344.621094 392.039062 345.421875 C 392.578125 346.238281 392.851562 347.417969 392.851562 348.945312 C 392.851562 350.488281 392.578125 351.664062 392.039062 352.46875 C 391.488281 353.269531 390.710938 353.671875 389.683594 353.671875 C 388.65625 353.671875 387.878906 353.269531 387.339844 352.46875 C 386.800781 351.664062 386.539062 350.488281 386.539062 348.945312 C 386.539062 347.417969 386.800781 346.238281 387.339844 345.421875 C 387.878906 344.621094 388.667969 344.207031 389.695312 344.207031 Z M 389.695312 344.207031 "/>
<path style=" stroke:none;fill-rule:nonzero;fill:rgb(0%,0%,0%);fill-opacity:1;" d="M 205.722656 361.507812 L 213.441406 361.507812 L 213.441406 362.546875 L 210.195312 362.546875 L 210.195312 370.644531 L 208.953125 370.644531 L 208.953125 362.546875 L 205.722656 362.546875 Z M 205.722656 361.507812 "/>
<path style=" stroke:none;fill-rule:nonzero;fill:rgb(0%,0%,0%);fill-opacity:1;" d="M 214.210938 363.789062 L 215.335938 363.789062 L 215.335938 370.644531 L 214.210938 370.644531 Z M 214.210938 361.117188 L 215.335938 361.117188 L 215.335938 362.546875 L 214.210938 362.546875 Z M 214.210938 361.117188 "/>
<path style=" stroke:none;fill-rule:nonzero;fill:rgb(0%,0%,0%);fill-opacity:1;" d="M 223.03125 365.105469 C 223.308594 364.601562 223.644531 364.238281 224.035156 363.988281 C 224.421875 363.75 224.886719 363.625 225.425781 363.625 C 226.125 363.625 226.679688 363.875 227.066406 364.375 C 227.453125 364.878906 227.65625 365.59375 227.65625 366.507812 L 227.65625 370.644531 L 226.527344 370.644531 L 226.527344 366.546875 C 226.527344 365.894531 226.402344 365.40625 226.175781 365.078125 C 225.9375 364.765625 225.585938 364.601562 225.113281 364.601562 C 224.523438 364.601562 224.058594 364.804688 223.71875 365.191406 C 223.382812 365.578125 223.21875 366.105469 223.21875 366.769531 L 223.21875 370.644531 L 222.089844 370.644531 L 222.089844 366.546875 C 222.089844 365.894531 221.964844 365.40625 221.742188 365.078125 C 221.503906 364.765625 221.140625 364.601562 220.664062 364.601562 C 220.085938 364.601562 219.621094 364.804688 219.285156 365.191406 C 218.945312 365.578125 218.785156 366.105469 218.785156 366.769531 L 218.785156 370.644531 L 217.65625 370.644531 L 217.65625 363.789062 L 218.785156 363.789062 L 218.785156 364.851562 C 219.035156 364.4375 219.347656 364.125 219.710938 363.925781 C 220.0625 363.726562 220.488281 363.625 220.988281 363.625 C 221.488281 363.625 221.902344 363.75 222.253906 364 C 222.605469 364.25 222.855469 364.628906 223.03125 365.105469 Z M 223.03125 365.105469 "/>
<path style=" stroke:none;fill-rule:nonzero;fill:rgb(0%,0%,0%);fill-opacity:1;" d="M 235.761719 366.933594 L 235.761719 367.484375 L 230.585938 367.484375 C 230.636719 368.261719 230.863281 368.863281 231.289062 369.265625 C 231.703125 369.664062 232.28125 369.867188 233.03125 369.867188 C 233.457031 369.867188 233.882812 369.816406 234.285156 369.714844 C 234.683594 369.617188 235.097656 369.453125 235.5 369.226562 L 235.5 370.292969 C 235.097656 370.46875 234.683594 370.605469 234.257812 370.679688 C 233.832031 370.757812 233.394531 370.804688 232.96875 370.804688 C 231.867188 370.804688 231 370.492188 230.363281 369.867188 C 229.722656 369.238281 229.410156 368.375 229.410156 367.285156 C 229.410156 366.167969 229.710938 365.277344 230.3125 364.613281 C 230.914062 363.964844 231.742188 363.625 232.769531 363.625 C 233.695312 363.625 234.421875 363.925781 234.960938 364.515625 C 235.488281 365.117188 235.761719 365.917969 235.761719 366.933594 Z M 234.636719 366.609375 C 234.621094 365.992188 234.449219 365.503906 234.121094 365.128906 C 233.785156 364.765625 233.332031 364.578125 232.78125 364.578125 C 232.152344 364.578125 231.652344 364.765625 231.277344 365.117188 C 230.902344 365.46875 230.675781 365.96875 230.625 366.609375 Z M 234.636719 366.609375 "/>
<path style=" stroke:none;fill-rule:nonzero;fill:rgb(0%,0%,0%);fill-opacity:1;" d="M 241.488281 361.117188 L 244.082031 361.117188 L 244.082031 361.996094 L 242.617188 361.996094 L 242.617188 371.40625 L 244.082031 371.40625 L 244.082031 372.285156 L 241.488281 372.285156 Z M 241.488281 361.117188 "/>
<path style=" stroke:none;fill-rule:nonzero;fill:rgb(0%,0%,0%);fill-opacity:1;" d="M 250.851562 363.988281 L 250.851562 365.054688 C 250.523438 364.902344 250.199219 364.777344 249.859375 364.691406 C 249.511719 364.613281 249.160156 364.566406 248.796875 364.566406 C 248.230469 364.566406 247.804688 364.652344 247.53125 364.828125 C 247.253906 365.003906 247.117188 365.253906 247.117188 365.59375 C 247.117188 365.855469 247.214844 366.054688 247.417969 366.207031 C 247.617188 366.355469 248.019531 366.507812 248.621094 366.632812 L 249.007812 366.71875 C 249.8125 366.894531 250.375 367.148438 250.714844 367.449219 C 251.039062 367.761719 251.214844 368.199219 251.214844 368.75 C 251.214844 369.390625 250.964844 369.890625 250.460938 370.253906 C 249.960938 370.632812 249.257812 370.804688 248.382812 370.804688 C 248.007812 370.804688 247.628906 370.769531 247.230469 370.707031 C 246.828125 370.644531 246.414062 370.542969 245.976562 370.394531 L 245.976562 369.226562 C 246.390625 369.453125 246.804688 369.617188 247.203125 369.714844 C 247.605469 369.828125 248.007812 369.878906 248.40625 369.878906 C 248.933594 369.878906 249.347656 369.792969 249.636719 369.617188 C 249.910156 369.441406 250.0625 369.175781 250.0625 368.839844 C 250.0625 368.539062 249.949219 368.300781 249.75 368.136719 C 249.546875 367.972656 249.097656 367.8125 248.394531 367.660156 L 248.007812 367.574219 C 247.304688 367.421875 246.789062 367.195312 246.488281 366.894531 C 246.175781 366.59375 246.027344 366.179688 246.027344 365.644531 C 246.027344 365.003906 246.25 364.503906 246.703125 364.152344 C 247.152344 363.800781 247.804688 363.625 248.65625 363.625 C 249.070312 363.625 249.460938 363.664062 249.835938 363.726562 C 250.199219 363.789062 250.539062 363.875 250.851562 363.988281 Z M 250.851562 363.988281 "/>
<path style=" stroke:none;fill-rule:nonzero;fill:rgb(0%,0%,0%);fill-opacity:1;" d="M 255.636719 361.117188 L 255.636719 372.285156 L 253.042969 372.285156 L 253.042969 371.40625 L 254.511719 371.40625 L 254.511719 361.996094 L 253.042969 361.996094 L 253.042969 361.117188 Z M 255.636719 361.117188 "/>
<path style="fill:none;stroke-width:0.8;stroke-linecap:butt;stroke-linejoin:round;stroke:rgb(0%,0%,0%);stroke-opacity:1;stroke-miterlimit:4;" d="M 51.511523 231.167747 L 48.014039 231.167747 " transform="matrix(1.253133,0,0,1.253351,0,0.000000000000028498)"/>
<path style=" stroke:none;fill-rule:nonzero;fill:rgb(0%,0%,0%);fill-opacity:1;" d="M 31.867188 286.171875 C 31.226562 286.171875 30.75 286.484375 30.425781 287.113281 C 30.101562 287.738281 29.949219 288.679688 29.949219 289.929688 C 29.949219 291.183594 30.101562 292.125 30.425781 292.75 C 30.75 293.378906 31.226562 293.691406 31.867188 293.691406 C 32.507812 293.691406 32.984375 293.378906 33.308594 292.75 C 33.621094 292.125 33.785156 291.183594 33.785156 289.929688 C 33.785156 288.679688 33.621094 287.738281 33.308594 287.113281 C 32.984375 286.484375 32.507812 286.171875 31.867188 286.171875 Z M 31.867188 285.195312 C 32.882812 285.195312 33.660156 285.605469 34.210938 286.410156 C 34.75 287.222656 35.023438 288.402344 35.023438 289.929688 C 35.023438 291.472656 34.75 292.652344 34.210938 293.453125 C 33.660156 294.253906 32.882812 294.65625 31.855469 294.65625 C 30.828125 294.65625 30.050781 294.253906 29.511719 293.453125 C 28.972656 292.652344 28.710938 291.472656 28.710938 289.929688 C 28.710938 288.402344 28.972656 287.222656 29.511719 286.410156 C 30.050781 285.605469 30.839844 285.195312 31.867188 285.195312 Z M 31.867188 285.195312 "/>
<path style=" stroke:none;fill-rule:nonzero;fill:rgb(0%,0%,0%);fill-opacity:1;" d="M 37.191406 292.941406 L 38.484375 292.941406 L 38.484375 294.492188 L 37.191406 294.492188 Z M 37.191406 292.941406 "/>
<path style=" stroke:none;fill-rule:nonzero;fill:rgb(0%,0%,0%);fill-opacity:1;" d="M 43.820312 286.171875 C 43.183594 286.171875 42.707031 286.484375 42.382812 287.113281 C 42.054688 287.738281 41.90625 288.679688 41.90625 289.929688 C 41.90625 291.183594 42.054688 292.125 42.382812 292.75 C 42.707031 293.378906 43.183594 293.691406 43.820312 293.691406 C 44.460938 293.691406 44.9375 293.378906 45.261719 292.75 C 45.578125 292.125 45.738281 291.183594 45.738281 289.929688 C 45.738281 288.679688 45.578125 287.738281 45.261719 287.113281 C 44.9375 286.484375 44.460938 286.171875 43.820312 286.171875 Z M 43.820312 285.195312 C 44.835938 285.195312 45.613281 285.605469 46.164062 286.410156 C 46.703125 287.222656 46.980469 288.402344 46.980469 289.929688 C 46.980469 291.472656 46.703125 292.652344 46.164062 293.453125 C 45.613281 294.253906 44.835938 294.65625 43.808594 294.65625 C 42.78125 294.65625 42.003906 294.253906 41.464844 293.453125 C 40.925781 292.652344 40.664062 291.472656 40.664062 289.929688 C 40.664062 288.402344 40.925781 287.222656 41.464844 286.410156 C 42.003906 285.605469 42.792969 285.195312 43.820312 285.195312 Z M 43.820312 285.195312 "/>
<path style=" stroke:none;fill-rule:nonzero;fill:rgb(0%,0%,0%);fill-opacity:1;" d="M 52.542969 286.433594 L 49.421875 291.308594 L 52.542969 291.308594 Z M 52.21875 285.355469 L 53.773438 285.355469 L 53.773438 291.308594 L 55.074219 291.308594 L 55.074219 292.339844 L 53.773438 292.339844 L 53.773438 294.492188 L 52.542969 294.492188 L 52.542969 292.339844 L 48.421875 292.339844 L 48.421875 291.148438 Z M 52.21875 285.355469 "/>
<path style=" stroke:none;fill-rule:nonzero;fill:rgb(0%,0%,0%);fill-opacity:1;" d="M 18.710938 290.042969 L 26.554688 290.042969 L 26.554688 291.085938 L 18.710938 291.085938 Z M 18.710938 290.042969 "/>
<path style="fill:none;stroke-width:0.8;stroke-linecap:butt;stroke-linejoin:round;stroke:rgb(0%,0%,0%);stroke-opacity:1;stroke-miterlimit:4;" d="M 51.511523 182.78496 L 48.014039 182.78496 " transform="matrix(1.253133,0,0,1.253351,0,0.000000000000028498)"/>
<path style=" stroke:none;fill-rule:nonzero;fill:rgb(0%,0%,0%);fill-opacity:1;" d="M 31.867188 225.527344 C 31.226562 225.527344 30.75 225.84375 30.425781 226.46875 C 30.101562 227.097656 29.949219 228.035156 29.949219 229.289062 C 29.949219 230.542969 30.101562 231.484375 30.425781 232.109375 C 30.75 232.734375 31.226562 233.050781 31.867188 233.050781 C 32.507812 233.050781 32.984375 232.734375 33.308594 232.109375 C 33.621094 231.484375 33.785156 230.542969 33.785156 229.289062 C 33.785156 228.035156 33.621094 227.097656 33.308594 226.46875 C 32.984375 225.84375 32.507812 225.527344 31.867188 225.527344 Z M 31.867188 224.550781 C 32.882812 224.550781 33.660156 224.964844 34.210938 225.765625 C 34.75 226.582031 35.023438 227.761719 35.023438 229.289062 C 35.023438 230.832031 34.75 232.007812 34.210938 232.8125 C 33.660156 233.613281 32.882812 234.015625 31.855469 234.015625 C 30.828125 234.015625 30.050781 233.613281 29.511719 232.8125 C 28.972656 232.007812 28.710938 230.832031 28.710938 229.289062 C 28.710938 227.761719 28.972656 226.582031 29.511719 225.765625 C 30.050781 224.964844 30.839844 224.550781 31.867188 224.550781 Z M 31.867188 224.550781 "/>
<path style=" stroke:none;fill-rule:nonzero;fill:rgb(0%,0%,0%);fill-opacity:1;" d="M 37.191406 232.296875 L 38.484375 232.296875 L 38.484375 233.851562 L 37.191406 233.851562 Z M 37.191406 232.296875 "/>
<path style=" stroke:none;fill-rule:nonzero;fill:rgb(0%,0%,0%);fill-opacity:1;" d="M 43.820312 225.527344 C 43.183594 225.527344 42.707031 225.84375 42.382812 226.46875 C 42.054688 227.097656 41.90625 228.035156 41.90625 229.289062 C 41.90625 230.542969 42.054688 231.484375 42.382812 232.109375 C 42.707031 232.734375 43.183594 233.050781 43.820312 233.050781 C 44.460938 233.050781 44.9375 232.734375 45.261719 232.109375 C 45.578125 231.484375 45.738281 230.542969 45.738281 229.289062 C 45.738281 228.035156 45.578125 227.097656 45.261719 226.46875 C 44.9375 225.84375 44.460938 225.527344 43.820312 225.527344 Z M 43.820312 224.550781 C 44.835938 224.550781 45.613281 224.964844 46.164062 225.765625 C 46.703125 226.582031 46.980469 227.761719 46.980469 229.289062 C 46.980469 230.832031 46.703125 232.007812 46.164062 232.8125 C 45.613281 233.613281 44.835938 234.015625 43.808594 234.015625 C 42.78125 234.015625 42.003906 233.613281 41.464844 232.8125 C 40.925781 232.007812 40.664062 230.832031 40.664062 229.289062 C 40.664062 227.761719 40.925781 226.582031 41.464844 225.765625 C 42.003906 224.964844 42.792969 224.550781 43.820312 224.550781 Z M 43.820312 224.550781 "/>
<path style=" stroke:none;fill-rule:nonzero;fill:rgb(0%,0%,0%);fill-opacity:1;" d="M 50.214844 232.8125 L 54.523438 232.8125 L 54.523438 233.851562 L 48.722656 233.851562 L 48.722656 232.8125 C 49.183594 232.335938 49.824219 231.683594 50.640625 230.855469 C 51.441406 230.042969 51.953125 229.515625 52.167969 229.277344 C 52.570312 228.839844 52.84375 228.460938 52.996094 228.148438 C 53.144531 227.847656 53.234375 227.535156 53.234375 227.234375 C 53.234375 226.757812 53.058594 226.355469 52.71875 226.054688 C 52.382812 225.753906 51.941406 225.59375 51.390625 225.59375 C 51.003906 225.59375 50.589844 225.667969 50.164062 225.792969 C 49.738281 225.929688 49.273438 226.132812 48.785156 226.40625 L 48.785156 225.152344 C 49.285156 224.953125 49.75 224.800781 50.175781 224.703125 C 50.601562 224.601562 51.003906 224.550781 51.367188 224.550781 C 52.304688 224.550781 53.058594 224.789062 53.621094 225.265625 C 54.183594 225.742188 54.472656 226.367188 54.472656 227.160156 C 54.472656 227.535156 54.398438 227.898438 54.261719 228.222656 C 54.121094 228.5625 53.871094 228.964844 53.496094 229.414062 C 53.394531 229.539062 53.070312 229.878906 52.519531 230.441406 C 51.96875 231.007812 51.203125 231.796875 50.214844 232.8125 Z M 50.214844 232.8125 "/>
<path style=" stroke:none;fill-rule:nonzero;fill:rgb(0%,0%,0%);fill-opacity:1;" d="M 18.710938 229.402344 L 26.554688 229.402344 L 26.554688 230.441406 L 18.710938 230.441406 Z M 18.710938 229.402344 "/>
<path style="fill:none;stroke-width:0.8;stroke-linecap:butt;stroke-linejoin:round;stroke:rgb(0%,0%,0%);stroke-opacity:1;stroke-miterlimit:4;" d="M 51.511523 134.399056 L 48.014039 134.399056 " transform="matrix(1.253133,0,0,1.253351,0,0.000000000000028498)"/>
<path style=" stroke:none;fill-rule:nonzero;fill:rgb(0%,0%,0%);fill-opacity:1;" d="M 31.863281 164.886719 C 31.222656 164.886719 30.75 165.199219 30.421875 165.828125 C 30.097656 166.453125 29.945312 167.394531 29.945312 168.648438 C 29.945312 169.902344 30.097656 170.839844 30.421875 171.46875 C 30.75 172.09375 31.222656 172.40625 31.863281 172.40625 C 32.503906 172.40625 32.980469 172.09375 33.304688 171.46875 C 33.617188 170.839844 33.78125 169.902344 33.78125 168.648438 C 33.78125 167.394531 33.617188 166.453125 33.304688 165.828125 C 32.980469 165.199219 32.503906 164.886719 31.863281 164.886719 Z M 31.863281 163.910156 C 32.878906 163.910156 33.65625 164.324219 34.207031 165.125 C 34.746094 165.941406 35.019531 167.117188 35.019531 168.648438 C 35.019531 170.1875 34.746094 171.367188 34.207031 172.167969 C 33.65625 172.972656 32.878906 173.371094 31.851562 173.371094 C 30.824219 173.371094 30.046875 172.972656 29.507812 172.167969 C 28.96875 171.367188 28.707031 170.1875 28.707031 168.648438 C 28.707031 167.117188 28.96875 165.941406 29.507812 165.125 C 30.046875 164.324219 30.835938 163.910156 31.863281 163.910156 Z M 31.863281 163.910156 "/>
<path style=" stroke:none;fill-rule:nonzero;fill:rgb(0%,0%,0%);fill-opacity:1;" d="M 37.1875 171.65625 L 38.480469 171.65625 L 38.480469 173.210938 L 37.1875 173.210938 Z M 37.1875 171.65625 "/>
<path style=" stroke:none;fill-rule:nonzero;fill:rgb(0%,0%,0%);fill-opacity:1;" d="M 43.816406 164.886719 C 43.179688 164.886719 42.703125 165.199219 42.378906 165.828125 C 42.050781 166.453125 41.902344 167.394531 41.902344 168.648438 C 41.902344 169.902344 42.050781 170.839844 42.378906 171.46875 C 42.703125 172.09375 43.179688 172.40625 43.816406 172.40625 C 44.457031 172.40625 44.933594 172.09375 45.257812 171.46875 C 45.574219 170.839844 45.734375 169.902344 45.734375 168.648438 C 45.734375 167.394531 45.574219 166.453125 45.257812 165.828125 C 44.933594 165.199219 44.457031 164.886719 43.816406 164.886719 Z M 43.816406 163.910156 C 44.832031 163.910156 45.609375 164.324219 46.160156 165.125 C 46.699219 165.941406 46.976562 167.117188 46.976562 168.648438 C 46.976562 170.1875 46.699219 171.367188 46.160156 172.167969 C 45.609375 172.972656 44.832031 173.371094 43.804688 173.371094 C 42.777344 173.371094 42 172.972656 41.460938 172.167969 C 40.921875 171.367188 40.660156 170.1875 40.660156 168.648438 C 40.660156 167.117188 40.921875 165.941406 41.460938 165.125 C 42 164.324219 42.789062 163.910156 43.816406 163.910156 Z M 43.816406 163.910156 "/>
<path style=" stroke:none;fill-rule:nonzero;fill:rgb(0%,0%,0%);fill-opacity:1;" d="M 51.789062 164.886719 C 51.148438 164.886719 50.671875 165.199219 50.347656 165.828125 C 50.019531 166.453125 49.871094 167.394531 49.871094 168.648438 C 49.871094 169.902344 50.019531 170.839844 50.347656 171.46875 C 50.671875 172.09375 51.148438 172.40625 51.789062 172.40625 C 52.425781 172.40625 52.902344 172.09375 53.230469 171.46875 C 53.542969 170.839844 53.707031 169.902344 53.707031 168.648438 C 53.707031 167.394531 53.542969 166.453125 53.230469 165.828125 C 52.902344 165.199219 52.425781 164.886719 51.789062 164.886719 Z M 51.789062 163.910156 C 52.804688 163.910156 53.582031 164.324219 54.132812 165.125 C 54.671875 165.941406 54.945312 167.117188 54.945312 168.648438 C 54.945312 170.1875 54.671875 171.367188 54.132812 172.167969 C 53.582031 172.972656 52.804688 173.371094 51.777344 173.371094 C 50.75 173.371094 49.972656 172.972656 49.433594 172.167969 C 48.894531 171.367188 48.628906 170.1875 48.628906 168.648438 C 48.628906 167.117188 48.894531 165.941406 49.433594 165.125 C 49.972656 164.324219 50.761719 163.910156 51.789062 163.910156 Z M 51.789062 163.910156 "/>
<path style="fill:none;stroke-width:0.8;stroke-linecap:butt;stroke-linejoin:round;stroke:rgb(0%,0%,0%);stroke-opacity:1;stroke-miterlimit:4;" d="M 51.511523 86.016268 L 48.014039 86.016268 " transform="matrix(1.253133,0,0,1.253351,0,0.000000000000028498)"/>
<path style=" stroke:none;fill-rule:nonzero;fill:rgb(0%,0%,0%);fill-opacity:1;" d="M 31.863281 104.246094 C 31.222656 104.246094 30.75 104.558594 30.421875 105.183594 C 30.097656 105.8125 29.945312 106.75 29.945312 108.003906 C 29.945312 109.257812 30.097656 110.199219 30.421875 110.824219 C 30.75 111.453125 31.222656 111.765625 31.863281 111.765625 C 32.503906 111.765625 32.980469 111.453125 33.304688 110.824219 C 33.617188 110.199219 33.78125 109.257812 33.78125 108.003906 C 33.78125 106.75 33.617188 105.8125 33.304688 105.183594 C 32.980469 104.558594 32.503906 104.246094 31.863281 104.246094 Z M 31.863281 103.265625 C 32.878906 103.265625 33.65625 103.679688 34.207031 104.484375 C 34.746094 105.296875 35.019531 106.476562 35.019531 108.003906 C 35.019531 109.546875 34.746094 110.726562 34.207031 111.527344 C 33.65625 112.328125 32.878906 112.730469 31.851562 112.730469 C 30.824219 112.730469 30.046875 112.328125 29.507812 111.527344 C 28.96875 110.726562 28.707031 109.546875 28.707031 108.003906 C 28.707031 106.476562 28.96875 105.296875 29.507812 104.484375 C 30.046875 103.679688 30.835938 103.265625 31.863281 103.265625 Z M 31.863281 103.265625 "/>
<path style=" stroke:none;fill-rule:nonzero;fill:rgb(0%,0%,0%);fill-opacity:1;" d="M 37.1875 111.011719 L 38.480469 111.011719 L 38.480469 112.566406 L 37.1875 112.566406 Z M 37.1875 111.011719 "/>
<path style=" stroke:none;fill-rule:nonzero;fill:rgb(0%,0%,0%);fill-opacity:1;" d="M 43.816406 104.246094 C 43.179688 104.246094 42.703125 104.558594 42.378906 105.183594 C 42.050781 105.8125 41.902344 106.75 41.902344 108.003906 C 41.902344 109.257812 42.050781 110.199219 42.378906 110.824219 C 42.703125 111.453125 43.179688 111.765625 43.816406 111.765625 C 44.457031 111.765625 44.933594 111.453125 45.257812 110.824219 C 45.574219 110.199219 45.734375 109.257812 45.734375 108.003906 C 45.734375 106.75 45.574219 105.8125 45.257812 105.183594 C 44.933594 104.558594 44.457031 104.246094 43.816406 104.246094 Z M 43.816406 103.265625 C 44.832031 103.265625 45.609375 103.679688 46.160156 104.484375 C 46.699219 105.296875 46.976562 106.476562 46.976562 108.003906 C 46.976562 109.546875 46.699219 110.726562 46.160156 111.527344 C 45.609375 112.328125 44.832031 112.730469 43.804688 112.730469 C 42.777344 112.730469 42 112.328125 41.460938 111.527344 C 40.921875 110.726562 40.660156 109.546875 40.660156 108.003906 C 40.660156 106.476562 40.921875 105.296875 41.460938 104.484375 C 42 103.679688 42.789062 103.265625 43.816406 103.265625 Z M 43.816406 103.265625 "/>
<path style=" stroke:none;fill-rule:nonzero;fill:rgb(0%,0%,0%);fill-opacity:1;" d="M 50.210938 111.527344 L 54.519531 111.527344 L 54.519531 112.566406 L 48.71875 112.566406 L 48.71875 111.527344 C 49.183594 111.050781 49.820312 110.398438 50.636719 109.570312 C 51.4375 108.757812 51.949219 108.230469 52.164062 107.992188 C 52.566406 107.554688 52.839844 107.179688 52.992188 106.863281 C 53.140625 106.5625 53.230469 106.25 53.230469 105.949219 C 53.230469 105.472656 53.054688 105.070312 52.714844 104.769531 C 52.378906 104.46875 51.9375 104.308594 51.386719 104.308594 C 51 104.308594 50.585938 104.382812 50.160156 104.507812 C 49.734375 104.644531 49.269531 104.847656 48.78125 105.121094 L 48.78125 103.867188 C 49.28125 103.667969 49.746094 103.519531 50.171875 103.417969 C 50.597656 103.316406 51 103.265625 51.363281 103.265625 C 52.300781 103.265625 53.054688 103.503906 53.617188 103.980469 C 54.183594 104.457031 54.46875 105.085938 54.46875 105.875 C 54.46875 106.25 54.394531 106.613281 54.257812 106.941406 C 54.117188 107.277344 53.867188 107.679688 53.492188 108.128906 C 53.390625 108.253906 53.066406 108.59375 52.515625 109.15625 C 51.964844 109.722656 51.199219 110.511719 50.210938 111.527344 Z M 50.210938 111.527344 "/>
<path style="fill:none;stroke-width:0.8;stroke-linecap:butt;stroke-linejoin:round;stroke:rgb(0%,0%,0%);stroke-opacity:1;stroke-miterlimit:4;" d="M 51.511523 37.633481 L 48.014039 37.633481 " transform="matrix(1.253133,0,0,1.253351,0,0.000000000000028498)"/>
<path style=" stroke:none;fill-rule:nonzero;fill:rgb(0%,0%,0%);fill-opacity:1;" d="M 31.863281 43.605469 C 31.222656 43.605469 30.75 43.917969 30.421875 44.542969 C 30.097656 45.171875 29.945312 46.109375 29.945312 47.363281 C 29.945312 48.617188 30.097656 49.558594 30.421875 50.183594 C 30.75 50.8125 31.222656 51.125 31.863281 51.125 C 32.503906 51.125 32.980469 50.8125 33.304688 50.183594 C 33.617188 49.558594 33.78125 48.617188 33.78125 47.363281 C 33.78125 46.109375 33.617188 45.171875 33.304688 44.542969 C 32.980469 43.917969 32.503906 43.605469 31.863281 43.605469 Z M 31.863281 42.625 C 32.878906 42.625 33.65625 43.039062 34.207031 43.84375 C 34.746094 44.65625 35.019531 45.835938 35.019531 47.363281 C 35.019531 48.90625 34.746094 50.082031 34.207031 50.886719 C 33.65625 51.6875 32.878906 52.089844 31.851562 52.089844 C 30.824219 52.089844 30.046875 51.6875 29.507812 50.886719 C 28.96875 50.082031 28.707031 48.90625 28.707031 47.363281 C 28.707031 45.835938 28.96875 44.65625 29.507812 43.84375 C 30.046875 43.039062 30.835938 42.625 31.863281 42.625 Z M 31.863281 42.625 "/>
<path style=" stroke:none;fill-rule:nonzero;fill:rgb(0%,0%,0%);fill-opacity:1;" d="M 37.1875 50.371094 L 38.480469 50.371094 L 38.480469 51.925781 L 37.1875 51.925781 Z M 37.1875 50.371094 "/>
<path style=" stroke:none;fill-rule:nonzero;fill:rgb(0%,0%,0%);fill-opacity:1;" d="M 43.816406 43.605469 C 43.179688 43.605469 42.703125 43.917969 42.378906 44.542969 C 42.050781 45.171875 41.902344 46.109375 41.902344 47.363281 C 41.902344 48.617188 42.050781 49.558594 42.378906 50.183594 C 42.703125 50.8125 43.179688 51.125 43.816406 51.125 C 44.457031 51.125 44.933594 50.8125 45.257812 50.183594 C 45.574219 49.558594 45.734375 48.617188 45.734375 47.363281 C 45.734375 46.109375 45.574219 45.171875 45.257812 44.542969 C 44.933594 43.917969 44.457031 43.605469 43.816406 43.605469 Z M 43.816406 42.625 C 44.832031 42.625 45.609375 43.039062 46.160156 43.84375 C 46.699219 44.65625 46.976562 45.835938 46.976562 47.363281 C 46.976562 48.90625 46.699219 50.082031 46.160156 50.886719 C 45.609375 51.6875 44.832031 52.089844 43.804688 52.089844 C 42.777344 52.089844 42 51.6875 41.460938 50.886719 C 40.921875 50.082031 40.660156 48.90625 40.660156 47.363281 C 40.660156 45.835938 40.921875 44.65625 41.460938 43.84375 C 42 43.039062 42.789062 42.625 43.816406 42.625 Z M 43.816406 42.625 "/>
<path style=" stroke:none;fill-rule:nonzero;fill:rgb(0%,0%,0%);fill-opacity:1;" d="M 52.539062 43.867188 L 49.417969 48.742188 L 52.539062 48.742188 Z M 52.214844 42.789062 L 53.769531 42.789062 L 53.769531 48.742188 L 55.070312 48.742188 L 55.070312 49.769531 L 53.769531 49.769531 L 53.769531 51.925781 L 52.539062 51.925781 L 52.539062 49.769531 L 48.417969 49.769531 L 48.417969 48.578125 Z M 52.214844 42.789062 "/>
<path style=" stroke:none;fill-rule:nonzero;fill:rgb(0%,0%,0%);fill-opacity:1;" d="M 0.632812 223.820312 L 0.632812 222.578125 L 9.765625 222.578125 L 9.765625 223.820312 Z M 0.632812 223.820312 "/>
<path style=" stroke:none;fill-rule:nonzero;fill:rgb(0%,0%,0%);fill-opacity:1;" d="M 5.632812 214.46875 L 9.765625 214.46875 L 9.765625 215.597656 L 5.667969 215.597656 C 5.015625 215.597656 4.542969 215.734375 4.214844 215.984375 C 3.890625 216.234375 3.726562 216.613281 3.726562 217.113281 C 3.726562 217.726562 3.925781 218.203125 4.316406 218.554688 C 4.703125 218.90625 5.230469 219.082031 5.894531 219.082031 L 9.765625 219.082031 L 9.765625 220.207031 L 2.914062 220.207031 L 2.914062 219.082031 L 3.976562 219.082031 C 3.578125 218.816406 3.261719 218.503906 3.0625 218.128906 C 2.863281 217.765625 2.75 217.339844 2.75 216.863281 C 2.75 216.085938 3 215.484375 3.488281 215.082031 C 3.976562 214.679688 4.691406 214.46875 5.632812 214.46875 Z M 5.632812 214.46875 "/>
<path style=" stroke:none;fill-rule:nonzero;fill:rgb(0%,0%,0%);fill-opacity:1;" d="M 0.632812 210.222656 L 0.632812 209.179688 L 10.917969 212.363281 L 10.917969 213.40625 Z M 0.632812 210.222656 "/>
<path style=" stroke:none;fill-rule:nonzero;fill:rgb(0%,0%,0%);fill-opacity:1;" d="M 1.472656 204.242188 C 1.472656 205.144531 1.808594 205.859375 2.472656 206.386719 C 3.148438 206.910156 4.050781 207.175781 5.207031 207.175781 C 6.359375 207.175781 7.273438 206.910156 7.9375 206.386719 C 8.613281 205.859375 8.941406 205.144531 8.941406 204.242188 C 8.941406 203.351562 8.613281 202.636719 7.9375 202.113281 C 7.273438 201.585938 6.359375 201.320312 5.207031 201.320312 C 4.050781 201.320312 3.148438 201.585938 2.472656 202.113281 C 1.808594 202.636719 1.472656 203.351562 1.472656 204.242188 Z M 0.46875 204.242188 C 0.46875 202.964844 0.90625 201.949219 1.757812 201.171875 C 2.613281 200.40625 3.765625 200.019531 5.207031 200.019531 C 6.660156 200.019531 7.800781 200.40625 8.652344 201.171875 C 9.503906 201.949219 9.929688 202.964844 9.929688 204.242188 C 9.929688 205.535156 9.503906 206.5625 8.652344 207.324219 C 7.800781 208.101562 6.660156 208.480469 5.207031 208.480469 C 3.765625 208.480469 2.613281 208.101562 1.757812 207.324219 C 0.90625 206.5625 0.46875 205.535156 0.46875 204.242188 Z M 0.46875 204.242188 "/>
<path style=" stroke:none;fill-rule:nonzero;fill:rgb(0%,0%,0%);fill-opacity:1;" d="M 7.058594 198.25 L 2.914062 198.25 L 2.914062 197.125 L 7.023438 197.125 C 7.675781 197.125 8.148438 196.996094 8.476562 196.746094 C 8.800781 196.496094 8.964844 196.121094 8.964844 195.605469 C 8.964844 195.003906 8.777344 194.515625 8.386719 194.164062 C 8 193.816406 7.472656 193.640625 6.796875 193.640625 L 2.914062 193.640625 L 2.914062 192.511719 L 9.765625 192.511719 L 9.765625 193.640625 L 8.714844 193.640625 C 9.140625 193.914062 9.441406 194.242188 9.640625 194.589844 C 9.828125 194.953125 9.929688 195.367188 9.929688 195.84375 C 9.929688 196.632812 9.691406 197.234375 9.203125 197.636719 C 8.726562 198.050781 8.011719 198.25 7.058594 198.25 Z M 2.75 195.417969 Z M 2.75 195.417969 "/>
<path style=" stroke:none;fill-rule:nonzero;fill:rgb(0%,0%,0%);fill-opacity:1;" d="M 0.96875 189.074219 L 2.914062 189.074219 L 2.914062 186.757812 L 3.789062 186.757812 L 3.789062 189.074219 L 7.511719 189.074219 C 8.074219 189.074219 8.4375 189 8.589844 188.851562 C 8.75 188.699219 8.828125 188.386719 8.828125 187.910156 L 8.828125 186.757812 L 9.765625 186.757812 L 9.765625 187.910156 C 9.765625 188.789062 9.605469 189.390625 9.277344 189.714844 C 8.953125 190.039062 8.363281 190.203125 7.511719 190.203125 L 3.789062 190.203125 L 3.789062 191.03125 L 2.914062 191.03125 L 2.914062 190.203125 L 0.96875 190.203125 Z M 0.96875 189.074219 "/>
<path style=" stroke:none;fill-rule:nonzero;fill:rgb(0%,0%,0%);fill-opacity:1;" d="M 3.113281 176.917969 L 4.179688 176.917969 C 4.027344 177.246094 3.902344 177.570312 3.816406 177.910156 C 3.738281 178.261719 3.6875 178.609375 3.6875 178.976562 C 3.6875 179.539062 3.777344 179.964844 3.953125 180.242188 C 4.128906 180.515625 4.378906 180.652344 4.714844 180.652344 C 4.980469 180.652344 5.179688 180.554688 5.332031 180.351562 C 5.480469 180.152344 5.632812 179.75 5.757812 179.148438 L 5.84375 178.761719 C 6.019531 177.960938 6.269531 177.394531 6.570312 177.058594 C 6.882812 176.730469 7.324219 176.554688 7.875 176.554688 C 8.515625 176.554688 9.015625 176.804688 9.378906 177.308594 C 9.753906 177.808594 9.929688 178.511719 9.929688 179.386719 C 9.929688 179.765625 9.890625 180.140625 9.828125 180.542969 C 9.765625 180.941406 9.667969 181.355469 9.515625 181.792969 L 8.351562 181.792969 C 8.578125 181.382812 8.738281 180.96875 8.839844 180.566406 C 8.953125 180.164062 9.003906 179.765625 9.003906 179.363281 C 9.003906 178.835938 8.914062 178.421875 8.738281 178.136719 C 8.5625 177.859375 8.300781 177.707031 7.960938 177.707031 C 7.660156 177.707031 7.421875 177.820312 7.261719 178.023438 C 7.097656 178.222656 6.933594 178.675781 6.785156 179.375 L 6.695312 179.765625 C 6.546875 180.464844 6.320312 180.980469 6.019531 181.28125 C 5.71875 181.59375 5.304688 181.746094 4.765625 181.746094 C 4.128906 181.746094 3.625 181.519531 3.277344 181.066406 C 2.925781 180.617188 2.75 179.964844 2.75 179.113281 C 2.75 178.699219 2.785156 178.308594 2.851562 177.933594 C 2.914062 177.570312 3 177.234375 3.113281 176.917969 Z M 3.113281 176.917969 "/>
<path style=" stroke:none;fill-rule:nonzero;fill:rgb(0%,0%,0%);fill-opacity:1;" d="M 6.320312 171.640625 C 6.320312 172.554688 6.433594 173.183594 6.632812 173.535156 C 6.847656 173.886719 7.199219 174.058594 7.699219 174.058594 C 8.101562 174.058594 8.425781 173.933594 8.652344 173.671875 C 8.890625 173.410156 9.003906 173.046875 9.003906 172.59375 C 9.003906 171.96875 8.789062 171.464844 8.339844 171.089844 C 7.898438 170.714844 7.3125 170.527344 6.570312 170.527344 L 6.320312 170.527344 Z M 5.855469 169.398438 L 9.765625 169.398438 L 9.765625 170.527344 L 8.726562 170.527344 C 9.152344 170.789062 9.453125 171.113281 9.640625 171.492188 C 9.828125 171.867188 9.929688 172.34375 9.929688 172.894531 C 9.929688 173.597656 9.742188 174.160156 9.351562 174.574219 C 8.964844 174.988281 8.4375 175.1875 7.773438 175.1875 C 7.011719 175.1875 6.433594 174.9375 6.03125 174.410156 C 5.644531 173.898438 5.445312 173.132812 5.445312 172.105469 L 5.445312 170.527344 L 5.332031 170.527344 C 4.816406 170.527344 4.417969 170.703125 4.128906 171.039062 C 3.851562 171.378906 3.703125 171.855469 3.703125 172.46875 C 3.703125 172.871094 3.75 173.246094 3.851562 173.621094 C 3.953125 173.996094 4.089844 174.347656 4.265625 174.6875 L 3.226562 174.6875 C 3.074219 174.285156 2.949219 173.886719 2.875 173.496094 C 2.800781 173.109375 2.75 172.730469 2.75 172.355469 C 2.75 171.367188 3.011719 170.625 3.527344 170.136719 C 4.039062 169.648438 4.816406 169.398438 5.855469 169.398438 Z M 5.855469 169.398438 "/>
<path style=" stroke:none;fill-rule:nonzero;fill:rgb(0%,0%,0%);fill-opacity:1;" d="M 0.242188 163.609375 L 1.183594 163.609375 L 1.183594 164.6875 C 1.183594 165.085938 1.269531 165.375 1.433594 165.527344 C 1.597656 165.6875 1.882812 165.765625 2.3125 165.765625 L 2.914062 165.765625 L 2.914062 163.910156 L 3.789062 163.910156 L 3.789062 165.765625 L 9.765625 165.765625 L 9.765625 166.890625 L 3.789062 166.890625 L 3.789062 167.96875 L 2.914062 167.96875 L 2.914062 166.890625 L 2.4375 166.890625 C 1.683594 166.890625 1.121094 166.71875 0.769531 166.367188 C 0.417969 166.015625 0.242188 165.449219 0.242188 164.675781 Z M 0.242188 163.609375 "/>
<path style=" stroke:none;fill-rule:nonzero;fill:rgb(0%,0%,0%);fill-opacity:1;" d="M 6.058594 156.804688 L 6.609375 156.804688 L 6.609375 161.980469 C 7.386719 161.929688 7.988281 161.703125 8.386719 161.277344 C 8.789062 160.863281 8.988281 160.289062 8.988281 159.535156 C 8.988281 159.109375 8.941406 158.683594 8.839844 158.28125 C 8.738281 157.882812 8.578125 157.46875 8.351562 157.066406 L 9.417969 157.066406 C 9.589844 157.46875 9.730469 157.882812 9.804688 158.308594 C 9.878906 158.734375 9.929688 159.171875 9.929688 159.597656 C 9.929688 160.699219 9.617188 161.566406 8.988281 162.203125 C 8.363281 162.84375 7.5 163.15625 6.410156 163.15625 C 5.292969 163.15625 4.402344 162.855469 3.738281 162.253906 C 3.085938 161.652344 2.75 160.828125 2.75 159.796875 C 2.75 158.871094 3.050781 158.144531 3.640625 157.605469 C 4.242188 157.078125 5.042969 156.804688 6.058594 156.804688 Z M 5.730469 157.929688 C 5.117188 157.945312 4.628906 158.117188 4.253906 158.445312 C 3.890625 158.785156 3.703125 159.234375 3.703125 159.785156 C 3.703125 160.414062 3.890625 160.914062 4.242188 161.289062 C 4.589844 161.664062 5.09375 161.890625 5.730469 161.941406 Z M 5.730469 157.929688 "/>
<path style=" stroke:none;fill-rule:nonzero;fill:rgb(0%,0%,0%);fill-opacity:1;" d="M 0.96875 153.84375 L 2.914062 153.84375 L 2.914062 151.523438 L 3.789062 151.523438 L 3.789062 153.84375 L 7.511719 153.84375 C 8.074219 153.84375 8.4375 153.769531 8.589844 153.617188 C 8.75 153.46875 8.828125 153.15625 8.828125 152.679688 L 8.828125 151.523438 L 9.765625 151.523438 L 9.765625 152.679688 C 9.765625 153.554688 9.605469 154.15625 9.277344 154.484375 C 8.953125 154.808594 8.363281 154.972656 7.511719 154.972656 L 3.789062 154.972656 L 3.789062 155.800781 L 2.914062 155.800781 L 2.914062 154.972656 L 0.96875 154.972656 Z M 0.96875 153.84375 "/>
<path style=" stroke:none;fill-rule:nonzero;fill:rgb(0%,0%,0%);fill-opacity:1;" d="M 10.394531 147.1875 C 11.195312 147.515625 11.734375 147.828125 11.984375 148.128906 C 12.234375 148.429688 12.359375 148.832031 12.359375 149.332031 L 12.359375 150.234375 L 11.421875 150.234375 L 11.421875 149.570312 C 11.421875 149.269531 11.347656 149.03125 11.195312 148.855469 C 11.046875 148.679688 10.707031 148.492188 10.15625 148.277344 L 9.652344 148.078125 L 2.914062 150.847656 L 2.914062 149.65625 L 8.277344 147.515625 L 2.914062 145.371094 L 2.914062 144.179688 Z M 10.394531 147.1875 "/>
<path style=" stroke:none;fill-rule:nonzero;fill:rgb(0%,0%,0%);fill-opacity:1;" d="M 6.320312 135.519531 C 6.320312 136.4375 6.433594 137.0625 6.632812 137.414062 C 6.847656 137.765625 7.199219 137.941406 7.699219 137.941406 C 8.101562 137.941406 8.425781 137.816406 8.652344 137.550781 C 8.890625 137.289062 9.003906 136.925781 9.003906 136.472656 C 9.003906 135.847656 8.789062 135.34375 8.339844 134.96875 C 7.898438 134.59375 7.3125 134.40625 6.570312 134.40625 L 6.320312 134.40625 Z M 5.855469 133.277344 L 9.765625 133.277344 L 9.765625 134.40625 L 8.726562 134.40625 C 9.152344 134.667969 9.453125 134.996094 9.640625 135.371094 C 9.828125 135.746094 9.929688 136.222656 9.929688 136.773438 C 9.929688 137.476562 9.742188 138.039062 9.351562 138.453125 C 8.964844 138.867188 8.4375 139.066406 7.773438 139.066406 C 7.011719 139.066406 6.433594 138.816406 6.03125 138.289062 C 5.644531 137.777344 5.445312 137.011719 5.445312 135.984375 L 5.445312 134.40625 L 5.332031 134.40625 C 4.816406 134.40625 4.417969 134.582031 4.128906 134.917969 C 3.851562 135.257812 3.703125 135.734375 3.703125 136.347656 C 3.703125 136.75 3.75 137.125 3.851562 137.5 C 3.953125 137.878906 4.089844 138.226562 4.265625 138.566406 L 3.226562 138.566406 C 3.074219 138.164062 2.949219 137.765625 2.875 137.375 C 2.800781 136.988281 2.75 136.613281 2.75 136.234375 C 2.75 135.246094 3.011719 134.507812 3.527344 134.015625 C 4.039062 133.527344 4.816406 133.277344 5.855469 133.277344 Z M 5.855469 133.277344 "/>
<path style=" stroke:none;fill-rule:nonzero;fill:rgb(0%,0%,0%);fill-opacity:1;" d="M 3.964844 126.984375 C 3.890625 127.109375 3.839844 127.246094 3.800781 127.398438 C 3.777344 127.546875 3.75 127.710938 3.75 127.886719 C 3.75 128.527344 3.964844 129.015625 4.378906 129.351562 C 4.792969 129.703125 5.382812 129.867188 6.15625 129.867188 L 9.765625 129.867188 L 9.765625 130.996094 L 2.914062 130.996094 L 2.914062 129.867188 L 3.976562 129.867188 C 3.5625 129.640625 3.25 129.328125 3.050781 128.953125 C 2.851562 128.578125 2.75 128.113281 2.75 127.5625 C 2.75 127.484375 2.761719 127.398438 2.761719 127.296875 C 2.773438 127.210938 2.785156 127.109375 2.8125 126.984375 Z M 3.964844 126.984375 "/>
<path style=" stroke:none;fill-rule:nonzero;fill:rgb(0%,0%,0%);fill-opacity:1;" d="M 6.058594 120.214844 L 6.609375 120.214844 L 6.609375 125.390625 C 7.386719 125.339844 7.988281 125.117188 8.386719 124.691406 C 8.789062 124.277344 8.988281 123.699219 8.988281 122.949219 C 8.988281 122.519531 8.941406 122.09375 8.839844 121.695312 C 8.738281 121.292969 8.578125 120.878906 8.351562 120.476562 L 9.417969 120.476562 C 9.589844 120.878906 9.730469 121.292969 9.804688 121.71875 C 9.878906 122.144531 9.929688 122.585938 9.929688 123.011719 C 9.929688 124.113281 9.617188 124.976562 8.988281 125.617188 C 8.363281 126.257812 7.5 126.570312 6.410156 126.570312 C 5.292969 126.570312 4.402344 126.269531 3.738281 125.667969 C 3.085938 125.066406 2.75 124.238281 2.75 123.210938 C 2.75 122.285156 3.050781 121.554688 3.640625 121.015625 C 4.242188 120.492188 5.042969 120.214844 6.058594 120.214844 Z M 5.730469 121.34375 C 5.117188 121.355469 4.628906 121.53125 4.253906 121.855469 C 3.890625 122.195312 3.703125 122.648438 3.703125 123.199219 C 3.703125 123.824219 3.890625 124.328125 4.242188 124.703125 C 4.589844 125.078125 5.09375 125.304688 5.730469 125.355469 Z M 5.730469 121.34375 "/>
<path style=" stroke:none;fill-rule:nonzero;fill:rgb(0%,0%,0%);fill-opacity:1;" d="M 6.320312 115.25 C 6.320312 116.167969 6.433594 116.792969 6.632812 117.144531 C 6.847656 117.496094 7.199219 117.671875 7.699219 117.671875 C 8.101562 117.671875 8.425781 117.546875 8.652344 117.28125 C 8.890625 117.019531 9.003906 116.65625 9.003906 116.203125 C 9.003906 115.578125 8.789062 115.078125 8.339844 114.699219 C 7.898438 114.324219 7.3125 114.136719 6.570312 114.136719 L 6.320312 114.136719 Z M 5.855469 113.007812 L 9.765625 113.007812 L 9.765625 114.136719 L 8.726562 114.136719 C 9.152344 114.398438 9.453125 114.726562 9.640625 115.101562 C 9.828125 115.476562 9.929688 115.953125 9.929688 116.503906 C 9.929688 117.207031 9.742188 117.769531 9.351562 118.183594 C 8.964844 118.597656 8.4375 118.800781 7.773438 118.800781 C 7.011719 118.800781 6.433594 118.546875 6.03125 118.023438 C 5.644531 117.507812 5.445312 116.742188 5.445312 115.714844 L 5.445312 114.136719 L 5.332031 114.136719 C 4.816406 114.136719 4.417969 114.3125 4.128906 114.648438 C 3.851562 114.988281 3.703125 115.464844 3.703125 116.078125 C 3.703125 116.480469 3.75 116.855469 3.851562 117.230469 C 3.953125 117.609375 4.089844 117.960938 4.265625 118.296875 L 3.226562 118.296875 C 3.074219 117.894531 2.949219 117.496094 2.875 117.105469 C 2.800781 116.71875 2.75 116.34375 2.75 115.964844 C 2.75 114.976562 3.011719 114.238281 3.527344 113.746094 C 4.039062 113.257812 4.816406 113.007812 5.855469 113.007812 Z M 5.855469 113.007812 "/>
<path style="fill:none;stroke-width:1.5;stroke-linecap:square;stroke-linejoin:round;stroke:rgb(100%,0%,0%);stroke-opacity:1;stroke-miterlimit:4;" d="M 63.609328 134.399056 L 305.528016 134.399056 " transform="matrix(1.253133,0,0,1.253351,0,0.000000000000028498)"/>
<path style="fill:none;stroke-width:0.8;stroke-linecap:square;stroke-linejoin:miter;stroke:rgb(0%,0%,0%);stroke-opacity:1;stroke-miterlimit:10;" d="M 51.511523 267.454838 L 51.511523 1.343274 M 317.62582 267.454838 L 317.62582 1.343274 M 51.511523 267.454838 L 317.62582 267.454838 M 51.511523 1.343274 L 317.62582 1.343274 " transform="matrix(1.253133,0,0,1.253351,0,0.000000000000028498)"/>
<path style="fill-rule:nonzero;fill:rgb(100%,100%,100%);fill-opacity:0.8;stroke-width:1;stroke-linecap:butt;stroke-linejoin:miter;stroke:rgb(83.529412%,83.921569%,83.529412%);stroke-opacity:0.8;stroke-miterlimit:10;" d="M 105.092859 24.016862 L 310.624617 24.016862 C 311.958773 24.016862 312.622734 23.3499 312.622734 22.015976 L 312.622734 8.343257 C 312.622734 7.01245 311.958773 6.345488 310.624617 6.345488 L 105.092859 6.345488 C 103.758703 6.345488 103.094742 7.01245 103.094742 8.343257 L 103.094742 22.015976 C 103.094742 23.3499 103.758703 24.016862 105.092859 24.016862 Z M 105.092859 24.016862 " transform="matrix(1.253133,0,0,1.253351,0,0.000000000000028498)"/>
<path style="fill:none;stroke-width:1.5;stroke-linecap:square;stroke-linejoin:round;stroke:rgb(100%,0%,0%);stroke-opacity:1;stroke-miterlimit:4;" d="M 107.094094 14.439413 L 127.093969 14.439413 " transform="matrix(1.253133,0,0,1.253351,0,0.000000000000028498)"/>
<path style=" stroke:none;fill-rule:nonzero;fill:rgb(0%,0%,0%);fill-opacity:1;" d="M 177.359375 14.046875 L 177.359375 15.351562 C 176.933594 14.976562 176.496094 14.6875 176.019531 14.484375 C 175.542969 14.296875 175.054688 14.199219 174.527344 14.199219 C 173.476562 14.199219 172.671875 14.523438 172.121094 15.164062 C 171.570312 15.800781 171.292969 16.71875 171.292969 17.921875 C 171.292969 19.125 171.570312 20.050781 172.121094 20.691406 C 172.671875 21.328125 173.476562 21.644531 174.527344 21.644531 C 175.054688 21.644531 175.542969 21.554688 176.019531 21.355469 C 176.496094 21.167969 176.933594 20.878906 177.359375 20.488281 L 177.359375 21.78125 C 176.921875 22.082031 176.457031 22.292969 175.980469 22.433594 C 175.503906 22.570312 174.992188 22.644531 174.453125 22.644531 C 173.074219 22.644531 171.984375 22.230469 171.183594 21.390625 C 170.378906 20.550781 169.992188 19.398438 169.992188 17.921875 C 169.992188 16.453125 170.378906 15.300781 171.183594 14.449219 C 171.984375 13.609375 173.074219 13.183594 174.453125 13.183594 C 175.003906 13.183594 175.515625 13.257812 175.992188 13.394531 C 176.46875 13.546875 176.933594 13.757812 177.359375 14.046875 Z M 177.359375 14.046875 "/>
<path style=" stroke:none;fill-rule:nonzero;fill:rgb(0%,0%,0%);fill-opacity:1;" d="M 181.871094 16.417969 C 181.269531 16.417969 180.792969 16.65625 180.441406 17.128906 C 180.089844 17.605469 179.917969 18.246094 179.917969 19.0625 C 179.917969 19.886719 180.078125 20.527344 180.429688 21.003906 C 180.78125 21.480469 181.257812 21.707031 181.871094 21.707031 C 182.472656 21.707031 182.949219 21.480469 183.300781 21.003906 C 183.648438 20.527344 183.824219 19.886719 183.824219 19.0625 C 183.824219 18.257812 183.648438 17.605469 183.300781 17.128906 C 182.949219 16.65625 182.472656 16.417969 181.871094 16.417969 Z M 181.871094 15.464844 C 182.847656 15.464844 183.613281 15.789062 184.175781 16.417969 C 184.726562 17.054688 185.015625 17.933594 185.015625 19.0625 C 185.015625 20.1875 184.726562 21.066406 184.175781 21.691406 C 183.613281 22.332031 182.847656 22.644531 181.871094 22.644531 C 180.882812 22.644531 180.105469 22.332031 179.550781 21.691406 C 179 21.066406 178.726562 20.1875 178.726562 19.0625 C 178.726562 17.933594 179 17.054688 179.550781 16.417969 C 180.105469 15.789062 180.882812 15.464844 181.871094 15.464844 Z M 181.871094 15.464844 "/>
<path style=" stroke:none;fill-rule:nonzero;fill:rgb(0%,0%,0%);fill-opacity:1;" d="M 186.882812 12.957031 L 188.011719 12.957031 L 188.011719 22.484375 L 186.882812 22.484375 Z M 186.882812 12.957031 "/>
<path style=" stroke:none;fill-rule:nonzero;fill:rgb(0%,0%,0%);fill-opacity:1;" d="M 190.367188 12.957031 L 191.496094 12.957031 L 191.496094 22.484375 L 190.367188 22.484375 Z M 190.367188 12.957031 "/>
<path style=" stroke:none;fill-rule:nonzero;fill:rgb(0%,0%,0%);fill-opacity:1;" d="M 193.851562 15.625 L 194.980469 15.625 L 194.980469 22.484375 L 193.851562 22.484375 Z M 193.851562 12.957031 L 194.980469 12.957031 L 194.980469 14.386719 L 193.851562 14.386719 Z M 193.851562 12.957031 "/>
<path style=" stroke:none;fill-rule:nonzero;fill:rgb(0%,0%,0%);fill-opacity:1;" d="M 201.707031 15.828125 L 201.707031 16.894531 C 201.382812 16.742188 201.054688 16.617188 200.71875 16.527344 C 200.367188 16.453125 200.015625 16.402344 199.652344 16.402344 C 199.089844 16.402344 198.664062 16.492188 198.386719 16.667969 C 198.113281 16.84375 197.972656 17.09375 197.972656 17.429688 C 197.972656 17.695312 198.074219 17.894531 198.273438 18.046875 C 198.476562 18.195312 198.875 18.347656 199.476562 18.472656 L 199.867188 18.558594 C 200.667969 18.734375 201.230469 18.984375 201.570312 19.285156 C 201.894531 19.601562 202.070312 20.039062 202.070312 20.589844 C 202.070312 21.230469 201.820312 21.730469 201.320312 22.09375 C 200.816406 22.46875 200.117188 22.644531 199.238281 22.644531 C 198.863281 22.644531 198.488281 22.609375 198.085938 22.546875 C 197.683594 22.484375 197.273438 22.382812 196.832031 22.230469 L 196.832031 21.066406 C 197.246094 21.292969 197.660156 21.453125 198.0625 21.554688 C 198.460938 21.667969 198.863281 21.71875 199.265625 21.71875 C 199.789062 21.71875 200.203125 21.628906 200.492188 21.453125 C 200.769531 21.28125 200.917969 21.015625 200.917969 20.679688 C 200.917969 20.378906 200.804688 20.140625 200.605469 19.976562 C 200.40625 19.8125 199.953125 19.648438 199.25 19.5 L 198.863281 19.410156 C 198.160156 19.261719 197.648438 19.035156 197.347656 18.734375 C 197.035156 18.433594 196.882812 18.019531 196.882812 17.480469 C 196.882812 16.84375 197.109375 16.339844 197.558594 15.992188 C 198.011719 15.640625 198.664062 15.464844 199.515625 15.464844 C 199.929688 15.464844 200.316406 15.5 200.691406 15.5625 C 201.054688 15.625 201.394531 15.714844 201.707031 15.828125 Z M 201.707031 15.828125 "/>
<path style=" stroke:none;fill-rule:nonzero;fill:rgb(0%,0%,0%);fill-opacity:1;" d="M 203.863281 15.625 L 204.992188 15.625 L 204.992188 22.484375 L 203.863281 22.484375 Z M 203.863281 12.957031 L 204.992188 12.957031 L 204.992188 14.386719 L 203.863281 14.386719 Z M 203.863281 12.957031 "/>
<path style=" stroke:none;fill-rule:nonzero;fill:rgb(0%,0%,0%);fill-opacity:1;" d="M 210.003906 16.417969 C 209.402344 16.417969 208.925781 16.65625 208.574219 17.128906 C 208.222656 17.605469 208.050781 18.246094 208.050781 19.0625 C 208.050781 19.886719 208.210938 20.527344 208.5625 21.003906 C 208.914062 21.480469 209.390625 21.707031 210.003906 21.707031 C 210.605469 21.707031 211.082031 21.480469 211.433594 21.003906 C 211.785156 20.527344 211.957031 19.886719 211.957031 19.0625 C 211.957031 18.257812 211.785156 17.605469 211.433594 17.128906 C 211.082031 16.65625 210.605469 16.417969 210.003906 16.417969 Z M 210.003906 15.464844 C 210.980469 15.464844 211.746094 15.789062 212.308594 16.417969 C 212.859375 17.054688 213.148438 17.933594 213.148438 19.0625 C 213.148438 20.1875 212.859375 21.066406 212.308594 21.691406 C 211.746094 22.332031 210.980469 22.644531 210.003906 22.644531 C 209.015625 22.644531 208.238281 22.332031 207.683594 21.691406 C 207.132812 21.066406 206.859375 20.1875 206.859375 19.0625 C 206.859375 17.933594 207.132812 17.054688 207.683594 16.417969 C 208.238281 15.789062 209.015625 15.464844 210.003906 15.464844 Z M 210.003906 15.464844 "/>
<path style=" stroke:none;fill-rule:nonzero;fill:rgb(0%,0%,0%);fill-opacity:1;" d="M 220.71875 18.347656 L 220.71875 22.484375 L 219.589844 22.484375 L 219.589844 18.382812 C 219.589844 17.730469 219.453125 17.257812 219.203125 16.929688 C 218.949219 16.605469 218.574219 16.441406 218.074219 16.441406 C 217.460938 16.441406 216.984375 16.640625 216.632812 17.03125 C 216.28125 17.417969 216.105469 17.945312 216.105469 18.609375 L 216.105469 22.484375 L 214.980469 22.484375 L 214.980469 15.625 L 216.105469 15.625 L 216.105469 16.691406 C 216.371094 16.292969 216.683594 15.976562 217.058594 15.777344 C 217.421875 15.578125 217.847656 15.464844 218.324219 15.464844 C 219.101562 15.464844 219.703125 15.714844 220.105469 16.203125 C 220.503906 16.691406 220.71875 17.40625 220.71875 18.347656 Z M 220.71875 18.347656 "/>
<path style=" stroke:none;fill-rule:nonzero;fill:rgb(0%,0%,0%);fill-opacity:1;" d="M 231.882812 15.890625 L 231.882812 16.941406 C 231.558594 16.765625 231.246094 16.640625 230.917969 16.554688 C 230.59375 16.464844 230.28125 16.417969 229.953125 16.417969 C 229.226562 16.417969 228.648438 16.65625 228.25 17.117188 C 227.847656 17.582031 227.648438 18.234375 227.648438 19.0625 C 227.648438 19.902344 227.847656 20.550781 228.25 21.015625 C 228.648438 21.480469 229.226562 21.707031 229.953125 21.707031 C 230.28125 21.707031 230.59375 21.667969 230.917969 21.582031 C 231.246094 21.492188 231.558594 21.355469 231.882812 21.179688 L 231.882812 22.21875 C 231.558594 22.371094 231.230469 22.484375 230.90625 22.546875 C 230.566406 22.609375 230.203125 22.644531 229.828125 22.644531 C 228.800781 22.644531 227.972656 22.332031 227.371094 21.679688 C 226.757812 21.042969 226.457031 20.164062 226.457031 19.0625 C 226.457031 17.945312 226.757812 17.066406 227.371094 16.429688 C 227.984375 15.789062 228.824219 15.464844 229.902344 15.464844 C 230.253906 15.464844 230.59375 15.5 230.917969 15.578125 C 231.246094 15.652344 231.570312 15.753906 231.882812 15.890625 Z M 231.882812 15.890625 "/>
<path style=" stroke:none;fill-rule:nonzero;fill:rgb(0%,0%,0%);fill-opacity:1;" d="M 239.539062 18.347656 L 239.539062 22.484375 L 238.414062 22.484375 L 238.414062 18.382812 C 238.414062 17.730469 238.273438 17.257812 238.023438 16.929688 C 237.773438 16.605469 237.398438 16.441406 236.894531 16.441406 C 236.28125 16.441406 235.804688 16.640625 235.453125 17.03125 C 235.105469 17.417969 234.929688 17.945312 234.929688 18.609375 L 234.929688 22.484375 L 233.800781 22.484375 L 233.800781 12.957031 L 234.929688 12.957031 L 234.929688 16.691406 C 235.191406 16.292969 235.503906 15.976562 235.882812 15.777344 C 236.246094 15.578125 236.671875 15.464844 237.148438 15.464844 C 237.921875 15.464844 238.523438 15.714844 238.925781 16.203125 C 239.328125 16.691406 239.539062 17.40625 239.539062 18.347656 Z M 239.539062 18.347656 "/>
<path style=" stroke:none;fill-rule:nonzero;fill:rgb(0%,0%,0%);fill-opacity:1;" d="M 247.648438 18.773438 L 247.648438 19.324219 L 242.472656 19.324219 C 242.523438 20.101562 242.75 20.703125 243.175781 21.105469 C 243.585938 21.503906 244.164062 21.707031 244.917969 21.707031 C 245.34375 21.707031 245.769531 21.65625 246.167969 21.554688 C 246.570312 21.453125 246.984375 21.292969 247.382812 21.066406 L 247.382812 22.132812 C 246.984375 22.308594 246.570312 22.445312 246.144531 22.519531 C 245.71875 22.59375 245.28125 22.644531 244.851562 22.644531 C 243.75 22.644531 242.886719 22.332031 242.246094 21.707031 C 241.609375 21.078125 241.292969 20.214844 241.292969 19.125 C 241.292969 18.007812 241.59375 17.117188 242.195312 16.453125 C 242.796875 15.800781 243.625 15.464844 244.652344 15.464844 C 245.582031 15.464844 246.308594 15.765625 246.847656 16.355469 C 247.371094 16.957031 247.648438 17.757812 247.648438 18.773438 Z M 246.519531 18.445312 C 246.507812 17.832031 246.332031 17.34375 246.007812 16.96875 C 245.667969 16.605469 245.214844 16.417969 244.664062 16.417969 C 244.039062 16.417969 243.539062 16.605469 243.160156 16.957031 C 242.785156 17.304688 242.558594 17.808594 242.511719 18.445312 Z M 246.519531 18.445312 "/>
<path style=" stroke:none;fill-rule:nonzero;fill:rgb(0%,0%,0%);fill-opacity:1;" d="M 254.425781 15.890625 L 254.425781 16.941406 C 254.101562 16.765625 253.789062 16.640625 253.460938 16.554688 C 253.136719 16.464844 252.824219 16.417969 252.496094 16.417969 C 251.769531 16.417969 251.195312 16.65625 250.792969 17.117188 C 250.390625 17.582031 250.191406 18.234375 250.191406 19.0625 C 250.191406 19.902344 250.390625 20.550781 250.792969 21.015625 C 251.195312 21.480469 251.769531 21.707031 252.496094 21.707031 C 252.824219 21.707031 253.136719 21.667969 253.460938 21.582031 C 253.789062 21.492188 254.101562 21.355469 254.425781 21.179688 L 254.425781 22.21875 C 254.101562 22.371094 253.777344 22.484375 253.449219 22.546875 C 253.113281 22.609375 252.75 22.644531 252.371094 22.644531 C 251.34375 22.644531 250.515625 22.332031 249.917969 21.679688 C 249.300781 21.042969 249 20.164062 249 19.0625 C 249 17.945312 249.300781 17.066406 249.917969 16.429688 C 250.53125 15.789062 251.371094 15.464844 252.449219 15.464844 C 252.796875 15.464844 253.136719 15.5 253.460938 15.578125 C 253.789062 15.652344 254.113281 15.753906 254.425781 15.890625 Z M 254.425781 15.890625 "/>
<path style=" stroke:none;fill-rule:nonzero;fill:rgb(0%,0%,0%);fill-opacity:1;" d="M 256.34375 12.957031 L 257.472656 12.957031 L 257.472656 18.585938 L 260.832031 15.625 L 262.273438 15.625 L 258.636719 18.835938 L 262.421875 22.484375 L 260.957031 22.484375 L 257.472656 19.136719 L 257.472656 22.484375 L 256.34375 22.484375 Z M 256.34375 12.957031 "/>
<path style=" stroke:none;fill-rule:nonzero;fill:rgb(0%,0%,0%);fill-opacity:1;" d="M 266.972656 15.625 L 268.097656 15.625 L 269.503906 20.980469 L 270.90625 15.625 L 272.234375 15.625 L 273.636719 20.980469 L 275.042969 15.625 L 276.167969 15.625 L 274.378906 22.484375 L 273.050781 22.484375 L 271.570312 16.867188 L 270.089844 22.484375 L 268.761719 22.484375 Z M 266.972656 15.625 "/>
<path style=" stroke:none;fill-rule:nonzero;fill:rgb(0%,0%,0%);fill-opacity:1;" d="M 277.875 15.625 L 279 15.625 L 279 22.484375 L 277.875 22.484375 Z M 277.875 12.957031 L 279 12.957031 L 279 14.386719 L 277.875 14.386719 Z M 277.875 12.957031 "/>
<path style=" stroke:none;fill-rule:nonzero;fill:rgb(0%,0%,0%);fill-opacity:1;" d="M 282.472656 13.683594 L 282.472656 15.625 L 284.789062 15.625 L 284.789062 16.503906 L 282.472656 16.503906 L 282.472656 20.226562 C 282.472656 20.789062 282.546875 21.152344 282.699219 21.304688 C 282.847656 21.46875 283.160156 21.542969 283.636719 21.542969 L 284.789062 21.542969 L 284.789062 22.484375 L 283.636719 22.484375 C 282.761719 22.484375 282.160156 22.320312 281.832031 21.992188 C 281.507812 21.667969 281.34375 21.078125 281.34375 20.226562 L 281.34375 16.503906 L 280.515625 16.503906 L 280.515625 15.625 L 281.34375 15.625 L 281.34375 13.683594 Z M 282.472656 13.683594 "/>
<path style=" stroke:none;fill-rule:nonzero;fill:rgb(0%,0%,0%);fill-opacity:1;" d="M 291.972656 18.347656 L 291.972656 22.484375 L 290.84375 22.484375 L 290.84375 18.382812 C 290.84375 17.730469 290.707031 17.257812 290.453125 16.929688 C 290.203125 16.605469 289.828125 16.441406 289.328125 16.441406 C 288.714844 16.441406 288.238281 16.640625 287.886719 17.03125 C 287.535156 17.417969 287.359375 17.945312 287.359375 18.609375 L 287.359375 22.484375 L 286.230469 22.484375 L 286.230469 12.957031 L 287.359375 12.957031 L 287.359375 16.691406 C 287.621094 16.292969 287.9375 15.976562 288.3125 15.777344 C 288.675781 15.578125 289.101562 15.464844 289.578125 15.464844 C 290.355469 15.464844 290.957031 15.714844 291.355469 16.203125 C 291.757812 16.691406 291.972656 17.40625 291.972656 18.347656 Z M 291.972656 18.347656 "/>
<path style=" stroke:none;fill-rule:nonzero;fill:rgb(0%,0%,0%);fill-opacity:1;" d="M 302.574219 15.828125 L 302.574219 16.894531 C 302.246094 16.742188 301.921875 16.617188 301.582031 16.527344 C 301.230469 16.453125 300.882812 16.402344 300.515625 16.402344 C 299.953125 16.402344 299.527344 16.492188 299.25 16.667969 C 298.976562 16.84375 298.839844 17.09375 298.839844 17.429688 C 298.839844 17.695312 298.9375 17.894531 299.140625 18.046875 C 299.339844 18.195312 299.742188 18.347656 300.34375 18.472656 L 300.730469 18.558594 C 301.53125 18.734375 302.097656 18.984375 302.433594 19.285156 C 302.761719 19.601562 302.9375 20.039062 302.9375 20.589844 C 302.9375 21.230469 302.683594 21.730469 302.183594 22.09375 C 301.683594 22.46875 300.980469 22.644531 300.105469 22.644531 C 299.726562 22.644531 299.351562 22.609375 298.949219 22.546875 C 298.550781 22.484375 298.136719 22.382812 297.699219 22.230469 L 297.699219 21.066406 C 298.113281 21.292969 298.523438 21.453125 298.925781 21.554688 C 299.328125 21.667969 299.726562 21.71875 300.128906 21.71875 C 300.65625 21.71875 301.070312 21.628906 301.355469 21.453125 C 301.632812 21.28125 301.785156 21.015625 301.785156 20.679688 C 301.785156 20.378906 301.671875 20.140625 301.46875 19.976562 C 301.269531 19.8125 300.816406 19.648438 300.117188 19.5 L 299.726562 19.410156 C 299.027344 19.261719 298.511719 19.035156 298.210938 18.734375 C 297.898438 18.433594 297.75 18.019531 297.75 17.480469 C 297.75 16.84375 297.972656 16.339844 298.425781 15.992188 C 298.875 15.640625 299.527344 15.464844 300.378906 15.464844 C 300.792969 15.464844 301.183594 15.5 301.558594 15.5625 C 301.921875 15.625 302.257812 15.714844 302.574219 15.828125 Z M 302.574219 15.828125 "/>
<path style=" stroke:none;fill-rule:nonzero;fill:rgb(0%,0%,0%);fill-opacity:1;" d="M 307.847656 19.035156 C 306.933594 19.035156 306.308594 19.148438 305.957031 19.347656 C 305.605469 19.5625 305.429688 19.914062 305.429688 20.414062 C 305.429688 20.816406 305.554688 21.140625 305.816406 21.367188 C 306.082031 21.605469 306.445312 21.71875 306.894531 21.71875 C 307.523438 21.71875 308.023438 21.503906 308.398438 21.054688 C 308.777344 20.613281 308.964844 20.027344 308.964844 19.285156 L 308.964844 19.035156 Z M 310.089844 18.570312 L 310.089844 22.484375 L 308.964844 22.484375 L 308.964844 21.441406 C 308.699219 21.867188 308.375 22.167969 308 22.355469 C 307.621094 22.546875 307.148438 22.644531 306.59375 22.644531 C 305.894531 22.644531 305.328125 22.457031 304.917969 22.070312 C 304.503906 21.679688 304.300781 21.152344 304.300781 20.488281 C 304.300781 19.726562 304.550781 19.148438 305.078125 18.746094 C 305.59375 18.359375 306.355469 18.160156 307.382812 18.160156 L 308.964844 18.160156 L 308.964844 18.046875 C 308.964844 17.53125 308.789062 17.128906 308.449219 16.84375 C 308.113281 16.566406 307.636719 16.417969 307.019531 16.417969 C 306.621094 16.417969 306.246094 16.464844 305.867188 16.566406 C 305.492188 16.667969 305.140625 16.804688 304.804688 16.980469 L 304.804688 15.941406 C 305.203125 15.789062 305.605469 15.664062 305.992188 15.589844 C 306.382812 15.515625 306.757812 15.464844 307.132812 15.464844 C 308.125 15.464844 308.863281 15.726562 309.351562 16.242188 C 309.839844 16.753906 310.089844 17.53125 310.089844 18.570312 Z M 310.089844 18.570312 "/>
<path style=" stroke:none;fill-rule:nonzero;fill:rgb(0%,0%,0%);fill-opacity:1;" d="M 315.882812 12.957031 L 315.882812 13.898438 L 314.804688 13.898438 C 314.402344 13.898438 314.113281 13.984375 313.964844 14.148438 C 313.800781 14.3125 313.726562 14.597656 313.726562 15.023438 L 313.726562 15.625 L 315.582031 15.625 L 315.582031 16.503906 L 313.726562 16.503906 L 313.726562 22.484375 L 312.597656 22.484375 L 312.597656 16.503906 L 311.519531 16.503906 L 311.519531 15.625 L 312.597656 15.625 L 312.597656 15.152344 C 312.597656 14.398438 312.773438 13.835938 313.125 13.484375 C 313.476562 13.132812 314.039062 12.957031 314.816406 12.957031 Z M 315.882812 12.957031 "/>
<path style=" stroke:none;fill-rule:nonzero;fill:rgb(0%,0%,0%);fill-opacity:1;" d="M 322.683594 18.773438 L 322.683594 19.324219 L 317.511719 19.324219 C 317.558594 20.101562 317.785156 20.703125 318.210938 21.105469 C 318.625 21.503906 319.203125 21.707031 319.953125 21.707031 C 320.378906 21.707031 320.804688 21.65625 321.207031 21.554688 C 321.609375 21.453125 322.019531 21.292969 322.421875 21.066406 L 322.421875 22.132812 C 322.019531 22.308594 321.609375 22.445312 321.183594 22.519531 C 320.753906 22.59375 320.316406 22.644531 319.890625 22.644531 C 318.789062 22.644531 317.921875 22.332031 317.285156 21.707031 C 316.644531 21.078125 316.332031 20.214844 316.332031 19.125 C 316.332031 18.007812 316.632812 17.117188 317.234375 16.453125 C 317.835938 15.800781 318.664062 15.464844 319.691406 15.464844 C 320.617188 15.464844 321.34375 15.765625 321.882812 16.355469 C 322.410156 16.957031 322.683594 17.757812 322.683594 18.773438 Z M 321.558594 18.445312 C 321.546875 17.832031 321.371094 17.34375 321.042969 16.96875 C 320.707031 16.605469 320.253906 16.417969 319.703125 16.417969 C 319.078125 16.417969 318.574219 16.605469 318.199219 16.957031 C 317.824219 17.304688 317.597656 17.808594 317.546875 18.445312 Z M 321.558594 18.445312 "/>
<path style=" stroke:none;fill-rule:nonzero;fill:rgb(0%,0%,0%);fill-opacity:1;" d="M 325.644531 13.683594 L 325.644531 15.625 L 327.960938 15.625 L 327.960938 16.503906 L 325.644531 16.503906 L 325.644531 20.226562 C 325.644531 20.789062 325.71875 21.152344 325.867188 21.304688 C 326.019531 21.46875 326.332031 21.542969 326.808594 21.542969 L 327.960938 21.542969 L 327.960938 22.484375 L 326.808594 22.484375 C 325.929688 22.484375 325.328125 22.320312 325.003906 21.992188 C 324.679688 21.667969 324.515625 21.078125 324.515625 20.226562 L 324.515625 16.503906 L 323.6875 16.503906 L 323.6875 15.625 L 324.515625 15.625 L 324.515625 13.683594 Z M 325.644531 13.683594 "/>
<path style=" stroke:none;fill-rule:nonzero;fill:rgb(0%,0%,0%);fill-opacity:1;" d="M 332.296875 23.109375 C 331.972656 23.910156 331.65625 24.449219 331.355469 24.699219 C 331.054688 24.953125 330.65625 25.078125 330.152344 25.078125 L 329.25 25.078125 L 329.25 24.136719 L 329.917969 24.136719 C 330.214844 24.136719 330.453125 24.0625 330.628906 23.910156 C 330.804688 23.761719 330.992188 23.421875 331.207031 22.871094 L 331.40625 22.371094 L 328.636719 15.625 L 329.828125 15.625 L 331.972656 20.992188 L 334.113281 15.625 L 335.304688 15.625 Z M 332.296875 23.109375 "/>
<path style=" stroke:none;fill-rule:nonzero;fill:rgb(0%,0%,0%);fill-opacity:1;" d="M 345.355469 16.667969 L 345.355469 12.957031 L 346.484375 12.957031 L 346.484375 22.484375 L 345.355469 22.484375 L 345.355469 21.453125 C 345.117188 21.867188 344.816406 22.167969 344.453125 22.355469 C 344.089844 22.546875 343.664062 22.644531 343.160156 22.644531 C 342.335938 22.644531 341.65625 22.320312 341.132812 21.667969 C 340.605469 21.015625 340.355469 20.140625 340.355469 19.0625 C 340.355469 17.984375 340.605469 17.117188 341.132812 16.453125 C 341.65625 15.800781 342.335938 15.464844 343.160156 15.464844 C 343.664062 15.464844 344.089844 15.5625 344.453125 15.765625 C 344.816406 15.964844 345.117188 16.265625 345.355469 16.667969 Z M 341.519531 19.0625 C 341.519531 19.886719 341.683594 20.539062 342.019531 21.015625 C 342.359375 21.492188 342.824219 21.71875 343.425781 21.71875 C 344.027344 21.71875 344.488281 21.492188 344.839844 21.015625 C 345.179688 20.539062 345.355469 19.886719 345.355469 19.0625 C 345.355469 18.234375 345.179688 17.59375 344.839844 17.117188 C 344.488281 16.640625 344.027344 16.402344 343.425781 16.402344 C 342.824219 16.402344 342.359375 16.640625 342.019531 17.117188 C 341.683594 17.59375 341.519531 18.234375 341.519531 19.0625 Z M 341.519531 19.0625 "/>
<path style=" stroke:none;fill-rule:nonzero;fill:rgb(0%,0%,0%);fill-opacity:1;" d="M 351.457031 16.417969 C 350.855469 16.417969 350.378906 16.65625 350.027344 17.128906 C 349.679688 17.605469 349.503906 18.246094 349.503906 19.0625 C 349.503906 19.886719 349.664062 20.527344 350.015625 21.003906 C 350.367188 21.480469 350.84375 21.707031 351.457031 21.707031 C 352.058594 21.707031 352.535156 21.480469 352.886719 21.003906 C 353.238281 20.527344 353.414062 19.886719 353.414062 19.0625 C 353.414062 18.257812 353.238281 17.605469 352.886719 17.128906 C 352.535156 16.65625 352.058594 16.417969 351.457031 16.417969 Z M 351.457031 15.464844 C 352.433594 15.464844 353.199219 15.789062 353.761719 16.417969 C 354.316406 17.054688 354.601562 17.933594 354.601562 19.0625 C 354.601562 20.1875 354.316406 21.066406 353.761719 21.691406 C 353.199219 22.332031 352.433594 22.644531 351.457031 22.644531 C 350.46875 22.644531 349.691406 22.332031 349.140625 21.691406 C 348.585938 21.066406 348.3125 20.1875 348.3125 19.0625 C 348.3125 17.933594 348.585938 17.054688 349.140625 16.417969 C 349.691406 15.789062 350.46875 15.464844 351.457031 15.464844 Z M 351.457031 15.464844 "/>
<path style=" stroke:none;fill-rule:nonzero;fill:rgb(0%,0%,0%);fill-opacity:1;" d="M 361.808594 16.941406 C 362.082031 16.441406 362.421875 16.078125 362.8125 15.828125 C 363.199219 15.589844 363.664062 15.464844 364.203125 15.464844 C 364.902344 15.464844 365.453125 15.714844 365.84375 16.214844 C 366.230469 16.71875 366.433594 17.429688 366.433594 18.347656 L 366.433594 22.484375 L 365.304688 22.484375 L 365.304688 18.382812 C 365.304688 17.730469 365.179688 17.242188 364.953125 16.917969 C 364.714844 16.605469 364.363281 16.441406 363.886719 16.441406 C 363.300781 16.441406 362.835938 16.640625 362.496094 17.03125 C 362.160156 17.417969 361.996094 17.945312 361.996094 18.609375 L 361.996094 22.484375 L 360.867188 22.484375 L 360.867188 18.382812 C 360.867188 17.730469 360.742188 17.242188 360.515625 16.917969 C 360.28125 16.605469 359.917969 16.441406 359.441406 16.441406 C 358.863281 16.441406 358.398438 16.640625 358.0625 17.03125 C 357.722656 17.417969 357.558594 17.945312 357.558594 18.609375 L 357.558594 22.484375 L 356.433594 22.484375 L 356.433594 15.625 L 357.558594 15.625 L 357.558594 16.691406 C 357.8125 16.277344 358.125 15.964844 358.488281 15.765625 C 358.839844 15.5625 359.265625 15.464844 359.765625 15.464844 C 360.265625 15.464844 360.679688 15.589844 361.03125 15.839844 C 361.382812 16.089844 361.632812 16.464844 361.808594 16.941406 Z M 361.808594 16.941406 "/>
<path style=" stroke:none;fill-rule:nonzero;fill:rgb(0%,0%,0%);fill-opacity:1;" d="M 371.796875 19.035156 C 370.882812 19.035156 370.253906 19.148438 369.902344 19.347656 C 369.550781 19.5625 369.378906 19.914062 369.378906 20.414062 C 369.378906 20.816406 369.503906 21.140625 369.765625 21.367188 C 370.027344 21.605469 370.390625 21.71875 370.84375 21.71875 C 371.46875 21.71875 371.972656 21.503906 372.347656 21.054688 C 372.722656 20.613281 372.910156 20.027344 372.910156 19.285156 L 372.910156 19.035156 Z M 374.039062 18.570312 L 374.039062 22.484375 L 372.910156 22.484375 L 372.910156 21.441406 C 372.648438 21.867188 372.320312 22.167969 371.945312 22.355469 C 371.570312 22.546875 371.09375 22.644531 370.542969 22.644531 C 369.839844 22.644531 369.277344 22.457031 368.863281 22.070312 C 368.449219 21.679688 368.25 21.152344 368.25 20.488281 C 368.25 19.726562 368.5 19.148438 369.027344 18.746094 C 369.539062 18.359375 370.304688 18.160156 371.332031 18.160156 L 372.910156 18.160156 L 372.910156 18.046875 C 372.910156 17.53125 372.734375 17.128906 372.398438 16.84375 C 372.058594 16.566406 371.582031 16.417969 370.96875 16.417969 C 370.566406 16.417969 370.191406 16.464844 369.816406 16.566406 C 369.441406 16.667969 369.089844 16.804688 368.75 16.980469 L 368.75 15.941406 C 369.152344 15.789062 369.550781 15.664062 369.941406 15.589844 C 370.328125 15.515625 370.707031 15.464844 371.082031 15.464844 C 372.070312 15.464844 372.8125 15.726562 373.300781 16.242188 C 373.789062 16.753906 374.039062 17.53125 374.039062 18.570312 Z M 374.039062 18.570312 "/>
<path style=" stroke:none;fill-rule:nonzero;fill:rgb(0%,0%,0%);fill-opacity:1;" d="M 376.355469 15.625 L 377.484375 15.625 L 377.484375 22.484375 L 376.355469 22.484375 Z M 376.355469 12.957031 L 377.484375 12.957031 L 377.484375 14.386719 L 376.355469 14.386719 Z M 376.355469 12.957031 "/>
<path style=" stroke:none;fill-rule:nonzero;fill:rgb(0%,0%,0%);fill-opacity:1;" d="M 385.542969 18.347656 L 385.542969 22.484375 L 384.414062 22.484375 L 384.414062 18.382812 C 384.414062 17.730469 384.277344 17.257812 384.027344 16.929688 C 383.777344 16.605469 383.398438 16.441406 382.898438 16.441406 C 382.285156 16.441406 381.808594 16.640625 381.457031 17.03125 C 381.105469 17.417969 380.929688 17.945312 380.929688 18.609375 L 380.929688 22.484375 L 379.804688 22.484375 L 379.804688 15.625 L 380.929688 15.625 L 380.929688 16.691406 C 381.195312 16.292969 381.507812 15.976562 381.882812 15.777344 C 382.246094 15.578125 382.671875 15.464844 383.148438 15.464844 C 383.925781 15.464844 384.527344 15.714844 384.929688 16.203125 C 385.328125 16.691406 385.542969 17.40625 385.542969 18.347656 Z M 385.542969 18.347656 "/>
</g>
</svg>
