<svg xmlns="http://www.w3.org/2000/svg" xmlns:xlink="http://www.w3.org/1999/xlink" width="308pt" height="396" viewBox="0 0 308 297"><clipPath id="a"><path transform="matrix(1 0 0 -1 -63 305)" d="M0 0h460.8v345.6H0z"/></clipPath><g clip-path="url(#a)"><path d="M-63 305h460.8V-40.6H-63z" fill="#fff"/><path d="M40.104 266.984h266.112V.872H40.104z" fill="#fff"/><path stroke-width=".8" stroke-linejoin="round" fill="none" stroke="#000" d="M50.562 266.984v3.5"/><symbol id="b"><path transform="matrix(.001 0 0 .001 -.066 .013)" d="M318 664c-51 0-89-25-115-75s-38-125-38-225 12-175 38-225 64-75 115-75 89 25 115 75c25 50 38 125 38 225s-13 175-38 225c-26 50-64 75-115 75zm0 78c81 0 143-33 187-97 43-65 65-159 65-281 0-123-22-217-65-281-44-64-106-96-188-96S173 19 130 83 66 241 66 364c0 122 21 216 64 281 43 64 106 97 188 97z"/></symbol><use xlink:href="#b" transform="matrix(10 0 0 -10 48.043 281.708)"/><path stroke-width=".8" stroke-linejoin="round" fill="none" stroke="#000" d="M100.799 266.984v3.5"/><symbol id="c"><path transform="translate(-.11) scale(.001)" d="M124 83h161v556l-175-35v90l174 35h99V83h161V0H124v83z"/></symbol><use xlink:href="#c" transform="matrix(10 0 0 -10 95.54 281.578)"/><use xlink:href="#b" transform="matrix(10 0 0 -10 101.46 281.708)"/><path stroke-width=".8" stroke-linejoin="round" fill="none" stroke="#000" d="M151.036 266.984v3.5"/><symbol id="d"><path transform="translate(-.073) scale(.001)" d="M192 83h344V0H73v83c37 38 88 90 153 156 64 65 105 107 122 126 32 35 54 65 66 90 12 24 19 49 19 73 0 38-14 70-41 94s-62 37-106 37c-31 0-64-6-98-16-34-11-71-27-110-49v100c40 16 77 28 111 36s66 12 95 12c75 0 135-19 180-57s68-88 68-151c0-30-6-59-17-85-11-27-31-59-61-95-8-10-34-37-78-82S271 164 192 83z"/></symbol><use xlink:href="#d" transform="matrix(10 0 0 -10 145.406 281.578)"/><use xlink:href="#b" transform="matrix(10 0 0 -10 151.696 281.708)"/><path stroke-width=".8" stroke-linejoin="round" fill="none" stroke="#000" d="M201.272 266.984v3.5"/><symbol id="e"><path transform="matrix(.001 0 0 .001 -.076 .013)" d="M406 393c47-10 84-31 110-63s40-72 40-118c0-72-25-128-74-167-50-39-120-58-211-58-31 0-63 3-95 9-32 5-66 14-100 26v95c27-16 57-28 90-36 32-8 66-12 102-12 62 0 109 12 141 36s49 60 49 107c0 42-15 76-45 100s-72 37-126 37h-85v81h89c48 0 85 9 111 29 26 19 39 47 39 84s-14 66-40 86c-27 20-65 30-114 30-27 0-56-3-87-9s-65-15-102-27v88c37 10 72 18 105 23 32 5 63 8 93 8 74 0 133-17 177-51s66-80 66-138c0-40-12-74-35-102s-56-48-98-58z"/></symbol><use xlink:href="#e" transform="matrix(10 0 0 -10 195.673 281.708)"/><use xlink:href="#b" transform="matrix(10 0 0 -10 201.933 281.708)"/><path stroke-width=".8" stroke-linejoin="round" fill="none" stroke="#000" d="M251.51 266.984v3.5"/><symbol id="f"><path transform="translate(-.049) scale(.001)" d="M378 643 129 254h249v389zm-26 86h124V254h104v-82H476V0h-98v172H49v95l303 462z"/></symbol><use xlink:href="#f" transform="matrix(10 0 0 -10 245.64 281.578)"/><use xlink:href="#b" transform="matrix(10 0 0 -10 252.17 281.708)"/><path stroke-width=".8" stroke-linejoin="round" fill="none" stroke="#000" d="M301.746 266.984v3.5"/><symbol id="g"><path transform="matrix(.001 0 0 .001 -.077 .013)" d="M108 729h387v-83H198V467c14 5 29 9 43 11s29 4 43 4c81 0 145-23 193-67 48-45 72-105 72-181 0-79-25-140-74-183S357-13 269-13c-31 0-62 3-94 7-32 5-64 12-98 23v99c29-16 59-28 91-36 31-8 64-11 99-11 56 0 101 14 134 44 32 30 49 70 49 121 0 50-17 90-49 120-33 30-78 45-134 45-26 0-53-3-79-9s-53-15-80-27v366z"/></symbol><use xlink:href="#g" transform="matrix(10 0 0 -10 296.157 281.708)"/><use xlink:href="#b" transform="matrix(10 0 0 -10 302.407 281.708)"/><symbol id="h"><path transform="translate(.002) scale(.001)" d="M-2 729h616v-83H355V0h-99v646H-2v83z"/></symbol><symbol id="i"><path transform="translate(-.094) scale(.001)" d="M94 547h90V0H94v547zm0 213h90V646H94v114z"/></symbol><symbol id="j"><path transform="translate(-.091) scale(.001)" d="M520 442c22 40 49 69 80 89 31 19 68 29 111 29 56 0 100-20 131-60s47-97 47-170V0h-90v327c0 52-10 91-28 117-19 25-47 38-85 38-47 0-84-16-111-47s-40-73-40-126V0h-90v327c0 52-10 91-28 117-19 25-48 38-86 38-46 0-83-16-110-47s-40-73-40-126V0H91v547h90v-85c20 33 45 58 74 74 28 16 62 24 102 24s73-10 101-30 48-50 62-88z"/></symbol><symbol id="k"><path transform="matrix(.001 0 0 .001 -.055 .013)" d="M562 296v-44H149c4-62 22-110 56-142 33-32 79-48 139-48 34 0 68 4 100 12s65 21 97 39V28c-32-14-65-25-99-31s-69-10-103-10c-88 0-157 25-208 75S55 181 55 268c0 89 24 160 72 213 48 52 114 79 196 79 74 0 132-24 175-71 42-48 64-112 64-193zm-90 26c-1 49-15 88-41 118-27 29-63 44-107 44-50 0-90-15-120-43s-48-68-52-119h320z"/></symbol><symbol id="m"><path transform="matrix(.001 0 0 .001 -.086 .131)" d="M86 760h207v-70H176V-61h117v-70H86v891z"/></symbol><symbol id="n"><path transform="matrix(.001 0 0 .001 -.054 .013)" d="M443 531v-85c-26 12-52 22-79 29-28 6-56 10-85 10-45 0-79-7-101-21s-33-34-33-61c0-21 8-37 24-49s48-24 96-34l31-7c64-14 109-34 136-58 26-25 40-60 40-104 0-51-20-91-60-120-40-30-96-44-166-44-30 0-60 3-92 8S89 8 54 20v93c33-18 66-31 98-39 32-9 64-13 96-13 42 0 75 7 98 21 22 14 34 35 34 62 0 24-9 43-25 56s-52 26-108 38l-31 7c-56 12-97 30-121 54-25 24-37 57-37 100 0 51 18 91 54 119s88 42 156 42c33 0 64-3 94-8 29-5 56-12 81-21z"/></symbol><symbol id="o"><path transform="matrix(.001 0 0 .001 -.097 .131)" d="M304 760v-891H97v70h117v751H97v70h207z"/></symbol><use xlink:href="#h" transform="matrix(10 0 0 -10 152.757 295.25)"/><use xlink:href="#i" transform="matrix(10 0 0 -10 159.53 295.25)"/><use xlink:href="#j" transform="matrix(10 0 0 -10 162.28 295.25)"/><use xlink:href="#k" transform="matrix(10 0 0 -10 171.66 295.38)"/><use xlink:href="#l" transform="matrix(10 0 0 -10 177.26 295.25)"/><use xlink:href="#m" transform="matrix(10 0 0 -10 181.3 296.56)"/><use xlink:href="#n" transform="matrix(10 0 0 -10 184.88 295.38)"/><use xlink:href="#o" transform="matrix(10 0 0 -10 190.52 296.56)"/><path stroke-width=".8" stroke-linejoin="round" fill="none" stroke="#000" d="M40.104 247.679h-3.5"/><use xlink:href="#d" transform="matrix(10 0 0 -10 21.115 251.475)"/><use xlink:href="#b" transform="matrix(10 0 0 -10 27.405 251.605)"/><path stroke-width=".8" stroke-linejoin="round" fill="none" stroke="#000" d="M40.104 209.833h-3.5"/><use xlink:href="#f" transform="matrix(10 0 0 -10 20.875 213.63)"/><use xlink:href="#b" transform="matrix(10 0 0 -10 27.405 213.76)"/><path stroke-width=".8" stroke-linejoin="round" fill="none" stroke="#000" d="M40.104 171.988h-3.5"/><symbol id="p"><path transform="matrix(.001 0 0 .001 -.07 .013)" d="M330 404c-44 0-79-16-105-46s-39-72-39-124c0-53 13-95 39-125s61-45 105-45 79 15 105 45 39 72 39 125c0 52-13 94-39 124s-61 46-105 46zm196 309v-90c-25 12-50 21-75 27-26 6-51 9-75 9-66 0-116-22-150-66s-54-111-58-199c19 28 43 50 72 65s61 23 96 23c73 0 131-23 173-67s64-105 64-181c0-75-23-135-67-180S403-13 330-13c-84 0-149 32-193 96-45 64-67 158-67 281 0 115 27 207 82 275 54 68 128 103 220 103 24 0 49-3 75-7 25-5 51-12 79-22z"/></symbol><use xlink:href="#p" transform="matrix(10 0 0 -10 21.085 175.915)"/><use xlink:href="#b" transform="matrix(10 0 0 -10 27.405 175.915)"/><path stroke-width=".8" stroke-linejoin="round" fill="none" stroke="#000" d="M40.104 134.143h-3.5"/><symbol id="q"><path transform="matrix(.001 0 0 .001 -.068 .013)" d="M318 346c-47 0-84-13-111-38s-40-59-40-103 13-79 40-104 64-37 111-37c46 0 83 12 110 38 27 25 41 59 41 103s-14 78-40 103c-27 25-64 38-111 38zm-99 42c-42 10-75 30-99 59s-35 64-35 106c0 58 20 104 62 138 41 34 98 51 171 51 72 0 129-17 171-51 41-34 62-80 62-138 0-42-12-77-36-106s-56-49-98-59c47-11 84-33 111-65 26-32 40-72 40-118 0-71-22-125-65-162-44-38-106-56-186-56S175 5 132 43c-43 37-64 91-64 162 0 46 13 86 40 118 26 32 63 54 111 65zm-36 156c0-38 11-68 35-89s57-31 100-31c42 0 75 10 99 31s36 51 36 89-12 67-36 88-57 32-99 32c-43 0-76-11-100-32s-35-50-35-88z"/></symbol><use xlink:href="#q" transform="matrix(10 0 0 -10 21.065 138.07)"/><use xlink:href="#b" transform="matrix(10 0 0 -10 27.405 138.07)"/><path stroke-width=".8" stroke-linejoin="round" fill="none" stroke="#000" d="M40.104 96.298h-3.5"/><use xlink:href="#c" transform="matrix(10 0 0 -10 15.126 100.095)"/><use xlink:href="#b" transform="matrix(10 0 0 -10 21.046 100.225)"/><use xlink:href="#b" transform="matrix(10 0 0 -10 27.406 100.225)"/><path stroke-width=".8" stroke-linejoin="round" fill="none" stroke="#000" d="M40.104 58.453h-3.5"/><use xlink:href="#c" transform="matrix(10 0 0 -10 15.126 62.25)"/><use xlink:href="#d" transform="matrix(10 0 0 -10 21.116 62.25)"/><use xlink:href="#b" transform="matrix(10 0 0 -10 27.406 62.38)"/><path stroke-width=".8" stroke-linejoin="round" fill="none" stroke="#000" d="M40.104 20.608h-3.5"/><use xlink:href="#c" transform="matrix(10 0 0 -10 15.126 24.405)"/><use xlink:href="#f" transform="matrix(10 0 0 -10 20.876 24.405)"/><use xlink:href="#b" transform="matrix(10 0 0 -10 27.406 24.535)"/><symbol id="r"><path transform="translate(-.098) scale(.001)" d="M197 648V81h119c100 0 174 22 221 68 46 46 70 118 70 216s-24 169-70 215c-47 45-121 68-221 68H197zm-99 81h203c141 0 245-30 311-88 66-59 99-151 99-276 0-126-34-218-100-277S441 0 301 0H98v729z"/></symbol><symbol id="s"><path transform="translate(-.027) scale(.001)" d="M183 702V547h185v-70H183V180c0-45 6-74 18-86 12-13 37-19 75-19h92V0h-92c-70 0-118 13-144 39s-39 73-39 141v297H27v70h66v155h90z"/></symbol><symbol id="t"><path transform="matrix(.001 0 0 .001 -.06 .013)" d="M343 275c-73 0-123-9-151-25-28-17-42-45-42-85 0-32 10-58 31-76 21-19 50-28 86-28 50 0 90 17 120 53 30 35 45 82 45 141v20h-89zm179 37V0h-90v83c-21-34-47-58-77-73s-68-23-112-23c-56 0-101 15-134 46s-49 73-49 126c0 61 20 107 62 139 41 31 102 47 184 47h126v9c0 41-14 73-41 96-27 22-65 34-114 34-32 0-62-4-92-12s-58-19-85-33v83c32 12 64 22 95 28s61 10 91 10c79 0 138-21 177-62s59-103 59-186z"/></symbol><symbol id="u"><path transform="translate(-.091) scale(.001)" d="M549 330V0h-90v327c0 52-11 90-31 116s-50 39-90 39c-49 0-87-16-115-47s-42-73-42-126V0H91v547h90v-85c21 32 46 57 76 73 29 16 63 25 101 25 62 0 110-20 142-59s49-96 49-171z"/></symbol><symbol id="v"><path transform="matrix(.001 0 0 .001 -.055 .013)" d="M488 526v-84c-26 14-51 24-77 31s-51 11-77 11c-58 0-104-19-136-56s-48-89-48-155c0-67 16-119 48-156s78-55 136-55c26 0 51 3 77 10s51 18 77 32V21C462 9 436 0 410-5c-27-5-56-8-86-8-82 0-148 25-196 77-49 51-73 121-73 209 0 89 24 159 73 210s116 77 202 77c28 0 55-3 81-9s52-14 77-25z"/></symbol><use xlink:href="#r" transform="matrix(0 -10 -10 0 7.948 165.198)"/><use xlink:href="#i" transform="matrix(0 -10 -10 0 7.948 157.538)"/><use xlink:href="#n" transform="matrix(0 -10 -10 0 8.078 155.158)"/><use xlink:href="#s" transform="matrix(0 -10 -10 0 7.948 150.218)"/><use xlink:href="#t" transform="matrix(0 -10 -10 0 8.078 145.968)"/><use xlink:href="#u" transform="matrix(0 -10 -10 0 7.948 139.528)"/><use xlink:href="#v" transform="matrix(0 -10 -10 0 8.078 133.548)"/><use xlink:href="#k" transform="matrix(0 -10 -10 0 8.078 128.048)"/><use xlink:href="#l" transform="matrix(0 -10 -10 0 7.948 122.448)"/><use xlink:href="#m" transform="matrix(0 -10 -10 0 9.258 118.408)"/><use xlink:href="#j" transform="matrix(0 -10 -10 0 7.948 114.458)"/><use xlink:href="#o" transform="matrix(0 -10 -10 0 9.258 104.658)"/><clipPath id="w"><path transform="matrix(1 0 0 -1 -63 305)" d="M103.104 38.016h266.112v266.112H103.104z"/></clipPath><g clip-path="url(#w)"><path stroke-width="2.5" stroke-linecap="square" stroke-linejoin="round" fill="none" stroke="#00f" d="m52.2 34.667.166.137.768.665 1.317 1.689 1.431 2.466 1.116 2.1.276.489.286.708.231.415 1.382 2.975.146.1.17.566.216.327.181.448 1.236 2.797.387.907.156.106.23.681 3.23 7.513.106.11.176.578.628 1.255.196.589.281.575.322.82.93 2.097.547 1.396.382.696.23.574 13.936 31.8.066.114.17.57.995 2.134.206.575.151.113.17.57.272.567.236.568.146.114.17.574.403.901.361.776.221.56.186.341 1.437 3.325.176.346.176.233.22.808 1.704 3.767.361.227.076.566.21.567.357.902.412.905.789 1.794.417.897.16.222.252.667.482 1.228.211.337.613 1.454.337.56 2.768 6.42.246.444.336.782 1.643 3.688.467 1.105.312.565.216.46.241.46.337 1.031.22.228.02.229.146.113.729 1.98.512 1.048.412 1.07.196.467 6.827 15.534.156.224.251.787.256.34.347.899.502 1.231 1.342 2.922.773 1.718.272.792.15.113.186.564.176.339 1.035 2.356.286.564.297.793.105.114.392.896.16.224.157.56 1.23 2.698.166.45.201.338 8.902 20.117.291.707.252.462.366.907 2.301 4.566.432.688 2.708 5.473.221.412.337.417.291.64.156.218.904 2.066.286.491.342 1.282.467.777.332 1.254.18.244.639 1.62.432.768.628 1.278.517.939.271.58 2.24 4.81.262.679.281.436.598 1.415.176.188.904 1.535 1.18 1.829.493.701 1.271 1.925 1.914 2.33 2.773 1.773.287.226.673.43.17-.033.302.217.668.21.693.078.161-.092.166.088 1.165-.063.161.11.312-.088.12.01.156.133.342-.19.336.192 1.035.145 1.186-.076 2.3-.473.91.052 1.653.165.984-.134 1.653-.46 3.577-.354 1.065-.4 1.929-.541 1.864-.387 1.386-.58.618-.364.628-.255.719-.226 2.315-.8 1.14-.611.774-.465 1.04-.483.211.04.292-.206.532-.173 2.793-1.361.498-.344 1.145-.498 3.175-1.417 1.045-.642.764-.387 1.024-.388 2.311-1.086 1.548-.825 4.15-2.018.642-.42.804-.424 1.798-.839 5.732-3.136.458-.22.351-.227.533-.3 1.11-.621 2.02-.841.778-.25 1.588-.603 2.185-.785 2.13-.621.87-.295 1.627-.443 1.125-.233 1.311-.16 1.839-.014 1.944.33 1.105.255 1.291.25.749.136 1.02.135 1.085-.073 1.055-.266 1.075-.403 1.713-.854 1.01-.64.522-.457.337-.413.251-.217.251-.332.573-.565.472-.574.472-.58.714-1.048.256-.353 2.13-3.734.387-.598 2.552-3.748 1.944-2.284.829-1.15 7.575-7.934.463-.602.693-.719.306-.475.523-.597.427-.518.246-.419.507-.758.81-1.55.833-2.12.648-1.658.417-.875.397-.644.512-1.021 9.957-17.447.89-1.67.095-.095.804-1.583 1.427-2.576.175-.485.377-.586.236-.58.14-.095.302-.683 1.482-2.94.287-.593.11-.097.397-.883 1.246-2.366.251-.596.357-.597.156-.398.17-.297 1.713-3.432.322-.603 1.05-2.142.226-.605.166-.1.572-1.36.141-.1.347-.934.1-.1.216-.508.216-.306.804-1.797"/></g><clipPath id="x"><path transform="matrix(1 0 0 -1 -63 305)" d="M103.104 38.016h266.112v266.112H103.104z"/></clipPath><g clip-path="url(#x)"><path stroke-width="2.5" stroke-dasharray="9.25,4" stroke-linejoin="round" fill="none" stroke="red" d="m52.2 12.968.266.198.402.333.266.247 1.15 1.462.99 1.513.714 1.33.301.376.483 1.118.226.386.276.491.286.722.231.403 3.939 8.56.311.684.247.563.331.682.176.454.713 1.611.402 1.029.302.572.914 2.158.105.11.176.586.98 2.071.23.693.106.11.292.818.22.462.985 2.311.704 1.495 1.381 3.104.146.112.075.57.11.111.297.806.658 1.362.247.684.592 1.37.252.453.18.455.1.112.332.804 1.261 2.855.201.456 15.569 35.01.361.225.076.562.21.566.357.895.412.89.925 2.103.281.554.16.222.252.67.482 1.218.211.33.87 1.886.175.332.276.763.699 1.436 1.025 2.332.371.883.1.112.202.55.246.436.336.76 1.643 3.624.467 1.117.312.658 1.638 3.616.572 1.398.211.341.412 1.032.196.468 2.808 6.38.287.452.12.446.106.112.417.986.261.558.538 1.268.206.337.175.448 10.45 22.95.311.658.839 1.859.563 1.315.487 1.094.91 1.973.235.33.252.768.914 1.863 2.245 4.961.473.888 3.014 6.787.412.665 1.909 3.668 1.648 3.06.623 1.431 1.939 4.079.286.672.286.442.342 1.078.467.743.673 1.697.166.235 1.372 3.508.256.531.392 1.318.507 1.127 1.23 2.955.337.64 1.14 2.43.182.209.301.639 3.205 7.377.538.838 1.17 1.937 2.25 3.891.93 1.005.442.606.287.323 2.833 3.155.397.482 1.517 1.422.342-.022.336.246 1.678.797 1.738 1.22.668.198.437.25.91.116 1.472.09 1.165.37.824.427 1.01.434.206-.09.814.074 1.863-.006 1.447.602 1.045.336.206.169.347-.057 2.723.364.673.315.542.299 1.18.382 1.327.053 1.025.055.924.288.533.24 1.316.448 1.065.045.14-.115.192.087.793-.096.89.074 1.949.486.542.015.136-.116.337.088 1.034-.225.231-.153.438.062.713.029.196.166.351-.042 1.09.197.171-.107.126.122 1.065-.11 2.015-.402.09-.115.176.01.22.15 2.08.272 1.02-.16 1.392-.36 1.03.043 1.351.11 1.04-.128 2.452-.693 1.205.044 1.176-.081 1.06-.236 1.03-.444.829-.233.673-.08.567.001.176.11.392-.114 1.296-.123 2.577-.359 1.156.28.97.273 1.356.204 1.24.216.845.421 1.457.938 1.763 1.157.477.257.683.54.387.373 1.186 1.39.608.636.703 1.03.728.9.171.128.482.748.453.488.818 1.01 2.819 3.328 2.401 1.637.975.314.743.035.86-.159 1.074-.394.337-.21.633-.362 1.276-1.138.24-.347.584-.914.256-.413.784-1.418.607-.995 1.126-1.965 2.753-4.523.768-.881 1.231-1.718.573-.842 5.2-6.128.31-.396.634-.657.326-.431.593-.779 1.668-2.234.306-.675.523-.886.427-.704.367-.695.577-1.019.307-.497.763-1.685.493-1.546.487-1.506.286-.75.392-.958.186-.31.512-1.12 7.928-15.386.512-.894.287-.6.512-1.091.648-1.117.553-1.307.502-.917.804-1.746 1.427-2.822.175-.521.377-.628.236-.64.442-.855 1.482-3.178.287-.638.11-.106.397-.966 1.246-2.453.17-.536.342-.642.096-.107.156-.538.17-.323 1.713-3.676.322-.659.16-.22.161-.547 1.975-4.23.412-1.017.301-.332.116-.556.17-.327.543-1.213"/></g><clipPath id="y"><path transform="matrix(1 0 0 -1 -63 305)" d="M103.104 38.016h266.112v266.112H103.104z"/></clipPath><g clip-path="url(#y)"><path d="m156.34 249.978 6-6m-6 0 6 6" fill="orange"/><path stroke-width="2.5" stroke-linejoin="round" fill="none" stroke="orange" d="m156.34 249.978 6-6m-6 0 6 6"/></g><clipPath id="z"><path transform="matrix(1 0 0 -1 -63 305)" d="M103.104 38.016h266.112v266.112H103.104z"/></clipPath><g clip-path="url(#z)"><path d="M238.658 254.888h6m-3 3v-6" fill="green"/><path stroke-width="2.5" stroke-linejoin="round" fill="none" stroke="green" d="M238.658 254.888h6m-3 3v-6"/></g><path stroke-width=".8" stroke-linecap="square" stroke-miterlimit="10" fill="none" stroke="#000" d="M40.104 266.984V.872M306.216 266.984V.872M40.104 266.984h266.112M40.104.872h266.112"/><path d="M112.42 67.56h186.796c1.333 0 2-.667 2-2V7.872c0-1.333-.667-2-2-2H112.419c-1.333 0-2 .667-2 2V65.56c0 1.333.667 2 2 2z" fill="#fff" fill-opacity=".8"/><path stroke-miterlimit="10" fill="none" stroke="#d5d6d5" stroke-opacity=".8" d="M112.42 67.56h186.796c1.333 0 2-.667 2-2V7.872c0-1.333-.667-2-2-2H112.419c-1.333 0-2 .667-2 2V65.56c0 1.333.667 2 2 2z"/><path stroke-width="2.5" stroke-linecap="square" stroke-linejoin="round" fill="none" stroke="#00f" d="M114.42 13.966h20"/><symbol id="A"><path transform="matrix(.001 0 0 .001 -.091 .013)" d="M487 273c0 66-14 117-41 155-28 38-65 57-112 57-48 0-85-19-112-57-28-38-41-89-41-155s13-118 41-156c27-38 64-56 112-56 47 0 84 18 112 56 27 38 41 90 41 156zM181 464c18 32 42 56 71 72s64 24 104 24c66 0 120-27 162-79 41-53 62-122 62-208s-21-156-62-208c-42-52-96-78-162-78-40 0-75 8-104 23s-53 39-71 72V0H91v760h90V464z"/></symbol><symbol id="B"><path transform="translate(-.042) scale(.001)" d="M42 547h90l112-427 112 427h106l112-427 112 427h90L633 0H527L409 448 291 0H185L42 547z"/></symbol><symbol id="C"><path transform="matrix(.001 0 0 .001 -.056 .013)" d="M394 662c-72 0-129-27-171-80-42-54-63-126-63-218s21-165 63-218c42-54 99-80 171-80 71 0 128 26 170 80 42 53 63 126 63 218s-21 164-63 218c-42 53-99 80-170 80zm0 80c102 0 183-35 245-103 61-68 92-160 92-275 0-116-31-207-92-275C577 21 496-13 394-13 291-13 209 21 148 89c-62 68-92 159-92 275 0 115 30 207 92 275 61 68 143 103 246 103z"/></symbol><symbol id="D"><path transform="matrix(.001 0 0 .001 -.066 .013)" d="M535 705v-96c-38 18-73 31-106 40-34 8-66 13-96 13-54 0-96-11-125-31-29-21-43-51-43-89 0-32 9-57 29-73 19-17 56-30 110-40l60-12c73-14 127-39 162-74 35-36 53-83 53-142 0-71-24-124-71-160-48-36-117-54-208-54-35 0-72 4-111 11S110 16 69 32v102c40-23 79-40 117-51 38-12 76-17 114-17 56 0 99 11 130 33 30 22 46 53 46 95 0 36-11 64-33 84s-58 35-108 45l-60 12c-74 14-127 37-160 69-33 31-49 74-49 130 0 64 22 115 68 152 45 37 108 56 188 56 34 0 68-3 104-9 35-6 71-16 109-28z"/></symbol><symbol id="E"><path transform="matrix(.001 0 0 .001 -.055 .013)" d="M454 464v296h90V0h-90v82c-19-33-43-57-72-72s-63-23-103-23c-66 0-120 26-162 78S55 187 55 273s20 155 62 208c42 52 96 79 162 79 40 0 74-8 103-24s53-40 72-72zM148 273c0-66 13-118 40-156s64-56 112-56 85 18 113 56c27 38 41 90 41 156s-14 117-41 155c-28 38-65 57-113 57s-85-19-112-57-40-89-40-155z"/></symbol><use xlink:href="#r" transform="matrix(10 0 0 -10 143.4 17.466)"/><use xlink:href="#i" transform="matrix(10 0 0 -10 151.06 17.466)"/><use xlink:href="#n" transform="matrix(10 0 0 -10 153.44 17.596)"/><use xlink:href="#s" transform="matrix(10 0 0 -10 158.38 17.466)"/><use xlink:href="#t" transform="matrix(10 0 0 -10 162.63 17.596)"/><use xlink:href="#u" transform="matrix(10 0 0 -10 169.07 17.466)"/><use xlink:href="#v" transform="matrix(10 0 0 -10 175.05 17.596)"/><use xlink:href="#k" transform="matrix(10 0 0 -10 180.55 17.596)"/><use xlink:href="#l" transform="matrix(10 0 0 -10 186.15 17.466)"/><use xlink:href="#A" transform="matrix(10 0 0 -10 190.24 17.596)"/><use xlink:href="#k" transform="matrix(10 0 0 -10 196.23 17.596)"/><use xlink:href="#s" transform="matrix(10 0 0 -10 202.1 17.466)"/><use xlink:href="#B" transform="matrix(10 0 0 -10 206.17 17.466)"/><use xlink:href="#k" transform="matrix(10 0 0 -10 214.48 17.596)"/><use xlink:href="#k" transform="matrix(10 0 0 -10 220.63 17.596)"/><use xlink:href="#u" transform="matrix(10 0 0 -10 227.14 17.466)"/><use xlink:href="#l" transform="matrix(10 0 0 -10 232.57 17.466)"/><use xlink:href="#C" transform="matrix(10 0 0 -10 236.31 17.596)"/><use xlink:href="#D" transform="matrix(10 0 0 -10 244.28 17.596)"/><use xlink:href="#l" transform="matrix(10 0 0 -10 249.97 17.466)"/><use xlink:href="#t" transform="matrix(10 0 0 -10 253.75 17.596)"/><use xlink:href="#u" transform="matrix(10 0 0 -10 260.19 17.466)"/><use xlink:href="#E" transform="matrix(10 0 0 -10 266.17 17.596)"/><use xlink:href="#l" transform="matrix(10 0 0 -10 271.97 17.466)"/><use xlink:href="#h" transform="matrix(10 0 0 -10 275.13 17.466)"/><use xlink:href="#D" transform="matrix(10 0 0 -10 281.92 17.596)"/><use xlink:href="#l" transform="matrix(10 0 0 -10 287.61 17.466)"/><use xlink:href="#c" transform="matrix(10 0 0 -10 291.89 17.466)"/><path stroke-width="2.5" stroke-dasharray="9.25,4" stroke-linejoin="round" fill="none" stroke="red" d="M114.42 28.638h20"/><use xlink:href="#r" transform="matrix(10 0 0 -10 143.4 32.138)"/><use xlink:href="#i" transform="matrix(10 0 0 -10 151.06 32.138)"/><use xlink:href="#n" transform="matrix(10 0 0 -10 153.44 32.268)"/><use xlink:href="#s" transform="matrix(10 0 0 -10 158.38 32.138)"/><use xlink:href="#t" transform="matrix(10 0 0 -10 162.63 32.268)"/><use xlink:href="#u" transform="matrix(10 0 0 -10 169.07 32.138)"/><use xlink:href="#v" transform="matrix(10 0 0 -10 175.05 32.268)"/><use xlink:href="#k" transform="matrix(10 0 0 -10 180.55 32.268)"/><use xlink:href="#l" transform="matrix(10 0 0 -10 186.15 32.138)"/><use xlink:href="#A" transform="matrix(10 0 0 -10 190.24 32.268)"/><use xlink:href="#k" transform="matrix(10 0 0 -10 196.23 32.268)"/><use xlink:href="#s" transform="matrix(10 0 0 -10 202.1 32.138)"/><use xlink:href="#B" transform="matrix(10 0 0 -10 206.17 32.138)"/><use xlink:href="#k" transform="matrix(10 0 0 -10 214.48 32.268)"/><use xlink:href="#k" transform="matrix(10 0 0 -10 220.63 32.268)"/><use xlink:href="#u" transform="matrix(10 0 0 -10 227.14 32.138)"/><use xlink:href="#l" transform="matrix(10 0 0 -10 232.57 32.138)"/><use xlink:href="#C" transform="matrix(10 0 0 -10 236.31 32.268)"/><use xlink:href="#D" transform="matrix(10 0 0 -10 244.28 32.268)"/><use xlink:href="#l" transform="matrix(10 0 0 -10 249.97 32.138)"/><use xlink:href="#t" transform="matrix(10 0 0 -10 253.75 32.268)"/><use xlink:href="#u" transform="matrix(10 0 0 -10 260.19 32.138)"/><use xlink:href="#E" transform="matrix(10 0 0 -10 266.17 32.268)"/><use xlink:href="#l" transform="matrix(10 0 0 -10 271.97 32.138)"/><use xlink:href="#h" transform="matrix(10 0 0 -10 275.13 32.138)"/><use xlink:href="#D" transform="matrix(10 0 0 -10 281.92 32.268)"/><use xlink:href="#l" transform="matrix(10 0 0 -10 287.61 32.138)"/><use xlink:href="#d" transform="matrix(10 0 0 -10 291.52 32.138)"/><path d="m121.42 47.185 6-6m-6 0 6 6" fill="orange"/><path stroke-width="2.5" stroke-linejoin="round" fill="none" stroke="orange" d="m121.42 47.185 6-6m-6 0 6 6"/><symbol id="F"><path transform="translate(-.107) scale(.001)" d="M107 124h103V0H107v124z"/></symbol><symbol id="G"><path transform="matrix(.001 0 0 .001 -.106 -.172)" d="M106 454h626v-82H106v82zm0-199h626v-83H106v83z"/></symbol><symbol id="H"><path transform="translate(-.082) scale(.001)" d="M82 729h469v-42L286 0H183l249 646H82v83z"/></symbol><use xlink:href="#j" transform="matrix(10 0 0 -10 143.33 46.81)"/><use xlink:href="#i" transform="matrix(10 0 0 -10 153.1 46.81)"/><use xlink:href="#u" transform="matrix(10 0 0 -10 155.85 46.81)"/><use xlink:href="#F" transform="matrix(10 0 0 -10 162.35 46.81)"/><use xlink:href="#l" transform="matrix(10 0 0 -10 164.46 46.81)"/><use xlink:href="#E" transform="matrix(10 0 0 -10 168.19 46.94)"/><use xlink:href="#i" transform="matrix(10 0 0 -10 174.93 46.81)"/><use xlink:href="#n" transform="matrix(10 0 0 -10 177.31 46.94)"/><use xlink:href="#s" transform="matrix(10 0 0 -10 182.25 46.81)"/><use xlink:href="#t" transform="matrix(10 0 0 -10 186.5 46.94)"/><use xlink:href="#u" transform="matrix(10 0 0 -10 192.94 46.81)"/><use xlink:href="#v" transform="matrix(10 0 0 -10 198.92 46.94)"/><use xlink:href="#k" transform="matrix(10 0 0 -10 204.42 46.94)"/><use xlink:href="#l" transform="matrix(10 0 0 -10 210.02 46.81)"/><use xlink:href="#G" transform="matrix(10 0 0 -10 214.26 45.09)"/><use xlink:href="#l" transform="matrix(10 0 0 -10 221.58 46.81)"/><use xlink:href="#d" transform="matrix(10 0 0 -10 225.49 46.81)"/><use xlink:href="#b" transform="matrix(10 0 0 -10 231.78 46.94)"/><use xlink:href="#F" transform="matrix(10 0 0 -10 238.55 46.81)"/><use xlink:href="#e" transform="matrix(10 0 0 -10 241.42 46.94)"/><use xlink:href="#H" transform="matrix(10 0 0 -10 247.84 46.81)"/><use xlink:href="#l" transform="matrix(10 0 0 -10 253.38 46.81)"/><use xlink:href="#j" transform="matrix(10 0 0 -10 257.47 46.81)"/><path d="M121.42 58.856h6m-3 3v-6" fill="green"/><path stroke-width="2.5" stroke-linejoin="round" fill="none" stroke="green" d="M121.42 58.856h6m-3 3v-6"/><symbol id="I"><path transform="matrix(.001 0 0 .001 -.063 .013)" d="M110 15v90c24-12 49-21 75-27 25-6 50-9 75-9 64 0 114 21 148 65s54 110 60 200c-20-28-44-50-72-65-29-15-61-22-96-22-74 0-132 22-174 66S63 417 63 494c0 74 22 134 66 180 44 45 103 68 177 68 84 0 149-33 193-97 44-65 67-159 67-281 0-116-28-207-82-275C429 21 356-13 264-13c-25 0-50 3-75 7-26 4-52 11-79 21zm196 309c44 0 79 15 105 45s39 72 39 125c0 52-13 94-39 124s-61 46-105 46-79-16-105-46-39-72-39-124c0-53 13-95 39-125s61-45 105-45z"/></symbol><use xlink:href="#j" transform="matrix(10 0 0 -10 143.33 61.481)"/><use xlink:href="#i" transform="matrix(10 0 0 -10 153.1 61.481)"/><use xlink:href="#u" transform="matrix(10 0 0 -10 155.85 61.481)"/><use xlink:href="#F" transform="matrix(10 0 0 -10 162.35 61.481)"/><use xlink:href="#l" transform="matrix(10 0 0 -10 164.46 61.481)"/><use xlink:href="#E" transform="matrix(10 0 0 -10 168.19 61.611)"/><use xlink:href="#i" transform="matrix(10 0 0 -10 174.93 61.481)"/><use xlink:href="#n" transform="matrix(10 0 0 -10 177.31 61.611)"/><use xlink:href="#s" transform="matrix(10 0 0 -10 182.25 61.481)"/><use xlink:href="#t" transform="matrix(10 0 0 -10 186.5 61.611)"/><use xlink:href="#u" transform="matrix(10 0 0 -10 192.94 61.481)"/><use xlink:href="#v" transform="matrix(10 0 0 -10 198.92 61.611)"/><use xlink:href="#k" transform="matrix(10 0 0 -10 204.42 61.611)"/><use xlink:href="#l" transform="matrix(10 0 0 -10 210.02 61.481)"/><use xlink:href="#G" transform="matrix(10 0 0 -10 214.26 59.761)"/><use xlink:href="#l" transform="matrix(10 0 0 -10 221.58 61.481)"/><use xlink:href="#c" transform="matrix(10 0 0 -10 225.86 61.481)"/><use xlink:href="#p" transform="matrix(10 0 0 -10 231.82 61.611)"/><use xlink:href="#F" transform="matrix(10 0 0 -10 238.55 61.481)"/><use xlink:href="#c" transform="matrix(10 0 0 -10 241.76 61.481)"/><use xlink:href="#I" transform="matrix(10 0 0 -10 247.65 61.611)"/><use xlink:href="#l" transform="matrix(10 0 0 -10 253.38 61.481)"/><use xlink:href="#j" transform="matrix(10 0 0 -10 257.47 61.481)"/></g></svg>