<svg xmlns="http://www.w3.org/2000/svg" xmlns:xlink="http://www.w3.org/1999/xlink" width="614.4" height="460.8" viewBox="0 0 460.8 345.6"><path d="M0 345.6h460.8V0H0z" fill="#fff"/><path d="M103.104 307.584h266.112V41.472H103.104z" fill="#fff"/><path stroke-width=".8" stroke-linejoin="round" fill="none" stroke="#000" d="M113.285 307.584v3.5"/><symbol id="a"><path transform="matrix(.001 0 0 .001 -.066 .013)" d="M318 664c-51 0-89-25-115-75s-38-125-38-225 12-175 38-225 64-75 115-75 89 25 115 75c25 50 38 125 38 225s-13 175-38 225c-26 50-64 75-115 75zm0 78c81 0 143-33 187-97 43-65 65-159 65-281 0-123-22-217-65-281-44-64-106-96-188-96S173 19 130 83 66 241 66 364c0 122 21 216 64 281 43 64 106 97 188 97z"/></symbol><use xlink:href="#a" transform="matrix(10 0 0 -10 110.766 322.308)"/><path stroke-width=".8" stroke-linejoin="round" fill="none" stroke="#000" d="M172.194 307.584v3.5"/><symbol id="b"><path transform="translate(-.11) scale(.001)" d="M124 83h161v556l-175-35v90l174 35h99V83h161V0H124v83z"/></symbol><use xlink:href="#b" transform="matrix(10 0 0 -10 166.935 322.178)"/><use xlink:href="#a" transform="matrix(10 0 0 -10 172.855 322.308)"/><path stroke-width=".8" stroke-linejoin="round" fill="none" stroke="#000" d="M231.103 307.584v3.5"/><symbol id="c"><path transform="translate(-.073) scale(.001)" d="M192 83h344V0H73v83c37 38 88 90 153 156 64 65 105 107 122 126 32 35 54 65 66 90 12 24 19 49 19 73 0 38-14 70-41 94s-62 37-106 37c-31 0-64-6-98-16-34-11-71-27-110-49v100c40 16 77 28 111 36s66 12 95 12c75 0 135-19 180-57s68-88 68-151c0-30-6-59-17-85-11-27-31-59-61-95-8-10-34-37-78-82S271 164 192 83z"/></symbol><use xlink:href="#c" transform="matrix(10 0 0 -10 225.473 322.178)"/><use xlink:href="#a" transform="matrix(10 0 0 -10 231.763 322.308)"/><path stroke-width=".8" stroke-linejoin="round" fill="none" stroke="#000" d="M290.011 307.584v3.5"/><symbol id="d"><path transform="matrix(.001 0 0 .001 -.076 .013)" d="M406 393c47-10 84-31 110-63s40-72 40-118c0-72-25-128-74-167-50-39-120-58-211-58-31 0-63 3-95 9-32 5-66 14-100 26v95c27-16 57-28 90-36 32-8 66-12 102-12 62 0 109 12 141 36s49 60 49 107c0 42-15 76-45 100s-72 37-126 37h-85v81h89c48 0 85 9 111 29 26 19 39 47 39 84s-14 66-40 86c-27 20-65 30-114 30-27 0-56-3-87-9s-65-15-102-27v88c37 10 72 18 105 23 32 5 63 8 93 8 74 0 133-17 177-51s66-80 66-138c0-40-12-74-35-102s-56-48-98-58z"/></symbol><use xlink:href="#d" transform="matrix(10 0 0 -10 284.412 322.308)"/><use xlink:href="#a" transform="matrix(10 0 0 -10 290.672 322.308)"/><path stroke-width=".8" stroke-linejoin="round" fill="none" stroke="#000" d="M348.92 307.584v3.5"/><symbol id="e"><path transform="translate(-.049) scale(.001)" d="M378 643 129 254h249v389zm-26 86h124V254h104v-82H476V0h-98v172H49v95l303 462z"/></symbol><use xlink:href="#e" transform="matrix(10 0 0 -10 343.05 322.178)"/><use xlink:href="#a" transform="matrix(10 0 0 -10 349.58 322.308)"/><symbol id="f"><path transform="translate(.002) scale(.001)" d="M-2 729h616v-83H355V0h-99v646H-2v83z"/></symbol><symbol id="g"><path transform="translate(-.094) scale(.001)" d="M94 547h90V0H94v547zm0 213h90V646H94v114z"/></symbol><symbol id="h"><path transform="translate(-.091) scale(.001)" d="M520 442c22 40 49 69 80 89 31 19 68 29 111 29 56 0 100-20 131-60s47-97 47-170V0h-90v327c0 52-10 91-28 117-19 25-47 38-85 38-47 0-84-16-111-47s-40-73-40-126V0h-90v327c0 52-10 91-28 117-19 25-48 38-86 38-46 0-83-16-110-47s-40-73-40-126V0H91v547h90v-85c20 33 45 58 74 74 28 16 62 24 102 24s73-10 101-30 48-50 62-88z"/></symbol><symbol id="i"><path transform="matrix(.001 0 0 .001 -.055 .013)" d="M562 296v-44H149c4-62 22-110 56-142 33-32 79-48 139-48 34 0 68 4 100 12s65 21 97 39V28c-32-14-65-25-99-31s-69-10-103-10c-88 0-157 25-208 75S55 181 55 268c0 89 24 160 72 213 48 52 114 79 196 79 74 0 132-24 175-71 42-48 64-112 64-193zm-90 26c-1 49-15 88-41 118-27 29-63 44-107 44-50 0-90-15-120-43s-48-68-52-119h320z"/></symbol><symbol id="k"><path transform="matrix(.001 0 0 .001 -.086 .131)" d="M86 760h207v-70H176V-61h117v-70H86v891z"/></symbol><symbol id="l"><path transform="matrix(.001 0 0 .001 -.054 .013)" d="M443 531v-85c-26 12-52 22-79 29-28 6-56 10-85 10-45 0-79-7-101-21s-33-34-33-61c0-21 8-37 24-49s48-24 96-34l31-7c64-14 109-34 136-58 26-25 40-60 40-104 0-51-20-91-60-120-40-30-96-44-166-44-30 0-60 3-92 8S89 8 54 20v93c33-18 66-31 98-39 32-9 64-13 96-13 42 0 75 7 98 21 22 14 34 35 34 62 0 24-9 43-25 56s-52 26-108 38l-31 7c-56 12-97 30-121 54-25 24-37 57-37 100 0 51 18 91 54 119s88 42 156 42c33 0 64-3 94-8 29-5 56-12 81-21z"/></symbol><symbol id="m"><path transform="matrix(.001 0 0 .001 -.097 .131)" d="M304 760v-891H97v70h117v751H97v70h207z"/></symbol><use xlink:href="#f" transform="matrix(10 0 0 -10 215.757 335.85)"/><use xlink:href="#g" transform="matrix(10 0 0 -10 222.53 335.85)"/><use xlink:href="#h" transform="matrix(10 0 0 -10 225.28 335.85)"/><use xlink:href="#i" transform="matrix(10 0 0 -10 234.66 335.98)"/><use xlink:href="#j" transform="matrix(10 0 0 -10 240.26 335.85)"/><use xlink:href="#k" transform="matrix(10 0 0 -10 244.3 337.16)"/><use xlink:href="#l" transform="matrix(10 0 0 -10 247.88 335.98)"/><use xlink:href="#m" transform="matrix(10 0 0 -10 253.52 337.16)"/><path stroke-width=".8" stroke-linejoin="round" fill="none" stroke="#000" d="M103.104 289.477h-3.5"/><use xlink:href="#c" transform="matrix(10 0 0 -10 84.115 293.274)"/><use xlink:href="#a" transform="matrix(10 0 0 -10 90.405 293.404)"/><path stroke-width=".8" stroke-linejoin="round" fill="none" stroke="#000" d="M103.104 247.146h-3.5"/><use xlink:href="#e" transform="matrix(10 0 0 -10 83.875 250.943)"/><use xlink:href="#a" transform="matrix(10 0 0 -10 90.405 251.073)"/><path stroke-width=".8" stroke-linejoin="round" fill="none" stroke="#000" d="M103.104 204.816h-3.5"/><symbol id="n"><path transform="matrix(.001 0 0 .001 -.07 .013)" d="M330 404c-44 0-79-16-105-46s-39-72-39-124c0-53 13-95 39-125s61-45 105-45 79 15 105 45 39 72 39 125c0 52-13 94-39 124s-61 46-105 46zm196 309v-90c-25 12-50 21-75 27-26 6-51 9-75 9-66 0-116-22-150-66s-54-111-58-199c19 28 43 50 72 65s61 23 96 23c73 0 131-23 173-67s64-105 64-181c0-75-23-135-67-180S403-13 330-13c-84 0-149 32-193 96-45 64-67 158-67 281 0 115 27 207 82 275 54 68 128 103 220 103 24 0 49-3 75-7 25-5 51-12 79-22z"/></symbol><use xlink:href="#n" transform="matrix(10 0 0 -10 84.085 208.743)"/><use xlink:href="#a" transform="matrix(10 0 0 -10 90.405 208.743)"/><path stroke-width=".8" stroke-linejoin="round" fill="none" stroke="#000" d="M103.104 162.485h-3.5"/><symbol id="o"><path transform="matrix(.001 0 0 .001 -.068 .013)" d="M318 346c-47 0-84-13-111-38s-40-59-40-103 13-79 40-104 64-37 111-37c46 0 83 12 110 38 27 25 41 59 41 103s-14 78-40 103c-27 25-64 38-111 38zm-99 42c-42 10-75 30-99 59s-35 64-35 106c0 58 20 104 62 138 41 34 98 51 171 51 72 0 129-17 171-51 41-34 62-80 62-138 0-42-12-77-36-106s-56-49-98-59c47-11 84-33 111-65 26-32 40-72 40-118 0-71-22-125-65-162-44-38-106-56-186-56S175 5 132 43c-43 37-64 91-64 162 0 46 13 86 40 118 26 32 63 54 111 65zm-36 156c0-38 11-68 35-89s57-31 100-31c42 0 75 10 99 31s36 51 36 89-12 67-36 88-57 32-99 32c-43 0-76-11-100-32s-35-50-35-88z"/></symbol><use xlink:href="#o" transform="matrix(10 0 0 -10 84.065 166.412)"/><use xlink:href="#a" transform="matrix(10 0 0 -10 90.405 166.412)"/><path stroke-width=".8" stroke-linejoin="round" fill="none" stroke="#000" d="M103.104 120.155h-3.5"/><use xlink:href="#b" transform="matrix(10 0 0 -10 78.126 123.952)"/><use xlink:href="#a" transform="matrix(10 0 0 -10 84.046 124.082)"/><use xlink:href="#a" transform="matrix(10 0 0 -10 90.406 124.082)"/><path stroke-width=".8" stroke-linejoin="round" fill="none" stroke="#000" d="M103.104 77.824h-3.5"/><use xlink:href="#b" transform="matrix(10 0 0 -10 78.126 81.62)"/><use xlink:href="#c" transform="matrix(10 0 0 -10 84.116 81.62)"/><use xlink:href="#a" transform="matrix(10 0 0 -10 90.406 81.75)"/><symbol id="p"><path transform="translate(-.098) scale(.001)" d="M197 648V81h119c100 0 174 22 221 68 46 46 70 118 70 216s-24 169-70 215c-47 45-121 68-221 68H197zm-99 81h203c141 0 245-30 311-88 66-59 99-151 99-276 0-126-34-218-100-277S441 0 301 0H98v729z"/></symbol><symbol id="q"><path transform="translate(-.027) scale(.001)" d="M183 702V547h185v-70H183V180c0-45 6-74 18-86 12-13 37-19 75-19h92V0h-92c-70 0-118 13-144 39s-39 73-39 141v297H27v70h66v155h90z"/></symbol><symbol id="r"><path transform="matrix(.001 0 0 .001 -.06 .013)" d="M343 275c-73 0-123-9-151-25-28-17-42-45-42-85 0-32 10-58 31-76 21-19 50-28 86-28 50 0 90 17 120 53 30 35 45 82 45 141v20h-89zm179 37V0h-90v83c-21-34-47-58-77-73s-68-23-112-23c-56 0-101 15-134 46s-49 73-49 126c0 61 20 107 62 139 41 31 102 47 184 47h126v9c0 41-14 73-41 96-27 22-65 34-114 34-32 0-62-4-92-12s-58-19-85-33v83c32 12 64 22 95 28s61 10 91 10c79 0 138-21 177-62s59-103 59-186z"/></symbol><symbol id="s"><path transform="translate(-.091) scale(.001)" d="M549 330V0h-90v327c0 52-11 90-31 116s-50 39-90 39c-49 0-87-16-115-47s-42-73-42-126V0H91v547h90v-85c21 32 46 57 76 73 29 16 63 25 101 25 62 0 110-20 142-59s49-96 49-171z"/></symbol><symbol id="t"><path transform="matrix(.001 0 0 .001 -.055 .013)" d="M488 526v-84c-26 14-51 24-77 31s-51 11-77 11c-58 0-104-19-136-56s-48-89-48-155c0-67 16-119 48-156s78-55 136-55c26 0 51 3 77 10s51 18 77 32V21C462 9 436 0 410-5c-27-5-56-8-86-8-82 0-148 25-196 77-49 51-73 121-73 209 0 89 24 159 73 210s116 77 202 77c28 0 55-3 81-9s52-14 77-25z"/></symbol><use xlink:href="#p" transform="matrix(0 -10 -10 0 70.948 205.798)"/><use xlink:href="#g" transform="matrix(0 -10 -10 0 70.948 198.138)"/><use xlink:href="#l" transform="matrix(0 -10 -10 0 71.078 195.758)"/><use xlink:href="#q" transform="matrix(0 -10 -10 0 70.948 190.818)"/><use xlink:href="#r" transform="matrix(0 -10 -10 0 71.078 186.568)"/><use xlink:href="#s" transform="matrix(0 -10 -10 0 70.948 180.128)"/><use xlink:href="#t" transform="matrix(0 -10 -10 0 71.078 174.148)"/><use xlink:href="#i" transform="matrix(0 -10 -10 0 71.078 168.648)"/><use xlink:href="#j" transform="matrix(0 -10 -10 0 70.948 163.048)"/><use xlink:href="#k" transform="matrix(0 -10 -10 0 72.258 159.008)"/><use xlink:href="#h" transform="matrix(0 -10 -10 0 70.948 155.058)"/><use xlink:href="#m" transform="matrix(0 -10 -10 0 72.258 145.258)"/><clipPath id="u"><path transform="matrix(1 0 0 -1 0 345.6)" d="M103.104 38.016h266.112v266.112H103.104z"/></clipPath><g clip-path="url(#u)"><path stroke-width="2.5" stroke-linecap="square" stroke-linejoin="round" fill="none" stroke="#00f" d="m115.2 129.76.59.4.494.375.495.518.324.404.235.212.831 1.114.595.993.247.27.071.28.242.189.359.792.265.3.118.317.177.097.288.726.153.1.342.77.17.101.278.818.123.104.33.836.177.106.295.837 2.715 5.626.112.404.165.117.183.522.218.262.518 1.45.118.12.571 1.451.124.12.242.666.147.12.318.929.153.12.206.665.289.383 1.007 2.366 7.605 16.786.377.126.065.77.654 1.67.878 1.772.188.51.371.633.43 1.14.731 1.539 1.178 2.424.253.515.207.514 2.25 4.917.177.127.112.251.04.372.885 1.616.194.503.383.883.082.252.195.127.277.753.159.251.318.892.341.637.354.755 6.02 12.907.26.628.13.127.282.651.283.65.724 1.547.23.625.79 1.659.96 2.103.353.901 2.18 4.587.13.127.641 1.62.124.127 4.636 9.388.83 2.238.625 1.875.49 1.326.188.13.524 1.512.165.128.436 1.194.212.383.978 2.259 1.484 3.16.348.743.265.62.177.116 1.496 3.068.283.465.218.591 1.955 3.657.625 1.115 1.03 2.053 1.02 1.607 1.178 2.265 2.562 4.343 2.522 4.73 5.054 8.377.242.63 1.066 1.535.395.684 3.493 4.237.76 1.443.919 1.425.595.678.654.624.223.187.613.422.106.21.242.036.265.27 2.203.846 1.997.18 1.867-.101 2.121-.271 4.177-.657 1.555-.404 1.331-.161.413-.018 3.829-.05 3.446.241 1.478-.47 1.32-.645 1.79-1.246.307-.343 1.043-1.251.671-.827.295-.518.177-.176.483-.892.424-.542 1.013-1.627.277-.179.188-.532.212-.177.171-.35.265-.177.413-.836 1.03-1.696 1.155-2.274.189-.238.33-.941.518-.692.701-1.553.248-.215.412-1.043.518-.603.177-.586.212-.193.701-1.134.524-.982.224-.203.483-1.048.56-.984 1.52-2.878.159-.223.406-.878 1.585-2.68.542-.964.265-.378 4.065-7.763 1.184-2.139.471-.696.748-1.524.86-1.292.46-1.148.63-1.085.86-2.354.442-1.193.7-1.822.961-2.163.583-1.142 1.473-3.53.4-.228 2.31-4.06.524-.799 1.826-3.287.377-.914.265-.359.672-1.055.206-.112 1.938-2.832.336-.454 1.773-2.093.524-.457.3-.43.125-.067.235-.302 2.686-2.605.501-.532.336-.291.571-.628.36-.46.123-.056.831-1.045.954-1.147.701-.901.13-.065.218-.394.17-.067.172-.399.259-.226.218-.32.707-1.08.83-1.194.955-1.344.465-.84.253-.278.077-.297.147-.088.212-.387.23-.387.306-.488.183-.395.418-.608.189-.203.117-.404.39-.501.194-.515.188-.1.253-.727.242-.31.247-.522.154-.104.17-.529.136-.105.218-.54.259-.323.147-.217.195-.436.477-.877.595-1.226.141-.112.342-.788.347-.566.212-.568.283-.343.46-1.028.118-.116.353-.803.124-.116.218-.462.442-1.036.524-.921.336-.692.117-.117.59-1.267.565-1.041.766-1.505.66-1.394.312-.466.153-.349.471-.93.49-1.046 1.295-2.44.242-.581.147-.115.247-.58.283-.695.253-.345.943-1.97.13-.113.683-1.385 5.343-10.6.2-.6.26-.348.589-1.28.594-1.156.537-1.152.153-.114 1.22-2.43.305-.697.29-.349.211-.472.424-.952.265-.586.165-.114.283-.834.253-.358 3.04-6.137.153-.236.248-.594 2.09-4.221.702-1.383.1-.115.271-.58.23-.468.907-1.842.442-.59.177-.59.3-.468.312-.705 1.832-3.666.165-.237.212-.475 8.265-16.846.56-1.202.23-.357.253-.605.218-.116.27-.844.119-.116.2-.606.766-1.44.2-.478.3-.355.419-1.085.159-.116.188-.605.177-.117.295-.835 1.077-2.182.089-.239.17-.116.071-.36.348-.592.483-1.104.283-.36.306-.839 1.196-2.283.082-.382.183-.117.666-1.462 1.673-3.557.2-.486.324-.498.377-.999.212-.117.153-.627.106-.117.49-1.094.4-.593.165-.605.112-.117.341-.727.86-1.787.1-.118.466-1.074.854-1.658.554-1.061.724-1.532.1-.117.277-.6 2.292-4.549.17-.48.602-1.19.235-.483.124-.118 1.844-3.848.194-.24.289-.714.648-1.22.165-.621.118-.118 1.331-2.797"/></g><clipPath id="v"><path transform="matrix(1 0 0 -1 0 345.6)" d="M103.104 38.016h266.112v266.112H103.104z"/></clipPath><g clip-path="url(#v)"><path stroke-width="2.5" stroke-dasharray="9.25,4" stroke-linejoin="round" fill="none" stroke="red" d="m115.2 75.704 1.455.802.93.723.125.178.176.044.183.225 3.128 3.612.277.57.123.06.33.604.177.061.295.63 1.514 2.07.088.065.17.482.119.066.241.362 1.043 1.654.612.931.324.558 1.68 2.72.288.257.295.555.712 1.109 6.103 9.532.277.36.236.47.247.248.183.461.177.071.382.64.377.18.065.431.407.824.247.246.342.528.536.81.188.347.371.416.43.815.731 1.049 1.178 1.667.253.35.207.354.17.177.177.458.148.07 8.253 12.243.17.07.29.526.258.45.189.341.17.07.442.811.277.248.424.809.118.068.371.632.33.424.26.358.235.46.177.069.17.453.242.243.089.281.182.068.183.472.141.068.23.472.919 1.292.477.803.283.249.182.467.148.068.212.455 2.062 2.96.13.067.158.348.607.866 1.926 2.578.513.666 1.042 1.269.86 1.31.543.907.43.712 1.266 2.877.189.079.524 1.104.395.603.789 1.406.265.39 5.337 9.023.306.621.236.307.283.509 1.225 2.1.695 1.28 1.367 2.233.972 1.801 1.55 2.495.9 1.725 1.515 3.098 1.938 3.329.276.511.654 1.32.996 2.34 1.213 2.431.978 1.585 1.65 3.347.424 1.047.589 1.36.913 2.126.66 1.266.412.973.666 1.164.76 1.993 3.11 8.342.242.357.265.593.471.811.583 1.118.371.748.778 1.26.512.814 1.927 3.128 1.001 1.353 1.438 2.104 1.107 1.003.542.598.524.988 1.279 2.11 1.372 2.237.307.653.335.67 1.62 3.123.342.53 1.761 2.938.413.527 1.578 2.451.425.803.807 1.395L222 249.74l.218.156.63.922.26.152.253.624.23.163 1.508 2.366.677 1.234 1.09 1.916.524 1.025.99 1.579.807 1.33.53.744.295.573.177.196.483 1.023.424.644 1.013 2.058.277.236.188.71.212.234.171.462.265.229.413 1.009 1.614 2.81.36.585 1.06 1.706.188.193.701 1.382.248.2.412 1.02.518.619.39.823 2.603 3.913 2.633 2.88.318.404.607.672.395.516.754.711.288.327 2.504 1.827 1.343.768.353.251 1.791.718 1.92.422 1.691.122.943-.237 4.972-1.773 4.218-.9.165-.008 1.425.072.572.135.483.034 1.054.245.1.083.271.01.578.226.235.02 2.133.725.094.108.135-.02.207.088.253.155.23.02.47.253 1.886.577 3.205.64 1.85.14.206-.125.053.093.2-.138.112.09.318-.141.088.087.077-.126.147.084.1-.132.112.082.142-.142.088.08.607-.282.117.073.372-.306.035.07.17.02 1.58-.696.17-.247.248-.018.106-.186.13.047.276-.145.083-.193.112.044.477-.315.33-.364 1.095-.66.212-.304.967-.755 1.184-.991.241-.078.336-.43 1.685-1.336.188-.214 2.274-2.228.807-.782.13.015.082-.242.142.015.712-.81.33-.213.248-.356.123.013.16-.114.17-.356 1.667-1.492.3-.361.125.01.276-.36.271-.241.242-.37.3-.358.106.007.3-.366.33-.378 1.267-1.248.424-.552.083.004.23-.271.365-.53.17.003.172-.26.341-.506.124.001.365-.377.36-.503.07-.001.254-.249.96-1.1.277-.25.542-.613.483-.51.37-.396.778-.791.265-.399.165-.009.283-.528.13-.01.241-.26.666-.784.13-.251.135-.012.371-.522.112-.013.719-.913.218-.265.088-.014.377-.53.106-.016.153-.137.248-.39 1.525-1.666.065-.247.5-.525.702-.814.1-.02.271-.376.336-.4.683-.704.118-.254.442-.413.177-.276.111-.022 1.52-1.946.112-.024 1.555-1.848.13-.26.165-.025.306-.547.26-.286.524-.718.13-.027 1.637-2.143.153-.029.271-.408.248-.175.43-.7.577-.732.124-.03.206-.408.548-.47.194-.41.224-.178.26-.294.211-.41.106-.031.26-.41.153-.03.43-.705.5-.59.784-1.034.341-.33.466-.706.842-.922.236-.297.265-.295.206-.405.954-1.187 1.338-1.644.07-.15.348-.336.289-.407 2.668-3.494.36-.357.153-.157.218-.422.13-.039.3-.56 1.555-2.013.1-.151.212-.04.153-.416.106-.04.49-.718.194-.192 6.026-7.528.17-.15.172-.408.548-.492.135-.148.035-.251 1.68-1.984.317-.556.218-.045.16-.402.123-.045.194-.4.73-.808.696-.904.236-.302 1.331-1.688"/></g><clipPath id="w"><path transform="matrix(1 0 0 -1 0 345.6)" d="M103.104 38.016h266.112v266.112H103.104z"/></clipPath><g clip-path="url(#w)"><path d="m201.5 298.488 6-6m-6 0 6 6" fill="orange"/><path stroke-width="2.5" stroke-linejoin="round" fill="none" stroke="orange" d="m201.5 298.488 6-6m-6 0 6 6"/></g><clipPath id="x"><path transform="matrix(1 0 0 -1 0 345.6)" d="M103.104 38.016h266.112v266.112H103.104z"/></clipPath><g clip-path="url(#x)"><path d="M278.805 292.779h6m-3 3v-6" fill="green"/><path stroke-width="2.5" stroke-linejoin="round" fill="none" stroke="green" d="M278.805 292.779h6m-3 3v-6"/></g><path stroke-width=".8" stroke-linecap="square" stroke-miterlimit="10" fill="none" stroke="#000" d="M103.104 307.584V41.472M369.216 307.584V41.472M103.104 307.584h266.112M103.104 41.472h266.112"/><path d="M142.762 108.16h186.796c1.334 0 2-.667 2-2V48.472c0-1.333-.666-2-2-2H142.762c-1.334 0-2 .667-2 2v57.688c0 1.333.666 2 2 2z" fill="#fff" fill-opacity=".8"/><path stroke-miterlimit="10" fill="none" stroke="#d5d6d5" stroke-opacity=".8" d="M142.762 108.16h186.796c1.334 0 2-.667 2-2V48.472c0-1.333-.666-2-2-2H142.762c-1.334 0-2 .667-2 2v57.688c0 1.333.666 2 2 2z"/><path stroke-width="2.5" stroke-linecap="square" stroke-linejoin="round" fill="none" stroke="#00f" d="M144.762 54.566h20"/><symbol id="y"><path transform="matrix(.001 0 0 .001 -.091 .013)" d="M487 273c0 66-14 117-41 155-28 38-65 57-112 57-48 0-85-19-112-57-28-38-41-89-41-155s13-118 41-156c27-38 64-56 112-56 47 0 84 18 112 56 27 38 41 90 41 156zM181 464c18 32 42 56 71 72s64 24 104 24c66 0 120-27 162-79 41-53 62-122 62-208s-21-156-62-208c-42-52-96-78-162-78-40 0-75 8-104 23s-53 39-71 72V0H91v760h90V464z"/></symbol><symbol id="z"><path transform="translate(-.042) scale(.001)" d="M42 547h90l112-427 112 427h106l112-427 112 427h90L633 0H527L409 448 291 0H185L42 547z"/></symbol><symbol id="A"><path transform="matrix(.001 0 0 .001 -.056 .013)" d="M394 662c-72 0-129-27-171-80-42-54-63-126-63-218s21-165 63-218c42-54 99-80 171-80 71 0 128 26 170 80 42 53 63 126 63 218s-21 164-63 218c-42 53-99 80-170 80zm0 80c102 0 183-35 245-103 61-68 92-160 92-275 0-116-31-207-92-275C577 21 496-13 394-13 291-13 209 21 148 89c-62 68-92 159-92 275 0 115 30 207 92 275 61 68 143 103 246 103z"/></symbol><symbol id="B"><path transform="matrix(.001 0 0 .001 -.066 .013)" d="M535 705v-96c-38 18-73 31-106 40-34 8-66 13-96 13-54 0-96-11-125-31-29-21-43-51-43-89 0-32 9-57 29-73 19-17 56-30 110-40l60-12c73-14 127-39 162-74 35-36 53-83 53-142 0-71-24-124-71-160-48-36-117-54-208-54-35 0-72 4-111 11S110 16 69 32v102c40-23 79-40 117-51 38-12 76-17 114-17 56 0 99 11 130 33 30 22 46 53 46 95 0 36-11 64-33 84s-58 35-108 45l-60 12c-74 14-127 37-160 69-33 31-49 74-49 130 0 64 22 115 68 152 45 37 108 56 188 56 34 0 68-3 104-9 35-6 71-16 109-28z"/></symbol><symbol id="C"><path transform="matrix(.001 0 0 .001 -.055 .013)" d="M454 464v296h90V0h-90v82c-19-33-43-57-72-72s-63-23-103-23c-66 0-120 26-162 78S55 187 55 273s20 155 62 208c42 52 96 79 162 79 40 0 74-8 103-24s53-40 72-72zM148 273c0-66 13-118 40-156s64-56 112-56 85 18 113 56c27 38 41 90 41 156s-14 117-41 155c-28 38-65 57-113 57s-85-19-112-57-40-89-40-155z"/></symbol><use xlink:href="#p" transform="matrix(10 0 0 -10 173.742 58.066)"/><use xlink:href="#g" transform="matrix(10 0 0 -10 181.402 58.066)"/><use xlink:href="#l" transform="matrix(10 0 0 -10 183.782 58.196)"/><use xlink:href="#q" transform="matrix(10 0 0 -10 188.722 58.066)"/><use xlink:href="#r" transform="matrix(10 0 0 -10 192.972 58.196)"/><use xlink:href="#s" transform="matrix(10 0 0 -10 199.412 58.066)"/><use xlink:href="#t" transform="matrix(10 0 0 -10 205.392 58.196)"/><use xlink:href="#i" transform="matrix(10 0 0 -10 210.892 58.196)"/><use xlink:href="#j" transform="matrix(10 0 0 -10 216.492 58.066)"/><use xlink:href="#y" transform="matrix(10 0 0 -10 220.582 58.196)"/><use xlink:href="#i" transform="matrix(10 0 0 -10 226.572 58.196)"/><use xlink:href="#q" transform="matrix(10 0 0 -10 232.442 58.066)"/><use xlink:href="#z" transform="matrix(10 0 0 -10 236.512 58.066)"/><use xlink:href="#i" transform="matrix(10 0 0 -10 244.822 58.196)"/><use xlink:href="#i" transform="matrix(10 0 0 -10 250.972 58.196)"/><use xlink:href="#s" transform="matrix(10 0 0 -10 257.482 58.066)"/><use xlink:href="#j" transform="matrix(10 0 0 -10 262.912 58.066)"/><use xlink:href="#A" transform="matrix(10 0 0 -10 266.652 58.196)"/><use xlink:href="#B" transform="matrix(10 0 0 -10 274.622 58.196)"/><use xlink:href="#j" transform="matrix(10 0 0 -10 280.312 58.066)"/><use xlink:href="#r" transform="matrix(10 0 0 -10 284.092 58.196)"/><use xlink:href="#s" transform="matrix(10 0 0 -10 290.532 58.066)"/><use xlink:href="#C" transform="matrix(10 0 0 -10 296.512 58.196)"/><use xlink:href="#j" transform="matrix(10 0 0 -10 302.312 58.066)"/><use xlink:href="#f" transform="matrix(10 0 0 -10 305.472 58.066)"/><use xlink:href="#B" transform="matrix(10 0 0 -10 312.262 58.196)"/><use xlink:href="#j" transform="matrix(10 0 0 -10 317.952 58.066)"/><use xlink:href="#b" transform="matrix(10 0 0 -10 322.232 58.066)"/><path stroke-width="2.5" stroke-dasharray="9.25,4" stroke-linejoin="round" fill="none" stroke="red" d="M144.762 69.238h20"/><use xlink:href="#p" transform="matrix(10 0 0 -10 173.742 72.738)"/><use xlink:href="#g" transform="matrix(10 0 0 -10 181.402 72.738)"/><use xlink:href="#l" transform="matrix(10 0 0 -10 183.782 72.868)"/><use xlink:href="#q" transform="matrix(10 0 0 -10 188.722 72.738)"/><use xlink:href="#r" transform="matrix(10 0 0 -10 192.972 72.868)"/><use xlink:href="#s" transform="matrix(10 0 0 -10 199.412 72.738)"/><use xlink:href="#t" transform="matrix(10 0 0 -10 205.392 72.868)"/><use xlink:href="#i" transform="matrix(10 0 0 -10 210.892 72.868)"/><use xlink:href="#j" transform="matrix(10 0 0 -10 216.492 72.738)"/><use xlink:href="#y" transform="matrix(10 0 0 -10 220.582 72.868)"/><use xlink:href="#i" transform="matrix(10 0 0 -10 226.572 72.868)"/><use xlink:href="#q" transform="matrix(10 0 0 -10 232.442 72.738)"/><use xlink:href="#z" transform="matrix(10 0 0 -10 236.512 72.738)"/><use xlink:href="#i" transform="matrix(10 0 0 -10 244.822 72.868)"/><use xlink:href="#i" transform="matrix(10 0 0 -10 250.972 72.868)"/><use xlink:href="#s" transform="matrix(10 0 0 -10 257.482 72.738)"/><use xlink:href="#j" transform="matrix(10 0 0 -10 262.912 72.738)"/><use xlink:href="#A" transform="matrix(10 0 0 -10 266.652 72.868)"/><use xlink:href="#B" transform="matrix(10 0 0 -10 274.622 72.868)"/><use xlink:href="#j" transform="matrix(10 0 0 -10 280.312 72.738)"/><use xlink:href="#r" transform="matrix(10 0 0 -10 284.092 72.868)"/><use xlink:href="#s" transform="matrix(10 0 0 -10 290.532 72.738)"/><use xlink:href="#C" transform="matrix(10 0 0 -10 296.512 72.868)"/><use xlink:href="#j" transform="matrix(10 0 0 -10 302.312 72.738)"/><use xlink:href="#f" transform="matrix(10 0 0 -10 305.472 72.738)"/><use xlink:href="#B" transform="matrix(10 0 0 -10 312.262 72.868)"/><use xlink:href="#j" transform="matrix(10 0 0 -10 317.952 72.738)"/><use xlink:href="#c" transform="matrix(10 0 0 -10 321.862 72.738)"/><path d="m151.762 87.785 6-6m-6 0 6 6" fill="orange"/><path stroke-width="2.5" stroke-linejoin="round" fill="none" stroke="orange" d="m151.762 87.785 6-6m-6 0 6 6"/><symbol id="D"><path transform="translate(-.107) scale(.001)" d="M107 124h103V0H107v124z"/></symbol><symbol id="E"><path transform="matrix(.001 0 0 .001 -.106 -.172)" d="M106 454h626v-82H106v82zm0-199h626v-83H106v83z"/></symbol><symbol id="F"><path transform="translate(-.082) scale(.001)" d="M82 729h469v-42L286 0H183l249 646H82v83z"/></symbol><use xlink:href="#h" transform="matrix(10 0 0 -10 173.672 87.41)"/><use xlink:href="#g" transform="matrix(10 0 0 -10 183.442 87.41)"/><use xlink:href="#s" transform="matrix(10 0 0 -10 186.192 87.41)"/><use xlink:href="#D" transform="matrix(10 0 0 -10 192.692 87.41)"/><use xlink:href="#j" transform="matrix(10 0 0 -10 194.802 87.41)"/><use xlink:href="#C" transform="matrix(10 0 0 -10 198.532 87.54)"/><use xlink:href="#g" transform="matrix(10 0 0 -10 205.272 87.41)"/><use xlink:href="#l" transform="matrix(10 0 0 -10 207.652 87.54)"/><use xlink:href="#q" transform="matrix(10 0 0 -10 212.592 87.41)"/><use xlink:href="#r" transform="matrix(10 0 0 -10 216.842 87.54)"/><use xlink:href="#s" transform="matrix(10 0 0 -10 223.282 87.41)"/><use xlink:href="#t" transform="matrix(10 0 0 -10 229.262 87.54)"/><use xlink:href="#i" transform="matrix(10 0 0 -10 234.762 87.54)"/><use xlink:href="#j" transform="matrix(10 0 0 -10 240.362 87.41)"/><use xlink:href="#E" transform="matrix(10 0 0 -10 244.602 85.69)"/><use xlink:href="#j" transform="matrix(10 0 0 -10 251.922 87.41)"/><use xlink:href="#b" transform="matrix(10 0 0 -10 256.202 87.41)"/><use xlink:href="#F" transform="matrix(10 0 0 -10 262.282 87.41)"/><use xlink:href="#D" transform="matrix(10 0 0 -10 268.892 87.41)"/><use xlink:href="#b" transform="matrix(10 0 0 -10 272.102 87.41)"/><use xlink:href="#n" transform="matrix(10 0 0 -10 278.062 87.54)"/><use xlink:href="#j" transform="matrix(10 0 0 -10 283.722 87.41)"/><use xlink:href="#h" transform="matrix(10 0 0 -10 287.812 87.41)"/><path d="M151.762 99.456h6m-3 3v-6" fill="green"/><path stroke-width="2.5" stroke-linejoin="round" fill="none" stroke="green" d="M151.762 99.456h6m-3 3v-6"/><use xlink:href="#h" transform="matrix(10 0 0 -10 173.672 102.081)"/><use xlink:href="#g" transform="matrix(10 0 0 -10 183.442 102.081)"/><use xlink:href="#s" transform="matrix(10 0 0 -10 186.192 102.081)"/><use xlink:href="#D" transform="matrix(10 0 0 -10 192.692 102.081)"/><use xlink:href="#j" transform="matrix(10 0 0 -10 194.802 102.081)"/><use xlink:href="#C" transform="matrix(10 0 0 -10 198.532 102.211)"/><use xlink:href="#g" transform="matrix(10 0 0 -10 205.272 102.081)"/><use xlink:href="#l" transform="matrix(10 0 0 -10 207.652 102.211)"/><use xlink:href="#q" transform="matrix(10 0 0 -10 212.592 102.081)"/><use xlink:href="#r" transform="matrix(10 0 0 -10 216.842 102.211)"/><use xlink:href="#s" transform="matrix(10 0 0 -10 223.282 102.081)"/><use xlink:href="#t" transform="matrix(10 0 0 -10 229.262 102.211)"/><use xlink:href="#i" transform="matrix(10 0 0 -10 234.762 102.211)"/><use xlink:href="#j" transform="matrix(10 0 0 -10 240.362 102.081)"/><use xlink:href="#E" transform="matrix(10 0 0 -10 244.602 100.361)"/><use xlink:href="#j" transform="matrix(10 0 0 -10 251.922 102.081)"/><use xlink:href="#b" transform="matrix(10 0 0 -10 256.202 102.081)"/><use xlink:href="#o" transform="matrix(10 0 0 -10 262.142 102.211)"/><use xlink:href="#D" transform="matrix(10 0 0 -10 268.892 102.081)"/><use xlink:href="#e" transform="matrix(10 0 0 -10 271.492 102.081)"/><use xlink:href="#e" transform="matrix(10 0 0 -10 277.852 102.081)"/><use xlink:href="#j" transform="matrix(10 0 0 -10 283.722 102.081)"/><use xlink:href="#h" transform="matrix(10 0 0 -10 287.812 102.081)"/></svg>