<?xml version="1.0" encoding="UTF-8" standalone="no"?>
<svg
   width="307pt"
   height="396"
   viewBox="0 0 307 297"
   version="1.1"
   id="svg1714"
   sodipodi:docname="Orientation-cropped_new.svg"
   inkscape:version="1.2.2 (732a01da63, 2022-12-09)"
   xmlns:inkscape="http://www.inkscape.org/namespaces/inkscape"
   xmlns:sodipodi="http://sodipodi.sourceforge.net/DTD/sodipodi-0.dtd"
   xmlns:xlink="http://www.w3.org/1999/xlink"
   xmlns="http://www.w3.org/2000/svg"
   xmlns:svg="http://www.w3.org/2000/svg">
  <defs
     id="defs1718" />
  <sodipodi:namedview
     id="namedview1716"
     pagecolor="#ffffff"
     bordercolor="#999999"
     borderopacity="1"
     inkscape:showpageshadow="0"
     inkscape:pageopacity="0"
     inkscape:pagecheckerboard="0"
     inkscape:deskcolor="#d1d1d1"
     inkscape:document-units="pt"
     showgrid="false"
     inkscape:zoom="5.7070707"
     inkscape:cx="40.651327"
     inkscape:cy="214.4708"
     inkscape:window-width="1366"
     inkscape:window-height="745"
     inkscape:window-x="-8"
     inkscape:window-y="-8"
     inkscape:window-maximized="1"
     inkscape:current-layer="g1712" />
  <clipPath
     id="a">
    <path
       transform="matrix(1 0 0 -1 -63 305)"
       d="M0 0h460.8v345.6H0z"
       id="path1381" />
  </clipPath>
  <g
     clip-path="url(#a)"
     id="g1712">
    <path
       d="M-63 305h460.8V-40.6H-63z"
       fill="#fff"
       id="path1384" />
    <path
       d="M40.104 266.984h266.112V.872H40.104z"
       fill="#fff"
       id="path1386" />
    <path
       stroke-width=".8"
       stroke-linejoin="round"
       fill="none"
       stroke="#000"
       d="M50.285 266.984v3.5"
       id="path1388" />
    <symbol
       id="b">
      <path
         transform="matrix(.001 0 0 .001 -.066 .013)"
         d="M318 664c-51 0-89-25-115-75s-38-125-38-225 12-175 38-225 64-75 115-75 89 25 115 75c25 50 38 125 38 225s-13 175-38 225c-26 50-64 75-115 75zm0 78c81 0 143-33 187-97 43-65 65-159 65-281 0-123-22-217-65-281-44-64-106-96-188-96S173 19 130 83 66 241 66 364c0 122 21 216 64 281 43 64 106 97 188 97z"
         id="path1390" />
    </symbol>
    <use
       xlink:href="#b"
       transform="matrix(10 0 0 -10 47.766 281.708)"
       id="use1393" />
    <path
       stroke-width=".8"
       stroke-linejoin="round"
       fill="none"
       stroke="#000"
       d="M109.194 266.984v3.5"
       id="path1395" />
    <symbol
       id="c">
      <path
         transform="translate(-.11) scale(.001)"
         d="M124 83h161v556l-175-35v90l174 35h99V83h161V0H124v83z"
         id="path1397" />
    </symbol>
    <use
       xlink:href="#c"
       transform="matrix(10 0 0 -10 103.935 281.578)"
       id="use1400" />
    <use
       xlink:href="#b"
       transform="matrix(10 0 0 -10 109.855 281.708)"
       id="use1402" />
    <path
       stroke-width=".8"
       stroke-linejoin="round"
       fill="none"
       stroke="#000"
       d="M168.103 266.984v3.5"
       id="path1404" />
    <symbol
       id="d">
      <path
         transform="translate(-.073) scale(.001)"
         d="M192 83h344V0H73v83c37 38 88 90 153 156 64 65 105 107 122 126 32 35 54 65 66 90 12 24 19 49 19 73 0 38-14 70-41 94s-62 37-106 37c-31 0-64-6-98-16-34-11-71-27-110-49v100c40 16 77 28 111 36s66 12 95 12c75 0 135-19 180-57s68-88 68-151c0-30-6-59-17-85-11-27-31-59-61-95-8-10-34-37-78-82S271 164 192 83z"
         id="path1406" />
    </symbol>
    <use
       xlink:href="#d"
       transform="matrix(10 0 0 -10 162.473 281.578)"
       id="use1409" />
    <use
       xlink:href="#b"
       transform="matrix(10 0 0 -10 168.763 281.708)"
       id="use1411" />
    <path
       stroke-width=".8"
       stroke-linejoin="round"
       fill="none"
       stroke="#000"
       d="M227.011 266.984v3.5"
       id="path1413" />
    <symbol
       id="e">
      <path
         transform="matrix(.001 0 0 .001 -.076 .013)"
         d="M406 393c47-10 84-31 110-63s40-72 40-118c0-72-25-128-74-167-50-39-120-58-211-58-31 0-63 3-95 9-32 5-66 14-100 26v95c27-16 57-28 90-36 32-8 66-12 102-12 62 0 109 12 141 36s49 60 49 107c0 42-15 76-45 100s-72 37-126 37h-85v81h89c48 0 85 9 111 29 26 19 39 47 39 84s-14 66-40 86c-27 20-65 30-114 30-27 0-56-3-87-9s-65-15-102-27v88c37 10 72 18 105 23 32 5 63 8 93 8 74 0 133-17 177-51s66-80 66-138c0-40-12-74-35-102s-56-48-98-58z"
         id="path1415" />
    </symbol>
    <use
       xlink:href="#e"
       transform="matrix(10 0 0 -10 221.412 281.708)"
       id="use1418" />
    <use
       xlink:href="#b"
       transform="matrix(10 0 0 -10 227.672 281.708)"
       id="use1420" />
    <path
       stroke-width=".8"
       stroke-linejoin="round"
       fill="none"
       stroke="#000"
       d="M285.92 266.984v3.5"
       id="path1422" />
    <symbol
       id="f">
      <path
         transform="translate(-.049) scale(.001)"
         d="M378 643 129 254h249v389zm-26 86h124V254h104v-82H476V0h-98v172H49v95l303 462z"
         id="path1424" />
    </symbol>
    <use
       xlink:href="#f"
       transform="matrix(10 0 0 -10 280.05 281.578)"
       id="use1427" />
    <use
       xlink:href="#b"
       transform="matrix(10 0 0 -10 286.58 281.708)"
       id="use1429" />
    <symbol
       id="g">
      <path
         transform="translate(.002) scale(.001)"
         d="M-2 729h616v-83H355V0h-99v646H-2v83z"
         id="path1431" />
    </symbol>
    <symbol
       id="h">
      <path
         transform="translate(-.094) scale(.001)"
         d="M94 547h90V0H94v547zm0 213h90V646H94v114z"
         id="path1434" />
    </symbol>
    <symbol
       id="i">
      <path
         transform="translate(-.091) scale(.001)"
         d="M520 442c22 40 49 69 80 89 31 19 68 29 111 29 56 0 100-20 131-60s47-97 47-170V0h-90v327c0 52-10 91-28 117-19 25-47 38-85 38-47 0-84-16-111-47s-40-73-40-126V0h-90v327c0 52-10 91-28 117-19 25-48 38-86 38-46 0-83-16-110-47s-40-73-40-126V0H91v547h90v-85c20 33 45 58 74 74 28 16 62 24 102 24s73-10 101-30 48-50 62-88z"
         id="path1437" />
    </symbol>
    <symbol
       id="j">
      <path
         transform="matrix(.001 0 0 .001 -.055 .013)"
         d="M562 296v-44H149c4-62 22-110 56-142 33-32 79-48 139-48 34 0 68 4 100 12s65 21 97 39V28c-32-14-65-25-99-31s-69-10-103-10c-88 0-157 25-208 75S55 181 55 268c0 89 24 160 72 213 48 52 114 79 196 79 74 0 132-24 175-71 42-48 64-112 64-193zm-90 26c-1 49-15 88-41 118-27 29-63 44-107 44-50 0-90-15-120-43s-48-68-52-119h320z"
         id="path1440" />
    </symbol>
    <symbol
       id="l">
      <path
         transform="matrix(.001 0 0 .001 -.086 .131)"
         d="M86 760h207v-70H176V-61h117v-70H86v891z"
         id="path1443" />
    </symbol>
    <symbol
       id="m">
      <path
         transform="matrix(.001 0 0 .001 -.054 .013)"
         d="M443 531v-85c-26 12-52 22-79 29-28 6-56 10-85 10-45 0-79-7-101-21s-33-34-33-61c0-21 8-37 24-49s48-24 96-34l31-7c64-14 109-34 136-58 26-25 40-60 40-104 0-51-20-91-60-120-40-30-96-44-166-44-30 0-60 3-92 8S89 8 54 20v93c33-18 66-31 98-39 32-9 64-13 96-13 42 0 75 7 98 21 22 14 34 35 34 62 0 24-9 43-25 56s-52 26-108 38l-31 7c-56 12-97 30-121 54-25 24-37 57-37 100 0 51 18 91 54 119s88 42 156 42c33 0 64-3 94-8 29-5 56-12 81-21z"
         id="path1446" />
    </symbol>
    <symbol
       id="n">
      <path
         transform="matrix(.001 0 0 .001 -.097 .131)"
         d="M304 760v-891H97v70h117v751H97v70h207z"
         id="path1449" />
    </symbol>
    <use
       xlink:href="#g"
       transform="matrix(10 0 0 -10 152.757 295.25)"
       id="use1452" />
    <use
       xlink:href="#h"
       transform="matrix(10 0 0 -10 159.53 295.25)"
       id="use1454" />
    <use
       xlink:href="#i"
       transform="matrix(10 0 0 -10 162.28 295.25)"
       id="use1456" />
    <use
       xlink:href="#j"
       transform="matrix(10 0 0 -10 171.66 295.38)"
       id="use1458" />
    <use
       xlink:href="#k"
       transform="matrix(10 0 0 -10 177.26 295.25)"
       id="use1460" />
    <use
       xlink:href="#l"
       transform="matrix(10 0 0 -10 181.3 296.56)"
       id="use1462" />
    <use
       xlink:href="#m"
       transform="matrix(10 0 0 -10 184.88 295.38)"
       id="use1464" />
    <use
       xlink:href="#n"
       transform="matrix(10 0 0 -10 190.52 296.56)"
       id="use1466" />
    <path
       stroke-width=".8"
       stroke-linejoin="round"
       fill="none"
       stroke="#000"
       d="M40.104 237.17h-3.5"
       id="path1468" />
    <symbol
       id="o">
      <path
         transform="matrix(.001 0 0 .001 -.07 .013)"
         d="M330 404c-44 0-79-16-105-46s-39-72-39-124c0-53 13-95 39-125s61-45 105-45 79 15 105 45 39 72 39 125c0 52-13 94-39 124s-61 46-105 46zm196 309v-90c-25 12-50 21-75 27-26 6-51 9-75 9-66 0-116-22-150-66s-54-111-58-199c19 28 43 50 72 65s61 23 96 23c73 0 131-23 173-67s64-105 64-181c0-75-23-135-67-180S403-13 330-13c-84 0-149 32-193 96-45 64-67 158-67 281 0 115 27 207 82 275 54 68 128 103 220 103 24 0 49-3 75-7 25-5 51-12 79-22z"
         id="path1470" />
    </symbol>
    <use
       xlink:href="#o"
       transform="matrix(10 0 0 -10 21.085 241.097)"
       id="use1473" />
    <use
       xlink:href="#b"
       transform="matrix(10 0 0 -10 27.405 241.097)"
       id="use1475" />
    <path
       stroke-width=".8"
       stroke-linejoin="round"
       fill="none"
       stroke="#000"
       d="M40.104 197.115h-3.5"
       id="path1477" />
    <symbol
       id="p">
      <path
         transform="matrix(.001 0 0 .001 -.068 .013)"
         d="M318 346c-47 0-84-13-111-38s-40-59-40-103 13-79 40-104 64-37 111-37c46 0 83 12 110 38 27 25 41 59 41 103s-14 78-40 103c-27 25-64 38-111 38zm-99 42c-42 10-75 30-99 59s-35 64-35 106c0 58 20 104 62 138 41 34 98 51 171 51 72 0 129-17 171-51 41-34 62-80 62-138 0-42-12-77-36-106s-56-49-98-59c47-11 84-33 111-65 26-32 40-72 40-118 0-71-22-125-65-162-44-38-106-56-186-56S175 5 132 43c-43 37-64 91-64 162 0 46 13 86 40 118 26 32 63 54 111 65zm-36 156c0-38 11-68 35-89s57-31 100-31c42 0 75 10 99 31s36 51 36 89-12 67-36 88-57 32-99 32c-43 0-76-11-100-32s-35-50-35-88z"
         id="path1479" />
    </symbol>
    <use
       xlink:href="#p"
       transform="matrix(10 0 0 -10 21.065 201.042)"
       id="use1482" />
    <use
       xlink:href="#b"
       transform="matrix(10 0 0 -10 27.405 201.042)"
       id="use1484" />
    <path
       stroke-width=".8"
       stroke-linejoin="round"
       fill="none"
       stroke="#000"
       d="M40.104 157.06h-3.5"
       id="path1486" />
    <use
       xlink:href="#c"
       transform="matrix(10 0 0 -10 15.126 160.856)"
       id="use1488" />
    <use
       xlink:href="#b"
       transform="matrix(10 0 0 -10 21.046 160.986)"
       id="use1490" />
    <use
       xlink:href="#b"
       transform="matrix(10 0 0 -10 27.406 160.986)"
       id="use1492" />
    <path
       stroke-width=".8"
       stroke-linejoin="round"
       fill="none"
       stroke="#000"
       d="M40.104 117.003h-3.5"
       id="path1494" />
    <use
       xlink:href="#c"
       transform="matrix(10 0 0 -10 15.126 120.8)"
       id="use1496" />
    <use
       xlink:href="#d"
       transform="matrix(10 0 0 -10 21.116 120.8)"
       id="use1498" />
    <use
       xlink:href="#b"
       transform="matrix(10 0 0 -10 27.406 120.93)"
       id="use1500" />
    <path
       stroke-width=".8"
       stroke-linejoin="round"
       fill="none"
       stroke="#000"
       d="M40.104 76.948h-3.5"
       id="path1502" />
    <use
       xlink:href="#c"
       transform="matrix(10 0 0 -10 15.126 80.745)"
       id="use1504" />
    <use
       xlink:href="#f"
       transform="matrix(10 0 0 -10 20.876 80.745)"
       id="use1506" />
    <use
       xlink:href="#b"
       transform="matrix(10 0 0 -10 27.406 80.875)"
       id="use1508" />
    <path
       stroke-width=".8"
       stroke-linejoin="round"
       fill="none"
       stroke="#000"
       d="M40.104 36.892h-3.5"
       id="path1510" />
    <use
       xlink:href="#c"
       transform="matrix(10 0 0 -10 15.126 40.689)"
       id="use1512" />
    <use
       xlink:href="#o"
       transform="matrix(10 0 0 -10 21.086 40.819)"
       id="use1514" />
    <use
       xlink:href="#b"
       transform="matrix(10 0 0 -10 27.406 40.819)"
       id="use1516" />
    <symbol
       id="q">
      <path
         transform="matrix(.001 0 0 .001 -.056 .013)"
         d="M394 662c-72 0-129-27-171-80-42-54-63-126-63-218s21-165 63-218c42-54 99-80 171-80 71 0 128 26 170 80 42 53 63 126 63 218s-21 164-63 218c-42 53-99 80-170 80zm0 80c102 0 183-35 245-103 61-68 92-160 92-275 0-116-31-207-92-275C577 21 496-13 394-13 291-13 209 21 148 89c-62 68-92 159-92 275 0 115 30 207 92 275 61 68 143 103 246 103z"
         id="path1518" />
    </symbol>
    <symbol
       id="r">
      <path
         transform="translate(-.091) scale(.001)"
         d="M411 463c-10 6-21 10-33 13-12 2-25 4-39 4-51 0-90-17-117-50-28-33-41-80-41-142V0H91v547h90v-85c18 33 43 58 73 74s67 24 111 24c6 0 13-1 21-1 7-1 15-2 25-4v-92z"
         id="path1521" />
    </symbol>
    <symbol
       id="s">
      <path
         transform="translate(-.027) scale(.001)"
         d="M183 702V547h185v-70H183V180c0-45 6-74 18-86 12-13 37-19 75-19h92V0h-92c-70 0-118 13-144 39s-39 73-39 141v297H27v70h66v155h90z"
         id="path1524" />
    </symbol>
    <symbol
       id="t">
      <path
         transform="translate(-.091) scale(.001)"
         d="M549 330V0h-90v327c0 52-11 90-31 116s-50 39-90 39c-49 0-87-16-115-47s-42-73-42-126V0H91v547h90v-85c21 32 46 57 76 73 29 16 63 25 101 25 62 0 110-20 142-59s49-96 49-171z"
         id="path1527" />
    </symbol>
    <symbol
       id="u">
      <path
         transform="matrix(.001 0 0 .001 -.06 .013)"
         d="M343 275c-73 0-123-9-151-25-28-17-42-45-42-85 0-32 10-58 31-76 21-19 50-28 86-28 50 0 90 17 120 53 30 35 45 82 45 141v20h-89zm179 37V0h-90v83c-21-34-47-58-77-73s-68-23-112-23c-56 0-101 15-134 46s-49 73-49 126c0 61 20 107 62 139 41 31 102 47 184 47h126v9c0 41-14 73-41 96-27 22-65 34-114 34-32 0-62-4-92-12s-58-19-85-33v83c32 12 64 22 95 28s61 10 91 10c79 0 138-21 177-62s59-103 59-186z"
         id="path1530" />
    </symbol>
    <symbol
       id="v">
      <path
         transform="matrix(.001 0 0 .001 -.055 .013)"
         d="M306 484c-48 0-86-19-114-57s-42-89-42-154c0-66 13-117 41-155s66-56 115-56c48 0 86 18 114 56s42 89 42 155c0 64-14 116-42 154s-66 57-114 57zm0 76c78 0 139-26 184-76 44-51 67-121 67-211s-23-160-67-210c-45-51-106-76-184-76-79 0-141 25-185 76-44 50-66 120-66 210s22 160 66 211c44 50 106 76 185 76z"
         id="path1533" />
    </symbol>
    <symbol
       id="w">
      <path
         transform="matrix(.001 0 0 .001 -.095 -.432)"
         d="M250 679c-26 0-48-9-66-27s-27-40-27-66 9-48 27-66 40-26 66-26 48 8 66 26 27 40 27 66-9 48-27 66-40 27-66 27zm0 63c20 0 40-4 60-12 19-8 36-20 50-34 14-15 25-32 33-50 8-19 12-39 12-60 0-44-16-80-46-110s-67-44-110-44c-44 0-81 14-110 44-30 29-44 66-44 110 0 43 15 80 45 110s66 46 110 46z"
         id="path1536" />
    </symbol>
    <use
       xlink:href="#q"
       transform="matrix(0,-10,-10,0,8.078,167.071)"
       id="use1539" />
    <use
       xlink:href="#r"
       transform="matrix(0,-10,-10,0,7.948,158.851)"
       id="use1541" />
    <use
       xlink:href="#h"
       transform="matrix(0,-10,-10,0,7.948,154.711)"
       id="use1543" />
    <use
       xlink:href="#j"
       transform="matrix(0 -10 -10 0 8.078 152.901)"
       id="use1547" />
    <use
       xlink:href="#t"
       transform="matrix(0 -10 -10 0 7.948 146.391)"
       id="use1549" />
    <use
       xlink:href="#s"
       transform="matrix(0 -10 -10 0 7.948 140.691)"
       id="use1551" />
    <use
       xlink:href="#u"
       transform="matrix(0 -10 -10 0 8.078 136.441)"
       id="use1553" />
    <use
       xlink:href="#s"
       transform="matrix(0 -10 -10 0 7.948 130.641)"
       id="use1555" />
    <use
       xlink:href="#h"
       transform="matrix(0 -10 -10 0 7.948 126.051)"
       id="use1557" />
    <use
       xlink:href="#v"
       transform="matrix(0 -10 -10 0 8.078 123.661)"
       id="use1559" />
    <use
       xlink:href="#t"
       transform="matrix(0 -10 -10 0 7.948 117.181)"
       id="use1561" />
    <use
       xlink:href="#k"
       transform="matrix(0 -10 -10 0 7.948 111.751)"
       id="use1563" />
    <use
       xlink:href="#l"
       transform="matrix(0 -10 -10 0 9.258 107.711)"
       id="use1565" />
    <use
       xlink:href="#w"
       transform="matrix(0 -10 -10 0 3.628 103.721)"
       id="use1567" />
    <use
       xlink:href="#n"
       transform="matrix(0 -10 -10 0 9.258 98.701)"
       id="use1569" />
    <clipPath
       id="x">
      <path
         transform="matrix(1 0 0 -1 -63 305)"
         d="M103.104 38.016h266.112v266.112H103.104z"
         id="path1571" />
    </clipPath>
    <g
       clip-path="url(#x)"
       id="g1576">
      <path
         stroke-width="2.5"
         stroke-linecap="square"
         stroke-linejoin="round"
         fill="none"
         stroke="teal"
         d="M52.2 177.085h.13l.13.277.258-.156.071.223.165-.127.194.08.955-.148.235-.078.183.137.065-.277.124.068 1.054-.288.118.06.2-.106.242.114.064-.217.065.059.365-.044.13-.101.118.055.96-.224.253.007.195-.09.123.052.077-.092.253-.04.177-.09.088.099.207-.132 1.773-.56.118.049.241-.035.695-.104.566.1.123-.083.048.088.117-.04.23.09.448.009.241.087.513.09.677.05.106.083.183-.081.17.084 1.09.091.319.084.135-.04.318.084.13-.04.13.082h.276l.242.083.183-.04 3.781.927.118-.04.407.12.424.079 1.632.552.83.25 1.691-.082.295-.081.341.037.153-.08.13.079.542-.082.507.037 7.216-.122.436-.04.241.04.371.04 2.68.078.378.039.683.08.271-.001.106-.04.348.119.33-.04 2.356.079.13.04.111-.039.148.079.212-.04.495.079 3.528-.001.365 2.237.495 1.049.283-.053.825-1.789.754-2.28.46-2.169.777-3.75.825-4.403.73-4.304.265-1.065.448-2.22.395-1.78 1.396-8.247 2.71-19.928.376-2.723 2.557-17.706.448-2.088 2.232-10.246.578-1.636 1.325-3.944.395-1.075.454.799.294.223.4-.258.76-1.997.772-3.486.442-2.389 5.98-23.23 3.822-19.727 2.392-10.544.5-2.408.49-2.1.76-2.386.724-1.618.366-.436.4-.445 1.084-.504.583-.093 1.149.213.842.37 2.145 1.35.453-2.204.424-1.377.218-.17.313.11.483.595.46.57 1.189 2.643 2.433 12.023 2.286 15.694.9 10.482 1.491 20.463 2.421 44.204.23 6.731.601 22.918.648 22.136.76 18.545.406 6.408.472 4.562.235 1.516.218.593.218.08.206-.348.684-2.618.713-3.35.33-1.255.712-1.562.913-3.431.69-3.34.789-6.452.277-2.991.318-2.677 2.009-28.077.813-12.655 2.285-32.094.265-2.394 2.18-30.059.766-9.51.353-4.728.713-7.016.324-4.402.248-1.254.671-7.627.26-1.636.388-4.27.407-2.855 1.207-8.636 1.125-6.252.578-1.614.5-.931.76-.892.283-.145.377.097 1.732 1.479 1.107.734 1.002.84.866 1.26 1.632 3.808.489 1.387.76 1.753 1 3.122 1.562 4.05.701 2.4 1.39 4.73.336-1.992.194-.414.224-.077.4.419.396 1.365.553 3.063.825 5.27.4.728 2.062 13.035 2.145 18.743.4 7.088.43 9.86.189 1.748.394 7.414.908 14.039.377 8.47.23 2.261.482 11.401.837 17.154 2.144 46.676.354 7.474.577 11.616.212 2.21.354 7.799.188 1.726.2 3.41.254 3.037.282 3.968.619 5.085.677 3.395.283.289h.212l.607-1.067.713-1.835.235-.615.454-.847 1.655-2.473.519-1.18 1.49-6.282.224-1.39.177-.6.518-3.781 1.45-10.29.323-2.796.342-2.84.236-.898.37-3.837.301-1.924.189-1 .206-2.798.495-3.757.188-.946.354-3.651.542-3.323.17-1.69 1.432-7.142.836-2.453.407-.685.288-.483.472-.445.718.054.254.147.347.489.707.775 1.538 1.719.4.373 1.538 2.233.153.555.27.513.584 1.348 2.574 6.941 1.167 2.274 1.13.923.178.055.824.468 1.697 1.194.27.165.248.218.165-.006.26.225 1.484.575.495.023.3-.007.13-.059.124.08 1.237-.222 1.248-.405.148.043.471-.14.736-.197.153-.024 1.167-.175.748-.065.336-.086.6.038.089-.104.242.057.241-.08 3.729-.09.065.05.106-.062.212.087.471-.05.56.107.288.013 1.432.133.324.044.477-.03.1.098.377-.055.477.108.466.013.135.057.183-.061.159.064.153.081.089-.088.2.061.748.125.112-.075.489.099.418-.024.495.088.241-.013.124.081.242-.037.1.044.23-.03 3.681.24 1.055.008.318.03.966-.017.112.089.954-.068.471.088.49-.037.447.044 4.636.154.106-.051.195.075 2.462.154 10.291.397.277-.068.165.03 2.386.14"
         id="path1574" />
    </g>
    <clipPath
       id="y">
      <path
         transform="matrix(1 0 0 -1 -63 305)"
         d="M103.104 38.016h266.112v266.112H103.104z"
         id="path1578" />
    </clipPath>
    <g
       clip-path="url(#y)"
       id="g1583">
      <path
         stroke-width="2.5"
         stroke-dasharray="9.25,4"
         stroke-linejoin="round"
         fill="none"
         stroke="red"
         d="m52.2 178.23 46.573.12.171-61.347h1.278l.165-6.008h.118l.106 6.008h2.027l.088-6.008h1.037l.076 6.008h4.142l.117-6.008h2.704l.218-6.008h1.791l.212-6.009h1.726l.147-6.008h2.263l.123-60.083H141.6l.212 154.209 1.425.46.642.213h9.974l.241-148.874.448 12.017h.212l.677 18.025.63 18.025.366 18.025.236-6.009h.76l.247-6.008h.624l.254-6.008H159l.218-6.009h.63l.26-6.008h.253l.23 6.008h.406l.153 6.009h.713l.236 6.008h.53l.147 6.008h.507l.183-6.008h.583l.206-6.008h.442l.153-6.009h.389l.141-6.008h.666l.141-6.008h1.002l.159 6.008h.96l.536-12.017h.265l.277-6.008h.188l.212-6.008h.171l.265-6.009h22.51l.158 154.975 1.585.775 1.055.465 1.001.464.725.183.842.315 1.785.577.972.297.795.304.678.212 1.001.212 2.775.42 2.633.057 3.257-.298 1.98-.23 2.74-.285 1.866-.149 4.749-.04 11.275.797 33.036 1.037 19.168.642 7.311.26"
         id="path1581" />
    </g>
    <path
       stroke-width=".8"
       stroke-linecap="square"
       stroke-miterlimit="10"
       fill="none"
       stroke="#000"
       d="M40.104 266.984V.872M306.216 266.984V.872M40.104 266.984h266.112M40.104.872h266.112"
       id="path1585" />
    <path
       d="M47.104 261.984h153.36c1.333 0 2-.667 2-2V231.64c0-1.333-.667-2-2-2H47.103c-1.333 0-2 .667-2 2v28.344c0 1.333.667 2 2 2z"
       fill="#fff"
       fill-opacity=".8"
       id="path1587" />
    <path
       stroke-miterlimit="10"
       fill="none"
       stroke="#d5d6d5"
       stroke-opacity=".8"
       d="M47.104 261.984h153.36c1.333 0 2-.667 2-2V231.64c0-1.333-.667-2-2-2H47.103c-1.333 0-2 .667-2 2v28.344c0 1.333.667 2 2 2z"
       id="path1589" />
    <path
       stroke-width="2.5"
       stroke-linecap="square"
       stroke-linejoin="round"
       fill="none"
       stroke="teal"
       d="M49.104 237.734h20"
       id="path1591" />
    <symbol
       id="z">
      <path
         transform="matrix(.001 0 0 .001 -.056 .013)"
         d="M644 673V569c-34 30-69 53-107 69-38 15-77 23-119 23-84 0-148-26-192-77s-66-124-66-220 22-170 66-221 108-76 192-76c42 0 81 7 119 23 38 15 73 38 107 69V56c-35-24-72-41-110-52s-79-17-122-17C302-13 215 20 151 87S56 246 56 364c0 117 31 209 95 277 64 67 151 101 261 101 44 0 85-6 123-17 38-12 75-29 109-52z"
         id="path1593" />
    </symbol>
    <symbol
       id="A">
      <path
         transform="matrix(.001 0 0 .001 -.085 .013)"
         d="M85 216v331h90V219c0-52 10-90 30-116s50-39 91-39c48 0 87 15 115 46s42 73 42 127v310h90V0h-90v84c-22-34-48-58-76-74-29-15-62-23-100-23-63 0-111 19-143 58-33 38-49 95-49 171zm226 344z"
         id="path1596" />
    </symbol>
    <symbol
       id="B">
      <path
         transform="matrix(.001 0 0 .001 -.086 .131)"
         d="M310 759c-44-76-76-150-97-223-22-73-32-147-32-222 0-76 10-150 32-223 21-74 53-147 97-222h-78C183-54 146 20 122 94S86 241 86 314c0 72 12 145 36 219s60 149 110 226h78z"
         id="path1599" />
    </symbol>
    <symbol
       id="C">
      <path
         transform="matrix(.001 0 0 .001 -.066 .013)"
         d="M535 705v-96c-38 18-73 31-106 40-34 8-66 13-96 13-54 0-96-11-125-31-29-21-43-51-43-89 0-32 9-57 29-73 19-17 56-30 110-40l60-12c73-14 127-39 162-74 35-36 53-83 53-142 0-71-24-124-71-160-48-36-117-54-208-54-35 0-72 4-111 11S110 16 69 32v102c40-23 79-40 117-51 38-12 76-17 114-17 56 0 99 11 130 33 30 22 46 53 46 95 0 36-11 64-33 84s-58 35-108 45l-60 12c-74 14-127 37-160 69-33 31-49 74-49 130 0 64 22 115 68 152 45 37 108 56 188 56 34 0 68-3 104-9 35-6 71-16 109-28z"
         id="path1602" />
    </symbol>
    <symbol
       id="D">
      <path
         transform="matrix(.001 0 0 .001 -.08 .131)"
         d="M80 759h78c48-77 85-152 109-226s37-147 37-219c0-73-13-146-37-220S206-54 158-131H80c43 75 75 148 97 222 21 73 32 147 32 223 0 75-11 149-32 222-22 73-54 147-97 223z"
         id="path1605" />
    </symbol>
    <use
       xlink:href="#z"
       transform="matrix(10 0 0 -10 77.664 241.364)"
       id="use1608" />
    <use
       xlink:href="#A"
       transform="matrix(10 0 0 -10 84.934 241.364)"
       id="use1610" />
    <use
       xlink:href="#r"
       transform="matrix(10 0 0 -10 91.334 241.234)"
       id="use1612" />
    <use
       xlink:href="#r"
       transform="matrix(10 0 0 -10 95.272 241.234)"
       id="use1614" />
    <use
       xlink:href="#j"
       transform="matrix(10 0 0 -10 98.803 241.364)"
       id="use1616" />
    <use
       xlink:href="#t"
       transform="matrix(10 0 0 -10 105.313 241.234)"
       id="use1618" />
    <use
       xlink:href="#s"
       transform="matrix(10 0 0 -10 111.013 241.234)"
       id="use1620" />
    <use
       xlink:href="#k"
       transform="matrix(10 0 0 -10 114.663 241.234)"
       id="use1622" />
    <use
       xlink:href="#v"
       transform="matrix(10 0 0 -10 118.393 241.364)"
       id="use1624" />
    <use
       xlink:href="#r"
       transform="matrix(10 0 0 -10 124.873 241.234)"
       id="use1626" />
    <use
       xlink:href="#h"
       transform="matrix(10 0 0 -10 129.013 241.234)"
       id="use1628" />
    <use
       xlink:href="#j"
       transform="matrix(10 0 0 -10 131.403 241.364)"
       id="use1630" />
    <use
       xlink:href="#t"
       transform="matrix(10 0 0 -10 137.913 241.234)"
       id="use1632" />
    <use
       xlink:href="#s"
       transform="matrix(10 0 0 -10 143.613 241.234)"
       id="use1634" />
    <use
       xlink:href="#u"
       transform="matrix(10 0 0 -10 147.863 241.364)"
       id="use1636" />
    <use
       xlink:href="#s"
       transform="matrix(10 0 0 -10 153.663 241.234)"
       id="use1638" />
    <use
       xlink:href="#h"
       transform="matrix(10 0 0 -10 158.253 241.234)"
       id="use1640" />
    <use
       xlink:href="#v"
       transform="matrix(10 0 0 -10 160.643 241.364)"
       id="use1642" />
    <use
       xlink:href="#t"
       transform="matrix(10 0 0 -10 167.123 241.234)"
       id="use1644" />
    <use
       xlink:href="#k"
       transform="matrix(10 0 0 -10 172.553 241.234)"
       id="use1646" />
    <use
       xlink:href="#B"
       transform="matrix(10 0 0 -10 176.593 242.544)"
       id="use1648" />
    <use
       xlink:href="#q"
       transform="matrix(10 0 0 -10 180.193 241.364)"
       id="use1650" />
    <use
       xlink:href="#C"
       transform="matrix(10 0 0 -10 188.163 241.364)"
       id="use1652" />
    <use
       xlink:href="#D"
       transform="matrix(10 0 0 -10 194.653 242.544)"
       id="use1654" />
    <path
       stroke-width="2.5"
       stroke-dasharray="9.25,4"
       stroke-linejoin="round"
       fill="none"
       stroke="red"
       d="M49.104 252.406h20"
       id="path1656" />
    <symbol
       id="E">
      <path
         transform="translate(-.098) scale(.001)"
         d="M197 648V81h119c100 0 174 22 221 68 46 46 70 118 70 216s-24 169-70 215c-47 45-121 68-221 68H197zm-99 81h203c141 0 245-30 311-88 66-59 99-151 99-276 0-126-34-218-100-277S441 0 301 0H98v729z"
         id="path1658" />
    </symbol>
    <symbol
       id="F">
      <path
         transform="matrix(.001 0 0 .001 -.055 .013)"
         d="M454 464v296h90V0h-90v82c-19-33-43-57-72-72s-63-23-103-23c-66 0-120 26-162 78S55 187 55 273s20 155 62 208c42 52 96 79 162 79 40 0 74-8 103-24s53-40 72-72zM148 273c0-66 13-118 40-156s64-56 112-56 85 18 113 56c27 38 41 90 41 156s-14 117-41 155c-28 38-65 57-113 57s-85-19-112-57-40-89-40-155z"
         id="path1661" />
    </symbol>
    <use
       xlink:href="#E"
       transform="matrix(10 0 0 -10 78.084 255.906)"
       id="use1664" />
    <use
       xlink:href="#j"
       transform="matrix(10 0 0 -10 85.354 256.036)"
       id="use1666" />
    <use
       xlink:href="#m"
       transform="matrix(10 0 0 -10 91.494 256.036)"
       id="use1668" />
    <use
       xlink:href="#h"
       transform="matrix(10 0 0 -10 97.104 255.906)"
       id="use1670" />
    <use
       xlink:href="#r"
       transform="matrix(10 0 0 -10 99.854 255.906)"
       id="use1672" />
    <use
       xlink:href="#j"
       transform="matrix(10 0 0 -10 103.385 256.036)"
       id="use1674" />
    <use
       xlink:href="#F"
       transform="matrix(10 0 0 -10 109.535 256.036)"
       id="use1676" />
    <use
       xlink:href="#k"
       transform="matrix(10 0 0 -10 115.335 255.906)"
       id="use1678" />
    <use
       xlink:href="#v"
       transform="matrix(10 0 0 -10 119.065 256.036)"
       id="use1680" />
    <use
       xlink:href="#r"
       transform="matrix(10 0 0 -10 125.545 255.906)"
       id="use1682" />
    <use
       xlink:href="#h"
       transform="matrix(10 0 0 -10 129.685 255.906)"
       id="use1684" />
    <use
       xlink:href="#j"
       transform="matrix(10 0 0 -10 132.075 256.036)"
       id="use1686" />
    <use
       xlink:href="#t"
       transform="matrix(10 0 0 -10 138.585 255.906)"
       id="use1688" />
    <use
       xlink:href="#s"
       transform="matrix(10 0 0 -10 144.285 255.906)"
       id="use1690" />
    <use
       xlink:href="#u"
       transform="matrix(10 0 0 -10 148.535 256.036)"
       id="use1692" />
    <use
       xlink:href="#s"
       transform="matrix(10 0 0 -10 154.335 255.906)"
       id="use1694" />
    <use
       xlink:href="#h"
       transform="matrix(10 0 0 -10 158.925 255.906)"
       id="use1696" />
    <use
       xlink:href="#v"
       transform="matrix(10 0 0 -10 161.315 256.036)"
       id="use1698" />
    <use
       xlink:href="#t"
       transform="matrix(10 0 0 -10 167.795 255.906)"
       id="use1700" />
    <use
       xlink:href="#k"
       transform="matrix(10 0 0 -10 173.225 255.906)"
       id="use1702" />
    <use
       xlink:href="#B"
       transform="matrix(10 0 0 -10 177.265 257.216)"
       id="use1704" />
    <use
       xlink:href="#q"
       transform="matrix(10 0 0 -10 180.865 256.036)"
       id="use1706" />
    <use
       xlink:href="#C"
       transform="matrix(10 0 0 -10 188.835 256.036)"
       id="use1708" />
    <use
       xlink:href="#D"
       transform="matrix(10 0 0 -10 195.325 257.216)"
       id="use1710" />
  </g>
</svg>
