<svg xmlns="http://www.w3.org/2000/svg" xmlns:xlink="http://www.w3.org/1999/xlink" width="614.4" height="460.8" viewBox="0 0 460.8 345.6"><path d="M0 345.6h460.8V0H0z" fill="#fff"/><path d="M103.104 307.584h266.112V41.472H103.104z" fill="#fff"/><path stroke-width=".8" stroke-linejoin="round" fill="none" stroke="#000" d="M113.285 307.584v3.5"/><symbol id="a"><path transform="matrix(.001 0 0 .001 -.066 .013)" d="M318 664c-51 0-89-25-115-75s-38-125-38-225 12-175 38-225 64-75 115-75 89 25 115 75c25 50 38 125 38 225s-13 175-38 225c-26 50-64 75-115 75zm0 78c81 0 143-33 187-97 43-65 65-159 65-281 0-123-22-217-65-281-44-64-106-96-188-96S173 19 130 83 66 241 66 364c0 122 21 216 64 281 43 64 106 97 188 97z"/></symbol><use xlink:href="#a" transform="matrix(10 0 0 -10 110.766 322.308)"/><path stroke-width=".8" stroke-linejoin="round" fill="none" stroke="#000" d="M172.194 307.584v3.5"/><symbol id="b"><path transform="translate(-.11) scale(.001)" d="M124 83h161v556l-175-35v90l174 35h99V83h161V0H124v83z"/></symbol><use xlink:href="#b" transform="matrix(10 0 0 -10 166.935 322.178)"/><use xlink:href="#a" transform="matrix(10 0 0 -10 172.855 322.308)"/><path stroke-width=".8" stroke-linejoin="round" fill="none" stroke="#000" d="M231.103 307.584v3.5"/><symbol id="c"><path transform="translate(-.073) scale(.001)" d="M192 83h344V0H73v83c37 38 88 90 153 156 64 65 105 107 122 126 32 35 54 65 66 90 12 24 19 49 19 73 0 38-14 70-41 94s-62 37-106 37c-31 0-64-6-98-16-34-11-71-27-110-49v100c40 16 77 28 111 36s66 12 95 12c75 0 135-19 180-57s68-88 68-151c0-30-6-59-17-85-11-27-31-59-61-95-8-10-34-37-78-82S271 164 192 83z"/></symbol><use xlink:href="#c" transform="matrix(10 0 0 -10 225.473 322.178)"/><use xlink:href="#a" transform="matrix(10 0 0 -10 231.763 322.308)"/><path stroke-width=".8" stroke-linejoin="round" fill="none" stroke="#000" d="M290.011 307.584v3.5"/><symbol id="d"><path transform="matrix(.001 0 0 .001 -.076 .013)" d="M406 393c47-10 84-31 110-63s40-72 40-118c0-72-25-128-74-167-50-39-120-58-211-58-31 0-63 3-95 9-32 5-66 14-100 26v95c27-16 57-28 90-36 32-8 66-12 102-12 62 0 109 12 141 36s49 60 49 107c0 42-15 76-45 100s-72 37-126 37h-85v81h89c48 0 85 9 111 29 26 19 39 47 39 84s-14 66-40 86c-27 20-65 30-114 30-27 0-56-3-87-9s-65-15-102-27v88c37 10 72 18 105 23 32 5 63 8 93 8 74 0 133-17 177-51s66-80 66-138c0-40-12-74-35-102s-56-48-98-58z"/></symbol><use xlink:href="#d" transform="matrix(10 0 0 -10 284.412 322.308)"/><use xlink:href="#a" transform="matrix(10 0 0 -10 290.672 322.308)"/><path stroke-width=".8" stroke-linejoin="round" fill="none" stroke="#000" d="M348.92 307.584v3.5"/><symbol id="e"><path transform="translate(-.049) scale(.001)" d="M378 643 129 254h249v389zm-26 86h124V254h104v-82H476V0h-98v172H49v95l303 462z"/></symbol><use xlink:href="#e" transform="matrix(10 0 0 -10 343.05 322.178)"/><use xlink:href="#a" transform="matrix(10 0 0 -10 349.58 322.308)"/><symbol id="f"><path transform="translate(.002) scale(.001)" d="M-2 729h616v-83H355V0h-99v646H-2v83z"/></symbol><symbol id="g"><path transform="translate(-.094) scale(.001)" d="M94 547h90V0H94v547zm0 213h90V646H94v114z"/></symbol><symbol id="h"><path transform="translate(-.091) scale(.001)" d="M520 442c22 40 49 69 80 89 31 19 68 29 111 29 56 0 100-20 131-60s47-97 47-170V0h-90v327c0 52-10 91-28 117-19 25-47 38-85 38-47 0-84-16-111-47s-40-73-40-126V0h-90v327c0 52-10 91-28 117-19 25-48 38-86 38-46 0-83-16-110-47s-40-73-40-126V0H91v547h90v-85c20 33 45 58 74 74 28 16 62 24 102 24s73-10 101-30 48-50 62-88z"/></symbol><symbol id="i"><path transform="matrix(.001 0 0 .001 -.055 .013)" d="M562 296v-44H149c4-62 22-110 56-142 33-32 79-48 139-48 34 0 68 4 100 12s65 21 97 39V28c-32-14-65-25-99-31s-69-10-103-10c-88 0-157 25-208 75S55 181 55 268c0 89 24 160 72 213 48 52 114 79 196 79 74 0 132-24 175-71 42-48 64-112 64-193zm-90 26c-1 49-15 88-41 118-27 29-63 44-107 44-50 0-90-15-120-43s-48-68-52-119h320z"/></symbol><symbol id="k"><path transform="matrix(.001 0 0 .001 -.086 .131)" d="M86 760h207v-70H176V-61h117v-70H86v891z"/></symbol><symbol id="l"><path transform="matrix(.001 0 0 .001 -.054 .013)" d="M443 531v-85c-26 12-52 22-79 29-28 6-56 10-85 10-45 0-79-7-101-21s-33-34-33-61c0-21 8-37 24-49s48-24 96-34l31-7c64-14 109-34 136-58 26-25 40-60 40-104 0-51-20-91-60-120-40-30-96-44-166-44-30 0-60 3-92 8S89 8 54 20v93c33-18 66-31 98-39 32-9 64-13 96-13 42 0 75 7 98 21 22 14 34 35 34 62 0 24-9 43-25 56s-52 26-108 38l-31 7c-56 12-97 30-121 54-25 24-37 57-37 100 0 51 18 91 54 119s88 42 156 42c33 0 64-3 94-8 29-5 56-12 81-21z"/></symbol><symbol id="m"><path transform="matrix(.001 0 0 .001 -.097 .131)" d="M304 760v-891H97v70h117v751H97v70h207z"/></symbol><use xlink:href="#f" transform="matrix(10 0 0 -10 215.757 335.85)"/><use xlink:href="#g" transform="matrix(10 0 0 -10 222.53 335.85)"/><use xlink:href="#h" transform="matrix(10 0 0 -10 225.28 335.85)"/><use xlink:href="#i" transform="matrix(10 0 0 -10 234.66 335.98)"/><use xlink:href="#j" transform="matrix(10 0 0 -10 240.26 335.85)"/><use xlink:href="#k" transform="matrix(10 0 0 -10 244.3 337.16)"/><use xlink:href="#l" transform="matrix(10 0 0 -10 247.88 335.98)"/><use xlink:href="#m" transform="matrix(10 0 0 -10 253.52 337.16)"/><path stroke-width=".8" stroke-linejoin="round" fill="none" stroke="#000" d="M103.104 269.78h-3.5"/><symbol id="n"><path transform="translate(-.107) scale(.001)" d="M107 124h103V0H107v124z"/></symbol><use xlink:href="#b" transform="matrix(10 0 0 -10 81.298 273.576)"/><use xlink:href="#n" transform="matrix(10 0 0 -10 87.628 273.576)"/><use xlink:href="#a" transform="matrix(10 0 0 -10 90.398 273.706)"/><path stroke-width=".8" stroke-linejoin="round" fill="none" stroke="#000" d="M103.104 222.304h-3.5"/><symbol id="o"><path transform="matrix(.001 0 0 .001 -.077 .013)" d="M108 729h387v-83H198V467c14 5 29 9 43 11s29 4 43 4c81 0 145-23 193-67 48-45 72-105 72-181 0-79-25-140-74-183S357-13 269-13c-31 0-62 3-94 7-32 5-64 12-98 23v99c29-16 59-28 91-36 31-8 64-11 99-11 56 0 101 14 134 44 32 30 49 70 49 121 0 50-17 90-49 120-33 30-78 45-134 45-26 0-53-3-79-9s-53-15-80-27v366z"/></symbol><use xlink:href="#b" transform="matrix(10 0 0 -10 81.298 226.101)"/><use xlink:href="#n" transform="matrix(10 0 0 -10 87.628 226.101)"/><use xlink:href="#o" transform="matrix(10 0 0 -10 90.508 226.231)"/><path stroke-width=".8" stroke-linejoin="round" fill="none" stroke="#000" d="M103.104 174.83h-3.5"/><use xlink:href="#c" transform="matrix(10 0 0 -10 80.928 178.626)"/><use xlink:href="#n" transform="matrix(10 0 0 -10 87.628 178.626)"/><use xlink:href="#a" transform="matrix(10 0 0 -10 90.398 178.756)"/><path stroke-width=".8" stroke-linejoin="round" fill="none" stroke="#000" d="M103.104 127.355h-3.5"/><use xlink:href="#c" transform="matrix(10 0 0 -10 80.928 131.151)"/><use xlink:href="#n" transform="matrix(10 0 0 -10 87.628 131.151)"/><use xlink:href="#o" transform="matrix(10 0 0 -10 90.508 131.281)"/><path stroke-width=".8" stroke-linejoin="round" fill="none" stroke="#000" d="M103.104 79.88h-3.5"/><use xlink:href="#d" transform="matrix(10 0 0 -10 80.958 83.807)"/><use xlink:href="#n" transform="matrix(10 0 0 -10 87.628 83.677)"/><use xlink:href="#a" transform="matrix(10 0 0 -10 90.398 83.807)"/><symbol id="p"><path transform="matrix(.001 0 0 .001 -.066 .013)" d="M535 705v-96c-38 18-73 31-106 40-34 8-66 13-96 13-54 0-96-11-125-31-29-21-43-51-43-89 0-32 9-57 29-73 19-17 56-30 110-40l60-12c73-14 127-39 162-74 35-36 53-83 53-142 0-71-24-124-71-160-48-36-117-54-208-54-35 0-72 4-111 11S110 16 69 32v102c40-23 79-40 117-51 38-12 76-17 114-17 56 0 99 11 130 33 30 22 46 53 46 95 0 36-11 64-33 84s-58 35-108 45l-60 12c-74 14-127 37-160 69-33 31-49 74-49 130 0 64 22 115 68 152 45 37 108 56 188 56 34 0 68-3 104-9 35-6 71-16 109-28z"/></symbol><symbol id="q"><path transform="matrix(.001 0 0 .001 -.091 .207)" d="M181 82v-289H91v754h90v-83c18 32 42 56 71 72s64 24 104 24c66 0 120-27 162-79 41-53 62-122 62-208s-21-156-62-208c-42-52-96-78-162-78-40 0-75 8-104 23s-53 39-71 72zm306 191c0 66-14 117-41 155-28 38-65 57-112 57-48 0-85-19-112-57-28-38-41-89-41-155s13-118 41-156c27-38 64-56 112-56 47 0 84 18 112 56 27 38 41 90 41 156z"/></symbol><symbol id="r"><path transform="matrix(.001 0 0 .001 -.055 .013)" d="M454 464v296h90V0h-90v82c-19-33-43-57-72-72s-63-23-103-23c-66 0-120 26-162 78S55 187 55 273s20 155 62 208c42 52 96 79 162 79 40 0 74-8 103-24s53-40 72-72zM148 273c0-66 13-118 40-156s64-56 112-56 85 18 113 56c27 38 41 90 41 156s-14 117-41 155c-28 38-65 57-113 57s-85-19-112-57-40-89-40-155z"/></symbol><symbol id="s"><path transform="matrix(.001 0 0 .001 0 .092)" d="M254 729h83L83-92H0l254 821z"/></symbol><use xlink:href="#p" transform="matrix(0 -10 -10 0 74.25 204.212)"/><use xlink:href="#q" transform="matrix(0 -10 -10 0 76.19 197.612)"/><use xlink:href="#i" transform="matrix(0 -10 -10 0 74.25 191.622)"/><use xlink:href="#i" transform="matrix(0 -10 -10 0 74.25 185.472)"/><use xlink:href="#r" transform="matrix(0 -10 -10 0 74.25 179.322)"/><use xlink:href="#j" transform="matrix(0 -10 -10 0 74.12 173.522)"/><use xlink:href="#k" transform="matrix(0 -10 -10 0 75.43 169.482)"/><use xlink:href="#h" transform="matrix(0 -10 -10 0 74.12 165.532)"/><use xlink:href="#s" transform="matrix(0 -10 -10 0 75.04 156.702)"/><use xlink:href="#l" transform="matrix(0 -10 -10 0 74.25 152.792)"/><use xlink:href="#m" transform="matrix(0 -10 -10 0 75.43 147.152)"/><clipPath id="t"><path transform="matrix(1 0 0 -1 0 345.6)" d="M103.104 38.016h266.112v266.112H103.104z"/></clipPath><g clip-path="url(#t)"><path stroke-width="2.5" stroke-linecap="square" stroke-linejoin="round" fill="none" stroke="teal" d="m115.2 295.488 1.773-76.284 1.196-35.325 1.65-31.93 1.855-21.238.518-4.624.324-3.291 2.369-18.105 1.425-6.716 1.055-3.212.259-.61.206-.581 2.94-6.136.624-.939.548-.826 1.661-1.699h.124l1.525-.935.118-.187.136.04.27-.218.177-.144.248-.18.147-.001.183-.18.37-.25.578-.113.053-5.635.536 6.715.118-.033.136.102.341 1.122.218.18.566.183.177.034.111.033.807-1.043.448-1.011.972-1.48.242-.18.118-.359.447-.614.148-.112 1.06.072.336.18.359.109.289.072.04.145.272.076 1.467-.072.153-.076.283-.003.318-.357.695.075.241-.184.73-.361.236-.108.3-.032.048.032.23-.14.241.068.307-.109.159.144.123-.108h.242l.294-.108.425.216.123-.144.071.072 1.137-.076.17.003.613-.072.59.212.412-.25.5.325.737-.18 1.302-.041.094-.137.283.284.182.218.855-.107 1.402-.04.165-.51.447.402.206-.11.436.041.872-.04.118-.848.247.57.26-.068 1.196-4.181.594-2.479 1.06-3.928.095.12.483.453.424.714.46-.796.182.606.395 2.5.265 1.365.448 2.458.395 1.78.571 3.096 1.314 5.842.683 2.776.224.205.577 1.39.837 1.976.506.979.324.781.295.281.212-.133.73-.54.307.101.247-.012.212-.435.583-.506 1.143-2.61.147-.056 1.385-2.61.318-.715.112-.131.571-1.197.719-1.11.277-1.035.966-3.655 1.643-6.308.236-.572.813-.677.324.272.854 1.335 1.279 3.186 1.714 6.298.288.64.436 1.099.766 1.618.395 1.043 1.903 3.579.589.451 1.897-2.32.936-2.237 1.59-4.428.36-1.011 1.184-3.149.454-.637.642-.864.094.038.1-.121.307-.051.547-.283.937.004.112.171.088-.124.371.024.212-.19.39-.543.176.061.236-.367.253.512.442-.14.165.193.383-.174.135-1.217.318.016.118-.047.088-.185.1.11.118-.19.377-1.409 1.279-4.292.665-1.56.148-2.634.194.056.17-.239.178.077.176-.048.354.714.394 1.787 1.161 8.947 1.608 19.172.448 4.277.448 3.886 1.013 10.354.253 1.372.171-.585.342 2.741 1.237 8.433.442 1.984 1.136 2.14.23 1.119.4 6.689.366 2.828.236.186.247-1.034.236-2.212.277-3.686 1.36-37.423.436-9.832 1.143-18.128.46-4.59.33-3.3.435-1.61.513-.62 1.019 3.866.619 4.494.795 5.778.471 1.849.719 1.27.135.174.189-.033.277.344.394.412.295 1.08.177.36.483 2.467.636 3.805.801 7.623.465 5.9.383 5.127.483 4.107.195 1.779.306.497.141-.423.23.036.153-.56.401-.35.742-1.752.56 1.653.353 1.784.148.243.89 3.196.453.165.206-.323.26-.035.258-.568.39-1.612.252-.572.448-2.8.524-4.516.566-4.042.489-4.187.212-1.748.247-2.864.578-3.747.854-6.589 1.066-6.29.318-.86.483-.651.519-1.74.754-.803.288-.913.136.007.477-.653.336-.698.377-1.04.259-.206.589-.751.471.01.177.089.135-.097 1.02.258.117.174.106-.105 1.173 1.474.123.18.495 1.294.13.096.241.273.16.281.176.074.46.8.288-.182.613-.17.265-.198.324-.511.271.023.088.084.16-.128.159.087.094-.092.182.197.277.241.165-1.278.094-.17.077.152.33-.733 1.26-6.779.49-1.668.159-.324.106.21.141.008.106.227.4.11.124.477.118-2.055.083-3.861.206 3.451.247 2.387.077 1.826.312 1.592.424 5.047.719 9.663.389 3.74.848 7.82.66 4.537.4 3.922.312 3.416 1.055 4.958.424 1.413 1.22 4.02.13.127.824 3.144 1.425 5.18.33.455.424.132.095-.037.895-2.615.354-2.762.188-.804.2-1.976.254-2.05.665-7.293.236-2.674.342-4.41 1.525-17.763.36-2.722.412-1.83.306-1.27.46-1.386.483-.818.7-1.943.248-.261.348-.416.17.012.09.172.082-.218.13.171.57-.115.16.177.153-.15.53 1.14.177.106.294.728.224.357.247.235.224.042.13.193.33 1.344.595 1.419.36.741.953 2.54.183.065 1.432 2.108.141.008.112-.123.135.062.324-.292.483-.795.277-.434.195-.324.612-1.921.701-2.74.407-1.307.182-.762.578-1.473.188-.209.189-.361h.118l.223-.37.336-.095.136.13.442-.994.153.13.241.045.336.177.671-.16.319-.181.412-.2.283-.035.188-.187.118.065.177-.254.1.127.318-.08.554-.126.153-.162.471-.25.49.008.205.091.371.167.336.076.625.422.56.584 1.06.638.654-.048.212-.065.076.108.124-.047.241.239.13-.072 1.084.69.088.272.136-.107.182.106.566.095.065.336.135.063.442-.326.17.163.083-.155.189.322.124-.126.123.046.424-.077.083-.013.112.2.377-.065.106-.155.17.133.095-.088.418.458.124.058.135-.213.089.2.141-.2.253.2.177-.21.254.21.194-.217.076.176.089-.075.247.142.2-.045.342.466.436-.041.077-.053.389.185h.13l.305.42.29.016.211.023 1.007 1.026.383.252.242-.075.094.016.136.297.123-.07.124.31.065-.156.406.323.083.275.383-.04.082-.148.4.08.419.465.141-.01.1.21.242-.042.4-.204.319.297.37.343.095-.126.094.08.248-.134.135-.076.1.08h.23l.26.142.24.084.348.142.1-.222.118.148.348-.093.707.644.471-.13.56.327.07.226.218-.083h.266l.235-.08.807.766.212-.155.112.217.124-.075.13.226.347-.142.1-.18.165.025.607.63.082-.086.13.155.165-.152.17.139.478.64.153.046.089-.117.13.033.07-.197.406.633.454.3.224-.155.182-.11.424.37.077-.127.153-.02.124.133h.218l.365-.097.483.168.089-.013.247.133.124-.133.206.117.288-.142.324.132.218-.061.136.048.342-.145.235.213.124-.013.135-.13.454.285.13.2.241.088.094.068.466-.227.483.343.489-.2.118-.014.088-.213.112.142.147-.07.171.141.088-.155.095.084.111-.067.654.565.077-.084.088.084.254-.155h.524l.082.226.071-.08.46.222.253-.297.365.213.142.074.088.281.995-.381.207.213.241.013.094.142.248-.159.076.088.401-.155h.353l.118.142.206-.213.183.142.094-.088.33.23 1.414-.097.159.213.07-.058.124.129.148-.013.076-.156.3.088.219-.145.082.125.224-.01.242.142.23.142h.235l.1-.067.153.067.195-.138.37.067.454-.168.383.074.094.152.484-.155.359.27.106.085.36-.223.129.139h.153l.053-.152.23.01h.389l.094-.085.147.156.224.057.212.13.353-.197 1.196-.101.124-.152.283.067.17-.142.996.071.46.142.076-.084.866.284.318.058.59-.071 1.054-.085.141-.084.153.155.136-.128.047.186.118-.058.306.355.16-.01.123-.078.135.16.136-.085.065.297.153-.013.159-.227.212.156"/></g><clipPath id="u"><path transform="matrix(1 0 0 -1 0 345.6)" d="M103.104 38.016h266.112v266.112H103.104z"/></clipPath><g clip-path="url(#u)"><path stroke-width="2.5" stroke-dasharray="9.25,4" stroke-linejoin="round" fill="none" stroke="red" d="M115.2 79.88h241.92"/></g><path stroke-width=".8" stroke-linecap="square" stroke-miterlimit="10" fill="none" stroke="#000" d="M103.104 307.584V41.472M369.216 307.584V41.472M103.104 307.584h266.112M103.104 41.472h266.112"/><path d="M233.372 302.584h128.844c1.333 0 2-.667 2-2V272.24c0-1.333-.667-2-2-2H233.372c-1.333 0-2 .667-2 2v28.344c0 1.333.667 2 2 2z" fill="#fff" fill-opacity=".8"/><path stroke-miterlimit="10" fill="none" stroke="#d5d6d5" stroke-opacity=".8" d="M233.372 302.584h128.844c1.333 0 2-.667 2-2V272.24c0-1.333-.667-2-2-2H233.372c-1.333 0-2 .667-2 2v28.344c0 1.333.667 2 2 2z"/><path stroke-width="2.5" stroke-linecap="square" stroke-linejoin="round" fill="none" stroke="teal" d="M235.372 278.334h20"/><symbol id="v"><path transform="matrix(.001 0 0 .001 -.056 .013)" d="M644 673V569c-34 30-69 53-107 69-38 15-77 23-119 23-84 0-148-26-192-77s-66-124-66-220 22-170 66-221 108-76 192-76c42 0 81 7 119 23 38 15 73 38 107 69V56c-35-24-72-41-110-52s-79-17-122-17C302-13 215 20 151 87S56 246 56 364c0 117 31 209 95 277 64 67 151 101 261 101 44 0 85-6 123-17 38-12 75-29 109-52z"/></symbol><symbol id="w"><path transform="matrix(.001 0 0 .001 -.085 .013)" d="M85 216v331h90V219c0-52 10-90 30-116s50-39 91-39c48 0 87 15 115 46s42 73 42 127v310h90V0h-90v84c-22-34-48-58-76-74-29-15-62-23-100-23-63 0-111 19-143 58-33 38-49 95-49 171zm226 344z"/></symbol><symbol id="x"><path transform="translate(-.091) scale(.001)" d="M411 463c-10 6-21 10-33 13-12 2-25 4-39 4-51 0-90-17-117-50-28-33-41-80-41-142V0H91v547h90v-85c18 33 43 58 73 74s67 24 111 24c6 0 13-1 21-1 7-1 15-2 25-4v-92z"/></symbol><symbol id="y"><path transform="translate(-.091) scale(.001)" d="M549 330V0h-90v327c0 52-11 90-31 116s-50 39-90 39c-49 0-87-16-115-47s-42-73-42-126V0H91v547h90v-85c21 32 46 57 76 73 29 16 63 25 101 25 62 0 110-20 142-59s49-96 49-171z"/></symbol><symbol id="z"><path transform="translate(-.027) scale(.001)" d="M183 702V547h185v-70H183V180c0-45 6-74 18-86 12-13 37-19 75-19h92V0h-92c-70 0-118 13-144 39s-39 73-39 141v297H27v70h66v155h90z"/></symbol><symbol id="A"><path transform="matrix(.001 0 0 .001 -.086 .131)" d="M310 759c-44-76-76-150-97-223-22-73-32-147-32-222 0-76 10-150 32-223 21-74 53-147 97-222h-78C183-54 146 20 122 94S86 241 86 314c0 72 12 145 36 219s60 149 110 226h78z"/></symbol><symbol id="B"><path transform="matrix(.001 0 0 .001 -.056 .013)" d="M394 662c-72 0-129-27-171-80-42-54-63-126-63-218s21-165 63-218c42-54 99-80 171-80 71 0 128 26 170 80 42 53 63 126 63 218s-21 164-63 218c-42 53-99 80-170 80zm0 80c102 0 183-35 245-103 61-68 92-160 92-275 0-116-31-207-92-275C577 21 496-13 394-13 291-13 209 21 148 89c-62 68-92 159-92 275 0 115 30 207 92 275 61 68 143 103 246 103z"/></symbol><symbol id="C"><path transform="matrix(.001 0 0 .001 -.08 .131)" d="M80 759h78c48-77 85-152 109-226s37-147 37-219c0-73-13-146-37-220S206-54 158-131H80c43 75 75 148 97 222 21 73 32 147 32 223 0 75-11 149-32 222-22 73-54 147-97 223z"/></symbol><use xlink:href="#v" transform="matrix(10 0 0 -10 263.932 281.964)"/><use xlink:href="#w" transform="matrix(10 0 0 -10 271.202 281.964)"/><use xlink:href="#x" transform="matrix(10 0 0 -10 277.602 281.834)"/><use xlink:href="#x" transform="matrix(10 0 0 -10 281.54 281.834)"/><use xlink:href="#i" transform="matrix(10 0 0 -10 285.072 281.964)"/><use xlink:href="#y" transform="matrix(10 0 0 -10 291.582 281.834)"/><use xlink:href="#z" transform="matrix(10 0 0 -10 297.282 281.834)"/><use xlink:href="#j" transform="matrix(10 0 0 -10 300.932 281.834)"/><use xlink:href="#l" transform="matrix(10 0 0 -10 304.652 281.964)"/><use xlink:href="#q" transform="matrix(10 0 0 -10 310.232 283.904)"/><use xlink:href="#i" transform="matrix(10 0 0 -10 316.222 281.964)"/><use xlink:href="#i" transform="matrix(10 0 0 -10 322.372 281.964)"/><use xlink:href="#r" transform="matrix(10 0 0 -10 328.522 281.964)"/><use xlink:href="#j" transform="matrix(10 0 0 -10 334.322 281.834)"/><use xlink:href="#A" transform="matrix(10 0 0 -10 338.362 283.144)"/><use xlink:href="#B" transform="matrix(10 0 0 -10 341.962 281.964)"/><use xlink:href="#p" transform="matrix(10 0 0 -10 349.932 281.964)"/><use xlink:href="#C" transform="matrix(10 0 0 -10 356.422 283.144)"/><path stroke-width="2.5" stroke-dasharray="9.25,4" stroke-linejoin="round" fill="none" stroke="red" d="M235.372 293.006h20"/><symbol id="D"><path transform="translate(-.098) scale(.001)" d="M197 648V81h119c100 0 174 22 221 68 46 46 70 118 70 216s-24 169-70 215c-47 45-121 68-221 68H197zm-99 81h203c141 0 245-30 311-88 66-59 99-151 99-276 0-126-34-218-100-277S441 0 301 0H98v729z"/></symbol><use xlink:href="#D" transform="matrix(10 0 0 -10 264.352 296.506)"/><use xlink:href="#i" transform="matrix(10 0 0 -10 271.622 296.636)"/><use xlink:href="#l" transform="matrix(10 0 0 -10 277.762 296.636)"/><use xlink:href="#g" transform="matrix(10 0 0 -10 283.372 296.506)"/><use xlink:href="#x" transform="matrix(10 0 0 -10 286.122 296.506)"/><use xlink:href="#i" transform="matrix(10 0 0 -10 289.654 296.636)"/><use xlink:href="#r" transform="matrix(10 0 0 -10 295.803 296.636)"/><use xlink:href="#j" transform="matrix(10 0 0 -10 301.604 296.506)"/><use xlink:href="#l" transform="matrix(10 0 0 -10 305.324 296.636)"/><use xlink:href="#q" transform="matrix(10 0 0 -10 310.904 298.576)"/><use xlink:href="#i" transform="matrix(10 0 0 -10 316.894 296.636)"/><use xlink:href="#i" transform="matrix(10 0 0 -10 323.043 296.636)"/><use xlink:href="#r" transform="matrix(10 0 0 -10 329.193 296.636)"/><use xlink:href="#j" transform="matrix(10 0 0 -10 334.993 296.506)"/><use xlink:href="#A" transform="matrix(10 0 0 -10 339.034 297.816)"/><use xlink:href="#B" transform="matrix(10 0 0 -10 342.634 296.636)"/><use xlink:href="#p" transform="matrix(10 0 0 -10 350.604 296.636)"/><use xlink:href="#C" transform="matrix(10 0 0 -10 357.094 297.816)"/></svg>