<?xml version="1.0" encoding="UTF-8"?>
<svg xmlns="http://www.w3.org/2000/svg" xmlns:xlink="http://www.w3.org/1999/xlink" width="500px" height="px" viewBox="0 0 499 375" version="1.1">
<g id="surface1">
<path style=" stroke:none;fill-rule:nonzero;fill:rgb(100%,100%,100%);fill-opacity:1;" d="M 0 374.835938 L 499.324219 374.835938 L 499.324219 0 L 0 0 Z M 0 374.835938 "/>
<path style=" stroke:none;fill-rule:nonzero;fill:rgb(100%,100%,100%);fill-opacity:1;" d="M 111.722656 333.605469 L 400.085938 333.605469 L 400.085938 44.980469 L 111.722656 44.980469 Z M 111.722656 333.605469 "/>
<path style="fill:none;stroke-width:0.8;stroke-linecap:butt;stroke-linejoin:round;stroke:rgb(0%,0%,0%);stroke-opacity:1;stroke-miterlimit:4;" d="M 113.135114 307.584242 L 113.135114 311.084961 " transform="matrix(1.083605,0,0,1.084599,0,0)"/>
<path style=" stroke:none;fill-rule:nonzero;fill:rgb(0%,0%,0%);fill-opacity:1;" d="M 122.59375 342.230469 C 122.039062 342.230469 121.628906 342.503906 121.347656 343.046875 C 121.066406 343.585938 120.9375 344.402344 120.9375 345.484375 C 120.9375 346.570312 121.066406 347.382812 121.347656 347.925781 C 121.628906 348.46875 122.039062 348.738281 122.59375 348.738281 C 123.144531 348.738281 123.558594 348.46875 123.839844 347.925781 C 124.109375 347.382812 124.25 346.570312 124.25 345.484375 C 124.25 344.402344 124.109375 343.585938 123.839844 343.046875 C 123.558594 342.503906 123.144531 342.230469 122.59375 342.230469 Z M 122.59375 341.386719 C 123.472656 341.386719 124.144531 341.742188 124.621094 342.4375 C 125.085938 343.144531 125.324219 344.164062 125.324219 345.484375 C 125.324219 346.820312 125.085938 347.839844 124.621094 348.535156 C 124.144531 349.226562 123.472656 349.574219 122.582031 349.574219 C 121.695312 349.574219 121.023438 349.226562 120.554688 348.535156 C 120.089844 347.839844 119.863281 346.820312 119.863281 345.484375 C 119.863281 344.164062 120.089844 343.144531 120.554688 342.4375 C 121.023438 341.742188 121.703125 341.386719 122.59375 341.386719 Z M 122.59375 341.386719 "/>
<path style="fill:none;stroke-width:0.8;stroke-linecap:butt;stroke-linejoin:round;stroke:rgb(0%,0%,0%);stroke-opacity:1;stroke-miterlimit:4;" d="M 178.069565 307.584242 L 178.069565 311.084961 " transform="matrix(1.083605,0,0,1.084599,0,0)"/>
<path style=" stroke:none;fill-rule:nonzero;fill:rgb(0%,0%,0%);fill-opacity:1;" d="M 187.410156 348.535156 L 189.15625 348.535156 L 189.15625 342.503906 L 187.261719 342.882812 L 187.261719 341.90625 L 189.144531 341.527344 L 190.21875 341.527344 L 190.21875 348.535156 L 191.960938 348.535156 L 191.960938 349.433594 L 187.410156 349.433594 Z M 187.410156 348.535156 "/>
<path style=" stroke:none;fill-rule:nonzero;fill:rgb(0%,0%,0%);fill-opacity:1;" d="M 196.40625 342.230469 C 195.851562 342.230469 195.441406 342.503906 195.160156 343.046875 C 194.878906 343.585938 194.746094 344.402344 194.746094 345.484375 C 194.746094 346.570312 194.878906 347.382812 195.160156 347.925781 C 195.441406 348.46875 195.851562 348.738281 196.40625 348.738281 C 196.957031 348.738281 197.371094 348.46875 197.652344 347.925781 C 197.921875 347.382812 198.0625 346.570312 198.0625 345.484375 C 198.0625 344.402344 197.921875 343.585938 197.652344 343.046875 C 197.371094 342.503906 196.957031 342.230469 196.40625 342.230469 Z M 196.40625 341.386719 C 197.285156 341.386719 197.957031 341.742188 198.433594 342.4375 C 198.898438 343.144531 199.136719 344.164062 199.136719 345.484375 C 199.136719 346.820312 198.898438 347.839844 198.433594 348.535156 C 197.957031 349.226562 197.285156 349.574219 196.394531 349.574219 C 195.507812 349.574219 194.835938 349.226562 194.367188 348.535156 C 193.902344 347.839844 193.675781 346.820312 193.675781 345.484375 C 193.675781 344.164062 193.902344 343.144531 194.367188 342.4375 C 194.835938 341.742188 195.515625 341.386719 196.40625 341.386719 Z M 196.40625 341.386719 "/>
<path style="fill:none;stroke-width:0.8;stroke-linecap:butt;stroke-linejoin:round;stroke:rgb(0%,0%,0%);stroke-opacity:1;stroke-miterlimit:4;" d="M 243.007621 307.584242 L 243.007621 311.084961 " transform="matrix(1.083605,0,0,1.084599,0,0)"/>
<path style=" stroke:none;fill-rule:nonzero;fill:rgb(0%,0%,0%);fill-opacity:1;" d="M 258.511719 348.535156 L 262.242188 348.535156 L 262.242188 349.433594 L 257.222656 349.433594 L 257.222656 348.535156 C 257.625 348.121094 258.175781 347.558594 258.882812 346.839844 C 259.574219 346.136719 260.019531 345.679688 260.203125 345.476562 C 260.550781 345.09375 260.789062 344.769531 260.917969 344.5 C 261.050781 344.238281 261.125 343.96875 261.125 343.707031 C 261.125 343.296875 260.972656 342.949219 260.679688 342.6875 C 260.386719 342.425781 260.007812 342.285156 259.53125 342.285156 C 259.195312 342.285156 258.839844 342.351562 258.46875 342.460938 C 258.101562 342.578125 257.699219 342.753906 257.277344 342.992188 L 257.277344 341.90625 C 257.710938 341.734375 258.113281 341.601562 258.480469 341.515625 C 258.847656 341.429688 259.195312 341.386719 259.511719 341.386719 C 260.324219 341.386719 260.972656 341.59375 261.460938 342.003906 C 261.949219 342.417969 262.199219 342.957031 262.199219 343.640625 C 262.199219 343.96875 262.132812 344.28125 262.011719 344.5625 C 261.894531 344.855469 261.675781 345.203125 261.351562 345.59375 C 261.265625 345.703125 260.984375 345.996094 260.507812 346.484375 C 260.03125 346.972656 259.371094 347.65625 258.511719 348.535156 Z M 258.511719 348.535156 "/>
<path style=" stroke:none;fill-rule:nonzero;fill:rgb(0%,0%,0%);fill-opacity:1;" d="M 266.769531 342.230469 C 266.21875 342.230469 265.804688 342.503906 265.523438 343.046875 C 265.242188 343.585938 265.113281 344.402344 265.113281 345.484375 C 265.113281 346.570312 265.242188 347.382812 265.523438 347.925781 C 265.804688 348.46875 266.21875 348.738281 266.769531 348.738281 C 267.324219 348.738281 267.734375 348.46875 268.015625 347.925781 C 268.289062 347.382812 268.429688 346.570312 268.429688 345.484375 C 268.429688 344.402344 268.289062 343.585938 268.015625 343.046875 C 267.734375 342.503906 267.324219 342.230469 266.769531 342.230469 Z M 266.769531 341.386719 C 267.648438 341.386719 268.320312 341.742188 268.796875 342.4375 C 269.261719 343.144531 269.5 344.164062 269.5 345.484375 C 269.5 346.820312 269.261719 347.839844 268.796875 348.535156 C 268.320312 349.226562 267.648438 349.574219 266.757812 349.574219 C 265.871094 349.574219 265.199219 349.226562 264.734375 348.535156 C 264.265625 347.839844 264.039062 346.820312 264.039062 345.484375 C 264.039062 344.164062 264.265625 343.144531 264.734375 342.4375 C 265.199219 341.742188 265.882812 341.386719 266.769531 341.386719 Z M 266.769531 341.386719 "/>
<path style="fill:none;stroke-width:0.8;stroke-linecap:butt;stroke-linejoin:round;stroke:rgb(0%,0%,0%);stroke-opacity:1;stroke-miterlimit:4;" d="M 307.945677 307.584242 L 307.945677 311.084961 " transform="matrix(1.083605,0,0,1.084599,0,0)"/>
<path style=" stroke:none;fill-rule:nonzero;fill:rgb(0%,0%,0%);fill-opacity:1;" d="M 331.199219 345.171875 C 331.707031 345.28125 332.109375 345.507812 332.390625 345.855469 C 332.671875 346.203125 332.824219 346.636719 332.824219 347.132812 C 332.824219 347.914062 332.550781 348.523438 332.019531 348.945312 C 331.480469 349.367188 330.71875 349.574219 329.734375 349.574219 C 329.398438 349.574219 329.050781 349.542969 328.703125 349.476562 C 328.359375 349.421875 327.988281 349.324219 327.621094 349.195312 L 327.621094 348.164062 C 327.914062 348.339844 328.238281 348.46875 328.597656 348.554688 C 328.945312 348.640625 329.3125 348.683594 329.703125 348.683594 C 330.375 348.683594 330.882812 348.554688 331.230469 348.296875 C 331.578125 348.035156 331.761719 347.644531 331.761719 347.132812 C 331.761719 346.679688 331.597656 346.308594 331.273438 346.050781 C 330.949219 345.789062 330.492188 345.648438 329.90625 345.648438 L 328.988281 345.648438 L 328.988281 344.769531 L 329.949219 344.769531 C 330.472656 344.769531 330.871094 344.671875 331.152344 344.457031 C 331.4375 344.25 331.578125 343.945312 331.578125 343.542969 C 331.578125 343.144531 331.425781 342.828125 331.144531 342.613281 C 330.851562 342.394531 330.4375 342.285156 329.90625 342.285156 C 329.617188 342.285156 329.300781 342.320312 328.964844 342.382812 C 328.628906 342.449219 328.261719 342.546875 327.859375 342.675781 L 327.859375 341.722656 C 328.261719 341.613281 328.640625 341.527344 328.996094 341.472656 C 329.34375 341.417969 329.679688 341.386719 330.003906 341.386719 C 330.808594 341.386719 331.445312 341.570312 331.921875 341.9375 C 332.398438 342.308594 332.636719 342.808594 332.636719 343.4375 C 332.636719 343.871094 332.507812 344.238281 332.257812 344.542969 C 332.011719 344.847656 331.652344 345.0625 331.199219 345.171875 Z M 331.199219 345.171875 "/>
<path style=" stroke:none;fill-rule:nonzero;fill:rgb(0%,0%,0%);fill-opacity:1;" d="M 337.136719 342.230469 C 336.582031 342.230469 336.171875 342.503906 335.890625 343.046875 C 335.609375 343.585938 335.476562 344.402344 335.476562 345.484375 C 335.476562 346.570312 335.609375 347.382812 335.890625 347.925781 C 336.171875 348.46875 336.582031 348.738281 337.136719 348.738281 C 337.6875 348.738281 338.101562 348.46875 338.382812 347.925781 C 338.652344 347.382812 338.792969 346.570312 338.792969 345.484375 C 338.792969 344.402344 338.652344 343.585938 338.382812 343.046875 C 338.101562 342.503906 337.6875 342.230469 337.136719 342.230469 Z M 337.136719 341.386719 C 338.011719 341.386719 338.683594 341.742188 339.160156 342.4375 C 339.628906 343.144531 339.867188 344.164062 339.867188 345.484375 C 339.867188 346.820312 339.628906 347.839844 339.160156 348.535156 C 338.683594 349.226562 338.011719 349.574219 337.125 349.574219 C 336.234375 349.574219 335.5625 349.226562 335.097656 348.535156 C 334.632812 347.839844 334.40625 346.820312 334.40625 345.484375 C 334.40625 344.164062 334.632812 343.144531 335.097656 342.4375 C 335.5625 341.742188 336.246094 341.386719 337.136719 341.386719 Z M 337.136719 341.386719 "/>
<path style=" stroke:none;fill-rule:nonzero;fill:rgb(0%,0%,0%);fill-opacity:1;" d="M 233.796875 356.355469 L 240.46875 356.355469 L 240.46875 357.257812 L 237.664062 357.257812 L 237.664062 364.261719 L 236.589844 364.261719 L 236.589844 357.257812 L 233.796875 357.257812 Z M 233.796875 356.355469 "/>
<path style=" stroke:none;fill-rule:nonzero;fill:rgb(0%,0%,0%);fill-opacity:1;" d="M 241.132812 358.328125 L 242.109375 358.328125 L 242.109375 364.261719 L 241.132812 364.261719 Z M 241.132812 356.019531 L 242.109375 356.019531 L 242.109375 357.257812 L 241.132812 357.257812 Z M 241.132812 356.019531 "/>
<path style=" stroke:none;fill-rule:nonzero;fill:rgb(0%,0%,0%);fill-opacity:1;" d="M 248.761719 359.46875 C 249 359.035156 249.292969 358.71875 249.628906 358.503906 C 249.964844 358.296875 250.367188 358.1875 250.832031 358.1875 C 251.441406 358.1875 251.917969 358.40625 252.253906 358.839844 C 252.589844 359.273438 252.761719 359.890625 252.761719 360.683594 L 252.761719 364.261719 L 251.785156 364.261719 L 251.785156 360.714844 C 251.785156 360.152344 251.679688 359.730469 251.484375 359.445312 C 251.277344 359.175781 250.972656 359.035156 250.5625 359.035156 C 250.050781 359.035156 249.652344 359.207031 249.359375 359.542969 C 249.066406 359.878906 248.925781 360.335938 248.925781 360.910156 L 248.925781 364.261719 L 247.949219 364.261719 L 247.949219 360.714844 C 247.949219 360.152344 247.84375 359.730469 247.648438 359.445312 C 247.441406 359.175781 247.125 359.035156 246.714844 359.035156 C 246.214844 359.035156 245.816406 359.207031 245.523438 359.542969 C 245.230469 359.878906 245.089844 360.335938 245.089844 360.910156 L 245.089844 364.261719 L 244.113281 364.261719 L 244.113281 358.328125 L 245.089844 358.328125 L 245.089844 359.25 C 245.304688 358.894531 245.578125 358.621094 245.890625 358.449219 C 246.195312 358.277344 246.5625 358.1875 246.996094 358.1875 C 247.429688 358.1875 247.789062 358.296875 248.089844 358.515625 C 248.394531 358.730469 248.613281 359.054688 248.761719 359.46875 Z M 248.761719 359.46875 "/>
<path style=" stroke:none;fill-rule:nonzero;fill:rgb(0%,0%,0%);fill-opacity:1;" d="M 259.773438 361.050781 L 259.773438 361.527344 L 255.296875 361.527344 C 255.339844 362.203125 255.535156 362.722656 255.902344 363.070312 C 256.261719 363.417969 256.761719 363.589844 257.410156 363.589844 C 257.777344 363.589844 258.148438 363.546875 258.492188 363.460938 C 258.839844 363.375 259.199219 363.230469 259.546875 363.035156 L 259.546875 363.957031 C 259.199219 364.109375 258.839844 364.230469 258.472656 364.296875 C 258.105469 364.359375 257.722656 364.402344 257.355469 364.402344 C 256.402344 364.402344 255.65625 364.132812 255.101562 363.589844 C 254.550781 363.046875 254.277344 362.300781 254.277344 361.355469 C 254.277344 360.390625 254.539062 359.621094 255.058594 359.046875 C 255.578125 358.480469 256.292969 358.1875 257.183594 358.1875 C 257.984375 358.1875 258.613281 358.449219 259.078125 358.957031 C 259.535156 359.480469 259.773438 360.171875 259.773438 361.050781 Z M 258.796875 360.769531 C 258.785156 360.238281 258.636719 359.816406 258.351562 359.492188 C 258.058594 359.175781 257.671875 359.011719 257.195312 359.011719 C 256.652344 359.011719 256.21875 359.175781 255.894531 359.480469 C 255.566406 359.78125 255.375 360.21875 255.328125 360.769531 Z M 258.796875 360.769531 "/>
<path style=" stroke:none;fill-rule:nonzero;fill:rgb(0%,0%,0%);fill-opacity:1;" d="M 264.726562 356.019531 L 266.96875 356.019531 L 266.96875 356.777344 L 265.699219 356.777344 L 265.699219 364.925781 L 266.96875 364.925781 L 266.96875 365.683594 L 264.726562 365.683594 Z M 264.726562 356.019531 "/>
<path style=" stroke:none;fill-rule:nonzero;fill:rgb(0%,0%,0%);fill-opacity:1;" d="M 272.820312 358.503906 L 272.820312 359.425781 C 272.539062 359.296875 272.253906 359.1875 271.964844 359.109375 C 271.660156 359.046875 271.355469 359.003906 271.042969 359.003906 C 270.554688 359.003906 270.1875 359.078125 269.949219 359.230469 C 269.710938 359.382812 269.589844 359.597656 269.589844 359.890625 C 269.589844 360.121094 269.675781 360.292969 269.851562 360.421875 C 270.023438 360.554688 270.371094 360.683594 270.890625 360.792969 L 271.226562 360.867188 C 271.917969 361.019531 272.40625 361.238281 272.699219 361.496094 C 272.980469 361.769531 273.132812 362.148438 273.132812 362.625 C 273.132812 363.179688 272.917969 363.613281 272.484375 363.925781 C 272.050781 364.25 271.441406 364.402344 270.683594 364.402344 C 270.359375 364.402344 270.035156 364.371094 269.6875 364.316406 C 269.339844 364.261719 268.984375 364.175781 268.605469 364.046875 L 268.605469 363.035156 C 268.960938 363.230469 269.320312 363.375 269.664062 363.460938 C 270.011719 363.558594 270.359375 363.601562 270.707031 363.601562 C 271.160156 363.601562 271.519531 363.523438 271.769531 363.375 C 272.007812 363.222656 272.136719 362.992188 272.136719 362.699219 C 272.136719 362.441406 272.039062 362.234375 271.867188 362.09375 C 271.691406 361.953125 271.300781 361.8125 270.695312 361.679688 L 270.359375 361.605469 C 269.753906 361.476562 269.308594 361.28125 269.046875 361.019531 C 268.777344 360.757812 268.648438 360.402344 268.648438 359.933594 C 268.648438 359.382812 268.84375 358.949219 269.234375 358.644531 C 269.621094 358.339844 270.1875 358.1875 270.921875 358.1875 C 271.28125 358.1875 271.617188 358.222656 271.941406 358.277344 C 272.253906 358.328125 272.546875 358.40625 272.820312 358.503906 Z M 272.820312 358.503906 "/>
<path style=" stroke:none;fill-rule:nonzero;fill:rgb(0%,0%,0%);fill-opacity:1;" d="M 276.957031 356.019531 L 276.957031 365.683594 L 274.714844 365.683594 L 274.714844 364.925781 L 275.984375 364.925781 L 275.984375 356.777344 L 274.714844 356.777344 L 274.714844 356.019531 Z M 276.957031 356.019531 "/>
<path style="fill:none;stroke-width:0.8;stroke-linecap:butt;stroke-linejoin:round;stroke:rgb(0%,0%,0%);stroke-opacity:1;stroke-miterlimit:4;" d="M 103.102772 266.839766 L 99.602447 266.839766 " transform="matrix(1.083605,0,0,1.084599,0,0)"/>
<path style=" stroke:none;fill-rule:nonzero;fill:rgb(0%,0%,0%);fill-opacity:1;" d="M 88.246094 292.632812 L 89.992188 292.632812 L 89.992188 286.601562 L 88.09375 286.980469 L 88.09375 286.003906 L 89.980469 285.625 L 91.054688 285.625 L 91.054688 292.632812 L 92.796875 292.632812 L 92.796875 293.53125 L 88.246094 293.53125 Z M 88.246094 292.632812 "/>
<path style=" stroke:none;fill-rule:nonzero;fill:rgb(0%,0%,0%);fill-opacity:1;" d="M 94.953125 292.1875 L 96.070312 292.1875 L 96.070312 293.53125 L 94.953125 293.53125 Z M 94.953125 292.1875 "/>
<path style=" stroke:none;fill-rule:nonzero;fill:rgb(0%,0%,0%);fill-opacity:1;" d="M 100.6875 286.332031 C 100.132812 286.332031 99.722656 286.601562 99.441406 287.144531 C 99.160156 287.6875 99.027344 288.5 99.027344 289.585938 C 99.027344 290.667969 99.160156 291.484375 99.441406 292.023438 C 99.722656 292.566406 100.132812 292.839844 100.6875 292.839844 C 101.238281 292.839844 101.652344 292.566406 101.933594 292.023438 C 102.203125 291.484375 102.34375 290.667969 102.34375 289.585938 C 102.34375 288.5 102.203125 287.6875 101.933594 287.144531 C 101.652344 286.601562 101.238281 286.332031 100.6875 286.332031 Z M 100.6875 285.484375 C 101.5625 285.484375 102.234375 285.84375 102.710938 286.535156 C 103.179688 287.242188 103.417969 288.261719 103.417969 289.585938 C 103.417969 290.917969 103.179688 291.9375 102.710938 292.632812 C 102.234375 293.328125 101.5625 293.671875 100.675781 293.671875 C 99.785156 293.671875 99.113281 293.328125 98.648438 292.632812 C 98.183594 291.9375 97.957031 290.917969 97.957031 289.585938 C 97.957031 288.261719 98.183594 287.242188 98.648438 286.535156 C 99.113281 285.84375 99.796875 285.484375 100.6875 285.484375 Z M 100.6875 285.484375 "/>
<path style="fill:none;stroke-width:0.8;stroke-linecap:butt;stroke-linejoin:round;stroke:rgb(0%,0%,0%);stroke-opacity:1;stroke-miterlimit:4;" d="M 103.102772 224.186461 L 99.602447 224.186461 " transform="matrix(1.083605,0,0,1.084599,0,0)"/>
<path style=" stroke:none;fill-rule:nonzero;fill:rgb(0%,0%,0%);fill-opacity:1;" d="M 88.246094 246.367188 L 89.992188 246.367188 L 89.992188 240.339844 L 88.09375 240.71875 L 88.09375 239.742188 L 89.980469 239.363281 L 91.054688 239.363281 L 91.054688 246.367188 L 92.796875 246.367188 L 92.796875 247.269531 L 88.246094 247.269531 Z M 88.246094 246.367188 "/>
<path style=" stroke:none;fill-rule:nonzero;fill:rgb(0%,0%,0%);fill-opacity:1;" d="M 94.953125 245.925781 L 96.070312 245.925781 L 96.070312 247.269531 L 94.953125 247.269531 Z M 94.953125 245.925781 "/>
<path style=" stroke:none;fill-rule:nonzero;fill:rgb(0%,0%,0%);fill-opacity:1;" d="M 98.410156 239.363281 L 102.605469 239.363281 L 102.605469 240.261719 L 99.386719 240.261719 L 99.386719 242.203125 C 99.539062 242.148438 99.699219 242.105469 99.851562 242.085938 C 100.003906 242.0625 100.167969 242.042969 100.316406 242.042969 C 101.195312 242.042969 101.890625 242.289062 102.410156 242.769531 C 102.929688 243.257812 103.191406 243.90625 103.191406 244.730469 C 103.191406 245.585938 102.917969 246.25 102.386719 246.714844 C 101.855469 247.183594 101.109375 247.410156 100.15625 247.410156 C 99.820312 247.410156 99.484375 247.378906 99.136719 247.335938 C 98.789062 247.28125 98.441406 247.203125 98.074219 247.085938 L 98.074219 246.011719 C 98.390625 246.183594 98.714844 246.316406 99.0625 246.402344 C 99.398438 246.488281 99.753906 246.519531 100.132812 246.519531 C 100.742188 246.519531 101.226562 246.367188 101.585938 246.042969 C 101.933594 245.71875 102.117188 245.285156 102.117188 244.730469 C 102.117188 244.1875 101.933594 243.753906 101.585938 243.429688 C 101.226562 243.105469 100.742188 242.941406 100.132812 242.941406 C 99.851562 242.941406 99.558594 242.972656 99.277344 243.039062 C 98.996094 243.105469 98.703125 243.203125 98.410156 243.332031 Z M 98.410156 239.363281 "/>
<path style="fill:none;stroke-width:0.8;stroke-linecap:butt;stroke-linejoin:round;stroke:rgb(0%,0%,0%);stroke-opacity:1;stroke-miterlimit:4;" d="M 103.102772 181.529555 L 99.602447 181.529555 " transform="matrix(1.083605,0,0,1.084599,0,0)"/>
<path style=" stroke:none;fill-rule:nonzero;fill:rgb(0%,0%,0%);fill-opacity:1;" d="M 88.984375 200.105469 L 92.710938 200.105469 L 92.710938 201.007812 L 87.695312 201.007812 L 87.695312 200.105469 C 88.09375 199.695312 88.648438 199.128906 89.351562 198.414062 C 90.046875 197.710938 90.488281 197.253906 90.675781 197.046875 C 91.019531 196.667969 91.257812 196.34375 91.390625 196.070312 C 91.519531 195.8125 91.59375 195.539062 91.59375 195.28125 C 91.59375 194.867188 91.441406 194.519531 91.152344 194.261719 C 90.859375 194 90.480469 193.859375 90.003906 193.859375 C 89.667969 193.859375 89.308594 193.925781 88.941406 194.03125 C 88.570312 194.152344 88.171875 194.324219 87.75 194.5625 L 87.75 193.480469 C 88.179688 193.304688 88.582031 193.175781 88.949219 193.089844 C 89.320312 193.003906 89.667969 192.957031 89.980469 192.957031 C 90.792969 192.957031 91.441406 193.164062 91.929688 193.578125 C 92.417969 193.988281 92.667969 194.53125 92.667969 195.214844 C 92.667969 195.539062 92.601562 195.855469 92.484375 196.136719 C 92.363281 196.429688 92.148438 196.777344 91.824219 197.167969 C 91.734375 197.277344 91.453125 197.566406 90.976562 198.054688 C 90.5 198.542969 89.839844 199.226562 88.984375 200.105469 Z M 88.984375 200.105469 "/>
<path style=" stroke:none;fill-rule:nonzero;fill:rgb(0%,0%,0%);fill-opacity:1;" d="M 94.953125 199.660156 L 96.070312 199.660156 L 96.070312 201.007812 L 94.953125 201.007812 Z M 94.953125 199.660156 "/>
<path style=" stroke:none;fill-rule:nonzero;fill:rgb(0%,0%,0%);fill-opacity:1;" d="M 100.6875 193.804688 C 100.132812 193.804688 99.722656 194.074219 99.441406 194.617188 C 99.160156 195.160156 99.027344 195.972656 99.027344 197.058594 C 99.027344 198.144531 99.160156 198.957031 99.441406 199.5 C 99.722656 200.042969 100.132812 200.3125 100.6875 200.3125 C 101.238281 200.3125 101.652344 200.042969 101.933594 199.5 C 102.203125 198.957031 102.34375 198.144531 102.34375 197.058594 C 102.34375 195.972656 102.203125 195.160156 101.933594 194.617188 C 101.652344 194.074219 101.238281 193.804688 100.6875 193.804688 Z M 100.6875 192.957031 C 101.5625 192.957031 102.234375 193.316406 102.710938 194.011719 C 103.179688 194.714844 103.417969 195.734375 103.417969 197.058594 C 103.417969 198.394531 103.179688 199.414062 102.710938 200.105469 C 102.234375 200.800781 101.5625 201.148438 100.675781 201.148438 C 99.785156 201.148438 99.113281 200.800781 98.648438 200.105469 C 98.183594 199.414062 97.957031 198.394531 97.957031 197.058594 C 97.957031 195.734375 98.183594 194.714844 98.648438 194.011719 C 99.113281 193.316406 99.796875 192.957031 100.6875 192.957031 Z M 100.6875 192.957031 "/>
<path style="fill:none;stroke-width:0.8;stroke-linecap:butt;stroke-linejoin:round;stroke:rgb(0%,0%,0%);stroke-opacity:1;stroke-miterlimit:4;" d="M 103.102772 138.87625 L 99.602447 138.87625 " transform="matrix(1.083605,0,0,1.084599,0,0)"/>
<path style=" stroke:none;fill-rule:nonzero;fill:rgb(0%,0%,0%);fill-opacity:1;" d="M 88.984375 153.84375 L 92.710938 153.84375 L 92.710938 154.742188 L 87.695312 154.742188 L 87.695312 153.84375 C 88.09375 153.433594 88.648438 152.867188 89.351562 152.152344 C 90.046875 151.445312 90.488281 150.992188 90.675781 150.785156 C 91.019531 150.40625 91.257812 150.082031 91.390625 149.808594 C 91.519531 149.546875 91.59375 149.277344 91.59375 149.015625 C 91.59375 148.605469 91.441406 148.257812 91.152344 147.996094 C 90.859375 147.738281 90.480469 147.597656 90.003906 147.597656 C 89.667969 147.597656 89.308594 147.660156 88.941406 147.769531 C 88.570312 147.890625 88.171875 148.0625 87.75 148.300781 L 87.75 147.21875 C 88.179688 147.042969 88.582031 146.914062 88.949219 146.828125 C 89.320312 146.738281 89.667969 146.695312 89.980469 146.695312 C 90.792969 146.695312 91.441406 146.902344 91.929688 147.316406 C 92.417969 147.726562 92.667969 148.269531 92.667969 148.953125 C 92.667969 149.277344 92.601562 149.59375 92.484375 149.875 C 92.363281 150.167969 92.148438 150.515625 91.824219 150.90625 C 91.734375 151.011719 91.453125 151.304688 90.976562 151.792969 C 90.5 152.28125 89.839844 152.964844 88.984375 153.84375 Z M 88.984375 153.84375 "/>
<path style=" stroke:none;fill-rule:nonzero;fill:rgb(0%,0%,0%);fill-opacity:1;" d="M 94.953125 153.398438 L 96.070312 153.398438 L 96.070312 154.742188 L 94.953125 154.742188 Z M 94.953125 153.398438 "/>
<path style=" stroke:none;fill-rule:nonzero;fill:rgb(0%,0%,0%);fill-opacity:1;" d="M 98.410156 146.835938 L 102.605469 146.835938 L 102.605469 147.738281 L 99.386719 147.738281 L 99.386719 149.679688 C 99.539062 149.625 99.699219 149.582031 99.851562 149.558594 C 100.003906 149.539062 100.167969 149.515625 100.316406 149.515625 C 101.195312 149.515625 101.890625 149.765625 102.410156 150.242188 C 102.929688 150.730469 103.191406 151.382812 103.191406 152.207031 C 103.191406 153.0625 102.917969 153.722656 102.386719 154.191406 C 101.855469 154.65625 101.109375 154.886719 100.15625 154.886719 C 99.820312 154.886719 99.484375 154.851562 99.136719 154.808594 C 98.789062 154.753906 98.441406 154.679688 98.074219 154.558594 L 98.074219 153.484375 C 98.390625 153.660156 98.714844 153.789062 99.0625 153.875 C 99.398438 153.964844 99.753906 153.996094 100.132812 153.996094 C 100.742188 153.996094 101.226562 153.84375 101.585938 153.519531 C 101.933594 153.191406 102.117188 152.757812 102.117188 152.207031 C 102.117188 151.664062 101.933594 151.230469 101.585938 150.90625 C 101.226562 150.578125 100.742188 150.417969 100.132812 150.417969 C 99.851562 150.417969 99.558594 150.449219 99.277344 150.515625 C 98.996094 150.578125 98.703125 150.675781 98.410156 150.808594 Z M 98.410156 146.835938 "/>
<path style="fill:none;stroke-width:0.8;stroke-linecap:butt;stroke-linejoin:round;stroke:rgb(0%,0%,0%);stroke-opacity:1;stroke-miterlimit:4;" d="M 103.102772 96.222945 L 99.602447 96.222945 " transform="matrix(1.083605,0,0,1.084599,0,0)"/>
<path style=" stroke:none;fill-rule:nonzero;fill:rgb(0%,0%,0%);fill-opacity:1;" d="M 91.300781 104.21875 C 91.8125 104.328125 92.210938 104.554688 92.496094 104.902344 C 92.777344 105.25 92.929688 105.683594 92.929688 106.183594 C 92.929688 106.964844 92.65625 107.570312 92.125 107.992188 C 91.585938 108.417969 90.824219 108.621094 89.839844 108.621094 C 89.503906 108.621094 89.15625 108.589844 88.808594 108.523438 C 88.464844 108.472656 88.09375 108.375 87.726562 108.242188 L 87.726562 107.210938 C 88.019531 107.386719 88.34375 107.515625 88.703125 107.601562 C 89.046875 107.691406 89.417969 107.734375 89.808594 107.734375 C 90.480469 107.734375 90.988281 107.601562 91.335938 107.34375 C 91.679688 107.082031 91.867188 106.691406 91.867188 106.183594 C 91.867188 105.726562 91.703125 105.359375 91.378906 105.097656 C 91.054688 104.835938 90.597656 104.695312 90.011719 104.695312 L 89.09375 104.695312 L 89.09375 103.816406 L 90.054688 103.816406 C 90.578125 103.816406 90.976562 103.71875 91.257812 103.503906 C 91.539062 103.296875 91.679688 102.992188 91.679688 102.59375 C 91.679688 102.191406 91.53125 101.875 91.25 101.660156 C 90.957031 101.441406 90.542969 101.335938 90.011719 101.335938 C 89.71875 101.335938 89.40625 101.367188 89.070312 101.433594 C 88.734375 101.496094 88.367188 101.59375 87.964844 101.722656 L 87.964844 100.769531 C 88.367188 100.660156 88.746094 100.574219 89.101562 100.519531 C 89.449219 100.464844 89.785156 100.433594 90.109375 100.433594 C 90.914062 100.433594 91.550781 100.617188 92.027344 100.988281 C 92.503906 101.355469 92.742188 101.855469 92.742188 102.484375 C 92.742188 102.917969 92.613281 103.285156 92.363281 103.589844 C 92.113281 103.894531 91.757812 104.109375 91.300781 104.21875 Z M 91.300781 104.21875 "/>
<path style=" stroke:none;fill-rule:nonzero;fill:rgb(0%,0%,0%);fill-opacity:1;" d="M 94.953125 107.136719 L 96.070312 107.136719 L 96.070312 108.480469 L 94.953125 108.480469 Z M 94.953125 107.136719 "/>
<path style=" stroke:none;fill-rule:nonzero;fill:rgb(0%,0%,0%);fill-opacity:1;" d="M 100.6875 101.28125 C 100.132812 101.28125 99.722656 101.550781 99.441406 102.09375 C 99.160156 102.636719 99.027344 103.449219 99.027344 104.535156 C 99.027344 105.617188 99.160156 106.433594 99.441406 106.972656 C 99.722656 107.515625 100.132812 107.789062 100.6875 107.789062 C 101.238281 107.789062 101.652344 107.515625 101.933594 106.972656 C 102.203125 106.433594 102.34375 105.617188 102.34375 104.535156 C 102.34375 103.449219 102.203125 102.636719 101.933594 102.09375 C 101.652344 101.550781 101.238281 101.28125 100.6875 101.28125 Z M 100.6875 100.433594 C 101.5625 100.433594 102.234375 100.792969 102.710938 101.484375 C 103.179688 102.191406 103.417969 103.210938 103.417969 104.535156 C 103.417969 105.867188 103.179688 106.886719 102.710938 107.582031 C 102.234375 108.277344 101.5625 108.621094 100.675781 108.621094 C 99.785156 108.621094 99.113281 108.277344 98.648438 107.582031 C 98.183594 106.886719 97.957031 105.867188 97.957031 104.535156 C 97.957031 103.210938 98.183594 102.191406 98.648438 101.484375 C 99.113281 100.792969 99.796875 100.433594 100.6875 100.433594 Z M 100.6875 100.433594 "/>
<path style="fill:none;stroke-width:0.8;stroke-linecap:butt;stroke-linejoin:round;stroke:rgb(0%,0%,0%);stroke-opacity:1;stroke-miterlimit:4;" d="M 103.102772 53.569641 L 99.602447 53.569641 " transform="matrix(1.083605,0,0,1.084599,0,0)"/>
<path style=" stroke:none;fill-rule:nonzero;fill:rgb(0%,0%,0%);fill-opacity:1;" d="M 91.300781 57.957031 C 91.8125 58.0625 92.210938 58.292969 92.496094 58.640625 C 92.777344 58.984375 92.929688 59.417969 92.929688 59.917969 C 92.929688 60.699219 92.65625 61.308594 92.125 61.730469 C 91.585938 62.152344 90.824219 62.359375 89.839844 62.359375 C 89.503906 62.359375 89.15625 62.328125 88.808594 62.261719 C 88.464844 62.207031 88.09375 62.109375 87.726562 61.980469 L 87.726562 60.949219 C 88.019531 61.121094 88.34375 61.253906 88.703125 61.339844 C 89.046875 61.425781 89.417969 61.46875 89.808594 61.46875 C 90.480469 61.46875 90.988281 61.339844 91.335938 61.078125 C 91.679688 60.820312 91.867188 60.429688 91.867188 59.917969 C 91.867188 59.464844 91.703125 59.09375 91.378906 58.835938 C 91.054688 58.574219 90.597656 58.433594 90.011719 58.433594 L 89.09375 58.433594 L 89.09375 57.554688 L 90.054688 57.554688 C 90.578125 57.554688 90.976562 57.457031 91.257812 57.238281 C 91.539062 57.035156 91.679688 56.730469 91.679688 56.328125 C 91.679688 55.925781 91.53125 55.613281 91.25 55.394531 C 90.957031 55.179688 90.542969 55.070312 90.011719 55.070312 C 89.71875 55.070312 89.40625 55.101562 89.070312 55.167969 C 88.734375 55.234375 88.367188 55.332031 87.964844 55.460938 L 87.964844 54.507812 C 88.367188 54.398438 88.746094 54.3125 89.101562 54.257812 C 89.449219 54.203125 89.785156 54.171875 90.109375 54.171875 C 90.914062 54.171875 91.550781 54.355469 92.027344 54.722656 C 92.503906 55.09375 92.742188 55.589844 92.742188 56.21875 C 92.742188 56.652344 92.613281 57.023438 92.363281 57.328125 C 92.113281 57.628906 91.757812 57.847656 91.300781 57.957031 Z M 91.300781 57.957031 "/>
<path style=" stroke:none;fill-rule:nonzero;fill:rgb(0%,0%,0%);fill-opacity:1;" d="M 94.953125 60.875 L 96.070312 60.875 L 96.070312 62.21875 L 94.953125 62.21875 Z M 94.953125 60.875 "/>
<path style=" stroke:none;fill-rule:nonzero;fill:rgb(0%,0%,0%);fill-opacity:1;" d="M 98.410156 54.3125 L 102.605469 54.3125 L 102.605469 55.210938 L 99.386719 55.210938 L 99.386719 57.152344 C 99.539062 57.097656 99.699219 57.054688 99.851562 57.035156 C 100.003906 57.011719 100.167969 56.992188 100.316406 56.992188 C 101.195312 56.992188 101.890625 57.238281 102.410156 57.71875 C 102.929688 58.203125 103.191406 58.855469 103.191406 59.679688 C 103.191406 60.535156 102.917969 61.199219 102.386719 61.664062 C 101.855469 62.132812 101.109375 62.359375 100.15625 62.359375 C 99.820312 62.359375 99.484375 62.328125 99.136719 62.28125 C 98.789062 62.230469 98.441406 62.152344 98.074219 62.035156 L 98.074219 60.960938 C 98.390625 61.132812 98.714844 61.261719 99.0625 61.351562 C 99.398438 61.4375 99.753906 61.46875 100.132812 61.46875 C 100.742188 61.46875 101.226562 61.316406 101.585938 60.992188 C 101.933594 60.667969 102.117188 60.234375 102.117188 59.679688 C 102.117188 59.136719 101.933594 58.703125 101.585938 58.378906 C 101.226562 58.054688 100.742188 57.890625 100.132812 57.890625 C 99.851562 57.890625 99.558594 57.921875 99.277344 57.988281 C 98.996094 58.054688 98.703125 58.152344 98.410156 58.28125 Z M 98.410156 54.3125 "/>
<path style=" stroke:none;fill-rule:nonzero;fill:rgb(0%,0%,0%);fill-opacity:1;" d="M 72.675781 216.402344 L 73.71875 216.402344 C 73.523438 216.8125 73.382812 217.191406 73.285156 217.550781 C 73.199219 217.917969 73.144531 218.265625 73.144531 218.59375 C 73.144531 219.179688 73.261719 219.632812 73.480469 219.949219 C 73.707031 220.261719 74.03125 220.414062 74.445312 220.414062 C 74.789062 220.414062 75.0625 220.316406 75.234375 220.101562 C 75.417969 219.894531 75.558594 219.492188 75.667969 218.90625 L 75.796875 218.257812 C 75.949219 217.464844 76.222656 216.878906 76.601562 216.5 C 76.988281 216.121094 77.5 215.925781 78.140625 215.925781 C 78.90625 215.925781 79.480469 216.183594 79.871094 216.695312 C 80.261719 217.214844 80.457031 217.964844 80.457031 218.949219 C 80.457031 219.328125 80.414062 219.730469 80.339844 220.152344 C 80.261719 220.578125 80.144531 221.011719 79.96875 221.457031 L 78.863281 221.457031 C 79.113281 221.023438 79.296875 220.597656 79.417969 220.1875 C 79.546875 219.773438 79.601562 219.363281 79.601562 218.949219 C 79.601562 218.34375 79.480469 217.875 79.242188 217.539062 C 79.003906 217.214844 78.667969 217.042969 78.214844 217.042969 C 77.824219 217.042969 77.519531 217.160156 77.304688 217.398438 C 77.085938 217.636719 76.925781 218.027344 76.816406 218.570312 L 76.6875 219.222656 C 76.535156 220.023438 76.285156 220.597656 75.9375 220.957031 C 75.601562 221.316406 75.136719 221.488281 74.53125 221.488281 C 73.835938 221.488281 73.285156 221.25 72.882812 220.75 C 72.480469 220.261719 72.277344 219.578125 72.277344 218.710938 C 72.277344 218.34375 72.308594 217.972656 72.375 217.582031 C 72.4375 217.203125 72.546875 216.8125 72.675781 216.402344 Z M 72.675781 216.402344 "/>
<path style=" stroke:none;fill-rule:nonzero;fill:rgb(0%,0%,0%);fill-opacity:1;" d="M 79.429688 213.355469 L 82.558594 213.355469 L 82.558594 214.328125 L 74.390625 214.328125 L 74.390625 213.355469 L 75.289062 213.355469 C 74.941406 213.160156 74.683594 212.898438 74.507812 212.582031 C 74.335938 212.269531 74.25 211.890625 74.25 211.457031 C 74.25 210.738281 74.542969 210.152344 75.105469 209.699219 C 75.679688 209.253906 76.425781 209.027344 77.359375 209.027344 C 78.289062 209.027344 79.050781 209.253906 79.613281 209.699219 C 80.175781 210.152344 80.457031 210.738281 80.457031 211.457031 C 80.457031 211.890625 80.371094 212.269531 80.207031 212.582031 C 80.046875 212.898438 79.785156 213.160156 79.429688 213.355469 Z M 77.359375 210.035156 C 76.644531 210.035156 76.089844 210.1875 75.679688 210.480469 C 75.265625 210.78125 75.0625 211.183594 75.0625 211.695312 C 75.0625 212.214844 75.265625 212.617188 75.679688 212.910156 C 76.089844 213.210938 76.644531 213.355469 77.359375 213.355469 C 78.074219 213.355469 78.636719 213.210938 79.050781 212.910156 C 79.460938 212.617188 79.65625 212.214844 79.65625 211.695312 C 79.65625 211.183594 79.460938 210.78125 79.050781 210.480469 C 78.636719 210.1875 78.074219 210.035156 77.359375 210.035156 Z M 77.359375 210.035156 "/>
<path style=" stroke:none;fill-rule:nonzero;fill:rgb(0%,0%,0%);fill-opacity:1;" d="M 77.109375 202.335938 L 77.585938 202.335938 L 77.585938 206.8125 C 78.257812 206.769531 78.777344 206.574219 79.125 206.207031 C 79.472656 205.847656 79.644531 205.347656 79.644531 204.699219 C 79.644531 204.328125 79.601562 203.960938 79.515625 203.613281 C 79.429688 203.265625 79.289062 202.910156 79.09375 202.5625 L 80.011719 202.5625 C 80.164062 202.910156 80.285156 203.265625 80.347656 203.636719 C 80.414062 204.003906 80.457031 204.382812 80.457031 204.753906 C 80.457031 205.707031 80.1875 206.457031 79.644531 207.007812 C 79.101562 207.5625 78.355469 207.832031 77.414062 207.832031 C 76.449219 207.832031 75.679688 207.574219 75.105469 207.050781 C 74.542969 206.53125 74.25 205.816406 74.25 204.925781 C 74.25 204.125 74.507812 203.496094 75.019531 203.027344 C 75.539062 202.574219 76.230469 202.335938 77.109375 202.335938 Z M 76.828125 203.308594 C 76.296875 203.320312 75.875 203.472656 75.550781 203.753906 C 75.234375 204.046875 75.070312 204.4375 75.070312 204.914062 C 75.070312 205.457031 75.234375 205.890625 75.539062 206.21875 C 75.839844 206.542969 76.273438 206.738281 76.828125 206.78125 Z M 76.828125 203.308594 "/>
<path style=" stroke:none;fill-rule:nonzero;fill:rgb(0%,0%,0%);fill-opacity:1;" d="M 77.109375 195.664062 L 77.585938 195.664062 L 77.585938 200.144531 C 78.257812 200.101562 78.777344 199.90625 79.125 199.535156 C 79.472656 199.179688 79.644531 198.679688 79.644531 198.027344 C 79.644531 197.660156 79.601562 197.289062 79.515625 196.945312 C 79.429688 196.597656 79.289062 196.238281 79.09375 195.890625 L 80.011719 195.890625 C 80.164062 196.238281 80.285156 196.597656 80.347656 196.964844 C 80.414062 197.335938 80.457031 197.714844 80.457031 198.082031 C 80.457031 199.035156 80.1875 199.785156 79.644531 200.339844 C 79.101562 200.890625 78.355469 201.164062 77.414062 201.164062 C 76.449219 201.164062 75.679688 200.902344 75.105469 200.382812 C 74.542969 199.859375 74.25 199.144531 74.25 198.257812 C 74.25 197.453125 74.507812 196.824219 75.019531 196.359375 C 75.539062 195.902344 76.230469 195.664062 77.109375 195.664062 Z M 76.828125 196.640625 C 76.296875 196.652344 75.875 196.800781 75.550781 197.085938 C 75.234375 197.378906 75.070312 197.769531 75.070312 198.246094 C 75.070312 198.789062 75.234375 199.222656 75.539062 199.546875 C 75.839844 199.871094 76.273438 200.066406 76.828125 200.109375 Z M 76.828125 196.640625 "/>
<path style=" stroke:none;fill-rule:nonzero;fill:rgb(0%,0%,0%);fill-opacity:1;" d="M 75.289062 190.164062 L 72.082031 190.164062 L 72.082031 189.1875 L 80.316406 189.1875 L 80.316406 190.164062 L 79.429688 190.164062 C 79.785156 190.371094 80.046875 190.632812 80.207031 190.945312 C 80.371094 191.261719 80.457031 191.628906 80.457031 192.0625 C 80.457031 192.777344 80.175781 193.363281 79.613281 193.820312 C 79.050781 194.277344 78.289062 194.492188 77.359375 194.492188 C 76.425781 194.492188 75.679688 194.277344 75.105469 193.820312 C 74.542969 193.363281 74.25 192.777344 74.25 192.0625 C 74.25 191.628906 74.335938 191.261719 74.507812 190.945312 C 74.683594 190.632812 74.941406 190.371094 75.289062 190.164062 Z M 77.359375 193.484375 C 78.074219 193.484375 78.636719 193.34375 79.050781 193.050781 C 79.460938 192.757812 79.65625 192.355469 79.65625 191.835938 C 79.65625 191.316406 79.460938 190.914062 79.050781 190.609375 C 78.636719 190.316406 78.074219 190.164062 77.359375 190.164062 C 76.644531 190.164062 76.089844 190.316406 75.679688 190.609375 C 75.265625 190.914062 75.0625 191.316406 75.0625 191.835938 C 75.0625 192.355469 75.265625 192.757812 75.679688 193.050781 C 76.089844 193.34375 76.644531 193.484375 77.359375 193.484375 Z M 77.359375 193.484375 "/>
<path style=" stroke:none;fill-rule:nonzero;fill:rgb(0%,0%,0%);fill-opacity:1;" d="M 72.082031 183.820312 L 72.082031 181.574219 L 72.839844 181.574219 L 72.839844 182.84375 L 80.976562 182.84375 L 80.976562 181.574219 L 81.734375 181.574219 L 81.734375 183.820312 Z M 72.082031 183.820312 "/>
<path style=" stroke:none;fill-rule:nonzero;fill:rgb(0%,0%,0%);fill-opacity:1;" d="M 75.527344 174.882812 C 75.09375 174.644531 74.78125 174.351562 74.5625 174.015625 C 74.355469 173.679688 74.25 173.277344 74.25 172.8125 C 74.25 172.203125 74.464844 171.726562 74.898438 171.390625 C 75.332031 171.054688 75.949219 170.878906 76.742188 170.878906 L 80.316406 170.878906 L 80.316406 171.855469 L 76.773438 171.855469 C 76.210938 171.855469 75.789062 171.964844 75.503906 172.160156 C 75.234375 172.367188 75.09375 172.671875 75.09375 173.082031 C 75.09375 173.59375 75.265625 173.992188 75.601562 174.285156 C 75.9375 174.578125 76.394531 174.71875 76.96875 174.71875 L 80.316406 174.71875 L 80.316406 175.695312 L 76.773438 175.695312 C 76.210938 175.695312 75.789062 175.804688 75.503906 176 C 75.234375 176.207031 75.09375 176.519531 75.09375 176.933594 C 75.09375 177.433594 75.265625 177.832031 75.601562 178.125 C 75.9375 178.417969 76.394531 178.558594 76.96875 178.558594 L 80.316406 178.558594 L 80.316406 179.535156 L 74.390625 179.535156 L 74.390625 178.558594 L 75.308594 178.558594 C 74.953125 178.34375 74.683594 178.070312 74.507812 177.757812 C 74.335938 177.453125 74.25 177.085938 74.25 176.652344 C 74.25 176.21875 74.355469 175.859375 74.574219 175.554688 C 74.789062 175.25 75.117188 175.035156 75.527344 174.882812 Z M 75.527344 174.882812 "/>
<path style=" stroke:none;fill-rule:nonzero;fill:rgb(0%,0%,0%);fill-opacity:1;" d="M 72.417969 167.203125 L 72.417969 166.304688 L 81.3125 169.058594 L 81.3125 169.957031 Z M 72.417969 167.203125 "/>
<path style=" stroke:none;fill-rule:nonzero;fill:rgb(0%,0%,0%);fill-opacity:1;" d="M 74.5625 161.5 L 75.484375 161.5 C 75.355469 161.78125 75.246094 162.0625 75.167969 162.355469 C 75.105469 162.660156 75.0625 162.964844 75.0625 163.277344 C 75.0625 163.765625 75.136719 164.132812 75.289062 164.375 C 75.441406 164.613281 75.65625 164.730469 75.949219 164.730469 C 76.175781 164.730469 76.351562 164.644531 76.480469 164.472656 C 76.609375 164.296875 76.742188 163.949219 76.847656 163.429688 L 76.925781 163.09375 C 77.078125 162.398438 77.292969 161.910156 77.554688 161.617188 C 77.824219 161.335938 78.203125 161.183594 78.679688 161.183594 C 79.234375 161.183594 79.667969 161.402344 79.980469 161.835938 C 80.304688 162.269531 80.457031 162.875 80.457031 163.636719 C 80.457031 163.960938 80.425781 164.285156 80.371094 164.632812 C 80.316406 164.980469 80.230469 165.339844 80.101562 165.71875 L 79.09375 165.71875 C 79.289062 165.359375 79.429688 165.003906 79.515625 164.65625 C 79.613281 164.308594 79.65625 163.960938 79.65625 163.613281 C 79.65625 163.160156 79.578125 162.800781 79.429688 162.550781 C 79.277344 162.3125 79.050781 162.183594 78.757812 162.183594 C 78.496094 162.183594 78.289062 162.28125 78.148438 162.453125 C 78.007812 162.625 77.867188 163.015625 77.738281 163.625 L 77.660156 163.960938 C 77.53125 164.566406 77.335938 165.011719 77.078125 165.273438 C 76.816406 165.542969 76.460938 165.675781 75.992188 165.675781 C 75.441406 165.675781 75.007812 165.480469 74.703125 165.089844 C 74.398438 164.699219 74.25 164.132812 74.25 163.398438 C 74.25 163.039062 74.28125 162.703125 74.335938 162.378906 C 74.390625 162.0625 74.464844 161.769531 74.5625 161.5 Z M 74.5625 161.5 "/>
<path style=" stroke:none;fill-rule:nonzero;fill:rgb(0%,0%,0%);fill-opacity:1;" d="M 72.082031 157.355469 L 81.734375 157.355469 L 81.734375 159.601562 L 80.976562 159.601562 L 80.976562 158.332031 L 72.839844 158.332031 L 72.839844 159.601562 L 72.082031 159.601562 Z M 72.082031 157.355469 "/>
<path style="fill:none;stroke-width:2.5;stroke-linecap:square;stroke-linejoin:round;stroke:rgb(0%,50.196078%,50.196078%);stroke-opacity:1;stroke-miterlimit:4;" d="M 115.200702 295.486594 L 115.889232 268.842234 L 116.109128 263.717211 L 116.530898 245.025102 L 117.551075 213.352961 L 118.708237 186.157563 L 119.649107 170.321492 L 120.182627 163.053539 L 120.402524 159.80493 L 121.350604 150.653359 L 121.72551 147.084211 L 121.97785 144.779211 L 122.201352 143.673531 L 122.464507 140.428523 L 123.441426 133.387469 L 123.654113 131.471438 L 124.227287 127.704203 L 124.551725 125.204719 L 125.258278 121.340242 L 125.47457 119.910422 L 126.004486 117.248867 L 126.238802 116.697828 L 126.393811 115.563336 L 127.031872 113.12868 L 127.341891 112.282313 L 127.698773 111.050578 L 128.589174 108.651938 L 128.9785 107.874 L 129.764361 106.249695 L 129.966233 106.062414 L 130.013097 105.831914 L 130.622319 104.92432 L 130.824191 104.470523 L 131.036878 104.016727 L 131.336082 103.65657 L 132.121943 102.424836 L 132.395913 102.039469 L 132.745585 101.517242 L 134.176717 100.029797 L 134.876061 99.608414 L 135.225733 99.316688 L 135.427605 99.284273 L 135.517727 99.122203 L 135.597034 99.187031 L 136.494646 98.70082 L 136.883971 98.37668 L 137.071424 98.37668 L 137.276901 98.178594 L 140.297779 96.716359 L 140.80967 96.521875 L 142.507562 96.226547 L 142.738273 96.287773 L 143.156438 96.129305 L 144.699321 95.801563 L 144.962476 95.769148 L 145.214816 95.70432 L 145.863692 95.675508 L 146.101613 95.707922 L 146.523383 95.538648 L 147.161444 95.441406 L 147.673335 95.70432 L 149.097257 95.445008 L 149.367622 95.509836 L 149.998474 95.376578 L 150.290468 95.344164 L 151.072724 95.315352 L 151.227733 95.214508 L 151.584615 95.182094 L 152.23349 95.279336 L 152.363266 95.347766 L 153.686251 95.218109 L 154.025109 95.279336 L 157.75254 95.448609 L 157.936388 90.543281 L 157.972437 92.232414 L 158.062559 91.288805 L 158.466304 95.14968 L 158.985404 96.867625 L 159.389149 98.297445 L 160.030816 99.111398 L 160.290366 99.241055 L 160.888774 98.888102 L 161.335777 98.23982 L 162.121638 97.303414 L 163.026459 96.262563 L 164.032217 95.877195 L 164.688302 96.100492 L 164.980297 96.100492 L 165.200193 96.294977 L 167.038675 97.105328 L 167.44242 97.076516 L 167.58301 97.141344 L 167.961521 96.914445 L 168.228281 97.011688 L 168.747381 96.943258 L 169.071819 96.849617 L 169.410677 96.849617 L 169.616154 96.716359 L 170.00548 96.428234 L 170.27945 96.489461 L 170.53179 96.298578 L 170.668775 96.136508 L 171.06531 96.136508 L 171.130198 95.938422 L 171.180666 96.00325 L 171.454636 95.970836 L 171.793493 95.938422 L 172.175609 95.844781 L 172.348643 96.035664 L 172.485628 96.132906 L 173.22823 96.035664 L 173.520224 96.226547 L 173.657209 96.298578 L 174.533191 96.100492 L 174.980195 96.035664 L 175.200092 95.967234 L 175.740821 96.00325 L 176.007582 95.906008 L 176.169801 95.906008 L 176.252712 95.776352 L 176.404117 95.906008 L 176.818676 95.740336 L 177.052993 95.711523 L 178.725651 95.578266 L 179.251961 95.448609 L 179.511511 95.643094 L 179.623262 95.70432 L 180.027007 95.639492 L 180.416333 95.70432 L 180.675883 95.769148 L 180.791239 95.833977 L 181.234637 95.639492 L 181.447324 95.769148 L 181.84386 95.902406 L 181.998869 95.769148 L 182.085386 95.898805 L 182.247605 95.769148 L 182.384589 95.833977 L 182.507155 95.70432 L 183.271387 96.024859 L 183.675132 95.898805 L 184.713333 95.833977 L 184.850318 95.769148 L 185.765954 95.963633 L 185.985851 95.895203 L 186.68159 95.963633 L 186.764502 95.769148 L 187.038471 95.830375 L 187.485475 95.635891 L 187.647694 95.765547 L 187.784679 95.635891 L 188.098302 93.334492 L 188.300175 92.905906 L 188.747178 90.528875 L 189.013938 84.622313 L 189.396054 91.749805 L 190.160285 83.883992 L 190.560426 82.79632 L 191.047082 80.095148 L 191.169648 82.021984 L 191.447223 84.330586 L 191.573393 87.020953 L 191.923065 81.813094 L 192.117728 79.518898 L 192.225874 80.087945 L 192.557521 81.164813 L 192.791838 81.939148 L 193.26768 80.008711 L 193.487577 79.630547 L 193.923765 80.844273 L 194.186921 81.723055 L 194.345535 81.687039 L 194.507754 81.928344 L 194.965572 80.271625 L 195.116976 79.583727 L 195.610843 90.845813 L 195.740618 91.238383 L 196.155178 87.874523 L 196.274138 88.209469 L 196.461591 88.245484 L 196.753585 88.738898 L 196.955458 89.099055 L 197.16454 89.246719 L 197.287105 89.153078 L 197.507002 89.253922 L 197.777367 89.801359 L 198.235185 90.975469 L 198.36496 90.946656 L 198.754286 91.674172 L 199.248153 92.54575 L 199.381533 92.549352 L 199.817721 93.039164 L 199.922262 92.927516 L 200.012384 93.003148 L 200.66847 92.718625 L 201.097449 91.926281 L 201.34258 91.108727 L 201.544452 90.791789 L 202.362757 87.489156 L 202.66917 86.354664 L 203.051286 84.413422 L 204.745573 75.88132 L 205.24665 76.886156 L 205.351191 76.788914 L 205.495385 76.925773 L 205.830638 77.030219 L 207.279794 78.308773 L 207.539344 78.157508 L 208.072864 77.909 L 208.227874 77.97743 L 209.493182 79.763805 L 209.994258 80.725422 L 210.228574 80.97393 L 210.401608 81.478148 L 211.306429 83.523836 L 211.713779 85.364234 L 211.973329 86.682406 L 212.77361 89.171086 L 213.436905 91.46168 L 215.077119 95.686313 L 215.239338 95.920414 L 215.560171 96.788391 L 216.209047 98.063344 L 216.955254 99.640828 L 217.312136 99.568797 L 217.701462 99.867727 L 217.888915 99.73807 L 218.01869 99.802898 L 218.141255 99.716461 L 218.253006 99.936156 L 218.364757 99.907344 L 218.534186 100.137844 L 218.689195 100.130641 L 218.955955 100.465586 L 219.453426 100.490797 L 219.709372 100.710492 L 220.188819 100.526813 L 220.365457 100.512406 L 220.733154 100.037 L 221.385635 98.891703 L 221.987647 97.951695 L 225.091437 95.174891 L 225.2861 94.969602 L 225.473553 94.591438 L 225.689845 94.418563 L 225.81962 94.126836 L 226.032307 93.943156 L 226.363954 93.453344 L 226.839797 92.758242 L 227.791481 91.465281 L 228.963063 89.855383 L 229.118072 89.815766 L 229.280291 89.653695 L 229.474954 89.61768 L 229.85707 89.286336 L 231.572986 89.707719 L 231.915448 90.006648 L 232.13174 89.970633 L 232.53188 90.093086 L 234.265821 90.265961 L 234.467693 90.186727 L 234.929116 90.334391 L 235.513104 90.114695 L 237.326352 90.071477 L 237.560668 90.251555 L 237.79138 90.258758 L 239.074712 90.687344 L 241.720684 91.051102 L 242.189316 90.74857 L 242.49573 90.802594 L 243.187864 90.442438 L 243.609633 90.410023 L 243.912442 90.507266 L 244.233275 90.651328 L 244.572133 90.647727 L 245.228218 90.910641 L 248.411315 91.285203 L 249.766744 91.339227 L 250.455274 91.472484 L 250.934721 91.476086 L 251.421378 91.659766 L 251.684533 91.591336 L 251.936874 91.746203 L 252.398297 91.713789 L 253.274279 91.857852 L 253.51941 91.378844 L 253.955599 88.85775 L 254.197125 88.602039 L 254.748669 88.522805 L 255.249746 88.256289 L 255.566974 88.81093 L 256.331205 91.429266 L 256.832282 92.196398 L 257.506392 93.204836 L 257.733498 93.204836 L 257.975024 93.028359 L 258.248994 92.570961 L 258.508544 92.452109 L 259.301615 91.634555 L 259.532326 91.55532 L 259.788272 89.394383 L 260.015378 80.599367 L 260.300163 85.731594 L 260.545294 87.420727 L 260.801239 87.226242 L 261.677222 87.395516 L 261.897118 88.602039 L 262.117015 87.575594 L 262.603672 84.514266 L 263.944682 87.103789 L 264.903577 92.408891 L 265.429887 93.701852 L 265.923754 95.092055 L 266.111207 93.676641 L 266.331104 94.137641 L 267.520709 93.871125 L 267.837938 93.568594 L 268.429136 94.029594 L 268.717525 93.853117 L 269.287094 93.925148 L 269.52141 93.917945 L 269.932365 94.256492 L 270.566821 93.62982 L 271.13639 93.863922 L 271.352682 93.003148 L 271.821315 93.76668 L 272.214245 94.749906 L 272.4774 94.66707 L 272.798233 94.137641 L 273.15872 93.122 L 273.630957 91.825438 L 274.247389 90.356 L 274.755675 89.833773 L 275.2928 90.132703 L 275.826321 91.749805 L 276.136339 93.298477 L 276.417519 95.070445 L 277.794577 105.38532 L 278.183903 109.267805 L 278.364146 110.488734 L 280.768592 133.18218 L 280.963255 134.190617 L 281.814003 140.482547 L 282.156465 142.258117 L 282.704405 144.581125 L 283.169433 145.776844 L 283.378515 145.942516 L 283.818308 146.979766 L 284.131932 147.285898 L 284.326595 147.246281 L 284.514048 143.349391 L 284.97547 140.975961 L 285.768541 145.042125 L 286.020882 145.535539 L 286.240778 146.227039 L 286.417417 147.948586 L 286.831976 148.596867 L 287.289794 147.58843 L 287.704354 145.74443 L 288.793024 140.043156 L 289.189559 138.245977 L 289.878088 135.469172 L 290.50894 132.523094 L 291.204679 127.480906 L 291.994145 120.742383 L 292.834078 109.916086 L 293.201775 106.120039 L 293.825416 97.180961 L 295.0727 84.914039 L 295.775649 81.834703 L 296.103692 80.959523 L 296.489412 80.455305 L 296.82827 80.170781 L 297.646574 79.832234 L 299.138989 81.244047 L 300.000552 83.343758 L 300.386273 83.916406 L 301.13969 86.048531 L 301.644371 86.909305 L 302.358134 89.160281 L 303.331448 95.232516 L 303.612628 97.43307 L 303.789266 98.387484 L 304.456166 103.613352 L 304.957243 106.728703 L 305.631353 109.491102 L 306.074751 110.827281 L 306.410004 111.749281 L 306.860612 112.523617 L 306.961548 112.64607 L 307.340059 112.429977 L 307.5924 111.828516 L 307.801482 111.140617 L 308.482802 107.405797 L 308.717118 106.094828 L 310.458268 95.272133 L 311.334251 91.166352 L 311.503679 90.77018 L 311.774044 89.747336 L 312.372452 88.407555 L 312.552695 88.191461 L 312.678866 88.2815 L 313.133079 87.370305 L 313.717067 85.969297 L 314.949931 84.435031 L 315.10494 84.535875 L 315.429378 84.514266 L 315.573573 84.672734 L 315.728582 84.571891 L 316.146747 84.723156 L 317.451708 84.52507 L 317.750912 84.607906 L 318.367344 84.712352 L 318.580031 84.982469 L 321.593699 88.940586 L 321.716265 88.922578 L 321.84604 89.207102 L 321.965 89.163883 L 322.249785 89.333156 L 322.851797 89.538445 L 323.536722 89.351164 L 323.799877 89.221508 L 323.944072 89.279133 L 325.555447 88.785719 L 325.724876 89.016219 L 326.020475 88.598438 L 326.442244 88.231078 L 326.716214 87.759273 L 327.015418 87.413523 L 328.626793 84.402617 L 328.799826 84.503461 L 328.929601 84.424227 L 329.210781 84.521469 L 329.373 84.427828 L 330.202119 84.960859 L 330.638308 84.953656 L 330.969956 84.849211 L 331.463822 84.989672 L 331.658485 85.047297 L 332.152352 84.838406 L 332.332595 85.00768 L 333.26265 85.266992 L 333.540225 85.587531 L 334.171077 85.749602 L 334.308061 85.727992 L 334.398183 85.63075 L 334.463071 85.720789 L 334.755065 85.637953 L 334.917284 85.782016 L 335.014615 85.742398 L 335.378707 85.965695 L 335.872573 86.13857 L 335.937461 86.09175 L 336.016768 86.329453 L 336.377255 86.462711 L 336.503425 86.617578 L 336.932404 86.707617 L 336.972057 86.797656 L 337.04055 86.668 L 337.137881 86.884094 L 337.404641 86.959727 L 338.406794 87.445938 L 338.464472 87.611609 L 338.846588 87.644023 L 340.66344 88.346328 L 340.832869 88.299508 L 341.049161 88.501195 L 341.46372 88.44357 L 341.964797 88.609242 L 342.231557 88.702883 L 342.361332 88.663266 L 342.599253 88.753305 L 343.424768 89.106258 L 345.216386 89.54925 L 345.353371 89.761742 L 345.627341 89.610477 L 346.276216 89.866188 L 346.770083 90.255156 L 347.242321 90.276766 L 347.588388 90.478453 L 347.995738 90.47125 L 348.45716 90.795391 L 348.860905 91.018688 L 349.073592 90.856617 L 349.257441 91.015086 L 349.372796 91.119531 L 349.509781 91.058305 L 349.646766 91.357234 L 349.776541 91.205969 L 350.328086 91.465281 L 350.540773 91.609344 L 350.814743 91.569727 L 351.056269 91.666969 L 351.204068 91.720992 L 351.333843 91.90107 L 351.478038 91.868656 L 351.755613 91.976703 L 352.177382 92.174789 L 352.418908 92.221609 L 352.50903 92.387281 L 352.653224 92.300844 L 352.873121 92.459313 L 353.002896 92.372875 L 355.086509 92.880695 L 355.367689 92.700617 L 355.522698 92.610578 L 355.60561 92.736633 L 356.315768 92.715023 L 356.503221 92.754641 L 356.81324 92.909508 L 356.9322 92.77625 L 357.119653 92.909508 " transform="matrix(1.083605,0,0,1.084599,0,0)"/>
<path style="fill:none;stroke-width:2.5;stroke-linecap:butt;stroke-linejoin:round;stroke:rgb(100%,0%,0%);stroke-opacity:1;stroke-dasharray:9.25,4;stroke-miterlimit:4;" d="M 115.200702 96.222945 L 188.300175 96.222945 L 188.397506 74.894492 L 188.624613 74.894492 L 188.747178 96.222945 L 190.416231 96.222945 L 190.643337 74.894492 L 190.83079 96.222945 L 191.047082 96.222945 L 191.169648 74.894492 L 191.447223 74.894492 L 191.573393 96.222945 L 191.703168 74.894492 L 191.825733 74.894492 L 192.013187 96.222945 L 192.117728 96.222945 L 192.225874 74.894492 L 192.46019 74.894492 L 192.557521 53.569641 L 192.791838 53.569641 L 192.896379 74.894492 L 193.487577 74.894492 L 193.592118 96.222945 L 193.696659 74.894492 L 194.186921 74.894492 L 194.345535 53.569641 L 194.727651 53.569641 L 194.835797 74.894492 L 195.610843 74.894492 L 195.740618 53.569641 L 203.995761 53.569641 L 204.129141 96.222945 L 251.176247 96.222945 L 251.421378 74.894492 L 251.936874 74.894492 L 252.138746 96.222945 L 257.733498 96.222945 L 257.975024 74.894492 L 258.248994 96.222945 L 357.119653 96.222945 " transform="matrix(1.083605,0,0,1.084599,0,0)"/>
<path style="fill:none;stroke-width:0.8;stroke-linecap:square;stroke-linejoin:miter;stroke:rgb(0%,0%,0%);stroke-opacity:1;stroke-miterlimit:10;" d="M 103.102772 307.584242 L 103.102772 41.471992 M 369.217584 307.584242 L 369.217584 41.471992 M 103.102772 307.584242 L 369.217584 307.584242 M 103.102772 41.471992 L 369.217584 41.471992 " transform="matrix(1.083605,0,0,1.084599,0,0)"/>
<path style="fill-rule:nonzero;fill:rgb(100%,100%,100%);fill-opacity:0.8;stroke-width:1;stroke-linecap:butt;stroke-linejoin:miter;stroke:rgb(83.529412%,83.921569%,83.529412%);stroke-opacity:0.8;stroke-miterlimit:10;" d="M 233.371814 302.585273 L 362.216934 302.585273 C 363.550734 302.585273 364.217634 301.915383 364.217634 300.582805 L 364.217634 272.238508 C 364.217634 270.90593 363.550734 270.239641 362.216934 270.239641 L 233.371814 270.239641 C 232.038014 270.239641 231.371113 270.90593 231.371113 272.238508 L 231.371113 300.582805 C 231.371113 301.915383 232.038014 302.585273 233.371814 302.585273 Z M 233.371814 302.585273 " transform="matrix(1.083605,0,0,1.084599,0,0)"/>
<path style="fill:none;stroke-width:2.5;stroke-linecap:square;stroke-linejoin:round;stroke:rgb(0%,50.196078%,50.196078%);stroke-opacity:1;stroke-miterlimit:4;" d="M 235.372515 278.332352 L 255.372311 278.332352 " transform="matrix(1.083605,0,0,1.084599,0,0)"/>
<path style=" stroke:none;fill-rule:nonzero;fill:rgb(0%,0%,0%);fill-opacity:1;" d="M 292.371094 298.378906 L 292.371094 299.503906 C 292 299.179688 291.621094 298.929688 291.210938 298.757812 C 290.796875 298.59375 290.375 298.507812 289.921875 298.507812 C 289.011719 298.507812 288.316406 298.789062 287.839844 299.34375 C 287.363281 299.894531 287.125 300.6875 287.125 301.730469 C 287.125 302.769531 287.363281 303.574219 287.839844 304.125 C 288.316406 304.679688 289.011719 304.949219 289.921875 304.949219 C 290.375 304.949219 290.796875 304.875 291.210938 304.699219 C 291.621094 304.539062 292 304.289062 292.371094 303.953125 L 292.371094 305.070312 C 291.992188 305.328125 291.589844 305.515625 291.175781 305.632812 C 290.765625 305.753906 290.320312 305.816406 289.855469 305.816406 C 288.664062 305.816406 287.722656 305.460938 287.027344 304.734375 C 286.332031 304.007812 285.996094 303.007812 285.996094 301.730469 C 285.996094 300.460938 286.332031 299.460938 287.027344 298.722656 C 287.722656 297.996094 288.664062 297.628906 289.855469 297.628906 C 290.332031 297.628906 290.777344 297.695312 291.1875 297.8125 C 291.601562 297.945312 292 298.128906 292.371094 298.378906 Z M 292.371094 298.378906 "/>
<path style=" stroke:none;fill-rule:nonzero;fill:rgb(0%,0%,0%);fill-opacity:1;" d="M 293.875 303.335938 L 293.875 299.742188 L 294.851562 299.742188 L 294.851562 303.300781 C 294.851562 303.867188 294.960938 304.277344 295.175781 304.558594 C 295.394531 304.839844 295.71875 304.984375 296.164062 304.984375 C 296.683594 304.984375 297.105469 304.820312 297.410156 304.484375 C 297.710938 304.148438 297.863281 303.691406 297.863281 303.105469 L 297.863281 299.742188 L 298.839844 299.742188 L 298.839844 305.675781 L 297.863281 305.675781 L 297.863281 304.765625 C 297.625 305.132812 297.34375 305.394531 297.039062 305.566406 C 296.726562 305.730469 296.367188 305.816406 295.957031 305.816406 C 295.273438 305.816406 294.753906 305.613281 294.40625 305.1875 C 294.050781 304.777344 293.875 304.160156 293.875 303.335938 Z M 296.324219 299.601562 Z M 296.324219 299.601562 "/>
<path style=" stroke:none;fill-rule:nonzero;fill:rgb(0%,0%,0%);fill-opacity:1;" d="M 304.277344 300.65625 C 304.171875 300.589844 304.050781 300.546875 303.921875 300.515625 C 303.789062 300.492188 303.648438 300.472656 303.5 300.472656 C 302.945312 300.472656 302.523438 300.65625 302.230469 301.011719 C 301.925781 301.371094 301.785156 301.878906 301.785156 302.554688 L 301.785156 305.675781 L 300.8125 305.675781 L 300.8125 299.742188 L 301.785156 299.742188 L 301.785156 300.664062 C 301.980469 300.308594 302.253906 300.035156 302.578125 299.863281 C 302.902344 299.691406 303.304688 299.601562 303.78125 299.601562 C 303.84375 299.601562 303.921875 299.613281 304.007812 299.613281 C 304.082031 299.625 304.171875 299.636719 304.277344 299.65625 Z M 304.277344 300.65625 "/>
<path style=" stroke:none;fill-rule:nonzero;fill:rgb(0%,0%,0%);fill-opacity:1;" d="M 308.546875 300.65625 C 308.4375 300.589844 308.316406 300.546875 308.1875 300.515625 C 308.058594 300.492188 307.917969 300.472656 307.765625 300.472656 C 307.210938 300.472656 306.789062 300.65625 306.496094 301.011719 C 306.195312 301.371094 306.054688 301.878906 306.054688 302.554688 L 306.054688 305.675781 L 305.078125 305.675781 L 305.078125 299.742188 L 306.054688 299.742188 L 306.054688 300.664062 C 306.25 300.308594 306.519531 300.035156 306.84375 299.863281 C 307.167969 299.691406 307.570312 299.601562 308.046875 299.601562 C 308.113281 299.601562 308.1875 299.613281 308.273438 299.613281 C 308.351562 299.625 308.4375 299.636719 308.546875 299.65625 Z M 308.546875 300.65625 "/>
<path style=" stroke:none;fill-rule:nonzero;fill:rgb(0%,0%,0%);fill-opacity:1;" d="M 314.398438 302.464844 L 314.398438 302.945312 L 309.925781 302.945312 C 309.96875 303.617188 310.164062 304.136719 310.53125 304.484375 C 310.886719 304.832031 311.386719 305.003906 312.035156 305.003906 C 312.40625 305.003906 312.773438 304.960938 313.121094 304.875 C 313.46875 304.789062 313.824219 304.644531 314.171875 304.453125 L 314.171875 305.375 C 313.824219 305.523438 313.46875 305.644531 313.097656 305.710938 C 312.730469 305.773438 312.351562 305.816406 311.984375 305.816406 C 311.027344 305.816406 310.28125 305.546875 309.730469 305.003906 C 309.175781 304.460938 308.90625 303.714844 308.90625 302.769531 C 308.90625 301.804688 309.164062 301.035156 309.6875 300.460938 C 310.207031 299.894531 310.921875 299.601562 311.808594 299.601562 C 312.609375 299.601562 313.238281 299.863281 313.707031 300.375 C 314.160156 300.894531 314.398438 301.585938 314.398438 302.464844 Z M 313.425781 302.183594 C 313.414062 301.652344 313.261719 301.230469 312.980469 300.90625 C 312.6875 300.589844 312.296875 300.425781 311.820312 300.425781 C 311.277344 300.425781 310.84375 300.589844 310.519531 300.894531 C 310.195312 301.199219 310 301.632812 309.957031 302.183594 Z M 313.425781 302.183594 "/>
<path style=" stroke:none;fill-rule:nonzero;fill:rgb(0%,0%,0%);fill-opacity:1;" d="M 320.921875 302.097656 L 320.921875 305.675781 L 319.949219 305.675781 L 319.949219 302.128906 C 319.949219 301.566406 319.828125 301.152344 319.613281 300.871094 C 319.394531 300.589844 319.070312 300.449219 318.636719 300.449219 C 318.105469 300.449219 317.695312 300.621094 317.390625 300.957031 C 317.085938 301.296875 316.933594 301.75 316.933594 302.324219 L 316.933594 305.675781 L 315.960938 305.675781 L 315.960938 299.742188 L 316.933594 299.742188 L 316.933594 300.664062 C 317.164062 300.320312 317.433594 300.046875 317.757812 299.875 C 318.074219 299.699219 318.441406 299.601562 318.851562 299.601562 C 319.523438 299.601562 320.042969 299.820312 320.390625 300.242188 C 320.738281 300.664062 320.921875 301.285156 320.921875 302.097656 Z M 320.921875 302.097656 "/>
<path style=" stroke:none;fill-rule:nonzero;fill:rgb(0%,0%,0%);fill-opacity:1;" d="M 323.828125 298.0625 L 323.828125 299.742188 L 325.832031 299.742188 L 325.832031 300.503906 L 323.828125 300.503906 L 323.828125 303.722656 C 323.828125 304.210938 323.890625 304.527344 324.023438 304.65625 C 324.152344 304.796875 324.421875 304.863281 324.835938 304.863281 L 325.832031 304.863281 L 325.832031 305.675781 L 324.835938 305.675781 C 324.074219 305.675781 323.554688 305.535156 323.273438 305.253906 C 322.992188 304.972656 322.851562 304.460938 322.851562 303.722656 L 322.851562 300.503906 L 322.136719 300.503906 L 322.136719 299.742188 L 322.851562 299.742188 L 322.851562 298.0625 Z M 323.828125 298.0625 "/>
<path style=" stroke:none;fill-rule:nonzero;fill:rgb(0%,0%,0%);fill-opacity:1;" d="M 334.335938 299.917969 L 334.335938 300.839844 C 334.054688 300.710938 333.773438 300.601562 333.480469 300.523438 C 333.179688 300.460938 332.875 300.417969 332.558594 300.417969 C 332.074219 300.417969 331.703125 300.492188 331.464844 300.644531 C 331.226562 300.796875 331.109375 301.011719 331.109375 301.304688 C 331.109375 301.535156 331.195312 301.707031 331.367188 301.835938 C 331.542969 301.96875 331.886719 302.097656 332.410156 302.207031 L 332.746094 302.28125 C 333.4375 302.433594 333.925781 302.652344 334.21875 302.910156 C 334.5 303.183594 334.652344 303.5625 334.652344 304.039062 C 334.652344 304.59375 334.433594 305.027344 334 305.339844 C 333.566406 305.664062 332.960938 305.816406 332.203125 305.816406 C 331.878906 305.816406 331.550781 305.785156 331.207031 305.730469 C 330.859375 305.675781 330.5 305.589844 330.121094 305.460938 L 330.121094 304.453125 C 330.480469 304.644531 330.835938 304.789062 331.183594 304.875 C 331.53125 304.972656 331.878906 305.015625 332.222656 305.015625 C 332.679688 305.015625 333.039062 304.9375 333.285156 304.789062 C 333.523438 304.636719 333.65625 304.40625 333.65625 304.113281 C 333.65625 303.855469 333.558594 303.648438 333.382812 303.507812 C 333.210938 303.367188 332.820312 303.226562 332.214844 303.09375 L 331.878906 303.019531 C 331.269531 302.890625 330.828125 302.695312 330.566406 302.433594 C 330.296875 302.171875 330.164062 301.816406 330.164062 301.347656 C 330.164062 300.796875 330.359375 300.363281 330.75 300.058594 C 331.140625 299.753906 331.703125 299.601562 332.441406 299.601562 C 332.800781 299.601562 333.136719 299.636719 333.460938 299.691406 C 333.773438 299.742188 334.066406 299.820312 334.335938 299.917969 Z M 334.335938 299.917969 "/>
<path style=" stroke:none;fill-rule:nonzero;fill:rgb(0%,0%,0%);fill-opacity:1;" d="M 337.144531 304.789062 L 337.144531 307.921875 L 336.167969 307.921875 L 336.167969 299.742188 L 337.144531 299.742188 L 337.144531 300.644531 C 337.339844 300.296875 337.597656 300.035156 337.914062 299.863281 C 338.226562 299.691406 338.605469 299.601562 339.039062 299.601562 C 339.753906 299.601562 340.339844 299.894531 340.796875 300.460938 C 341.238281 301.035156 341.46875 301.78125 341.46875 302.714844 C 341.46875 303.648438 341.238281 304.40625 340.796875 304.972656 C 340.339844 305.535156 339.753906 305.816406 339.039062 305.816406 C 338.605469 305.816406 338.226562 305.730469 337.914062 305.566406 C 337.597656 305.40625 337.339844 305.144531 337.144531 304.789062 Z M 340.460938 302.714844 C 340.460938 302 340.308594 301.445312 340.015625 301.035156 C 339.710938 300.621094 339.3125 300.417969 338.800781 300.417969 C 338.28125 300.417969 337.882812 300.621094 337.589844 301.035156 C 337.285156 301.445312 337.144531 302 337.144531 302.714844 C 337.144531 303.433594 337.285156 303.996094 337.589844 304.40625 C 337.882812 304.820312 338.28125 305.015625 338.800781 305.015625 C 339.3125 305.015625 339.710938 304.820312 340.015625 304.40625 C 340.308594 303.996094 340.460938 303.433594 340.460938 302.714844 Z M 340.460938 302.714844 "/>
<path style=" stroke:none;fill-rule:nonzero;fill:rgb(0%,0%,0%);fill-opacity:1;" d="M 348.152344 302.464844 L 348.152344 302.945312 L 343.679688 302.945312 C 343.722656 303.617188 343.917969 304.136719 344.285156 304.484375 C 344.644531 304.832031 345.140625 305.003906 345.792969 305.003906 C 346.160156 305.003906 346.527344 304.960938 346.875 304.875 C 347.222656 304.789062 347.578125 304.644531 347.925781 304.453125 L 347.925781 305.375 C 347.578125 305.523438 347.222656 305.644531 346.851562 305.710938 C 346.484375 305.773438 346.105469 305.816406 345.738281 305.816406 C 344.785156 305.816406 344.035156 305.546875 343.484375 305.003906 C 342.929688 304.460938 342.660156 303.714844 342.660156 302.769531 C 342.660156 301.804688 342.917969 301.035156 343.441406 300.460938 C 343.960938 299.894531 344.675781 299.601562 345.5625 299.601562 C 346.367188 299.601562 346.992188 299.863281 347.460938 300.375 C 347.914062 300.894531 348.152344 301.585938 348.152344 302.464844 Z M 347.179688 302.183594 C 347.167969 301.652344 347.015625 301.230469 346.734375 300.90625 C 346.441406 300.589844 346.050781 300.425781 345.574219 300.425781 C 345.03125 300.425781 344.597656 300.589844 344.273438 300.894531 C 343.949219 301.199219 343.753906 301.632812 343.710938 302.183594 Z M 347.179688 302.183594 "/>
<path style=" stroke:none;fill-rule:nonzero;fill:rgb(0%,0%,0%);fill-opacity:1;" d="M 354.816406 302.464844 L 354.816406 302.945312 L 350.34375 302.945312 C 350.386719 303.617188 350.582031 304.136719 350.949219 304.484375 C 351.308594 304.832031 351.804688 305.003906 352.457031 305.003906 C 352.824219 305.003906 353.191406 304.960938 353.539062 304.875 C 353.886719 304.789062 354.242188 304.644531 354.589844 304.453125 L 354.589844 305.375 C 354.242188 305.523438 353.886719 305.644531 353.515625 305.710938 C 353.148438 305.773438 352.769531 305.816406 352.402344 305.816406 C 351.449219 305.816406 350.699219 305.546875 350.148438 305.003906 C 349.59375 304.460938 349.324219 303.714844 349.324219 302.769531 C 349.324219 301.804688 349.582031 301.035156 350.105469 300.460938 C 350.625 299.894531 351.339844 299.601562 352.226562 299.601562 C 353.03125 299.601562 353.660156 299.863281 354.125 300.375 C 354.578125 300.894531 354.816406 301.585938 354.816406 302.464844 Z M 353.84375 302.183594 C 353.832031 301.652344 353.679688 301.230469 353.398438 300.90625 C 353.105469 300.589844 352.714844 300.425781 352.238281 300.425781 C 351.695312 300.425781 351.261719 300.589844 350.9375 300.894531 C 350.613281 301.199219 350.417969 301.632812 350.375 302.183594 Z M 353.84375 302.183594 "/>
<path style=" stroke:none;fill-rule:nonzero;fill:rgb(0%,0%,0%);fill-opacity:1;" d="M 360.3125 300.644531 L 360.3125 297.433594 L 361.285156 297.433594 L 361.285156 305.675781 L 360.3125 305.675781 L 360.3125 304.789062 C 360.105469 305.144531 359.84375 305.40625 359.53125 305.566406 C 359.21875 305.730469 358.847656 305.816406 358.414062 305.816406 C 357.699219 305.816406 357.113281 305.535156 356.660156 304.972656 C 356.203125 304.40625 355.988281 303.648438 355.988281 302.714844 C 355.988281 301.78125 356.203125 301.035156 356.660156 300.460938 C 357.113281 299.894531 357.699219 299.601562 358.414062 299.601562 C 358.847656 299.601562 359.21875 299.691406 359.53125 299.863281 C 359.84375 300.035156 360.105469 300.296875 360.3125 300.644531 Z M 356.996094 302.714844 C 356.996094 303.433594 357.136719 303.996094 357.429688 304.40625 C 357.722656 304.820312 358.121094 305.015625 358.644531 305.015625 C 359.164062 305.015625 359.5625 304.820312 359.867188 304.40625 C 360.160156 303.996094 360.3125 303.433594 360.3125 302.714844 C 360.3125 302 360.160156 301.445312 359.867188 301.035156 C 359.5625 300.621094 359.164062 300.417969 358.644531 300.417969 C 358.121094 300.417969 357.722656 300.621094 357.429688 301.035156 C 357.136719 301.445312 356.996094 302 356.996094 302.714844 Z M 356.996094 302.714844 "/>
<path style=" stroke:none;fill-rule:nonzero;fill:rgb(0%,0%,0%);fill-opacity:1;" d="M 369.078125 297.445312 C 368.601562 298.269531 368.253906 299.070312 368.027344 299.863281 C 367.789062 300.65625 367.679688 301.457031 367.679688 302.269531 C 367.679688 303.09375 367.789062 303.898438 368.027344 304.691406 C 368.253906 305.492188 368.601562 306.285156 369.078125 307.097656 L 368.234375 307.097656 C 367.703125 306.261719 367.300781 305.460938 367.039062 304.65625 C 366.78125 303.855469 366.652344 303.0625 366.652344 302.269531 C 366.652344 301.492188 366.78125 300.699219 367.039062 299.894531 C 367.300781 299.09375 367.691406 298.28125 368.234375 297.445312 Z M 369.078125 297.445312 "/>
<path style=" stroke:none;fill-rule:nonzero;fill:rgb(0%,0%,0%);fill-opacity:1;" d="M 374.214844 298.496094 C 373.433594 298.496094 372.816406 298.789062 372.359375 299.363281 C 371.90625 299.949219 371.679688 300.730469 371.679688 301.730469 C 371.679688 302.726562 371.90625 303.519531 372.359375 304.09375 C 372.816406 304.679688 373.433594 304.960938 374.214844 304.960938 C 374.984375 304.960938 375.601562 304.679688 376.054688 304.09375 C 376.511719 303.519531 376.738281 302.726562 376.738281 301.730469 C 376.738281 300.730469 376.511719 299.949219 376.054688 299.363281 C 375.601562 298.789062 374.984375 298.496094 374.214844 298.496094 Z M 374.214844 297.628906 C 375.320312 297.628906 376.195312 298.007812 376.867188 298.746094 C 377.53125 299.484375 377.867188 300.480469 377.867188 301.730469 C 377.867188 302.988281 377.53125 303.972656 376.867188 304.710938 C 376.195312 305.449219 375.320312 305.816406 374.214844 305.816406 C 373.097656 305.816406 372.210938 305.449219 371.546875 304.710938 C 370.875 303.972656 370.550781 302.988281 370.550781 301.730469 C 370.550781 300.480469 370.875 299.484375 371.546875 298.746094 C 372.210938 298.007812 373.097656 297.628906 374.214844 297.628906 Z M 374.214844 297.628906 "/>
<path style=" stroke:none;fill-rule:nonzero;fill:rgb(0%,0%,0%);fill-opacity:1;" d="M 384.269531 298.03125 L 384.269531 299.070312 C 383.859375 298.875 383.480469 298.734375 383.121094 298.636719 C 382.753906 298.550781 382.40625 298.496094 382.082031 298.496094 C 381.496094 298.496094 381.039062 298.617188 380.726562 298.832031 C 380.414062 299.0625 380.261719 299.386719 380.261719 299.796875 C 380.261719 300.144531 380.359375 300.417969 380.574219 300.589844 C 380.78125 300.773438 381.183594 300.914062 381.765625 301.023438 L 382.417969 301.152344 C 383.207031 301.304688 383.792969 301.578125 384.171875 301.957031 C 384.550781 302.347656 384.746094 302.855469 384.746094 303.496094 C 384.746094 304.265625 384.488281 304.839844 383.976562 305.230469 C 383.457031 305.621094 382.710938 305.816406 381.722656 305.816406 C 381.34375 305.816406 380.945312 305.773438 380.519531 305.699219 C 380.097656 305.621094 379.664062 305.503906 379.21875 305.328125 L 379.21875 304.222656 C 379.652344 304.472656 380.078125 304.65625 380.488281 304.777344 C 380.898438 304.90625 381.3125 304.960938 381.722656 304.960938 C 382.332031 304.960938 382.796875 304.839844 383.132812 304.601562 C 383.457031 304.363281 383.628906 304.027344 383.628906 303.574219 C 383.628906 303.183594 383.511719 302.878906 383.273438 302.660156 C 383.035156 302.445312 382.644531 302.28125 382.101562 302.171875 L 381.453125 302.042969 C 380.652344 301.890625 380.078125 301.640625 379.71875 301.296875 C 379.363281 300.957031 379.1875 300.492188 379.1875 299.886719 C 379.1875 299.191406 379.425781 298.636719 379.925781 298.238281 C 380.414062 297.835938 381.09375 297.628906 381.960938 297.628906 C 382.332031 297.628906 382.699219 297.660156 383.089844 297.726562 C 383.46875 297.792969 383.859375 297.898438 384.269531 298.03125 Z M 384.269531 298.03125 "/>
<path style=" stroke:none;fill-rule:nonzero;fill:rgb(0%,0%,0%);fill-opacity:1;" d="M 386.21875 297.445312 L 387.066406 297.445312 C 387.585938 298.28125 387.988281 299.09375 388.246094 299.894531 C 388.507812 300.699219 388.648438 301.492188 388.648438 302.269531 C 388.648438 303.0625 388.507812 303.855469 388.246094 304.65625 C 387.988281 305.460938 387.585938 306.261719 387.066406 307.097656 L 386.21875 307.097656 C 386.6875 306.285156 387.035156 305.492188 387.273438 304.691406 C 387.5 303.898438 387.617188 303.09375 387.617188 302.269531 C 387.617188 301.457031 387.5 300.65625 387.273438 299.863281 C 387.035156 299.070312 386.6875 298.269531 386.21875 297.445312 Z M 386.21875 297.445312 "/>
<path style="fill:none;stroke-width:2.5;stroke-linecap:butt;stroke-linejoin:round;stroke:rgb(100%,0%,0%);stroke-opacity:1;stroke-dasharray:9.25,4;stroke-miterlimit:4;" d="M 235.372515 293.005117 L 255.372311 293.005117 " transform="matrix(1.083605,0,0,1.084599,0,0)"/>
<path style=" stroke:none;fill-rule:nonzero;fill:rgb(0%,0%,0%);fill-opacity:1;" d="M 287.527344 314.5625 L 287.527344 320.710938 L 288.816406 320.710938 C 289.898438 320.710938 290.699219 320.472656 291.210938 319.972656 C 291.707031 319.476562 291.96875 318.695312 291.96875 317.632812 C 291.96875 316.566406 291.707031 315.796875 291.210938 315.300781 C 290.699219 314.8125 289.898438 314.5625 288.816406 314.5625 Z M 286.453125 313.683594 L 288.652344 313.683594 C 290.179688 313.683594 291.308594 314.007812 292.023438 314.636719 C 292.738281 315.277344 293.09375 316.277344 293.09375 317.632812 C 293.09375 318.996094 292.726562 319.996094 292.011719 320.636719 C 291.296875 321.277344 290.167969 321.589844 288.652344 321.589844 L 286.453125 321.589844 Z M 286.453125 313.683594 "/>
<path style=" stroke:none;fill-rule:nonzero;fill:rgb(0%,0%,0%);fill-opacity:1;" d="M 299.824219 318.378906 L 299.824219 318.855469 L 295.347656 318.855469 C 295.394531 319.527344 295.585938 320.050781 295.957031 320.398438 C 296.3125 320.742188 296.8125 320.917969 297.460938 320.917969 C 297.832031 320.917969 298.199219 320.875 298.546875 320.789062 C 298.894531 320.699219 299.25 320.558594 299.597656 320.363281 L 299.597656 321.285156 C 299.25 321.4375 298.894531 321.558594 298.523438 321.621094 C 298.15625 321.6875 297.777344 321.730469 297.410156 321.730469 C 296.453125 321.730469 295.707031 321.460938 295.15625 320.917969 C 294.601562 320.375 294.332031 319.625 294.332031 318.683594 C 294.332031 317.71875 294.589844 316.949219 295.109375 316.375 C 295.632812 315.808594 296.347656 315.515625 297.234375 315.515625 C 298.035156 315.515625 298.664062 315.777344 299.132812 316.285156 C 299.585938 316.808594 299.824219 317.5 299.824219 318.378906 Z M 298.847656 318.097656 C 298.839844 317.566406 298.6875 317.144531 298.40625 316.816406 C 298.113281 316.503906 297.722656 316.339844 297.246094 316.339844 C 296.703125 316.339844 296.269531 316.503906 295.945312 316.808594 C 295.621094 317.109375 295.425781 317.542969 295.382812 318.097656 Z M 298.847656 318.097656 "/>
<path style=" stroke:none;fill-rule:nonzero;fill:rgb(0%,0%,0%);fill-opacity:1;" d="M 305.199219 315.832031 L 305.199219 316.753906 C 304.917969 316.621094 304.636719 316.515625 304.34375 316.4375 C 304.039062 316.375 303.738281 316.328125 303.421875 316.328125 C 302.933594 316.328125 302.566406 316.40625 302.328125 316.558594 C 302.089844 316.710938 301.96875 316.925781 301.96875 317.21875 C 301.96875 317.445312 302.058594 317.621094 302.230469 317.75 C 302.402344 317.878906 302.75 318.011719 303.269531 318.121094 L 303.605469 318.195312 C 304.300781 318.347656 304.789062 318.5625 305.082031 318.824219 C 305.363281 319.09375 305.515625 319.476562 305.515625 319.953125 C 305.515625 320.503906 305.296875 320.9375 304.863281 321.253906 C 304.429688 321.578125 303.824219 321.730469 303.066406 321.730469 C 302.738281 321.730469 302.414062 321.699219 302.066406 321.644531 C 301.722656 321.589844 301.363281 321.503906 300.984375 321.375 L 300.984375 320.363281 C 301.34375 320.558594 301.699219 320.699219 302.046875 320.789062 C 302.394531 320.886719 302.738281 320.929688 303.085938 320.929688 C 303.542969 320.929688 303.898438 320.851562 304.148438 320.699219 C 304.386719 320.546875 304.515625 320.320312 304.515625 320.027344 C 304.515625 319.769531 304.417969 319.5625 304.246094 319.421875 C 304.074219 319.28125 303.683594 319.140625 303.074219 319.007812 L 302.738281 318.933594 C 302.132812 318.800781 301.6875 318.605469 301.429688 318.347656 C 301.15625 318.085938 301.027344 317.730469 301.027344 317.261719 C 301.027344 316.710938 301.222656 316.277344 301.613281 315.972656 C 302.003906 315.667969 302.566406 315.515625 303.304688 315.515625 C 303.660156 315.515625 303.996094 315.546875 304.320312 315.601562 C 304.636719 315.65625 304.929688 315.734375 305.199219 315.832031 Z M 305.199219 315.832031 "/>
<path style=" stroke:none;fill-rule:nonzero;fill:rgb(0%,0%,0%);fill-opacity:1;" d="M 307.0625 315.65625 L 308.039062 315.65625 L 308.039062 321.589844 L 307.0625 321.589844 Z M 307.0625 313.347656 L 308.039062 313.347656 L 308.039062 314.582031 L 307.0625 314.582031 Z M 307.0625 313.347656 "/>
<path style=" stroke:none;fill-rule:nonzero;fill:rgb(0%,0%,0%);fill-opacity:1;" d="M 313.511719 316.566406 C 313.402344 316.503906 313.28125 316.460938 313.152344 316.425781 C 313.023438 316.40625 312.882812 316.382812 312.730469 316.382812 C 312.179688 316.382812 311.753906 316.566406 311.460938 316.925781 C 311.160156 317.285156 311.019531 317.792969 311.019531 318.464844 L 311.019531 321.589844 L 310.042969 321.589844 L 310.042969 315.65625 L 311.019531 315.65625 L 311.019531 316.578125 C 311.214844 316.222656 311.484375 315.949219 311.808594 315.777344 C 312.132812 315.601562 312.535156 315.515625 313.011719 315.515625 C 313.078125 315.515625 313.152344 315.527344 313.238281 315.527344 C 313.316406 315.539062 313.402344 315.546875 313.511719 315.570312 Z M 313.511719 316.566406 "/>
<path style=" stroke:none;fill-rule:nonzero;fill:rgb(0%,0%,0%);fill-opacity:1;" d="M 319.363281 318.378906 L 319.363281 318.855469 L 314.890625 318.855469 C 314.933594 319.527344 315.128906 320.050781 315.496094 320.398438 C 315.851562 320.742188 316.351562 320.917969 317.003906 320.917969 C 317.371094 320.917969 317.738281 320.875 318.085938 320.789062 C 318.433594 320.699219 318.789062 320.558594 319.136719 320.363281 L 319.136719 321.285156 C 318.789062 321.4375 318.433594 321.558594 318.0625 321.621094 C 317.695312 321.6875 317.316406 321.730469 316.949219 321.730469 C 315.996094 321.730469 315.246094 321.460938 314.695312 320.917969 C 314.140625 320.375 313.871094 319.625 313.871094 318.683594 C 313.871094 317.71875 314.128906 316.949219 314.652344 316.375 C 315.171875 315.808594 315.886719 315.515625 316.773438 315.515625 C 317.578125 315.515625 318.203125 315.777344 318.671875 316.285156 C 319.125 316.808594 319.363281 317.5 319.363281 318.378906 Z M 318.390625 318.097656 C 318.378906 317.566406 318.226562 317.144531 317.945312 316.816406 C 317.652344 316.503906 317.261719 316.339844 316.785156 316.339844 C 316.242188 316.339844 315.808594 316.503906 315.484375 316.808594 C 315.160156 317.109375 314.964844 317.542969 314.921875 318.097656 Z M 318.390625 318.097656 "/>
<path style=" stroke:none;fill-rule:nonzero;fill:rgb(0%,0%,0%);fill-opacity:1;" d="M 324.855469 316.558594 L 324.855469 313.347656 L 325.832031 313.347656 L 325.832031 321.589844 L 324.855469 321.589844 L 324.855469 320.699219 C 324.652344 321.058594 324.390625 321.320312 324.078125 321.480469 C 323.761719 321.644531 323.394531 321.730469 322.960938 321.730469 C 322.246094 321.730469 321.660156 321.449219 321.207031 320.886719 C 320.75 320.320312 320.535156 319.5625 320.535156 318.628906 C 320.535156 317.695312 320.75 316.949219 321.207031 316.375 C 321.660156 315.808594 322.246094 315.515625 322.960938 315.515625 C 323.394531 315.515625 323.761719 315.601562 324.078125 315.777344 C 324.390625 315.949219 324.652344 316.210938 324.855469 316.558594 Z M 321.542969 318.628906 C 321.542969 319.34375 321.683594 319.910156 321.976562 320.320312 C 322.265625 320.734375 322.667969 320.929688 323.1875 320.929688 C 323.707031 320.929688 324.109375 320.734375 324.414062 320.320312 C 324.707031 319.910156 324.855469 319.34375 324.855469 318.628906 C 324.855469 317.914062 324.707031 317.359375 324.414062 316.949219 C 324.109375 316.535156 323.707031 316.328125 323.1875 316.328125 C 322.667969 316.328125 322.265625 316.535156 321.976562 316.949219 C 321.683594 317.359375 321.542969 317.914062 321.542969 318.628906 Z M 321.542969 318.628906 "/>
<path style=" stroke:none;fill-rule:nonzero;fill:rgb(0%,0%,0%);fill-opacity:1;" d="M 335.066406 315.832031 L 335.066406 316.753906 C 334.785156 316.621094 334.503906 316.515625 334.210938 316.4375 C 333.90625 316.375 333.601562 316.328125 333.289062 316.328125 C 332.800781 316.328125 332.433594 316.40625 332.195312 316.558594 C 331.957031 316.710938 331.835938 316.925781 331.835938 317.21875 C 331.835938 317.445312 331.921875 317.621094 332.097656 317.75 C 332.269531 317.878906 332.617188 318.011719 333.136719 318.121094 L 333.472656 318.195312 C 334.167969 318.347656 334.652344 318.5625 334.945312 318.824219 C 335.226562 319.09375 335.378906 319.476562 335.378906 319.953125 C 335.378906 320.503906 335.164062 320.9375 334.730469 321.253906 C 334.296875 321.578125 333.691406 321.730469 332.929688 321.730469 C 332.605469 321.730469 332.28125 321.699219 331.933594 321.644531 C 331.585938 321.589844 331.230469 321.503906 330.851562 321.375 L 330.851562 320.363281 C 331.207031 320.558594 331.566406 320.699219 331.914062 320.789062 C 332.257812 320.886719 332.605469 320.929688 332.953125 320.929688 C 333.40625 320.929688 333.765625 320.851562 334.015625 320.699219 C 334.253906 320.546875 334.382812 320.320312 334.382812 320.027344 C 334.382812 319.769531 334.285156 319.5625 334.113281 319.421875 C 333.9375 319.28125 333.546875 319.140625 332.941406 319.007812 L 332.605469 318.933594 C 332 318.800781 331.554688 318.605469 331.292969 318.347656 C 331.023438 318.085938 330.894531 317.730469 330.894531 317.261719 C 330.894531 316.710938 331.089844 316.277344 331.480469 315.972656 C 331.867188 315.667969 332.433594 315.515625 333.167969 315.515625 C 333.527344 315.515625 333.863281 315.546875 334.1875 315.601562 C 334.503906 315.65625 334.792969 315.734375 335.066406 315.832031 Z M 335.066406 315.832031 "/>
<path style=" stroke:none;fill-rule:nonzero;fill:rgb(0%,0%,0%);fill-opacity:1;" d="M 337.871094 320.699219 L 337.871094 323.835938 L 336.898438 323.835938 L 336.898438 315.65625 L 337.871094 315.65625 L 337.871094 316.558594 C 338.066406 316.210938 338.328125 315.949219 338.640625 315.777344 C 338.957031 315.601562 339.335938 315.515625 339.769531 315.515625 C 340.484375 315.515625 341.070312 315.808594 341.523438 316.375 C 341.96875 316.949219 342.195312 317.695312 342.195312 318.628906 C 342.195312 319.5625 341.96875 320.320312 341.523438 320.886719 C 341.070312 321.449219 340.484375 321.730469 339.769531 321.730469 C 339.335938 321.730469 338.957031 321.644531 338.640625 321.480469 C 338.328125 321.320312 338.066406 321.058594 337.871094 320.699219 Z M 341.1875 318.628906 C 341.1875 317.914062 341.035156 317.359375 340.742188 316.949219 C 340.441406 316.535156 340.039062 316.328125 339.53125 316.328125 C 339.011719 316.328125 338.609375 316.535156 338.316406 316.949219 C 338.011719 317.359375 337.871094 317.914062 337.871094 318.628906 C 337.871094 319.34375 338.011719 319.910156 338.316406 320.320312 C 338.609375 320.734375 339.011719 320.929688 339.53125 320.929688 C 340.039062 320.929688 340.441406 320.734375 340.742188 320.320312 C 341.035156 319.910156 341.1875 319.34375 341.1875 318.628906 Z M 341.1875 318.628906 "/>
<path style=" stroke:none;fill-rule:nonzero;fill:rgb(0%,0%,0%);fill-opacity:1;" d="M 348.882812 318.378906 L 348.882812 318.855469 L 344.40625 318.855469 C 344.449219 319.527344 344.644531 320.050781 345.011719 320.398438 C 345.371094 320.742188 345.871094 320.917969 346.519531 320.917969 C 346.886719 320.917969 347.257812 320.875 347.601562 320.789062 C 347.949219 320.699219 348.308594 320.558594 348.652344 320.363281 L 348.652344 321.285156 C 348.308594 321.4375 347.949219 321.558594 347.582031 321.621094 C 347.214844 321.6875 346.832031 321.730469 346.464844 321.730469 C 345.511719 321.730469 344.765625 321.460938 344.210938 320.917969 C 343.660156 320.375 343.386719 319.625 343.386719 318.683594 C 343.386719 317.71875 343.648438 316.949219 344.167969 316.375 C 344.6875 315.808594 345.402344 315.515625 346.292969 315.515625 C 347.09375 315.515625 347.722656 315.777344 348.1875 316.285156 C 348.644531 316.808594 348.882812 317.5 348.882812 318.378906 Z M 347.90625 318.097656 C 347.894531 317.566406 347.742188 317.144531 347.460938 316.816406 C 347.167969 316.503906 346.78125 316.339844 346.304688 316.339844 C 345.761719 316.339844 345.328125 316.503906 345.003906 316.808594 C 344.675781 317.109375 344.480469 317.542969 344.4375 318.097656 Z M 347.90625 318.097656 "/>
<path style=" stroke:none;fill-rule:nonzero;fill:rgb(0%,0%,0%);fill-opacity:1;" d="M 355.542969 318.378906 L 355.542969 318.855469 L 351.070312 318.855469 C 351.113281 319.527344 351.308594 320.050781 351.675781 320.398438 C 352.035156 320.742188 352.53125 320.917969 353.183594 320.917969 C 353.550781 320.917969 353.917969 320.875 354.265625 320.789062 C 354.613281 320.699219 354.96875 320.558594 355.316406 320.363281 L 355.316406 321.285156 C 354.96875 321.4375 354.613281 321.558594 354.246094 321.621094 C 353.875 321.6875 353.496094 321.730469 353.128906 321.730469 C 352.175781 321.730469 351.425781 321.460938 350.875 320.917969 C 350.320312 320.375 350.050781 319.625 350.050781 318.683594 C 350.050781 317.71875 350.3125 316.949219 350.832031 316.375 C 351.351562 315.808594 352.066406 315.515625 352.953125 315.515625 C 353.757812 315.515625 354.386719 315.777344 354.851562 316.285156 C 355.304688 316.808594 355.542969 317.5 355.542969 318.378906 Z M 354.570312 318.097656 C 354.558594 317.566406 354.40625 317.144531 354.125 316.816406 C 353.832031 316.503906 353.441406 316.339844 352.964844 316.339844 C 352.425781 316.339844 351.992188 316.503906 351.664062 316.808594 C 351.339844 317.109375 351.144531 317.542969 351.101562 318.097656 Z M 354.570312 318.097656 "/>
<path style=" stroke:none;fill-rule:nonzero;fill:rgb(0%,0%,0%);fill-opacity:1;" d="M 361.039062 316.558594 L 361.039062 313.347656 L 362.015625 313.347656 L 362.015625 321.589844 L 361.039062 321.589844 L 361.039062 320.699219 C 360.832031 321.058594 360.574219 321.320312 360.257812 321.480469 C 359.945312 321.644531 359.574219 321.730469 359.140625 321.730469 C 358.425781 321.730469 357.84375 321.449219 357.386719 320.886719 C 356.933594 320.320312 356.714844 319.5625 356.714844 318.628906 C 356.714844 317.695312 356.933594 316.949219 357.386719 316.375 C 357.84375 315.808594 358.425781 315.515625 359.140625 315.515625 C 359.574219 315.515625 359.945312 315.601562 360.257812 315.777344 C 360.574219 315.949219 360.832031 316.210938 361.039062 316.558594 Z M 357.722656 318.628906 C 357.722656 319.34375 357.863281 319.910156 358.15625 320.320312 C 358.449219 320.734375 358.851562 320.929688 359.371094 320.929688 C 359.890625 320.929688 360.289062 320.734375 360.59375 320.320312 C 360.886719 319.910156 361.039062 319.34375 361.039062 318.628906 C 361.039062 317.914062 360.886719 317.359375 360.59375 316.949219 C 360.289062 316.535156 359.890625 316.328125 359.371094 316.328125 C 358.851562 316.328125 358.449219 316.535156 358.15625 316.949219 C 357.863281 317.359375 357.722656 317.914062 357.722656 318.628906 Z M 357.722656 318.628906 "/>
<path style=" stroke:none;fill-rule:nonzero;fill:rgb(0%,0%,0%);fill-opacity:1;" d="M 369.804688 313.359375 C 369.328125 314.183594 368.984375 314.984375 368.753906 315.777344 C 368.515625 316.566406 368.410156 317.371094 368.410156 318.183594 C 368.410156 319.007812 368.515625 319.8125 368.753906 320.601562 C 368.984375 321.40625 369.328125 322.199219 369.804688 323.011719 L 368.960938 323.011719 C 368.429688 322.175781 368.027344 321.375 367.769531 320.570312 C 367.507812 319.769531 367.378906 318.976562 367.378906 318.183594 C 367.378906 317.402344 367.507812 316.613281 367.769531 315.808594 C 368.027344 315.007812 368.417969 314.191406 368.960938 313.359375 Z M 369.804688 313.359375 "/>
<path style=" stroke:none;fill-rule:nonzero;fill:rgb(0%,0%,0%);fill-opacity:1;" d="M 374.941406 314.410156 C 374.164062 314.410156 373.542969 314.703125 373.089844 315.277344 C 372.632812 315.863281 372.40625 316.644531 372.40625 317.640625 C 372.40625 318.640625 372.632812 319.433594 373.089844 320.007812 C 373.542969 320.59375 374.164062 320.875 374.941406 320.875 C 375.710938 320.875 376.328125 320.59375 376.785156 320.007812 C 377.238281 319.433594 377.46875 318.640625 377.46875 317.640625 C 377.46875 316.644531 377.238281 315.863281 376.785156 315.277344 C 376.328125 314.703125 375.710938 314.410156 374.941406 314.410156 Z M 374.941406 313.542969 C 376.046875 313.542969 376.925781 313.921875 377.597656 314.660156 C 378.257812 315.398438 378.59375 316.394531 378.59375 317.640625 C 378.59375 318.898438 378.257812 319.886719 377.597656 320.625 C 376.925781 321.363281 376.046875 321.730469 374.941406 321.730469 C 373.828125 321.730469 372.9375 321.363281 372.277344 320.625 C 371.605469 319.886719 371.28125 318.898438 371.28125 317.640625 C 371.28125 316.394531 371.605469 315.398438 372.277344 314.660156 C 372.9375 313.921875 373.828125 313.542969 374.941406 313.542969 Z M 374.941406 313.542969 "/>
<path style=" stroke:none;fill-rule:nonzero;fill:rgb(0%,0%,0%);fill-opacity:1;" d="M 385 313.945312 L 385 314.984375 C 384.585938 314.789062 384.207031 314.648438 383.851562 314.550781 C 383.480469 314.464844 383.132812 314.410156 382.808594 314.410156 C 382.222656 314.410156 381.769531 314.527344 381.453125 314.746094 C 381.140625 314.972656 380.988281 315.300781 380.988281 315.710938 C 380.988281 316.058594 381.085938 316.328125 381.304688 316.503906 C 381.507812 316.6875 381.910156 316.828125 382.496094 316.9375 L 383.144531 317.066406 C 383.9375 317.21875 384.523438 317.492188 384.902344 317.871094 C 385.28125 318.261719 385.476562 318.769531 385.476562 319.410156 C 385.476562 320.179688 385.214844 320.753906 384.707031 321.144531 C 384.1875 321.535156 383.4375 321.730469 382.453125 321.730469 C 382.074219 321.730469 381.671875 321.6875 381.25 321.613281 C 380.828125 321.535156 380.394531 321.417969 379.949219 321.242188 L 379.949219 320.136719 C 380.382812 320.386719 380.804688 320.570312 381.214844 320.691406 C 381.628906 320.820312 382.039062 320.875 382.453125 320.875 C 383.058594 320.875 383.523438 320.753906 383.859375 320.515625 C 384.1875 320.277344 384.359375 319.941406 384.359375 319.484375 C 384.359375 319.09375 384.238281 318.792969 384 318.574219 C 383.761719 318.359375 383.371094 318.195312 382.832031 318.085938 L 382.179688 317.957031 C 381.378906 317.804688 380.804688 317.554688 380.445312 317.207031 C 380.089844 316.871094 379.917969 316.40625 379.917969 315.796875 C 379.917969 315.105469 380.15625 314.550781 380.652344 314.148438 C 381.140625 313.75 381.824219 313.542969 382.691406 313.542969 C 383.058594 313.542969 383.425781 313.574219 383.816406 313.640625 C 384.195312 313.703125 384.585938 313.8125 385 313.945312 Z M 385 313.945312 "/>
<path style=" stroke:none;fill-rule:nonzero;fill:rgb(0%,0%,0%);fill-opacity:1;" d="M 386.949219 313.359375 L 387.792969 313.359375 C 388.3125 314.191406 388.714844 315.007812 388.976562 315.808594 C 389.234375 316.613281 389.375 317.402344 389.375 318.183594 C 389.375 318.976562 389.234375 319.769531 388.976562 320.570312 C 388.714844 321.375 388.3125 322.175781 387.792969 323.011719 L 386.949219 323.011719 C 387.414062 322.199219 387.761719 321.40625 388 320.601562 C 388.226562 319.8125 388.347656 319.007812 388.347656 318.183594 C 388.347656 317.371094 388.226562 316.566406 388 315.777344 C 387.761719 314.984375 387.414062 314.183594 386.949219 313.359375 Z M 386.949219 313.359375 "/>
</g>
</svg>
