<?xml version="1.0" encoding="UTF-8"?>
<svg xmlns="http://www.w3.org/2000/svg" xmlns:xlink="http://www.w3.org/1999/xlink" width="400px" height="px" viewBox="0 0 400 416" version="1.1">
<defs>
<clipPath id="clip1">
  <path d="M 0 0 L 400 0 L 400 413.398438 L 0 413.398438 Z M 0 0 "/>
</clipPath>
</defs>
<g id="surface1">
<g clip-path="url(#clip1)" clip-rule="nonzero">
<path style=" stroke:none;fill-rule:nonzero;fill:rgb(100%,100%,100%);fill-opacity:1;" d="M -82.03125 413.398438 L 517.96875 413.398438 L 517.96875 -35.878906 L -82.03125 -35.878906 Z M -82.03125 413.398438 "/>
</g>
<path style=" stroke:none;fill-rule:nonzero;fill:rgb(100%,100%,100%);fill-opacity:1;" d="M 52.21875 363.980469 L 398.71875 363.980469 L 398.71875 18.035156 L 52.21875 18.035156 Z M 52.21875 363.980469 "/>
<path style="fill:none;stroke-width:0.8;stroke-linecap:butt;stroke-linejoin:round;stroke:rgb(0%,0%,0%);stroke-opacity:1;stroke-miterlimit:4;" d="M 45.399 269.984976 L 45.399 273.482572 " transform="matrix(1.302083,0,0,1.3,0,13)"/>
<path style=" stroke:none;fill-rule:nonzero;fill:rgb(0%,0%,0%);fill-opacity:1;" d="M 59.113281 374.320312 C 58.449219 374.320312 57.957031 374.644531 57.617188 375.292969 C 57.277344 375.945312 57.121094 376.917969 57.121094 378.21875 C 57.121094 379.519531 57.277344 380.496094 57.617188 381.144531 C 57.957031 381.792969 58.449219 382.121094 59.113281 382.121094 C 59.777344 382.121094 60.273438 381.792969 60.613281 381.144531 C 60.9375 380.496094 61.105469 379.519531 61.105469 378.21875 C 61.105469 376.917969 60.9375 375.945312 60.613281 375.292969 C 60.273438 374.644531 59.777344 374.320312 59.113281 374.320312 Z M 59.113281 373.304688 C 60.167969 373.304688 60.976562 373.734375 61.550781 374.566406 C 62.109375 375.410156 62.394531 376.632812 62.394531 378.21875 C 62.394531 379.820312 62.109375 381.039062 61.550781 381.871094 C 60.976562 382.703125 60.167969 383.121094 59.101562 383.121094 C 58.035156 383.121094 57.226562 382.703125 56.667969 381.871094 C 56.105469 381.039062 55.832031 379.820312 55.832031 378.21875 C 55.832031 376.632812 56.105469 375.410156 56.667969 374.566406 C 57.226562 373.734375 58.046875 373.304688 59.113281 373.304688 Z M 59.113281 373.304688 "/>
<path style="fill:none;stroke-width:0.8;stroke-linecap:butt;stroke-linejoin:round;stroke:rgb(0%,0%,0%);stroke-opacity:1;stroke-miterlimit:4;" d="M 95.88 269.984976 L 95.88 273.482572 " transform="matrix(1.302083,0,0,1.3,0,13)"/>
<path style=" stroke:none;fill-rule:nonzero;fill:rgb(0%,0%,0%);fill-opacity:1;" d="M 118.179688 381.871094 L 120.277344 381.871094 L 120.277344 374.644531 L 117.996094 375.097656 L 117.996094 373.929688 L 120.261719 373.472656 L 121.550781 373.472656 L 121.550781 381.871094 L 123.648438 381.871094 L 123.648438 382.953125 L 118.179688 382.953125 Z M 118.179688 381.871094 "/>
<path style=" stroke:none;fill-rule:nonzero;fill:rgb(0%,0%,0%);fill-opacity:1;" d="M 128.988281 374.320312 C 128.324219 374.320312 127.828125 374.644531 127.488281 375.292969 C 127.152344 375.945312 126.996094 376.917969 126.996094 378.21875 C 126.996094 379.519531 127.152344 380.496094 127.488281 381.144531 C 127.828125 381.792969 128.324219 382.121094 128.988281 382.121094 C 129.652344 382.121094 130.144531 381.792969 130.484375 381.144531 C 130.808594 380.496094 130.980469 379.519531 130.980469 378.21875 C 130.980469 376.917969 130.808594 375.945312 130.484375 375.292969 C 130.144531 374.644531 129.652344 374.320312 128.988281 374.320312 Z M 128.988281 373.304688 C 130.042969 373.304688 130.847656 373.734375 131.421875 374.566406 C 131.980469 375.410156 132.269531 376.632812 132.269531 378.21875 C 132.269531 379.820312 131.980469 381.039062 131.421875 381.871094 C 130.847656 382.703125 130.042969 383.121094 128.972656 383.121094 C 127.90625 383.121094 127.097656 382.703125 126.539062 381.871094 C 125.980469 381.039062 125.707031 379.820312 125.707031 378.21875 C 125.707031 376.632812 125.980469 375.410156 126.539062 374.566406 C 127.097656 373.734375 127.917969 373.304688 128.988281 373.304688 Z M 128.988281 373.304688 "/>
<path style="fill:none;stroke-width:0.8;stroke-linecap:butt;stroke-linejoin:round;stroke:rgb(0%,0%,0%);stroke-opacity:1;stroke-miterlimit:4;" d="M 146.361 269.984976 L 146.361 273.482572 " transform="matrix(1.302083,0,0,1.3,0,13)"/>
<path style=" stroke:none;fill-rule:nonzero;fill:rgb(0%,0%,0%);fill-opacity:1;" d="M 184.796875 381.871094 L 189.273438 381.871094 L 189.273438 382.953125 L 183.246094 382.953125 L 183.246094 381.871094 C 183.726562 381.378906 184.390625 380.703125 185.238281 379.84375 C 186.070312 379 186.605469 378.453125 186.828125 378.207031 C 187.242188 377.75 187.53125 377.363281 187.6875 377.035156 C 187.84375 376.722656 187.933594 376.398438 187.933594 376.085938 C 187.933594 375.59375 187.75 375.175781 187.398438 374.867188 C 187.046875 374.554688 186.59375 374.382812 186.019531 374.382812 C 185.617188 374.382812 185.1875 374.460938 184.742188 374.59375 C 184.300781 374.734375 183.820312 374.945312 183.3125 375.230469 L 183.3125 373.929688 C 183.832031 373.722656 184.3125 373.566406 184.757812 373.460938 C 185.199219 373.355469 185.617188 373.304688 185.992188 373.304688 C 186.96875 373.304688 187.75 373.550781 188.335938 374.046875 C 188.921875 374.539062 189.222656 375.191406 189.222656 376.007812 C 189.222656 376.398438 189.144531 376.777344 189 377.113281 C 188.859375 377.464844 188.597656 377.882812 188.207031 378.347656 C 188.101562 378.480469 187.765625 378.832031 187.191406 379.414062 C 186.617188 380 185.824219 380.820312 184.796875 381.871094 Z M 184.796875 381.871094 "/>
<path style=" stroke:none;fill-rule:nonzero;fill:rgb(0%,0%,0%);fill-opacity:1;" d="M 194.71875 374.320312 C 194.054688 374.320312 193.558594 374.644531 193.21875 375.292969 C 192.882812 375.945312 192.726562 376.917969 192.726562 378.21875 C 192.726562 379.519531 192.882812 380.496094 193.21875 381.144531 C 193.558594 381.792969 194.054688 382.121094 194.71875 382.121094 C 195.382812 382.121094 195.875 381.792969 196.214844 381.144531 C 196.539062 380.496094 196.710938 379.519531 196.710938 378.21875 C 196.710938 376.917969 196.539062 375.945312 196.214844 375.292969 C 195.875 374.644531 195.382812 374.320312 194.71875 374.320312 Z M 194.71875 373.304688 C 195.773438 373.304688 196.578125 373.734375 197.152344 374.566406 C 197.710938 375.410156 198 376.632812 198 378.21875 C 198 379.820312 197.710938 381.039062 197.152344 381.871094 C 196.578125 382.703125 195.773438 383.121094 194.703125 383.121094 C 193.636719 383.121094 192.828125 382.703125 192.269531 381.871094 C 191.710938 381.039062 191.4375 379.820312 191.4375 378.21875 C 191.4375 376.632812 191.710938 375.410156 192.269531 374.566406 C 192.828125 373.734375 193.648438 373.304688 194.71875 373.304688 Z M 194.71875 373.304688 "/>
<path style="fill:none;stroke-width:0.8;stroke-linecap:butt;stroke-linejoin:round;stroke:rgb(0%,0%,0%);stroke-opacity:1;stroke-miterlimit:4;" d="M 196.842 269.984976 L 196.842 273.482572 " transform="matrix(1.302083,0,0,1.3,0,13)"/>
<path style=" stroke:none;fill-rule:nonzero;fill:rgb(0%,0%,0%);fill-opacity:1;" d="M 253.3125 377.84375 C 253.925781 377.972656 254.40625 378.246094 254.746094 378.660156 C 255.082031 379.078125 255.265625 379.597656 255.265625 380.195312 C 255.265625 381.132812 254.941406 381.859375 254.300781 382.367188 C 253.652344 382.875 252.738281 383.121094 251.554688 383.121094 C 251.152344 383.121094 250.734375 383.082031 250.316406 383.003906 C 249.902344 382.9375 249.457031 382.820312 249.015625 382.664062 L 249.015625 381.429688 C 249.367188 381.636719 249.757812 381.792969 250.1875 381.898438 C 250.605469 382.003906 251.046875 382.054688 251.515625 382.054688 C 252.324219 382.054688 252.933594 381.898438 253.351562 381.585938 C 253.769531 381.273438 253.988281 380.804688 253.988281 380.195312 C 253.988281 379.648438 253.792969 379.207031 253.402344 378.894531 C 253.011719 378.582031 252.464844 378.414062 251.761719 378.414062 L 250.65625 378.414062 L 250.65625 377.363281 L 251.816406 377.363281 C 252.441406 377.363281 252.921875 377.246094 253.261719 376.984375 C 253.597656 376.738281 253.769531 376.375 253.769531 375.890625 C 253.769531 375.410156 253.585938 375.035156 253.246094 374.773438 C 252.894531 374.515625 252.402344 374.382812 251.761719 374.382812 C 251.410156 374.382812 251.035156 374.421875 250.628906 374.5 C 250.226562 374.578125 249.785156 374.695312 249.300781 374.851562 L 249.300781 373.707031 C 249.785156 373.578125 250.238281 373.472656 250.667969 373.410156 C 251.085938 373.34375 251.488281 373.304688 251.878906 373.304688 C 252.84375 373.304688 253.613281 373.527344 254.183594 373.96875 C 254.757812 374.410156 255.042969 375.007812 255.042969 375.761719 C 255.042969 376.28125 254.886719 376.722656 254.589844 377.089844 C 254.289062 377.453125 253.859375 377.710938 253.3125 377.84375 Z M 253.3125 377.84375 "/>
<path style=" stroke:none;fill-rule:nonzero;fill:rgb(0%,0%,0%);fill-opacity:1;" d="M 260.449219 374.320312 C 259.785156 374.320312 259.289062 374.644531 258.949219 375.292969 C 258.613281 375.945312 258.457031 376.917969 258.457031 378.21875 C 258.457031 379.519531 258.613281 380.496094 258.949219 381.144531 C 259.289062 381.792969 259.785156 382.121094 260.449219 382.121094 C 261.113281 382.121094 261.605469 381.792969 261.945312 381.144531 C 262.269531 380.496094 262.441406 379.519531 262.441406 378.21875 C 262.441406 376.917969 262.269531 375.945312 261.945312 375.292969 C 261.605469 374.644531 261.113281 374.320312 260.449219 374.320312 Z M 260.449219 373.304688 C 261.503906 373.304688 262.308594 373.734375 262.882812 374.566406 C 263.441406 375.410156 263.730469 376.632812 263.730469 378.21875 C 263.730469 379.820312 263.441406 381.039062 262.882812 381.871094 C 262.308594 382.703125 261.503906 383.121094 260.433594 383.121094 C 259.367188 383.121094 258.558594 382.703125 258 381.871094 C 257.441406 381.039062 257.167969 379.820312 257.167969 378.21875 C 257.167969 376.632812 257.441406 375.410156 258 374.566406 C 258.558594 373.734375 259.378906 373.304688 260.449219 373.304688 Z M 260.449219 373.304688 "/>
<path style="fill:none;stroke-width:0.8;stroke-linecap:butt;stroke-linejoin:round;stroke:rgb(0%,0%,0%);stroke-opacity:1;stroke-miterlimit:4;" d="M 247.323 269.984976 L 247.323 273.482572 " transform="matrix(1.302083,0,0,1.3,0,13)"/>
<path style=" stroke:none;fill-rule:nonzero;fill:rgb(0%,0%,0%);fill-opacity:1;" d="M 318.679688 374.59375 L 315.4375 379.648438 L 318.679688 379.648438 Z M 318.339844 373.472656 L 319.953125 373.472656 L 319.953125 379.648438 L 321.308594 379.648438 L 321.308594 380.714844 L 319.953125 380.714844 L 319.953125 382.953125 L 318.679688 382.953125 L 318.679688 380.714844 L 314.394531 380.714844 L 314.394531 379.480469 Z M 318.339844 373.472656 "/>
<path style=" stroke:none;fill-rule:nonzero;fill:rgb(0%,0%,0%);fill-opacity:1;" d="M 326.179688 374.320312 C 325.515625 374.320312 325.019531 374.644531 324.679688 375.292969 C 324.34375 375.945312 324.1875 376.917969 324.1875 378.21875 C 324.1875 379.519531 324.34375 380.496094 324.679688 381.144531 C 325.019531 381.792969 325.515625 382.121094 326.179688 382.121094 C 326.84375 382.121094 327.335938 381.792969 327.675781 381.144531 C 328 380.496094 328.171875 379.519531 328.171875 378.21875 C 328.171875 376.917969 328 375.945312 327.675781 375.292969 C 327.335938 374.644531 326.84375 374.320312 326.179688 374.320312 Z M 326.179688 373.304688 C 327.234375 373.304688 328.039062 373.734375 328.613281 374.566406 C 329.171875 375.410156 329.460938 376.632812 329.460938 378.21875 C 329.460938 379.820312 329.171875 381.039062 328.613281 381.871094 C 328.039062 382.703125 327.234375 383.121094 326.164062 383.121094 C 325.097656 383.121094 324.289062 382.703125 323.730469 381.871094 C 323.171875 381.039062 322.898438 379.820312 322.898438 378.21875 C 322.898438 376.632812 323.171875 375.410156 323.730469 374.566406 C 324.289062 373.734375 325.109375 373.304688 326.179688 373.304688 Z M 326.179688 373.304688 "/>
<path style="fill:none;stroke-width:0.8;stroke-linecap:butt;stroke-linejoin:round;stroke:rgb(0%,0%,0%);stroke-opacity:1;stroke-miterlimit:4;" d="M 297.804 269.984976 L 297.804 273.482572 " transform="matrix(1.302083,0,0,1.3,0,13)"/>
<path style=" stroke:none;fill-rule:nonzero;fill:rgb(0%,0%,0%);fill-opacity:1;" d="M 380.894531 373.472656 L 385.933594 373.472656 L 385.933594 374.554688 L 382.066406 374.554688 L 382.066406 376.878906 C 382.246094 376.816406 382.441406 376.761719 382.625 376.738281 C 382.808594 376.710938 383.003906 376.683594 383.183594 376.683594 C 384.238281 376.683594 385.074219 376.984375 385.699219 377.554688 C 386.324219 378.140625 386.636719 378.921875 386.636719 379.910156 C 386.636719 380.9375 386.308594 381.730469 385.671875 382.289062 C 385.035156 382.847656 384.136719 383.121094 382.988281 383.121094 C 382.585938 383.121094 382.183594 383.082031 381.765625 383.03125 C 381.347656 382.964844 380.933594 382.875 380.488281 382.730469 L 380.488281 381.445312 C 380.867188 381.652344 381.257812 381.808594 381.675781 381.910156 C 382.078125 382.015625 382.507812 382.054688 382.964844 382.054688 C 383.691406 382.054688 384.277344 381.871094 384.707031 381.480469 C 385.125 381.09375 385.347656 380.574219 385.347656 379.910156 C 385.347656 379.257812 385.125 378.738281 384.707031 378.347656 C 384.277344 377.960938 383.691406 377.765625 382.964844 377.765625 C 382.625 377.765625 382.273438 377.804688 381.933594 377.882812 C 381.597656 377.960938 381.246094 378.078125 380.894531 378.230469 Z M 380.894531 373.472656 "/>
<path style=" stroke:none;fill-rule:nonzero;fill:rgb(0%,0%,0%);fill-opacity:1;" d="M 391.910156 374.320312 C 391.246094 374.320312 390.75 374.644531 390.410156 375.292969 C 390.074219 375.945312 389.917969 376.917969 389.917969 378.21875 C 389.917969 379.519531 390.074219 380.496094 390.410156 381.144531 C 390.75 381.792969 391.246094 382.121094 391.910156 382.121094 C 392.574219 382.121094 393.066406 381.792969 393.40625 381.144531 C 393.730469 380.496094 393.902344 379.519531 393.902344 378.21875 C 393.902344 376.917969 393.730469 375.945312 393.40625 375.292969 C 393.066406 374.644531 392.574219 374.320312 391.910156 374.320312 Z M 391.910156 373.304688 C 392.964844 373.304688 393.769531 373.734375 394.34375 374.566406 C 394.902344 375.410156 395.191406 376.632812 395.191406 378.21875 C 395.191406 379.820312 394.902344 381.039062 394.34375 381.871094 C 393.769531 382.703125 392.964844 383.121094 391.894531 383.121094 C 390.828125 383.121094 390.019531 382.703125 389.460938 381.871094 C 388.902344 381.039062 388.628906 379.820312 388.628906 378.21875 C 388.628906 376.632812 388.902344 375.410156 389.460938 374.566406 C 390.019531 373.734375 390.839844 373.304688 391.910156 373.304688 Z M 391.910156 373.304688 "/>
<path style=" stroke:none;fill-rule:nonzero;fill:rgb(0%,0%,0%);fill-opacity:1;" d="M 198.902344 391.246094 L 206.921875 391.246094 L 206.921875 392.328125 L 203.550781 392.328125 L 203.550781 400.726562 L 202.261719 400.726562 L 202.261719 392.328125 L 198.902344 392.328125 Z M 198.902344 391.246094 "/>
<path style=" stroke:none;fill-rule:nonzero;fill:rgb(0%,0%,0%);fill-opacity:1;" d="M 207.722656 393.613281 L 208.894531 393.613281 L 208.894531 400.726562 L 207.722656 400.726562 Z M 207.722656 390.84375 L 208.894531 390.84375 L 208.894531 392.328125 L 207.722656 392.328125 Z M 207.722656 390.84375 "/>
<path style=" stroke:none;fill-rule:nonzero;fill:rgb(0%,0%,0%);fill-opacity:1;" d="M 216.886719 394.980469 C 217.175781 394.460938 217.527344 394.082031 217.929688 393.820312 C 218.332031 393.574219 218.816406 393.445312 219.375 393.445312 C 220.105469 393.445312 220.675781 393.703125 221.082031 394.226562 C 221.484375 394.746094 221.691406 395.484375 221.691406 396.433594 L 221.691406 400.726562 L 220.519531 400.726562 L 220.519531 396.472656 C 220.519531 395.796875 220.390625 395.289062 220.15625 394.953125 C 219.910156 394.628906 219.542969 394.460938 219.050781 394.460938 C 218.4375 394.460938 217.957031 394.667969 217.605469 395.070312 C 217.253906 395.472656 217.082031 396.019531 217.082031 396.707031 L 217.082031 400.726562 L 215.910156 400.726562 L 215.910156 396.472656 C 215.910156 395.796875 215.78125 395.289062 215.546875 394.953125 C 215.300781 394.628906 214.921875 394.460938 214.425781 394.460938 C 213.828125 394.460938 213.347656 394.667969 212.996094 395.070312 C 212.644531 395.472656 212.472656 396.019531 212.472656 396.707031 L 212.472656 400.726562 L 211.300781 400.726562 L 211.300781 393.613281 L 212.472656 393.613281 L 212.472656 394.71875 C 212.734375 394.289062 213.058594 393.964844 213.4375 393.757812 C 213.800781 393.550781 214.246094 393.445312 214.765625 393.445312 C 215.285156 393.445312 215.714844 393.574219 216.082031 393.835938 C 216.445312 394.09375 216.707031 394.484375 216.886719 394.980469 Z M 216.886719 394.980469 "/>
<path style=" stroke:none;fill-rule:nonzero;fill:rgb(0%,0%,0%);fill-opacity:1;" d="M 230.117188 396.878906 L 230.117188 397.449219 L 224.738281 397.449219 C 224.792969 398.253906 225.027344 398.878906 225.46875 399.296875 C 225.898438 399.710938 226.496094 399.917969 227.277344 399.917969 C 227.722656 399.917969 228.164062 399.867188 228.582031 399.761719 C 228.996094 399.660156 229.425781 399.488281 229.84375 399.257812 L 229.84375 400.359375 C 229.425781 400.542969 228.996094 400.6875 228.554688 400.765625 C 228.113281 400.84375 227.65625 400.894531 227.214844 400.894531 C 226.066406 400.894531 225.167969 400.570312 224.503906 399.917969 C 223.839844 399.269531 223.515625 398.371094 223.515625 397.242188 C 223.515625 396.085938 223.828125 395.160156 224.453125 394.472656 C 225.078125 393.796875 225.9375 393.445312 227.003906 393.445312 C 227.96875 393.445312 228.722656 393.757812 229.285156 394.367188 C 229.832031 394.992188 230.117188 395.824219 230.117188 396.878906 Z M 228.945312 396.539062 C 228.933594 395.902344 228.75 395.394531 228.410156 395.003906 C 228.058594 394.628906 227.589844 394.433594 227.019531 394.433594 C 226.367188 394.433594 225.847656 394.628906 225.457031 394.992188 C 225.066406 395.355469 224.832031 395.875 224.777344 396.539062 Z M 228.945312 396.539062 "/>
<path style=" stroke:none;fill-rule:nonzero;fill:rgb(0%,0%,0%);fill-opacity:1;" d="M 236.066406 390.84375 L 238.761719 390.84375 L 238.761719 391.753906 L 237.238281 391.753906 L 237.238281 401.519531 L 238.761719 401.519531 L 238.761719 402.429688 L 236.066406 402.429688 Z M 236.066406 390.84375 "/>
<path style=" stroke:none;fill-rule:nonzero;fill:rgb(0%,0%,0%);fill-opacity:1;" d="M 245.792969 393.820312 L 245.792969 394.925781 C 245.457031 394.769531 245.117188 394.640625 244.765625 394.550781 C 244.402344 394.472656 244.035156 394.421875 243.660156 394.421875 C 243.074219 394.421875 242.628906 394.511719 242.34375 394.691406 C 242.058594 394.875 241.914062 395.136719 241.914062 395.484375 C 241.914062 395.757812 242.019531 395.96875 242.226562 396.121094 C 242.433594 396.277344 242.851562 396.433594 243.476562 396.566406 L 243.878906 396.65625 C 244.714844 396.839844 245.300781 397.097656 245.652344 397.410156 C 245.988281 397.734375 246.171875 398.191406 246.171875 398.761719 C 246.171875 399.425781 245.910156 399.945312 245.390625 400.320312 C 244.871094 400.710938 244.140625 400.894531 243.230469 400.894531 C 242.839844 400.894531 242.449219 400.855469 242.03125 400.789062 C 241.613281 400.726562 241.183594 400.621094 240.730469 400.464844 L 240.730469 399.257812 C 241.160156 399.488281 241.589844 399.660156 242.003906 399.761719 C 242.421875 399.878906 242.839844 399.933594 243.253906 399.933594 C 243.800781 399.933594 244.230469 399.839844 244.53125 399.660156 C 244.816406 399.476562 244.972656 399.203125 244.972656 398.851562 C 244.972656 398.539062 244.855469 398.292969 244.648438 398.125 C 244.441406 397.957031 243.972656 397.785156 243.242188 397.632812 L 242.839844 397.539062 C 242.109375 397.382812 241.574219 397.148438 241.261719 396.839844 C 240.9375 396.527344 240.78125 396.097656 240.78125 395.539062 C 240.78125 394.875 241.015625 394.355469 241.484375 393.992188 C 241.953125 393.628906 242.628906 393.445312 243.515625 393.445312 C 243.945312 393.445312 244.347656 393.484375 244.738281 393.550781 C 245.117188 393.613281 245.46875 393.703125 245.792969 393.820312 Z M 245.792969 393.820312 "/>
<path style=" stroke:none;fill-rule:nonzero;fill:rgb(0%,0%,0%);fill-opacity:1;" d="M 250.769531 390.84375 L 250.769531 402.429688 L 248.074219 402.429688 L 248.074219 401.519531 L 249.597656 401.519531 L 249.597656 391.753906 L 248.074219 391.753906 L 248.074219 390.84375 Z M 250.769531 390.84375 "/>
<path style="fill:none;stroke-width:0.8;stroke-linecap:butt;stroke-linejoin:round;stroke:rgb(0%,0%,0%);stroke-opacity:1;stroke-miterlimit:4;" d="M 40.104 239.245793 L 36.603 239.245793 " transform="matrix(1.302083,0,0,1.3,0,13)"/>
<path style=" stroke:none;fill-rule:nonzero;fill:rgb(0%,0%,0%);fill-opacity:1;" d="M 29.042969 327.875 L 33.523438 327.875 L 33.523438 328.957031 L 27.492188 328.957031 L 27.492188 327.875 C 27.976562 327.382812 28.640625 326.707031 29.484375 325.847656 C 30.320312 325.003906 30.851562 324.457031 31.074219 324.210938 C 31.492188 323.757812 31.777344 323.367188 31.933594 323.039062 C 32.089844 322.730469 32.179688 322.402344 32.179688 322.09375 C 32.179688 321.597656 32 321.183594 31.648438 320.871094 C 31.296875 320.558594 30.839844 320.390625 30.265625 320.390625 C 29.863281 320.390625 29.433594 320.46875 28.992188 320.597656 C 28.546875 320.738281 28.066406 320.949219 27.558594 321.234375 L 27.558594 319.933594 C 28.078125 319.726562 28.5625 319.570312 29.003906 319.464844 C 29.445312 319.363281 29.863281 319.308594 30.242188 319.308594 C 31.21875 319.308594 32 319.558594 32.585938 320.050781 C 33.171875 320.542969 33.46875 321.195312 33.46875 322.015625 C 33.46875 322.402344 33.390625 322.78125 33.25 323.117188 C 33.105469 323.46875 32.84375 323.886719 32.453125 324.355469 C 32.351562 324.484375 32.011719 324.835938 31.4375 325.417969 C 30.867188 326.003906 30.070312 326.824219 29.042969 327.875 Z M 29.042969 327.875 "/>
<path style=" stroke:none;fill-rule:nonzero;fill:rgb(0%,0%,0%);fill-opacity:1;" d="M 36.230469 319.480469 L 41.269531 319.480469 L 41.269531 320.558594 L 37.402344 320.558594 L 37.402344 322.886719 C 37.585938 322.820312 37.78125 322.769531 37.960938 322.742188 C 38.144531 322.714844 38.339844 322.691406 38.523438 322.691406 C 39.578125 322.691406 40.410156 322.988281 41.035156 323.5625 C 41.660156 324.144531 41.972656 324.925781 41.972656 325.914062 C 41.972656 326.941406 41.648438 327.734375 41.007812 328.292969 C 40.371094 328.851562 39.472656 329.125 38.328125 329.125 C 37.921875 329.125 37.519531 329.085938 37.101562 329.035156 C 36.6875 328.96875 36.269531 328.878906 35.828125 328.734375 L 35.828125 327.449219 C 36.203125 327.65625 36.59375 327.8125 37.011719 327.914062 C 37.414062 328.019531 37.84375 328.058594 38.300781 328.058594 C 39.03125 328.058594 39.617188 327.875 40.046875 327.488281 C 40.460938 327.097656 40.683594 326.578125 40.683594 325.914062 C 40.683594 325.265625 40.460938 324.742188 40.046875 324.355469 C 39.617188 323.964844 39.03125 323.769531 38.300781 323.769531 C 37.960938 323.769531 37.609375 323.808594 37.273438 323.886719 C 36.933594 323.964844 36.582031 324.082031 36.230469 324.238281 Z M 36.230469 319.480469 "/>
<path style="fill:none;stroke-width:0.8;stroke-linecap:butt;stroke-linejoin:round;stroke:rgb(0%,0%,0%);stroke-opacity:1;stroke-miterlimit:4;" d="M 40.104 205.646034 L 36.603 205.646034 " transform="matrix(1.302083,0,0,1.3,0,13)"/>
<path style=" stroke:none;fill-rule:nonzero;fill:rgb(0%,0%,0%);fill-opacity:1;" d="M 27.949219 275.800781 L 32.988281 275.800781 L 32.988281 276.878906 L 29.121094 276.878906 L 29.121094 279.207031 C 29.304688 279.140625 29.5 279.089844 29.679688 279.0625 C 29.863281 279.039062 30.058594 279.011719 30.242188 279.011719 C 31.296875 279.011719 32.128906 279.308594 32.753906 279.882812 C 33.378906 280.46875 33.691406 281.246094 33.691406 282.234375 C 33.691406 283.261719 33.367188 284.054688 32.726562 284.613281 C 32.089844 285.171875 31.191406 285.445312 30.046875 285.445312 C 29.640625 285.445312 29.238281 285.40625 28.820312 285.355469 C 28.40625 285.289062 27.988281 285.199219 27.546875 285.054688 L 27.546875 283.769531 C 27.921875 283.976562 28.3125 284.132812 28.730469 284.238281 C 29.132812 284.339844 29.5625 284.378906 30.019531 284.378906 C 30.75 284.378906 31.335938 284.199219 31.765625 283.808594 C 32.179688 283.417969 32.402344 282.898438 32.402344 282.234375 C 32.402344 281.585938 32.179688 281.066406 31.765625 280.675781 C 31.335938 280.285156 30.75 280.089844 30.019531 280.089844 C 29.679688 280.089844 29.328125 280.128906 28.992188 280.207031 C 28.652344 280.285156 28.300781 280.402344 27.949219 280.558594 Z M 27.949219 275.800781 "/>
<path style=" stroke:none;fill-rule:nonzero;fill:rgb(0%,0%,0%);fill-opacity:1;" d="M 38.964844 276.644531 C 38.300781 276.644531 37.804688 276.96875 37.46875 277.621094 C 37.128906 278.269531 36.972656 279.246094 36.972656 280.546875 C 36.972656 281.84375 37.128906 282.820312 37.46875 283.46875 C 37.804688 284.121094 38.300781 284.445312 38.964844 284.445312 C 39.628906 284.445312 40.125 284.121094 40.460938 283.46875 C 40.789062 282.820312 40.957031 281.84375 40.957031 280.546875 C 40.957031 279.246094 40.789062 278.269531 40.460938 277.621094 C 40.125 276.96875 39.628906 276.644531 38.964844 276.644531 Z M 38.964844 275.632812 C 40.019531 275.632812 40.828125 276.058594 41.398438 276.890625 C 41.960938 277.738281 42.246094 278.960938 42.246094 280.546875 C 42.246094 282.144531 41.960938 283.367188 41.398438 284.199219 C 40.828125 285.03125 40.019531 285.445312 38.953125 285.445312 C 37.882812 285.445312 37.078125 285.03125 36.515625 284.199219 C 35.957031 283.367188 35.683594 282.144531 35.683594 280.546875 C 35.683594 278.960938 35.957031 277.738281 36.515625 276.890625 C 37.078125 276.058594 37.898438 275.632812 38.964844 275.632812 Z M 38.964844 275.632812 "/>
<path style="fill:none;stroke-width:0.8;stroke-linecap:butt;stroke-linejoin:round;stroke:rgb(0%,0%,0%);stroke-opacity:1;stroke-miterlimit:4;" d="M 40.104 172.049279 L 36.603 172.049279 " transform="matrix(1.302083,0,0,1.3,0,13)"/>
<path style=" stroke:none;fill-rule:nonzero;fill:rgb(0%,0%,0%);fill-opacity:1;" d="M 27.609375 232.121094 L 33.71875 232.121094 L 33.71875 232.667969 L 30.265625 241.597656 L 28.925781 241.597656 L 32.167969 233.199219 L 27.609375 233.199219 Z M 27.609375 232.121094 "/>
<path style=" stroke:none;fill-rule:nonzero;fill:rgb(0%,0%,0%);fill-opacity:1;" d="M 36.230469 232.121094 L 41.269531 232.121094 L 41.269531 233.199219 L 37.402344 233.199219 L 37.402344 235.527344 C 37.585938 235.460938 37.78125 235.410156 37.960938 235.382812 C 38.144531 235.359375 38.339844 235.332031 38.523438 235.332031 C 39.578125 235.332031 40.410156 235.632812 41.035156 236.203125 C 41.660156 236.789062 41.972656 237.570312 41.972656 238.554688 C 41.972656 239.582031 41.648438 240.375 41.007812 240.933594 C 40.371094 241.496094 39.472656 241.765625 38.328125 241.765625 C 37.921875 241.765625 37.519531 241.726562 37.101562 241.675781 C 36.6875 241.613281 36.269531 241.519531 35.828125 241.378906 L 35.828125 240.089844 C 36.203125 240.296875 36.59375 240.453125 37.011719 240.558594 C 37.414062 240.664062 37.84375 240.703125 38.300781 240.703125 C 39.03125 240.703125 39.617188 240.519531 40.046875 240.128906 C 40.460938 239.738281 40.683594 239.21875 40.683594 238.554688 C 40.683594 237.90625 40.460938 237.386719 40.046875 236.996094 C 39.617188 236.605469 39.03125 236.410156 38.300781 236.410156 C 37.960938 236.410156 37.609375 236.449219 37.273438 236.527344 C 36.933594 236.605469 36.582031 236.722656 36.230469 236.878906 Z M 36.230469 232.121094 "/>
<path style="fill:none;stroke-width:0.8;stroke-linecap:butt;stroke-linejoin:round;stroke:rgb(0%,0%,0%);stroke-opacity:1;stroke-miterlimit:4;" d="M 40.104 138.446514 L 36.603 138.446514 " transform="matrix(1.302083,0,0,1.3,0,13)"/>
<path style=" stroke:none;fill-rule:nonzero;fill:rgb(0%,0%,0%);fill-opacity:1;" d="M 19.878906 196.839844 L 21.972656 196.839844 L 21.972656 189.613281 L 19.695312 190.066406 L 19.695312 188.898438 L 21.960938 188.441406 L 23.25 188.441406 L 23.25 196.839844 L 25.347656 196.839844 L 25.347656 197.917969 L 19.878906 197.917969 Z M 19.878906 196.839844 "/>
<path style=" stroke:none;fill-rule:nonzero;fill:rgb(0%,0%,0%);fill-opacity:1;" d="M 30.683594 189.285156 C 30.019531 189.285156 29.527344 189.613281 29.1875 190.261719 C 28.847656 190.910156 28.691406 191.886719 28.691406 193.1875 C 28.691406 194.488281 28.847656 195.460938 29.1875 196.113281 C 29.527344 196.761719 30.019531 197.085938 30.683594 197.085938 C 31.347656 197.085938 31.84375 196.761719 32.183594 196.113281 C 32.507812 195.460938 32.675781 194.488281 32.675781 193.1875 C 32.675781 191.886719 32.507812 190.910156 32.183594 190.261719 C 31.84375 189.613281 31.347656 189.285156 30.683594 189.285156 Z M 30.683594 188.273438 C 31.738281 188.273438 32.546875 188.703125 33.121094 189.535156 C 33.679688 190.378906 33.964844 191.601562 33.964844 193.1875 C 33.964844 194.785156 33.679688 196.007812 33.121094 196.839844 C 32.546875 197.671875 31.738281 198.085938 30.671875 198.085938 C 29.605469 198.085938 28.796875 197.671875 28.238281 196.839844 C 27.675781 196.007812 27.402344 194.785156 27.402344 193.1875 C 27.402344 191.601562 27.675781 190.378906 28.238281 189.535156 C 28.796875 188.703125 29.617188 188.273438 30.683594 188.273438 Z M 30.683594 188.273438 "/>
<path style=" stroke:none;fill-rule:nonzero;fill:rgb(0%,0%,0%);fill-opacity:1;" d="M 38.964844 189.285156 C 38.300781 189.285156 37.808594 189.613281 37.46875 190.261719 C 37.128906 190.910156 36.972656 191.886719 36.972656 193.1875 C 36.972656 194.488281 37.128906 195.460938 37.46875 196.113281 C 37.808594 196.761719 38.300781 197.085938 38.964844 197.085938 C 39.628906 197.085938 40.125 196.761719 40.464844 196.113281 C 40.789062 195.460938 40.957031 194.488281 40.957031 193.1875 C 40.957031 191.886719 40.789062 190.910156 40.464844 190.261719 C 40.125 189.613281 39.628906 189.285156 38.964844 189.285156 Z M 38.964844 188.273438 C 40.019531 188.273438 40.828125 188.703125 41.402344 189.535156 C 41.960938 190.378906 42.246094 191.601562 42.246094 193.1875 C 42.246094 194.785156 41.960938 196.007812 41.402344 196.839844 C 40.828125 197.671875 40.019531 198.085938 38.953125 198.085938 C 37.886719 198.085938 37.078125 197.671875 36.519531 196.839844 C 35.957031 196.007812 35.683594 194.785156 35.683594 193.1875 C 35.683594 191.601562 35.957031 190.378906 36.519531 189.535156 C 37.078125 188.703125 37.898438 188.273438 38.964844 188.273438 Z M 38.964844 188.273438 "/>
<path style="fill:none;stroke-width:0.8;stroke-linecap:butt;stroke-linejoin:round;stroke:rgb(0%,0%,0%);stroke-opacity:1;stroke-miterlimit:4;" d="M 40.104 104.84976 L 36.603 104.84976 " transform="matrix(1.302083,0,0,1.3,0,13)"/>
<path style=" stroke:none;fill-rule:nonzero;fill:rgb(0%,0%,0%);fill-opacity:1;" d="M 19.878906 153.160156 L 21.972656 153.160156 L 21.972656 145.933594 L 19.695312 146.386719 L 19.695312 145.21875 L 21.960938 144.761719 L 23.25 144.761719 L 23.25 153.160156 L 25.347656 153.160156 L 25.347656 154.238281 L 19.878906 154.238281 Z M 19.878906 153.160156 "/>
<path style=" stroke:none;fill-rule:nonzero;fill:rgb(0%,0%,0%);fill-opacity:1;" d="M 29.042969 153.160156 L 33.523438 153.160156 L 33.523438 154.238281 L 27.496094 154.238281 L 27.496094 153.160156 C 27.976562 152.667969 28.640625 151.992188 29.488281 151.132812 C 30.320312 150.289062 30.855469 149.742188 31.074219 149.496094 C 31.492188 149.039062 31.777344 148.648438 31.933594 148.324219 C 32.089844 148.011719 32.183594 147.6875 32.183594 147.375 C 32.183594 146.882812 32 146.464844 31.648438 146.152344 C 31.296875 145.84375 30.839844 145.671875 30.269531 145.671875 C 29.863281 145.671875 29.433594 145.75 28.992188 145.878906 C 28.550781 146.023438 28.066406 146.230469 27.558594 146.519531 L 27.558594 145.21875 C 28.082031 145.011719 28.5625 144.855469 29.003906 144.75 C 29.449219 144.644531 29.863281 144.59375 30.242188 144.59375 C 31.21875 144.59375 32 144.839844 32.585938 145.335938 C 33.171875 145.828125 33.472656 146.480469 33.472656 147.296875 C 33.472656 147.6875 33.394531 148.066406 33.25 148.402344 C 33.105469 148.753906 32.847656 149.167969 32.457031 149.636719 C 32.351562 149.769531 32.011719 150.117188 31.441406 150.703125 C 30.867188 151.289062 30.074219 152.109375 29.042969 153.160156 Z M 29.042969 153.160156 "/>
<path style=" stroke:none;fill-rule:nonzero;fill:rgb(0%,0%,0%);fill-opacity:1;" d="M 36.230469 144.761719 L 41.269531 144.761719 L 41.269531 145.84375 L 37.402344 145.84375 L 37.402344 148.167969 C 37.585938 148.105469 37.78125 148.050781 37.964844 148.027344 C 38.144531 148 38.339844 147.972656 38.523438 147.972656 C 39.578125 147.972656 40.410156 148.273438 41.035156 148.84375 C 41.660156 149.429688 41.972656 150.210938 41.972656 151.199219 C 41.972656 152.226562 41.648438 153.019531 41.011719 153.578125 C 40.371094 154.136719 39.472656 154.410156 38.328125 154.410156 C 37.925781 154.410156 37.519531 154.371094 37.105469 154.316406 C 36.6875 154.253906 36.269531 154.160156 35.828125 154.019531 L 35.828125 152.730469 C 36.207031 152.941406 36.597656 153.097656 37.011719 153.199219 C 37.417969 153.304688 37.847656 153.34375 38.300781 153.34375 C 39.03125 153.34375 39.617188 153.160156 40.046875 152.769531 C 40.464844 152.378906 40.683594 151.859375 40.683594 151.199219 C 40.683594 150.546875 40.464844 150.027344 40.046875 149.636719 C 39.617188 149.246094 39.03125 149.054688 38.300781 149.054688 C 37.964844 149.054688 37.613281 149.09375 37.273438 149.167969 C 36.933594 149.246094 36.582031 149.363281 36.230469 149.519531 Z M 36.230469 144.761719 "/>
<path style="fill:none;stroke-width:0.8;stroke-linecap:butt;stroke-linejoin:round;stroke:rgb(0%,0%,0%);stroke-opacity:1;stroke-miterlimit:4;" d="M 40.104 71.25 L 36.603 71.25 " transform="matrix(1.302083,0,0,1.3,0,13)"/>
<path style=" stroke:none;fill-rule:nonzero;fill:rgb(0%,0%,0%);fill-opacity:1;" d="M 19.878906 109.480469 L 21.972656 109.480469 L 21.972656 102.253906 L 19.695312 102.707031 L 19.695312 101.539062 L 21.960938 101.082031 L 23.25 101.082031 L 23.25 109.480469 L 25.347656 109.480469 L 25.347656 110.558594 L 19.878906 110.558594 Z M 19.878906 109.480469 "/>
<path style=" stroke:none;fill-rule:nonzero;fill:rgb(0%,0%,0%);fill-opacity:1;" d="M 27.949219 101.082031 L 32.988281 101.082031 L 32.988281 102.160156 L 29.121094 102.160156 L 29.121094 104.488281 C 29.304688 104.421875 29.5 104.371094 29.683594 104.347656 C 29.863281 104.320312 30.058594 104.292969 30.242188 104.292969 C 31.296875 104.292969 32.128906 104.59375 32.753906 105.164062 C 33.378906 105.75 33.691406 106.53125 33.691406 107.519531 C 33.691406 108.542969 33.367188 109.335938 32.730469 109.898438 C 32.089844 110.457031 31.191406 110.730469 30.046875 110.730469 C 29.644531 110.730469 29.238281 110.691406 28.824219 110.636719 C 28.40625 110.574219 27.988281 110.480469 27.546875 110.339844 L 27.546875 109.050781 C 27.925781 109.261719 28.316406 109.414062 28.730469 109.519531 C 29.136719 109.625 29.566406 109.664062 30.019531 109.664062 C 30.75 109.664062 31.335938 109.480469 31.765625 109.089844 C 32.183594 108.699219 32.402344 108.179688 32.402344 107.519531 C 32.402344 106.867188 32.183594 106.347656 31.765625 105.957031 C 31.335938 105.566406 30.75 105.371094 30.019531 105.371094 C 29.683594 105.371094 29.332031 105.410156 28.992188 105.488281 C 28.652344 105.566406 28.300781 105.683594 27.949219 105.839844 Z M 27.949219 101.082031 "/>
<path style=" stroke:none;fill-rule:nonzero;fill:rgb(0%,0%,0%);fill-opacity:1;" d="M 38.964844 101.929688 C 38.300781 101.929688 37.808594 102.253906 37.46875 102.902344 C 37.128906 103.554688 36.972656 104.527344 36.972656 105.828125 C 36.972656 107.128906 37.128906 108.101562 37.46875 108.753906 C 37.808594 109.402344 38.300781 109.726562 38.964844 109.726562 C 39.628906 109.726562 40.125 109.402344 40.464844 108.753906 C 40.789062 108.101562 40.957031 107.128906 40.957031 105.828125 C 40.957031 104.527344 40.789062 103.554688 40.464844 102.902344 C 40.125 102.253906 39.628906 101.929688 38.964844 101.929688 Z M 38.964844 100.914062 C 40.019531 100.914062 40.828125 101.34375 41.402344 102.175781 C 41.960938 103.019531 42.246094 104.242188 42.246094 105.828125 C 42.246094 107.425781 41.960938 108.648438 41.402344 109.480469 C 40.828125 110.3125 40.019531 110.730469 38.953125 110.730469 C 37.886719 110.730469 37.078125 110.3125 36.519531 109.480469 C 35.957031 108.648438 35.683594 107.425781 35.683594 105.828125 C 35.683594 104.242188 35.957031 103.019531 36.519531 102.175781 C 37.078125 101.34375 37.898438 100.914062 38.964844 100.914062 Z M 38.964844 100.914062 "/>
<path style="fill:none;stroke-width:0.8;stroke-linecap:butt;stroke-linejoin:round;stroke:rgb(0%,0%,0%);stroke-opacity:1;stroke-miterlimit:4;" d="M 40.104 37.65024 L 36.603 37.65024 " transform="matrix(1.302083,0,0,1.3,0,13)"/>
<path style=" stroke:none;fill-rule:nonzero;fill:rgb(0%,0%,0%);fill-opacity:1;" d="M 19.878906 65.800781 L 21.972656 65.800781 L 21.972656 58.574219 L 19.695312 59.027344 L 19.695312 57.859375 L 21.960938 57.402344 L 23.25 57.402344 L 23.25 65.800781 L 25.347656 65.800781 L 25.347656 66.882812 L 19.878906 66.882812 Z M 19.878906 65.800781 "/>
<path style=" stroke:none;fill-rule:nonzero;fill:rgb(0%,0%,0%);fill-opacity:1;" d="M 27.613281 57.402344 L 33.71875 57.402344 L 33.71875 57.949219 L 30.269531 66.882812 L 28.925781 66.882812 L 32.167969 58.484375 L 27.613281 58.484375 Z M 27.613281 57.402344 "/>
<path style=" stroke:none;fill-rule:nonzero;fill:rgb(0%,0%,0%);fill-opacity:1;" d="M 36.230469 57.402344 L 41.269531 57.402344 L 41.269531 58.484375 L 37.402344 58.484375 L 37.402344 60.808594 C 37.585938 60.746094 37.78125 60.691406 37.964844 60.667969 C 38.144531 60.640625 38.339844 60.613281 38.523438 60.613281 C 39.578125 60.613281 40.410156 60.914062 41.035156 61.484375 C 41.660156 62.070312 41.972656 62.851562 41.972656 63.839844 C 41.972656 64.867188 41.648438 65.660156 41.011719 66.21875 C 40.371094 66.777344 39.472656 67.050781 38.328125 67.050781 C 37.925781 67.050781 37.519531 67.011719 37.105469 66.960938 C 36.6875 66.894531 36.269531 66.804688 35.828125 66.660156 L 35.828125 65.375 C 36.207031 65.582031 36.597656 65.738281 37.011719 65.839844 C 37.417969 65.945312 37.847656 65.984375 38.300781 65.984375 C 39.03125 65.984375 39.617188 65.800781 40.046875 65.410156 C 40.464844 65.023438 40.683594 64.503906 40.683594 63.839844 C 40.683594 63.1875 40.464844 62.667969 40.046875 62.277344 C 39.617188 61.890625 39.03125 61.695312 38.300781 61.695312 C 37.964844 61.695312 37.613281 61.734375 37.273438 61.8125 C 36.933594 61.890625 36.582031 62.007812 36.230469 62.160156 Z M 36.230469 57.402344 "/>
<path style="fill:none;stroke-width:0.8;stroke-linecap:butt;stroke-linejoin:round;stroke:rgb(0%,0%,0%);stroke-opacity:1;stroke-miterlimit:4;" d="M 40.104 4.050481 L 36.603 4.050481 " transform="matrix(1.302083,0,0,1.3,0,13)"/>
<path style=" stroke:none;fill-rule:nonzero;fill:rgb(0%,0%,0%);fill-opacity:1;" d="M 20.761719 22.121094 L 25.242188 22.121094 L 25.242188 23.199219 L 19.214844 23.199219 L 19.214844 22.121094 C 19.695312 21.628906 20.359375 20.953125 21.207031 20.09375 C 22.039062 19.25 22.574219 18.703125 22.792969 18.457031 C 23.210938 18 23.496094 17.609375 23.652344 17.285156 C 23.808594 16.972656 23.902344 16.648438 23.902344 16.335938 C 23.902344 15.84375 23.71875 15.425781 23.367188 15.113281 C 23.015625 14.804688 22.558594 14.632812 21.988281 14.632812 C 21.582031 14.632812 21.152344 14.710938 20.710938 14.84375 C 20.269531 14.984375 19.785156 15.191406 19.277344 15.480469 L 19.277344 14.179688 C 19.800781 13.972656 20.28125 13.816406 20.722656 13.710938 C 21.167969 13.605469 21.582031 13.554688 21.960938 13.554688 C 22.9375 13.554688 23.71875 13.800781 24.304688 14.296875 C 24.890625 14.789062 25.191406 15.441406 25.191406 16.257812 C 25.191406 16.648438 25.113281 17.027344 24.96875 17.363281 C 24.824219 17.714844 24.566406 18.132812 24.175781 18.597656 C 24.070312 18.730469 23.730469 19.082031 23.160156 19.664062 C 22.585938 20.25 21.792969 21.070312 20.761719 22.121094 Z M 20.761719 22.121094 "/>
<path style=" stroke:none;fill-rule:nonzero;fill:rgb(0%,0%,0%);fill-opacity:1;" d="M 30.683594 14.570312 C 30.019531 14.570312 29.527344 14.894531 29.1875 15.542969 C 28.847656 16.195312 28.691406 17.167969 28.691406 18.46875 C 28.691406 19.769531 28.847656 20.742188 29.1875 21.394531 C 29.527344 22.042969 30.019531 22.367188 30.683594 22.367188 C 31.347656 22.367188 31.84375 22.042969 32.183594 21.394531 C 32.507812 20.742188 32.675781 19.769531 32.675781 18.46875 C 32.675781 17.167969 32.507812 16.195312 32.183594 15.542969 C 31.84375 14.894531 31.347656 14.570312 30.683594 14.570312 Z M 30.683594 13.554688 C 31.738281 13.554688 32.546875 13.984375 33.121094 14.816406 C 33.679688 15.660156 33.964844 16.882812 33.964844 18.46875 C 33.964844 20.066406 33.679688 21.289062 33.121094 22.121094 C 32.546875 22.953125 31.738281 23.371094 30.671875 23.371094 C 29.605469 23.371094 28.796875 22.953125 28.238281 22.121094 C 27.675781 21.289062 27.402344 20.066406 27.402344 18.46875 C 27.402344 16.882812 27.675781 15.660156 28.238281 14.816406 C 28.796875 13.984375 29.617188 13.554688 30.683594 13.554688 Z M 30.683594 13.554688 "/>
<path style=" stroke:none;fill-rule:nonzero;fill:rgb(0%,0%,0%);fill-opacity:1;" d="M 38.964844 14.570312 C 38.300781 14.570312 37.808594 14.894531 37.46875 15.542969 C 37.128906 16.195312 36.972656 17.167969 36.972656 18.46875 C 36.972656 19.769531 37.128906 20.742188 37.46875 21.394531 C 37.808594 22.042969 38.300781 22.367188 38.964844 22.367188 C 39.628906 22.367188 40.125 22.042969 40.464844 21.394531 C 40.789062 20.742188 40.957031 19.769531 40.957031 18.46875 C 40.957031 17.167969 40.789062 16.195312 40.464844 15.542969 C 40.125 14.894531 39.628906 14.570312 38.964844 14.570312 Z M 38.964844 13.554688 C 40.019531 13.554688 40.828125 13.984375 41.402344 14.816406 C 41.960938 15.660156 42.246094 16.882812 42.246094 18.46875 C 42.246094 20.066406 41.960938 21.289062 41.402344 22.121094 C 40.828125 22.953125 40.019531 23.371094 38.953125 23.371094 C 37.886719 23.371094 37.078125 22.953125 36.519531 22.121094 C 35.957031 21.289062 35.683594 20.066406 35.683594 18.46875 C 35.683594 16.882812 35.957031 15.660156 36.519531 14.816406 C 37.078125 13.984375 37.898438 13.554688 38.964844 13.554688 Z M 38.964844 13.554688 "/>
<path style=" stroke:none;fill-rule:nonzero;fill:rgb(0%,0%,0%);fill-opacity:1;" d="M 1.910156 230.371094 L 9.292969 230.371094 L 9.292969 228.824219 C 9.292969 227.523438 9.007812 226.5625 8.410156 225.949219 C 7.808594 225.351562 6.871094 225.039062 5.597656 225.039062 C 4.320312 225.039062 3.394531 225.351562 2.796875 225.949219 C 2.210938 226.5625 1.910156 227.523438 1.910156 228.824219 Z M 0.855469 231.65625 L 0.855469 229.019531 C 0.855469 227.183594 1.246094 225.832031 2.003906 224.976562 C 2.769531 224.117188 3.96875 223.6875 5.597656 223.6875 C 7.238281 223.6875 8.433594 224.128906 9.203125 224.988281 C 9.972656 225.847656 10.347656 227.199219 10.347656 229.019531 L 10.347656 231.65625 Z M 0.855469 231.65625 "/>
<path style=" stroke:none;fill-rule:nonzero;fill:rgb(0%,0%,0%);fill-opacity:1;" d="M 3.226562 221.699219 L 3.226562 220.53125 L 10.347656 220.53125 L 10.347656 221.699219 Z M 0.453125 221.699219 L 0.453125 220.53125 L 1.9375 220.53125 L 1.9375 221.699219 Z M 0.453125 221.699219 "/>
<path style=" stroke:none;fill-rule:nonzero;fill:rgb(0%,0%,0%);fill-opacity:1;" d="M 3.433594 213.546875 L 4.542969 213.546875 C 4.386719 213.886719 4.253906 214.222656 4.164062 214.574219 C 4.085938 214.9375 4.035156 215.304688 4.035156 215.679688 C 4.035156 216.265625 4.125 216.707031 4.308594 216.992188 C 4.488281 217.28125 4.75 217.421875 5.101562 217.421875 C 5.375 217.421875 5.582031 217.320312 5.738281 217.109375 C 5.894531 216.902344 6.050781 216.488281 6.183594 215.863281 L 6.273438 215.460938 C 6.457031 214.628906 6.714844 214.042969 7.027344 213.691406 C 7.355469 213.351562 7.808594 213.171875 8.382812 213.171875 C 9.046875 213.171875 9.566406 213.429688 9.945312 213.953125 C 10.335938 214.472656 10.519531 215.199219 10.519531 216.109375 C 10.519531 216.5 10.480469 216.890625 10.414062 217.304688 C 10.347656 217.722656 10.246094 218.152344 10.089844 218.605469 L 8.878906 218.605469 C 9.113281 218.175781 9.28125 217.746094 9.386719 217.332031 C 9.503906 216.914062 9.554688 216.5 9.554688 216.082031 C 9.554688 215.539062 9.464844 215.109375 9.28125 214.808594 C 9.097656 214.523438 8.824219 214.367188 8.472656 214.367188 C 8.160156 214.367188 7.914062 214.484375 7.746094 214.691406 C 7.574219 214.902344 7.40625 215.367188 7.25 216.097656 L 7.160156 216.5 C 7.003906 217.226562 6.769531 217.761719 6.457031 218.074219 C 6.144531 218.398438 5.714844 218.554688 5.152344 218.554688 C 4.488281 218.554688 3.96875 218.320312 3.605469 217.851562 C 3.238281 217.382812 3.058594 216.707031 3.058594 215.824219 C 3.058594 215.394531 3.097656 214.992188 3.160156 214.601562 C 3.226562 214.222656 3.316406 213.875 3.433594 213.546875 Z M 3.433594 213.546875 "/>
<path style=" stroke:none;fill-rule:nonzero;fill:rgb(0%,0%,0%);fill-opacity:1;" d="M 1.207031 210.15625 L 3.226562 210.15625 L 3.226562 207.75 L 4.136719 207.75 L 4.136719 210.15625 L 8.003906 210.15625 C 8.589844 210.15625 8.96875 210.078125 9.125 209.921875 C 9.292969 209.765625 9.371094 209.441406 9.371094 208.945312 L 9.371094 207.75 L 10.347656 207.75 L 10.347656 208.945312 C 10.347656 209.855469 10.179688 210.480469 9.839844 210.820312 C 9.503906 211.15625 8.890625 211.324219 8.003906 211.324219 L 4.136719 211.324219 L 4.136719 212.183594 L 3.226562 212.183594 L 3.226562 211.324219 L 1.207031 211.324219 Z M 1.207031 210.15625 "/>
<path style=" stroke:none;fill-rule:nonzero;fill:rgb(0%,0%,0%);fill-opacity:1;" d="M 6.769531 202.980469 C 6.769531 203.929688 6.886719 204.578125 7.09375 204.941406 C 7.316406 205.304688 7.679688 205.488281 8.199219 205.488281 C 8.617188 205.488281 8.957031 205.359375 9.191406 205.085938 C 9.4375 204.8125 9.554688 204.433594 9.554688 203.96875 C 9.554688 203.316406 9.332031 202.796875 8.863281 202.40625 C 8.410156 202.015625 7.796875 201.824219 7.027344 201.824219 L 6.769531 201.824219 Z M 6.285156 200.652344 L 10.347656 200.652344 L 10.347656 201.824219 L 9.269531 201.824219 C 9.710938 202.09375 10.023438 202.433594 10.21875 202.824219 C 10.414062 203.214844 10.519531 203.707031 10.519531 204.28125 C 10.519531 205.007812 10.324219 205.59375 9.917969 206.019531 C 9.515625 206.449219 8.96875 206.660156 8.277344 206.660156 C 7.484375 206.660156 6.886719 206.398438 6.46875 205.851562 C 6.066406 205.320312 5.855469 204.527344 5.855469 203.460938 L 5.855469 201.824219 L 5.738281 201.824219 C 5.207031 201.824219 4.789062 202.003906 4.488281 202.355469 C 4.203125 202.707031 4.046875 203.199219 4.046875 203.835938 C 4.046875 204.253906 4.097656 204.644531 4.203125 205.035156 C 4.308594 205.421875 4.449219 205.789062 4.632812 206.136719 L 3.550781 206.136719 C 3.394531 205.722656 3.265625 205.304688 3.1875 204.902344 C 3.109375 204.5 3.058594 204.109375 3.058594 203.71875 C 3.058594 202.695312 3.332031 201.925781 3.863281 201.417969 C 4.398438 200.914062 5.207031 200.652344 6.285156 200.652344 Z M 6.285156 200.652344 "/>
<path style=" stroke:none;fill-rule:nonzero;fill:rgb(0%,0%,0%);fill-opacity:1;" d="M 6.050781 192.332031 L 10.347656 192.332031 L 10.347656 193.503906 L 6.089844 193.503906 C 5.414062 193.503906 4.917969 193.644531 4.582031 193.90625 C 4.242188 194.164062 4.074219 194.554688 4.074219 195.074219 C 4.074219 195.710938 4.28125 196.207031 4.683594 196.570312 C 5.089844 196.933594 5.636719 197.117188 6.324219 197.117188 L 10.347656 197.117188 L 10.347656 198.285156 L 3.226562 198.285156 L 3.226562 197.117188 L 4.332031 197.117188 C 3.917969 196.84375 3.589844 196.519531 3.382812 196.128906 C 3.175781 195.75 3.058594 195.308594 3.058594 194.816406 C 3.058594 194.007812 3.316406 193.386719 3.824219 192.96875 C 4.332031 192.554688 5.074219 192.332031 6.050781 192.332031 Z M 6.050781 192.332031 "/>
<path style=" stroke:none;fill-rule:nonzero;fill:rgb(0%,0%,0%);fill-opacity:1;" d="M 3.5 184.882812 L 4.59375 184.882812 C 4.410156 185.222656 4.28125 185.546875 4.191406 185.882812 C 4.097656 186.222656 4.046875 186.546875 4.046875 186.886719 C 4.046875 187.640625 4.292969 188.238281 4.777344 188.652344 C 5.257812 189.070312 5.933594 189.277344 6.792969 189.277344 C 7.667969 189.277344 8.34375 189.070312 8.824219 188.652344 C 9.308594 188.238281 9.542969 187.640625 9.542969 186.886719 C 9.542969 186.546875 9.503906 186.222656 9.410156 185.882812 C 9.320312 185.546875 9.175781 185.222656 8.996094 184.882812 L 10.074219 184.882812 C 10.230469 185.222656 10.347656 185.558594 10.414062 185.898438 C 10.480469 186.25 10.519531 186.625 10.519531 187.015625 C 10.519531 188.082031 10.191406 188.9375 9.515625 189.5625 C 8.851562 190.199219 7.941406 190.511719 6.792969 190.511719 C 5.636719 190.511719 4.722656 190.199219 4.058594 189.5625 C 3.394531 188.925781 3.058594 188.054688 3.058594 186.9375 C 3.058594 186.574219 3.097656 186.222656 3.175781 185.882812 C 3.253906 185.546875 3.355469 185.207031 3.5 184.882812 Z M 3.5 184.882812 "/>
<path style=" stroke:none;fill-rule:nonzero;fill:rgb(0%,0%,0%);fill-opacity:1;" d="M 6.496094 176.769531 L 7.066406 176.769531 L 7.066406 182.140625 C 7.875 182.089844 8.5 181.855469 8.917969 181.414062 C 9.332031 180.984375 9.542969 180.386719 9.542969 179.605469 C 9.542969 179.164062 9.488281 178.722656 9.386719 178.304688 C 9.28125 177.890625 9.113281 177.460938 8.878906 177.042969 L 9.984375 177.042969 C 10.167969 177.460938 10.308594 177.890625 10.386719 178.332031 C 10.464844 178.773438 10.519531 179.226562 10.519531 179.671875 C 10.519531 180.8125 10.191406 181.710938 9.542969 182.375 C 8.890625 183.039062 7.992188 183.363281 6.859375 183.363281 C 5.699219 183.363281 4.777344 183.050781 4.085938 182.425781 C 3.410156 181.800781 3.058594 180.945312 3.058594 179.878906 C 3.058594 178.917969 3.371094 178.164062 3.980469 177.601562 C 4.605469 177.058594 5.441406 176.769531 6.496094 176.769531 Z M 6.15625 177.941406 C 5.519531 177.953125 5.011719 178.136719 4.621094 178.472656 C 4.242188 178.824219 4.046875 179.292969 4.046875 179.867188 C 4.046875 180.515625 4.242188 181.035156 4.605469 181.425781 C 4.972656 181.816406 5.492188 182.050781 6.15625 182.101562 Z M 6.15625 177.941406 "/>
<path style=" stroke:none;fill-rule:nonzero;fill:rgb(0%,0%,0%);fill-opacity:1;" d="M 0.453125 170.832031 L 0.453125 168.140625 L 1.363281 168.140625 L 1.363281 169.660156 L 11.144531 169.660156 L 11.144531 168.140625 L 12.054688 168.140625 L 12.054688 170.832031 Z M 0.453125 170.832031 "/>
<path style=" stroke:none;fill-rule:nonzero;fill:rgb(0%,0%,0%);fill-opacity:1;" d="M 4.59375 160.117188 C 4.074219 159.832031 3.695312 159.480469 3.433594 159.078125 C 3.1875 158.675781 3.058594 158.195312 3.058594 157.636719 C 3.058594 156.90625 3.316406 156.335938 3.839844 155.933594 C 4.359375 155.53125 5.101562 155.320312 6.050781 155.320312 L 10.347656 155.320312 L 10.347656 156.492188 L 6.089844 156.492188 C 5.414062 156.492188 4.90625 156.621094 4.566406 156.855469 C 4.242188 157.101562 4.074219 157.464844 4.074219 157.960938 C 4.074219 158.570312 4.28125 159.050781 4.683594 159.402344 C 5.089844 159.753906 5.636719 159.921875 6.324219 159.921875 L 10.347656 159.921875 L 10.347656 161.09375 L 6.089844 161.09375 C 5.414062 161.09375 4.90625 161.222656 4.566406 161.457031 C 4.242188 161.703125 4.074219 162.082031 4.074219 162.574219 C 4.074219 163.171875 4.28125 163.65625 4.683594 164.003906 C 5.089844 164.355469 5.636719 164.527344 6.324219 164.527344 L 10.347656 164.527344 L 10.347656 165.695312 L 3.226562 165.695312 L 3.226562 164.527344 L 4.332031 164.527344 C 3.902344 164.265625 3.578125 163.941406 3.371094 163.5625 C 3.160156 163.199219 3.058594 162.757812 3.058594 162.238281 C 3.058594 161.71875 3.1875 161.289062 3.449219 160.925781 C 3.707031 160.558594 4.097656 160.300781 4.59375 160.117188 Z M 4.59375 160.117188 "/>
<path style=" stroke:none;fill-rule:nonzero;fill:rgb(0%,0%,0%);fill-opacity:1;" d="M 0.453125 150.265625 L 12.054688 150.265625 L 12.054688 152.957031 L 11.144531 152.957031 L 11.144531 151.433594 L 1.363281 151.433594 L 1.363281 152.957031 L 0.453125 152.957031 Z M 0.453125 150.265625 "/>
<path style="fill:none;stroke-width:2.5;stroke-linecap:square;stroke-linejoin:round;stroke:rgb(0%,0%,100%);stroke-opacity:1;stroke-miterlimit:4;" d="M 52.2 15.967548 L 53.532 16.565505 L 54.855 17.50601 L 55.047 17.725361 L 55.638 18.242188 L 55.998 18.58774 L 57.072 19.702524 L 57.462 20.207332 L 57.666 20.378606 L 57.966 20.727163 L 58.929 21.859976 L 59.196 22.229567 L 60.387 23.680889 L 61.311 24.91887 L 65.841 30.964543 L 66.147 31.448317 L 66.279 31.520433 L 66.543 31.935096 L 66.957 32.560096 L 67.179 32.770433 L 67.449 33.188101 L 67.986 33.957332 L 68.304 34.378005 L 68.673 34.867788 L 69.273 35.778245 L 69.465 35.988582 L 69.885 36.619591 L 70.185 36.971154 L 70.536 37.460938 L 71.994 39.570313 L 73.83 42.103365 L 74.16 42.454928 L 74.31 42.73738 L 77.046 46.604567 L 77.265 46.814904 L 79.182 49.483173 L 79.566 50.111178 L 80.778 51.72476 L 81.321 52.49399 L 82.656 54.245793 L 82.818 54.597356 L 83.013 54.804688 L 83.7 55.78726 L 85.347 58.025841 L 85.638 58.515625 L 86.049 59.005409 L 86.346 59.495192 L 88.053 61.802885 L 89.37 63.689904 L 91.086 66.063702 L 91.299 66.274038 L 91.584 66.760817 L 93.21 68.924279 L 93.51 69.411058 L 94.443 70.594952 L 94.719 71.01262 L 95.751 72.472957 L 96.129 73.031851 L 96.324 73.242188 L 98.289 75.955529 L 98.664 76.442308 L 98.859 76.721755 L 100.176 78.530649 L 100.479 78.948317 L 101.589 80.480769 L 101.889 80.964543 L 102.495 81.730769 L 102.783 82.217548 L 102.933 82.289663 L 103.116 82.635216 L 103.71 83.401442 L 103.992 83.888221 L 105.423 85.766226 L 107.349 88.476562 L 108.249 89.729567 L 108.45 89.939904 L 109.758 91.817909 L 109.911 91.887019 L 110.061 92.166466 L 138.633 131.451322 L 138.855 131.730769 L 139.299 132.355769 L 139.431 132.566106 L 141.873 135.958534 L 142.167 136.304087 L 142.782 137.205529 L 142.995 137.481971 L 143.58 138.245192 L 193.41 206.421274 L 197.379 210.655048 L 197.937 211.508413 L 198.267 211.935096 L 199.296 213.359375 L 199.68 213.927284 L 200.199 214.633413 L 200.871 215.621995 L 201.426 216.469351 L 202.155 217.599159 L 205.875 223.921274 L 206.163 224.278846 L 207.339 225.748197 L 207.879 226.451322 L 209.616 228.849159 L 210.171 229.549279 L 210.696 230.249399 L 212.583 232.472957 L 213.795 233.852163 L 215.577 236.039663 L 218.493 239.927885 L 219.18 240.982572 L 220.14 242.548077 L 221.31 244.714543 L 221.676 245.090144 L 222.327 245.913462 L 222.876 246.56851 L 223.143 246.932091 L 223.401 247.172476 L 223.743 247.608173 L 225.411 249.501202 L 225.606 249.723558 L 230.313 254.290865 L 231.318 255.090144 L 233.145 256.292067 L 235.773 257.436899 L 236.379 257.599159 L 237.081 257.710337 L 238.827 257.88762 L 239.1 257.845553 L 239.403 257.878606 L 239.802 257.809495 L 240.021 257.794471 L 242.025 257.5 L 243.174 257.11238 L 243.327 257.103365 L 243.735 256.95012 L 244.059 256.757812 L 244.281 256.736779 L 244.761 256.433293 L 244.836 256.451322 L 245.073 256.346154 L 245.874 255.829327 L 245.952 255.841346 L 246.159 255.721154 L 246.99 255.201322 L 247.167 255.063101 L 247.863 254.558293 L 248.076 254.408053 L 249.585 253.100962 L 249.849 253.001803 L 250.314 252.472957 L 250.908 251.992187 L 251.499 251.41226 L 253.644 249.155649 L 254.688 248.058894 L 254.847 247.914663 L 255.165 247.496995 L 255.66 247.013221 L 255.84 246.781851 L 256.962 245.429687 L 257.169 245.276442 L 261.222 240.402644 L 261.615 239.912861 L 261.72 239.870793 L 262.146 239.302885 L 262.518 238.891226 L 268.485 231.457332 L 268.986 230.904447 L 269.148 230.778245 L 269.277 230.447716 L 269.484 230.273437 L 272.907 225.946514 L 273.534 225.180288 L 273.717 224.92488 L 274.332 224.206731 L 274.437 223.948317 L 274.59 223.897236 L 274.749 223.563702 L 275.133 223.052885 L 275.412 222.797476 L 275.751 222.361779 L 277.068 220.694111 L 277.374 220.23137 L 277.758 219.789663 L 279.189 217.902644 L 279.492 217.512019 L 279.888 216.992187 L 280.596 216.159856 L 292.716 200.444712 L 292.998 200.051082 L 294.12 198.59976 " transform="matrix(1.302083,0,0,1.3,0,13)"/>
<path style="fill-rule:nonzero;fill:rgb(100%,64.705882%,0%);fill-opacity:1;stroke-width:2.5;stroke-linecap:butt;stroke-linejoin:round;stroke:rgb(100%,64.705882%,0%);stroke-opacity:1;stroke-miterlimit:4;" d="M 235.827 260.889423 L 241.827 254.888822 M 235.827 254.888822 L 241.827 260.889423 " transform="matrix(1.302083,0,0,1.3,0,13)"/>
<path style="fill:none;stroke-width:0.8;stroke-linecap:square;stroke-linejoin:miter;stroke:rgb(0%,0%,0%);stroke-opacity:1;stroke-miterlimit:10;" d="M 40.104 269.984976 L 40.104 3.873197 M 306.216 269.984976 L 306.216 3.873197 M 40.104 269.984976 L 306.216 269.984976 M 40.104 3.873197 L 306.216 3.873197 " transform="matrix(1.302083,0,0,1.3,0,13)"/>
<path style="fill-rule:nonzero;fill:rgb(100%,100%,100%);fill-opacity:0.8;stroke-width:1;stroke-linecap:butt;stroke-linejoin:miter;stroke:rgb(83.529412%,83.921569%,83.529412%);stroke-opacity:0.8;stroke-miterlimit:10;" d="M 121.965 41.216947 L 299.217 41.216947 C 300.549 41.216947 301.215 40.54988 301.215 39.215745 L 301.215 10.871394 C 301.215 9.540264 300.549 8.873197 299.217 8.873197 L 121.965 8.873197 C 120.633 8.873197 119.967 9.540264 119.967 10.871394 L 119.967 39.215745 C 119.967 40.54988 120.633 41.216947 121.965 41.216947 Z M 121.965 41.216947 " transform="matrix(1.302083,0,0,1.3,0,13)"/>
<path style="fill:none;stroke-width:2.5;stroke-linecap:square;stroke-linejoin:round;stroke:rgb(0%,0%,100%);stroke-opacity:1;stroke-miterlimit:4;" d="M 123.966 16.965144 L 143.967 16.965144 " transform="matrix(1.302083,0,0,1.3,0,13)"/>
<path style=" stroke:none;fill-rule:nonzero;fill:rgb(0%,0%,0%);fill-opacity:1;" d="M 200.4375 31.183594 L 200.4375 38.554688 L 201.988281 38.554688 C 203.289062 38.554688 204.253906 38.265625 204.863281 37.667969 C 205.464844 37.070312 205.777344 36.136719 205.777344 34.859375 C 205.777344 33.585938 205.464844 32.664062 204.863281 32.066406 C 204.253906 31.480469 203.289062 31.183594 201.988281 31.183594 Z M 199.148438 30.128906 L 201.792969 30.128906 C 203.628906 30.128906 204.980469 30.519531 205.839844 31.273438 C 206.699219 32.039062 207.128906 33.234375 207.128906 34.859375 C 207.128906 36.5 206.6875 37.695312 205.828125 38.460938 C 204.96875 39.230469 203.613281 39.605469 201.792969 39.605469 L 199.148438 39.605469 Z M 199.148438 30.128906 "/>
<path style=" stroke:none;fill-rule:nonzero;fill:rgb(0%,0%,0%);fill-opacity:1;" d="M 209.121094 32.496094 L 210.292969 32.496094 L 210.292969 39.605469 L 209.121094 39.605469 Z M 209.121094 29.726562 L 210.292969 29.726562 L 210.292969 31.207031 L 209.121094 31.207031 Z M 209.121094 29.726562 "/>
<path style=" stroke:none;fill-rule:nonzero;fill:rgb(0%,0%,0%);fill-opacity:1;" d="M 217.285156 32.703125 L 217.285156 33.808594 C 216.949219 33.652344 216.609375 33.523438 216.257812 33.429688 C 215.894531 33.351562 215.527344 33.300781 215.152344 33.300781 C 214.566406 33.300781 214.121094 33.390625 213.835938 33.574219 C 213.550781 33.753906 213.40625 34.015625 213.40625 34.367188 C 213.40625 34.640625 213.511719 34.847656 213.71875 35.003906 C 213.925781 35.160156 214.34375 35.316406 214.96875 35.445312 L 215.371094 35.535156 C 216.207031 35.71875 216.792969 35.980469 217.144531 36.289062 C 217.480469 36.617188 217.664062 37.070312 217.664062 37.644531 C 217.664062 38.304688 217.402344 38.824219 216.882812 39.203125 C 216.363281 39.59375 215.632812 39.773438 214.722656 39.773438 C 214.332031 39.773438 213.941406 39.734375 213.523438 39.671875 C 213.105469 39.605469 212.675781 39.5 212.222656 39.347656 L 212.222656 38.136719 C 212.652344 38.371094 213.082031 38.539062 213.496094 38.644531 C 213.914062 38.761719 214.332031 38.8125 214.746094 38.8125 C 215.292969 38.8125 215.722656 38.722656 216.023438 38.539062 C 216.308594 38.359375 216.464844 38.085938 216.464844 37.734375 C 216.464844 37.421875 216.347656 37.175781 216.140625 37.003906 C 215.933594 36.835938 215.464844 36.667969 214.734375 36.511719 L 214.332031 36.421875 C 213.601562 36.265625 213.066406 36.03125 212.753906 35.71875 C 212.429688 35.40625 212.273438 34.976562 212.273438 34.417969 C 212.273438 33.753906 212.507812 33.234375 212.976562 32.871094 C 213.445312 32.507812 214.121094 32.324219 215.007812 32.324219 C 215.4375 32.324219 215.839844 32.363281 216.230469 32.429688 C 216.609375 32.496094 216.960938 32.585938 217.285156 32.703125 Z M 217.285156 32.703125 "/>
<path style=" stroke:none;fill-rule:nonzero;fill:rgb(0%,0%,0%);fill-opacity:1;" d="M 220.683594 30.480469 L 220.683594 32.496094 L 223.09375 32.496094 L 223.09375 33.40625 L 220.683594 33.40625 L 220.683594 37.265625 C 220.683594 37.851562 220.761719 38.226562 220.917969 38.382812 C 221.074219 38.554688 221.402344 38.628906 221.894531 38.628906 L 223.09375 38.628906 L 223.09375 39.605469 L 221.894531 39.605469 C 220.984375 39.605469 220.359375 39.4375 220.019531 39.097656 C 219.683594 38.761719 219.511719 38.148438 219.511719 37.265625 L 219.511719 33.40625 L 218.652344 33.40625 L 218.652344 32.496094 L 219.511719 32.496094 L 219.511719 30.480469 Z M 220.683594 30.480469 "/>
<path style=" stroke:none;fill-rule:nonzero;fill:rgb(0%,0%,0%);fill-opacity:1;" d="M 227.871094 36.03125 C 226.921875 36.03125 226.269531 36.148438 225.90625 36.355469 C 225.542969 36.578125 225.359375 36.941406 225.359375 37.460938 C 225.359375 37.875 225.488281 38.214844 225.761719 38.449219 C 226.035156 38.695312 226.414062 38.8125 226.882812 38.8125 C 227.535156 38.8125 228.054688 38.59375 228.445312 38.125 C 228.835938 37.667969 229.03125 37.058594 229.03125 36.289062 L 229.03125 36.03125 Z M 230.203125 35.550781 L 230.203125 39.605469 L 229.03125 39.605469 L 229.03125 38.527344 C 228.757812 38.96875 228.417969 39.28125 228.027344 39.476562 C 227.636719 39.671875 227.144531 39.773438 226.570312 39.773438 C 225.839844 39.773438 225.253906 39.578125 224.824219 39.175781 C 224.394531 38.773438 224.1875 38.226562 224.1875 37.539062 C 224.1875 36.746094 224.449219 36.148438 224.996094 35.730469 C 225.527344 35.328125 226.324219 35.121094 227.390625 35.121094 L 229.03125 35.121094 L 229.03125 35.003906 C 229.03125 34.472656 228.847656 34.054688 228.496094 33.753906 C 228.144531 33.46875 227.652344 33.3125 227.011719 33.3125 C 226.597656 33.3125 226.207031 33.367188 225.816406 33.46875 C 225.425781 33.574219 225.058594 33.71875 224.707031 33.898438 L 224.707031 32.820312 C 225.125 32.664062 225.542969 32.535156 225.945312 32.457031 C 226.347656 32.378906 226.738281 32.324219 227.128906 32.324219 C 228.160156 32.324219 228.925781 32.597656 229.433594 33.132812 C 229.941406 33.664062 230.203125 34.472656 230.203125 35.550781 Z M 230.203125 35.550781 "/>
<path style=" stroke:none;fill-rule:nonzero;fill:rgb(0%,0%,0%);fill-opacity:1;" d="M 238.535156 35.316406 L 238.535156 39.605469 L 237.363281 39.605469 L 237.363281 35.355469 C 237.363281 34.679688 237.222656 34.183594 236.960938 33.847656 C 236.699219 33.507812 236.308594 33.339844 235.789062 33.339844 C 235.152344 33.339844 234.65625 33.546875 234.292969 33.949219 C 233.925781 34.355469 233.746094 34.898438 233.746094 35.589844 L 233.746094 39.605469 L 232.574219 39.605469 L 232.574219 32.496094 L 233.746094 32.496094 L 233.746094 33.601562 C 234.019531 33.183594 234.34375 32.859375 234.734375 32.652344 C 235.113281 32.441406 235.554688 32.324219 236.050781 32.324219 C 236.855469 32.324219 237.480469 32.585938 237.898438 33.09375 C 238.316406 33.601562 238.535156 34.339844 238.535156 35.316406 Z M 238.535156 35.316406 "/>
<path style=" stroke:none;fill-rule:nonzero;fill:rgb(0%,0%,0%);fill-opacity:1;" d="M 245.996094 32.769531 L 245.996094 33.859375 C 245.660156 33.679688 245.332031 33.546875 244.996094 33.457031 C 244.65625 33.367188 244.332031 33.3125 243.992188 33.3125 C 243.238281 33.3125 242.636719 33.5625 242.222656 34.042969 C 241.804688 34.523438 241.597656 35.199219 241.597656 36.058594 C 241.597656 36.929688 241.804688 37.605469 242.222656 38.085938 C 242.636719 38.566406 243.238281 38.800781 243.992188 38.800781 C 244.332031 38.800781 244.65625 38.761719 244.996094 38.667969 C 245.332031 38.578125 245.660156 38.4375 245.996094 38.253906 L 245.996094 39.332031 C 245.660156 39.488281 245.320312 39.605469 244.980469 39.671875 C 244.628906 39.734375 244.253906 39.773438 243.863281 39.773438 C 242.792969 39.773438 241.933594 39.449219 241.308594 38.773438 C 240.671875 38.109375 240.359375 37.199219 240.359375 36.058594 C 240.359375 34.898438 240.671875 33.988281 241.308594 33.328125 C 241.949219 32.664062 242.820312 32.324219 243.941406 32.324219 C 244.304688 32.324219 244.65625 32.363281 244.996094 32.441406 C 245.332031 32.519531 245.671875 32.625 245.996094 32.769531 Z M 245.996094 32.769531 "/>
<path style=" stroke:none;fill-rule:nonzero;fill:rgb(0%,0%,0%);fill-opacity:1;" d="M 254.121094 35.757812 L 254.121094 36.328125 L 248.746094 36.328125 C 248.796875 37.136719 249.03125 37.761719 249.472656 38.175781 C 249.902344 38.59375 250.503906 38.800781 251.285156 38.800781 C 251.726562 38.800781 252.167969 38.746094 252.585938 38.644531 C 253.003906 38.539062 253.433594 38.371094 253.847656 38.136719 L 253.847656 39.242188 C 253.433594 39.421875 253.003906 39.566406 252.558594 39.644531 C 252.117188 39.722656 251.660156 39.773438 251.21875 39.773438 C 250.074219 39.773438 249.175781 39.449219 248.511719 38.800781 C 247.847656 38.148438 247.519531 37.253906 247.519531 36.121094 C 247.519531 34.964844 247.832031 34.042969 248.457031 33.351562 C 249.082031 32.675781 249.941406 32.324219 251.011719 32.324219 C 251.972656 32.324219 252.730469 32.636719 253.289062 33.25 C 253.835938 33.871094 254.121094 34.703125 254.121094 35.757812 Z M 252.949219 35.417969 C 252.9375 34.78125 252.753906 34.277344 252.417969 33.886719 C 252.066406 33.507812 251.597656 33.3125 251.023438 33.3125 C 250.371094 33.3125 249.851562 33.507812 249.460938 33.871094 C 249.070312 34.238281 248.835938 34.757812 248.785156 35.417969 Z M 252.949219 35.417969 "/>
<path style=" stroke:none;fill-rule:nonzero;fill:rgb(0%,0%,0%);fill-opacity:1;" d="M 265.292969 36.058594 C 265.292969 35.199219 265.113281 34.535156 264.761719 34.042969 C 264.394531 33.546875 263.914062 33.300781 263.300781 33.300781 C 262.675781 33.300781 262.195312 33.546875 261.84375 34.042969 C 261.480469 34.535156 261.308594 35.199219 261.308594 36.058594 C 261.308594 36.914062 261.480469 37.589844 261.84375 38.085938 C 262.195312 38.578125 262.675781 38.8125 263.300781 38.8125 C 263.914062 38.8125 264.394531 38.578125 264.761719 38.085938 C 265.113281 37.589844 265.292969 36.914062 265.292969 36.058594 Z M 261.308594 33.574219 C 261.542969 33.15625 261.855469 32.847656 262.234375 32.636719 C 262.613281 32.429688 263.066406 32.324219 263.589844 32.324219 C 264.449219 32.324219 265.152344 32.675781 265.699219 33.351562 C 266.230469 34.042969 266.503906 34.9375 266.503906 36.058594 C 266.503906 37.175781 266.230469 38.085938 265.699219 38.761719 C 265.152344 39.4375 264.449219 39.773438 263.589844 39.773438 C 263.066406 39.773438 262.613281 39.671875 262.234375 39.476562 C 261.855469 39.28125 261.542969 38.96875 261.308594 38.539062 L 261.308594 39.605469 L 260.136719 39.605469 L 260.136719 29.726562 L 261.308594 29.726562 Z M 261.308594 33.574219 "/>
<path style=" stroke:none;fill-rule:nonzero;fill:rgb(0%,0%,0%);fill-opacity:1;" d="M 274.539062 35.757812 L 274.539062 36.328125 L 269.160156 36.328125 C 269.214844 37.136719 269.449219 37.761719 269.890625 38.175781 C 270.320312 38.59375 270.917969 38.800781 271.699219 38.800781 C 272.144531 38.800781 272.585938 38.746094 273.003906 38.644531 C 273.417969 38.539062 273.847656 38.371094 274.265625 38.136719 L 274.265625 39.242188 C 273.847656 39.421875 273.417969 39.566406 272.976562 39.644531 C 272.535156 39.722656 272.078125 39.773438 271.636719 39.773438 C 270.488281 39.773438 269.589844 39.449219 268.925781 38.800781 C 268.261719 38.148438 267.9375 37.253906 267.9375 36.121094 C 267.9375 34.964844 268.25 34.042969 268.875 33.351562 C 269.5 32.675781 270.359375 32.324219 271.425781 32.324219 C 272.390625 32.324219 273.144531 32.636719 273.707031 33.25 C 274.253906 33.871094 274.539062 34.703125 274.539062 35.757812 Z M 273.367188 35.417969 C 273.355469 34.78125 273.171875 34.277344 272.832031 33.886719 C 272.480469 33.507812 272.011719 33.3125 271.441406 33.3125 C 270.789062 33.3125 270.269531 33.507812 269.878906 33.871094 C 269.488281 34.238281 269.253906 34.757812 269.199219 35.417969 Z M 273.367188 35.417969 "/>
<path style=" stroke:none;fill-rule:nonzero;fill:rgb(0%,0%,0%);fill-opacity:1;" d="M 277.613281 30.480469 L 277.613281 32.496094 L 280.019531 32.496094 L 280.019531 33.40625 L 277.613281 33.40625 L 277.613281 37.265625 C 277.613281 37.851562 277.691406 38.226562 277.847656 38.382812 C 278.003906 38.554688 278.328125 38.628906 278.824219 38.628906 L 280.019531 38.628906 L 280.019531 39.605469 L 278.824219 39.605469 C 277.910156 39.605469 277.285156 39.4375 276.949219 39.097656 C 276.609375 38.761719 276.441406 38.148438 276.441406 37.265625 L 276.441406 33.40625 L 275.582031 33.40625 L 275.582031 32.496094 L 276.441406 32.496094 L 276.441406 30.480469 Z M 277.613281 30.480469 "/>
<path style=" stroke:none;fill-rule:nonzero;fill:rgb(0%,0%,0%);fill-opacity:1;" d="M 280.878906 32.496094 L 282.050781 32.496094 L 283.511719 38.046875 L 284.96875 32.496094 L 286.347656 32.496094 L 287.808594 38.046875 L 289.265625 32.496094 L 290.4375 32.496094 L 288.574219 39.605469 L 287.195312 39.605469 L 285.660156 33.78125 L 284.121094 39.605469 L 282.742188 39.605469 Z M 280.878906 32.496094 "/>
<path style=" stroke:none;fill-rule:nonzero;fill:rgb(0%,0%,0%);fill-opacity:1;" d="M 298.300781 35.757812 L 298.300781 36.328125 L 292.925781 36.328125 C 292.976562 37.136719 293.210938 37.761719 293.652344 38.175781 C 294.082031 38.59375 294.683594 38.800781 295.464844 38.800781 C 295.90625 38.800781 296.347656 38.746094 296.765625 38.644531 C 297.183594 38.539062 297.613281 38.371094 298.027344 38.136719 L 298.027344 39.242188 C 297.613281 39.421875 297.183594 39.566406 296.738281 39.644531 C 296.296875 39.722656 295.839844 39.773438 295.398438 39.773438 C 294.253906 39.773438 293.355469 39.449219 292.691406 38.800781 C 292.027344 38.148438 291.699219 37.253906 291.699219 36.121094 C 291.699219 34.964844 292.011719 34.042969 292.636719 33.351562 C 293.261719 32.675781 294.121094 32.324219 295.191406 32.324219 C 296.152344 32.324219 296.910156 32.636719 297.46875 33.25 C 298.015625 33.871094 298.300781 34.703125 298.300781 35.757812 Z M 297.128906 35.417969 C 297.117188 34.78125 296.933594 34.277344 296.597656 33.886719 C 296.246094 33.507812 295.777344 33.3125 295.203125 33.3125 C 294.550781 33.3125 294.03125 33.507812 293.640625 33.871094 C 293.25 34.238281 293.015625 34.757812 292.964844 35.417969 Z M 297.128906 35.417969 "/>
<path style=" stroke:none;fill-rule:nonzero;fill:rgb(0%,0%,0%);fill-opacity:1;" d="M 306.308594 35.757812 L 306.308594 36.328125 L 300.933594 36.328125 C 300.984375 37.136719 301.21875 37.761719 301.660156 38.175781 C 302.089844 38.59375 302.691406 38.800781 303.472656 38.800781 C 303.914062 38.800781 304.355469 38.746094 304.773438 38.644531 C 305.191406 38.539062 305.621094 38.371094 306.035156 38.136719 L 306.035156 39.242188 C 305.621094 39.421875 305.191406 39.566406 304.746094 39.644531 C 304.304688 39.722656 303.847656 39.773438 303.40625 39.773438 C 302.261719 39.773438 301.363281 39.449219 300.699219 38.800781 C 300.035156 38.148438 299.707031 37.253906 299.707031 36.121094 C 299.707031 34.964844 300.019531 34.042969 300.644531 33.351562 C 301.269531 32.675781 302.128906 32.324219 303.199219 32.324219 C 304.160156 32.324219 304.917969 32.636719 305.476562 33.25 C 306.023438 33.871094 306.308594 34.703125 306.308594 35.757812 Z M 305.136719 35.417969 C 305.125 34.78125 304.941406 34.277344 304.605469 33.886719 C 304.253906 33.507812 303.785156 33.3125 303.210938 33.3125 C 302.558594 33.3125 302.039062 33.507812 301.648438 33.871094 C 301.257812 34.238281 301.023438 34.757812 300.972656 35.417969 Z M 305.136719 35.417969 "/>
<path style=" stroke:none;fill-rule:nonzero;fill:rgb(0%,0%,0%);fill-opacity:1;" d="M 314.148438 35.316406 L 314.148438 39.605469 L 312.976562 39.605469 L 312.976562 35.355469 C 312.976562 34.679688 312.832031 34.183594 312.574219 33.847656 C 312.3125 33.507812 311.921875 33.339844 311.402344 33.339844 C 310.761719 33.339844 310.269531 33.546875 309.902344 33.949219 C 309.539062 34.355469 309.355469 34.898438 309.355469 35.589844 L 309.355469 39.605469 L 308.183594 39.605469 L 308.183594 32.496094 L 309.355469 32.496094 L 309.355469 33.601562 C 309.628906 33.183594 309.957031 32.859375 310.347656 32.652344 C 310.722656 32.441406 311.167969 32.324219 311.660156 32.324219 C 312.46875 32.324219 313.09375 32.585938 313.511719 33.09375 C 313.925781 33.601562 314.148438 34.339844 314.148438 35.316406 Z M 314.148438 35.316406 "/>
<path style=" stroke:none;fill-rule:nonzero;fill:rgb(0%,0%,0%);fill-opacity:1;" d="M 324.527344 31 C 323.589844 31 322.847656 31.351562 322.300781 32.039062 C 321.753906 32.742188 321.480469 33.679688 321.480469 34.875 C 321.480469 36.070312 321.753906 37.019531 322.300781 37.707031 C 322.847656 38.410156 323.589844 38.746094 324.527344 38.746094 C 325.449219 38.746094 326.191406 38.410156 326.738281 37.707031 C 327.285156 37.019531 327.558594 36.070312 327.558594 34.875 C 327.558594 33.679688 327.285156 32.742188 326.738281 32.039062 C 326.191406 31.351562 325.449219 31 324.527344 31 Z M 324.527344 29.960938 C 325.855469 29.960938 326.910156 30.414062 327.714844 31.296875 C 328.511719 32.183594 328.914062 33.378906 328.914062 34.875 C 328.914062 36.382812 328.511719 37.566406 327.714844 38.449219 C 326.910156 39.332031 325.855469 39.773438 324.527344 39.773438 C 323.183594 39.773438 322.117188 39.332031 321.324219 38.449219 C 320.515625 37.566406 320.125 36.382812 320.125 34.875 C 320.125 33.378906 320.515625 32.183594 321.324219 31.296875 C 322.117188 30.414062 323.183594 29.960938 324.527344 29.960938 Z M 324.527344 29.960938 "/>
<path style=" stroke:none;fill-rule:nonzero;fill:rgb(0%,0%,0%);fill-opacity:1;" d="M 336.609375 30.441406 L 336.609375 31.6875 C 336.113281 31.453125 335.660156 31.285156 335.230469 31.167969 C 334.785156 31.066406 334.371094 31 333.980469 31 C 333.277344 31 332.730469 31.144531 332.351562 31.402344 C 331.972656 31.675781 331.792969 32.066406 331.792969 32.558594 C 331.792969 32.976562 331.910156 33.300781 332.167969 33.507812 C 332.417969 33.730469 332.898438 33.898438 333.601562 34.027344 L 334.382812 34.183594 C 335.332031 34.367188 336.035156 34.691406 336.492188 35.148438 C 336.949219 35.613281 337.183594 36.226562 337.183594 36.992188 C 337.183594 37.914062 336.871094 38.605469 336.257812 39.074219 C 335.632812 39.539062 334.734375 39.773438 333.550781 39.773438 C 333.09375 39.773438 332.613281 39.722656 332.105469 39.632812 C 331.597656 39.539062 331.074219 39.398438 330.542969 39.191406 L 330.542969 37.863281 C 331.0625 38.164062 331.570312 38.382812 332.066406 38.527344 C 332.558594 38.683594 333.054688 38.746094 333.550781 38.746094 C 334.277344 38.746094 334.839844 38.605469 335.242188 38.320312 C 335.632812 38.03125 335.839844 37.628906 335.839844 37.082031 C 335.839844 36.617188 335.699219 36.25 335.410156 35.992188 C 335.125 35.730469 334.65625 35.535156 334.003906 35.40625 L 333.222656 35.25 C 332.261719 35.070312 331.570312 34.769531 331.140625 34.355469 C 330.710938 33.949219 330.503906 33.390625 330.503906 32.664062 C 330.503906 31.832031 330.789062 31.167969 331.386719 30.6875 C 331.972656 30.207031 332.792969 29.960938 333.835938 29.960938 C 334.277344 29.960938 334.722656 30 335.191406 30.078125 C 335.644531 30.15625 336.113281 30.285156 336.609375 30.441406 Z M 336.609375 30.441406 "/>
<path style=" stroke:none;fill-rule:nonzero;fill:rgb(0%,0%,0%);fill-opacity:1;" d="M 346.519531 36.03125 C 345.566406 36.03125 344.917969 36.148438 344.550781 36.355469 C 344.1875 36.578125 344.003906 36.941406 344.003906 37.460938 C 344.003906 37.875 344.136719 38.214844 344.410156 38.449219 C 344.683594 38.695312 345.058594 38.8125 345.527344 38.8125 C 346.179688 38.8125 346.699219 38.59375 347.089844 38.125 C 347.480469 37.667969 347.675781 37.058594 347.675781 36.289062 L 347.675781 36.03125 Z M 348.847656 35.550781 L 348.847656 39.605469 L 347.675781 39.605469 L 347.675781 38.527344 C 347.402344 38.96875 347.066406 39.28125 346.675781 39.476562 C 346.285156 39.671875 345.789062 39.773438 345.214844 39.773438 C 344.488281 39.773438 343.902344 39.578125 343.472656 39.175781 C 343.042969 38.773438 342.832031 38.226562 342.832031 37.539062 C 342.832031 36.746094 343.09375 36.148438 343.640625 35.730469 C 344.175781 35.328125 344.96875 35.121094 346.035156 35.121094 L 347.675781 35.121094 L 347.675781 35.003906 C 347.675781 34.472656 347.496094 34.054688 347.144531 33.753906 C 346.792969 33.46875 346.296875 33.3125 345.660156 33.3125 C 345.242188 33.3125 344.851562 33.367188 344.460938 33.46875 C 344.070312 33.574219 343.707031 33.71875 343.355469 33.898438 L 343.355469 32.820312 C 343.769531 32.664062 344.1875 32.535156 344.589844 32.457031 C 344.996094 32.378906 345.386719 32.324219 345.777344 32.324219 C 346.804688 32.324219 347.574219 32.597656 348.082031 33.132812 C 348.589844 33.664062 348.847656 34.472656 348.847656 35.550781 Z M 348.847656 35.550781 "/>
<path style=" stroke:none;fill-rule:nonzero;fill:rgb(0%,0%,0%);fill-opacity:1;" d="M 357.183594 35.316406 L 357.183594 39.605469 L 356.011719 39.605469 L 356.011719 35.355469 C 356.011719 34.679688 355.867188 34.183594 355.605469 33.847656 C 355.347656 33.507812 354.957031 33.339844 354.433594 33.339844 C 353.796875 33.339844 353.300781 33.546875 352.9375 33.949219 C 352.574219 34.355469 352.390625 34.898438 352.390625 35.589844 L 352.390625 39.605469 L 351.21875 39.605469 L 351.21875 32.496094 L 352.390625 32.496094 L 352.390625 33.601562 C 352.664062 33.183594 352.988281 32.859375 353.378906 32.652344 C 353.757812 32.441406 354.199219 32.324219 354.695312 32.324219 C 355.503906 32.324219 356.128906 32.585938 356.542969 33.09375 C 356.960938 33.601562 357.183594 34.339844 357.183594 35.316406 Z M 357.183594 35.316406 "/>
<path style=" stroke:none;fill-rule:nonzero;fill:rgb(0%,0%,0%);fill-opacity:1;" d="M 364.199219 33.574219 L 364.199219 29.726562 L 365.371094 29.726562 L 365.371094 39.605469 L 364.199219 39.605469 L 364.199219 38.539062 C 363.953125 38.96875 363.640625 39.28125 363.261719 39.476562 C 362.886719 39.671875 362.441406 39.773438 361.921875 39.773438 C 361.0625 39.773438 360.359375 39.4375 359.8125 38.761719 C 359.265625 38.085938 359.003906 37.175781 359.003906 36.058594 C 359.003906 34.9375 359.265625 34.042969 359.8125 33.351562 C 360.359375 32.675781 361.0625 32.324219 361.921875 32.324219 C 362.441406 32.324219 362.886719 32.429688 363.261719 32.636719 C 363.640625 32.847656 363.953125 33.15625 364.199219 33.574219 Z M 360.214844 36.058594 C 360.214844 36.914062 360.386719 37.589844 360.738281 38.085938 C 361.089844 38.578125 361.570312 38.8125 362.195312 38.8125 C 362.820312 38.8125 363.300781 38.578125 363.667969 38.085938 C 364.019531 37.589844 364.199219 36.914062 364.199219 36.058594 C 364.199219 35.199219 364.019531 34.535156 363.667969 34.042969 C 363.300781 33.546875 362.820312 33.300781 362.195312 33.300781 C 361.570312 33.300781 361.089844 33.546875 360.738281 34.042969 C 360.386719 34.535156 360.214844 35.199219 360.214844 36.058594 Z M 360.214844 36.058594 "/>
<path style=" stroke:none;fill-rule:nonzero;fill:rgb(0%,0%,0%);fill-opacity:1;" d="M 370.671875 30.128906 L 378.691406 30.128906 L 378.691406 31.207031 L 375.320312 31.207031 L 375.320312 39.605469 L 374.03125 39.605469 L 374.03125 31.207031 L 370.671875 31.207031 Z M 370.671875 30.128906 "/>
<path style=" stroke:none;fill-rule:nonzero;fill:rgb(0%,0%,0%);fill-opacity:1;" d="M 385.621094 30.441406 L 385.621094 31.6875 C 385.125 31.453125 384.667969 31.285156 384.238281 31.167969 C 383.796875 31.066406 383.378906 31 382.988281 31 C 382.285156 31 381.738281 31.144531 381.363281 31.402344 C 380.984375 31.675781 380.800781 32.066406 380.800781 32.558594 C 380.800781 32.976562 380.917969 33.300781 381.179688 33.507812 C 381.425781 33.730469 381.910156 33.898438 382.613281 34.027344 L 383.394531 34.183594 C 384.34375 34.367188 385.046875 34.691406 385.503906 35.148438 C 385.957031 35.613281 386.191406 36.226562 386.191406 36.992188 C 386.191406 37.914062 385.878906 38.605469 385.269531 39.074219 C 384.644531 39.539062 383.746094 39.773438 382.558594 39.773438 C 382.105469 39.773438 381.621094 39.722656 381.113281 39.632812 C 380.605469 39.539062 380.085938 39.398438 379.550781 39.191406 L 379.550781 37.863281 C 380.074219 38.164062 380.582031 38.382812 381.074219 38.527344 C 381.570312 38.683594 382.066406 38.746094 382.558594 38.746094 C 383.289062 38.746094 383.847656 38.605469 384.253906 38.320312 C 384.644531 38.03125 384.851562 37.628906 384.851562 37.082031 C 384.851562 36.617188 384.707031 36.25 384.421875 35.992188 C 384.136719 35.730469 383.667969 35.535156 383.015625 35.40625 L 382.234375 35.25 C 381.269531 35.070312 380.582031 34.769531 380.152344 34.355469 C 379.722656 33.949219 379.511719 33.390625 379.511719 32.664062 C 379.511719 31.832031 379.800781 31.167969 380.398438 30.6875 C 380.984375 30.207031 381.804688 29.960938 382.847656 29.960938 C 383.289062 29.960938 383.730469 30 384.199219 30.078125 C 384.65625 30.15625 385.125 30.285156 385.621094 30.441406 Z M 385.621094 30.441406 "/>
<path style="fill-rule:nonzero;fill:rgb(100%,64.705882%,0%);fill-opacity:1;stroke-width:2.5;stroke-linecap:butt;stroke-linejoin:round;stroke:rgb(100%,64.705882%,0%);stroke-opacity:1;stroke-miterlimit:4;" d="M 130.965 35.513822 L 136.965 29.513221 M 130.965 29.513221 L 136.965 35.513822 " transform="matrix(1.302083,0,0,1.3,0,13)"/>
<path style=" stroke:none;fill-rule:nonzero;fill:rgb(0%,0%,0%);fill-opacity:1;" d="M 204.644531 52.933594 C 204.929688 52.414062 205.28125 52.035156 205.683594 51.777344 C 206.089844 51.53125 206.570312 51.398438 207.128906 51.398438 C 207.859375 51.398438 208.433594 51.660156 208.835938 52.179688 C 209.238281 52.699219 209.449219 53.441406 209.449219 54.390625 L 209.449219 58.679688 L 208.277344 58.679688 L 208.277344 54.429688 C 208.277344 53.753906 208.144531 53.246094 207.910156 52.90625 C 207.664062 52.582031 207.300781 52.414062 206.804688 52.414062 C 206.191406 52.414062 205.710938 52.621094 205.359375 53.023438 C 205.007812 53.425781 204.839844 53.972656 204.839844 54.664062 L 204.839844 58.679688 L 203.667969 58.679688 L 203.667969 54.429688 C 203.667969 53.753906 203.535156 53.246094 203.300781 52.90625 C 203.054688 52.582031 202.675781 52.414062 202.183594 52.414062 C 201.582031 52.414062 201.101562 52.621094 200.75 53.023438 C 200.398438 53.425781 200.230469 53.972656 200.230469 54.664062 L 200.230469 58.679688 L 199.058594 58.679688 L 199.058594 51.570312 L 200.230469 51.570312 L 200.230469 52.671875 C 200.488281 52.246094 200.816406 51.917969 201.191406 51.710938 C 201.558594 51.503906 202 51.398438 202.519531 51.398438 C 203.042969 51.398438 203.472656 51.53125 203.835938 51.789062 C 204.199219 52.050781 204.460938 52.4375 204.644531 52.933594 Z M 204.644531 52.933594 "/>
<path style=" stroke:none;fill-rule:nonzero;fill:rgb(0%,0%,0%);fill-opacity:1;" d="M 211.777344 51.570312 L 212.949219 51.570312 L 212.949219 58.679688 L 211.777344 58.679688 Z M 211.777344 48.800781 L 212.949219 48.800781 L 212.949219 50.28125 L 211.777344 50.28125 Z M 211.777344 48.800781 "/>
<path style=" stroke:none;fill-rule:nonzero;fill:rgb(0%,0%,0%);fill-opacity:1;" d="M 221.324219 54.390625 L 221.324219 58.679688 L 220.152344 58.679688 L 220.152344 54.429688 C 220.152344 53.753906 220.007812 53.257812 219.746094 52.921875 C 219.488281 52.582031 219.097656 52.414062 218.574219 52.414062 C 217.9375 52.414062 217.441406 52.621094 217.078125 53.023438 C 216.714844 53.425781 216.53125 53.972656 216.53125 54.664062 L 216.53125 58.679688 L 215.359375 58.679688 L 215.359375 51.570312 L 216.53125 51.570312 L 216.53125 52.671875 C 216.804688 52.257812 217.128906 51.933594 217.519531 51.722656 C 217.898438 51.515625 218.339844 51.398438 218.835938 51.398438 C 219.644531 51.398438 220.269531 51.660156 220.683594 52.167969 C 221.101562 52.671875 221.324219 53.414062 221.324219 54.390625 Z M 221.324219 54.390625 "/>
<path style=" stroke:none;fill-rule:nonzero;fill:rgb(0%,0%,0%);fill-opacity:1;" d="M 223.824219 57.066406 L 225.164062 57.066406 L 225.164062 58.679688 L 223.824219 58.679688 Z M 223.824219 57.066406 "/>
<path style=" stroke:none;fill-rule:nonzero;fill:rgb(0%,0%,0%);fill-opacity:1;" d="M 236.621094 52.648438 L 236.621094 48.800781 L 237.792969 48.800781 L 237.792969 58.679688 L 236.621094 58.679688 L 236.621094 57.613281 C 236.375 58.042969 236.0625 58.355469 235.683594 58.550781 C 235.308594 58.746094 234.863281 58.847656 234.34375 58.847656 C 233.484375 58.847656 232.78125 58.511719 232.234375 57.835938 C 231.6875 57.160156 231.425781 56.25 231.425781 55.128906 C 231.425781 54.011719 231.6875 53.117188 232.234375 52.425781 C 232.78125 51.75 233.484375 51.398438 234.34375 51.398438 C 234.863281 51.398438 235.308594 51.503906 235.683594 51.710938 C 236.0625 51.917969 236.375 52.230469 236.621094 52.648438 Z M 232.636719 55.128906 C 232.636719 55.988281 232.808594 56.664062 233.160156 57.160156 C 233.511719 57.652344 233.992188 57.886719 234.617188 57.886719 C 235.242188 57.886719 235.722656 57.652344 236.089844 57.160156 C 236.441406 56.664062 236.621094 55.988281 236.621094 55.128906 C 236.621094 54.273438 236.441406 53.609375 236.089844 53.117188 C 235.722656 52.621094 235.242188 52.375 234.617188 52.375 C 233.992188 52.375 233.511719 52.621094 233.160156 53.117188 C 232.808594 53.609375 232.636719 54.273438 232.636719 55.128906 Z M 232.636719 55.128906 "/>
<path style=" stroke:none;fill-rule:nonzero;fill:rgb(0%,0%,0%);fill-opacity:1;" d="M 240.203125 51.570312 L 241.375 51.570312 L 241.375 58.679688 L 240.203125 58.679688 Z M 240.203125 48.800781 L 241.375 48.800781 L 241.375 50.28125 L 240.203125 50.28125 Z M 240.203125 48.800781 "/>
<path style=" stroke:none;fill-rule:nonzero;fill:rgb(0%,0%,0%);fill-opacity:1;" d="M 248.367188 51.777344 L 248.367188 52.882812 C 248.027344 52.726562 247.691406 52.59375 247.339844 52.503906 C 246.972656 52.425781 246.609375 52.375 246.230469 52.375 C 245.644531 52.375 245.203125 52.464844 244.917969 52.648438 C 244.628906 52.828125 244.488281 53.089844 244.488281 53.441406 C 244.488281 53.714844 244.589844 53.921875 244.800781 54.078125 C 245.007812 54.234375 245.425781 54.390625 246.050781 54.519531 L 246.453125 54.609375 C 247.285156 54.792969 247.871094 55.050781 248.222656 55.363281 C 248.5625 55.6875 248.746094 56.144531 248.746094 56.714844 C 248.746094 57.378906 248.484375 57.898438 247.964844 58.277344 C 247.441406 58.667969 246.714844 58.847656 245.800781 58.847656 C 245.410156 58.847656 245.019531 58.808594 244.605469 58.746094 C 244.1875 58.679688 243.757812 58.574219 243.300781 58.417969 L 243.300781 57.210938 C 243.730469 57.445312 244.160156 57.613281 244.578125 57.71875 C 244.996094 57.835938 245.410156 57.886719 245.828125 57.886719 C 246.375 57.886719 246.804688 57.796875 247.105469 57.613281 C 247.390625 57.429688 247.546875 57.160156 247.546875 56.808594 C 247.546875 56.496094 247.429688 56.25 247.222656 56.078125 C 247.011719 55.910156 246.542969 55.742188 245.816406 55.585938 L 245.410156 55.496094 C 244.683594 55.339844 244.148438 55.105469 243.835938 54.792969 C 243.511719 54.480469 243.355469 54.050781 243.355469 53.492188 C 243.355469 52.828125 243.589844 52.308594 244.058594 51.945312 C 244.527344 51.582031 245.203125 51.398438 246.089844 51.398438 C 246.519531 51.398438 246.921875 51.4375 247.3125 51.503906 C 247.691406 51.570312 248.042969 51.660156 248.367188 51.777344 Z M 248.367188 51.777344 "/>
<path style=" stroke:none;fill-rule:nonzero;fill:rgb(0%,0%,0%);fill-opacity:1;" d="M 251.765625 49.554688 L 251.765625 51.570312 L 254.175781 51.570312 L 254.175781 52.476562 L 251.765625 52.476562 L 251.765625 56.339844 C 251.765625 56.925781 251.84375 57.300781 252 57.457031 C 252.15625 57.625 252.480469 57.703125 252.976562 57.703125 L 254.175781 57.703125 L 254.175781 58.679688 L 252.976562 58.679688 C 252.066406 58.679688 251.441406 58.511719 251.101562 58.171875 C 250.761719 57.835938 250.59375 57.222656 250.59375 56.339844 L 250.59375 52.476562 L 249.734375 52.476562 L 249.734375 51.570312 L 250.59375 51.570312 L 250.59375 49.554688 Z M 251.765625 49.554688 "/>
<path style=" stroke:none;fill-rule:nonzero;fill:rgb(0%,0%,0%);fill-opacity:1;" d="M 258.953125 55.105469 C 258.003906 55.105469 257.351562 55.222656 256.988281 55.429688 C 256.621094 55.652344 256.441406 56.015625 256.441406 56.535156 C 256.441406 56.949219 256.570312 57.289062 256.84375 57.523438 C 257.117188 57.769531 257.496094 57.886719 257.964844 57.886719 C 258.613281 57.886719 259.136719 57.664062 259.527344 57.199219 C 259.917969 56.742188 260.113281 56.132812 260.113281 55.363281 L 260.113281 55.105469 Z M 261.285156 54.625 L 261.285156 58.679688 L 260.113281 58.679688 L 260.113281 57.601562 C 259.839844 58.042969 259.5 58.355469 259.109375 58.550781 C 258.71875 58.746094 258.222656 58.847656 257.652344 58.847656 C 256.921875 58.847656 256.335938 58.652344 255.90625 58.25 C 255.476562 57.847656 255.269531 57.300781 255.269531 56.613281 C 255.269531 55.820312 255.527344 55.222656 256.074219 54.804688 C 256.609375 54.402344 257.402344 54.195312 258.472656 54.195312 L 260.113281 54.195312 L 260.113281 54.078125 C 260.113281 53.542969 259.929688 53.128906 259.578125 52.828125 C 259.226562 52.542969 258.730469 52.386719 258.09375 52.386719 C 257.675781 52.386719 257.285156 52.4375 256.894531 52.542969 C 256.503906 52.648438 256.140625 52.789062 255.789062 52.972656 L 255.789062 51.894531 C 256.207031 51.738281 256.621094 51.605469 257.027344 51.53125 C 257.429688 51.453125 257.820312 51.398438 258.210938 51.398438 C 259.238281 51.398438 260.007812 51.671875 260.515625 52.207031 C 261.023438 52.738281 261.285156 53.542969 261.285156 54.625 Z M 261.285156 54.625 "/>
<path style=" stroke:none;fill-rule:nonzero;fill:rgb(0%,0%,0%);fill-opacity:1;" d="M 269.617188 54.390625 L 269.617188 58.679688 L 268.445312 58.679688 L 268.445312 54.429688 C 268.445312 53.753906 268.300781 53.257812 268.042969 52.921875 C 267.78125 52.582031 267.390625 52.414062 266.871094 52.414062 C 266.230469 52.414062 265.738281 52.621094 265.371094 53.023438 C 265.007812 53.425781 264.824219 53.972656 264.824219 54.664062 L 264.824219 58.679688 L 263.652344 58.679688 L 263.652344 51.570312 L 264.824219 51.570312 L 264.824219 52.671875 C 265.097656 52.257812 265.425781 51.933594 265.816406 51.722656 C 266.191406 51.515625 266.636719 51.398438 267.128906 51.398438 C 267.9375 51.398438 268.5625 51.660156 268.980469 52.167969 C 269.394531 52.671875 269.617188 53.414062 269.617188 54.390625 Z M 269.617188 54.390625 "/>
<path style=" stroke:none;fill-rule:nonzero;fill:rgb(0%,0%,0%);fill-opacity:1;" d="M 277.078125 51.839844 L 277.078125 52.933594 C 276.738281 52.75 276.414062 52.621094 276.074219 52.53125 C 275.738281 52.4375 275.410156 52.386719 275.074219 52.386719 C 274.316406 52.386719 273.71875 52.632812 273.300781 53.117188 C 272.886719 53.597656 272.675781 54.273438 272.675781 55.128906 C 272.675781 56 272.886719 56.675781 273.300781 57.160156 C 273.71875 57.640625 274.316406 57.875 275.074219 57.875 C 275.410156 57.875 275.738281 57.835938 276.074219 57.742188 C 276.414062 57.652344 276.738281 57.507812 277.078125 57.328125 L 277.078125 58.40625 C 276.738281 58.5625 276.402344 58.679688 276.0625 58.746094 C 275.710938 58.808594 275.332031 58.847656 274.941406 58.847656 C 273.875 58.847656 273.015625 58.523438 272.390625 57.847656 C 271.753906 57.183594 271.441406 56.273438 271.441406 55.128906 C 271.441406 53.972656 271.753906 53.0625 272.390625 52.402344 C 273.027344 51.738281 273.902344 51.398438 275.019531 51.398438 C 275.386719 51.398438 275.738281 51.4375 276.074219 51.515625 C 276.414062 51.59375 276.753906 51.699219 277.078125 51.839844 Z M 277.078125 51.839844 "/>
<path style=" stroke:none;fill-rule:nonzero;fill:rgb(0%,0%,0%);fill-opacity:1;" d="M 285.203125 54.832031 L 285.203125 55.402344 L 279.824219 55.402344 C 279.878906 56.210938 280.113281 56.832031 280.554688 57.25 C 280.984375 57.664062 281.582031 57.875 282.363281 57.875 C 282.808594 57.875 283.25 57.820312 283.667969 57.71875 C 284.082031 57.613281 284.511719 57.445312 284.929688 57.210938 L 284.929688 58.316406 C 284.511719 58.496094 284.082031 58.640625 283.640625 58.71875 C 283.199219 58.796875 282.742188 58.847656 282.300781 58.847656 C 281.152344 58.847656 280.253906 58.523438 279.589844 57.875 C 278.925781 57.222656 278.601562 56.328125 278.601562 55.195312 C 278.601562 54.039062 278.914062 53.117188 279.539062 52.425781 C 280.164062 51.75 281.023438 51.398438 282.089844 51.398438 C 283.054688 51.398438 283.808594 51.710938 284.371094 52.324219 C 284.917969 52.945312 285.203125 53.777344 285.203125 54.832031 Z M 284.03125 54.492188 C 284.019531 53.855469 283.835938 53.347656 283.496094 52.960938 C 283.144531 52.582031 282.675781 52.386719 282.105469 52.386719 C 281.453125 52.386719 280.933594 52.582031 280.542969 52.945312 C 280.152344 53.308594 279.917969 53.832031 279.863281 54.492188 Z M 284.03125 54.492188 "/>
<path style=" stroke:none;fill-rule:nonzero;fill:rgb(0%,0%,0%);fill-opacity:1;" d="M 291.414062 52.777344 L 299.566406 52.777344 L 299.566406 53.84375 L 291.414062 53.84375 Z M 291.414062 55.363281 L 299.566406 55.363281 L 299.566406 56.445312 L 291.414062 56.445312 Z M 291.414062 55.363281 "/>
<path style=" stroke:none;fill-rule:nonzero;fill:rgb(0%,0%,0%);fill-opacity:1;" d="M 306.699219 57.601562 L 308.796875 57.601562 L 308.796875 50.371094 L 306.519531 50.828125 L 306.519531 49.65625 L 308.785156 49.203125 L 310.074219 49.203125 L 310.074219 57.601562 L 312.167969 57.601562 L 312.167969 58.679688 L 306.699219 58.679688 Z M 306.699219 57.601562 "/>
<path style=" stroke:none;fill-rule:nonzero;fill:rgb(0%,0%,0%);fill-opacity:1;" d="M 314.980469 57.601562 L 317.078125 57.601562 L 317.078125 50.371094 L 314.800781 50.828125 L 314.800781 49.65625 L 317.066406 49.203125 L 318.355469 49.203125 L 318.355469 57.601562 L 320.449219 57.601562 L 320.449219 58.679688 L 314.980469 58.679688 Z M 314.980469 57.601562 "/>
<path style=" stroke:none;fill-rule:nonzero;fill:rgb(0%,0%,0%);fill-opacity:1;" d="M 323.042969 57.066406 L 324.382812 57.066406 L 324.382812 58.679688 L 323.042969 58.679688 Z M 323.042969 57.066406 "/>
<path style=" stroke:none;fill-rule:nonzero;fill:rgb(0%,0%,0%);fill-opacity:1;" d="M 327.402344 57.601562 L 329.5 57.601562 L 329.5 50.371094 L 327.222656 50.828125 L 327.222656 49.65625 L 329.488281 49.203125 L 330.777344 49.203125 L 330.777344 57.601562 L 332.871094 57.601562 L 332.871094 58.679688 L 327.402344 58.679688 Z M 327.402344 57.601562 "/>
<path style=" stroke:none;fill-rule:nonzero;fill:rgb(0%,0%,0%);fill-opacity:1;" d="M 339.355469 53.570312 C 339.96875 53.699219 340.449219 53.972656 340.789062 54.390625 C 341.128906 54.804688 341.308594 55.324219 341.308594 55.921875 C 341.308594 56.859375 340.984375 57.585938 340.347656 58.09375 C 339.695312 58.601562 338.785156 58.847656 337.597656 58.847656 C 337.195312 58.847656 336.777344 58.808594 336.363281 58.730469 C 335.945312 58.667969 335.503906 58.550781 335.058594 58.394531 L 335.058594 57.160156 C 335.410156 57.367188 335.800781 57.523438 336.230469 57.625 C 336.648438 57.730469 337.089844 57.78125 337.558594 57.78125 C 338.367188 57.78125 338.980469 57.625 339.394531 57.3125 C 339.8125 57.003906 340.035156 56.535156 340.035156 55.921875 C 340.035156 55.378906 339.839844 54.933594 339.449219 54.625 C 339.058594 54.3125 338.511719 54.140625 337.808594 54.140625 L 336.699219 54.140625 L 336.699219 53.089844 L 337.859375 53.089844 C 338.484375 53.089844 338.964844 52.972656 339.304688 52.710938 C 339.644531 52.464844 339.8125 52.101562 339.8125 51.621094 C 339.8125 51.140625 339.628906 50.761719 339.292969 50.503906 C 338.941406 50.242188 338.445312 50.113281 337.808594 50.113281 C 337.457031 50.113281 337.078125 50.152344 336.675781 50.230469 C 336.269531 50.308594 335.828125 50.425781 335.347656 50.582031 L 335.347656 49.4375 C 335.828125 49.304688 336.285156 49.203125 336.714844 49.136719 C 337.128906 49.074219 337.535156 49.035156 337.925781 49.035156 C 338.886719 49.035156 339.65625 49.253906 340.230469 49.695312 C 340.800781 50.136719 341.089844 50.738281 341.089844 51.492188 C 341.089844 52.011719 340.933594 52.453125 340.632812 52.816406 C 340.332031 53.179688 339.902344 53.441406 339.355469 53.570312 Z M 339.355469 53.570312 "/>
<path style=" stroke:none;fill-rule:nonzero;fill:rgb(0%,0%,0%);fill-opacity:1;" d="M 353.261719 52.933594 C 353.550781 52.414062 353.902344 52.035156 354.304688 51.777344 C 354.707031 51.53125 355.191406 51.398438 355.75 51.398438 C 356.480469 51.398438 357.050781 51.660156 357.457031 52.179688 C 357.859375 52.699219 358.066406 53.441406 358.066406 54.390625 L 358.066406 58.679688 L 356.894531 58.679688 L 356.894531 54.429688 C 356.894531 53.753906 356.765625 53.246094 356.53125 52.90625 C 356.285156 52.582031 355.917969 52.414062 355.425781 52.414062 C 354.8125 52.414062 354.332031 52.621094 353.980469 53.023438 C 353.628906 53.425781 353.457031 53.972656 353.457031 54.664062 L 353.457031 58.679688 L 352.285156 58.679688 L 352.285156 54.429688 C 352.285156 53.753906 352.15625 53.246094 351.921875 52.90625 C 351.675781 52.582031 351.296875 52.414062 350.800781 52.414062 C 350.203125 52.414062 349.722656 52.621094 349.371094 53.023438 C 349.019531 53.425781 348.847656 53.972656 348.847656 54.664062 L 348.847656 58.679688 L 347.675781 58.679688 L 347.675781 51.570312 L 348.847656 51.570312 L 348.847656 52.671875 C 349.109375 52.246094 349.433594 51.917969 349.8125 51.710938 C 350.175781 51.503906 350.621094 51.398438 351.140625 51.398438 C 351.660156 51.398438 352.089844 51.53125 352.457031 51.789062 C 352.820312 52.050781 353.082031 52.4375 353.261719 52.933594 Z M 353.261719 52.933594 "/>
</g>
</svg>
