<?xml version="1.0" encoding="UTF-8"?>
<svg xmlns="http://www.w3.org/2000/svg" xmlns:xlink="http://www.w3.org/1999/xlink" width="500px" height="px" viewBox="0 0 499 375" version="1.1">
<g id="surface1">
<path style=" stroke:none;fill-rule:nonzero;fill:rgb(100%,100%,100%);fill-opacity:1;" d="M 0 374.835938 L 499.324219 374.835938 L 499.324219 0 L 0 0 Z M 0 374.835938 "/>
<path style=" stroke:none;fill-rule:nonzero;fill:rgb(100%,100%,100%);fill-opacity:1;" d="M 111.722656 333.605469 L 400.085938 333.605469 L 400.085938 44.980469 L 111.722656 44.980469 Z M 111.722656 333.605469 "/>
<path style="fill:none;stroke-width:0.8;stroke-linecap:butt;stroke-linejoin:round;stroke:rgb(0%,0%,0%);stroke-opacity:1;stroke-miterlimit:4;" d="M 113.726312 307.584242 L 113.726312 311.084961 " transform="matrix(1.083605,0,0,1.084599,0,0)"/>
<path style=" stroke:none;fill-rule:nonzero;fill:rgb(0%,0%,0%);fill-opacity:1;" d="M 123.234375 342.230469 C 122.679688 342.230469 122.269531 342.503906 121.988281 343.046875 C 121.707031 343.585938 121.574219 344.402344 121.574219 345.484375 C 121.574219 346.570312 121.707031 347.382812 121.988281 347.925781 C 122.269531 348.46875 122.679688 348.738281 123.234375 348.738281 C 123.785156 348.738281 124.199219 348.46875 124.480469 347.925781 C 124.75 347.382812 124.890625 346.570312 124.890625 345.484375 C 124.890625 344.402344 124.75 343.585938 124.480469 343.046875 C 124.199219 342.503906 123.785156 342.230469 123.234375 342.230469 Z M 123.234375 341.386719 C 124.113281 341.386719 124.785156 341.742188 125.261719 342.4375 C 125.726562 343.144531 125.964844 344.164062 125.964844 345.484375 C 125.964844 346.820312 125.726562 347.839844 125.261719 348.535156 C 124.785156 349.226562 124.113281 349.574219 123.222656 349.574219 C 122.335938 349.574219 121.664062 349.226562 121.195312 348.535156 C 120.730469 347.839844 120.503906 346.820312 120.503906 345.484375 C 120.503906 344.164062 120.730469 343.144531 121.195312 342.4375 C 121.664062 341.742188 122.34375 341.386719 123.234375 341.386719 Z M 123.234375 341.386719 "/>
<path style="fill:none;stroke-width:0.8;stroke-linecap:butt;stroke-linejoin:round;stroke:rgb(0%,0%,0%);stroke-opacity:1;stroke-miterlimit:4;" d="M 159.940694 307.584242 L 159.940694 311.084961 " transform="matrix(1.083605,0,0,1.084599,0,0)"/>
<path style=" stroke:none;fill-rule:nonzero;fill:rgb(0%,0%,0%);fill-opacity:1;" d="M 167.765625 348.535156 L 169.507812 348.535156 L 169.507812 342.503906 L 167.613281 342.882812 L 167.613281 341.90625 L 169.496094 341.527344 L 170.570312 341.527344 L 170.570312 348.535156 L 172.316406 348.535156 L 172.316406 349.433594 L 167.765625 349.433594 Z M 167.765625 348.535156 "/>
<path style=" stroke:none;fill-rule:nonzero;fill:rgb(0%,0%,0%);fill-opacity:1;" d="M 176.757812 342.230469 C 176.203125 342.230469 175.792969 342.503906 175.511719 343.046875 C 175.230469 343.585938 175.101562 344.402344 175.101562 345.484375 C 175.101562 346.570312 175.230469 347.382812 175.511719 347.925781 C 175.792969 348.46875 176.203125 348.738281 176.757812 348.738281 C 177.308594 348.738281 177.722656 348.46875 178.003906 347.925781 C 178.273438 347.382812 178.414062 346.570312 178.414062 345.484375 C 178.414062 344.402344 178.273438 343.585938 178.003906 343.046875 C 177.722656 342.503906 177.308594 342.230469 176.757812 342.230469 Z M 176.757812 341.386719 C 177.636719 341.386719 178.308594 341.742188 178.785156 342.4375 C 179.25 343.144531 179.488281 344.164062 179.488281 345.484375 C 179.488281 346.820312 179.25 347.839844 178.785156 348.535156 C 178.308594 349.226562 177.636719 349.574219 176.746094 349.574219 C 175.859375 349.574219 175.1875 349.226562 174.71875 348.535156 C 174.253906 347.839844 174.027344 346.820312 174.027344 345.484375 C 174.027344 344.164062 174.253906 343.144531 174.71875 342.4375 C 175.1875 341.742188 175.867188 341.386719 176.757812 341.386719 Z M 176.757812 341.386719 "/>
<path style="fill:none;stroke-width:0.8;stroke-linecap:butt;stroke-linejoin:round;stroke:rgb(0%,0%,0%);stroke-opacity:1;stroke-miterlimit:4;" d="M 206.151471 307.584242 L 206.151471 311.084961 " transform="matrix(1.083605,0,0,1.084599,0,0)"/>
<path style=" stroke:none;fill-rule:nonzero;fill:rgb(0%,0%,0%);fill-opacity:1;" d="M 218.574219 348.535156 L 222.304688 348.535156 L 222.304688 349.433594 L 217.285156 349.433594 L 217.285156 348.535156 C 217.6875 348.121094 218.238281 347.558594 218.945312 346.839844 C 219.636719 346.136719 220.082031 345.679688 220.265625 345.476562 C 220.613281 345.09375 220.851562 344.769531 220.980469 344.5 C 221.113281 344.238281 221.1875 343.96875 221.1875 343.707031 C 221.1875 343.296875 221.035156 342.949219 220.742188 342.6875 C 220.449219 342.425781 220.070312 342.285156 219.59375 342.285156 C 219.257812 342.285156 218.902344 342.351562 218.53125 342.460938 C 218.164062 342.578125 217.761719 342.753906 217.339844 342.992188 L 217.339844 341.90625 C 217.773438 341.734375 218.175781 341.601562 218.542969 341.515625 C 218.910156 341.429688 219.257812 341.386719 219.574219 341.386719 C 220.386719 341.386719 221.035156 341.59375 221.523438 342.003906 C 222.011719 342.417969 222.261719 342.957031 222.261719 343.640625 C 222.261719 343.96875 222.195312 344.28125 222.074219 344.5625 C 221.957031 344.855469 221.738281 345.203125 221.414062 345.59375 C 221.328125 345.703125 221.046875 345.996094 220.570312 346.484375 C 220.09375 346.972656 219.433594 347.65625 218.574219 348.535156 Z M 218.574219 348.535156 "/>
<path style=" stroke:none;fill-rule:nonzero;fill:rgb(0%,0%,0%);fill-opacity:1;" d="M 226.832031 342.230469 C 226.28125 342.230469 225.867188 342.503906 225.585938 343.046875 C 225.304688 343.585938 225.175781 344.402344 225.175781 345.484375 C 225.175781 346.570312 225.304688 347.382812 225.585938 347.925781 C 225.867188 348.46875 226.28125 348.738281 226.832031 348.738281 C 227.386719 348.738281 227.796875 348.46875 228.078125 347.925781 C 228.351562 347.382812 228.492188 346.570312 228.492188 345.484375 C 228.492188 344.402344 228.351562 343.585938 228.078125 343.046875 C 227.796875 342.503906 227.386719 342.230469 226.832031 342.230469 Z M 226.832031 341.386719 C 227.710938 341.386719 228.382812 341.742188 228.859375 342.4375 C 229.324219 343.144531 229.5625 344.164062 229.5625 345.484375 C 229.5625 346.820312 229.324219 347.839844 228.859375 348.535156 C 228.382812 349.226562 227.710938 349.574219 226.824219 349.574219 C 225.933594 349.574219 225.261719 349.226562 224.796875 348.535156 C 224.328125 347.839844 224.101562 346.820312 224.101562 345.484375 C 224.101562 344.164062 224.328125 343.144531 224.796875 342.4375 C 225.261719 341.742188 225.945312 341.386719 226.832031 341.386719 Z M 226.832031 341.386719 "/>
<path style="fill:none;stroke-width:0.8;stroke-linecap:butt;stroke-linejoin:round;stroke:rgb(0%,0%,0%);stroke-opacity:1;stroke-miterlimit:4;" d="M 252.365853 307.584242 L 252.365853 311.084961 " transform="matrix(1.083605,0,0,1.084599,0,0)"/>
<path style=" stroke:none;fill-rule:nonzero;fill:rgb(0%,0%,0%);fill-opacity:1;" d="M 270.972656 345.171875 C 271.480469 345.28125 271.882812 345.507812 272.164062 345.855469 C 272.445312 346.203125 272.597656 346.636719 272.597656 347.132812 C 272.597656 347.914062 272.324219 348.523438 271.796875 348.945312 C 271.253906 349.367188 270.496094 349.574219 269.507812 349.574219 C 269.171875 349.574219 268.824219 349.542969 268.480469 349.476562 C 268.132812 349.421875 267.765625 349.324219 267.394531 349.195312 L 267.394531 348.164062 C 267.6875 348.339844 268.011719 348.46875 268.371094 348.554688 C 268.71875 348.640625 269.085938 348.683594 269.476562 348.683594 C 270.148438 348.683594 270.65625 348.554688 271.003906 348.296875 C 271.351562 348.035156 271.535156 347.644531 271.535156 347.132812 C 271.535156 346.679688 271.371094 346.308594 271.046875 346.050781 C 270.722656 345.789062 270.265625 345.648438 269.683594 345.648438 L 268.761719 345.648438 L 268.761719 344.769531 L 269.726562 344.769531 C 270.246094 344.769531 270.648438 344.671875 270.929688 344.457031 C 271.210938 344.25 271.351562 343.945312 271.351562 343.542969 C 271.351562 343.144531 271.199219 342.828125 270.917969 342.613281 C 270.625 342.394531 270.214844 342.285156 269.683594 342.285156 C 269.390625 342.285156 269.074219 342.320312 268.738281 342.382812 C 268.402344 342.449219 268.035156 342.546875 267.632812 342.675781 L 267.632812 341.722656 C 268.035156 341.613281 268.414062 341.527344 268.773438 341.472656 C 269.117188 341.417969 269.453125 341.386719 269.78125 341.386719 C 270.582031 341.386719 271.222656 341.570312 271.699219 341.9375 C 272.175781 342.308594 272.414062 342.808594 272.414062 343.4375 C 272.414062 343.871094 272.28125 344.238281 272.035156 344.542969 C 271.785156 344.847656 271.425781 345.0625 270.972656 345.171875 Z M 270.972656 345.171875 "/>
<path style=" stroke:none;fill-rule:nonzero;fill:rgb(0%,0%,0%);fill-opacity:1;" d="M 276.910156 342.230469 C 276.355469 342.230469 275.945312 342.503906 275.664062 343.046875 C 275.382812 343.585938 275.25 344.402344 275.25 345.484375 C 275.25 346.570312 275.382812 347.382812 275.664062 347.925781 C 275.945312 348.46875 276.355469 348.738281 276.910156 348.738281 C 277.460938 348.738281 277.875 348.46875 278.15625 347.925781 C 278.425781 347.382812 278.566406 346.570312 278.566406 345.484375 C 278.566406 344.402344 278.425781 343.585938 278.15625 343.046875 C 277.875 342.503906 277.460938 342.230469 276.910156 342.230469 Z M 276.910156 341.386719 C 277.789062 341.386719 278.460938 341.742188 278.9375 342.4375 C 279.402344 343.144531 279.640625 344.164062 279.640625 345.484375 C 279.640625 346.820312 279.402344 347.839844 278.9375 348.535156 C 278.460938 349.226562 277.789062 349.574219 276.898438 349.574219 C 276.011719 349.574219 275.339844 349.226562 274.871094 348.535156 C 274.40625 347.839844 274.179688 346.820312 274.179688 345.484375 C 274.179688 344.164062 274.40625 343.144531 274.871094 342.4375 C 275.339844 341.742188 276.019531 341.386719 276.910156 341.386719 Z M 276.910156 341.386719 "/>
<path style="fill:none;stroke-width:0.8;stroke-linecap:butt;stroke-linejoin:round;stroke:rgb(0%,0%,0%);stroke-opacity:1;stroke-miterlimit:4;" d="M 298.57663 307.584242 L 298.57663 311.084961 " transform="matrix(1.083605,0,0,1.084599,0,0)"/>
<path style=" stroke:none;fill-rule:nonzero;fill:rgb(0%,0%,0%);fill-opacity:1;" d="M 320.746094 342.460938 L 318.046875 346.679688 L 320.746094 346.679688 Z M 320.464844 341.527344 L 321.808594 341.527344 L 321.808594 346.679688 L 322.933594 346.679688 L 322.933594 347.566406 L 321.808594 347.566406 L 321.808594 349.433594 L 320.746094 349.433594 L 320.746094 347.566406 L 317.179688 347.566406 L 317.179688 346.539062 Z M 320.464844 341.527344 "/>
<path style=" stroke:none;fill-rule:nonzero;fill:rgb(0%,0%,0%);fill-opacity:1;" d="M 326.988281 342.230469 C 326.433594 342.230469 326.023438 342.503906 325.742188 343.046875 C 325.457031 343.585938 325.328125 344.402344 325.328125 345.484375 C 325.328125 346.570312 325.457031 347.382812 325.742188 347.925781 C 326.023438 348.46875 326.433594 348.738281 326.988281 348.738281 C 327.539062 348.738281 327.949219 348.46875 328.234375 347.925781 C 328.503906 347.382812 328.644531 346.570312 328.644531 345.484375 C 328.644531 344.402344 328.503906 343.585938 328.234375 343.046875 C 327.949219 342.503906 327.539062 342.230469 326.988281 342.230469 Z M 326.988281 341.386719 C 327.863281 341.386719 328.535156 341.742188 329.011719 342.4375 C 329.480469 343.144531 329.71875 344.164062 329.71875 345.484375 C 329.71875 346.820312 329.480469 347.839844 329.011719 348.535156 C 328.535156 349.226562 327.863281 349.574219 326.976562 349.574219 C 326.085938 349.574219 325.414062 349.226562 324.949219 348.535156 C 324.484375 347.839844 324.253906 346.820312 324.253906 345.484375 C 324.253906 344.164062 324.484375 343.144531 324.949219 342.4375 C 325.414062 341.742188 326.097656 341.386719 326.988281 341.386719 Z M 326.988281 341.386719 "/>
<path style="fill:none;stroke-width:0.8;stroke-linecap:butt;stroke-linejoin:round;stroke:rgb(0%,0%,0%);stroke-opacity:1;stroke-miterlimit:4;" d="M 344.791012 307.584242 L 344.791012 311.084961 " transform="matrix(1.083605,0,0,1.084599,0,0)"/>
<path style=" stroke:none;fill-rule:nonzero;fill:rgb(0%,0%,0%);fill-opacity:1;" d="M 367.894531 341.527344 L 372.089844 341.527344 L 372.089844 342.425781 L 368.871094 342.425781 L 368.871094 344.367188 C 369.023438 344.316406 369.183594 344.269531 369.335938 344.25 C 369.488281 344.226562 369.652344 344.207031 369.804688 344.207031 C 370.679688 344.207031 371.375 344.457031 371.894531 344.933594 C 372.414062 345.421875 372.675781 346.070312 372.675781 346.894531 C 372.675781 347.753906 372.402344 348.414062 371.871094 348.878906 C 371.339844 349.347656 370.59375 349.574219 369.640625 349.574219 C 369.304688 349.574219 368.96875 349.542969 368.621094 349.5 C 368.273438 349.445312 367.929688 349.367188 367.558594 349.25 L 367.558594 348.175781 C 367.875 348.347656 368.199219 348.480469 368.546875 348.566406 C 368.882812 348.652344 369.238281 348.683594 369.617188 348.683594 C 370.226562 348.683594 370.714844 348.535156 371.070312 348.207031 C 371.417969 347.882812 371.601562 347.449219 371.601562 346.894531 C 371.601562 346.355469 371.417969 345.917969 371.070312 345.59375 C 370.714844 345.269531 370.226562 345.105469 369.617188 345.105469 C 369.335938 345.105469 369.042969 345.140625 368.761719 345.203125 C 368.480469 345.269531 368.1875 345.367188 367.894531 345.496094 Z M 367.894531 341.527344 "/>
<path style=" stroke:none;fill-rule:nonzero;fill:rgb(0%,0%,0%);fill-opacity:1;" d="M 377.0625 342.230469 C 376.511719 342.230469 376.097656 342.503906 375.816406 343.046875 C 375.535156 343.585938 375.40625 344.402344 375.40625 345.484375 C 375.40625 346.570312 375.535156 347.382812 375.816406 347.925781 C 376.097656 348.46875 376.511719 348.738281 377.0625 348.738281 C 377.617188 348.738281 378.027344 348.46875 378.308594 347.925781 C 378.582031 347.382812 378.722656 346.570312 378.722656 345.484375 C 378.722656 344.402344 378.582031 343.585938 378.308594 343.046875 C 378.027344 342.503906 377.617188 342.230469 377.0625 342.230469 Z M 377.0625 341.386719 C 377.941406 341.386719 378.613281 341.742188 379.089844 342.4375 C 379.554688 343.144531 379.792969 344.164062 379.792969 345.484375 C 379.792969 346.820312 379.554688 347.839844 379.089844 348.535156 C 378.613281 349.226562 377.941406 349.574219 377.050781 349.574219 C 376.164062 349.574219 375.492188 349.226562 375.027344 348.535156 C 374.558594 347.839844 374.332031 346.820312 374.332031 345.484375 C 374.332031 344.164062 374.558594 343.144531 375.027344 342.4375 C 375.492188 341.742188 376.175781 341.386719 377.0625 341.386719 Z M 377.0625 341.386719 "/>
<path style=" stroke:none;fill-rule:nonzero;fill:rgb(0%,0%,0%);fill-opacity:1;" d="M 233.796875 356.355469 L 240.46875 356.355469 L 240.46875 357.257812 L 237.664062 357.257812 L 237.664062 364.261719 L 236.589844 364.261719 L 236.589844 357.257812 L 233.796875 357.257812 Z M 233.796875 356.355469 "/>
<path style=" stroke:none;fill-rule:nonzero;fill:rgb(0%,0%,0%);fill-opacity:1;" d="M 241.132812 358.328125 L 242.109375 358.328125 L 242.109375 364.261719 L 241.132812 364.261719 Z M 241.132812 356.019531 L 242.109375 356.019531 L 242.109375 357.257812 L 241.132812 357.257812 Z M 241.132812 356.019531 "/>
<path style=" stroke:none;fill-rule:nonzero;fill:rgb(0%,0%,0%);fill-opacity:1;" d="M 248.761719 359.46875 C 249 359.035156 249.292969 358.71875 249.628906 358.503906 C 249.964844 358.296875 250.367188 358.1875 250.832031 358.1875 C 251.441406 358.1875 251.917969 358.40625 252.253906 358.839844 C 252.589844 359.273438 252.761719 359.890625 252.761719 360.683594 L 252.761719 364.261719 L 251.785156 364.261719 L 251.785156 360.714844 C 251.785156 360.152344 251.679688 359.730469 251.484375 359.445312 C 251.277344 359.175781 250.972656 359.035156 250.5625 359.035156 C 250.050781 359.035156 249.652344 359.207031 249.359375 359.542969 C 249.066406 359.878906 248.925781 360.335938 248.925781 360.910156 L 248.925781 364.261719 L 247.949219 364.261719 L 247.949219 360.714844 C 247.949219 360.152344 247.84375 359.730469 247.648438 359.445312 C 247.441406 359.175781 247.125 359.035156 246.714844 359.035156 C 246.214844 359.035156 245.816406 359.207031 245.523438 359.542969 C 245.230469 359.878906 245.089844 360.335938 245.089844 360.910156 L 245.089844 364.261719 L 244.113281 364.261719 L 244.113281 358.328125 L 245.089844 358.328125 L 245.089844 359.25 C 245.304688 358.894531 245.578125 358.621094 245.890625 358.449219 C 246.195312 358.277344 246.5625 358.1875 246.996094 358.1875 C 247.429688 358.1875 247.789062 358.296875 248.089844 358.515625 C 248.394531 358.730469 248.613281 359.054688 248.761719 359.46875 Z M 248.761719 359.46875 "/>
<path style=" stroke:none;fill-rule:nonzero;fill:rgb(0%,0%,0%);fill-opacity:1;" d="M 259.773438 361.050781 L 259.773438 361.527344 L 255.296875 361.527344 C 255.339844 362.203125 255.535156 362.722656 255.902344 363.070312 C 256.261719 363.417969 256.761719 363.589844 257.410156 363.589844 C 257.777344 363.589844 258.148438 363.546875 258.492188 363.460938 C 258.839844 363.375 259.199219 363.230469 259.546875 363.035156 L 259.546875 363.957031 C 259.199219 364.109375 258.839844 364.230469 258.472656 364.296875 C 258.105469 364.359375 257.722656 364.402344 257.355469 364.402344 C 256.402344 364.402344 255.65625 364.132812 255.101562 363.589844 C 254.550781 363.046875 254.277344 362.300781 254.277344 361.355469 C 254.277344 360.390625 254.539062 359.621094 255.058594 359.046875 C 255.578125 358.480469 256.292969 358.1875 257.183594 358.1875 C 257.984375 358.1875 258.613281 358.449219 259.078125 358.957031 C 259.535156 359.480469 259.773438 360.171875 259.773438 361.050781 Z M 258.796875 360.769531 C 258.785156 360.238281 258.636719 359.816406 258.351562 359.492188 C 258.058594 359.175781 257.671875 359.011719 257.195312 359.011719 C 256.652344 359.011719 256.21875 359.175781 255.894531 359.480469 C 255.566406 359.78125 255.375 360.21875 255.328125 360.769531 Z M 258.796875 360.769531 "/>
<path style=" stroke:none;fill-rule:nonzero;fill:rgb(0%,0%,0%);fill-opacity:1;" d="M 264.726562 356.019531 L 266.96875 356.019531 L 266.96875 356.777344 L 265.699219 356.777344 L 265.699219 364.925781 L 266.96875 364.925781 L 266.96875 365.683594 L 264.726562 365.683594 Z M 264.726562 356.019531 "/>
<path style=" stroke:none;fill-rule:nonzero;fill:rgb(0%,0%,0%);fill-opacity:1;" d="M 272.820312 358.503906 L 272.820312 359.425781 C 272.539062 359.296875 272.253906 359.1875 271.964844 359.109375 C 271.660156 359.046875 271.355469 359.003906 271.042969 359.003906 C 270.554688 359.003906 270.1875 359.078125 269.949219 359.230469 C 269.710938 359.382812 269.589844 359.597656 269.589844 359.890625 C 269.589844 360.121094 269.675781 360.292969 269.851562 360.421875 C 270.023438 360.554688 270.371094 360.683594 270.890625 360.792969 L 271.226562 360.867188 C 271.917969 361.019531 272.40625 361.238281 272.699219 361.496094 C 272.980469 361.769531 273.132812 362.148438 273.132812 362.625 C 273.132812 363.179688 272.917969 363.613281 272.484375 363.925781 C 272.050781 364.25 271.441406 364.402344 270.683594 364.402344 C 270.359375 364.402344 270.035156 364.371094 269.6875 364.316406 C 269.339844 364.261719 268.984375 364.175781 268.605469 364.046875 L 268.605469 363.035156 C 268.960938 363.230469 269.320312 363.375 269.664062 363.460938 C 270.011719 363.558594 270.359375 363.601562 270.707031 363.601562 C 271.160156 363.601562 271.519531 363.523438 271.769531 363.375 C 272.007812 363.222656 272.136719 362.992188 272.136719 362.699219 C 272.136719 362.441406 272.039062 362.234375 271.867188 362.09375 C 271.691406 361.953125 271.300781 361.8125 270.695312 361.679688 L 270.359375 361.605469 C 269.753906 361.476562 269.308594 361.28125 269.046875 361.019531 C 268.777344 360.757812 268.648438 360.402344 268.648438 359.933594 C 268.648438 359.382812 268.84375 358.949219 269.234375 358.644531 C 269.621094 358.339844 270.1875 358.1875 270.921875 358.1875 C 271.28125 358.1875 271.617188 358.222656 271.941406 358.277344 C 272.253906 358.328125 272.546875 358.40625 272.820312 358.503906 Z M 272.820312 358.503906 "/>
<path style=" stroke:none;fill-rule:nonzero;fill:rgb(0%,0%,0%);fill-opacity:1;" d="M 276.957031 356.019531 L 276.957031 365.683594 L 274.714844 365.683594 L 274.714844 364.925781 L 275.984375 364.925781 L 275.984375 356.777344 L 274.714844 356.777344 L 274.714844 356.019531 Z M 276.957031 356.019531 "/>
<path style="fill:none;stroke-width:0.8;stroke-linecap:butt;stroke-linejoin:round;stroke:rgb(0%,0%,0%);stroke-opacity:1;stroke-miterlimit:4;" d="M 103.102772 276.801688 L 99.602447 276.801688 " transform="matrix(1.083605,0,0,1.084599,0,0)"/>
<path style=" stroke:none;fill-rule:nonzero;fill:rgb(0%,0%,0%);fill-opacity:1;" d="M 92.4375 303.4375 L 96.164062 303.4375 L 96.164062 304.339844 L 91.148438 304.339844 L 91.148438 303.4375 C 91.546875 303.027344 92.101562 302.460938 92.804688 301.746094 C 93.5 301.042969 93.941406 300.585938 94.128906 300.378906 C 94.472656 300 94.710938 299.675781 94.84375 299.402344 C 94.972656 299.144531 95.046875 298.871094 95.046875 298.613281 C 95.046875 298.199219 94.898438 297.851562 94.605469 297.59375 C 94.3125 297.332031 93.933594 297.191406 93.457031 297.191406 C 93.121094 297.191406 92.761719 297.257812 92.394531 297.363281 C 92.023438 297.484375 91.625 297.65625 91.203125 297.894531 L 91.203125 296.8125 C 91.636719 296.636719 92.035156 296.507812 92.40625 296.421875 C 92.773438 296.335938 93.121094 296.289062 93.433594 296.289062 C 94.246094 296.289062 94.898438 296.496094 95.382812 296.910156 C 95.871094 297.320312 96.121094 297.863281 96.121094 298.546875 C 96.121094 298.871094 96.054688 299.1875 95.9375 299.46875 C 95.816406 299.761719 95.601562 300.109375 95.277344 300.5 C 95.1875 300.605469 94.90625 300.898438 94.429688 301.386719 C 93.953125 301.875 93.292969 302.558594 92.4375 303.4375 Z M 92.4375 303.4375 "/>
<path style=" stroke:none;fill-rule:nonzero;fill:rgb(0%,0%,0%);fill-opacity:1;" d="M 98.417969 296.433594 L 102.613281 296.433594 L 102.613281 297.332031 L 99.394531 297.332031 L 99.394531 299.273438 C 99.546875 299.21875 99.707031 299.175781 99.859375 299.152344 C 100.011719 299.132812 100.175781 299.109375 100.324219 299.109375 C 101.203125 299.109375 101.898438 299.359375 102.417969 299.835938 C 102.9375 300.324219 103.195312 300.976562 103.195312 301.800781 C 103.195312 302.65625 102.925781 303.320312 102.394531 303.785156 C 101.863281 304.25 101.117188 304.480469 100.164062 304.480469 C 99.828125 304.480469 99.492188 304.445312 99.144531 304.402344 C 98.796875 304.347656 98.449219 304.273438 98.082031 304.152344 L 98.082031 303.082031 C 98.398438 303.253906 98.722656 303.382812 99.070312 303.472656 C 99.40625 303.558594 99.761719 303.589844 100.140625 303.589844 C 100.75 303.589844 101.234375 303.4375 101.59375 303.113281 C 101.941406 302.789062 102.125 302.355469 102.125 301.800781 C 102.125 301.257812 101.941406 300.824219 101.59375 300.5 C 101.234375 300.171875 100.75 300.011719 100.140625 300.011719 C 99.859375 300.011719 99.566406 300.042969 99.285156 300.109375 C 99.003906 300.171875 98.710938 300.269531 98.417969 300.402344 Z M 98.417969 296.433594 "/>
<path style="fill:none;stroke-width:0.8;stroke-linecap:butt;stroke-linejoin:round;stroke:rgb(0%,0%,0%);stroke-opacity:1;stroke-miterlimit:4;" d="M 103.102772 243.13068 L 99.602447 243.13068 " transform="matrix(1.083605,0,0,1.084599,0,0)"/>
<path style=" stroke:none;fill-rule:nonzero;fill:rgb(0%,0%,0%);fill-opacity:1;" d="M 91.527344 259.910156 L 95.71875 259.910156 L 95.71875 260.8125 L 92.5 260.8125 L 92.5 262.753906 C 92.652344 262.699219 92.816406 262.65625 92.96875 262.632812 C 93.121094 262.613281 93.28125 262.589844 93.433594 262.589844 C 94.3125 262.589844 95.003906 262.839844 95.523438 263.316406 C 96.046875 263.804688 96.304688 264.457031 96.304688 265.28125 C 96.304688 266.136719 96.035156 266.796875 95.503906 267.265625 C 94.972656 267.730469 94.226562 267.957031 93.269531 267.957031 C 92.933594 267.957031 92.597656 267.925781 92.253906 267.882812 C 91.90625 267.828125 91.558594 267.753906 91.191406 267.632812 L 91.191406 266.558594 C 91.503906 266.734375 91.832031 266.863281 92.175781 266.949219 C 92.511719 267.035156 92.871094 267.070312 93.25 267.070312 C 93.855469 267.070312 94.34375 266.917969 94.703125 266.59375 C 95.046875 266.265625 95.234375 265.832031 95.234375 265.28125 C 95.234375 264.738281 95.046875 264.304688 94.703125 263.976562 C 94.34375 263.652344 93.855469 263.492188 93.25 263.492188 C 92.96875 263.492188 92.675781 263.523438 92.394531 263.585938 C 92.113281 263.652344 91.820312 263.75 91.527344 263.878906 Z M 91.527344 259.910156 "/>
<path style=" stroke:none;fill-rule:nonzero;fill:rgb(0%,0%,0%);fill-opacity:1;" d="M 100.695312 260.617188 C 100.140625 260.617188 99.730469 260.886719 99.449219 261.429688 C 99.167969 261.972656 99.035156 262.785156 99.035156 263.871094 C 99.035156 264.953125 99.167969 265.769531 99.449219 266.308594 C 99.730469 266.851562 100.140625 267.125 100.695312 267.125 C 101.246094 267.125 101.660156 266.851562 101.941406 266.308594 C 102.210938 265.769531 102.351562 264.953125 102.351562 263.871094 C 102.351562 262.785156 102.210938 261.972656 101.941406 261.429688 C 101.660156 260.886719 101.246094 260.617188 100.695312 260.617188 Z M 100.695312 259.769531 C 101.570312 259.769531 102.242188 260.128906 102.71875 260.820312 C 103.1875 261.527344 103.425781 262.546875 103.425781 263.871094 C 103.425781 265.203125 103.1875 266.222656 102.71875 266.917969 C 102.242188 267.613281 101.570312 267.957031 100.683594 267.957031 C 99.792969 267.957031 99.121094 267.613281 98.65625 266.917969 C 98.191406 266.222656 97.964844 265.203125 97.964844 263.871094 C 97.964844 262.546875 98.191406 261.527344 98.65625 260.820312 C 99.121094 260.128906 99.804688 259.769531 100.695312 259.769531 Z M 100.695312 259.769531 "/>
<path style="fill:none;stroke-width:0.8;stroke-linecap:butt;stroke-linejoin:round;stroke:rgb(0%,0%,0%);stroke-opacity:1;stroke-miterlimit:4;" d="M 103.102772 209.459672 L 99.602447 209.459672 " transform="matrix(1.083605,0,0,1.084599,0,0)"/>
<path style=" stroke:none;fill-rule:nonzero;fill:rgb(0%,0%,0%);fill-opacity:1;" d="M 91.246094 223.390625 L 96.328125 223.390625 L 96.328125 223.847656 L 93.457031 231.296875 L 92.339844 231.296875 L 95.039062 224.289062 L 91.246094 224.289062 Z M 91.246094 223.390625 "/>
<path style=" stroke:none;fill-rule:nonzero;fill:rgb(0%,0%,0%);fill-opacity:1;" d="M 98.417969 223.390625 L 102.613281 223.390625 L 102.613281 224.289062 L 99.394531 224.289062 L 99.394531 226.230469 C 99.546875 226.179688 99.707031 226.132812 99.859375 226.113281 C 100.011719 226.089844 100.175781 226.070312 100.324219 226.070312 C 101.203125 226.070312 101.898438 226.320312 102.417969 226.796875 C 102.9375 227.285156 103.195312 227.933594 103.195312 228.757812 C 103.195312 229.617188 102.925781 230.277344 102.394531 230.742188 C 101.863281 231.210938 101.117188 231.4375 100.164062 231.4375 C 99.828125 231.4375 99.492188 231.40625 99.144531 231.363281 C 98.796875 231.308594 98.449219 231.230469 98.082031 231.113281 L 98.082031 230.039062 C 98.398438 230.210938 98.722656 230.34375 99.070312 230.429688 C 99.40625 230.515625 99.761719 230.546875 100.140625 230.546875 C 100.75 230.546875 101.234375 230.398438 101.59375 230.070312 C 101.941406 229.746094 102.125 229.3125 102.125 228.757812 C 102.125 228.21875 101.941406 227.78125 101.59375 227.457031 C 101.234375 227.132812 100.75 226.96875 100.140625 226.96875 C 99.859375 226.96875 99.566406 227.003906 99.285156 227.066406 C 99.003906 227.132812 98.710938 227.230469 98.417969 227.359375 Z M 98.417969 223.390625 "/>
<path style="fill:none;stroke-width:0.8;stroke-linecap:butt;stroke-linejoin:round;stroke:rgb(0%,0%,0%);stroke-opacity:1;stroke-miterlimit:4;" d="M 103.102772 175.788664 L 99.602447 175.788664 " transform="matrix(1.083605,0,0,1.084599,0,0)"/>
<path style=" stroke:none;fill-rule:nonzero;fill:rgb(0%,0%,0%);fill-opacity:1;" d="M 84.808594 193.875 L 86.554688 193.875 L 86.554688 187.847656 L 84.65625 188.226562 L 84.65625 187.25 L 86.542969 186.871094 L 87.617188 186.871094 L 87.617188 193.875 L 89.359375 193.875 L 89.359375 194.777344 L 84.808594 194.777344 Z M 84.808594 193.875 "/>
<path style=" stroke:none;fill-rule:nonzero;fill:rgb(0%,0%,0%);fill-opacity:1;" d="M 93.804688 187.574219 C 93.25 187.574219 92.839844 187.847656 92.558594 188.386719 C 92.277344 188.929688 92.144531 189.742188 92.144531 190.828125 C 92.144531 191.914062 92.277344 192.726562 92.558594 193.269531 C 92.839844 193.8125 93.25 194.082031 93.804688 194.082031 C 94.355469 194.082031 94.769531 193.8125 95.050781 193.269531 C 95.320312 192.726562 95.460938 191.914062 95.460938 190.828125 C 95.460938 189.742188 95.320312 188.929688 95.050781 188.386719 C 94.769531 187.847656 94.355469 187.574219 93.804688 187.574219 Z M 93.804688 186.730469 C 94.679688 186.730469 95.351562 187.085938 95.828125 187.78125 C 96.296875 188.484375 96.535156 189.503906 96.535156 190.828125 C 96.535156 192.164062 96.296875 193.183594 95.828125 193.875 C 95.351562 194.570312 94.679688 194.917969 93.792969 194.917969 C 92.902344 194.917969 92.230469 194.570312 91.765625 193.875 C 91.300781 193.183594 91.074219 192.164062 91.074219 190.828125 C 91.074219 189.503906 91.300781 188.484375 91.765625 187.78125 C 92.230469 187.085938 92.914062 186.730469 93.804688 186.730469 Z M 93.804688 186.730469 "/>
<path style=" stroke:none;fill-rule:nonzero;fill:rgb(0%,0%,0%);fill-opacity:1;" d="M 100.695312 187.574219 C 100.140625 187.574219 99.730469 187.847656 99.449219 188.386719 C 99.167969 188.929688 99.039062 189.742188 99.039062 190.828125 C 99.039062 191.914062 99.167969 192.726562 99.449219 193.269531 C 99.730469 193.8125 100.140625 194.082031 100.695312 194.082031 C 101.246094 194.082031 101.660156 193.8125 101.941406 193.269531 C 102.210938 192.726562 102.351562 191.914062 102.351562 190.828125 C 102.351562 189.742188 102.210938 188.929688 101.941406 188.386719 C 101.660156 187.847656 101.246094 187.574219 100.695312 187.574219 Z M 100.695312 186.730469 C 101.574219 186.730469 102.246094 187.085938 102.722656 187.78125 C 103.1875 188.484375 103.425781 189.503906 103.425781 190.828125 C 103.425781 192.164062 103.1875 193.183594 102.722656 193.875 C 102.246094 194.570312 101.574219 194.917969 100.683594 194.917969 C 99.796875 194.917969 99.125 194.570312 98.65625 193.875 C 98.191406 193.183594 97.964844 192.164062 97.964844 190.828125 C 97.964844 189.503906 98.191406 188.484375 98.65625 187.78125 C 99.125 187.085938 99.804688 186.730469 100.695312 186.730469 Z M 100.695312 186.730469 "/>
<path style="fill:none;stroke-width:0.8;stroke-linecap:butt;stroke-linejoin:round;stroke:rgb(0%,0%,0%);stroke-opacity:1;stroke-miterlimit:4;" d="M 103.102772 142.117656 L 99.602447 142.117656 " transform="matrix(1.083605,0,0,1.084599,0,0)"/>
<path style=" stroke:none;fill-rule:nonzero;fill:rgb(0%,0%,0%);fill-opacity:1;" d="M 84.808594 157.355469 L 86.554688 157.355469 L 86.554688 151.328125 L 84.65625 151.707031 L 84.65625 150.730469 L 86.542969 150.351562 L 87.617188 150.351562 L 87.617188 157.355469 L 89.359375 157.355469 L 89.359375 158.257812 L 84.808594 158.257812 Z M 84.808594 157.355469 "/>
<path style=" stroke:none;fill-rule:nonzero;fill:rgb(0%,0%,0%);fill-opacity:1;" d="M 92.4375 157.355469 L 96.164062 157.355469 L 96.164062 158.257812 L 91.148438 158.257812 L 91.148438 157.355469 C 91.550781 156.945312 92.101562 156.378906 92.804688 155.664062 C 93.5 154.960938 93.945312 154.503906 94.128906 154.296875 C 94.476562 153.917969 94.714844 153.59375 94.84375 153.320312 C 94.972656 153.0625 95.050781 152.789062 95.050781 152.53125 C 95.050781 152.117188 94.898438 151.769531 94.605469 151.511719 C 94.3125 151.25 93.933594 151.109375 93.457031 151.109375 C 93.121094 151.109375 92.761719 151.175781 92.394531 151.28125 C 92.027344 151.402344 91.625 151.574219 91.203125 151.816406 L 91.203125 150.730469 C 91.636719 150.554688 92.035156 150.425781 92.40625 150.339844 C 92.773438 150.253906 93.121094 150.210938 93.433594 150.210938 C 94.246094 150.210938 94.898438 150.414062 95.386719 150.828125 C 95.871094 151.238281 96.121094 151.78125 96.121094 152.464844 C 96.121094 152.789062 96.058594 153.105469 95.9375 153.386719 C 95.820312 153.679688 95.601562 154.027344 95.277344 154.417969 C 95.191406 154.527344 94.910156 154.820312 94.433594 155.308594 C 93.953125 155.796875 93.292969 156.476562 92.4375 157.355469 Z M 92.4375 157.355469 "/>
<path style=" stroke:none;fill-rule:nonzero;fill:rgb(0%,0%,0%);fill-opacity:1;" d="M 98.417969 150.351562 L 102.613281 150.351562 L 102.613281 151.25 L 99.394531 151.25 L 99.394531 153.191406 C 99.546875 153.136719 99.707031 153.09375 99.859375 153.074219 C 100.011719 153.050781 100.175781 153.027344 100.328125 153.027344 C 101.203125 153.027344 101.898438 153.277344 102.417969 153.757812 C 102.9375 154.242188 103.199219 154.894531 103.199219 155.71875 C 103.199219 156.574219 102.925781 157.238281 102.394531 157.703125 C 101.867188 158.171875 101.117188 158.398438 100.164062 158.398438 C 99.828125 158.398438 99.492188 158.367188 99.144531 158.320312 C 98.796875 158.269531 98.453125 158.191406 98.082031 158.074219 L 98.082031 157 C 98.398438 157.171875 98.722656 157.300781 99.070312 157.390625 C 99.40625 157.476562 99.761719 157.507812 100.140625 157.507812 C 100.75 157.507812 101.238281 157.355469 101.59375 157.03125 C 101.941406 156.707031 102.125 156.273438 102.125 155.71875 C 102.125 155.175781 101.941406 154.742188 101.59375 154.417969 C 101.238281 154.09375 100.75 153.929688 100.140625 153.929688 C 99.859375 153.929688 99.566406 153.960938 99.285156 154.027344 C 99.003906 154.09375 98.710938 154.191406 98.417969 154.320312 Z M 98.417969 150.351562 "/>
<path style="fill:none;stroke-width:0.8;stroke-linecap:butt;stroke-linejoin:round;stroke:rgb(0%,0%,0%);stroke-opacity:1;stroke-miterlimit:4;" d="M 103.102772 108.443047 L 99.602447 108.443047 " transform="matrix(1.083605,0,0,1.084599,0,0)"/>
<path style=" stroke:none;fill-rule:nonzero;fill:rgb(0%,0%,0%);fill-opacity:1;" d="M 84.808594 120.835938 L 86.554688 120.835938 L 86.554688 114.804688 L 84.65625 115.183594 L 84.65625 114.210938 L 86.542969 113.828125 L 87.617188 113.828125 L 87.617188 120.835938 L 89.359375 120.835938 L 89.359375 121.738281 L 84.808594 121.738281 Z M 84.808594 120.835938 "/>
<path style=" stroke:none;fill-rule:nonzero;fill:rgb(0%,0%,0%);fill-opacity:1;" d="M 91.527344 113.828125 L 95.722656 113.828125 L 95.722656 114.730469 L 92.503906 114.730469 L 92.503906 116.671875 C 92.65625 116.617188 92.816406 116.574219 92.96875 116.550781 C 93.121094 116.53125 93.28125 116.507812 93.433594 116.507812 C 94.3125 116.507812 95.007812 116.757812 95.527344 117.234375 C 96.046875 117.722656 96.304688 118.375 96.304688 119.199219 C 96.304688 120.054688 96.035156 120.71875 95.503906 121.183594 C 94.972656 121.648438 94.226562 121.878906 93.273438 121.878906 C 92.9375 121.878906 92.601562 121.84375 92.253906 121.800781 C 91.90625 121.746094 91.558594 121.671875 91.191406 121.550781 L 91.191406 120.476562 C 91.507812 120.652344 91.832031 120.78125 92.179688 120.867188 C 92.515625 120.957031 92.871094 120.988281 93.25 120.988281 C 93.859375 120.988281 94.34375 120.835938 94.703125 120.511719 C 95.050781 120.183594 95.234375 119.75 95.234375 119.199219 C 95.234375 118.65625 95.050781 118.222656 94.703125 117.898438 C 94.34375 117.570312 93.859375 117.410156 93.25 117.410156 C 92.96875 117.410156 92.675781 117.441406 92.394531 117.507812 C 92.113281 117.570312 91.820312 117.667969 91.527344 117.800781 Z M 91.527344 113.828125 "/>
<path style=" stroke:none;fill-rule:nonzero;fill:rgb(0%,0%,0%);fill-opacity:1;" d="M 100.695312 114.535156 C 100.140625 114.535156 99.730469 114.804688 99.449219 115.347656 C 99.167969 115.890625 99.039062 116.703125 99.039062 117.789062 C 99.039062 118.875 99.167969 119.6875 99.449219 120.230469 C 99.730469 120.769531 100.140625 121.042969 100.695312 121.042969 C 101.246094 121.042969 101.660156 120.769531 101.941406 120.230469 C 102.210938 119.6875 102.351562 118.875 102.351562 117.789062 C 102.351562 116.703125 102.210938 115.890625 101.941406 115.347656 C 101.660156 114.804688 101.246094 114.535156 100.695312 114.535156 Z M 100.695312 113.6875 C 101.574219 113.6875 102.246094 114.046875 102.722656 114.742188 C 103.1875 115.445312 103.425781 116.464844 103.425781 117.789062 C 103.425781 119.121094 103.1875 120.140625 102.722656 120.835938 C 102.246094 121.53125 101.574219 121.878906 100.683594 121.878906 C 99.796875 121.878906 99.125 121.53125 98.65625 120.835938 C 98.191406 120.140625 97.964844 119.121094 97.964844 117.789062 C 97.964844 116.464844 98.191406 115.445312 98.65625 114.742188 C 99.125 114.046875 99.804688 113.6875 100.695312 113.6875 Z M 100.695312 113.6875 "/>
<path style="fill:none;stroke-width:0.8;stroke-linecap:butt;stroke-linejoin:round;stroke:rgb(0%,0%,0%);stroke-opacity:1;stroke-miterlimit:4;" d="M 103.102772 74.772039 L 99.602447 74.772039 " transform="matrix(1.083605,0,0,1.084599,0,0)"/>
<path style=" stroke:none;fill-rule:nonzero;fill:rgb(0%,0%,0%);fill-opacity:1;" d="M 84.808594 84.316406 L 86.554688 84.316406 L 86.554688 78.285156 L 84.65625 78.664062 L 84.65625 77.691406 L 86.542969 77.308594 L 87.617188 77.308594 L 87.617188 84.316406 L 89.359375 84.316406 L 89.359375 85.21875 L 84.808594 85.21875 Z M 84.808594 84.316406 "/>
<path style=" stroke:none;fill-rule:nonzero;fill:rgb(0%,0%,0%);fill-opacity:1;" d="M 91.246094 77.308594 L 96.328125 77.308594 L 96.328125 77.765625 L 93.457031 85.21875 L 92.339844 85.21875 L 95.039062 78.210938 L 91.246094 78.210938 Z M 91.246094 77.308594 "/>
<path style=" stroke:none;fill-rule:nonzero;fill:rgb(0%,0%,0%);fill-opacity:1;" d="M 98.417969 77.308594 L 102.613281 77.308594 L 102.613281 78.210938 L 99.394531 78.210938 L 99.394531 80.152344 C 99.546875 80.097656 99.707031 80.054688 99.859375 80.03125 C 100.011719 80.011719 100.175781 79.988281 100.328125 79.988281 C 101.203125 79.988281 101.898438 80.238281 102.417969 80.714844 C 102.9375 81.203125 103.199219 81.855469 103.199219 82.679688 C 103.199219 83.535156 102.925781 84.199219 102.394531 84.664062 C 101.867188 85.128906 101.117188 85.359375 100.164062 85.359375 C 99.828125 85.359375 99.492188 85.324219 99.144531 85.28125 C 98.796875 85.226562 98.453125 85.152344 98.082031 85.03125 L 98.082031 83.957031 C 98.398438 84.132812 98.722656 84.261719 99.070312 84.347656 C 99.40625 84.4375 99.761719 84.46875 100.140625 84.46875 C 100.75 84.46875 101.238281 84.316406 101.59375 83.992188 C 101.941406 83.664062 102.125 83.230469 102.125 82.679688 C 102.125 82.136719 101.941406 81.703125 101.59375 81.378906 C 101.238281 81.050781 100.75 80.890625 100.140625 80.890625 C 99.859375 80.890625 99.566406 80.921875 99.285156 80.988281 C 99.003906 81.050781 98.710938 81.148438 98.417969 81.28125 Z M 98.417969 77.308594 "/>
<path style=" stroke:none;fill-rule:nonzero;fill:rgb(0%,0%,0%);fill-opacity:1;" d="M 69.859375 222.132812 L 76 222.132812 L 76 220.84375 C 76 219.757812 75.761719 218.957031 75.265625 218.445312 C 74.765625 217.949219 73.988281 217.6875 72.925781 217.6875 C 71.863281 217.6875 71.09375 217.949219 70.59375 218.445312 C 70.105469 218.957031 69.859375 219.757812 69.859375 220.84375 Z M 68.980469 223.207031 L 68.980469 221.007812 C 68.980469 219.476562 69.304688 218.347656 69.933594 217.632812 C 70.574219 216.917969 71.570312 216.558594 72.925781 216.558594 C 74.289062 216.558594 75.285156 216.929688 75.925781 217.644531 C 76.566406 218.359375 76.878906 219.488281 76.878906 221.007812 L 76.878906 223.207031 Z M 68.980469 223.207031 "/>
<path style=" stroke:none;fill-rule:nonzero;fill:rgb(0%,0%,0%);fill-opacity:1;" d="M 70.953125 214.898438 L 70.953125 213.925781 L 76.878906 213.925781 L 76.878906 214.898438 Z M 68.644531 214.898438 L 68.644531 213.925781 L 69.878906 213.925781 L 69.878906 214.898438 Z M 68.644531 214.898438 "/>
<path style=" stroke:none;fill-rule:nonzero;fill:rgb(0%,0%,0%);fill-opacity:1;" d="M 71.125 208.101562 L 72.046875 208.101562 C 71.917969 208.382812 71.808594 208.664062 71.734375 208.957031 C 71.667969 209.261719 71.625 209.5625 71.625 209.878906 C 71.625 210.367188 71.699219 210.734375 71.851562 210.972656 C 72.003906 211.210938 72.21875 211.332031 72.511719 211.332031 C 72.738281 211.332031 72.914062 211.246094 73.042969 211.070312 C 73.171875 210.898438 73.304688 210.550781 73.410156 210.03125 L 73.488281 209.695312 C 73.640625 209 73.855469 208.511719 74.117188 208.21875 C 74.386719 207.9375 74.765625 207.785156 75.242188 207.785156 C 75.796875 207.785156 76.230469 208.003906 76.542969 208.4375 C 76.867188 208.871094 77.019531 209.476562 77.019531 210.238281 C 77.019531 210.5625 76.988281 210.886719 76.933594 211.234375 C 76.878906 211.582031 76.792969 211.9375 76.664062 212.320312 L 75.65625 212.320312 C 75.851562 211.960938 75.992188 211.601562 76.078125 211.257812 C 76.175781 210.910156 76.21875 210.5625 76.21875 210.214844 C 76.21875 209.757812 76.144531 209.402344 75.992188 209.152344 C 75.839844 208.914062 75.613281 208.78125 75.320312 208.78125 C 75.058594 208.78125 74.851562 208.878906 74.710938 209.054688 C 74.570312 209.226562 74.429688 209.617188 74.300781 210.226562 L 74.226562 210.5625 C 74.09375 211.167969 73.898438 211.613281 73.640625 211.875 C 73.378906 212.144531 73.023438 212.277344 72.554688 212.277344 C 72.003906 212.277344 71.570312 212.082031 71.265625 211.691406 C 70.964844 211.300781 70.8125 210.734375 70.8125 209.996094 C 70.8125 209.640625 70.84375 209.304688 70.898438 208.976562 C 70.953125 208.664062 71.027344 208.371094 71.125 208.101562 Z M 71.125 208.101562 "/>
<path style=" stroke:none;fill-rule:nonzero;fill:rgb(0%,0%,0%);fill-opacity:1;" d="M 69.273438 205.269531 L 70.953125 205.269531 L 70.953125 203.261719 L 71.710938 203.261719 L 71.710938 205.269531 L 74.929688 205.269531 C 75.417969 205.269531 75.730469 205.203125 75.859375 205.074219 C 76 204.945312 76.066406 204.671875 76.066406 204.261719 L 76.066406 203.261719 L 76.878906 203.261719 L 76.878906 204.261719 C 76.878906 205.019531 76.738281 205.539062 76.457031 205.820312 C 76.175781 206.105469 75.664062 206.246094 74.929688 206.246094 L 71.710938 206.246094 L 71.710938 206.960938 L 70.953125 206.960938 L 70.953125 206.246094 L 69.273438 206.246094 Z M 69.273438 205.269531 "/>
<path style=" stroke:none;fill-rule:nonzero;fill:rgb(0%,0%,0%);fill-opacity:1;" d="M 73.898438 199.28125 C 73.898438 200.074219 73.996094 200.617188 74.171875 200.917969 C 74.355469 201.222656 74.65625 201.375 75.089844 201.375 C 75.4375 201.375 75.71875 201.265625 75.914062 201.039062 C 76.121094 200.8125 76.21875 200.496094 76.21875 200.105469 C 76.21875 199.5625 76.035156 199.128906 75.644531 198.804688 C 75.265625 198.480469 74.753906 198.316406 74.117188 198.316406 L 73.898438 198.316406 Z M 73.5 197.339844 L 76.878906 197.339844 L 76.878906 198.316406 L 75.980469 198.316406 C 76.347656 198.542969 76.609375 198.828125 76.769531 199.152344 C 76.933594 199.476562 77.019531 199.890625 77.019531 200.367188 C 77.019531 200.972656 76.859375 201.460938 76.523438 201.820312 C 76.1875 202.179688 75.730469 202.351562 75.15625 202.351562 C 74.496094 202.351562 73.996094 202.132812 73.652344 201.679688 C 73.316406 201.234375 73.140625 200.574219 73.140625 199.683594 L 73.140625 198.316406 L 73.042969 198.316406 C 72.597656 198.316406 72.253906 198.46875 72.003906 198.761719 C 71.765625 199.054688 71.636719 199.464844 71.636719 199.996094 C 71.636719 200.34375 71.679688 200.671875 71.765625 200.996094 C 71.851562 201.320312 71.972656 201.625 72.121094 201.917969 L 71.222656 201.917969 C 71.09375 201.570312 70.984375 201.222656 70.917969 200.886719 C 70.855469 200.550781 70.8125 200.226562 70.8125 199.898438 C 70.8125 199.042969 71.039062 198.402344 71.484375 197.980469 C 71.925781 197.558594 72.597656 197.339844 73.5 197.339844 Z M 73.5 197.339844 "/>
<path style=" stroke:none;fill-rule:nonzero;fill:rgb(0%,0%,0%);fill-opacity:1;" d="M 73.304688 190.398438 L 76.878906 190.398438 L 76.878906 191.375 L 73.335938 191.375 C 72.773438 191.375 72.359375 191.496094 72.078125 191.710938 C 71.796875 191.929688 71.65625 192.253906 71.65625 192.6875 C 71.65625 193.21875 71.828125 193.632812 72.164062 193.933594 C 72.5 194.238281 72.957031 194.390625 73.53125 194.390625 L 76.878906 194.390625 L 76.878906 195.367188 L 70.953125 195.367188 L 70.953125 194.390625 L 71.875 194.390625 C 71.527344 194.164062 71.253906 193.890625 71.082031 193.566406 C 70.910156 193.25 70.8125 192.882812 70.8125 192.472656 C 70.8125 191.796875 71.027344 191.277344 71.449219 190.929688 C 71.875 190.582031 72.492188 190.398438 73.304688 190.398438 Z M 73.304688 190.398438 "/>
<path style=" stroke:none;fill-rule:nonzero;fill:rgb(0%,0%,0%);fill-opacity:1;" d="M 71.179688 184.183594 L 72.089844 184.183594 C 71.9375 184.464844 71.828125 184.738281 71.753906 185.019531 C 71.679688 185.300781 71.636719 185.574219 71.636719 185.855469 C 71.636719 186.484375 71.839844 186.984375 72.242188 187.328125 C 72.644531 187.675781 73.207031 187.851562 73.921875 187.851562 C 74.648438 187.851562 75.210938 187.675781 75.613281 187.328125 C 76.011719 186.984375 76.207031 186.484375 76.207031 185.855469 C 76.207031 185.574219 76.175781 185.300781 76.097656 185.019531 C 76.023438 184.738281 75.90625 184.464844 75.753906 184.183594 L 76.652344 184.183594 C 76.78125 184.464844 76.878906 184.75 76.933594 185.03125 C 76.988281 185.324219 77.019531 185.636719 77.019531 185.964844 C 77.019531 186.851562 76.75 187.566406 76.1875 188.089844 C 75.632812 188.621094 74.875 188.878906 73.921875 188.878906 C 72.957031 188.878906 72.199219 188.621094 71.644531 188.089844 C 71.09375 187.558594 70.8125 186.832031 70.8125 185.898438 C 70.8125 185.59375 70.84375 185.300781 70.910156 185.019531 C 70.972656 184.738281 71.0625 184.457031 71.179688 184.183594 Z M 71.179688 184.183594 "/>
<path style=" stroke:none;fill-rule:nonzero;fill:rgb(0%,0%,0%);fill-opacity:1;" d="M 73.671875 177.417969 L 74.148438 177.417969 L 74.148438 181.894531 C 74.820312 181.851562 75.339844 181.65625 75.6875 181.289062 C 76.035156 180.929688 76.207031 180.433594 76.207031 179.78125 C 76.207031 179.414062 76.164062 179.042969 76.078125 178.695312 C 75.992188 178.347656 75.851562 177.992188 75.65625 177.644531 L 76.578125 177.644531 C 76.726562 177.992188 76.847656 178.347656 76.910156 178.71875 C 76.976562 179.085938 77.019531 179.464844 77.019531 179.835938 C 77.019531 180.789062 76.75 181.539062 76.207031 182.089844 C 75.664062 182.644531 74.917969 182.914062 73.976562 182.914062 C 73.011719 182.914062 72.242188 182.65625 71.667969 182.132812 C 71.105469 181.613281 70.8125 180.898438 70.8125 180.007812 C 70.8125 179.207031 71.070312 178.578125 71.582031 178.109375 C 72.101562 177.65625 72.792969 177.417969 73.671875 177.417969 Z M 73.390625 178.394531 C 72.859375 178.402344 72.4375 178.554688 72.113281 178.835938 C 71.796875 179.128906 71.636719 179.519531 71.636719 179.996094 C 71.636719 180.539062 71.796875 180.972656 72.101562 181.300781 C 72.40625 181.625 72.835938 181.820312 73.390625 181.863281 Z M 73.390625 178.394531 "/>
<path style=" stroke:none;fill-rule:nonzero;fill:rgb(0%,0%,0%);fill-opacity:1;" d="M 68.644531 172.460938 L 68.644531 170.214844 L 69.402344 170.214844 L 69.402344 171.484375 L 77.539062 171.484375 L 77.539062 170.214844 L 78.300781 170.214844 L 78.300781 172.460938 Z M 68.644531 172.460938 "/>
<path style=" stroke:none;fill-rule:nonzero;fill:rgb(0%,0%,0%);fill-opacity:1;" d="M 72.089844 163.523438 C 71.65625 163.285156 71.34375 162.992188 71.125 162.65625 C 70.917969 162.320312 70.8125 161.917969 70.8125 161.453125 C 70.8125 160.84375 71.027344 160.367188 71.460938 160.03125 C 71.894531 159.695312 72.511719 159.519531 73.304688 159.519531 L 76.878906 159.519531 L 76.878906 160.496094 L 73.335938 160.496094 C 72.773438 160.496094 72.351562 160.605469 72.070312 160.800781 C 71.796875 161.007812 71.65625 161.308594 71.65625 161.722656 C 71.65625 162.230469 71.828125 162.632812 72.164062 162.925781 C 72.5 163.21875 72.957031 163.359375 73.53125 163.359375 L 76.878906 163.359375 L 76.878906 164.335938 L 73.335938 164.335938 C 72.773438 164.335938 72.351562 164.445312 72.070312 164.640625 C 71.796875 164.847656 71.65625 165.160156 71.65625 165.574219 C 71.65625 166.070312 71.828125 166.472656 72.164062 166.765625 C 72.5 167.058594 72.957031 167.199219 73.53125 167.199219 L 76.878906 167.199219 L 76.878906 168.175781 L 70.953125 168.175781 L 70.953125 167.199219 L 71.875 167.199219 C 71.515625 166.984375 71.246094 166.710938 71.070312 166.398438 C 70.898438 166.09375 70.8125 165.722656 70.8125 165.289062 C 70.8125 164.855469 70.917969 164.5 71.136719 164.195312 C 71.351562 163.890625 71.679688 163.675781 72.089844 163.523438 Z M 72.089844 163.523438 "/>
<path style=" stroke:none;fill-rule:nonzero;fill:rgb(0%,0%,0%);fill-opacity:1;" d="M 68.644531 155.300781 L 78.300781 155.300781 L 78.300781 157.546875 L 77.539062 157.546875 L 77.539062 156.277344 L 69.402344 156.277344 L 69.402344 157.546875 L 68.644531 157.546875 Z M 68.644531 155.300781 "/>
<path style="fill:none;stroke-width:2.5;stroke-linecap:square;stroke-linejoin:round;stroke:rgb(0%,0%,100%);stroke-opacity:1;stroke-miterlimit:4;" d="M 115.200702 53.569641 L 115.615262 53.785734 L 116.646253 54.491641 L 119.216523 57.455727 L 119.580614 58.021172 L 119.807721 58.276883 L 123.019657 63.221828 L 123.481079 63.978156 L 123.74063 64.359922 L 124.068673 64.896555 L 124.959074 66.365992 L 125.416892 67.223164 L 125.788194 67.774203 L 126.927331 69.751461 L 127.010243 69.830695 L 127.266189 70.306102 L 128.924427 73.187352 L 129.501206 74.235406 L 129.663425 74.476711 L 130.128452 75.366297 L 131.786691 78.200727 L 132.619415 79.742195 L 132.799658 79.9835 L 133.28271 80.880289 L 133.632382 81.52857 L 133.726108 81.611406 L 134.129853 82.342523 L 134.825593 83.567055 L 137.078634 87.557586 L 137.799607 88.864953 L 137.889729 88.944188 L 138.24661 89.678906 L 138.931535 90.737766 L 139.191085 91.227578 L 163.156234 133.304633 L 163.307639 133.545938 L 164.320606 135.325109 L 164.49364 135.645648 L 164.652254 135.807719 L 164.782029 136.131859 L 165.077628 136.61807 L 165.373227 137.183516 L 165.712084 137.748961 L 166.0942 138.476477 L 166.371775 138.883453 L 166.999021 140.09718 L 167.190079 140.338484 L 168.487831 142.603867 L 168.787035 143.169313 L 169.241248 143.896828 L 169.407072 144.220969 L 171.177061 147.372336 L 171.368119 147.617242 L 171.62046 148.182688 L 171.75384 148.261922 L 172.00618 148.748133 L 172.474813 149.637719 L 172.925421 150.444469 L 173.138108 150.606539 L 173.224625 150.93068 L 173.567087 151.496125 L 173.945598 152.220039 L 175.167648 154.312547 L 175.603837 155.115695 L 175.830943 155.439836 L 176.447375 156.487891 L 176.71774 156.9705 L 177.359406 158.180625 L 177.600932 158.42193 L 177.810015 158.908141 L 178.956362 160.845781 L 179.215912 161.411227 L 179.302429 161.490461 L 179.601633 162.055906 L 179.850369 162.459281 L 180.520874 163.673008 L 180.632625 163.752242 L 180.766005 164.159219 L 180.870546 164.238453 L 181.15533 164.803898 L 181.742923 165.77632 L 181.883513 165.855555 L 181.96282 166.179695 L 182.64414 167.393422 L 182.979392 168.038102 L 183.812116 169.406695 L 184.396105 170.45475 L 184.65205 170.861727 L 185.026956 171.585641 L 187.701767 176.192039 L 187.990156 176.757484 L 188.271336 177.160859 L 189.460941 179.343406 L 189.569087 179.422641 L 189.828638 179.908852 L 192.330415 184.356781 L 193.739917 186.780633 L 193.920161 187.025539 L 194.929523 188.883945 L 195.026854 188.96318 L 195.315244 189.528625 L 195.711779 190.176906 L 195.841554 190.501047 L 196.122734 190.904422 L 196.508454 191.631938 L 197.128491 192.683594 L 197.503397 193.414711 L 197.597124 193.493945 L 197.961215 194.221461 L 198.184717 194.466367 L 198.714632 195.518023 L 199.298621 196.411211 L 199.44642 196.814586 L 199.648293 197.055891 L 199.817721 197.380031 L 200.740567 198.993531 L 201.108263 199.638211 L 236.425135 261.149297 L 236.616193 261.448227 L 236.98389 262.132523 L 237.546249 262.950078 L 237.953599 263.544336 L 238.59887 264.577984 L 239.114365 265.460367 L 239.582998 266.270719 L 240.07326 266.915398 L 240.318391 267.347586 L 240.671668 268.006672 L 240.88075 268.211961 L 241.439504 269.151969 L 244.492825 273.682734 L 245.534632 275.217 L 246.176298 276.189422 L 248.317588 279.214734 L 249.900124 281.501727 L 250.206538 282.164414 L 250.653541 282.956758 L 250.840994 283.140438 L 256.100494 290.023023 L 258.710417 292.78182 L 258.980782 292.972703 L 259.618843 293.566961 L 259.809901 293.660602 L 260.026193 293.801063 L 260.458777 294.128805 L 260.90578 294.470953 L 261.100443 294.535781 L 261.356389 294.687047 L 263.414767 295.400156 L 264.525066 295.461383 L 265.714672 295.263297 L 267.102545 294.69425 L 267.949688 294.182828 L 269.344772 293.113164 L 269.791775 292.691781 L 272.747765 289.489992 L 273.003711 289.313516 L 273.295705 288.834508 L 273.659796 288.438336 L 274.207736 287.718023 L 277.17454 284.141672 L 277.459325 283.7455 L 277.733295 283.464578 L 279.398743 281.382875 L 279.687132 281.112758 L 280.231467 280.374438 L 280.422525 280.215969 L 281.244434 279.196727 L 281.529219 278.854578 L 281.994246 278.2135 L 282.545791 277.511195 L 285.505386 273.6035 L 285.786565 273.21093 L 286.251593 272.479813 L 286.777903 271.752297 L 288.555102 269.144766 L 289.099437 268.222766 L 289.661796 267.441227 L 290.198921 266.576852 L 294.459873 259.730281 L 294.94653 258.894719 L 295.303412 258.361688 L 295.48005 257.983523 L 296.496622 256.377227 L 297.2212 255.156297 L 298.241377 253.470766 L 299.077706 252.012133 L 299.52471 251.320633 L 300.411507 249.934031 L 300.602565 249.548664 L 300.854905 249.087664 L 301.590298 247.931563 L 301.770541 247.621828 L 312.390476 229.725664 L 312.797826 229.019758 L 313.493565 227.845648 L 313.767535 227.291008 L 313.875681 227.215375 L 314.376757 226.347398 L 316.308966 223.120398 L 316.554096 222.569359 L 316.737945 222.331656 L 317.109246 221.622148 L 317.246231 221.542914 L 317.40124 221.229578 L 318.306061 219.569258 L 318.425022 219.490023 L 318.62329 219.173086 L 319.055873 218.384344 L 319.272165 217.988172 L 319.506482 217.592 L 320.274318 216.248617 L 322.49852 212.448969 L 322.696788 212.132031 L 323.792667 210.313242 L 323.947677 209.91707 L 324.318978 209.36243 L 324.683069 208.728555 L 324.881337 208.570086 L 324.975063 208.170313 L 326.615277 205.321477 L 326.727028 205.242242 L 328.756568 201.680297 L 329.127869 201.125656 L 329.405444 200.567414 L 329.582082 200.250477 L 329.863262 199.854305 L 331.139384 197.635742 L 331.824309 196.522859 L 332.253288 195.651281 L 332.45516 195.413578 L 332.808437 194.696867 L 332.999495 194.459164 L 333.100431 194.221461 L 333.320328 194.142227 L 333.457313 193.583984 L 333.644766 193.346281 L 334.113399 192.550336 L 334.834372 191.278984 L 335.789661 189.690695 L 335.95909 189.290922 L 336.150148 189.053219 L 336.708902 188.01957 L 339.686521 182.923359 L 339.931652 182.444352 L 340.220042 182.04818 L 340.66344 181.252234 L 357.119653 152.760273 " transform="matrix(1.083605,0,0,1.084599,0,0)"/>
<path style="fill-rule:nonzero;fill:rgb(100%,64.705882%,0%);fill-opacity:1;stroke-width:2.5;stroke-linecap:butt;stroke-linejoin:round;stroke:rgb(100%,64.705882%,0%);stroke-opacity:1;stroke-miterlimit:4;" d="M 261.269872 298.483094 L 267.268369 292.482891 M 261.269872 292.482891 L 267.268369 298.483094 " transform="matrix(1.083605,0,0,1.084599,0,0)"/>
<path style="fill:none;stroke-width:0.8;stroke-linecap:square;stroke-linejoin:miter;stroke:rgb(0%,0%,0%);stroke-opacity:1;stroke-miterlimit:10;" d="M 103.102772 307.584242 L 103.102772 41.471992 M 369.217584 307.584242 L 369.217584 41.471992 M 103.102772 307.584242 L 369.217584 307.584242 M 103.102772 41.471992 L 369.217584 41.471992 " transform="matrix(1.083605,0,0,1.084599,0,0)"/>
<path style="fill-rule:nonzero;fill:rgb(100%,100%,100%);fill-opacity:0.8;stroke-width:1;stroke-linecap:butt;stroke-linejoin:miter;stroke:rgb(83.529412%,83.921569%,83.529412%);stroke-opacity:0.8;stroke-miterlimit:10;" d="M 184.965674 78.816594 L 362.216934 78.816594 C 363.550734 78.816594 364.217634 78.150305 364.217634 76.817727 L 364.217634 48.47343 C 364.217634 47.13725 363.550734 46.470961 362.216934 46.470961 L 184.965674 46.470961 C 183.631873 46.470961 182.964973 47.13725 182.964973 48.47343 L 182.964973 76.817727 C 182.964973 78.150305 183.631873 78.816594 184.965674 78.816594 Z M 184.965674 78.816594 " transform="matrix(1.083605,0,0,1.084599,0,0)"/>
<path style="fill:none;stroke-width:2.5;stroke-linecap:square;stroke-linejoin:round;stroke:rgb(0%,0%,100%);stroke-opacity:1;stroke-miterlimit:4;" d="M 186.966374 54.567273 L 206.966171 54.567273 " transform="matrix(1.083605,0,0,1.084599,0,0)"/>
<path style=" stroke:none;fill-rule:nonzero;fill:rgb(0%,0%,0%);fill-opacity:1;" d="M 235.074219 55.949219 L 235.074219 62.101562 L 236.363281 62.101562 C 237.445312 62.101562 238.246094 61.859375 238.757812 61.363281 C 239.253906 60.863281 239.515625 60.082031 239.515625 59.019531 C 239.515625 57.957031 239.253906 57.1875 238.757812 56.6875 C 238.246094 56.199219 237.445312 55.949219 236.363281 55.949219 Z M 234 55.070312 L 236.199219 55.070312 C 237.726562 55.070312 238.855469 55.398438 239.570312 56.027344 C 240.285156 56.664062 240.644531 57.664062 240.644531 59.019531 C 240.644531 60.386719 240.273438 61.382812 239.558594 62.023438 C 238.84375 62.664062 237.71875 62.976562 236.199219 62.976562 L 234 62.976562 Z M 234 55.070312 "/>
<path style=" stroke:none;fill-rule:nonzero;fill:rgb(0%,0%,0%);fill-opacity:1;" d="M 242.300781 57.046875 L 243.277344 57.046875 L 243.277344 62.976562 L 242.300781 62.976562 Z M 242.300781 54.734375 L 243.277344 54.734375 L 243.277344 55.972656 L 242.300781 55.972656 Z M 242.300781 54.734375 "/>
<path style=" stroke:none;fill-rule:nonzero;fill:rgb(0%,0%,0%);fill-opacity:1;" d="M 249.09375 57.21875 L 249.09375 58.140625 C 248.8125 58.011719 248.53125 57.902344 248.238281 57.828125 C 247.933594 57.761719 247.632812 57.71875 247.316406 57.71875 C 246.828125 57.71875 246.460938 57.792969 246.222656 57.945312 C 245.984375 58.097656 245.867188 58.316406 245.867188 58.605469 C 245.867188 58.835938 245.953125 59.007812 246.125 59.140625 C 246.300781 59.269531 246.644531 59.398438 247.164062 59.507812 L 247.5 59.582031 C 248.195312 59.734375 248.683594 59.953125 248.976562 60.210938 C 249.257812 60.484375 249.410156 60.863281 249.410156 61.339844 C 249.410156 61.894531 249.191406 62.328125 248.757812 62.640625 C 248.324219 62.96875 247.71875 63.121094 246.960938 63.121094 C 246.636719 63.121094 246.308594 63.085938 245.964844 63.03125 C 245.617188 62.976562 245.257812 62.890625 244.878906 62.761719 L 244.878906 61.753906 C 245.238281 61.949219 245.59375 62.089844 245.941406 62.175781 C 246.289062 62.273438 246.636719 62.316406 246.980469 62.316406 C 247.4375 62.316406 247.792969 62.242188 248.042969 62.089844 C 248.28125 61.9375 248.410156 61.710938 248.410156 61.417969 C 248.410156 61.15625 248.316406 60.949219 248.140625 60.808594 C 247.96875 60.667969 247.578125 60.527344 246.972656 60.398438 L 246.636719 60.320312 C 246.027344 60.191406 245.582031 59.996094 245.324219 59.734375 C 245.054688 59.476562 244.921875 59.117188 244.921875 58.652344 C 244.921875 58.097656 245.117188 57.664062 245.507812 57.359375 C 245.898438 57.054688 246.460938 56.90625 247.199219 56.90625 C 247.554688 56.90625 247.890625 56.9375 248.21875 56.992188 C 248.53125 57.046875 248.824219 57.121094 249.09375 57.21875 Z M 249.09375 57.21875 "/>
<path style=" stroke:none;fill-rule:nonzero;fill:rgb(0%,0%,0%);fill-opacity:1;" d="M 251.921875 55.363281 L 251.921875 57.046875 L 253.925781 57.046875 L 253.925781 57.804688 L 251.921875 57.804688 L 251.921875 61.027344 C 251.921875 61.515625 251.988281 61.828125 252.117188 61.957031 C 252.246094 62.101562 252.519531 62.164062 252.929688 62.164062 L 253.925781 62.164062 L 253.925781 62.976562 L 252.929688 62.976562 C 252.171875 62.976562 251.652344 62.835938 251.371094 62.554688 C 251.089844 62.273438 250.949219 61.761719 250.949219 61.027344 L 250.949219 57.804688 L 250.234375 57.804688 L 250.234375 57.046875 L 250.949219 57.046875 L 250.949219 55.363281 Z M 251.921875 55.363281 "/>
<path style=" stroke:none;fill-rule:nonzero;fill:rgb(0%,0%,0%);fill-opacity:1;" d="M 257.90625 59.996094 C 257.113281 59.996094 256.570312 60.09375 256.269531 60.265625 C 255.964844 60.453125 255.8125 60.753906 255.8125 61.1875 C 255.8125 61.535156 255.921875 61.816406 256.148438 62.011719 C 256.375 62.21875 256.691406 62.316406 257.082031 62.316406 C 257.621094 62.316406 258.054688 62.132812 258.382812 61.742188 C 258.707031 61.363281 258.867188 60.851562 258.867188 60.210938 L 258.867188 59.996094 Z M 259.84375 59.59375 L 259.84375 62.976562 L 258.867188 62.976562 L 258.867188 62.078125 C 258.640625 62.445312 258.359375 62.707031 258.035156 62.871094 C 257.710938 63.03125 257.296875 63.121094 256.820312 63.121094 C 256.214844 63.121094 255.726562 62.957031 255.367188 62.621094 C 255.011719 62.285156 254.835938 61.828125 254.835938 61.253906 C 254.835938 60.59375 255.054688 60.09375 255.507812 59.746094 C 255.953125 59.410156 256.613281 59.238281 257.503906 59.238281 L 258.867188 59.238281 L 258.867188 59.140625 C 258.867188 58.695312 258.71875 58.347656 258.425781 58.097656 C 258.132812 57.859375 257.71875 57.730469 257.1875 57.730469 C 256.84375 57.730469 256.515625 57.773438 256.191406 57.859375 C 255.867188 57.945312 255.5625 58.066406 255.269531 58.21875 L 255.269531 57.316406 C 255.617188 57.1875 255.964844 57.078125 256.300781 57.011719 C 256.636719 56.949219 256.960938 56.90625 257.285156 56.90625 C 258.144531 56.90625 258.78125 57.132812 259.203125 57.578125 C 259.628906 58.023438 259.84375 58.695312 259.84375 59.59375 Z M 259.84375 59.59375 "/>
<path style=" stroke:none;fill-rule:nonzero;fill:rgb(0%,0%,0%);fill-opacity:1;" d="M 266.777344 59.398438 L 266.777344 62.976562 L 265.804688 62.976562 L 265.804688 59.433594 C 265.804688 58.867188 265.683594 58.457031 265.46875 58.171875 C 265.25 57.890625 264.925781 57.75 264.492188 57.75 C 263.960938 57.75 263.550781 57.925781 263.246094 58.261719 C 262.941406 58.597656 262.792969 59.050781 262.792969 59.625 L 262.792969 62.976562 L 261.816406 62.976562 L 261.816406 57.046875 L 262.792969 57.046875 L 262.792969 57.96875 C 263.019531 57.621094 263.289062 57.347656 263.613281 57.175781 C 263.929688 57.003906 264.296875 56.90625 264.710938 56.90625 C 265.382812 56.90625 265.902344 57.121094 266.25 57.542969 C 266.59375 57.96875 266.777344 58.585938 266.777344 59.398438 Z M 266.777344 59.398438 "/>
<path style=" stroke:none;fill-rule:nonzero;fill:rgb(0%,0%,0%);fill-opacity:1;" d="M 272.988281 57.273438 L 272.988281 58.183594 C 272.707031 58.03125 272.4375 57.925781 272.152344 57.847656 C 271.871094 57.773438 271.601562 57.730469 271.320312 57.730469 C 270.691406 57.730469 270.191406 57.933594 269.847656 58.335938 C 269.5 58.738281 269.324219 59.300781 269.324219 60.015625 C 269.324219 60.742188 269.5 61.308594 269.847656 61.710938 C 270.191406 62.109375 270.691406 62.304688 271.320312 62.304688 C 271.601562 62.304688 271.871094 62.273438 272.152344 62.199219 C 272.4375 62.121094 272.707031 62.003906 272.988281 61.851562 L 272.988281 62.75 C 272.707031 62.878906 272.425781 62.976562 272.144531 63.03125 C 271.851562 63.085938 271.535156 63.121094 271.210938 63.121094 C 270.324219 63.121094 269.605469 62.847656 269.085938 62.285156 C 268.554688 61.730469 268.296875 60.972656 268.296875 60.015625 C 268.296875 59.050781 268.554688 58.292969 269.085938 57.738281 C 269.617188 57.1875 270.34375 56.90625 271.277344 56.90625 C 271.578125 56.90625 271.871094 56.9375 272.152344 57.003906 C 272.4375 57.066406 272.71875 57.152344 272.988281 57.273438 Z M 272.988281 57.273438 "/>
<path style=" stroke:none;fill-rule:nonzero;fill:rgb(0%,0%,0%);fill-opacity:1;" d="M 279.75 59.769531 L 279.75 60.246094 L 275.273438 60.246094 C 275.316406 60.917969 275.511719 61.4375 275.882812 61.785156 C 276.238281 62.132812 276.738281 62.304688 277.386719 62.304688 C 277.757812 62.304688 278.125 62.261719 278.472656 62.175781 C 278.816406 62.089844 279.175781 61.949219 279.523438 61.753906 L 279.523438 62.675781 C 279.175781 62.828125 278.816406 62.945312 278.449219 63.011719 C 278.082031 63.074219 277.703125 63.121094 277.332031 63.121094 C 276.378906 63.121094 275.632812 62.847656 275.078125 62.304688 C 274.527344 61.761719 274.257812 61.015625 274.257812 60.070312 C 274.257812 59.105469 274.515625 58.335938 275.035156 57.761719 C 275.554688 57.199219 276.273438 56.90625 277.160156 56.90625 C 277.960938 56.90625 278.589844 57.164062 279.054688 57.675781 C 279.511719 58.195312 279.75 58.890625 279.75 59.769531 Z M 278.773438 59.484375 C 278.765625 58.953125 278.613281 58.53125 278.332031 58.207031 C 278.039062 57.890625 277.648438 57.730469 277.171875 57.730469 C 276.628906 57.730469 276.195312 57.890625 275.871094 58.195312 C 275.546875 58.5 275.351562 58.933594 275.308594 59.484375 Z M 278.773438 59.484375 "/>
<path style=" stroke:none;fill-rule:nonzero;fill:rgb(0%,0%,0%);fill-opacity:1;" d="M 289.046875 60.015625 C 289.046875 59.300781 288.894531 58.75 288.601562 58.335938 C 288.300781 57.925781 287.898438 57.71875 287.390625 57.71875 C 286.871094 57.71875 286.46875 57.925781 286.175781 58.335938 C 285.871094 58.75 285.730469 59.300781 285.730469 60.015625 C 285.730469 60.734375 285.871094 61.296875 286.175781 61.710938 C 286.46875 62.121094 286.871094 62.316406 287.390625 62.316406 C 287.898438 62.316406 288.300781 62.121094 288.601562 61.710938 C 288.894531 61.296875 289.046875 60.734375 289.046875 60.015625 Z M 285.730469 57.945312 C 285.925781 57.597656 286.1875 57.339844 286.5 57.164062 C 286.816406 56.992188 287.195312 56.90625 287.628906 56.90625 C 288.34375 56.90625 288.929688 57.199219 289.382812 57.761719 C 289.828125 58.335938 290.054688 59.085938 290.054688 60.015625 C 290.054688 60.949219 289.828125 61.710938 289.382812 62.273438 C 288.929688 62.835938 288.34375 63.121094 287.628906 63.121094 C 287.195312 63.121094 286.816406 63.03125 286.5 62.871094 C 286.1875 62.707031 285.925781 62.445312 285.730469 62.089844 L 285.730469 62.976562 L 284.757812 62.976562 L 284.757812 54.734375 L 285.730469 54.734375 Z M 285.730469 57.945312 "/>
<path style=" stroke:none;fill-rule:nonzero;fill:rgb(0%,0%,0%);fill-opacity:1;" d="M 296.742188 59.769531 L 296.742188 60.246094 L 292.265625 60.246094 C 292.308594 60.917969 292.503906 61.4375 292.871094 61.785156 C 293.230469 62.132812 293.726562 62.304688 294.378906 62.304688 C 294.746094 62.304688 295.117188 62.261719 295.460938 62.175781 C 295.808594 62.089844 296.167969 61.949219 296.511719 61.753906 L 296.511719 62.675781 C 296.167969 62.828125 295.808594 62.945312 295.441406 63.011719 C 295.070312 63.074219 294.691406 63.121094 294.324219 63.121094 C 293.371094 63.121094 292.625 62.847656 292.070312 62.304688 C 291.519531 61.761719 291.246094 61.015625 291.246094 60.070312 C 291.246094 59.105469 291.507812 58.335938 292.027344 57.761719 C 292.546875 57.199219 293.261719 56.90625 294.152344 56.90625 C 294.953125 56.90625 295.582031 57.164062 296.046875 57.675781 C 296.503906 58.195312 296.742188 58.890625 296.742188 59.769531 Z M 295.765625 59.484375 C 295.753906 58.953125 295.601562 58.53125 295.320312 58.207031 C 295.027344 57.890625 294.636719 57.730469 294.160156 57.730469 C 293.621094 57.730469 293.1875 57.890625 292.863281 58.195312 C 292.535156 58.5 292.339844 58.933594 292.296875 59.484375 Z M 295.765625 59.484375 "/>
<path style=" stroke:none;fill-rule:nonzero;fill:rgb(0%,0%,0%);fill-opacity:1;" d="M 299.296875 55.363281 L 299.296875 57.046875 L 301.304688 57.046875 L 301.304688 57.804688 L 299.296875 57.804688 L 299.296875 61.027344 C 299.296875 61.515625 299.363281 61.828125 299.492188 61.957031 C 299.625 62.101562 299.894531 62.164062 300.304688 62.164062 L 301.304688 62.164062 L 301.304688 62.976562 L 300.304688 62.976562 C 299.546875 62.976562 299.027344 62.835938 298.746094 62.554688 C 298.464844 62.273438 298.324219 61.761719 298.324219 61.027344 L 298.324219 57.804688 L 297.609375 57.804688 L 297.609375 57.046875 L 298.324219 57.046875 L 298.324219 55.363281 Z M 299.296875 55.363281 "/>
<path style=" stroke:none;fill-rule:nonzero;fill:rgb(0%,0%,0%);fill-opacity:1;" d="M 302.019531 57.046875 L 302.992188 57.046875 L 304.207031 61.675781 L 305.421875 57.046875 L 306.570312 57.046875 L 307.78125 61.675781 L 308.996094 57.046875 L 309.972656 57.046875 L 308.421875 62.976562 L 307.273438 62.976562 L 305.996094 58.121094 L 304.714844 62.976562 L 303.566406 62.976562 Z M 302.019531 57.046875 "/>
<path style=" stroke:none;fill-rule:nonzero;fill:rgb(0%,0%,0%);fill-opacity:1;" d="M 316.515625 59.769531 L 316.515625 60.246094 L 312.042969 60.246094 C 312.085938 60.917969 312.28125 61.4375 312.648438 61.785156 C 313.003906 62.132812 313.503906 62.304688 314.15625 62.304688 C 314.523438 62.304688 314.890625 62.261719 315.238281 62.175781 C 315.585938 62.089844 315.941406 61.949219 316.289062 61.753906 L 316.289062 62.675781 C 315.941406 62.828125 315.585938 62.945312 315.214844 63.011719 C 314.847656 63.074219 314.46875 63.121094 314.101562 63.121094 C 313.148438 63.121094 312.398438 62.847656 311.847656 62.304688 C 311.292969 61.761719 311.023438 61.015625 311.023438 60.070312 C 311.023438 59.105469 311.28125 58.335938 311.804688 57.761719 C 312.324219 57.199219 313.039062 56.90625 313.925781 56.90625 C 314.730469 56.90625 315.355469 57.164062 315.824219 57.675781 C 316.277344 58.195312 316.515625 58.890625 316.515625 59.769531 Z M 315.542969 59.484375 C 315.53125 58.953125 315.378906 58.53125 315.097656 58.207031 C 314.804688 57.890625 314.414062 57.730469 313.9375 57.730469 C 313.394531 57.730469 312.960938 57.890625 312.636719 58.195312 C 312.3125 58.5 312.117188 58.933594 312.074219 59.484375 Z M 315.542969 59.484375 "/>
<path style=" stroke:none;fill-rule:nonzero;fill:rgb(0%,0%,0%);fill-opacity:1;" d="M 323.179688 59.769531 L 323.179688 60.246094 L 318.707031 60.246094 C 318.75 60.917969 318.945312 61.4375 319.3125 61.785156 C 319.667969 62.132812 320.167969 62.304688 320.820312 62.304688 C 321.1875 62.304688 321.554688 62.261719 321.902344 62.175781 C 322.25 62.089844 322.605469 61.949219 322.953125 61.753906 L 322.953125 62.675781 C 322.605469 62.828125 322.25 62.945312 321.878906 63.011719 C 321.511719 63.074219 321.132812 63.121094 320.765625 63.121094 C 319.8125 63.121094 319.0625 62.847656 318.511719 62.304688 C 317.957031 61.761719 317.6875 61.015625 317.6875 60.070312 C 317.6875 59.105469 317.945312 58.335938 318.46875 57.761719 C 318.988281 57.199219 319.703125 56.90625 320.589844 56.90625 C 321.394531 56.90625 322.019531 57.164062 322.488281 57.675781 C 322.941406 58.195312 323.179688 58.890625 323.179688 59.769531 Z M 322.207031 59.484375 C 322.195312 58.953125 322.042969 58.53125 321.761719 58.207031 C 321.46875 57.890625 321.078125 57.730469 320.601562 57.730469 C 320.058594 57.730469 319.625 57.890625 319.300781 58.195312 C 318.976562 58.5 318.78125 58.933594 318.738281 59.484375 Z M 322.207031 59.484375 "/>
<path style=" stroke:none;fill-rule:nonzero;fill:rgb(0%,0%,0%);fill-opacity:1;" d="M 329.703125 59.398438 L 329.703125 62.976562 L 328.730469 62.976562 L 328.730469 59.433594 C 328.730469 58.867188 328.609375 58.457031 328.394531 58.171875 C 328.175781 57.890625 327.851562 57.75 327.417969 57.75 C 326.886719 57.75 326.476562 57.925781 326.171875 58.261719 C 325.867188 58.597656 325.714844 59.050781 325.714844 59.625 L 325.714844 62.976562 L 324.742188 62.976562 L 324.742188 57.046875 L 325.714844 57.046875 L 325.714844 57.96875 C 325.945312 57.621094 326.214844 57.347656 326.539062 57.175781 C 326.855469 57.003906 327.222656 56.90625 327.632812 56.90625 C 328.304688 56.90625 328.828125 57.121094 329.171875 57.542969 C 329.519531 57.96875 329.703125 58.585938 329.703125 59.398438 Z M 329.703125 59.398438 "/>
<path style=" stroke:none;fill-rule:nonzero;fill:rgb(0%,0%,0%);fill-opacity:1;" d="M 338.339844 55.796875 C 337.558594 55.796875 336.941406 56.089844 336.488281 56.664062 C 336.03125 57.25 335.804688 58.03125 335.804688 59.03125 C 335.804688 60.027344 336.03125 60.820312 336.488281 61.394531 C 336.941406 61.980469 337.558594 62.261719 338.339844 62.261719 C 339.109375 62.261719 339.726562 61.980469 340.183594 61.394531 C 340.636719 60.820312 340.863281 60.027344 340.863281 59.03125 C 340.863281 58.03125 340.636719 57.25 340.183594 56.664062 C 339.726562 56.089844 339.109375 55.796875 338.339844 55.796875 Z M 338.339844 54.929688 C 339.445312 54.929688 340.324219 55.308594 340.996094 56.046875 C 341.65625 56.785156 341.992188 57.78125 341.992188 59.03125 C 341.992188 60.289062 341.65625 61.277344 340.996094 62.011719 C 340.324219 62.75 339.445312 63.121094 338.339844 63.121094 C 337.222656 63.121094 336.335938 62.75 335.675781 62.011719 C 335.003906 61.277344 334.679688 60.289062 334.679688 59.03125 C 334.679688 57.78125 335.003906 56.785156 335.675781 56.046875 C 336.335938 55.308594 337.222656 54.929688 338.339844 54.929688 Z M 338.339844 54.929688 "/>
<path style=" stroke:none;fill-rule:nonzero;fill:rgb(0%,0%,0%);fill-opacity:1;" d="M 348.394531 55.332031 L 348.394531 56.375 C 347.984375 56.179688 347.605469 56.035156 347.246094 55.9375 C 346.878906 55.851562 346.53125 55.796875 346.207031 55.796875 C 345.621094 55.796875 345.167969 55.917969 344.851562 56.132812 C 344.539062 56.363281 344.386719 56.6875 344.386719 57.101562 C 344.386719 57.445312 344.484375 57.71875 344.703125 57.890625 C 344.90625 58.074219 345.308594 58.21875 345.894531 58.324219 L 346.542969 58.457031 C 347.335938 58.605469 347.917969 58.878906 348.296875 59.257812 C 348.679688 59.648438 348.875 60.160156 348.875 60.796875 C 348.875 61.566406 348.613281 62.144531 348.105469 62.535156 C 347.582031 62.925781 346.835938 63.121094 345.851562 63.121094 C 345.46875 63.121094 345.070312 63.074219 344.648438 63 C 344.222656 62.925781 343.789062 62.804688 343.347656 62.632812 L 343.347656 61.523438 C 343.78125 61.773438 344.203125 61.957031 344.613281 62.078125 C 345.027344 62.207031 345.4375 62.261719 345.851562 62.261719 C 346.457031 62.261719 346.921875 62.144531 347.257812 61.90625 C 347.582031 61.664062 347.757812 61.328125 347.757812 60.875 C 347.757812 60.484375 347.636719 60.179688 347.398438 59.964844 C 347.160156 59.746094 346.769531 59.582031 346.230469 59.476562 L 345.578125 59.34375 C 344.777344 59.191406 344.203125 58.945312 343.84375 58.597656 C 343.488281 58.261719 343.3125 57.792969 343.3125 57.1875 C 343.3125 56.492188 343.550781 55.9375 344.050781 55.539062 C 344.539062 55.136719 345.222656 54.929688 346.089844 54.929688 C 346.457031 54.929688 346.824219 54.964844 347.214844 55.027344 C 347.59375 55.09375 347.984375 55.203125 348.394531 55.332031 Z M 348.394531 55.332031 "/>
<path style=" stroke:none;fill-rule:nonzero;fill:rgb(0%,0%,0%);fill-opacity:1;" d="M 356.640625 59.996094 C 355.851562 59.996094 355.308594 60.09375 355.007812 60.265625 C 354.703125 60.453125 354.550781 60.753906 354.550781 61.1875 C 354.550781 61.535156 354.660156 61.816406 354.886719 62.011719 C 355.113281 62.21875 355.429688 62.316406 355.820312 62.316406 C 356.359375 62.316406 356.792969 62.132812 357.121094 61.742188 C 357.445312 61.363281 357.605469 60.851562 357.605469 60.210938 L 357.605469 59.996094 Z M 358.582031 59.59375 L 358.582031 62.976562 L 357.605469 62.976562 L 357.605469 62.078125 C 357.378906 62.445312 357.097656 62.707031 356.773438 62.871094 C 356.449219 63.03125 356.035156 63.121094 355.558594 63.121094 C 354.953125 63.121094 354.464844 62.957031 354.105469 62.621094 C 353.75 62.285156 353.574219 61.828125 353.574219 61.253906 C 353.574219 60.59375 353.792969 60.09375 354.246094 59.746094 C 354.691406 59.410156 355.351562 59.238281 356.242188 59.238281 L 357.605469 59.238281 L 357.605469 59.140625 C 357.605469 58.695312 357.457031 58.347656 357.164062 58.097656 C 356.871094 57.859375 356.457031 57.730469 355.925781 57.730469 C 355.582031 57.730469 355.253906 57.773438 354.929688 57.859375 C 354.605469 57.945312 354.300781 58.066406 354.007812 58.21875 L 354.007812 57.316406 C 354.355469 57.1875 354.703125 57.078125 355.039062 57.011719 C 355.375 56.949219 355.699219 56.90625 356.023438 56.90625 C 356.882812 56.90625 357.519531 57.132812 357.941406 57.578125 C 358.367188 58.023438 358.582031 58.695312 358.582031 59.59375 Z M 358.582031 59.59375 "/>
<path style=" stroke:none;fill-rule:nonzero;fill:rgb(0%,0%,0%);fill-opacity:1;" d="M 365.515625 59.398438 L 365.515625 62.976562 L 364.542969 62.976562 L 364.542969 59.433594 C 364.542969 58.867188 364.421875 58.457031 364.207031 58.171875 C 363.988281 57.890625 363.664062 57.75 363.230469 57.75 C 362.699219 57.75 362.289062 57.925781 361.984375 58.261719 C 361.679688 58.597656 361.53125 59.050781 361.53125 59.625 L 361.53125 62.976562 L 360.554688 62.976562 L 360.554688 57.046875 L 361.53125 57.046875 L 361.53125 57.96875 C 361.757812 57.621094 362.027344 57.347656 362.351562 57.175781 C 362.667969 57.003906 363.035156 56.90625 363.449219 56.90625 C 364.121094 56.90625 364.640625 57.121094 364.984375 57.542969 C 365.332031 57.96875 365.515625 58.585938 365.515625 59.398438 Z M 365.515625 59.398438 "/>
<path style=" stroke:none;fill-rule:nonzero;fill:rgb(0%,0%,0%);fill-opacity:1;" d="M 371.359375 57.945312 L 371.359375 54.734375 L 372.332031 54.734375 L 372.332031 62.976562 L 371.359375 62.976562 L 371.359375 62.089844 C 371.152344 62.445312 370.890625 62.707031 370.578125 62.871094 C 370.261719 63.03125 369.894531 63.121094 369.460938 63.121094 C 368.746094 63.121094 368.160156 62.835938 367.707031 62.273438 C 367.25 61.710938 367.035156 60.949219 367.035156 60.015625 C 367.035156 59.085938 367.25 58.335938 367.707031 57.761719 C 368.160156 57.199219 368.746094 56.90625 369.460938 56.90625 C 369.894531 56.90625 370.261719 56.992188 370.578125 57.164062 C 370.890625 57.339844 371.152344 57.597656 371.359375 57.945312 Z M 368.042969 60.015625 C 368.042969 60.734375 368.183594 61.296875 368.476562 61.710938 C 368.769531 62.121094 369.167969 62.316406 369.6875 62.316406 C 370.210938 62.316406 370.609375 62.121094 370.914062 61.710938 C 371.207031 61.296875 371.359375 60.734375 371.359375 60.015625 C 371.359375 59.300781 371.207031 58.75 370.914062 58.335938 C 370.609375 57.925781 370.210938 57.71875 369.6875 57.71875 C 369.167969 57.71875 368.769531 57.925781 368.476562 58.335938 C 368.183594 58.75 368.042969 59.300781 368.042969 60.015625 Z M 368.042969 60.015625 "/>
<path style=" stroke:none;fill-rule:nonzero;fill:rgb(0%,0%,0%);fill-opacity:1;" d="M 376.742188 55.070312 L 383.417969 55.070312 L 383.417969 55.972656 L 380.613281 55.972656 L 380.613281 62.976562 L 379.539062 62.976562 L 379.539062 55.972656 L 376.742188 55.972656 Z M 376.742188 55.070312 "/>
<path style=" stroke:none;fill-rule:nonzero;fill:rgb(0%,0%,0%);fill-opacity:1;" d="M 389.183594 55.332031 L 389.183594 56.375 C 388.769531 56.179688 388.390625 56.035156 388.035156 55.9375 C 387.667969 55.851562 387.320312 55.796875 386.996094 55.796875 C 386.410156 55.796875 385.953125 55.917969 385.640625 56.132812 C 385.324219 56.363281 385.171875 56.6875 385.171875 57.101562 C 385.171875 57.445312 385.269531 57.71875 385.488281 57.890625 C 385.695312 58.074219 386.09375 58.21875 386.679688 58.324219 L 387.332031 58.457031 C 388.121094 58.605469 388.707031 58.878906 389.085938 59.257812 C 389.464844 59.648438 389.660156 60.160156 389.660156 60.796875 C 389.660156 61.566406 389.398438 62.144531 388.890625 62.535156 C 388.371094 62.925781 387.621094 63.121094 386.636719 63.121094 C 386.257812 63.121094 385.855469 63.074219 385.433594 63 C 385.011719 62.925781 384.578125 62.804688 384.132812 62.632812 L 384.132812 61.523438 C 384.566406 61.773438 384.988281 61.957031 385.402344 62.078125 C 385.8125 62.207031 386.226562 62.261719 386.636719 62.261719 C 387.242188 62.261719 387.710938 62.144531 388.046875 61.90625 C 388.371094 61.664062 388.542969 61.328125 388.542969 60.875 C 388.542969 60.484375 388.425781 60.179688 388.1875 59.964844 C 387.949219 59.746094 387.558594 59.582031 387.015625 59.476562 L 386.367188 59.34375 C 385.5625 59.191406 384.988281 58.945312 384.632812 58.597656 C 384.273438 58.261719 384.101562 57.792969 384.101562 57.1875 C 384.101562 56.492188 384.339844 55.9375 384.839844 55.539062 C 385.324219 55.136719 386.007812 54.929688 386.875 54.929688 C 387.242188 54.929688 387.613281 54.964844 388.003906 55.027344 C 388.382812 55.09375 388.769531 55.203125 389.183594 55.332031 Z M 389.183594 55.332031 "/>
<path style="fill-rule:nonzero;fill:rgb(100%,64.705882%,0%);fill-opacity:1;stroke-width:2.5;stroke-linecap:butt;stroke-linejoin:round;stroke:rgb(100%,64.705882%,0%);stroke-opacity:1;stroke-miterlimit:4;" d="M 193.967024 73.111719 L 199.965521 67.111516 M 193.967024 67.111516 L 199.965521 73.111719 " transform="matrix(1.083605,0,0,1.084599,0,0)"/>
<path style=" stroke:none;fill-rule:nonzero;fill:rgb(0%,0%,0%);fill-opacity:1;" d="M 238.574219 74.097656 C 238.8125 73.664062 239.105469 73.347656 239.441406 73.132812 C 239.777344 72.925781 240.175781 72.816406 240.644531 72.816406 C 241.25 72.816406 241.726562 73.035156 242.0625 73.46875 C 242.398438 73.902344 242.570312 74.519531 242.570312 75.3125 L 242.570312 78.890625 L 241.597656 78.890625 L 241.597656 75.34375 C 241.597656 74.78125 241.488281 74.359375 241.292969 74.074219 C 241.085938 73.804688 240.785156 73.664062 240.371094 73.664062 C 239.863281 73.664062 239.460938 73.835938 239.167969 74.171875 C 238.875 74.507812 238.734375 74.964844 238.734375 75.539062 L 238.734375 78.890625 L 237.761719 78.890625 L 237.761719 75.34375 C 237.761719 74.78125 237.652344 74.359375 237.457031 74.074219 C 237.25 73.804688 236.9375 73.664062 236.523438 73.664062 C 236.027344 73.664062 235.625 73.835938 235.332031 74.171875 C 235.039062 74.507812 234.898438 74.964844 234.898438 75.539062 L 234.898438 78.890625 L 233.925781 78.890625 L 233.925781 72.957031 L 234.898438 72.957031 L 234.898438 73.878906 C 235.117188 73.523438 235.386719 73.25 235.703125 73.078125 C 236.003906 72.90625 236.375 72.816406 236.808594 72.816406 C 237.238281 72.816406 237.597656 72.925781 237.902344 73.144531 C 238.203125 73.359375 238.421875 73.683594 238.574219 74.097656 Z M 238.574219 74.097656 "/>
<path style=" stroke:none;fill-rule:nonzero;fill:rgb(0%,0%,0%);fill-opacity:1;" d="M 244.511719 72.957031 L 245.484375 72.957031 L 245.484375 78.890625 L 244.511719 78.890625 Z M 244.511719 70.648438 L 245.484375 70.648438 L 245.484375 71.886719 L 244.511719 71.886719 Z M 244.511719 70.648438 "/>
<path style=" stroke:none;fill-rule:nonzero;fill:rgb(0%,0%,0%);fill-opacity:1;" d="M 252.453125 75.3125 L 252.453125 78.890625 L 251.480469 78.890625 L 251.480469 75.34375 C 251.480469 74.78125 251.359375 74.367188 251.144531 74.085938 C 250.925781 73.804688 250.601562 73.664062 250.167969 73.664062 C 249.636719 73.664062 249.226562 73.835938 248.921875 74.171875 C 248.617188 74.507812 248.464844 74.964844 248.464844 75.539062 L 248.464844 78.890625 L 247.492188 78.890625 L 247.492188 72.957031 L 248.464844 72.957031 L 248.464844 73.878906 C 248.695312 73.535156 248.964844 73.261719 249.289062 73.089844 C 249.605469 72.914062 249.972656 72.816406 250.382812 72.816406 C 251.054688 72.816406 251.578125 73.035156 251.921875 73.457031 C 252.269531 73.878906 252.453125 74.5 252.453125 75.3125 Z M 252.453125 75.3125 "/>
<path style=" stroke:none;fill-rule:nonzero;fill:rgb(0%,0%,0%);fill-opacity:1;" d="M 254.535156 77.546875 L 255.652344 77.546875 L 255.652344 78.890625 L 254.535156 78.890625 Z M 254.535156 77.546875 "/>
<path style=" stroke:none;fill-rule:nonzero;fill:rgb(0%,0%,0%);fill-opacity:1;" d="M 265.1875 73.859375 L 265.1875 70.648438 L 266.160156 70.648438 L 266.160156 78.890625 L 265.1875 78.890625 L 265.1875 78.003906 C 264.980469 78.359375 264.71875 78.621094 264.40625 78.78125 C 264.09375 78.945312 263.722656 79.03125 263.289062 79.03125 C 262.574219 79.03125 261.988281 78.75 261.535156 78.1875 C 261.078125 77.621094 260.863281 76.863281 260.863281 75.929688 C 260.863281 74.996094 261.078125 74.25 261.535156 73.675781 C 261.988281 73.109375 262.574219 72.816406 263.289062 72.816406 C 263.722656 72.816406 264.09375 72.90625 264.40625 73.078125 C 264.71875 73.25 264.980469 73.511719 265.1875 73.859375 Z M 261.871094 75.929688 C 261.871094 76.644531 262.011719 77.210938 262.304688 77.621094 C 262.597656 78.035156 262.996094 78.230469 263.515625 78.230469 C 264.039062 78.230469 264.4375 78.035156 264.742188 77.621094 C 265.035156 77.210938 265.1875 76.644531 265.1875 75.929688 C 265.1875 75.214844 265.035156 74.660156 264.742188 74.25 C 264.4375 73.835938 264.039062 73.632812 263.515625 73.632812 C 262.996094 73.632812 262.597656 73.835938 262.304688 74.25 C 262.011719 74.660156 261.871094 75.214844 261.871094 75.929688 Z M 261.871094 75.929688 "/>
<path style=" stroke:none;fill-rule:nonzero;fill:rgb(0%,0%,0%);fill-opacity:1;" d="M 268.167969 72.957031 L 269.140625 72.957031 L 269.140625 78.890625 L 268.167969 78.890625 Z M 268.167969 70.648438 L 269.140625 70.648438 L 269.140625 71.886719 L 268.167969 71.886719 Z M 268.167969 70.648438 "/>
<path style=" stroke:none;fill-rule:nonzero;fill:rgb(0%,0%,0%);fill-opacity:1;" d="M 274.960938 73.132812 L 274.960938 74.054688 C 274.679688 73.925781 274.398438 73.816406 274.105469 73.738281 C 273.800781 73.675781 273.496094 73.632812 273.183594 73.632812 C 272.695312 73.632812 272.328125 73.707031 272.089844 73.859375 C 271.851562 74.011719 271.730469 74.226562 271.730469 74.519531 C 271.730469 74.75 271.816406 74.921875 271.992188 75.050781 C 272.164062 75.183594 272.511719 75.3125 273.03125 75.421875 L 273.367188 75.496094 C 274.0625 75.648438 274.546875 75.867188 274.839844 76.125 C 275.121094 76.398438 275.273438 76.777344 275.273438 77.253906 C 275.273438 77.808594 275.058594 78.242188 274.625 78.554688 C 274.191406 78.878906 273.585938 79.03125 272.824219 79.03125 C 272.5 79.03125 272.175781 79 271.828125 78.945312 C 271.480469 78.890625 271.125 78.804688 270.746094 78.675781 L 270.746094 77.664062 C 271.101562 77.859375 271.460938 78.003906 271.808594 78.089844 C 272.152344 78.1875 272.5 78.230469 272.847656 78.230469 C 273.300781 78.230469 273.660156 78.152344 273.910156 78.003906 C 274.148438 77.851562 274.277344 77.621094 274.277344 77.328125 C 274.277344 77.070312 274.179688 76.863281 274.007812 76.722656 C 273.832031 76.582031 273.441406 76.441406 272.835938 76.308594 L 272.5 76.234375 C 271.894531 76.105469 271.449219 75.910156 271.1875 75.648438 C 270.917969 75.386719 270.789062 75.03125 270.789062 74.5625 C 270.789062 74.011719 270.984375 73.578125 271.375 73.273438 C 271.765625 72.96875 272.328125 72.816406 273.0625 72.816406 C 273.421875 72.816406 273.757812 72.851562 274.082031 72.90625 C 274.398438 72.957031 274.691406 73.035156 274.960938 73.132812 Z M 274.960938 73.132812 "/>
<path style=" stroke:none;fill-rule:nonzero;fill:rgb(0%,0%,0%);fill-opacity:1;" d="M 277.789062 71.277344 L 277.789062 72.957031 L 279.792969 72.957031 L 279.792969 73.71875 L 277.789062 73.71875 L 277.789062 76.9375 C 277.789062 77.425781 277.855469 77.742188 277.984375 77.871094 C 278.113281 78.011719 278.382812 78.078125 278.796875 78.078125 L 279.792969 78.078125 L 279.792969 78.890625 L 278.796875 78.890625 C 278.039062 78.890625 277.519531 78.75 277.234375 78.46875 C 276.953125 78.1875 276.8125 77.675781 276.8125 76.9375 L 276.8125 73.71875 L 276.097656 73.71875 L 276.097656 72.957031 L 276.8125 72.957031 L 276.8125 71.277344 Z M 277.789062 71.277344 "/>
<path style=" stroke:none;fill-rule:nonzero;fill:rgb(0%,0%,0%);fill-opacity:1;" d="M 283.769531 75.910156 C 282.980469 75.910156 282.4375 76.007812 282.132812 76.179688 C 281.832031 76.363281 281.679688 76.667969 281.679688 77.101562 C 281.679688 77.449219 281.785156 77.730469 282.015625 77.925781 C 282.242188 78.132812 282.554688 78.230469 282.945312 78.230469 C 283.488281 78.230469 283.921875 78.046875 284.246094 77.65625 C 284.570312 77.277344 284.734375 76.765625 284.734375 76.125 L 284.734375 75.910156 Z M 285.710938 75.507812 L 285.710938 78.890625 L 284.734375 78.890625 L 284.734375 77.992188 C 284.507812 78.359375 284.226562 78.621094 283.898438 78.78125 C 283.574219 78.945312 283.164062 79.03125 282.6875 79.03125 C 282.078125 79.03125 281.59375 78.871094 281.234375 78.535156 C 280.875 78.199219 280.703125 77.742188 280.703125 77.167969 C 280.703125 76.503906 280.921875 76.007812 281.375 75.660156 C 281.820312 75.324219 282.480469 75.148438 283.371094 75.148438 L 284.734375 75.148438 L 284.734375 75.050781 C 284.734375 74.605469 284.582031 74.261719 284.289062 74.011719 C 283.996094 73.773438 283.585938 73.640625 283.054688 73.640625 C 282.707031 73.640625 282.382812 73.683594 282.058594 73.773438 C 281.734375 73.859375 281.429688 73.976562 281.136719 74.128906 L 281.136719 73.230469 C 281.484375 73.101562 281.832031 72.992188 282.167969 72.925781 C 282.503906 72.859375 282.828125 72.816406 283.152344 72.816406 C 284.007812 72.816406 284.648438 73.046875 285.070312 73.492188 C 285.492188 73.933594 285.710938 74.605469 285.710938 75.507812 Z M 285.710938 75.507812 "/>
<path style=" stroke:none;fill-rule:nonzero;fill:rgb(0%,0%,0%);fill-opacity:1;" d="M 292.644531 75.3125 L 292.644531 78.890625 L 291.667969 78.890625 L 291.667969 75.34375 C 291.667969 74.78125 291.550781 74.367188 291.332031 74.085938 C 291.117188 73.804688 290.792969 73.664062 290.359375 73.664062 C 289.828125 73.664062 289.414062 73.835938 289.113281 74.171875 C 288.808594 74.507812 288.65625 74.964844 288.65625 75.539062 L 288.65625 78.890625 L 287.683594 78.890625 L 287.683594 72.957031 L 288.65625 72.957031 L 288.65625 73.878906 C 288.882812 73.535156 289.15625 73.261719 289.480469 73.089844 C 289.796875 72.914062 290.164062 72.816406 290.574219 72.816406 C 291.246094 72.816406 291.765625 73.035156 292.113281 73.457031 C 292.460938 73.878906 292.644531 74.5 292.644531 75.3125 Z M 292.644531 75.3125 "/>
<path style=" stroke:none;fill-rule:nonzero;fill:rgb(0%,0%,0%);fill-opacity:1;" d="M 298.855469 73.1875 L 298.855469 74.097656 C 298.570312 73.945312 298.300781 73.835938 298.019531 73.761719 C 297.738281 73.683594 297.46875 73.640625 297.183594 73.640625 C 296.554688 73.640625 296.058594 73.847656 295.710938 74.25 C 295.363281 74.652344 295.191406 75.214844 295.191406 75.929688 C 295.191406 76.65625 295.363281 77.222656 295.710938 77.621094 C 296.058594 78.023438 296.554688 78.21875 297.183594 78.21875 C 297.46875 78.21875 297.738281 78.1875 298.019531 78.109375 C 298.300781 78.035156 298.570312 77.914062 298.855469 77.761719 L 298.855469 78.664062 C 298.570312 78.792969 298.289062 78.890625 298.007812 78.945312 C 297.714844 79 297.402344 79.03125 297.078125 79.03125 C 296.1875 79.03125 295.472656 78.761719 294.953125 78.199219 C 294.421875 77.644531 294.160156 76.886719 294.160156 75.929688 C 294.160156 74.964844 294.421875 74.207031 294.953125 73.652344 C 295.484375 73.101562 296.210938 72.816406 297.140625 72.816406 C 297.445312 72.816406 297.738281 72.851562 298.019531 72.914062 C 298.300781 72.980469 298.582031 73.066406 298.855469 73.1875 Z M 298.855469 73.1875 "/>
<path style=" stroke:none;fill-rule:nonzero;fill:rgb(0%,0%,0%);fill-opacity:1;" d="M 305.617188 75.679688 L 305.617188 76.160156 L 301.140625 76.160156 C 301.183594 76.832031 301.378906 77.351562 301.746094 77.699219 C 302.105469 78.046875 302.601562 78.21875 303.253906 78.21875 C 303.621094 78.21875 303.988281 78.175781 304.335938 78.089844 C 304.683594 78.003906 305.042969 77.859375 305.386719 77.664062 L 305.386719 78.585938 C 305.042969 78.738281 304.683594 78.859375 304.316406 78.925781 C 303.945312 78.988281 303.566406 79.03125 303.199219 79.03125 C 302.246094 79.03125 301.496094 78.761719 300.945312 78.21875 C 300.394531 77.675781 300.121094 76.929688 300.121094 75.984375 C 300.121094 75.019531 300.382812 74.25 300.902344 73.675781 C 301.421875 73.109375 302.136719 72.816406 303.027344 72.816406 C 303.828125 72.816406 304.457031 73.078125 304.921875 73.585938 C 305.378906 74.109375 305.617188 74.800781 305.617188 75.679688 Z M 304.640625 75.398438 C 304.628906 74.867188 304.476562 74.445312 304.195312 74.121094 C 303.902344 73.804688 303.511719 73.640625 303.035156 73.640625 C 302.496094 73.640625 302.0625 73.804688 301.734375 74.109375 C 301.410156 74.414062 301.214844 74.847656 301.171875 75.398438 Z M 304.640625 75.398438 "/>
<path style=" stroke:none;fill-rule:nonzero;fill:rgb(0%,0%,0%);fill-opacity:1;" d="M 310.785156 73.96875 L 317.566406 73.96875 L 317.566406 74.855469 L 310.785156 74.855469 Z M 310.785156 76.125 L 317.566406 76.125 L 317.566406 77.027344 L 310.785156 77.027344 Z M 310.785156 76.125 "/>
<path style=" stroke:none;fill-rule:nonzero;fill:rgb(0%,0%,0%);fill-opacity:1;" d="M 323.507812 77.992188 L 325.25 77.992188 L 325.25 71.960938 L 323.355469 72.339844 L 323.355469 71.363281 L 325.238281 70.984375 L 326.3125 70.984375 L 326.3125 77.992188 L 328.058594 77.992188 L 328.058594 78.890625 L 323.507812 78.890625 Z M 323.507812 77.992188 "/>
<path style=" stroke:none;fill-rule:nonzero;fill:rgb(0%,0%,0%);fill-opacity:1;" d="M 330.398438 77.992188 L 332.140625 77.992188 L 332.140625 71.960938 L 330.246094 72.339844 L 330.246094 71.363281 L 332.132812 70.984375 L 333.203125 70.984375 L 333.203125 77.992188 L 334.949219 77.992188 L 334.949219 78.890625 L 330.398438 78.890625 Z M 330.398438 77.992188 "/>
<path style=" stroke:none;fill-rule:nonzero;fill:rgb(0%,0%,0%);fill-opacity:1;" d="M 337.105469 77.546875 L 338.222656 77.546875 L 338.222656 78.890625 L 337.105469 78.890625 Z M 337.105469 77.546875 "/>
<path style=" stroke:none;fill-rule:nonzero;fill:rgb(0%,0%,0%);fill-opacity:1;" d="M 340.734375 77.992188 L 342.480469 77.992188 L 342.480469 71.960938 L 340.582031 72.339844 L 340.582031 71.363281 L 342.46875 70.984375 L 343.542969 70.984375 L 343.542969 77.992188 L 345.285156 77.992188 L 345.285156 78.890625 L 340.734375 78.890625 Z M 340.734375 77.992188 "/>
<path style=" stroke:none;fill-rule:nonzero;fill:rgb(0%,0%,0%);fill-opacity:1;" d="M 350.683594 74.628906 C 351.191406 74.738281 351.59375 74.964844 351.875 75.3125 C 352.15625 75.660156 352.308594 76.09375 352.308594 76.59375 C 352.308594 77.375 352.039062 77.980469 351.507812 78.402344 C 350.964844 78.828125 350.207031 79.03125 349.21875 79.03125 C 348.882812 79.03125 348.539062 79 348.191406 78.933594 C 347.84375 78.878906 347.476562 78.78125 347.105469 78.652344 L 347.105469 77.621094 C 347.398438 77.796875 347.722656 77.925781 348.082031 78.011719 C 348.429688 78.101562 348.796875 78.144531 349.1875 78.144531 C 349.859375 78.144531 350.367188 78.011719 350.714844 77.753906 C 351.0625 77.492188 351.246094 77.101562 351.246094 76.59375 C 351.246094 76.136719 351.082031 75.769531 350.757812 75.507812 C 350.433594 75.246094 349.976562 75.105469 349.394531 75.105469 L 348.472656 75.105469 L 348.472656 74.226562 L 349.4375 74.226562 C 349.957031 74.226562 350.359375 74.128906 350.640625 73.914062 C 350.921875 73.707031 351.0625 73.402344 351.0625 73.003906 C 351.0625 72.601562 350.910156 72.285156 350.628906 72.070312 C 350.335938 71.851562 349.925781 71.742188 349.394531 71.742188 C 349.101562 71.742188 348.785156 71.777344 348.449219 71.839844 C 348.113281 71.90625 347.746094 72.003906 347.34375 72.132812 L 347.34375 71.179688 C 347.746094 71.070312 348.125 70.984375 348.484375 70.929688 C 348.828125 70.875 349.164062 70.84375 349.492188 70.84375 C 350.292969 70.84375 350.933594 71.027344 351.410156 71.398438 C 351.886719 71.765625 352.125 72.265625 352.125 72.894531 C 352.125 73.328125 351.992188 73.695312 351.746094 74 C 351.496094 74.304688 351.136719 74.519531 350.683594 74.628906 Z M 350.683594 74.628906 "/>
<path style=" stroke:none;fill-rule:nonzero;fill:rgb(0%,0%,0%);fill-opacity:1;" d="M 362.253906 74.097656 C 362.492188 73.664062 362.785156 73.347656 363.121094 73.132812 C 363.457031 72.925781 363.859375 72.816406 364.324219 72.816406 C 364.933594 72.816406 365.410156 73.035156 365.746094 73.46875 C 366.082031 73.902344 366.253906 74.519531 366.253906 75.3125 L 366.253906 78.890625 L 365.277344 78.890625 L 365.277344 75.34375 C 365.277344 74.78125 365.171875 74.359375 364.976562 74.074219 C 364.769531 73.804688 364.464844 73.664062 364.054688 73.664062 C 363.546875 73.664062 363.144531 73.835938 362.851562 74.171875 C 362.558594 74.507812 362.417969 74.964844 362.417969 75.539062 L 362.417969 78.890625 L 361.441406 78.890625 L 361.441406 75.34375 C 361.441406 74.78125 361.335938 74.359375 361.140625 74.074219 C 360.933594 73.804688 360.621094 73.664062 360.207031 73.664062 C 359.710938 73.664062 359.308594 73.835938 359.015625 74.171875 C 358.722656 74.507812 358.582031 74.964844 358.582031 75.539062 L 358.582031 78.890625 L 357.605469 78.890625 L 357.605469 72.957031 L 358.582031 72.957031 L 358.582031 73.878906 C 358.800781 73.523438 359.070312 73.25 359.382812 73.078125 C 359.6875 72.90625 360.054688 72.816406 360.488281 72.816406 C 360.921875 72.816406 361.28125 72.925781 361.582031 73.144531 C 361.886719 73.359375 362.105469 73.683594 362.253906 74.097656 Z M 362.253906 74.097656 "/>
</g>
</svg>
