<?xml version="1.0" encoding="UTF-8"?>
<svg xmlns="http://www.w3.org/2000/svg" xmlns:xlink="http://www.w3.org/1999/xlink" width="500px" height="px" viewBox="0 0 499 375" version="1.1">
<g id="surface1">
<path style=" stroke:none;fill-rule:nonzero;fill:rgb(100%,100%,100%);fill-opacity:1;" d="M 1.542969 375.488281 L 500.324219 375.488281 L 500.324219 0.921875 L 1.542969 0.921875 Z M 1.542969 375.488281 "/>
<path style=" stroke:none;fill-rule:nonzero;fill:rgb(100%,100%,100%);fill-opacity:1;" d="M 111.601562 333.363281 L 399.648438 333.363281 L 399.648438 44.949219 L 111.601562 44.949219 Z M 111.601562 333.363281 "/>
<path style="fill:none;stroke-width:0.8;stroke-linecap:butt;stroke-linejoin:round;stroke:rgb(0%,0%,0%);stroke-opacity:1;stroke-miterlimit:4;" d="M 112.510936 307.583188 L 112.510936 311.082833 " transform="matrix(1.08243,0,0,1.083815,0,0)"/>
<path style=" stroke:none;fill-rule:nonzero;fill:rgb(0%,0%,0%);fill-opacity:1;" d="M 121.785156 341.984375 C 121.234375 341.984375 120.820312 342.253906 120.539062 342.796875 C 120.257812 343.339844 120.128906 344.152344 120.128906 345.234375 C 120.128906 346.320312 120.257812 347.132812 120.539062 347.675781 C 120.820312 348.214844 121.234375 348.488281 121.785156 348.488281 C 122.335938 348.488281 122.75 348.214844 123.03125 347.675781 C 123.300781 347.132812 123.441406 346.320312 123.441406 345.234375 C 123.441406 344.152344 123.300781 343.339844 123.03125 342.796875 C 122.75 342.253906 122.335938 341.984375 121.785156 341.984375 Z M 121.785156 341.140625 C 122.660156 341.140625 123.332031 341.496094 123.808594 342.191406 C 124.273438 342.894531 124.511719 343.914062 124.511719 345.234375 C 124.511719 346.570312 124.273438 347.589844 123.808594 348.28125 C 123.332031 348.976562 122.660156 349.320312 121.773438 349.320312 C 120.886719 349.320312 120.214844 348.976562 119.75 348.28125 C 119.285156 347.589844 119.058594 346.570312 119.058594 345.234375 C 119.058594 343.914062 119.285156 342.894531 119.75 342.191406 C 120.214844 341.496094 120.898438 341.140625 121.785156 341.140625 Z M 121.785156 341.140625 "/>
<path style="fill:none;stroke-width:0.8;stroke-linecap:butt;stroke-linejoin:round;stroke:rgb(0%,0%,0%);stroke-opacity:1;stroke-miterlimit:4;" d="M 157.783082 307.583188 L 157.783082 311.082833 " transform="matrix(1.08243,0,0,1.083815,0,0)"/>
<path style=" stroke:none;fill-rule:nonzero;fill:rgb(0%,0%,0%);fill-opacity:1;" d="M 168.515625 341.28125 L 172.707031 341.28125 L 172.707031 342.179688 L 169.492188 342.179688 L 169.492188 344.121094 C 169.644531 344.066406 169.804688 344.023438 169.957031 344 C 170.109375 343.980469 170.269531 343.957031 170.421875 343.957031 C 171.296875 343.957031 171.992188 344.207031 172.511719 344.683594 C 173.03125 345.171875 173.289062 345.820312 173.289062 346.644531 C 173.289062 347.5 173.019531 348.164062 172.488281 348.628906 C 171.960938 349.09375 171.210938 349.320312 170.257812 349.320312 C 169.925781 349.320312 169.589844 349.289062 169.242188 349.246094 C 168.894531 349.191406 168.550781 349.117188 168.179688 348.996094 L 168.179688 347.925781 C 168.496094 348.097656 168.820312 348.226562 169.167969 348.3125 C 169.503906 348.402344 169.859375 348.433594 170.238281 348.433594 C 170.84375 348.433594 171.332031 348.28125 171.6875 347.957031 C 172.035156 347.632812 172.21875 347.199219 172.21875 346.644531 C 172.21875 346.101562 172.035156 345.667969 171.6875 345.34375 C 171.332031 345.019531 170.84375 344.855469 170.238281 344.855469 C 169.957031 344.855469 169.664062 344.890625 169.382812 344.953125 C 169.101562 345.019531 168.808594 345.117188 168.515625 345.246094 Z M 168.515625 341.28125 "/>
<path style="fill:none;stroke-width:0.8;stroke-linecap:butt;stroke-linejoin:round;stroke:rgb(0%,0%,0%);stroke-opacity:1;stroke-miterlimit:4;" d="M 203.055228 307.583188 L 203.055228 311.082833 " transform="matrix(1.08243,0,0,1.083815,0,0)"/>
<path style=" stroke:none;fill-rule:nonzero;fill:rgb(0%,0%,0%);fill-opacity:1;" d="M 214.253906 348.28125 L 215.996094 348.28125 L 215.996094 342.253906 L 214.101562 342.636719 L 214.101562 341.660156 L 215.984375 341.28125 L 217.054688 341.28125 L 217.054688 348.28125 L 218.800781 348.28125 L 218.800781 349.179688 L 214.253906 349.179688 Z M 214.253906 348.28125 "/>
<path style=" stroke:none;fill-rule:nonzero;fill:rgb(0%,0%,0%);fill-opacity:1;" d="M 223.238281 341.984375 C 222.683594 341.984375 222.273438 342.253906 221.992188 342.796875 C 221.710938 343.339844 221.582031 344.152344 221.582031 345.234375 C 221.582031 346.320312 221.710938 347.132812 221.992188 347.675781 C 222.273438 348.214844 222.683594 348.488281 223.238281 348.488281 C 223.789062 348.488281 224.199219 348.214844 224.480469 347.675781 C 224.753906 347.132812 224.894531 346.320312 224.894531 345.234375 C 224.894531 344.152344 224.753906 343.339844 224.480469 342.796875 C 224.199219 342.253906 223.789062 341.984375 223.238281 341.984375 Z M 223.238281 341.140625 C 224.113281 341.140625 224.785156 341.496094 225.261719 342.191406 C 225.726562 342.894531 225.964844 343.914062 225.964844 345.234375 C 225.964844 346.570312 225.726562 347.589844 225.261719 348.28125 C 224.785156 348.976562 224.113281 349.320312 223.226562 349.320312 C 222.339844 349.320312 221.667969 348.976562 221.203125 348.28125 C 220.738281 347.589844 220.507812 346.570312 220.507812 345.234375 C 220.507812 343.914062 220.738281 342.894531 221.203125 342.191406 C 221.667969 341.496094 222.347656 341.140625 223.238281 341.140625 Z M 223.238281 341.140625 "/>
<path style="fill:none;stroke-width:0.8;stroke-linecap:butt;stroke-linejoin:round;stroke:rgb(0%,0%,0%);stroke-opacity:1;stroke-miterlimit:4;" d="M 248.330982 307.583188 L 248.330982 311.082833 " transform="matrix(1.08243,0,0,1.083815,0,0)"/>
<path style=" stroke:none;fill-rule:nonzero;fill:rgb(0%,0%,0%);fill-opacity:1;" d="M 263.257812 348.28125 L 265 348.28125 L 265 342.253906 L 263.105469 342.636719 L 263.105469 341.660156 L 264.988281 341.28125 L 266.0625 341.28125 L 266.0625 348.28125 L 267.804688 348.28125 L 267.804688 349.179688 L 263.257812 349.179688 Z M 263.257812 348.28125 "/>
<path style=" stroke:none;fill-rule:nonzero;fill:rgb(0%,0%,0%);fill-opacity:1;" d="M 269.96875 341.28125 L 274.15625 341.28125 L 274.15625 342.179688 L 270.941406 342.179688 L 270.941406 344.121094 C 271.09375 344.066406 271.257812 344.023438 271.410156 344 C 271.558594 343.980469 271.722656 343.957031 271.875 343.957031 C 272.75 343.957031 273.441406 344.207031 273.964844 344.683594 C 274.484375 345.171875 274.742188 345.820312 274.742188 346.644531 C 274.742188 347.5 274.472656 348.164062 273.941406 348.628906 C 273.410156 349.09375 272.664062 349.320312 271.710938 349.320312 C 271.375 349.320312 271.039062 349.289062 270.695312 349.246094 C 270.347656 349.191406 270 349.117188 269.632812 348.996094 L 269.632812 347.925781 C 269.945312 348.097656 270.273438 348.226562 270.617188 348.3125 C 270.953125 348.402344 271.3125 348.433594 271.691406 348.433594 C 272.296875 348.433594 272.78125 348.28125 273.140625 347.957031 C 273.488281 347.632812 273.671875 347.199219 273.671875 346.644531 C 273.671875 346.101562 273.488281 345.667969 273.140625 345.34375 C 272.78125 345.019531 272.296875 344.855469 271.691406 344.855469 C 271.410156 344.855469 271.117188 344.890625 270.835938 344.953125 C 270.554688 345.019531 270.261719 345.117188 269.96875 345.246094 Z M 269.96875 341.28125 "/>
<path style="fill:none;stroke-width:0.8;stroke-linecap:butt;stroke-linejoin:round;stroke:rgb(0%,0%,0%);stroke-opacity:1;stroke-miterlimit:4;" d="M 293.603128 307.583188 L 293.603128 311.082833 " transform="matrix(1.08243,0,0,1.083815,0,0)"/>
<path style=" stroke:none;fill-rule:nonzero;fill:rgb(0%,0%,0%);fill-opacity:1;" d="M 313 348.28125 L 316.722656 348.28125 L 316.722656 349.179688 L 311.710938 349.179688 L 311.710938 348.28125 C 312.109375 347.871094 312.664062 347.304688 313.367188 346.589844 C 314.058594 345.886719 314.503906 345.429688 314.6875 345.226562 C 315.035156 344.847656 315.273438 344.519531 315.402344 344.25 C 315.53125 343.988281 315.605469 343.71875 315.605469 343.457031 C 315.605469 343.046875 315.457031 342.699219 315.164062 342.441406 C 314.871094 342.179688 314.492188 342.039062 314.015625 342.039062 C 313.679688 342.039062 313.324219 342.105469 312.957031 342.210938 C 312.585938 342.332031 312.1875 342.503906 311.765625 342.742188 L 311.765625 341.660156 C 312.199219 341.484375 312.597656 341.355469 312.964844 341.269531 C 313.335938 341.183594 313.679688 341.140625 313.996094 341.140625 C 314.804688 341.140625 315.457031 341.34375 315.941406 341.757812 C 316.429688 342.167969 316.679688 342.710938 316.679688 343.394531 C 316.679688 343.71875 316.613281 344.035156 316.496094 344.316406 C 316.375 344.609375 316.160156 344.953125 315.835938 345.34375 C 315.746094 345.453125 315.464844 345.746094 314.988281 346.234375 C 314.515625 346.722656 313.855469 347.402344 313 348.28125 Z M 313 348.28125 "/>
<path style=" stroke:none;fill-rule:nonzero;fill:rgb(0%,0%,0%);fill-opacity:1;" d="M 321.246094 341.984375 C 320.695312 341.984375 320.285156 342.253906 320 342.796875 C 319.71875 343.339844 319.589844 344.152344 319.589844 345.234375 C 319.589844 346.320312 319.71875 347.132812 320 347.675781 C 320.285156 348.214844 320.695312 348.488281 321.246094 348.488281 C 321.796875 348.488281 322.210938 348.214844 322.492188 347.675781 C 322.761719 347.132812 322.902344 346.320312 322.902344 345.234375 C 322.902344 344.152344 322.761719 343.339844 322.492188 342.796875 C 322.210938 342.253906 321.796875 341.984375 321.246094 341.984375 Z M 321.246094 341.140625 C 322.125 341.140625 322.792969 341.496094 323.269531 342.191406 C 323.734375 342.894531 323.972656 343.914062 323.972656 345.234375 C 323.972656 346.570312 323.734375 347.589844 323.269531 348.28125 C 322.792969 348.976562 322.125 349.320312 321.234375 349.320312 C 320.347656 349.320312 319.675781 348.976562 319.210938 348.28125 C 318.746094 347.589844 318.519531 346.570312 318.519531 345.234375 C 318.519531 343.914062 318.746094 342.894531 319.210938 342.191406 C 319.675781 341.496094 320.359375 341.140625 321.246094 341.140625 Z M 321.246094 341.140625 "/>
<path style="fill:none;stroke-width:0.8;stroke-linecap:butt;stroke-linejoin:round;stroke:rgb(0%,0%,0%);stroke-opacity:1;stroke-miterlimit:4;" d="M 338.875274 307.583188 L 338.875274 311.082833 " transform="matrix(1.08243,0,0,1.083815,0,0)"/>
<path style=" stroke:none;fill-rule:nonzero;fill:rgb(0%,0%,0%);fill-opacity:1;" d="M 362.003906 348.28125 L 365.726562 348.28125 L 365.726562 349.179688 L 360.714844 349.179688 L 360.714844 348.28125 C 361.117188 347.871094 361.667969 347.304688 362.371094 346.589844 C 363.0625 345.886719 363.507812 345.429688 363.691406 345.226562 C 364.039062 344.847656 364.277344 344.519531 364.40625 344.25 C 364.535156 343.988281 364.613281 343.71875 364.613281 343.457031 C 364.613281 343.046875 364.460938 342.699219 364.167969 342.441406 C 363.875 342.179688 363.496094 342.039062 363.019531 342.039062 C 362.683594 342.039062 362.328125 342.105469 361.960938 342.210938 C 361.59375 342.332031 361.191406 342.503906 360.769531 342.742188 L 360.769531 341.660156 C 361.203125 341.484375 361.601562 341.355469 361.972656 341.269531 C 362.339844 341.183594 362.683594 341.140625 363 341.140625 C 363.8125 341.140625 364.460938 341.34375 364.949219 341.757812 C 365.433594 342.167969 365.683594 342.710938 365.683594 343.394531 C 365.683594 343.71875 365.617188 344.035156 365.5 344.316406 C 365.378906 344.609375 365.164062 344.953125 364.839844 345.34375 C 364.753906 345.453125 364.472656 345.746094 363.996094 346.234375 C 363.519531 346.722656 362.859375 347.402344 362.003906 348.28125 Z M 362.003906 348.28125 "/>
<path style=" stroke:none;fill-rule:nonzero;fill:rgb(0%,0%,0%);fill-opacity:1;" d="M 367.976562 341.28125 L 372.167969 341.28125 L 372.167969 342.179688 L 368.953125 342.179688 L 368.953125 344.121094 C 369.105469 344.066406 369.265625 344.023438 369.417969 344 C 369.570312 343.980469 369.730469 343.957031 369.882812 343.957031 C 370.761719 343.957031 371.453125 344.207031 371.972656 344.683594 C 372.492188 345.171875 372.75 345.820312 372.75 346.644531 C 372.75 347.5 372.480469 348.164062 371.949219 348.628906 C 371.421875 349.09375 370.671875 349.320312 369.722656 349.320312 C 369.386719 349.320312 369.050781 349.289062 368.703125 349.246094 C 368.355469 349.191406 368.011719 349.117188 367.644531 348.996094 L 367.644531 347.925781 C 367.957031 348.097656 368.28125 348.226562 368.628906 348.3125 C 368.964844 348.402344 369.320312 348.433594 369.699219 348.433594 C 370.304688 348.433594 370.792969 348.28125 371.148438 347.957031 C 371.496094 347.632812 371.679688 347.199219 371.679688 346.644531 C 371.679688 346.101562 371.496094 345.667969 371.148438 345.34375 C 370.792969 345.019531 370.304688 344.855469 369.699219 344.855469 C 369.417969 344.855469 369.125 344.890625 368.84375 344.953125 C 368.5625 345.019531 368.269531 345.117188 367.976562 345.246094 Z M 367.976562 341.28125 "/>
<path style=" stroke:none;fill-rule:nonzero;fill:rgb(0%,0%,0%);fill-opacity:1;" d="M 233.542969 356.097656 L 240.210938 356.097656 L 240.210938 356.996094 L 237.40625 356.996094 L 237.40625 364 L 236.335938 364 L 236.335938 356.996094 L 233.542969 356.996094 Z M 233.542969 356.097656 "/>
<path style=" stroke:none;fill-rule:nonzero;fill:rgb(0%,0%,0%);fill-opacity:1;" d="M 240.871094 358.070312 L 241.847656 358.070312 L 241.847656 364 L 240.871094 364 Z M 240.871094 355.761719 L 241.847656 355.761719 L 241.847656 356.996094 L 240.871094 356.996094 Z M 240.871094 355.761719 "/>
<path style=" stroke:none;fill-rule:nonzero;fill:rgb(0%,0%,0%);fill-opacity:1;" d="M 248.492188 359.207031 C 248.730469 358.773438 249.023438 358.460938 249.359375 358.246094 C 249.695312 358.039062 250.09375 357.929688 250.5625 357.929688 C 251.167969 357.929688 251.644531 358.148438 251.980469 358.582031 C 252.3125 359.015625 252.488281 359.632812 252.488281 360.421875 L 252.488281 364 L 251.511719 364 L 251.511719 360.457031 C 251.511719 359.890625 251.40625 359.46875 251.210938 359.1875 C 251.003906 358.917969 250.703125 358.773438 250.289062 358.773438 C 249.78125 358.773438 249.382812 358.949219 249.089844 359.285156 C 248.796875 359.621094 248.65625 360.074219 248.65625 360.648438 L 248.65625 364 L 247.679688 364 L 247.679688 360.457031 C 247.679688 359.890625 247.574219 359.46875 247.378906 359.1875 C 247.171875 358.917969 246.859375 358.773438 246.449219 358.773438 C 245.949219 358.773438 245.550781 358.949219 245.257812 359.285156 C 244.964844 359.621094 244.824219 360.074219 244.824219 360.648438 L 244.824219 364 L 243.851562 364 L 243.851562 358.070312 L 244.824219 358.070312 L 244.824219 358.992188 C 245.039062 358.632812 245.3125 358.363281 245.625 358.191406 C 245.929688 358.015625 246.296875 357.929688 246.730469 357.929688 C 247.160156 357.929688 247.519531 358.039062 247.820312 358.253906 C 248.125 358.472656 248.34375 358.796875 248.492188 359.207031 Z M 248.492188 359.207031 "/>
<path style=" stroke:none;fill-rule:nonzero;fill:rgb(0%,0%,0%);fill-opacity:1;" d="M 259.492188 360.792969 L 259.492188 361.269531 L 255.019531 361.269531 C 255.0625 361.941406 255.257812 362.460938 255.625 362.808594 C 255.984375 363.152344 256.480469 363.328125 257.132812 363.328125 C 257.5 363.328125 257.867188 363.285156 258.214844 363.195312 C 258.558594 363.109375 258.917969 362.96875 259.261719 362.773438 L 259.261719 363.695312 C 258.917969 363.847656 258.558594 363.964844 258.191406 364.03125 C 257.824219 364.097656 257.445312 364.140625 257.078125 364.140625 C 256.125 364.140625 255.378906 363.871094 254.824219 363.328125 C 254.273438 362.785156 254.003906 362.039062 254.003906 361.09375 C 254.003906 360.128906 254.261719 359.359375 254.78125 358.785156 C 255.300781 358.222656 256.015625 357.929688 256.902344 357.929688 C 257.703125 357.929688 258.332031 358.191406 258.796875 358.699219 C 259.253906 359.21875 259.492188 359.914062 259.492188 360.792969 Z M 258.515625 360.507812 C 258.503906 359.976562 258.355469 359.554688 258.074219 359.230469 C 257.78125 358.917969 257.390625 358.753906 256.914062 358.753906 C 256.375 358.753906 255.941406 358.917969 255.617188 359.21875 C 255.289062 359.523438 255.097656 359.957031 255.054688 360.507812 Z M 258.515625 360.507812 "/>
<path style=" stroke:none;fill-rule:nonzero;fill:rgb(0%,0%,0%);fill-opacity:1;" d="M 264.4375 355.761719 L 266.679688 355.761719 L 266.679688 356.519531 L 265.410156 356.519531 L 265.410156 364.660156 L 266.679688 364.660156 L 266.679688 365.417969 L 264.4375 365.417969 Z M 264.4375 355.761719 "/>
<path style=" stroke:none;fill-rule:nonzero;fill:rgb(0%,0%,0%);fill-opacity:1;" d="M 272.523438 358.246094 L 272.523438 359.164062 C 272.242188 359.035156 271.960938 358.925781 271.667969 358.851562 C 271.363281 358.785156 271.0625 358.742188 270.75 358.742188 C 270.261719 358.742188 269.894531 358.820312 269.65625 358.96875 C 269.417969 359.121094 269.296875 359.339844 269.296875 359.632812 C 269.296875 359.859375 269.382812 360.03125 269.558594 360.164062 C 269.730469 360.292969 270.078125 360.421875 270.597656 360.53125 L 270.933594 360.605469 C 271.625 360.757812 272.113281 360.976562 272.402344 361.234375 C 272.6875 361.507812 272.835938 361.886719 272.835938 362.363281 C 272.835938 362.914062 272.621094 363.347656 272.1875 363.664062 C 271.753906 363.988281 271.148438 364.140625 270.390625 364.140625 C 270.066406 364.140625 269.742188 364.109375 269.394531 364.054688 C 269.046875 364 268.691406 363.914062 268.3125 363.78125 L 268.3125 362.773438 C 268.667969 362.96875 269.027344 363.109375 269.375 363.195312 C 269.71875 363.292969 270.066406 363.339844 270.414062 363.339844 C 270.867188 363.339844 271.222656 363.261719 271.472656 363.109375 C 271.710938 362.957031 271.839844 362.730469 271.839844 362.4375 C 271.839844 362.179688 271.742188 361.972656 271.570312 361.832031 C 271.398438 361.691406 271.007812 361.550781 270.402344 361.417969 L 270.066406 361.34375 C 269.460938 361.214844 269.015625 361.019531 268.757812 360.757812 C 268.484375 360.5 268.355469 360.140625 268.355469 359.675781 C 268.355469 359.121094 268.550781 358.6875 268.941406 358.386719 C 269.332031 358.082031 269.894531 357.929688 270.628906 357.929688 C 270.984375 357.929688 271.320312 357.960938 271.648438 358.015625 C 271.960938 358.070312 272.253906 358.148438 272.523438 358.246094 Z M 272.523438 358.246094 "/>
<path style=" stroke:none;fill-rule:nonzero;fill:rgb(0%,0%,0%);fill-opacity:1;" d="M 276.65625 355.761719 L 276.65625 365.417969 L 274.417969 365.417969 L 274.417969 364.660156 L 275.683594 364.660156 L 275.683594 356.519531 L 274.417969 356.519531 L 274.417969 355.761719 Z M 276.65625 355.761719 "/>
<path style="fill:none;stroke-width:0.8;stroke-linecap:butt;stroke-linejoin:round;stroke:rgb(0%,0%,0%);stroke-opacity:1;stroke-miterlimit:4;" d="M 103.102846 275.206958 L 99.60233 275.206958 " transform="matrix(1.08243,0,0,1.083815,0,0)"/>
<path style=" stroke:none;fill-rule:nonzero;fill:rgb(0%,0%,0%);fill-opacity:1;" d="M 98.484375 301.488281 L 100.226562 301.488281 L 100.226562 295.460938 L 98.332031 295.839844 L 98.332031 294.867188 L 100.214844 294.488281 L 101.289062 294.488281 L 101.289062 301.488281 L 103.03125 301.488281 L 103.03125 302.386719 L 98.484375 302.386719 Z M 98.484375 301.488281 "/>
<path style="fill:none;stroke-width:0.8;stroke-linecap:butt;stroke-linejoin:round;stroke:rgb(0%,0%,0%);stroke-opacity:1;stroke-miterlimit:4;" d="M 103.102846 230.879312 L 99.60233 230.879312 " transform="matrix(1.08243,0,0,1.083815,0,0)"/>
<path style=" stroke:none;fill-rule:nonzero;fill:rgb(0%,0%,0%);fill-opacity:1;" d="M 99.222656 253.445312 L 102.945312 253.445312 L 102.945312 254.34375 L 97.933594 254.34375 L 97.933594 253.445312 C 98.332031 253.03125 98.886719 252.46875 99.589844 251.753906 C 100.28125 251.050781 100.726562 250.59375 100.910156 250.386719 C 101.257812 250.007812 101.492188 249.683594 101.625 249.414062 C 101.753906 249.152344 101.828125 248.882812 101.828125 248.621094 C 101.828125 248.210938 101.679688 247.863281 101.386719 247.601562 C 101.09375 247.34375 100.714844 247.203125 100.238281 247.203125 C 99.902344 247.203125 99.546875 247.265625 99.175781 247.375 C 98.808594 247.496094 98.410156 247.667969 97.988281 247.90625 L 97.988281 246.824219 C 98.417969 246.648438 98.820312 246.519531 99.1875 246.433594 C 99.554688 246.347656 99.902344 246.300781 100.214844 246.300781 C 101.027344 246.300781 101.679688 246.507812 102.164062 246.921875 C 102.652344 247.332031 102.902344 247.875 102.902344 248.558594 C 102.902344 248.882812 102.835938 249.195312 102.71875 249.476562 C 102.597656 249.769531 102.382812 250.117188 102.058594 250.507812 C 101.96875 250.617188 101.6875 250.910156 101.210938 251.394531 C 100.734375 251.882812 100.074219 252.566406 99.222656 253.445312 Z M 99.222656 253.445312 "/>
<path style="fill:none;stroke-width:0.8;stroke-linecap:butt;stroke-linejoin:round;stroke:rgb(0%,0%,0%);stroke-opacity:1;stroke-miterlimit:4;" d="M 103.102846 186.551667 L 99.60233 186.551667 " transform="matrix(1.08243,0,0,1.083815,0,0)"/>
<path style=" stroke:none;fill-rule:nonzero;fill:rgb(0%,0%,0%);fill-opacity:1;" d="M 101.539062 202.042969 C 102.046875 202.152344 102.445312 202.378906 102.726562 202.726562 C 103.007812 203.070312 103.160156 203.503906 103.160156 204.003906 C 103.160156 204.785156 102.890625 205.390625 102.359375 205.8125 C 101.820312 206.238281 101.0625 206.441406 100.074219 206.441406 C 99.742188 206.441406 99.394531 206.410156 99.046875 206.34375 C 98.703125 206.292969 98.332031 206.195312 97.964844 206.0625 L 97.964844 205.035156 C 98.257812 205.207031 98.582031 205.335938 98.941406 205.425781 C 99.285156 205.511719 99.652344 205.554688 100.042969 205.554688 C 100.714844 205.554688 101.222656 205.425781 101.570312 205.164062 C 101.917969 204.902344 102.101562 204.515625 102.101562 204.003906 C 102.101562 203.550781 101.9375 203.179688 101.613281 202.921875 C 101.289062 202.660156 100.832031 202.519531 100.25 202.519531 L 99.328125 202.519531 L 99.328125 201.640625 L 100.292969 201.640625 C 100.8125 201.640625 101.210938 201.542969 101.492188 201.328125 C 101.777344 201.121094 101.917969 200.816406 101.917969 200.417969 C 101.917969 200.015625 101.765625 199.703125 101.484375 199.484375 C 101.191406 199.269531 100.78125 199.160156 100.25 199.160156 C 99.957031 199.160156 99.644531 199.191406 99.308594 199.257812 C 98.972656 199.320312 98.605469 199.417969 98.203125 199.550781 L 98.203125 198.597656 C 98.605469 198.488281 98.984375 198.402344 99.339844 198.347656 C 99.6875 198.292969 100.023438 198.261719 100.347656 198.261719 C 101.148438 198.261719 101.785156 198.445312 102.261719 198.8125 C 102.738281 199.179688 102.976562 199.679688 102.976562 200.308594 C 102.976562 200.742188 102.847656 201.109375 102.597656 201.414062 C 102.347656 201.71875 101.992188 201.933594 101.539062 202.042969 Z M 101.539062 202.042969 "/>
<path style="fill:none;stroke-width:0.8;stroke-linecap:butt;stroke-linejoin:round;stroke:rgb(0%,0%,0%);stroke-opacity:1;stroke-miterlimit:4;" d="M 103.102846 142.224021 L 99.60233 142.224021 " transform="matrix(1.08243,0,0,1.083815,0,0)"/>
<path style=" stroke:none;fill-rule:nonzero;fill:rgb(0%,0%,0%);fill-opacity:1;" d="M 101.234375 151.289062 L 98.539062 155.503906 L 101.234375 155.503906 Z M 100.953125 150.359375 L 102.296875 150.359375 L 102.296875 155.503906 L 103.421875 155.503906 L 103.421875 156.394531 L 102.296875 156.394531 L 102.296875 158.257812 L 101.234375 158.257812 L 101.234375 156.394531 L 97.671875 156.394531 L 97.671875 155.363281 Z M 100.953125 150.359375 "/>
<path style="fill:none;stroke-width:0.8;stroke-linecap:butt;stroke-linejoin:round;stroke:rgb(0%,0%,0%);stroke-opacity:1;stroke-miterlimit:4;" d="M 103.102846 97.896375 L 99.60233 97.896375 " transform="matrix(1.08243,0,0,1.083815,0,0)"/>
<path style=" stroke:none;fill-rule:nonzero;fill:rgb(0%,0%,0%);fill-opacity:1;" d="M 98.3125 102.3125 L 102.5 102.3125 L 102.5 103.214844 L 99.285156 103.214844 L 99.285156 105.152344 C 99.4375 105.101562 99.601562 105.054688 99.75 105.035156 C 99.902344 105.011719 100.066406 104.992188 100.214844 104.992188 C 101.09375 104.992188 101.785156 105.242188 102.304688 105.71875 C 102.824219 106.207031 103.085938 106.855469 103.085938 107.679688 C 103.085938 108.535156 102.816406 109.195312 102.285156 109.664062 C 101.753906 110.128906 101.007812 110.355469 100.054688 110.355469 C 99.71875 110.355469 99.382812 110.324219 99.035156 110.28125 C 98.691406 110.226562 98.34375 110.148438 97.976562 110.03125 L 97.976562 108.957031 C 98.289062 109.132812 98.613281 109.261719 98.960938 109.347656 C 99.296875 109.433594 99.652344 109.46875 100.03125 109.46875 C 100.640625 109.46875 101.125 109.316406 101.484375 108.992188 C 101.828125 108.664062 102.011719 108.230469 102.011719 107.679688 C 102.011719 107.136719 101.828125 106.703125 101.484375 106.378906 C 101.125 106.054688 100.640625 105.890625 100.03125 105.890625 C 99.75 105.890625 99.460938 105.921875 99.175781 105.988281 C 98.894531 106.054688 98.605469 106.152344 98.3125 106.28125 Z M 98.3125 102.3125 "/>
<path style="fill:none;stroke-width:0.8;stroke-linecap:butt;stroke-linejoin:round;stroke:rgb(0%,0%,0%);stroke-opacity:1;stroke-miterlimit:4;" d="M 103.102846 53.568729 L 99.60233 53.568729 " transform="matrix(1.08243,0,0,1.083815,0,0)"/>
<path style=" stroke:none;fill-rule:nonzero;fill:rgb(0%,0%,0%);fill-opacity:1;" d="M 100.714844 57.792969 C 100.238281 57.792969 99.859375 57.96875 99.578125 58.292969 C 99.296875 58.617188 99.15625 59.074219 99.15625 59.636719 C 99.15625 60.210938 99.296875 60.667969 99.578125 60.992188 C 99.859375 61.316406 100.238281 61.480469 100.714844 61.480469 C 101.191406 61.480469 101.570312 61.316406 101.851562 60.992188 C 102.132812 60.667969 102.273438 60.210938 102.273438 59.636719 C 102.273438 59.074219 102.132812 58.617188 101.851562 58.292969 C 101.570312 57.96875 101.191406 57.792969 100.714844 57.792969 Z M 102.835938 54.445312 L 102.835938 55.421875 C 102.566406 55.289062 102.296875 55.191406 102.023438 55.128906 C 101.742188 55.0625 101.472656 55.03125 101.210938 55.03125 C 100.5 55.03125 99.957031 55.269531 99.589844 55.746094 C 99.222656 56.222656 99.003906 56.949219 98.960938 57.902344 C 99.167969 57.597656 99.425781 57.359375 99.742188 57.199219 C 100.054688 57.035156 100.402344 56.949219 100.78125 56.949219 C 101.570312 56.949219 102.199219 57.199219 102.652344 57.675781 C 103.105469 58.152344 103.34375 58.8125 103.34375 59.636719 C 103.34375 60.449219 103.097656 61.101562 102.621094 61.585938 C 102.144531 62.074219 101.503906 62.3125 100.714844 62.3125 C 99.804688 62.3125 99.101562 61.96875 98.625 61.273438 C 98.136719 60.578125 97.898438 59.5625 97.898438 58.226562 C 97.898438 56.980469 98.191406 55.984375 98.789062 55.246094 C 99.371094 54.511719 100.171875 54.132812 101.167969 54.132812 C 101.429688 54.132812 101.699219 54.164062 101.980469 54.207031 C 102.25 54.261719 102.53125 54.335938 102.835938 54.445312 Z M 102.835938 54.445312 "/>
<path style=" stroke:none;fill-rule:nonzero;fill:rgb(0%,0%,0%);fill-opacity:1;" d="M 89.675781 213.199219 L 92.804688 213.199219 L 92.804688 214.175781 L 84.640625 214.175781 L 84.640625 213.199219 L 85.539062 213.199219 C 85.195312 213.003906 84.933594 212.746094 84.761719 212.429688 C 84.585938 212.117188 84.5 211.734375 84.5 211.304688 C 84.5 210.585938 84.792969 210.003906 85.355469 209.546875 C 85.929688 209.101562 86.675781 208.875 87.609375 208.875 C 88.539062 208.875 89.296875 209.101562 89.859375 209.546875 C 90.421875 210.003906 90.703125 210.585938 90.703125 211.304688 C 90.703125 211.734375 90.617188 212.117188 90.453125 212.429688 C 90.292969 212.746094 90.03125 213.003906 89.675781 213.199219 Z M 87.609375 209.882812 C 86.894531 209.882812 86.339844 210.035156 85.929688 210.328125 C 85.519531 210.628906 85.3125 211.03125 85.3125 211.542969 C 85.3125 212.0625 85.519531 212.460938 85.929688 212.753906 C 86.339844 213.058594 86.894531 213.199219 87.609375 213.199219 C 88.320312 213.199219 88.886719 213.058594 89.296875 212.753906 C 89.707031 212.460938 89.902344 212.0625 89.902344 211.542969 C 89.902344 211.03125 89.707031 210.628906 89.296875 210.328125 C 88.886719 210.035156 88.320312 209.882812 87.609375 209.882812 Z M 87.609375 209.882812 "/>
<path style=" stroke:none;fill-rule:nonzero;fill:rgb(0%,0%,0%);fill-opacity:1;" d="M 87.359375 202.1875 L 87.835938 202.1875 L 87.835938 206.664062 C 88.507812 206.621094 89.027344 206.425781 89.371094 206.058594 C 89.71875 205.699219 89.890625 205.199219 89.890625 204.550781 C 89.890625 204.183594 89.847656 203.8125 89.761719 203.464844 C 89.675781 203.121094 89.535156 202.761719 89.339844 202.414062 L 90.257812 202.414062 C 90.410156 202.761719 90.53125 203.121094 90.59375 203.488281 C 90.660156 203.855469 90.703125 204.234375 90.703125 204.605469 C 90.703125 205.558594 90.433594 206.304688 89.890625 206.859375 C 89.351562 207.410156 88.601562 207.683594 87.660156 207.683594 C 86.699219 207.683594 85.929688 207.421875 85.355469 206.902344 C 84.792969 206.382812 84.5 205.667969 84.5 204.777344 C 84.5 203.976562 84.761719 203.347656 85.269531 202.882812 C 85.789062 202.425781 86.480469 202.1875 87.359375 202.1875 Z M 87.078125 203.164062 C 86.546875 203.175781 86.125 203.324219 85.800781 203.609375 C 85.484375 203.898438 85.324219 204.289062 85.324219 204.765625 C 85.324219 205.308594 85.484375 205.742188 85.789062 206.066406 C 86.09375 206.394531 86.523438 206.589844 87.078125 206.632812 Z M 87.078125 203.164062 "/>
<path style=" stroke:none;fill-rule:nonzero;fill:rgb(0%,0%,0%);fill-opacity:1;" d="M 87.359375 195.523438 L 87.835938 195.523438 L 87.835938 200 C 88.507812 199.957031 89.027344 199.761719 89.371094 199.390625 C 89.71875 199.035156 89.890625 198.535156 89.890625 197.886719 C 89.890625 197.515625 89.847656 197.148438 89.761719 196.800781 C 89.675781 196.453125 89.535156 196.097656 89.339844 195.75 L 90.257812 195.75 C 90.410156 196.097656 90.53125 196.453125 90.59375 196.824219 C 90.660156 197.191406 90.703125 197.570312 90.703125 197.9375 C 90.703125 198.894531 90.433594 199.640625 89.890625 200.195312 C 89.351562 200.746094 88.601562 201.015625 87.660156 201.015625 C 86.699219 201.015625 85.929688 200.757812 85.355469 200.238281 C 84.792969 199.714844 84.5 199 84.5 198.113281 C 84.5 197.3125 84.761719 196.683594 85.269531 196.214844 C 85.789062 195.761719 86.480469 195.523438 87.359375 195.523438 Z M 87.078125 196.496094 C 86.546875 196.507812 86.125 196.660156 85.800781 196.941406 C 85.484375 197.234375 85.324219 197.625 85.324219 198.101562 C 85.324219 198.644531 85.484375 199.078125 85.789062 199.402344 C 86.09375 199.726562 86.523438 199.921875 87.078125 199.964844 Z M 87.078125 196.496094 "/>
<path style=" stroke:none;fill-rule:nonzero;fill:rgb(0%,0%,0%);fill-opacity:1;" d="M 85.539062 190.027344 L 82.335938 190.027344 L 82.335938 189.050781 L 90.5625 189.050781 L 90.5625 190.027344 L 89.675781 190.027344 C 90.03125 190.234375 90.292969 190.492188 90.453125 190.808594 C 90.617188 191.121094 90.703125 191.492188 90.703125 191.925781 C 90.703125 192.640625 90.421875 193.226562 89.859375 193.679688 C 89.296875 194.136719 88.539062 194.351562 87.609375 194.351562 C 86.675781 194.351562 85.929688 194.136719 85.355469 193.679688 C 84.792969 193.226562 84.5 192.640625 84.5 191.925781 C 84.5 191.492188 84.585938 191.121094 84.761719 190.808594 C 84.933594 190.492188 85.195312 190.234375 85.539062 190.027344 Z M 87.609375 193.34375 C 88.320312 193.34375 88.886719 193.203125 89.296875 192.910156 C 89.707031 192.617188 89.902344 192.214844 89.902344 191.695312 C 89.902344 191.175781 89.707031 190.773438 89.296875 190.472656 C 88.886719 190.179688 88.320312 190.027344 87.609375 190.027344 C 86.894531 190.027344 86.339844 190.179688 85.929688 190.472656 C 85.519531 190.773438 85.3125 191.175781 85.3125 191.695312 C 85.3125 192.214844 85.519531 192.617188 85.929688 192.910156 C 86.339844 193.203125 86.894531 193.34375 87.609375 193.34375 Z M 87.609375 193.34375 "/>
<path style=" stroke:none;fill-rule:nonzero;fill:rgb(0%,0%,0%);fill-opacity:1;" d="M 82.335938 183.6875 L 82.335938 181.445312 L 83.09375 181.445312 L 83.09375 182.710938 L 91.222656 182.710938 L 91.222656 181.445312 L 91.980469 181.445312 L 91.980469 183.6875 Z M 82.335938 183.6875 "/>
<path style=" stroke:none;fill-rule:nonzero;fill:rgb(0%,0%,0%);fill-opacity:1;" d="M 85.777344 174.757812 C 85.34375 174.519531 85.03125 174.226562 84.816406 173.890625 C 84.609375 173.554688 84.5 173.152344 84.5 172.6875 C 84.5 172.078125 84.71875 171.601562 85.152344 171.265625 C 85.582031 170.929688 86.199219 170.757812 86.992188 170.757812 L 90.5625 170.757812 L 90.5625 171.734375 L 87.023438 171.734375 C 86.460938 171.734375 86.039062 171.839844 85.757812 172.035156 C 85.484375 172.242188 85.34375 172.546875 85.34375 172.957031 C 85.34375 173.464844 85.519531 173.867188 85.855469 174.160156 C 86.191406 174.453125 86.644531 174.59375 87.21875 174.59375 L 90.5625 174.59375 L 90.5625 175.570312 L 87.023438 175.570312 C 86.460938 175.570312 86.039062 175.679688 85.757812 175.871094 C 85.484375 176.078125 85.34375 176.394531 85.34375 176.804688 C 85.34375 177.304688 85.519531 177.703125 85.855469 177.996094 C 86.191406 178.289062 86.644531 178.429688 87.21875 178.429688 L 90.5625 178.429688 L 90.5625 179.40625 L 84.640625 179.40625 L 84.640625 178.429688 L 85.5625 178.429688 C 85.203125 178.214844 84.933594 177.941406 84.761719 177.628906 C 84.585938 177.324219 84.5 176.957031 84.5 176.523438 C 84.5 176.089844 84.609375 175.730469 84.824219 175.429688 C 85.042969 175.125 85.367188 174.910156 85.777344 174.757812 Z M 85.777344 174.757812 "/>
<path style=" stroke:none;fill-rule:nonzero;fill:rgb(0%,0%,0%);fill-opacity:1;" d="M 82.671875 167.082031 L 82.671875 166.183594 L 91.558594 168.9375 L 91.558594 169.835938 Z M 82.671875 167.082031 "/>
<path style=" stroke:none;fill-rule:nonzero;fill:rgb(0%,0%,0%);fill-opacity:1;" d="M 84.816406 161.382812 L 85.734375 161.382812 C 85.605469 161.664062 85.496094 161.945312 85.421875 162.238281 C 85.355469 162.542969 85.3125 162.84375 85.3125 163.160156 C 85.3125 163.648438 85.386719 164.015625 85.539062 164.253906 C 85.691406 164.492188 85.90625 164.613281 86.199219 164.613281 C 86.425781 164.613281 86.601562 164.523438 86.730469 164.351562 C 86.859375 164.179688 86.992188 163.832031 87.097656 163.3125 L 87.175781 162.976562 C 87.324219 162.28125 87.542969 161.792969 87.800781 161.5 C 88.074219 161.21875 88.453125 161.066406 88.929688 161.066406 C 89.480469 161.066406 89.914062 161.285156 90.226562 161.71875 C 90.550781 162.152344 90.703125 162.757812 90.703125 163.515625 C 90.703125 163.84375 90.671875 164.167969 90.617188 164.515625 C 90.5625 164.859375 90.476562 165.21875 90.347656 165.597656 L 89.339844 165.597656 C 89.535156 165.242188 89.675781 164.882812 89.761719 164.535156 C 89.859375 164.1875 89.902344 163.84375 89.902344 163.496094 C 89.902344 163.039062 89.828125 162.683594 89.675781 162.433594 C 89.523438 162.195312 89.296875 162.066406 89.003906 162.066406 C 88.742188 162.066406 88.539062 162.164062 88.398438 162.335938 C 88.257812 162.507812 88.117188 162.898438 87.988281 163.507812 L 87.910156 163.84375 C 87.78125 164.449219 87.585938 164.894531 87.324219 165.152344 C 87.066406 165.425781 86.710938 165.554688 86.242188 165.554688 C 85.691406 165.554688 85.257812 165.359375 84.957031 164.96875 C 84.652344 164.578125 84.5 164.015625 84.5 163.277344 C 84.5 162.921875 84.535156 162.585938 84.585938 162.261719 C 84.640625 161.945312 84.71875 161.652344 84.816406 161.382812 Z M 84.816406 161.382812 "/>
<path style=" stroke:none;fill-rule:nonzero;fill:rgb(0%,0%,0%);fill-opacity:1;" d="M 82.335938 157.242188 L 91.980469 157.242188 L 91.980469 159.484375 L 91.222656 159.484375 L 91.222656 158.21875 L 83.09375 158.21875 L 83.09375 159.484375 L 82.335938 159.484375 Z M 82.335938 157.242188 "/>
<path style="fill:none;stroke-width:2.5;stroke-linecap:square;stroke-linejoin:round;stroke:rgb(0%,50.196078%,50.196078%);stroke-opacity:1;stroke-miterlimit:4;" d="M 115.199477 295.487604 L 115.924842 284.02275 L 117.184306 265.421646 L 117.436921 263.111375 L 117.906062 256.267063 L 118.631427 247.934229 L 118.894868 246.063667 L 119.18357 242.354979 L 120.305901 232.591292 L 120.616256 229.6575 L 121.908199 221.663458 L 122.153596 220.755208 L 122.453125 218.949521 L 123.546585 214.667771 L 123.82807 214.091104 L 124.228645 212.321458 L 124.625611 211.258229 L 125.15971 209.708438 L 125.412325 209.185833 L 125.686592 208.173062 L 126.274823 206.774646 L 126.798096 205.271708 L 129.695947 198.117437 L 129.995475 197.731792 L 130.24809 197.039792 L 131.117806 195.421521 L 132.947457 193.11125 L 134.92146 191.492979 L 135.545779 191.172208 L 135.852525 190.937938 L 136.776373 190.415333 L 138.551893 189.388146 L 138.930815 189.200729 L 140.388762 188.443854 L 140.940905 188.205979 L 142.373591 187.686979 L 145.278659 187.193208 L 147.07944 186.9265 L 149.226664 186.490396 L 153.40924 186.097542 L 153.961384 186.115562 L 154.495483 186.148 L 155.047627 186.129979 L 157.003585 186.029062 L 157.555729 185.946167 L 158.281093 185.913729 L 160.489667 185.794792 L 161.196988 185.827229 L 166.60294 185.823625 L 166.992689 185.910125 L 168.955865 185.823625 L 170.287505 185.928146 L 171.139177 185.924542 L 172.586298 185.910125 L 173.892676 185.960583 L 174.726304 185.910125 L 182.023257 186.129979 L 182.918235 186.097542 L 184.729842 186.115562 L 186.559494 186.212875 L 187.111637 186.349833 L 190.171883 186.248917 L 191.113774 186.248917 L 191.60096 186.216479 L 192.163929 186.281354 L 192.968687 186.248917 L 193.650747 186.331812 L 194.372503 186.331812 L 194.672032 186.349833 L 196.71821 186.284958 L 197.13322 186.299375 L 197.241483 186.245312 L 198.111199 186.483187 L 198.656125 186.468771 L 201.932897 186.335417 L 204.451826 186.551667 L 206.822794 186.45075 L 207.919863 186.382271 L 208.472007 186.385875 L 210.26557 186.418312 L 211.016196 186.652583 L 212.102439 186.551667 L 212.816978 186.551667 L 214.43732 186.587708 L 214.964202 186.721062 L 217.54448 186.656187 L 217.681613 186.584104 L 218.421413 186.688625 L 218.847249 186.7535 L 218.955513 186.688625 L 219.933492 186.785937 L 220.233021 186.688625 L 220.593899 186.652583 L 221.348134 186.620146 L 221.481659 186.519229 L 221.68375 186.620146 L 222.42355 186.587708 L 224.036675 186.486792 L 224.397553 186.515625 L 227.894461 186.486792 L 228.374429 186.486792 L 229.096185 186.454354 L 233.722641 186.385875 L 233.81286 185.474021 L 233.968038 185.841646 L 234.628444 186.180437 L 234.902712 186.349833 L 235.624468 186.721062 L 237.064371 186.922896 L 237.501033 186.821979 L 238.352705 186.890458 L 238.883196 186.789542 L 239.038374 186.890458 L 239.835914 186.789542 L 239.998309 185.762354 L 240.254533 185.3695 L 240.377231 184.908167 L 241.174771 183.534979 L 241.791873 182.2555 L 244.299975 176.135625 L 245.205779 174.982292 L 245.855359 174.683146 L 246.483287 175.166104 L 246.609594 175.310271 L 247.262783 177.382667 L 247.594791 178.337771 L 248.193849 179.797458 L 248.702687 181.7365 L 249.236786 183.801687 L 249.734798 185.005479 L 250.084849 185.841646 L 250.359117 186.220083 L 250.629775 187.034625 L 251.553623 188.580813 L 252.015547 188.897979 L 252.849175 189.946792 L 253.607019 190.195479 L 253.762196 190.242333 L 254.469517 197.187562 L 254.649956 197.137104 L 254.830395 196.884812 L 255.209317 195.958542 L 255.357277 195.911687 L 256.3533 195.01425 L 256.76831 193.839292 L 257.601938 191.694812 L 257.847335 191.611917 L 258.623223 189.672875 L 259.175366 194.909729 L 259.456851 194.603375 L 260.236348 192.977896 L 260.651357 196.679375 L 261.131325 195.886458 L 261.539117 199.584333 L 262.462965 206.504333 L 262.906845 205.206833 L 263.30742 203.512875 L 263.711603 201.779271 L 264.538014 197.789458 L 265.187594 202.691125 L 266.475928 193.626646 L 267.071377 197.641687 L 268.359712 187.604083 L 269.87179 172.055708 L 270.31567 166.271021 L 270.755942 162.623604 L 271.362217 165.196979 L 271.697833 167.532479 L 272.459286 160.039417 L 273.635748 149.313417 L 273.80897 149.745917 L 274.018279 149.735104 L 274.216762 148.570958 L 274.408027 145.907479 L 275.339092 139.045146 L 276.533598 127.295563 L 276.851171 128.539 L 277.872456 116.832667 L 278.33438 113.394292 L 279.323185 102.754792 L 279.774283 99.406521 L 280.78835 90.010458 L 281.134793 87.476729 L 281.47041 82.784104 L 282.02977 77.943708 L 282.264341 75.467646 L 282.690177 82.182208 L 283.462456 96.415062 L 283.740332 98.581167 L 284.184212 105.284917 L 284.519829 109.862208 L 285.988602 125.435812 L 287.064019 135.84825 L 288.514748 151.162354 L 288.850365 153.011292 L 289.146285 156.251438 L 289.979913 162.966 L 290.3444 165.25825 L 290.604232 166.285438 L 291.221333 170.311292 L 291.845652 173.111729 L 292.116311 175.03275 L 292.841676 178.889208 L 293.292773 180.961604 L 293.603128 183.080854 L 294.480062 188.757417 L 297.186647 205.246479 L 297.450088 206.089854 L 297.912012 208.400125 L 298.846686 211.269042 L 299.561224 212.847667 L 299.904058 213.3955 L 300.467028 213.979375 L 301.354788 214.422687 L 301.932193 214.411875 L 302.256983 214.339792 L 303.162787 213.763125 L 304.811999 211.175333 L 305.407448 209.874229 L 305.688933 208.836229 L 306.533387 206.396208 L 307.699023 200.5935 L 308.442432 197.248833 L 308.886312 195.655792 L 309.138926 194.059146 L 311.311412 185.892104 L 312.390437 181.804979 L 313.523594 178.132333 L 314.028823 176.207708 L 315.331593 171.807021 L 315.840431 169.788687 L 316.13996 169.269688 L 316.428662 168.314583 L 316.764279 167.489229 L 317.316422 166.5125 L 318.059831 165.51775 L 318.59393 165.049208 L 319.680173 164.681583 L 320.358623 164.573458 L 320.748372 164.670771 L 320.928811 164.638333 L 321.506216 164.883417 L 322.004227 165.135708 L 322.195493 165.142917 L 322.386758 165.279875 L 322.614111 165.297896 L 322.920857 165.521354 L 323.112123 165.481708 L 323.454957 165.683542 L 324.169495 165.885375 L 325.140257 166.436813 L 325.609398 166.876521 L 325.836752 166.955813 L 325.963059 167.125208 L 326.933821 167.644208 L 327.998411 168.736271 L 328.734602 169.446292 L 329.676494 170.350937 L 331.794848 171.839458 L 332.509386 172.120583 L 332.754783 172.239521 L 333.85907 172.470187 L 335.768114 172.333229 L 336.157863 172.315208 L 337.388457 172.00525 L 337.742117 171.907938 L 337.96947 172.008854 L 338.485526 171.976417 L 338.864448 172.080938 L 339.553725 172.318813 L 340.09865 172.589125 L 340.813189 173.025229 L 341.022498 173.230667 L 341.264286 173.230667 L 341.376159 173.4325 L 341.737037 173.56225 L 342.632014 173.454125 L 343.166113 173.551437 L 344.2704 173.641542 L 344.624061 173.598292 L 345.367469 174.261458 L 345.901569 174.520958 L 347.168251 175.057979 L 347.594087 175.216562 L 349.459826 176.114 L 349.759355 176.398729 L 352.411808 177.678208 L 353.126346 177.429521 L 354.039368 177.544854 L 354.577076 177.516021 L 355.92676 177.696229 L 356.031414 177.822375 L 357.121266 178.042229 " transform="matrix(1.08243,0,0,1.083815,0,0)"/>
<path style="fill:none;stroke-width:2.5;stroke-linecap:butt;stroke-linejoin:round;stroke:rgb(100%,0%,0%);stroke-opacity:1;stroke-dasharray:9.25,4;stroke-miterlimit:4;" d="M 115.199477 186.551667 L 253.10179 186.551667 L 253.264185 175.468854 L 253.444624 186.551667 L 253.607019 186.551667 L 253.762196 175.468854 L 253.917374 175.468854 L 254.123074 186.551667 L 254.267425 175.468854 L 255.357277 175.468854 L 255.664023 164.386042 L 255.855289 175.468854 L 256.115121 164.386042 L 257.140014 164.386042 L 257.385411 153.303229 L 257.601938 164.386042 L 257.847335 153.303229 L 258.623223 153.303229 L 258.814488 142.224021 L 258.969666 153.303229 L 259.456851 153.303229 L 259.691422 142.224021 L 259.882687 153.303229 L 260.091996 142.224021 L 260.236348 142.224021 L 260.427613 153.303229 L 260.651357 142.224021 L 262.073217 142.224021 L 262.275308 131.141208 L 262.462965 131.141208 L 262.679492 142.224021 L 262.906845 131.141208 L 264.166309 131.141208 L 264.346748 120.058396 L 264.538014 131.141208 L 264.772584 131.141208 L 264.971067 120.058396 L 265.187594 120.058396 L 265.378859 131.141208 L 265.588169 120.058396 L 266.901764 120.058396 L 267.071377 108.979187 L 268.359712 108.979187 L 268.522107 97.896375 L 268.738634 108.979187 L 268.984031 97.896375 L 269.182513 108.979187 L 269.362952 108.979187 L 269.554218 97.896375 L 270.312062 97.896375 L 270.568285 86.813563 L 270.755942 97.896375 L 271.181778 97.896375 L 271.362217 86.813563 L 271.510177 97.896375 L 271.697833 97.896375 L 271.925186 86.813563 L 272.812946 86.813563 L 272.993385 64.651542 L 273.372307 64.651542 L 273.635748 75.73075 L 273.80897 53.568729 L 274.018279 53.568729 L 274.216762 64.651542 L 274.408027 53.568729 L 274.642598 53.568729 L 274.830254 64.651542 L 275.075651 53.568729 L 275.339092 64.651542 L 275.555619 64.651542 L 275.739667 53.568729 L 281.02653 53.568729 L 281.196142 186.551667 L 357.121266 186.551667 " transform="matrix(1.08243,0,0,1.083815,0,0)"/>
<path style="fill:none;stroke-width:0.8;stroke-linecap:square;stroke-linejoin:miter;stroke:rgb(0%,0%,0%);stroke-opacity:1;stroke-miterlimit:10;" d="M 103.102846 307.583188 L 103.102846 41.473146 M 369.214288 307.583188 L 369.214288 41.473146 M 103.102846 307.583188 L 369.214288 307.583188 M 103.102846 41.473146 L 369.214288 41.473146 " transform="matrix(1.08243,0,0,1.083815,0,0)"/>
<path style="fill-rule:nonzero;fill:rgb(100%,100%,100%);fill-opacity:0.8;stroke-width:1;stroke-linecap:butt;stroke-linejoin:miter;stroke:rgb(83.529412%,83.921569%,83.529412%);stroke-opacity:0.8;stroke-miterlimit:10;" d="M 110.10388 78.815917 L 238.948154 78.815917 C 240.279794 78.815917 240.947418 78.149146 240.947418 76.815604 L 240.947418 48.472437 C 240.947418 47.138896 240.279794 46.472125 238.948154 46.472125 L 110.10388 46.472125 C 108.77224 46.472125 108.104615 47.138896 108.104615 48.472437 L 108.104615 76.815604 C 108.104615 78.149146 108.77224 78.815917 110.10388 78.815917 Z M 110.10388 78.815917 " transform="matrix(1.08243,0,0,1.083815,0,0)"/>
<path style="fill:none;stroke-width:2.5;stroke-linecap:square;stroke-linejoin:round;stroke:rgb(0%,50.196078%,50.196078%);stroke-opacity:1;stroke-miterlimit:4;" d="M 112.103144 54.567083 L 132.103003 54.567083 " transform="matrix(1.08243,0,0,1.083815,0,0)"/>
<path style=" stroke:none;fill-rule:nonzero;fill:rgb(0%,0%,0%);fill-opacity:1;" d="M 158.625 55.640625 L 158.625 56.765625 C 158.253906 56.441406 157.875 56.191406 157.464844 56.019531 C 157.054688 55.855469 156.632812 55.769531 156.175781 55.769531 C 155.269531 55.769531 154.574219 56.050781 154.097656 56.601562 C 153.621094 57.15625 153.382812 57.945312 153.382812 58.988281 C 153.382812 60.027344 153.621094 60.832031 154.097656 61.382812 C 154.574219 61.9375 155.269531 62.207031 156.175781 62.207031 C 156.632812 62.207031 157.054688 62.128906 157.464844 61.957031 C 157.875 61.792969 158.253906 61.546875 158.625 61.210938 L 158.625 62.324219 C 158.246094 62.585938 157.84375 62.769531 157.433594 62.890625 C 157.023438 63.007812 156.578125 63.074219 156.113281 63.074219 C 154.921875 63.074219 153.980469 62.714844 153.289062 61.988281 C 152.59375 61.265625 152.257812 60.265625 152.257812 58.988281 C 152.257812 57.71875 152.59375 56.722656 153.289062 55.984375 C 153.980469 55.257812 154.921875 54.890625 156.113281 54.890625 C 156.589844 54.890625 157.03125 54.957031 157.445312 55.074219 C 157.855469 55.207031 158.253906 55.390625 158.625 55.640625 Z M 158.625 55.640625 "/>
<path style=" stroke:none;fill-rule:nonzero;fill:rgb(0%,0%,0%);fill-opacity:1;" d="M 160.128906 60.589844 L 160.128906 57.003906 L 161.101562 57.003906 L 161.101562 60.558594 C 161.101562 61.121094 161.210938 61.535156 161.425781 61.816406 C 161.644531 62.097656 161.96875 62.238281 162.410156 62.238281 C 162.929688 62.238281 163.355469 62.078125 163.65625 61.742188 C 163.960938 61.40625 164.113281 60.949219 164.113281 60.363281 L 164.113281 57.003906 L 165.085938 57.003906 L 165.085938 62.933594 L 164.113281 62.933594 L 164.113281 62.023438 C 163.875 62.390625 163.59375 62.652344 163.289062 62.824219 C 162.976562 62.988281 162.617188 63.074219 162.207031 63.074219 C 161.523438 63.074219 161.003906 62.867188 160.660156 62.445312 C 160.300781 62.035156 160.128906 61.414062 160.128906 60.589844 Z M 162.574219 56.863281 Z M 162.574219 56.863281 "/>
<path style=" stroke:none;fill-rule:nonzero;fill:rgb(0%,0%,0%);fill-opacity:1;" d="M 170.519531 57.914062 C 170.410156 57.851562 170.292969 57.804688 170.164062 57.773438 C 170.03125 57.753906 169.890625 57.730469 169.738281 57.730469 C 169.1875 57.730469 168.765625 57.914062 168.472656 58.273438 C 168.171875 58.628906 168.03125 59.140625 168.03125 59.8125 L 168.03125 62.933594 L 167.054688 62.933594 L 167.054688 57.003906 L 168.03125 57.003906 L 168.03125 57.925781 C 168.226562 57.566406 168.496094 57.296875 168.820312 57.125 C 169.144531 56.949219 169.546875 56.863281 170.023438 56.863281 C 170.085938 56.863281 170.164062 56.875 170.25 56.875 C 170.324219 56.886719 170.410156 56.894531 170.519531 56.917969 Z M 170.519531 57.914062 "/>
<path style=" stroke:none;fill-rule:nonzero;fill:rgb(0%,0%,0%);fill-opacity:1;" d="M 174.78125 57.914062 C 174.671875 57.851562 174.554688 57.804688 174.425781 57.773438 C 174.296875 57.753906 174.152344 57.730469 174.003906 57.730469 C 173.449219 57.730469 173.027344 57.914062 172.734375 58.273438 C 172.433594 58.628906 172.292969 59.140625 172.292969 59.8125 L 172.292969 62.933594 L 171.316406 62.933594 L 171.316406 57.003906 L 172.292969 57.003906 L 172.292969 57.925781 C 172.488281 57.566406 172.757812 57.296875 173.082031 57.125 C 173.40625 56.949219 173.808594 56.863281 174.285156 56.863281 C 174.347656 56.863281 174.425781 56.875 174.511719 56.875 C 174.585938 56.886719 174.671875 56.894531 174.78125 56.917969 Z M 174.78125 57.914062 "/>
<path style=" stroke:none;fill-rule:nonzero;fill:rgb(0%,0%,0%);fill-opacity:1;" d="M 180.628906 59.726562 L 180.628906 60.203125 L 176.15625 60.203125 C 176.199219 60.875 176.394531 61.394531 176.765625 61.742188 C 177.121094 62.085938 177.617188 62.261719 178.269531 62.261719 C 178.636719 62.261719 179.003906 62.21875 179.351562 62.128906 C 179.699219 62.042969 180.054688 61.902344 180.402344 61.707031 L 180.402344 62.628906 C 180.054688 62.78125 179.699219 62.898438 179.328125 62.964844 C 178.960938 63.03125 178.582031 63.074219 178.214844 63.074219 C 177.261719 63.074219 176.515625 62.804688 175.964844 62.261719 C 175.410156 61.71875 175.140625 60.972656 175.140625 60.027344 C 175.140625 59.0625 175.398438 58.292969 175.917969 57.71875 C 176.4375 57.15625 177.152344 56.863281 178.042969 56.863281 C 178.84375 56.863281 179.46875 57.125 179.933594 57.632812 C 180.390625 58.152344 180.628906 58.847656 180.628906 59.726562 Z M 179.652344 59.441406 C 179.644531 58.910156 179.492188 58.488281 179.210938 58.164062 C 178.917969 57.851562 178.527344 57.6875 178.050781 57.6875 C 177.511719 57.6875 177.078125 57.851562 176.753906 58.152344 C 176.429688 58.457031 176.234375 58.890625 176.191406 59.441406 Z M 179.652344 59.441406 "/>
<path style=" stroke:none;fill-rule:nonzero;fill:rgb(0%,0%,0%);fill-opacity:1;" d="M 187.144531 59.355469 L 187.144531 62.933594 L 186.171875 62.933594 L 186.171875 59.390625 C 186.171875 58.824219 186.050781 58.414062 185.835938 58.132812 C 185.617188 57.851562 185.292969 57.707031 184.859375 57.707031 C 184.332031 57.707031 183.917969 57.882812 183.617188 58.21875 C 183.3125 58.554688 183.160156 59.007812 183.160156 59.582031 L 183.160156 62.933594 L 182.1875 62.933594 L 182.1875 57.003906 L 183.160156 57.003906 L 183.160156 57.925781 C 183.386719 57.578125 183.660156 57.308594 183.984375 57.132812 C 184.296875 56.960938 184.664062 56.863281 185.078125 56.863281 C 185.75 56.863281 186.269531 57.082031 186.613281 57.503906 C 186.960938 57.925781 187.144531 58.542969 187.144531 59.355469 Z M 187.144531 59.355469 "/>
<path style=" stroke:none;fill-rule:nonzero;fill:rgb(0%,0%,0%);fill-opacity:1;" d="M 190.046875 55.324219 L 190.046875 57.003906 L 192.046875 57.003906 L 192.046875 57.761719 L 190.046875 57.761719 L 190.046875 60.980469 C 190.046875 61.46875 190.109375 61.785156 190.238281 61.914062 C 190.371094 62.054688 190.640625 62.121094 191.050781 62.121094 L 192.046875 62.121094 L 192.046875 62.933594 L 191.050781 62.933594 C 190.292969 62.933594 189.773438 62.792969 189.492188 62.511719 C 189.210938 62.226562 189.070312 61.71875 189.070312 60.980469 L 189.070312 57.761719 L 188.355469 57.761719 L 188.355469 57.003906 L 189.070312 57.003906 L 189.070312 55.324219 Z M 190.046875 55.324219 "/>
<path style=" stroke:none;fill-rule:nonzero;fill:rgb(0%,0%,0%);fill-opacity:1;" d="M 200.546875 57.179688 L 200.546875 58.097656 C 200.261719 57.96875 199.980469 57.859375 199.691406 57.785156 C 199.386719 57.71875 199.082031 57.675781 198.769531 57.675781 C 198.28125 57.675781 197.914062 57.753906 197.675781 57.902344 C 197.4375 58.054688 197.320312 58.273438 197.320312 58.566406 C 197.320312 58.792969 197.40625 58.964844 197.578125 59.097656 C 197.753906 59.226562 198.097656 59.355469 198.617188 59.464844 L 198.953125 59.539062 C 199.648438 59.691406 200.132812 59.910156 200.425781 60.167969 C 200.707031 60.441406 200.859375 60.820312 200.859375 61.296875 C 200.859375 61.847656 200.640625 62.28125 200.210938 62.597656 C 199.777344 62.921875 199.171875 63.074219 198.414062 63.074219 C 198.085938 63.074219 197.761719 63.042969 197.417969 62.988281 C 197.070312 62.933594 196.714844 62.847656 196.335938 62.714844 L 196.335938 61.707031 C 196.691406 61.902344 197.046875 62.042969 197.394531 62.128906 C 197.742188 62.226562 198.085938 62.273438 198.433594 62.273438 C 198.890625 62.273438 199.246094 62.195312 199.496094 62.042969 C 199.734375 61.890625 199.863281 61.664062 199.863281 61.371094 C 199.863281 61.113281 199.765625 60.90625 199.59375 60.765625 C 199.417969 60.625 199.03125 60.484375 198.421875 60.351562 L 198.085938 60.277344 C 197.480469 60.148438 197.039062 59.953125 196.777344 59.691406 C 196.507812 59.433594 196.378906 59.074219 196.378906 58.609375 C 196.378906 58.054688 196.574219 57.621094 196.960938 57.320312 C 197.351562 57.015625 197.914062 56.863281 198.652344 56.863281 C 199.007812 56.863281 199.34375 56.894531 199.667969 56.949219 C 199.980469 57.003906 200.273438 57.082031 200.546875 57.179688 Z M 200.546875 57.179688 "/>
<path style=" stroke:none;fill-rule:nonzero;fill:rgb(0%,0%,0%);fill-opacity:1;" d="M 203.347656 62.042969 L 203.347656 65.175781 L 202.375 65.175781 L 202.375 57.003906 L 203.347656 57.003906 L 203.347656 57.902344 C 203.542969 57.558594 203.804688 57.296875 204.117188 57.125 C 204.429688 56.949219 204.808594 56.863281 205.242188 56.863281 C 205.957031 56.863281 206.542969 57.15625 206.996094 57.71875 C 207.441406 58.292969 207.667969 59.042969 207.667969 59.972656 C 207.667969 60.90625 207.441406 61.664062 206.996094 62.226562 C 206.542969 62.792969 205.957031 63.074219 205.242188 63.074219 C 204.808594 63.074219 204.429688 62.988281 204.117188 62.824219 C 203.804688 62.660156 203.542969 62.402344 203.347656 62.042969 Z M 206.660156 59.972656 C 206.660156 59.257812 206.507812 58.707031 206.21875 58.292969 C 205.914062 57.882812 205.511719 57.675781 205.003906 57.675781 C 204.484375 57.675781 204.085938 57.882812 203.792969 58.292969 C 203.488281 58.707031 203.347656 59.257812 203.347656 59.972656 C 203.347656 60.6875 203.488281 61.253906 203.792969 61.664062 C 204.085938 62.078125 204.484375 62.273438 205.003906 62.273438 C 205.511719 62.273438 205.914062 62.078125 206.21875 61.664062 C 206.507812 61.253906 206.660156 60.6875 206.660156 59.972656 Z M 206.660156 59.972656 "/>
<path style=" stroke:none;fill-rule:nonzero;fill:rgb(0%,0%,0%);fill-opacity:1;" d="M 214.347656 59.726562 L 214.347656 60.203125 L 209.875 60.203125 C 209.917969 60.875 210.113281 61.394531 210.480469 61.742188 C 210.839844 62.085938 211.335938 62.261719 211.984375 62.261719 C 212.355469 62.261719 212.722656 62.21875 213.070312 62.128906 C 213.414062 62.042969 213.773438 61.902344 214.117188 61.707031 L 214.117188 62.628906 C 213.773438 62.78125 213.414062 62.898438 213.046875 62.964844 C 212.679688 63.03125 212.300781 63.074219 211.933594 63.074219 C 210.980469 63.074219 210.234375 62.804688 209.679688 62.261719 C 209.128906 61.71875 208.859375 60.972656 208.859375 60.027344 C 208.859375 59.0625 209.117188 58.292969 209.636719 57.71875 C 210.15625 57.15625 210.871094 56.863281 211.757812 56.863281 C 212.558594 56.863281 213.1875 57.125 213.652344 57.632812 C 214.109375 58.152344 214.347656 58.847656 214.347656 59.726562 Z M 213.371094 59.441406 C 213.359375 58.910156 213.210938 58.488281 212.929688 58.164062 C 212.636719 57.851562 212.246094 57.6875 211.769531 57.6875 C 211.230469 57.6875 210.796875 57.851562 210.472656 58.152344 C 210.144531 58.457031 209.953125 58.890625 209.90625 59.441406 Z M 213.371094 59.441406 "/>
<path style=" stroke:none;fill-rule:nonzero;fill:rgb(0%,0%,0%);fill-opacity:1;" d="M 221.003906 59.726562 L 221.003906 60.203125 L 216.53125 60.203125 C 216.574219 60.875 216.769531 61.394531 217.136719 61.742188 C 217.496094 62.085938 217.992188 62.261719 218.644531 62.261719 C 219.011719 62.261719 219.378906 62.21875 219.726562 62.128906 C 220.070312 62.042969 220.429688 61.902344 220.777344 61.707031 L 220.777344 62.628906 C 220.429688 62.78125 220.070312 62.898438 219.703125 62.964844 C 219.335938 63.03125 218.957031 63.074219 218.589844 63.074219 C 217.636719 63.074219 216.890625 62.804688 216.335938 62.261719 C 215.785156 61.71875 215.515625 60.972656 215.515625 60.027344 C 215.515625 59.0625 215.773438 58.292969 216.292969 57.71875 C 216.8125 57.15625 217.527344 56.863281 218.414062 56.863281 C 219.21875 56.863281 219.84375 57.125 220.308594 57.632812 C 220.765625 58.152344 221.003906 58.847656 221.003906 59.726562 Z M 220.027344 59.441406 C 220.019531 58.910156 219.867188 58.488281 219.585938 58.164062 C 219.292969 57.851562 218.902344 57.6875 218.425781 57.6875 C 217.886719 57.6875 217.453125 57.851562 217.128906 58.152344 C 216.804688 58.457031 216.609375 58.890625 216.566406 59.441406 Z M 220.027344 59.441406 "/>
<path style=" stroke:none;fill-rule:nonzero;fill:rgb(0%,0%,0%);fill-opacity:1;" d="M 226.492188 57.902344 L 226.492188 54.695312 L 227.464844 54.695312 L 227.464844 62.933594 L 226.492188 62.933594 L 226.492188 62.042969 C 226.285156 62.402344 226.023438 62.660156 225.710938 62.824219 C 225.398438 62.988281 225.03125 63.074219 224.597656 63.074219 C 223.882812 63.074219 223.296875 62.792969 222.84375 62.226562 C 222.386719 61.664062 222.171875 60.90625 222.171875 59.972656 C 222.171875 59.042969 222.386719 58.292969 222.84375 57.71875 C 223.296875 57.15625 223.882812 56.863281 224.597656 56.863281 C 225.03125 56.863281 225.398438 56.949219 225.710938 57.125 C 226.023438 57.296875 226.285156 57.558594 226.492188 57.902344 Z M 223.179688 59.972656 C 223.179688 60.6875 223.320312 61.253906 223.613281 61.664062 C 223.902344 62.078125 224.304688 62.273438 224.824219 62.273438 C 225.34375 62.273438 225.742188 62.078125 226.046875 61.664062 C 226.339844 61.253906 226.492188 60.6875 226.492188 59.972656 C 226.492188 59.257812 226.339844 58.707031 226.046875 58.292969 C 225.742188 57.882812 225.34375 57.675781 224.824219 57.675781 C 224.304688 57.675781 223.902344 57.882812 223.613281 58.292969 C 223.320312 58.707031 223.179688 59.257812 223.179688 59.972656 Z M 223.179688 59.972656 "/>
<path style=" stroke:none;fill-rule:nonzero;fill:rgb(0%,0%,0%);fill-opacity:1;" d="M 235.246094 54.707031 C 234.769531 55.53125 234.425781 56.332031 234.199219 57.125 C 233.960938 57.914062 233.851562 58.714844 233.851562 59.53125 C 233.851562 60.351562 233.960938 61.15625 234.199219 61.945312 C 234.425781 62.75 234.769531 63.539062 235.246094 64.351562 L 234.402344 64.351562 C 233.871094 63.519531 233.472656 62.714844 233.210938 61.914062 C 232.953125 61.113281 232.824219 60.320312 232.824219 59.53125 C 232.824219 58.75 232.953125 57.957031 233.210938 57.15625 C 233.472656 56.355469 233.863281 55.542969 234.402344 54.707031 Z M 235.246094 54.707031 "/>
<path style=" stroke:none;fill-rule:nonzero;fill:rgb(0%,0%,0%);fill-opacity:1;" d="M 240.378906 55.757812 C 239.597656 55.757812 238.980469 56.050781 238.527344 56.625 C 238.074219 57.210938 237.84375 57.992188 237.84375 58.988281 C 237.84375 59.984375 238.074219 60.777344 238.527344 61.351562 C 238.980469 61.9375 239.597656 62.21875 240.378906 62.21875 C 241.148438 62.21875 241.765625 61.9375 242.21875 61.351562 C 242.671875 60.777344 242.902344 59.984375 242.902344 58.988281 C 242.902344 57.992188 242.671875 57.210938 242.21875 56.625 C 241.765625 56.050781 241.148438 55.757812 240.378906 55.757812 Z M 240.378906 54.890625 C 241.484375 54.890625 242.359375 55.269531 243.03125 56.007812 C 243.691406 56.746094 244.027344 57.742188 244.027344 58.988281 C 244.027344 60.246094 243.691406 61.230469 243.03125 61.96875 C 242.359375 62.707031 241.484375 63.074219 240.378906 63.074219 C 239.261719 63.074219 238.375 62.707031 237.714844 61.96875 C 237.042969 61.230469 236.71875 60.246094 236.71875 58.988281 C 236.71875 57.742188 237.042969 56.746094 237.714844 56.007812 C 238.375 55.269531 239.261719 54.890625 240.378906 54.890625 Z M 240.378906 54.890625 "/>
<path style=" stroke:none;fill-rule:nonzero;fill:rgb(0%,0%,0%);fill-opacity:1;" d="M 250.421875 55.292969 L 250.421875 56.332031 C 250.011719 56.136719 249.632812 55.996094 249.277344 55.898438 C 248.90625 55.8125 248.5625 55.757812 248.238281 55.757812 C 247.652344 55.757812 247.199219 55.878906 246.882812 56.09375 C 246.570312 56.320312 246.417969 56.648438 246.417969 57.058594 C 246.417969 57.40625 246.515625 57.675781 246.730469 57.851562 C 246.9375 58.035156 247.339844 58.175781 247.921875 58.285156 L 248.574219 58.414062 C 249.363281 58.566406 249.945312 58.835938 250.324219 59.214844 C 250.703125 59.605469 250.898438 60.113281 250.898438 60.753906 C 250.898438 61.523438 250.640625 62.097656 250.132812 62.488281 C 249.613281 62.878906 248.863281 63.074219 247.878906 63.074219 C 247.5 63.074219 247.101562 63.03125 246.679688 62.953125 C 246.257812 62.878906 245.824219 62.757812 245.378906 62.585938 L 245.378906 61.480469 C 245.8125 61.730469 246.234375 61.914062 246.644531 62.035156 C 247.058594 62.164062 247.46875 62.21875 247.878906 62.21875 C 248.484375 62.21875 248.953125 62.097656 249.285156 61.859375 C 249.613281 61.621094 249.785156 61.285156 249.785156 60.832031 C 249.785156 60.441406 249.664062 60.136719 249.425781 59.917969 C 249.1875 59.703125 248.800781 59.539062 248.257812 59.433594 L 247.609375 59.300781 C 246.808594 59.148438 246.234375 58.902344 245.878906 58.554688 C 245.519531 58.21875 245.347656 57.753906 245.347656 57.144531 C 245.347656 56.453125 245.585938 55.898438 246.082031 55.496094 C 246.570312 55.097656 247.25 54.890625 248.117188 54.890625 C 248.484375 54.890625 248.855469 54.921875 249.242188 54.988281 C 249.621094 55.054688 250.011719 55.160156 250.421875 55.292969 Z M 250.421875 55.292969 "/>
<path style=" stroke:none;fill-rule:nonzero;fill:rgb(0%,0%,0%);fill-opacity:1;" d="M 252.371094 54.707031 L 253.214844 54.707031 C 253.734375 55.542969 254.136719 56.355469 254.394531 57.15625 C 254.65625 57.957031 254.796875 58.75 254.796875 59.53125 C 254.796875 60.320312 254.65625 61.113281 254.394531 61.914062 C 254.136719 62.714844 253.734375 63.519531 253.214844 64.351562 L 252.371094 64.351562 C 252.835938 63.539062 253.183594 62.75 253.421875 61.945312 C 253.648438 61.15625 253.769531 60.351562 253.769531 59.53125 C 253.769531 58.714844 253.648438 57.914062 253.421875 57.125 C 253.183594 56.332031 252.835938 55.53125 252.371094 54.707031 Z M 252.371094 54.707031 "/>
<path style="fill:none;stroke-width:2.5;stroke-linecap:butt;stroke-linejoin:round;stroke:rgb(100%,0%,0%);stroke-opacity:1;stroke-dasharray:9.25,4;stroke-miterlimit:4;" d="M 112.103144 69.239646 L 132.103003 69.239646 " transform="matrix(1.08243,0,0,1.083815,0,0)"/>
<path style=" stroke:none;fill-rule:nonzero;fill:rgb(0%,0%,0%);fill-opacity:1;" d="M 153.785156 71.8125 L 153.785156 77.957031 L 155.074219 77.957031 C 156.15625 77.957031 156.957031 77.71875 157.464844 77.21875 C 157.964844 76.722656 158.222656 75.941406 158.222656 74.878906 C 158.222656 73.816406 157.964844 73.046875 157.464844 72.546875 C 156.957031 72.0625 156.15625 71.8125 155.074219 71.8125 Z M 152.714844 70.933594 L 154.910156 70.933594 C 156.4375 70.933594 157.5625 71.257812 158.277344 71.886719 C 158.992188 72.527344 159.347656 73.523438 159.347656 74.878906 C 159.347656 76.246094 158.980469 77.242188 158.265625 77.878906 C 157.550781 78.519531 156.425781 78.835938 154.910156 78.835938 L 152.714844 78.835938 Z M 152.714844 70.933594 "/>
<path style=" stroke:none;fill-rule:nonzero;fill:rgb(0%,0%,0%);fill-opacity:1;" d="M 166.070312 75.625 L 166.070312 76.101562 L 161.601562 76.101562 C 161.644531 76.773438 161.839844 77.296875 162.207031 77.640625 C 162.5625 77.988281 163.0625 78.164062 163.710938 78.164062 C 164.078125 78.164062 164.445312 78.121094 164.792969 78.03125 C 165.140625 77.945312 165.496094 77.804688 165.84375 77.609375 L 165.84375 78.53125 C 165.496094 78.683594 165.140625 78.800781 164.773438 78.867188 C 164.402344 78.933594 164.023438 78.976562 163.65625 78.976562 C 162.703125 78.976562 161.957031 78.703125 161.40625 78.164062 C 160.851562 77.621094 160.582031 76.871094 160.582031 75.929688 C 160.582031 74.964844 160.84375 74.195312 161.363281 73.621094 C 161.882812 73.058594 162.597656 72.765625 163.484375 72.765625 C 164.285156 72.765625 164.914062 73.023438 165.378906 73.535156 C 165.832031 74.054688 166.070312 74.75 166.070312 75.625 Z M 165.097656 75.34375 C 165.085938 74.8125 164.933594 74.390625 164.652344 74.066406 C 164.359375 73.75 163.972656 73.589844 163.496094 73.589844 C 162.953125 73.589844 162.519531 73.75 162.195312 74.054688 C 161.871094 74.359375 161.675781 74.792969 161.632812 75.34375 Z M 165.097656 75.34375 "/>
<path style=" stroke:none;fill-rule:nonzero;fill:rgb(0%,0%,0%);fill-opacity:1;" d="M 171.441406 73.078125 L 171.441406 74 C 171.15625 73.871094 170.875 73.761719 170.585938 73.6875 C 170.28125 73.621094 169.976562 73.578125 169.664062 73.578125 C 169.175781 73.578125 168.808594 73.652344 168.570312 73.804688 C 168.332031 73.957031 168.214844 74.175781 168.214844 74.464844 C 168.214844 74.695312 168.300781 74.867188 168.472656 74.996094 C 168.648438 75.128906 168.992188 75.257812 169.511719 75.367188 L 169.847656 75.441406 C 170.542969 75.59375 171.027344 75.8125 171.320312 76.070312 C 171.601562 76.339844 171.753906 76.722656 171.753906 77.199219 C 171.753906 77.75 171.535156 78.183594 171.105469 78.5 C 170.671875 78.824219 170.066406 78.976562 169.308594 78.976562 C 168.980469 78.976562 168.65625 78.941406 168.3125 78.890625 C 167.964844 78.835938 167.609375 78.746094 167.230469 78.617188 L 167.230469 77.609375 C 167.585938 77.804688 167.941406 77.945312 168.289062 78.03125 C 168.636719 78.128906 168.980469 78.171875 169.328125 78.171875 C 169.785156 78.171875 170.140625 78.097656 170.390625 77.945312 C 170.628906 77.792969 170.757812 77.566406 170.757812 77.273438 C 170.757812 77.015625 170.660156 76.808594 170.488281 76.667969 C 170.3125 76.527344 169.925781 76.386719 169.316406 76.253906 L 168.980469 76.179688 C 168.375 76.050781 167.933594 75.855469 167.671875 75.59375 C 167.402344 75.332031 167.273438 74.976562 167.273438 74.511719 C 167.273438 73.957031 167.46875 73.523438 167.855469 73.21875 C 168.246094 72.917969 168.808594 72.765625 169.546875 72.765625 C 169.902344 72.765625 170.238281 72.796875 170.5625 72.851562 C 170.875 72.90625 171.167969 72.980469 171.441406 73.078125 Z M 171.441406 73.078125 "/>
<path style=" stroke:none;fill-rule:nonzero;fill:rgb(0%,0%,0%);fill-opacity:1;" d="M 173.300781 72.90625 L 174.277344 72.90625 L 174.277344 78.835938 L 173.300781 78.835938 Z M 173.300781 70.597656 L 174.277344 70.597656 L 174.277344 71.832031 L 173.300781 71.832031 Z M 173.300781 70.597656 "/>
<path style=" stroke:none;fill-rule:nonzero;fill:rgb(0%,0%,0%);fill-opacity:1;" d="M 179.742188 73.816406 C 179.632812 73.75 179.515625 73.707031 179.382812 73.675781 C 179.253906 73.652344 179.113281 73.632812 178.960938 73.632812 C 178.410156 73.632812 177.988281 73.816406 177.695312 74.175781 C 177.394531 74.53125 177.253906 75.042969 177.253906 75.714844 L 177.253906 78.835938 L 176.277344 78.835938 L 176.277344 72.90625 L 177.253906 72.90625 L 177.253906 73.828125 C 177.445312 73.46875 177.71875 73.199219 178.042969 73.023438 C 178.367188 72.851562 178.765625 72.765625 179.242188 72.765625 C 179.308594 72.765625 179.382812 72.777344 179.472656 72.777344 C 179.546875 72.785156 179.632812 72.796875 179.742188 72.820312 Z M 179.742188 73.816406 "/>
<path style=" stroke:none;fill-rule:nonzero;fill:rgb(0%,0%,0%);fill-opacity:1;" d="M 185.589844 75.625 L 185.589844 76.101562 L 181.117188 76.101562 C 181.160156 76.773438 181.355469 77.296875 181.722656 77.640625 C 182.082031 77.988281 182.578125 78.164062 183.226562 78.164062 C 183.597656 78.164062 183.964844 78.121094 184.3125 78.03125 C 184.65625 77.945312 185.015625 77.804688 185.359375 77.609375 L 185.359375 78.53125 C 185.015625 78.683594 184.65625 78.800781 184.289062 78.867188 C 183.921875 78.933594 183.542969 78.976562 183.175781 78.976562 C 182.222656 78.976562 181.476562 78.703125 180.921875 78.164062 C 180.371094 77.621094 180.101562 76.871094 180.101562 75.929688 C 180.101562 74.964844 180.359375 74.195312 180.878906 73.621094 C 181.398438 73.058594 182.113281 72.765625 183 72.765625 C 183.800781 72.765625 184.429688 73.023438 184.894531 73.535156 C 185.351562 74.054688 185.589844 74.75 185.589844 75.625 Z M 184.613281 75.34375 C 184.601562 74.8125 184.453125 74.390625 184.171875 74.066406 C 183.878906 73.75 183.488281 73.589844 183.011719 73.589844 C 182.46875 73.589844 182.039062 73.75 181.710938 74.054688 C 181.386719 74.359375 181.191406 74.792969 181.148438 75.34375 Z M 184.613281 75.34375 "/>
<path style=" stroke:none;fill-rule:nonzero;fill:rgb(0%,0%,0%);fill-opacity:1;" d="M 191.074219 73.804688 L 191.074219 70.597656 L 192.050781 70.597656 L 192.050781 78.835938 L 191.074219 78.835938 L 191.074219 77.945312 C 190.871094 78.304688 190.609375 78.5625 190.296875 78.726562 C 189.984375 78.890625 189.613281 78.976562 189.179688 78.976562 C 188.46875 78.976562 187.882812 78.695312 187.429688 78.128906 C 186.972656 77.566406 186.757812 76.808594 186.757812 75.875 C 186.757812 74.945312 186.972656 74.195312 187.429688 73.621094 C 187.882812 73.058594 188.46875 72.765625 189.179688 72.765625 C 189.613281 72.765625 189.984375 72.851562 190.296875 73.023438 C 190.609375 73.199219 190.871094 73.457031 191.074219 73.804688 Z M 187.761719 75.875 C 187.761719 76.589844 187.90625 77.15625 188.195312 77.566406 C 188.488281 77.976562 188.890625 78.171875 189.410156 78.171875 C 189.929688 78.171875 190.328125 77.976562 190.632812 77.566406 C 190.925781 77.15625 191.074219 76.589844 191.074219 75.875 C 191.074219 75.160156 190.925781 74.609375 190.632812 74.195312 C 190.328125 73.785156 189.929688 73.578125 189.410156 73.578125 C 188.890625 73.578125 188.488281 73.785156 188.195312 74.195312 C 187.90625 74.609375 187.761719 75.160156 187.761719 75.875 Z M 187.761719 75.875 "/>
<path style=" stroke:none;fill-rule:nonzero;fill:rgb(0%,0%,0%);fill-opacity:1;" d="M 201.273438 73.078125 L 201.273438 74 C 200.992188 73.871094 200.710938 73.761719 200.417969 73.6875 C 200.113281 73.621094 199.8125 73.578125 199.496094 73.578125 C 199.011719 73.578125 198.640625 73.652344 198.402344 73.804688 C 198.164062 73.957031 198.046875 74.175781 198.046875 74.464844 C 198.046875 74.695312 198.132812 74.867188 198.304688 74.996094 C 198.480469 75.128906 198.824219 75.257812 199.34375 75.367188 L 199.679688 75.441406 C 200.375 75.59375 200.859375 75.8125 201.152344 76.070312 C 201.433594 76.339844 201.585938 76.722656 201.585938 77.199219 C 201.585938 77.75 201.371094 78.183594 200.9375 78.5 C 200.503906 78.824219 199.898438 78.976562 199.140625 78.976562 C 198.816406 78.976562 198.492188 78.941406 198.144531 78.890625 C 197.796875 78.835938 197.441406 78.746094 197.0625 78.617188 L 197.0625 77.609375 C 197.417969 77.804688 197.777344 77.945312 198.121094 78.03125 C 198.46875 78.128906 198.816406 78.171875 199.160156 78.171875 C 199.617188 78.171875 199.972656 78.097656 200.222656 77.945312 C 200.460938 77.792969 200.589844 77.566406 200.589844 77.273438 C 200.589844 77.015625 200.492188 76.808594 200.320312 76.667969 C 200.148438 76.527344 199.757812 76.386719 199.152344 76.253906 L 198.816406 76.179688 C 198.210938 76.050781 197.765625 75.855469 197.503906 75.59375 C 197.234375 75.332031 197.105469 74.976562 197.105469 74.511719 C 197.105469 73.957031 197.300781 73.523438 197.691406 73.21875 C 198.078125 72.917969 198.640625 72.765625 199.378906 72.765625 C 199.734375 72.765625 200.070312 72.796875 200.394531 72.851562 C 200.710938 72.90625 201 72.980469 201.273438 73.078125 Z M 201.273438 73.078125 "/>
<path style=" stroke:none;fill-rule:nonzero;fill:rgb(0%,0%,0%);fill-opacity:1;" d="M 204.074219 77.945312 L 204.074219 81.078125 L 203.101562 81.078125 L 203.101562 72.90625 L 204.074219 72.90625 L 204.074219 73.804688 C 204.269531 73.457031 204.53125 73.199219 204.84375 73.023438 C 205.160156 72.851562 205.539062 72.765625 205.96875 72.765625 C 206.683594 72.765625 207.269531 73.058594 207.722656 73.621094 C 208.167969 74.195312 208.394531 74.945312 208.394531 75.875 C 208.394531 76.808594 208.167969 77.566406 207.722656 78.128906 C 207.269531 78.695312 206.683594 78.976562 205.96875 78.976562 C 205.539062 78.976562 205.160156 78.890625 204.84375 78.726562 C 204.53125 78.5625 204.269531 78.304688 204.074219 77.945312 Z M 207.386719 75.875 C 207.386719 75.160156 207.238281 74.609375 206.945312 74.195312 C 206.640625 73.785156 206.242188 73.578125 205.730469 73.578125 C 205.210938 73.578125 204.8125 73.785156 204.519531 74.195312 C 204.214844 74.609375 204.074219 75.160156 204.074219 75.875 C 204.074219 76.589844 204.214844 77.15625 204.519531 77.566406 C 204.8125 77.976562 205.210938 78.171875 205.730469 78.171875 C 206.242188 78.171875 206.640625 77.976562 206.945312 77.566406 C 207.238281 77.15625 207.386719 76.589844 207.386719 75.875 Z M 207.386719 75.875 "/>
<path style=" stroke:none;fill-rule:nonzero;fill:rgb(0%,0%,0%);fill-opacity:1;" d="M 215.074219 75.625 L 215.074219 76.101562 L 210.601562 76.101562 C 210.644531 76.773438 210.839844 77.296875 211.210938 77.640625 C 211.566406 77.988281 212.0625 78.164062 212.714844 78.164062 C 213.082031 78.164062 213.449219 78.121094 213.796875 78.03125 C 214.140625 77.945312 214.5 77.804688 214.847656 77.609375 L 214.847656 78.53125 C 214.5 78.683594 214.140625 78.800781 213.773438 78.867188 C 213.40625 78.933594 213.027344 78.976562 212.660156 78.976562 C 211.707031 78.976562 210.960938 78.703125 210.40625 78.164062 C 209.855469 77.621094 209.585938 76.871094 209.585938 75.929688 C 209.585938 74.964844 209.84375 74.195312 210.363281 73.621094 C 210.882812 73.058594 211.597656 72.765625 212.484375 72.765625 C 213.289062 72.765625 213.914062 73.023438 214.378906 73.535156 C 214.835938 74.054688 215.074219 74.75 215.074219 75.625 Z M 214.097656 75.34375 C 214.089844 74.8125 213.9375 74.390625 213.65625 74.066406 C 213.363281 73.75 212.972656 73.589844 212.496094 73.589844 C 211.957031 73.589844 211.523438 73.75 211.199219 74.054688 C 210.875 74.359375 210.679688 74.792969 210.636719 75.34375 Z M 214.097656 75.34375 "/>
<path style=" stroke:none;fill-rule:nonzero;fill:rgb(0%,0%,0%);fill-opacity:1;" d="M 221.730469 75.625 L 221.730469 76.101562 L 217.261719 76.101562 C 217.304688 76.773438 217.496094 77.296875 217.867188 77.640625 C 218.222656 77.988281 218.722656 78.164062 219.371094 78.164062 C 219.738281 78.164062 220.105469 78.121094 220.453125 78.03125 C 220.800781 77.945312 221.15625 77.804688 221.503906 77.609375 L 221.503906 78.53125 C 221.15625 78.683594 220.800781 78.800781 220.429688 78.867188 C 220.0625 78.933594 219.683594 78.976562 219.316406 78.976562 C 218.363281 78.976562 217.617188 78.703125 217.066406 78.164062 C 216.511719 77.621094 216.242188 76.871094 216.242188 75.929688 C 216.242188 74.964844 216.503906 74.195312 217.023438 73.621094 C 217.542969 73.058594 218.253906 72.765625 219.144531 72.765625 C 219.945312 72.765625 220.570312 73.023438 221.039062 73.535156 C 221.492188 74.054688 221.730469 74.75 221.730469 75.625 Z M 220.757812 75.34375 C 220.746094 74.8125 220.59375 74.390625 220.3125 74.066406 C 220.019531 73.75 219.628906 73.589844 219.152344 73.589844 C 218.613281 73.589844 218.179688 73.75 217.855469 74.054688 C 217.53125 74.359375 217.335938 74.792969 217.292969 75.34375 Z M 220.757812 75.34375 "/>
<path style=" stroke:none;fill-rule:nonzero;fill:rgb(0%,0%,0%);fill-opacity:1;" d="M 227.21875 73.804688 L 227.21875 70.597656 L 228.191406 70.597656 L 228.191406 78.835938 L 227.21875 78.835938 L 227.21875 77.945312 C 227.011719 78.304688 226.753906 78.5625 226.4375 78.726562 C 226.125 78.890625 225.757812 78.976562 225.324219 78.976562 C 224.609375 78.976562 224.023438 78.695312 223.570312 78.128906 C 223.117188 77.566406 222.898438 76.808594 222.898438 75.875 C 222.898438 74.945312 223.117188 74.195312 223.570312 73.621094 C 224.023438 73.058594 224.609375 72.765625 225.324219 72.765625 C 225.757812 72.765625 226.125 72.851562 226.4375 73.023438 C 226.753906 73.199219 227.011719 73.457031 227.21875 73.804688 Z M 223.90625 75.875 C 223.90625 76.589844 224.046875 77.15625 224.339844 77.566406 C 224.632812 77.976562 225.03125 78.171875 225.550781 78.171875 C 226.070312 78.171875 226.472656 77.976562 226.773438 77.566406 C 227.066406 77.15625 227.21875 76.589844 227.21875 75.875 C 227.21875 75.160156 227.066406 74.609375 226.773438 74.195312 C 226.472656 73.785156 226.070312 73.578125 225.550781 73.578125 C 225.03125 73.578125 224.632812 73.785156 224.339844 74.195312 C 224.046875 74.609375 223.90625 75.160156 223.90625 75.875 Z M 223.90625 75.875 "/>
<path style=" stroke:none;fill-rule:nonzero;fill:rgb(0%,0%,0%);fill-opacity:1;" d="M 235.976562 70.609375 C 235.5 71.433594 235.152344 72.234375 234.925781 73.023438 C 234.6875 73.816406 234.578125 74.617188 234.578125 75.429688 C 234.578125 76.253906 234.6875 77.058594 234.925781 77.847656 C 235.152344 78.648438 235.5 79.441406 235.976562 80.253906 L 235.128906 80.253906 C 234.601562 79.417969 234.199219 78.617188 233.941406 77.816406 C 233.679688 77.015625 233.550781 76.222656 233.550781 75.429688 C 233.550781 74.652344 233.679688 73.859375 233.941406 73.058594 C 234.199219 72.253906 234.589844 71.441406 235.128906 70.609375 Z M 235.976562 70.609375 "/>
<path style=" stroke:none;fill-rule:nonzero;fill:rgb(0%,0%,0%);fill-opacity:1;" d="M 241.105469 71.660156 C 240.328125 71.660156 239.710938 71.953125 239.253906 72.527344 C 238.800781 73.113281 238.574219 73.890625 238.574219 74.890625 C 238.574219 75.886719 238.800781 76.679688 239.253906 77.253906 C 239.710938 77.835938 240.328125 78.121094 241.105469 78.121094 C 241.875 78.121094 242.492188 77.835938 242.945312 77.253906 C 243.402344 76.679688 243.628906 75.886719 243.628906 74.890625 C 243.628906 73.890625 243.402344 73.113281 242.945312 72.527344 C 242.492188 71.953125 241.875 71.660156 241.105469 71.660156 Z M 241.105469 70.792969 C 242.210938 70.792969 243.085938 71.171875 243.757812 71.910156 C 244.417969 72.644531 244.753906 73.644531 244.753906 74.890625 C 244.753906 76.148438 244.417969 77.132812 243.757812 77.871094 C 243.085938 78.605469 242.210938 78.976562 241.105469 78.976562 C 239.992188 78.976562 239.101562 78.605469 238.441406 77.871094 C 237.773438 77.132812 237.445312 76.148438 237.445312 74.890625 C 237.445312 73.644531 237.773438 72.644531 238.441406 71.910156 C 239.101562 71.171875 239.992188 70.792969 241.105469 70.792969 Z M 241.105469 70.792969 "/>
<path style=" stroke:none;fill-rule:nonzero;fill:rgb(0%,0%,0%);fill-opacity:1;" d="M 251.152344 71.195312 L 251.152344 72.234375 C 250.738281 72.039062 250.359375 71.898438 250.003906 71.800781 C 249.636719 71.714844 249.289062 71.660156 248.964844 71.660156 C 248.378906 71.660156 247.925781 71.777344 247.609375 71.996094 C 247.296875 72.222656 247.144531 72.546875 247.144531 72.960938 C 247.144531 73.308594 247.242188 73.578125 247.460938 73.75 C 247.664062 73.9375 248.066406 74.078125 248.648438 74.183594 L 249.300781 74.316406 C 250.089844 74.464844 250.675781 74.738281 251.054688 75.117188 C 251.433594 75.507812 251.628906 76.015625 251.628906 76.65625 C 251.628906 77.425781 251.367188 78 250.859375 78.390625 C 250.339844 78.78125 249.59375 78.976562 248.605469 78.976562 C 248.226562 78.976562 247.828125 78.933594 247.40625 78.855469 C 246.984375 78.78125 246.550781 78.660156 246.105469 78.488281 L 246.105469 77.382812 C 246.539062 77.632812 246.960938 77.816406 247.371094 77.933594 C 247.785156 78.066406 248.195312 78.121094 248.605469 78.121094 C 249.214844 78.121094 249.679688 78 250.015625 77.761719 C 250.339844 77.523438 250.511719 77.1875 250.511719 76.730469 C 250.511719 76.339844 250.394531 76.039062 250.15625 75.820312 C 249.917969 75.605469 249.527344 75.441406 248.984375 75.332031 L 248.335938 75.203125 C 247.535156 75.050781 246.960938 74.804688 246.605469 74.457031 C 246.246094 74.121094 246.074219 73.652344 246.074219 73.046875 C 246.074219 72.351562 246.3125 71.800781 246.808594 71.398438 C 247.296875 71 247.980469 70.792969 248.84375 70.792969 C 249.214844 70.792969 249.582031 70.824219 249.972656 70.890625 C 250.351562 70.957031 250.738281 71.0625 251.152344 71.195312 Z M 251.152344 71.195312 "/>
<path style=" stroke:none;fill-rule:nonzero;fill:rgb(0%,0%,0%);fill-opacity:1;" d="M 253.097656 70.609375 L 253.945312 70.609375 C 254.464844 71.441406 254.863281 72.253906 255.125 73.058594 C 255.382812 73.859375 255.523438 74.652344 255.523438 75.429688 C 255.523438 76.222656 255.382812 77.015625 255.125 77.816406 C 254.863281 78.617188 254.464844 79.417969 253.945312 80.253906 L 253.097656 80.253906 C 253.566406 79.441406 253.910156 78.648438 254.148438 77.847656 C 254.375 77.058594 254.496094 76.253906 254.496094 75.429688 C 254.496094 74.617188 254.375 73.816406 254.148438 73.023438 C 253.910156 72.234375 253.566406 71.433594 253.097656 70.609375 Z M 253.097656 70.609375 "/>
<path style=" stroke:none;fill-rule:nonzero;fill:rgb(0%,0%,0%);fill-opacity:1;" d="M 82.558594 215.59375 L 83.632812 215.613281 C 83.425781 215.996094 83.273438 216.351562 83.167969 216.691406 C 83.070312 217.035156 83.007812 217.363281 83.003906 217.671875 C 82.996094 218.222656 83.109375 218.65625 83.328125 218.957031 C 83.558594 219.257812 83.894531 219.40625 84.320312 219.414062 C 84.675781 219.421875 84.957031 219.332031 85.140625 219.132812 C 85.335938 218.941406 85.488281 218.5625 85.609375 218.011719 L 85.753906 217.402344 C 85.925781 216.65625 86.214844 216.109375 86.613281 215.753906 C 87.019531 215.402344 87.550781 215.230469 88.210938 215.242188 C 89.007812 215.253906 89.597656 215.511719 89.992188 216 C 90.386719 216.496094 90.574219 217.207031 90.558594 218.140625 C 90.554688 218.5 90.5 218.878906 90.417969 219.273438 C 90.332031 219.671875 90.199219 220.082031 90.015625 220.496094 L 88.871094 220.476562 C 89.136719 220.074219 89.332031 219.675781 89.464844 219.289062 C 89.605469 218.902344 89.667969 218.515625 89.675781 218.125 C 89.683594 217.550781 89.570312 217.109375 89.328125 216.785156 C 89.085938 216.476562 88.742188 216.304688 88.273438 216.296875 C 87.867188 216.289062 87.554688 216.398438 87.324219 216.617188 C 87.097656 216.839844 86.921875 217.207031 86.800781 217.714844 L 86.65625 218.328125 C 86.488281 219.082031 86.21875 219.621094 85.855469 219.953125 C 85.503906 220.285156 85.019531 220.441406 84.390625 220.429688 C 83.671875 220.417969 83.105469 220.183594 82.699219 219.703125 C 82.292969 219.234375 82.089844 218.585938 82.105469 217.765625 C 82.113281 217.417969 82.152344 217.070312 82.226562 216.703125 C 82.296875 216.347656 82.417969 215.980469 82.558594 215.59375 Z M 82.558594 215.59375 "/>
</g>
</svg>
