<?xml version="1.0" encoding="UTF-8"?>
<svg xmlns="http://www.w3.org/2000/svg" xmlns:xlink="http://www.w3.org/1999/xlink" width="400px" height="px" viewBox="0 0 400 416" version="1.1">
<defs>
<clipPath id="clip1">
  <path d="M 0 0 L 400 0 L 400 413.503906 L 0 413.503906 Z M 0 0 "/>
</clipPath>
</defs>
<g id="surface1">
<g clip-path="url(#clip1)" clip-rule="nonzero">
<path style=" stroke:none;fill-rule:nonzero;fill:rgb(100%,100%,100%);fill-opacity:1;" d="M -86.84375 413.503906 L 519.472656 413.503906 L 519.472656 -40.3125 L -86.84375 -40.3125 Z M -86.84375 413.503906 "/>
</g>
<path style=" stroke:none;fill-rule:nonzero;fill:rgb(100%,100%,100%);fill-opacity:1;" d="M 48.820312 363.585938 L 398.96875 363.585938 L 398.96875 14.144531 L 48.820312 14.144531 Z M 48.820312 363.585938 "/>
<path style="fill:none;stroke-width:0.8;stroke-linecap:butt;stroke-linejoin:round;stroke:rgb(0%,0%,0%);stroke-opacity:1;stroke-miterlimit:4;" d="M 47.559375 266.984675 L 47.559375 270.482993 " transform="matrix(1.315789,0,0,1.313131,0,13)"/>
<path style=" stroke:none;fill-rule:nonzero;fill:rgb(0%,0%,0%);fill-opacity:1;" d="M 62.578125 374.03125 C 61.90625 374.03125 61.40625 374.359375 61.066406 375.015625 C 60.722656 375.671875 60.566406 376.65625 60.566406 377.96875 C 60.566406 379.28125 60.722656 380.265625 61.066406 380.921875 C 61.40625 381.582031 61.90625 381.910156 62.578125 381.910156 C 63.25 381.910156 63.75 381.582031 64.089844 380.921875 C 64.417969 380.265625 64.589844 379.28125 64.589844 377.96875 C 64.589844 376.65625 64.417969 375.671875 64.089844 375.015625 C 63.75 374.359375 63.25 374.03125 62.578125 374.03125 Z M 62.578125 373.003906 C 63.644531 373.003906 64.460938 373.4375 65.039062 374.277344 C 65.605469 375.132812 65.894531 376.367188 65.894531 377.96875 C 65.894531 379.585938 65.605469 380.820312 65.039062 381.660156 C 64.460938 382.5 63.644531 382.917969 62.566406 382.917969 C 61.484375 382.917969 60.667969 382.5 60.105469 381.660156 C 59.539062 380.820312 59.261719 379.585938 59.261719 377.96875 C 59.261719 376.367188 59.539062 375.132812 60.105469 374.277344 C 60.667969 373.4375 61.5 373.003906 62.578125 373.003906 Z M 62.578125 373.003906 "/>
<path style="fill:none;stroke-width:0.8;stroke-linecap:butt;stroke-linejoin:round;stroke:rgb(0%,0%,0%);stroke-opacity:1;stroke-miterlimit:4;" d="M 101.0325 266.984675 L 101.0325 270.482993 " transform="matrix(1.315789,0,0,1.313131,0,13)"/>
<path style=" stroke:none;fill-rule:nonzero;fill:rgb(0%,0%,0%);fill-opacity:1;" d="M 126.203125 381.660156 L 128.320312 381.660156 L 128.320312 374.359375 L 126.015625 374.816406 L 126.015625 373.636719 L 128.304688 373.175781 L 129.609375 373.175781 L 129.609375 381.660156 L 131.726562 381.660156 L 131.726562 382.75 L 126.203125 382.75 Z M 126.203125 381.660156 "/>
<path style=" stroke:none;fill-rule:nonzero;fill:rgb(0%,0%,0%);fill-opacity:1;" d="M 137.121094 374.03125 C 136.453125 374.03125 135.953125 374.359375 135.609375 375.015625 C 135.265625 375.671875 135.109375 376.65625 135.109375 377.96875 C 135.109375 379.28125 135.265625 380.265625 135.609375 380.921875 C 135.953125 381.582031 136.453125 381.910156 137.121094 381.910156 C 137.792969 381.910156 138.292969 381.582031 138.636719 380.921875 C 138.964844 380.265625 139.136719 379.28125 139.136719 377.96875 C 139.136719 376.65625 138.964844 375.671875 138.636719 375.015625 C 138.292969 374.359375 137.792969 374.03125 137.121094 374.03125 Z M 137.121094 373.003906 C 138.1875 373.003906 139.003906 373.4375 139.582031 374.277344 C 140.148438 375.132812 140.4375 376.367188 140.4375 377.96875 C 140.4375 379.585938 140.148438 380.820312 139.582031 381.660156 C 139.003906 382.5 138.1875 382.917969 137.109375 382.917969 C 136.03125 382.917969 135.214844 382.5 134.648438 381.660156 C 134.082031 380.820312 133.804688 379.585938 133.804688 377.96875 C 133.804688 376.367188 134.082031 375.132812 134.648438 374.277344 C 135.214844 373.4375 136.042969 373.003906 137.121094 373.003906 Z M 137.121094 373.003906 "/>
<path style="fill:none;stroke-width:0.8;stroke-linecap:butt;stroke-linejoin:round;stroke:rgb(0%,0%,0%);stroke-opacity:1;stroke-miterlimit:4;" d="M 154.505625 266.984675 L 154.505625 270.482993 " transform="matrix(1.315789,0,0,1.313131,0,13)"/>
<path style=" stroke:none;fill-rule:nonzero;fill:rgb(0%,0%,0%);fill-opacity:1;" d="M 197.457031 381.660156 L 201.980469 381.660156 L 201.980469 382.75 L 195.890625 382.75 L 195.890625 381.660156 C 196.375 381.160156 197.046875 380.476562 197.902344 379.609375 C 198.746094 378.757812 199.285156 378.207031 199.507812 377.957031 C 199.929688 377.496094 200.21875 377.101562 200.375 376.773438 C 200.535156 376.460938 200.625 376.128906 200.625 375.816406 C 200.625 375.316406 200.441406 374.894531 200.085938 374.582031 C 199.730469 374.265625 199.269531 374.09375 198.691406 374.09375 C 198.285156 374.09375 197.851562 374.175781 197.402344 374.304688 C 196.957031 374.449219 196.46875 374.660156 195.957031 374.949219 L 195.957031 373.636719 C 196.480469 373.425781 196.96875 373.269531 197.414062 373.164062 C 197.863281 373.058594 198.285156 373.003906 198.664062 373.003906 C 199.652344 373.003906 200.441406 373.253906 201.035156 373.753906 C 201.625 374.253906 201.929688 374.910156 201.929688 375.738281 C 201.929688 376.128906 201.851562 376.511719 201.707031 376.851562 C 201.558594 377.207031 201.296875 377.628906 200.902344 378.101562 C 200.796875 378.230469 200.457031 378.585938 199.875 379.175781 C 199.296875 379.769531 198.496094 380.59375 197.457031 381.660156 Z M 197.457031 381.660156 "/>
<path style=" stroke:none;fill-rule:nonzero;fill:rgb(0%,0%,0%);fill-opacity:1;" d="M 207.480469 374.03125 C 206.808594 374.03125 206.308594 374.359375 205.96875 375.015625 C 205.625 375.671875 205.46875 376.65625 205.46875 377.96875 C 205.46875 379.28125 205.625 380.265625 205.96875 380.921875 C 206.308594 381.582031 206.808594 381.910156 207.480469 381.910156 C 208.152344 381.910156 208.652344 381.582031 208.996094 380.921875 C 209.324219 380.265625 209.496094 379.28125 209.496094 377.96875 C 209.496094 376.65625 209.324219 375.671875 208.996094 375.015625 C 208.652344 374.359375 208.152344 374.03125 207.480469 374.03125 Z M 207.480469 373.003906 C 208.546875 373.003906 209.363281 373.4375 209.941406 374.277344 C 210.507812 375.132812 210.796875 376.367188 210.796875 377.96875 C 210.796875 379.585938 210.507812 380.820312 209.941406 381.660156 C 209.363281 382.5 208.546875 382.917969 207.46875 382.917969 C 206.390625 382.917969 205.574219 382.5 205.007812 381.660156 C 204.441406 380.820312 204.164062 379.585938 204.164062 377.96875 C 204.164062 376.367188 204.441406 375.132812 205.007812 374.277344 C 205.574219 373.4375 206.402344 373.003906 207.480469 373.003906 Z M 207.480469 373.003906 "/>
<path style="fill:none;stroke-width:0.8;stroke-linecap:butt;stroke-linejoin:round;stroke:rgb(0%,0%,0%);stroke-opacity:1;stroke-miterlimit:4;" d="M 207.97875 266.984675 L 207.97875 270.482993 " transform="matrix(1.315789,0,0,1.313131,0,13)"/>
<path style=" stroke:none;fill-rule:nonzero;fill:rgb(0%,0%,0%);fill-opacity:1;" d="M 270.632812 377.589844 C 271.25 377.71875 271.738281 377.996094 272.078125 378.414062 C 272.421875 378.835938 272.605469 379.359375 272.605469 379.964844 C 272.605469 380.910156 272.277344 381.644531 271.632812 382.15625 C 270.972656 382.671875 270.050781 382.917969 268.855469 382.917969 C 268.449219 382.917969 268.027344 382.878906 267.605469 382.800781 C 267.183594 382.734375 266.738281 382.617188 266.289062 382.460938 L 266.289062 381.210938 C 266.644531 381.421875 267.039062 381.582031 267.472656 381.683594 C 267.894531 381.789062 268.34375 381.84375 268.816406 381.84375 C 269.632812 381.84375 270.25 381.683594 270.671875 381.371094 C 271.09375 381.054688 271.316406 380.582031 271.316406 379.964844 C 271.316406 379.414062 271.117188 378.96875 270.722656 378.652344 C 270.328125 378.335938 269.777344 378.167969 269.066406 378.167969 L 267.949219 378.167969 L 267.949219 377.101562 L 269.117188 377.101562 C 269.75 377.101562 270.238281 376.984375 270.578125 376.722656 C 270.921875 376.472656 271.09375 376.105469 271.09375 375.617188 C 271.09375 375.132812 270.90625 374.75 270.566406 374.488281 C 270.210938 374.226562 269.710938 374.09375 269.066406 374.09375 C 268.710938 374.09375 268.328125 374.132812 267.921875 374.214844 C 267.511719 374.292969 267.066406 374.410156 266.578125 374.566406 L 266.578125 373.414062 C 267.066406 373.28125 267.527344 373.175781 267.960938 373.109375 C 268.382812 373.042969 268.789062 373.003906 269.183594 373.003906 C 270.15625 373.003906 270.933594 373.230469 271.511719 373.675781 C 272.09375 374.121094 272.382812 374.726562 272.382812 375.488281 C 272.382812 376.011719 272.222656 376.460938 271.921875 376.828125 C 271.617188 377.195312 271.183594 377.457031 270.632812 377.589844 Z M 270.632812 377.589844 "/>
<path style=" stroke:none;fill-rule:nonzero;fill:rgb(0%,0%,0%);fill-opacity:1;" d="M 277.84375 374.03125 C 277.171875 374.03125 276.671875 374.359375 276.328125 375.015625 C 275.988281 375.671875 275.828125 376.65625 275.828125 377.96875 C 275.828125 379.28125 275.988281 380.265625 276.328125 380.921875 C 276.671875 381.582031 277.171875 381.910156 277.84375 381.910156 C 278.511719 381.910156 279.011719 381.582031 279.355469 380.921875 C 279.683594 380.265625 279.855469 379.28125 279.855469 377.96875 C 279.855469 376.65625 279.683594 375.671875 279.355469 375.015625 C 279.011719 374.359375 278.511719 374.03125 277.84375 374.03125 Z M 277.84375 373.003906 C 278.90625 373.003906 279.722656 373.4375 280.300781 374.277344 C 280.867188 375.132812 281.15625 376.367188 281.15625 377.96875 C 281.15625 379.585938 280.867188 380.820312 280.300781 381.660156 C 279.722656 382.5 278.90625 382.917969 277.828125 382.917969 C 276.75 382.917969 275.933594 382.5 275.367188 381.660156 C 274.800781 380.820312 274.527344 379.585938 274.527344 377.96875 C 274.527344 376.367188 274.800781 375.132812 275.367188 374.277344 C 275.933594 373.4375 276.761719 373.003906 277.84375 373.003906 Z M 277.84375 373.003906 "/>
<path style="fill:none;stroke-width:0.8;stroke-linecap:butt;stroke-linejoin:round;stroke:rgb(0%,0%,0%);stroke-opacity:1;stroke-miterlimit:4;" d="M 261.451875 266.984675 L 261.451875 270.482993 " transform="matrix(1.315789,0,0,1.313131,0,13)"/>
<path style=" stroke:none;fill-rule:nonzero;fill:rgb(0%,0%,0%);fill-opacity:1;" d="M 340.621094 374.304688 L 337.347656 379.414062 L 340.621094 379.414062 Z M 340.28125 373.175781 L 341.910156 373.175781 L 341.910156 379.414062 L 343.28125 379.414062 L 343.28125 380.492188 L 341.910156 380.492188 L 341.910156 382.75 L 340.621094 382.75 L 340.621094 380.492188 L 336.292969 380.492188 L 336.292969 379.242188 Z M 340.28125 373.175781 "/>
<path style=" stroke:none;fill-rule:nonzero;fill:rgb(0%,0%,0%);fill-opacity:1;" d="M 348.203125 374.03125 C 347.53125 374.03125 347.03125 374.359375 346.6875 375.015625 C 346.347656 375.671875 346.1875 376.65625 346.1875 377.96875 C 346.1875 379.28125 346.347656 380.265625 346.6875 380.921875 C 347.03125 381.582031 347.53125 381.910156 348.203125 381.910156 C 348.871094 381.910156 349.371094 381.582031 349.714844 380.921875 C 350.042969 380.265625 350.214844 379.28125 350.214844 377.96875 C 350.214844 376.65625 350.042969 375.671875 349.714844 375.015625 C 349.371094 374.359375 348.871094 374.03125 348.203125 374.03125 Z M 348.203125 373.003906 C 349.265625 373.003906 350.082031 373.4375 350.660156 374.277344 C 351.226562 375.132812 351.515625 376.367188 351.515625 377.96875 C 351.515625 379.585938 351.226562 380.820312 350.660156 381.660156 C 350.082031 382.5 349.265625 382.917969 348.1875 382.917969 C 347.109375 382.917969 346.292969 382.5 345.726562 381.660156 C 345.160156 380.820312 344.886719 379.585938 344.886719 377.96875 C 344.886719 376.367188 345.160156 375.132812 345.726562 374.277344 C 346.292969 373.4375 347.121094 373.003906 348.203125 373.003906 Z M 348.203125 373.003906 "/>
<path style=" stroke:none;fill-rule:nonzero;fill:rgb(0%,0%,0%);fill-opacity:1;" d="M 197.046875 391.128906 L 205.152344 391.128906 L 205.152344 392.21875 L 201.746094 392.21875 L 201.746094 400.703125 L 200.445312 400.703125 L 200.445312 392.21875 L 197.046875 392.21875 Z M 197.046875 391.128906 "/>
<path style=" stroke:none;fill-rule:nonzero;fill:rgb(0%,0%,0%);fill-opacity:1;" d="M 205.960938 393.519531 L 207.144531 393.519531 L 207.144531 400.703125 L 205.960938 400.703125 Z M 205.960938 390.722656 L 207.144531 390.722656 L 207.144531 392.21875 L 205.960938 392.21875 Z M 205.960938 390.722656 "/>
<path style=" stroke:none;fill-rule:nonzero;fill:rgb(0%,0%,0%);fill-opacity:1;" d="M 215.222656 394.898438 C 215.511719 394.371094 215.867188 393.992188 216.277344 393.730469 C 216.683594 393.480469 217.171875 393.347656 217.738281 393.347656 C 218.472656 393.347656 219.050781 393.609375 219.460938 394.136719 C 219.867188 394.660156 220.078125 395.410156 220.078125 396.367188 L 220.078125 400.703125 L 218.894531 400.703125 L 218.894531 396.40625 C 218.894531 395.726562 218.761719 395.214844 218.527344 394.871094 C 218.277344 394.542969 217.90625 394.371094 217.40625 394.371094 C 216.789062 394.371094 216.300781 394.582031 215.949219 394.988281 C 215.59375 395.398438 215.421875 395.949219 215.421875 396.644531 L 215.421875 400.703125 L 214.238281 400.703125 L 214.238281 396.40625 C 214.238281 395.726562 214.105469 395.214844 213.867188 394.871094 C 213.617188 394.542969 213.238281 394.371094 212.738281 394.371094 C 212.132812 394.371094 211.644531 394.582031 211.289062 394.988281 C 210.933594 395.398438 210.761719 395.949219 210.761719 396.644531 L 210.761719 400.703125 L 209.578125 400.703125 L 209.578125 393.519531 L 210.761719 393.519531 L 210.761719 394.636719 C 211.027344 394.203125 211.355469 393.875 211.738281 393.664062 C 212.105469 393.453125 212.550781 393.347656 213.078125 393.347656 C 213.605469 393.347656 214.039062 393.480469 214.40625 393.742188 C 214.777344 394.003906 215.039062 394.398438 215.222656 394.898438 Z M 215.222656 394.898438 "/>
<path style=" stroke:none;fill-rule:nonzero;fill:rgb(0%,0%,0%);fill-opacity:1;" d="M 228.59375 396.816406 L 228.59375 397.394531 L 223.15625 397.394531 C 223.210938 398.207031 223.449219 398.835938 223.894531 399.257812 C 224.328125 399.679688 224.933594 399.886719 225.722656 399.886719 C 226.171875 399.886719 226.617188 399.835938 227.039062 399.730469 C 227.460938 399.625 227.894531 399.453125 228.316406 399.21875 L 228.316406 400.335938 C 227.894531 400.519531 227.460938 400.664062 227.011719 400.742188 C 226.566406 400.820312 226.105469 400.871094 225.65625 400.871094 C 224.5 400.871094 223.59375 400.542969 222.921875 399.886719 C 222.25 399.230469 221.921875 398.324219 221.921875 397.183594 C 221.921875 396.015625 222.238281 395.082031 222.867188 394.386719 C 223.5 393.703125 224.367188 393.347656 225.449219 393.347656 C 226.421875 393.347656 227.183594 393.664062 227.75 394.28125 C 228.300781 394.910156 228.59375 395.75 228.59375 396.816406 Z M 227.40625 396.472656 C 227.394531 395.832031 227.210938 395.316406 226.867188 394.925781 C 226.511719 394.542969 226.039062 394.347656 225.460938 394.347656 C 224.800781 394.347656 224.277344 394.542969 223.882812 394.910156 C 223.488281 395.277344 223.25 395.804688 223.199219 396.472656 Z M 227.40625 396.472656 "/>
<path style=" stroke:none;fill-rule:nonzero;fill:rgb(0%,0%,0%);fill-opacity:1;" d="M 234.605469 390.722656 L 237.328125 390.722656 L 237.328125 391.640625 L 235.789062 391.640625 L 235.789062 401.503906 L 237.328125 401.503906 L 237.328125 402.421875 L 234.605469 402.421875 Z M 234.605469 390.722656 "/>
<path style=" stroke:none;fill-rule:nonzero;fill:rgb(0%,0%,0%);fill-opacity:1;" d="M 244.433594 393.730469 L 244.433594 394.84375 C 244.09375 394.6875 243.75 394.554688 243.394531 394.464844 C 243.027344 394.386719 242.65625 394.332031 242.277344 394.332031 C 241.683594 394.332031 241.238281 394.425781 240.949219 394.609375 C 240.65625 394.792969 240.511719 395.054688 240.511719 395.410156 C 240.511719 395.6875 240.617188 395.894531 240.828125 396.054688 C 241.039062 396.210938 241.460938 396.367188 242.09375 396.5 L 242.5 396.59375 C 243.34375 396.777344 243.933594 397.039062 244.289062 397.355469 C 244.632812 397.683594 244.816406 398.140625 244.816406 398.71875 C 244.816406 399.390625 244.550781 399.914062 244.027344 400.296875 C 243.5 400.6875 242.761719 400.871094 241.84375 400.871094 C 241.449219 400.871094 241.050781 400.832031 240.632812 400.769531 C 240.210938 400.703125 239.777344 400.597656 239.316406 400.4375 L 239.316406 399.21875 C 239.75 399.453125 240.183594 399.625 240.605469 399.730469 C 241.027344 399.847656 241.449219 399.902344 241.867188 399.902344 C 242.421875 399.902344 242.855469 399.808594 243.15625 399.625 C 243.449219 399.441406 243.605469 399.164062 243.605469 398.8125 C 243.605469 398.496094 243.488281 398.246094 243.277344 398.074219 C 243.066406 397.90625 242.59375 397.734375 241.855469 397.578125 L 241.449219 397.484375 C 240.710938 397.328125 240.171875 397.089844 239.855469 396.777344 C 239.527344 396.460938 239.367188 396.027344 239.367188 395.460938 C 239.367188 394.792969 239.605469 394.269531 240.078125 393.898438 C 240.550781 393.53125 241.238281 393.347656 242.132812 393.347656 C 242.566406 393.347656 242.972656 393.386719 243.367188 393.453125 C 243.75 393.519531 244.105469 393.609375 244.433594 393.730469 Z M 244.433594 393.730469 "/>
<path style=" stroke:none;fill-rule:nonzero;fill:rgb(0%,0%,0%);fill-opacity:1;" d="M 249.460938 390.722656 L 249.460938 402.421875 L 246.738281 402.421875 L 246.738281 401.503906 L 248.277344 401.503906 L 248.277344 391.640625 L 246.738281 391.640625 L 246.738281 390.722656 Z M 249.460938 390.722656 "/>
<path style="fill:none;stroke-width:0.8;stroke-linecap:butt;stroke-linejoin:round;stroke:rgb(0%,0%,0%);stroke-opacity:1;stroke-miterlimit:4;" d="M 37.103438 231.424399 L 33.603281 231.424399 " transform="matrix(1.315789,0,0,1.313131,0,13)"/>
<path style=" stroke:none;fill-rule:nonzero;fill:rgb(0%,0%,0%);fill-opacity:1;" d="M 20.3125 320.789062 L 22.429688 320.789062 L 22.429688 313.488281 L 20.128906 313.945312 L 20.128906 312.765625 L 22.417969 312.304688 L 23.722656 312.304688 L 23.722656 320.789062 L 25.839844 320.789062 L 25.839844 321.878906 L 20.3125 321.878906 Z M 20.3125 320.789062 "/>
<path style=" stroke:none;fill-rule:nonzero;fill:rgb(0%,0%,0%);fill-opacity:1;" d="M 28.457031 320.25 L 29.8125 320.25 L 29.8125 321.878906 L 28.457031 321.878906 Z M 28.457031 320.25 "/>
<path style=" stroke:none;fill-rule:nonzero;fill:rgb(0%,0%,0%);fill-opacity:1;" d="M 35.417969 313.15625 C 34.746094 313.15625 34.246094 313.488281 33.90625 314.144531 C 33.5625 314.800781 33.40625 315.785156 33.40625 317.097656 C 33.40625 318.410156 33.5625 319.394531 33.90625 320.050781 C 34.246094 320.707031 34.746094 321.035156 35.417969 321.035156 C 36.089844 321.035156 36.589844 320.707031 36.929688 320.050781 C 37.261719 319.394531 37.429688 318.410156 37.429688 317.097656 C 37.429688 315.785156 37.261719 314.800781 36.929688 314.144531 C 36.589844 313.488281 36.089844 313.15625 35.417969 313.15625 Z M 35.417969 312.132812 C 36.484375 312.132812 37.300781 312.566406 37.878906 313.40625 C 38.445312 314.261719 38.734375 315.496094 38.734375 317.097656 C 38.734375 318.710938 38.445312 319.945312 37.878906 320.789062 C 37.300781 321.628906 36.484375 322.046875 35.40625 322.046875 C 34.328125 322.046875 33.511719 321.628906 32.945312 320.789062 C 32.378906 319.945312 32.101562 318.710938 32.101562 317.097656 C 32.101562 315.496094 32.378906 314.261719 32.945312 313.40625 C 33.511719 312.566406 34.339844 312.132812 35.417969 312.132812 Z M 35.417969 312.132812 "/>
<path style="fill:none;stroke-width:0.8;stroke-linecap:butt;stroke-linejoin:round;stroke:rgb(0%,0%,0%);stroke-opacity:1;stroke-miterlimit:4;" d="M 37.103438 188.034555 L 33.603281 188.034555 " transform="matrix(1.315789,0,0,1.313131,0,13)"/>
<path style=" stroke:none;fill-rule:nonzero;fill:rgb(0%,0%,0%);fill-opacity:1;" d="M 20.3125 263.8125 L 22.429688 263.8125 L 22.429688 256.511719 L 20.128906 256.96875 L 20.128906 255.789062 L 22.417969 255.328125 L 23.722656 255.328125 L 23.722656 263.8125 L 25.839844 263.8125 L 25.839844 264.902344 L 20.3125 264.902344 Z M 20.3125 263.8125 "/>
<path style=" stroke:none;fill-rule:nonzero;fill:rgb(0%,0%,0%);fill-opacity:1;" d="M 28.457031 263.273438 L 29.8125 263.273438 L 29.8125 264.902344 L 28.457031 264.902344 Z M 28.457031 263.273438 "/>
<path style=" stroke:none;fill-rule:nonzero;fill:rgb(0%,0%,0%);fill-opacity:1;" d="M 32.65625 255.328125 L 37.746094 255.328125 L 37.746094 256.417969 L 33.839844 256.417969 L 33.839844 258.769531 C 34.023438 258.703125 34.222656 258.652344 34.40625 258.625 C 34.589844 258.597656 34.785156 258.574219 34.972656 258.574219 C 36.035156 258.574219 36.878906 258.875 37.511719 259.453125 C 38.140625 260.042969 38.457031 260.832031 38.457031 261.828125 C 38.457031 262.867188 38.128906 263.667969 37.484375 264.230469 C 36.839844 264.796875 35.929688 265.074219 34.773438 265.074219 C 34.367188 265.074219 33.957031 265.035156 33.535156 264.980469 C 33.117188 264.914062 32.695312 264.824219 32.246094 264.679688 L 32.246094 263.378906 C 32.628906 263.589844 33.023438 263.746094 33.445312 263.851562 C 33.851562 263.957031 34.285156 263.996094 34.746094 263.996094 C 35.484375 263.996094 36.078125 263.8125 36.511719 263.417969 C 36.929688 263.023438 37.15625 262.5 37.15625 261.828125 C 37.15625 261.171875 36.929688 260.648438 36.511719 260.253906 C 36.078125 259.859375 35.484375 259.664062 34.746094 259.664062 C 34.40625 259.664062 34.050781 259.703125 33.707031 259.78125 C 33.367188 259.859375 33.011719 259.976562 32.65625 260.136719 Z M 32.65625 255.328125 "/>
<path style="fill:none;stroke-width:0.8;stroke-linecap:butt;stroke-linejoin:round;stroke:rgb(0%,0%,0%);stroke-opacity:1;stroke-miterlimit:4;" d="M 37.103438 144.647686 L 33.603281 144.647686 " transform="matrix(1.315789,0,0,1.313131,0,13)"/>
<path style=" stroke:none;fill-rule:nonzero;fill:rgb(0%,0%,0%);fill-opacity:1;" d="M 21.207031 206.835938 L 25.734375 206.835938 L 25.734375 207.925781 L 19.640625 207.925781 L 19.640625 206.835938 C 20.128906 206.335938 20.800781 205.65625 21.65625 204.789062 C 22.496094 203.933594 23.035156 203.382812 23.261719 203.132812 C 23.679688 202.675781 23.972656 202.28125 24.128906 201.953125 C 24.285156 201.636719 24.378906 201.308594 24.378906 200.992188 C 24.378906 200.496094 24.195312 200.074219 23.839844 199.757812 C 23.484375 199.445312 23.023438 199.273438 22.445312 199.273438 C 22.035156 199.273438 21.601562 199.351562 21.15625 199.484375 C 20.707031 199.628906 20.222656 199.835938 19.707031 200.125 L 19.707031 198.8125 C 20.234375 198.601562 20.722656 198.445312 21.167969 198.339844 C 21.617188 198.234375 22.035156 198.183594 22.417969 198.183594 C 23.40625 198.183594 24.195312 198.433594 24.785156 198.929688 C 25.378906 199.429688 25.679688 200.085938 25.679688 200.914062 C 25.679688 201.308594 25.601562 201.6875 25.457031 202.03125 C 25.3125 202.386719 25.050781 202.804688 24.65625 203.277344 C 24.550781 203.410156 24.207031 203.765625 23.628906 204.355469 C 23.050781 204.945312 22.246094 205.773438 21.207031 206.835938 Z M 21.207031 206.835938 "/>
<path style=" stroke:none;fill-rule:nonzero;fill:rgb(0%,0%,0%);fill-opacity:1;" d="M 28.457031 206.296875 L 29.8125 206.296875 L 29.8125 207.925781 L 28.457031 207.925781 Z M 28.457031 206.296875 "/>
<path style=" stroke:none;fill-rule:nonzero;fill:rgb(0%,0%,0%);fill-opacity:1;" d="M 35.417969 199.207031 C 34.746094 199.207031 34.246094 199.535156 33.90625 200.191406 C 33.5625 200.847656 33.40625 201.832031 33.40625 203.148438 C 33.40625 204.460938 33.5625 205.445312 33.90625 206.101562 C 34.246094 206.757812 34.746094 207.085938 35.417969 207.085938 C 36.089844 207.085938 36.589844 206.757812 36.929688 206.101562 C 37.261719 205.445312 37.429688 204.460938 37.429688 203.148438 C 37.429688 201.832031 37.261719 200.847656 36.929688 200.191406 C 36.589844 199.535156 36.089844 199.207031 35.417969 199.207031 Z M 35.417969 198.183594 C 36.484375 198.183594 37.300781 198.617188 37.878906 199.457031 C 38.445312 200.308594 38.734375 201.542969 38.734375 203.148438 C 38.734375 204.761719 38.445312 205.996094 37.878906 206.835938 C 37.300781 207.675781 36.484375 208.097656 35.40625 208.097656 C 34.328125 208.097656 33.511719 207.675781 32.945312 206.835938 C 32.378906 205.996094 32.101562 204.761719 32.101562 203.148438 C 32.101562 201.542969 32.378906 200.308594 32.945312 199.457031 C 33.511719 198.617188 34.339844 198.183594 35.417969 198.183594 Z M 35.417969 198.183594 "/>
<path style="fill:none;stroke-width:0.8;stroke-linecap:butt;stroke-linejoin:round;stroke:rgb(0%,0%,0%);stroke-opacity:1;stroke-miterlimit:4;" d="M 37.103438 101.257843 L 33.603281 101.257843 " transform="matrix(1.315789,0,0,1.313131,0,13)"/>
<path style=" stroke:none;fill-rule:nonzero;fill:rgb(0%,0%,0%);fill-opacity:1;" d="M 21.207031 149.859375 L 25.734375 149.859375 L 25.734375 150.949219 L 19.640625 150.949219 L 19.640625 149.859375 C 20.128906 149.363281 20.800781 148.679688 21.65625 147.8125 C 22.496094 146.960938 23.035156 146.40625 23.261719 146.15625 C 23.679688 145.699219 23.972656 145.304688 24.128906 144.976562 C 24.285156 144.660156 24.378906 144.332031 24.378906 144.019531 C 24.378906 143.519531 24.195312 143.097656 23.839844 142.785156 C 23.484375 142.46875 23.023438 142.296875 22.445312 142.296875 C 22.035156 142.296875 21.601562 142.375 21.15625 142.507812 C 20.707031 142.652344 20.222656 142.863281 19.707031 143.152344 L 19.707031 141.835938 C 20.234375 141.628906 20.722656 141.46875 21.167969 141.363281 C 21.617188 141.261719 22.035156 141.207031 22.417969 141.207031 C 23.40625 141.207031 24.195312 141.457031 24.785156 141.957031 C 25.378906 142.453125 25.679688 143.113281 25.679688 143.9375 C 25.679688 144.332031 25.601562 144.714844 25.457031 145.054688 C 25.3125 145.410156 25.050781 145.828125 24.65625 146.300781 C 24.550781 146.433594 24.207031 146.789062 23.628906 147.378906 C 23.050781 147.96875 22.246094 148.796875 21.207031 149.859375 Z M 21.207031 149.859375 "/>
<path style=" stroke:none;fill-rule:nonzero;fill:rgb(0%,0%,0%);fill-opacity:1;" d="M 28.457031 149.324219 L 29.8125 149.324219 L 29.8125 150.949219 L 28.457031 150.949219 Z M 28.457031 149.324219 "/>
<path style=" stroke:none;fill-rule:nonzero;fill:rgb(0%,0%,0%);fill-opacity:1;" d="M 32.65625 141.378906 L 37.746094 141.378906 L 37.746094 142.46875 L 33.839844 142.46875 L 33.839844 144.820312 C 34.023438 144.753906 34.222656 144.699219 34.40625 144.675781 C 34.589844 144.648438 34.785156 144.621094 34.972656 144.621094 C 36.035156 144.621094 36.878906 144.921875 37.511719 145.5 C 38.140625 146.09375 38.457031 146.878906 38.457031 147.878906 C 38.457031 148.914062 38.128906 149.714844 37.484375 150.28125 C 36.839844 150.847656 35.929688 151.121094 34.773438 151.121094 C 34.367188 151.121094 33.957031 151.082031 33.535156 151.03125 C 33.117188 150.964844 32.695312 150.871094 32.246094 150.726562 L 32.246094 149.429688 C 32.628906 149.636719 33.023438 149.796875 33.445312 149.902344 C 33.851562 150.003906 34.285156 150.046875 34.746094 150.046875 C 35.484375 150.046875 36.078125 149.859375 36.511719 149.46875 C 36.929688 149.074219 37.15625 148.546875 37.15625 147.878906 C 37.15625 147.222656 36.929688 146.695312 36.511719 146.300781 C 36.078125 145.910156 35.484375 145.710938 34.746094 145.710938 C 34.40625 145.710938 34.050781 145.75 33.707031 145.828125 C 33.367188 145.910156 33.011719 146.027344 32.65625 146.183594 Z M 32.65625 141.378906 "/>
<path style="fill:none;stroke-width:0.8;stroke-linecap:butt;stroke-linejoin:round;stroke:rgb(0%,0%,0%);stroke-opacity:1;stroke-miterlimit:4;" d="M 37.103438 57.867999 L 33.603281 57.867999 " transform="matrix(1.315789,0,0,1.313131,0,13)"/>
<path style=" stroke:none;fill-rule:nonzero;fill:rgb(0%,0%,0%);fill-opacity:1;" d="M 24.023438 88.816406 C 24.640625 88.945312 25.128906 89.222656 25.472656 89.640625 C 25.8125 90.0625 25.996094 90.585938 25.996094 91.191406 C 25.996094 92.136719 25.667969 92.871094 25.023438 93.382812 C 24.367188 93.898438 23.445312 94.144531 22.246094 94.144531 C 21.839844 94.144531 21.417969 94.105469 20.996094 94.027344 C 20.578125 93.960938 20.128906 93.84375 19.679688 93.6875 L 19.679688 92.4375 C 20.035156 92.648438 20.429688 92.808594 20.867188 92.910156 C 21.285156 93.015625 21.734375 93.070312 22.207031 93.070312 C 23.023438 93.070312 23.640625 92.910156 24.0625 92.597656 C 24.484375 92.28125 24.707031 91.808594 24.707031 91.191406 C 24.707031 90.640625 24.511719 90.195312 24.117188 89.878906 C 23.722656 89.5625 23.167969 89.394531 22.457031 89.394531 L 21.339844 89.394531 L 21.339844 88.328125 L 22.511719 88.328125 C 23.140625 88.328125 23.628906 88.210938 23.972656 87.949219 C 24.3125 87.699219 24.484375 87.332031 24.484375 86.84375 C 24.484375 86.359375 24.300781 85.980469 23.957031 85.714844 C 23.601562 85.453125 23.101562 85.320312 22.457031 85.320312 C 22.101562 85.320312 21.722656 85.363281 21.3125 85.441406 C 20.90625 85.519531 20.457031 85.636719 19.972656 85.792969 L 19.972656 84.640625 C 20.457031 84.507812 20.917969 84.402344 21.351562 84.335938 C 21.773438 84.273438 22.179688 84.230469 22.578125 84.230469 C 23.550781 84.230469 24.328125 84.457031 24.90625 84.902344 C 25.484375 85.347656 25.773438 85.953125 25.773438 86.714844 C 25.773438 87.238281 25.617188 87.6875 25.3125 88.054688 C 25.011719 88.421875 24.578125 88.683594 24.023438 88.816406 Z M 24.023438 88.816406 "/>
<path style=" stroke:none;fill-rule:nonzero;fill:rgb(0%,0%,0%);fill-opacity:1;" d="M 28.457031 92.347656 L 29.8125 92.347656 L 29.8125 93.976562 L 28.457031 93.976562 Z M 28.457031 92.347656 "/>
<path style=" stroke:none;fill-rule:nonzero;fill:rgb(0%,0%,0%);fill-opacity:1;" d="M 35.417969 85.257812 C 34.746094 85.257812 34.246094 85.585938 33.90625 86.242188 C 33.5625 86.898438 33.40625 87.882812 33.40625 89.195312 C 33.40625 90.507812 33.5625 91.492188 33.90625 92.148438 C 34.246094 92.808594 34.746094 93.136719 35.417969 93.136719 C 36.089844 93.136719 36.589844 92.808594 36.929688 92.148438 C 37.261719 91.492188 37.429688 90.507812 37.429688 89.195312 C 37.429688 87.882812 37.261719 86.898438 36.929688 86.242188 C 36.589844 85.585938 36.089844 85.257812 35.417969 85.257812 Z M 35.417969 84.230469 C 36.484375 84.230469 37.300781 84.664062 37.878906 85.503906 C 38.445312 86.359375 38.734375 87.59375 38.734375 89.195312 C 38.734375 90.8125 38.445312 92.046875 37.878906 92.886719 C 37.300781 93.726562 36.484375 94.144531 35.40625 94.144531 C 34.328125 94.144531 33.511719 93.726562 32.945312 92.886719 C 32.378906 92.046875 32.101562 90.8125 32.101562 89.195312 C 32.101562 87.59375 32.378906 86.359375 32.945312 85.503906 C 33.511719 84.664062 34.339844 84.230469 35.417969 84.230469 Z M 35.417969 84.230469 "/>
<path style="fill:none;stroke-width:0.8;stroke-linecap:butt;stroke-linejoin:round;stroke:rgb(0%,0%,0%);stroke-opacity:1;stroke-miterlimit:4;" d="M 37.103438 14.48113 L 33.603281 14.48113 " transform="matrix(1.315789,0,0,1.313131,0,13)"/>
<path style=" stroke:none;fill-rule:nonzero;fill:rgb(0%,0%,0%);fill-opacity:1;" d="M 24.023438 31.839844 C 24.640625 31.972656 25.128906 32.246094 25.472656 32.667969 C 25.8125 33.085938 25.996094 33.613281 25.996094 34.214844 C 25.996094 35.160156 25.667969 35.898438 25.023438 36.410156 C 24.367188 36.921875 23.445312 37.171875 22.246094 37.171875 C 21.839844 37.171875 21.417969 37.132812 20.996094 37.050781 C 20.578125 36.988281 20.128906 36.867188 19.679688 36.710938 L 19.679688 35.464844 C 20.035156 35.675781 20.429688 35.832031 20.867188 35.9375 C 21.285156 36.042969 21.734375 36.09375 22.207031 36.09375 C 23.023438 36.09375 23.640625 35.9375 24.0625 35.621094 C 24.484375 35.304688 24.707031 34.832031 24.707031 34.214844 C 24.707031 33.664062 24.511719 33.21875 24.117188 32.902344 C 23.722656 32.589844 23.167969 32.417969 22.457031 32.417969 L 21.339844 32.417969 L 21.339844 31.355469 L 22.511719 31.355469 C 23.140625 31.355469 23.628906 31.234375 23.972656 30.972656 C 24.3125 30.722656 24.484375 30.355469 24.484375 29.871094 C 24.484375 29.382812 24.300781 29.003906 23.957031 28.742188 C 23.601562 28.476562 23.101562 28.347656 22.457031 28.347656 C 22.101562 28.347656 21.722656 28.386719 21.3125 28.464844 C 20.90625 28.542969 20.457031 28.660156 19.972656 28.820312 L 19.972656 27.664062 C 20.457031 27.53125 20.917969 27.425781 21.351562 27.363281 C 21.773438 27.296875 22.179688 27.257812 22.578125 27.257812 C 23.550781 27.257812 24.328125 27.480469 24.90625 27.925781 C 25.484375 28.371094 25.773438 28.976562 25.773438 29.738281 C 25.773438 30.265625 25.617188 30.710938 25.3125 31.078125 C 25.011719 31.445312 24.578125 31.707031 24.023438 31.839844 Z M 24.023438 31.839844 "/>
<path style=" stroke:none;fill-rule:nonzero;fill:rgb(0%,0%,0%);fill-opacity:1;" d="M 28.457031 35.371094 L 29.8125 35.371094 L 29.8125 37 L 28.457031 37 Z M 28.457031 35.371094 "/>
<path style=" stroke:none;fill-rule:nonzero;fill:rgb(0%,0%,0%);fill-opacity:1;" d="M 32.65625 27.425781 L 37.746094 27.425781 L 37.746094 28.515625 L 33.839844 28.515625 L 33.839844 30.867188 C 34.023438 30.800781 34.222656 30.75 34.40625 30.722656 C 34.589844 30.695312 34.785156 30.671875 34.972656 30.671875 C 36.035156 30.671875 36.878906 30.972656 37.511719 31.550781 C 38.140625 32.140625 38.457031 32.929688 38.457031 33.925781 C 38.457031 34.964844 38.128906 35.765625 37.484375 36.332031 C 36.839844 36.894531 35.929688 37.171875 34.773438 37.171875 C 34.367188 37.171875 33.957031 37.132812 33.535156 37.078125 C 33.117188 37.011719 32.695312 36.921875 32.246094 36.777344 L 32.246094 35.476562 C 32.628906 35.6875 33.023438 35.84375 33.445312 35.949219 C 33.851562 36.054688 34.285156 36.09375 34.746094 36.09375 C 35.484375 36.09375 36.078125 35.910156 36.511719 35.515625 C 36.929688 35.121094 37.15625 34.597656 37.15625 33.925781 C 37.15625 33.269531 36.929688 32.746094 36.511719 32.351562 C 36.078125 31.957031 35.484375 31.761719 34.746094 31.761719 C 34.40625 31.761719 34.050781 31.800781 33.707031 31.878906 C 33.367188 31.957031 33.011719 32.074219 32.65625 32.234375 Z M 32.65625 27.425781 "/>
<path style=" stroke:none;fill-rule:nonzero;fill:rgb(0%,0%,0%);fill-opacity:1;" d="M 1.40625 221.683594 L 2.671875 221.683594 C 2.433594 222.183594 2.261719 222.644531 2.144531 223.078125 C 2.039062 223.523438 1.972656 223.945312 1.972656 224.339844 C 1.972656 225.046875 2.117188 225.597656 2.382812 225.980469 C 2.65625 226.359375 3.050781 226.542969 3.550781 226.542969 C 3.972656 226.542969 4.300781 226.425781 4.511719 226.164062 C 4.738281 225.914062 4.90625 225.429688 5.039062 224.71875 L 5.199219 223.929688 C 5.382812 222.972656 5.710938 222.261719 6.171875 221.804688 C 6.644531 221.34375 7.261719 221.109375 8.039062 221.109375 C 8.972656 221.109375 9.671875 221.421875 10.144531 222.039062 C 10.617188 222.671875 10.855469 223.578125 10.855469 224.769531 C 10.855469 225.230469 10.800781 225.714844 10.710938 226.230469 C 10.617188 226.742188 10.472656 227.265625 10.261719 227.804688 L 8.921875 227.804688 C 9.222656 227.28125 9.449219 226.765625 9.59375 226.269531 C 9.75 225.769531 9.816406 225.269531 9.816406 224.769531 C 9.816406 224.035156 9.671875 223.472656 9.382812 223.0625 C 9.09375 222.671875 8.683594 222.460938 8.132812 222.460938 C 7.65625 222.460938 7.289062 222.605469 7.027344 222.894531 C 6.761719 223.183594 6.566406 223.65625 6.433594 224.3125 L 6.277344 225.097656 C 6.09375 226.070312 5.789062 226.765625 5.367188 227.199219 C 4.960938 227.632812 4.394531 227.84375 3.65625 227.84375 C 2.816406 227.84375 2.144531 227.554688 1.65625 226.949219 C 1.171875 226.359375 0.921875 225.53125 0.921875 224.484375 C 0.921875 224.035156 0.960938 223.589844 1.039062 223.117188 C 1.117188 222.65625 1.25 222.183594 1.40625 221.683594 Z M 1.40625 221.683594 "/>
<path style=" stroke:none;fill-rule:nonzero;fill:rgb(0%,0%,0%);fill-opacity:1;" d="M 9.605469 217.996094 L 13.40625 217.996094 L 13.40625 219.175781 L 3.488281 219.175781 L 3.488281 217.996094 L 4.578125 217.996094 C 4.15625 217.757812 3.84375 217.445312 3.632812 217.0625 C 3.421875 216.683594 3.316406 216.222656 3.316406 215.699219 C 3.316406 214.832031 3.671875 214.121094 4.355469 213.570312 C 5.050781 213.03125 5.960938 212.757812 7.09375 212.757812 C 8.222656 212.757812 9.144531 213.03125 9.828125 213.570312 C 10.511719 214.121094 10.855469 214.832031 10.855469 215.699219 C 10.855469 216.222656 10.75 216.683594 10.550781 217.0625 C 10.355469 217.445312 10.039062 217.757812 9.605469 217.996094 Z M 7.09375 213.976562 C 6.222656 213.976562 5.550781 214.160156 5.050781 214.515625 C 4.550781 214.882812 4.300781 215.371094 4.300781 215.988281 C 4.300781 216.617188 4.550781 217.101562 5.050781 217.457031 C 5.550781 217.824219 6.222656 217.996094 7.09375 217.996094 C 7.960938 217.996094 8.644531 217.824219 9.144531 217.457031 C 9.644531 217.101562 9.882812 216.617188 9.882812 215.988281 C 9.882812 215.371094 9.644531 214.882812 9.144531 214.515625 C 8.644531 214.160156 7.960938 213.976562 7.09375 213.976562 Z M 7.09375 213.976562 "/>
<path style=" stroke:none;fill-rule:nonzero;fill:rgb(0%,0%,0%);fill-opacity:1;" d="M 6.789062 204.652344 L 7.367188 204.652344 L 7.367188 210.078125 C 8.183594 210.023438 8.816406 209.789062 9.238281 209.34375 C 9.65625 208.910156 9.867188 208.304688 9.867188 207.515625 C 9.867188 207.070312 9.816406 206.625 9.710938 206.203125 C 9.605469 205.785156 9.433594 205.351562 9.199219 204.929688 L 10.316406 204.929688 C 10.5 205.351562 10.644531 205.785156 10.722656 206.230469 C 10.800781 206.675781 10.855469 207.136719 10.855469 207.582031 C 10.855469 208.738281 10.527344 209.644531 9.867188 210.3125 C 9.210938 210.984375 8.300781 211.3125 7.15625 211.3125 C 5.988281 211.3125 5.050781 210.996094 4.355469 210.367188 C 3.671875 209.734375 3.316406 208.871094 3.316406 207.792969 C 3.316406 206.820312 3.632812 206.058594 4.25 205.496094 C 4.882812 204.941406 5.722656 204.652344 6.789062 204.652344 Z M 6.449219 205.835938 C 5.800781 205.847656 5.289062 206.03125 4.894531 206.375 C 4.511719 206.730469 4.316406 207.203125 4.316406 207.78125 C 4.316406 208.4375 4.511719 208.960938 4.882812 209.355469 C 5.25 209.75 5.777344 209.984375 6.449219 210.039062 Z M 6.449219 205.835938 "/>
<path style=" stroke:none;fill-rule:nonzero;fill:rgb(0%,0%,0%);fill-opacity:1;" d="M 6.789062 196.578125 L 7.367188 196.578125 L 7.367188 202 C 8.183594 201.949219 8.816406 201.710938 9.238281 201.265625 C 9.65625 200.832031 9.867188 200.230469 9.867188 199.441406 C 9.867188 198.996094 9.816406 198.546875 9.710938 198.128906 C 9.605469 197.707031 9.433594 197.273438 9.199219 196.855469 L 10.316406 196.855469 C 10.5 197.273438 10.644531 197.707031 10.722656 198.152344 C 10.800781 198.601562 10.855469 199.058594 10.855469 199.507812 C 10.855469 200.664062 10.527344 201.566406 9.867188 202.238281 C 9.210938 202.90625 8.300781 203.234375 7.15625 203.234375 C 5.988281 203.234375 5.050781 202.921875 4.355469 202.289062 C 3.671875 201.660156 3.316406 200.792969 3.316406 199.714844 C 3.316406 198.746094 3.632812 197.984375 4.25 197.417969 C 4.882812 196.867188 5.722656 196.578125 6.789062 196.578125 Z M 6.449219 197.761719 C 5.800781 197.773438 5.289062 197.957031 4.894531 198.296875 C 4.511719 198.652344 4.316406 199.125 4.316406 199.703125 C 4.316406 200.359375 4.511719 200.886719 4.882812 201.28125 C 5.25 201.671875 5.777344 201.910156 6.449219 201.960938 Z M 6.449219 197.761719 "/>
<path style=" stroke:none;fill-rule:nonzero;fill:rgb(0%,0%,0%);fill-opacity:1;" d="M 4.578125 189.921875 L 0.683594 189.921875 L 0.683594 188.738281 L 10.683594 188.738281 L 10.683594 189.921875 L 9.605469 189.921875 C 10.039062 190.171875 10.355469 190.484375 10.550781 190.867188 C 10.75 191.246094 10.855469 191.695312 10.855469 192.21875 C 10.855469 193.085938 10.511719 193.792969 9.828125 194.347656 C 9.144531 194.898438 8.222656 195.160156 7.09375 195.160156 C 5.960938 195.160156 5.050781 194.898438 4.355469 194.347656 C 3.671875 193.792969 3.316406 193.085938 3.316406 192.21875 C 3.316406 191.695312 3.421875 191.246094 3.632812 190.867188 C 3.84375 190.484375 4.15625 190.171875 4.578125 189.921875 Z M 7.09375 193.9375 C 7.960938 193.9375 8.644531 193.769531 9.144531 193.414062 C 9.644531 193.058594 9.882812 192.574219 9.882812 191.941406 C 9.882812 191.3125 9.644531 190.828125 9.144531 190.460938 C 8.644531 190.105469 7.960938 189.921875 7.09375 189.921875 C 6.222656 189.921875 5.550781 190.105469 5.050781 190.460938 C 4.550781 190.828125 4.300781 191.3125 4.300781 191.941406 C 4.300781 192.574219 4.550781 193.058594 5.050781 193.414062 C 5.550781 193.769531 6.222656 193.9375 7.09375 193.9375 Z M 7.09375 193.9375 "/>
<path style=" stroke:none;fill-rule:nonzero;fill:rgb(0%,0%,0%);fill-opacity:1;" d="M 0.683594 182.238281 L 0.683594 179.519531 L 1.605469 179.519531 L 1.605469 181.058594 L 11.488281 181.058594 L 11.488281 179.519531 L 12.40625 179.519531 L 12.40625 182.238281 Z M 0.683594 182.238281 "/>
<path style=" stroke:none;fill-rule:nonzero;fill:rgb(0%,0%,0%);fill-opacity:1;" d="M 4.867188 171.417969 C 4.34375 171.128906 3.960938 170.773438 3.699219 170.367188 C 3.449219 169.960938 3.316406 169.476562 3.316406 168.910156 C 3.316406 168.175781 3.578125 167.597656 4.105469 167.191406 C 4.632812 166.785156 5.382812 166.574219 6.34375 166.574219 L 10.683594 166.574219 L 10.683594 167.753906 L 6.382812 167.753906 C 5.699219 167.753906 5.183594 167.886719 4.84375 168.121094 C 4.511719 168.371094 4.34375 168.738281 4.34375 169.238281 C 4.34375 169.855469 4.550781 170.34375 4.960938 170.695312 C 5.367188 171.050781 5.921875 171.222656 6.617188 171.222656 L 10.683594 171.222656 L 10.683594 172.402344 L 6.382812 172.402344 C 5.699219 172.402344 5.183594 172.535156 4.84375 172.769531 C 4.511719 173.019531 4.34375 173.402344 4.34375 173.902344 C 4.34375 174.503906 4.550781 174.992188 4.960938 175.34375 C 5.367188 175.699219 5.921875 175.871094 6.617188 175.871094 L 10.683594 175.871094 L 10.683594 177.050781 L 3.488281 177.050781 L 3.488281 175.871094 L 4.605469 175.871094 C 4.171875 175.609375 3.84375 175.28125 3.632812 174.898438 C 3.421875 174.53125 3.316406 174.085938 3.316406 173.558594 C 3.316406 173.035156 3.449219 172.601562 3.710938 172.234375 C 3.972656 171.867188 4.367188 171.601562 4.867188 171.417969 Z M 4.867188 171.417969 "/>
<path style=" stroke:none;fill-rule:nonzero;fill:rgb(0%,0%,0%);fill-opacity:1;" d="M 1.09375 162.121094 L 1.09375 161.03125 L 11.894531 164.367188 L 11.894531 165.457031 Z M 1.09375 162.121094 "/>
<path style=" stroke:none;fill-rule:nonzero;fill:rgb(0%,0%,0%);fill-opacity:1;" d="M 3.699219 155.214844 L 4.816406 155.214844 C 4.65625 155.554688 4.527344 155.898438 4.433594 156.253906 C 4.355469 156.621094 4.300781 156.988281 4.300781 157.367188 C 4.300781 157.960938 4.394531 158.40625 4.578125 158.695312 C 4.761719 158.984375 5.027344 159.128906 5.382812 159.128906 C 5.65625 159.128906 5.867188 159.023438 6.027344 158.8125 C 6.183594 158.601562 6.34375 158.183594 6.472656 157.550781 L 6.566406 157.144531 C 6.75 156.304688 7.011719 155.714844 7.328125 155.359375 C 7.65625 155.019531 8.117188 154.832031 8.699219 154.832031 C 9.367188 154.832031 9.894531 155.097656 10.277344 155.621094 C 10.671875 156.148438 10.855469 156.882812 10.855469 157.800781 C 10.855469 158.195312 10.816406 158.589844 10.75 159.007812 C 10.683594 159.429688 10.578125 159.863281 10.421875 160.324219 L 9.199219 160.324219 C 9.433594 159.890625 9.605469 159.457031 9.710938 159.035156 C 9.828125 158.617188 9.882812 158.195312 9.882812 157.773438 C 9.882812 157.222656 9.789062 156.789062 9.605469 156.488281 C 9.421875 156.199219 9.144531 156.042969 8.789062 156.042969 C 8.472656 156.042969 8.222656 156.160156 8.050781 156.371094 C 7.882812 156.582031 7.710938 157.054688 7.550781 157.789062 L 7.460938 158.195312 C 7.300781 158.929688 7.066406 159.46875 6.75 159.785156 C 6.433594 160.113281 6 160.269531 5.433594 160.269531 C 4.761719 160.269531 4.238281 160.035156 3.867188 159.5625 C 3.5 159.089844 3.316406 158.40625 3.316406 157.511719 C 3.316406 157.078125 3.355469 156.671875 3.421875 156.277344 C 3.488281 155.898438 3.578125 155.542969 3.699219 155.214844 Z M 3.699219 155.214844 "/>
<path style=" stroke:none;fill-rule:nonzero;fill:rgb(0%,0%,0%);fill-opacity:1;" d="M 0.683594 150.199219 L 12.40625 150.199219 L 12.40625 152.917969 L 11.488281 152.917969 L 11.488281 151.378906 L 1.605469 151.378906 L 1.605469 152.917969 L 0.683594 152.917969 Z M 0.683594 150.199219 "/>
<path style="fill:none;stroke-width:2.5;stroke-linecap:square;stroke-linejoin:round;stroke:rgb(0%,50.196078%,50.196078%);stroke-opacity:1;stroke-miterlimit:4;" d="M 49.201094 254.889303 L 50.370781 200.947987 L 51.659219 158.629056 L 51.991719 150.278906 L 52.404375 140.735877 L 52.627031 136.377855 L 53.58 120.96265 L 54.663594 108.584675 L 55.824375 97.122927 L 56.076719 95.180409 L 56.245938 93.258714 L 56.4775 92.238371 L 56.676406 89.462921 L 58.606094 77.212861 L 60.114219 71.763101 L 60.853438 69.886028 L 61.177031 69.127464 L 61.714375 67.940535 L 62.017188 67.247416 L 62.895938 65.602374 L 63.845938 64.046575 L 64.505 63.189844 L 64.71875 62.99351 L 64.9325 62.764453 L 65.262031 62.434255 L 65.547031 62.074309 L 65.992344 61.773858 L 67.156094 60.917127 L 68.242656 60.194261 L 68.80375 59.825391 L 69.637969 59.263161 L 69.940781 59.230439 L 70.154531 59.066827 L 70.587969 58.864543 L 70.700781 58.903215 L 71.033281 58.700931 L 71.220313 58.668209 L 71.674531 58.4689 L 71.879375 58.403456 L 72.50875 58.135727 L 72.820469 58.034585 L 75.171719 57.406911 L 75.40625 57.341466 L 76.160313 57.23735 L 77.104375 57.073738 L 77.989063 57.008293 L 78.182031 56.910126 L 78.502656 56.972596 L 78.855938 56.904177 L 79.690156 56.841707 L 80.129531 56.782212 L 80.209688 56.838732 L 80.4175 56.808984 L 80.643125 56.776262 L 81.064688 57.008293 L 81.726719 56.942849 L 82.994375 56.844681 L 83.261563 56.811959 L 83.407031 56.877404 L 83.739531 56.844681 L 84.927031 57.142157 L 85.016094 57.076713 L 85.235781 57.109435 L 86.737969 57.213552 L 86.945781 57.311719 L 87.058594 57.210577 L 87.290156 57.243299 L 87.913594 57.308744 L 88.130313 57.409886 L 88.673594 57.344441 L 90.068906 57.439633 L 90.362813 57.508053 L 90.576563 57.475331 L 91.330625 57.374189 L 91.98375 57.475331 L 92.224219 57.701412 L 92.402344 57.707362 L 93.031719 57.573498 L 93.358281 57.576472 L 93.916406 57.508053 L 94.343906 57.508053 L 94.566563 57.540775 L 96.897031 57.439633 L 97.101875 57.409886 L 97.434375 57.478305 L 97.54125 57.403936 L 97.743125 57.442608 L 100.046875 57.508053 L 100.097344 57.609195 L 101.172031 57.60622 L 101.819219 57.936418 L 101.929063 57.870974 L 102.142813 57.936418 L 102.674219 57.737109 L 102.893906 57.867999 L 102.994844 57.873948 L 103.101719 58.067308 L 103.309531 57.936418 L 103.520313 58.001863 L 105.779531 58.001863 L 105.993281 57.870974 L 106.198125 57.802554 L 106.310938 57.737109 L 106.420781 57.870974 L 106.643438 57.802554 L 106.85125 57.939393 L 107.047188 58.067308 L 107.367813 58.001863 L 108.56125 58.067308 L 108.763125 58.332061 L 108.87 58.332061 L 108.982813 58.201172 L 109.095625 58.266617 L 109.294531 58.132752 L 109.781406 58.067308 L 109.840781 58.001863 L 109.956563 58.067308 L 110.036719 57.936418 L 110.404844 58.001863 L 110.464219 57.936418 L 110.582969 58.001863 L 110.805625 57.939393 L 110.897656 57.998888 L 111.325156 57.870974 L 112.180156 57.802554 L 112.212813 57.740084 L 112.325625 52.784135 L 112.399844 54.435126 L 113.032188 57.341466 L 113.812969 59.51899 L 114 59.783744 L 114.121719 59.783744 L 114.21375 59.917608 L 114.433438 59.718299 L 114.540313 59.852163 L 114.653125 59.721274 L 114.762969 59.789694 L 114.97375 59.453546 L 115.300313 59.391076 L 115.522969 59.194742 L 115.92375 58.733654 L 116.048438 58.730679 L 116.369063 58.471875 L 116.63625 58.403456 L 117.105313 58.007812 L 117.325 58.007812 L 117.805938 58.073257 L 117.912813 58.207121 L 117.963281 58.138702 L 118.29875 58.207121 L 119.370469 58.668209 L 119.468438 58.602764 L 119.907813 58.802073 L 120.020625 58.733654 L 120.115625 58.867518 L 120.255156 58.671184 L 120.320469 58.730679 L 120.555 58.802073 L 121.074531 58.53732 L 121.222969 58.602764 L 121.282344 58.40643 L 121.383281 58.4689 L 121.834531 58.207121 L 122.024531 58.141677 L 122.47875 57.811478 L 122.784531 57.746034 L 122.998281 57.609195 L 123.633594 57.808504 L 123.972031 57.677614 L 124.280781 57.805529 L 125.126875 57.942368 L 125.679063 58.135727 L 126.73 58.070282 L 127.389063 57.939393 L 127.920469 57.870974 L 128.235156 57.808504 L 128.882344 57.671665 L 129.075313 57.671665 L 129.577031 57.609195 L 129.731406 57.540775 L 131.441406 57.603245 L 131.678906 57.66869 L 131.767969 57.603245 L 131.874844 57.734135 L 132.079688 57.603245 L 132.308281 57.60027 L 133.1425 57.603245 L 133.581875 57.475331 L 133.908438 57.5378 L 134.131094 57.338492 L 134.21125 57.469381 L 134.442813 57.469381 L 134.751563 57.603245 L 134.977188 57.665715 L 135.098906 57.737109 L 135.6125 57.534826 L 136.04 57.66869 L 136.479375 57.603245 L 136.559531 57.5378 L 136.794063 57.5378 L 137.105781 57.603245 L 137.325469 57.66869 L 137.640156 57.534826 L 138.061719 57.66869 L 138.922656 57.671665 L 139.041406 57.469381 L 139.234375 57.737109 L 139.676719 57.5378 L 139.76875 57.737109 L 139.994375 57.802554 L 140.303125 57.933444 L 140.754375 57.737109 L 140.971094 57.936418 L 141.297656 58.067308 L 141.484688 58.004838 L 141.817188 57.936418 L 141.93 57.867999 L 142.363438 58.001863 L 142.681094 57.870974 L 143.200625 57.802554 L 143.301563 57.740084 L 143.628125 57.805529 L 143.966563 57.671665 L 144.073438 57.802554 L 144.215938 57.743059 L 144.287188 57.870974 L 144.373281 57.802554 L 144.592969 57.867999 L 144.80375 57.802554 L 145.026406 57.802554 L 145.234219 57.936418 L 145.762656 57.740084 L 145.857656 57.805529 L 146.837344 57.412861 L 146.956094 57.54375 L 147.163906 57.409886 L 147.466719 57.60622 L 147.591406 57.409886 L 147.912031 57.671665 L 148.131719 58.001863 L 148.345469 58.129778 L 148.565156 58.001863 L 149.010469 57.802554 L 149.07875 57.936418 L 149.414219 57.671665 L 150.165313 58.132752 L 150.281094 58.001863 L 150.595781 58.001863 L 150.901563 58.204147 L 151.008438 58.198197 L 151.242969 58.135727 L 151.664531 57.936418 L 152.077188 58.001863 L 152.302813 57.808504 L 152.391875 57.867999 L 152.504688 57.737109 L 152.73625 57.740084 L 153.151875 57.740084 L 153.389375 57.60622 L 153.603125 57.609195 L 155.093438 57.5378 L 155.179531 57.671665 L 155.515 57.475331 L 155.734688 57.60622 L 155.820781 57.60622 L 155.921719 57.475331 L 156.046406 57.540775 L 156.242344 57.478305 L 156.586719 57.936418 L 156.696563 58.001863 L 156.809375 57.936418 L 156.895469 57.671665 L 157.023125 57.737109 L 157.222031 58.001863 L 157.435781 57.936418 L 157.762344 57.867999 L 158.296719 57.805529 L 158.528281 57.671665 L 158.596563 57.671665 L 158.715313 57.805529 L 158.825156 57.740084 L 159.098281 57.933444 L 159.178438 57.939393 L 159.371406 57.805529 L 159.739531 57.870974 L 159.985938 58.070282 L 160.110625 57.870974 L 160.223438 58.004838 L 160.330313 57.873948 L 160.867656 58.66226 L 161.511875 58.332061 L 161.767188 58.394531 L 161.939375 58.201172 L 162.47375 58.135727 L 162.56875 58.070282 L 162.80625 58.070282 L 163.441563 57.870974 L 163.975938 57.936418 L 164.070938 57.740084 L 164.477656 57.873948 L 164.709219 57.805529 L 164.922969 57.870974 L 165.017969 57.805529 L 165.130781 57.870974 L 165.231719 57.740084 L 165.436563 57.936418 L 165.549375 57.873948 L 165.985781 58.400481 L 166.190625 58.332061 L 166.632969 58.266617 L 166.725 58.135727 L 167.060469 58.198197 L 167.164375 58.004838 L 167.27125 58.135727 L 167.493906 58.070282 L 167.686875 58.400481 L 167.808594 58.400481 L 167.900625 58.53137 L 168.025313 58.400481 L 168.147031 58.462951 L 168.236094 58.269591 L 168.660625 58.66226 L 168.794219 58.796124 L 169.616563 58.4689 L 169.895625 58.4689 L 170.171719 58.201172 L 170.361719 58.135727 L 170.489375 58.135727 L 170.584375 58.266617 L 171.02375 58.073257 L 171.216719 58.135727 L 171.665 57.939393 L 171.765938 58.067308 L 171.872813 57.870974 L 172.071719 58.004838 L 172.297344 57.808504 L 172.632813 57.870974 L 172.727813 57.740084 L 172.953438 57.805529 L 173.375 57.805529 L 173.478906 57.671665 L 173.579844 57.808504 L 173.820313 57.66869 L 173.933125 57.740084 L 174.060781 57.671665 L 174.247813 56.035547 L 174.449688 55.514964 L 176.590156 41.551442 L 176.89 40.168179 L 177.537188 38.969351 L 177.872656 29.795192 L 178.205156 35.375841 L 178.445625 38.716496 L 178.519844 38.621304 L 178.831563 36.955439 L 178.944375 36.50625 L 179.259063 37.568239 L 179.588594 37.832993 L 180.045781 38.686749 L 180.307031 39.391767 L 180.419844 39.385817 L 181.156094 40.754207 L 181.301563 40.742308 L 182.569219 42.3814 L 183.097656 42.57476 L 183.430156 42.539062 L 183.56375 42.542037 L 183.845781 42.232662 L 183.952656 42.140445 L 184.216875 42.06905 L 184.279219 41.744802 L 184.377188 39.683293 L 184.463281 39.962921 L 184.644375 39.736839 L 184.721563 39.742788 L 185.027344 38.996124 L 185.55875 38.216737 L 186.853125 32.597416 L 188.02875 26.769862 L 188.281094 26.100541 L 188.78875 24.366256 L 189.011406 23.845673 L 189.136094 23.845673 L 189.349844 23.354838 L 189.649688 22.890775 L 189.783281 22.855078 L 189.940625 22.667668 L 190.252344 22.548678 L 190.673906 22.147085 L 190.798594 22.221454 L 191.220156 21.697897 L 191.546719 21.329026 L 191.867344 20.876863 L 192.187969 20.159946 L 193.99 17.646274 L 194.310625 17.708744 L 194.444219 17.658173 L 194.551094 17.458864 L 194.764844 17.44399 L 194.957813 17.366647 L 195.189375 17.277404 L 195.539688 17.336899 L 195.658438 17.274429 L 195.717813 17.38747 L 196.465938 16.852013 L 196.786563 17.232782 L 197.018125 17.203035 L 197.157656 17.128666 L 197.326875 16.780619 L 197.519844 16.697326 L 198.609375 16.075601 L 198.826094 15.787049 L 199.069531 15.65021 L 199.247656 15.534195 L 200.536094 14.632843 L 200.651875 14.772656 L 200.865625 14.623918 L 200.963594 14.763732 L 201.818594 14.576322 L 201.931406 14.451382 L 202.070938 14.561448 L 202.151094 14.463281 L 202.774531 14.397837 L 203.012031 14.180679 L 203.154531 14.269922 L 203.647344 13.838582 L 203.872969 13.752314 L 203.967969 13.43104 L 204.294531 13.43104 L 204.419219 12.99375 L 204.502344 13.082993 L 204.621094 12.966977 L 204.822969 13.356671 L 204.926875 13.627374 L 205.069375 13.600601 L 205.493906 13.047296 L 205.775938 13.315024 L 205.894688 13.234706 L 206.117344 13.285276 L 206.541875 13.071094 L 206.868438 13.264453 L 206.9575 13.178185 L 207.150469 13.329898 L 207.806563 13.347746 L 208.237031 13.600601 L 208.539844 13.642248 L 208.780313 13.713642 L 209.314688 13.585727 L 209.412656 13.743389 L 209.638281 13.752314 L 209.828281 13.904026 L 210.30625 13.865355 L 210.395313 13.689844 L 210.502188 13.874279 L 210.609063 13.785036 L 211.128594 14.136058 L 211.443281 13.993269 L 211.662969 14.028966 L 211.781719 14.061689 L 211.989531 13.975421 L 212.084531 13.898077 L 212.215156 13.957572 L 212.304219 13.785036 L 212.517969 13.874279 L 212.951406 14.094411 L 213.055313 13.886178 L 213.165156 13.98137 L 213.399688 13.773137 L 213.485781 13.686869 L 213.824219 13.930799 L 214.023125 13.814784 L 214.444688 13.823708 L 214.872188 13.683894 L 214.990938 13.796935 L 215.192813 13.61845 L 215.819219 13.561929 L 215.920156 13.657121 L 216.261563 13.448888 L 216.608906 13.377494 L 216.834531 13.588702 L 216.923594 13.529207 L 217.0275 13.145463 L 217.140313 13.294201 L 217.256094 13.261478 L 217.523281 13.841556 L 217.956719 13.582752 L 218.390156 13.746364 L 218.508906 13.398317 L 218.609844 13.484585 L 218.835469 13.392368 L 219.162031 13.36857 L 219.337188 13.511358 L 219.458906 13.24363 L 219.892344 13.442939 L 220.09125 13.764213 L 220.224844 13.823708 L 220.545469 13.466737 L 220.94625 13.877254 L 221.394531 13.722566 L 221.5875 13.463762 L 221.819063 13.698768 L 221.928906 13.42509 L 222.032813 13.663071 L 222.267344 13.514333 L 222.908594 13.948648 L 223.027344 13.61845 L 223.294531 13.701743 L 223.413281 13.764213 L 223.508281 13.585727 L 223.754688 13.639273 L 223.9625 13.603576 L 224.330625 14.091436 L 224.677969 16.441496 L 225.099531 18.479207 L 225.823906 20.082602 L 226.150469 20.689453 L 227.231094 23.20015 L 228.187031 26.124339 L 229.410156 30.889904 L 229.707031 31.8686 L 230.796563 37.035757 L 231.856406 43.202434 L 232.530313 47.358173 L 235.341719 63.689603 L 235.496094 63.996004 L 236.164063 67.4497 L 237.502969 73.806761 L 237.704844 74.383864 L 238.170938 75.285216 L 239.13875 75.939663 L 239.251563 75.975361 L 239.592969 75.651112 L 239.934375 75.136478 L 240.54 73.378395 L 240.875469 71.798798 L 241.213906 70.463131 L 241.427656 69.279177 L 242.70125 62.544321 L 243.125781 60.322175 L 243.309844 59.765895 L 243.550313 59.102524 L 243.885781 58.671184 L 244.396406 58.1625 L 244.452813 58.171424 L 244.524063 57.97509 L 244.583438 58.049459 L 245.233594 57.603245 L 245.334531 57.671665 L 245.438438 57.552674 L 245.55125 57.621094 L 245.765 57.400962 L 246.715 56.98152 L 246.821875 56.841707 L 246.955469 56.954748 L 247.148438 56.776262 L 247.469063 56.660246 L 247.587813 56.440114 L 247.8075 56.74354 L 247.896563 56.68107 L 248.110313 56.716767 L 248.303281 56.689994 L 248.44875 56.773287 L 250.684219 57.454507 L 250.805938 57.624069 L 251.438281 57.54375 L 251.539219 57.704387 L 251.865781 57.466406 L 252.507031 57.189754 L 252.622813 57.032091 L 252.726719 57.091587 L 253.949844 56.047446 L 254.24375 55.642879 L 254.650469 55.43762 L 254.864219 55.449519 L 254.911719 55.336478 L 254.977031 53.414784 L 255.285781 54.167398 L 255.737031 54.586839 L 256.470313 55.413822 L 256.580156 55.410847 L 256.731563 55.541737 L 256.805781 55.413822 L 257.004688 55.482242 L 257.126406 55.479267 L 257.206563 55.348377 L 257.313438 55.473317 L 257.432188 55.339453 L 257.628125 55.333504 L 258.061563 55.181791 L 259.355938 55.089573 L 259.560781 55.134195 L 259.676563 55.053876 L 259.762656 55.175841 L 259.887344 55.021154 L 260.136719 55.13122 L 260.196094 54.982482 L 260.430625 55.027103 L 260.5375 54.946785 L 261.077813 55.416797 L 261.609219 55.419772 L 261.917969 55.657752 L 262.030781 55.503065 L 262.143594 55.616106 L 262.452344 55.44357 L 262.571094 55.503065 L 262.660156 55.422746 L 262.778906 55.532812 L 263.298438 55.282933 L 264.382031 55.31863 L 264.714531 55.458444 L 264.9075 55.363251 L 265.355781 55.404898 L 265.560625 55.431671 L 265.88125 55.50604 L 266.008906 55.413822 L 266.089063 55.541737 L 266.201875 55.511989 L 266.30875 55.63098 L 266.549219 55.601232 L 267.050938 55.449519 L 267.169688 55.642879 L 267.365625 55.550661 L 267.704063 55.31268 L 267.793125 55.44357 L 268.009844 55.419772 L 269.826719 55.163942 L 269.978125 55.024129 L 270.040469 55.157993 L 270.260156 55.015204 L 270.447188 55.146094 L 270.568906 55.392999 L 270.993438 55.229387 L 271.115156 55.294832 L 271.364531 55.152043 L 271.53375 55.083624 L 271.649531 55.033053 L 271.7475 55.140144 L 271.854375 55.018179 L 271.970156 55.149069 L 272.204688 55.0747 L 272.38875 55.196665 L 272.81625 55.321605 L 273.14875 55.241286 L 273.905781 55.226412 L 274.006719 55.080649 L 274.119531 55.220463 L 274.324375 55.149069 L 274.757813 55.666677 L 275.28625 55.538762 L 275.378281 55.458444 L 275.505938 55.535787 L 275.61875 55.461418 L 275.76125 55.526863 L 275.826563 55.395974 L 275.939375 55.535787 L 276.052188 55.395974 L 276.14125 55.601232 L 276.366875 55.395974 L 276.553906 55.464393 L 276.788438 55.791617 L 277.201094 55.723197 L 277.322813 55.601232 L 277.643438 55.741046 L 277.75625 55.672626 L 277.949219 55.87491 L 278.281719 55.68155 L 278.442031 55.741046 L 278.614219 55.616106 L 278.718125 55.68155 L 279.03875 55.559585 L 279.243594 55.56256 L 279.576094 55.559585 L 279.677031 55.770793 L 279.792813 55.690475 L 279.997656 55.961178 L 280.543906 56.422266 L 280.733906 56.365745 L 280.947656 56.36277 L 281.820469 56.386569 L 282.681406 56.327073 L 283.034688 56.190234 L 283.616563 56.713792 L 284.489375 56.452013 L 284.602188 56.591827 L 284.804063 56.529357 L 285.017813 56.526382 L 285.231563 56.517458 L 285.976719 56.511508 L 286.205313 56.452013 L 286.751563 56.526382 L 286.879219 56.639423 L 286.950469 56.443089 L 287.039531 56.508534 L 287.274063 56.576953 L 287.814375 57.10646 L 287.906406 56.960697 L 288.339844 56.901202 L 288.794063 56.692969 L 288.883125 56.829808 L 289.102813 56.829808 L 289.182969 56.957722 L 289.44125 56.820883 L 289.815313 56.820883 L 290.055781 57.014243 L 290.156719 56.945823 L 290.275469 56.615625 L 290.355625 56.871454 L 290.789063 57.198678 L 291.118594 57.058864 " transform="matrix(1.315789,0,0,1.313131,0,13)"/>
<path style="fill:none;stroke-width:2.5;stroke-linecap:butt;stroke-linejoin:round;stroke:rgb(100%,0%,0%);stroke-opacity:1;stroke-dasharray:9.25,4;stroke-miterlimit:4;" d="M 49.201094 57.867999 L 177.219531 57.867999 L 177.329375 14.478155 L 223.508281 14.478155 L 223.754688 57.867999 L 291.118594 57.867999 " transform="matrix(1.315789,0,0,1.313131,0,13)"/>
<path style="fill:none;stroke-width:0.8;stroke-linecap:square;stroke-linejoin:miter;stroke:rgb(0%,0%,0%);stroke-opacity:1;stroke-miterlimit:10;" d="M 37.103438 266.984675 L 37.103438 0.871605 M 303.21625 266.984675 L 303.21625 0.871605 M 37.103438 266.984675 L 303.21625 266.984675 M 37.103438 0.871605 L 303.21625 0.871605 " transform="matrix(1.315789,0,0,1.313131,0,13)"/>
<path style="fill-rule:nonzero;fill:rgb(100%,100%,100%);fill-opacity:0.8;stroke-width:1;stroke-linecap:butt;stroke-linejoin:miter;stroke:rgb(83.529412%,83.921569%,83.529412%);stroke-opacity:0.8;stroke-miterlimit:10;" d="M 44.10375 38.216737 L 172.9475 38.216737 C 174.280469 38.216737 174.948438 37.550391 174.948438 36.214724 L 174.948438 7.871214 C 174.948438 6.538522 174.280469 5.872175 172.9475 5.872175 L 44.10375 5.872175 C 42.770781 5.872175 42.102813 6.538522 42.102813 7.871214 L 42.102813 36.214724 C 42.102813 37.550391 42.770781 38.216737 44.10375 38.216737 Z M 44.10375 38.216737 " transform="matrix(1.315789,0,0,1.313131,0,13)"/>
<path style="fill:none;stroke-width:2.5;stroke-linecap:square;stroke-linejoin:round;stroke:rgb(0%,50.196078%,50.196078%);stroke-opacity:1;stroke-miterlimit:4;" d="M 46.104688 13.966496 L 66.105156 13.966496 " transform="matrix(1.315789,0,0,1.313131,0,13)"/>
<path style=" stroke:none;fill-rule:nonzero;fill:rgb(0%,0%,0%);fill-opacity:1;" d="M 105.980469 27.097656 L 105.980469 28.464844 C 105.53125 28.070312 105.070312 27.765625 104.570312 27.558594 C 104.070312 27.359375 103.558594 27.253906 103.003906 27.253906 C 101.898438 27.253906 101.058594 27.597656 100.480469 28.265625 C 99.898438 28.9375 99.609375 29.894531 99.609375 31.15625 C 99.609375 32.414062 99.898438 33.386719 100.480469 34.058594 C 101.058594 34.726562 101.898438 35.054688 103.003906 35.054688 C 103.558594 35.054688 104.070312 34.964844 104.570312 34.753906 C 105.070312 34.554688 105.53125 34.253906 105.980469 33.847656 L 105.980469 35.199219 C 105.519531 35.515625 105.03125 35.738281 104.53125 35.882812 C 104.03125 36.027344 103.492188 36.105469 102.925781 36.105469 C 101.480469 36.105469 100.335938 35.671875 99.492188 34.792969 C 98.648438 33.914062 98.242188 32.703125 98.242188 31.15625 C 98.242188 29.617188 98.648438 28.410156 99.492188 27.519531 C 100.335938 26.636719 101.480469 26.191406 102.925781 26.191406 C 103.503906 26.191406 104.042969 26.269531 104.542969 26.414062 C 105.042969 26.574219 105.53125 26.796875 105.980469 27.097656 Z M 105.980469 27.097656 "/>
<path style=" stroke:none;fill-rule:nonzero;fill:rgb(0%,0%,0%);fill-opacity:1;" d="M 107.808594 33.097656 L 107.808594 28.753906 L 108.992188 28.753906 L 108.992188 33.058594 C 108.992188 33.742188 109.125 34.242188 109.386719 34.582031 C 109.648438 34.925781 110.042969 35.09375 110.585938 35.09375 C 111.214844 35.09375 111.730469 34.898438 112.097656 34.492188 C 112.464844 34.082031 112.648438 33.53125 112.648438 32.824219 L 112.648438 28.753906 L 113.835938 28.753906 L 113.835938 35.933594 L 112.648438 35.933594 L 112.648438 34.832031 C 112.359375 35.277344 112.019531 35.59375 111.648438 35.804688 C 111.269531 36 110.835938 36.105469 110.335938 36.105469 C 109.503906 36.105469 108.875 35.855469 108.453125 35.34375 C 108.019531 34.84375 107.808594 34.097656 107.808594 33.097656 Z M 110.78125 28.582031 Z M 110.78125 28.582031 "/>
<path style=" stroke:none;fill-rule:nonzero;fill:rgb(0%,0%,0%);fill-opacity:1;" d="M 120.441406 29.855469 C 120.308594 29.777344 120.164062 29.722656 120.003906 29.683594 C 119.847656 29.660156 119.675781 29.632812 119.492188 29.632812 C 118.820312 29.632812 118.308594 29.855469 117.953125 30.289062 C 117.585938 30.722656 117.414062 31.339844 117.414062 32.152344 L 117.414062 35.933594 L 116.230469 35.933594 L 116.230469 28.753906 L 117.414062 28.753906 L 117.414062 29.867188 C 117.648438 29.433594 117.980469 29.105469 118.375 28.898438 C 118.769531 28.6875 119.253906 28.582031 119.835938 28.582031 C 119.914062 28.582031 120.003906 28.59375 120.109375 28.59375 C 120.203125 28.609375 120.308594 28.621094 120.441406 28.648438 Z M 120.441406 29.855469 "/>
<path style=" stroke:none;fill-rule:nonzero;fill:rgb(0%,0%,0%);fill-opacity:1;" d="M 125.621094 29.855469 C 125.488281 29.777344 125.34375 29.722656 125.1875 29.683594 C 125.027344 29.660156 124.859375 29.632812 124.671875 29.632812 C 124.003906 29.632812 123.488281 29.855469 123.132812 30.289062 C 122.765625 30.722656 122.59375 31.339844 122.59375 32.152344 L 122.59375 35.933594 L 121.410156 35.933594 L 121.410156 28.753906 L 122.59375 28.753906 L 122.59375 29.867188 C 122.832031 29.433594 123.160156 29.105469 123.554688 28.898438 C 123.949219 28.6875 124.4375 28.582031 125.015625 28.582031 C 125.09375 28.582031 125.1875 28.59375 125.292969 28.59375 C 125.382812 28.609375 125.488281 28.621094 125.621094 28.648438 Z M 125.621094 29.855469 "/>
<path style=" stroke:none;fill-rule:nonzero;fill:rgb(0%,0%,0%);fill-opacity:1;" d="M 132.726562 32.046875 L 132.726562 32.625 L 127.292969 32.625 C 127.347656 33.441406 127.582031 34.070312 128.03125 34.492188 C 128.464844 34.910156 129.070312 35.121094 129.859375 35.121094 C 130.304688 35.121094 130.753906 35.070312 131.175781 34.964844 C 131.597656 34.859375 132.03125 34.6875 132.453125 34.453125 L 132.453125 35.566406 C 132.03125 35.75 131.597656 35.894531 131.148438 35.972656 C 130.703125 36.054688 130.242188 36.105469 129.792969 36.105469 C 128.636719 36.105469 127.726562 35.777344 127.054688 35.121094 C 126.386719 34.464844 126.054688 33.558594 126.054688 32.414062 C 126.054688 31.246094 126.371094 30.316406 127.003906 29.617188 C 127.636719 28.9375 128.503906 28.582031 129.582031 28.582031 C 130.554688 28.582031 131.320312 28.898438 131.886719 29.515625 C 132.4375 30.144531 132.726562 30.984375 132.726562 32.046875 Z M 131.542969 31.707031 C 131.53125 31.0625 131.347656 30.550781 131.003906 30.15625 C 130.648438 29.777344 130.175781 29.578125 129.597656 29.578125 C 128.9375 29.578125 128.410156 29.777344 128.015625 30.144531 C 127.621094 30.511719 127.386719 31.039062 127.332031 31.707031 Z M 131.542969 31.707031 "/>
<path style=" stroke:none;fill-rule:nonzero;fill:rgb(0%,0%,0%);fill-opacity:1;" d="M 140.648438 31.601562 L 140.648438 35.933594 L 139.464844 35.933594 L 139.464844 31.640625 C 139.464844 30.957031 139.320312 30.460938 139.054688 30.117188 C 138.792969 29.777344 138.398438 29.605469 137.871094 29.605469 C 137.226562 29.605469 136.726562 29.816406 136.359375 30.222656 C 135.992188 30.628906 135.804688 31.179688 135.804688 31.878906 L 135.804688 35.933594 L 134.621094 35.933594 L 134.621094 28.753906 L 135.804688 28.753906 L 135.804688 29.867188 C 136.082031 29.449219 136.410156 29.121094 136.804688 28.910156 C 137.1875 28.699219 137.636719 28.582031 138.136719 28.582031 C 138.953125 28.582031 139.582031 28.84375 140.003906 29.355469 C 140.425781 29.867188 140.648438 30.617188 140.648438 31.601562 Z M 140.648438 31.601562 "/>
<path style=" stroke:none;fill-rule:nonzero;fill:rgb(0%,0%,0%);fill-opacity:1;" d="M 144.175781 26.71875 L 144.175781 28.753906 L 146.609375 28.753906 L 146.609375 29.671875 L 144.175781 29.671875 L 144.175781 33.570312 C 144.175781 34.164062 144.253906 34.542969 144.410156 34.699219 C 144.570312 34.871094 144.898438 34.949219 145.398438 34.949219 L 146.609375 34.949219 L 146.609375 35.933594 L 145.398438 35.933594 C 144.476562 35.933594 143.847656 35.765625 143.503906 35.421875 C 143.160156 35.082031 142.992188 34.464844 142.992188 33.570312 L 142.992188 29.671875 L 142.121094 29.671875 L 142.121094 28.753906 L 142.992188 28.753906 L 142.992188 26.71875 Z M 144.175781 26.71875 "/>
<path style=" stroke:none;fill-rule:nonzero;fill:rgb(0%,0%,0%);fill-opacity:1;" d="M 156.9375 28.960938 L 156.9375 30.078125 C 156.597656 29.921875 156.253906 29.789062 155.898438 29.699219 C 155.53125 29.617188 155.160156 29.566406 154.78125 29.566406 C 154.1875 29.566406 153.742188 29.660156 153.453125 29.84375 C 153.160156 30.027344 153.015625 30.289062 153.015625 30.644531 C 153.015625 30.917969 153.121094 31.128906 153.332031 31.285156 C 153.542969 31.445312 153.964844 31.601562 154.597656 31.734375 L 155.003906 31.824219 C 155.847656 32.007812 156.4375 32.273438 156.792969 32.585938 C 157.136719 32.914062 157.320312 33.375 157.320312 33.953125 C 157.320312 34.621094 157.054688 35.148438 156.53125 35.527344 C 156.003906 35.921875 155.265625 36.105469 154.347656 36.105469 C 153.953125 36.105469 153.554688 36.066406 153.136719 36 C 152.714844 35.933594 152.28125 35.832031 151.820312 35.671875 L 151.820312 34.453125 C 152.253906 34.6875 152.6875 34.859375 153.109375 34.964844 C 153.53125 35.082031 153.953125 35.132812 154.371094 35.132812 C 154.925781 35.132812 155.359375 35.042969 155.660156 34.859375 C 155.953125 34.675781 156.109375 34.398438 156.109375 34.042969 C 156.109375 33.730469 155.992188 33.480469 155.78125 33.308594 C 155.570312 33.136719 155.097656 32.96875 154.359375 32.808594 L 153.953125 32.71875 C 153.214844 32.558594 152.675781 32.324219 152.359375 32.007812 C 152.03125 31.695312 151.871094 31.261719 151.871094 30.695312 C 151.871094 30.027344 152.109375 29.5 152.582031 29.132812 C 153.054688 28.765625 153.742188 28.582031 154.636719 28.582031 C 155.070312 28.582031 155.476562 28.621094 155.871094 28.6875 C 156.253906 28.753906 156.609375 28.84375 156.9375 28.960938 Z M 156.9375 28.960938 "/>
<path style=" stroke:none;fill-rule:nonzero;fill:rgb(0%,0%,0%);fill-opacity:1;" d="M 160.347656 34.859375 L 160.347656 38.652344 L 159.160156 38.652344 L 159.160156 28.753906 L 160.347656 28.753906 L 160.347656 29.84375 C 160.582031 29.421875 160.898438 29.105469 161.28125 28.898438 C 161.660156 28.6875 162.121094 28.582031 162.648438 28.582031 C 163.515625 28.582031 164.226562 28.9375 164.78125 29.617188 C 165.320312 30.316406 165.597656 31.222656 165.597656 32.351562 C 165.597656 33.480469 165.320312 34.398438 164.78125 35.082031 C 164.226562 35.765625 163.515625 36.105469 162.648438 36.105469 C 162.121094 36.105469 161.660156 36 161.28125 35.804688 C 160.898438 35.605469 160.582031 35.292969 160.347656 34.859375 Z M 164.371094 32.351562 C 164.371094 31.484375 164.1875 30.8125 163.832031 30.316406 C 163.464844 29.816406 162.976562 29.566406 162.359375 29.566406 C 161.726562 29.566406 161.242188 29.816406 160.886719 30.316406 C 160.515625 30.8125 160.347656 31.484375 160.347656 32.351562 C 160.347656 33.21875 160.515625 33.898438 160.886719 34.398438 C 161.242188 34.898438 161.726562 35.132812 162.359375 35.132812 C 162.976562 35.132812 163.464844 34.898438 163.832031 34.398438 C 164.1875 33.898438 164.371094 33.21875 164.371094 32.351562 Z M 164.371094 32.351562 "/>
<path style=" stroke:none;fill-rule:nonzero;fill:rgb(0%,0%,0%);fill-opacity:1;" d="M 173.714844 32.046875 L 173.714844 32.625 L 168.28125 32.625 C 168.332031 33.441406 168.570312 34.070312 169.015625 34.492188 C 169.453125 34.910156 170.054688 35.121094 170.847656 35.121094 C 171.292969 35.121094 171.742188 35.070312 172.160156 34.964844 C 172.582031 34.859375 173.015625 34.6875 173.4375 34.453125 L 173.4375 35.566406 C 173.015625 35.75 172.582031 35.894531 172.136719 35.972656 C 171.6875 36.054688 171.226562 36.105469 170.78125 36.105469 C 169.621094 36.105469 168.714844 35.777344 168.042969 35.121094 C 167.371094 34.464844 167.042969 33.558594 167.042969 32.414062 C 167.042969 31.246094 167.359375 30.316406 167.992188 29.617188 C 168.621094 28.9375 169.492188 28.582031 170.570312 28.582031 C 171.542969 28.582031 172.304688 28.898438 172.871094 29.515625 C 173.425781 30.144531 173.714844 30.984375 173.714844 32.046875 Z M 172.53125 31.707031 C 172.515625 31.0625 172.332031 30.550781 171.992188 30.15625 C 171.636719 29.777344 171.160156 29.578125 170.582031 29.578125 C 169.925781 29.578125 169.398438 29.777344 169.003906 30.144531 C 168.609375 30.511719 168.371094 31.039062 168.320312 31.707031 Z M 172.53125 31.707031 "/>
<path style=" stroke:none;fill-rule:nonzero;fill:rgb(0%,0%,0%);fill-opacity:1;" d="M 181.804688 32.046875 L 181.804688 32.625 L 176.371094 32.625 C 176.425781 33.441406 176.660156 34.070312 177.109375 34.492188 C 177.542969 34.910156 178.148438 35.121094 178.9375 35.121094 C 179.386719 35.121094 179.832031 35.070312 180.253906 34.964844 C 180.675781 34.859375 181.109375 34.6875 181.53125 34.453125 L 181.53125 35.566406 C 181.109375 35.75 180.675781 35.894531 180.226562 35.972656 C 179.78125 36.054688 179.320312 36.105469 178.871094 36.105469 C 177.714844 36.105469 176.804688 35.777344 176.136719 35.121094 C 175.464844 34.464844 175.136719 33.558594 175.136719 32.414062 C 175.136719 31.246094 175.453125 30.316406 176.082031 29.617188 C 176.714844 28.9375 177.582031 28.582031 178.660156 28.582031 C 179.636719 28.582031 180.398438 28.898438 180.964844 29.515625 C 181.515625 30.144531 181.804688 30.984375 181.804688 32.046875 Z M 180.621094 31.707031 C 180.609375 31.0625 180.425781 30.550781 180.082031 30.15625 C 179.726562 29.777344 179.253906 29.578125 178.675781 29.578125 C 178.015625 29.578125 177.492188 29.777344 177.097656 30.144531 C 176.703125 30.511719 176.464844 31.039062 176.410156 31.707031 Z M 180.621094 31.707031 "/>
<path style=" stroke:none;fill-rule:nonzero;fill:rgb(0%,0%,0%);fill-opacity:1;" d="M 188.476562 29.84375 L 188.476562 25.957031 L 189.660156 25.957031 L 189.660156 35.933594 L 188.476562 35.933594 L 188.476562 34.859375 C 188.226562 35.292969 187.910156 35.605469 187.53125 35.804688 C 187.148438 36 186.703125 36.105469 186.175781 36.105469 C 185.304688 36.105469 184.597656 35.765625 184.042969 35.082031 C 183.492188 34.398438 183.226562 33.480469 183.226562 32.351562 C 183.226562 31.222656 183.492188 30.316406 184.042969 29.617188 C 184.597656 28.9375 185.304688 28.582031 186.175781 28.582031 C 186.703125 28.582031 187.148438 28.6875 187.53125 28.898438 C 187.910156 29.105469 188.226562 29.421875 188.476562 29.84375 Z M 184.453125 32.351562 C 184.453125 33.21875 184.621094 33.898438 184.976562 34.398438 C 185.332031 34.898438 185.820312 35.132812 186.453125 35.132812 C 187.082031 35.132812 187.570312 34.898438 187.9375 34.398438 C 188.292969 33.898438 188.476562 33.21875 188.476562 32.351562 C 188.476562 31.484375 188.292969 30.8125 187.9375 30.316406 C 187.570312 29.816406 187.082031 29.566406 186.453125 29.566406 C 185.820312 29.566406 185.332031 29.816406 184.976562 30.316406 C 184.621094 30.8125 184.453125 31.484375 184.453125 32.351562 Z M 184.453125 32.351562 "/>
<path style=" stroke:none;fill-rule:nonzero;fill:rgb(0%,0%,0%);fill-opacity:1;" d="M 199.121094 25.96875 C 198.542969 26.964844 198.121094 27.9375 197.847656 28.898438 C 197.554688 29.855469 197.425781 30.828125 197.425781 31.8125 C 197.425781 32.808594 197.554688 33.78125 197.847656 34.738281 C 198.121094 35.710938 198.542969 36.671875 199.121094 37.65625 L 198.097656 37.65625 C 197.453125 36.644531 196.964844 35.671875 196.648438 34.699219 C 196.332031 33.730469 196.175781 32.769531 196.175781 31.8125 C 196.175781 30.867188 196.332031 29.90625 196.648438 28.9375 C 196.964844 27.964844 197.4375 26.980469 198.097656 25.96875 Z M 199.121094 25.96875 "/>
<path style=" stroke:none;fill-rule:nonzero;fill:rgb(0%,0%,0%);fill-opacity:1;" d="M 205.359375 27.242188 C 204.410156 27.242188 203.660156 27.597656 203.109375 28.292969 C 202.554688 29 202.28125 29.949219 202.28125 31.15625 C 202.28125 32.363281 202.554688 33.320312 203.109375 34.019531 C 203.660156 34.726562 204.410156 35.070312 205.359375 35.070312 C 206.292969 35.070312 207.042969 34.726562 207.597656 34.019531 C 208.148438 33.320312 208.425781 32.363281 208.425781 31.15625 C 208.425781 29.949219 208.148438 29 207.597656 28.292969 C 207.042969 27.597656 206.292969 27.242188 205.359375 27.242188 Z M 205.359375 26.191406 C 206.703125 26.191406 207.765625 26.652344 208.582031 27.542969 C 209.386719 28.4375 209.792969 29.644531 209.792969 31.15625 C 209.792969 32.679688 209.386719 33.875 208.582031 34.765625 C 207.765625 35.660156 206.703125 36.105469 205.359375 36.105469 C 204.003906 36.105469 202.925781 35.660156 202.121094 34.765625 C 201.304688 33.875 200.910156 32.679688 200.910156 31.15625 C 200.910156 29.644531 201.304688 28.4375 202.121094 27.542969 C 202.925781 26.652344 204.003906 26.191406 205.359375 26.191406 Z M 205.359375 26.191406 "/>
<path style=" stroke:none;fill-rule:nonzero;fill:rgb(0%,0%,0%);fill-opacity:1;" d="M 217.570312 26.675781 L 217.570312 27.9375 C 217.070312 27.703125 216.609375 27.53125 216.175781 27.414062 C 215.726562 27.308594 215.304688 27.242188 214.910156 27.242188 C 214.203125 27.242188 213.648438 27.386719 213.265625 27.648438 C 212.886719 27.925781 212.703125 28.320312 212.703125 28.816406 C 212.703125 29.238281 212.820312 29.566406 213.082031 29.777344 C 213.332031 30 213.820312 30.171875 214.53125 30.300781 L 215.320312 30.460938 C 216.28125 30.644531 216.992188 30.972656 217.453125 31.429688 C 217.910156 31.902344 218.148438 32.519531 218.148438 33.296875 C 218.148438 34.226562 217.832031 34.925781 217.214844 35.398438 C 216.582031 35.871094 215.675781 36.105469 214.476562 36.105469 C 214.015625 36.105469 213.53125 36.054688 213.015625 35.960938 C 212.503906 35.871094 211.976562 35.726562 211.4375 35.515625 L 211.4375 34.175781 C 211.964844 34.476562 212.476562 34.699219 212.976562 34.84375 C 213.476562 35.003906 213.976562 35.070312 214.476562 35.070312 C 215.214844 35.070312 215.78125 34.925781 216.1875 34.636719 C 216.582031 34.347656 216.792969 33.9375 216.792969 33.386719 C 216.792969 32.914062 216.648438 32.546875 216.359375 32.285156 C 216.070312 32.023438 215.597656 31.824219 214.9375 31.695312 L 214.148438 31.535156 C 213.175781 31.351562 212.476562 31.050781 212.042969 30.628906 C 211.609375 30.222656 211.398438 29.660156 211.398438 28.921875 C 211.398438 28.082031 211.6875 27.414062 212.292969 26.925781 C 212.886719 26.441406 213.714844 26.191406 214.765625 26.191406 C 215.214844 26.191406 215.660156 26.230469 216.136719 26.308594 C 216.597656 26.390625 217.070312 26.519531 217.570312 26.675781 Z M 217.570312 26.675781 "/>
<path style=" stroke:none;fill-rule:nonzero;fill:rgb(0%,0%,0%);fill-opacity:1;" d="M 219.9375 25.96875 L 220.964844 25.96875 C 221.597656 26.980469 222.082031 27.964844 222.398438 28.9375 C 222.714844 29.90625 222.886719 30.867188 222.886719 31.8125 C 222.886719 32.769531 222.714844 33.730469 222.398438 34.699219 C 222.082031 35.671875 221.597656 36.644531 220.964844 37.65625 L 219.9375 37.65625 C 220.503906 36.671875 220.925781 35.710938 221.214844 34.738281 C 221.492188 33.78125 221.636719 32.808594 221.636719 31.8125 C 221.636719 30.828125 221.492188 29.855469 221.214844 28.898438 C 220.925781 27.9375 220.503906 26.964844 219.9375 25.96875 Z M 219.9375 25.96875 "/>
<path style="fill:none;stroke-width:2.5;stroke-linecap:butt;stroke-linejoin:round;stroke:rgb(100%,0%,0%);stroke-opacity:1;stroke-dasharray:9.25,4;stroke-miterlimit:4;" d="M 46.104688 28.638011 L 66.105156 28.638011 " transform="matrix(1.315789,0,0,1.313131,0,13)"/>
<path style=" stroke:none;fill-rule:nonzero;fill:rgb(0%,0%,0%);fill-opacity:1;" d="M 100.097656 46.691406 L 100.097656 54.136719 L 101.664062 54.136719 C 102.980469 54.136719 103.953125 53.847656 104.570312 53.246094 C 105.175781 52.640625 105.492188 51.695312 105.492188 50.410156 C 105.492188 49.121094 105.175781 48.1875 104.570312 47.585938 C 103.953125 46.996094 102.980469 46.691406 101.664062 46.691406 Z M 98.792969 45.628906 L 101.464844 45.628906 C 103.320312 45.628906 104.691406 46.023438 105.558594 46.785156 C 106.425781 47.558594 106.859375 48.765625 106.859375 50.410156 C 106.859375 52.0625 106.414062 53.269531 105.542969 54.046875 C 104.675781 54.820312 103.308594 55.203125 101.464844 55.203125 L 98.792969 55.203125 Z M 98.792969 45.628906 "/>
<path style=" stroke:none;fill-rule:nonzero;fill:rgb(0%,0%,0%);fill-opacity:1;" d="M 115.03125 51.316406 L 115.03125 51.890625 L 109.597656 51.890625 C 109.648438 52.707031 109.886719 53.335938 110.335938 53.757812 C 110.769531 54.175781 111.375 54.386719 112.164062 54.386719 C 112.609375 54.386719 113.058594 54.335938 113.480469 54.230469 C 113.898438 54.125 114.335938 53.953125 114.753906 53.71875 L 114.753906 54.832031 C 114.335938 55.015625 113.898438 55.160156 113.453125 55.242188 C 113.003906 55.320312 112.542969 55.371094 112.097656 55.371094 C 110.941406 55.371094 110.03125 55.042969 109.359375 54.386719 C 108.691406 53.730469 108.359375 52.824219 108.359375 51.683594 C 108.359375 50.511719 108.675781 49.582031 109.308594 48.886719 C 109.941406 48.203125 110.808594 47.847656 111.886719 47.847656 C 112.859375 47.847656 113.625 48.164062 114.191406 48.78125 C 114.742188 49.410156 115.03125 50.25 115.03125 51.316406 Z M 113.847656 50.972656 C 113.835938 50.328125 113.648438 49.816406 113.308594 49.421875 C 112.953125 49.042969 112.480469 48.847656 111.898438 48.847656 C 111.242188 48.847656 110.714844 49.042969 110.320312 49.410156 C 109.925781 49.777344 109.691406 50.304688 109.636719 50.972656 Z M 113.847656 50.972656 "/>
<path style=" stroke:none;fill-rule:nonzero;fill:rgb(0%,0%,0%);fill-opacity:1;" d="M 121.558594 48.230469 L 121.558594 49.34375 C 121.214844 49.1875 120.875 49.054688 120.519531 48.964844 C 120.148438 48.886719 119.78125 48.832031 119.398438 48.832031 C 118.808594 48.832031 118.359375 48.925781 118.070312 49.109375 C 117.78125 49.292969 117.636719 49.554688 117.636719 49.910156 C 117.636719 50.183594 117.742188 50.394531 117.953125 50.554688 C 118.164062 50.710938 118.585938 50.867188 119.214844 51 L 119.625 51.089844 C 120.464844 51.273438 121.058594 51.539062 121.414062 51.851562 C 121.753906 52.179688 121.941406 52.640625 121.941406 53.21875 C 121.941406 53.886719 121.675781 54.414062 121.148438 54.792969 C 120.625 55.1875 119.886719 55.371094 118.964844 55.371094 C 118.570312 55.371094 118.175781 55.332031 117.753906 55.265625 C 117.335938 55.203125 116.898438 55.097656 116.441406 54.9375 L 116.441406 53.71875 C 116.875 53.953125 117.308594 54.125 117.730469 54.230469 C 118.148438 54.347656 118.570312 54.402344 118.992188 54.402344 C 119.542969 54.402344 119.980469 54.308594 120.28125 54.125 C 120.570312 53.941406 120.730469 53.664062 120.730469 53.308594 C 120.730469 52.996094 120.609375 52.746094 120.398438 52.574219 C 120.191406 52.40625 119.714844 52.234375 118.980469 52.074219 L 118.570312 51.984375 C 117.835938 51.828125 117.292969 51.589844 116.980469 51.273438 C 116.648438 50.960938 116.492188 50.527344 116.492188 49.960938 C 116.492188 49.292969 116.730469 48.765625 117.203125 48.398438 C 117.675781 48.03125 118.359375 47.847656 119.253906 47.847656 C 119.691406 47.847656 120.097656 47.886719 120.492188 47.953125 C 120.875 48.019531 121.230469 48.109375 121.558594 48.230469 Z M 121.558594 48.230469 "/>
<path style=" stroke:none;fill-rule:nonzero;fill:rgb(0%,0%,0%);fill-opacity:1;" d="M 123.820312 48.019531 L 125.003906 48.019531 L 125.003906 55.203125 L 123.820312 55.203125 Z M 123.820312 45.222656 L 125.003906 45.222656 L 125.003906 46.71875 L 123.820312 46.71875 Z M 123.820312 45.222656 "/>
<path style=" stroke:none;fill-rule:nonzero;fill:rgb(0%,0%,0%);fill-opacity:1;" d="M 131.648438 49.121094 C 131.519531 49.042969 131.375 48.992188 131.214844 48.949219 C 131.058594 48.925781 130.886719 48.898438 130.703125 48.898438 C 130.03125 48.898438 129.519531 49.121094 129.164062 49.554688 C 128.792969 49.988281 128.625 50.605469 128.625 51.417969 L 128.625 55.203125 L 127.441406 55.203125 L 127.441406 48.019531 L 128.625 48.019531 L 128.625 49.132812 C 128.859375 48.703125 129.191406 48.375 129.585938 48.164062 C 129.980469 47.953125 130.464844 47.847656 131.042969 47.847656 C 131.125 47.847656 131.214844 47.859375 131.320312 47.859375 C 131.414062 47.875 131.519531 47.886719 131.648438 47.914062 Z M 131.648438 49.121094 "/>
<path style=" stroke:none;fill-rule:nonzero;fill:rgb(0%,0%,0%);fill-opacity:1;" d="M 138.757812 51.316406 L 138.757812 51.890625 L 133.324219 51.890625 C 133.375 52.707031 133.613281 53.335938 134.058594 53.757812 C 134.492188 54.175781 135.097656 54.386719 135.886719 54.386719 C 136.335938 54.386719 136.78125 54.335938 137.203125 54.230469 C 137.625 54.125 138.058594 53.953125 138.480469 53.71875 L 138.480469 54.832031 C 138.058594 55.015625 137.625 55.160156 137.175781 55.242188 C 136.730469 55.320312 136.269531 55.371094 135.824219 55.371094 C 134.664062 55.371094 133.757812 55.042969 133.085938 54.386719 C 132.414062 53.730469 132.085938 52.824219 132.085938 51.683594 C 132.085938 50.511719 132.402344 49.582031 133.03125 48.886719 C 133.664062 48.203125 134.53125 47.847656 135.613281 47.847656 C 136.585938 47.847656 137.347656 48.164062 137.914062 48.78125 C 138.46875 49.410156 138.757812 50.25 138.757812 51.316406 Z M 137.574219 50.972656 C 137.558594 50.328125 137.375 49.816406 137.03125 49.421875 C 136.675781 49.042969 136.203125 48.847656 135.625 48.847656 C 134.96875 48.847656 134.441406 49.042969 134.046875 49.410156 C 133.652344 49.777344 133.414062 50.304688 133.363281 50.972656 Z M 137.574219 50.972656 "/>
<path style=" stroke:none;fill-rule:nonzero;fill:rgb(0%,0%,0%);fill-opacity:1;" d="M 145.425781 49.109375 L 145.425781 45.222656 L 146.613281 45.222656 L 146.613281 55.203125 L 145.425781 55.203125 L 145.425781 54.125 C 145.175781 54.558594 144.863281 54.875 144.480469 55.070312 C 144.097656 55.265625 143.652344 55.371094 143.125 55.371094 C 142.257812 55.371094 141.546875 55.03125 140.992188 54.347656 C 140.441406 53.664062 140.175781 52.746094 140.175781 51.617188 C 140.175781 50.488281 140.441406 49.582031 140.992188 48.886719 C 141.546875 48.203125 142.257812 47.847656 143.125 47.847656 C 143.652344 47.847656 144.097656 47.953125 144.480469 48.164062 C 144.863281 48.375 145.175781 48.6875 145.425781 49.109375 Z M 141.402344 51.617188 C 141.402344 52.484375 141.574219 53.167969 141.925781 53.664062 C 142.28125 54.164062 142.769531 54.402344 143.402344 54.402344 C 144.03125 54.402344 144.519531 54.164062 144.886719 53.664062 C 145.242188 53.167969 145.425781 52.484375 145.425781 51.617188 C 145.425781 50.75 145.242188 50.082031 144.886719 49.582031 C 144.519531 49.082031 144.03125 48.832031 143.402344 48.832031 C 142.769531 48.832031 142.28125 49.082031 141.925781 49.582031 C 141.574219 50.082031 141.402344 50.75 141.402344 51.617188 Z M 141.402344 51.617188 "/>
<path style=" stroke:none;fill-rule:nonzero;fill:rgb(0%,0%,0%);fill-opacity:1;" d="M 157.824219 48.230469 L 157.824219 49.34375 C 157.480469 49.1875 157.136719 49.054688 156.78125 48.964844 C 156.414062 48.886719 156.046875 48.832031 155.664062 48.832031 C 155.074219 48.832031 154.625 48.925781 154.335938 49.109375 C 154.046875 49.292969 153.902344 49.554688 153.902344 49.910156 C 153.902344 50.183594 154.007812 50.394531 154.21875 50.554688 C 154.425781 50.710938 154.847656 50.867188 155.480469 51 L 155.886719 51.089844 C 156.730469 51.273438 157.324219 51.539062 157.675781 51.851562 C 158.019531 52.179688 158.203125 52.640625 158.203125 53.21875 C 158.203125 53.886719 157.941406 54.414062 157.414062 54.792969 C 156.886719 55.1875 156.152344 55.371094 155.230469 55.371094 C 154.835938 55.371094 154.441406 55.332031 154.019531 55.265625 C 153.597656 55.203125 153.164062 55.097656 152.703125 54.9375 L 152.703125 53.71875 C 153.136719 53.953125 153.574219 54.125 153.992188 54.230469 C 154.414062 54.347656 154.835938 54.402344 155.257812 54.402344 C 155.808594 54.402344 156.242188 54.308594 156.546875 54.125 C 156.835938 53.941406 156.992188 53.664062 156.992188 53.308594 C 156.992188 52.996094 156.875 52.746094 156.664062 52.574219 C 156.453125 52.40625 155.980469 52.234375 155.242188 52.074219 L 154.835938 51.984375 C 154.097656 51.828125 153.558594 51.589844 153.242188 51.273438 C 152.914062 50.960938 152.757812 50.527344 152.757812 49.960938 C 152.757812 49.292969 152.992188 48.765625 153.46875 48.398438 C 153.941406 48.03125 154.625 47.847656 155.519531 47.847656 C 155.953125 47.847656 156.363281 47.886719 156.757812 47.953125 C 157.136719 48.019531 157.492188 48.109375 157.824219 48.230469 Z M 157.824219 48.230469 "/>
<path style=" stroke:none;fill-rule:nonzero;fill:rgb(0%,0%,0%);fill-opacity:1;" d="M 161.230469 54.125 L 161.230469 57.917969 L 160.046875 57.917969 L 160.046875 48.019531 L 161.230469 48.019531 L 161.230469 49.109375 C 161.46875 48.6875 161.78125 48.375 162.164062 48.164062 C 162.546875 47.953125 163.007812 47.847656 163.53125 47.847656 C 164.402344 47.847656 165.113281 48.203125 165.664062 48.886719 C 166.203125 49.582031 166.480469 50.488281 166.480469 51.617188 C 166.480469 52.746094 166.203125 53.664062 165.664062 54.347656 C 165.113281 55.03125 164.402344 55.371094 163.53125 55.371094 C 163.007812 55.371094 162.546875 55.265625 162.164062 55.070312 C 161.78125 54.875 161.46875 54.558594 161.230469 54.125 Z M 165.257812 51.617188 C 165.257812 50.75 165.074219 50.082031 164.71875 49.582031 C 164.347656 49.082031 163.863281 48.832031 163.242188 48.832031 C 162.613281 48.832031 162.125 49.082031 161.769531 49.582031 C 161.402344 50.082031 161.230469 50.75 161.230469 51.617188 C 161.230469 52.484375 161.402344 53.167969 161.769531 53.664062 C 162.125 54.164062 162.613281 54.402344 163.242188 54.402344 C 163.863281 54.402344 164.347656 54.164062 164.71875 53.664062 C 165.074219 53.167969 165.257812 52.484375 165.257812 51.617188 Z M 165.257812 51.617188 "/>
<path style=" stroke:none;fill-rule:nonzero;fill:rgb(0%,0%,0%);fill-opacity:1;" d="M 174.597656 51.316406 L 174.597656 51.890625 L 169.164062 51.890625 C 169.21875 52.707031 169.453125 53.335938 169.902344 53.757812 C 170.335938 54.175781 170.941406 54.386719 171.730469 54.386719 C 172.175781 54.386719 172.625 54.335938 173.046875 54.230469 C 173.46875 54.125 173.902344 53.953125 174.324219 53.71875 L 174.324219 54.832031 C 173.902344 55.015625 173.46875 55.160156 173.019531 55.242188 C 172.574219 55.320312 172.113281 55.371094 171.664062 55.371094 C 170.507812 55.371094 169.597656 55.042969 168.925781 54.386719 C 168.257812 53.730469 167.925781 52.824219 167.925781 51.683594 C 167.925781 50.511719 168.242188 49.582031 168.875 48.886719 C 169.507812 48.203125 170.375 47.847656 171.453125 47.847656 C 172.425781 47.847656 173.191406 48.164062 173.757812 48.78125 C 174.308594 49.410156 174.597656 50.25 174.597656 51.316406 Z M 173.414062 50.972656 C 173.402344 50.328125 173.21875 49.816406 172.875 49.421875 C 172.519531 49.042969 172.046875 48.847656 171.46875 48.847656 C 170.808594 48.847656 170.28125 49.042969 169.886719 49.410156 C 169.492188 49.777344 169.257812 50.304688 169.203125 50.972656 Z M 173.414062 50.972656 "/>
<path style=" stroke:none;fill-rule:nonzero;fill:rgb(0%,0%,0%);fill-opacity:1;" d="M 182.691406 51.316406 L 182.691406 51.890625 L 177.257812 51.890625 C 177.308594 52.707031 177.546875 53.335938 177.992188 53.757812 C 178.425781 54.175781 179.03125 54.386719 179.824219 54.386719 C 180.269531 54.386719 180.71875 54.335938 181.136719 54.230469 C 181.558594 54.125 181.992188 53.953125 182.414062 53.71875 L 182.414062 54.832031 C 181.992188 55.015625 181.558594 55.160156 181.113281 55.242188 C 180.664062 55.320312 180.203125 55.371094 179.757812 55.371094 C 178.597656 55.371094 177.691406 55.042969 177.019531 54.386719 C 176.347656 53.730469 176.019531 52.824219 176.019531 51.683594 C 176.019531 50.511719 176.335938 49.582031 176.96875 48.886719 C 177.597656 48.203125 178.46875 47.847656 179.546875 47.847656 C 180.519531 47.847656 181.28125 48.164062 181.847656 48.78125 C 182.402344 49.410156 182.691406 50.25 182.691406 51.316406 Z M 181.507812 50.972656 C 181.492188 50.328125 181.308594 49.816406 180.96875 49.421875 C 180.613281 49.042969 180.136719 48.847656 179.558594 48.847656 C 178.902344 48.847656 178.375 49.042969 177.980469 49.410156 C 177.585938 49.777344 177.347656 50.304688 177.296875 50.972656 Z M 181.507812 50.972656 "/>
<path style=" stroke:none;fill-rule:nonzero;fill:rgb(0%,0%,0%);fill-opacity:1;" d="M 189.363281 49.109375 L 189.363281 45.222656 L 190.546875 45.222656 L 190.546875 55.203125 L 189.363281 55.203125 L 189.363281 54.125 C 189.113281 54.558594 188.796875 54.875 188.414062 55.070312 C 188.03125 55.265625 187.585938 55.371094 187.058594 55.371094 C 186.191406 55.371094 185.480469 55.03125 184.925781 54.347656 C 184.375 53.664062 184.113281 52.746094 184.113281 51.617188 C 184.113281 50.488281 184.375 49.582031 184.925781 48.886719 C 185.480469 48.203125 186.191406 47.847656 187.058594 47.847656 C 187.585938 47.847656 188.03125 47.953125 188.414062 48.164062 C 188.796875 48.375 189.113281 48.6875 189.363281 49.109375 Z M 185.335938 51.617188 C 185.335938 52.484375 185.507812 53.167969 185.863281 53.664062 C 186.21875 54.164062 186.703125 54.402344 187.335938 54.402344 C 187.96875 54.402344 188.453125 54.164062 188.824219 53.664062 C 189.175781 53.167969 189.363281 52.484375 189.363281 51.617188 C 189.363281 50.75 189.175781 50.082031 188.824219 49.582031 C 188.453125 49.082031 187.96875 48.832031 187.335938 48.832031 C 186.703125 48.832031 186.21875 49.082031 185.863281 49.582031 C 185.507812 50.082031 185.335938 50.75 185.335938 51.617188 Z M 185.335938 51.617188 "/>
<path style=" stroke:none;fill-rule:nonzero;fill:rgb(0%,0%,0%);fill-opacity:1;" d="M 200.007812 45.234375 C 199.425781 46.234375 199.007812 47.203125 198.730469 48.164062 C 198.441406 49.121094 198.308594 50.09375 198.308594 51.078125 C 198.308594 52.074219 198.441406 53.046875 198.730469 54.007812 C 199.007812 54.976562 199.425781 55.9375 200.007812 56.921875 L 198.980469 56.921875 C 198.335938 55.910156 197.847656 54.9375 197.53125 53.96875 C 197.21875 52.996094 197.058594 52.035156 197.058594 51.078125 C 197.058594 50.132812 197.21875 49.175781 197.53125 48.203125 C 197.847656 47.230469 198.324219 46.246094 198.980469 45.234375 Z M 200.007812 45.234375 "/>
<path style=" stroke:none;fill-rule:nonzero;fill:rgb(0%,0%,0%);fill-opacity:1;" d="M 206.242188 46.507812 C 205.296875 46.507812 204.546875 46.863281 203.992188 47.558594 C 203.441406 48.269531 203.164062 49.214844 203.164062 50.421875 C 203.164062 51.628906 203.441406 52.589844 203.992188 53.285156 C 204.546875 53.992188 205.296875 54.335938 206.242188 54.335938 C 207.175781 54.335938 207.925781 53.992188 208.480469 53.285156 C 209.03125 52.589844 209.308594 51.628906 209.308594 50.421875 C 209.308594 49.214844 209.03125 48.269531 208.480469 47.558594 C 207.925781 46.863281 207.175781 46.507812 206.242188 46.507812 Z M 206.242188 45.457031 C 207.585938 45.457031 208.652344 45.917969 209.46875 46.808594 C 210.269531 47.703125 210.675781 48.910156 210.675781 50.421875 C 210.675781 51.945312 210.269531 53.140625 209.46875 54.03125 C 208.652344 54.925781 207.585938 55.371094 206.242188 55.371094 C 204.886719 55.371094 203.808594 54.925781 203.007812 54.03125 C 202.191406 53.140625 201.796875 51.945312 201.796875 50.421875 C 201.796875 48.910156 202.191406 47.703125 203.007812 46.808594 C 203.808594 45.917969 204.886719 45.457031 206.242188 45.457031 Z M 206.242188 45.457031 "/>
<path style=" stroke:none;fill-rule:nonzero;fill:rgb(0%,0%,0%);fill-opacity:1;" d="M 218.453125 45.945312 L 218.453125 47.203125 C 217.953125 46.96875 217.492188 46.796875 217.058594 46.679688 C 216.613281 46.574219 216.191406 46.507812 215.796875 46.507812 C 215.085938 46.507812 214.53125 46.652344 214.152344 46.914062 C 213.769531 47.191406 213.585938 47.585938 213.585938 48.085938 C 213.585938 48.503906 213.703125 48.832031 213.96875 49.042969 C 214.21875 49.265625 214.703125 49.4375 215.414062 49.566406 L 216.203125 49.726562 C 217.164062 49.910156 217.875 50.238281 218.335938 50.699219 C 218.796875 51.171875 219.03125 51.789062 219.03125 52.5625 C 219.03125 53.496094 218.71875 54.191406 218.097656 54.664062 C 217.46875 55.136719 216.558594 55.371094 215.363281 55.371094 C 214.902344 55.371094 214.414062 55.320312 213.902344 55.226562 C 213.386719 55.136719 212.863281 54.992188 212.324219 54.78125 L 212.324219 53.441406 C 212.847656 53.742188 213.363281 53.96875 213.863281 54.113281 C 214.363281 54.269531 214.863281 54.335938 215.363281 54.335938 C 216.097656 54.335938 216.664062 54.191406 217.074219 53.902344 C 217.46875 53.613281 217.675781 53.207031 217.675781 52.652344 C 217.675781 52.179688 217.53125 51.8125 217.242188 51.550781 C 216.953125 51.289062 216.480469 51.089844 215.824219 50.960938 L 215.03125 50.800781 C 214.058594 50.617188 213.363281 50.316406 212.925781 49.894531 C 212.492188 49.488281 212.28125 48.925781 212.28125 48.1875 C 212.28125 47.347656 212.574219 46.679688 213.175781 46.191406 C 213.769531 45.707031 214.597656 45.457031 215.652344 45.457031 C 216.097656 45.457031 216.546875 45.496094 217.019531 45.574219 C 217.480469 45.65625 217.953125 45.785156 218.453125 45.945312 Z M 218.453125 45.945312 "/>
<path style=" stroke:none;fill-rule:nonzero;fill:rgb(0%,0%,0%);fill-opacity:1;" d="M 220.824219 45.234375 L 221.847656 45.234375 C 222.480469 46.246094 222.96875 47.230469 223.28125 48.203125 C 223.597656 49.175781 223.769531 50.132812 223.769531 51.078125 C 223.769531 52.035156 223.597656 52.996094 223.28125 53.96875 C 222.96875 54.9375 222.480469 55.910156 221.847656 56.921875 L 220.824219 56.921875 C 221.386719 55.9375 221.808594 54.976562 222.097656 54.007812 C 222.375 53.046875 222.519531 52.074219 222.519531 51.078125 C 222.519531 50.09375 222.375 49.121094 222.097656 48.164062 C 221.808594 47.203125 221.386719 46.234375 220.824219 45.234375 Z M 220.824219 45.234375 "/>
</g>
</svg>
