<?xml version="1.0" encoding="UTF-8"?>
<svg xmlns="http://www.w3.org/2000/svg" xmlns:xlink="http://www.w3.org/1999/xlink" width="400px" height="px" viewBox="0 0 400 412" version="1.1">
<defs>
<clipPath id="clip1">
  <path d="M 0 0 L 400 0 L 400 409.527344 L 0 409.527344 Z M 0 0 "/>
</clipPath>
</defs>
<g id="surface1">
<g clip-path="url(#clip1)" clip-rule="nonzero">
<path style=" stroke:none;fill-rule:nonzero;fill:rgb(100%,100%,100%);fill-opacity:1;" d="M -85.9375 409.527344 L 514.0625 409.527344 L 514.0625 -39.925781 L -85.9375 -39.925781 Z M -85.9375 409.527344 "/>
</g>
<path style=" stroke:none;fill-rule:nonzero;fill:rgb(100%,100%,100%);fill-opacity:1;" d="M 48.3125 360.089844 L 394.8125 360.089844 L 394.8125 14.007812 L 48.3125 14.007812 Z M 48.3125 360.089844 "/>
<path style="fill:none;stroke-width:0.8;stroke-linecap:butt;stroke-linejoin:round;stroke:rgb(0%,0%,0%);stroke-opacity:1;stroke-miterlimit:4;" d="M 46.176 266.984618 L 46.176 270.483859 " transform="matrix(1.302083,0,0,1.300505,0,12.875)"/>
<path style=" stroke:none;fill-rule:nonzero;fill:rgb(0%,0%,0%);fill-opacity:1;" d="M 60.125 370.433594 C 59.460938 370.433594 58.964844 370.757812 58.625 371.410156 C 58.289062 372.058594 58.132812 373.035156 58.132812 374.335938 C 58.132812 375.636719 58.289062 376.609375 58.625 377.261719 C 58.964844 377.910156 59.460938 378.234375 60.125 378.234375 C 60.789062 378.234375 61.28125 377.910156 61.621094 377.261719 C 61.945312 376.609375 62.117188 375.636719 62.117188 374.335938 C 62.117188 373.035156 61.945312 372.058594 61.621094 371.410156 C 61.28125 370.757812 60.789062 370.433594 60.125 370.433594 Z M 60.125 369.417969 C 61.179688 369.417969 61.984375 369.847656 62.558594 370.679688 C 63.117188 371.527344 63.40625 372.75 63.40625 374.335938 C 63.40625 375.933594 63.117188 377.15625 62.558594 377.988281 C 61.984375 378.820312 61.179688 379.238281 60.109375 379.238281 C 59.042969 379.238281 58.234375 378.820312 57.675781 377.988281 C 57.117188 377.15625 56.84375 375.933594 56.84375 374.335938 C 56.84375 372.75 57.117188 371.527344 57.675781 370.679688 C 58.234375 369.847656 59.054688 369.417969 60.125 369.417969 Z M 60.125 369.417969 "/>
<path style="fill:none;stroke-width:0.8;stroke-linecap:butt;stroke-linejoin:round;stroke:rgb(0%,0%,0%);stroke-opacity:1;stroke-miterlimit:4;" d="M 109.731 266.984618 L 109.731 270.483859 " transform="matrix(1.302083,0,0,1.300505,0,12.875)"/>
<path style=" stroke:none;fill-rule:nonzero;fill:rgb(0%,0%,0%);fill-opacity:1;" d="M 136.214844 377.988281 L 138.3125 377.988281 L 138.3125 370.757812 L 136.03125 371.214844 L 136.03125 370.042969 L 138.296875 369.589844 L 139.585938 369.589844 L 139.585938 377.988281 L 141.683594 377.988281 L 141.683594 379.070312 L 136.214844 379.070312 Z M 136.214844 377.988281 "/>
<path style=" stroke:none;fill-rule:nonzero;fill:rgb(0%,0%,0%);fill-opacity:1;" d="M 147.023438 370.433594 C 146.359375 370.433594 145.863281 370.757812 145.523438 371.410156 C 145.1875 372.058594 145.03125 373.035156 145.03125 374.335938 C 145.03125 375.636719 145.1875 376.609375 145.523438 377.261719 C 145.863281 377.910156 146.359375 378.234375 147.023438 378.234375 C 147.6875 378.234375 148.179688 377.910156 148.519531 377.261719 C 148.84375 376.609375 149.015625 375.636719 149.015625 374.335938 C 149.015625 373.035156 148.84375 372.058594 148.519531 371.410156 C 148.179688 370.757812 147.6875 370.433594 147.023438 370.433594 Z M 147.023438 369.417969 C 148.078125 369.417969 148.882812 369.847656 149.457031 370.679688 C 150.015625 371.527344 150.304688 372.75 150.304688 374.335938 C 150.304688 375.933594 150.015625 377.15625 149.457031 377.988281 C 148.882812 378.820312 148.078125 379.238281 147.007812 379.238281 C 145.941406 379.238281 145.132812 378.820312 144.574219 377.988281 C 144.015625 377.15625 143.742188 375.933594 143.742188 374.335938 C 143.742188 372.75 144.015625 371.527344 144.574219 370.679688 C 145.132812 369.847656 145.953125 369.417969 147.023438 369.417969 Z M 147.023438 369.417969 "/>
<path style="fill:none;stroke-width:0.8;stroke-linecap:butt;stroke-linejoin:round;stroke:rgb(0%,0%,0%);stroke-opacity:1;stroke-miterlimit:4;" d="M 173.289 266.984618 L 173.289 270.483859 " transform="matrix(1.302083,0,0,1.300505,0,12.875)"/>
<path style=" stroke:none;fill-rule:nonzero;fill:rgb(0%,0%,0%);fill-opacity:1;" d="M 219.855469 377.988281 L 224.335938 377.988281 L 224.335938 379.070312 L 218.308594 379.070312 L 218.308594 377.988281 C 218.789062 377.496094 219.453125 376.820312 220.300781 375.960938 C 221.132812 375.113281 221.667969 374.570312 221.886719 374.320312 C 222.304688 373.867188 222.589844 373.476562 222.746094 373.152344 C 222.902344 372.839844 222.996094 372.515625 222.996094 372.203125 C 222.996094 371.707031 222.8125 371.292969 222.460938 370.980469 C 222.109375 370.667969 221.652344 370.5 221.082031 370.5 C 220.675781 370.5 220.246094 370.578125 219.804688 370.707031 C 219.363281 370.847656 218.878906 371.058594 218.371094 371.34375 L 218.371094 370.042969 C 218.894531 369.835938 219.375 369.679688 219.816406 369.574219 C 220.261719 369.472656 220.675781 369.417969 221.054688 369.417969 C 222.03125 369.417969 222.8125 369.664062 223.398438 370.160156 C 223.984375 370.65625 224.285156 371.304688 224.285156 372.125 C 224.285156 372.515625 224.207031 372.890625 224.0625 373.230469 C 223.917969 373.582031 223.660156 373.996094 223.269531 374.464844 C 223.164062 374.59375 222.824219 374.945312 222.253906 375.53125 C 221.679688 376.117188 220.886719 376.9375 219.855469 377.988281 Z M 219.855469 377.988281 "/>
<path style=" stroke:none;fill-rule:nonzero;fill:rgb(0%,0%,0%);fill-opacity:1;" d="M 229.777344 370.433594 C 229.113281 370.433594 228.621094 370.757812 228.28125 371.410156 C 227.941406 372.058594 227.785156 373.035156 227.785156 374.335938 C 227.785156 375.636719 227.941406 376.609375 228.28125 377.261719 C 228.621094 377.910156 229.113281 378.234375 229.777344 378.234375 C 230.441406 378.234375 230.9375 377.910156 231.277344 377.261719 C 231.601562 376.609375 231.769531 375.636719 231.769531 374.335938 C 231.769531 373.035156 231.601562 372.058594 231.277344 371.410156 C 230.9375 370.757812 230.441406 370.433594 229.777344 370.433594 Z M 229.777344 369.417969 C 230.832031 369.417969 231.640625 369.847656 232.214844 370.679688 C 232.773438 371.527344 233.058594 372.75 233.058594 374.335938 C 233.058594 375.933594 232.773438 377.15625 232.214844 377.988281 C 231.640625 378.820312 230.832031 379.238281 229.765625 379.238281 C 228.699219 379.238281 227.890625 378.820312 227.332031 377.988281 C 226.769531 377.15625 226.496094 375.933594 226.496094 374.335938 C 226.496094 372.75 226.769531 371.527344 227.332031 370.679688 C 227.890625 369.847656 228.710938 369.417969 229.777344 369.417969 Z M 229.777344 369.417969 "/>
<path style="fill:none;stroke-width:0.8;stroke-linecap:butt;stroke-linejoin:round;stroke:rgb(0%,0%,0%);stroke-opacity:1;stroke-miterlimit:4;" d="M 236.847 266.984618 L 236.847 270.483859 " transform="matrix(1.302083,0,0,1.300505,0,12.875)"/>
<path style=" stroke:none;fill-rule:nonzero;fill:rgb(0%,0%,0%);fill-opacity:1;" d="M 305.402344 373.957031 C 306.015625 374.085938 306.496094 374.359375 306.835938 374.777344 C 307.171875 375.191406 307.355469 375.714844 307.355469 376.3125 C 307.355469 377.246094 307.03125 377.976562 306.390625 378.484375 C 305.742188 378.992188 304.828125 379.238281 303.644531 379.238281 C 303.242188 379.238281 302.824219 379.199219 302.40625 379.121094 C 301.992188 379.054688 301.546875 378.9375 301.105469 378.78125 L 301.105469 377.546875 C 301.457031 377.753906 301.847656 377.910156 302.277344 378.015625 C 302.695312 378.121094 303.136719 378.171875 303.605469 378.171875 C 304.414062 378.171875 305.023438 378.015625 305.441406 377.703125 C 305.859375 377.390625 306.078125 376.921875 306.078125 376.3125 C 306.078125 375.765625 305.882812 375.324219 305.492188 375.011719 C 305.101562 374.699219 304.554688 374.53125 303.851562 374.53125 L 302.746094 374.53125 L 302.746094 373.476562 L 303.90625 373.476562 C 304.53125 373.476562 305.011719 373.359375 305.351562 373.097656 C 305.6875 372.851562 305.859375 372.488281 305.859375 372.007812 C 305.859375 371.527344 305.675781 371.148438 305.335938 370.886719 C 304.984375 370.628906 304.492188 370.5 303.851562 370.5 C 303.5 370.5 303.125 370.539062 302.71875 370.617188 C 302.316406 370.691406 301.875 370.808594 301.390625 370.964844 L 301.390625 369.820312 C 301.875 369.691406 302.328125 369.589844 302.757812 369.523438 C 303.175781 369.457031 303.578125 369.417969 303.96875 369.417969 C 304.933594 369.417969 305.703125 369.640625 306.273438 370.082031 C 306.847656 370.523438 307.132812 371.121094 307.132812 371.875 C 307.132812 372.398438 306.976562 372.839844 306.679688 373.203125 C 306.378906 373.566406 305.949219 373.828125 305.402344 373.957031 Z M 305.402344 373.957031 "/>
<path style=" stroke:none;fill-rule:nonzero;fill:rgb(0%,0%,0%);fill-opacity:1;" d="M 312.539062 370.433594 C 311.875 370.433594 311.378906 370.757812 311.039062 371.410156 C 310.703125 372.058594 310.546875 373.035156 310.546875 374.335938 C 310.546875 375.636719 310.703125 376.609375 311.039062 377.261719 C 311.378906 377.910156 311.875 378.234375 312.539062 378.234375 C 313.203125 378.234375 313.695312 377.910156 314.035156 377.261719 C 314.359375 376.609375 314.53125 375.636719 314.53125 374.335938 C 314.53125 373.035156 314.359375 372.058594 314.035156 371.410156 C 313.695312 370.757812 313.203125 370.433594 312.539062 370.433594 Z M 312.539062 369.417969 C 313.59375 369.417969 314.398438 369.847656 314.972656 370.679688 C 315.53125 371.527344 315.820312 372.75 315.820312 374.335938 C 315.820312 375.933594 315.53125 377.15625 314.972656 377.988281 C 314.398438 378.820312 313.59375 379.238281 312.523438 379.238281 C 311.457031 379.238281 310.648438 378.820312 310.089844 377.988281 C 309.53125 377.15625 309.257812 375.933594 309.257812 374.335938 C 309.257812 372.75 309.53125 371.527344 310.089844 370.679688 C 310.648438 369.847656 311.46875 369.417969 312.539062 369.417969 Z M 312.539062 369.417969 "/>
<path style="fill:none;stroke-width:0.8;stroke-linecap:butt;stroke-linejoin:round;stroke:rgb(0%,0%,0%);stroke-opacity:1;stroke-miterlimit:4;" d="M 300.405 266.984618 L 300.405 270.483859 " transform="matrix(1.302083,0,0,1.300505,0,12.875)"/>
<path style=" stroke:none;fill-rule:nonzero;fill:rgb(0%,0%,0%);fill-opacity:1;" d="M 387.792969 370.707031 L 384.550781 375.765625 L 387.792969 375.765625 Z M 387.457031 369.589844 L 389.070312 369.589844 L 389.070312 375.765625 L 390.425781 375.765625 L 390.425781 376.832031 L 389.070312 376.832031 L 389.070312 379.070312 L 387.792969 379.070312 L 387.792969 376.832031 L 383.511719 376.832031 L 383.511719 375.597656 Z M 387.457031 369.589844 "/>
<path style=" stroke:none;fill-rule:nonzero;fill:rgb(0%,0%,0%);fill-opacity:1;" d="M 395.292969 370.433594 C 394.628906 370.433594 394.136719 370.757812 393.796875 371.410156 C 393.457031 372.058594 393.300781 373.035156 393.300781 374.335938 C 393.300781 375.636719 393.457031 376.609375 393.796875 377.261719 C 394.136719 377.910156 394.628906 378.234375 395.292969 378.234375 C 395.957031 378.234375 396.453125 377.910156 396.792969 377.261719 C 397.117188 376.609375 397.285156 375.636719 397.285156 374.335938 C 397.285156 373.035156 397.117188 372.058594 396.792969 371.410156 C 396.453125 370.757812 395.957031 370.433594 395.292969 370.433594 Z M 395.292969 369.417969 C 396.347656 369.417969 397.15625 369.847656 397.730469 370.679688 C 398.289062 371.527344 398.574219 372.75 398.574219 374.335938 C 398.574219 375.933594 398.289062 377.15625 397.730469 377.988281 C 397.15625 378.820312 396.347656 379.238281 395.28125 379.238281 C 394.214844 379.238281 393.40625 378.820312 392.847656 377.988281 C 392.285156 377.15625 392.011719 375.933594 392.011719 374.335938 C 392.011719 372.75 392.285156 371.527344 392.847656 370.679688 C 393.40625 369.847656 394.226562 369.417969 395.292969 369.417969 Z M 395.292969 369.417969 "/>
<path style=" stroke:none;fill-rule:nonzero;fill:rgb(0%,0%,0%);fill-opacity:1;" d="M 194.996094 387.367188 L 203.015625 387.367188 L 203.015625 388.449219 L 199.644531 388.449219 L 199.644531 396.847656 L 198.355469 396.847656 L 198.355469 388.449219 L 194.996094 388.449219 Z M 194.996094 387.367188 "/>
<path style=" stroke:none;fill-rule:nonzero;fill:rgb(0%,0%,0%);fill-opacity:1;" d="M 203.816406 389.734375 L 204.988281 389.734375 L 204.988281 396.847656 L 203.816406 396.847656 Z M 203.816406 386.964844 L 204.988281 386.964844 L 204.988281 388.449219 L 203.816406 388.449219 Z M 203.816406 386.964844 "/>
<path style=" stroke:none;fill-rule:nonzero;fill:rgb(0%,0%,0%);fill-opacity:1;" d="M 212.980469 391.101562 C 213.269531 390.582031 213.621094 390.203125 214.023438 389.945312 C 214.425781 389.695312 214.910156 389.566406 215.46875 389.566406 C 216.199219 389.566406 216.769531 389.828125 217.175781 390.347656 C 217.578125 390.867188 217.785156 391.609375 217.785156 392.558594 L 217.785156 396.847656 L 216.613281 396.847656 L 216.613281 392.597656 C 216.613281 391.921875 216.484375 391.414062 216.25 391.074219 C 216.003906 390.75 215.636719 390.582031 215.144531 390.582031 C 214.53125 390.582031 214.050781 390.789062 213.699219 391.191406 C 213.347656 391.59375 213.175781 392.140625 213.175781 392.832031 L 213.175781 396.847656 L 212.003906 396.847656 L 212.003906 392.597656 C 212.003906 391.921875 211.875 391.414062 211.640625 391.074219 C 211.394531 390.75 211.015625 390.582031 210.519531 390.582031 C 209.921875 390.582031 209.441406 390.789062 209.089844 391.191406 C 208.738281 391.59375 208.566406 392.140625 208.566406 392.832031 L 208.566406 396.847656 L 207.394531 396.847656 L 207.394531 389.734375 L 208.566406 389.734375 L 208.566406 390.839844 C 208.828125 390.410156 209.152344 390.085938 209.53125 389.878906 C 209.894531 389.671875 210.339844 389.566406 210.859375 389.566406 C 211.378906 389.566406 211.808594 389.695312 212.175781 389.957031 C 212.539062 390.214844 212.800781 390.605469 212.980469 391.101562 Z M 212.980469 391.101562 "/>
<path style=" stroke:none;fill-rule:nonzero;fill:rgb(0%,0%,0%);fill-opacity:1;" d="M 226.210938 393 L 226.210938 393.570312 L 220.832031 393.570312 C 220.886719 394.378906 221.121094 395.003906 221.5625 395.417969 C 221.992188 395.835938 222.589844 396.042969 223.371094 396.042969 C 223.816406 396.042969 224.257812 395.992188 224.675781 395.886719 C 225.089844 395.78125 225.519531 395.613281 225.9375 395.378906 L 225.9375 396.484375 C 225.519531 396.667969 225.089844 396.808594 224.648438 396.886719 C 224.207031 396.964844 223.75 397.019531 223.308594 397.019531 C 222.160156 397.019531 221.261719 396.691406 220.597656 396.042969 C 219.933594 395.390625 219.609375 394.496094 219.609375 393.363281 C 219.609375 392.207031 219.921875 391.28125 220.546875 390.59375 C 221.171875 389.917969 222.03125 389.566406 223.097656 389.566406 C 224.0625 389.566406 224.816406 389.878906 225.378906 390.488281 C 225.925781 391.113281 226.210938 391.945312 226.210938 393 Z M 225.039062 392.660156 C 225.027344 392.023438 224.84375 391.515625 224.503906 391.125 C 224.152344 390.75 223.683594 390.554688 223.113281 390.554688 C 222.460938 390.554688 221.941406 390.75 221.550781 391.113281 C 221.160156 391.476562 220.925781 392 220.871094 392.660156 Z M 225.039062 392.660156 "/>
<path style=" stroke:none;fill-rule:nonzero;fill:rgb(0%,0%,0%);fill-opacity:1;" d="M 232.160156 386.964844 L 234.855469 386.964844 L 234.855469 387.875 L 233.332031 387.875 L 233.332031 397.640625 L 234.855469 397.640625 L 234.855469 398.554688 L 232.160156 398.554688 Z M 232.160156 386.964844 "/>
<path style=" stroke:none;fill-rule:nonzero;fill:rgb(0%,0%,0%);fill-opacity:1;" d="M 241.886719 389.945312 L 241.886719 391.050781 C 241.550781 390.894531 241.210938 390.761719 240.859375 390.671875 C 240.496094 390.59375 240.128906 390.542969 239.753906 390.542969 C 239.167969 390.542969 238.722656 390.632812 238.4375 390.816406 C 238.152344 390.996094 238.007812 391.257812 238.007812 391.609375 C 238.007812 391.882812 238.113281 392.089844 238.320312 392.246094 C 238.527344 392.402344 238.945312 392.558594 239.570312 392.6875 L 239.972656 392.777344 C 240.808594 392.960938 241.394531 393.222656 241.746094 393.53125 C 242.082031 393.859375 242.265625 394.3125 242.265625 394.886719 C 242.265625 395.546875 242.003906 396.070312 241.484375 396.445312 C 240.964844 396.835938 240.234375 397.019531 239.324219 397.019531 C 238.933594 397.019531 238.542969 396.980469 238.125 396.914062 C 237.707031 396.847656 237.277344 396.746094 236.824219 396.589844 L 236.824219 395.378906 C 237.253906 395.613281 237.683594 395.78125 238.097656 395.886719 C 238.515625 396.003906 238.933594 396.054688 239.347656 396.054688 C 239.894531 396.054688 240.324219 395.964844 240.625 395.78125 C 240.910156 395.601562 241.066406 395.328125 241.066406 394.976562 C 241.066406 394.664062 240.949219 394.417969 240.742188 394.25 C 240.535156 394.078125 240.066406 393.910156 239.335938 393.753906 L 238.933594 393.664062 C 238.203125 393.507812 237.667969 393.273438 237.355469 392.960938 C 237.03125 392.648438 236.875 392.21875 236.875 391.660156 C 236.875 390.996094 237.109375 390.476562 237.578125 390.113281 C 238.046875 389.75 238.722656 389.566406 239.609375 389.566406 C 240.039062 389.566406 240.441406 389.605469 240.832031 389.671875 C 241.210938 389.734375 241.5625 389.828125 241.886719 389.945312 Z M 241.886719 389.945312 "/>
<path style=" stroke:none;fill-rule:nonzero;fill:rgb(0%,0%,0%);fill-opacity:1;" d="M 246.863281 386.964844 L 246.863281 398.554688 L 244.167969 398.554688 L 244.167969 397.640625 L 245.691406 397.640625 L 245.691406 387.875 L 244.167969 387.875 L 244.167969 386.964844 Z M 246.863281 386.964844 "/>
<path style="fill:none;stroke-width:0.8;stroke-linecap:butt;stroke-linejoin:round;stroke:rgb(0%,0%,0%);stroke-opacity:1;stroke-miterlimit:4;" d="M 37.104 236.32946 L 33.603 236.32946 " transform="matrix(1.302083,0,0,1.300505,0,12.875)"/>
<path style=" stroke:none;fill-rule:nonzero;fill:rgb(0%,0%,0%);fill-opacity:1;" d="M 22.628906 316.523438 C 21.964844 316.523438 21.46875 316.851562 21.128906 317.5 C 20.792969 318.148438 20.636719 319.125 20.636719 320.425781 C 20.636719 321.726562 20.792969 322.703125 21.128906 323.351562 C 21.46875 324.003906 21.964844 324.328125 22.628906 324.328125 C 23.292969 324.328125 23.785156 324.003906 24.125 323.351562 C 24.449219 322.703125 24.621094 321.726562 24.621094 320.425781 C 24.621094 319.125 24.449219 318.148438 24.125 317.5 C 23.785156 316.851562 23.292969 316.523438 22.628906 316.523438 Z M 22.628906 315.511719 C 23.683594 315.511719 24.488281 315.941406 25.0625 316.773438 C 25.621094 317.617188 25.910156 318.839844 25.910156 320.425781 C 25.910156 322.027344 25.621094 323.25 25.0625 324.082031 C 24.488281 324.914062 23.683594 325.328125 22.613281 325.328125 C 21.546875 325.328125 20.738281 324.914062 20.179688 324.082031 C 19.621094 323.25 19.347656 322.027344 19.347656 320.425781 C 19.347656 318.839844 19.621094 317.617188 20.179688 316.773438 C 20.738281 315.941406 21.558594 315.511719 22.628906 315.511719 Z M 22.628906 315.511719 "/>
<path style=" stroke:none;fill-rule:nonzero;fill:rgb(0%,0%,0%);fill-opacity:1;" d="M 28.160156 323.546875 L 29.503906 323.546875 L 29.503906 325.160156 L 28.160156 325.160156 Z M 28.160156 323.546875 "/>
<path style=" stroke:none;fill-rule:nonzero;fill:rgb(0%,0%,0%);fill-opacity:1;" d="M 32.316406 315.679688 L 37.355469 315.679688 L 37.355469 316.757812 L 33.488281 316.757812 L 33.488281 319.085938 C 33.667969 319.023438 33.863281 318.96875 34.046875 318.945312 C 34.230469 318.917969 34.425781 318.890625 34.605469 318.890625 C 35.660156 318.890625 36.496094 319.191406 37.121094 319.761719 C 37.746094 320.347656 38.058594 321.128906 38.058594 322.117188 C 38.058594 323.144531 37.730469 323.9375 37.09375 324.496094 C 36.457031 325.054688 35.558594 325.328125 34.410156 325.328125 C 34.007812 325.328125 33.605469 325.289062 33.1875 325.238281 C 32.769531 325.171875 32.355469 325.082031 31.910156 324.9375 L 31.910156 323.652344 C 32.289062 323.859375 32.679688 324.015625 33.097656 324.121094 C 33.5 324.222656 33.929688 324.261719 34.386719 324.261719 C 35.113281 324.261719 35.699219 324.082031 36.128906 323.691406 C 36.546875 323.300781 36.769531 322.78125 36.769531 322.117188 C 36.769531 321.464844 36.546875 320.945312 36.128906 320.554688 C 35.699219 320.167969 35.113281 319.972656 34.386719 319.972656 C 34.046875 319.972656 33.695312 320.011719 33.355469 320.089844 C 33.019531 320.167969 32.667969 320.28125 32.316406 320.4375 Z M 32.316406 315.679688 "/>
<path style="fill:none;stroke-width:0.8;stroke-linecap:butt;stroke-linejoin:round;stroke:rgb(0%,0%,0%);stroke-opacity:1;stroke-miterlimit:4;" d="M 37.104 194.512773 L 33.603 194.512773 " transform="matrix(1.302083,0,0,1.300505,0,12.875)"/>
<path style=" stroke:none;fill-rule:nonzero;fill:rgb(0%,0%,0%);fill-opacity:1;" d="M 20.101562 269.699219 L 22.199219 269.699219 L 22.199219 262.46875 L 19.917969 262.921875 L 19.917969 261.753906 L 22.183594 261.296875 L 23.472656 261.296875 L 23.472656 269.699219 L 25.570312 269.699219 L 25.570312 270.777344 L 20.101562 270.777344 Z M 20.101562 269.699219 "/>
<path style=" stroke:none;fill-rule:nonzero;fill:rgb(0%,0%,0%);fill-opacity:1;" d="M 28.160156 269.164062 L 29.503906 269.164062 L 29.503906 270.777344 L 28.160156 270.777344 Z M 28.160156 269.164062 "/>
<path style=" stroke:none;fill-rule:nonzero;fill:rgb(0%,0%,0%);fill-opacity:1;" d="M 35.050781 262.144531 C 34.386719 262.144531 33.890625 262.46875 33.550781 263.117188 C 33.214844 263.769531 33.058594 264.742188 33.058594 266.042969 C 33.058594 267.34375 33.214844 268.320312 33.550781 268.96875 C 33.890625 269.621094 34.386719 269.945312 35.050781 269.945312 C 35.714844 269.945312 36.207031 269.621094 36.546875 268.96875 C 36.871094 268.320312 37.042969 267.34375 37.042969 266.042969 C 37.042969 264.742188 36.871094 263.769531 36.546875 263.117188 C 36.207031 262.46875 35.714844 262.144531 35.050781 262.144531 Z M 35.050781 261.128906 C 36.105469 261.128906 36.910156 261.558594 37.484375 262.390625 C 38.042969 263.234375 38.332031 264.457031 38.332031 266.042969 C 38.332031 267.644531 38.042969 268.867188 37.484375 269.699219 C 36.910156 270.53125 36.105469 270.945312 35.035156 270.945312 C 33.96875 270.945312 33.160156 270.53125 32.601562 269.699219 C 32.042969 268.867188 31.769531 267.644531 31.769531 266.042969 C 31.769531 264.457031 32.042969 263.234375 32.601562 262.390625 C 33.160156 261.558594 33.980469 261.128906 35.050781 261.128906 Z M 35.050781 261.128906 "/>
<path style="fill:none;stroke-width:0.8;stroke-linecap:butt;stroke-linejoin:round;stroke:rgb(0%,0%,0%);stroke-opacity:1;stroke-miterlimit:4;" d="M 37.104 152.69909 L 33.603 152.69909 " transform="matrix(1.302083,0,0,1.300505,0,12.875)"/>
<path style=" stroke:none;fill-rule:nonzero;fill:rgb(0%,0%,0%);fill-opacity:1;" d="M 20.101562 215.320312 L 22.199219 215.320312 L 22.199219 208.089844 L 19.917969 208.542969 L 19.917969 207.375 L 22.183594 206.917969 L 23.472656 206.917969 L 23.472656 215.320312 L 25.570312 215.320312 L 25.570312 216.398438 L 20.101562 216.398438 Z M 20.101562 215.320312 "/>
<path style=" stroke:none;fill-rule:nonzero;fill:rgb(0%,0%,0%);fill-opacity:1;" d="M 28.160156 214.785156 L 29.503906 214.785156 L 29.503906 216.398438 L 28.160156 216.398438 Z M 28.160156 214.785156 "/>
<path style=" stroke:none;fill-rule:nonzero;fill:rgb(0%,0%,0%);fill-opacity:1;" d="M 32.316406 206.917969 L 37.355469 206.917969 L 37.355469 207.996094 L 33.488281 207.996094 L 33.488281 210.324219 C 33.667969 210.261719 33.863281 210.207031 34.046875 210.183594 C 34.230469 210.15625 34.425781 210.128906 34.605469 210.128906 C 35.660156 210.128906 36.496094 210.429688 37.121094 211 C 37.746094 211.585938 38.058594 212.367188 38.058594 213.355469 C 38.058594 214.382812 37.730469 215.175781 37.09375 215.734375 C 36.457031 216.292969 35.558594 216.566406 34.410156 216.566406 C 34.007812 216.566406 33.605469 216.527344 33.1875 216.476562 C 32.769531 216.410156 32.355469 216.320312 31.910156 216.179688 L 31.910156 214.890625 C 32.289062 215.097656 32.679688 215.253906 33.097656 215.359375 C 33.5 215.460938 33.929688 215.5 34.386719 215.5 C 35.113281 215.5 35.699219 215.320312 36.128906 214.929688 C 36.546875 214.539062 36.769531 214.019531 36.769531 213.355469 C 36.769531 212.707031 36.546875 212.183594 36.128906 211.796875 C 35.699219 211.40625 35.113281 211.210938 34.386719 211.210938 C 34.046875 211.210938 33.695312 211.25 33.355469 211.328125 C 33.019531 211.40625 32.667969 211.523438 32.316406 211.679688 Z M 32.316406 206.917969 "/>
<path style="fill:none;stroke-width:0.8;stroke-linecap:butt;stroke-linejoin:round;stroke:rgb(0%,0%,0%);stroke-opacity:1;stroke-miterlimit:4;" d="M 37.104 110.885407 L 33.603 110.885407 " transform="matrix(1.302083,0,0,1.300505,0,12.875)"/>
<path style=" stroke:none;fill-rule:nonzero;fill:rgb(0%,0%,0%);fill-opacity:1;" d="M 20.988281 160.9375 L 25.464844 160.9375 L 25.464844 162.015625 L 19.4375 162.015625 L 19.4375 160.9375 C 19.917969 160.441406 20.582031 159.765625 21.429688 158.910156 C 22.261719 158.0625 22.796875 157.515625 23.019531 157.269531 C 23.433594 156.816406 23.722656 156.425781 23.878906 156.101562 C 24.035156 155.789062 24.125 155.460938 24.125 155.148438 C 24.125 154.65625 23.941406 154.238281 23.589844 153.929688 C 23.238281 153.617188 22.785156 153.445312 22.210938 153.445312 C 21.808594 153.445312 21.378906 153.523438 20.933594 153.65625 C 20.492188 153.796875 20.011719 154.003906 19.503906 154.292969 L 19.503906 152.992188 C 20.023438 152.785156 20.503906 152.628906 20.949219 152.523438 C 21.390625 152.417969 21.808594 152.367188 22.183594 152.367188 C 23.160156 152.367188 23.941406 152.613281 24.527344 153.109375 C 25.113281 153.601562 25.414062 154.253906 25.414062 155.070312 C 25.414062 155.460938 25.335938 155.839844 25.191406 156.175781 C 25.050781 156.527344 24.789062 156.945312 24.398438 157.414062 C 24.292969 157.542969 23.957031 157.894531 23.382812 158.480469 C 22.808594 159.066406 22.015625 159.882812 20.988281 160.9375 Z M 20.988281 160.9375 "/>
<path style=" stroke:none;fill-rule:nonzero;fill:rgb(0%,0%,0%);fill-opacity:1;" d="M 28.160156 160.402344 L 29.503906 160.402344 L 29.503906 162.015625 L 28.160156 162.015625 Z M 28.160156 160.402344 "/>
<path style=" stroke:none;fill-rule:nonzero;fill:rgb(0%,0%,0%);fill-opacity:1;" d="M 35.050781 153.382812 C 34.386719 153.382812 33.890625 153.707031 33.550781 154.355469 C 33.214844 155.007812 33.058594 155.984375 33.058594 157.28125 C 33.058594 158.582031 33.214844 159.558594 33.550781 160.210938 C 33.890625 160.859375 34.386719 161.183594 35.050781 161.183594 C 35.714844 161.183594 36.207031 160.859375 36.546875 160.210938 C 36.871094 159.558594 37.042969 158.582031 37.042969 157.28125 C 37.042969 155.984375 36.871094 155.007812 36.546875 154.355469 C 36.207031 153.707031 35.714844 153.382812 35.050781 153.382812 Z M 35.050781 152.367188 C 36.105469 152.367188 36.910156 152.796875 37.484375 153.628906 C 38.042969 154.472656 38.332031 155.695312 38.332031 157.28125 C 38.332031 158.882812 38.042969 160.105469 37.484375 160.9375 C 36.910156 161.769531 36.105469 162.1875 35.035156 162.1875 C 33.96875 162.1875 33.160156 161.769531 32.601562 160.9375 C 32.042969 160.105469 31.769531 158.882812 31.769531 157.28125 C 31.769531 155.695312 32.042969 154.472656 32.601562 153.628906 C 33.160156 152.796875 33.980469 152.367188 35.050781 152.367188 Z M 35.050781 152.367188 "/>
<path style="fill:none;stroke-width:0.8;stroke-linecap:butt;stroke-linejoin:round;stroke:rgb(0%,0%,0%);stroke-opacity:1;stroke-miterlimit:4;" d="M 37.104 69.06872 L 33.603 69.06872 " transform="matrix(1.302083,0,0,1.300505,0,12.875)"/>
<path style=" stroke:none;fill-rule:nonzero;fill:rgb(0%,0%,0%);fill-opacity:1;" d="M 20.988281 106.558594 L 25.464844 106.558594 L 25.464844 107.636719 L 19.4375 107.636719 L 19.4375 106.558594 C 19.917969 106.0625 20.582031 105.386719 21.429688 104.53125 C 22.261719 103.683594 22.796875 103.136719 23.019531 102.890625 C 23.433594 102.4375 23.722656 102.046875 23.878906 101.71875 C 24.035156 101.40625 24.125 101.082031 24.125 100.769531 C 24.125 100.277344 23.941406 99.859375 23.589844 99.546875 C 23.238281 99.238281 22.785156 99.066406 22.210938 99.066406 C 21.808594 99.066406 21.378906 99.144531 20.933594 99.273438 C 20.492188 99.417969 20.011719 99.625 19.503906 99.914062 L 19.503906 98.613281 C 20.023438 98.402344 20.503906 98.246094 20.949219 98.144531 C 21.390625 98.039062 21.808594 97.988281 22.183594 97.988281 C 23.160156 97.988281 23.941406 98.234375 24.527344 98.730469 C 25.113281 99.222656 25.414062 99.875 25.414062 100.691406 C 25.414062 101.082031 25.335938 101.460938 25.191406 101.796875 C 25.050781 102.148438 24.789062 102.566406 24.398438 103.035156 C 24.292969 103.164062 23.957031 103.515625 23.382812 104.101562 C 22.808594 104.683594 22.015625 105.503906 20.988281 106.558594 Z M 20.988281 106.558594 "/>
<path style=" stroke:none;fill-rule:nonzero;fill:rgb(0%,0%,0%);fill-opacity:1;" d="M 28.160156 106.023438 L 29.503906 106.023438 L 29.503906 107.636719 L 28.160156 107.636719 Z M 28.160156 106.023438 "/>
<path style=" stroke:none;fill-rule:nonzero;fill:rgb(0%,0%,0%);fill-opacity:1;" d="M 32.316406 98.15625 L 37.355469 98.15625 L 37.355469 99.238281 L 33.488281 99.238281 L 33.488281 101.5625 C 33.667969 101.5 33.863281 101.445312 34.046875 101.421875 C 34.230469 101.394531 34.425781 101.371094 34.605469 101.371094 C 35.660156 101.371094 36.496094 101.667969 37.121094 102.242188 C 37.746094 102.824219 38.058594 103.605469 38.058594 104.59375 C 38.058594 105.621094 37.730469 106.414062 37.09375 106.972656 C 36.457031 107.535156 35.558594 107.808594 34.410156 107.808594 C 34.007812 107.808594 33.605469 107.769531 33.1875 107.714844 C 32.769531 107.652344 32.355469 107.558594 31.910156 107.417969 L 31.910156 106.128906 C 32.289062 106.335938 32.679688 106.492188 33.097656 106.597656 C 33.5 106.703125 33.929688 106.742188 34.386719 106.742188 C 35.113281 106.742188 35.699219 106.558594 36.128906 106.167969 C 36.546875 105.777344 36.769531 105.257812 36.769531 104.59375 C 36.769531 103.945312 36.546875 103.425781 36.128906 103.035156 C 35.699219 102.644531 35.113281 102.449219 34.386719 102.449219 C 34.046875 102.449219 33.695312 102.488281 33.355469 102.566406 C 33.019531 102.644531 32.667969 102.761719 32.316406 102.917969 Z M 32.316406 98.15625 "/>
<path style="fill:none;stroke-width:0.8;stroke-linecap:butt;stroke-linejoin:round;stroke:rgb(0%,0%,0%);stroke-opacity:1;stroke-miterlimit:4;" d="M 37.104 27.255036 L 33.603 27.255036 " transform="matrix(1.302083,0,0,1.300505,0,12.875)"/>
<path style=" stroke:none;fill-rule:nonzero;fill:rgb(0%,0%,0%);fill-opacity:1;" d="M 23.773438 48.144531 C 24.386719 48.273438 24.867188 48.546875 25.207031 48.964844 C 25.542969 49.378906 25.726562 49.898438 25.726562 50.5 C 25.726562 51.433594 25.402344 52.164062 24.761719 52.671875 C 24.113281 53.175781 23.199219 53.425781 22.015625 53.425781 C 21.613281 53.425781 21.195312 53.386719 20.777344 53.308594 C 20.363281 53.242188 19.917969 53.125 19.476562 52.96875 L 19.476562 51.734375 C 19.828125 51.941406 20.21875 52.097656 20.648438 52.203125 C 21.066406 52.304688 21.507812 52.359375 21.976562 52.359375 C 22.785156 52.359375 23.394531 52.203125 23.8125 51.890625 C 24.230469 51.578125 24.449219 51.109375 24.449219 50.5 C 24.449219 49.953125 24.253906 49.511719 23.863281 49.199219 C 23.472656 48.886719 22.925781 48.71875 22.222656 48.71875 L 21.117188 48.71875 L 21.117188 47.664062 L 22.277344 47.664062 C 22.902344 47.664062 23.382812 47.546875 23.722656 47.285156 C 24.058594 47.039062 24.230469 46.675781 24.230469 46.195312 C 24.230469 45.710938 24.046875 45.335938 23.707031 45.074219 C 23.355469 44.816406 22.863281 44.683594 22.222656 44.683594 C 21.871094 44.683594 21.496094 44.722656 21.089844 44.800781 C 20.6875 44.878906 20.246094 44.996094 19.761719 45.152344 L 19.761719 44.007812 C 20.246094 43.878906 20.699219 43.773438 21.128906 43.710938 C 21.546875 43.644531 21.949219 43.605469 22.339844 43.605469 C 23.304688 43.605469 24.074219 43.828125 24.644531 44.269531 C 25.21875 44.710938 25.503906 45.308594 25.503906 46.0625 C 25.503906 46.585938 25.347656 47.027344 25.050781 47.390625 C 24.75 47.753906 24.320312 48.015625 23.773438 48.144531 Z M 23.773438 48.144531 "/>
<path style=" stroke:none;fill-rule:nonzero;fill:rgb(0%,0%,0%);fill-opacity:1;" d="M 28.160156 51.644531 L 29.503906 51.644531 L 29.503906 53.253906 L 28.160156 53.253906 Z M 28.160156 51.644531 "/>
<path style=" stroke:none;fill-rule:nonzero;fill:rgb(0%,0%,0%);fill-opacity:1;" d="M 35.050781 44.621094 C 34.386719 44.621094 33.890625 44.945312 33.550781 45.597656 C 33.214844 46.246094 33.058594 47.222656 33.058594 48.523438 C 33.058594 49.824219 33.214844 50.796875 33.550781 51.449219 C 33.890625 52.097656 34.386719 52.421875 35.050781 52.421875 C 35.714844 52.421875 36.207031 52.097656 36.546875 51.449219 C 36.871094 50.796875 37.042969 49.824219 37.042969 48.523438 C 37.042969 47.222656 36.871094 46.246094 36.546875 45.597656 C 36.207031 44.945312 35.714844 44.621094 35.050781 44.621094 Z M 35.050781 43.605469 C 36.105469 43.605469 36.910156 44.035156 37.484375 44.867188 C 38.042969 45.710938 38.332031 46.933594 38.332031 48.523438 C 38.332031 50.121094 38.042969 51.34375 37.484375 52.175781 C 36.910156 53.007812 36.105469 53.425781 35.035156 53.425781 C 33.96875 53.425781 33.160156 53.007812 32.601562 52.175781 C 32.042969 51.34375 31.769531 50.121094 31.769531 48.523438 C 31.769531 46.933594 32.042969 45.710938 32.601562 44.867188 C 33.160156 44.035156 33.980469 43.605469 35.050781 43.605469 Z M 35.050781 43.605469 "/>
<path style=" stroke:none;fill-rule:nonzero;fill:rgb(0%,0%,0%);fill-opacity:1;" d="M 1.394531 219.554688 L 2.644531 219.554688 C 2.410156 220.046875 2.238281 220.503906 2.121094 220.933594 C 2.019531 221.375 1.953125 221.789062 1.953125 222.179688 C 1.953125 222.882812 2.097656 223.429688 2.355469 223.804688 C 2.628906 224.183594 3.019531 224.367188 3.515625 224.367188 C 3.933594 224.367188 4.257812 224.25 4.464844 223.988281 C 4.6875 223.742188 4.855469 223.261719 4.988281 222.558594 L 5.144531 221.777344 C 5.324219 220.828125 5.652344 220.125 6.105469 219.671875 C 6.574219 219.214844 7.1875 218.980469 7.957031 218.980469 C 8.878906 218.980469 9.570312 219.292969 10.039062 219.90625 C 10.507812 220.527344 10.742188 221.425781 10.742188 222.609375 C 10.742188 223.066406 10.691406 223.546875 10.597656 224.054688 C 10.507812 224.5625 10.363281 225.082031 10.15625 225.613281 L 8.828125 225.613281 C 9.128906 225.09375 9.347656 224.585938 9.492188 224.09375 C 9.648438 223.597656 9.714844 223.105469 9.714844 222.609375 C 9.714844 221.882812 9.570312 221.324219 9.285156 220.917969 C 8.996094 220.527344 8.59375 220.320312 8.046875 220.320312 C 7.578125 220.320312 7.214844 220.464844 6.953125 220.75 C 6.691406 221.035156 6.496094 221.503906 6.367188 222.15625 L 6.210938 222.933594 C 6.027344 223.898438 5.730469 224.585938 5.3125 225.015625 C 4.910156 225.445312 4.347656 225.652344 3.621094 225.652344 C 2.785156 225.652344 2.121094 225.367188 1.640625 224.769531 C 1.160156 224.183594 0.910156 223.363281 0.910156 222.324219 C 0.910156 221.882812 0.949219 221.441406 1.027344 220.972656 C 1.105469 220.515625 1.238281 220.046875 1.394531 219.554688 Z M 1.394531 219.554688 "/>
<path style=" stroke:none;fill-rule:nonzero;fill:rgb(0%,0%,0%);fill-opacity:1;" d="M 9.503906 215.898438 L 13.269531 215.898438 L 13.269531 217.070312 L 3.449219 217.070312 L 3.449219 215.898438 L 4.53125 215.898438 C 4.113281 215.664062 3.800781 215.351562 3.59375 214.976562 C 3.386719 214.597656 3.28125 214.144531 3.28125 213.625 C 3.28125 212.765625 3.632812 212.0625 4.308594 211.515625 C 5 210.984375 5.898438 210.710938 7.019531 210.710938 C 8.136719 210.710938 9.050781 210.984375 9.726562 211.515625 C 10.402344 212.0625 10.742188 212.765625 10.742188 213.625 C 10.742188 214.144531 10.636719 214.597656 10.441406 214.976562 C 10.246094 215.351562 9.933594 215.664062 9.503906 215.898438 Z M 7.019531 211.917969 C 6.160156 211.917969 5.496094 212.101562 5 212.453125 C 4.503906 212.816406 4.257812 213.296875 4.257812 213.910156 C 4.257812 214.535156 4.503906 215.015625 5 215.367188 C 5.496094 215.730469 6.160156 215.898438 7.019531 215.898438 C 7.878906 215.898438 8.554688 215.730469 9.050781 215.367188 C 9.542969 215.015625 9.777344 214.535156 9.777344 213.910156 C 9.777344 213.296875 9.542969 212.816406 9.050781 212.453125 C 8.554688 212.101562 7.878906 211.917969 7.019531 211.917969 Z M 7.019531 211.917969 "/>
<path style=" stroke:none;fill-rule:nonzero;fill:rgb(0%,0%,0%);fill-opacity:1;" d="M 6.71875 202.6875 L 7.292969 202.6875 L 7.292969 208.058594 C 8.097656 208.003906 8.722656 207.769531 9.140625 207.328125 C 9.558594 206.898438 9.765625 206.300781 9.765625 205.519531 C 9.765625 205.078125 9.714844 204.636719 9.609375 204.222656 C 9.503906 203.804688 9.335938 203.375 9.101562 202.960938 L 10.207031 202.960938 C 10.390625 203.375 10.535156 203.804688 10.613281 204.246094 C 10.691406 204.6875 10.742188 205.144531 10.742188 205.585938 C 10.742188 206.730469 10.417969 207.628906 9.765625 208.292969 C 9.113281 208.953125 8.214844 209.28125 7.082031 209.28125 C 5.925781 209.28125 5 208.96875 4.308594 208.34375 C 3.632812 207.71875 3.28125 206.859375 3.28125 205.792969 C 3.28125 204.832031 3.59375 204.078125 4.207031 203.519531 C 4.832031 202.972656 5.664062 202.6875 6.71875 202.6875 Z M 6.378906 203.855469 C 5.742188 203.871094 5.234375 204.050781 4.84375 204.390625 C 4.464844 204.742188 4.269531 205.210938 4.269531 205.78125 C 4.269531 206.433594 4.464844 206.953125 4.832031 207.34375 C 5.195312 207.730469 5.714844 207.964844 6.378906 208.019531 Z M 6.378906 203.855469 "/>
<path style=" stroke:none;fill-rule:nonzero;fill:rgb(0%,0%,0%);fill-opacity:1;" d="M 6.71875 194.6875 L 7.292969 194.6875 L 7.292969 200.058594 C 8.097656 200.007812 8.722656 199.773438 9.140625 199.332031 C 9.558594 198.902344 9.765625 198.304688 9.765625 197.523438 C 9.765625 197.082031 9.714844 196.640625 9.609375 196.222656 C 9.503906 195.808594 9.335938 195.378906 9.101562 194.960938 L 10.207031 194.960938 C 10.390625 195.378906 10.535156 195.808594 10.613281 196.25 C 10.691406 196.691406 10.742188 197.144531 10.742188 197.589844 C 10.742188 198.734375 10.417969 199.628906 9.765625 200.292969 C 9.113281 200.957031 8.214844 201.28125 7.082031 201.28125 C 5.925781 201.28125 5 200.96875 4.308594 200.34375 C 3.632812 199.722656 3.28125 198.863281 3.28125 197.796875 C 3.28125 196.835938 3.59375 196.078125 4.207031 195.519531 C 4.832031 194.972656 5.664062 194.6875 6.71875 194.6875 Z M 6.378906 195.859375 C 5.742188 195.871094 5.234375 196.054688 4.84375 196.390625 C 4.464844 196.742188 4.269531 197.210938 4.269531 197.785156 C 4.269531 198.433594 4.464844 198.953125 4.832031 199.34375 C 5.195312 199.734375 5.714844 199.96875 6.378906 200.019531 Z M 6.378906 195.859375 "/>
<path style=" stroke:none;fill-rule:nonzero;fill:rgb(0%,0%,0%);fill-opacity:1;" d="M 4.53125 188.09375 L 0.675781 188.09375 L 0.675781 186.925781 L 10.574219 186.925781 L 10.574219 188.09375 L 9.503906 188.09375 C 9.933594 188.339844 10.246094 188.652344 10.441406 189.03125 C 10.636719 189.40625 10.742188 189.851562 10.742188 190.371094 C 10.742188 191.230469 10.402344 191.929688 9.726562 192.476562 C 9.050781 193.023438 8.136719 193.285156 7.019531 193.285156 C 5.898438 193.285156 5 193.023438 4.308594 192.476562 C 3.632812 191.929688 3.28125 191.230469 3.28125 190.371094 C 3.28125 189.851562 3.386719 189.40625 3.59375 189.03125 C 3.800781 188.652344 4.113281 188.339844 4.53125 188.09375 Z M 7.019531 192.074219 C 7.878906 192.074219 8.554688 191.90625 9.050781 191.554688 C 9.542969 191.203125 9.777344 190.722656 9.777344 190.097656 C 9.777344 189.472656 9.542969 188.992188 9.050781 188.628906 C 8.554688 188.277344 7.878906 188.09375 7.019531 188.09375 C 6.160156 188.09375 5.496094 188.277344 5 188.628906 C 4.503906 188.992188 4.257812 189.472656 4.257812 190.097656 C 4.257812 190.722656 4.503906 191.203125 5 191.554688 C 5.496094 191.90625 6.160156 192.074219 7.019531 192.074219 Z M 7.019531 192.074219 "/>
<path style=" stroke:none;fill-rule:nonzero;fill:rgb(0%,0%,0%);fill-opacity:1;" d="M 0.675781 180.488281 L 0.675781 177.792969 L 1.589844 177.792969 L 1.589844 179.316406 L 11.367188 179.316406 L 11.367188 177.792969 L 12.277344 177.792969 L 12.277344 180.488281 Z M 0.675781 180.488281 "/>
<path style=" stroke:none;fill-rule:nonzero;fill:rgb(0%,0%,0%);fill-opacity:1;" d="M 4.816406 169.769531 C 4.296875 169.484375 3.917969 169.132812 3.660156 168.730469 C 3.410156 168.328125 3.28125 167.847656 3.28125 167.285156 C 3.28125 166.558594 3.542969 165.984375 4.0625 165.582031 C 4.582031 165.179688 5.324219 164.972656 6.277344 164.972656 L 10.574219 164.972656 L 10.574219 166.140625 L 6.316406 166.140625 C 5.636719 166.140625 5.128906 166.273438 4.792969 166.507812 C 4.464844 166.753906 4.296875 167.117188 4.296875 167.613281 C 4.296875 168.222656 4.503906 168.703125 4.910156 169.054688 C 5.3125 169.40625 5.859375 169.574219 6.550781 169.574219 L 10.574219 169.574219 L 10.574219 170.746094 L 6.316406 170.746094 C 5.636719 170.746094 5.128906 170.875 4.792969 171.109375 C 4.464844 171.355469 4.296875 171.734375 4.296875 172.226562 C 4.296875 172.828125 4.503906 173.308594 4.910156 173.660156 C 5.3125 174.011719 5.859375 174.179688 6.550781 174.179688 L 10.574219 174.179688 L 10.574219 175.351562 L 3.449219 175.351562 L 3.449219 174.179688 L 4.558594 174.179688 C 4.128906 173.917969 3.800781 173.59375 3.59375 173.21875 C 3.386719 172.851562 3.28125 172.410156 3.28125 171.890625 C 3.28125 171.371094 3.410156 170.941406 3.671875 170.578125 C 3.933594 170.210938 4.324219 169.953125 4.816406 169.769531 Z M 4.816406 169.769531 "/>
<path style=" stroke:none;fill-rule:nonzero;fill:rgb(0%,0%,0%);fill-opacity:1;" d="M 1.082031 160.5625 L 1.082031 159.484375 L 11.769531 162.785156 L 11.769531 163.867188 Z M 1.082031 160.5625 "/>
<path style=" stroke:none;fill-rule:nonzero;fill:rgb(0%,0%,0%);fill-opacity:1;" d="M 3.660156 153.722656 L 4.765625 153.722656 C 4.609375 154.058594 4.480469 154.398438 4.386719 154.75 C 4.308594 155.113281 4.257812 155.476562 4.257812 155.855469 C 4.257812 156.441406 4.347656 156.882812 4.53125 157.167969 C 4.714844 157.453125 4.972656 157.597656 5.324219 157.597656 C 5.597656 157.597656 5.808594 157.492188 5.964844 157.285156 C 6.121094 157.078125 6.277344 156.660156 6.40625 156.039062 L 6.496094 155.632812 C 6.679688 154.800781 6.941406 154.214844 7.253906 153.867188 C 7.578125 153.527344 8.035156 153.34375 8.605469 153.34375 C 9.269531 153.34375 9.792969 153.605469 10.167969 154.125 C 10.558594 154.644531 10.742188 155.375 10.742188 156.285156 C 10.742188 156.675781 10.703125 157.066406 10.636719 157.480469 C 10.574219 157.898438 10.46875 158.324219 10.3125 158.78125 L 9.101562 158.78125 C 9.335938 158.351562 9.503906 157.921875 9.609375 157.507812 C 9.726562 157.089844 9.777344 156.675781 9.777344 156.257812 C 9.777344 155.710938 9.6875 155.28125 9.503906 154.984375 C 9.324219 154.699219 9.050781 154.542969 8.699219 154.542969 C 8.386719 154.542969 8.136719 154.660156 7.96875 154.867188 C 7.800781 155.074219 7.628906 155.542969 7.472656 156.269531 L 7.382812 156.675781 C 7.226562 157.402344 6.992188 157.9375 6.679688 158.25 C 6.367188 158.574219 5.9375 158.730469 5.378906 158.730469 C 4.714844 158.730469 4.191406 158.496094 3.828125 158.027344 C 3.464844 157.558594 3.28125 156.882812 3.28125 156 C 3.28125 155.570312 3.320312 155.164062 3.386719 154.777344 C 3.449219 154.398438 3.542969 154.046875 3.660156 153.722656 Z M 3.660156 153.722656 "/>
<path style=" stroke:none;fill-rule:nonzero;fill:rgb(0%,0%,0%);fill-opacity:1;" d="M 0.675781 148.753906 L 12.277344 148.753906 L 12.277344 151.445312 L 11.367188 151.445312 L 11.367188 149.925781 L 1.589844 149.925781 L 1.589844 151.445312 L 0.675781 151.445312 Z M 0.675781 148.753906 "/>
<path style="fill:none;stroke-width:2.5;stroke-linecap:square;stroke-linejoin:round;stroke:rgb(0%,50.196078%,50.196078%);stroke-opacity:1;stroke-miterlimit:4;" d="M 49.2 254.888956 L 50.331 201.505249 L 50.61 190.656098 L 51.057 175.800091 L 51.234 166.353641 L 52.275 134.316808 L 53.517 104.409557 L 54.678 85.892112 L 55.557 75.649697 L 56.718 65.914897 L 59.484 46.310133 L 60.393 41.699545 L 61.029 38.927184 L 62.301 35.049484 L 63.051 33.523635 L 63.495 32.856826 L 63.693 32.412288 L 66.495 28.597664 L 68.529 26.498119 L 68.763 26.37497 L 69.411 26.02054 L 71.235 25.320692 L 71.439 25.227579 L 72.324 24.972269 L 73.593 24.587803 L 73.983 24.61784 L 74.376 24.458647 L 74.865 24.36253 L 75.654 24.32949 L 76.188 24.36253 L 76.545 24.36253 L 76.803 24.55176 L 78.552 24.578792 L 78.945 24.737985 L 79.194 24.707949 L 80.091 24.608829 L 80.745 24.674909 L 81.036 24.578792 L 81.636 24.677913 L 81.876 24.704945 L 82.263 24.674909 L 82.773 24.674909 L 84.801 24.740989 L 85.167 24.801062 L 85.563 24.801062 L 85.809 24.960255 L 86.313 25.152488 L 87.216 25.089411 L 88.632 25.185528 L 88.917 25.407797 L 89.115 25.407797 L 89.376 25.347725 L 89.484 24.722967 L 89.757 25.389775 L 90.006 25.422816 L 90.273 24.867142 L 90.762 23.551547 L 91.518 20.950394 L 92.535 18.045874 L 93.051 17.234891 L 93.171 17.048665 L 93.927 17.024636 L 94.32 17.487197 L 95.256 19.457585 L 95.592 20.74014 L 96.24 23.362318 L 96.729 25.209557 L 97.257 27.086833 L 97.779 28.946086 L 98.508 31.757494 L 100.188 36.629399 L 100.644 37.407342 L 100.938 38.239351 L 101.643 39.452822 L 101.832 39.972451 L 102.081 40.377943 L 102.366 40.404976 L 102.864 40.113623 L 104.115 39.194508 L 105.018 38.014078 L 105.258 37.518477 L 105.519 36.923756 L 107.547 31.958738 L 107.826 31.469144 L 108.195 30.802336 L 108.417 30.441899 L 109.593 29.498756 L 110.751 29.597876 L 111.36 29.108283 L 111.864 28.519569 L 112.149 28.234223 L 112.302 28.069023 L 112.512 28.069023 L 112.779 28.063016 L 113.007 27.888805 L 113.922 27.321117 L 114.042 27.3902 L 115.047 26.810498 L 115.173 26.885589 L 115.554 26.747421 L 116.19 26.453064 L 116.445 26.528155 L 116.616 26.504126 L 116.712 26.675334 L 116.838 26.624272 L 116.961 26.741414 L 117.069 26.660316 L 117.348 26.861559 L 117.474 26.80449 L 117.627 26.918629 L 117.849 26.801487 L 117.978 26.942658 L 118.359 26.873574 L 118.617 26.945661 L 119.001 26.756432 L 119.109 26.807494 L 119.412 26.600243 L 120.156 26.338926 L 120.252 26.420024 L 120.393 26.326911 L 120.531 26.44105 L 120.825 26.320904 L 122.172 25.392779 L 122.535 25.371754 L 122.673 25.449848 L 122.787 25.356735 L 122.928 25.437834 L 123.054 25.33571 L 123.444 25.455856 L 124.224 25.521936 L 126.105 25.362743 L 126.219 25.239593 L 126.36 25.350728 L 126.888 25.134466 L 127.779 24.94824 L 128.025 24.918204 L 128.667 24.608829 L 128.775 24.71696 L 129.798 24.632858 L 129.912 24.71696 L 130.041 24.539745 L 130.173 24.656887 L 130.293 24.566778 L 130.929 25.01432 L 131.694 24.984284 L 131.832 24.924211 L 131.952 25.017324 L 132.468 24.786044 L 132.594 24.813076 L 132.741 24.722967 L 132.831 24.843113 L 133.377 24.524727 L 133.632 24.614836 L 133.728 24.608829 L 134.019 24.807069 L 134.127 24.662894 L 134.268 24.837106 L 134.406 24.78304 L 134.616 24.608829 L 136.785 24.641869 L 136.98 24.473665 L 137.043 24.762015 L 137.292 24.813076 L 137.427 24.692931 L 137.559 24.722967 L 137.934 25.068386 L 138.423 24.900182 L 138.684 24.903186 L 138.933 24.930218 L 139.587 24.885164 L 140.889 25.224575 L 140.973 25.350728 L 141.741 25.350728 L 141.876 25.464867 L 142.122 25.407797 L 142.509 25.410801 L 142.638 25.43483 L 142.764 25.636074 L 143.007 25.551972 L 143.145 25.612045 L 143.382 25.554976 L 143.514 25.612045 L 143.655 25.440837 L 143.787 25.588016 L 144.168 25.383768 L 144.297 25.476881 L 144.435 25.383768 L 144.957 25.930431 L 145.179 25.840322 L 145.293 25.843325 L 145.434 25.729187 L 145.668 25.846329 L 146.184 26.221784 L 146.7 26.02054 L 147.066 25.936438 L 147.354 26.05358 L 147.609 26.05358 L 147.702 26.227791 L 147.837 26.194751 L 147.969 26.287864 L 148.083 26.194751 L 148.35 26.230795 L 148.458 26.107646 L 149.736 26.600243 L 150.009 26.477093 L 150.156 26.576214 L 150.519 26.456068 L 150.645 26.513137 L 150.774 26.423028 L 150.918 26.489108 L 151.161 26.338926 L 151.416 26.398999 L 152.274 26.287864 L 152.694 26.311893 L 152.781 26.194751 L 153.174 26.302882 L 153.417 26.362955 L 153.678 26.537166 L 154.065 26.423028 L 154.206 26.447057 L 154.314 26.335922 L 154.566 26.398999 L 154.695 25.8223 L 154.953 26.221784 L 155.367 27.014745 L 155.718 26.846541 L 156.105 26.933647 L 156.213 26.789472 L 156.36 26.90361 L 156.627 26.732403 L 156.867 26.681341 L 157.365 26.597239 L 158.526 26.423028 L 159.093 26.362955 L 159.168 26.305886 L 159.588 26.411013 L 159.861 26.447057 L 159.963 26.471086 L 160.059 26.338926 L 160.2 26.414017 L 160.293 26.269842 L 160.428 26.447057 L 160.548 26.329915 L 161.127 26.759436 L 161.31 26.957676 L 161.577 26.948665 L 163.332 26.70537 L 163.611 26.789472 L 163.884 26.699363 L 164.121 26.675334 L 164.337 26.735407 L 164.571 26.67233 L 164.742 26.813501 L 165.015 26.897603 L 165.246 27.038774 L 165.537 27.005734 L 165.894 26.978701 L 166.167 27.149909 L 166.668 27.122876 L 166.782 26.981705 L 167.178 27.089836 L 167.28 27.041778 L 167.418 27.15892 L 167.538 27.035771 L 167.679 27.122876 L 168.06 26.957676 L 168.555 26.981705 L 168.945 26.921632 L 169.071 26.951669 L 169.254 26.843538 L 169.332 26.981705 L 169.56 26.897603 L 169.968 26.840534 L 170.094 26.981705 L 170.724 26.777458 L 171.615 27.267051 L 171.873 27.267051 L 172.002 27.152913 L 172.134 27.231007 L 172.281 27.035771 L 172.383 27.152913 L 172.782 26.948665 L 172.872 27.038774 L 173.004 26.864563 L 173.271 27.149909 L 173.412 27.065807 L 173.775 27.435255 L 174.042 27.666535 L 174.672 27.32412 L 175.185 27.387197 L 175.281 27.240018 L 175.44 27.297087 L 175.695 27.240018 L 176.202 27.384193 L 176.43 27.300091 L 176.94 27.276062 L 177.078 27.152913 L 177.618 27.240018 L 177.714 27.098847 L 178.212 27.273058 L 178.35 27.360164 L 178.485 27.240018 L 178.629 27.354157 L 178.86 27.215989 L 179.253 27.098847 L 179.379 27.215989 L 179.901 27.038774 L 180.135 27.101851 L 180.384 27.014745 L 180.525 26.957676 L 180.879 27.182949 L 181.161 27.240018 L 182.292 27.014745 L 182.412 26.897603 L 182.673 27.038774 L 182.907 27.014745 L 183.168 26.984709 L 183.423 27.035771 L 184.446 26.873574 L 184.593 26.63929 L 185.139 27.270055 L 185.22 26.071602 L 185.328 26.083617 L 185.622 25.894387 L 187.635 15.727063 L 188.316 13.666566 L 188.514 13.41426 L 189.144 13.119903 L 189.264 13.270085 L 189.651 12.966717 L 190.236 13.288107 L 190.305 13.549424 L 190.446 13.609496 L 191.463 16.156584 L 191.895 17.315989 L 191.976 15.829187 L 192.576 21.232737 L 194.016 27.51335 L 195.618 33.388471 L 195.891 34.166414 L 196.782 37.380309 L 198.048 41.762621 L 198.186 41.960862 L 198.555 42.937045 L 199.191 44.333738 L 199.47 44.859375 L 199.719 45.16875 L 199.959 45.36699 L 200.334 45.460103 L 200.607 45.595267 L 201.117 45.228823 L 201.48 44.739229 L 201.873 43.946268 L 205.293 34.19645 L 205.434 34.028246 L 205.686 33.397482 L 205.827 33.322391 L 206.082 32.757706 L 206.493 32.129945 L 206.844 32.057858 L 206.946 31.85361 L 207.084 31.87764 L 207.582 31.16878 L 207.867 30.961529 L 208.107 30.967536 L 208.242 31.009587 L 208.344 30.850394 L 208.476 30.892445 L 209.361 30.111499 L 209.481 29.853186 L 209.766 29.757069 L 210.141 29.417658 L 210.408 28.979126 L 211.146 28.240231 L 211.419 28.147118 L 211.788 27.67855 L 212.055 27.603459 L 212.151 27.432251 L 212.277 27.480309 L 212.559 27.297087 L 213.555 27.086833 L 214.725 26.843538 L 214.827 26.978701 L 215.106 26.858556 L 215.538 27.035771 L 216.357 26.594235 L 216.504 26.642294 L 216.612 26.480097 L 217.107 26.558192 L 217.635 26.233799 L 217.806 26.323908 L 217.89 26.167718 L 218.031 26.188744 L 218.442 25.801274 L 218.514 25.957464 L 219.162 25.708161 L 219.549 25.491899 L 219.663 25.569994 L 219.777 25.452852 L 220.026 25.473877 L 220.389 25.482888 L 220.476 23.701729 L 221.049 27.056796 L 221.208 26.99372 L 221.715 26.380977 L 221.805 26.516141 L 222.072 26.645297 L 222.213 26.525152 L 222.453 26.588228 L 223.662 25.9875 L 223.737 25.918416 L 223.857 25.969478 L 224.247 25.75622 L 224.778 25.645085 L 225.402 25.347725 L 226.158 25.20355 L 226.641 25.032342 L 226.776 25.284648 L 226.908 25.143477 L 227.175 25.305674 L 228.18 25.660103 L 228.675 25.672118 L 229.482 25.903398 L 229.725 25.825303 L 229.965 25.726183 L 230.106 25.915413 L 230.322 25.8223 L 230.589 25.9875 L 231.102 25.939442 L 231.555 25.783252 L 231.765 25.813289 L 232.494 25.69014 L 232.635 25.606038 L 232.77 25.660103 L 233.385 25.413805 L 233.526 25.470874 L 234.021 25.176517 L 234.288 25.278641 L 234.42 25.140473 L 235.185 25.215564 L 235.323 25.329703 L 235.431 25.20355 L 236.334 25.23659 L 236.436 25.347725 L 237.078 25.13747 L 237.72 25.317688 L 238.101 25.116444 L 238.623 25.242597 L 239.118 25.173513 L 239.481 25.03835 L 241.089 25.044357 L 241.191 24.912197 L 241.284 24.975273 L 241.653 24.912197 L 241.926 24.978277 L 242.175 25.098422 L 242.277 24.906189 L 242.409 25.044357 L 242.538 24.840109 L 242.685 24.98128 L 243.051 24.855127 L 243.306 24.786044 L 243.435 24.719964 L 243.567 24.930218 L 243.708 24.858131 L 243.822 25.04736 L 243.954 25.044357 L 244.446 25.572998 L 245.352 25.512925 L 245.472 25.645085 L 245.742 25.530947 L 245.835 25.714169 L 246.351 25.66611 L 246.492 25.735194 L 246.624 25.672118 L 246.75 25.810285 L 247.017 25.738198 L 247.38 25.798271 L 247.527 25.948453 L 247.608 25.813289 L 248.379 25.957464 L 248.436 25.885376 L 249.549 25.891383 L 249.663 25.702154 L 249.795 25.828307 L 249.915 25.705158 L 250.044 25.768234 L 250.299 25.639078 L 250.407 25.891383 L 250.533 25.891383 L 250.788 26.149697 L 251.169 26.200758 L 251.322 26.212773 L 251.556 26.08662 L 251.949 26.017536 L 252.453 25.843325 L 252.708 25.969478 L 253.089 26.21878 L 253.329 26.344933 L 253.611 26.143689 L 253.839 26.28486 L 253.992 26.405006 L 254.727 26.158708 L 254.907 26.272846 L 255.135 26.158708 L 255.522 26.411013 L 255.789 26.395995 L 256.152 26.34193 L 256.659 26.332919 L 256.8 26.212773 L 256.914 26.332919 L 257.409 26.143689 L 257.55 26.263835 L 257.805 26.209769 L 258.165 26.456068 L 258.432 26.585225 L 258.834 26.579217 L 258.948 26.380977 L 259.197 26.579217 L 259.476 26.510133 L 259.83 26.816505 L 260.742 26.753428 L 260.862 26.684345 L 261.006 26.756432 L 261.102 26.627275 L 261.39 26.630279 L 261.864 26.423028 L 262.248 26.612257 L 262.635 26.426032 L 263.436 26.480097 L 263.538 26.543174 L 263.898 26.402002 L 264.534 26.657312 L 264.654 26.597239 L 264.801 26.660316 L 265.056 26.576214 L 265.431 26.717385 L 265.563 26.582221 L 266.067 26.708374 L 266.208 26.702367 L 266.307 26.582221 L 266.562 26.648301 L 269.403 26.498119 L 269.637 26.356948 L 269.88 26.54017 L 270.129 26.867567 L 270.453 26.987712 L 270.534 26.873574 L 270.669 26.933647 L 270.783 26.795479 L 271.284 27.122876 L 271.419 27.375182 L 271.653 27.255036 L 271.896 27.255036 L 272.409 26.999727 L 272.529 27.128883 L 272.976 26.885589 L 274.953 26.687348 L 275.22 26.618265 L 276.711 26.67233 L 276.948 26.990716 L 277.137 26.858556 L 277.38 26.918629 L 277.506 26.792476 L 277.647 26.924636 L 277.881 26.861559 L 279.624 26.792476 L 279.783 26.987712 L 280.812 27.044782 L 280.944 27.240018 L 281.454 27.170934 L 281.562 27.050789 L 281.703 27.300091 L 282.069 27.098847 L 282.324 27.035771 L 282.471 27.098847 L 282.579 26.918629 L 282.711 26.981705 L 282.834 26.909618 L 283.455 27.285073 L 283.728 27.029763 L 283.857 27.035771 L 284.364 27.417233 L 285.006 27.173938 L 285.108 27.342142 L 285.507 27.297087 L 285.636 27.42324 L 285.915 27.170934 L 286.035 27.297087 L 286.272 27.170934 L 286.8 27.480309 L 287.046 27.360164 L 287.295 27.345146 L 287.55 27.282069 L 288.051 27.29108 L 288.306 27.167931 L 288.432 27.218993 L 288.567 27.098847 L 289.197 27.597451 L 289.443 27.534375 L 289.83 27.342142 L 289.977 27.52236 L 290.199 27.519357 L 290.847 27.528368 L 290.988 27.336135 L 291.12 27.408222 " transform="matrix(1.302083,0,0,1.300505,0,12.875)"/>
<path style="fill:none;stroke-width:2.5;stroke-linecap:butt;stroke-linejoin:round;stroke:rgb(100%,0%,0%);stroke-opacity:1;stroke-dasharray:9.25,4;stroke-miterlimit:4;" d="M 49.2 27.255036 L 291.12 27.255036 " transform="matrix(1.302083,0,0,1.300505,0,12.875)"/>
<path style="fill:none;stroke-width:0.8;stroke-linecap:square;stroke-linejoin:miter;stroke:rgb(0%,0%,0%);stroke-opacity:1;stroke-miterlimit:10;" d="M 37.104 266.984618 L 37.104 0.871056 M 303.216 266.984618 L 303.216 0.871056 M 37.104 266.984618 L 303.216 266.984618 M 37.104 0.871056 L 303.216 0.871056 " transform="matrix(1.302083,0,0,1.300505,0,12.875)"/>
<path style="fill-rule:nonzero;fill:rgb(100%,100%,100%);fill-opacity:0.8;stroke-width:1;stroke-linecap:butt;stroke-linejoin:miter;stroke:rgb(83.529412%,83.921569%,83.529412%);stroke-opacity:0.8;stroke-miterlimit:10;" d="M 167.373 261.983556 L 296.217 261.983556 C 297.549 261.983556 298.215 261.316748 298.215 259.983131 L 298.215 231.640777 C 298.215 230.30716 297.549 229.640352 296.217 229.640352 L 167.373 229.640352 C 166.038 229.640352 165.372 230.30716 165.372 231.640777 L 165.372 259.983131 C 165.372 261.316748 166.038 261.983556 167.373 261.983556 Z M 167.373 261.983556 " transform="matrix(1.302083,0,0,1.300505,0,12.875)"/>
<path style="fill:none;stroke-width:2.5;stroke-linecap:square;stroke-linejoin:round;stroke:rgb(0%,50.196078%,50.196078%);stroke-opacity:1;stroke-miterlimit:4;" d="M 169.371 237.735164 L 189.372 237.735164 " transform="matrix(1.302083,0,0,1.300505,0,12.875)"/>
<path style=" stroke:none;fill-rule:nonzero;fill:rgb(0%,0%,0%);fill-opacity:1;" d="M 265.378906 317.847656 L 265.378906 319.199219 C 264.9375 318.8125 264.480469 318.511719 263.988281 318.304688 C 263.492188 318.109375 262.984375 318.003906 262.4375 318.003906 C 261.34375 318.003906 260.511719 318.34375 259.9375 319.007812 C 259.363281 319.667969 259.078125 320.617188 259.078125 321.867188 C 259.078125 323.117188 259.363281 324.078125 259.9375 324.742188 C 260.511719 325.40625 261.34375 325.730469 262.4375 325.730469 C 262.984375 325.730469 263.492188 325.636719 263.988281 325.429688 C 264.480469 325.234375 264.9375 324.9375 265.378906 324.535156 L 265.378906 325.871094 C 264.925781 326.183594 264.441406 326.40625 263.949219 326.550781 C 263.453125 326.691406 262.917969 326.769531 262.359375 326.769531 C 260.925781 326.769531 259.792969 326.339844 258.960938 325.46875 C 258.128906 324.597656 257.722656 323.402344 257.722656 321.867188 C 257.722656 320.34375 258.128906 319.148438 258.960938 318.265625 C 259.792969 317.394531 260.925781 316.953125 262.359375 316.953125 C 262.933594 316.953125 263.464844 317.03125 263.960938 317.171875 C 264.457031 317.328125 264.9375 317.550781 265.378906 317.847656 Z M 265.378906 317.847656 "/>
<path style=" stroke:none;fill-rule:nonzero;fill:rgb(0%,0%,0%);fill-opacity:1;" d="M 267.191406 323.792969 L 267.191406 319.488281 L 268.363281 319.488281 L 268.363281 323.753906 C 268.363281 324.429688 268.492188 324.921875 268.753906 325.261719 C 269.011719 325.601562 269.402344 325.769531 269.9375 325.769531 C 270.5625 325.769531 271.070312 325.574219 271.433594 325.171875 C 271.800781 324.765625 271.980469 324.222656 271.980469 323.519531 L 271.980469 319.488281 L 273.152344 319.488281 L 273.152344 326.601562 L 271.980469 326.601562 L 271.980469 325.507812 C 271.695312 325.949219 271.355469 326.261719 270.992188 326.472656 C 270.613281 326.667969 270.183594 326.769531 269.691406 326.769531 C 268.871094 326.769531 268.246094 326.523438 267.828125 326.015625 C 267.398438 325.523438 267.191406 324.78125 267.191406 323.792969 Z M 270.132812 319.316406 Z M 270.132812 319.316406 "/>
<path style=" stroke:none;fill-rule:nonzero;fill:rgb(0%,0%,0%);fill-opacity:1;" d="M 279.691406 320.578125 C 279.558594 320.5 279.417969 320.449219 279.261719 320.410156 C 279.105469 320.382812 278.933594 320.359375 278.753906 320.359375 C 278.089844 320.359375 277.582031 320.578125 277.230469 321.007812 C 276.863281 321.4375 276.695312 322.050781 276.695312 322.855469 L 276.695312 326.601562 L 275.523438 326.601562 L 275.523438 319.488281 L 276.695312 319.488281 L 276.695312 320.59375 C 276.929688 320.164062 277.253906 319.839844 277.644531 319.628906 C 278.035156 319.421875 278.519531 319.316406 279.089844 319.316406 C 279.167969 319.316406 279.261719 319.332031 279.363281 319.332031 C 279.457031 319.34375 279.558594 319.355469 279.691406 319.382812 Z M 279.691406 320.578125 "/>
<path style=" stroke:none;fill-rule:nonzero;fill:rgb(0%,0%,0%);fill-opacity:1;" d="M 284.816406 320.578125 C 284.6875 320.5 284.542969 320.449219 284.386719 320.410156 C 284.230469 320.382812 284.0625 320.359375 283.878906 320.359375 C 283.214844 320.359375 282.707031 320.578125 282.355469 321.007812 C 281.992188 321.4375 281.824219 322.050781 281.824219 322.855469 L 281.824219 326.601562 L 280.652344 326.601562 L 280.652344 319.488281 L 281.824219 319.488281 L 281.824219 320.59375 C 282.058594 320.164062 282.382812 319.839844 282.773438 319.628906 C 283.164062 319.421875 283.644531 319.316406 284.21875 319.316406 C 284.296875 319.316406 284.386719 319.332031 284.492188 319.332031 C 284.582031 319.34375 284.6875 319.355469 284.816406 319.382812 Z M 284.816406 320.578125 "/>
<path style=" stroke:none;fill-rule:nonzero;fill:rgb(0%,0%,0%);fill-opacity:1;" d="M 291.851562 322.75 L 291.851562 323.324219 L 286.472656 323.324219 C 286.527344 324.128906 286.761719 324.753906 287.203125 325.171875 C 287.632812 325.585938 288.230469 325.792969 289.011719 325.792969 C 289.457031 325.792969 289.898438 325.742188 290.316406 325.636719 C 290.730469 325.535156 291.160156 325.367188 291.578125 325.132812 L 291.578125 326.238281 C 291.160156 326.417969 290.730469 326.5625 290.289062 326.640625 C 289.847656 326.71875 289.390625 326.769531 288.949219 326.769531 C 287.800781 326.769531 286.902344 326.445312 286.238281 325.792969 C 285.574219 325.144531 285.25 324.246094 285.25 323.117188 C 285.25 321.957031 285.5625 321.035156 286.1875 320.34375 C 286.8125 319.667969 287.671875 319.316406 288.738281 319.316406 C 289.703125 319.316406 290.457031 319.628906 291.019531 320.242188 C 291.566406 320.867188 291.851562 321.699219 291.851562 322.75 Z M 290.679688 322.414062 C 290.667969 321.777344 290.484375 321.269531 290.144531 320.878906 C 289.792969 320.5 289.324219 320.304688 288.753906 320.304688 C 288.101562 320.304688 287.582031 320.5 287.191406 320.867188 C 286.800781 321.230469 286.566406 321.75 286.511719 322.414062 Z M 290.679688 322.414062 "/>
<path style=" stroke:none;fill-rule:nonzero;fill:rgb(0%,0%,0%);fill-opacity:1;" d="M 299.691406 322.308594 L 299.691406 326.601562 L 298.519531 326.601562 L 298.519531 322.347656 C 298.519531 321.671875 298.375 321.179688 298.113281 320.839844 C 297.855469 320.5 297.464844 320.332031 296.941406 320.332031 C 296.304688 320.332031 295.808594 320.539062 295.445312 320.945312 C 295.082031 321.347656 294.898438 321.894531 294.898438 322.582031 L 294.898438 326.601562 L 293.726562 326.601562 L 293.726562 319.488281 L 294.898438 319.488281 L 294.898438 320.59375 C 295.171875 320.175781 295.496094 319.851562 295.886719 319.644531 C 296.265625 319.433594 296.707031 319.316406 297.203125 319.316406 C 298.011719 319.316406 298.636719 319.578125 299.050781 320.085938 C 299.46875 320.59375 299.691406 321.335938 299.691406 322.308594 Z M 299.691406 322.308594 "/>
<path style=" stroke:none;fill-rule:nonzero;fill:rgb(0%,0%,0%);fill-opacity:1;" d="M 303.179688 317.472656 L 303.179688 319.488281 L 305.589844 319.488281 L 305.589844 320.398438 L 303.179688 320.398438 L 303.179688 324.261719 C 303.179688 324.84375 303.257812 325.222656 303.414062 325.378906 C 303.570312 325.546875 303.894531 325.625 304.390625 325.625 L 305.589844 325.625 L 305.589844 326.601562 L 304.390625 326.601562 C 303.480469 326.601562 302.855469 326.433594 302.515625 326.09375 C 302.175781 325.753906 302.007812 325.144531 302.007812 324.261719 L 302.007812 320.398438 L 301.148438 320.398438 L 301.148438 319.488281 L 302.007812 319.488281 L 302.007812 317.472656 Z M 303.179688 317.472656 "/>
<path style=" stroke:none;fill-rule:nonzero;fill:rgb(0%,0%,0%);fill-opacity:1;" d="M 315.808594 319.695312 L 315.808594 320.800781 C 315.472656 320.644531 315.132812 320.515625 314.78125 320.421875 C 314.417969 320.34375 314.050781 320.292969 313.675781 320.292969 C 313.089844 320.292969 312.644531 320.382812 312.359375 320.566406 C 312.074219 320.75 311.929688 321.007812 311.929688 321.359375 C 311.929688 321.632812 312.035156 321.839844 312.242188 321.996094 C 312.449219 322.152344 312.867188 322.308594 313.492188 322.4375 L 313.894531 322.53125 C 314.730469 322.710938 315.316406 322.972656 315.667969 323.285156 C 316.003906 323.609375 316.1875 324.066406 316.1875 324.636719 C 316.1875 325.300781 315.925781 325.820312 315.40625 326.199219 C 314.886719 326.589844 314.15625 326.769531 313.246094 326.769531 C 312.855469 326.769531 312.464844 326.730469 312.046875 326.667969 C 311.628906 326.601562 311.199219 326.496094 310.746094 326.339844 L 310.746094 325.132812 C 311.175781 325.367188 311.605469 325.535156 312.019531 325.636719 C 312.4375 325.753906 312.855469 325.808594 313.269531 325.808594 C 313.816406 325.808594 314.246094 325.714844 314.546875 325.535156 C 314.832031 325.351562 314.988281 325.078125 314.988281 324.726562 C 314.988281 324.417969 314.871094 324.167969 314.664062 324 C 314.457031 323.832031 313.988281 323.660156 313.257812 323.503906 L 312.855469 323.414062 C 312.125 323.257812 311.589844 323.023438 311.277344 322.710938 C 310.953125 322.402344 310.796875 321.972656 310.796875 321.410156 C 310.796875 320.75 311.03125 320.230469 311.5 319.863281 C 311.96875 319.5 312.644531 319.316406 313.53125 319.316406 C 313.960938 319.316406 314.363281 319.355469 314.753906 319.421875 C 315.132812 319.488281 315.484375 319.578125 315.808594 319.695312 Z M 315.808594 319.695312 "/>
<path style=" stroke:none;fill-rule:nonzero;fill:rgb(0%,0%,0%);fill-opacity:1;" d="M 319.183594 325.535156 L 319.183594 329.292969 L 318.011719 329.292969 L 318.011719 319.488281 L 319.183594 319.488281 L 319.183594 320.566406 C 319.417969 320.152344 319.730469 319.839844 320.105469 319.628906 C 320.484375 319.421875 320.941406 319.316406 321.460938 319.316406 C 322.320312 319.316406 323.023438 319.667969 323.570312 320.34375 C 324.105469 321.035156 324.378906 321.933594 324.378906 323.050781 C 324.378906 324.167969 324.105469 325.078125 323.570312 325.753906 C 323.023438 326.433594 322.320312 326.769531 321.460938 326.769531 C 320.941406 326.769531 320.484375 326.667969 320.105469 326.472656 C 319.730469 326.277344 319.417969 325.964844 319.183594 325.535156 Z M 323.167969 323.050781 C 323.167969 322.191406 322.984375 321.527344 322.632812 321.035156 C 322.269531 320.539062 321.785156 320.292969 321.175781 320.292969 C 320.550781 320.292969 320.066406 320.539062 319.714844 321.035156 C 319.351562 321.527344 319.183594 322.191406 319.183594 323.050781 C 319.183594 323.910156 319.351562 324.585938 319.714844 325.078125 C 320.066406 325.574219 320.550781 325.808594 321.175781 325.808594 C 321.785156 325.808594 322.269531 325.574219 322.632812 325.078125 C 322.984375 324.585938 323.167969 323.910156 323.167969 323.050781 Z M 323.167969 323.050781 "/>
<path style=" stroke:none;fill-rule:nonzero;fill:rgb(0%,0%,0%);fill-opacity:1;" d="M 332.410156 322.75 L 332.410156 323.324219 L 327.035156 323.324219 C 327.085938 324.128906 327.320312 324.753906 327.761719 325.171875 C 328.191406 325.585938 328.792969 325.792969 329.574219 325.792969 C 330.015625 325.792969 330.457031 325.742188 330.875 325.636719 C 331.292969 325.535156 331.722656 325.367188 332.136719 325.132812 L 332.136719 326.238281 C 331.722656 326.417969 331.292969 326.5625 330.847656 326.640625 C 330.40625 326.71875 329.949219 326.769531 329.507812 326.769531 C 328.363281 326.769531 327.464844 326.445312 326.800781 325.792969 C 326.136719 325.144531 325.808594 324.246094 325.808594 323.117188 C 325.808594 321.957031 326.121094 321.035156 326.746094 320.34375 C 327.371094 319.667969 328.230469 319.316406 329.300781 319.316406 C 330.261719 319.316406 331.019531 319.628906 331.578125 320.242188 C 332.125 320.867188 332.410156 321.699219 332.410156 322.75 Z M 331.238281 322.414062 C 331.226562 321.777344 331.042969 321.269531 330.707031 320.878906 C 330.355469 320.5 329.886719 320.304688 329.3125 320.304688 C 328.660156 320.304688 328.140625 320.5 327.75 320.867188 C 327.359375 321.230469 327.125 321.75 327.074219 322.414062 Z M 331.238281 322.414062 "/>
<path style=" stroke:none;fill-rule:nonzero;fill:rgb(0%,0%,0%);fill-opacity:1;" d="M 340.417969 322.75 L 340.417969 323.324219 L 335.042969 323.324219 C 335.09375 324.128906 335.328125 324.753906 335.769531 325.171875 C 336.199219 325.585938 336.800781 325.792969 337.582031 325.792969 C 338.023438 325.792969 338.464844 325.742188 338.882812 325.636719 C 339.300781 325.535156 339.730469 325.367188 340.144531 325.132812 L 340.144531 326.238281 C 339.730469 326.417969 339.300781 326.5625 338.855469 326.640625 C 338.414062 326.71875 337.957031 326.769531 337.515625 326.769531 C 336.371094 326.769531 335.472656 326.445312 334.808594 325.792969 C 334.144531 325.144531 333.816406 324.246094 333.816406 323.117188 C 333.816406 321.957031 334.128906 321.035156 334.753906 320.34375 C 335.378906 319.667969 336.238281 319.316406 337.308594 319.316406 C 338.269531 319.316406 339.027344 319.628906 339.585938 320.242188 C 340.132812 320.867188 340.417969 321.699219 340.417969 322.75 Z M 339.246094 322.414062 C 339.234375 321.777344 339.050781 321.269531 338.714844 320.878906 C 338.363281 320.5 337.894531 320.304688 337.320312 320.304688 C 336.667969 320.304688 336.148438 320.5 335.757812 320.867188 C 335.367188 321.230469 335.132812 321.75 335.082031 322.414062 Z M 339.246094 322.414062 "/>
<path style=" stroke:none;fill-rule:nonzero;fill:rgb(0%,0%,0%);fill-opacity:1;" d="M 347.019531 320.566406 L 347.019531 316.71875 L 348.191406 316.71875 L 348.191406 326.601562 L 347.019531 326.601562 L 347.019531 325.535156 C 346.773438 325.964844 346.460938 326.277344 346.082031 326.472656 C 345.707031 326.667969 345.261719 326.769531 344.742188 326.769531 C 343.882812 326.769531 343.179688 326.433594 342.632812 325.753906 C 342.085938 325.078125 341.824219 324.167969 341.824219 323.050781 C 341.824219 321.933594 342.085938 321.035156 342.632812 320.34375 C 343.179688 319.667969 343.882812 319.316406 344.742188 319.316406 C 345.261719 319.316406 345.707031 319.421875 346.082031 319.628906 C 346.460938 319.839844 346.773438 320.152344 347.019531 320.566406 Z M 343.035156 323.050781 C 343.035156 323.910156 343.207031 324.585938 343.558594 325.078125 C 343.910156 325.574219 344.390625 325.808594 345.015625 325.808594 C 345.640625 325.808594 346.121094 325.574219 346.488281 325.078125 C 346.839844 324.585938 347.019531 323.910156 347.019531 323.050781 C 347.019531 322.191406 346.839844 321.527344 346.488281 321.035156 C 346.121094 320.539062 345.640625 320.292969 345.015625 320.292969 C 344.390625 320.292969 343.910156 320.539062 343.558594 321.035156 C 343.207031 321.527344 343.035156 322.191406 343.035156 323.050781 Z M 343.035156 323.050781 "/>
<path style=" stroke:none;fill-rule:nonzero;fill:rgb(0%,0%,0%);fill-opacity:1;" d="M 357.554688 316.730469 C 356.980469 317.71875 356.566406 318.679688 356.292969 319.628906 C 356.003906 320.578125 355.875 321.542969 355.875 322.515625 C 355.875 323.503906 356.003906 324.46875 356.292969 325.417969 C 356.566406 326.378906 356.980469 327.328125 357.554688 328.304688 L 356.539062 328.304688 C 355.902344 327.304688 355.417969 326.339844 355.105469 325.378906 C 354.792969 324.417969 354.636719 323.46875 354.636719 322.515625 C 354.636719 321.582031 354.792969 320.632812 355.105469 319.667969 C 355.417969 318.707031 355.886719 317.730469 356.539062 316.730469 Z M 357.554688 316.730469 "/>
<path style=" stroke:none;fill-rule:nonzero;fill:rgb(0%,0%,0%);fill-opacity:1;" d="M 363.726562 317.992188 C 362.789062 317.992188 362.046875 318.34375 361.5 319.03125 C 360.953125 319.734375 360.679688 320.671875 360.679688 321.867188 C 360.679688 323.0625 360.953125 324.011719 361.5 324.703125 C 362.046875 325.40625 362.789062 325.742188 363.726562 325.742188 C 364.652344 325.742188 365.394531 325.40625 365.941406 324.703125 C 366.488281 324.011719 366.761719 323.0625 366.761719 321.867188 C 366.761719 320.671875 366.488281 319.734375 365.941406 319.03125 C 365.394531 318.34375 364.652344 317.992188 363.726562 317.992188 Z M 363.726562 316.953125 C 365.054688 316.953125 366.109375 317.40625 366.917969 318.289062 C 367.710938 319.175781 368.113281 320.371094 368.113281 321.867188 C 368.113281 323.375 367.710938 324.558594 366.917969 325.445312 C 366.109375 326.328125 365.054688 326.769531 363.726562 326.769531 C 362.386719 326.769531 361.316406 326.328125 360.523438 325.445312 C 359.714844 324.558594 359.324219 323.375 359.324219 321.867188 C 359.324219 320.371094 359.714844 319.175781 360.523438 318.289062 C 361.316406 317.40625 362.386719 316.953125 363.726562 316.953125 Z M 363.726562 316.953125 "/>
<path style=" stroke:none;fill-rule:nonzero;fill:rgb(0%,0%,0%);fill-opacity:1;" d="M 375.808594 317.433594 L 375.808594 318.679688 C 375.316406 318.445312 374.859375 318.277344 374.429688 318.160156 C 373.988281 318.058594 373.570312 317.992188 373.179688 317.992188 C 372.476562 317.992188 371.929688 318.132812 371.550781 318.394531 C 371.175781 318.667969 370.992188 319.058594 370.992188 319.550781 C 370.992188 319.96875 371.109375 320.292969 371.371094 320.5 C 371.617188 320.722656 372.097656 320.890625 372.800781 321.023438 L 373.582031 321.179688 C 374.535156 321.359375 375.238281 321.683594 375.691406 322.140625 C 376.148438 322.609375 376.382812 323.21875 376.382812 323.988281 C 376.382812 324.910156 376.070312 325.601562 375.457031 326.066406 C 374.832031 326.535156 373.933594 326.769531 372.75 326.769531 C 372.292969 326.769531 371.8125 326.71875 371.304688 326.628906 C 370.796875 326.535156 370.277344 326.394531 369.742188 326.183594 L 369.742188 324.859375 C 370.261719 325.15625 370.769531 325.378906 371.265625 325.523438 C 371.761719 325.675781 372.253906 325.742188 372.75 325.742188 C 373.480469 325.742188 374.039062 325.601562 374.441406 325.3125 C 374.832031 325.027344 375.042969 324.625 375.042969 324.078125 C 375.042969 323.609375 374.898438 323.246094 374.613281 322.984375 C 374.324219 322.726562 373.855469 322.53125 373.207031 322.402344 L 372.425781 322.246094 C 371.460938 322.0625 370.769531 321.761719 370.339844 321.347656 C 369.910156 320.945312 369.703125 320.382812 369.703125 319.65625 C 369.703125 318.824219 369.988281 318.160156 370.589844 317.679688 C 371.175781 317.199219 371.996094 316.953125 373.035156 316.953125 C 373.480469 316.953125 373.921875 316.992188 374.390625 317.066406 C 374.847656 317.144531 375.316406 317.277344 375.808594 317.433594 Z M 375.808594 317.433594 "/>
<path style=" stroke:none;fill-rule:nonzero;fill:rgb(0%,0%,0%);fill-opacity:1;" d="M 378.152344 316.730469 L 379.167969 316.730469 C 379.792969 317.730469 380.277344 318.707031 380.589844 319.667969 C 380.902344 320.632812 381.070312 321.582031 381.070312 322.515625 C 381.070312 323.46875 380.902344 324.417969 380.589844 325.378906 C 380.277344 326.339844 379.792969 327.304688 379.167969 328.304688 L 378.152344 328.304688 C 378.714844 327.328125 379.128906 326.378906 379.417969 325.417969 C 379.691406 324.46875 379.832031 323.503906 379.832031 322.515625 C 379.832031 321.542969 379.691406 320.578125 379.417969 319.628906 C 379.128906 318.679688 378.714844 317.71875 378.152344 316.730469 Z M 378.152344 316.730469 "/>
<path style="fill:none;stroke-width:2.5;stroke-linecap:butt;stroke-linejoin:round;stroke:rgb(100%,0%,0%);stroke-opacity:1;stroke-dasharray:9.25,4;stroke-miterlimit:4;" d="M 169.371 252.404945 L 189.372 252.404945 " transform="matrix(1.302083,0,0,1.300505,0,12.875)"/>
<path style=" stroke:none;fill-rule:nonzero;fill:rgb(0%,0%,0%);fill-opacity:1;" d="M 259.558594 337.253906 L 259.558594 344.628906 L 261.109375 344.628906 C 262.410156 344.628906 263.375 344.34375 263.988281 343.746094 C 264.585938 343.144531 264.898438 342.210938 264.898438 340.933594 C 264.898438 339.660156 264.585938 338.738281 263.988281 338.140625 C 263.375 337.554688 262.410156 337.253906 261.109375 337.253906 Z M 258.269531 336.203125 L 260.914062 336.203125 C 262.75 336.203125 264.105469 336.589844 264.964844 337.347656 C 265.824219 338.113281 266.253906 339.308594 266.253906 340.933594 C 266.253906 342.574219 265.808594 343.769531 264.949219 344.539062 C 264.089844 345.304688 262.738281 345.683594 260.914062 345.683594 L 258.269531 345.683594 Z M 258.269531 336.203125 "/>
<path style=" stroke:none;fill-rule:nonzero;fill:rgb(0%,0%,0%);fill-opacity:1;" d="M 274.339844 341.832031 L 274.339844 342.40625 L 268.960938 342.40625 C 269.011719 343.210938 269.246094 343.835938 269.691406 344.25 C 270.121094 344.667969 270.71875 344.875 271.5 344.875 C 271.941406 344.875 272.386719 344.824219 272.800781 344.71875 C 273.21875 344.617188 273.648438 344.445312 274.066406 344.210938 L 274.066406 345.316406 C 273.648438 345.5 273.21875 345.644531 272.777344 345.722656 C 272.332031 345.800781 271.878906 345.851562 271.433594 345.851562 C 270.289062 345.851562 269.390625 345.527344 268.726562 344.875 C 268.0625 344.226562 267.738281 343.328125 267.738281 342.195312 C 267.738281 341.039062 268.050781 340.117188 268.675781 339.425781 C 269.300781 338.75 270.160156 338.398438 271.226562 338.398438 C 272.191406 338.398438 272.945312 338.710938 273.503906 339.324219 C 274.050781 339.945312 274.339844 340.777344 274.339844 341.832031 Z M 273.167969 341.496094 C 273.152344 340.855469 272.972656 340.351562 272.632812 339.960938 C 272.28125 339.582031 271.8125 339.386719 271.238281 339.386719 C 270.589844 339.386719 270.066406 339.582031 269.675781 339.945312 C 269.285156 340.3125 269.050781 340.832031 269 341.496094 Z M 273.167969 341.496094 "/>
<path style=" stroke:none;fill-rule:nonzero;fill:rgb(0%,0%,0%);fill-opacity:1;" d="M 280.796875 338.777344 L 280.796875 339.882812 C 280.457031 339.726562 280.121094 339.59375 279.769531 339.503906 C 279.402344 339.425781 279.039062 339.375 278.660156 339.375 C 278.074219 339.375 277.632812 339.464844 277.347656 339.648438 C 277.058594 339.828125 276.917969 340.089844 276.917969 340.441406 C 276.917969 340.714844 277.019531 340.921875 277.230469 341.078125 C 277.4375 341.234375 277.855469 341.390625 278.480469 341.519531 L 278.882812 341.613281 C 279.714844 341.792969 280.300781 342.054688 280.652344 342.367188 C 280.992188 342.691406 281.175781 343.144531 281.175781 343.71875 C 281.175781 344.382812 280.914062 344.902344 280.394531 345.277344 C 279.871094 345.667969 279.144531 345.851562 278.230469 345.851562 C 277.839844 345.851562 277.449219 345.8125 277.035156 345.746094 C 276.617188 345.683594 276.1875 345.578125 275.730469 345.421875 L 275.730469 344.210938 C 276.160156 344.445312 276.589844 344.617188 277.007812 344.71875 C 277.425781 344.835938 277.839844 344.890625 278.257812 344.890625 C 278.804688 344.890625 279.234375 344.796875 279.535156 344.617188 C 279.820312 344.433594 279.976562 344.160156 279.976562 343.808594 C 279.976562 343.496094 279.859375 343.25 279.652344 343.082031 C 279.441406 342.910156 278.972656 342.742188 278.246094 342.585938 L 277.839844 342.496094 C 277.113281 342.339844 276.578125 342.105469 276.265625 341.792969 C 275.941406 341.480469 275.785156 341.050781 275.785156 340.492188 C 275.785156 339.828125 276.019531 339.308594 276.488281 338.945312 C 276.957031 338.582031 277.632812 338.398438 278.519531 338.398438 C 278.949219 338.398438 279.351562 338.4375 279.742188 338.503906 C 280.121094 338.566406 280.472656 338.660156 280.796875 338.777344 Z M 280.796875 338.777344 "/>
<path style=" stroke:none;fill-rule:nonzero;fill:rgb(0%,0%,0%);fill-opacity:1;" d="M 283.035156 338.566406 L 284.207031 338.566406 L 284.207031 345.683594 L 283.035156 345.683594 Z M 283.035156 335.796875 L 284.207031 335.796875 L 284.207031 337.28125 L 283.035156 337.28125 Z M 283.035156 335.796875 "/>
<path style=" stroke:none;fill-rule:nonzero;fill:rgb(0%,0%,0%);fill-opacity:1;" d="M 290.785156 339.660156 C 290.652344 339.582031 290.511719 339.53125 290.355469 339.492188 C 290.199219 339.464844 290.027344 339.441406 289.847656 339.441406 C 289.183594 339.441406 288.675781 339.660156 288.324219 340.089844 C 287.957031 340.519531 287.789062 341.128906 287.789062 341.9375 L 287.789062 345.683594 L 286.617188 345.683594 L 286.617188 338.566406 L 287.789062 338.566406 L 287.789062 339.671875 C 288.023438 339.246094 288.347656 338.917969 288.738281 338.710938 C 289.128906 338.503906 289.613281 338.398438 290.183594 338.398438 C 290.261719 338.398438 290.355469 338.414062 290.457031 338.414062 C 290.550781 338.425781 290.652344 338.4375 290.785156 338.464844 Z M 290.785156 339.660156 "/>
<path style=" stroke:none;fill-rule:nonzero;fill:rgb(0%,0%,0%);fill-opacity:1;" d="M 297.816406 341.832031 L 297.816406 342.40625 L 292.441406 342.40625 C 292.492188 343.210938 292.726562 343.835938 293.167969 344.25 C 293.597656 344.667969 294.199219 344.875 294.980469 344.875 C 295.421875 344.875 295.863281 344.824219 296.28125 344.71875 C 296.699219 344.617188 297.128906 344.445312 297.542969 344.210938 L 297.542969 345.316406 C 297.128906 345.5 296.699219 345.644531 296.253906 345.722656 C 295.8125 345.800781 295.355469 345.851562 294.914062 345.851562 C 293.769531 345.851562 292.871094 345.527344 292.207031 344.875 C 291.542969 344.226562 291.214844 343.328125 291.214844 342.195312 C 291.214844 341.039062 291.527344 340.117188 292.152344 339.425781 C 292.777344 338.75 293.636719 338.398438 294.707031 338.398438 C 295.667969 338.398438 296.425781 338.710938 296.984375 339.324219 C 297.53125 339.945312 297.816406 340.777344 297.816406 341.832031 Z M 296.644531 341.496094 C 296.632812 340.855469 296.449219 340.351562 296.113281 339.960938 C 295.761719 339.582031 295.292969 339.386719 294.71875 339.386719 C 294.066406 339.386719 293.546875 339.582031 293.15625 339.945312 C 292.765625 340.3125 292.53125 340.832031 292.480469 341.496094 Z M 296.644531 341.496094 "/>
<path style=" stroke:none;fill-rule:nonzero;fill:rgb(0%,0%,0%);fill-opacity:1;" d="M 304.417969 339.648438 L 304.417969 335.796875 L 305.589844 335.796875 L 305.589844 345.683594 L 304.417969 345.683594 L 304.417969 344.617188 C 304.171875 345.042969 303.859375 345.355469 303.480469 345.550781 C 303.105469 345.746094 302.660156 345.851562 302.140625 345.851562 C 301.28125 345.851562 300.578125 345.511719 300.03125 344.835938 C 299.484375 344.160156 299.222656 343.25 299.222656 342.132812 C 299.222656 341.011719 299.484375 340.117188 300.03125 339.425781 C 300.578125 338.75 301.28125 338.398438 302.140625 338.398438 C 302.660156 338.398438 303.105469 338.503906 303.480469 338.710938 C 303.859375 338.917969 304.171875 339.230469 304.417969 339.648438 Z M 300.433594 342.132812 C 300.433594 342.988281 300.605469 343.667969 300.957031 344.160156 C 301.308594 344.65625 301.789062 344.890625 302.414062 344.890625 C 303.039062 344.890625 303.519531 344.65625 303.886719 344.160156 C 304.238281 343.667969 304.417969 342.988281 304.417969 342.132812 C 304.417969 341.273438 304.238281 340.609375 303.886719 340.117188 C 303.519531 339.621094 303.039062 339.375 302.414062 339.375 C 301.789062 339.375 301.308594 339.621094 300.957031 340.117188 C 300.605469 340.609375 300.433594 341.273438 300.433594 342.132812 Z M 300.433594 342.132812 "/>
<path style=" stroke:none;fill-rule:nonzero;fill:rgb(0%,0%,0%);fill-opacity:1;" d="M 316.683594 338.777344 L 316.683594 339.882812 C 316.34375 339.726562 316.007812 339.59375 315.65625 339.503906 C 315.289062 339.425781 314.925781 339.375 314.546875 339.375 C 313.960938 339.375 313.519531 339.464844 313.234375 339.648438 C 312.945312 339.828125 312.804688 340.089844 312.804688 340.441406 C 312.804688 340.714844 312.90625 340.921875 313.117188 341.078125 C 313.324219 341.234375 313.742188 341.390625 314.367188 341.519531 L 314.769531 341.613281 C 315.601562 341.792969 316.1875 342.054688 316.539062 342.367188 C 316.878906 342.691406 317.0625 343.144531 317.0625 343.71875 C 317.0625 344.382812 316.800781 344.902344 316.28125 345.277344 C 315.757812 345.667969 315.03125 345.851562 314.117188 345.851562 C 313.726562 345.851562 313.335938 345.8125 312.921875 345.746094 C 312.503906 345.683594 312.074219 345.578125 311.617188 345.421875 L 311.617188 344.210938 C 312.046875 344.445312 312.476562 344.617188 312.894531 344.71875 C 313.3125 344.835938 313.726562 344.890625 314.144531 344.890625 C 314.691406 344.890625 315.121094 344.796875 315.421875 344.617188 C 315.707031 344.433594 315.863281 344.160156 315.863281 343.808594 C 315.863281 343.496094 315.746094 343.25 315.539062 343.082031 C 315.328125 342.910156 314.859375 342.742188 314.132812 342.585938 L 313.726562 342.496094 C 313 342.339844 312.464844 342.105469 312.152344 341.792969 C 311.828125 341.480469 311.671875 341.050781 311.671875 340.492188 C 311.671875 339.828125 311.90625 339.308594 312.375 338.945312 C 312.84375 338.582031 313.519531 338.398438 314.40625 338.398438 C 314.835938 338.398438 315.238281 338.4375 315.628906 338.503906 C 316.007812 338.566406 316.359375 338.660156 316.683594 338.777344 Z M 316.683594 338.777344 "/>
<path style=" stroke:none;fill-rule:nonzero;fill:rgb(0%,0%,0%);fill-opacity:1;" d="M 320.058594 344.617188 L 320.058594 348.375 L 318.886719 348.375 L 318.886719 338.566406 L 320.058594 338.566406 L 320.058594 339.648438 C 320.292969 339.230469 320.605469 338.917969 320.980469 338.710938 C 321.359375 338.503906 321.816406 338.398438 322.335938 338.398438 C 323.195312 338.398438 323.898438 338.75 324.445312 339.425781 C 324.980469 340.117188 325.253906 341.011719 325.253906 342.132812 C 325.253906 343.25 324.980469 344.160156 324.445312 344.835938 C 323.898438 345.511719 323.195312 345.851562 322.335938 345.851562 C 321.816406 345.851562 321.359375 345.746094 320.980469 345.550781 C 320.605469 345.355469 320.292969 345.042969 320.058594 344.617188 Z M 324.042969 342.132812 C 324.042969 341.273438 323.859375 340.609375 323.507812 340.117188 C 323.144531 339.621094 322.660156 339.375 322.050781 339.375 C 321.425781 339.375 320.941406 339.621094 320.589844 340.117188 C 320.226562 340.609375 320.058594 341.273438 320.058594 342.132812 C 320.058594 342.988281 320.226562 343.667969 320.589844 344.160156 C 320.941406 344.65625 321.425781 344.890625 322.050781 344.890625 C 322.660156 344.890625 323.144531 344.65625 323.507812 344.160156 C 323.859375 343.667969 324.042969 342.988281 324.042969 342.132812 Z M 324.042969 342.132812 "/>
<path style=" stroke:none;fill-rule:nonzero;fill:rgb(0%,0%,0%);fill-opacity:1;" d="M 333.285156 341.832031 L 333.285156 342.40625 L 327.910156 342.40625 C 327.960938 343.210938 328.195312 343.835938 328.636719 344.25 C 329.066406 344.667969 329.667969 344.875 330.449219 344.875 C 330.890625 344.875 331.332031 344.824219 331.75 344.71875 C 332.167969 344.617188 332.597656 344.445312 333.011719 344.210938 L 333.011719 345.316406 C 332.597656 345.5 332.167969 345.644531 331.722656 345.722656 C 331.28125 345.800781 330.824219 345.851562 330.382812 345.851562 C 329.238281 345.851562 328.339844 345.527344 327.675781 344.875 C 327.011719 344.226562 326.683594 343.328125 326.683594 342.195312 C 326.683594 341.039062 326.996094 340.117188 327.621094 339.425781 C 328.246094 338.75 329.105469 338.398438 330.175781 338.398438 C 331.136719 338.398438 331.894531 338.710938 332.453125 339.324219 C 333 339.945312 333.285156 340.777344 333.285156 341.832031 Z M 332.113281 341.496094 C 332.101562 340.855469 331.917969 340.351562 331.582031 339.960938 C 331.230469 339.582031 330.761719 339.386719 330.1875 339.386719 C 329.535156 339.386719 329.015625 339.582031 328.625 339.945312 C 328.234375 340.3125 328 340.832031 327.949219 341.496094 Z M 332.113281 341.496094 "/>
<path style=" stroke:none;fill-rule:nonzero;fill:rgb(0%,0%,0%);fill-opacity:1;" d="M 341.292969 341.832031 L 341.292969 342.40625 L 335.914062 342.40625 C 335.96875 343.210938 336.203125 343.835938 336.644531 344.25 C 337.074219 344.667969 337.671875 344.875 338.453125 344.875 C 338.898438 344.875 339.339844 344.824219 339.757812 344.71875 C 340.171875 344.617188 340.601562 344.445312 341.019531 344.210938 L 341.019531 345.316406 C 340.601562 345.5 340.171875 345.644531 339.730469 345.722656 C 339.289062 345.800781 338.832031 345.851562 338.390625 345.851562 C 337.242188 345.851562 336.34375 345.527344 335.679688 344.875 C 335.015625 344.226562 334.691406 343.328125 334.691406 342.195312 C 334.691406 341.039062 335.003906 340.117188 335.628906 339.425781 C 336.253906 338.75 337.113281 338.398438 338.179688 338.398438 C 339.144531 338.398438 339.898438 338.710938 340.460938 339.324219 C 341.007812 339.945312 341.292969 340.777344 341.292969 341.832031 Z M 340.121094 341.496094 C 340.109375 340.855469 339.925781 340.351562 339.585938 339.960938 C 339.234375 339.582031 338.765625 339.386719 338.195312 339.386719 C 337.542969 339.386719 337.023438 339.582031 336.632812 339.945312 C 336.242188 340.3125 336.007812 340.832031 335.953125 341.496094 Z M 340.121094 341.496094 "/>
<path style=" stroke:none;fill-rule:nonzero;fill:rgb(0%,0%,0%);fill-opacity:1;" d="M 347.894531 339.648438 L 347.894531 335.796875 L 349.066406 335.796875 L 349.066406 345.683594 L 347.894531 345.683594 L 347.894531 344.617188 C 347.648438 345.042969 347.335938 345.355469 346.957031 345.550781 C 346.578125 345.746094 346.136719 345.851562 345.617188 345.851562 C 344.757812 345.851562 344.054688 345.511719 343.507812 344.835938 C 342.960938 344.160156 342.699219 343.25 342.699219 342.132812 C 342.699219 341.011719 342.960938 340.117188 343.507812 339.425781 C 344.054688 338.75 344.757812 338.398438 345.617188 338.398438 C 346.136719 338.398438 346.578125 338.503906 346.957031 338.710938 C 347.335938 338.917969 347.648438 339.230469 347.894531 339.648438 Z M 343.910156 342.132812 C 343.910156 342.988281 344.078125 343.667969 344.429688 344.160156 C 344.78125 344.65625 345.265625 344.890625 345.890625 344.890625 C 346.515625 344.890625 346.996094 344.65625 347.359375 344.160156 C 347.710938 343.667969 347.894531 342.988281 347.894531 342.132812 C 347.894531 341.273438 347.710938 340.609375 347.359375 340.117188 C 346.996094 339.621094 346.515625 339.375 345.890625 339.375 C 345.265625 339.375 344.78125 339.621094 344.429688 340.117188 C 344.078125 340.609375 343.910156 341.273438 343.910156 342.132812 Z M 343.910156 342.132812 "/>
<path style=" stroke:none;fill-rule:nonzero;fill:rgb(0%,0%,0%);fill-opacity:1;" d="M 358.429688 335.8125 C 357.855469 336.800781 357.441406 337.761719 357.167969 338.710938 C 356.878906 339.660156 356.75 340.625 356.75 341.597656 C 356.75 342.585938 356.878906 343.550781 357.167969 344.5 C 357.441406 345.460938 357.855469 346.410156 358.429688 347.386719 L 357.414062 347.386719 C 356.777344 346.382812 356.292969 345.421875 355.980469 344.460938 C 355.667969 343.496094 355.511719 342.546875 355.511719 341.597656 C 355.511719 340.660156 355.667969 339.710938 355.980469 338.75 C 356.292969 337.789062 356.761719 336.8125 357.414062 335.8125 Z M 358.429688 335.8125 "/>
<path style=" stroke:none;fill-rule:nonzero;fill:rgb(0%,0%,0%);fill-opacity:1;" d="M 364.601562 337.074219 C 363.664062 337.074219 362.921875 337.425781 362.375 338.113281 C 361.828125 338.816406 361.554688 339.75 361.554688 340.949219 C 361.554688 342.144531 361.828125 343.09375 362.375 343.785156 C 362.921875 344.484375 363.664062 344.824219 364.601562 344.824219 C 365.527344 344.824219 366.269531 344.484375 366.816406 343.785156 C 367.363281 343.09375 367.636719 342.144531 367.636719 340.949219 C 367.636719 339.75 367.363281 338.816406 366.816406 338.113281 C 366.269531 337.425781 365.527344 337.074219 364.601562 337.074219 Z M 364.601562 336.03125 C 365.929688 336.03125 366.984375 336.488281 367.792969 337.371094 C 368.585938 338.257812 368.988281 339.453125 368.988281 340.949219 C 368.988281 342.457031 368.585938 343.640625 367.792969 344.523438 C 366.984375 345.410156 365.929688 345.851562 364.601562 345.851562 C 363.261719 345.851562 362.191406 345.410156 361.398438 344.523438 C 360.589844 343.640625 360.199219 342.457031 360.199219 340.949219 C 360.199219 339.453125 360.589844 338.257812 361.398438 337.371094 C 362.191406 336.488281 363.261719 336.03125 364.601562 336.03125 Z M 364.601562 336.03125 "/>
<path style=" stroke:none;fill-rule:nonzero;fill:rgb(0%,0%,0%);fill-opacity:1;" d="M 376.683594 336.511719 L 376.683594 337.761719 C 376.191406 337.527344 375.734375 337.359375 375.304688 337.242188 C 374.863281 337.136719 374.445312 337.074219 374.054688 337.074219 C 373.351562 337.074219 372.804688 337.214844 372.425781 337.476562 C 372.050781 337.75 371.867188 338.140625 371.867188 338.632812 C 371.867188 339.050781 371.984375 339.375 372.246094 339.582031 C 372.492188 339.804688 372.972656 339.972656 373.675781 340.101562 L 374.457031 340.257812 C 375.410156 340.441406 376.113281 340.765625 376.566406 341.222656 C 377.023438 341.691406 377.257812 342.300781 377.257812 343.066406 C 377.257812 343.992188 376.945312 344.679688 376.332031 345.148438 C 375.707031 345.617188 374.808594 345.851562 373.625 345.851562 C 373.167969 345.851562 372.6875 345.800781 372.179688 345.707031 C 371.671875 345.617188 371.152344 345.472656 370.617188 345.265625 L 370.617188 343.9375 C 371.136719 344.238281 371.644531 344.460938 372.140625 344.601562 C 372.636719 344.757812 373.128906 344.824219 373.625 344.824219 C 374.355469 344.824219 374.914062 344.679688 375.316406 344.394531 C 375.707031 344.109375 375.917969 343.707031 375.917969 343.160156 C 375.917969 342.691406 375.773438 342.328125 375.488281 342.066406 C 375.199219 341.804688 374.730469 341.613281 374.082031 341.480469 L 373.300781 341.324219 C 372.335938 341.144531 371.644531 340.84375 371.214844 340.429688 C 370.785156 340.023438 370.578125 339.464844 370.578125 338.738281 C 370.578125 337.90625 370.863281 337.242188 371.464844 336.761719 C 372.050781 336.28125 372.871094 336.03125 373.910156 336.03125 C 374.355469 336.03125 374.796875 336.070312 375.265625 336.148438 C 375.722656 336.226562 376.191406 336.359375 376.683594 336.511719 Z M 376.683594 336.511719 "/>
<path style=" stroke:none;fill-rule:nonzero;fill:rgb(0%,0%,0%);fill-opacity:1;" d="M 379.027344 335.8125 L 380.042969 335.8125 C 380.667969 336.8125 381.152344 337.789062 381.464844 338.75 C 381.777344 339.710938 381.945312 340.660156 381.945312 341.597656 C 381.945312 342.546875 381.777344 343.496094 381.464844 344.460938 C 381.152344 345.421875 380.667969 346.382812 380.042969 347.386719 L 379.027344 347.386719 C 379.589844 346.410156 380.003906 345.460938 380.292969 344.5 C 380.566406 343.550781 380.707031 342.585938 380.707031 341.597656 C 380.707031 340.625 380.566406 339.660156 380.292969 338.710938 C 380.003906 337.761719 379.589844 336.800781 379.027344 335.8125 Z M 379.027344 335.8125 "/>
</g>
</svg>
