<?xml version="1.0" encoding="UTF-8"?>
<svg xmlns="http://www.w3.org/2000/svg" xmlns:xlink="http://www.w3.org/1999/xlink" width="400px" height="px" viewBox="0 0 400 404" version="1.1">
<g id="surface1">
<rect x="0" y="0" width="400" height="404" style="fill:rgb(100%,100%,100%);fill-opacity:1;stroke:none;"/>
<path style=" stroke:none;fill-rule:nonzero;fill:rgb(100%,100%,100%);fill-opacity:1;" d="M 36.875 363.171875 L 398.933594 363.171875 L 398.933594 1.1875 L 36.875 1.1875 Z M 36.875 363.171875 "/>
<path style="fill:none;stroke-width:0.8;stroke-linecap:butt;stroke-linejoin:round;stroke:rgb(0%,0%,0%);stroke-opacity:1;stroke-miterlimit:4;" d="M 36.508828 266.985265 L 36.508828 270.482963 " transform="matrix(1.360544,0,0,1.360269,0,0)"/>
<path style=" stroke:none;fill-rule:nonzero;fill:rgb(0%,0%,0%);fill-opacity:1;" d="M 49.675781 373.988281 C 48.980469 373.988281 48.464844 374.328125 48.109375 375.011719 C 47.757812 375.691406 47.59375 376.710938 47.59375 378.070312 C 47.59375 379.429688 47.757812 380.449219 48.109375 381.132812 C 48.464844 381.8125 48.980469 382.152344 49.675781 382.152344 C 50.367188 382.152344 50.886719 381.8125 51.238281 381.132812 C 51.578125 380.449219 51.757812 379.429688 51.757812 378.070312 C 51.757812 376.710938 51.578125 375.691406 51.238281 375.011719 C 50.886719 374.328125 50.367188 373.988281 49.675781 373.988281 Z M 49.675781 372.929688 C 50.777344 372.929688 51.621094 373.378906 52.21875 374.25 C 52.804688 375.132812 53.101562 376.410156 53.101562 378.070312 C 53.101562 379.742188 52.804688 381.023438 52.21875 381.894531 C 51.621094 382.761719 50.777344 383.199219 49.660156 383.199219 C 48.546875 383.199219 47.703125 382.761719 47.117188 381.894531 C 46.53125 381.023438 46.246094 379.742188 46.246094 378.070312 C 46.246094 376.410156 46.53125 375.132812 47.117188 374.25 C 47.703125 373.378906 48.558594 372.929688 49.675781 372.929688 Z M 49.675781 372.929688 "/>
<path style="fill:none;stroke-width:0.8;stroke-linecap:butt;stroke-linejoin:round;stroke:rgb(0%,0%,0%);stroke-opacity:1;stroke-miterlimit:4;" d="M 81.783105 266.985265 L 81.783105 270.482963 " transform="matrix(1.360544,0,0,1.360269,0,0)"/>
<path style=" stroke:none;fill-rule:nonzero;fill:rgb(0%,0%,0%);fill-opacity:1;" d="M 108.414062 373.105469 L 113.679688 373.105469 L 113.679688 374.234375 L 109.636719 374.234375 L 109.636719 376.667969 C 109.828125 376.601562 110.03125 376.546875 110.222656 376.519531 C 110.414062 376.492188 110.617188 376.464844 110.808594 376.464844 C 111.910156 376.464844 112.78125 376.777344 113.433594 377.375 C 114.085938 377.988281 114.414062 378.804688 114.414062 379.839844 C 114.414062 380.914062 114.074219 381.742188 113.40625 382.328125 C 112.738281 382.914062 111.800781 383.199219 110.605469 383.199219 C 110.183594 383.199219 109.761719 383.15625 109.324219 383.105469 C 108.890625 383.035156 108.453125 382.941406 107.992188 382.789062 L 107.992188 381.445312 C 108.386719 381.660156 108.792969 381.824219 109.230469 381.933594 C 109.652344 382.042969 110.101562 382.082031 110.578125 382.082031 C 111.339844 382.082031 111.949219 381.894531 112.398438 381.484375 C 112.835938 381.078125 113.066406 380.53125 113.066406 379.839844 C 113.066406 379.160156 112.835938 378.613281 112.398438 378.207031 C 111.949219 377.796875 111.339844 377.59375 110.578125 377.59375 C 110.222656 377.59375 109.855469 377.636719 109.503906 377.71875 C 109.148438 377.796875 108.78125 377.921875 108.414062 378.085938 Z M 108.414062 373.105469 "/>
<path style="fill:none;stroke-width:0.8;stroke-linecap:butt;stroke-linejoin:round;stroke:rgb(0%,0%,0%);stroke-opacity:1;stroke-miterlimit:4;" d="M 127.057383 266.985265 L 127.057383 270.482963 " transform="matrix(1.360544,0,0,1.360269,0,0)"/>
<path style=" stroke:none;fill-rule:nonzero;fill:rgb(0%,0%,0%);fill-opacity:1;" d="M 165.902344 381.894531 L 168.089844 381.894531 L 168.089844 374.328125 L 165.710938 374.804688 L 165.710938 373.582031 L 168.078125 373.105469 L 169.425781 373.105469 L 169.425781 381.894531 L 171.613281 381.894531 L 171.613281 383.023438 L 165.902344 383.023438 Z M 165.902344 381.894531 "/>
<path style=" stroke:none;fill-rule:nonzero;fill:rgb(0%,0%,0%);fill-opacity:1;" d="M 177.191406 373.988281 C 176.5 373.988281 175.980469 374.328125 175.628906 375.011719 C 175.273438 375.691406 175.113281 376.710938 175.113281 378.070312 C 175.113281 379.429688 175.273438 380.449219 175.628906 381.132812 C 175.980469 381.8125 176.5 382.152344 177.191406 382.152344 C 177.886719 382.152344 178.402344 381.8125 178.757812 381.132812 C 179.097656 380.449219 179.273438 379.429688 179.273438 378.070312 C 179.273438 376.710938 179.097656 375.691406 178.757812 375.011719 C 178.402344 374.328125 177.886719 373.988281 177.191406 373.988281 Z M 177.191406 372.929688 C 178.296875 372.929688 179.140625 373.378906 179.738281 374.25 C 180.324219 375.132812 180.621094 376.410156 180.621094 378.070312 C 180.621094 379.742188 180.324219 381.023438 179.738281 381.894531 C 179.140625 382.761719 178.296875 383.199219 177.179688 383.199219 C 176.0625 383.199219 175.21875 382.761719 174.636719 381.894531 C 174.050781 381.023438 173.765625 379.742188 173.765625 378.070312 C 173.765625 376.410156 174.050781 375.132812 174.636719 374.25 C 175.21875 373.378906 176.078125 372.929688 177.191406 372.929688 Z M 177.191406 372.929688 "/>
<path style="fill:none;stroke-width:0.8;stroke-linecap:butt;stroke-linejoin:round;stroke:rgb(0%,0%,0%);stroke-opacity:1;stroke-miterlimit:4;" d="M 172.328789 266.985265 L 172.328789 270.482963 " transform="matrix(1.360544,0,0,1.360269,0,0)"/>
<path style=" stroke:none;fill-rule:nonzero;fill:rgb(0%,0%,0%);fill-opacity:1;" d="M 227.496094 381.894531 L 229.6875 381.894531 L 229.6875 374.328125 L 227.304688 374.804688 L 227.304688 373.582031 L 229.671875 373.105469 L 231.019531 373.105469 L 231.019531 381.894531 L 233.210938 381.894531 L 233.210938 383.023438 L 227.496094 383.023438 Z M 227.496094 381.894531 "/>
<path style=" stroke:none;fill-rule:nonzero;fill:rgb(0%,0%,0%);fill-opacity:1;" d="M 235.933594 373.105469 L 241.199219 373.105469 L 241.199219 374.234375 L 237.15625 374.234375 L 237.15625 376.667969 C 237.347656 376.601562 237.550781 376.546875 237.742188 376.519531 C 237.933594 376.492188 238.136719 376.464844 238.328125 376.464844 C 239.429688 376.464844 240.300781 376.777344 240.953125 377.375 C 241.605469 377.988281 241.933594 378.804688 241.933594 379.839844 C 241.933594 380.914062 241.59375 381.742188 240.925781 382.328125 C 240.257812 382.914062 239.320312 383.199219 238.121094 383.199219 C 237.699219 383.199219 237.277344 383.15625 236.84375 383.105469 C 236.40625 383.035156 235.972656 382.941406 235.511719 382.789062 L 235.511719 381.445312 C 235.90625 381.660156 236.3125 381.824219 236.75 381.933594 C 237.171875 382.042969 237.617188 382.082031 238.09375 382.082031 C 238.855469 382.082031 239.46875 381.894531 239.917969 381.484375 C 240.355469 381.078125 240.585938 380.53125 240.585938 379.839844 C 240.585938 379.160156 240.355469 378.613281 239.917969 378.207031 C 239.46875 377.796875 238.855469 377.59375 238.09375 377.59375 C 237.742188 377.59375 237.375 377.636719 237.019531 377.71875 C 236.667969 377.796875 236.300781 377.921875 235.933594 378.085938 Z M 235.933594 373.105469 "/>
<path style="fill:none;stroke-width:0.8;stroke-linecap:butt;stroke-linejoin:round;stroke:rgb(0%,0%,0%);stroke-opacity:1;stroke-miterlimit:4;" d="M 217.603066 266.985265 L 217.603066 270.482963 " transform="matrix(1.360544,0,0,1.360269,0,0)"/>
<path style=" stroke:none;fill-rule:nonzero;fill:rgb(0%,0%,0%);fill-opacity:1;" d="M 290.019531 381.894531 L 294.699219 381.894531 L 294.699219 383.023438 L 288.398438 383.023438 L 288.398438 381.894531 C 288.902344 381.375 289.597656 380.667969 290.480469 379.769531 C 291.351562 378.886719 291.910156 378.316406 292.140625 378.058594 C 292.574219 377.582031 292.875 377.171875 293.039062 376.832031 C 293.203125 376.507812 293.296875 376.167969 293.296875 375.839844 C 293.296875 375.324219 293.105469 374.886719 292.738281 374.5625 C 292.371094 374.234375 291.894531 374.058594 291.296875 374.058594 C 290.875 374.058594 290.425781 374.140625 289.964844 374.277344 C 289.5 374.425781 288.996094 374.644531 288.464844 374.941406 L 288.464844 373.582031 C 289.011719 373.363281 289.515625 373.199219 289.976562 373.09375 C 290.441406 372.984375 290.875 372.929688 291.269531 372.929688 C 292.289062 372.929688 293.105469 373.1875 293.71875 373.703125 C 294.332031 374.222656 294.644531 374.902344 294.644531 375.757812 C 294.644531 376.167969 294.5625 376.5625 294.414062 376.914062 C 294.261719 377.28125 293.992188 377.71875 293.582031 378.207031 C 293.472656 378.34375 293.121094 378.710938 292.519531 379.320312 C 291.921875 379.933594 291.09375 380.792969 290.019531 381.894531 Z M 290.019531 381.894531 "/>
<path style=" stroke:none;fill-rule:nonzero;fill:rgb(0%,0%,0%);fill-opacity:1;" d="M 300.386719 373.988281 C 299.691406 373.988281 299.175781 374.328125 298.820312 375.011719 C 298.464844 375.691406 298.304688 376.710938 298.304688 378.070312 C 298.304688 379.429688 298.464844 380.449219 298.820312 381.132812 C 299.175781 381.8125 299.691406 382.152344 300.386719 382.152344 C 301.078125 382.152344 301.597656 381.8125 301.949219 381.132812 C 302.289062 380.449219 302.464844 379.429688 302.464844 378.070312 C 302.464844 376.710938 302.289062 375.691406 301.949219 375.011719 C 301.597656 374.328125 301.078125 373.988281 300.386719 373.988281 Z M 300.386719 372.929688 C 301.488281 372.929688 302.332031 373.378906 302.929688 374.25 C 303.515625 375.132812 303.8125 376.410156 303.8125 378.070312 C 303.8125 379.742188 303.515625 381.023438 302.929688 381.894531 C 302.332031 382.761719 301.488281 383.199219 300.371094 383.199219 C 299.253906 383.199219 298.414062 382.761719 297.828125 381.894531 C 297.242188 381.023438 296.957031 379.742188 296.957031 378.070312 C 296.957031 376.410156 297.242188 375.132812 297.828125 374.25 C 298.414062 373.378906 299.269531 372.929688 300.386719 372.929688 Z M 300.386719 372.929688 "/>
<path style="fill:none;stroke-width:0.8;stroke-linecap:butt;stroke-linejoin:round;stroke:rgb(0%,0%,0%);stroke-opacity:1;stroke-miterlimit:4;" d="M 262.874473 266.985265 L 262.874473 270.482963 " transform="matrix(1.360544,0,0,1.360269,0,0)"/>
<path style=" stroke:none;fill-rule:nonzero;fill:rgb(0%,0%,0%);fill-opacity:1;" d="M 351.613281 381.894531 L 356.292969 381.894531 L 356.292969 383.023438 L 349.996094 383.023438 L 349.996094 381.894531 C 350.496094 381.375 351.191406 380.667969 352.078125 379.769531 C 352.945312 378.886719 353.503906 378.316406 353.734375 378.058594 C 354.171875 377.582031 354.472656 377.171875 354.632812 376.832031 C 354.796875 376.507812 354.890625 376.167969 354.890625 375.839844 C 354.890625 375.324219 354.703125 374.886719 354.335938 374.5625 C 353.96875 374.234375 353.492188 374.058594 352.890625 374.058594 C 352.472656 374.058594 352.023438 374.140625 351.558594 374.277344 C 351.097656 374.425781 350.59375 374.644531 350.0625 374.941406 L 350.0625 373.582031 C 350.605469 373.363281 351.109375 373.199219 351.574219 373.09375 C 352.035156 372.984375 352.472656 372.929688 352.867188 372.929688 C 353.886719 372.929688 354.703125 373.1875 355.3125 373.703125 C 355.925781 374.222656 356.238281 374.902344 356.238281 375.757812 C 356.238281 376.167969 356.15625 376.5625 356.007812 376.914062 C 355.859375 377.28125 355.585938 377.71875 355.179688 378.207031 C 355.070312 378.34375 354.714844 378.710938 354.117188 379.320312 C 353.519531 379.933594 352.6875 380.792969 351.613281 381.894531 Z M 351.613281 381.894531 "/>
<path style=" stroke:none;fill-rule:nonzero;fill:rgb(0%,0%,0%);fill-opacity:1;" d="M 359.125 373.105469 L 364.390625 373.105469 L 364.390625 374.234375 L 360.347656 374.234375 L 360.347656 376.667969 C 360.539062 376.601562 360.742188 376.546875 360.933594 376.519531 C 361.125 376.492188 361.328125 376.464844 361.519531 376.464844 C 362.621094 376.464844 363.492188 376.777344 364.144531 377.375 C 364.796875 377.988281 365.125 378.804688 365.125 379.839844 C 365.125 380.914062 364.785156 381.742188 364.117188 382.328125 C 363.449219 382.914062 362.511719 383.199219 361.3125 383.199219 C 360.890625 383.199219 360.472656 383.15625 360.035156 383.105469 C 359.601562 383.035156 359.164062 382.941406 358.703125 382.789062 L 358.703125 381.445312 C 359.097656 381.660156 359.503906 381.824219 359.941406 381.933594 C 360.363281 382.042969 360.8125 382.082031 361.285156 382.082031 C 362.050781 382.082031 362.660156 381.894531 363.109375 381.484375 C 363.546875 381.078125 363.777344 380.53125 363.777344 379.839844 C 363.777344 379.160156 363.546875 378.613281 363.109375 378.207031 C 362.660156 377.796875 362.050781 377.59375 361.285156 377.59375 C 360.933594 377.59375 360.566406 377.636719 360.210938 377.71875 C 359.859375 377.796875 359.492188 377.921875 359.125 378.085938 Z M 359.125 373.105469 "/>
<path style=" stroke:none;fill-rule:nonzero;fill:rgb(0%,0%,0%);fill-opacity:1;" d="M 190.144531 391.703125 L 198.527344 391.703125 L 198.527344 392.832031 L 195.003906 392.832031 L 195.003906 401.621094 L 193.65625 401.621094 L 193.65625 392.832031 L 190.144531 392.832031 Z M 190.144531 391.703125 "/>
<path style=" stroke:none;fill-rule:nonzero;fill:rgb(0%,0%,0%);fill-opacity:1;" d="M 199.359375 394.179688 L 200.585938 394.179688 L 200.585938 401.621094 L 199.359375 401.621094 Z M 199.359375 391.28125 L 200.585938 391.28125 L 200.585938 392.832031 L 199.359375 392.832031 Z M 199.359375 391.28125 "/>
<path style=" stroke:none;fill-rule:nonzero;fill:rgb(0%,0%,0%);fill-opacity:1;" d="M 208.9375 395.605469 C 209.238281 395.0625 209.605469 394.667969 210.027344 394.398438 C 210.449219 394.136719 210.953125 394.003906 211.539062 394.003906 C 212.300781 394.003906 212.898438 394.273438 213.320312 394.816406 C 213.742188 395.363281 213.960938 396.136719 213.960938 397.128906 L 213.960938 401.621094 L 212.734375 401.621094 L 212.734375 397.171875 C 212.734375 396.464844 212.597656 395.933594 212.355469 395.578125 C 212.09375 395.238281 211.714844 395.0625 211.199219 395.0625 C 210.558594 395.0625 210.054688 395.28125 209.6875 395.703125 C 209.320312 396.125 209.144531 396.695312 209.144531 397.417969 L 209.144531 401.621094 L 207.917969 401.621094 L 207.917969 397.171875 C 207.917969 396.464844 207.78125 395.933594 207.539062 395.578125 C 207.277344 395.238281 206.882812 395.0625 206.367188 395.0625 C 205.742188 395.0625 205.238281 395.28125 204.871094 395.703125 C 204.503906 396.125 204.328125 396.695312 204.328125 397.417969 L 204.328125 401.621094 L 203.101562 401.621094 L 203.101562 394.179688 L 204.328125 394.179688 L 204.328125 395.335938 C 204.597656 394.886719 204.9375 394.546875 205.332031 394.328125 C 205.714844 394.109375 206.175781 394.003906 206.722656 394.003906 C 207.265625 394.003906 207.714844 394.136719 208.09375 394.410156 C 208.476562 394.683594 208.75 395.089844 208.9375 395.605469 Z M 208.9375 395.605469 "/>
<path style=" stroke:none;fill-rule:nonzero;fill:rgb(0%,0%,0%);fill-opacity:1;" d="M 222.761719 397.59375 L 222.761719 398.191406 L 217.144531 398.191406 C 217.199219 399.035156 217.441406 399.6875 217.90625 400.125 C 218.355469 400.558594 218.980469 400.777344 219.796875 400.777344 C 220.257812 400.777344 220.722656 400.722656 221.15625 400.613281 C 221.59375 400.503906 222.039062 400.328125 222.476562 400.082031 L 222.476562 401.238281 C 222.039062 401.429688 221.59375 401.578125 221.128906 401.660156 C 220.667969 401.742188 220.191406 401.796875 219.726562 401.796875 C 218.53125 401.796875 217.59375 401.457031 216.898438 400.777344 C 216.203125 400.097656 215.863281 399.15625 215.863281 397.972656 C 215.863281 396.761719 216.191406 395.796875 216.84375 395.078125 C 217.496094 394.371094 218.394531 394.003906 219.511719 394.003906 C 220.515625 394.003906 221.304688 394.328125 221.890625 394.96875 C 222.460938 395.621094 222.761719 396.492188 222.761719 397.59375 Z M 221.539062 397.238281 C 221.523438 396.574219 221.332031 396.042969 220.980469 395.632812 C 220.613281 395.238281 220.121094 395.035156 219.523438 395.035156 C 218.84375 395.035156 218.300781 395.238281 217.890625 395.621094 C 217.484375 396 217.238281 396.546875 217.183594 397.238281 Z M 221.539062 397.238281 "/>
<path style=" stroke:none;fill-rule:nonzero;fill:rgb(0%,0%,0%);fill-opacity:1;" d="M 228.980469 391.28125 L 231.796875 391.28125 L 231.796875 392.234375 L 230.203125 392.234375 L 230.203125 402.449219 L 231.796875 402.449219 L 231.796875 403.402344 L 228.980469 403.402344 Z M 228.980469 391.28125 "/>
<path style=" stroke:none;fill-rule:nonzero;fill:rgb(0%,0%,0%);fill-opacity:1;" d="M 239.144531 394.398438 L 239.144531 395.550781 C 238.789062 395.390625 238.433594 395.253906 238.066406 395.160156 C 237.6875 395.078125 237.304688 395.023438 236.910156 395.023438 C 236.300781 395.023438 235.835938 395.117188 235.539062 395.308594 C 235.238281 395.5 235.089844 395.769531 235.089844 396.136719 C 235.089844 396.421875 235.199219 396.640625 235.414062 396.804688 C 235.632812 396.96875 236.066406 397.128906 236.722656 397.265625 L 237.144531 397.363281 C 238.011719 397.550781 238.625 397.824219 238.992188 398.152344 C 239.347656 398.492188 239.539062 398.96875 239.539062 399.566406 C 239.539062 400.257812 239.265625 400.804688 238.722656 401.199219 C 238.175781 401.605469 237.414062 401.796875 236.460938 401.796875 C 236.054688 401.796875 235.644531 401.753906 235.210938 401.6875 C 234.777344 401.621094 234.328125 401.511719 233.851562 401.347656 L 233.851562 400.082031 C 234.300781 400.328125 234.75 400.503906 235.183594 400.613281 C 235.617188 400.734375 236.054688 400.789062 236.488281 400.789062 C 237.0625 400.789062 237.511719 400.695312 237.824219 400.503906 C 238.121094 400.3125 238.285156 400.027344 238.285156 399.660156 C 238.285156 399.335938 238.164062 399.074219 237.945312 398.898438 C 237.726562 398.722656 237.238281 398.546875 236.476562 398.382812 L 236.054688 398.285156 C 235.292969 398.125 234.734375 397.878906 234.40625 397.550781 C 234.066406 397.226562 233.90625 396.777344 233.90625 396.191406 C 233.90625 395.5 234.148438 394.953125 234.640625 394.574219 C 235.128906 394.191406 235.835938 394.003906 236.761719 394.003906 C 237.210938 394.003906 237.632812 394.042969 238.039062 394.109375 C 238.433594 394.179688 238.800781 394.273438 239.144531 394.398438 Z M 239.144531 394.398438 "/>
<path style=" stroke:none;fill-rule:nonzero;fill:rgb(0%,0%,0%);fill-opacity:1;" d="M 244.339844 391.28125 L 244.339844 403.402344 L 241.523438 403.402344 L 241.523438 402.449219 L 243.117188 402.449219 L 243.117188 392.234375 L 241.523438 392.234375 L 241.523438 391.28125 Z M 244.339844 391.28125 "/>
<path style="fill:none;stroke-width:0.8;stroke-linecap:butt;stroke-linejoin:round;stroke:rgb(0%,0%,0%);stroke-opacity:1;stroke-miterlimit:4;" d="M 27.103125 234.607141 L 23.603262 234.607141 " transform="matrix(1.360544,0,0,1.360269,0,0)"/>
<path style=" stroke:none;fill-rule:nonzero;fill:rgb(0%,0%,0%);fill-opacity:1;" d="M 20.386719 323.164062 L 22.578125 323.164062 L 22.578125 315.601562 L 20.199219 316.078125 L 20.199219 314.851562 L 22.566406 314.375 L 23.910156 314.375 L 23.910156 323.164062 L 26.101562 323.164062 L 26.101562 324.292969 L 20.386719 324.292969 Z M 20.386719 323.164062 "/>
<path style="fill:none;stroke-width:0.8;stroke-linecap:butt;stroke-linejoin:round;stroke:rgb(0%,0%,0%);stroke-opacity:1;stroke-miterlimit:4;" d="M 27.103125 190.277112 L 23.603262 190.277112 " transform="matrix(1.360544,0,0,1.360269,0,0)"/>
<path style=" stroke:none;fill-rule:nonzero;fill:rgb(0%,0%,0%);fill-opacity:1;" d="M 21.3125 262.867188 L 25.992188 262.867188 L 25.992188 263.996094 L 19.695312 263.996094 L 19.695312 262.867188 C 20.199219 262.347656 20.890625 261.640625 21.777344 260.742188 C 22.644531 259.859375 23.203125 259.289062 23.433594 259.027344 C 23.871094 258.554688 24.171875 258.144531 24.332031 257.804688 C 24.496094 257.480469 24.59375 257.136719 24.59375 256.8125 C 24.59375 256.296875 24.402344 255.859375 24.035156 255.535156 C 23.667969 255.207031 23.191406 255.03125 22.59375 255.03125 C 22.171875 255.03125 21.722656 255.113281 21.257812 255.246094 C 20.796875 255.398438 20.292969 255.613281 19.761719 255.914062 L 19.761719 254.554688 C 20.304688 254.335938 20.808594 254.171875 21.273438 254.0625 C 21.734375 253.957031 22.171875 253.902344 22.566406 253.902344 C 23.585938 253.902344 24.402344 254.160156 25.011719 254.675781 C 25.625 255.191406 25.9375 255.875 25.9375 256.730469 C 25.9375 257.136719 25.855469 257.53125 25.707031 257.886719 C 25.558594 258.253906 25.285156 258.6875 24.878906 259.179688 C 24.769531 259.316406 24.414062 259.683594 23.816406 260.292969 C 23.21875 260.90625 22.386719 261.761719 21.3125 262.867188 Z M 21.3125 262.867188 "/>
<path style="fill:none;stroke-width:0.8;stroke-linecap:butt;stroke-linejoin:round;stroke:rgb(0%,0%,0%);stroke-opacity:1;stroke-miterlimit:4;" d="M 27.103125 145.949954 L 23.603262 145.949954 " transform="matrix(1.360544,0,0,1.360269,0,0)"/>
<path style=" stroke:none;fill-rule:nonzero;fill:rgb(0%,0%,0%);fill-opacity:1;" d="M 24.222656 198.351562 C 24.863281 198.488281 25.367188 198.773438 25.722656 199.207031 C 26.074219 199.644531 26.265625 200.1875 26.265625 200.8125 C 26.265625 201.792969 25.925781 202.554688 25.257812 203.085938 C 24.578125 203.617188 23.625 203.875 22.386719 203.875 C 21.964844 203.875 21.53125 203.832031 21.09375 203.753906 C 20.660156 203.683594 20.199219 203.5625 19.734375 203.398438 L 19.734375 202.105469 C 20.101562 202.324219 20.511719 202.488281 20.960938 202.597656 C 21.394531 202.703125 21.855469 202.757812 22.347656 202.757812 C 23.191406 202.757812 23.828125 202.597656 24.265625 202.269531 C 24.699219 201.941406 24.933594 201.453125 24.933594 200.8125 C 24.933594 200.242188 24.726562 199.78125 24.320312 199.453125 C 23.910156 199.128906 23.339844 198.949219 22.605469 198.949219 L 21.449219 198.949219 L 21.449219 197.847656 L 22.660156 197.847656 C 23.3125 197.847656 23.816406 197.726562 24.171875 197.453125 C 24.523438 197.195312 24.699219 196.816406 24.699219 196.3125 C 24.699219 195.808594 24.511719 195.414062 24.15625 195.140625 C 23.789062 194.871094 23.273438 194.734375 22.605469 194.734375 C 22.238281 194.734375 21.84375 194.773438 21.421875 194.855469 C 21 194.9375 20.539062 195.058594 20.035156 195.222656 L 20.035156 194.027344 C 20.539062 193.890625 21.011719 193.78125 21.460938 193.714844 C 21.898438 193.644531 22.320312 193.605469 22.726562 193.605469 C 23.734375 193.605469 24.539062 193.835938 25.136719 194.296875 C 25.734375 194.761719 26.035156 195.386719 26.035156 196.175781 C 26.035156 196.71875 25.871094 197.183594 25.558594 197.5625 C 25.246094 197.945312 24.796875 198.214844 24.222656 198.351562 Z M 24.222656 198.351562 "/>
<path style="fill:none;stroke-width:0.8;stroke-linecap:butt;stroke-linejoin:round;stroke:rgb(0%,0%,0%);stroke-opacity:1;stroke-miterlimit:4;" d="M 27.103125 101.622795 L 23.603262 101.622795 " transform="matrix(1.360544,0,0,1.360269,0,0)"/>
<path style=" stroke:none;fill-rule:nonzero;fill:rgb(0%,0%,0%);fill-opacity:1;" d="M 23.84375 134.652344 L 20.457031 139.945312 L 23.84375 139.945312 Z M 23.488281 133.484375 L 25.175781 133.484375 L 25.175781 139.945312 L 26.59375 139.945312 L 26.59375 141.058594 L 25.175781 141.058594 L 25.175781 143.398438 L 23.84375 143.398438 L 23.84375 141.058594 L 19.367188 141.058594 L 19.367188 139.769531 Z M 23.488281 133.484375 "/>
<path style="fill:none;stroke-width:0.8;stroke-linecap:butt;stroke-linejoin:round;stroke:rgb(0%,0%,0%);stroke-opacity:1;stroke-miterlimit:4;" d="M 27.103125 57.295637 L 23.603262 57.295637 " transform="matrix(1.360544,0,0,1.360269,0,0)"/>
<path style=" stroke:none;fill-rule:nonzero;fill:rgb(0%,0%,0%);fill-opacity:1;" d="M 20.171875 73.183594 L 25.433594 73.183594 L 25.433594 74.3125 L 21.394531 74.3125 L 21.394531 76.75 C 21.585938 76.679688 21.789062 76.625 21.980469 76.597656 C 22.171875 76.574219 22.375 76.546875 22.566406 76.546875 C 23.667969 76.546875 24.539062 76.859375 25.191406 77.457031 C 25.84375 78.070312 26.171875 78.882812 26.171875 79.917969 C 26.171875 80.992188 25.828125 81.824219 25.164062 82.40625 C 24.496094 82.992188 23.558594 83.277344 22.359375 83.277344 C 21.9375 83.277344 21.515625 83.238281 21.082031 83.183594 C 20.644531 83.113281 20.210938 83.019531 19.75 82.871094 L 19.75 81.523438 C 20.144531 81.742188 20.550781 81.90625 20.988281 82.011719 C 21.40625 82.121094 21.855469 82.164062 22.332031 82.164062 C 23.09375 82.164062 23.707031 81.972656 24.15625 81.566406 C 24.59375 81.15625 24.824219 80.613281 24.824219 79.917969 C 24.824219 79.238281 24.59375 78.695312 24.15625 78.285156 C 23.707031 77.878906 23.09375 77.675781 22.332031 77.675781 C 21.980469 77.675781 21.613281 77.714844 21.257812 77.796875 C 20.90625 77.878906 20.539062 78 20.171875 78.164062 Z M 20.171875 73.183594 "/>
<path style="fill:none;stroke-width:0.8;stroke-linecap:butt;stroke-linejoin:round;stroke:rgb(0%,0%,0%);stroke-opacity:1;stroke-miterlimit:4;" d="M 27.103125 12.968479 L 23.603262 12.968479 " transform="matrix(1.360544,0,0,1.360269,0,0)"/>
<path style=" stroke:none;fill-rule:nonzero;fill:rgb(0%,0%,0%);fill-opacity:1;" d="M 23.191406 17.308594 C 22.59375 17.308594 22.117188 17.527344 21.761719 17.933594 C 21.40625 18.34375 21.230469 18.914062 21.230469 19.621094 C 21.230469 20.34375 21.40625 20.914062 21.761719 21.320312 C 22.117188 21.730469 22.59375 21.933594 23.191406 21.933594 C 23.789062 21.933594 24.265625 21.730469 24.617188 21.320312 C 24.972656 20.914062 25.148438 20.34375 25.148438 19.621094 C 25.148438 18.914062 24.972656 18.34375 24.617188 17.933594 C 24.265625 17.527344 23.789062 17.308594 23.191406 17.308594 Z M 25.855469 13.105469 L 25.855469 14.332031 C 25.515625 14.167969 25.175781 14.042969 24.835938 13.964844 C 24.484375 13.882812 24.144531 13.839844 23.816406 13.839844 C 22.917969 13.839844 22.238281 14.140625 21.777344 14.738281 C 21.3125 15.335938 21.039062 16.25 20.988281 17.445312 C 21.246094 17.066406 21.570312 16.765625 21.964844 16.5625 C 22.359375 16.355469 22.796875 16.25 23.273438 16.25 C 24.265625 16.25 25.054688 16.5625 25.625 17.160156 C 26.199219 17.757812 26.496094 18.589844 26.496094 19.621094 C 26.496094 20.640625 26.183594 21.457031 25.585938 22.070312 C 24.988281 22.683594 24.183594 22.980469 23.191406 22.980469 C 22.046875 22.980469 21.164062 22.546875 20.566406 21.675781 C 19.953125 20.804688 19.652344 19.527344 19.652344 17.855469 C 19.652344 16.289062 20.019531 15.039062 20.769531 14.113281 C 21.503906 13.1875 22.511719 12.710938 23.761719 12.710938 C 24.089844 12.710938 24.429688 12.753906 24.78125 12.808594 C 25.121094 12.875 25.476562 12.96875 25.855469 13.105469 Z M 25.855469 13.105469 "/>
<path style=" stroke:none;fill-rule:nonzero;fill:rgb(0%,0%,0%);fill-opacity:1;" d="M 0.839844 216.175781 L 2.144531 216.175781 C 1.898438 216.695312 1.722656 217.167969 1.601562 217.617188 C 1.492188 218.082031 1.421875 218.515625 1.421875 218.925781 C 1.421875 219.660156 1.574219 220.230469 1.84375 220.625 C 2.128906 221.019531 2.539062 221.210938 3.054688 221.210938 C 3.492188 221.210938 3.832031 221.085938 4.050781 220.816406 C 4.28125 220.558594 4.457031 220.054688 4.59375 219.320312 L 4.757812 218.503906 C 4.945312 217.511719 5.285156 216.773438 5.761719 216.300781 C 6.253906 215.824219 6.890625 215.578125 7.695312 215.578125 C 8.660156 215.578125 9.382812 215.90625 9.871094 216.542969 C 10.363281 217.195312 10.605469 218.136719 10.605469 219.375 C 10.605469 219.847656 10.550781 220.351562 10.457031 220.882812 C 10.363281 221.414062 10.210938 221.957031 9.996094 222.515625 L 8.605469 222.515625 C 8.917969 221.972656 9.152344 221.441406 9.300781 220.925781 C 9.464844 220.40625 9.53125 219.890625 9.53125 219.375 C 9.53125 218.613281 9.382812 218.027344 9.082031 217.605469 C 8.785156 217.195312 8.363281 216.980469 7.789062 216.980469 C 7.300781 216.980469 6.917969 217.128906 6.648438 217.429688 C 6.375 217.726562 6.171875 218.21875 6.035156 218.898438 L 5.871094 219.714844 C 5.679688 220.71875 5.367188 221.441406 4.933594 221.890625 C 4.511719 222.339844 3.925781 222.554688 3.164062 222.554688 C 2.292969 222.554688 1.601562 222.257812 1.097656 221.632812 C 0.59375 221.019531 0.335938 220.164062 0.335938 219.074219 C 0.335938 218.613281 0.375 218.148438 0.457031 217.660156 C 0.539062 217.183594 0.675781 216.695312 0.839844 216.175781 Z M 0.839844 216.175781 "/>
<path style=" stroke:none;fill-rule:nonzero;fill:rgb(0%,0%,0%);fill-opacity:1;" d="M 9.3125 212.355469 L 13.246094 212.355469 L 13.246094 213.578125 L 2.988281 213.578125 L 2.988281 212.355469 L 4.117188 212.355469 C 3.679688 212.109375 3.355469 211.78125 3.136719 211.386719 C 2.917969 210.992188 2.8125 210.519531 2.8125 209.972656 C 2.8125 209.074219 3.179688 208.339844 3.886719 207.769531 C 4.605469 207.210938 5.546875 206.925781 6.714844 206.925781 C 7.886719 206.925781 8.839844 207.210938 9.546875 207.769531 C 10.253906 208.339844 10.605469 209.074219 10.605469 209.972656 C 10.605469 210.519531 10.496094 210.992188 10.292969 211.386719 C 10.089844 211.78125 9.761719 212.109375 9.3125 212.355469 Z M 6.714844 208.191406 C 5.816406 208.191406 5.125 208.382812 4.605469 208.75 C 4.089844 209.128906 3.832031 209.632812 3.832031 210.273438 C 3.832031 210.925781 4.089844 211.429688 4.605469 211.796875 C 5.125 212.175781 5.816406 212.355469 6.714844 212.355469 C 7.613281 212.355469 8.320312 212.175781 8.839844 211.796875 C 9.355469 211.429688 9.601562 210.925781 9.601562 210.273438 C 9.601562 209.632812 9.355469 209.128906 8.839844 208.75 C 8.320312 208.382812 7.613281 208.191406 6.714844 208.191406 Z M 6.714844 208.191406 "/>
<path style=" stroke:none;fill-rule:nonzero;fill:rgb(0%,0%,0%);fill-opacity:1;" d="M 6.402344 198.535156 L 7 198.535156 L 7 204.152344 C 7.84375 204.097656 8.496094 203.851562 8.933594 203.390625 C 9.367188 202.941406 9.585938 202.316406 9.585938 201.5 C 9.585938 201.035156 9.53125 200.574219 9.421875 200.140625 C 9.3125 199.703125 9.136719 199.253906 8.890625 198.820312 L 10.050781 198.820312 C 10.238281 199.253906 10.390625 199.703125 10.472656 200.167969 C 10.550781 200.628906 10.605469 201.105469 10.605469 201.566406 C 10.605469 202.765625 10.265625 203.703125 9.585938 204.398438 C 8.90625 205.089844 7.96875 205.429688 6.785156 205.429688 C 5.574219 205.429688 4.605469 205.105469 3.886719 204.453125 C 3.179688 203.796875 2.8125 202.902344 2.8125 201.785156 C 2.8125 200.777344 3.136719 199.988281 3.777344 199.40625 C 4.429688 198.832031 5.300781 198.535156 6.402344 198.535156 Z M 6.050781 199.757812 C 5.382812 199.773438 4.851562 199.960938 4.445312 200.316406 C 4.050781 200.683594 3.84375 201.171875 3.84375 201.769531 C 3.84375 202.453125 4.050781 202.996094 4.429688 203.402344 C 4.8125 203.8125 5.355469 204.058594 6.050781 204.109375 Z M 6.050781 199.757812 "/>
<path style=" stroke:none;fill-rule:nonzero;fill:rgb(0%,0%,0%);fill-opacity:1;" d="M 6.402344 190.167969 L 7 190.167969 L 7 195.785156 C 7.84375 195.730469 8.496094 195.488281 8.933594 195.023438 C 9.367188 194.574219 9.585938 193.949219 9.585938 193.132812 C 9.585938 192.671875 9.53125 192.207031 9.421875 191.773438 C 9.3125 191.339844 9.136719 190.890625 8.890625 190.453125 L 10.050781 190.453125 C 10.238281 190.890625 10.390625 191.339844 10.472656 191.800781 C 10.550781 192.261719 10.605469 192.738281 10.605469 193.203125 C 10.605469 194.398438 10.265625 195.335938 9.585938 196.03125 C 8.90625 196.726562 7.96875 197.066406 6.785156 197.066406 C 5.574219 197.066406 4.605469 196.738281 3.886719 196.085938 C 3.179688 195.433594 2.8125 194.535156 2.8125 193.417969 C 2.8125 192.414062 3.136719 191.625 3.777344 191.039062 C 4.429688 190.46875 5.300781 190.167969 6.402344 190.167969 Z M 6.050781 191.394531 C 5.382812 191.40625 4.851562 191.597656 4.445312 191.949219 C 4.050781 192.316406 3.84375 192.808594 3.84375 193.40625 C 3.84375 194.085938 4.050781 194.628906 4.429688 195.039062 C 4.8125 195.445312 5.355469 195.691406 6.050781 195.746094 Z M 6.050781 191.394531 "/>
<path style=" stroke:none;fill-rule:nonzero;fill:rgb(0%,0%,0%);fill-opacity:1;" d="M 4.117188 183.273438 L 0.0898438 183.273438 L 0.0898438 182.046875 L 10.429688 182.046875 L 10.429688 183.273438 L 9.3125 183.273438 C 9.761719 183.53125 10.089844 183.855469 10.292969 184.25 C 10.496094 184.644531 10.605469 185.109375 10.605469 185.652344 C 10.605469 186.550781 10.253906 187.285156 9.546875 187.855469 C 8.839844 188.425781 7.886719 188.699219 6.714844 188.699219 C 5.546875 188.699219 4.605469 188.425781 3.886719 187.855469 C 3.179688 187.285156 2.8125 186.550781 2.8125 185.652344 C 2.8125 185.109375 2.917969 184.644531 3.136719 184.25 C 3.355469 183.855469 3.679688 183.53125 4.117188 183.273438 Z M 6.714844 187.433594 C 7.613281 187.433594 8.320312 187.257812 8.839844 186.890625 C 9.355469 186.523438 9.601562 186.019531 9.601562 185.367188 C 9.601562 184.714844 9.355469 184.210938 8.839844 183.828125 C 8.320312 183.460938 7.613281 183.273438 6.714844 183.273438 C 5.816406 183.273438 5.125 183.460938 4.605469 183.828125 C 4.089844 184.210938 3.832031 184.714844 3.832031 185.367188 C 3.832031 186.019531 4.089844 186.523438 4.605469 186.890625 C 5.125 187.257812 5.816406 187.433594 6.714844 187.433594 Z M 6.714844 187.433594 "/>
<path style=" stroke:none;fill-rule:nonzero;fill:rgb(0%,0%,0%);fill-opacity:1;" d="M 0.0898438 175.3125 L 0.0898438 172.5 L 1.042969 172.5 L 1.042969 174.089844 L 11.261719 174.089844 L 11.261719 172.5 L 12.210938 172.5 L 12.210938 175.3125 Z M 0.0898438 175.3125 "/>
<path style=" stroke:none;fill-rule:nonzero;fill:rgb(0%,0%,0%);fill-opacity:1;" d="M 4.417969 164.105469 C 3.871094 163.804688 3.476562 163.4375 3.207031 163.015625 C 2.945312 162.597656 2.8125 162.09375 2.8125 161.507812 C 2.8125 160.746094 3.082031 160.148438 3.628906 159.726562 C 4.171875 159.304688 4.945312 159.085938 5.941406 159.085938 L 10.429688 159.085938 L 10.429688 160.308594 L 5.980469 160.308594 C 5.273438 160.308594 4.742188 160.445312 4.390625 160.691406 C 4.050781 160.949219 3.871094 161.332031 3.871094 161.847656 C 3.871094 162.488281 4.089844 162.988281 4.511719 163.359375 C 4.933594 163.726562 5.503906 163.902344 6.226562 163.902344 L 10.429688 163.902344 L 10.429688 165.125 L 5.980469 165.125 C 5.273438 165.125 4.742188 165.261719 4.390625 165.507812 C 4.050781 165.765625 3.871094 166.160156 3.871094 166.675781 C 3.871094 167.300781 4.089844 167.804688 4.511719 168.171875 C 4.933594 168.539062 5.503906 168.71875 6.226562 168.71875 L 10.429688 168.71875 L 10.429688 169.941406 L 2.988281 169.941406 L 2.988281 168.71875 L 4.144531 168.71875 C 3.695312 168.445312 3.355469 168.105469 3.136719 167.710938 C 2.917969 167.328125 2.8125 166.867188 2.8125 166.324219 C 2.8125 165.777344 2.945312 165.328125 3.21875 164.949219 C 3.492188 164.566406 3.898438 164.296875 4.417969 164.105469 Z M 4.417969 164.105469 "/>
<path style=" stroke:none;fill-rule:nonzero;fill:rgb(0%,0%,0%);fill-opacity:1;" d="M 0.511719 154.476562 L 0.511719 153.347656 L 11.679688 156.800781 L 11.679688 157.929688 Z M 0.511719 154.476562 "/>
<path style=" stroke:none;fill-rule:nonzero;fill:rgb(0%,0%,0%);fill-opacity:1;" d="M 18.011719 147.332031 L 16.855469 147.332031 C 17.019531 147.683594 17.15625 148.039062 17.25 148.40625 C 17.332031 148.785156 17.386719 149.167969 17.386719 149.5625 C 17.386719 150.171875 17.292969 150.636719 17.101562 150.933594 C 16.910156 151.234375 16.640625 151.382812 16.273438 151.382812 C 15.988281 151.382812 15.769531 151.277344 15.605469 151.058594 C 15.441406 150.839844 15.277344 150.40625 15.144531 149.753906 L 15.046875 149.332031 C 14.855469 148.460938 14.585938 147.847656 14.257812 147.480469 C 13.917969 147.125 13.441406 146.9375 12.84375 146.9375 C 12.148438 146.9375 11.605469 147.207031 11.210938 147.753906 C 10.800781 148.296875 10.613281 149.058594 10.613281 150.011719 C 10.613281 150.417969 10.652344 150.828125 10.722656 151.261719 C 10.789062 151.695312 10.898438 152.144531 11.0625 152.621094 L 12.328125 152.621094 C 12.082031 152.171875 11.90625 151.722656 11.796875 151.289062 C 11.671875 150.855469 11.617188 150.417969 11.617188 149.984375 C 11.617188 149.410156 11.714844 148.964844 11.90625 148.648438 C 12.09375 148.351562 12.382812 148.1875 12.75 148.1875 C 13.074219 148.1875 13.332031 148.308594 13.511719 148.527344 C 13.6875 148.746094 13.863281 149.234375 14.027344 149.996094 L 14.121094 150.417969 C 14.285156 151.179688 14.53125 151.738281 14.855469 152.066406 C 15.183594 152.40625 15.632812 152.566406 16.21875 152.566406 C 16.910156 152.566406 17.457031 152.324219 17.835938 151.832031 C 18.21875 151.34375 18.40625 150.636719 18.40625 149.710938 C 18.40625 149.261719 18.367188 148.839844 18.300781 148.433594 C 18.230469 148.039062 18.136719 147.671875 18.011719 147.332031 Z M 18.011719 147.332031 "/>
<path style=" stroke:none;fill-rule:nonzero;fill:rgb(0%,0%,0%);fill-opacity:1;" d="M 0.0898438 142.125 L 12.210938 142.125 L 12.210938 144.9375 L 11.261719 144.9375 L 11.261719 143.347656 L 1.042969 143.347656 L 1.042969 144.9375 L 0.0898438 144.9375 Z M 0.0898438 142.125 "/>
<path style="fill:none;stroke-width:2.5;stroke-linecap:square;stroke-linejoin:round;stroke:rgb(0%,50.196078%,50.196078%);stroke-opacity:1;stroke-miterlimit:4;" d="M 39.199043 254.886902 L 39.92543 243.42318 L 41.182969 224.823349 L 41.435625 222.511651 L 41.906484 215.665581 L 42.632871 207.334855 L 42.894141 205.465395 L 43.184121 201.755192 L 44.306719 191.988629 L 44.613926 189.05665 L 45.908789 181.064782 L 46.152832 180.154461 L 46.454297 178.35105 L 47.548184 174.066513 L 47.829551 173.492178 L 48.225762 171.723227 L 48.624844 170.657836 L 49.158867 169.107132 L 49.414395 168.584487 L 49.684277 167.573658 L 50.272852 166.172281 L 50.798262 164.670396 L 53.695195 157.517056 L 53.99666 157.132252 L 54.249316 156.440178 L 55.119258 154.820554 L 56.948145 152.511728 L 58.920586 150.892104 L 59.546484 150.573349 L 59.853691 150.337871 L 60.778184 149.815227 L 62.55252 148.790039 L 62.931504 148.60338 L 64.39002 147.842387 L 64.94127 147.606909 L 66.371074 147.087136 L 69.279492 146.59608 L 71.079668 146.326143 L 73.227246 145.889648 L 77.41043 145.499101 L 77.96168 145.516331 L 78.495703 145.547919 L 79.049824 145.530689 L 81.005039 145.430181 L 81.556289 145.34403 L 82.282676 145.312442 L 84.490547 145.191832 L 85.196836 145.226292 L 90.603105 145.22342 L 90.993574 145.30957 L 92.957402 145.226292 L 94.286719 145.3268 L 95.139434 145.3268 L 96.589336 145.30957 L 97.892813 145.36126 L 98.72543 145.30957 L 106.02375 145.530689 L 106.919531 145.496229 L 108.731191 145.513459 L 110.560078 145.613968 L 111.111328 145.748936 L 114.171914 145.648428 L 115.113633 145.648428 L 115.601719 145.613968 L 116.164453 145.682888 L 116.97123 145.6513 L 117.648809 145.731706 L 118.372324 145.731706 L 118.670918 145.748936 L 120.718008 145.682888 L 121.134316 145.700118 L 121.243418 145.645556 L 122.113359 145.883905 L 122.655996 145.866675 L 125.934785 145.734578 L 128.449863 145.952825 L 130.824258 145.852317 L 131.918145 145.783397 L 132.472266 145.786268 L 134.263828 145.817857 L 135.016055 146.053334 L 136.101328 145.952825 L 136.81623 145.952825 L 138.438398 145.987285 L 138.963809 146.119382 L 141.542051 146.056206 L 141.679863 145.984414 L 142.420605 146.087794 L 142.848398 146.153842 L 142.954629 146.087794 L 143.933672 146.188303 L 144.232266 146.087794 L 144.594023 146.053334 L 145.34625 146.018874 L 145.484062 145.918365 L 145.682168 146.018874 L 146.42291 145.987285 L 148.036465 145.883905 L 148.398223 145.918365 L 151.892344 145.883905 L 152.371816 145.886777 L 153.098203 145.852317 L 157.723535 145.786268 L 157.81541 144.873076 L 157.967578 145.243522 L 158.62793 145.582379 L 158.900684 145.748936 L 159.62707 146.122254 L 161.065488 146.323271 L 161.499023 146.222763 L 162.351738 146.288811 L 162.885762 146.188303 L 163.03793 146.288811 L 163.836094 146.191174 L 163.999746 145.160243 L 164.252402 144.769696 L 164.37873 144.307356 L 165.176895 142.934696 L 165.791309 141.653929 L 168.300645 135.534392 L 169.205039 134.37998 L 169.856777 134.084197 L 170.482676 134.566638 L 170.609004 134.710222 L 171.260742 136.783571 L 171.59666 137.736966 L 172.193848 139.198648 L 172.702031 141.137028 L 173.236055 143.201762 L 173.732754 144.407865 L 174.085898 145.24065 L 174.358652 145.619711 L 174.628535 146.435266 L 175.553027 147.980227 L 176.015273 148.296111 L 176.847891 149.347144 L 177.60873 149.594108 L 177.760898 149.642926 L 178.467187 156.589505 L 178.648066 156.534944 L 178.831816 156.285108 L 179.210801 155.357557 L 179.357227 155.31161 L 180.350625 154.412777 L 180.766934 153.241134 L 181.602422 151.095993 L 181.846465 151.012715 L 182.624531 149.071463 L 183.175781 154.312268 L 183.457148 154.004999 L 184.238086 152.37676 L 184.654395 156.081219 L 185.133867 155.288637 L 185.538691 158.987353 L 186.463184 165.905215 L 186.908203 164.607219 L 187.307285 162.912931 L 187.712109 161.17844 L 188.536113 157.189685 L 189.187852 162.091633 L 190.474102 153.025758 L 191.071289 157.040358 L 192.357539 147.003858 L 193.870605 131.456615 L 194.312754 125.670193 L 194.757773 122.023167 L 195.363574 124.599058 L 195.699492 126.930857 L 196.460332 119.43866 L 197.63748 108.712958 L 197.809746 109.146581 L 198.016465 109.135094 L 198.217441 107.969195 L 198.406934 105.307153 L 199.340039 98.446724 L 200.534414 86.695835 L 200.850234 87.939269 L 201.875215 76.234327 L 202.33459 72.794061 L 203.322246 62.15451 L 203.775879 58.80901 L 204.789375 49.412893 L 205.133906 46.877205 L 205.469824 42.184889 L 206.029687 37.343247 L 206.265117 34.867864 L 206.690039 41.58471 L 207.462363 55.816725 L 207.740859 57.979096 L 208.185879 64.684454 L 208.518926 69.264774 L 209.986055 84.83499 L 211.065586 95.250551 L 212.512617 110.562316 L 212.848535 112.411674 L 213.147129 115.650922 L 213.979746 122.364896 L 214.344375 124.659363 L 214.605645 125.687423 L 215.220059 129.710638 L 215.845957 132.51052 L 216.11584 134.43167 L 216.842227 138.288328 L 217.292988 140.361676 L 217.603066 142.480972 L 218.481621 148.158271 L 221.189063 164.647422 L 221.450332 165.488823 L 221.912578 167.80052 L 222.845684 170.669322 L 223.560586 172.248743 L 223.905117 172.797233 L 224.46498 173.380183 L 225.352148 173.82242 L 225.932109 173.810934 L 226.259414 173.742013 L 227.163809 173.164807 L 228.811816 170.574557 L 229.409004 169.273689 L 229.690371 168.237015 L 230.531602 165.798963 L 231.700137 159.992439 L 232.44375 156.64981 L 232.885898 155.056031 L 233.141426 153.459381 L 235.311973 145.29234 L 236.388633 141.205948 L 237.522715 137.533077 L 238.028027 135.609056 L 239.334375 131.20678 L 239.839687 129.190865 L 240.138281 128.66822 L 240.428262 127.711953 L 240.76418 126.887782 L 241.31543 125.914285 L 242.059043 124.917814 L 242.593066 124.449731 L 243.67834 124.079285 L 244.358789 123.975905 L 244.749258 124.07067 L 244.927266 124.039082 L 245.507227 124.283174 L 246.006797 124.535881 L 246.196289 124.544496 L 246.385781 124.679465 L 246.612598 124.696695 L 246.919805 124.920686 L 247.112168 124.880482 L 247.453828 125.084371 L 248.16873 125.28826 L 249.13916 125.83675 L 249.61002 126.278987 L 249.836836 126.356523 L 249.963164 126.525951 L 250.933594 127.042853 L 251.99877 128.134089 L 252.73377 128.849136 L 253.675488 129.750841 L 255.794355 131.24124 L 256.509258 131.519792 L 256.753301 131.640403 L 257.858672 131.870137 L 259.767949 131.732296 L 260.158418 131.715066 L 261.390117 131.404925 L 261.743262 131.307288 L 261.970078 131.407797 L 262.486875 131.37908 L 262.865859 131.479589 L 263.554922 131.717938 L 264.097559 131.987875 L 264.812461 132.427241 L 265.022051 132.628258 L 265.266094 132.628258 L 265.375195 132.832147 L 265.736953 132.964244 L 266.632734 132.855121 L 267.166758 132.949886 L 268.272129 133.038908 L 268.625273 132.998704 L 269.366016 133.662061 L 269.900039 133.920512 L 271.169062 134.457515 L 271.593984 134.615457 L 273.460195 135.514291 L 273.758789 135.798586 L 276.41168 137.079353 L 277.126582 136.832389 L 278.03959 136.944384 L 278.576484 136.915668 L 279.925898 137.093711 L 280.032129 137.222937 L 281.120273 137.441184 " transform="matrix(1.360544,0,0,1.360269,0,0)"/>
<path style="fill:none;stroke-width:2.5;stroke-linecap:butt;stroke-linejoin:round;stroke:rgb(100%,0%,0%);stroke-opacity:1;stroke-dasharray:9.25,4;stroke-miterlimit:4;" d="M 39.199043 145.949954 L 177.100547 145.949954 L 177.264199 134.868164 L 177.445078 145.949954 L 177.60873 145.949954 L 177.760898 134.868164 L 177.915937 134.868164 L 178.122656 145.949954 L 178.269082 134.868164 L 179.357227 134.868164 L 179.664434 123.786375 L 179.853926 134.868164 L 180.115195 123.786375 L 181.140176 123.786375 L 181.384219 112.704585 L 181.602422 123.786375 L 181.846465 112.704585 L 182.624531 112.704585 L 182.814023 101.622795 L 182.969063 112.704585 L 183.457148 112.704585 L 183.692578 101.622795 L 183.88207 112.704585 L 184.09166 101.622795 L 184.235215 101.622795 L 184.424707 112.704585 L 184.654395 101.622795 L 186.072715 101.622795 L 186.273691 90.541006 L 186.463184 90.541006 L 186.681387 101.622795 L 186.908203 90.541006 L 188.165742 90.541006 L 188.346621 79.459216 L 188.536113 90.541006 L 188.771543 90.541006 L 188.97252 79.459216 L 189.187852 79.459216 L 189.380215 90.541006 L 189.586934 79.459216 L 190.899023 79.459216 L 191.071289 68.377427 L 192.357539 68.377427 L 192.521191 57.295637 L 192.739395 68.377427 L 192.983438 57.295637 L 193.181543 68.377427 L 193.362422 68.377427 L 193.551914 57.295637 L 194.312754 57.295637 L 194.568281 46.213848 L 194.757773 57.295637 L 195.182695 57.295637 L 195.363574 46.213848 L 195.51 57.295637 L 195.699492 57.295637 L 195.926309 46.213848 L 196.813477 46.213848 L 196.994355 24.050269 L 197.37334 24.050269 L 197.63748 35.132058 L 197.809746 12.968479 L 198.016465 12.968479 L 198.217441 24.050269 L 198.406934 12.968479 L 198.642363 12.968479 L 198.831855 24.050269 L 199.075898 12.968479 L 199.340039 24.050269 L 199.555371 24.050269 L 199.739121 12.968479 L 205.024805 12.968479 L 205.19707 145.949954 L 281.120273 145.949954 " transform="matrix(1.360544,0,0,1.360269,0,0)"/>
<path style="fill:none;stroke-width:0.8;stroke-linecap:square;stroke-linejoin:miter;stroke:rgb(0%,0%,0%);stroke-opacity:1;stroke-miterlimit:10;" d="M 27.103125 266.985265 L 27.103125 0.872989 M 293.216191 266.985265 L 293.216191 0.872989 M 27.103125 266.985265 L 293.216191 266.985265 M 27.103125 0.872989 L 293.216191 0.872989 " transform="matrix(1.360544,0,0,1.360269,0,0)"/>
<path style="fill-rule:nonzero;fill:rgb(100%,100%,100%);fill-opacity:0.8;stroke-width:1;stroke-linecap:butt;stroke-linejoin:miter;stroke:rgb(83.529412%,83.921569%,83.529412%);stroke-opacity:0.8;stroke-miterlimit:10;" d="M 34.102852 38.216236 L 162.948926 38.216236 C 164.281113 38.216236 164.947207 37.550008 164.947207 36.214679 L 164.947207 7.871258 C 164.947207 6.538801 164.281113 5.872573 162.948926 5.872573 L 34.102852 5.872573 C 32.770664 5.872573 32.10457 6.538801 32.10457 7.871258 L 32.10457 36.214679 C 32.10457 37.550008 32.770664 38.216236 34.102852 38.216236 Z M 34.102852 38.216236 " transform="matrix(1.360544,0,0,1.360269,0,0)"/>
<path style="fill:none;stroke-width:2.5;stroke-linecap:square;stroke-linejoin:round;stroke:rgb(0%,50.196078%,50.196078%);stroke-opacity:1;stroke-miterlimit:4;" d="M 36.104004 13.96495 L 56.104043 13.96495 " transform="matrix(1.360544,0,0,1.360269,0,0)"/>
<path style=" stroke:none;fill-rule:nonzero;fill:rgb(0%,0%,0%);fill-opacity:1;" d="M 95.976562 14.605469 L 95.976562 16.019531 C 95.515625 15.609375 95.039062 15.296875 94.523438 15.078125 C 94.003906 14.875 93.476562 14.765625 92.902344 14.765625 C 91.761719 14.765625 90.890625 15.121094 90.292969 15.816406 C 89.691406 16.507812 89.394531 17.5 89.394531 18.808594 C 89.394531 20.113281 89.691406 21.121094 90.292969 21.8125 C 90.890625 22.507812 91.761719 22.847656 92.902344 22.847656 C 93.476562 22.847656 94.003906 22.75 94.523438 22.535156 C 95.039062 22.332031 95.515625 22.015625 95.976562 21.59375 L 95.976562 22.996094 C 95.503906 23.324219 95 23.554688 94.480469 23.703125 C 93.964844 23.855469 93.40625 23.933594 92.820312 23.933594 C 91.324219 23.933594 90.140625 23.488281 89.269531 22.574219 C 88.398438 21.664062 87.976562 20.414062 87.976562 18.808594 C 87.976562 17.214844 88.398438 15.964844 89.269531 15.039062 C 90.140625 14.128906 91.324219 13.664062 92.820312 13.664062 C 93.421875 13.664062 93.976562 13.746094 94.496094 13.898438 C 95.011719 14.058594 95.515625 14.289062 95.976562 14.605469 Z M 95.976562 14.605469 "/>
<path style=" stroke:none;fill-rule:nonzero;fill:rgb(0%,0%,0%);fill-opacity:1;" d="M 97.871094 20.820312 L 97.871094 16.316406 L 99.09375 16.316406 L 99.09375 20.78125 C 99.09375 21.488281 99.230469 22.003906 99.503906 22.355469 C 99.773438 22.710938 100.183594 22.886719 100.738281 22.886719 C 101.394531 22.886719 101.921875 22.683594 102.304688 22.261719 C 102.6875 21.839844 102.875 21.269531 102.875 20.535156 L 102.875 16.316406 L 104.101562 16.316406 L 104.101562 23.757812 L 102.875 23.757812 L 102.875 22.617188 C 102.578125 23.078125 102.222656 23.40625 101.84375 23.621094 C 101.449219 23.828125 101 23.933594 100.480469 23.933594 C 99.625 23.933594 98.972656 23.675781 98.535156 23.144531 C 98.085938 22.628906 97.871094 21.855469 97.871094 20.820312 Z M 100.945312 16.140625 Z M 100.945312 16.140625 "/>
<path style=" stroke:none;fill-rule:nonzero;fill:rgb(0%,0%,0%);fill-opacity:1;" d="M 110.929688 17.460938 C 110.792969 17.378906 110.644531 17.324219 110.480469 17.285156 C 110.320312 17.257812 110.140625 17.230469 109.949219 17.230469 C 109.257812 17.230469 108.726562 17.460938 108.359375 17.910156 C 107.976562 18.359375 107.800781 18.996094 107.800781 19.839844 L 107.800781 23.757812 L 106.578125 23.757812 L 106.578125 16.316406 L 107.800781 16.316406 L 107.800781 17.472656 C 108.046875 17.023438 108.386719 16.683594 108.792969 16.46875 C 109.203125 16.25 109.707031 16.140625 110.304688 16.140625 C 110.386719 16.140625 110.480469 16.15625 110.589844 16.15625 C 110.6875 16.167969 110.792969 16.183594 110.929688 16.207031 Z M 110.929688 17.460938 "/>
<path style=" stroke:none;fill-rule:nonzero;fill:rgb(0%,0%,0%);fill-opacity:1;" d="M 116.289062 17.460938 C 116.152344 17.378906 116.003906 17.324219 115.839844 17.285156 C 115.675781 17.257812 115.5 17.230469 115.308594 17.230469 C 114.613281 17.230469 114.085938 17.460938 113.71875 17.910156 C 113.335938 18.359375 113.160156 18.996094 113.160156 19.839844 L 113.160156 23.757812 L 111.933594 23.757812 L 111.933594 16.316406 L 113.160156 16.316406 L 113.160156 17.472656 C 113.402344 17.023438 113.746094 16.683594 114.152344 16.46875 C 114.558594 16.25 115.0625 16.140625 115.664062 16.140625 C 115.746094 16.140625 115.839844 16.15625 115.949219 16.15625 C 116.042969 16.167969 116.152344 16.183594 116.289062 16.207031 Z M 116.289062 17.460938 "/>
<path style=" stroke:none;fill-rule:nonzero;fill:rgb(0%,0%,0%);fill-opacity:1;" d="M 123.636719 19.730469 L 123.636719 20.332031 L 118.019531 20.332031 C 118.070312 21.175781 118.316406 21.828125 118.78125 22.261719 C 119.230469 22.699219 119.855469 22.914062 120.671875 22.914062 C 121.132812 22.914062 121.597656 22.859375 122.03125 22.75 C 122.464844 22.644531 122.914062 22.464844 123.351562 22.222656 L 123.351562 23.378906 C 122.914062 23.566406 122.464844 23.71875 122.003906 23.800781 C 121.542969 23.882812 121.066406 23.933594 120.601562 23.933594 C 119.40625 23.933594 118.464844 23.59375 117.773438 22.914062 C 117.078125 22.234375 116.738281 21.296875 116.738281 20.113281 C 116.738281 18.902344 117.066406 17.9375 117.71875 17.214844 C 118.371094 16.507812 119.269531 16.140625 120.386719 16.140625 C 121.390625 16.140625 122.179688 16.46875 122.765625 17.105469 C 123.335938 17.757812 123.636719 18.628906 123.636719 19.730469 Z M 122.414062 19.378906 C 122.398438 18.710938 122.207031 18.179688 121.855469 17.773438 C 121.488281 17.378906 120.996094 17.175781 120.398438 17.175781 C 119.71875 17.175781 119.175781 17.378906 118.765625 17.757812 C 118.359375 18.140625 118.113281 18.683594 118.058594 19.378906 Z M 122.414062 19.378906 "/>
<path style=" stroke:none;fill-rule:nonzero;fill:rgb(0%,0%,0%);fill-opacity:1;" d="M 131.828125 19.269531 L 131.828125 23.757812 L 130.601562 23.757812 L 130.601562 19.308594 C 130.601562 18.601562 130.453125 18.085938 130.179688 17.734375 C 129.910156 17.378906 129.5 17.203125 128.957031 17.203125 C 128.289062 17.203125 127.773438 17.417969 127.390625 17.839844 C 127.011719 18.261719 126.820312 18.835938 126.820312 19.554688 L 126.820312 23.757812 L 125.597656 23.757812 L 125.597656 16.316406 L 126.820312 16.316406 L 126.820312 17.472656 C 127.105469 17.039062 127.445312 16.699219 127.855469 16.480469 C 128.25 16.261719 128.710938 16.140625 129.230469 16.140625 C 130.070312 16.140625 130.726562 16.414062 131.160156 16.945312 C 131.597656 17.472656 131.828125 18.25 131.828125 19.269531 Z M 131.828125 19.269531 "/>
<path style=" stroke:none;fill-rule:nonzero;fill:rgb(0%,0%,0%);fill-opacity:1;" d="M 135.472656 14.210938 L 135.472656 16.316406 L 137.992188 16.316406 L 137.992188 17.269531 L 135.472656 17.269531 L 135.472656 21.308594 C 135.472656 21.921875 135.554688 22.316406 135.71875 22.480469 C 135.882812 22.65625 136.222656 22.738281 136.738281 22.738281 L 137.992188 22.738281 L 137.992188 23.757812 L 136.738281 23.757812 C 135.785156 23.757812 135.132812 23.582031 134.78125 23.226562 C 134.425781 22.875 134.25 22.234375 134.25 21.308594 L 134.25 17.269531 L 133.351562 17.269531 L 133.351562 16.316406 L 134.25 16.316406 L 134.25 14.210938 Z M 135.472656 14.210938 "/>
<path style=" stroke:none;fill-rule:nonzero;fill:rgb(0%,0%,0%);fill-opacity:1;" d="M 148.671875 16.535156 L 148.671875 17.691406 C 148.316406 17.527344 147.964844 17.390625 147.597656 17.296875 C 147.214844 17.214844 146.835938 17.160156 146.441406 17.160156 C 145.828125 17.160156 145.363281 17.257812 145.066406 17.445312 C 144.765625 17.636719 144.617188 17.910156 144.617188 18.277344 C 144.617188 18.5625 144.726562 18.78125 144.941406 18.941406 C 145.160156 19.105469 145.597656 19.269531 146.25 19.40625 L 146.671875 19.5 C 147.542969 19.691406 148.152344 19.964844 148.519531 20.289062 C 148.875 20.628906 149.066406 21.105469 149.066406 21.703125 C 149.066406 22.398438 148.792969 22.941406 148.25 23.335938 C 147.703125 23.746094 146.941406 23.933594 145.992188 23.933594 C 145.582031 23.933594 145.175781 23.894531 144.738281 23.828125 C 144.304688 23.757812 143.855469 23.648438 143.378906 23.488281 L 143.378906 22.222656 C 143.828125 22.464844 144.277344 22.644531 144.710938 22.75 C 145.148438 22.875 145.582031 22.929688 146.019531 22.929688 C 146.589844 22.929688 147.039062 22.832031 147.351562 22.644531 C 147.648438 22.453125 147.8125 22.167969 147.8125 21.800781 C 147.8125 21.472656 147.691406 21.214844 147.472656 21.039062 C 147.253906 20.859375 146.765625 20.683594 146.003906 20.519531 L 145.582031 20.425781 C 144.820312 20.261719 144.261719 20.019531 143.9375 19.691406 C 143.597656 19.363281 143.433594 18.914062 143.433594 18.332031 C 143.433594 17.636719 143.675781 17.09375 144.167969 16.710938 C 144.65625 16.332031 145.363281 16.140625 146.289062 16.140625 C 146.738281 16.140625 147.160156 16.183594 147.570312 16.25 C 147.964844 16.316406 148.332031 16.414062 148.671875 16.535156 Z M 148.671875 16.535156 "/>
<path style=" stroke:none;fill-rule:nonzero;fill:rgb(0%,0%,0%);fill-opacity:1;" d="M 152.195312 22.644531 L 152.195312 26.574219 L 150.96875 26.574219 L 150.96875 16.316406 L 152.195312 16.316406 L 152.195312 17.445312 C 152.441406 17.011719 152.765625 16.683594 153.160156 16.46875 C 153.554688 16.25 154.03125 16.140625 154.574219 16.140625 C 155.472656 16.140625 156.207031 16.507812 156.78125 17.214844 C 157.335938 17.9375 157.625 18.875 157.625 20.046875 C 157.625 21.214844 157.335938 22.167969 156.78125 22.875 C 156.207031 23.582031 155.472656 23.933594 154.574219 23.933594 C 154.03125 23.933594 153.554688 23.828125 153.160156 23.621094 C 152.765625 23.417969 152.441406 23.09375 152.195312 22.644531 Z M 156.359375 20.046875 C 156.359375 19.148438 156.167969 18.453125 155.800781 17.9375 C 155.417969 17.417969 154.914062 17.160156 154.277344 17.160156 C 153.625 17.160156 153.121094 17.417969 152.753906 17.9375 C 152.371094 18.453125 152.195312 19.148438 152.195312 20.046875 C 152.195312 20.941406 152.371094 21.648438 152.753906 22.167969 C 153.121094 22.683594 153.625 22.929688 154.277344 22.929688 C 154.914062 22.929688 155.417969 22.683594 155.800781 22.167969 C 156.167969 21.648438 156.359375 20.941406 156.359375 20.046875 Z M 156.359375 20.046875 "/>
<path style=" stroke:none;fill-rule:nonzero;fill:rgb(0%,0%,0%);fill-opacity:1;" d="M 166.019531 19.730469 L 166.019531 20.332031 L 160.398438 20.332031 C 160.453125 21.175781 160.699219 21.828125 161.160156 22.261719 C 161.609375 22.699219 162.234375 22.914062 163.050781 22.914062 C 163.515625 22.914062 163.976562 22.859375 164.414062 22.75 C 164.847656 22.644531 165.296875 22.464844 165.730469 22.222656 L 165.730469 23.378906 C 165.296875 23.566406 164.847656 23.71875 164.386719 23.800781 C 163.921875 23.882812 163.445312 23.933594 162.984375 23.933594 C 161.785156 23.933594 160.847656 23.59375 160.152344 22.914062 C 159.460938 22.234375 159.121094 21.296875 159.121094 20.113281 C 159.121094 18.902344 159.445312 17.9375 160.097656 17.214844 C 160.753906 16.507812 161.648438 16.140625 162.765625 16.140625 C 163.773438 16.140625 164.5625 16.46875 165.148438 17.105469 C 165.71875 17.757812 166.019531 18.628906 166.019531 19.730469 Z M 164.792969 19.378906 C 164.78125 18.710938 164.589844 18.179688 164.234375 17.773438 C 163.867188 17.378906 163.378906 17.175781 162.78125 17.175781 C 162.097656 17.175781 161.554688 17.378906 161.148438 17.757812 C 160.738281 18.140625 160.492188 18.683594 160.441406 19.378906 Z M 164.792969 19.378906 "/>
<path style=" stroke:none;fill-rule:nonzero;fill:rgb(0%,0%,0%);fill-opacity:1;" d="M 174.386719 19.730469 L 174.386719 20.332031 L 168.765625 20.332031 C 168.820312 21.175781 169.066406 21.828125 169.527344 22.261719 C 169.976562 22.699219 170.601562 22.914062 171.417969 22.914062 C 171.882812 22.914062 172.34375 22.859375 172.78125 22.75 C 173.214844 22.644531 173.664062 22.464844 174.097656 22.222656 L 174.097656 23.378906 C 173.664062 23.566406 173.214844 23.71875 172.753906 23.800781 C 172.289062 23.882812 171.8125 23.933594 171.351562 23.933594 C 170.152344 23.933594 169.214844 23.59375 168.519531 22.914062 C 167.828125 22.234375 167.488281 21.296875 167.488281 20.113281 C 167.488281 18.902344 167.8125 17.9375 168.464844 17.214844 C 169.121094 16.507812 170.019531 16.140625 171.132812 16.140625 C 172.140625 16.140625 172.929688 16.46875 173.515625 17.105469 C 174.085938 17.757812 174.386719 18.628906 174.386719 19.730469 Z M 173.160156 19.378906 C 173.148438 18.710938 172.957031 18.179688 172.601562 17.773438 C 172.234375 17.378906 171.746094 17.175781 171.148438 17.175781 C 170.464844 17.175781 169.921875 17.378906 169.515625 17.757812 C 169.105469 18.140625 168.859375 18.683594 168.808594 19.378906 Z M 173.160156 19.378906 "/>
<path style=" stroke:none;fill-rule:nonzero;fill:rgb(0%,0%,0%);fill-opacity:1;" d="M 181.28125 17.445312 L 181.28125 13.421875 L 182.507812 13.421875 L 182.507812 23.757812 L 181.28125 23.757812 L 181.28125 22.644531 C 181.023438 23.09375 180.699219 23.417969 180.304688 23.621094 C 179.910156 23.828125 179.445312 23.933594 178.902344 23.933594 C 178.003906 23.933594 177.269531 23.582031 176.699219 22.875 C 176.125 22.167969 175.855469 21.214844 175.855469 20.046875 C 175.855469 18.875 176.125 17.9375 176.699219 17.214844 C 177.269531 16.507812 178.003906 16.140625 178.902344 16.140625 C 179.445312 16.140625 179.910156 16.25 180.304688 16.46875 C 180.699219 16.683594 181.023438 17.011719 181.28125 17.445312 Z M 177.121094 20.046875 C 177.121094 20.941406 177.296875 21.648438 177.664062 22.167969 C 178.03125 22.683594 178.535156 22.929688 179.1875 22.929688 C 179.839844 22.929688 180.34375 22.683594 180.726562 22.167969 C 181.09375 21.648438 181.28125 20.941406 181.28125 20.046875 C 181.28125 19.148438 181.09375 18.453125 180.726562 17.9375 C 180.34375 17.417969 179.839844 17.160156 179.1875 17.160156 C 178.535156 17.160156 178.03125 17.417969 177.664062 17.9375 C 177.296875 18.453125 177.121094 19.148438 177.121094 20.046875 Z M 177.121094 20.046875 "/>
<path style=" stroke:none;fill-rule:nonzero;fill:rgb(0%,0%,0%);fill-opacity:1;" d="M 192.289062 13.433594 C 191.691406 14.46875 191.253906 15.472656 190.96875 16.46875 C 190.671875 17.460938 190.535156 18.46875 190.535156 19.488281 C 190.535156 20.519531 190.671875 21.527344 190.96875 22.519531 C 191.253906 23.527344 191.691406 24.519531 192.289062 25.539062 L 191.230469 25.539062 C 190.5625 24.492188 190.058594 23.488281 189.730469 22.480469 C 189.40625 21.472656 189.242188 20.480469 189.242188 19.488281 C 189.242188 18.507812 189.40625 17.515625 189.730469 16.507812 C 190.058594 15.5 190.546875 14.480469 191.230469 13.433594 Z M 192.289062 13.433594 "/>
<path style=" stroke:none;fill-rule:nonzero;fill:rgb(0%,0%,0%);fill-opacity:1;" d="M 198.738281 14.753906 C 197.757812 14.753906 196.984375 15.121094 196.414062 15.839844 C 195.839844 16.578125 195.554688 17.554688 195.554688 18.808594 C 195.554688 20.058594 195.839844 21.050781 196.414062 21.773438 C 196.984375 22.507812 197.757812 22.859375 198.738281 22.859375 C 199.703125 22.859375 200.480469 22.507812 201.050781 21.773438 C 201.625 21.050781 201.910156 20.058594 201.910156 18.808594 C 201.910156 17.554688 201.625 16.578125 201.050781 15.839844 C 200.480469 15.121094 199.703125 14.753906 198.738281 14.753906 Z M 198.738281 13.664062 C 200.125 13.664062 201.230469 14.140625 202.070312 15.066406 C 202.902344 15.992188 203.324219 17.242188 203.324219 18.808594 C 203.324219 20.386719 202.902344 21.621094 202.070312 22.546875 C 201.230469 23.472656 200.125 23.933594 198.738281 23.933594 C 197.335938 23.933594 196.222656 23.472656 195.390625 22.546875 C 194.546875 21.621094 194.140625 20.386719 194.140625 18.808594 C 194.140625 17.242188 194.546875 15.992188 195.390625 15.066406 C 196.222656 14.140625 197.335938 13.664062 198.738281 13.664062 Z M 198.738281 13.664062 "/>
<path style=" stroke:none;fill-rule:nonzero;fill:rgb(0%,0%,0%);fill-opacity:1;" d="M 211.363281 14.167969 L 211.363281 15.472656 C 210.847656 15.230469 210.371094 15.054688 209.921875 14.929688 C 209.460938 14.820312 209.023438 14.753906 208.617188 14.753906 C 207.882812 14.753906 207.308594 14.902344 206.914062 15.175781 C 206.519531 15.460938 206.332031 15.867188 206.332031 16.386719 C 206.332031 16.820312 206.453125 17.160156 206.726562 17.378906 C 206.984375 17.609375 207.488281 17.785156 208.222656 17.921875 L 209.039062 18.085938 C 210.03125 18.277344 210.765625 18.617188 211.242188 19.09375 C 211.71875 19.582031 211.964844 20.222656 211.964844 21.023438 C 211.964844 21.988281 211.636719 22.710938 210.996094 23.199219 C 210.34375 23.691406 209.40625 23.933594 208.167969 23.933594 C 207.691406 23.933594 207.1875 23.882812 206.65625 23.785156 C 206.125 23.691406 205.582031 23.539062 205.023438 23.324219 L 205.023438 21.9375 C 205.570312 22.25 206.097656 22.480469 206.617188 22.628906 C 207.132812 22.792969 207.648438 22.859375 208.167969 22.859375 C 208.929688 22.859375 209.515625 22.710938 209.9375 22.410156 C 210.34375 22.113281 210.5625 21.691406 210.5625 21.121094 C 210.5625 20.628906 210.414062 20.25 210.113281 19.976562 C 209.8125 19.703125 209.324219 19.5 208.644531 19.363281 L 207.828125 19.203125 C 206.820312 19.011719 206.097656 18.699219 205.648438 18.261719 C 205.203125 17.839844 204.984375 17.257812 204.984375 16.496094 C 204.984375 15.625 205.28125 14.929688 205.910156 14.425781 C 206.519531 13.921875 207.378906 13.664062 208.464844 13.664062 C 208.929688 13.664062 209.390625 13.707031 209.882812 13.789062 C 210.359375 13.871094 210.847656 14.003906 211.363281 14.167969 Z M 211.363281 14.167969 "/>
<path style=" stroke:none;fill-rule:nonzero;fill:rgb(0%,0%,0%);fill-opacity:1;" d="M 213.8125 13.433594 L 214.875 13.433594 C 215.527344 14.480469 216.03125 15.5 216.359375 16.507812 C 216.683594 17.515625 216.859375 18.507812 216.859375 19.488281 C 216.859375 20.480469 216.683594 21.472656 216.359375 22.480469 C 216.03125 23.488281 215.527344 24.492188 214.875 25.539062 L 213.8125 25.539062 C 214.398438 24.519531 214.835938 23.527344 215.132812 22.519531 C 215.417969 21.527344 215.570312 20.519531 215.570312 19.488281 C 215.570312 18.46875 215.417969 17.460938 215.132812 16.46875 C 214.835938 15.472656 214.398438 14.46875 213.8125 13.433594 Z M 213.8125 13.433594 "/>
<path style="fill:none;stroke-width:2.5;stroke-linecap:butt;stroke-linejoin:round;stroke:rgb(100%,0%,0%);stroke-opacity:1;stroke-dasharray:9.25,4;stroke-miterlimit:4;" d="M 36.104004 28.639204 L 56.104043 28.639204 " transform="matrix(1.360544,0,0,1.360269,0,0)"/>
<path style=" stroke:none;fill-rule:nonzero;fill:rgb(0%,0%,0%);fill-opacity:1;" d="M 89.898438 34.902344 L 89.898438 42.613281 L 91.515625 42.613281 C 92.875 42.613281 93.882812 42.316406 94.523438 41.691406 C 95.148438 41.0625 95.476562 40.085938 95.476562 38.75 C 95.476562 37.417969 95.148438 36.453125 94.523438 35.828125 C 93.882812 35.214844 92.875 34.902344 91.515625 34.902344 Z M 88.550781 33.800781 L 91.3125 33.800781 C 93.230469 33.800781 94.644531 34.207031 95.542969 34.996094 C 96.441406 35.800781 96.890625 37.050781 96.890625 38.75 C 96.890625 40.464844 96.425781 41.714844 95.527344 42.519531 C 94.632812 43.320312 93.214844 43.714844 91.3125 43.714844 L 88.550781 43.714844 Z M 88.550781 33.800781 "/>
<path style=" stroke:none;fill-rule:nonzero;fill:rgb(0%,0%,0%);fill-opacity:1;" d="M 105.339844 39.691406 L 105.339844 40.289062 L 99.71875 40.289062 C 99.773438 41.132812 100.019531 41.785156 100.480469 42.21875 C 100.929688 42.65625 101.554688 42.871094 102.371094 42.871094 C 102.835938 42.871094 103.296875 42.820312 103.734375 42.710938 C 104.167969 42.601562 104.617188 42.425781 105.054688 42.179688 L 105.054688 43.335938 C 104.617188 43.527344 104.167969 43.675781 103.707031 43.757812 C 103.242188 43.839844 102.765625 43.894531 102.304688 43.894531 C 101.109375 43.894531 100.167969 43.554688 99.476562 42.871094 C 98.78125 42.191406 98.441406 41.253906 98.441406 40.070312 C 98.441406 38.859375 98.765625 37.894531 99.421875 37.171875 C 100.074219 36.464844 100.972656 36.097656 102.085938 36.097656 C 103.09375 36.097656 103.882812 36.425781 104.46875 37.066406 C 105.039062 37.71875 105.339844 38.589844 105.339844 39.691406 Z M 104.113281 39.335938 C 104.101562 38.667969 103.910156 38.140625 103.554688 37.730469 C 103.1875 37.335938 102.699219 37.132812 102.101562 37.132812 C 101.421875 37.132812 100.875 37.335938 100.46875 37.71875 C 100.058594 38.097656 99.816406 38.640625 99.761719 39.335938 Z M 104.113281 39.335938 "/>
<path style=" stroke:none;fill-rule:nonzero;fill:rgb(0%,0%,0%);fill-opacity:1;" d="M 112.085938 36.492188 L 112.085938 37.648438 C 111.734375 37.484375 111.378906 37.351562 111.011719 37.253906 C 110.632812 37.171875 110.25 37.117188 109.855469 37.117188 C 109.242188 37.117188 108.78125 37.214844 108.480469 37.40625 C 108.183594 37.59375 108.03125 37.867188 108.03125 38.234375 C 108.03125 38.519531 108.140625 38.738281 108.359375 38.902344 C 108.578125 39.0625 109.011719 39.226562 109.664062 39.363281 L 110.085938 39.457031 C 110.957031 39.648438 111.570312 39.921875 111.9375 40.246094 C 112.292969 40.585938 112.480469 41.0625 112.480469 41.664062 C 112.480469 42.355469 112.210938 42.898438 111.664062 43.292969 C 111.121094 43.703125 110.359375 43.894531 109.40625 43.894531 C 109 43.894531 108.589844 43.851562 108.15625 43.785156 C 107.71875 43.714844 107.269531 43.609375 106.792969 43.445312 L 106.792969 42.179688 C 107.242188 42.425781 107.691406 42.601562 108.128906 42.710938 C 108.5625 42.832031 109 42.886719 109.433594 42.886719 C 110.003906 42.886719 110.453125 42.792969 110.765625 42.601562 C 111.066406 42.410156 111.230469 42.125 111.230469 41.757812 C 111.230469 41.429688 111.109375 41.171875 110.890625 40.996094 C 110.671875 40.820312 110.183594 40.640625 109.421875 40.480469 L 109 40.382812 C 108.238281 40.21875 107.679688 39.976562 107.351562 39.648438 C 107.011719 39.324219 106.847656 38.875 106.847656 38.289062 C 106.847656 37.59375 107.09375 37.050781 107.582031 36.671875 C 108.074219 36.289062 108.78125 36.097656 109.707031 36.097656 C 110.15625 36.097656 110.578125 36.140625 110.984375 36.207031 C 111.378906 36.277344 111.746094 36.371094 112.085938 36.492188 Z M 112.085938 36.492188 "/>
<path style=" stroke:none;fill-rule:nonzero;fill:rgb(0%,0%,0%);fill-opacity:1;" d="M 114.425781 36.277344 L 115.652344 36.277344 L 115.652344 43.714844 L 114.425781 43.714844 Z M 114.425781 33.378906 L 115.652344 33.378906 L 115.652344 34.929688 L 114.425781 34.929688 Z M 114.425781 33.378906 "/>
<path style=" stroke:none;fill-rule:nonzero;fill:rgb(0%,0%,0%);fill-opacity:1;" d="M 122.523438 37.417969 C 122.386719 37.335938 122.238281 37.28125 122.074219 37.242188 C 121.910156 37.214844 121.734375 37.1875 121.542969 37.1875 C 120.847656 37.1875 120.320312 37.417969 119.949219 37.867188 C 119.570312 38.316406 119.394531 38.957031 119.394531 39.796875 L 119.394531 43.714844 L 118.167969 43.714844 L 118.167969 36.277344 L 119.394531 36.277344 L 119.394531 37.433594 C 119.636719 36.984375 119.976562 36.644531 120.386719 36.425781 C 120.792969 36.207031 121.296875 36.097656 121.898438 36.097656 C 121.976562 36.097656 122.074219 36.113281 122.183594 36.113281 C 122.277344 36.125 122.386719 36.140625 122.523438 36.167969 Z M 122.523438 37.417969 "/>
<path style=" stroke:none;fill-rule:nonzero;fill:rgb(0%,0%,0%);fill-opacity:1;" d="M 129.871094 39.691406 L 129.871094 40.289062 L 124.25 40.289062 C 124.304688 41.132812 124.550781 41.785156 125.011719 42.21875 C 125.460938 42.65625 126.089844 42.871094 126.90625 42.871094 C 127.367188 42.871094 127.828125 42.820312 128.265625 42.710938 C 128.699219 42.601562 129.148438 42.425781 129.585938 42.179688 L 129.585938 43.335938 C 129.148438 43.527344 128.699219 43.675781 128.238281 43.757812 C 127.777344 43.839844 127.300781 43.894531 126.835938 43.894531 C 125.640625 43.894531 124.699219 43.554688 124.007812 42.871094 C 123.3125 42.191406 122.972656 41.253906 122.972656 40.070312 C 122.972656 38.859375 123.300781 37.894531 123.953125 37.171875 C 124.605469 36.464844 125.503906 36.097656 126.617188 36.097656 C 127.625 36.097656 128.414062 36.425781 129 37.066406 C 129.570312 37.71875 129.871094 38.589844 129.871094 39.691406 Z M 128.644531 39.335938 C 128.632812 38.667969 128.441406 38.140625 128.089844 37.730469 C 127.722656 37.335938 127.230469 37.132812 126.632812 37.132812 C 125.953125 37.132812 125.40625 37.335938 125 37.71875 C 124.59375 38.097656 124.347656 38.640625 124.292969 39.335938 Z M 128.644531 39.335938 "/>
<path style=" stroke:none;fill-rule:nonzero;fill:rgb(0%,0%,0%);fill-opacity:1;" d="M 136.769531 37.40625 L 136.769531 33.378906 L 137.992188 33.378906 L 137.992188 43.714844 L 136.769531 43.714844 L 136.769531 42.601562 C 136.511719 43.050781 136.183594 43.375 135.789062 43.582031 C 135.394531 43.785156 134.933594 43.894531 134.386719 43.894531 C 133.488281 43.894531 132.753906 43.539062 132.183594 42.832031 C 131.613281 42.125 131.339844 41.171875 131.339844 40.003906 C 131.339844 38.832031 131.613281 37.894531 132.183594 37.171875 C 132.753906 36.464844 133.488281 36.097656 134.386719 36.097656 C 134.933594 36.097656 135.394531 36.207031 135.789062 36.425781 C 136.183594 36.644531 136.511719 36.96875 136.769531 37.40625 Z M 132.605469 40.003906 C 132.605469 40.902344 132.78125 41.609375 133.148438 42.125 C 133.515625 42.640625 134.019531 42.886719 134.671875 42.886719 C 135.328125 42.886719 135.828125 42.640625 136.210938 42.125 C 136.578125 41.609375 136.769531 40.902344 136.769531 40.003906 C 136.769531 39.105469 136.578125 38.410156 136.210938 37.894531 C 135.828125 37.378906 135.328125 37.117188 134.671875 37.117188 C 134.019531 37.117188 133.515625 37.378906 133.148438 37.894531 C 132.78125 38.410156 132.605469 39.105469 132.605469 40.003906 Z M 132.605469 40.003906 "/>
<path style=" stroke:none;fill-rule:nonzero;fill:rgb(0%,0%,0%);fill-opacity:1;" d="M 149.585938 36.492188 L 149.585938 37.648438 C 149.230469 37.484375 148.878906 37.351562 148.511719 37.253906 C 148.128906 37.171875 147.75 37.117188 147.355469 37.117188 C 146.742188 37.117188 146.277344 37.214844 145.980469 37.40625 C 145.679688 37.59375 145.53125 37.867188 145.53125 38.234375 C 145.53125 38.519531 145.640625 38.738281 145.855469 38.902344 C 146.074219 39.0625 146.511719 39.226562 147.164062 39.363281 L 147.585938 39.457031 C 148.457031 39.648438 149.066406 39.921875 149.433594 40.246094 C 149.789062 40.585938 149.980469 41.0625 149.980469 41.664062 C 149.980469 42.355469 149.707031 42.898438 149.164062 43.292969 C 148.617188 43.703125 147.855469 43.894531 146.90625 43.894531 C 146.496094 43.894531 146.089844 43.851562 145.652344 43.785156 C 145.21875 43.714844 144.769531 43.609375 144.292969 43.445312 L 144.292969 42.179688 C 144.742188 42.425781 145.191406 42.601562 145.625 42.710938 C 146.0625 42.832031 146.496094 42.886719 146.933594 42.886719 C 147.503906 42.886719 147.953125 42.792969 148.265625 42.601562 C 148.566406 42.410156 148.726562 42.125 148.726562 41.757812 C 148.726562 41.429688 148.605469 41.171875 148.386719 40.996094 C 148.171875 40.820312 147.679688 40.640625 146.917969 40.480469 L 146.496094 40.382812 C 145.734375 40.21875 145.175781 39.976562 144.851562 39.648438 C 144.511719 39.324219 144.347656 38.875 144.347656 38.289062 C 144.347656 37.59375 144.59375 37.050781 145.082031 36.671875 C 145.570312 36.289062 146.277344 36.097656 147.203125 36.097656 C 147.652344 36.097656 148.074219 36.140625 148.484375 36.207031 C 148.878906 36.277344 149.246094 36.371094 149.585938 36.492188 Z M 149.585938 36.492188 "/>
<path style=" stroke:none;fill-rule:nonzero;fill:rgb(0%,0%,0%);fill-opacity:1;" d="M 153.109375 42.601562 L 153.109375 46.53125 L 151.882812 46.53125 L 151.882812 36.277344 L 153.109375 36.277344 L 153.109375 37.40625 C 153.355469 36.96875 153.679688 36.644531 154.074219 36.425781 C 154.46875 36.207031 154.945312 36.097656 155.488281 36.097656 C 156.386719 36.097656 157.121094 36.464844 157.695312 37.171875 C 158.25 37.894531 158.539062 38.832031 158.539062 40.003906 C 158.539062 41.171875 158.25 42.125 157.695312 42.832031 C 157.121094 43.539062 156.386719 43.894531 155.488281 43.894531 C 154.945312 43.894531 154.46875 43.785156 154.074219 43.582031 C 153.679688 43.375 153.355469 43.050781 153.109375 42.601562 Z M 157.273438 40.003906 C 157.273438 39.105469 157.082031 38.410156 156.714844 37.894531 C 156.332031 37.378906 155.828125 37.117188 155.191406 37.117188 C 154.539062 37.117188 154.035156 37.378906 153.667969 37.894531 C 153.285156 38.410156 153.109375 39.105469 153.109375 40.003906 C 153.109375 40.902344 153.285156 41.609375 153.667969 42.125 C 154.035156 42.640625 154.539062 42.886719 155.191406 42.886719 C 155.828125 42.886719 156.332031 42.640625 156.714844 42.125 C 157.082031 41.609375 157.273438 40.902344 157.273438 40.003906 Z M 157.273438 40.003906 "/>
<path style=" stroke:none;fill-rule:nonzero;fill:rgb(0%,0%,0%);fill-opacity:1;" d="M 166.933594 39.691406 L 166.933594 40.289062 L 161.3125 40.289062 C 161.367188 41.132812 161.613281 41.785156 162.074219 42.21875 C 162.523438 42.65625 163.148438 42.871094 163.964844 42.871094 C 164.429688 42.871094 164.890625 42.820312 165.328125 42.710938 C 165.761719 42.601562 166.210938 42.425781 166.644531 42.179688 L 166.644531 43.335938 C 166.210938 43.527344 165.761719 43.675781 165.300781 43.757812 C 164.835938 43.839844 164.359375 43.894531 163.898438 43.894531 C 162.699219 43.894531 161.761719 43.554688 161.066406 42.871094 C 160.375 42.191406 160.035156 41.253906 160.035156 40.070312 C 160.035156 38.859375 160.359375 37.894531 161.011719 37.171875 C 161.667969 36.464844 162.566406 36.097656 163.679688 36.097656 C 164.6875 36.097656 165.476562 36.425781 166.0625 37.066406 C 166.632812 37.71875 166.933594 38.589844 166.933594 39.691406 Z M 165.707031 39.335938 C 165.695312 38.667969 165.503906 38.140625 165.148438 37.730469 C 164.78125 37.335938 164.292969 37.132812 163.695312 37.132812 C 163.011719 37.132812 162.46875 37.335938 162.0625 37.71875 C 161.652344 38.097656 161.40625 38.640625 161.355469 39.335938 Z M 165.707031 39.335938 "/>
<path style=" stroke:none;fill-rule:nonzero;fill:rgb(0%,0%,0%);fill-opacity:1;" d="M 175.300781 39.691406 L 175.300781 40.289062 L 169.679688 40.289062 C 169.734375 41.132812 169.980469 41.785156 170.441406 42.21875 C 170.890625 42.65625 171.515625 42.871094 172.332031 42.871094 C 172.796875 42.871094 173.257812 42.820312 173.695312 42.710938 C 174.128906 42.601562 174.578125 42.425781 175.011719 42.179688 L 175.011719 43.335938 C 174.578125 43.527344 174.128906 43.675781 173.667969 43.757812 C 173.203125 43.839844 172.726562 43.894531 172.265625 43.894531 C 171.066406 43.894531 170.128906 43.554688 169.433594 42.871094 C 168.742188 42.191406 168.402344 41.253906 168.402344 40.070312 C 168.402344 38.859375 168.726562 37.894531 169.382812 37.171875 C 170.035156 36.464844 170.933594 36.097656 172.046875 36.097656 C 173.054688 36.097656 173.84375 36.425781 174.429688 37.066406 C 175 37.71875 175.300781 38.589844 175.300781 39.691406 Z M 174.074219 39.335938 C 174.0625 38.667969 173.871094 38.140625 173.515625 37.730469 C 173.148438 37.335938 172.660156 37.132812 172.0625 37.132812 C 171.382812 37.132812 170.835938 37.335938 170.429688 37.71875 C 170.019531 38.097656 169.777344 38.640625 169.722656 39.335938 Z M 174.074219 39.335938 "/>
<path style=" stroke:none;fill-rule:nonzero;fill:rgb(0%,0%,0%);fill-opacity:1;" d="M 182.199219 37.40625 L 182.199219 33.378906 L 183.421875 33.378906 L 183.421875 43.714844 L 182.199219 43.714844 L 182.199219 42.601562 C 181.9375 43.050781 181.613281 43.375 181.21875 43.582031 C 180.824219 43.785156 180.359375 43.894531 179.816406 43.894531 C 178.917969 43.894531 178.183594 43.539062 177.613281 42.832031 C 177.039062 42.125 176.769531 41.171875 176.769531 40.003906 C 176.769531 38.832031 177.039062 37.894531 177.613281 37.171875 C 178.183594 36.464844 178.917969 36.097656 179.816406 36.097656 C 180.359375 36.097656 180.824219 36.207031 181.21875 36.425781 C 181.613281 36.644531 181.9375 36.96875 182.199219 37.40625 Z M 178.035156 40.003906 C 178.035156 40.902344 178.210938 41.609375 178.578125 42.125 C 178.945312 42.640625 179.449219 42.886719 180.101562 42.886719 C 180.753906 42.886719 181.257812 42.640625 181.640625 42.125 C 182.007812 41.609375 182.199219 40.902344 182.199219 40.003906 C 182.199219 39.105469 182.007812 38.410156 181.640625 37.894531 C 181.257812 37.378906 180.753906 37.117188 180.101562 37.117188 C 179.449219 37.117188 178.945312 37.378906 178.578125 37.894531 C 178.210938 38.410156 178.035156 39.105469 178.035156 40.003906 Z M 178.035156 40.003906 "/>
<path style=" stroke:none;fill-rule:nonzero;fill:rgb(0%,0%,0%);fill-opacity:1;" d="M 193.203125 33.390625 C 192.605469 34.425781 192.171875 35.433594 191.882812 36.425781 C 191.585938 37.417969 191.449219 38.425781 191.449219 39.445312 C 191.449219 40.480469 191.585938 41.484375 191.882812 42.476562 C 192.171875 43.484375 192.605469 44.476562 193.203125 45.5 L 192.144531 45.5 C 191.476562 44.449219 190.972656 43.445312 190.644531 42.4375 C 190.320312 41.429688 190.15625 40.4375 190.15625 39.445312 C 190.15625 38.464844 190.320312 37.472656 190.644531 36.464844 C 190.972656 35.460938 191.460938 34.4375 192.144531 33.390625 Z M 193.203125 33.390625 "/>
<path style=" stroke:none;fill-rule:nonzero;fill:rgb(0%,0%,0%);fill-opacity:1;" d="M 199.652344 34.710938 C 198.671875 34.710938 197.898438 35.078125 197.328125 35.800781 C 196.753906 36.535156 196.46875 37.511719 196.46875 38.765625 C 196.46875 40.015625 196.753906 41.007812 197.328125 41.730469 C 197.898438 42.464844 198.671875 42.820312 199.652344 42.820312 C 200.617188 42.820312 201.394531 42.464844 201.964844 41.730469 C 202.539062 41.007812 202.824219 40.015625 202.824219 38.765625 C 202.824219 37.511719 202.539062 36.535156 201.964844 35.800781 C 201.394531 35.078125 200.617188 34.710938 199.652344 34.710938 Z M 199.652344 33.625 C 201.039062 33.625 202.144531 34.097656 202.988281 35.023438 C 203.816406 35.949219 204.238281 37.199219 204.238281 38.765625 C 204.238281 40.34375 203.816406 41.582031 202.988281 42.503906 C 202.144531 43.429688 201.039062 43.894531 199.652344 43.894531 C 198.25 43.894531 197.136719 43.429688 196.304688 42.503906 C 195.460938 41.582031 195.054688 40.34375 195.054688 38.765625 C 195.054688 37.199219 195.460938 35.949219 196.304688 35.023438 C 197.136719 34.097656 198.25 33.625 199.652344 33.625 Z M 199.652344 33.625 "/>
<path style=" stroke:none;fill-rule:nonzero;fill:rgb(0%,0%,0%);fill-opacity:1;" d="M 212.277344 34.125 L 212.277344 35.433594 C 211.761719 35.1875 211.285156 35.011719 210.835938 34.886719 C 210.375 34.78125 209.9375 34.710938 209.53125 34.710938 C 208.796875 34.710938 208.222656 34.859375 207.828125 35.132812 C 207.433594 35.417969 207.246094 35.828125 207.246094 36.34375 C 207.246094 36.777344 207.367188 37.117188 207.640625 37.335938 C 207.898438 37.566406 208.402344 37.746094 209.136719 37.878906 L 209.953125 38.042969 C 210.945312 38.234375 211.679688 38.574219 212.15625 39.050781 C 212.632812 39.539062 212.878906 40.179688 212.878906 40.980469 C 212.878906 41.949219 212.550781 42.667969 211.910156 43.160156 C 211.257812 43.648438 210.320312 43.894531 209.082031 43.894531 C 208.605469 43.894531 208.101562 43.839844 207.570312 43.742188 C 207.039062 43.648438 206.496094 43.5 205.9375 43.28125 L 205.9375 41.894531 C 206.484375 42.207031 207.011719 42.4375 207.53125 42.585938 C 208.046875 42.75 208.566406 42.820312 209.082031 42.820312 C 209.84375 42.820312 210.429688 42.667969 210.851562 42.371094 C 211.257812 42.070312 211.476562 41.648438 211.476562 41.078125 C 211.476562 40.585938 211.328125 40.207031 211.027344 39.933594 C 210.726562 39.664062 210.238281 39.457031 209.558594 39.324219 L 208.742188 39.160156 C 207.734375 38.96875 207.011719 38.65625 206.566406 38.222656 C 206.117188 37.800781 205.898438 37.214844 205.898438 36.453125 C 205.898438 35.582031 206.199219 34.886719 206.824219 34.386719 C 207.433594 33.882812 208.292969 33.625 209.382812 33.625 C 209.84375 33.625 210.304688 33.664062 210.796875 33.746094 C 211.273438 33.828125 211.761719 33.964844 212.277344 34.125 Z M 212.277344 34.125 "/>
<path style=" stroke:none;fill-rule:nonzero;fill:rgb(0%,0%,0%);fill-opacity:1;" d="M 214.726562 33.390625 L 215.789062 33.390625 C 216.441406 34.4375 216.945312 35.460938 217.273438 36.464844 C 217.597656 37.472656 217.777344 38.464844 217.777344 39.445312 C 217.777344 40.4375 217.597656 41.429688 217.273438 42.4375 C 216.945312 43.445312 216.441406 44.449219 215.789062 45.5 L 214.726562 45.5 C 215.3125 44.476562 215.75 43.484375 216.046875 42.476562 C 216.332031 41.484375 216.484375 40.480469 216.484375 39.445312 C 216.484375 38.425781 216.332031 37.417969 216.046875 36.425781 C 215.75 35.433594 215.3125 34.425781 214.726562 33.390625 Z M 214.726562 33.390625 "/>
</g>
</svg>
