<svg width="460.79999999999995" height="345.6" xmlns="http://www.w3.org/2000/svg" xmlns:xlink="http://www.w3.org/1999/xlink">

 <symbol id="a">
  <path id="svg_1" d="m0.252,0.677c-0.051,0 -0.089,-0.025 -0.115,-0.075s-0.038,-0.125 -0.038,-0.225s0.012,-0.175 0.038,-0.225s0.064,-0.075 0.115,-0.075s0.089,0.025 0.115,0.075c0.025,0.05 0.038,0.125 0.038,0.225s-0.013,0.175 -0.038,0.225c-0.026,0.05 -0.064,0.075 -0.115,0.075zm0,0.078c0.081,0 0.143,-0.033 0.187,-0.097c0.043,-0.065 0.065,-0.159 0.065,-0.281c0,-0.123 -0.022,-0.217 -0.065,-0.281c-0.044,-0.064 -0.106,-0.096 -0.188,-0.096s-0.144,0.032 -0.187,0.096s-0.064,0.158 -0.064,0.281c0,0.122 0.021,0.216 0.064,0.281c0.043,0.064 0.106,0.097 0.188,0.097z"/>
 </symbol>
 <symbol id="b">
  <path id="svg_2" d="m124,83l161,0l0,556l-175,-35l0,90l174,35l99,0l0,-646l161,0l0,-83l-420,0l0,83z" transform="translate(-.11) scale(.001)"/>
 </symbol>
 <symbol id="c">
  <path id="svg_3" d="m192,83l344,0l0,-83l-463,0l0,83c37,38 88,90 153,156c64,65 105,107 122,126c32,35 54,65 66,90c12,24 19,49 19,73c0,38 -14,70 -41,94s-62,37 -106,37c-31,0 -64,-6 -98,-16c-34,-11 -71,-27 -110,-49l0,100c40,16 77,28 111,36s66,12 95,12c75,0 135,-19 180,-57s68,-88 68,-151c0,-30 -6,-59 -17,-85c-11,-27 -31,-59 -61,-95c-8,-10 -34,-37 -78,-82s-105,-108 -184,-189z" transform="translate(-.073) scale(.001)"/>
 </symbol>
 <symbol id="d">
  <path id="svg_4" d="m0.33,0.406c0.047,-0.01 0.084,-0.031 0.11,-0.063s0.04,-0.072 0.04,-0.118c0,-0.072 -0.025,-0.128 -0.074,-0.167c-0.05,-0.039 -0.12,-0.058 -0.211,-0.058c-0.031,0 -0.063,0.003 -0.095,0.009c-0.032,0.005 -0.066,0.014 -0.1,0.026l0,0.095c0.027,-0.016 0.057,-0.028 0.09,-0.036c0.032,-0.008 0.066,-0.012 0.102,-0.012c0.062,0 0.109,0.012 0.141,0.036s0.049,0.06 0.049,0.107c0,0.042 -0.015,0.076 -0.045,0.1s-0.072,0.037 -0.126,0.037l-0.085,0l0,0.081l0.089,0c0.048,0 0.085,0.009 0.111,0.029c0.026,0.019 0.039,0.047 0.039,0.084s-0.014,0.066 -0.04,0.086c-0.027,0.02 -0.065,0.03 -0.114,0.03c-0.027,0 -0.056,-0.003 -0.087,-0.009s-0.065,-0.015 -0.102,-0.027l0,0.088c0.037,0.01 0.072,0.018 0.105,0.023c0.032,0.005 0.063,0.008 0.093,0.008c0.074,0 0.133,-0.017 0.177,-0.051s0.066,-0.08 0.066,-0.138c0,-0.04 -0.012,-0.074 -0.035,-0.102s-0.056,-0.048 -0.098,-0.058z"/>
 </symbol>
 <symbol id="e">
  <path id="svg_5" d="m-2,729l616,0l0,-83l-259,0l0,-646l-99,0l0,646l-258,0l0,83z" transform="translate(.002) scale(.001)"/>
 </symbol>
 <symbol id="f">
  <path id="svg_6" d="m94,547l90,0l0,-547l-90,0l0,547zm0,213l90,0l0,-114l-90,0l0,114z" transform="translate(-.094) scale(.001)"/>
 </symbol>
 <symbol id="g">
  <path id="svg_7" d="m520,442c22,40 49,69 80,89c31,19 68,29 111,29c56,0 100,-20 131,-60s47,-97 47,-170l0,-330l-90,0l0,327c0,52 -10,91 -28,117c-19,25 -47,38 -85,38c-47,0 -84,-16 -111,-47s-40,-73 -40,-126l0,-309l-90,0l0,327c0,52 -10,91 -28,117c-19,25 -48,38 -86,38c-46,0 -83,-16 -110,-47s-40,-73 -40,-126l0,-309l-90,0l0,547l90,0l0,-85c20,33 45,58 74,74c28,16 62,24 102,24s73,-10 101,-30s48,-50 62,-88z" transform="translate(-.091) scale(.001)"/>
 </symbol>
 <symbol id="h">
  <path id="svg_8" d="m0.507,0.309l0,-0.044l-0.413,0c0.004,-0.062 0.022,-0.11 0.056,-0.142c0.033,-0.032 0.079,-0.048 0.139,-0.048c0.034,0 0.068,0.004 0.1,0.012s0.065,0.021 0.097,0.039l0,-0.085c-0.032,-0.014 -0.065,-0.025 -0.099,-0.031s-0.069,-0.01 -0.103,-0.01c-0.088,0 -0.157,0.025 -0.208,0.075s-0.076,0.119 -0.076,0.206c0,0.089 0.024,0.16 0.072,0.213c0.048,0.052 0.114,0.079 0.196,0.079c0.074,0 0.132,-0.024 0.175,-0.071c0.042,-0.048 0.064,-0.112 0.064,-0.193zm-0.09,0.026c-0.001,0.049 -0.015,0.088 -0.041,0.118c-0.027,0.029 -0.063,0.044 -0.107,0.044c-0.05,0 -0.09,-0.015 -0.12,-0.043s-0.048,-0.068 -0.052,-0.119l0.32,0z"/>
 </symbol>
 <symbol id="j">
  <path id="svg_9" d="m0,0.891l0.207,0l0,-0.07l-0.117,0l0,-0.751l0.117,0l0,-0.07l-0.207,0l0,0.891z"/>
 </symbol>
 <symbol id="k">
  <path id="svg_10" d="m0.389,0.544l0,-0.085c-0.026,0.012 -0.052,0.022 -0.079,0.029c-0.028,0.006 -0.056,0.01 -0.085,0.01c-0.045,0 -0.079,-0.007 -0.101,-0.021s-0.033,-0.034 -0.033,-0.061c0,-0.021 0.008,-0.037 0.024,-0.049s0.048,-0.024 0.096,-0.034l0.031,-0.007c0.064,-0.014 0.109,-0.034 0.136,-0.058c0.026,-0.025 0.04,-0.06 0.04,-0.104c0,-0.051 -0.02,-0.091 -0.06,-0.12c-0.04,-0.03 -0.096,-0.044 -0.166,-0.044c-0.03,0 -0.06,0.003 -0.092,0.008s-0.065,0.013 -0.1,0.025l0,0.093c0.033,-0.018 0.066,-0.031 0.098,-0.039c0.032,-0.009 0.064,-0.013 0.096,-0.013c0.042,0 0.075,0.007 0.098,0.021c0.022,0.014 0.034,0.035 0.034,0.062c0,0.024 -0.009,0.043 -0.025,0.056s-0.052,0.026 -0.108,0.038l-0.031,0.007c-0.056,0.012 -0.097,0.03 -0.121,0.054c-0.025,0.024 -0.037,0.057 -0.037,0.1c0,0.051 0.018,0.091 0.054,0.119s0.088,0.042 0.156,0.042c0.033,0 0.064,-0.003 0.094,-0.008c0.029,-0.005 0.056,-0.012 0.081,-0.021z"/>
 </symbol>
 <symbol id="l">
  <path id="svg_11" d="m0.207,0.891l0,-0.891l-0.207,0l0,0.07l0.117,0l0,0.751l-0.117,0l0,0.07l0.207,0z"/>
 </symbol>
 <symbol id="m">
  <path id="svg_12" d="m378,643l-249,-389l249,0l0,389zm-26,86l124,0l0,-475l104,0l0,-82l-104,0l0,-172l-98,0l0,172l-329,0l0,95l303,462z" transform="translate(-.049) scale(.001)"/>
 </symbol>
 <symbol id="n">
  <path id="svg_13" d="m0.26,0.417c-0.044,0 -0.079,-0.016 -0.105,-0.046s-0.039,-0.072 -0.039,-0.124c0,-0.053 0.013,-0.095 0.039,-0.125s0.061,-0.045 0.105,-0.045s0.079,0.015 0.105,0.045s0.039,0.072 0.039,0.125c0,0.052 -0.013,0.094 -0.039,0.124s-0.061,0.046 -0.105,0.046zm0.196,0.309l0,-0.09c-0.025,0.012 -0.05,0.021 -0.075,0.027c-0.026,0.006 -0.051,0.009 -0.075,0.009c-0.066,0 -0.116,-0.022 -0.15,-0.066s-0.054,-0.111 -0.058,-0.199c0.019,0.028 0.043,0.05 0.072,0.065s0.061,0.023 0.096,0.023c0.073,0 0.131,-0.023 0.173,-0.067s0.064,-0.105 0.064,-0.181c0,-0.075 -0.023,-0.135 -0.067,-0.18s-0.103,-0.067 -0.176,-0.067c-0.084,0 -0.149,0.032 -0.193,0.096c-0.045,0.064 -0.067,0.158 -0.067,0.281c0,0.115 0.027,0.207 0.082,0.275c0.054,0.068 0.128,0.103 0.22,0.103c0.024,0 0.049,-0.003 0.075,-0.007c0.025,-0.005 0.051,-0.012 0.079,-0.022z"/>
 </symbol>
 <symbol id="o">
  <path id="svg_14" d="m0.25,0.359c-0.047,0 -0.084,-0.013 -0.111,-0.038s-0.04,-0.059 -0.04,-0.103s0.013,-0.079 0.04,-0.104s0.064,-0.037 0.111,-0.037c0.046,0 0.083,0.012 0.11,0.038c0.027,0.025 0.041,0.059 0.041,0.103s-0.014,0.078 -0.04,0.103c-0.027,0.025 -0.064,0.038 -0.111,0.038zm-0.099,0.042c-0.042,0.01 -0.075,0.03 -0.099,0.059s-0.035,0.064 -0.035,0.106c0,0.058 0.02,0.104 0.062,0.138c0.041,0.034 0.098,0.051 0.171,0.051c0.072,0 0.129,-0.017 0.171,-0.051c0.041,-0.034 0.062,-0.08 0.062,-0.138c0,-0.042 -0.012,-0.077 -0.036,-0.106s-0.056,-0.049 -0.098,-0.059c0.047,-0.011 0.084,-0.033 0.111,-0.065c0.026,-0.032 0.04,-0.072 0.04,-0.118c0,-0.071 -0.022,-0.125 -0.065,-0.162c-0.044,-0.038 -0.106,-0.056 -0.186,-0.056s-0.142,0.018 -0.185,0.056c-0.043,0.037 -0.064,0.091 -0.064,0.162c0,0.046 0.013,0.086 0.04,0.118c0.026,0.032 0.063,0.054 0.111,0.065zm-0.036,0.156c0,-0.038 0.011,-0.068 0.035,-0.089s0.057,-0.031 0.1,-0.031c0.042,0 0.075,0.01 0.099,0.031s0.036,0.051 0.036,0.089s-0.012,0.067 -0.036,0.088s-0.057,0.032 -0.099,0.032c-0.043,0 -0.076,-0.011 -0.1,-0.032s-0.035,-0.05 -0.035,-0.088z"/>
 </symbol>
 <symbol id="p">
  <path id="svg_15" d="m0.338,0.675c-0.072,0 -0.129,-0.027 -0.171,-0.08c-0.042,-0.054 -0.063,-0.126 -0.063,-0.218s0.021,-0.165 0.063,-0.218c0.042,-0.054 0.099,-0.08 0.171,-0.08c0.071,0 0.128,0.026 0.17,0.08c0.042,0.053 0.063,0.126 0.063,0.218s-0.021,0.164 -0.063,0.218c-0.042,0.053 -0.099,0.08 -0.17,0.08zm0,0.08c0.102,0 0.183,-0.035 0.245,-0.103c0.061,-0.068 0.092,-0.16 0.092,-0.275c0,-0.116 -0.031,-0.207 -0.092,-0.275c-0.062,-0.068 -0.143,-0.102 -0.245,-0.102c-0.103,0 -0.185,0.034 -0.246,0.102c-0.062,0.068 -0.092,0.159 -0.092,0.275c0,0.115 0.03,0.207 0.092,0.275c0.061,0.068 0.143,0.103 0.246,0.103z"/>
 </symbol>
 <symbol id="q">
  <path id="svg_16" d="m411,463c-10,6 -21,10 -33,13c-12,2 -25,4 -39,4c-51,0 -90,-17 -117,-50c-28,-33 -41,-80 -41,-142l0,-288l-90,0l0,547l90,0l0,-85c18,33 43,58 73,74s67,24 111,24c6,0 13,-1 21,-1c7,-1 15,-2 25,-4l0,-92z" transform="translate(-.091) scale(.001)"/>
 </symbol>
 <symbol id="r">
  <path id="svg_17" d="m183,702l0,-155l185,0l0,-70l-185,0l0,-297c0,-45 6,-74 18,-86c12,-13 37,-19 75,-19l92,0l0,-75l-92,0c-70,0 -118,13 -144,39s-39,73 -39,141l0,297l-66,0l0,70l66,0l0,155l90,0z" transform="translate(-.027) scale(.001)"/>
 </symbol>
 <symbol id="s">
  <path id="svg_18" d="m549,330l0,-330l-90,0l0,327c0,52 -11,90 -31,116s-50,39 -90,39c-49,0 -87,-16 -115,-47s-42,-73 -42,-126l0,-309l-90,0l0,547l90,0l0,-85c21,32 46,57 76,73c29,16 63,25 101,25c62,0 110,-20 142,-59s49,-96 49,-171z" transform="translate(-.091) scale(.001)"/>
 </symbol>
 <symbol id="t">
  <path id="svg_19" d="m0.283,0.288c-0.073,0 -0.123,-0.009 -0.151,-0.025c-0.028,-0.017 -0.042,-0.045 -0.042,-0.085c0,-0.032 0.01,-0.058 0.031,-0.076c0.021,-0.019 0.05,-0.028 0.086,-0.028c0.05,0 0.09,0.017 0.12,0.053c0.03,0.035 0.045,0.082 0.045,0.141l0,0.02l-0.089,0zm0.179,0.037l0,-0.312l-0.09,0l0,0.083c-0.021,-0.034 -0.047,-0.058 -0.077,-0.073s-0.068,-0.023 -0.112,-0.023c-0.056,0 -0.101,0.015 -0.134,0.046s-0.049,0.073 -0.049,0.126c0,0.061 0.02,0.107 0.062,0.139c0.041,0.031 0.102,0.047 0.184,0.047l0.126,0l0,0.009c0,0.041 -0.014,0.073 -0.041,0.096c-0.027,0.022 -0.065,0.034 -0.114,0.034c-0.032,0 -0.062,-0.004 -0.092,-0.012s-0.058,-0.019 -0.085,-0.033l0,0.083c0.032,0.012 0.064,0.022 0.095,0.028s0.061,0.01 0.091,0.01c0.079,0 0.138,-0.021 0.177,-0.062s0.059,-0.103 0.059,-0.186z"/>
 </symbol>
 <symbol id="u">
  <path id="svg_20" d="m0.251,0.497c-0.048,0 -0.086,-0.019 -0.114,-0.057s-0.042,-0.089 -0.042,-0.154c0,-0.066 0.013,-0.117 0.041,-0.155s0.066,-0.056 0.115,-0.056c0.048,0 0.086,0.018 0.114,0.056s0.042,0.089 0.042,0.155c0,0.064 -0.014,0.116 -0.042,0.154s-0.066,0.057 -0.114,0.057zm0,0.076c0.078,0 0.139,-0.026 0.184,-0.076c0.044,-0.051 0.067,-0.121 0.067,-0.211s-0.023,-0.16 -0.067,-0.21c-0.045,-0.051 -0.106,-0.076 -0.184,-0.076c-0.079,0 -0.141,0.025 -0.185,0.076c-0.044,0.05 -0.066,0.12 -0.066,0.21s0.022,0.16 0.066,0.211c0.044,0.05 0.106,0.076 0.185,0.076z"/>
 </symbol>
 <symbol id="v">
  <path id="svg_21" d="m0.155,0.247c-0.026,0 -0.048,-0.009 -0.066,-0.027s-0.027,-0.04 -0.027,-0.066s0.009,-0.048 0.027,-0.066s0.04,-0.026 0.066,-0.026s0.048,0.008 0.066,0.026s0.027,0.04 0.027,0.066s-0.009,0.048 -0.027,0.066s-0.04,0.027 -0.066,0.027zm0,0.063c0.02,0 0.04,-0.004 0.06,-0.012c0.019,-0.008 0.036,-0.02 0.05,-0.034c0.014,-0.015 0.025,-0.032 0.033,-0.05c0.008,-0.019 0.012,-0.039 0.012,-0.06c0,-0.044 -0.016,-0.08 -0.046,-0.11s-0.067,-0.044 -0.11,-0.044c-0.044,0 -0.081,0.014 -0.11,0.044c-0.03,0.029 -0.044,0.066 -0.044,0.11c0,0.043 0.015,0.08 0.045,0.11s0.066,0.046 0.11,0.046z"/>
 </symbol>
 <clipPath id="w">
  <path id="svg_22" d="m103.104,307.58401l266.112,0l0,-266.112l-266.112,0l0,266.112z"/>
 </clipPath>
 <clipPath id="x">
  <path id="svg_23" d="m103.104,307.58401l266.112,0l0,-266.112l-266.112,0l0,266.112z"/>
 </clipPath>
 <symbol id="y">
  <path id="svg_24" d="m0.588,0.686l0,-0.104c-0.034,0.03 -0.069,0.053 -0.107,0.069c-0.038,0.015 -0.077,0.023 -0.119,0.023c-0.084,0 -0.148,-0.026 -0.192,-0.077s-0.066,-0.124 -0.066,-0.22s0.022,-0.17 0.066,-0.221s0.108,-0.076 0.192,-0.076c0.042,0 0.081,0.007 0.119,0.023c0.038,0.015 0.073,0.038 0.107,0.069l0,-0.103c-0.035,-0.024 -0.072,-0.041 -0.11,-0.052s-0.079,-0.017 -0.122,-0.017c-0.11,0 -0.197,0.033 -0.261,0.1s-0.095,0.159 -0.095,0.277c0,0.117 0.031,0.209 0.095,0.277c0.064,0.067 0.151,0.101 0.261,0.101c0.044,0 0.085,-0.006 0.123,-0.017c0.038,-0.012 0.075,-0.029 0.109,-0.052z"/>
 </symbol>
 <symbol id="z">
  <path id="svg_25" d="m0,0.229l0,0.331l0.09,0l0,-0.328c0,-0.052 0.01,-0.09 0.03,-0.116s0.05,-0.039 0.091,-0.039c0.048,0 0.087,0.015 0.115,0.046s0.042,0.073 0.042,0.127l0,0.31l0.09,0l0,-0.547l-0.09,0l0,0.084c-0.022,-0.034 -0.048,-0.058 -0.076,-0.074c-0.029,-0.015 -0.062,-0.023 -0.1,-0.023c-0.063,0 -0.111,0.019 -0.143,0.058c-0.033,0.038 -0.049,0.095 -0.049,0.171zm0.226,0.344z"/>
 </symbol>
 <symbol id="A">
  <path id="svg_26" d="m0.224,0.89c-0.044,-0.076 -0.076,-0.15 -0.097,-0.223c-0.022,-0.073 -0.032,-0.147 -0.032,-0.222c0,-0.076 0.01,-0.15 0.032,-0.223c0.021,-0.074 0.053,-0.147 0.097,-0.222l-0.078,0c-0.049,0.077 -0.086,0.151 -0.11,0.225s-0.036,0.147 -0.036,0.22c0,0.072 0.012,0.145 0.036,0.219s0.06,0.149 0.11,0.226l0.078,0z"/>
 </symbol>
 <symbol id="B">
  <path id="svg_27" d="m0.469,0.718l0,-0.096c-0.038,0.018 -0.073,0.031 -0.106,0.04c-0.034,0.008 -0.066,0.013 -0.096,0.013c-0.054,0 -0.096,-0.011 -0.125,-0.031c-0.029,-0.021 -0.043,-0.051 -0.043,-0.089c0,-0.032 0.009,-0.057 0.029,-0.073c0.019,-0.017 0.056,-0.03 0.11,-0.04l0.06,-0.012c0.073,-0.014 0.127,-0.039 0.162,-0.074c0.035,-0.036 0.053,-0.083 0.053,-0.142c0,-0.071 -0.024,-0.124 -0.071,-0.16c-0.048,-0.036 -0.117,-0.054 -0.208,-0.054c-0.035,0 -0.072,0.004 -0.111,0.011s-0.079,0.018 -0.12,0.034l0,0.102c0.04,-0.023 0.079,-0.04 0.117,-0.051c0.038,-0.012 0.076,-0.017 0.114,-0.017c0.056,0 0.099,0.011 0.13,0.033c0.03,0.022 0.046,0.053 0.046,0.095c0,0.036 -0.011,0.064 -0.033,0.084s-0.058,0.035 -0.108,0.045l-0.06,0.012c-0.074,0.014 -0.127,0.037 -0.16,0.069c-0.033,0.031 -0.049,0.074 -0.049,0.13c0,0.064 0.022,0.115 0.068,0.152c0.045,0.037 0.108,0.056 0.188,0.056c0.034,0 0.068,-0.003 0.104,-0.009c0.035,-0.006 0.071,-0.016 0.109,-0.028z"/>
 </symbol>
 <symbol id="C">
  <path id="svg_28" d="m0,0.89l0.078,0c0.048,-0.077 0.085,-0.152 0.109,-0.226s0.037,-0.147 0.037,-0.219c0,-0.073 -0.013,-0.146 -0.037,-0.22s-0.061,-0.148 -0.109,-0.225l-0.078,0c0.043,0.075 0.075,0.148 0.097,0.222c0.021,0.073 0.032,0.147 0.032,0.223c0,0.075 -0.011,0.149 -0.032,0.222c-0.022,0.073 -0.054,0.147 -0.097,0.223z"/>
 </symbol>
 <symbol id="D">
  <path id="svg_29" d="m197,648l0,-567l119,0c100,0 174,22 221,68c46,46 70,118 70,216s-24,169 -70,215c-47,45 -121,68 -221,68l-119,0zm-99,81l203,0c141,0 245,-30 311,-88c66,-59 99,-151 99,-276c0,-126 -34,-218 -100,-277s-170,-88 -310,-88l-203,0l0,729z" transform="translate(-.098) scale(.001)"/>
 </symbol>
 <symbol id="E">
  <path id="svg_30" d="m0.399,0.477l0,0.296l0.09,0l0,-0.76l-0.09,0l0,0.082c-0.019,-0.033 -0.043,-0.057 -0.072,-0.072s-0.063,-0.023 -0.103,-0.023c-0.066,0 -0.12,0.026 -0.162,0.078s-0.062,0.122 -0.062,0.208s0.02,0.155 0.062,0.208c0.042,0.052 0.096,0.079 0.162,0.079c0.04,0 0.074,-0.008 0.103,-0.024s0.053,-0.04 0.072,-0.072zm-0.306,-0.191c0,-0.066 0.013,-0.118 0.04,-0.156s0.064,-0.056 0.112,-0.056s0.085,0.018 0.113,0.056c0.027,0.038 0.041,0.09 0.041,0.156s-0.014,0.117 -0.041,0.155c-0.028,0.038 -0.065,0.057 -0.113,0.057s-0.085,-0.019 -0.112,-0.057s-0.04,-0.089 -0.04,-0.155z"/>
 </symbol>
 <g>
  <title>Layer 1</title>
  <path id="svg_31" fill="#fff" d="m0,346.02194l460.8,0l0,-345.6l-460.8,0l0,345.6z"/>
  <path id="svg_32" fill="#fff" d="m103.104,307.584l266.112,0l0,-266.112l-266.112,0l0,266.112z"/>
  <path id="svg_33" d="m113.135,307.584l0,3.5" stroke="#000" fill="none" stroke-linejoin="round" stroke-width="0.8"/>
  <use id="svg_34" transform="matrix(10 0 0 -10 110.615 322.308)" xlink:href="#a"/>
  <path id="svg_35" d="m178.071,307.584l0,3.5" stroke="#000" fill="none" stroke-linejoin="round" stroke-width="0.8"/>
  <use id="svg_36" transform="matrix(10 0 0 -10 172.812 322.178)" xlink:href="#b"/>
  <use id="svg_37" transform="matrix(10 0 0 -10 178.732 322.308)" xlink:href="#a"/>
  <path id="svg_38" d="m243.008,307.584l0,3.5" stroke="#000" fill="none" stroke-linejoin="round" stroke-width="0.8"/>
  <use id="svg_39" transform="matrix(10 0 0 -10 237.378 322.178)" xlink:href="#c"/>
  <use id="svg_40" transform="matrix(10 0 0 -10 243.668 322.308)" xlink:href="#a"/>
  <path id="svg_41" d="m307.944,307.584l0,3.5" stroke="#000" fill="none" stroke-linejoin="round" stroke-width="0.8"/>
  <use id="svg_42" transform="matrix(10 0 0 -10 302.344 322.308)" xlink:href="#d"/>
  <use id="svg_43" transform="matrix(10 0 0 -10 308.604 322.308)" xlink:href="#a"/>
  <use id="svg_44" transform="matrix(10 0 0 -10 215.757 335.85)" xlink:href="#e"/>
  <use id="svg_45" transform="matrix(10 0 0 -10 222.53 335.85)" xlink:href="#f"/>
  <use id="svg_46" transform="matrix(10 0 0 -10 225.28 335.85)" xlink:href="#g"/>
  <use id="svg_47" transform="matrix(10 0 0 -10 234.66 335.98)" xlink:href="#h"/>
  <use id="svg_48" transform="matrix(10 0 0 -10 240.26 335.85)" xlink:href="#i"/>
  <use id="svg_49" transform="matrix(10 0 0 -10 244.3 337.16)" xlink:href="#j"/>
  <use id="svg_50" transform="matrix(10 0 0 -10 247.88 335.98)" xlink:href="#k"/>
  <use id="svg_51" transform="matrix(10 0 0 -10 253.52 337.16)" xlink:href="#l"/>
  <path id="svg_52" d="m103.104,293.893l-3.5,0" stroke="#000" fill="none" stroke-linejoin="round" stroke-width="0.8"/>
  <use id="svg_53" transform="matrix(10 0 0 -10 83.875 297.69)" xlink:href="#m"/>
  <use id="svg_54" transform="matrix(10 0 0 -10 90.405 297.82)" xlink:href="#a"/>
  <path id="svg_55" d="m103.104,258.691l-3.5,0" stroke="#000" fill="none" stroke-linejoin="round" stroke-width="0.8"/>
  <use id="svg_56" transform="matrix(10 0 0 -10 84.085 262.618)" xlink:href="#n"/>
  <use id="svg_57" transform="matrix(10 0 0 -10 90.405 262.618)" xlink:href="#a"/>
  <path id="svg_58" d="m103.104,223.49l-3.5,0" stroke="#000" fill="none" stroke-linejoin="round" stroke-width="0.8"/>
  <use id="svg_59" transform="matrix(10 0 0 -10 84.065 227.417)" xlink:href="#o"/>
  <use id="svg_60" transform="matrix(10 0 0 -10 90.405 227.417)" xlink:href="#a"/>
  <path id="svg_61" d="m103.104,188.288l-3.5,0" stroke="#000" fill="none" stroke-linejoin="round" stroke-width="0.8"/>
  <use id="svg_62" transform="matrix(10 0 0 -10 78.126 192.085)" xlink:href="#b"/>
  <use id="svg_63" transform="matrix(10 0 0 -10 84.046 192.215)" xlink:href="#a"/>
  <use id="svg_64" transform="matrix(10 0 0 -10 90.406 192.215)" xlink:href="#a"/>
  <path id="svg_65" d="m103.104,153.086l-3.5,0" stroke="#000" fill="none" stroke-linejoin="round" stroke-width="0.8"/>
  <use id="svg_66" transform="matrix(10 0 0 -10 78.126 156.883)" xlink:href="#b"/>
  <use id="svg_67" transform="matrix(10 0 0 -10 84.116 156.883)" xlink:href="#c"/>
  <use id="svg_68" transform="matrix(10 0 0 -10 90.406 157.013)" xlink:href="#a"/>
  <path id="svg_69" d="m103.104,117.885l-3.5,0" stroke="#000" fill="none" stroke-linejoin="round" stroke-width="0.8"/>
  <use id="svg_70" transform="matrix(10 0 0 -10 78.126 121.682)" xlink:href="#b"/>
  <use id="svg_71" transform="matrix(10 0 0 -10 83.876 121.682)" xlink:href="#m"/>
  <use id="svg_72" transform="matrix(10 0 0 -10 90.406 121.812)" xlink:href="#a"/>
  <path id="svg_73" d="m103.104,82.683l-3.5,0" stroke="#000" fill="none" stroke-linejoin="round" stroke-width="0.8"/>
  <use id="svg_74" transform="matrix(10 0 0 -10 78.126 86.48)" xlink:href="#b"/>
  <use id="svg_75" transform="matrix(10 0 0 -10 84.086 86.61)" xlink:href="#n"/>
  <use id="svg_76" transform="matrix(10 0 0 -10 90.406 86.61)" xlink:href="#a"/>
  <path id="svg_77" d="m103.104,47.481l-3.5,0" stroke="#000" fill="none" stroke-linejoin="round" stroke-width="0.8"/>
  <use id="svg_78" transform="matrix(10 0 0 -10 78.126 51.278)" xlink:href="#b"/>
  <use id="svg_79" transform="matrix(10 0 0 -10 84.066 51.408)" xlink:href="#o"/>
  <use id="svg_80" transform="matrix(10 0 0 -10 90.406 51.408)" xlink:href="#a"/>
  <use x="0.42194" y="-0.0211" id="svg_81" transform="matrix(0 -10 -10 0 71.078 212.171)" xlink:href="#p"/>
  <use x="0.42194" y="-0.0211" id="svg_82" transform="matrix(0 -10 -10 0 70.948 203.951)" xlink:href="#q"/>
  <use x="0.42194" y="-0.0211" id="svg_83" transform="matrix(0 -10 -10 0 70.948 199.811)" xlink:href="#f"/>
  <use id="svg_85" transform="matrix(0 -10 -10 0 71.078 193.501)" xlink:href="#h"/>
  <use id="svg_86" transform="matrix(0 -10 -10 0 70.948 186.991)" xlink:href="#s"/>
  <use id="svg_87" transform="matrix(0 -10 -10 0 70.948 181.291)" xlink:href="#r"/>
  <use id="svg_88" transform="matrix(0 -10 -10 0 71.078 177.041)" xlink:href="#t"/>
  <use id="svg_89" transform="matrix(0 -10 -10 0 70.948 171.241)" xlink:href="#r"/>
  <use id="svg_90" transform="matrix(0 -10 -10 0 70.948 166.651)" xlink:href="#f"/>
  <use id="svg_91" transform="matrix(0 -10 -10 0 71.078 164.261)" xlink:href="#u"/>
  <use id="svg_92" transform="matrix(0 -10 -10 0 70.948 157.781)" xlink:href="#s"/>
  <use id="svg_93" transform="matrix(0 -10 -10 0 70.948 152.351)" xlink:href="#i"/>
  <use id="svg_94" transform="matrix(0 -10 -10 0 72.258 148.311)" xlink:href="#j"/>
  <use id="svg_95" transform="matrix(0 -10 -10 0 66.628 144.321)" xlink:href="#v"/>
  <use id="svg_96" transform="matrix(0 -10 -10 0 72.258 139.301)" xlink:href="#l"/>
  <g id="svg_97" clip-path="url(#w)">
   <path id="svg_98" d="m115.2,205.887l0.286,0l0.11,0.243l0.292,-0.137l0.643,0.225l0.13,-0.093l0.195,0.145l0.065,-0.235l0.214,0.06l0.695,-0.086l0.097,-0.122l0.286,0l0.13,-0.169l0.247,0.06l0.117,-0.158l0.136,0.109l0.805,-0.135l0.435,0.009l0.098,-0.138l0.078,0.096l0.142,-0.135l0.13,0.095l0.676,-0.121l0.52,-0.075l0.252,-0.08l0.377,-0.032l0.643,-0.148l0.441,-0.07l0.786,-0.254l0.325,-0.065l0.415,-0.104l0.637,-0.055l0.402,-0.064l1.961,0.114l0.286,0.077l0.617,0.044l0.11,0.11l0.286,-0.034l0.37,0.076l1.189,0.116l0.214,0.038l1.708,0.115l0.26,0.071l0.876,0.073l0.162,0.106l0.65,0.106l4.552,0.839l0.273,0.034l0.214,0l0.76,0.173l0.727,0.104l0.63,0.138l0.383,0l0.273,0.104l0.13,-0.07l0.103,0.104l0.26,0l1.578,0.102l0.494,0.069l0.48,-0.035l0.312,0.035l1.448,0.103l0.364,0.035l8.701,-0.07l0.13,-0.07l0.831,0.035l0.637,-0.015l0.233,0.106l1.546,0.03l2.909,-0.531l1.292,-0.107l0.338,-0.034l0.688,-0.069l1.565,-0.102l0.494,-0.035l0.402,0l0.357,-0.035l0.429,0.035l0.22,-0.035l0.3,0l0.519,-0.035l0.35,0.07l0.39,-0.07l0.526,0.034l0.137,-0.07l0.149,0.07l0.974,-0.035l1.513,0.07l0.214,0l0.617,0.103l0.396,-0.034l0.143,0.034l0.305,0.035l0.643,0.103l0.117,-0.069l0.266,0.07l0.812,0.103l0.234,0l0.74,0.103l0.28,0l0.791,0.069l0.098,-0.035l0.662,0.139l0.403,0l1.734,0.07l0.084,0.07l0.539,-0.036l0.494,0.07l0.311,-0.035l0.338,0.07l0.422,-0.001l3.838,-0.001l0.311,2.728l0.526,1.191l0.124,-0.048l0.363,-1.404l0.955,-1.661l0.097,-0.532l0.397,-1.026l0.487,-2.906l0.123,-0.542l0.28,-0.62l0.252,-1.658l0.312,-1.916l2.825,-12.937l1.052,-5.647l0.863,-5.534l3.403,-32.155l0.942,-7.39l0.246,-1.963l0.202,-0.89l0.46,-3.556l0.754,-4.735l1.61,-7.036l0.254,-0.742l0.344,0.803l0.383,0.275l0.39,0.004l0.344,-0.38l0.337,-0.756l0.656,-1.777l0.461,-1.67l0.416,-1.44l0.89,-3.712l0.915,-3.24l1.812,-5.593l0.941,-2.576l0.76,-2.271l1.968,-5.043l1.558,-4.825l0.721,-2l0.5,-1.517l1.084,-4.008l0.468,-1.405l0.792,-2.35l1.974,-6.114l2.098,-5.454l0.175,-0.263l0.292,-0.816l0.383,-0.613l0.533,-1.029l1.396,-2.225l1.007,-1.061l0.74,-0.642l1.695,-0.735l1.669,-0.173l1.019,0.247l4.448,2.337l0.883,0.443l1.293,0.633l2.746,1.333l0.637,0.425l0.733,0.407l0.78,0.425l0.506,0.22l1.442,0.516l2.22,0.63l0.734,0.186l2.37,0.55l1.384,0.193l0.208,-0.09l0.467,0.123l0.552,0.053l1.026,0.559l1.299,1.012l0.662,0.356l1.312,1.026l0.487,0.242l0.253,0.12l0.227,0.375l0.286,0.144l0.247,-0.038l0.253,0.073l1.591,1.397l0.766,0.743l0.786,0.692l0.455,0.437l0.506,0.39l0.526,0.491l1.422,1.223l0.669,0.67l0.318,0.145l1.117,1.081l0.974,0.658l1.208,0.559l0.812,-2.929l0.266,-0.256l0.26,0.138l0.324,0.361l0.182,0.23l0.65,1.672l1.123,4.322l0.299,0.944l2.467,9.938l1.526,8.493l1.098,8.134l2.013,24.569l0.824,13.147l0.396,4.237l0.948,17.637l0.897,13.636l0.357,8.488l1.448,26.898l0.493,9.445l0.5,11.65l1.17,20.019l2.2,29.223l1.091,7.495l0.52,2.398l0.416,0.945l0.194,0.088l0.422,-0.304l0.397,-0.778l1.675,-3.765l1.539,-2.401l0.941,-1.938l0.552,-1.493l1.247,-5.277l0.929,-6.558l0.331,-1.738l1.552,-10.604l0.416,-4.184l0.344,-2.638l0.883,-9.47l1.467,-16.75l1.676,-20.46l1.428,-12.945l0.215,-0.905l0.571,-1.085l0.422,-0.29l0.247,0.076l0.182,0.101l2.084,3.569l2.299,2.556l0.714,1.45l0.643,1.89l0.961,3.444l1.948,9.428l0.494,2.628l1.526,7.05l0.708,3.05l1.11,4.372l0.41,1.527l2.61,6.867l0.733,1.28l1.026,0.423l1.234,-0.239l0.312,-0.044l0.169,0.033l0.61,-0.198l0.669,-0.121l1.026,-0.458l0.617,-0.473l0.435,-0.48l3.117,-6.893l0.428,-0.387l0.208,-0.61l0.812,-1.15l0.273,-0.385l0.181,-0.134l0.195,-0.417l0.526,-0.645l0.234,-0.323l0.273,-0.296l0.915,-0.843l0.5,-0.412l0.26,-0.173l0.922,-0.479l0.37,-0.163l1.987,-0.554l1.04,0.085l0.233,0.07l0.533,0.292l0.292,0.048l0.084,0.075l0.61,0.212l0.208,0.142l0.78,0.354l0.22,0.147l1.74,0.758l0.728,0.388l0.701,0.263l2.202,0.965l0.487,0.215l1.714,0.646l0.961,0.22" stroke="teal" fill="none" stroke-linejoin="round" stroke-linecap="square" stroke-width="2.5"/>
  </g>
  <g id="svg_99" clip-path="url(#x)">
   <path id="svg_100" d="m115.2,206.893l71.988,0.121l0.299,-80.329l0.812,0l0.097,15.84l0.227,0l0.124,-15.84l1.669,0l0.227,10.56l0.188,-15.84l0.215,0l0.123,15.84l0.28,0l0.123,-10.56l0.13,15.84l0.123,0l0.188,-15.84l0.104,-5.28l0.11,10.56l0.234,-5.28l0.098,15.84l0.233,0l0.104,-10.56l0.37,0l0.221,5.28l0.104,-15.84l0.104,10.56l0.123,0l0.24,-10.56l0.13,0l0.156,10.56l0.163,-5.28l0.104,5.28l0.116,0l0.11,-10.56l0.774,0l0.13,10.56l8.253,0l0.136,-63.363l2.176,0l0.116,-5.28l44.755,0l0.246,15.84l0.26,-5.28l0.253,-10.56l0.202,21.121l0.26,-10.56l4.909,0l0.2,10.56l0.228,5.28l0.24,-21.12l0.273,26.4l0.26,-5.28l0.24,-10.56l10.208,0l0.331,147.605l0.643,0.116l3.227,0l0.13,1.086l1.883,0.548l3.013,0.856l1.773,0.425l1.26,0.316l6.072,0.741l2.363,-0.021l3.02,-0.298l2.915,-0.414l1.916,-0.278l5.507,-0.595l3.85,-0.056l2.552,0.233l2.364,0.237l10.799,0.822l5.364,0.028l9.032,-0.003l20.15,0.633" stroke="red" fill="none" stroke-linejoin="round" stroke-dasharray="9.25,4" stroke-width="2.5"/>
  </g>
  <path id="svg_101" d="m103.104,307.584l0,-266.112m266.112,266.112l0,-266.112m-266.112,266.112l266.112,0m-266.112,-266.112l266.112,0" stroke="#000" fill="none" stroke-miterlimit="10" stroke-linecap="square" stroke-width="0.8"/>
  <path id="svg_102" fill-opacity="0.8" fill="#fff" d="m110.104,302.584l153.36,0c1.333,0 2,-0.667 2,-2l0,-28.344c0,-1.333 -0.667,-2 -2,-2l-153.36,0c-1.333,0 -2,0.667 -2,2l0,28.344c0,1.333 0.667,2 2,2z"/>
  <path id="svg_103" d="m110.104,302.584l153.36,0c1.333,0 2,-0.667 2,-2l0,-28.344c0,-1.333 -0.667,-2 -2,-2l-153.36,0c-1.333,0 -2,0.667 -2,2l0,28.344c0,1.333 0.667,2 2,2z" stroke-opacity="0.8" stroke="#d5d6d5" fill="none" stroke-miterlimit="10"/>
  <path id="svg_104" d="m112.104,278.334l20,0" stroke="teal" fill="none" stroke-linejoin="round" stroke-linecap="square" stroke-width="2.5"/>
  <use id="svg_105" transform="matrix(10 0 0 -10 140.664 281.964)" xlink:href="#y"/>
  <use id="svg_106" transform="matrix(10 0 0 -10 147.934 281.964)" xlink:href="#z"/>
  <use id="svg_107" transform="matrix(10 0 0 -10 154.334 281.834)" xlink:href="#q"/>
  <use id="svg_108" transform="matrix(10 0 0 -10 158.272 281.834)" xlink:href="#q"/>
  <use id="svg_109" transform="matrix(10 0 0 -10 161.803 281.964)" xlink:href="#h"/>
  <use id="svg_110" transform="matrix(10 0 0 -10 168.313 281.834)" xlink:href="#s"/>
  <use id="svg_111" transform="matrix(10 0 0 -10 174.013 281.834)" xlink:href="#r"/>
  <use id="svg_112" transform="matrix(10 0 0 -10 177.663 281.834)" xlink:href="#i"/>
  <use id="svg_113" transform="matrix(10 0 0 -10 181.393 281.964)" xlink:href="#u"/>
  <use id="svg_114" transform="matrix(10 0 0 -10 187.873 281.834)" xlink:href="#q"/>
  <use id="svg_115" transform="matrix(10 0 0 -10 192.013 281.834)" xlink:href="#f"/>
  <use id="svg_116" transform="matrix(10 0 0 -10 194.403 281.964)" xlink:href="#h"/>
  <use id="svg_117" transform="matrix(10 0 0 -10 200.913 281.834)" xlink:href="#s"/>
  <use id="svg_118" transform="matrix(10 0 0 -10 206.613 281.834)" xlink:href="#r"/>
  <use id="svg_119" transform="matrix(10 0 0 -10 210.863 281.964)" xlink:href="#t"/>
  <use id="svg_120" transform="matrix(10 0 0 -10 216.663 281.834)" xlink:href="#r"/>
  <use id="svg_121" transform="matrix(10 0 0 -10 221.253 281.834)" xlink:href="#f"/>
  <use id="svg_122" transform="matrix(10 0 0 -10 223.643 281.964)" xlink:href="#u"/>
  <use id="svg_123" transform="matrix(10 0 0 -10 230.123 281.834)" xlink:href="#s"/>
  <use id="svg_124" transform="matrix(10 0 0 -10 235.553 281.834)" xlink:href="#i"/>
  <use id="svg_125" transform="matrix(10 0 0 -10 239.593 283.144)" xlink:href="#A"/>
  <use id="svg_126" transform="matrix(10 0 0 -10 243.193 281.964)" xlink:href="#p"/>
  <use id="svg_127" transform="matrix(10 0 0 -10 251.163 281.964)" xlink:href="#B"/>
  <use id="svg_128" transform="matrix(10 0 0 -10 257.653 283.144)" xlink:href="#C"/>
  <path id="svg_129" d="m112.104,293.006l20,0" stroke="red" fill="none" stroke-linejoin="round" stroke-dasharray="9.25,4" stroke-width="2.5"/>
  <use id="svg_130" transform="matrix(10 0 0 -10 141.084 296.506)" xlink:href="#D"/>
  <use id="svg_131" transform="matrix(10 0 0 -10 148.354 296.636)" xlink:href="#h"/>
  <use id="svg_132" transform="matrix(10 0 0 -10 154.494 296.636)" xlink:href="#k"/>
  <use id="svg_133" transform="matrix(10 0 0 -10 160.104 296.506)" xlink:href="#f"/>
  <use id="svg_134" transform="matrix(10 0 0 -10 162.854 296.506)" xlink:href="#q"/>
  <use id="svg_135" transform="matrix(10 0 0 -10 166.385 296.636)" xlink:href="#h"/>
  <use id="svg_136" transform="matrix(10 0 0 -10 172.535 296.636)" xlink:href="#E"/>
  <use id="svg_137" transform="matrix(10 0 0 -10 178.335 296.506)" xlink:href="#i"/>
  <use id="svg_138" transform="matrix(10 0 0 -10 182.065 296.636)" xlink:href="#u"/>
  <use id="svg_139" transform="matrix(10 0 0 -10 188.545 296.506)" xlink:href="#q"/>
  <use id="svg_140" transform="matrix(10 0 0 -10 192.685 296.506)" xlink:href="#f"/>
  <use id="svg_141" transform="matrix(10 0 0 -10 195.075 296.636)" xlink:href="#h"/>
  <use id="svg_142" transform="matrix(10 0 0 -10 201.585 296.506)" xlink:href="#s"/>
  <use id="svg_143" transform="matrix(10 0 0 -10 207.285 296.506)" xlink:href="#r"/>
  <use id="svg_144" transform="matrix(10 0 0 -10 211.535 296.636)" xlink:href="#t"/>
  <use id="svg_145" transform="matrix(10 0 0 -10 217.335 296.506)" xlink:href="#r"/>
  <use id="svg_146" transform="matrix(10 0 0 -10 221.925 296.506)" xlink:href="#f"/>
  <use id="svg_147" transform="matrix(10 0 0 -10 224.315 296.636)" xlink:href="#u"/>
  <use id="svg_148" transform="matrix(10 0 0 -10 230.795 296.506)" xlink:href="#s"/>
  <use id="svg_149" transform="matrix(10 0 0 -10 236.225 296.506)" xlink:href="#i"/>
  <use id="svg_150" transform="matrix(10 0 0 -10 240.265 297.816)" xlink:href="#A"/>
  <use id="svg_151" transform="matrix(10 0 0 -10 243.865 296.636)" xlink:href="#p"/>
  <use id="svg_152" transform="matrix(10 0 0 -10 251.835 296.636)" xlink:href="#B"/>
  <use id="svg_153" transform="matrix(10 0 0 -10 258.325 297.816)" xlink:href="#C"/>
 </g>
</svg>