<svg xmlns="http://www.w3.org/2000/svg" xmlns:xlink="http://www.w3.org/1999/xlink" width="304pt" height="396" viewBox="0 0 304 297"><clipPath id="a"><path transform="matrix(1 0 0 -1 -66 305)" d="M0 0h460.8v345.6H0z"/></clipPath><g clip-path="url(#a)"><path d="M-66 305h460.8V-40.6H-66z" fill="#fff"/><path d="M37.104 266.984h266.112V.872H37.104z" fill="#fff"/><path stroke-width=".8" stroke-linejoin="round" fill="none" stroke="#000" d="M47.135 266.984v3.5"/><symbol id="b"><path transform="matrix(.001 0 0 .001 -.066 .013)" d="M318 664c-51 0-89-25-115-75s-38-125-38-225 12-175 38-225 64-75 115-75 89 25 115 75c25 50 38 125 38 225s-13 175-38 225c-26 50-64 75-115 75zm0 78c81 0 143-33 187-97 43-65 65-159 65-281 0-123-22-217-65-281-44-64-106-96-188-96S173 19 130 83 66 241 66 364c0 122 21 216 64 281 43 64 106 97 188 97z"/></symbol><use xlink:href="#b" transform="matrix(10 0 0 -10 44.615 281.708)"/><path stroke-width=".8" stroke-linejoin="round" fill="none" stroke="#000" d="M112.071 266.984v3.5"/><symbol id="c"><path transform="translate(-.11) scale(.001)" d="M124 83h161v556l-175-35v90l174 35h99V83h161V0H124v83z"/></symbol><use xlink:href="#c" transform="matrix(10 0 0 -10 106.812 281.578)"/><use xlink:href="#b" transform="matrix(10 0 0 -10 112.732 281.708)"/><path stroke-width=".8" stroke-linejoin="round" fill="none" stroke="#000" d="M177.008 266.984v3.5"/><symbol id="d"><path transform="translate(-.073) scale(.001)" d="M192 83h344V0H73v83c37 38 88 90 153 156 64 65 105 107 122 126 32 35 54 65 66 90 12 24 19 49 19 73 0 38-14 70-41 94s-62 37-106 37c-31 0-64-6-98-16-34-11-71-27-110-49v100c40 16 77 28 111 36s66 12 95 12c75 0 135-19 180-57s68-88 68-151c0-30-6-59-17-85-11-27-31-59-61-95-8-10-34-37-78-82S271 164 192 83z"/></symbol><use xlink:href="#d" transform="matrix(10 0 0 -10 171.378 281.578)"/><use xlink:href="#b" transform="matrix(10 0 0 -10 177.668 281.708)"/><path stroke-width=".8" stroke-linejoin="round" fill="none" stroke="#000" d="M241.944 266.984v3.5"/><symbol id="e"><path transform="matrix(.001 0 0 .001 -.076 .013)" d="M406 393c47-10 84-31 110-63s40-72 40-118c0-72-25-128-74-167-50-39-120-58-211-58-31 0-63 3-95 9-32 5-66 14-100 26v95c27-16 57-28 90-36 32-8 66-12 102-12 62 0 109 12 141 36s49 60 49 107c0 42-15 76-45 100s-72 37-126 37h-85v81h89c48 0 85 9 111 29 26 19 39 47 39 84s-14 66-40 86c-27 20-65 30-114 30-27 0-56-3-87-9s-65-15-102-27v88c37 10 72 18 105 23 32 5 63 8 93 8 74 0 133-17 177-51s66-80 66-138c0-40-12-74-35-102s-56-48-98-58z"/></symbol><use xlink:href="#e" transform="matrix(10 0 0 -10 236.344 281.708)"/><use xlink:href="#b" transform="matrix(10 0 0 -10 242.604 281.708)"/><symbol id="f"><path transform="translate(.002) scale(.001)" d="M-2 729h616v-83H355V0h-99v646H-2v83z"/></symbol><symbol id="g"><path transform="translate(-.094) scale(.001)" d="M94 547h90V0H94v547zm0 213h90V646H94v114z"/></symbol><symbol id="h"><path transform="translate(-.091) scale(.001)" d="M520 442c22 40 49 69 80 89 31 19 68 29 111 29 56 0 100-20 131-60s47-97 47-170V0h-90v327c0 52-10 91-28 117-19 25-47 38-85 38-47 0-84-16-111-47s-40-73-40-126V0h-90v327c0 52-10 91-28 117-19 25-48 38-86 38-46 0-83-16-110-47s-40-73-40-126V0H91v547h90v-85c20 33 45 58 74 74 28 16 62 24 102 24s73-10 101-30 48-50 62-88z"/></symbol><symbol id="i"><path transform="matrix(.001 0 0 .001 -.055 .013)" d="M562 296v-44H149c4-62 22-110 56-142 33-32 79-48 139-48 34 0 68 4 100 12s65 21 97 39V28c-32-14-65-25-99-31s-69-10-103-10c-88 0-157 25-208 75S55 181 55 268c0 89 24 160 72 213 48 52 114 79 196 79 74 0 132-24 175-71 42-48 64-112 64-193zm-90 26c-1 49-15 88-41 118-27 29-63 44-107 44-50 0-90-15-120-43s-48-68-52-119h320z"/></symbol><symbol id="k"><path transform="matrix(.001 0 0 .001 -.086 .131)" d="M86 760h207v-70H176V-61h117v-70H86v891z"/></symbol><symbol id="l"><path transform="matrix(.001 0 0 .001 -.054 .013)" d="M443 531v-85c-26 12-52 22-79 29-28 6-56 10-85 10-45 0-79-7-101-21s-33-34-33-61c0-21 8-37 24-49s48-24 96-34l31-7c64-14 109-34 136-58 26-25 40-60 40-104 0-51-20-91-60-120-40-30-96-44-166-44-30 0-60 3-92 8S89 8 54 20v93c33-18 66-31 98-39 32-9 64-13 96-13 42 0 75 7 98 21 22 14 34 35 34 62 0 24-9 43-25 56s-52 26-108 38l-31 7c-56 12-97 30-121 54-25 24-37 57-37 100 0 51 18 91 54 119s88 42 156 42c33 0 64-3 94-8 29-5 56-12 81-21z"/></symbol><symbol id="m"><path transform="matrix(.001 0 0 .001 -.097 .131)" d="M304 760v-891H97v70h117v751H97v70h207z"/></symbol><use xlink:href="#f" transform="matrix(10 0 0 -10 149.757 295.25)"/><use xlink:href="#g" transform="matrix(10 0 0 -10 156.53 295.25)"/><use xlink:href="#h" transform="matrix(10 0 0 -10 159.28 295.25)"/><use xlink:href="#i" transform="matrix(10 0 0 -10 168.66 295.38)"/><use xlink:href="#j" transform="matrix(10 0 0 -10 174.26 295.25)"/><use xlink:href="#k" transform="matrix(10 0 0 -10 178.3 296.56)"/><use xlink:href="#l" transform="matrix(10 0 0 -10 181.88 295.38)"/><use xlink:href="#m" transform="matrix(10 0 0 -10 187.52 296.56)"/><path stroke-width=".8" stroke-linejoin="round" fill="none" stroke="#000" d="M37.104 226.24h-3.5"/><symbol id="n"><path transform="translate(-.107) scale(.001)" d="M107 124h103V0H107v124z"/></symbol><use xlink:href="#c" transform="matrix(10 0 0 -10 15.298 230.037)"/><use xlink:href="#n" transform="matrix(10 0 0 -10 21.628 230.037)"/><use xlink:href="#b" transform="matrix(10 0 0 -10 24.398 230.167)"/><path stroke-width=".8" stroke-linejoin="round" fill="none" stroke="#000" d="M37.104 183.585h-3.5"/><symbol id="o"><path transform="matrix(.001 0 0 .001 -.077 .013)" d="M108 729h387v-83H198V467c14 5 29 9 43 11s29 4 43 4c81 0 145-23 193-67 48-45 72-105 72-181 0-79-25-140-74-183S357-13 269-13c-31 0-62 3-94 7-32 5-64 12-98 23v99c29-16 59-28 91-36 31-8 64-11 99-11 56 0 101 14 134 44 32 30 49 70 49 121 0 50-17 90-49 120-33 30-78 45-134 45-26 0-53-3-79-9s-53-15-80-27v366z"/></symbol><use xlink:href="#c" transform="matrix(10 0 0 -10 15.298 187.382)"/><use xlink:href="#n" transform="matrix(10 0 0 -10 21.628 187.382)"/><use xlink:href="#o" transform="matrix(10 0 0 -10 24.508 187.512)"/><path stroke-width=".8" stroke-linejoin="round" fill="none" stroke="#000" d="M37.104 140.931h-3.5"/><use xlink:href="#d" transform="matrix(10 0 0 -10 14.928 144.728)"/><use xlink:href="#n" transform="matrix(10 0 0 -10 21.628 144.728)"/><use xlink:href="#b" transform="matrix(10 0 0 -10 24.398 144.858)"/><path stroke-width=".8" stroke-linejoin="round" fill="none" stroke="#000" d="M37.104 98.277h-3.5"/><use xlink:href="#d" transform="matrix(10 0 0 -10 14.928 102.074)"/><use xlink:href="#n" transform="matrix(10 0 0 -10 21.628 102.074)"/><use xlink:href="#o" transform="matrix(10 0 0 -10 24.508 102.204)"/><path stroke-width=".8" stroke-linejoin="round" fill="none" stroke="#000" d="M37.104 55.622h-3.5"/><use xlink:href="#e" transform="matrix(10 0 0 -10 14.958 59.55)"/><use xlink:href="#n" transform="matrix(10 0 0 -10 21.628 59.42)"/><use xlink:href="#b" transform="matrix(10 0 0 -10 24.398 59.55)"/><path stroke-width=".8" stroke-linejoin="round" fill="none" stroke="#000" d="M37.104 12.968h-3.5"/><use xlink:href="#e" transform="matrix(10 0 0 -10 14.958 16.895)"/><use xlink:href="#n" transform="matrix(10 0 0 -10 21.628 16.765)"/><use xlink:href="#o" transform="matrix(10 0 0 -10 24.508 16.895)"/><symbol id="p"><path transform="matrix(.001 0 0 .001 -.066 .013)" d="M535 705v-96c-38 18-73 31-106 40-34 8-66 13-96 13-54 0-96-11-125-31-29-21-43-51-43-89 0-32 9-57 29-73 19-17 56-30 110-40l60-12c73-14 127-39 162-74 35-36 53-83 53-142 0-71-24-124-71-160-48-36-117-54-208-54-35 0-72 4-111 11S110 16 69 32v102c40-23 79-40 117-51 38-12 76-17 114-17 56 0 99 11 130 33 30 22 46 53 46 95 0 36-11 64-33 84s-58 35-108 45l-60 12c-74 14-127 37-160 69-33 31-49 74-49 130 0 64 22 115 68 152 45 37 108 56 188 56 34 0 68-3 104-9 35-6 71-16 109-28z"/></symbol><symbol id="q"><path transform="matrix(.001 0 0 .001 -.091 .207)" d="M181 82v-289H91v754h90v-83c18 32 42 56 71 72s64 24 104 24c66 0 120-27 162-79 41-53 62-122 62-208s-21-156-62-208c-42-52-96-78-162-78-40 0-75 8-104 23s-53 39-71 72zm306 191c0 66-14 117-41 155-28 38-65 57-112 57-48 0-85-19-112-57-28-38-41-89-41-155s13-118 41-156c27-38 64-56 112-56 47 0 84 18 112 56 27 38 41 90 41 156z"/></symbol><symbol id="r"><path transform="matrix(.001 0 0 .001 -.055 .013)" d="M454 464v296h90V0h-90v82c-19-33-43-57-72-72s-63-23-103-23c-66 0-120 26-162 78S55 187 55 273s20 155 62 208c42 52 96 79 162 79 40 0 74-8 103-24s53-40 72-72zM148 273c0-66 13-118 40-156s64-56 112-56 85 18 113 56c27 38 41 90 41 156s-14 117-41 155c-28 38-65 57-113 57s-85-19-112-57-40-89-40-155z"/></symbol><symbol id="s"><path transform="matrix(.001 0 0 .001 0 .092)" d="M254 729h83L83-92H0l254 821z"/></symbol><use xlink:href="#p" transform="matrix(0 -10 -10 0 8.25 163.612)"/><use xlink:href="#q" transform="matrix(0 -10 -10 0 10.19 157.012)"/><use xlink:href="#i" transform="matrix(0 -10 -10 0 8.25 151.022)"/><use xlink:href="#i" transform="matrix(0 -10 -10 0 8.25 144.872)"/><use xlink:href="#r" transform="matrix(0 -10 -10 0 8.25 138.722)"/><use xlink:href="#j" transform="matrix(0 -10 -10 0 8.12 132.922)"/><use xlink:href="#k" transform="matrix(0 -10 -10 0 9.43 128.882)"/><use xlink:href="#h" transform="matrix(0 -10 -10 0 8.12 124.932)"/><use xlink:href="#s" transform="matrix(0 -10 -10 0 9.04 116.102)"/><use xlink:href="#l" transform="matrix(0 -10 -10 0 8.25 112.192)"/><use xlink:href="#m" transform="matrix(0 -10 -10 0 9.43 106.552)"/><clipPath id="t"><path transform="matrix(1 0 0 -1 -66 305)" d="M103.104 38.016h266.112v266.112H103.104z"/></clipPath><g clip-path="url(#t)"><path stroke-width="2.5" stroke-linecap="square" stroke-linejoin="round" fill="none" stroke="teal" d="m49.2 254.888.688-26.644.221-5.127.422-18.693 1.02-31.672 1.156-27.195.941-15.837.533-7.267.22-3.248.948-9.152.377-3.567.253-2.307.221-1.104.266-3.246.974-7.04.215-1.919.571-3.767.325-2.5.708-3.864.214-1.428.532-2.662.234-.552.156-1.133.636-2.437.312-.843.357-1.232.89-2.399.39-.778.785-1.625.201-.188.046-.23.61-.908.202-.454.214-.454.299-.36.785-1.23.273-.388.35-.52 1.43-1.49.7-.418.351-.295.202-.032.09-.162.078.065.897-.484.39-.327h.188l.207-.195 3.02-1.463.513-.195 1.695-.296.233.062.416-.16 1.546-.326.26-.032.253-.065.649-.03.24.032.422-.167.637-.097.513.262 1.422-.26.272.065.63-.133.293-.032.779-.03.156-.1.357-.033.65.099.129.067 1.325-.131.337.061 3.728.169.182-4.903.039 1.687.09-.942.403 3.86.52 1.717.402 1.432.643.813.26.13.597-.352.448-.65.786-.937.903-1.04 1.006-.386.656.224h.292l.22.195 1.839.81.402-.03.143.065.214-.13.163-.097.266.097.52-.067.324-.095h.338l.208-.13.39-.291.272.061.253-.188.137-.165h.396l.065-.195.052.064.272-.032.338-.032.383-.095.175.192.137.097.74-.097.292.191.137.071.876-.198.448-.065.221-.069.54.036.265-.098h.163l.084-.13.15.13.415-.166.234-.027 1.675-.134.526-.131.26.195.11.064.403-.068.39.068.26.063.116.066.442-.196.214.13.396.132.156-.132.084.13.163-.13.136.065.123-.13.767.32.402-.126 1.04-.065.136-.063.915.192.221-.065.695.068.084-.195.273.061.448-.194.162.129.137-.129.311-2.304.202-.426.448-2.378.266-5.906.383 7.127.766-7.866.397-1.088.487-2.7.123 1.926.28 2.31.123 2.69.35-5.21.195-2.293.11.569.332 1.077.233.773.474-1.93.221-.378.435 1.216.266.878.156-.037.163.24.46-1.654.15-.69.494 11.264.13.39.415-3.363.117.335.188.035.292.496.202.36.208.145.123-.092.22.102.273.545.455 1.177.13-.03.39.726.493.873.136.003.435.489.104-.109.091.074.656-.285.429-.793.246-.817.202-.317.818-3.302.305-1.133.383-1.942 1.695-8.531.5 1.004.104-.097.143.136.338.106 1.448 1.276.26-.152.532-.248.156.068 1.266 1.789.5.962.234.247.175.503.903 2.046.409 1.84.26 1.319.798 2.49.663 2.288 1.642 4.228.163.234.318.868.65 1.273.746 1.579.357-.073.39.3.188-.132.13.066.123-.088.11.222.111-.028.169.23.156-.01.266.335.5.026.253.22.48-.183.176-.016.37-.474.65-1.147.604-.938 3.104-2.777.194-.205.189-.379.214-.173.13-.291.214-.183.331-.489.474-.696.955-1.295 1.169-1.607.156-.04.162-.165.195-.033.383-.334 1.714.422.344.299.215-.035.402.122 1.734.172.201-.077.461.148.585-.22 1.812-.043.233.179.234.005 1.28.43 2.649.365.467-.304.306.053.694-.358.422-.033.3.097.324.144.337-.005.656.266 3.182.375 1.357.054.689.132.48.004.487.184.26-.07.253.154.461-.03.877.143.247-.479.435-2.522.24-.255.552-.08.5-.264.318.554.766 2.617.5.767.676 1.01.227-.002.24-.174.273-.46.26-.117.792-.817.234-.082.253-2.158.227-8.797.286 5.133.247 1.69.253-.196.877.171.22 1.206.221-1.027.487-3.06 1.338 2.588.961 5.306.526 1.291.494 1.39.188-1.414.22.46 1.189-.265.318-.303.591.459.286-.175.571.073.234-.007.41.338.635-.627.572.234.214-.861.468.763.396.984.26-.083.324-.53.357-1.016.474-1.297.617-1.468.507-.522.539.298.532 1.617.312 1.548.28 1.775 1.376 10.315.39 3.88.181 1.22 2.403 22.695.195 1.007.85 6.295.345 1.774.545 2.323.468 1.196.207.164.442 1.038.312.307.194-.04.189-3.898.46-2.371.793 4.064.253.494.221.691.175 1.723.416.648.455-1.008.415-1.844 1.091-5.702.396-1.797.688-2.777.63-2.945.695-5.043.792-6.74.838-10.826.37-3.795.624-8.939 1.246-12.266.702-3.08.33-.877.384-.502.338-.284.818-.34 1.493 1.412.864 2.098.383.575.753 2.13.507.864.714 2.25.974 6.073.28 2.198.175.957.669 5.226.5 3.115.675 2.76.442 1.338.337.92.448.776.104.121.377-.214.253-.602.208-.69.682-3.733.234-1.31 1.74-10.825.876-4.106.17-.396.272-1.023.597-1.34.182-.216.124.092.454-.913.585-1.4 1.233-1.533.156.1.325-.02.143.155.156-.098.415.151 1.305-.2.3.085.616.102.214.271 3.013 3.958.124-.017.13.284.117-.043.285.17.604.206.682-.19.266-.13.143.06 1.61-.496.17.234.298-.418.422-.37.273-.47.299-.346 1.61-3.01.175.098.13-.077.28.097.162-.094.83.532.436-.006.331-.104.494.138.195.059.493-.21.182.17.928.26.28.322.63.159.136-.02.09-.098.066.09.292-.083.162.146.098-.04.363.224.494.173.065-.05.078.241.363.133.124.154.428.09.04.09.07-.13.098.216.266.075 1 .486.059.168.383.031 1.818.704.169-.05.214.204.416-.058.5.164.266.094.13-.037.24.09.825.35 1.792.443.137.212.272-.15.65.256.493.39.474.019.344.204.41-.007.46.324.403.223.214-.163.182.158.117.107.136-.064.137.3.13-.15.552.257.214.147.273-.04.24.096.15.053.13.181.142-.032.28.106.421.198.24.048.092.167.142-.086.221.158.13-.086 2.084.505.28-.177.156-.093.084.128.708-.022.188.04.312.156.117-.136.188.133"/></g><clipPath id="u"><path transform="matrix(1 0 0 -1 -66 305)" d="M103.104 38.016h266.112v266.112H103.104z"/></clipPath><g clip-path="url(#u)"><path stroke-width="2.5" stroke-dasharray="9.25,4" stroke-linejoin="round" fill="none" stroke="red" d="M49.2 55.622h73.099l.097-21.327h.227l.124 21.327h1.669l.227-21.327.188 21.327h.215l.123-21.327h.28l.123 21.327.13-21.327h.123l.188 21.327h.104l.11-21.327h.234l.098-21.327h.233l.104 21.327h.591l.104 21.327.104-21.327h.493l.156-21.327h.383l.11 21.327h.774l.13-21.327h8.253l.136 42.654h47.047l.246-21.327h.513l.202 21.327h5.597l.24-21.327.273 21.327h98.872"/></g><path stroke-width=".8" stroke-linecap="square" stroke-miterlimit="10" fill="none" stroke="#000" d="M37.104 266.984V.872M303.216 266.984V.872M37.104 266.984h266.112M37.104.872h266.112"/><path d="M167.372 261.984h128.844c1.333 0 2-.667 2-2V231.64c0-1.333-.667-2-2-2H167.372c-1.333 0-2 .667-2 2v28.344c0 1.333.667 2 2 2z" fill="#fff" fill-opacity=".8"/><path stroke-miterlimit="10" fill="none" stroke="#d5d6d5" stroke-opacity=".8" d="M167.372 261.984h128.844c1.333 0 2-.667 2-2V231.64c0-1.333-.667-2-2-2H167.372c-1.333 0-2 .667-2 2v28.344c0 1.333.667 2 2 2z"/><path stroke-width="2.5" stroke-linecap="square" stroke-linejoin="round" fill="none" stroke="teal" d="M169.372 237.734h20"/><symbol id="v"><path transform="matrix(.001 0 0 .001 -.056 .013)" d="M644 673V569c-34 30-69 53-107 69-38 15-77 23-119 23-84 0-148-26-192-77s-66-124-66-220 22-170 66-221 108-76 192-76c42 0 81 7 119 23 38 15 73 38 107 69V56c-35-24-72-41-110-52s-79-17-122-17C302-13 215 20 151 87S56 246 56 364c0 117 31 209 95 277 64 67 151 101 261 101 44 0 85-6 123-17 38-12 75-29 109-52z"/></symbol><symbol id="w"><path transform="matrix(.001 0 0 .001 -.085 .013)" d="M85 216v331h90V219c0-52 10-90 30-116s50-39 91-39c48 0 87 15 115 46s42 73 42 127v310h90V0h-90v84c-22-34-48-58-76-74-29-15-62-23-100-23-63 0-111 19-143 58-33 38-49 95-49 171zm226 344z"/></symbol><symbol id="x"><path transform="translate(-.091) scale(.001)" d="M411 463c-10 6-21 10-33 13-12 2-25 4-39 4-51 0-90-17-117-50-28-33-41-80-41-142V0H91v547h90v-85c18 33 43 58 73 74s67 24 111 24c6 0 13-1 21-1 7-1 15-2 25-4v-92z"/></symbol><symbol id="y"><path transform="translate(-.091) scale(.001)" d="M549 330V0h-90v327c0 52-11 90-31 116s-50 39-90 39c-49 0-87-16-115-47s-42-73-42-126V0H91v547h90v-85c21 32 46 57 76 73 29 16 63 25 101 25 62 0 110-20 142-59s49-96 49-171z"/></symbol><symbol id="z"><path transform="translate(-.027) scale(.001)" d="M183 702V547h185v-70H183V180c0-45 6-74 18-86 12-13 37-19 75-19h92V0h-92c-70 0-118 13-144 39s-39 73-39 141v297H27v70h66v155h90z"/></symbol><symbol id="A"><path transform="matrix(.001 0 0 .001 -.086 .131)" d="M310 759c-44-76-76-150-97-223-22-73-32-147-32-222 0-76 10-150 32-223 21-74 53-147 97-222h-78C183-54 146 20 122 94S86 241 86 314c0 72 12 145 36 219s60 149 110 226h78z"/></symbol><symbol id="B"><path transform="matrix(.001 0 0 .001 -.056 .013)" d="M394 662c-72 0-129-27-171-80-42-54-63-126-63-218s21-165 63-218c42-54 99-80 171-80 71 0 128 26 170 80 42 53 63 126 63 218s-21 164-63 218c-42 53-99 80-170 80zm0 80c102 0 183-35 245-103 61-68 92-160 92-275 0-116-31-207-92-275C577 21 496-13 394-13 291-13 209 21 148 89c-62 68-92 159-92 275 0 115 30 207 92 275 61 68 143 103 246 103z"/></symbol><symbol id="C"><path transform="matrix(.001 0 0 .001 -.08 .131)" d="M80 759h78c48-77 85-152 109-226s37-147 37-219c0-73-13-146-37-220S206-54 158-131H80c43 75 75 148 97 222 21 73 32 147 32 223 0 75-11 149-32 222-22 73-54 147-97 223z"/></symbol><use xlink:href="#v" transform="matrix(10 0 0 -10 197.932 241.364)"/><use xlink:href="#w" transform="matrix(10 0 0 -10 205.202 241.364)"/><use xlink:href="#x" transform="matrix(10 0 0 -10 211.602 241.234)"/><use xlink:href="#x" transform="matrix(10 0 0 -10 215.54 241.234)"/><use xlink:href="#i" transform="matrix(10 0 0 -10 219.072 241.364)"/><use xlink:href="#y" transform="matrix(10 0 0 -10 225.582 241.234)"/><use xlink:href="#z" transform="matrix(10 0 0 -10 231.282 241.234)"/><use xlink:href="#j" transform="matrix(10 0 0 -10 234.932 241.234)"/><use xlink:href="#l" transform="matrix(10 0 0 -10 238.652 241.364)"/><use xlink:href="#q" transform="matrix(10 0 0 -10 244.232 243.304)"/><use xlink:href="#i" transform="matrix(10 0 0 -10 250.222 241.364)"/><use xlink:href="#i" transform="matrix(10 0 0 -10 256.372 241.364)"/><use xlink:href="#r" transform="matrix(10 0 0 -10 262.522 241.364)"/><use xlink:href="#j" transform="matrix(10 0 0 -10 268.322 241.234)"/><use xlink:href="#A" transform="matrix(10 0 0 -10 272.362 242.544)"/><use xlink:href="#B" transform="matrix(10 0 0 -10 275.962 241.364)"/><use xlink:href="#p" transform="matrix(10 0 0 -10 283.932 241.364)"/><use xlink:href="#C" transform="matrix(10 0 0 -10 290.422 242.544)"/><path stroke-width="2.5" stroke-dasharray="9.25,4" stroke-linejoin="round" fill="none" stroke="red" d="M169.372 252.406h20"/><symbol id="D"><path transform="translate(-.098) scale(.001)" d="M197 648V81h119c100 0 174 22 221 68 46 46 70 118 70 216s-24 169-70 215c-47 45-121 68-221 68H197zm-99 81h203c141 0 245-30 311-88 66-59 99-151 99-276 0-126-34-218-100-277S441 0 301 0H98v729z"/></symbol><use xlink:href="#D" transform="matrix(10 0 0 -10 198.352 255.906)"/><use xlink:href="#i" transform="matrix(10 0 0 -10 205.622 256.036)"/><use xlink:href="#l" transform="matrix(10 0 0 -10 211.762 256.036)"/><use xlink:href="#g" transform="matrix(10 0 0 -10 217.372 255.906)"/><use xlink:href="#x" transform="matrix(10 0 0 -10 220.122 255.906)"/><use xlink:href="#i" transform="matrix(10 0 0 -10 223.654 256.036)"/><use xlink:href="#r" transform="matrix(10 0 0 -10 229.804 256.036)"/><use xlink:href="#j" transform="matrix(10 0 0 -10 235.604 255.906)"/><use xlink:href="#l" transform="matrix(10 0 0 -10 239.323 256.036)"/><use xlink:href="#q" transform="matrix(10 0 0 -10 244.904 257.976)"/><use xlink:href="#i" transform="matrix(10 0 0 -10 250.894 256.036)"/><use xlink:href="#i" transform="matrix(10 0 0 -10 257.043 256.036)"/><use xlink:href="#r" transform="matrix(10 0 0 -10 263.193 256.036)"/><use xlink:href="#j" transform="matrix(10 0 0 -10 268.993 255.906)"/><use xlink:href="#A" transform="matrix(10 0 0 -10 273.034 257.216)"/><use xlink:href="#B" transform="matrix(10 0 0 -10 276.634 256.036)"/><use xlink:href="#p" transform="matrix(10 0 0 -10 284.604 256.036)"/><use xlink:href="#C" transform="matrix(10 0 0 -10 291.094 257.216)"/></g></svg>