<svg xmlns="http://www.w3.org/2000/svg" xmlns:xlink="http://www.w3.org/1999/xlink" width="614.4" height="460.8" viewBox="0 0 460.8 345.6"><path d="M0 345.6h460.8V0H0z" fill="#fff"/><path d="M103.104 307.584h266.112V41.472H103.104z" fill="#fff"/><path stroke-width=".8" stroke-linejoin="round" fill="none" stroke="#000" d="M113.632 307.584v3.5"/><symbol id="a"><path transform="matrix(.001 0 0 .001 -.066 .013)" d="M318 664c-51 0-89-25-115-75s-38-125-38-225 12-175 38-225 64-75 115-75 89 25 115 75c25 50 38 125 38 225s-13 175-38 225c-26 50-64 75-115 75zm0 78c81 0 143-33 187-97 43-65 65-159 65-281 0-123-22-217-65-281-44-64-106-96-188-96S173 19 130 83 66 241 66 364c0 122 21 216 64 281 43 64 106 97 188 97z"/></symbol><use xlink:href="#a" transform="matrix(10 0 0 -10 111.112 322.308)"/><path stroke-width=".8" stroke-linejoin="round" fill="none" stroke="#000" d="M163.563 307.584v3.5"/><symbol id="b"><path transform="translate(-.11) scale(.001)" d="M124 83h161v556l-175-35v90l174 35h99V83h161V0H124v83z"/></symbol><use xlink:href="#b" transform="matrix(10 0 0 -10 158.304 322.178)"/><use xlink:href="#a" transform="matrix(10 0 0 -10 164.224 322.308)"/><path stroke-width=".8" stroke-linejoin="round" fill="none" stroke="#000" d="M213.494 307.584v3.5"/><symbol id="c"><path transform="translate(-.073) scale(.001)" d="M192 83h344V0H73v83c37 38 88 90 153 156 64 65 105 107 122 126 32 35 54 65 66 90 12 24 19 49 19 73 0 38-14 70-41 94s-62 37-106 37c-31 0-64-6-98-16-34-11-71-27-110-49v100c40 16 77 28 111 36s66 12 95 12c75 0 135-19 180-57s68-88 68-151c0-30-6-59-17-85-11-27-31-59-61-95-8-10-34-37-78-82S271 164 192 83z"/></symbol><use xlink:href="#c" transform="matrix(10 0 0 -10 207.864 322.178)"/><use xlink:href="#a" transform="matrix(10 0 0 -10 214.155 322.308)"/><path stroke-width=".8" stroke-linejoin="round" fill="none" stroke="#000" d="M263.425 307.584v3.5"/><symbol id="d"><path transform="matrix(.001 0 0 .001 -.076 .013)" d="M406 393c47-10 84-31 110-63s40-72 40-118c0-72-25-128-74-167-50-39-120-58-211-58-31 0-63 3-95 9-32 5-66 14-100 26v95c27-16 57-28 90-36 32-8 66-12 102-12 62 0 109 12 141 36s49 60 49 107c0 42-15 76-45 100s-72 37-126 37h-85v81h89c48 0 85 9 111 29 26 19 39 47 39 84s-14 66-40 86c-27 20-65 30-114 30-27 0-56-3-87-9s-65-15-102-27v88c37 10 72 18 105 23 32 5 63 8 93 8 74 0 133-17 177-51s66-80 66-138c0-40-12-74-35-102s-56-48-98-58z"/></symbol><use xlink:href="#d" transform="matrix(10 0 0 -10 257.825 322.308)"/><use xlink:href="#a" transform="matrix(10 0 0 -10 264.085 322.308)"/><path stroke-width=".8" stroke-linejoin="round" fill="none" stroke="#000" d="M313.356 307.584v3.5"/><symbol id="e"><path transform="translate(-.049) scale(.001)" d="M378 643 129 254h249v389zm-26 86h124V254h104v-82H476V0h-98v172H49v95l303 462z"/></symbol><use xlink:href="#e" transform="matrix(10 0 0 -10 307.486 322.178)"/><use xlink:href="#a" transform="matrix(10 0 0 -10 314.016 322.308)"/><path stroke-width=".8" stroke-linejoin="round" fill="none" stroke="#000" d="M363.286 307.584v3.5"/><symbol id="f"><path transform="matrix(.001 0 0 .001 -.077 .013)" d="M108 729h387v-83H198V467c14 5 29 9 43 11s29 4 43 4c81 0 145-23 193-67 48-45 72-105 72-181 0-79-25-140-74-183S357-13 269-13c-31 0-62 3-94 7-32 5-64 12-98 23v99c29-16 59-28 91-36 31-8 64-11 99-11 56 0 101 14 134 44 32 30 49 70 49 121 0 50-17 90-49 120-33 30-78 45-134 45-26 0-53-3-79-9s-53-15-80-27v366z"/></symbol><use xlink:href="#f" transform="matrix(10 0 0 -10 357.697 322.308)"/><use xlink:href="#a" transform="matrix(10 0 0 -10 363.947 322.308)"/><symbol id="g"><path transform="translate(.002) scale(.001)" d="M-2 729h616v-83H355V0h-99v646H-2v83z"/></symbol><symbol id="h"><path transform="translate(-.094) scale(.001)" d="M94 547h90V0H94v547zm0 213h90V646H94v114z"/></symbol><symbol id="i"><path transform="translate(-.091) scale(.001)" d="M520 442c22 40 49 69 80 89 31 19 68 29 111 29 56 0 100-20 131-60s47-97 47-170V0h-90v327c0 52-10 91-28 117-19 25-47 38-85 38-47 0-84-16-111-47s-40-73-40-126V0h-90v327c0 52-10 91-28 117-19 25-48 38-86 38-46 0-83-16-110-47s-40-73-40-126V0H91v547h90v-85c20 33 45 58 74 74 28 16 62 24 102 24s73-10 101-30 48-50 62-88z"/></symbol><symbol id="j"><path transform="matrix(.001 0 0 .001 -.055 .013)" d="M562 296v-44H149c4-62 22-110 56-142 33-32 79-48 139-48 34 0 68 4 100 12s65 21 97 39V28c-32-14-65-25-99-31s-69-10-103-10c-88 0-157 25-208 75S55 181 55 268c0 89 24 160 72 213 48 52 114 79 196 79 74 0 132-24 175-71 42-48 64-112 64-193zm-90 26c-1 49-15 88-41 118-27 29-63 44-107 44-50 0-90-15-120-43s-48-68-52-119h320z"/></symbol><symbol id="l"><path transform="matrix(.001 0 0 .001 -.086 .131)" d="M86 760h207v-70H176V-61h117v-70H86v891z"/></symbol><symbol id="m"><path transform="matrix(.001 0 0 .001 -.054 .013)" d="M443 531v-85c-26 12-52 22-79 29-28 6-56 10-85 10-45 0-79-7-101-21s-33-34-33-61c0-21 8-37 24-49s48-24 96-34l31-7c64-14 109-34 136-58 26-25 40-60 40-104 0-51-20-91-60-120-40-30-96-44-166-44-30 0-60 3-92 8S89 8 54 20v93c33-18 66-31 98-39 32-9 64-13 96-13 42 0 75 7 98 21 22 14 34 35 34 62 0 24-9 43-25 56s-52 26-108 38l-31 7c-56 12-97 30-121 54-25 24-37 57-37 100 0 51 18 91 54 119s88 42 156 42c33 0 64-3 94-8 29-5 56-12 81-21z"/></symbol><symbol id="n"><path transform="matrix(.001 0 0 .001 -.097 .131)" d="M304 760v-891H97v70h117v751H97v70h207z"/></symbol><use xlink:href="#g" transform="matrix(10 0 0 -10 215.757 335.85)"/><use xlink:href="#h" transform="matrix(10 0 0 -10 222.53 335.85)"/><use xlink:href="#i" transform="matrix(10 0 0 -10 225.28 335.85)"/><use xlink:href="#j" transform="matrix(10 0 0 -10 234.66 335.98)"/><use xlink:href="#k" transform="matrix(10 0 0 -10 240.26 335.85)"/><use xlink:href="#l" transform="matrix(10 0 0 -10 244.3 337.16)"/><use xlink:href="#m" transform="matrix(10 0 0 -10 247.88 335.98)"/><use xlink:href="#n" transform="matrix(10 0 0 -10 253.52 337.16)"/><path stroke-width=".8" stroke-linejoin="round" fill="none" stroke="#000" d="M103.104 291.737h-3.5"/><use xlink:href="#c" transform="matrix(10 0 0 -10 84.115 295.534)"/><use xlink:href="#a" transform="matrix(10 0 0 -10 90.405 295.664)"/><path stroke-width=".8" stroke-linejoin="round" fill="none" stroke="#000" d="M103.104 261.486h-3.5"/><use xlink:href="#e" transform="matrix(10 0 0 -10 83.875 265.283)"/><use xlink:href="#a" transform="matrix(10 0 0 -10 90.405 265.413)"/><path stroke-width=".8" stroke-linejoin="round" fill="none" stroke="#000" d="M103.104 231.235h-3.5"/><symbol id="o"><path transform="matrix(.001 0 0 .001 -.07 .013)" d="M330 404c-44 0-79-16-105-46s-39-72-39-124c0-53 13-95 39-125s61-45 105-45 79 15 105 45 39 72 39 125c0 52-13 94-39 124s-61 46-105 46zm196 309v-90c-25 12-50 21-75 27-26 6-51 9-75 9-66 0-116-22-150-66s-54-111-58-199c19 28 43 50 72 65s61 23 96 23c73 0 131-23 173-67s64-105 64-181c0-75-23-135-67-180S403-13 330-13c-84 0-149 32-193 96-45 64-67 158-67 281 0 115 27 207 82 275 54 68 128 103 220 103 24 0 49-3 75-7 25-5 51-12 79-22z"/></symbol><use xlink:href="#o" transform="matrix(10 0 0 -10 84.085 235.161)"/><use xlink:href="#a" transform="matrix(10 0 0 -10 90.405 235.161)"/><path stroke-width=".8" stroke-linejoin="round" fill="none" stroke="#000" d="M103.104 200.983h-3.5"/><symbol id="p"><path transform="matrix(.001 0 0 .001 -.068 .013)" d="M318 346c-47 0-84-13-111-38s-40-59-40-103 13-79 40-104 64-37 111-37c46 0 83 12 110 38 27 25 41 59 41 103s-14 78-40 103c-27 25-64 38-111 38zm-99 42c-42 10-75 30-99 59s-35 64-35 106c0 58 20 104 62 138 41 34 98 51 171 51 72 0 129-17 171-51 41-34 62-80 62-138 0-42-12-77-36-106s-56-49-98-59c47-11 84-33 111-65 26-32 40-72 40-118 0-71-22-125-65-162-44-38-106-56-186-56S175 5 132 43c-43 37-64 91-64 162 0 46 13 86 40 118 26 32 63 54 111 65zm-36 156c0-38 11-68 35-89s57-31 100-31c42 0 75 10 99 31s36 51 36 89-12 67-36 88-57 32-99 32c-43 0-76-11-100-32s-35-50-35-88z"/></symbol><use xlink:href="#p" transform="matrix(10 0 0 -10 84.065 204.91)"/><use xlink:href="#a" transform="matrix(10 0 0 -10 90.405 204.91)"/><path stroke-width=".8" stroke-linejoin="round" fill="none" stroke="#000" d="M103.104 170.732h-3.5"/><use xlink:href="#b" transform="matrix(10 0 0 -10 78.126 174.53)"/><use xlink:href="#a" transform="matrix(10 0 0 -10 84.046 174.66)"/><use xlink:href="#a" transform="matrix(10 0 0 -10 90.406 174.66)"/><path stroke-width=".8" stroke-linejoin="round" fill="none" stroke="#000" d="M103.104 140.481h-3.5"/><use xlink:href="#b" transform="matrix(10 0 0 -10 78.126 144.278)"/><use xlink:href="#c" transform="matrix(10 0 0 -10 84.116 144.278)"/><use xlink:href="#a" transform="matrix(10 0 0 -10 90.406 144.408)"/><path stroke-width=".8" stroke-linejoin="round" fill="none" stroke="#000" d="M103.104 110.23h-3.5"/><use xlink:href="#b" transform="matrix(10 0 0 -10 78.126 114.027)"/><use xlink:href="#e" transform="matrix(10 0 0 -10 83.876 114.027)"/><use xlink:href="#a" transform="matrix(10 0 0 -10 90.406 114.157)"/><path stroke-width=".8" stroke-linejoin="round" fill="none" stroke="#000" d="M103.104 79.979h-3.5"/><use xlink:href="#b" transform="matrix(10 0 0 -10 78.126 83.776)"/><use xlink:href="#o" transform="matrix(10 0 0 -10 84.086 83.906)"/><use xlink:href="#a" transform="matrix(10 0 0 -10 90.406 83.906)"/><path stroke-width=".8" stroke-linejoin="round" fill="none" stroke="#000" d="M103.104 49.728h-3.5"/><use xlink:href="#b" transform="matrix(10 0 0 -10 78.126 53.525)"/><use xlink:href="#p" transform="matrix(10 0 0 -10 84.066 53.655)"/><use xlink:href="#a" transform="matrix(10 0 0 -10 90.406 53.655)"/><symbol id="q"><path transform="translate(-.098) scale(.001)" d="M197 648V81h119c100 0 174 22 221 68 46 46 70 118 70 216s-24 169-70 215c-47 45-121 68-221 68H197zm-99 81h203c141 0 245-30 311-88 66-59 99-151 99-276 0-126-34-218-100-277S441 0 301 0H98v729z"/></symbol><symbol id="r"><path transform="translate(-.027) scale(.001)" d="M183 702V547h185v-70H183V180c0-45 6-74 18-86 12-13 37-19 75-19h92V0h-92c-70 0-118 13-144 39s-39 73-39 141v297H27v70h66v155h90z"/></symbol><symbol id="s"><path transform="matrix(.001 0 0 .001 -.06 .013)" d="M343 275c-73 0-123-9-151-25-28-17-42-45-42-85 0-32 10-58 31-76 21-19 50-28 86-28 50 0 90 17 120 53 30 35 45 82 45 141v20h-89zm179 37V0h-90v83c-21-34-47-58-77-73s-68-23-112-23c-56 0-101 15-134 46s-49 73-49 126c0 61 20 107 62 139 41 31 102 47 184 47h126v9c0 41-14 73-41 96-27 22-65 34-114 34-32 0-62-4-92-12s-58-19-85-33v83c32 12 64 22 95 28s61 10 91 10c79 0 138-21 177-62s59-103 59-186z"/></symbol><symbol id="t"><path transform="translate(-.091) scale(.001)" d="M549 330V0h-90v327c0 52-11 90-31 116s-50 39-90 39c-49 0-87-16-115-47s-42-73-42-126V0H91v547h90v-85c21 32 46 57 76 73 29 16 63 25 101 25 62 0 110-20 142-59s49-96 49-171z"/></symbol><symbol id="u"><path transform="matrix(.001 0 0 .001 -.055 .013)" d="M488 526v-84c-26 14-51 24-77 31s-51 11-77 11c-58 0-104-19-136-56s-48-89-48-155c0-67 16-119 48-156s78-55 136-55c26 0 51 3 77 10s51 18 77 32V21C462 9 436 0 410-5c-27-5-56-8-86-8-82 0-148 25-196 77-49 51-73 121-73 209 0 89 24 159 73 210s116 77 202 77c28 0 55-3 81-9s52-14 77-25z"/></symbol><use xlink:href="#q" transform="matrix(0 -10 -10 0 70.948 205.798)"/><use xlink:href="#h" transform="matrix(0 -10 -10 0 70.948 198.138)"/><use xlink:href="#m" transform="matrix(0 -10 -10 0 71.078 195.758)"/><use xlink:href="#r" transform="matrix(0 -10 -10 0 70.948 190.818)"/><use xlink:href="#s" transform="matrix(0 -10 -10 0 71.078 186.568)"/><use xlink:href="#t" transform="matrix(0 -10 -10 0 70.948 180.128)"/><use xlink:href="#u" transform="matrix(0 -10 -10 0 71.078 174.148)"/><use xlink:href="#j" transform="matrix(0 -10 -10 0 71.078 168.648)"/><use xlink:href="#k" transform="matrix(0 -10 -10 0 70.948 163.048)"/><use xlink:href="#l" transform="matrix(0 -10 -10 0 72.258 159.008)"/><use xlink:href="#i" transform="matrix(0 -10 -10 0 70.948 155.058)"/><use xlink:href="#n" transform="matrix(0 -10 -10 0 72.258 145.258)"/><clipPath id="v"><path transform="matrix(1 0 0 -1 0 345.6)" d="M103.104 38.016h266.112v266.112H103.104z"/></clipPath><g clip-path="url(#v)"><path stroke-width="2.5" stroke-linecap="square" stroke-linejoin="round" fill="none" stroke="#00f" d="m115.2 53.568.57.241.489.257.29.205.598.52.205.131.484.522.31.253.394.48.315.278.394.52.21.176 1.074 1.365 1.997 2.775.12.068.294.5.61.79.184.367.305.365 1.088 1.714.095.073.42.682.2.303.798 1.141.28.54 1.807 2.706.724 1.173.18.313.59.858.144.157.18.395.18.233.414.71.699 1.102.18.233.3.474 2.706 4.355.1.077.299.558.19.235.31.558.184.236.504.795.395.635 19.278 30.641.15.076.25.474.514.872.095.076.489.871 22.28 35.101.154.158.14.316.514.87.13.076.155.315 1.587 2.52.525.87 2.067 3.225.21.315.699 1.104.194.315.9 1.418.928 1.5.569.945.195.233 2.501 3.933 1.608 2.604.22.233.47.788 2.925 4.658.28.39 4.618 7.335.18.315.105.075.28.473 2.451 3.866.26.39.29.472 2.6 4.18.325.472 1.358 2.124.11.241.165.075.24.472.4.63.284.241.055.233.34.63 5.906 9.333.12.073.185.314.39.628.329.555.084.074.4.712.285.387.334.556.365.544 2.306 3.701.11.074.38.628 1.697 2.673.3.556 2.117 3.22 2.776 4.4 1.009 1.57.304.472.68 1.184.204.23 18.39 28.827.124.063.465.744 4.409 6.06.12.034.669.918.114.028.39.547.11.025.579.754.255.13.364.518.295.318.194.12.405.499.62.604.199.11.554.68.23.105.499.577.07.008.31.38.1.008.209.285.085.007.225.284.2.104.484.574.21.103.289.38 1.198 1.151.1.005.53.568.074.005.45.472.065.005.27.376.469.382 1.248 1.248.095.006.504.575.245.194.204.195.88.787.184.285.689.59.484.574.21.102.824.85.08.003.524.556 1.538 1.358 2.267 1.956.364.23.6.467 1.517 1.175.18.05.484.417.105-.022 3.011 1.62 3.665 1.394 3.88.878 5.257.598 1.563-.104 1.653-.26 3.36-1.504 1.279-.873 1.228-.933.674-.602.999-.923.484-.488.314-.318 1.993-2.108.504-.588 1.578-1.835.494-.633.904-1.069 1.048-1.286.565-.764.474-.604.744-.947.404-.524 2.482-3.296.324-.453.265-.41.789-1.052 1.992-2.787 1.009-1.466.51-.661.299-.481.32-.378 1.382-2.075.185-.237 3.29-4.852 2.227-3.342 1.174-1.804.314-.452.62-.905.389-.606.26-.394.958-1.428.19-.243.35-.609.813-1.22.7-1.133.389-.551.414-.614.225-.307.26-.523.938-1.386.27-.399 2.017-3.154.285-.4.679-1.15.32-.401.394-.687.6-.868 1.712-2.715.13-.09.164-.379 2.192-3.443.21-.09.18-.539 1.538-2.35.449-.715.31-.538 1.722-2.604.37-.63.404-.699 1.283-1.983.525-.859 2.371-3.73.41-.703.514-.724"/></g><clipPath id="w"><path transform="matrix(1 0 0 -1 0 345.6)" d="M103.104 38.016h266.112v266.112H103.104z"/></clipPath><g clip-path="url(#w)"><path d="m291.821 298.488 6-6m-6 0 6 6" fill="orange"/><path stroke-width="2.5" stroke-linejoin="round" fill="none" stroke="orange" d="m291.821 298.488 6-6m-6 0 6 6"/></g><path stroke-width=".8" stroke-linecap="square" stroke-miterlimit="10" fill="none" stroke="#000" d="M103.104 307.584V41.472M369.216 307.584V41.472M103.104 307.584h266.112M103.104 41.472h266.112"/><path d="M184.966 78.816h177.25c1.333 0 2-.667 2-2V48.472c0-1.333-.667-2-2-2h-177.25c-1.333 0-2 .667-2 2v28.344c0 1.333.667 2 2 2z" fill="#fff" fill-opacity=".8"/><path stroke-miterlimit="10" fill="none" stroke="#d5d6d5" stroke-opacity=".8" d="M184.966 78.816h177.25c1.333 0 2-.667 2-2V48.472c0-1.333-.667-2-2-2h-177.25c-1.333 0-2 .667-2 2v28.344c0 1.333.667 2 2 2z"/><path stroke-width="2.5" stroke-linecap="square" stroke-linejoin="round" fill="none" stroke="#00f" d="M186.966 54.566h20"/><symbol id="x"><path transform="matrix(.001 0 0 .001 -.091 .013)" d="M487 273c0 66-14 117-41 155-28 38-65 57-112 57-48 0-85-19-112-57-28-38-41-89-41-155s13-118 41-156c27-38 64-56 112-56 47 0 84 18 112 56 27 38 41 90 41 156zM181 464c18 32 42 56 71 72s64 24 104 24c66 0 120-27 162-79 41-53 62-122 62-208s-21-156-62-208c-42-52-96-78-162-78-40 0-75 8-104 23s-53 39-71 72V0H91v760h90V464z"/></symbol><symbol id="y"><path transform="translate(-.042) scale(.001)" d="M42 547h90l112-427 112 427h106l112-427 112 427h90L633 0H527L409 448 291 0H185L42 547z"/></symbol><symbol id="z"><path transform="matrix(.001 0 0 .001 -.056 .013)" d="M394 662c-72 0-129-27-171-80-42-54-63-126-63-218s21-165 63-218c42-54 99-80 171-80 71 0 128 26 170 80 42 53 63 126 63 218s-21 164-63 218c-42 53-99 80-170 80zm0 80c102 0 183-35 245-103 61-68 92-160 92-275 0-116-31-207-92-275C577 21 496-13 394-13 291-13 209 21 148 89c-62 68-92 159-92 275 0 115 30 207 92 275 61 68 143 103 246 103z"/></symbol><symbol id="A"><path transform="matrix(.001 0 0 .001 -.066 .013)" d="M535 705v-96c-38 18-73 31-106 40-34 8-66 13-96 13-54 0-96-11-125-31-29-21-43-51-43-89 0-32 9-57 29-73 19-17 56-30 110-40l60-12c73-14 127-39 162-74 35-36 53-83 53-142 0-71-24-124-71-160-48-36-117-54-208-54-35 0-72 4-111 11S110 16 69 32v102c40-23 79-40 117-51 38-12 76-17 114-17 56 0 99 11 130 33 30 22 46 53 46 95 0 36-11 64-33 84s-58 35-108 45l-60 12c-74 14-127 37-160 69-33 31-49 74-49 130 0 64 22 115 68 152 45 37 108 56 188 56 34 0 68-3 104-9 35-6 71-16 109-28z"/></symbol><symbol id="B"><path transform="matrix(.001 0 0 .001 -.055 .013)" d="M454 464v296h90V0h-90v82c-19-33-43-57-72-72s-63-23-103-23c-66 0-120 26-162 78S55 187 55 273s20 155 62 208c42 52 96 79 162 79 40 0 74-8 103-24s53-40 72-72zM148 273c0-66 13-118 40-156s64-56 112-56 85 18 113 56c27 38 41 90 41 156s-14 117-41 155c-28 38-65 57-113 57s-85-19-112-57-40-89-40-155z"/></symbol><use xlink:href="#q" transform="matrix(10 0 0 -10 215.946 58.066)"/><use xlink:href="#h" transform="matrix(10 0 0 -10 223.606 58.066)"/><use xlink:href="#m" transform="matrix(10 0 0 -10 225.986 58.196)"/><use xlink:href="#r" transform="matrix(10 0 0 -10 230.926 58.066)"/><use xlink:href="#s" transform="matrix(10 0 0 -10 235.176 58.196)"/><use xlink:href="#t" transform="matrix(10 0 0 -10 241.616 58.066)"/><use xlink:href="#u" transform="matrix(10 0 0 -10 247.596 58.196)"/><use xlink:href="#j" transform="matrix(10 0 0 -10 253.096 58.196)"/><use xlink:href="#k" transform="matrix(10 0 0 -10 258.696 58.066)"/><use xlink:href="#x" transform="matrix(10 0 0 -10 262.786 58.196)"/><use xlink:href="#j" transform="matrix(10 0 0 -10 268.776 58.196)"/><use xlink:href="#r" transform="matrix(10 0 0 -10 274.646 58.066)"/><use xlink:href="#y" transform="matrix(10 0 0 -10 278.716 58.066)"/><use xlink:href="#j" transform="matrix(10 0 0 -10 287.026 58.196)"/><use xlink:href="#j" transform="matrix(10 0 0 -10 293.176 58.196)"/><use xlink:href="#t" transform="matrix(10 0 0 -10 299.686 58.066)"/><use xlink:href="#k" transform="matrix(10 0 0 -10 305.116 58.066)"/><use xlink:href="#z" transform="matrix(10 0 0 -10 308.856 58.196)"/><use xlink:href="#A" transform="matrix(10 0 0 -10 316.826 58.196)"/><use xlink:href="#k" transform="matrix(10 0 0 -10 322.516 58.066)"/><use xlink:href="#s" transform="matrix(10 0 0 -10 326.296 58.196)"/><use xlink:href="#t" transform="matrix(10 0 0 -10 332.736 58.066)"/><use xlink:href="#B" transform="matrix(10 0 0 -10 338.716 58.196)"/><use xlink:href="#k" transform="matrix(10 0 0 -10 344.516 58.066)"/><use xlink:href="#g" transform="matrix(10 0 0 -10 347.676 58.066)"/><use xlink:href="#A" transform="matrix(10 0 0 -10 354.466 58.196)"/><path d="m193.966 73.113 6-6m-6 0 6 6" fill="orange"/><path stroke-width="2.5" stroke-linejoin="round" fill="none" stroke="orange" d="m193.966 73.113 6-6m-6 0 6 6"/><symbol id="C"><path transform="translate(-.107) scale(.001)" d="M107 124h103V0H107v124z"/></symbol><symbol id="D"><path transform="matrix(.001 0 0 .001 -.106 -.172)" d="M106 454h626v-82H106v82zm0-199h626v-83H106v83z"/></symbol><symbol id="E"><path transform="translate(-.082) scale(.001)" d="M82 729h469v-42L286 0H183l249 646H82v83z"/></symbol><use xlink:href="#i" transform="matrix(10 0 0 -10 215.876 72.738)"/><use xlink:href="#h" transform="matrix(10 0 0 -10 225.646 72.738)"/><use xlink:href="#t" transform="matrix(10 0 0 -10 228.396 72.738)"/><use xlink:href="#C" transform="matrix(10 0 0 -10 234.896 72.738)"/><use xlink:href="#k" transform="matrix(10 0 0 -10 237.006 72.738)"/><use xlink:href="#B" transform="matrix(10 0 0 -10 240.736 72.868)"/><use xlink:href="#h" transform="matrix(10 0 0 -10 247.476 72.738)"/><use xlink:href="#m" transform="matrix(10 0 0 -10 249.856 72.868)"/><use xlink:href="#r" transform="matrix(10 0 0 -10 254.796 72.738)"/><use xlink:href="#s" transform="matrix(10 0 0 -10 259.046 72.868)"/><use xlink:href="#t" transform="matrix(10 0 0 -10 265.486 72.738)"/><use xlink:href="#u" transform="matrix(10 0 0 -10 271.466 72.868)"/><use xlink:href="#j" transform="matrix(10 0 0 -10 276.966 72.868)"/><use xlink:href="#k" transform="matrix(10 0 0 -10 282.566 72.738)"/><use xlink:href="#D" transform="matrix(10 0 0 -10 286.806 71.018)"/><use xlink:href="#k" transform="matrix(10 0 0 -10 294.126 72.738)"/><use xlink:href="#b" transform="matrix(10 0 0 -10 298.406 72.738)"/><use xlink:href="#E" transform="matrix(10 0 0 -10 304.486 72.738)"/><use xlink:href="#C" transform="matrix(10 0 0 -10 311.096 72.738)"/><use xlink:href="#f" transform="matrix(10 0 0 -10 313.976 72.868)"/><use xlink:href="#c" transform="matrix(10 0 0 -10 320.296 72.738)"/><use xlink:href="#k" transform="matrix(10 0 0 -10 325.926 72.738)"/><use xlink:href="#i" transform="matrix(10 0 0 -10 330.016 72.738)"/></svg>