<svg xmlns="http://www.w3.org/2000/svg" xmlns:xlink="http://www.w3.org/1999/xlink" width="614.4" height="460.8" viewBox="0 0 460.8 345.6"><path d="M0 345.6h460.8V0H0z" fill="#fff"/><path d="M103.104 307.584h266.112V41.472H103.104z" fill="#fff"/><path stroke-width=".8" stroke-linejoin="round" fill="none" stroke="#000" d="M113.632 307.584v3.5"/><symbol id="a"><path transform="matrix(.001 0 0 .001 -.066 .013)" d="M318 664c-51 0-89-25-115-75s-38-125-38-225 12-175 38-225 64-75 115-75 89 25 115 75c25 50 38 125 38 225s-13 175-38 225c-26 50-64 75-115 75zm0 78c81 0 143-33 187-97 43-65 65-159 65-281 0-123-22-217-65-281-44-64-106-96-188-96S173 19 130 83 66 241 66 364c0 122 21 216 64 281 43 64 106 97 188 97z"/></symbol><use xlink:href="#a" transform="matrix(10 0 0 -10 111.112 322.308)"/><path stroke-width=".8" stroke-linejoin="round" fill="none" stroke="#000" d="M163.563 307.584v3.5"/><symbol id="b"><path transform="translate(-.11) scale(.001)" d="M124 83h161v556l-175-35v90l174 35h99V83h161V0H124v83z"/></symbol><use xlink:href="#b" transform="matrix(10 0 0 -10 158.304 322.178)"/><use xlink:href="#a" transform="matrix(10 0 0 -10 164.224 322.308)"/><path stroke-width=".8" stroke-linejoin="round" fill="none" stroke="#000" d="M213.494 307.584v3.5"/><symbol id="c"><path transform="translate(-.073) scale(.001)" d="M192 83h344V0H73v83c37 38 88 90 153 156 64 65 105 107 122 126 32 35 54 65 66 90 12 24 19 49 19 73 0 38-14 70-41 94s-62 37-106 37c-31 0-64-6-98-16-34-11-71-27-110-49v100c40 16 77 28 111 36s66 12 95 12c75 0 135-19 180-57s68-88 68-151c0-30-6-59-17-85-11-27-31-59-61-95-8-10-34-37-78-82S271 164 192 83z"/></symbol><use xlink:href="#c" transform="matrix(10 0 0 -10 207.864 322.178)"/><use xlink:href="#a" transform="matrix(10 0 0 -10 214.155 322.308)"/><path stroke-width=".8" stroke-linejoin="round" fill="none" stroke="#000" d="M263.425 307.584v3.5"/><symbol id="d"><path transform="matrix(.001 0 0 .001 -.076 .013)" d="M406 393c47-10 84-31 110-63s40-72 40-118c0-72-25-128-74-167-50-39-120-58-211-58-31 0-63 3-95 9-32 5-66 14-100 26v95c27-16 57-28 90-36 32-8 66-12 102-12 62 0 109 12 141 36s49 60 49 107c0 42-15 76-45 100s-72 37-126 37h-85v81h89c48 0 85 9 111 29 26 19 39 47 39 84s-14 66-40 86c-27 20-65 30-114 30-27 0-56-3-87-9s-65-15-102-27v88c37 10 72 18 105 23 32 5 63 8 93 8 74 0 133-17 177-51s66-80 66-138c0-40-12-74-35-102s-56-48-98-58z"/></symbol><use xlink:href="#d" transform="matrix(10 0 0 -10 257.825 322.308)"/><use xlink:href="#a" transform="matrix(10 0 0 -10 264.085 322.308)"/><path stroke-width=".8" stroke-linejoin="round" fill="none" stroke="#000" d="M313.356 307.584v3.5"/><symbol id="e"><path transform="translate(-.049) scale(.001)" d="M378 643 129 254h249v389zm-26 86h124V254h104v-82H476V0h-98v172H49v95l303 462z"/></symbol><use xlink:href="#e" transform="matrix(10 0 0 -10 307.486 322.178)"/><use xlink:href="#a" transform="matrix(10 0 0 -10 314.016 322.308)"/><path stroke-width=".8" stroke-linejoin="round" fill="none" stroke="#000" d="M363.286 307.584v3.5"/><symbol id="f"><path transform="matrix(.001 0 0 .001 -.077 .013)" d="M108 729h387v-83H198V467c14 5 29 9 43 11s29 4 43 4c81 0 145-23 193-67 48-45 72-105 72-181 0-79-25-140-74-183S357-13 269-13c-31 0-62 3-94 7-32 5-64 12-98 23v99c29-16 59-28 91-36 31-8 64-11 99-11 56 0 101 14 134 44 32 30 49 70 49 121 0 50-17 90-49 120-33 30-78 45-134 45-26 0-53-3-79-9s-53-15-80-27v366z"/></symbol><use xlink:href="#f" transform="matrix(10 0 0 -10 357.697 322.308)"/><use xlink:href="#a" transform="matrix(10 0 0 -10 363.947 322.308)"/><symbol id="g"><path transform="translate(.002) scale(.001)" d="M-2 729h616v-83H355V0h-99v646H-2v83z"/></symbol><symbol id="h"><path transform="translate(-.094) scale(.001)" d="M94 547h90V0H94v547zm0 213h90V646H94v114z"/></symbol><symbol id="i"><path transform="translate(-.091) scale(.001)" d="M520 442c22 40 49 69 80 89 31 19 68 29 111 29 56 0 100-20 131-60s47-97 47-170V0h-90v327c0 52-10 91-28 117-19 25-47 38-85 38-47 0-84-16-111-47s-40-73-40-126V0h-90v327c0 52-10 91-28 117-19 25-48 38-86 38-46 0-83-16-110-47s-40-73-40-126V0H91v547h90v-85c20 33 45 58 74 74 28 16 62 24 102 24s73-10 101-30 48-50 62-88z"/></symbol><symbol id="j"><path transform="matrix(.001 0 0 .001 -.055 .013)" d="M562 296v-44H149c4-62 22-110 56-142 33-32 79-48 139-48 34 0 68 4 100 12s65 21 97 39V28c-32-14-65-25-99-31s-69-10-103-10c-88 0-157 25-208 75S55 181 55 268c0 89 24 160 72 213 48 52 114 79 196 79 74 0 132-24 175-71 42-48 64-112 64-193zm-90 26c-1 49-15 88-41 118-27 29-63 44-107 44-50 0-90-15-120-43s-48-68-52-119h320z"/></symbol><symbol id="l"><path transform="matrix(.001 0 0 .001 -.086 .131)" d="M86 760h207v-70H176V-61h117v-70H86v891z"/></symbol><symbol id="m"><path transform="matrix(.001 0 0 .001 -.054 .013)" d="M443 531v-85c-26 12-52 22-79 29-28 6-56 10-85 10-45 0-79-7-101-21s-33-34-33-61c0-21 8-37 24-49s48-24 96-34l31-7c64-14 109-34 136-58 26-25 40-60 40-104 0-51-20-91-60-120-40-30-96-44-166-44-30 0-60 3-92 8S89 8 54 20v93c33-18 66-31 98-39 32-9 64-13 96-13 42 0 75 7 98 21 22 14 34 35 34 62 0 24-9 43-25 56s-52 26-108 38l-31 7c-56 12-97 30-121 54-25 24-37 57-37 100 0 51 18 91 54 119s88 42 156 42c33 0 64-3 94-8 29-5 56-12 81-21z"/></symbol><symbol id="n"><path transform="matrix(.001 0 0 .001 -.097 .131)" d="M304 760v-891H97v70h117v751H97v70h207z"/></symbol><use xlink:href="#g" transform="matrix(10 0 0 -10 215.757 335.85)"/><use xlink:href="#h" transform="matrix(10 0 0 -10 222.53 335.85)"/><use xlink:href="#i" transform="matrix(10 0 0 -10 225.28 335.85)"/><use xlink:href="#j" transform="matrix(10 0 0 -10 234.66 335.98)"/><use xlink:href="#k" transform="matrix(10 0 0 -10 240.26 335.85)"/><use xlink:href="#l" transform="matrix(10 0 0 -10 244.3 337.16)"/><use xlink:href="#m" transform="matrix(10 0 0 -10 247.88 335.98)"/><use xlink:href="#n" transform="matrix(10 0 0 -10 253.52 337.16)"/><path stroke-width=".8" stroke-linejoin="round" fill="none" stroke="#000" d="M103.104 293.511h-3.5"/><symbol id="o"><path transform="translate(-.107) scale(.001)" d="M107 124h103V0H107v124z"/></symbol><use xlink:href="#a" transform="matrix(10 0 0 -10 80.858 297.438)"/><use xlink:href="#o" transform="matrix(10 0 0 -10 87.628 297.308)"/><use xlink:href="#f" transform="matrix(10 0 0 -10 90.508 297.438)"/><path stroke-width=".8" stroke-linejoin="round" fill="none" stroke="#000" d="M103.104 251.19h-3.5"/><use xlink:href="#b" transform="matrix(10 0 0 -10 81.298 254.987)"/><use xlink:href="#o" transform="matrix(10 0 0 -10 87.628 254.987)"/><use xlink:href="#a" transform="matrix(10 0 0 -10 90.398 255.117)"/><path stroke-width=".8" stroke-linejoin="round" fill="none" stroke="#000" d="M103.104 208.868h-3.5"/><use xlink:href="#b" transform="matrix(10 0 0 -10 81.298 212.665)"/><use xlink:href="#o" transform="matrix(10 0 0 -10 87.628 212.665)"/><use xlink:href="#f" transform="matrix(10 0 0 -10 90.508 212.795)"/><path stroke-width=".8" stroke-linejoin="round" fill="none" stroke="#000" d="M103.104 166.546h-3.5"/><use xlink:href="#c" transform="matrix(10 0 0 -10 80.928 170.343)"/><use xlink:href="#o" transform="matrix(10 0 0 -10 87.628 170.343)"/><use xlink:href="#a" transform="matrix(10 0 0 -10 90.398 170.473)"/><path stroke-width=".8" stroke-linejoin="round" fill="none" stroke="#000" d="M103.104 124.224h-3.5"/><use xlink:href="#c" transform="matrix(10 0 0 -10 80.928 128.02)"/><use xlink:href="#o" transform="matrix(10 0 0 -10 87.628 128.02)"/><use xlink:href="#f" transform="matrix(10 0 0 -10 90.508 128.15)"/><path stroke-width=".8" stroke-linejoin="round" fill="none" stroke="#000" d="M103.104 81.902h-3.5"/><use xlink:href="#d" transform="matrix(10 0 0 -10 80.958 85.829)"/><use xlink:href="#o" transform="matrix(10 0 0 -10 87.628 85.699)"/><use xlink:href="#a" transform="matrix(10 0 0 -10 90.398 85.829)"/><symbol id="p"><path transform="matrix(.001 0 0 .001 -.066 .013)" d="M535 705v-96c-38 18-73 31-106 40-34 8-66 13-96 13-54 0-96-11-125-31-29-21-43-51-43-89 0-32 9-57 29-73 19-17 56-30 110-40l60-12c73-14 127-39 162-74 35-36 53-83 53-142 0-71-24-124-71-160-48-36-117-54-208-54-35 0-72 4-111 11S110 16 69 32v102c40-23 79-40 117-51 38-12 76-17 114-17 56 0 99 11 130 33 30 22 46 53 46 95 0 36-11 64-33 84s-58 35-108 45l-60 12c-74 14-127 37-160 69-33 31-49 74-49 130 0 64 22 115 68 152 45 37 108 56 188 56 34 0 68-3 104-9 35-6 71-16 109-28z"/></symbol><symbol id="q"><path transform="matrix(.001 0 0 .001 -.091 .207)" d="M181 82v-289H91v754h90v-83c18 32 42 56 71 72s64 24 104 24c66 0 120-27 162-79 41-53 62-122 62-208s-21-156-62-208c-42-52-96-78-162-78-40 0-75 8-104 23s-53 39-71 72zm306 191c0 66-14 117-41 155-28 38-65 57-112 57-48 0-85-19-112-57-28-38-41-89-41-155s13-118 41-156c27-38 64-56 112-56 47 0 84 18 112 56 27 38 41 90 41 156z"/></symbol><symbol id="r"><path transform="matrix(.001 0 0 .001 -.055 .013)" d="M454 464v296h90V0h-90v82c-19-33-43-57-72-72s-63-23-103-23c-66 0-120 26-162 78S55 187 55 273s20 155 62 208c42 52 96 79 162 79 40 0 74-8 103-24s53-40 72-72zM148 273c0-66 13-118 40-156s64-56 112-56 85 18 113 56c27 38 41 90 41 156s-14 117-41 155c-28 38-65 57-113 57s-85-19-112-57-40-89-40-155z"/></symbol><symbol id="s"><path transform="matrix(.001 0 0 .001 0 .092)" d="M254 729h83L83-92H0l254 821z"/></symbol><use xlink:href="#p" transform="matrix(0 -10 -10 0 74.25 204.212)"/><use xlink:href="#q" transform="matrix(0 -10 -10 0 76.19 197.612)"/><use xlink:href="#j" transform="matrix(0 -10 -10 0 74.25 191.622)"/><use xlink:href="#j" transform="matrix(0 -10 -10 0 74.25 185.472)"/><use xlink:href="#r" transform="matrix(0 -10 -10 0 74.25 179.322)"/><use xlink:href="#k" transform="matrix(0 -10 -10 0 74.12 173.522)"/><use xlink:href="#l" transform="matrix(0 -10 -10 0 75.43 169.482)"/><use xlink:href="#i" transform="matrix(0 -10 -10 0 74.12 165.532)"/><use xlink:href="#s" transform="matrix(0 -10 -10 0 75.04 156.702)"/><use xlink:href="#m" transform="matrix(0 -10 -10 0 74.25 152.792)"/><use xlink:href="#n" transform="matrix(0 -10 -10 0 75.43 147.152)"/><clipPath id="t"><path transform="matrix(1 0 0 -1 0 345.6)" d="M103.104 38.016h266.112v266.112H103.104z"/></clipPath><g clip-path="url(#t)"><path stroke-width="2.5" stroke-linecap="square" stroke-linejoin="round" fill="none" stroke="teal" d="m115.2 295.488.235-18.16 1.218-59.922.29-11.948.714-24.373 1.592-37.158.989-13.525.225-2.286.374-4.316 2.107-19.101.305-2.128.304-2.027.39-2.317.794-3.799.689-2.35 2.002-4.725 1.019-1.773.574-.997 1.148-1.32 4.25-2.387.803-.256.889-.16.504.06.3-.067.699-.062 1.009-.063.194-.036 1.438-.066.165-.033.5-.064.499.353.454-.064.045-.1.185.131.604-.031.294.194.255.03.255-.095.294.097.01-1.804.09.645.31.644.2.382.304.422.454.42.545.03.17.1.32.035.294-.097h.21l.389-.128.614-.16.2-.064.344.094.15.068.195-.061.194-.068.24.193h.265l.384.033 1.498.097h.225l.18-.129.26.097.244-.064 1.308-.387.3.097.544-.097.06.065.284-.097.42.064.18-.064.344.192.075.068.14-.038.14.067.4-.097.304.128.204.258.275.096.814-.322.394.097.305-.063.295-.003.399.096.344-.097.165.033.095-.126.19.093.4-.032.534-.096.27-.033h.204l.4-.003.21.228.289.325.3-.1.519-.099.224-.03 1.059-.061.204-.004.165.001.115.193.105.064.105-.128.11.064.499-.193.394.193.095-.322.125.064.175.386.3-.13.21.066.893-.063.02-.065.09.132.4-.195 1.592-.065.285-.064.1.064.1-.126.209.061.095-.064.62.258.074-.13.52.323.279-.125.29-.068.134-.064.08.193.095-.064.61.325.184-.068.105.065.234-.194.125.065.06-.129.2.132.53-.068.054-.063.09.128.105-.193.115.065.13-.13.26.065.488-.065.355-.128.275.125.18.004.209-.001.644.322.04-.065.115.068.295-.068.2.003.628-.003.055-.128.22.067.23-.067.314.063.055-.192.41.385.294-.258.105.13.17.003.36.511.154-.128.734-.064.38-.128.464-.067.31-.126.22.128.174-.064h.105l.175.129.14-.194 2.296-.129.085-.064.11.129.09-.068.694.325.115-.193.09.065.529.514.17-.194.399.13.3-.064.39-.064.533-.129.125.064.115-.127.045.063.494-.064.3-.13.3.065.594-.065.429-.064.384-.065.19.003 3.72-.132.484.515.085-.19.09.061.21-.193.14.193.39-.389.184.131.105-.192.075.067.33-.13.194-.001.699.644.19-.258.2.193.289-.064h1.014l.1-.128.299.126.2-.062.085.065.1-.13.094.133.2-.132.714.064h.2l1.603-.064h.094l.095-.193.425.254 1.373-.061h2.89l.11-.13.2.13.085-.13.115.129.285.067.005.123.05-1.929.254 1.934.235 2.122.16-.193.404.77.21.067.29.068 1.997-1.612.214-.19.17-.129.145.068.175-.196h.1l.105-.129.1.065.529-.258.065.13.304-.13 1.483.001.095-.13.235.068.084-.134.19.003.105-.13.105.132.19-.067.43.193.364-.258.094.064.32-.386.305.194.314-.255.894-.132.08-.128.51.257.279-.062.105.061.12-.129h.299l.18.132.699.061.804-.065.204-.065.385.128.1-.129.11.13.304-.262.594.324.16-.193.05.064.095-.064.51.193.09-.194.493.258.2-.129.145-.129.07.132.095-.07.274.195.33-.128h.18l.294-.064.504-.194.4-.064.105-.065.304.26.205-.132.105.129.37-.194.404.258.619-.257.29.13.414-.129.335-.065.09-.064.064.258.395-.194.14.128h.244l.22.068.12-.196.175.129.1.067.2-.13.199.064.294.13.09-.07.195.069.325-.258.234.193.35-.128.314.064.19-.128.095.131.1-.067.5.193.294-.063.21-.065.1.067.414-.132h.105l.214.128.974-.129.3-.06.104.058.1-.32.48 1.03.22.322.309-.257.39.322.284-.321h.115l.1-.129h.204l.29-.13.5-.061.214-.065.095.064.105-.128.21.129.094-.133.425.26.07.262.124-1.052.075.495.085-.086.31-.628.194-.908 1.618-8.787.105.052.17-.173.105.04.09-.09.444.18.17.11.204-.09.185.095.41-.375.21.236.284 1.044.32 1.067.768 3.525.8 3.67.309 1.408.504 2.701.325 1.554 2.167 10.763.25.567.334 1.233.32.565.13.041.15.456.219.034.294-.344.285-.788.105-.084.594-1.408.215-10.15.125-.206.569-4.271.39-1.831.528-2.792.185-1.117.405-2.038.28-1.599 1.417-2.954.78-1.173.204-.345 1.713-3.758.439-1.21.1.185.1-.108.15.34.184.209.634-.04.38.436.105.086.075-.169.12.061.15-.106.349.803.234-.077.27-.687.305-.283.144-.278.115.086.255-.355.175-.074.334-.327 1.179-1.415.29.141.179.024.115.03.115-.116.084.172.51-.004.33-.175.09-.005.104-.138.095.138.095-.088.484.303.22-.035.12-.033.524.265.859-1.583.08-.056.4-.841.099-.062.374-.576.82-1.256.309-.194.38-.396.444-.246.17-.168.733-.504.15.154.505-.307.09.058.104-.083.335-.114.09-1.901.08.527.1-1.588.299 2.371.33 2.653.214.378.21-.11.175.344.29.325.114.025.345-.255.07-.88.224.718.135.06.11-.151.49-1.695.09-.026.608-1.227.235-.523.19-.27.17-.134.234-.055.15.078.45.51.843 3.101.39 1.222 1.033 5.007.574 3.421 1.224 6.79.284 2.01 1.463 8.287 1.288 7.985.385 2.108.3 1.268.554 1.966 1.008 1.802.15.041.155-.255.13.002.075-.243.14-.052.644-1.58.13-.228.868-3.669.405-1.545 1.083-4.549 1.308-2.545.18.039.135-.256.31-.166.164-.312 1.533-1.801.415-.3.27-.53.07-.063.134.053.39-.562.633-.5.87-.211.124.057.06-.116.22.058.444-.18.28.22.065-.126.18.01.299-.273.105.045.185-.139.07.122.15-.179.988-.588 1.313-.54.185.146.21-.112.284.087 1.618-.575.09-.254.195-.003.294-.07.11-.006.095.132.115-.14.2.184.284-.211.115-.003.115.12.115-.136.16.12.15-.145.039.06.794-.011.42.09.11-.01.109.12.105-.075.17.108.948.285.375.014.075.12.21-.029.104-.009.095.114.195-.021.839.415.2-.214.154.163.11-.002.325.163.2-.025.074.117.105-.14.085.106.105-.064.1.111.095-.078.204.172.295-.096.275-.091.06.052.174-.012.095.052.325-.223.174-.019.09-.01.195-.079.704.017.11-.196.21-.012.2.057.189.192.21-.077.22-.074.1.065.184-.202.085.077.195-.148.334.064.17.064.195-.003.11-.115.389.121.11-.137.125.07.284-.192.574.263.33-.199.38.135.194.003.335-.054 1.163-.051.22.073.724.074.254.256.1.07.215-.06 1.588.086.155-.192.244.445.11.07.095.254.11-.135.09.077.13-.067.074-.202.195.141.784-.308h.31l.1.128.294-.064.04.07.06-.057h.704l.4.192.993-.012.095.064.11-.064.185.192.254-.132.554-.073h.2l.594.122.21.067.989.055.2-.007.21.007.209-.013h.304l.295.192.095.058.11-.064.184.121.11-.121.175.057.2-.006.125-.064.094.131.195-.195.51.506.184-.135.105.07.195-.13.404.054.21-.058.295.115.389-.13.809-.068.145-.078.184.129.065-.061.594.182.225-.064.085.07.38-.144.464.003.055-1.803.09.63.11.32.304 2.064.205-.068.274.58.1-.013.41.34 1.348-.492.055.134.105-.057.28-.4.154-.055.26.253 1.498-.83.18-.006.21.006 1.212.115.09.077.205-.074.35-.06.034-.004.115.196.1-.141.4-.007.29-.179.509-.128.084-.077.195.128.15.064.06-.128.095.06.12-.128.394.378"/></g><clipPath id="u"><path transform="matrix(1 0 0 -1 0 345.6)" d="M103.104 38.016h266.112v266.112H103.104z"/></clipPath><g clip-path="url(#u)"><path stroke-width="2.5" stroke-dasharray="9.25,4" stroke-linejoin="round" fill="none" stroke="red" d="M115.2 81.902h141.958l.21-21.16h23.572l.11 21.16h76.07"/></g><path stroke-width=".8" stroke-linecap="square" stroke-miterlimit="10" fill="none" stroke="#000" d="M103.104 307.584V41.472M369.216 307.584V41.472M103.104 307.584h266.112M103.104 41.472h266.112"/><path d="M110.104 78.816h128.844c1.333 0 2-.667 2-2V48.472c0-1.333-.667-2-2-2H110.104c-1.333 0-2 .667-2 2v28.344c0 1.333.667 2 2 2z" fill="#fff" fill-opacity=".8"/><path stroke-miterlimit="10" fill="none" stroke="#d5d6d5" stroke-opacity=".8" d="M110.104 78.816h128.844c1.333 0 2-.667 2-2V48.472c0-1.333-.667-2-2-2H110.104c-1.333 0-2 .667-2 2v28.344c0 1.333.667 2 2 2z"/><path stroke-width="2.5" stroke-linecap="square" stroke-linejoin="round" fill="none" stroke="teal" d="M112.104 54.566h20"/><symbol id="v"><path transform="matrix(.001 0 0 .001 -.056 .013)" d="M644 673V569c-34 30-69 53-107 69-38 15-77 23-119 23-84 0-148-26-192-77s-66-124-66-220 22-170 66-221 108-76 192-76c42 0 81 7 119 23 38 15 73 38 107 69V56c-35-24-72-41-110-52s-79-17-122-17C302-13 215 20 151 87S56 246 56 364c0 117 31 209 95 277 64 67 151 101 261 101 44 0 85-6 123-17 38-12 75-29 109-52z"/></symbol><symbol id="w"><path transform="matrix(.001 0 0 .001 -.085 .013)" d="M85 216v331h90V219c0-52 10-90 30-116s50-39 91-39c48 0 87 15 115 46s42 73 42 127v310h90V0h-90v84c-22-34-48-58-76-74-29-15-62-23-100-23-63 0-111 19-143 58-33 38-49 95-49 171zm226 344z"/></symbol><symbol id="x"><path transform="translate(-.091) scale(.001)" d="M411 463c-10 6-21 10-33 13-12 2-25 4-39 4-51 0-90-17-117-50-28-33-41-80-41-142V0H91v547h90v-85c18 33 43 58 73 74s67 24 111 24c6 0 13-1 21-1 7-1 15-2 25-4v-92z"/></symbol><symbol id="y"><path transform="translate(-.091) scale(.001)" d="M549 330V0h-90v327c0 52-11 90-31 116s-50 39-90 39c-49 0-87-16-115-47s-42-73-42-126V0H91v547h90v-85c21 32 46 57 76 73 29 16 63 25 101 25 62 0 110-20 142-59s49-96 49-171z"/></symbol><symbol id="z"><path transform="translate(-.027) scale(.001)" d="M183 702V547h185v-70H183V180c0-45 6-74 18-86 12-13 37-19 75-19h92V0h-92c-70 0-118 13-144 39s-39 73-39 141v297H27v70h66v155h90z"/></symbol><symbol id="A"><path transform="matrix(.001 0 0 .001 -.086 .131)" d="M310 759c-44-76-76-150-97-223-22-73-32-147-32-222 0-76 10-150 32-223 21-74 53-147 97-222h-78C183-54 146 20 122 94S86 241 86 314c0 72 12 145 36 219s60 149 110 226h78z"/></symbol><symbol id="B"><path transform="matrix(.001 0 0 .001 -.056 .013)" d="M394 662c-72 0-129-27-171-80-42-54-63-126-63-218s21-165 63-218c42-54 99-80 171-80 71 0 128 26 170 80 42 53 63 126 63 218s-21 164-63 218c-42 53-99 80-170 80zm0 80c102 0 183-35 245-103 61-68 92-160 92-275 0-116-31-207-92-275C577 21 496-13 394-13 291-13 209 21 148 89c-62 68-92 159-92 275 0 115 30 207 92 275 61 68 143 103 246 103z"/></symbol><symbol id="C"><path transform="matrix(.001 0 0 .001 -.08 .131)" d="M80 759h78c48-77 85-152 109-226s37-147 37-219c0-73-13-146-37-220S206-54 158-131H80c43 75 75 148 97 222 21 73 32 147 32 223 0 75-11 149-32 222-22 73-54 147-97 223z"/></symbol><use xlink:href="#v" transform="matrix(10 0 0 -10 140.664 58.196)"/><use xlink:href="#w" transform="matrix(10 0 0 -10 147.934 58.196)"/><use xlink:href="#x" transform="matrix(10 0 0 -10 154.334 58.066)"/><use xlink:href="#x" transform="matrix(10 0 0 -10 158.272 58.066)"/><use xlink:href="#j" transform="matrix(10 0 0 -10 161.803 58.196)"/><use xlink:href="#y" transform="matrix(10 0 0 -10 168.313 58.066)"/><use xlink:href="#z" transform="matrix(10 0 0 -10 174.013 58.066)"/><use xlink:href="#k" transform="matrix(10 0 0 -10 177.663 58.066)"/><use xlink:href="#m" transform="matrix(10 0 0 -10 181.383 58.196)"/><use xlink:href="#q" transform="matrix(10 0 0 -10 186.963 60.136)"/><use xlink:href="#j" transform="matrix(10 0 0 -10 192.953 58.196)"/><use xlink:href="#j" transform="matrix(10 0 0 -10 199.103 58.196)"/><use xlink:href="#r" transform="matrix(10 0 0 -10 205.253 58.196)"/><use xlink:href="#k" transform="matrix(10 0 0 -10 211.053 58.066)"/><use xlink:href="#A" transform="matrix(10 0 0 -10 215.093 59.376)"/><use xlink:href="#B" transform="matrix(10 0 0 -10 218.693 58.196)"/><use xlink:href="#p" transform="matrix(10 0 0 -10 226.663 58.196)"/><use xlink:href="#C" transform="matrix(10 0 0 -10 233.153 59.376)"/><path stroke-width="2.5" stroke-dasharray="9.25,4" stroke-linejoin="round" fill="none" stroke="red" d="M112.104 69.238h20"/><symbol id="D"><path transform="translate(-.098) scale(.001)" d="M197 648V81h119c100 0 174 22 221 68 46 46 70 118 70 216s-24 169-70 215c-47 45-121 68-221 68H197zm-99 81h203c141 0 245-30 311-88 66-59 99-151 99-276 0-126-34-218-100-277S441 0 301 0H98v729z"/></symbol><use xlink:href="#D" transform="matrix(10 0 0 -10 141.084 72.738)"/><use xlink:href="#j" transform="matrix(10 0 0 -10 148.354 72.868)"/><use xlink:href="#m" transform="matrix(10 0 0 -10 154.494 72.868)"/><use xlink:href="#h" transform="matrix(10 0 0 -10 160.104 72.738)"/><use xlink:href="#x" transform="matrix(10 0 0 -10 162.854 72.738)"/><use xlink:href="#j" transform="matrix(10 0 0 -10 166.385 72.868)"/><use xlink:href="#r" transform="matrix(10 0 0 -10 172.535 72.868)"/><use xlink:href="#k" transform="matrix(10 0 0 -10 178.335 72.738)"/><use xlink:href="#m" transform="matrix(10 0 0 -10 182.055 72.868)"/><use xlink:href="#q" transform="matrix(10 0 0 -10 187.635 74.808)"/><use xlink:href="#j" transform="matrix(10 0 0 -10 193.625 72.868)"/><use xlink:href="#j" transform="matrix(10 0 0 -10 199.775 72.868)"/><use xlink:href="#r" transform="matrix(10 0 0 -10 205.925 72.868)"/><use xlink:href="#k" transform="matrix(10 0 0 -10 211.725 72.738)"/><use xlink:href="#A" transform="matrix(10 0 0 -10 215.765 74.048)"/><use xlink:href="#B" transform="matrix(10 0 0 -10 219.365 72.868)"/><use xlink:href="#p" transform="matrix(10 0 0 -10 227.335 72.868)"/><use xlink:href="#C" transform="matrix(10 0 0 -10 233.825 74.048)"/></svg>