<svg xmlns="http://www.w3.org/2000/svg" xmlns:xlink="http://www.w3.org/1999/xlink" width="614.4" height="460.8" viewBox="0 0 460.8 345.6"><path d="M0 345.6h460.8V0H0z" fill="#fff"/><path d="M103.104 307.584h266.112V41.472H103.104z" fill="#fff"/><path stroke-width=".8" stroke-linejoin="round" fill="none" stroke="#000" d="M112.51 307.584v3.5"/><symbol id="a"><path transform="matrix(.001 0 0 .001 -.066 .013)" d="M318 664c-51 0-89-25-115-75s-38-125-38-225 12-175 38-225 64-75 115-75 89 25 115 75c25 50 38 125 38 225s-13 175-38 225c-26 50-64 75-115 75zm0 78c81 0 143-33 187-97 43-65 65-159 65-281 0-123-22-217-65-281-44-64-106-96-188-96S173 19 130 83 66 241 66 364c0 122 21 216 64 281 43 64 106 97 188 97z"/></symbol><use xlink:href="#a" transform="matrix(10 0 0 -10 109.991 322.308)"/><path stroke-width=".8" stroke-linejoin="round" fill="none" stroke="#000" d="M157.784 307.584v3.5"/><symbol id="b"><path transform="matrix(.001 0 0 .001 -.077 .013)" d="M108 729h387v-83H198V467c14 5 29 9 43 11s29 4 43 4c81 0 145-23 193-67 48-45 72-105 72-181 0-79-25-140-74-183S357-13 269-13c-31 0-62 3-94 7-32 5-64 12-98 23v99c29-16 59-28 91-36 31-8 64-11 99-11 56 0 101 14 134 44 32 30 49 70 49 121 0 50-17 90-49 120-33 30-78 45-134 45-26 0-53-3-79-9s-53-15-80-27v366z"/></symbol><use xlink:href="#b" transform="matrix(10 0 0 -10 155.374 322.308)"/><path stroke-width=".8" stroke-linejoin="round" fill="none" stroke="#000" d="M203.056 307.584v3.5"/><symbol id="c"><path transform="translate(-.11) scale(.001)" d="M124 83h161v556l-175-35v90l174 35h99V83h161V0H124v83z"/></symbol><use xlink:href="#c" transform="matrix(10 0 0 -10 197.797 322.178)"/><use xlink:href="#a" transform="matrix(10 0 0 -10 203.717 322.308)"/><path stroke-width=".8" stroke-linejoin="round" fill="none" stroke="#000" d="M248.33 307.584v3.5"/><use xlink:href="#c" transform="matrix(10 0 0 -10 243.07 322.178)"/><use xlink:href="#b" transform="matrix(10 0 0 -10 249.1 322.308)"/><path stroke-width=".8" stroke-linejoin="round" fill="none" stroke="#000" d="M293.602 307.584v3.5"/><symbol id="d"><path transform="translate(-.073) scale(.001)" d="M192 83h344V0H73v83c37 38 88 90 153 156 64 65 105 107 122 126 32 35 54 65 66 90 12 24 19 49 19 73 0 38-14 70-41 94s-62 37-106 37c-31 0-64-6-98-16-34-11-71-27-110-49v100c40 16 77 28 111 36s66 12 95 12c75 0 135-19 180-57s68-88 68-151c0-30-6-59-17-85-11-27-31-59-61-95-8-10-34-37-78-82S271 164 192 83z"/></symbol><use xlink:href="#d" transform="matrix(10 0 0 -10 287.973 322.178)"/><use xlink:href="#a" transform="matrix(10 0 0 -10 294.263 322.308)"/><path stroke-width=".8" stroke-linejoin="round" fill="none" stroke="#000" d="M338.875 307.584v3.5"/><use xlink:href="#d" transform="matrix(10 0 0 -10 333.246 322.178)"/><use xlink:href="#b" transform="matrix(10 0 0 -10 339.646 322.308)"/><symbol id="e"><path transform="translate(.002) scale(.001)" d="M-2 729h616v-83H355V0h-99v646H-2v83z"/></symbol><symbol id="f"><path transform="translate(-.094) scale(.001)" d="M94 547h90V0H94v547zm0 213h90V646H94v114z"/></symbol><symbol id="g"><path transform="translate(-.091) scale(.001)" d="M520 442c22 40 49 69 80 89 31 19 68 29 111 29 56 0 100-20 131-60s47-97 47-170V0h-90v327c0 52-10 91-28 117-19 25-47 38-85 38-47 0-84-16-111-47s-40-73-40-126V0h-90v327c0 52-10 91-28 117-19 25-48 38-86 38-46 0-83-16-110-47s-40-73-40-126V0H91v547h90v-85c20 33 45 58 74 74 28 16 62 24 102 24s73-10 101-30 48-50 62-88z"/></symbol><symbol id="h"><path transform="matrix(.001 0 0 .001 -.055 .013)" d="M562 296v-44H149c4-62 22-110 56-142 33-32 79-48 139-48 34 0 68 4 100 12s65 21 97 39V28c-32-14-65-25-99-31s-69-10-103-10c-88 0-157 25-208 75S55 181 55 268c0 89 24 160 72 213 48 52 114 79 196 79 74 0 132-24 175-71 42-48 64-112 64-193zm-90 26c-1 49-15 88-41 118-27 29-63 44-107 44-50 0-90-15-120-43s-48-68-52-119h320z"/></symbol><symbol id="j"><path transform="matrix(.001 0 0 .001 -.086 .131)" d="M86 760h207v-70H176V-61h117v-70H86v891z"/></symbol><symbol id="k"><path transform="matrix(.001 0 0 .001 -.054 .013)" d="M443 531v-85c-26 12-52 22-79 29-28 6-56 10-85 10-45 0-79-7-101-21s-33-34-33-61c0-21 8-37 24-49s48-24 96-34l31-7c64-14 109-34 136-58 26-25 40-60 40-104 0-51-20-91-60-120-40-30-96-44-166-44-30 0-60 3-92 8S89 8 54 20v93c33-18 66-31 98-39 32-9 64-13 96-13 42 0 75 7 98 21 22 14 34 35 34 62 0 24-9 43-25 56s-52 26-108 38l-31 7c-56 12-97 30-121 54-25 24-37 57-37 100 0 51 18 91 54 119s88 42 156 42c33 0 64-3 94-8 29-5 56-12 81-21z"/></symbol><symbol id="l"><path transform="matrix(.001 0 0 .001 -.097 .131)" d="M304 760v-891H97v70h117v751H97v70h207z"/></symbol><use xlink:href="#e" transform="matrix(10 0 0 -10 215.757 335.85)"/><use xlink:href="#f" transform="matrix(10 0 0 -10 222.53 335.85)"/><use xlink:href="#g" transform="matrix(10 0 0 -10 225.28 335.85)"/><use xlink:href="#h" transform="matrix(10 0 0 -10 234.66 335.98)"/><use xlink:href="#i" transform="matrix(10 0 0 -10 240.26 335.85)"/><use xlink:href="#j" transform="matrix(10 0 0 -10 244.3 337.16)"/><use xlink:href="#k" transform="matrix(10 0 0 -10 247.88 335.98)"/><use xlink:href="#l" transform="matrix(10 0 0 -10 253.52 337.16)"/><path stroke-width=".8" stroke-linejoin="round" fill="none" stroke="#000" d="M103.104 279.37h-3.5"/><use xlink:href="#d" transform="matrix(10 0 0 -10 84.115 283.166)"/><use xlink:href="#b" transform="matrix(10 0 0 -10 90.515 283.296)"/><path stroke-width=".8" stroke-linejoin="round" fill="none" stroke="#000" d="M103.104 245.307h-3.5"/><use xlink:href="#b" transform="matrix(10 0 0 -10 84.155 249.234)"/><use xlink:href="#a" transform="matrix(10 0 0 -10 90.405 249.234)"/><path stroke-width=".8" stroke-linejoin="round" fill="none" stroke="#000" d="M103.104 211.244h-3.5"/><symbol id="m"><path transform="translate(-.082) scale(.001)" d="M82 729h469v-42L286 0H183l249 646H82v83z"/></symbol><use xlink:href="#m" transform="matrix(10 0 0 -10 84.205 215.041)"/><use xlink:href="#b" transform="matrix(10 0 0 -10 90.515 215.171)"/><path stroke-width=".8" stroke-linejoin="round" fill="none" stroke="#000" d="M103.104 177.182h-3.5"/><use xlink:href="#c" transform="matrix(10 0 0 -10 78.126 180.978)"/><use xlink:href="#a" transform="matrix(10 0 0 -10 84.046 181.108)"/><use xlink:href="#a" transform="matrix(10 0 0 -10 90.406 181.108)"/><path stroke-width=".8" stroke-linejoin="round" fill="none" stroke="#000" d="M103.104 143.119h-3.5"/><use xlink:href="#c" transform="matrix(10 0 0 -10 78.126 146.916)"/><use xlink:href="#d" transform="matrix(10 0 0 -10 84.116 146.916)"/><use xlink:href="#b" transform="matrix(10 0 0 -10 90.516 147.046)"/><path stroke-width=".8" stroke-linejoin="round" fill="none" stroke="#000" d="M103.104 109.056h-3.5"/><use xlink:href="#c" transform="matrix(10 0 0 -10 78.126 112.853)"/><use xlink:href="#b" transform="matrix(10 0 0 -10 84.156 112.983)"/><use xlink:href="#a" transform="matrix(10 0 0 -10 90.406 112.983)"/><path stroke-width=".8" stroke-linejoin="round" fill="none" stroke="#000" d="M103.104 74.994h-3.5"/><use xlink:href="#c" transform="matrix(10 0 0 -10 78.126 78.79)"/><use xlink:href="#m" transform="matrix(10 0 0 -10 84.206 78.79)"/><use xlink:href="#b" transform="matrix(10 0 0 -10 90.516 78.92)"/><symbol id="n"><path transform="translate(-.098) scale(.001)" d="M197 648V81h119c100 0 174 22 221 68 46 46 70 118 70 216s-24 169-70 215c-47 45-121 68-221 68H197zm-99 81h203c141 0 245-30 311-88 66-59 99-151 99-276 0-126-34-218-100-277S441 0 301 0H98v729z"/></symbol><symbol id="o"><path transform="translate(-.027) scale(.001)" d="M183 702V547h185v-70H183V180c0-45 6-74 18-86 12-13 37-19 75-19h92V0h-92c-70 0-118 13-144 39s-39 73-39 141v297H27v70h66v155h90z"/></symbol><symbol id="p"><path transform="matrix(.001 0 0 .001 -.06 .013)" d="M343 275c-73 0-123-9-151-25-28-17-42-45-42-85 0-32 10-58 31-76 21-19 50-28 86-28 50 0 90 17 120 53 30 35 45 82 45 141v20h-89zm179 37V0h-90v83c-21-34-47-58-77-73s-68-23-112-23c-56 0-101 15-134 46s-49 73-49 126c0 61 20 107 62 139 41 31 102 47 184 47h126v9c0 41-14 73-41 96-27 22-65 34-114 34-32 0-62-4-92-12s-58-19-85-33v83c32 12 64 22 95 28s61 10 91 10c79 0 138-21 177-62s59-103 59-186z"/></symbol><symbol id="q"><path transform="translate(-.091) scale(.001)" d="M549 330V0h-90v327c0 52-11 90-31 116s-50 39-90 39c-49 0-87-16-115-47s-42-73-42-126V0H91v547h90v-85c21 32 46 57 76 73 29 16 63 25 101 25 62 0 110-20 142-59s49-96 49-171z"/></symbol><symbol id="r"><path transform="matrix(.001 0 0 .001 -.055 .013)" d="M488 526v-84c-26 14-51 24-77 31s-51 11-77 11c-58 0-104-19-136-56s-48-89-48-155c0-67 16-119 48-156s78-55 136-55c26 0 51 3 77 10s51 18 77 32V21C462 9 436 0 410-5c-27-5-56-8-86-8-82 0-148 25-196 77-49 51-73 121-73 209 0 89 24 159 73 210s116 77 202 77c28 0 55-3 81-9s52-14 77-25z"/></symbol><use xlink:href="#n" transform="matrix(0 -10 -10 0 70.948 205.798)"/><use xlink:href="#f" transform="matrix(0 -10 -10 0 70.948 198.138)"/><use xlink:href="#k" transform="matrix(0 -10 -10 0 71.078 195.758)"/><use xlink:href="#o" transform="matrix(0 -10 -10 0 70.948 190.818)"/><use xlink:href="#p" transform="matrix(0 -10 -10 0 71.078 186.568)"/><use xlink:href="#q" transform="matrix(0 -10 -10 0 70.948 180.128)"/><use xlink:href="#r" transform="matrix(0 -10 -10 0 71.078 174.148)"/><use xlink:href="#h" transform="matrix(0 -10 -10 0 71.078 168.648)"/><use xlink:href="#i" transform="matrix(0 -10 -10 0 70.948 163.048)"/><use xlink:href="#j" transform="matrix(0 -10 -10 0 72.258 159.008)"/><use xlink:href="#g" transform="matrix(0 -10 -10 0 70.948 155.058)"/><use xlink:href="#l" transform="matrix(0 -10 -10 0 72.258 145.258)"/><clipPath id="s"><path transform="matrix(1 0 0 -1 0 345.6)" d="M103.104 38.016h266.112v266.112H103.104z"/></clipPath><g clip-path="url(#s)"><path stroke-width="2.5" stroke-linecap="square" stroke-linejoin="round" fill="none" stroke="#00f" d="m115.2 53.568 1.521.457.462.193.57.274.498.377.245.043.136.187.552.371 1.123.736.127.24.37.208 2.255 2.136.49.559.552.448.697.924.18.068.182.341.525.485.399.57.19.069.145.365.172.07.208.37.181.07.208.224.154.38.272.072.434.85.245.073.136.399.371.477.39.483.162.074.344.49 1.105 1.506.317.696 1.476 1.927.18.463.173.078.561.82.181.475.19.079.372.558.335.769.18.078.78 1.358.135.079 6.945 11.885.136.317.19.082.145.554.172.081.543 1.194.254.081.1.558.742 1.04.724 1.52.236.082.534 1.2.68 1.044.198.32.145.56.181.082.38.88.553.723.688 1.28 1.72 3.113.127.082.426.874.127.082.307.636.498.871.616 1.268.172.082.417.866.172.082 1.15 2.123.09.082.154.546.924 1.336.163.543.217.082 1.24 2.41.182.083.162.539.19.082.372.62.362.62 1.666 3.002.154.082.905 1.535.173.53.18.082.173.53.226.082.163.53.163.081.19.529.272.082.48 1.137.208.082.66 1.438.29.304.3.607.117.082 1.014 1.514.082.522.172.082.226.522.163.082.371.823.163.082.353.602.372.602.19.52.751.982 2.952 5 .1.082 1.829 3.188.199.082.145.511.308.082.425.89.734 1.397.371.591.534.887.2.082.325.59.353.59.39.803.18.083.526 1.096.733.966.517 1.094.18.082.209.506.181.082.896 1.469.19.505.164.082.461.798.254.586.67.668.09.504 3.07 4.76.371.794.362.583.254.082.253.583.38.792 3.116 4.737.153.5.335.372.933 1.452.435.788.081.29.19.082.172.498.236.082.489.87.362.58 2.137 3.392.081.082.525 1.076.19.082.562.867.118.496.244.082.299.578.254.495.208.082.47.866.281.289.1.495.163.082.272.288.081.496.181.081.38.784.227.082.117.495.2.082 1.611 2.801.218.082.317.576.271.288.29.783.543.864.172.081.163.494.2.082.398.576.172.494.19.082.136.494.2.082 1.448 2.508.19.082.163.493.2.082.398.781.126.082.372.781.244.082.47 1.068.182.082.625.862.308.78.905 1.437.226.082.652 1.355.227.082.896 1.641.154.082.181.493.724.943.163.493.227.081.489.78.597.943.734 1.354.172.082.136.287.29.286.09.492.172.082.724 1.147.19.492.227.082.127.492.434.573.127.287.172.082.2.492.162.082.371.778.38.369.137.492 2.19 3.237.363.78.181.08.715 1.148.181.492.734.942.525.86.181.492.172.082.236.287.326.778.18.287.227.082.344.573.19.287.145.492.906 1.229.19.491.208.082.353.778.181.287.236.082.1.491.615.86.118.082.208.287.145.491.217.082.498 1.065 1.286 1.719.18.369.526.861.29.287.271.574.2.491.28.287.245.368.199.49.235.082.29.777.163.286.19.082.362.572.435.777.299.572.19.082 2.01 3.146.643.862 1.15 1.728 2.508 3.78.733 1.172.562.88.425.587.852 1.757 1.068 2.241.398.579.698 1.151.199.082 1.25 2.2.144.078 1.521 2.253 1.458 2.434.154.073 1.594 2.655.308.066.887 1.075 2.264 2.906.362.517.706.77 1.92 2.261.66.734 3.631 4.218 1.395 1.74.87.852 1.955 2.409.87.748 2.19 2.077.435.316.407.46.86.579.263.09.399.444 1.294.819 2.291 1.083 2.382.449.86-.147 2.164-.64.353-.175 2.888-.979 2.182-.919 1.784-.904 2.735-1.59.344-.23 2.435-1.653.462-.396.371-.2.933-.684.344-.281 1.105-.956.226-.061.462-.452 1.711-1.516.1-.163.362-.222 1.883-1.803.281-.227.39-.35 1.104-1.068.326-.493.19-.05.353-.501.181-.05.652-.694.1-.188.154-.048 1.095-1.135.553-.722.199-.046.145-.342.18-.045 2.21-2.378.317-.566.19-.206.218-.045.878-1.042.208-.375.172-.048 1.05-1.297.209-.39.262-.052 1.232-1.75.19-.057.86-1.335.172-.06.2-.41.171-.06.507-.713.39-.656 1.639-2.189.226-.065.308-.676.19-.066.516-.747.19-.434.218-.068.498-.758.47-.693.254-.325.217-.257.136-.442.226-.072.335-.516 1.132-1.75.3-.525.289-.075.108-.452.915-1.137.19-.456.154-.077 1.268-1.879 2.544-3.809.19-.467.172-.082.426-.55.271-.744.182-.276.19-.083.18-.47.19-.083.553-1.025 1.25-1.754 1.068-1.676.227-.28.896-1.598.335-.562.244-.085.11-.477 1.258-1.772.208-.477.552-.648.163-.478.19-.085.263-.282.118-.478.163-.085.163-.478.271-.086.109-.478.154-.085.226-.282.507-1.044.725-.932.19-.48.371-.367.38-.762.154-.282.181-.085.29-.282.272-.565.706-1.13.19-.48.697-.93.39-.764.19-.083.824-1.328.081-.282.879-1.211.217-.481.172-.083.362-.763.525-.846.181-.082.181-.481.173-.083.38-.763.516-.646.263-.282.316-.764.181-.082 1.096-1.892.145-.082.19-.482.163-.082.552-.847.2-.482.163-.082.199-.482.163-.083.199-.482.163-.082"/></g><clipPath id="t"><path transform="matrix(1 0 0 -1 0 345.6)" d="M103.104 38.016h266.112v266.112H103.104z"/></clipPath><g clip-path="url(#t)"><path d="m278.569 298.488 6-6m-6 0 6 6" fill="orange"/><path stroke-width="2.5" stroke-linejoin="round" fill="none" stroke="orange" d="m278.569 298.488 6-6m-6 0 6 6"/></g><path stroke-width=".8" stroke-linecap="square" stroke-miterlimit="10" fill="none" stroke="#000" d="M103.104 307.584V41.472M369.216 307.584V41.472M103.104 307.584h266.112M103.104 41.472h266.112"/><path d="M184.966 78.816h177.25c1.333 0 2-.667 2-2V48.472c0-1.333-.667-2-2-2h-177.25c-1.333 0-2 .667-2 2v28.344c0 1.333.667 2 2 2z" fill="#fff" fill-opacity=".8"/><path stroke-miterlimit="10" fill="none" stroke="#d5d6d5" stroke-opacity=".8" d="M184.966 78.816h177.25c1.333 0 2-.667 2-2V48.472c0-1.333-.667-2-2-2h-177.25c-1.333 0-2 .667-2 2v28.344c0 1.333.667 2 2 2z"/><path stroke-width="2.5" stroke-linecap="square" stroke-linejoin="round" fill="none" stroke="#00f" d="M186.966 54.566h20"/><symbol id="u"><path transform="matrix(.001 0 0 .001 -.091 .013)" d="M487 273c0 66-14 117-41 155-28 38-65 57-112 57-48 0-85-19-112-57-28-38-41-89-41-155s13-118 41-156c27-38 64-56 112-56 47 0 84 18 112 56 27 38 41 90 41 156zM181 464c18 32 42 56 71 72s64 24 104 24c66 0 120-27 162-79 41-53 62-122 62-208s-21-156-62-208c-42-52-96-78-162-78-40 0-75 8-104 23s-53 39-71 72V0H91v760h90V464z"/></symbol><symbol id="v"><path transform="translate(-.042) scale(.001)" d="M42 547h90l112-427 112 427h106l112-427 112 427h90L633 0H527L409 448 291 0H185L42 547z"/></symbol><symbol id="w"><path transform="matrix(.001 0 0 .001 -.056 .013)" d="M394 662c-72 0-129-27-171-80-42-54-63-126-63-218s21-165 63-218c42-54 99-80 171-80 71 0 128 26 170 80 42 53 63 126 63 218s-21 164-63 218c-42 53-99 80-170 80zm0 80c102 0 183-35 245-103 61-68 92-160 92-275 0-116-31-207-92-275C577 21 496-13 394-13 291-13 209 21 148 89c-62 68-92 159-92 275 0 115 30 207 92 275 61 68 143 103 246 103z"/></symbol><symbol id="x"><path transform="matrix(.001 0 0 .001 -.066 .013)" d="M535 705v-96c-38 18-73 31-106 40-34 8-66 13-96 13-54 0-96-11-125-31-29-21-43-51-43-89 0-32 9-57 29-73 19-17 56-30 110-40l60-12c73-14 127-39 162-74 35-36 53-83 53-142 0-71-24-124-71-160-48-36-117-54-208-54-35 0-72 4-111 11S110 16 69 32v102c40-23 79-40 117-51 38-12 76-17 114-17 56 0 99 11 130 33 30 22 46 53 46 95 0 36-11 64-33 84s-58 35-108 45l-60 12c-74 14-127 37-160 69-33 31-49 74-49 130 0 64 22 115 68 152 45 37 108 56 188 56 34 0 68-3 104-9 35-6 71-16 109-28z"/></symbol><symbol id="y"><path transform="matrix(.001 0 0 .001 -.055 .013)" d="M454 464v296h90V0h-90v82c-19-33-43-57-72-72s-63-23-103-23c-66 0-120 26-162 78S55 187 55 273s20 155 62 208c42 52 96 79 162 79 40 0 74-8 103-24s53-40 72-72zM148 273c0-66 13-118 40-156s64-56 112-56 85 18 113 56c27 38 41 90 41 156s-14 117-41 155c-28 38-65 57-113 57s-85-19-112-57-40-89-40-155z"/></symbol><use xlink:href="#n" transform="matrix(10 0 0 -10 215.946 58.066)"/><use xlink:href="#f" transform="matrix(10 0 0 -10 223.606 58.066)"/><use xlink:href="#k" transform="matrix(10 0 0 -10 225.986 58.196)"/><use xlink:href="#o" transform="matrix(10 0 0 -10 230.926 58.066)"/><use xlink:href="#p" transform="matrix(10 0 0 -10 235.176 58.196)"/><use xlink:href="#q" transform="matrix(10 0 0 -10 241.616 58.066)"/><use xlink:href="#r" transform="matrix(10 0 0 -10 247.596 58.196)"/><use xlink:href="#h" transform="matrix(10 0 0 -10 253.096 58.196)"/><use xlink:href="#i" transform="matrix(10 0 0 -10 258.696 58.066)"/><use xlink:href="#u" transform="matrix(10 0 0 -10 262.786 58.196)"/><use xlink:href="#h" transform="matrix(10 0 0 -10 268.776 58.196)"/><use xlink:href="#o" transform="matrix(10 0 0 -10 274.646 58.066)"/><use xlink:href="#v" transform="matrix(10 0 0 -10 278.716 58.066)"/><use xlink:href="#h" transform="matrix(10 0 0 -10 287.026 58.196)"/><use xlink:href="#h" transform="matrix(10 0 0 -10 293.176 58.196)"/><use xlink:href="#q" transform="matrix(10 0 0 -10 299.686 58.066)"/><use xlink:href="#i" transform="matrix(10 0 0 -10 305.116 58.066)"/><use xlink:href="#w" transform="matrix(10 0 0 -10 308.856 58.196)"/><use xlink:href="#x" transform="matrix(10 0 0 -10 316.826 58.196)"/><use xlink:href="#i" transform="matrix(10 0 0 -10 322.516 58.066)"/><use xlink:href="#p" transform="matrix(10 0 0 -10 326.296 58.196)"/><use xlink:href="#q" transform="matrix(10 0 0 -10 332.736 58.066)"/><use xlink:href="#y" transform="matrix(10 0 0 -10 338.716 58.196)"/><use xlink:href="#i" transform="matrix(10 0 0 -10 344.516 58.066)"/><use xlink:href="#e" transform="matrix(10 0 0 -10 347.676 58.066)"/><use xlink:href="#x" transform="matrix(10 0 0 -10 354.466 58.196)"/><path d="m193.966 73.113 6-6m-6 0 6 6" fill="orange"/><path stroke-width="2.5" stroke-linejoin="round" fill="none" stroke="orange" d="m193.966 73.113 6-6m-6 0 6 6"/><symbol id="z"><path transform="translate(-.107) scale(.001)" d="M107 124h103V0H107v124z"/></symbol><symbol id="A"><path transform="matrix(.001 0 0 .001 -.106 -.172)" d="M106 454h626v-82H106v82zm0-199h626v-83H106v83z"/></symbol><symbol id="B"><path transform="matrix(.001 0 0 .001 -.076 .013)" d="M406 393c47-10 84-31 110-63s40-72 40-118c0-72-25-128-74-167-50-39-120-58-211-58-31 0-63 3-95 9-32 5-66 14-100 26v95c27-16 57-28 90-36 32-8 66-12 102-12 62 0 109 12 141 36s49 60 49 107c0 42-15 76-45 100s-72 37-126 37h-85v81h89c48 0 85 9 111 29 26 19 39 47 39 84s-14 66-40 86c-27 20-65 30-114 30-27 0-56-3-87-9s-65-15-102-27v88c37 10 72 18 105 23 32 5 63 8 93 8 74 0 133-17 177-51s66-80 66-138c0-40-12-74-35-102s-56-48-98-58z"/></symbol><use xlink:href="#g" transform="matrix(10 0 0 -10 215.876 72.738)"/><use xlink:href="#f" transform="matrix(10 0 0 -10 225.646 72.738)"/><use xlink:href="#q" transform="matrix(10 0 0 -10 228.396 72.738)"/><use xlink:href="#z" transform="matrix(10 0 0 -10 234.896 72.738)"/><use xlink:href="#i" transform="matrix(10 0 0 -10 237.006 72.738)"/><use xlink:href="#y" transform="matrix(10 0 0 -10 240.736 72.868)"/><use xlink:href="#f" transform="matrix(10 0 0 -10 247.476 72.738)"/><use xlink:href="#k" transform="matrix(10 0 0 -10 249.856 72.868)"/><use xlink:href="#o" transform="matrix(10 0 0 -10 254.796 72.738)"/><use xlink:href="#p" transform="matrix(10 0 0 -10 259.046 72.868)"/><use xlink:href="#q" transform="matrix(10 0 0 -10 265.486 72.738)"/><use xlink:href="#r" transform="matrix(10 0 0 -10 271.466 72.868)"/><use xlink:href="#h" transform="matrix(10 0 0 -10 276.966 72.868)"/><use xlink:href="#i" transform="matrix(10 0 0 -10 282.566 72.738)"/><use xlink:href="#A" transform="matrix(10 0 0 -10 286.806 71.018)"/><use xlink:href="#i" transform="matrix(10 0 0 -10 294.126 72.738)"/><use xlink:href="#c" transform="matrix(10 0 0 -10 298.406 72.738)"/><use xlink:href="#B" transform="matrix(10 0 0 -10 304.426 72.868)"/><use xlink:href="#z" transform="matrix(10 0 0 -10 311.096 72.738)"/><use xlink:href="#c" transform="matrix(10 0 0 -10 314.306 72.738)"/><use xlink:href="#m" transform="matrix(10 0 0 -10 320.386 72.738)"/><use xlink:href="#i" transform="matrix(10 0 0 -10 325.926 72.738)"/><use xlink:href="#g" transform="matrix(10 0 0 -10 330.016 72.738)"/></svg>