<svg xmlns="http://www.w3.org/2000/svg" xmlns:xlink="http://www.w3.org/1999/xlink" width="614.4" height="460.8" viewBox="0 0 460.8 345.6"><path d="M0 345.6h460.8V0H0z" fill="#fff"/><path d="M103.104 307.584h266.112V41.472H103.104z" fill="#fff"/><path stroke-width=".8" stroke-linejoin="round" fill="none" stroke="#000" d="M112.51 307.584v3.5"/><symbol id="a"><path transform="matrix(.001 0 0 .001 -.066 .013)" d="M318 664c-51 0-89-25-115-75s-38-125-38-225 12-175 38-225 64-75 115-75 89 25 115 75c25 50 38 125 38 225s-13 175-38 225c-26 50-64 75-115 75zm0 78c81 0 143-33 187-97 43-65 65-159 65-281 0-123-22-217-65-281-44-64-106-96-188-96S173 19 130 83 66 241 66 364c0 122 21 216 64 281 43 64 106 97 188 97z"/></symbol><use xlink:href="#a" transform="matrix(10 0 0 -10 109.991 322.308)"/><path stroke-width=".8" stroke-linejoin="round" fill="none" stroke="#000" d="M157.784 307.584v3.5"/><symbol id="b"><path transform="matrix(.001 0 0 .001 -.077 .013)" d="M108 729h387v-83H198V467c14 5 29 9 43 11s29 4 43 4c81 0 145-23 193-67 48-45 72-105 72-181 0-79-25-140-74-183S357-13 269-13c-31 0-62 3-94 7-32 5-64 12-98 23v99c29-16 59-28 91-36 31-8 64-11 99-11 56 0 101 14 134 44 32 30 49 70 49 121 0 50-17 90-49 120-33 30-78 45-134 45-26 0-53-3-79-9s-53-15-80-27v366z"/></symbol><use xlink:href="#b" transform="matrix(10 0 0 -10 155.374 322.308)"/><path stroke-width=".8" stroke-linejoin="round" fill="none" stroke="#000" d="M203.056 307.584v3.5"/><symbol id="c"><path transform="translate(-.11) scale(.001)" d="M124 83h161v556l-175-35v90l174 35h99V83h161V0H124v83z"/></symbol><use xlink:href="#c" transform="matrix(10 0 0 -10 197.797 322.178)"/><use xlink:href="#a" transform="matrix(10 0 0 -10 203.717 322.308)"/><path stroke-width=".8" stroke-linejoin="round" fill="none" stroke="#000" d="M248.33 307.584v3.5"/><use xlink:href="#c" transform="matrix(10 0 0 -10 243.07 322.178)"/><use xlink:href="#b" transform="matrix(10 0 0 -10 249.1 322.308)"/><path stroke-width=".8" stroke-linejoin="round" fill="none" stroke="#000" d="M293.602 307.584v3.5"/><symbol id="d"><path transform="translate(-.073) scale(.001)" d="M192 83h344V0H73v83c37 38 88 90 153 156 64 65 105 107 122 126 32 35 54 65 66 90 12 24 19 49 19 73 0 38-14 70-41 94s-62 37-106 37c-31 0-64-6-98-16-34-11-71-27-110-49v100c40 16 77 28 111 36s66 12 95 12c75 0 135-19 180-57s68-88 68-151c0-30-6-59-17-85-11-27-31-59-61-95-8-10-34-37-78-82S271 164 192 83z"/></symbol><use xlink:href="#d" transform="matrix(10 0 0 -10 287.973 322.178)"/><use xlink:href="#a" transform="matrix(10 0 0 -10 294.263 322.308)"/><path stroke-width=".8" stroke-linejoin="round" fill="none" stroke="#000" d="M338.875 307.584v3.5"/><use xlink:href="#d" transform="matrix(10 0 0 -10 333.246 322.178)"/><use xlink:href="#b" transform="matrix(10 0 0 -10 339.646 322.308)"/><symbol id="e"><path transform="translate(.002) scale(.001)" d="M-2 729h616v-83H355V0h-99v646H-2v83z"/></symbol><symbol id="f"><path transform="translate(-.094) scale(.001)" d="M94 547h90V0H94v547zm0 213h90V646H94v114z"/></symbol><symbol id="g"><path transform="translate(-.091) scale(.001)" d="M520 442c22 40 49 69 80 89 31 19 68 29 111 29 56 0 100-20 131-60s47-97 47-170V0h-90v327c0 52-10 91-28 117-19 25-47 38-85 38-47 0-84-16-111-47s-40-73-40-126V0h-90v327c0 52-10 91-28 117-19 25-48 38-86 38-46 0-83-16-110-47s-40-73-40-126V0H91v547h90v-85c20 33 45 58 74 74 28 16 62 24 102 24s73-10 101-30 48-50 62-88z"/></symbol><symbol id="h"><path transform="matrix(.001 0 0 .001 -.055 .013)" d="M562 296v-44H149c4-62 22-110 56-142 33-32 79-48 139-48 34 0 68 4 100 12s65 21 97 39V28c-32-14-65-25-99-31s-69-10-103-10c-88 0-157 25-208 75S55 181 55 268c0 89 24 160 72 213 48 52 114 79 196 79 74 0 132-24 175-71 42-48 64-112 64-193zm-90 26c-1 49-15 88-41 118-27 29-63 44-107 44-50 0-90-15-120-43s-48-68-52-119h320z"/></symbol><symbol id="j"><path transform="matrix(.001 0 0 .001 -.086 .131)" d="M86 760h207v-70H176V-61h117v-70H86v891z"/></symbol><symbol id="k"><path transform="matrix(.001 0 0 .001 -.054 .013)" d="M443 531v-85c-26 12-52 22-79 29-28 6-56 10-85 10-45 0-79-7-101-21s-33-34-33-61c0-21 8-37 24-49s48-24 96-34l31-7c64-14 109-34 136-58 26-25 40-60 40-104 0-51-20-91-60-120-40-30-96-44-166-44-30 0-60 3-92 8S89 8 54 20v93c33-18 66-31 98-39 32-9 64-13 96-13 42 0 75 7 98 21 22 14 34 35 34 62 0 24-9 43-25 56s-52 26-108 38l-31 7c-56 12-97 30-121 54-25 24-37 57-37 100 0 51 18 91 54 119s88 42 156 42c33 0 64-3 94-8 29-5 56-12 81-21z"/></symbol><symbol id="l"><path transform="matrix(.001 0 0 .001 -.097 .131)" d="M304 760v-891H97v70h117v751H97v70h207z"/></symbol><use xlink:href="#e" transform="matrix(10 0 0 -10 215.757 335.85)"/><use xlink:href="#f" transform="matrix(10 0 0 -10 222.53 335.85)"/><use xlink:href="#g" transform="matrix(10 0 0 -10 225.28 335.85)"/><use xlink:href="#h" transform="matrix(10 0 0 -10 234.66 335.98)"/><use xlink:href="#i" transform="matrix(10 0 0 -10 240.26 335.85)"/><use xlink:href="#j" transform="matrix(10 0 0 -10 244.3 337.16)"/><use xlink:href="#k" transform="matrix(10 0 0 -10 247.88 335.98)"/><use xlink:href="#l" transform="matrix(10 0 0 -10 253.52 337.16)"/><path stroke-width=".8" stroke-linejoin="round" fill="none" stroke="#000" d="M103.104 300.477h-3.5"/><symbol id="m"><path transform="matrix(.001 0 0 .001 -.07 .013)" d="M330 404c-44 0-79-16-105-46s-39-72-39-124c0-53 13-95 39-125s61-45 105-45 79 15 105 45 39 72 39 125c0 52-13 94-39 124s-61 46-105 46zm196 309v-90c-25 12-50 21-75 27-26 6-51 9-75 9-66 0-116-22-150-66s-54-111-58-199c19 28 43 50 72 65s61 23 96 23c73 0 131-23 173-67s64-105 64-181c0-75-23-135-67-180S403-13 330-13c-84 0-149 32-193 96-45 64-67 158-67 281 0 115 27 207 82 275 54 68 128 103 220 103 24 0 49-3 75-7 25-5 51-12 79-22z"/></symbol><use xlink:href="#m" transform="matrix(10 0 0 -10 84.085 304.404)"/><use xlink:href="#a" transform="matrix(10 0 0 -10 90.405 304.404)"/><path stroke-width=".8" stroke-linejoin="round" fill="none" stroke="#000" d="M103.104 269.994h-3.5"/><symbol id="n"><path transform="matrix(.001 0 0 .001 -.068 .013)" d="M318 346c-47 0-84-13-111-38s-40-59-40-103 13-79 40-104 64-37 111-37c46 0 83 12 110 38 27 25 41 59 41 103s-14 78-40 103c-27 25-64 38-111 38zm-99 42c-42 10-75 30-99 59s-35 64-35 106c0 58 20 104 62 138 41 34 98 51 171 51 72 0 129-17 171-51 41-34 62-80 62-138 0-42-12-77-36-106s-56-49-98-59c47-11 84-33 111-65 26-32 40-72 40-118 0-71-22-125-65-162-44-38-106-56-186-56S175 5 132 43c-43 37-64 91-64 162 0 46 13 86 40 118 26 32 63 54 111 65zm-36 156c0-38 11-68 35-89s57-31 100-31c42 0 75 10 99 31s36 51 36 89-12 67-36 88-57 32-99 32c-43 0-76-11-100-32s-35-50-35-88z"/></symbol><use xlink:href="#n" transform="matrix(10 0 0 -10 84.065 273.921)"/><use xlink:href="#a" transform="matrix(10 0 0 -10 90.405 273.921)"/><path stroke-width=".8" stroke-linejoin="round" fill="none" stroke="#000" d="M103.104 239.512h-3.5"/><use xlink:href="#c" transform="matrix(10 0 0 -10 78.126 243.308)"/><use xlink:href="#a" transform="matrix(10 0 0 -10 84.046 243.438)"/><use xlink:href="#a" transform="matrix(10 0 0 -10 90.406 243.438)"/><path stroke-width=".8" stroke-linejoin="round" fill="none" stroke="#000" d="M103.104 209.029h-3.5"/><use xlink:href="#c" transform="matrix(10 0 0 -10 78.126 212.826)"/><use xlink:href="#d" transform="matrix(10 0 0 -10 84.116 212.826)"/><use xlink:href="#a" transform="matrix(10 0 0 -10 90.406 212.956)"/><path stroke-width=".8" stroke-linejoin="round" fill="none" stroke="#000" d="M103.104 178.546h-3.5"/><symbol id="o"><path transform="translate(-.049) scale(.001)" d="M378 643 129 254h249v389zm-26 86h124V254h104v-82H476V0h-98v172H49v95l303 462z"/></symbol><use xlink:href="#c" transform="matrix(10 0 0 -10 78.126 182.343)"/><use xlink:href="#o" transform="matrix(10 0 0 -10 83.876 182.343)"/><use xlink:href="#a" transform="matrix(10 0 0 -10 90.406 182.473)"/><path stroke-width=".8" stroke-linejoin="round" fill="none" stroke="#000" d="M103.104 148.064h-3.5"/><use xlink:href="#c" transform="matrix(10 0 0 -10 78.126 151.86)"/><use xlink:href="#m" transform="matrix(10 0 0 -10 84.086 151.99)"/><use xlink:href="#a" transform="matrix(10 0 0 -10 90.406 151.99)"/><path stroke-width=".8" stroke-linejoin="round" fill="none" stroke="#000" d="M103.104 117.581h-3.5"/><use xlink:href="#c" transform="matrix(10 0 0 -10 78.126 121.378)"/><use xlink:href="#n" transform="matrix(10 0 0 -10 84.066 121.508)"/><use xlink:href="#a" transform="matrix(10 0 0 -10 90.406 121.508)"/><path stroke-width=".8" stroke-linejoin="round" fill="none" stroke="#000" d="M103.104 87.099h-3.5"/><use xlink:href="#d" transform="matrix(10 0 0 -10 77.756 90.896)"/><use xlink:href="#a" transform="matrix(10 0 0 -10 84.046 91.026)"/><use xlink:href="#a" transform="matrix(10 0 0 -10 90.406 91.026)"/><path stroke-width=".8" stroke-linejoin="round" fill="none" stroke="#000" d="M103.104 56.616h-3.5"/><use xlink:href="#d" transform="matrix(10 0 0 -10 77.756 60.413)"/><use xlink:href="#d" transform="matrix(10 0 0 -10 84.116 60.413)"/><use xlink:href="#a" transform="matrix(10 0 0 -10 90.406 60.543)"/><symbol id="p"><path transform="matrix(.001 0 0 .001 -.056 .013)" d="M394 662c-72 0-129-27-171-80-42-54-63-126-63-218s21-165 63-218c42-54 99-80 171-80 71 0 128 26 170 80 42 53 63 126 63 218s-21 164-63 218c-42 53-99 80-170 80zm0 80c102 0 183-35 245-103 61-68 92-160 92-275 0-116-31-207-92-275C577 21 496-13 394-13 291-13 209 21 148 89c-62 68-92 159-92 275 0 115 30 207 92 275 61 68 143 103 246 103z"/></symbol><symbol id="q"><path transform="translate(-.091) scale(.001)" d="M411 463c-10 6-21 10-33 13-12 2-25 4-39 4-51 0-90-17-117-50-28-33-41-80-41-142V0H91v547h90v-85c18 33 43 58 73 74s67 24 111 24c6 0 13-1 21-1 7-1 15-2 25-4v-92z"/></symbol><symbol id="r"><path transform="translate(-.027) scale(.001)" d="M183 702V547h185v-70H183V180c0-45 6-74 18-86 12-13 37-19 75-19h92V0h-92c-70 0-118 13-144 39s-39 73-39 141v297H27v70h66v155h90z"/></symbol><symbol id="s"><path transform="translate(-.091) scale(.001)" d="M549 330V0h-90v327c0 52-11 90-31 116s-50 39-90 39c-49 0-87-16-115-47s-42-73-42-126V0H91v547h90v-85c21 32 46 57 76 73 29 16 63 25 101 25 62 0 110-20 142-59s49-96 49-171z"/></symbol><symbol id="t"><path transform="matrix(.001 0 0 .001 -.06 .013)" d="M343 275c-73 0-123-9-151-25-28-17-42-45-42-85 0-32 10-58 31-76 21-19 50-28 86-28 50 0 90 17 120 53 30 35 45 82 45 141v20h-89zm179 37V0h-90v83c-21-34-47-58-77-73s-68-23-112-23c-56 0-101 15-134 46s-49 73-49 126c0 61 20 107 62 139 41 31 102 47 184 47h126v9c0 41-14 73-41 96-27 22-65 34-114 34-32 0-62-4-92-12s-58-19-85-33v83c32 12 64 22 95 28s61 10 91 10c79 0 138-21 177-62s59-103 59-186z"/></symbol><symbol id="u"><path transform="matrix(.001 0 0 .001 -.055 .013)" d="M306 484c-48 0-86-19-114-57s-42-89-42-154c0-66 13-117 41-155s66-56 115-56c48 0 86 18 114 56s42 89 42 155c0 64-14 116-42 154s-66 57-114 57zm0 76c78 0 139-26 184-76 44-51 67-121 67-211s-23-160-67-210c-45-51-106-76-184-76-79 0-141 25-185 76-44 50-66 120-66 210s22 160 66 211c44 50 106 76 185 76z"/></symbol><symbol id="v"><path transform="matrix(.001 0 0 .001 -.095 -.432)" d="M250 679c-26 0-48-9-66-27s-27-40-27-66 9-48 27-66 40-26 66-26 48 8 66 26 27 40 27 66-9 48-27 66-40 27-66 27zm0 63c20 0 40-4 60-12 19-8 36-20 50-34 14-15 25-32 33-50 8-19 12-39 12-60 0-44-16-80-46-110s-67-44-110-44c-44 0-81 14-110 44-30 29-44 66-44 110 0 43 15 80 45 110s66 46 110 46z"/></symbol><use xlink:href="#p" transform="matrix(0 -10 -10 0 71.078 212.171)"/><use xlink:href="#q" transform="matrix(0 -10 -10 0 70.948 203.951)"/><use xlink:href="#f" transform="matrix(0 -10 -10 0 70.948 199.811)"/><use xlink:href="#r" transform="matrix(0 -10 -10 0 70.948 197.701)"/><use xlink:href="#h" transform="matrix(0 -10 -10 0 71.078 193.501)"/><use xlink:href="#s" transform="matrix(0 -10 -10 0 70.948 186.991)"/><use xlink:href="#r" transform="matrix(0 -10 -10 0 70.948 181.291)"/><use xlink:href="#t" transform="matrix(0 -10 -10 0 71.078 177.041)"/><use xlink:href="#r" transform="matrix(0 -10 -10 0 70.948 171.241)"/><use xlink:href="#f" transform="matrix(0 -10 -10 0 70.948 166.651)"/><use xlink:href="#u" transform="matrix(0 -10 -10 0 71.078 164.261)"/><use xlink:href="#s" transform="matrix(0 -10 -10 0 70.948 157.781)"/><use xlink:href="#i" transform="matrix(0 -10 -10 0 70.948 152.351)"/><use xlink:href="#j" transform="matrix(0 -10 -10 0 72.258 148.311)"/><use xlink:href="#v" transform="matrix(0 -10 -10 0 66.628 144.321)"/><use xlink:href="#l" transform="matrix(0 -10 -10 0 72.258 139.301)"/><clipPath id="w"><path transform="matrix(1 0 0 -1 0 345.6)" d="M103.104 38.016h266.112v266.112H103.104z"/></clipPath><g clip-path="url(#w)"><path stroke-width="2.5" stroke-linecap="square" stroke-linejoin="round" fill="none" stroke="teal" d="m115.2 254.586.172.165.362-.122.19-.103.19.121.173-.09.163.194.271-.172.127.253.172-.004.163.144.724.094.344-.02 1.304-.295.643-.094.417-.084.19.047.344-.125.235.046.335-.078 1.105-.024.534-.07.19.04.68-.105 1.186-.06.271-.066 4.736-.596.516.009 2.39.09.362.066.417.033 1.204.038.371.064 1.259.097 1.105.065 1.802.067.353.061.552.002 1.62.153 10.06 1.111.788.06.19.06.227-.06.326.06 1.086.06.371.06 2.137.028.372.09.162-.06.562.09 4.002.088.353.03h.96l7.733-.06.217-.089.498.06h.561l5.26-.088.87-.03.906.03.76-.03 42.774-.057.308-.03.742.06.335-.06.707.03h1.322l7.76.088.66.002 2.12-.088.85-.06 1.485-.03.163 1.156.643 2.168.38.682.372.181.18.044.87-.651 1.15-2.481 1.023-3.714 1.403-4.618.589-2.592 1.331-6.492.254-.707.842-3.869.543-2.347.507-2.491.272-.808.642-3.493 1.15-5.764.698-4.245.416-2.204.86-4.776.525-2.36.417-3.01.29-2.844.308-1.172.452-2.35.236-1.128 1.032-8.783.217-1.638.688-2.994.526-2.752.642-2.459.634-3.077.335-1.684.227-.592.19-1.065.697-2.016.924-1.699.606-3.488 1.096-6.208.371-2.63.652-1.44 1.286-7.73.597-1.522 3.242-14.481.87-1.958.515-.929.942-2.59.733-2.039.435-.584.208-.142.2-.39.425-1.144 3.024-6.323.897-1.084.543-.8 2.191-1.975.969-2.33.76-4.081.326-.602.11.012.388.33 2.844 5.076 1.82 2.24.633.415 1.739 1.735.688 1.2.272.38.271.813 1.177 3.263.308 1.381.77 3.194.299 1.838 2.78 17.413.461 4.12 1.485 11.556 1.268 10.589.425 3.173.263 3.216.299 1.657.416 4.993 1.096 10.597 2.245 24.14.281 4.326.706 6.454.788 10.983 1.259 14.537.443 3.864.254 3.925 1.467 13.751.887 7.057 1.666 8.977.498 1.97.915 2.373.552 1.044.38.335.634.047.417-.245 3.123-2.867.498-.3.752-.511.435-.257.642-.66.752-.838 1.277-2.216.706-1.506.262-.397.607-1.747.226-.422.335-.982.39-1.018.29-.526.262-1.06.317-1.028.172-.549.29-.546.108-.58.39-1.107.344-1.128 1.603-5.027 1.457-4.124.363-.902.353-.4.38-1.287 1.612-3.321.57-.87 1.087-1.437 1.584-1.277 1.123-.377.688-.134.906-.05 1.276.25 2.164 1.122.218.054.507.382.561.257 2.707 1.823.743.62.824.518.081.173 5.587 3.677.905.382.924.432.163.033"/></g><clipPath id="x"><path transform="matrix(1 0 0 -1 0 345.6)" d="M103.104 38.016h266.112v266.112H103.104z"/></clipPath><g clip-path="url(#x)"><path stroke-width="2.5" stroke-dasharray="9.25,4" stroke-linejoin="round" fill="none" stroke="red" d="m115.2 255.622 123.84.102.235-83.274h.724l.254-4.572h.77l.153-4.573h4.681l.163 4.573h1.386l.19 4.572h.887l.218-4.572h.688l.19-4.573h.507l.272-4.572h.48l.162-4.573h.553l.308-4.572h.29l.162-4.572h.317l.218-4.573h.253l.163 9.145.181-13.717h.163l.154 9.145h.154l.208-13.717.145 9.144h.38l.182-4.572h.235l.145-4.572h.145l.308 9.144.19-13.717.262 9.145h.236l.199-4.572h.217l.19-4.573h.181l.245 9.145.217-13.717.245 9.145h.253l.19-4.573h.335l.19 9.145.154-13.717h.49l.235 9.145.19-13.718.208 9.145h.145l.19-13.717.227 9.145h.48l.162-4.573h.78l.198 9.145h.19l.218-13.717.226 9.145h.163l.236-4.573h.244l.163-4.572h.453l.18 9.145.191-13.717h.235l.2 9.144h.217l.19-13.717.208 9.145h.172l.172-4.572h.335l.209-4.573h.425l.172 9.145.227-4.572h.443l.209-4.573h.407l.163 9.145.217-13.717.245 9.145.199-13.718h.181l.19 9.145h.145l.172-4.572h.444l.253 9.145.19-13.718h.426l.181 9.145.145-13.717h.19l.227 9.145h.163l.226-4.573h.498l.181 13.718h.38l.263-9.145.172 13.717.407-9.145.19 4.573h.236l.19-9.145.245 4.572.48-9.145.18 4.573h.173l.208-4.573h.416l.154-4.572h.344l.634-13.717h.208l.29-4.572.172-4.573.227-13.717h2.462l.172 207.35h2.79l.198 1.495 1.069.302 5.089 1.216 1.593.335 5.252.945 4.03.539 2.308.245 4.174.27 4.22.023 7.388-.317 8.294-.292 7.633.032 21.885.431"/></g><path stroke-width=".8" stroke-linecap="square" stroke-miterlimit="10" fill="none" stroke="#000" d="M103.104 307.584V41.472M369.216 307.584V41.472M103.104 307.584h266.112M103.104 41.472h266.112"/><path d="M110.104 78.816h153.36c1.333 0 2-.667 2-2V48.472c0-1.333-.667-2-2-2h-153.36c-1.333 0-2 .667-2 2v28.344c0 1.333.667 2 2 2z" fill="#fff" fill-opacity=".8"/><path stroke-miterlimit="10" fill="none" stroke="#d5d6d5" stroke-opacity=".8" d="M110.104 78.816h153.36c1.333 0 2-.667 2-2V48.472c0-1.333-.667-2-2-2h-153.36c-1.333 0-2 .667-2 2v28.344c0 1.333.667 2 2 2z"/><path stroke-width="2.5" stroke-linecap="square" stroke-linejoin="round" fill="none" stroke="teal" d="M112.104 54.566h20"/><symbol id="y"><path transform="matrix(.001 0 0 .001 -.056 .013)" d="M644 673V569c-34 30-69 53-107 69-38 15-77 23-119 23-84 0-148-26-192-77s-66-124-66-220 22-170 66-221 108-76 192-76c42 0 81 7 119 23 38 15 73 38 107 69V56c-35-24-72-41-110-52s-79-17-122-17C302-13 215 20 151 87S56 246 56 364c0 117 31 209 95 277 64 67 151 101 261 101 44 0 85-6 123-17 38-12 75-29 109-52z"/></symbol><symbol id="z"><path transform="matrix(.001 0 0 .001 -.085 .013)" d="M85 216v331h90V219c0-52 10-90 30-116s50-39 91-39c48 0 87 15 115 46s42 73 42 127v310h90V0h-90v84c-22-34-48-58-76-74-29-15-62-23-100-23-63 0-111 19-143 58-33 38-49 95-49 171zm226 344z"/></symbol><symbol id="A"><path transform="matrix(.001 0 0 .001 -.086 .131)" d="M310 759c-44-76-76-150-97-223-22-73-32-147-32-222 0-76 10-150 32-223 21-74 53-147 97-222h-78C183-54 146 20 122 94S86 241 86 314c0 72 12 145 36 219s60 149 110 226h78z"/></symbol><symbol id="B"><path transform="matrix(.001 0 0 .001 -.066 .013)" d="M535 705v-96c-38 18-73 31-106 40-34 8-66 13-96 13-54 0-96-11-125-31-29-21-43-51-43-89 0-32 9-57 29-73 19-17 56-30 110-40l60-12c73-14 127-39 162-74 35-36 53-83 53-142 0-71-24-124-71-160-48-36-117-54-208-54-35 0-72 4-111 11S110 16 69 32v102c40-23 79-40 117-51 38-12 76-17 114-17 56 0 99 11 130 33 30 22 46 53 46 95 0 36-11 64-33 84s-58 35-108 45l-60 12c-74 14-127 37-160 69-33 31-49 74-49 130 0 64 22 115 68 152 45 37 108 56 188 56 34 0 68-3 104-9 35-6 71-16 109-28z"/></symbol><symbol id="C"><path transform="matrix(.001 0 0 .001 -.08 .131)" d="M80 759h78c48-77 85-152 109-226s37-147 37-219c0-73-13-146-37-220S206-54 158-131H80c43 75 75 148 97 222 21 73 32 147 32 223 0 75-11 149-32 222-22 73-54 147-97 223z"/></symbol><use xlink:href="#y" transform="matrix(10 0 0 -10 140.664 58.196)"/><use xlink:href="#z" transform="matrix(10 0 0 -10 147.934 58.196)"/><use xlink:href="#q" transform="matrix(10 0 0 -10 154.334 58.066)"/><use xlink:href="#q" transform="matrix(10 0 0 -10 158.272 58.066)"/><use xlink:href="#h" transform="matrix(10 0 0 -10 161.803 58.196)"/><use xlink:href="#s" transform="matrix(10 0 0 -10 168.313 58.066)"/><use xlink:href="#r" transform="matrix(10 0 0 -10 174.013 58.066)"/><use xlink:href="#i" transform="matrix(10 0 0 -10 177.663 58.066)"/><use xlink:href="#u" transform="matrix(10 0 0 -10 181.393 58.196)"/><use xlink:href="#q" transform="matrix(10 0 0 -10 187.873 58.066)"/><use xlink:href="#f" transform="matrix(10 0 0 -10 192.013 58.066)"/><use xlink:href="#h" transform="matrix(10 0 0 -10 194.403 58.196)"/><use xlink:href="#s" transform="matrix(10 0 0 -10 200.913 58.066)"/><use xlink:href="#r" transform="matrix(10 0 0 -10 206.613 58.066)"/><use xlink:href="#t" transform="matrix(10 0 0 -10 210.863 58.196)"/><use xlink:href="#r" transform="matrix(10 0 0 -10 216.663 58.066)"/><use xlink:href="#f" transform="matrix(10 0 0 -10 221.253 58.066)"/><use xlink:href="#u" transform="matrix(10 0 0 -10 223.643 58.196)"/><use xlink:href="#s" transform="matrix(10 0 0 -10 230.123 58.066)"/><use xlink:href="#i" transform="matrix(10 0 0 -10 235.553 58.066)"/><use xlink:href="#A" transform="matrix(10 0 0 -10 239.593 59.376)"/><use xlink:href="#p" transform="matrix(10 0 0 -10 243.193 58.196)"/><use xlink:href="#B" transform="matrix(10 0 0 -10 251.163 58.196)"/><use xlink:href="#C" transform="matrix(10 0 0 -10 257.653 59.376)"/><path stroke-width="2.5" stroke-dasharray="9.25,4" stroke-linejoin="round" fill="none" stroke="red" d="M112.104 69.238h20"/><symbol id="D"><path transform="translate(-.098) scale(.001)" d="M197 648V81h119c100 0 174 22 221 68 46 46 70 118 70 216s-24 169-70 215c-47 45-121 68-221 68H197zm-99 81h203c141 0 245-30 311-88 66-59 99-151 99-276 0-126-34-218-100-277S441 0 301 0H98v729z"/></symbol><symbol id="E"><path transform="matrix(.001 0 0 .001 -.055 .013)" d="M454 464v296h90V0h-90v82c-19-33-43-57-72-72s-63-23-103-23c-66 0-120 26-162 78S55 187 55 273s20 155 62 208c42 52 96 79 162 79 40 0 74-8 103-24s53-40 72-72zM148 273c0-66 13-118 40-156s64-56 112-56 85 18 113 56c27 38 41 90 41 156s-14 117-41 155c-28 38-65 57-113 57s-85-19-112-57-40-89-40-155z"/></symbol><use xlink:href="#D" transform="matrix(10 0 0 -10 141.084 72.738)"/><use xlink:href="#h" transform="matrix(10 0 0 -10 148.354 72.868)"/><use xlink:href="#k" transform="matrix(10 0 0 -10 154.494 72.868)"/><use xlink:href="#f" transform="matrix(10 0 0 -10 160.104 72.738)"/><use xlink:href="#q" transform="matrix(10 0 0 -10 162.854 72.738)"/><use xlink:href="#h" transform="matrix(10 0 0 -10 166.385 72.868)"/><use xlink:href="#E" transform="matrix(10 0 0 -10 172.535 72.868)"/><use xlink:href="#i" transform="matrix(10 0 0 -10 178.335 72.738)"/><use xlink:href="#u" transform="matrix(10 0 0 -10 182.065 72.868)"/><use xlink:href="#q" transform="matrix(10 0 0 -10 188.545 72.738)"/><use xlink:href="#f" transform="matrix(10 0 0 -10 192.685 72.738)"/><use xlink:href="#h" transform="matrix(10 0 0 -10 195.075 72.868)"/><use xlink:href="#s" transform="matrix(10 0 0 -10 201.585 72.738)"/><use xlink:href="#r" transform="matrix(10 0 0 -10 207.285 72.738)"/><use xlink:href="#t" transform="matrix(10 0 0 -10 211.535 72.868)"/><use xlink:href="#r" transform="matrix(10 0 0 -10 217.335 72.738)"/><use xlink:href="#f" transform="matrix(10 0 0 -10 221.925 72.738)"/><use xlink:href="#u" transform="matrix(10 0 0 -10 224.315 72.868)"/><use xlink:href="#s" transform="matrix(10 0 0 -10 230.795 72.738)"/><use xlink:href="#i" transform="matrix(10 0 0 -10 236.225 72.738)"/><use xlink:href="#A" transform="matrix(10 0 0 -10 240.265 74.048)"/><use xlink:href="#p" transform="matrix(10 0 0 -10 243.865 72.868)"/><use xlink:href="#B" transform="matrix(10 0 0 -10 251.835 72.868)"/><use xlink:href="#C" transform="matrix(10 0 0 -10 258.325 74.048)"/></svg>