<svg width="460.8" height="345.6" xmlns="http://www.w3.org/2000/svg" xmlns:xlink="http://www.w3.org/1999/xlink">

 <symbol id="a">
  <path id="svg_1" d="m0.252,0.677c-0.051,0 -0.089,-0.025 -0.115,-0.075s-0.038,-0.125 -0.038,-0.225s0.012,-0.175 0.038,-0.225s0.064,-0.075 0.115,-0.075s0.089,0.025 0.115,0.075c0.025,0.05 0.038,0.125 0.038,0.225s-0.013,0.175 -0.038,0.225c-0.026,0.05 -0.064,0.075 -0.115,0.075zm0,0.078c0.081,0 0.143,-0.033 0.187,-0.097c0.043,-0.065 0.065,-0.159 0.065,-0.281c0,-0.123 -0.022,-0.217 -0.065,-0.281c-0.044,-0.064 -0.106,-0.096 -0.188,-0.096s-0.144,0.032 -0.187,0.096s-0.064,0.158 -0.064,0.281c0,0.122 0.021,0.216 0.064,0.281c0.043,0.064 0.106,0.097 0.188,0.097z"/>
 </symbol>
 <symbol id="b">
  <path id="svg_2" d="m0.031,0.742l0.387,0l0,-0.083l-0.297,0l0,-0.179c0.014,0.005 0.029,0.009 0.043,0.011s0.029,0.004 0.043,0.004c0.081,0 0.145,-0.023 0.193,-0.067c0.048,-0.045 0.072,-0.105 0.072,-0.181c0,-0.079 -0.025,-0.14 -0.074,-0.183s-0.118,-0.064 -0.206,-0.064c-0.031,0 -0.062,0.003 -0.094,0.007c-0.032,0.005 -0.064,0.012 -0.098,0.023l0,0.099c0.029,-0.016 0.059,-0.028 0.091,-0.036c0.031,-0.008 0.064,-0.011 0.099,-0.011c0.056,0 0.101,0.014 0.134,0.044c0.032,0.03 0.049,0.07 0.049,0.121c0,0.05 -0.017,0.09 -0.049,0.12c-0.033,0.03 -0.078,0.045 -0.134,0.045c-0.026,0 -0.053,-0.003 -0.079,-0.009s-0.053,-0.015 -0.08,-0.027l0,0.366z"/>
 </symbol>
 <symbol id="c">
  <path id="svg_3" d="m124,83l161,0l0,556l-175,-35l0,90l174,35l99,0l0,-646l161,0l0,-83l-420,0l0,83z" transform="translate(-.11) scale(.001)"/>
 </symbol>
 <symbol id="d">
  <path id="svg_4" d="m192,83l344,0l0,-83l-463,0l0,83c37,38 88,90 153,156c64,65 105,107 122,126c32,35 54,65 66,90c12,24 19,49 19,73c0,38 -14,70 -41,94s-62,37 -106,37c-31,0 -64,-6 -98,-16c-34,-11 -71,-27 -110,-49l0,100c40,16 77,28 111,36s66,12 95,12c75,0 135,-19 180,-57s68,-88 68,-151c0,-30 -6,-59 -17,-85c-11,-27 -31,-59 -61,-95c-8,-10 -34,-37 -78,-82s-105,-108 -184,-189z" transform="translate(-.073) scale(.001)"/>
 </symbol>
 <symbol id="e">
  <path id="svg_5" d="m-2,729l616,0l0,-83l-259,0l0,-646l-99,0l0,646l-258,0l0,83z" transform="translate(.002) scale(.001)"/>
 </symbol>
 <symbol id="f">
  <path id="svg_6" d="m94,547l90,0l0,-547l-90,0l0,547zm0,213l90,0l0,-114l-90,0l0,114z" transform="translate(-.094) scale(.001)"/>
 </symbol>
 <symbol id="g">
  <path id="svg_7" d="m520,442c22,40 49,69 80,89c31,19 68,29 111,29c56,0 100,-20 131,-60s47,-97 47,-170l0,-330l-90,0l0,327c0,52 -10,91 -28,117c-19,25 -47,38 -85,38c-47,0 -84,-16 -111,-47s-40,-73 -40,-126l0,-309l-90,0l0,327c0,52 -10,91 -28,117c-19,25 -48,38 -86,38c-46,0 -83,-16 -110,-47s-40,-73 -40,-126l0,-309l-90,0l0,547l90,0l0,-85c20,33 45,58 74,74c28,16 62,24 102,24s73,-10 101,-30s48,-50 62,-88z" transform="translate(-.091) scale(.001)"/>
 </symbol>
 <symbol id="h">
  <path id="svg_8" d="m0.507,0.309l0,-0.044l-0.413,0c0.004,-0.062 0.022,-0.11 0.056,-0.142c0.033,-0.032 0.079,-0.048 0.139,-0.048c0.034,0 0.068,0.004 0.1,0.012s0.065,0.021 0.097,0.039l0,-0.085c-0.032,-0.014 -0.065,-0.025 -0.099,-0.031s-0.069,-0.01 -0.103,-0.01c-0.088,0 -0.157,0.025 -0.208,0.075s-0.076,0.119 -0.076,0.206c0,0.089 0.024,0.16 0.072,0.213c0.048,0.052 0.114,0.079 0.196,0.079c0.074,0 0.132,-0.024 0.175,-0.071c0.042,-0.048 0.064,-0.112 0.064,-0.193zm-0.09,0.026c-0.001,0.049 -0.015,0.088 -0.041,0.118c-0.027,0.029 -0.063,0.044 -0.107,0.044c-0.05,0 -0.09,-0.015 -0.12,-0.043s-0.048,-0.068 -0.052,-0.119l0.32,0z"/>
 </symbol>
 <symbol id="j">
  <path id="svg_9" d="m0,0.891l0.207,0l0,-0.07l-0.117,0l0,-0.751l0.117,0l0,-0.07l-0.207,0l0,0.891z"/>
 </symbol>
 <symbol id="k">
  <path id="svg_10" d="m0.389,0.544l0,-0.085c-0.026,0.012 -0.052,0.022 -0.079,0.029c-0.028,0.006 -0.056,0.01 -0.085,0.01c-0.045,0 -0.079,-0.007 -0.101,-0.021s-0.033,-0.034 -0.033,-0.061c0,-0.021 0.008,-0.037 0.024,-0.049s0.048,-0.024 0.096,-0.034l0.031,-0.007c0.064,-0.014 0.109,-0.034 0.136,-0.058c0.026,-0.025 0.04,-0.06 0.04,-0.104c0,-0.051 -0.02,-0.091 -0.06,-0.12c-0.04,-0.03 -0.096,-0.044 -0.166,-0.044c-0.03,0 -0.06,0.003 -0.092,0.008s-0.065,0.013 -0.1,0.025l0,0.093c0.033,-0.018 0.066,-0.031 0.098,-0.039c0.032,-0.009 0.064,-0.013 0.096,-0.013c0.042,0 0.075,0.007 0.098,0.021c0.022,0.014 0.034,0.035 0.034,0.062c0,0.024 -0.009,0.043 -0.025,0.056s-0.052,0.026 -0.108,0.038l-0.031,0.007c-0.056,0.012 -0.097,0.03 -0.121,0.054c-0.025,0.024 -0.037,0.057 -0.037,0.1c0,0.051 0.018,0.091 0.054,0.119s0.088,0.042 0.156,0.042c0.033,0 0.064,-0.003 0.094,-0.008c0.029,-0.005 0.056,-0.012 0.081,-0.021z"/>
 </symbol>
 <symbol id="l">
  <path id="svg_11" d="m0.207,0.891l0,-0.891l-0.207,0l0,0.07l0.117,0l0,0.751l-0.117,0l0,0.07l0.207,0z"/>
 </symbol>
 <symbol id="m">
  <path id="svg_12" d="m0.26,0.417c-0.044,0 -0.079,-0.016 -0.105,-0.046s-0.039,-0.072 -0.039,-0.124c0,-0.053 0.013,-0.095 0.039,-0.125s0.061,-0.045 0.105,-0.045s0.079,0.015 0.105,0.045s0.039,0.072 0.039,0.125c0,0.052 -0.013,0.094 -0.039,0.124s-0.061,0.046 -0.105,0.046zm0.196,0.309l0,-0.09c-0.025,0.012 -0.05,0.021 -0.075,0.027c-0.026,0.006 -0.051,0.009 -0.075,0.009c-0.066,0 -0.116,-0.022 -0.15,-0.066s-0.054,-0.111 -0.058,-0.199c0.019,0.028 0.043,0.05 0.072,0.065s0.061,0.023 0.096,0.023c0.073,0 0.131,-0.023 0.173,-0.067s0.064,-0.105 0.064,-0.181c0,-0.075 -0.023,-0.135 -0.067,-0.18s-0.103,-0.067 -0.176,-0.067c-0.084,0 -0.149,0.032 -0.193,0.096c-0.045,0.064 -0.067,0.158 -0.067,0.281c0,0.115 0.027,0.207 0.082,0.275c0.054,0.068 0.128,0.103 0.22,0.103c0.024,0 0.049,-0.003 0.075,-0.007c0.025,-0.005 0.051,-0.012 0.079,-0.022z"/>
 </symbol>
 <symbol id="n">
  <path id="svg_13" d="m0.25,0.359c-0.047,0 -0.084,-0.013 -0.111,-0.038s-0.04,-0.059 -0.04,-0.103s0.013,-0.079 0.04,-0.104s0.064,-0.037 0.111,-0.037c0.046,0 0.083,0.012 0.11,0.038c0.027,0.025 0.041,0.059 0.041,0.103s-0.014,0.078 -0.04,0.103c-0.027,0.025 -0.064,0.038 -0.111,0.038zm-0.099,0.042c-0.042,0.01 -0.075,0.03 -0.099,0.059s-0.035,0.064 -0.035,0.106c0,0.058 0.02,0.104 0.062,0.138c0.041,0.034 0.098,0.051 0.171,0.051c0.072,0 0.129,-0.017 0.171,-0.051c0.041,-0.034 0.062,-0.08 0.062,-0.138c0,-0.042 -0.012,-0.077 -0.036,-0.106s-0.056,-0.049 -0.098,-0.059c0.047,-0.011 0.084,-0.033 0.111,-0.065c0.026,-0.032 0.04,-0.072 0.04,-0.118c0,-0.071 -0.022,-0.125 -0.065,-0.162c-0.044,-0.038 -0.106,-0.056 -0.186,-0.056s-0.142,0.018 -0.185,0.056c-0.043,0.037 -0.064,0.091 -0.064,0.162c0,0.046 0.013,0.086 0.04,0.118c0.026,0.032 0.063,0.054 0.111,0.065zm-0.036,0.156c0,-0.038 0.011,-0.068 0.035,-0.089s0.057,-0.031 0.1,-0.031c0.042,0 0.075,0.01 0.099,0.031s0.036,0.051 0.036,0.089s-0.012,0.067 -0.036,0.088s-0.057,0.032 -0.099,0.032c-0.043,0 -0.076,-0.011 -0.1,-0.032s-0.035,-0.05 -0.035,-0.088z"/>
 </symbol>
 <symbol id="o">
  <path id="svg_14" d="m378,643l-249,-389l249,0l0,389zm-26,86l124,0l0,-475l104,0l0,-82l-104,0l0,-172l-98,0l0,172l-329,0l0,95l303,462z" transform="translate(-.049) scale(.001)"/>
 </symbol>
 <symbol id="p">
  <path id="svg_15" d="m0.338,0.675c-0.072,0 -0.129,-0.027 -0.171,-0.08c-0.042,-0.054 -0.063,-0.126 -0.063,-0.218s0.021,-0.165 0.063,-0.218c0.042,-0.054 0.099,-0.08 0.171,-0.08c0.071,0 0.128,0.026 0.17,0.08c0.042,0.053 0.063,0.126 0.063,0.218s-0.021,0.164 -0.063,0.218c-0.042,0.053 -0.099,0.08 -0.17,0.08zm0,0.08c0.102,0 0.183,-0.035 0.245,-0.103c0.061,-0.068 0.092,-0.16 0.092,-0.275c0,-0.116 -0.031,-0.207 -0.092,-0.275c-0.062,-0.068 -0.143,-0.102 -0.245,-0.102c-0.103,0 -0.185,0.034 -0.246,0.102c-0.062,0.068 -0.092,0.159 -0.092,0.275c0,0.115 0.03,0.207 0.092,0.275c0.061,0.068 0.143,0.103 0.246,0.103z"/>
 </symbol>
 <symbol id="q">
  <path id="svg_16" d="m411,463c-10,6 -21,10 -33,13c-12,2 -25,4 -39,4c-51,0 -90,-17 -117,-50c-28,-33 -41,-80 -41,-142l0,-288l-90,0l0,547l90,0l0,-85c18,33 43,58 73,74s67,24 111,24c6,0 13,-1 21,-1c7,-1 15,-2 25,-4l0,-92z" transform="translate(-.091) scale(.001)"/>
 </symbol>
 <symbol id="r">
  <path id="svg_17" d="m183,702l0,-155l185,0l0,-70l-185,0l0,-297c0,-45 6,-74 18,-86c12,-13 37,-19 75,-19l92,0l0,-75l-92,0c-70,0 -118,13 -144,39s-39,73 -39,141l0,297l-66,0l0,70l66,0l0,155l90,0z" transform="translate(-.027) scale(.001)"/>
 </symbol>
 <symbol id="s">
  <path id="svg_18" d="m549,330l0,-330l-90,0l0,327c0,52 -11,90 -31,116s-50,39 -90,39c-49,0 -87,-16 -115,-47s-42,-73 -42,-126l0,-309l-90,0l0,547l90,0l0,-85c21,32 46,57 76,73c29,16 63,25 101,25c62,0 110,-20 142,-59s49,-96 49,-171z" transform="translate(-.091) scale(.001)"/>
 </symbol>
 <symbol id="t">
  <path id="svg_19" d="m0.283,0.288c-0.073,0 -0.123,-0.009 -0.151,-0.025c-0.028,-0.017 -0.042,-0.045 -0.042,-0.085c0,-0.032 0.01,-0.058 0.031,-0.076c0.021,-0.019 0.05,-0.028 0.086,-0.028c0.05,0 0.09,0.017 0.12,0.053c0.03,0.035 0.045,0.082 0.045,0.141l0,0.02l-0.089,0zm0.179,0.037l0,-0.312l-0.09,0l0,0.083c-0.021,-0.034 -0.047,-0.058 -0.077,-0.073s-0.068,-0.023 -0.112,-0.023c-0.056,0 -0.101,0.015 -0.134,0.046s-0.049,0.073 -0.049,0.126c0,0.061 0.02,0.107 0.062,0.139c0.041,0.031 0.102,0.047 0.184,0.047l0.126,0l0,0.009c0,0.041 -0.014,0.073 -0.041,0.096c-0.027,0.022 -0.065,0.034 -0.114,0.034c-0.032,0 -0.062,-0.004 -0.092,-0.012s-0.058,-0.019 -0.085,-0.033l0,0.083c0.032,0.012 0.064,0.022 0.095,0.028s0.061,0.01 0.091,0.01c0.079,0 0.138,-0.021 0.177,-0.062s0.059,-0.103 0.059,-0.186z"/>
 </symbol>
 <symbol id="u">
  <path id="svg_20" d="m0.251,0.497c-0.048,0 -0.086,-0.019 -0.114,-0.057s-0.042,-0.089 -0.042,-0.154c0,-0.066 0.013,-0.117 0.041,-0.155s0.066,-0.056 0.115,-0.056c0.048,0 0.086,0.018 0.114,0.056s0.042,0.089 0.042,0.155c0,0.064 -0.014,0.116 -0.042,0.154s-0.066,0.057 -0.114,0.057zm0,0.076c0.078,0 0.139,-0.026 0.184,-0.076c0.044,-0.051 0.067,-0.121 0.067,-0.211s-0.023,-0.16 -0.067,-0.21c-0.045,-0.051 -0.106,-0.076 -0.184,-0.076c-0.079,0 -0.141,0.025 -0.185,0.076c-0.044,0.05 -0.066,0.12 -0.066,0.21s0.022,0.16 0.066,0.211c0.044,0.05 0.106,0.076 0.185,0.076z"/>
 </symbol>
 <symbol id="v">
  <path id="svg_21" d="m0.155,0.247c-0.026,0 -0.048,-0.009 -0.066,-0.027s-0.027,-0.04 -0.027,-0.066s0.009,-0.048 0.027,-0.066s0.04,-0.026 0.066,-0.026s0.048,0.008 0.066,0.026s0.027,0.04 0.027,0.066s-0.009,0.048 -0.027,0.066s-0.04,0.027 -0.066,0.027zm0,0.063c0.02,0 0.04,-0.004 0.06,-0.012c0.019,-0.008 0.036,-0.02 0.05,-0.034c0.014,-0.015 0.025,-0.032 0.033,-0.05c0.008,-0.019 0.012,-0.039 0.012,-0.06c0,-0.044 -0.016,-0.08 -0.046,-0.11s-0.067,-0.044 -0.11,-0.044c-0.044,0 -0.081,0.014 -0.11,0.044c-0.03,0.029 -0.044,0.066 -0.044,0.11c0,0.043 0.015,0.08 0.045,0.11s0.066,0.046 0.11,0.046z"/>
 </symbol>
 <clipPath id="w">
  <path id="svg_22" d="m103.104,307.58401l266.112,0l0,-266.112l-266.112,0l0,266.112z"/>
 </clipPath>
 <clipPath id="x">
  <path id="svg_23" d="m103.104,307.58401l266.112,0l0,-266.112l-266.112,0l0,266.112z"/>
 </clipPath>
 <symbol id="y">
  <path id="svg_24" d="m0.588,0.686l0,-0.104c-0.034,0.03 -0.069,0.053 -0.107,0.069c-0.038,0.015 -0.077,0.023 -0.119,0.023c-0.084,0 -0.148,-0.026 -0.192,-0.077s-0.066,-0.124 -0.066,-0.22s0.022,-0.17 0.066,-0.221s0.108,-0.076 0.192,-0.076c0.042,0 0.081,0.007 0.119,0.023c0.038,0.015 0.073,0.038 0.107,0.069l0,-0.103c-0.035,-0.024 -0.072,-0.041 -0.11,-0.052s-0.079,-0.017 -0.122,-0.017c-0.11,0 -0.197,0.033 -0.261,0.1s-0.095,0.159 -0.095,0.277c0,0.117 0.031,0.209 0.095,0.277c0.064,0.067 0.151,0.101 0.261,0.101c0.044,0 0.085,-0.006 0.123,-0.017c0.038,-0.012 0.075,-0.029 0.109,-0.052z"/>
 </symbol>
 <symbol id="z">
  <path id="svg_25" d="m0,0.229l0,0.331l0.09,0l0,-0.328c0,-0.052 0.01,-0.09 0.03,-0.116s0.05,-0.039 0.091,-0.039c0.048,0 0.087,0.015 0.115,0.046s0.042,0.073 0.042,0.127l0,0.31l0.09,0l0,-0.547l-0.09,0l0,0.084c-0.022,-0.034 -0.048,-0.058 -0.076,-0.074c-0.029,-0.015 -0.062,-0.023 -0.1,-0.023c-0.063,0 -0.111,0.019 -0.143,0.058c-0.033,0.038 -0.049,0.095 -0.049,0.171zm0.226,0.344z"/>
 </symbol>
 <symbol id="A">
  <path id="svg_26" d="m0.224,0.89c-0.044,-0.076 -0.076,-0.15 -0.097,-0.223c-0.022,-0.073 -0.032,-0.147 -0.032,-0.222c0,-0.076 0.01,-0.15 0.032,-0.223c0.021,-0.074 0.053,-0.147 0.097,-0.222l-0.078,0c-0.049,0.077 -0.086,0.151 -0.11,0.225s-0.036,0.147 -0.036,0.22c0,0.072 0.012,0.145 0.036,0.219s0.06,0.149 0.11,0.226l0.078,0z"/>
 </symbol>
 <symbol id="B">
  <path id="svg_27" d="m0.469,0.718l0,-0.096c-0.038,0.018 -0.073,0.031 -0.106,0.04c-0.034,0.008 -0.066,0.013 -0.096,0.013c-0.054,0 -0.096,-0.011 -0.125,-0.031c-0.029,-0.021 -0.043,-0.051 -0.043,-0.089c0,-0.032 0.009,-0.057 0.029,-0.073c0.019,-0.017 0.056,-0.03 0.11,-0.04l0.06,-0.012c0.073,-0.014 0.127,-0.039 0.162,-0.074c0.035,-0.036 0.053,-0.083 0.053,-0.142c0,-0.071 -0.024,-0.124 -0.071,-0.16c-0.048,-0.036 -0.117,-0.054 -0.208,-0.054c-0.035,0 -0.072,0.004 -0.111,0.011s-0.079,0.018 -0.12,0.034l0,0.102c0.04,-0.023 0.079,-0.04 0.117,-0.051c0.038,-0.012 0.076,-0.017 0.114,-0.017c0.056,0 0.099,0.011 0.13,0.033c0.03,0.022 0.046,0.053 0.046,0.095c0,0.036 -0.011,0.064 -0.033,0.084s-0.058,0.035 -0.108,0.045l-0.06,0.012c-0.074,0.014 -0.127,0.037 -0.16,0.069c-0.033,0.031 -0.049,0.074 -0.049,0.13c0,0.064 0.022,0.115 0.068,0.152c0.045,0.037 0.108,0.056 0.188,0.056c0.034,0 0.068,-0.003 0.104,-0.009c0.035,-0.006 0.071,-0.016 0.109,-0.028z"/>
 </symbol>
 <symbol id="C">
  <path id="svg_28" d="m0,0.89l0.078,0c0.048,-0.077 0.085,-0.152 0.109,-0.226s0.037,-0.147 0.037,-0.219c0,-0.073 -0.013,-0.146 -0.037,-0.22s-0.061,-0.148 -0.109,-0.225l-0.078,0c0.043,0.075 0.075,0.148 0.097,0.222c0.021,0.073 0.032,0.147 0.032,0.223c0,0.075 -0.011,0.149 -0.032,0.222c-0.022,0.073 -0.054,0.147 -0.097,0.223z"/>
 </symbol>
 <symbol id="D">
  <path id="svg_29" d="m197,648l0,-567l119,0c100,0 174,22 221,68c46,46 70,118 70,216s-24,169 -70,215c-47,45 -121,68 -221,68l-119,0zm-99,81l203,0c141,0 245,-30 311,-88c66,-59 99,-151 99,-276c0,-126 -34,-218 -100,-277s-170,-88 -310,-88l-203,0l0,729z" transform="translate(-.098) scale(.001)"/>
 </symbol>
 <symbol id="E">
  <path id="svg_30" d="m0.399,0.477l0,0.296l0.09,0l0,-0.76l-0.09,0l0,0.082c-0.019,-0.033 -0.043,-0.057 -0.072,-0.072s-0.063,-0.023 -0.103,-0.023c-0.066,0 -0.12,0.026 -0.162,0.078s-0.062,0.122 -0.062,0.208s0.02,0.155 0.062,0.208c0.042,0.052 0.096,0.079 0.162,0.079c0.04,0 0.074,-0.008 0.103,-0.024s0.053,-0.04 0.072,-0.072zm-0.306,-0.191c0,-0.066 0.013,-0.118 0.04,-0.156s0.064,-0.056 0.112,-0.056s0.085,0.018 0.113,0.056c0.027,0.038 0.041,0.09 0.041,0.156s-0.014,0.117 -0.041,0.155c-0.028,0.038 -0.065,0.057 -0.113,0.057s-0.085,-0.019 -0.112,-0.057s-0.04,-0.089 -0.04,-0.155z"/>
 </symbol>
 <g>
  <title>Layer 1</title>
  <path id="svg_31" fill="#fff" d="m0,345.6l460.8,0l0,-345.6l-460.8,0l0,345.6z"/>
  <path id="svg_32" fill="#fff" d="m103.104,307.584l266.112,0l0,-266.112l-266.112,0l0,266.112z"/>
  <path id="svg_33" d="m112.51,307.584l0,3.5" stroke="#000" fill="none" stroke-linejoin="round" stroke-width="0.8"/>
  <use id="svg_34" transform="matrix(10 0 0 -10 109.991 322.308)" xlink:href="#a"/>
  <path id="svg_35" d="m157.784,307.584l0,3.5" stroke="#000" fill="none" stroke-linejoin="round" stroke-width="0.8"/>
  <use id="svg_36" transform="matrix(10 0 0 -10 155.374 322.308)" xlink:href="#b"/>
  <path id="svg_37" d="m203.056,307.584l0,3.5" stroke="#000" fill="none" stroke-linejoin="round" stroke-width="0.8"/>
  <use id="svg_38" transform="matrix(10 0 0 -10 197.797 322.178)" xlink:href="#c"/>
  <use id="svg_39" transform="matrix(10 0 0 -10 203.717 322.308)" xlink:href="#a"/>
  <path id="svg_40" d="m248.33,307.584l0,3.5" stroke="#000" fill="none" stroke-linejoin="round" stroke-width="0.8"/>
  <use id="svg_41" transform="matrix(10 0 0 -10 243.07 322.178)" xlink:href="#c"/>
  <use id="svg_42" transform="matrix(10 0 0 -10 249.1 322.308)" xlink:href="#b"/>
  <path id="svg_43" d="m293.602,307.584l0,3.5" stroke="#000" fill="none" stroke-linejoin="round" stroke-width="0.8"/>
  <use id="svg_44" transform="matrix(10 0 0 -10 287.973 322.178)" xlink:href="#d"/>
  <use id="svg_45" transform="matrix(10 0 0 -10 294.263 322.308)" xlink:href="#a"/>
  <path id="svg_46" d="m338.875,307.584l0,3.5" stroke="#000" fill="none" stroke-linejoin="round" stroke-width="0.8"/>
  <use id="svg_47" transform="matrix(10 0 0 -10 333.246 322.178)" xlink:href="#d"/>
  <use id="svg_48" transform="matrix(10 0 0 -10 339.646 322.308)" xlink:href="#b"/>
  <use id="svg_49" transform="matrix(10 0 0 -10 215.757 335.85)" xlink:href="#e"/>
  <use id="svg_50" transform="matrix(10 0 0 -10 222.53 335.85)" xlink:href="#f"/>
  <use id="svg_51" transform="matrix(10 0 0 -10 225.28 335.85)" xlink:href="#g"/>
  <use id="svg_52" transform="matrix(10 0 0 -10 234.66 335.98)" xlink:href="#h"/>
  <use id="svg_53" transform="matrix(10 0 0 -10 240.26 335.85)" xlink:href="#i"/>
  <use id="svg_54" transform="matrix(10 0 0 -10 244.3 337.16)" xlink:href="#j"/>
  <use id="svg_55" transform="matrix(10 0 0 -10 247.88 335.98)" xlink:href="#k"/>
  <use id="svg_56" transform="matrix(10 0 0 -10 253.52 337.16)" xlink:href="#l"/>
  <path id="svg_57" d="m103.104,300.477l-3.5,0" stroke="#000" fill="none" stroke-linejoin="round" stroke-width="0.8"/>
  <use id="svg_58" transform="matrix(10 0 0 -10 84.085 304.404)" xlink:href="#m"/>
  <use id="svg_59" transform="matrix(10 0 0 -10 90.405 304.404)" xlink:href="#a"/>
  <path id="svg_60" d="m103.104,269.994l-3.5,0" stroke="#000" fill="none" stroke-linejoin="round" stroke-width="0.8"/>
  <use id="svg_61" transform="matrix(10 0 0 -10 84.065 273.921)" xlink:href="#n"/>
  <use id="svg_62" transform="matrix(10 0 0 -10 90.405 273.921)" xlink:href="#a"/>
  <path id="svg_63" d="m103.104,239.512l-3.5,0" stroke="#000" fill="none" stroke-linejoin="round" stroke-width="0.8"/>
  <use id="svg_64" transform="matrix(10 0 0 -10 78.126 243.308)" xlink:href="#c"/>
  <use id="svg_65" transform="matrix(10 0 0 -10 84.046 243.438)" xlink:href="#a"/>
  <use id="svg_66" transform="matrix(10 0 0 -10 90.406 243.438)" xlink:href="#a"/>
  <path id="svg_67" d="m103.104,209.029l-3.5,0" stroke="#000" fill="none" stroke-linejoin="round" stroke-width="0.8"/>
  <use id="svg_68" transform="matrix(10 0 0 -10 78.126 212.826)" xlink:href="#c"/>
  <use id="svg_69" transform="matrix(10 0 0 -10 84.116 212.826)" xlink:href="#d"/>
  <use id="svg_70" transform="matrix(10 0 0 -10 90.406 212.956)" xlink:href="#a"/>
  <path id="svg_71" d="m103.104,178.546l-3.5,0" stroke="#000" fill="none" stroke-linejoin="round" stroke-width="0.8"/>
  <use id="svg_72" transform="matrix(10 0 0 -10 78.126 182.343)" xlink:href="#c"/>
  <use id="svg_73" transform="matrix(10 0 0 -10 83.876 182.343)" xlink:href="#o"/>
  <use id="svg_74" transform="matrix(10 0 0 -10 90.406 182.473)" xlink:href="#a"/>
  <path id="svg_75" d="m103.104,148.064l-3.5,0" stroke="#000" fill="none" stroke-linejoin="round" stroke-width="0.8"/>
  <use id="svg_76" transform="matrix(10 0 0 -10 78.126 151.86)" xlink:href="#c"/>
  <use id="svg_77" transform="matrix(10 0 0 -10 84.086 151.99)" xlink:href="#m"/>
  <use id="svg_78" transform="matrix(10 0 0 -10 90.406 151.99)" xlink:href="#a"/>
  <path id="svg_79" d="m103.104,117.581l-3.5,0" stroke="#000" fill="none" stroke-linejoin="round" stroke-width="0.8"/>
  <use id="svg_80" transform="matrix(10 0 0 -10 78.126 121.378)" xlink:href="#c"/>
  <use id="svg_81" transform="matrix(10 0 0 -10 84.066 121.508)" xlink:href="#n"/>
  <use id="svg_82" transform="matrix(10 0 0 -10 90.406 121.508)" xlink:href="#a"/>
  <path id="svg_83" d="m103.104,87.099l-3.5,0" stroke="#000" fill="none" stroke-linejoin="round" stroke-width="0.8"/>
  <use id="svg_84" transform="matrix(10 0 0 -10 77.756 90.896)" xlink:href="#d"/>
  <use id="svg_85" transform="matrix(10 0 0 -10 84.046 91.026)" xlink:href="#a"/>
  <use id="svg_86" transform="matrix(10 0 0 -10 90.406 91.026)" xlink:href="#a"/>
  <path id="svg_87" d="m103.104,56.616l-3.5,0" stroke="#000" fill="none" stroke-linejoin="round" stroke-width="0.8"/>
  <use id="svg_88" transform="matrix(10 0 0 -10 77.756 60.413)" xlink:href="#d"/>
  <use id="svg_89" transform="matrix(10 0 0 -10 84.116 60.413)" xlink:href="#d"/>
  <use id="svg_90" transform="matrix(10 0 0 -10 90.406 60.543)" xlink:href="#a"/>
  <use x="0.42424" y="0" id="svg_91" transform="matrix(0 -10 -10 0 71.078 212.171)" xlink:href="#p"/>
  <use x="0.42424" y="0" id="svg_92" transform="matrix(0 -10 -10 0 70.948 203.951)" xlink:href="#q"/>
  <use x="0.42424" y="0" id="svg_93" transform="matrix(0 -10 -10 0 70.948 199.811)" xlink:href="#f"/>
  <use id="svg_95" transform="matrix(0 -10 -10 0 71.078 193.501)" xlink:href="#h"/>
  <use id="svg_96" transform="matrix(0 -10 -10 0 70.948 186.991)" xlink:href="#s"/>
  <use id="svg_97" transform="matrix(0 -10 -10 0 70.948 181.291)" xlink:href="#r"/>
  <use id="svg_98" transform="matrix(0 -10 -10 0 71.078 177.041)" xlink:href="#t"/>
  <use id="svg_99" transform="matrix(0 -10 -10 0 70.948 171.241)" xlink:href="#r"/>
  <use id="svg_100" transform="matrix(0 -10 -10 0 70.948 166.651)" xlink:href="#f"/>
  <use id="svg_101" transform="matrix(0 -10 -10 0 71.078 164.261)" xlink:href="#u"/>
  <use id="svg_102" transform="matrix(0 -10 -10 0 70.948 157.781)" xlink:href="#s"/>
  <use id="svg_103" transform="matrix(0 -10 -10 0 70.948 152.351)" xlink:href="#i"/>
  <use id="svg_104" transform="matrix(0 -10 -10 0 72.258 148.311)" xlink:href="#j"/>
  <use id="svg_105" transform="matrix(0 -10 -10 0 66.628 144.321)" xlink:href="#v"/>
  <use id="svg_106" transform="matrix(0 -10 -10 0 72.258 139.301)" xlink:href="#l"/>
  <g id="svg_107" clip-path="url(#w)">
   <path id="svg_108" d="m115.2,254.586l0.172,0.165l0.362,-0.122l0.19,-0.103l0.19,0.121l0.173,-0.09l0.163,0.194l0.271,-0.172l0.127,0.253l0.172,-0.004l0.163,0.144l0.724,0.094l0.344,-0.02l1.304,-0.295l0.643,-0.094l0.417,-0.084l0.19,0.047l0.344,-0.125l0.235,0.046l0.335,-0.078l1.105,-0.024l0.534,-0.07l0.19,0.04l0.68,-0.105l1.186,-0.06l0.271,-0.066l4.736,-0.596l0.516,0.009l2.39,0.09l0.362,0.066l0.417,0.033l1.204,0.038l0.371,0.064l1.259,0.097l1.105,0.065l1.802,0.067l0.353,0.061l0.552,0.002l1.62,0.153l10.06,1.111l0.788,0.06l0.19,0.06l0.227,-0.06l0.326,0.06l1.086,0.06l0.371,0.06l2.137,0.028l0.372,0.09l0.162,-0.06l0.562,0.09l4.002,0.088l0.353,0.03l0.96,0l7.733,-0.06l0.217,-0.089l0.498,0.06l0.561,0l5.26,-0.088l0.87,-0.03l0.906,0.03l0.76,-0.03l42.774,-0.057l0.308,-0.03l0.742,0.06l0.335,-0.06l0.707,0.03l1.322,0l7.76,0.088l0.66,0.002l2.12,-0.088l0.85,-0.06l1.485,-0.03l0.163,1.156l0.643,2.168l0.38,0.682l0.372,0.181l0.18,0.044l0.87,-0.651l1.15,-2.481l1.023,-3.714l1.403,-4.618l0.589,-2.592l1.331,-6.492l0.254,-0.707l0.842,-3.869l0.543,-2.347l0.507,-2.491l0.272,-0.808l0.642,-3.493l1.15,-5.764l0.698,-4.245l0.416,-2.204l0.86,-4.776l0.525,-2.36l0.417,-3.01l0.29,-2.844l0.308,-1.172l0.452,-2.35l0.236,-1.128l1.032,-8.783l0.217,-1.638l0.688,-2.994l0.526,-2.752l0.642,-2.459l0.634,-3.077l0.335,-1.684l0.227,-0.592l0.19,-1.065l0.697,-2.016l0.924,-1.699l0.606,-3.488l1.096,-6.208l0.371,-2.63l0.652,-1.44l1.286,-7.73l0.597,-1.522l3.242,-14.481l0.87,-1.958l0.515,-0.929l0.942,-2.59l0.733,-2.039l0.435,-0.584l0.208,-0.142l0.2,-0.39l0.425,-1.144l3.024,-6.323l0.897,-1.084l0.543,-0.8l2.191,-1.975l0.969,-2.33l0.76,-4.081l0.326,-0.602l0.11,0.012l0.388,0.33l2.844,5.076l1.82,2.24l0.633,0.415l1.739,1.735l0.688,1.2l0.272,0.38l0.271,0.813l1.177,3.263l0.308,1.381l0.77,3.194l0.299,1.838l2.78,17.413l0.461,4.12l1.485,11.556l1.268,10.589l0.425,3.173l0.263,3.216l0.299,1.657l0.416,4.993l1.096,10.597l2.245,24.14l0.281,4.326l0.706,6.454l0.788,10.983l1.259,14.537l0.443,3.864l0.254,3.925l1.467,13.751l0.887,7.057l1.666,8.977l0.498,1.97l0.915,2.373l0.552,1.044l0.38,0.335l0.634,0.047l0.417,-0.245l3.123,-2.867l0.498,-0.3l0.752,-0.511l0.435,-0.257l0.642,-0.66l0.752,-0.838l1.277,-2.216l0.706,-1.506l0.262,-0.397l0.607,-1.747l0.226,-0.422l0.335,-0.982l0.39,-1.018l0.29,-0.526l0.262,-1.06l0.317,-1.028l0.172,-0.549l0.29,-0.546l0.108,-0.58l0.39,-1.107l0.344,-1.128l1.603,-5.027l1.457,-4.124l0.363,-0.902l0.353,-0.4l0.38,-1.287l1.612,-3.321l0.57,-0.87l1.087,-1.437l1.584,-1.277l1.123,-0.377l0.688,-0.134l0.906,-0.05l1.276,0.25l2.164,1.122l0.218,0.054l0.507,0.382l0.561,0.257l2.707,1.823l0.743,0.62l0.824,0.518l0.081,0.173l5.587,3.677l0.905,0.382l0.924,0.432l0.163,0.033" stroke="teal" fill="none" stroke-linejoin="round" stroke-linecap="square" stroke-width="2.5"/>
  </g>
  <g id="svg_109" clip-path="url(#x)">
   <path id="svg_110" d="m115.2,255.622l123.84,0.102l0.235,-83.274l0.724,0l0.254,-4.572l0.77,0l0.153,-4.573l4.681,0l0.163,4.573l1.386,0l0.19,4.572l0.887,0l0.218,-4.572l0.688,0l0.19,-4.573l0.507,0l0.272,-4.572l0.48,0l0.162,-4.573l0.553,0l0.308,-4.572l0.29,0l0.162,-4.572l0.317,0l0.218,-4.573l0.253,0l0.163,9.145l0.181,-13.717l0.163,0l0.154,9.145l0.154,0l0.208,-13.717l0.145,9.144l0.38,0l0.182,-4.572l0.235,0l0.145,-4.572l0.145,0l0.308,9.144l0.19,-13.717l0.262,9.145l0.236,0l0.199,-4.572l0.217,0l0.19,-4.573l0.181,0l0.245,9.145l0.217,-13.717l0.245,9.145l0.253,0l0.19,-4.573l0.335,0l0.19,9.145l0.154,-13.717l0.49,0l0.235,9.145l0.19,-13.718l0.208,9.145l0.145,0l0.19,-13.717l0.227,9.145l0.48,0l0.162,-4.573l0.78,0l0.198,9.145l0.19,0l0.218,-13.717l0.226,9.145l0.163,0l0.236,-4.573l0.244,0l0.163,-4.572l0.453,0l0.18,9.145l0.191,-13.717l0.235,0l0.2,9.144l0.217,0l0.19,-13.717l0.208,9.145l0.172,0l0.172,-4.572l0.335,0l0.209,-4.573l0.425,0l0.172,9.145l0.227,-4.572l0.443,0l0.209,-4.573l0.407,0l0.163,9.145l0.217,-13.717l0.245,9.145l0.199,-13.718l0.181,0l0.19,9.145l0.145,0l0.172,-4.572l0.444,0l0.253,9.145l0.19,-13.718l0.426,0l0.181,9.145l0.145,-13.717l0.19,0l0.227,9.145l0.163,0l0.226,-4.573l0.498,0l0.181,13.718l0.38,0l0.263,-9.145l0.172,13.717l0.407,-9.145l0.19,4.573l0.236,0l0.19,-9.145l0.245,4.572l0.48,-9.145l0.18,4.573l0.173,0l0.208,-4.573l0.416,0l0.154,-4.572l0.344,0l0.634,-13.717l0.208,0l0.29,-4.572l0.172,-4.573l0.227,-13.717l2.462,0l0.172,207.35l2.79,0l0.198,1.495l1.069,0.302l5.089,1.216l1.593,0.335l5.252,0.945l4.03,0.539l2.308,0.245l4.174,0.27l4.22,0.023l7.388,-0.317l8.294,-0.292l7.633,0.032l21.885,0.431" stroke="red" fill="none" stroke-linejoin="round" stroke-dasharray="9.25,4" stroke-width="2.5"/>
  </g>
  <path id="svg_111" d="m103.104,307.584l0,-266.112m266.112,266.112l0,-266.112m-266.112,266.112l266.112,0m-266.112,-266.112l266.112,0" stroke="#000" fill="none" stroke-miterlimit="10" stroke-linecap="square" stroke-width="0.8"/>
  <path id="svg_112" fill-opacity="0.8" fill="#fff" d="m110.104,78.816l153.36,0c1.333,0 2,-0.667 2,-2l0,-28.344c0,-1.333 -0.667,-2 -2,-2l-153.36,0c-1.333,0 -2,0.667 -2,2l0,28.344c0,1.333 0.667,2 2,2z"/>
  <path id="svg_113" d="m110.104,78.816l153.36,0c1.333,0 2,-0.667 2,-2l0,-28.344c0,-1.333 -0.667,-2 -2,-2l-153.36,0c-1.333,0 -2,0.667 -2,2l0,28.344c0,1.333 0.667,2 2,2z" stroke-opacity="0.8" stroke="#d5d6d5" fill="none" stroke-miterlimit="10"/>
  <path id="svg_114" d="m112.104,54.566l20,0" stroke="teal" fill="none" stroke-linejoin="round" stroke-linecap="square" stroke-width="2.5"/>
  <use id="svg_115" transform="matrix(10 0 0 -10 140.664 58.196)" xlink:href="#y"/>
  <use id="svg_116" transform="matrix(10 0 0 -10 147.934 58.196)" xlink:href="#z"/>
  <use id="svg_117" transform="matrix(10 0 0 -10 154.334 58.066)" xlink:href="#q"/>
  <use id="svg_118" transform="matrix(10 0 0 -10 158.272 58.066)" xlink:href="#q"/>
  <use id="svg_119" transform="matrix(10 0 0 -10 161.803 58.196)" xlink:href="#h"/>
  <use id="svg_120" transform="matrix(10 0 0 -10 168.313 58.066)" xlink:href="#s"/>
  <use id="svg_121" transform="matrix(10 0 0 -10 174.013 58.066)" xlink:href="#r"/>
  <use id="svg_122" transform="matrix(10 0 0 -10 177.663 58.066)" xlink:href="#i"/>
  <use id="svg_123" transform="matrix(10 0 0 -10 181.393 58.196)" xlink:href="#u"/>
  <use id="svg_124" transform="matrix(10 0 0 -10 187.873 58.066)" xlink:href="#q"/>
  <use id="svg_125" transform="matrix(10 0 0 -10 192.013 58.066)" xlink:href="#f"/>
  <use id="svg_126" transform="matrix(10 0 0 -10 194.403 58.196)" xlink:href="#h"/>
  <use id="svg_127" transform="matrix(10 0 0 -10 200.913 58.066)" xlink:href="#s"/>
  <use id="svg_128" transform="matrix(10 0 0 -10 206.613 58.066)" xlink:href="#r"/>
  <use id="svg_129" transform="matrix(10 0 0 -10 210.863 58.196)" xlink:href="#t"/>
  <use id="svg_130" transform="matrix(10 0 0 -10 216.663 58.066)" xlink:href="#r"/>
  <use id="svg_131" transform="matrix(10 0 0 -10 221.253 58.066)" xlink:href="#f"/>
  <use id="svg_132" transform="matrix(10 0 0 -10 223.643 58.196)" xlink:href="#u"/>
  <use id="svg_133" transform="matrix(10 0 0 -10 230.123 58.066)" xlink:href="#s"/>
  <use id="svg_134" transform="matrix(10 0 0 -10 235.553 58.066)" xlink:href="#i"/>
  <use id="svg_135" transform="matrix(10 0 0 -10 239.593 59.376)" xlink:href="#A"/>
  <use id="svg_136" transform="matrix(10 0 0 -10 243.193 58.196)" xlink:href="#p"/>
  <use id="svg_137" transform="matrix(10 0 0 -10 251.163 58.196)" xlink:href="#B"/>
  <use id="svg_138" transform="matrix(10 0 0 -10 257.653 59.376)" xlink:href="#C"/>
  <path id="svg_139" d="m112.104,69.238l20,0" stroke="red" fill="none" stroke-linejoin="round" stroke-dasharray="9.25,4" stroke-width="2.5"/>
  <use id="svg_140" transform="matrix(10 0 0 -10 141.084 72.738)" xlink:href="#D"/>
  <use id="svg_141" transform="matrix(10 0 0 -10 148.354 72.868)" xlink:href="#h"/>
  <use id="svg_142" transform="matrix(10 0 0 -10 154.494 72.868)" xlink:href="#k"/>
  <use id="svg_143" transform="matrix(10 0 0 -10 160.104 72.738)" xlink:href="#f"/>
  <use id="svg_144" transform="matrix(10 0 0 -10 162.854 72.738)" xlink:href="#q"/>
  <use id="svg_145" transform="matrix(10 0 0 -10 166.385 72.868)" xlink:href="#h"/>
  <use id="svg_146" transform="matrix(10 0 0 -10 172.535 72.868)" xlink:href="#E"/>
  <use id="svg_147" transform="matrix(10 0 0 -10 178.335 72.738)" xlink:href="#i"/>
  <use id="svg_148" transform="matrix(10 0 0 -10 182.065 72.868)" xlink:href="#u"/>
  <use id="svg_149" transform="matrix(10 0 0 -10 188.545 72.738)" xlink:href="#q"/>
  <use id="svg_150" transform="matrix(10 0 0 -10 192.685 72.738)" xlink:href="#f"/>
  <use id="svg_151" transform="matrix(10 0 0 -10 195.075 72.868)" xlink:href="#h"/>
  <use id="svg_152" transform="matrix(10 0 0 -10 201.585 72.738)" xlink:href="#s"/>
  <use id="svg_153" transform="matrix(10 0 0 -10 207.285 72.738)" xlink:href="#r"/>
  <use id="svg_154" transform="matrix(10 0 0 -10 211.535 72.868)" xlink:href="#t"/>
  <use id="svg_155" transform="matrix(10 0 0 -10 217.335 72.738)" xlink:href="#r"/>
  <use id="svg_156" transform="matrix(10 0 0 -10 221.925 72.738)" xlink:href="#f"/>
  <use id="svg_157" transform="matrix(10 0 0 -10 224.315 72.868)" xlink:href="#u"/>
  <use id="svg_158" transform="matrix(10 0 0 -10 230.795 72.738)" xlink:href="#s"/>
  <use id="svg_159" transform="matrix(10 0 0 -10 236.225 72.738)" xlink:href="#i"/>
  <use id="svg_160" transform="matrix(10 0 0 -10 240.265 74.048)" xlink:href="#A"/>
  <use id="svg_161" transform="matrix(10 0 0 -10 243.865 72.868)" xlink:href="#p"/>
  <use id="svg_162" transform="matrix(10 0 0 -10 251.835 72.868)" xlink:href="#B"/>
  <use id="svg_163" transform="matrix(10 0 0 -10 258.325 74.048)" xlink:href="#C"/>
 </g>
</svg>