<svg width="460.8" height="345.6" xmlns="http://www.w3.org/2000/svg" xmlns:xlink="http://www.w3.org/1999/xlink">

 <symbol id="a">
  <path id="svg_1" d="m0.252,0.677c-0.051,0 -0.089,-0.025 -0.115,-0.075s-0.038,-0.125 -0.038,-0.225s0.012,-0.175 0.038,-0.225s0.064,-0.075 0.115,-0.075s0.089,0.025 0.115,0.075c0.025,0.05 0.038,0.125 0.038,0.225s-0.013,0.175 -0.038,0.225c-0.026,0.05 -0.064,0.075 -0.115,0.075zm0,0.078c0.081,0 0.143,-0.033 0.187,-0.097c0.043,-0.065 0.065,-0.159 0.065,-0.281c0,-0.123 -0.022,-0.217 -0.065,-0.281c-0.044,-0.064 -0.106,-0.096 -0.188,-0.096s-0.144,0.032 -0.187,0.096s-0.064,0.158 -0.064,0.281c0,0.122 0.021,0.216 0.064,0.281c0.043,0.064 0.106,0.097 0.188,0.097z"/>
 </symbol>
 <symbol id="b">
  <path id="svg_2" d="m0.031,0.742l0.387,0l0,-0.083l-0.297,0l0,-0.179c0.014,0.005 0.029,0.009 0.043,0.011s0.029,0.004 0.043,0.004c0.081,0 0.145,-0.023 0.193,-0.067c0.048,-0.045 0.072,-0.105 0.072,-0.181c0,-0.079 -0.025,-0.14 -0.074,-0.183s-0.118,-0.064 -0.206,-0.064c-0.031,0 -0.062,0.003 -0.094,0.007c-0.032,0.005 -0.064,0.012 -0.098,0.023l0,0.099c0.029,-0.016 0.059,-0.028 0.091,-0.036c0.031,-0.008 0.064,-0.011 0.099,-0.011c0.056,0 0.101,0.014 0.134,0.044c0.032,0.03 0.049,0.07 0.049,0.121c0,0.05 -0.017,0.09 -0.049,0.12c-0.033,0.03 -0.078,0.045 -0.134,0.045c-0.026,0 -0.053,-0.003 -0.079,-0.009s-0.053,-0.015 -0.08,-0.027l0,0.366z"/>
 </symbol>
 <symbol id="c">
  <path id="svg_3" d="m124,83l161,0l0,556l-175,-35l0,90l174,35l99,0l0,-646l161,0l0,-83l-420,0l0,83z" transform="translate(-.11) scale(.001)"/>
 </symbol>
 <symbol id="d">
  <path id="svg_4" d="m192,83l344,0l0,-83l-463,0l0,83c37,38 88,90 153,156c64,65 105,107 122,126c32,35 54,65 66,90c12,24 19,49 19,73c0,38 -14,70 -41,94s-62,37 -106,37c-31,0 -64,-6 -98,-16c-34,-11 -71,-27 -110,-49l0,100c40,16 77,28 111,36s66,12 95,12c75,0 135,-19 180,-57s68,-88 68,-151c0,-30 -6,-59 -17,-85c-11,-27 -31,-59 -61,-95c-8,-10 -34,-37 -78,-82s-105,-108 -184,-189z" transform="translate(-.073) scale(.001)"/>
 </symbol>
 <symbol id="e">
  <path id="svg_5" d="m-2,729l616,0l0,-83l-259,0l0,-646l-99,0l0,646l-258,0l0,83z" transform="translate(.002) scale(.001)"/>
 </symbol>
 <symbol id="f">
  <path id="svg_6" d="m94,547l90,0l0,-547l-90,0l0,547zm0,213l90,0l0,-114l-90,0l0,114z" transform="translate(-.094) scale(.001)"/>
 </symbol>
 <symbol id="g">
  <path id="svg_7" d="m520,442c22,40 49,69 80,89c31,19 68,29 111,29c56,0 100,-20 131,-60s47,-97 47,-170l0,-330l-90,0l0,327c0,52 -10,91 -28,117c-19,25 -47,38 -85,38c-47,0 -84,-16 -111,-47s-40,-73 -40,-126l0,-309l-90,0l0,327c0,52 -10,91 -28,117c-19,25 -48,38 -86,38c-46,0 -83,-16 -110,-47s-40,-73 -40,-126l0,-309l-90,0l0,547l90,0l0,-85c20,33 45,58 74,74c28,16 62,24 102,24s73,-10 101,-30s48,-50 62,-88z" transform="translate(-.091) scale(.001)"/>
 </symbol>
 <symbol id="h">
  <path id="svg_8" d="m0.507,0.309l0,-0.044l-0.413,0c0.004,-0.062 0.022,-0.11 0.056,-0.142c0.033,-0.032 0.079,-0.048 0.139,-0.048c0.034,0 0.068,0.004 0.1,0.012s0.065,0.021 0.097,0.039l0,-0.085c-0.032,-0.014 -0.065,-0.025 -0.099,-0.031s-0.069,-0.01 -0.103,-0.01c-0.088,0 -0.157,0.025 -0.208,0.075s-0.076,0.119 -0.076,0.206c0,0.089 0.024,0.16 0.072,0.213c0.048,0.052 0.114,0.079 0.196,0.079c0.074,0 0.132,-0.024 0.175,-0.071c0.042,-0.048 0.064,-0.112 0.064,-0.193zm-0.09,0.026c-0.001,0.049 -0.015,0.088 -0.041,0.118c-0.027,0.029 -0.063,0.044 -0.107,0.044c-0.05,0 -0.09,-0.015 -0.12,-0.043s-0.048,-0.068 -0.052,-0.119l0.32,0z"/>
 </symbol>
 <symbol id="j">
  <path id="svg_9" d="m0,0.891l0.207,0l0,-0.07l-0.117,0l0,-0.751l0.117,0l0,-0.07l-0.207,0l0,0.891z"/>
 </symbol>
 <symbol id="k">
  <path id="svg_10" d="m0.389,0.544l0,-0.085c-0.026,0.012 -0.052,0.022 -0.079,0.029c-0.028,0.006 -0.056,0.01 -0.085,0.01c-0.045,0 -0.079,-0.007 -0.101,-0.021s-0.033,-0.034 -0.033,-0.061c0,-0.021 0.008,-0.037 0.024,-0.049s0.048,-0.024 0.096,-0.034l0.031,-0.007c0.064,-0.014 0.109,-0.034 0.136,-0.058c0.026,-0.025 0.04,-0.06 0.04,-0.104c0,-0.051 -0.02,-0.091 -0.06,-0.12c-0.04,-0.03 -0.096,-0.044 -0.166,-0.044c-0.03,0 -0.06,0.003 -0.092,0.008s-0.065,0.013 -0.1,0.025l0,0.093c0.033,-0.018 0.066,-0.031 0.098,-0.039c0.032,-0.009 0.064,-0.013 0.096,-0.013c0.042,0 0.075,0.007 0.098,0.021c0.022,0.014 0.034,0.035 0.034,0.062c0,0.024 -0.009,0.043 -0.025,0.056s-0.052,0.026 -0.108,0.038l-0.031,0.007c-0.056,0.012 -0.097,0.03 -0.121,0.054c-0.025,0.024 -0.037,0.057 -0.037,0.1c0,0.051 0.018,0.091 0.054,0.119s0.088,0.042 0.156,0.042c0.033,0 0.064,-0.003 0.094,-0.008c0.029,-0.005 0.056,-0.012 0.081,-0.021z"/>
 </symbol>
 <symbol id="l">
  <path id="svg_11" d="m0.207,0.891l0,-0.891l-0.207,0l0,0.07l0.117,0l0,0.751l-0.117,0l0,0.07l0.207,0z"/>
 </symbol>
 <symbol id="m">
  <path id="svg_12" d="m0.33,0.406c0.047,-0.01 0.084,-0.031 0.11,-0.063s0.04,-0.072 0.04,-0.118c0,-0.072 -0.025,-0.128 -0.074,-0.167c-0.05,-0.039 -0.12,-0.058 -0.211,-0.058c-0.031,0 -0.063,0.003 -0.095,0.009c-0.032,0.005 -0.066,0.014 -0.1,0.026l0,0.095c0.027,-0.016 0.057,-0.028 0.09,-0.036c0.032,-0.008 0.066,-0.012 0.102,-0.012c0.062,0 0.109,0.012 0.141,0.036s0.049,0.06 0.049,0.107c0,0.042 -0.015,0.076 -0.045,0.1s-0.072,0.037 -0.126,0.037l-0.085,0l0,0.081l0.089,0c0.048,0 0.085,0.009 0.111,0.029c0.026,0.019 0.039,0.047 0.039,0.084s-0.014,0.066 -0.04,0.086c-0.027,0.02 -0.065,0.03 -0.114,0.03c-0.027,0 -0.056,-0.003 -0.087,-0.009s-0.065,-0.015 -0.102,-0.027l0,0.088c0.037,0.01 0.072,0.018 0.105,0.023c0.032,0.005 0.063,0.008 0.093,0.008c0.074,0 0.133,-0.017 0.177,-0.051s0.066,-0.08 0.066,-0.138c0,-0.04 -0.012,-0.074 -0.035,-0.102s-0.056,-0.048 -0.098,-0.058z"/>
 </symbol>
 <symbol id="n">
  <path id="svg_13" d="m378,643l-249,-389l249,0l0,389zm-26,86l124,0l0,-475l104,0l0,-82l-104,0l0,-172l-98,0l0,172l-329,0l0,95l303,462z" transform="translate(-.049) scale(.001)"/>
 </symbol>
 <symbol id="o">
  <path id="svg_14" d="m0.26,0.417c-0.044,0 -0.079,-0.016 -0.105,-0.046s-0.039,-0.072 -0.039,-0.124c0,-0.053 0.013,-0.095 0.039,-0.125s0.061,-0.045 0.105,-0.045s0.079,0.015 0.105,0.045s0.039,0.072 0.039,0.125c0,0.052 -0.013,0.094 -0.039,0.124s-0.061,0.046 -0.105,0.046zm0.196,0.309l0,-0.09c-0.025,0.012 -0.05,0.021 -0.075,0.027c-0.026,0.006 -0.051,0.009 -0.075,0.009c-0.066,0 -0.116,-0.022 -0.15,-0.066s-0.054,-0.111 -0.058,-0.199c0.019,0.028 0.043,0.05 0.072,0.065s0.061,0.023 0.096,0.023c0.073,0 0.131,-0.023 0.173,-0.067s0.064,-0.105 0.064,-0.181c0,-0.075 -0.023,-0.135 -0.067,-0.18s-0.103,-0.067 -0.176,-0.067c-0.084,0 -0.149,0.032 -0.193,0.096c-0.045,0.064 -0.067,0.158 -0.067,0.281c0,0.115 0.027,0.207 0.082,0.275c0.054,0.068 0.128,0.103 0.22,0.103c0.024,0 0.049,-0.003 0.075,-0.007c0.025,-0.005 0.051,-0.012 0.079,-0.022z"/>
 </symbol>
 <symbol id="p">
  <path id="svg_15" d="m0.469,0.718l0,-0.096c-0.038,0.018 -0.073,0.031 -0.106,0.04c-0.034,0.008 -0.066,0.013 -0.096,0.013c-0.054,0 -0.096,-0.011 -0.125,-0.031c-0.029,-0.021 -0.043,-0.051 -0.043,-0.089c0,-0.032 0.009,-0.057 0.029,-0.073c0.019,-0.017 0.056,-0.03 0.11,-0.04l0.06,-0.012c0.073,-0.014 0.127,-0.039 0.162,-0.074c0.035,-0.036 0.053,-0.083 0.053,-0.142c0,-0.071 -0.024,-0.124 -0.071,-0.16c-0.048,-0.036 -0.117,-0.054 -0.208,-0.054c-0.035,0 -0.072,0.004 -0.111,0.011s-0.079,0.018 -0.12,0.034l0,0.102c0.04,-0.023 0.079,-0.04 0.117,-0.051c0.038,-0.012 0.076,-0.017 0.114,-0.017c0.056,0 0.099,0.011 0.13,0.033c0.03,0.022 0.046,0.053 0.046,0.095c0,0.036 -0.011,0.064 -0.033,0.084s-0.058,0.035 -0.108,0.045l-0.06,0.012c-0.074,0.014 -0.127,0.037 -0.16,0.069c-0.033,0.031 -0.049,0.074 -0.049,0.13c0,0.064 0.022,0.115 0.068,0.152c0.045,0.037 0.108,0.056 0.188,0.056c0.034,0 0.068,-0.003 0.104,-0.009c0.035,-0.006 0.071,-0.016 0.109,-0.028z"/>
 </symbol>
 <symbol id="q">
  <path id="svg_16" d="m0.09,0.289l0,-0.289l-0.09,0l0,0.754l0.09,0l0,-0.083c0.018,0.032 0.042,0.056 0.071,0.072s0.064,0.024 0.104,0.024c0.066,0 0.12,-0.027 0.162,-0.079c0.041,-0.053 0.062,-0.122 0.062,-0.208s-0.021,-0.156 -0.062,-0.208c-0.042,-0.052 -0.096,-0.078 -0.162,-0.078c-0.04,0 -0.075,0.008 -0.104,0.023s-0.053,0.039 -0.071,0.072zm0.306,0.191c0,0.066 -0.014,0.117 -0.041,0.155c-0.028,0.038 -0.065,0.057 -0.112,0.057c-0.048,0 -0.085,-0.019 -0.112,-0.057c-0.028,-0.038 -0.041,-0.089 -0.041,-0.155s0.013,-0.118 0.041,-0.156c0.027,-0.038 0.064,-0.056 0.112,-0.056c0.047,0 0.084,0.018 0.112,0.056c0.027,0.038 0.041,0.09 0.041,0.156z"/>
 </symbol>
 <symbol id="r">
  <path id="svg_17" d="m0.399,0.477l0,0.296l0.09,0l0,-0.76l-0.09,0l0,0.082c-0.019,-0.033 -0.043,-0.057 -0.072,-0.072s-0.063,-0.023 -0.103,-0.023c-0.066,0 -0.12,0.026 -0.162,0.078s-0.062,0.122 -0.062,0.208s0.02,0.155 0.062,0.208c0.042,0.052 0.096,0.079 0.162,0.079c0.04,0 0.074,-0.008 0.103,-0.024s0.053,-0.04 0.072,-0.072zm-0.306,-0.191c0,-0.066 0.013,-0.118 0.04,-0.156s0.064,-0.056 0.112,-0.056s0.085,0.018 0.113,0.056c0.027,0.038 0.041,0.09 0.041,0.156s-0.014,0.117 -0.041,0.155c-0.028,0.038 -0.065,0.057 -0.113,0.057s-0.085,-0.019 -0.112,-0.057s-0.04,-0.089 -0.04,-0.155z"/>
 </symbol>
 <symbol id="s">
  <path id="svg_18" d="m0.254,0.821l0.083,0l-0.254,-0.821l-0.083,0l0.254,0.821z"/>
 </symbol>
 <clipPath id="t">
  <path id="svg_19" d="m103.104,307.58401l266.112,0l0,-266.112l-266.112,0l0,266.112z"/>
 </clipPath>
 <clipPath id="u">
  <path id="svg_20" d="m103.104,307.58401l266.112,0l0,-266.112l-266.112,0l0,266.112z"/>
 </clipPath>
 <symbol id="v">
  <path id="svg_21" d="m0.588,0.686l0,-0.104c-0.034,0.03 -0.069,0.053 -0.107,0.069c-0.038,0.015 -0.077,0.023 -0.119,0.023c-0.084,0 -0.148,-0.026 -0.192,-0.077s-0.066,-0.124 -0.066,-0.22s0.022,-0.17 0.066,-0.221s0.108,-0.076 0.192,-0.076c0.042,0 0.081,0.007 0.119,0.023c0.038,0.015 0.073,0.038 0.107,0.069l0,-0.103c-0.035,-0.024 -0.072,-0.041 -0.11,-0.052s-0.079,-0.017 -0.122,-0.017c-0.11,0 -0.197,0.033 -0.261,0.1s-0.095,0.159 -0.095,0.277c0,0.117 0.031,0.209 0.095,0.277c0.064,0.067 0.151,0.101 0.261,0.101c0.044,0 0.085,-0.006 0.123,-0.017c0.038,-0.012 0.075,-0.029 0.109,-0.052z"/>
 </symbol>
 <symbol id="w">
  <path id="svg_22" d="m0,0.229l0,0.331l0.09,0l0,-0.328c0,-0.052 0.01,-0.09 0.03,-0.116s0.05,-0.039 0.091,-0.039c0.048,0 0.087,0.015 0.115,0.046s0.042,0.073 0.042,0.127l0,0.31l0.09,0l0,-0.547l-0.09,0l0,0.084c-0.022,-0.034 -0.048,-0.058 -0.076,-0.074c-0.029,-0.015 -0.062,-0.023 -0.1,-0.023c-0.063,0 -0.111,0.019 -0.143,0.058c-0.033,0.038 -0.049,0.095 -0.049,0.171zm0.226,0.344z"/>
 </symbol>
 <symbol id="x">
  <path id="svg_23" d="m411,463c-10,6 -21,10 -33,13c-12,2 -25,4 -39,4c-51,0 -90,-17 -117,-50c-28,-33 -41,-80 -41,-142l0,-288l-90,0l0,547l90,0l0,-85c18,33 43,58 73,74s67,24 111,24c6,0 13,-1 21,-1c7,-1 15,-2 25,-4l0,-92z" transform="translate(-.091) scale(.001)"/>
 </symbol>
 <symbol id="y">
  <path id="svg_24" d="m549,330l0,-330l-90,0l0,327c0,52 -11,90 -31,116s-50,39 -90,39c-49,0 -87,-16 -115,-47s-42,-73 -42,-126l0,-309l-90,0l0,547l90,0l0,-85c21,32 46,57 76,73c29,16 63,25 101,25c62,0 110,-20 142,-59s49,-96 49,-171z" transform="translate(-.091) scale(.001)"/>
 </symbol>
 <symbol id="z">
  <path id="svg_25" d="m183,702l0,-155l185,0l0,-70l-185,0l0,-297c0,-45 6,-74 18,-86c12,-13 37,-19 75,-19l92,0l0,-75l-92,0c-70,0 -118,13 -144,39s-39,73 -39,141l0,297l-66,0l0,70l66,0l0,155l90,0z" transform="translate(-.027) scale(.001)"/>
 </symbol>
 <symbol id="A">
  <path id="svg_26" d="m0.224,0.89c-0.044,-0.076 -0.076,-0.15 -0.097,-0.223c-0.022,-0.073 -0.032,-0.147 -0.032,-0.222c0,-0.076 0.01,-0.15 0.032,-0.223c0.021,-0.074 0.053,-0.147 0.097,-0.222l-0.078,0c-0.049,0.077 -0.086,0.151 -0.11,0.225s-0.036,0.147 -0.036,0.22c0,0.072 0.012,0.145 0.036,0.219s0.06,0.149 0.11,0.226l0.078,0z"/>
 </symbol>
 <symbol id="B">
  <path id="svg_27" d="m0.338,0.675c-0.072,0 -0.129,-0.027 -0.171,-0.08c-0.042,-0.054 -0.063,-0.126 -0.063,-0.218s0.021,-0.165 0.063,-0.218c0.042,-0.054 0.099,-0.08 0.171,-0.08c0.071,0 0.128,0.026 0.17,0.08c0.042,0.053 0.063,0.126 0.063,0.218s-0.021,0.164 -0.063,0.218c-0.042,0.053 -0.099,0.08 -0.17,0.08zm0,0.08c0.102,0 0.183,-0.035 0.245,-0.103c0.061,-0.068 0.092,-0.16 0.092,-0.275c0,-0.116 -0.031,-0.207 -0.092,-0.275c-0.062,-0.068 -0.143,-0.102 -0.245,-0.102c-0.103,0 -0.185,0.034 -0.246,0.102c-0.062,0.068 -0.092,0.159 -0.092,0.275c0,0.115 0.03,0.207 0.092,0.275c0.061,0.068 0.143,0.103 0.246,0.103z"/>
 </symbol>
 <symbol id="C">
  <path id="svg_28" d="m0,0.89l0.078,0c0.048,-0.077 0.085,-0.152 0.109,-0.226s0.037,-0.147 0.037,-0.219c0,-0.073 -0.013,-0.146 -0.037,-0.22s-0.061,-0.148 -0.109,-0.225l-0.078,0c0.043,0.075 0.075,0.148 0.097,0.222c0.021,0.073 0.032,0.147 0.032,0.223c0,0.075 -0.011,0.149 -0.032,0.222c-0.022,0.073 -0.054,0.147 -0.097,0.223z"/>
 </symbol>
 <symbol id="D">
  <path id="svg_29" d="m197,648l0,-567l119,0c100,0 174,22 221,68c46,46 70,118 70,216s-24,169 -70,215c-47,45 -121,68 -221,68l-119,0zm-99,81l203,0c141,0 245,-30 311,-88c66,-59 99,-151 99,-276c0,-126 -34,-218 -100,-277s-170,-88 -310,-88l-203,0l0,729z" transform="translate(-.098) scale(.001)"/>
 </symbol>
 <g>
  <title>Layer 1</title>
  <path id="svg_30" fill="#fff" d="m1.42389,346.45122l460.8,0l0,-345.6l-460.8,0l0,345.6z"/>
  <path id="svg_31" fill="#fff" d="m103.104,307.584l266.112,0l0,-266.112l-266.112,0l0,266.112z"/>
  <path id="svg_32" d="m112.51,307.584l0,3.5" stroke="#000" fill="none" stroke-linejoin="round" stroke-width="0.8"/>
  <use id="svg_33" transform="matrix(10 0 0 -10 109.991 322.308)" xlink:href="#a"/>
  <path id="svg_34" d="m157.784,307.584l0,3.5" stroke="#000" fill="none" stroke-linejoin="round" stroke-width="0.8"/>
  <use id="svg_35" transform="matrix(10 0 0 -10 155.374 322.308)" xlink:href="#b"/>
  <path id="svg_36" d="m203.056,307.584l0,3.5" stroke="#000" fill="none" stroke-linejoin="round" stroke-width="0.8"/>
  <use id="svg_37" transform="matrix(10 0 0 -10 197.797 322.178)" xlink:href="#c"/>
  <use id="svg_38" transform="matrix(10 0 0 -10 203.717 322.308)" xlink:href="#a"/>
  <path id="svg_39" d="m248.33,307.584l0,3.5" stroke="#000" fill="none" stroke-linejoin="round" stroke-width="0.8"/>
  <use id="svg_40" transform="matrix(10 0 0 -10 243.07 322.178)" xlink:href="#c"/>
  <use id="svg_41" transform="matrix(10 0 0 -10 249.1 322.308)" xlink:href="#b"/>
  <path id="svg_42" d="m293.602,307.584l0,3.5" stroke="#000" fill="none" stroke-linejoin="round" stroke-width="0.8"/>
  <use id="svg_43" transform="matrix(10 0 0 -10 287.973 322.178)" xlink:href="#d"/>
  <use id="svg_44" transform="matrix(10 0 0 -10 294.263 322.308)" xlink:href="#a"/>
  <path id="svg_45" d="m338.875,307.584l0,3.5" stroke="#000" fill="none" stroke-linejoin="round" stroke-width="0.8"/>
  <use id="svg_46" transform="matrix(10 0 0 -10 333.246 322.178)" xlink:href="#d"/>
  <use id="svg_47" transform="matrix(10 0 0 -10 339.646 322.308)" xlink:href="#b"/>
  <use id="svg_48" transform="matrix(10 0 0 -10 215.757 335.85)" xlink:href="#e"/>
  <use id="svg_49" transform="matrix(10 0 0 -10 222.53 335.85)" xlink:href="#f"/>
  <use id="svg_50" transform="matrix(10 0 0 -10 225.28 335.85)" xlink:href="#g"/>
  <use id="svg_51" transform="matrix(10 0 0 -10 234.66 335.98)" xlink:href="#h"/>
  <use id="svg_52" transform="matrix(10 0 0 -10 240.26 335.85)" xlink:href="#i"/>
  <use id="svg_53" transform="matrix(10 0 0 -10 244.3 337.16)" xlink:href="#j"/>
  <use id="svg_54" transform="matrix(10 0 0 -10 247.88 335.98)" xlink:href="#k"/>
  <use id="svg_55" transform="matrix(10 0 0 -10 253.52 337.16)" xlink:href="#l"/>
  <path id="svg_56" d="m103.104,275.206l-3.5,0" stroke="#000" fill="none" stroke-linejoin="round" stroke-width="0.8"/>
  <use id="svg_57" transform="matrix(10 0 0 -10 90.845 279.003)" xlink:href="#c"/>
  <path id="svg_58" d="m103.104,230.878l-3.5,0" stroke="#000" fill="none" stroke-linejoin="round" stroke-width="0.8"/>
  <use id="svg_59" transform="matrix(10 0 0 -10 90.475 234.675)" xlink:href="#d"/>
  <path id="svg_60" d="m103.104,186.55l-3.5,0" stroke="#000" fill="none" stroke-linejoin="round" stroke-width="0.8"/>
  <use id="svg_61" transform="matrix(10 0 0 -10 90.505 190.478)" xlink:href="#m"/>
  <path id="svg_62" d="m103.104,142.223l-3.5,0" stroke="#000" fill="none" stroke-linejoin="round" stroke-width="0.8"/>
  <use id="svg_63" transform="matrix(10 0 0 -10 90.235 146.02)" xlink:href="#n"/>
  <path id="svg_64" d="m103.104,97.896l-3.5,0" stroke="#000" fill="none" stroke-linejoin="round" stroke-width="0.8"/>
  <use id="svg_65" transform="matrix(10 0 0 -10 90.515 101.822)" xlink:href="#b"/>
  <path id="svg_66" d="m103.104,53.568l-3.5,0" stroke="#000" fill="none" stroke-linejoin="round" stroke-width="0.8"/>
  <use id="svg_67" transform="matrix(10 0 0 -10 90.445 57.495)" xlink:href="#o"/>
  <use id="svg_68" transform="rotate(-90 87.575 201.635) scale(10 10)" xlink:href="#p"/>
  <use id="svg_69" transform="matrix(0 -10 -10 0 85.736 197.612)" xlink:href="#q"/>
  <use id="svg_70" transform="matrix(0 -10 -10 0 83.796 191.622)" xlink:href="#h"/>
  <use id="svg_71" transform="matrix(0 -10 -10 0 83.796 185.472)" xlink:href="#h"/>
  <use id="svg_72" transform="matrix(0 -10 -10 0 83.796 179.322)" xlink:href="#r"/>
  <use id="svg_73" transform="matrix(0 -10 -10 0 83.666 173.522)" xlink:href="#i"/>
  <use id="svg_74" transform="matrix(0 -10 -10 0 84.976 169.482)" xlink:href="#j"/>
  <use id="svg_75" transform="matrix(0 -10 -10 0 83.666 165.532)" xlink:href="#g"/>
  <use id="svg_76" transform="matrix(0 -10 -10 0 84.586 156.702)" xlink:href="#s"/>
  <use id="svg_77" transform="matrix(0 -10 -10 0 83.796 152.792)" xlink:href="#k"/>
  <use id="svg_78" transform="matrix(0 -10 -10 0 84.976 147.152)" xlink:href="#l"/>
  <g id="svg_79" clip-path="url(#t)">
   <path id="svg_80" d="m115.2,295.488l0.724,-11.466l1.259,-18.6l0.253,-2.31l0.471,-6.846l0.725,-8.33l0.262,-1.872l0.29,-3.71l1.123,-9.764l0.308,-2.933l1.294,-7.993l0.245,-0.91l0.299,-1.804l1.095,-4.284l0.281,-0.574l0.398,-1.77l0.399,-1.063l0.534,-1.552l0.254,-0.522l0.271,-1.012l0.589,-1.4l0.525,-1.502l2.897,-7.153l0.3,-0.387l0.253,-0.692l0.869,-1.618l1.829,-2.31l1.974,-1.618l0.625,-0.32l0.307,-0.236l0.924,-0.522l1.775,-1.026l0.38,-0.187l1.458,-0.759l0.552,-0.236l1.43,-0.52l2.907,-0.492l1.802,-0.268l2.146,-0.437l4.183,-0.392l0.553,0.017l0.534,0.033l0.552,-0.017l1.956,-0.102l0.552,-0.084l0.725,-0.033l2.209,-0.119l0.706,0.033l5.406,-0.002l0.39,0.085l1.964,-0.084l1.331,0.102l0.851,-0.001l1.449,-0.016l1.304,0.05l0.833,-0.051l7.298,0.221l0.896,-0.033l1.811,0.017l1.83,0.1l0.551,0.135l3.06,-0.1l0.943,0l0.488,-0.034l0.562,0.068l0.806,-0.033l0.679,0.083l0.724,0l0.299,0.017l2.046,-0.066l0.417,0.015l0.108,-0.053l0.87,0.238l0.543,-0.016l3.278,-0.133l2.517,0.217l2.372,-0.101l1.096,-0.068l0.552,0.002l1.793,0.034l0.751,0.235l1.087,-0.102l0.715,0l1.621,0.034l0.525,0.134l2.58,-0.065l0.137,-0.071l0.742,0.103l0.426,0.067l0.108,-0.067l0.978,0.1l0.299,-0.1l0.362,-0.034l0.752,-0.034l0.136,-0.1l0.199,0.101l0.742,-0.034l1.612,-0.101l0.362,0.032l3.495,-0.032l0.48,0.001l0.724,-0.033l4.627,-0.068l0.09,-0.912l0.155,0.37l0.66,0.338l0.272,0.168l0.725,0.372l1.44,0.202l0.434,-0.1l0.851,0.067l0.534,-0.101l0.154,0.101l0.797,-0.1l0.163,-1.029l0.254,-0.39l0.126,-0.464l0.797,-1.371l0.616,-1.282l2.508,-6.12l0.906,-1.153l0.651,-0.298l0.625,0.483l0.127,0.145l0.652,2.073l0.335,0.954l0.598,1.46l0.507,1.938l0.534,2.066l0.498,1.205l0.353,0.834l0.272,0.378l0.271,0.817l0.924,1.545l0.462,0.316l0.833,1.049l0.76,0.248l0.154,0.048l0.706,6.947l0.181,-0.053l0.182,-0.25l0.38,-0.928l0.145,-0.045l0.996,-0.9l0.416,-1.172l0.833,-2.146l0.245,-0.083l0.778,-1.939l0.553,5.238l0.28,-0.306l0.78,-1.627l0.416,3.703l0.48,-0.793l0.407,3.698l0.924,6.92l0.443,-1.3l0.399,-1.693l0.407,-1.734l0.824,-3.99l0.652,4.902l1.286,-9.064l0.597,4.013l1.286,-10.037l1.512,-15.547l0.444,-5.786l0.443,-3.648l0.607,2.576l0.335,2.333l0.76,-7.493l1.178,-10.725l0.172,0.433l0.208,-0.01l0.2,-1.166l0.19,-2.662l0.932,-6.862l1.195,-11.75l0.317,1.244l1.023,-11.707l0.462,-3.44l0.987,-10.638l0.453,-3.347l1.014,-9.396l0.344,-2.534l0.335,-4.693l0.561,-4.843l0.236,-2.473l0.425,6.715l0.77,14.232l0.28,2.164l0.444,6.704l0.335,4.58l1.467,15.571l1.078,10.415l1.449,15.311l0.335,1.85l0.298,3.24l0.833,6.714l0.363,2.293l0.262,1.029l0.616,4.024l0.625,2.8l0.271,1.922l0.725,3.855l0.452,2.075l0.308,2.118l0.879,5.676l2.707,16.49l0.262,0.843l0.462,2.311l0.933,2.868l0.715,1.58l0.344,0.547l0.562,0.584l0.887,0.441l0.58,-0.009l0.325,-0.071l0.906,-0.577l1.648,-2.59l0.597,-1.299l0.281,-1.037l0.842,-2.44l1.168,-5.805l0.743,-3.343l0.443,-1.595l0.254,-1.597l2.173,-8.167l1.077,-4.085l1.132,-3.672l0.507,-1.926l1.304,-4.4l0.507,-2.018l0.299,-0.521l0.29,-0.956l0.335,-0.825l0.552,-0.974l0.743,-0.996l0.534,-0.468l1.086,-0.37l0.68,-0.105l0.389,0.097l0.18,-0.032l0.58,0.244l0.498,0.252l0.19,0.008l0.19,0.135l0.227,0.018l0.308,0.223l0.19,-0.04l0.344,0.203l0.715,0.204l0.97,0.55l0.47,0.441l0.226,0.079l0.127,0.17l0.97,0.517l1.067,1.091l0.734,0.713l0.942,0.904l2.118,1.488l0.716,0.28l0.244,0.12l1.105,0.23l1.91,-0.137l0.39,-0.018l1.231,-0.31l0.353,-0.097l0.227,0.1l0.516,-0.03l0.38,0.103l0.688,0.237l0.543,0.27l0.716,0.439l0.208,0.202l0.244,0l0.11,0.202l0.361,0.133l0.897,-0.11l0.534,0.096l1.105,0.09l0.353,-0.042l0.742,0.663l0.534,0.26l1.268,0.537l0.426,0.157l1.865,0.9l0.299,0.284l2.653,1.28l0.715,-0.248l0.914,0.114l0.535,-0.03l1.349,0.18l0.108,0.127l1.087,0.22" stroke="teal" fill="none" stroke-linejoin="round" stroke-linecap="square" stroke-width="2.5"/>
  </g>
  <g id="svg_81" clip-path="url(#u)">
   <path id="svg_82" d="m115.2,186.55l137.901,0l0.163,-11.081l0.181,11.082l0.163,0l0.154,-11.082l0.154,0l0.208,11.082l0.145,-11.082l1.087,0l0.308,-11.082l0.19,11.082l0.262,-11.082l1.023,0l0.245,-11.082l0.217,11.082l0.245,-11.082l0.778,0l0.19,-11.082l0.154,11.082l0.49,0l0.235,-11.082l0.19,11.082l0.208,-11.082l0.145,0l0.19,11.082l0.227,-11.082l1.421,0l0.2,-11.082l0.19,0l0.217,11.082l0.226,-11.082l1.259,0l0.18,-11.082l0.191,11.082l0.235,0l0.2,-11.082l0.217,0l0.19,11.082l0.208,-11.082l1.313,0l0.172,-11.081l1.286,0l0.163,-11.082l0.217,11.082l0.245,-11.082l0.199,11.082l0.181,0l0.19,-11.082l0.76,0l0.254,-11.082l0.19,11.082l0.426,0l0.181,-11.082l0.145,11.082l0.19,0l0.227,-11.082l0.887,0l0.181,-22.164l0.38,0l0.263,11.082l0.172,-22.164l0.208,0l0.2,11.082l0.19,-11.082l0.235,0l0.19,11.082l0.245,-11.082l0.262,11.082l0.217,0l0.182,-11.082l5.287,0l0.172,132.983l75.923,0" stroke="red" fill="none" stroke-linejoin="round" stroke-dasharray="9.25,4" stroke-width="2.5"/>
  </g>
  <path id="svg_83" d="m103.104,307.584l0,-266.112m266.112,266.112l0,-266.112m-266.112,266.112l266.112,0m-266.112,-266.112l266.112,0" stroke="#000" fill="none" stroke-miterlimit="10" stroke-linecap="square" stroke-width="0.8"/>
  <path id="svg_84" fill-opacity="0.8" fill="#fff" d="m110.104,78.816l128.844,0c1.333,0 2,-0.667 2,-2l0,-28.344c0,-1.333 -0.667,-2 -2,-2l-128.844,0c-1.333,0 -2,0.667 -2,2l0,28.344c0,1.333 0.667,2 2,2z"/>
  <path id="svg_85" d="m110.104,78.816l128.844,0c1.333,0 2,-0.667 2,-2l0,-28.344c0,-1.333 -0.667,-2 -2,-2l-128.844,0c-1.333,0 -2,0.667 -2,2l0,28.344c0,1.333 0.667,2 2,2z" stroke-opacity="0.8" stroke="#d5d6d5" fill="none" stroke-miterlimit="10"/>
  <path id="svg_86" d="m112.104,54.566l20,0" stroke="teal" fill="none" stroke-linejoin="round" stroke-linecap="square" stroke-width="2.5"/>
  <use id="svg_87" transform="matrix(10 0 0 -10 140.664 58.196)" xlink:href="#v"/>
  <use id="svg_88" transform="matrix(10 0 0 -10 147.934 58.196)" xlink:href="#w"/>
  <use id="svg_89" transform="matrix(10 0 0 -10 154.334 58.066)" xlink:href="#x"/>
  <use id="svg_90" transform="matrix(10 0 0 -10 158.272 58.066)" xlink:href="#x"/>
  <use id="svg_91" transform="matrix(10 0 0 -10 161.803 58.196)" xlink:href="#h"/>
  <use id="svg_92" transform="matrix(10 0 0 -10 168.313 58.066)" xlink:href="#y"/>
  <use id="svg_93" transform="matrix(10 0 0 -10 174.013 58.066)" xlink:href="#z"/>
  <use id="svg_94" transform="matrix(10 0 0 -10 177.663 58.066)" xlink:href="#i"/>
  <use id="svg_95" transform="matrix(10 0 0 -10 181.383 58.196)" xlink:href="#k"/>
  <use id="svg_96" transform="matrix(10 0 0 -10 186.963 60.136)" xlink:href="#q"/>
  <use id="svg_97" transform="matrix(10 0 0 -10 192.953 58.196)" xlink:href="#h"/>
  <use id="svg_98" transform="matrix(10 0 0 -10 199.103 58.196)" xlink:href="#h"/>
  <use id="svg_99" transform="matrix(10 0 0 -10 205.253 58.196)" xlink:href="#r"/>
  <use id="svg_100" transform="matrix(10 0 0 -10 211.053 58.066)" xlink:href="#i"/>
  <use id="svg_101" transform="matrix(10 0 0 -10 215.093 59.376)" xlink:href="#A"/>
  <use id="svg_102" transform="matrix(10 0 0 -10 218.693 58.196)" xlink:href="#B"/>
  <use id="svg_103" transform="matrix(10 0 0 -10 226.663 58.196)" xlink:href="#p"/>
  <use id="svg_104" transform="matrix(10 0 0 -10 233.153 59.376)" xlink:href="#C"/>
  <path id="svg_105" d="m112.104,69.238l20,0" stroke="red" fill="none" stroke-linejoin="round" stroke-dasharray="9.25,4" stroke-width="2.5"/>
  <use id="svg_106" transform="matrix(10 0 0 -10 141.084 72.738)" xlink:href="#D"/>
  <use id="svg_107" transform="matrix(10 0 0 -10 148.354 72.868)" xlink:href="#h"/>
  <use id="svg_108" transform="matrix(10 0 0 -10 154.494 72.868)" xlink:href="#k"/>
  <use id="svg_109" transform="matrix(10 0 0 -10 160.104 72.738)" xlink:href="#f"/>
  <use id="svg_110" transform="matrix(10 0 0 -10 162.854 72.738)" xlink:href="#x"/>
  <use id="svg_111" transform="matrix(10 0 0 -10 166.385 72.868)" xlink:href="#h"/>
  <use id="svg_112" transform="matrix(10 0 0 -10 172.535 72.868)" xlink:href="#r"/>
  <use id="svg_113" transform="matrix(10 0 0 -10 178.335 72.738)" xlink:href="#i"/>
  <use id="svg_114" transform="matrix(10 0 0 -10 182.055 72.868)" xlink:href="#k"/>
  <use id="svg_115" transform="matrix(10 0 0 -10 187.635 74.808)" xlink:href="#q"/>
  <use id="svg_116" transform="matrix(10 0 0 -10 193.625 72.868)" xlink:href="#h"/>
  <use id="svg_117" transform="matrix(10 0 0 -10 199.775 72.868)" xlink:href="#h"/>
  <use id="svg_118" transform="matrix(10 0 0 -10 205.925 72.868)" xlink:href="#r"/>
  <use id="svg_119" transform="matrix(10 0 0 -10 211.725 72.738)" xlink:href="#i"/>
  <use id="svg_120" transform="matrix(10 0 0 -10 215.765 74.048)" xlink:href="#A"/>
  <use id="svg_121" transform="matrix(10 0 0 -10 219.365 72.868)" xlink:href="#B"/>
  <use id="svg_122" transform="matrix(10 0 0 -10 227.335 72.868)" xlink:href="#p"/>
  <use id="svg_123" transform="matrix(10 0 0 -10 233.825 74.048)" xlink:href="#C"/>
  <use x="-14.888" y="-13.12527" id="svg_124" transform="rotate(-89.0028 79.7609 200.99) matrix(9.45284 0 0 -10.3504 218.07 69.0448)" xlink:href="#p"/>
 </g>
</svg>