<svg xmlns="http://www.w3.org/2000/svg" xmlns:xlink="http://www.w3.org/1999/xlink" width="392" height="396" viewBox="0 0 294 297"><clipPath id="a"><path transform="matrix(1 0 0 -1 -76 305)" d="M0 0h460.8v345.6H0z"/></clipPath><g clip-path="url(#a)"><path d="M-76 305h460.8V-40.6H-76z" fill="#fff"/><path d="M27.104 266.984h266.112V.872H27.104z" fill="#fff"/><path stroke-width=".8" stroke-linejoin="round" fill="none" stroke="#000" d="M36.51 266.984v3.5"/><symbol id="b"><path transform="matrix(.001 0 0 .001 -.066 .013)" d="M318 664c-51 0-89-25-115-75s-38-125-38-225 12-175 38-225 64-75 115-75 89 25 115 75c25 50 38 125 38 225s-13 175-38 225c-26 50-64 75-115 75zm0 78c81 0 143-33 187-97 43-65 65-159 65-281 0-123-22-217-65-281-44-64-106-96-188-96S173 19 130 83 66 241 66 364c0 122 21 216 64 281 43 64 106 97 188 97z"/></symbol><use xlink:href="#b" transform="matrix(10 0 0 -10 33.991 281.708)"/><path stroke-width=".8" stroke-linejoin="round" fill="none" stroke="#000" d="M81.784 266.984v3.5"/><symbol id="c"><path transform="matrix(.001 0 0 .001 -.077 .013)" d="M108 729h387v-83H198V467c14 5 29 9 43 11s29 4 43 4c81 0 145-23 193-67 48-45 72-105 72-181 0-79-25-140-74-183S357-13 269-13c-31 0-62 3-94 7-32 5-64 12-98 23v99c29-16 59-28 91-36 31-8 64-11 99-11 56 0 101 14 134 44 32 30 49 70 49 121 0 50-17 90-49 120-33 30-78 45-134 45-26 0-53-3-79-9s-53-15-80-27v366z"/></symbol><use xlink:href="#c" transform="matrix(10 0 0 -10 79.374 281.708)"/><path stroke-width=".8" stroke-linejoin="round" fill="none" stroke="#000" d="M127.056 266.984v3.5"/><symbol id="d"><path transform="translate(-.11) scale(.001)" d="M124 83h161v556l-175-35v90l174 35h99V83h161V0H124v83z"/></symbol><use xlink:href="#d" transform="matrix(10 0 0 -10 121.797 281.578)"/><use xlink:href="#b" transform="matrix(10 0 0 -10 127.717 281.708)"/><path stroke-width=".8" stroke-linejoin="round" fill="none" stroke="#000" d="M172.33 266.984v3.5"/><use xlink:href="#d" transform="matrix(10 0 0 -10 167.07 281.578)"/><use xlink:href="#c" transform="matrix(10 0 0 -10 173.1 281.708)"/><path stroke-width=".8" stroke-linejoin="round" fill="none" stroke="#000" d="M217.602 266.984v3.5"/><symbol id="e"><path transform="translate(-.073) scale(.001)" d="M192 83h344V0H73v83c37 38 88 90 153 156 64 65 105 107 122 126 32 35 54 65 66 90 12 24 19 49 19 73 0 38-14 70-41 94s-62 37-106 37c-31 0-64-6-98-16-34-11-71-27-110-49v100c40 16 77 28 111 36s66 12 95 12c75 0 135-19 180-57s68-88 68-151c0-30-6-59-17-85-11-27-31-59-61-95-8-10-34-37-78-82S271 164 192 83z"/></symbol><use xlink:href="#e" transform="matrix(10 0 0 -10 211.973 281.578)"/><use xlink:href="#b" transform="matrix(10 0 0 -10 218.263 281.708)"/><path stroke-width=".8" stroke-linejoin="round" fill="none" stroke="#000" d="M262.875 266.984v3.5"/><use xlink:href="#e" transform="matrix(10 0 0 -10 257.246 281.578)"/><use xlink:href="#c" transform="matrix(10 0 0 -10 263.646 281.708)"/><symbol id="f"><path transform="translate(.002) scale(.001)" d="M-2 729h616v-83H355V0h-99v646H-2v83z"/></symbol><symbol id="g"><path transform="translate(-.094) scale(.001)" d="M94 547h90V0H94v547zm0 213h90V646H94v114z"/></symbol><symbol id="h"><path transform="translate(-.091) scale(.001)" d="M520 442c22 40 49 69 80 89 31 19 68 29 111 29 56 0 100-20 131-60s47-97 47-170V0h-90v327c0 52-10 91-28 117-19 25-47 38-85 38-47 0-84-16-111-47s-40-73-40-126V0h-90v327c0 52-10 91-28 117-19 25-48 38-86 38-46 0-83-16-110-47s-40-73-40-126V0H91v547h90v-85c20 33 45 58 74 74 28 16 62 24 102 24s73-10 101-30 48-50 62-88z"/></symbol><symbol id="i"><path transform="matrix(.001 0 0 .001 -.055 .013)" d="M562 296v-44H149c4-62 22-110 56-142 33-32 79-48 139-48 34 0 68 4 100 12s65 21 97 39V28c-32-14-65-25-99-31s-69-10-103-10c-88 0-157 25-208 75S55 181 55 268c0 89 24 160 72 213 48 52 114 79 196 79 74 0 132-24 175-71 42-48 64-112 64-193zm-90 26c-1 49-15 88-41 118-27 29-63 44-107 44-50 0-90-15-120-43s-48-68-52-119h320z"/></symbol><symbol id="k"><path transform="matrix(.001 0 0 .001 -.086 .131)" d="M86 760h207v-70H176V-61h117v-70H86v891z"/></symbol><symbol id="l"><path transform="matrix(.001 0 0 .001 -.054 .013)" d="M443 531v-85c-26 12-52 22-79 29-28 6-56 10-85 10-45 0-79-7-101-21s-33-34-33-61c0-21 8-37 24-49s48-24 96-34l31-7c64-14 109-34 136-58 26-25 40-60 40-104 0-51-20-91-60-120-40-30-96-44-166-44-30 0-60 3-92 8S89 8 54 20v93c33-18 66-31 98-39 32-9 64-13 96-13 42 0 75 7 98 21 22 14 34 35 34 62 0 24-9 43-25 56s-52 26-108 38l-31 7c-56 12-97 30-121 54-25 24-37 57-37 100 0 51 18 91 54 119s88 42 156 42c33 0 64-3 94-8 29-5 56-12 81-21z"/></symbol><symbol id="m"><path transform="matrix(.001 0 0 .001 -.097 .131)" d="M304 760v-891H97v70h117v751H97v70h207z"/></symbol><use xlink:href="#f" transform="matrix(10 0 0 -10 139.757 295.25)"/><use xlink:href="#g" transform="matrix(10 0 0 -10 146.53 295.25)"/><use xlink:href="#h" transform="matrix(10 0 0 -10 149.28 295.25)"/><use xlink:href="#i" transform="matrix(10 0 0 -10 158.66 295.38)"/><use xlink:href="#j" transform="matrix(10 0 0 -10 164.26 295.25)"/><use xlink:href="#k" transform="matrix(10 0 0 -10 168.3 296.56)"/><use xlink:href="#l" transform="matrix(10 0 0 -10 171.88 295.38)"/><use xlink:href="#m" transform="matrix(10 0 0 -10 177.52 296.56)"/><path stroke-width=".8" stroke-linejoin="round" fill="none" stroke="#000" d="M27.104 234.606h-3.5"/><use xlink:href="#d" transform="matrix(10 0 0 -10 14.845 238.403)"/><path stroke-width=".8" stroke-linejoin="round" fill="none" stroke="#000" d="M27.104 190.278h-3.5"/><use xlink:href="#e" transform="matrix(10 0 0 -10 14.475 194.075)"/><path stroke-width=".8" stroke-linejoin="round" fill="none" stroke="#000" d="M27.104 145.95h-3.5"/><symbol id="n"><path transform="matrix(.001 0 0 .001 -.076 .013)" d="M406 393c47-10 84-31 110-63s40-72 40-118c0-72-25-128-74-167-50-39-120-58-211-58-31 0-63 3-95 9-32 5-66 14-100 26v95c27-16 57-28 90-36 32-8 66-12 102-12 62 0 109 12 141 36s49 60 49 107c0 42-15 76-45 100s-72 37-126 37h-85v81h89c48 0 85 9 111 29 26 19 39 47 39 84s-14 66-40 86c-27 20-65 30-114 30-27 0-56-3-87-9s-65-15-102-27v88c37 10 72 18 105 23 32 5 63 8 93 8 74 0 133-17 177-51s66-80 66-138c0-40-12-74-35-102s-56-48-98-58z"/></symbol><use xlink:href="#n" transform="matrix(10 0 0 -10 14.505 149.878)"/><path stroke-width=".8" stroke-linejoin="round" fill="none" stroke="#000" d="M27.104 101.623h-3.5"/><symbol id="o"><path transform="translate(-.049) scale(.001)" d="M378 643 129 254h249v389zm-26 86h124V254h104v-82H476V0h-98v172H49v95l303 462z"/></symbol><use xlink:href="#o" transform="matrix(10 0 0 -10 14.235 105.42)"/><path stroke-width=".8" stroke-linejoin="round" fill="none" stroke="#000" d="M27.104 57.296h-3.5"/><use xlink:href="#c" transform="matrix(10 0 0 -10 14.515 61.222)"/><path stroke-width=".8" stroke-linejoin="round" fill="none" stroke="#000" d="M27.104 12.968h-3.5"/><symbol id="p"><path transform="matrix(.001 0 0 .001 -.07 .013)" d="M330 404c-44 0-79-16-105-46s-39-72-39-124c0-53 13-95 39-125s61-45 105-45 79 15 105 45 39 72 39 125c0 52-13 94-39 124s-61 46-105 46zm196 309v-90c-25 12-50 21-75 27-26 6-51 9-75 9-66 0-116-22-150-66s-54-111-58-199c19 28 43 50 72 65s61 23 96 23c73 0 131-23 173-67s64-105 64-181c0-75-23-135-67-180S403-13 330-13c-84 0-149 32-193 96-45 64-67 158-67 281 0 115 27 207 82 275 54 68 128 103 220 103 24 0 49-3 75-7 25-5 51-12 79-22z"/></symbol><use xlink:href="#p" transform="matrix(10 0 0 -10 14.445 16.895)"/><symbol id="q"><path transform="matrix(.001 0 0 .001 -.066 .013)" d="M535 705v-96c-38 18-73 31-106 40-34 8-66 13-96 13-54 0-96-11-125-31-29-21-43-51-43-89 0-32 9-57 29-73 19-17 56-30 110-40l60-12c73-14 127-39 162-74 35-36 53-83 53-142 0-71-24-124-71-160-48-36-117-54-208-54-35 0-72 4-111 11S110 16 69 32v102c40-23 79-40 117-51 38-12 76-17 114-17 56 0 99 11 130 33 30 22 46 53 46 95 0 36-11 64-33 84s-58 35-108 45l-60 12c-74 14-127 37-160 69-33 31-49 74-49 130 0 64 22 115 68 152 45 37 108 56 188 56 34 0 68-3 104-9 35-6 71-16 109-28z"/></symbol><symbol id="r"><path transform="matrix(.001 0 0 .001 -.091 .207)" d="M181 82v-289H91v754h90v-83c18 32 42 56 71 72s64 24 104 24c66 0 120-27 162-79 41-53 62-122 62-208s-21-156-62-208c-42-52-96-78-162-78-40 0-75 8-104 23s-53 39-71 72zm306 191c0 66-14 117-41 155-28 38-65 57-112 57-48 0-85-19-112-57-28-38-41-89-41-155s13-118 41-156c27-38 64-56 112-56 47 0 84 18 112 56 27 38 41 90 41 156z"/></symbol><symbol id="s"><path transform="matrix(.001 0 0 .001 -.055 .013)" d="M454 464v296h90V0h-90v82c-19-33-43-57-72-72s-63-23-103-23c-66 0-120 26-162 78S55 187 55 273s20 155 62 208c42 52 96 79 162 79 40 0 74-8 103-24s53-40 72-72zM148 273c0-66 13-118 40-156s64-56 112-56 85 18 113 56c27 38 41 90 41 156s-14 117-41 155c-28 38-65 57-113 57s-85-19-112-57-40-89-40-155z"/></symbol><symbol id="t"><path transform="matrix(.001 0 0 .001 0 .092)" d="M254 729h83L83-92H0l254 821z"/></symbol><use xlink:href="#q" transform="matrix(0 -10 -10 0 7.796 163.612)"/><use xlink:href="#r" transform="matrix(0 -10 -10 0 9.736 157.012)"/><use xlink:href="#i" transform="matrix(0 -10 -10 0 7.796 151.022)"/><use xlink:href="#i" transform="matrix(0 -10 -10 0 7.796 144.872)"/><use xlink:href="#s" transform="matrix(0 -10 -10 0 7.796 138.722)"/><use xlink:href="#j" transform="matrix(0 -10 -10 0 7.666 132.922)"/><use xlink:href="#k" transform="matrix(0 -10 -10 0 8.976 128.882)"/><use xlink:href="#h" transform="matrix(0 -10 -10 0 7.666 124.932)"/><use xlink:href="#t" transform="matrix(0 -10 -10 0 8.586 116.102)"/><use xlink:href="#l" transform="scale(10) rotate(-90 6 5.22)"/><use xlink:href="#m" transform="matrix(0 -10 -10 0 8.976 106.552)"/><clipPath id="u"><path transform="matrix(1 0 0 -1 -76 305)" d="M103.104 38.016h266.112v266.112H103.104z"/></clipPath><g clip-path="url(#u)"><path stroke-width="2.5" stroke-linecap="square" stroke-linejoin="round" fill="none" stroke="teal" d="m39.2 254.888.724-11.466 1.259-18.6.253-2.31.471-6.846.725-8.33.262-1.872.29-3.71 1.123-9.764.308-2.933 1.294-7.993.245-.91.299-1.804 1.095-4.284.281-.574.398-1.77.399-1.063.534-1.552.254-.522.271-1.012.589-1.4.525-1.502 2.897-7.153.3-.387.253-.692.869-1.618 1.829-2.31 1.974-1.618.625-.32.307-.236.924-.522 1.775-1.026.38-.187 1.458-.759.552-.236 1.43-.52 2.907-.492 1.802-.268 2.146-.437 4.183-.392.553.017.534.033.552-.017 1.956-.102.552-.084.725-.033 2.209-.119.706.033 5.406-.002.39.085 1.964-.084 1.331.102.851-.001 1.449-.016 1.304.05.833-.051 7.298.221.896-.033 1.811.017 1.83.1.551.135 3.06-.1h.943l.488-.034.562.068.806-.033.679.083h.724l.299.017 2.046-.066.417.015.108-.053.87.238.543-.016 3.278-.133 2.517.217 2.372-.101 1.096-.068.552.002 1.793.034.751.235 1.087-.102h.715l1.621.034.525.134 2.58-.065.137-.071.742.103.426.067.108-.067.978.1.299-.1.362-.034.752-.034.136-.1.199.101.742-.034 1.612-.101.362.032 3.495-.032.48.001.724-.033 4.627-.068.09-.912.155.37.66.338.272.168.725.372 1.44.202.434-.1.851.067.534-.101.154.101.797-.1.163-1.029.254-.39.126-.464.797-1.371.616-1.282 2.508-6.12.906-1.153.651-.298.625.483.127.145.652 2.073.335.954.598 1.46.507 1.938.534 2.066.498 1.205.353.834.272.378.271.817.924 1.545.462.316.833 1.049.76.248.154.048.706 6.947.181-.053.182-.25.38-.928.145-.045.996-.9.416-1.172.833-2.146.245-.083.778-1.94.553 5.239.28-.306.78-1.627.416 3.703.48-.793.407 3.698.924 6.92.443-1.3.399-1.693.407-1.734.824-3.99.652 4.902 1.286-9.064.597 4.013 1.286-10.037 1.512-15.547.444-5.786.444-3.648.606 2.576.335 2.333.76-7.493 1.178-10.725.172.433.208-.01.2-1.166.19-2.662.932-6.862 1.195-11.75.317 1.244 1.023-11.707.462-3.44.987-10.638.453-3.347 1.014-9.396.344-2.534.335-4.693.561-4.843.236-2.473.425 6.715.77 14.232.28 2.164.444 6.704.335 4.58 1.467 15.571 1.078 10.415 1.449 15.311.335 1.85.298 3.24.833 6.714.363 2.293.262 1.029.616 4.024.625 2.8.271 1.922.725 3.855.452 2.075.308 2.118.879 5.676 2.707 16.49.262.843.462 2.311.933 2.868.715 1.58.344.547.562.584.887.441.58-.009.325-.071.906-.577 1.648-2.59.597-1.299.281-1.037.842-2.44 1.168-5.805.743-3.343.443-1.595.254-1.597 2.173-8.167 1.077-4.085 1.132-3.672.507-1.926 1.304-4.4.507-2.018.299-.521.29-.956.335-.825.552-.974.743-.996.534-.468 1.086-.37.68-.105.389.097.18-.032.58.244.498.252.19.008.19.135.227.018.308.223.19-.04.344.203.715.204.97.55.47.441.226.079.127.17.97.517 1.067 1.091.734.713.942.904 2.118 1.488.716.28.244.12 1.105.23 1.91-.137.39-.018 1.231-.31.353-.097.227.1.516-.03.38.103.688.237.543.27.716.439.208.202h.244l.11.202.361.133.897-.11.534.096 1.105.09.353-.042.742.663.534.26 1.268.537.426.157 1.865.9.299.284 2.653 1.28.715-.248.914.114.535-.03 1.349.18.108.127 1.087.22"/></g><clipPath id="v"><path transform="matrix(1 0 0 -1 -76 305)" d="M103.104 38.016h266.112v266.112H103.104z"/></clipPath><g clip-path="url(#v)"><path stroke-width="2.5" stroke-dasharray="9.25,4" stroke-linejoin="round" fill="none" stroke="red" d="M39.2 145.95h137.901l.163-11.081.181 11.082h.163l.154-11.082h.154l.208 11.082.145-11.082h1.087l.308-11.082.19 11.082.262-11.082h1.023l.245-11.082.217 11.082.245-11.082h.778l.19-11.082.154 11.082h.49l.235-11.082.19 11.082.208-11.082h.145l.19 11.082.227-11.082h1.421l.2-11.082h.19l.217 11.082.226-11.082h1.259l.18-11.082.191 11.082h.235l.2-11.082h.217l.19 11.082.208-11.082h1.313l.172-11.081h1.286l.163-11.082.217 11.082.245-11.082.199 11.082h.181l.19-11.082h.76l.254-11.082.19 11.082h.426l.181-11.082.145 11.082h.19l.227-11.082h.887l.181-22.164h.38l.263 11.082.172-22.164h.208l.2 11.082.19-11.082h.235l.19 11.082.245-11.082.262 11.082h.217l.182-11.082h5.287l.172 132.983h75.923"/></g><path stroke-width=".8" stroke-linecap="square" stroke-miterlimit="10" fill="none" stroke="#000" d="M27.104 266.984V.872M293.216 266.984V.872M27.104 266.984h266.112M27.104.872h266.112"/><path d="M34.104 38.216h128.844c1.333 0 2-.667 2-2V7.872c0-1.333-.667-2-2-2H34.104c-1.333 0-2 .667-2 2v28.344c0 1.333.667 2 2 2z" fill="#fff" fill-opacity=".8"/><path stroke-miterlimit="10" fill="none" stroke="#d5d6d5" stroke-opacity=".8" d="M34.104 38.216h128.844c1.333 0 2-.667 2-2V7.872c0-1.333-.667-2-2-2H34.104c-1.333 0-2 .667-2 2v28.344c0 1.333.667 2 2 2z"/><path stroke-width="2.5" stroke-linecap="square" stroke-linejoin="round" fill="none" stroke="teal" d="M36.104 13.966h20"/><symbol id="w"><path transform="matrix(.001 0 0 .001 -.056 .013)" d="M644 673V569c-34 30-69 53-107 69-38 15-77 23-119 23-84 0-148-26-192-77s-66-124-66-220 22-170 66-221 108-76 192-76c42 0 81 7 119 23 38 15 73 38 107 69V56c-35-24-72-41-110-52s-79-17-122-17C302-13 215 20 151 87S56 246 56 364c0 117 31 209 95 277 64 67 151 101 261 101 44 0 85-6 123-17 38-12 75-29 109-52z"/></symbol><symbol id="x"><path transform="matrix(.001 0 0 .001 -.085 .013)" d="M85 216v331h90V219c0-52 10-90 30-116s50-39 91-39c48 0 87 15 115 46s42 73 42 127v310h90V0h-90v84c-22-34-48-58-76-74-29-15-62-23-100-23-63 0-111 19-143 58-33 38-49 95-49 171zm226 344z"/></symbol><symbol id="y"><path transform="translate(-.091) scale(.001)" d="M411 463c-10 6-21 10-33 13-12 2-25 4-39 4-51 0-90-17-117-50-28-33-41-80-41-142V0H91v547h90v-85c18 33 43 58 73 74s67 24 111 24c6 0 13-1 21-1 7-1 15-2 25-4v-92z"/></symbol><symbol id="z"><path transform="translate(-.091) scale(.001)" d="M549 330V0h-90v327c0 52-11 90-31 116s-50 39-90 39c-49 0-87-16-115-47s-42-73-42-126V0H91v547h90v-85c21 32 46 57 76 73 29 16 63 25 101 25 62 0 110-20 142-59s49-96 49-171z"/></symbol><symbol id="A"><path transform="translate(-.027) scale(.001)" d="M183 702V547h185v-70H183V180c0-45 6-74 18-86 12-13 37-19 75-19h92V0h-92c-70 0-118 13-144 39s-39 73-39 141v297H27v70h66v155h90z"/></symbol><symbol id="B"><path transform="matrix(.001 0 0 .001 -.086 .131)" d="M310 759c-44-76-76-150-97-223-22-73-32-147-32-222 0-76 10-150 32-223 21-74 53-147 97-222h-78C183-54 146 20 122 94S86 241 86 314c0 72 12 145 36 219s60 149 110 226h78z"/></symbol><symbol id="C"><path transform="matrix(.001 0 0 .001 -.056 .013)" d="M394 662c-72 0-129-27-171-80-42-54-63-126-63-218s21-165 63-218c42-54 99-80 171-80 71 0 128 26 170 80 42 53 63 126 63 218s-21 164-63 218c-42 53-99 80-170 80zm0 80c102 0 183-35 245-103 61-68 92-160 92-275 0-116-31-207-92-275C577 21 496-13 394-13 291-13 209 21 148 89c-62 68-92 159-92 275 0 115 30 207 92 275 61 68 143 103 246 103z"/></symbol><symbol id="D"><path transform="matrix(.001 0 0 .001 -.08 .131)" d="M80 759h78c48-77 85-152 109-226s37-147 37-219c0-73-13-146-37-220S206-54 158-131H80c43 75 75 148 97 222 21 73 32 147 32 223 0 75-11 149-32 222-22 73-54 147-97 223z"/></symbol><use xlink:href="#w" transform="matrix(10 0 0 -10 64.664 17.596)"/><use xlink:href="#x" transform="matrix(10 0 0 -10 71.934 17.596)"/><use xlink:href="#y" transform="matrix(10 0 0 -10 78.334 17.466)"/><use xlink:href="#y" transform="matrix(10 0 0 -10 82.272 17.466)"/><use xlink:href="#i" transform="matrix(10 0 0 -10 85.803 17.596)"/><use xlink:href="#z" transform="matrix(10 0 0 -10 92.313 17.466)"/><use xlink:href="#A" transform="matrix(10 0 0 -10 98.013 17.466)"/><use xlink:href="#j" transform="matrix(10 0 0 -10 101.663 17.466)"/><use xlink:href="#l" transform="matrix(10 0 0 -10 105.383 17.596)"/><use xlink:href="#r" transform="matrix(10 0 0 -10 110.963 19.536)"/><use xlink:href="#i" transform="matrix(10 0 0 -10 116.953 17.596)"/><use xlink:href="#i" transform="matrix(10 0 0 -10 123.103 17.596)"/><use xlink:href="#s" transform="matrix(10 0 0 -10 129.253 17.596)"/><use xlink:href="#j" transform="matrix(10 0 0 -10 135.053 17.466)"/><use xlink:href="#B" transform="matrix(10 0 0 -10 139.093 18.776)"/><use xlink:href="#C" transform="matrix(10 0 0 -10 142.693 17.596)"/><use xlink:href="#q" transform="matrix(10 0 0 -10 150.663 17.596)"/><use xlink:href="#D" transform="matrix(10 0 0 -10 157.153 18.776)"/><path stroke-width="2.5" stroke-dasharray="9.25,4" stroke-linejoin="round" fill="none" stroke="red" d="M36.104 28.638h20"/><symbol id="E"><path transform="translate(-.098) scale(.001)" d="M197 648V81h119c100 0 174 22 221 68 46 46 70 118 70 216s-24 169-70 215c-47 45-121 68-221 68H197zm-99 81h203c141 0 245-30 311-88 66-59 99-151 99-276 0-126-34-218-100-277S441 0 301 0H98v729z"/></symbol><use xlink:href="#E" transform="matrix(10 0 0 -10 65.084 32.138)"/><use xlink:href="#i" transform="matrix(10 0 0 -10 72.354 32.268)"/><use xlink:href="#l" transform="matrix(10 0 0 -10 78.494 32.268)"/><use xlink:href="#g" transform="matrix(10 0 0 -10 84.104 32.138)"/><use xlink:href="#y" transform="matrix(10 0 0 -10 86.854 32.138)"/><use xlink:href="#i" transform="matrix(10 0 0 -10 90.385 32.268)"/><use xlink:href="#s" transform="matrix(10 0 0 -10 96.535 32.268)"/><use xlink:href="#j" transform="matrix(10 0 0 -10 102.335 32.138)"/><use xlink:href="#l" transform="matrix(10 0 0 -10 106.055 32.268)"/><use xlink:href="#r" transform="matrix(10 0 0 -10 111.635 34.208)"/><use xlink:href="#i" transform="matrix(10 0 0 -10 117.625 32.268)"/><use xlink:href="#i" transform="matrix(10 0 0 -10 123.775 32.268)"/><use xlink:href="#s" transform="matrix(10 0 0 -10 129.925 32.268)"/><use xlink:href="#j" transform="matrix(10 0 0 -10 135.725 32.138)"/><use xlink:href="#B" transform="matrix(10 0 0 -10 139.765 33.448)"/><use xlink:href="#C" transform="matrix(10 0 0 -10 143.365 32.268)"/><use xlink:href="#q" transform="matrix(10 0 0 -10 151.335 32.268)"/><use xlink:href="#D" transform="matrix(10 0 0 -10 157.825 33.448)"/></g></svg>