<svg width="460.8" height="345.6" xmlns="http://www.w3.org/2000/svg" xmlns:xlink="http://www.w3.org/1999/xlink">

 <symbol id="a">
  <path id="svg_1" d="m0.252,0.677c-0.051,0 -0.089,-0.025 -0.115,-0.075s-0.038,-0.125 -0.038,-0.225s0.012,-0.175 0.038,-0.225s0.064,-0.075 0.115,-0.075s0.089,0.025 0.115,0.075c0.025,0.05 0.038,0.125 0.038,0.225s-0.013,0.175 -0.038,0.225c-0.026,0.05 -0.064,0.075 -0.115,0.075zm0,0.078c0.081,0 0.143,-0.033 0.187,-0.097c0.043,-0.065 0.065,-0.159 0.065,-0.281c0,-0.123 -0.022,-0.217 -0.065,-0.281c-0.044,-0.064 -0.106,-0.096 -0.188,-0.096s-0.144,0.032 -0.187,0.096s-0.064,0.158 -0.064,0.281c0,0.122 0.021,0.216 0.064,0.281c0.043,0.064 0.106,0.097 0.188,0.097z"/>
 </symbol>
 <symbol id="b">
  <path id="svg_2" d="m124,83l161,0l0,556l-175,-35l0,90l174,35l99,0l0,-646l161,0l0,-83l-420,0l0,83z" transform="translate(-.11) scale(.001)"/>
 </symbol>
 <symbol id="c">
  <path id="svg_3" d="m192,83l344,0l0,-83l-463,0l0,83c37,38 88,90 153,156c64,65 105,107 122,126c32,35 54,65 66,90c12,24 19,49 19,73c0,38 -14,70 -41,94s-62,37 -106,37c-31,0 -64,-6 -98,-16c-34,-11 -71,-27 -110,-49l0,100c40,16 77,28 111,36s66,12 95,12c75,0 135,-19 180,-57s68,-88 68,-151c0,-30 -6,-59 -17,-85c-11,-27 -31,-59 -61,-95c-8,-10 -34,-37 -78,-82s-105,-108 -184,-189z" transform="translate(-.073) scale(.001)"/>
 </symbol>
 <symbol id="d">
  <path id="svg_4" d="m0.33,0.406c0.047,-0.01 0.084,-0.031 0.11,-0.063s0.04,-0.072 0.04,-0.118c0,-0.072 -0.025,-0.128 -0.074,-0.167c-0.05,-0.039 -0.12,-0.058 -0.211,-0.058c-0.031,0 -0.063,0.003 -0.095,0.009c-0.032,0.005 -0.066,0.014 -0.1,0.026l0,0.095c0.027,-0.016 0.057,-0.028 0.09,-0.036c0.032,-0.008 0.066,-0.012 0.102,-0.012c0.062,0 0.109,0.012 0.141,0.036s0.049,0.06 0.049,0.107c0,0.042 -0.015,0.076 -0.045,0.1s-0.072,0.037 -0.126,0.037l-0.085,0l0,0.081l0.089,0c0.048,0 0.085,0.009 0.111,0.029c0.026,0.019 0.039,0.047 0.039,0.084s-0.014,0.066 -0.04,0.086c-0.027,0.02 -0.065,0.03 -0.114,0.03c-0.027,0 -0.056,-0.003 -0.087,-0.009s-0.065,-0.015 -0.102,-0.027l0,0.088c0.037,0.01 0.072,0.018 0.105,0.023c0.032,0.005 0.063,0.008 0.093,0.008c0.074,0 0.133,-0.017 0.177,-0.051s0.066,-0.08 0.066,-0.138c0,-0.04 -0.012,-0.074 -0.035,-0.102s-0.056,-0.048 -0.098,-0.058z"/>
 </symbol>
 <symbol id="e">
  <path id="svg_5" d="m378,643l-249,-389l249,0l0,389zm-26,86l124,0l0,-475l104,0l0,-82l-104,0l0,-172l-98,0l0,172l-329,0l0,95l303,462z" transform="translate(-.049) scale(.001)"/>
 </symbol>
 <symbol id="f">
  <path id="svg_6" d="m0.031,0.742l0.387,0l0,-0.083l-0.297,0l0,-0.179c0.014,0.005 0.029,0.009 0.043,0.011s0.029,0.004 0.043,0.004c0.081,0 0.145,-0.023 0.193,-0.067c0.048,-0.045 0.072,-0.105 0.072,-0.181c0,-0.079 -0.025,-0.14 -0.074,-0.183s-0.118,-0.064 -0.206,-0.064c-0.031,0 -0.062,0.003 -0.094,0.007c-0.032,0.005 -0.064,0.012 -0.098,0.023l0,0.099c0.029,-0.016 0.059,-0.028 0.091,-0.036c0.031,-0.008 0.064,-0.011 0.099,-0.011c0.056,0 0.101,0.014 0.134,0.044c0.032,0.03 0.049,0.07 0.049,0.121c0,0.05 -0.017,0.09 -0.049,0.12c-0.033,0.03 -0.078,0.045 -0.134,0.045c-0.026,0 -0.053,-0.003 -0.079,-0.009s-0.053,-0.015 -0.08,-0.027l0,0.366z"/>
 </symbol>
 <symbol id="g">
  <path id="svg_7" d="m-2,729l616,0l0,-83l-259,0l0,-646l-99,0l0,646l-258,0l0,83z" transform="translate(.002) scale(.001)"/>
 </symbol>
 <symbol id="h">
  <path id="svg_8" d="m94,547l90,0l0,-547l-90,0l0,547zm0,213l90,0l0,-114l-90,0l0,114z" transform="translate(-.094) scale(.001)"/>
 </symbol>
 <symbol id="i">
  <path id="svg_9" d="m520,442c22,40 49,69 80,89c31,19 68,29 111,29c56,0 100,-20 131,-60s47,-97 47,-170l0,-330l-90,0l0,327c0,52 -10,91 -28,117c-19,25 -47,38 -85,38c-47,0 -84,-16 -111,-47s-40,-73 -40,-126l0,-309l-90,0l0,327c0,52 -10,91 -28,117c-19,25 -48,38 -86,38c-46,0 -83,-16 -110,-47s-40,-73 -40,-126l0,-309l-90,0l0,547l90,0l0,-85c20,33 45,58 74,74c28,16 62,24 102,24s73,-10 101,-30s48,-50 62,-88z" transform="translate(-.091) scale(.001)"/>
 </symbol>
 <symbol id="j">
  <path id="svg_10" d="m0.507,0.309l0,-0.044l-0.413,0c0.004,-0.062 0.022,-0.11 0.056,-0.142c0.033,-0.032 0.079,-0.048 0.139,-0.048c0.034,0 0.068,0.004 0.1,0.012s0.065,0.021 0.097,0.039l0,-0.085c-0.032,-0.014 -0.065,-0.025 -0.099,-0.031s-0.069,-0.01 -0.103,-0.01c-0.088,0 -0.157,0.025 -0.208,0.075s-0.076,0.119 -0.076,0.206c0,0.089 0.024,0.16 0.072,0.213c0.048,0.052 0.114,0.079 0.196,0.079c0.074,0 0.132,-0.024 0.175,-0.071c0.042,-0.048 0.064,-0.112 0.064,-0.193zm-0.09,0.026c-0.001,0.049 -0.015,0.088 -0.041,0.118c-0.027,0.029 -0.063,0.044 -0.107,0.044c-0.05,0 -0.09,-0.015 -0.12,-0.043s-0.048,-0.068 -0.052,-0.119l0.32,0z"/>
 </symbol>
 <symbol id="l">
  <path id="svg_11" d="m0,0.891l0.207,0l0,-0.07l-0.117,0l0,-0.751l0.117,0l0,-0.07l-0.207,0l0,0.891z"/>
 </symbol>
 <symbol id="m">
  <path id="svg_12" d="m0.389,0.544l0,-0.085c-0.026,0.012 -0.052,0.022 -0.079,0.029c-0.028,0.006 -0.056,0.01 -0.085,0.01c-0.045,0 -0.079,-0.007 -0.101,-0.021s-0.033,-0.034 -0.033,-0.061c0,-0.021 0.008,-0.037 0.024,-0.049s0.048,-0.024 0.096,-0.034l0.031,-0.007c0.064,-0.014 0.109,-0.034 0.136,-0.058c0.026,-0.025 0.04,-0.06 0.04,-0.104c0,-0.051 -0.02,-0.091 -0.06,-0.12c-0.04,-0.03 -0.096,-0.044 -0.166,-0.044c-0.03,0 -0.06,0.003 -0.092,0.008s-0.065,0.013 -0.1,0.025l0,0.093c0.033,-0.018 0.066,-0.031 0.098,-0.039c0.032,-0.009 0.064,-0.013 0.096,-0.013c0.042,0 0.075,0.007 0.098,0.021c0.022,0.014 0.034,0.035 0.034,0.062c0,0.024 -0.009,0.043 -0.025,0.056s-0.052,0.026 -0.108,0.038l-0.031,0.007c-0.056,0.012 -0.097,0.03 -0.121,0.054c-0.025,0.024 -0.037,0.057 -0.037,0.1c0,0.051 0.018,0.091 0.054,0.119s0.088,0.042 0.156,0.042c0.033,0 0.064,-0.003 0.094,-0.008c0.029,-0.005 0.056,-0.012 0.081,-0.021z"/>
 </symbol>
 <symbol id="n">
  <path id="svg_13" d="m0.207,0.891l0,-0.891l-0.207,0l0,0.07l0.117,0l0,0.751l-0.117,0l0,0.07l0.207,0z"/>
 </symbol>
 <symbol id="o">
  <path id="svg_14" d="m82,729l469,0l0,-42l-265,-687l-103,0l249,646l-350,0l0,83z" transform="translate(-.082) scale(.001)"/>
 </symbol>
 <symbol id="p">
  <path id="svg_15" d="m0.25,0.359c-0.047,0 -0.084,-0.013 -0.111,-0.038s-0.04,-0.059 -0.04,-0.103s0.013,-0.079 0.04,-0.104s0.064,-0.037 0.111,-0.037c0.046,0 0.083,0.012 0.11,0.038c0.027,0.025 0.041,0.059 0.041,0.103s-0.014,0.078 -0.04,0.103c-0.027,0.025 -0.064,0.038 -0.111,0.038zm-0.099,0.042c-0.042,0.01 -0.075,0.03 -0.099,0.059s-0.035,0.064 -0.035,0.106c0,0.058 0.02,0.104 0.062,0.138c0.041,0.034 0.098,0.051 0.171,0.051c0.072,0 0.129,-0.017 0.171,-0.051c0.041,-0.034 0.062,-0.08 0.062,-0.138c0,-0.042 -0.012,-0.077 -0.036,-0.106s-0.056,-0.049 -0.098,-0.059c0.047,-0.011 0.084,-0.033 0.111,-0.065c0.026,-0.032 0.04,-0.072 0.04,-0.118c0,-0.071 -0.022,-0.125 -0.065,-0.162c-0.044,-0.038 -0.106,-0.056 -0.186,-0.056s-0.142,0.018 -0.185,0.056c-0.043,0.037 -0.064,0.091 -0.064,0.162c0,0.046 0.013,0.086 0.04,0.118c0.026,0.032 0.063,0.054 0.111,0.065zm-0.036,0.156c0,-0.038 0.011,-0.068 0.035,-0.089s0.057,-0.031 0.1,-0.031c0.042,0 0.075,0.01 0.099,0.031s0.036,0.051 0.036,0.089s-0.012,0.067 -0.036,0.088s-0.057,0.032 -0.099,0.032c-0.043,0 -0.076,-0.011 -0.1,-0.032s-0.035,-0.05 -0.035,-0.088z"/>
 </symbol>
 <symbol id="q">
  <path id="svg_16" d="m0.047,0.028l0,0.09c0.024,-0.012 0.049,-0.021 0.075,-0.027c0.025,-0.006 0.05,-0.009 0.075,-0.009c0.064,0 0.114,0.021 0.148,0.065s0.054,0.11 0.06,0.2c-0.02,-0.028 -0.044,-0.05 -0.072,-0.065c-0.029,-0.015 -0.061,-0.022 -0.096,-0.022c-0.074,0 -0.132,0.022 -0.174,0.066s-0.063,0.104 -0.063,0.181c0,0.074 0.022,0.134 0.066,0.18c0.044,0.045 0.103,0.068 0.177,0.068c0.084,0 0.149,-0.033 0.193,-0.097c0.044,-0.065 0.067,-0.159 0.067,-0.281c0,-0.116 -0.028,-0.207 -0.082,-0.275c-0.055,-0.068 -0.128,-0.102 -0.22,-0.102c-0.025,0 -0.05,0.003 -0.075,0.007c-0.026,0.004 -0.052,0.011 -0.079,0.021zm0.196,0.309c0.044,0 0.079,0.015 0.105,0.045s0.039,0.072 0.039,0.125c0,0.052 -0.013,0.094 -0.039,0.124s-0.061,0.046 -0.105,0.046s-0.079,-0.016 -0.105,-0.046s-0.039,-0.072 -0.039,-0.124c0,-0.053 0.013,-0.095 0.039,-0.125s0.061,-0.045 0.105,-0.045z"/>
 </symbol>
 <symbol id="r">
  <path id="svg_17" d="m0.338,0.675c-0.072,0 -0.129,-0.027 -0.171,-0.08c-0.042,-0.054 -0.063,-0.126 -0.063,-0.218s0.021,-0.165 0.063,-0.218c0.042,-0.054 0.099,-0.08 0.171,-0.08c0.071,0 0.128,0.026 0.17,0.08c0.042,0.053 0.063,0.126 0.063,0.218s-0.021,0.164 -0.063,0.218c-0.042,0.053 -0.099,0.08 -0.17,0.08zm0,0.08c0.102,0 0.183,-0.035 0.245,-0.103c0.061,-0.068 0.092,-0.16 0.092,-0.275c0,-0.116 -0.031,-0.207 -0.092,-0.275c-0.062,-0.068 -0.143,-0.102 -0.245,-0.102c-0.103,0 -0.185,0.034 -0.246,0.102c-0.062,0.068 -0.092,0.159 -0.092,0.275c0,0.115 0.03,0.207 0.092,0.275c0.061,0.068 0.143,0.103 0.246,0.103z"/>
 </symbol>
 <symbol id="s">
  <path id="svg_18" d="m411,463c-10,6 -21,10 -33,13c-12,2 -25,4 -39,4c-51,0 -90,-17 -117,-50c-28,-33 -41,-80 -41,-142l0,-288l-90,0l0,547l90,0l0,-85c18,33 43,58 73,74s67,24 111,24c6,0 13,-1 21,-1c7,-1 15,-2 25,-4l0,-92z" transform="translate(-.091) scale(.001)"/>
 </symbol>
 <symbol id="t">
  <path id="svg_19" d="m183,702l0,-155l185,0l0,-70l-185,0l0,-297c0,-45 6,-74 18,-86c12,-13 37,-19 75,-19l92,0l0,-75l-92,0c-70,0 -118,13 -144,39s-39,73 -39,141l0,297l-66,0l0,70l66,0l0,155l90,0z" transform="translate(-.027) scale(.001)"/>
 </symbol>
 <symbol id="u">
  <path id="svg_20" d="m549,330l0,-330l-90,0l0,327c0,52 -11,90 -31,116s-50,39 -90,39c-49,0 -87,-16 -115,-47s-42,-73 -42,-126l0,-309l-90,0l0,547l90,0l0,-85c21,32 46,57 76,73c29,16 63,25 101,25c62,0 110,-20 142,-59s49,-96 49,-171z" transform="translate(-.091) scale(.001)"/>
 </symbol>
 <symbol id="v">
  <path id="svg_21" d="m0.283,0.288c-0.073,0 -0.123,-0.009 -0.151,-0.025c-0.028,-0.017 -0.042,-0.045 -0.042,-0.085c0,-0.032 0.01,-0.058 0.031,-0.076c0.021,-0.019 0.05,-0.028 0.086,-0.028c0.05,0 0.09,0.017 0.12,0.053c0.03,0.035 0.045,0.082 0.045,0.141l0,0.02l-0.089,0zm0.179,0.037l0,-0.312l-0.09,0l0,0.083c-0.021,-0.034 -0.047,-0.058 -0.077,-0.073s-0.068,-0.023 -0.112,-0.023c-0.056,0 -0.101,0.015 -0.134,0.046s-0.049,0.073 -0.049,0.126c0,0.061 0.02,0.107 0.062,0.139c0.041,0.031 0.102,0.047 0.184,0.047l0.126,0l0,0.009c0,0.041 -0.014,0.073 -0.041,0.096c-0.027,0.022 -0.065,0.034 -0.114,0.034c-0.032,0 -0.062,-0.004 -0.092,-0.012s-0.058,-0.019 -0.085,-0.033l0,0.083c0.032,0.012 0.064,0.022 0.095,0.028s0.061,0.01 0.091,0.01c0.079,0 0.138,-0.021 0.177,-0.062s0.059,-0.103 0.059,-0.186z"/>
 </symbol>
 <symbol id="w">
  <path id="svg_22" d="m0.251,0.497c-0.048,0 -0.086,-0.019 -0.114,-0.057s-0.042,-0.089 -0.042,-0.154c0,-0.066 0.013,-0.117 0.041,-0.155s0.066,-0.056 0.115,-0.056c0.048,0 0.086,0.018 0.114,0.056s0.042,0.089 0.042,0.155c0,0.064 -0.014,0.116 -0.042,0.154s-0.066,0.057 -0.114,0.057zm0,0.076c0.078,0 0.139,-0.026 0.184,-0.076c0.044,-0.051 0.067,-0.121 0.067,-0.211s-0.023,-0.16 -0.067,-0.21c-0.045,-0.051 -0.106,-0.076 -0.184,-0.076c-0.079,0 -0.141,0.025 -0.185,0.076c-0.044,0.05 -0.066,0.12 -0.066,0.21s0.022,0.16 0.066,0.211c0.044,0.05 0.106,0.076 0.185,0.076z"/>
 </symbol>
 <symbol id="x">
  <path id="svg_23" d="m0.155,0.247c-0.026,0 -0.048,-0.009 -0.066,-0.027s-0.027,-0.04 -0.027,-0.066s0.009,-0.048 0.027,-0.066s0.04,-0.026 0.066,-0.026s0.048,0.008 0.066,0.026s0.027,0.04 0.027,0.066s-0.009,0.048 -0.027,0.066s-0.04,0.027 -0.066,0.027zm0,0.063c0.02,0 0.04,-0.004 0.06,-0.012c0.019,-0.008 0.036,-0.02 0.05,-0.034c0.014,-0.015 0.025,-0.032 0.033,-0.05c0.008,-0.019 0.012,-0.039 0.012,-0.06c0,-0.044 -0.016,-0.08 -0.046,-0.11s-0.067,-0.044 -0.11,-0.044c-0.044,0 -0.081,0.014 -0.11,0.044c-0.03,0.029 -0.044,0.066 -0.044,0.11c0,0.043 0.015,0.08 0.045,0.11s0.066,0.046 0.11,0.046z"/>
 </symbol>
 <clipPath id="y">
  <path id="svg_24" d="m103.104,307.58401l266.112,0l0,-266.112l-266.112,0l0,266.112z"/>
 </clipPath>
 <clipPath id="z">
  <path id="svg_25" d="m103.104,307.58401l266.112,0l0,-266.112l-266.112,0l0,266.112z"/>
 </clipPath>
 <symbol id="A">
  <path id="svg_26" d="m0.588,0.686l0,-0.104c-0.034,0.03 -0.069,0.053 -0.107,0.069c-0.038,0.015 -0.077,0.023 -0.119,0.023c-0.084,0 -0.148,-0.026 -0.192,-0.077s-0.066,-0.124 -0.066,-0.22s0.022,-0.17 0.066,-0.221s0.108,-0.076 0.192,-0.076c0.042,0 0.081,0.007 0.119,0.023c0.038,0.015 0.073,0.038 0.107,0.069l0,-0.103c-0.035,-0.024 -0.072,-0.041 -0.11,-0.052s-0.079,-0.017 -0.122,-0.017c-0.11,0 -0.197,0.033 -0.261,0.1s-0.095,0.159 -0.095,0.277c0,0.117 0.031,0.209 0.095,0.277c0.064,0.067 0.151,0.101 0.261,0.101c0.044,0 0.085,-0.006 0.123,-0.017c0.038,-0.012 0.075,-0.029 0.109,-0.052z"/>
 </symbol>
 <symbol id="B">
  <path id="svg_27" d="m0,0.229l0,0.331l0.09,0l0,-0.328c0,-0.052 0.01,-0.09 0.03,-0.116s0.05,-0.039 0.091,-0.039c0.048,0 0.087,0.015 0.115,0.046s0.042,0.073 0.042,0.127l0,0.31l0.09,0l0,-0.547l-0.09,0l0,0.084c-0.022,-0.034 -0.048,-0.058 -0.076,-0.074c-0.029,-0.015 -0.062,-0.023 -0.1,-0.023c-0.063,0 -0.111,0.019 -0.143,0.058c-0.033,0.038 -0.049,0.095 -0.049,0.171zm0.226,0.344z"/>
 </symbol>
 <symbol id="C">
  <path id="svg_28" d="m0.224,0.89c-0.044,-0.076 -0.076,-0.15 -0.097,-0.223c-0.022,-0.073 -0.032,-0.147 -0.032,-0.222c0,-0.076 0.01,-0.15 0.032,-0.223c0.021,-0.074 0.053,-0.147 0.097,-0.222l-0.078,0c-0.049,0.077 -0.086,0.151 -0.11,0.225s-0.036,0.147 -0.036,0.22c0,0.072 0.012,0.145 0.036,0.219s0.06,0.149 0.11,0.226l0.078,0z"/>
 </symbol>
 <symbol id="D">
  <path id="svg_29" d="m0.469,0.718l0,-0.096c-0.038,0.018 -0.073,0.031 -0.106,0.04c-0.034,0.008 -0.066,0.013 -0.096,0.013c-0.054,0 -0.096,-0.011 -0.125,-0.031c-0.029,-0.021 -0.043,-0.051 -0.043,-0.089c0,-0.032 0.009,-0.057 0.029,-0.073c0.019,-0.017 0.056,-0.03 0.11,-0.04l0.06,-0.012c0.073,-0.014 0.127,-0.039 0.162,-0.074c0.035,-0.036 0.053,-0.083 0.053,-0.142c0,-0.071 -0.024,-0.124 -0.071,-0.16c-0.048,-0.036 -0.117,-0.054 -0.208,-0.054c-0.035,0 -0.072,0.004 -0.111,0.011s-0.079,0.018 -0.12,0.034l0,0.102c0.04,-0.023 0.079,-0.04 0.117,-0.051c0.038,-0.012 0.076,-0.017 0.114,-0.017c0.056,0 0.099,0.011 0.13,0.033c0.03,0.022 0.046,0.053 0.046,0.095c0,0.036 -0.011,0.064 -0.033,0.084s-0.058,0.035 -0.108,0.045l-0.06,0.012c-0.074,0.014 -0.127,0.037 -0.16,0.069c-0.033,0.031 -0.049,0.074 -0.049,0.13c0,0.064 0.022,0.115 0.068,0.152c0.045,0.037 0.108,0.056 0.188,0.056c0.034,0 0.068,-0.003 0.104,-0.009c0.035,-0.006 0.071,-0.016 0.109,-0.028z"/>
 </symbol>
 <symbol id="E">
  <path id="svg_30" d="m0,0.89l0.078,0c0.048,-0.077 0.085,-0.152 0.109,-0.226s0.037,-0.147 0.037,-0.219c0,-0.073 -0.013,-0.146 -0.037,-0.22s-0.061,-0.148 -0.109,-0.225l-0.078,0c0.043,0.075 0.075,0.148 0.097,0.222c0.021,0.073 0.032,0.147 0.032,0.223c0,0.075 -0.011,0.149 -0.032,0.222c-0.022,0.073 -0.054,0.147 -0.097,0.223z"/>
 </symbol>
 <symbol id="F">
  <path id="svg_31" d="m197,648l0,-567l119,0c100,0 174,22 221,68c46,46 70,118 70,216s-24,169 -70,215c-47,45 -121,68 -221,68l-119,0zm-99,81l203,0c141,0 245,-30 311,-88c66,-59 99,-151 99,-276c0,-126 -34,-218 -100,-277s-170,-88 -310,-88l-203,0l0,729z" transform="translate(-.098) scale(.001)"/>
 </symbol>
 <symbol id="G">
  <path id="svg_32" d="m0.399,0.477l0,0.296l0.09,0l0,-0.76l-0.09,0l0,0.082c-0.019,-0.033 -0.043,-0.057 -0.072,-0.072s-0.063,-0.023 -0.103,-0.023c-0.066,0 -0.12,0.026 -0.162,0.078s-0.062,0.122 -0.062,0.208s0.02,0.155 0.062,0.208c0.042,0.052 0.096,0.079 0.162,0.079c0.04,0 0.074,-0.008 0.103,-0.024s0.053,-0.04 0.072,-0.072zm-0.306,-0.191c0,-0.066 0.013,-0.118 0.04,-0.156s0.064,-0.056 0.112,-0.056s0.085,0.018 0.113,0.056c0.027,0.038 0.041,0.09 0.041,0.156s-0.014,0.117 -0.041,0.155c-0.028,0.038 -0.065,0.057 -0.113,0.057s-0.085,-0.019 -0.112,-0.057s-0.04,-0.089 -0.04,-0.155z"/>
 </symbol>
 <g>
  <title>Layer 1</title>
  <path id="svg_33" fill="#fff" d="m0,345.6l460.8,0l0,-345.6l-460.8,0l0,345.6z"/>
  <path id="svg_34" fill="#fff" d="m103.104,307.584l266.112,0l0,-266.112l-266.112,0l0,266.112z"/>
  <path id="svg_35" d="m113.698,307.584l0,3.5" stroke="#000" fill="none" stroke-linejoin="round" stroke-width="0.8"/>
  <use id="svg_36" transform="matrix(10 0 0 -10 111.179 322.308)" xlink:href="#a"/>
  <path id="svg_37" d="m160.474,307.584l0,3.5" stroke="#000" fill="none" stroke-linejoin="round" stroke-width="0.8"/>
  <use id="svg_38" transform="matrix(10 0 0 -10 155.215 322.178)" xlink:href="#b"/>
  <use id="svg_39" transform="matrix(10 0 0 -10 161.135 322.308)" xlink:href="#a"/>
  <path id="svg_40" d="m207.25,307.584l0,3.5" stroke="#000" fill="none" stroke-linejoin="round" stroke-width="0.8"/>
  <use id="svg_41" transform="matrix(10 0 0 -10 201.62 322.178)" xlink:href="#c"/>
  <use id="svg_42" transform="matrix(10 0 0 -10 207.91 322.308)" xlink:href="#a"/>
  <path id="svg_43" d="m254.026,307.584l0,3.5" stroke="#000" fill="none" stroke-linejoin="round" stroke-width="0.8"/>
  <use id="svg_44" transform="matrix(10 0 0 -10 248.427 322.308)" xlink:href="#d"/>
  <use id="svg_45" transform="matrix(10 0 0 -10 254.687 322.308)" xlink:href="#a"/>
  <path id="svg_46" d="m300.802,307.584l0,3.5" stroke="#000" fill="none" stroke-linejoin="round" stroke-width="0.8"/>
  <use id="svg_47" transform="matrix(10 0 0 -10 294.933 322.178)" xlink:href="#e"/>
  <use id="svg_48" transform="matrix(10 0 0 -10 301.462 322.308)" xlink:href="#a"/>
  <path id="svg_49" d="m347.578,307.584l0,3.5" stroke="#000" fill="none" stroke-linejoin="round" stroke-width="0.8"/>
  <use id="svg_50" transform="matrix(10 0 0 -10 341.988 322.308)" xlink:href="#f"/>
  <use id="svg_51" transform="matrix(10 0 0 -10 348.238 322.308)" xlink:href="#a"/>
  <use id="svg_52" transform="matrix(10 0 0 -10 215.757 335.85)" xlink:href="#g"/>
  <use id="svg_53" transform="matrix(10 0 0 -10 222.53 335.85)" xlink:href="#h"/>
  <use id="svg_54" transform="matrix(10 0 0 -10 225.28 335.85)" xlink:href="#i"/>
  <use id="svg_55" transform="matrix(10 0 0 -10 234.66 335.98)" xlink:href="#j"/>
  <use id="svg_56" transform="matrix(10 0 0 -10 240.26 335.85)" xlink:href="#k"/>
  <use id="svg_57" transform="matrix(10 0 0 -10 244.3 337.16)" xlink:href="#l"/>
  <use id="svg_58" transform="matrix(10 0 0 -10 247.88 335.98)" xlink:href="#m"/>
  <use id="svg_59" transform="matrix(10 0 0 -10 253.52 337.16)" xlink:href="#n"/>
  <path id="svg_60" d="m103.104,287.043l-3.5,0" stroke="#000" fill="none" stroke-linejoin="round" stroke-width="0.8"/>
  <use id="svg_61" transform="matrix(10 0 0 -10 84.205 290.84)" xlink:href="#o"/>
  <use id="svg_62" transform="matrix(10 0 0 -10 90.405 290.97)" xlink:href="#a"/>
  <path id="svg_63" d="m103.104,257.123l-3.5,0" stroke="#000" fill="none" stroke-linejoin="round" stroke-width="0.8"/>
  <use id="svg_64" transform="matrix(10 0 0 -10 84.065 261.05)" xlink:href="#p"/>
  <use id="svg_65" transform="matrix(10 0 0 -10 90.405 261.05)" xlink:href="#a"/>
  <path id="svg_66" d="m103.104,227.203l-3.5,0" stroke="#000" fill="none" stroke-linejoin="round" stroke-width="0.8"/>
  <use id="svg_67" transform="matrix(10 0 0 -10 84.015 231.13)" xlink:href="#q"/>
  <use id="svg_68" transform="matrix(10 0 0 -10 90.405 231.13)" xlink:href="#a"/>
  <path id="svg_69" d="m103.104,197.283l-3.5,0" stroke="#000" fill="none" stroke-linejoin="round" stroke-width="0.8"/>
  <use id="svg_70" transform="matrix(10 0 0 -10 78.126 201.08)" xlink:href="#b"/>
  <use id="svg_71" transform="matrix(10 0 0 -10 84.046 201.21)" xlink:href="#a"/>
  <use id="svg_72" transform="matrix(10 0 0 -10 90.406 201.21)" xlink:href="#a"/>
  <path id="svg_73" d="m103.104,167.363l-3.5,0" stroke="#000" fill="none" stroke-linejoin="round" stroke-width="0.8"/>
  <use id="svg_74" transform="matrix(10 0 0 -10 78.126 171.16)" xlink:href="#b"/>
  <use id="svg_75" transform="matrix(10 0 0 -10 84.486 171.16)" xlink:href="#b"/>
  <use id="svg_76" transform="matrix(10 0 0 -10 90.406 171.29)" xlink:href="#a"/>
  <path id="svg_77" d="m103.104,137.443l-3.5,0" stroke="#000" fill="none" stroke-linejoin="round" stroke-width="0.8"/>
  <use id="svg_78" transform="matrix(10 0 0 -10 78.126 141.24)" xlink:href="#b"/>
  <use id="svg_79" transform="matrix(10 0 0 -10 84.116 141.24)" xlink:href="#c"/>
  <use id="svg_80" transform="matrix(10 0 0 -10 90.406 141.37)" xlink:href="#a"/>
  <path id="svg_81" d="m103.104,107.523l-3.5,0" stroke="#000" fill="none" stroke-linejoin="round" stroke-width="0.8"/>
  <use id="svg_82" transform="matrix(10 0 0 -10 78.126 111.32)" xlink:href="#b"/>
  <use id="svg_83" transform="matrix(10 0 0 -10 84.146 111.45)" xlink:href="#d"/>
  <use id="svg_84" transform="matrix(10 0 0 -10 90.406 111.45)" xlink:href="#a"/>
  <path id="svg_85" d="m103.104,77.603l-3.5,0" stroke="#000" fill="none" stroke-linejoin="round" stroke-width="0.8"/>
  <use id="svg_86" transform="matrix(10 0 0 -10 78.126 81.4)" xlink:href="#b"/>
  <use id="svg_87" transform="matrix(10 0 0 -10 83.876 81.4)" xlink:href="#e"/>
  <use id="svg_88" transform="matrix(10 0 0 -10 90.406 81.53)" xlink:href="#a"/>
  <path id="svg_89" d="m103.104,47.684l-3.5,0" stroke="#000" fill="none" stroke-linejoin="round" stroke-width="0.8"/>
  <use id="svg_90" transform="matrix(10 0 0 -10 78.126 51.48)" xlink:href="#b"/>
  <use id="svg_91" transform="matrix(10 0 0 -10 84.156 51.61)" xlink:href="#f"/>
  <use id="svg_92" transform="matrix(10 0 0 -10 90.406 51.61)" xlink:href="#a"/>
  <use x="0.39419" y="-0.02075" id="svg_93" transform="matrix(0 -10 -10 0 71.078 212.171)" xlink:href="#r"/>
  <use x="0.39419" y="-0.02075" id="svg_94" transform="matrix(0 -10 -10 0 70.948 203.951)" xlink:href="#s"/>
  <use x="0.39419" y="-0.02075" id="svg_95" transform="matrix(0 -10 -10 0 70.948 199.811)" xlink:href="#h"/>
  <use id="svg_97" transform="matrix(0 -10 -10 0 71.078 193.501)" xlink:href="#j"/>
  <use id="svg_98" transform="matrix(0 -10 -10 0 70.948 186.991)" xlink:href="#u"/>
  <use id="svg_99" transform="matrix(0 -10 -10 0 70.948 181.291)" xlink:href="#t"/>
  <use id="svg_100" transform="matrix(0 -10 -10 0 71.078 177.041)" xlink:href="#v"/>
  <use id="svg_101" transform="matrix(0 -10 -10 0 70.948 171.241)" xlink:href="#t"/>
  <use id="svg_102" transform="matrix(0 -10 -10 0 70.948 166.651)" xlink:href="#h"/>
  <use id="svg_103" transform="matrix(0 -10 -10 0 71.078 164.261)" xlink:href="#w"/>
  <use id="svg_104" transform="matrix(0 -10 -10 0 70.948 157.781)" xlink:href="#u"/>
  <use id="svg_105" transform="matrix(0 -10 -10 0 70.948 152.351)" xlink:href="#k"/>
  <use id="svg_106" transform="matrix(0 -10 -10 0 72.258 148.311)" xlink:href="#l"/>
  <use id="svg_107" transform="matrix(0 -10 -10 0 66.628 144.321)" xlink:href="#x"/>
  <use id="svg_108" transform="matrix(0 -10 -10 0 72.258 139.301)" xlink:href="#n"/>
  <g id="svg_109" clip-path="url(#y)">
   <path id="svg_110" d="m115.2,226.829l0.159,0.37l0.215,0l0.098,0.215l0.16,-0.215l0.187,0.33l0.15,0.14l0.05,-0.172l0.085,0.272l0.103,-0.16l0.089,0.246l0.098,-0.403l0.089,0.235l0.098,-0.251l0.206,0.097l0.08,-0.225l0.093,0.208l0.463,-0.506l0.276,-0.08l0.098,-0.085l0.164,0.093l0.033,-0.255l0.126,0.262l0.23,-0.237l0.275,-0.064l0.112,-0.074l0.099,0.084l0.177,-0.144l0.187,-0.067l0.183,-0.064l0.187,-0.137l0.089,0.079l0.187,-0.063l0.112,0.005l0.178,-0.204l0.271,-0.053l0.477,-0.247l0.08,0.075l0.108,-0.063l0.275,-0.384l0.276,-0.177l0.14,0.074l0.146,-0.183l0.383,-0.166l0.36,0.027l0.103,-0.121l0.197,0.013l1.211,0.184l0.075,0.065l0.15,-0.059l0.136,0.129l0.107,-0.06l0.098,0.187l0.08,-0.06l0.285,0.068l1.689,0.57l0.266,-0.058l0.384,0.184l0.136,-0.06l0.229,0.122l0.285,0.121l0.197,0.002l0.276,0.12l0.13,0l0.263,0.179l0.252,0.06l0.772,0.415l0.182,0.059l0.955,0.472l0.07,-0.06l0.28,0.177l0.562,0.235l0.2,0.058l0.244,0.117l0.197,0.059l0.66,0.292l0.088,0.117l0.196,0l0.375,0.175l0.191,0l0.375,0.174l0.173,-0.059l0.285,0.176l0.182,0l0.37,0.058l0.407,0.175l0.164,0l0.505,0.059l0.07,0.058l0.215,0l0.061,0.058l0.271,-0.058l0.272,0.175l0.098,-0.117l0.187,0.058l0.304,0.058l0.458,0l0.112,0.116l0.07,-0.117l0.089,0.06l0.463,0.057l0.089,0.058l0.093,-0.116l0.201,0.058l2.34,0.002l0.083,-0.116l0.412,0.116l0.243,-0.057l0.524,0l0.145,-0.117l0.267,0.059l0.393,-0.059l0.27,-0.058l0.268,0.06l0.107,0l0.08,-0.118l0.28,0.06l0.477,-0.059l0.197,0l0.505,-0.058l0.065,-0.117l0.07,0.117l0.094,-0.058l0.21,0l2.798,-0.058l0.093,-0.059l0.276,0.059l0.099,-0.059l0.121,0.058l0.155,-0.117l0.182,0.06l2.161,0.002l0.094,0.118l0.365,-0.118l0.846,0l0.173,-0.058l0.108,-0.06l0.318,0.06l0.042,-0.06l0.3,0.06l2.062,0.06l0.173,0l10.188,0.062l0.103,0.119l0.178,-0.059l0.299,-0.06l0.084,0.06l0.272,-0.06l1.132,-0.059l0.098,-0.058l0.08,0.118l0.126,-0.118l0.252,0.058l0.3,-0.059l0.28,0.058l0.075,-0.058l0.108,0.117l0.088,-0.116l0.09,0.118l0.275,0.003l5.534,-0.123l0.098,-0.06l0.08,0.119l0.29,-0.117l0.27,0.058l1.881,0.057l0.272,0.062l0.196,-0.001l0.664,0.001l0.178,-0.118l0.28,0.058l4.482,-0.056l0.098,0.177l0.234,-0.118l0.13,0l0.09,0.117l0.196,-0.118l0.276,-0.001l0.122,0.06l0.075,-0.119l0.37,0.117l0.2,-0.117l0.173,0.058l0.206,0.001l0.926,0.059l0.094,-0.178l0.089,0.06l0.08,-0.058l0.107,0.118l0.182,-0.06l0.192,0l0.271,-0.06l0.183,0l1.132,0.06l0.187,0.059l0.285,-0.059l4.678,0.055l0.285,0.06l0.468,-0.059l0.089,-0.059l0.093,0.118l0.234,-0.118l0.056,0.059l0.281,-0.06l0.16,0.059l0.214,0l0.823,0.058l0.103,0.059l0.173,-0.118l0.197,0.058l0.851,0.065l0.173,0l0.674,-0.06l0.168,0l4.683,0.057l0.088,0.06l0.094,-0.118l0.098,0.117l0.108,-0.118l0.084,0.118l0.178,-0.06l0.098,0.12l0.187,-0.055l0.201,0.058l0.28,-0.176l0.085,0.118l0.108,-0.119l0.107,0.059l0.07,-0.118l0.276,0.058l0.295,-0.059l0.07,0.059l0.108,-0.119l0.103,0.06l0.065,-0.119l0.473,0.176l0.2,-0.059l0.295,0.118l0.066,-0.118l0.304,0.059l1.848,0.001l0.103,-0.117l0.084,0.117l0.285,-0.059l4.023,0.059l0.103,0.117l0.08,-0.117l0.29,0.059l0.093,-0.06l0.187,0.06l0.084,-0.06l0.098,0.118l0.197,-0.118l0.093,0.118l0.085,-0.118l0.191,0.06l1.59,0l0.36,4.246l0.211,1.492l0.183,0.426l0.262,-0.225l0.332,-1.603l0.767,-6.394l0.472,-4.133l0.44,-5.742l0.257,-2.485l0.323,-3.267l2.04,-19.783l0.313,-4.2l0.248,-3.33l1.366,-22.983l0.35,-5.577l0.262,-4.018l0.861,-15.198l2.765,-50.026l1.534,-20.48l1.188,-9.725l1.02,-2.547l0.177,-0.061l0.085,0.028l1.534,3.285l1.122,2.212l2.204,12.207l1.506,9.84l0.561,3.56l2.708,14.569l1.109,3.794l0.201,0.168l0.365,0.35l0.201,0.076l0.187,0.037l1.118,0.422l1.787,1.652l0.168,0.025l0.286,0.09l0.337,-0.054l0.079,0.071l0.23,-0.13l0.397,-0.308l0.35,-0.252l0.29,-0.285l1.133,-1.25l2.282,-1.993l0.781,-0.616l0.197,-0.026l0.28,-3.91l0.277,-1.014l0.102,-0.11l0.178,0.156l0.192,0.468l0.599,3.168l2.89,25.957l0.337,3.832l0.393,4.297l1.118,15.697l0.473,7.566l0.205,3.012l0.253,4.937l0.762,13.445l0.552,11.027l1.871,41.456l0.548,13.062l1.964,37.61l0.674,7.871l0.762,5.372l0.164,0.394l0.206,0.136l0.182,-0.104l0.267,-0.565l0.561,-1.917l1.497,-3.61l0.81,-1.578l0.252,-0.971l0.72,-3.762l2.152,-17.542l1.038,-8.77l1.778,-13.112l0.196,-1.065l0.267,-1.372l0.832,-3.182l0.468,-1.236l0.505,-0.759l0.613,-0.636l0.089,0.002l0.276,-0.176l0.753,0.12l0.59,0.766l0.257,0.579l0.159,0.176l0.215,0.514l1.52,3.304l0.094,0.061l0.173,0.411l0.935,1.52l0.758,1.052l0.271,0.59l0.477,0.586l0.174,0.222l1.024,2.089l1.23,2.436l1.212,1.527l0.196,0.12l0.356,0.288l0.341,0.166l0.051,0.172l0.094,-0.045l0.075,-0.007l0.089,0.172l0.098,-0.063l0.21,0.115l0.07,0l0.202,0.171l0.173,0l0.098,0.115l0.192,-0.006l0.664,0.254l0.168,0.032l0.674,0.235l0.07,-0.063l0.108,0.12l0.145,-0.07l0.051,0.178l0.075,-0.127l0.487,0.204l0.168,-0.02l0.187,0.058l0.29,0.07l2.638,0.14l0.084,-0.108l0.103,0.07l0.066,-0.12l0.21,0.05l0.267,0.013l0.262,-0.057l0.098,0.05l0.094,-0.114l0.196,0.057l0.197,-0.057l0.191,0l0.169,-0.025l0.098,0.127l0.285,-0.165l0.187,0.07l1.114,-0.153l0.098,0.115l0.374,-0.179l0.183,0l1.683,0.007l0.281,-0.07l0.65,0.018l0.108,0.064l0.093,-0.108l0.08,0.121l0.15,-0.121l0.037,0.121l0.285,-0.07l0.108,0.057l0.089,-0.115l0.178,0.103l0.187,0.05l0.959,0.046l0.07,-0.122l0.37,0.045l1.15,-0.077l0.075,0.18l0.098,-0.122l0.187,0.057l1.305,0.148l0.286,0.058l0.187,-0.058l0.103,-0.007l0.093,0.122l0.22,-0.057l0.136,-0.007l0.121,0l0.084,0.115l0.075,-0.064l0.094,0.064l0.257,-0.121l0.122,0.192l0.182,-0.096l0.215,0.116l0.267,-0.051l0.744,0.166l0.177,-0.058l0.95,0l0.192,0.103l0.458,0.052l0.21,0.058l0.169,-0.013l0.182,-0.031l0.365,0.122l0.099,-0.122l0.102,0.109l0.108,-0.123l0.103,0.123l0.065,-0.123l0.192,0.123l1.417,0.042l0.174,0.084l1.31,-0.013l0.668,0.027l0.164,0.02l0.758,0.013l0.191,0.102l0.23,-0.051l0.262,0.136l0.06,-0.116l0.276,0.044l1.254,0.085l0.056,-0.109l0.089,0.11l0.206,-0.059l0.28,0.058l0.548,0.071l0.837,0.007l0.225,0.007l0.163,-0.007l0.454,0l2.334,0.204l0.122,0.116l0.159,-0.122l0.318,0.064l0.257,-0.007l0.187,0.092l0.192,0.014l0.468,0.05l0.093,-0.115l0.103,0.123l0.178,0.007l0.3,-0.079l0.065,-0.044l0.196,0.167l0.09,-0.123l0.205,0.065l0.402,-0.065l0.248,0.215l0.112,-0.109l0.052,0.065l0.192,-0.065l0.215,0.102l0.154,-0.05l0.28,-0.073l0.09,0.16l0.135,-0.109l0.099,0.11l0.051,-0.116l0.201,0.064l0.192,-0.007l0.285,0.051l1.001,0.102l0.758,0.079l0.089,-0.072l0.103,0.065l0.112,-0.13l0.168,0.109l2.756,0.208l0.06,-0.123l0.085,0.123l0.196,-0.13l0.187,0.058l0.557,-0.014l0.182,0.058l0.183,0.058l0.098,-0.065l0.57,0.115l1.675,0.13l0.098,0.122l0.099,-0.13l0.084,0.116l0.3,-0.057l0.163,0.122l0.201,-0.065l0.355,0.072l0.51,-0.079l0.08,0.18l0.07,-0.057l1.216,0.086l0.098,0.065l0.085,-0.116l0.187,0.101l0.103,-0.057l0.15,0.122l0.027,-0.122l0.094,0.064l0.136,-0.014l0.06,0.13l0.183,-0.108l0.472,0.108l3.087,0.317l0.085,0.058l0.393,-0.058l0.168,0.05l0.182,0l0.21,0.058l0.174,0l1.038,0.093l0.21,0.05l0.071,-0.042" stroke="teal" fill="none" stroke-linejoin="round" stroke-linecap="square" stroke-width="2.5"/>
  </g>
  <g id="svg_111" clip-path="url(#z)">
   <path id="svg_112" d="m115.2,228.91l20.31,0.129l82.12,0.153l0.093,-127.653l5.431,0l0.131,-8.976l3.953,0l0.14,8.976l28.52,0l0.167,145.495l2.199,1.402l0.706,0.49l0.772,0.472l0.917,0.56l1.024,0.569l1.418,0.666l0.837,0.33l1.866,0.52l1.689,0.202l1.763,-0.044l2.353,-0.314l4.57,-0.572l3.284,-0.043l3.124,0.278l8.008,0.817l9.178,0.472l7.376,0.359l12.948,0.725l4.556,0.277l17.316,1.192l10.548,0.872l4.603,0.418" stroke="red" fill="none" stroke-linejoin="round" stroke-dasharray="9.25,4" stroke-width="2.5"/>
  </g>
  <path id="svg_113" d="m103.104,307.584l0,-266.112m266.112,266.112l0,-266.112m-266.112,266.112l266.112,0m-266.112,-266.112l266.112,0" stroke="#000" fill="none" stroke-miterlimit="10" stroke-linecap="square" stroke-width="0.8"/>
  <path id="svg_114" fill-opacity="0.8" fill="#fff" d="m110.104,302.584l153.36,0c1.333,0 2,-0.667 2,-2l0,-28.344c0,-1.333 -0.667,-2 -2,-2l-153.36,0c-1.333,0 -2,0.667 -2,2l0,28.344c0,1.333 0.667,2 2,2z"/>
  <path id="svg_115" d="m110.104,302.584l153.36,0c1.333,0 2,-0.667 2,-2l0,-28.344c0,-1.333 -0.667,-2 -2,-2l-153.36,0c-1.333,0 -2,0.667 -2,2l0,28.344c0,1.333 0.667,2 2,2z" stroke-opacity="0.8" stroke="#d5d6d5" fill="none" stroke-miterlimit="10"/>
  <path id="svg_116" d="m112.104,278.334l20,0" stroke="teal" fill="none" stroke-linejoin="round" stroke-linecap="square" stroke-width="2.5"/>
  <use id="svg_117" transform="matrix(10 0 0 -10 140.664 281.964)" xlink:href="#A"/>
  <use id="svg_118" transform="matrix(10 0 0 -10 147.934 281.964)" xlink:href="#B"/>
  <use id="svg_119" transform="matrix(10 0 0 -10 154.334 281.834)" xlink:href="#s"/>
  <use id="svg_120" transform="matrix(10 0 0 -10 158.272 281.834)" xlink:href="#s"/>
  <use id="svg_121" transform="matrix(10 0 0 -10 161.803 281.964)" xlink:href="#j"/>
  <use id="svg_122" transform="matrix(10 0 0 -10 168.313 281.834)" xlink:href="#u"/>
  <use id="svg_123" transform="matrix(10 0 0 -10 174.013 281.834)" xlink:href="#t"/>
  <use id="svg_124" transform="matrix(10 0 0 -10 177.663 281.834)" xlink:href="#k"/>
  <use id="svg_125" transform="matrix(10 0 0 -10 181.393 281.964)" xlink:href="#w"/>
  <use id="svg_126" transform="matrix(10 0 0 -10 187.873 281.834)" xlink:href="#s"/>
  <use id="svg_127" transform="matrix(10 0 0 -10 192.013 281.834)" xlink:href="#h"/>
  <use id="svg_128" transform="matrix(10 0 0 -10 194.403 281.964)" xlink:href="#j"/>
  <use id="svg_129" transform="matrix(10 0 0 -10 200.913 281.834)" xlink:href="#u"/>
  <use id="svg_130" transform="matrix(10 0 0 -10 206.613 281.834)" xlink:href="#t"/>
  <use id="svg_131" transform="matrix(10 0 0 -10 210.863 281.964)" xlink:href="#v"/>
  <use id="svg_132" transform="matrix(10 0 0 -10 216.663 281.834)" xlink:href="#t"/>
  <use id="svg_133" transform="matrix(10 0 0 -10 221.253 281.834)" xlink:href="#h"/>
  <use id="svg_134" transform="matrix(10 0 0 -10 223.643 281.964)" xlink:href="#w"/>
  <use id="svg_135" transform="matrix(10 0 0 -10 230.123 281.834)" xlink:href="#u"/>
  <use id="svg_136" transform="matrix(10 0 0 -10 235.553 281.834)" xlink:href="#k"/>
  <use id="svg_137" transform="matrix(10 0 0 -10 239.593 283.144)" xlink:href="#C"/>
  <use id="svg_138" transform="matrix(10 0 0 -10 243.193 281.964)" xlink:href="#r"/>
  <use id="svg_139" transform="matrix(10 0 0 -10 251.163 281.964)" xlink:href="#D"/>
  <use id="svg_140" transform="matrix(10 0 0 -10 257.653 283.144)" xlink:href="#E"/>
  <path id="svg_141" d="m112.104,293.006l20,0" stroke="red" fill="none" stroke-linejoin="round" stroke-dasharray="9.25,4" stroke-width="2.5"/>
  <use id="svg_142" transform="matrix(10 0 0 -10 141.084 296.506)" xlink:href="#F"/>
  <use id="svg_143" transform="matrix(10 0 0 -10 148.354 296.636)" xlink:href="#j"/>
  <use id="svg_144" transform="matrix(10 0 0 -10 154.494 296.636)" xlink:href="#m"/>
  <use id="svg_145" transform="matrix(10 0 0 -10 160.104 296.506)" xlink:href="#h"/>
  <use id="svg_146" transform="matrix(10 0 0 -10 162.854 296.506)" xlink:href="#s"/>
  <use id="svg_147" transform="matrix(10 0 0 -10 166.385 296.636)" xlink:href="#j"/>
  <use id="svg_148" transform="matrix(10 0 0 -10 172.535 296.636)" xlink:href="#G"/>
  <use id="svg_149" transform="matrix(10 0 0 -10 178.335 296.506)" xlink:href="#k"/>
  <use id="svg_150" transform="matrix(10 0 0 -10 182.065 296.636)" xlink:href="#w"/>
  <use id="svg_151" transform="matrix(10 0 0 -10 188.545 296.506)" xlink:href="#s"/>
  <use id="svg_152" transform="matrix(10 0 0 -10 192.685 296.506)" xlink:href="#h"/>
  <use id="svg_153" transform="matrix(10 0 0 -10 195.075 296.636)" xlink:href="#j"/>
  <use id="svg_154" transform="matrix(10 0 0 -10 201.585 296.506)" xlink:href="#u"/>
  <use id="svg_155" transform="matrix(10 0 0 -10 207.285 296.506)" xlink:href="#t"/>
  <use id="svg_156" transform="matrix(10 0 0 -10 211.535 296.636)" xlink:href="#v"/>
  <use id="svg_157" transform="matrix(10 0 0 -10 217.335 296.506)" xlink:href="#t"/>
  <use id="svg_158" transform="matrix(10 0 0 -10 221.925 296.506)" xlink:href="#h"/>
  <use id="svg_159" transform="matrix(10 0 0 -10 224.315 296.636)" xlink:href="#w"/>
  <use id="svg_160" transform="matrix(10 0 0 -10 230.795 296.506)" xlink:href="#u"/>
  <use id="svg_161" transform="matrix(10 0 0 -10 236.225 296.506)" xlink:href="#k"/>
  <use id="svg_162" transform="matrix(10 0 0 -10 240.265 297.816)" xlink:href="#C"/>
  <use id="svg_163" transform="matrix(10 0 0 -10 243.865 296.636)" xlink:href="#r"/>
  <use id="svg_164" transform="matrix(10 0 0 -10 251.835 296.636)" xlink:href="#D"/>
  <use id="svg_165" transform="matrix(10 0 0 -10 258.325 297.816)" xlink:href="#E"/>
 </g>
</svg>