<svg xmlns="http://www.w3.org/2000/svg" xmlns:xlink="http://www.w3.org/1999/xlink" width="614.4" height="460.8" viewBox="0 0 460.8 345.6"><path d="M0 345.6h460.8V0H0z" fill="#fff"/><path d="M103.104 307.584h266.112V41.472H103.104z" fill="#fff"/><path stroke-width=".8" stroke-linejoin="round" fill="none" stroke="#000" d="M113.698 307.584v3.5"/><symbol id="a"><path transform="matrix(.001 0 0 .001 -.066 .013)" d="M318 664c-51 0-89-25-115-75s-38-125-38-225 12-175 38-225 64-75 115-75 89 25 115 75c25 50 38 125 38 225s-13 175-38 225c-26 50-64 75-115 75zm0 78c81 0 143-33 187-97 43-65 65-159 65-281 0-123-22-217-65-281-44-64-106-96-188-96S173 19 130 83 66 241 66 364c0 122 21 216 64 281 43 64 106 97 188 97z"/></symbol><use xlink:href="#a" transform="matrix(10 0 0 -10 111.179 322.308)"/><path stroke-width=".8" stroke-linejoin="round" fill="none" stroke="#000" d="M160.474 307.584v3.5"/><symbol id="b"><path transform="translate(-.11) scale(.001)" d="M124 83h161v556l-175-35v90l174 35h99V83h161V0H124v83z"/></symbol><use xlink:href="#b" transform="matrix(10 0 0 -10 155.215 322.178)"/><use xlink:href="#a" transform="matrix(10 0 0 -10 161.135 322.308)"/><path stroke-width=".8" stroke-linejoin="round" fill="none" stroke="#000" d="M207.25 307.584v3.5"/><symbol id="c"><path transform="translate(-.073) scale(.001)" d="M192 83h344V0H73v83c37 38 88 90 153 156 64 65 105 107 122 126 32 35 54 65 66 90 12 24 19 49 19 73 0 38-14 70-41 94s-62 37-106 37c-31 0-64-6-98-16-34-11-71-27-110-49v100c40 16 77 28 111 36s66 12 95 12c75 0 135-19 180-57s68-88 68-151c0-30-6-59-17-85-11-27-31-59-61-95-8-10-34-37-78-82S271 164 192 83z"/></symbol><use xlink:href="#c" transform="matrix(10 0 0 -10 201.62 322.178)"/><use xlink:href="#a" transform="matrix(10 0 0 -10 207.91 322.308)"/><path stroke-width=".8" stroke-linejoin="round" fill="none" stroke="#000" d="M254.026 307.584v3.5"/><symbol id="d"><path transform="matrix(.001 0 0 .001 -.076 .013)" d="M406 393c47-10 84-31 110-63s40-72 40-118c0-72-25-128-74-167-50-39-120-58-211-58-31 0-63 3-95 9-32 5-66 14-100 26v95c27-16 57-28 90-36 32-8 66-12 102-12 62 0 109 12 141 36s49 60 49 107c0 42-15 76-45 100s-72 37-126 37h-85v81h89c48 0 85 9 111 29 26 19 39 47 39 84s-14 66-40 86c-27 20-65 30-114 30-27 0-56-3-87-9s-65-15-102-27v88c37 10 72 18 105 23 32 5 63 8 93 8 74 0 133-17 177-51s66-80 66-138c0-40-12-74-35-102s-56-48-98-58z"/></symbol><use xlink:href="#d" transform="matrix(10 0 0 -10 248.427 322.308)"/><use xlink:href="#a" transform="matrix(10 0 0 -10 254.687 322.308)"/><path stroke-width=".8" stroke-linejoin="round" fill="none" stroke="#000" d="M300.802 307.584v3.5"/><symbol id="e"><path transform="translate(-.049) scale(.001)" d="M378 643 129 254h249v389zm-26 86h124V254h104v-82H476V0h-98v172H49v95l303 462z"/></symbol><use xlink:href="#e" transform="matrix(10 0 0 -10 294.933 322.178)"/><use xlink:href="#a" transform="matrix(10 0 0 -10 301.462 322.308)"/><path stroke-width=".8" stroke-linejoin="round" fill="none" stroke="#000" d="M347.578 307.584v3.5"/><symbol id="f"><path transform="matrix(.001 0 0 .001 -.077 .013)" d="M108 729h387v-83H198V467c14 5 29 9 43 11s29 4 43 4c81 0 145-23 193-67 48-45 72-105 72-181 0-79-25-140-74-183S357-13 269-13c-31 0-62 3-94 7-32 5-64 12-98 23v99c29-16 59-28 91-36 31-8 64-11 99-11 56 0 101 14 134 44 32 30 49 70 49 121 0 50-17 90-49 120-33 30-78 45-134 45-26 0-53-3-79-9s-53-15-80-27v366z"/></symbol><use xlink:href="#f" transform="matrix(10 0 0 -10 341.988 322.308)"/><use xlink:href="#a" transform="matrix(10 0 0 -10 348.238 322.308)"/><symbol id="g"><path transform="translate(.002) scale(.001)" d="M-2 729h616v-83H355V0h-99v646H-2v83z"/></symbol><symbol id="h"><path transform="translate(-.094) scale(.001)" d="M94 547h90V0H94v547zm0 213h90V646H94v114z"/></symbol><symbol id="i"><path transform="translate(-.091) scale(.001)" d="M520 442c22 40 49 69 80 89 31 19 68 29 111 29 56 0 100-20 131-60s47-97 47-170V0h-90v327c0 52-10 91-28 117-19 25-47 38-85 38-47 0-84-16-111-47s-40-73-40-126V0h-90v327c0 52-10 91-28 117-19 25-48 38-86 38-46 0-83-16-110-47s-40-73-40-126V0H91v547h90v-85c20 33 45 58 74 74 28 16 62 24 102 24s73-10 101-30 48-50 62-88z"/></symbol><symbol id="j"><path transform="matrix(.001 0 0 .001 -.055 .013)" d="M562 296v-44H149c4-62 22-110 56-142 33-32 79-48 139-48 34 0 68 4 100 12s65 21 97 39V28c-32-14-65-25-99-31s-69-10-103-10c-88 0-157 25-208 75S55 181 55 268c0 89 24 160 72 213 48 52 114 79 196 79 74 0 132-24 175-71 42-48 64-112 64-193zm-90 26c-1 49-15 88-41 118-27 29-63 44-107 44-50 0-90-15-120-43s-48-68-52-119h320z"/></symbol><symbol id="l"><path transform="matrix(.001 0 0 .001 -.086 .131)" d="M86 760h207v-70H176V-61h117v-70H86v891z"/></symbol><symbol id="m"><path transform="matrix(.001 0 0 .001 -.054 .013)" d="M443 531v-85c-26 12-52 22-79 29-28 6-56 10-85 10-45 0-79-7-101-21s-33-34-33-61c0-21 8-37 24-49s48-24 96-34l31-7c64-14 109-34 136-58 26-25 40-60 40-104 0-51-20-91-60-120-40-30-96-44-166-44-30 0-60 3-92 8S89 8 54 20v93c33-18 66-31 98-39 32-9 64-13 96-13 42 0 75 7 98 21 22 14 34 35 34 62 0 24-9 43-25 56s-52 26-108 38l-31 7c-56 12-97 30-121 54-25 24-37 57-37 100 0 51 18 91 54 119s88 42 156 42c33 0 64-3 94-8 29-5 56-12 81-21z"/></symbol><symbol id="n"><path transform="matrix(.001 0 0 .001 -.097 .131)" d="M304 760v-891H97v70h117v751H97v70h207z"/></symbol><use xlink:href="#g" transform="matrix(10 0 0 -10 215.757 335.85)"/><use xlink:href="#h" transform="matrix(10 0 0 -10 222.53 335.85)"/><use xlink:href="#i" transform="matrix(10 0 0 -10 225.28 335.85)"/><use xlink:href="#j" transform="matrix(10 0 0 -10 234.66 335.98)"/><use xlink:href="#k" transform="matrix(10 0 0 -10 240.26 335.85)"/><use xlink:href="#l" transform="matrix(10 0 0 -10 244.3 337.16)"/><use xlink:href="#m" transform="matrix(10 0 0 -10 247.88 335.98)"/><use xlink:href="#n" transform="matrix(10 0 0 -10 253.52 337.16)"/><path stroke-width=".8" stroke-linejoin="round" fill="none" stroke="#000" d="M103.104 293.461h-3.5"/><symbol id="o"><path transform="translate(-.107) scale(.001)" d="M107 124h103V0H107v124z"/></symbol><use xlink:href="#a" transform="matrix(10 0 0 -10 80.858 297.388)"/><use xlink:href="#o" transform="matrix(10 0 0 -10 87.628 297.258)"/><use xlink:href="#f" transform="matrix(10 0 0 -10 90.508 297.388)"/><path stroke-width=".8" stroke-linejoin="round" fill="none" stroke="#000" d="M103.104 250.066h-3.5"/><use xlink:href="#b" transform="matrix(10 0 0 -10 81.298 253.863)"/><use xlink:href="#o" transform="matrix(10 0 0 -10 87.628 253.863)"/><use xlink:href="#a" transform="matrix(10 0 0 -10 90.398 253.993)"/><path stroke-width=".8" stroke-linejoin="round" fill="none" stroke="#000" d="M103.104 206.671h-3.5"/><use xlink:href="#b" transform="matrix(10 0 0 -10 81.298 210.468)"/><use xlink:href="#o" transform="matrix(10 0 0 -10 87.628 210.468)"/><use xlink:href="#f" transform="matrix(10 0 0 -10 90.508 210.598)"/><path stroke-width=".8" stroke-linejoin="round" fill="none" stroke="#000" d="M103.104 163.276h-3.5"/><use xlink:href="#c" transform="matrix(10 0 0 -10 80.928 167.073)"/><use xlink:href="#o" transform="matrix(10 0 0 -10 87.628 167.073)"/><use xlink:href="#a" transform="matrix(10 0 0 -10 90.398 167.203)"/><path stroke-width=".8" stroke-linejoin="round" fill="none" stroke="#000" d="M103.104 119.881h-3.5"/><use xlink:href="#c" transform="matrix(10 0 0 -10 80.928 123.678)"/><use xlink:href="#o" transform="matrix(10 0 0 -10 87.628 123.678)"/><use xlink:href="#f" transform="matrix(10 0 0 -10 90.508 123.808)"/><path stroke-width=".8" stroke-linejoin="round" fill="none" stroke="#000" d="M103.104 76.486h-3.5"/><use xlink:href="#d" transform="matrix(10 0 0 -10 80.958 80.413)"/><use xlink:href="#o" transform="matrix(10 0 0 -10 87.628 80.283)"/><use xlink:href="#a" transform="matrix(10 0 0 -10 90.398 80.413)"/><symbol id="p"><path transform="matrix(.001 0 0 .001 -.066 .013)" d="M535 705v-96c-38 18-73 31-106 40-34 8-66 13-96 13-54 0-96-11-125-31-29-21-43-51-43-89 0-32 9-57 29-73 19-17 56-30 110-40l60-12c73-14 127-39 162-74 35-36 53-83 53-142 0-71-24-124-71-160-48-36-117-54-208-54-35 0-72 4-111 11S110 16 69 32v102c40-23 79-40 117-51 38-12 76-17 114-17 56 0 99 11 130 33 30 22 46 53 46 95 0 36-11 64-33 84s-58 35-108 45l-60 12c-74 14-127 37-160 69-33 31-49 74-49 130 0 64 22 115 68 152 45 37 108 56 188 56 34 0 68-3 104-9 35-6 71-16 109-28z"/></symbol><symbol id="q"><path transform="matrix(.001 0 0 .001 -.091 .207)" d="M181 82v-289H91v754h90v-83c18 32 42 56 71 72s64 24 104 24c66 0 120-27 162-79 41-53 62-122 62-208s-21-156-62-208c-42-52-96-78-162-78-40 0-75 8-104 23s-53 39-71 72zm306 191c0 66-14 117-41 155-28 38-65 57-112 57-48 0-85-19-112-57-28-38-41-89-41-155s13-118 41-156c27-38 64-56 112-56 47 0 84 18 112 56 27 38 41 90 41 156z"/></symbol><symbol id="r"><path transform="matrix(.001 0 0 .001 -.055 .013)" d="M454 464v296h90V0h-90v82c-19-33-43-57-72-72s-63-23-103-23c-66 0-120 26-162 78S55 187 55 273s20 155 62 208c42 52 96 79 162 79 40 0 74-8 103-24s53-40 72-72zM148 273c0-66 13-118 40-156s64-56 112-56 85 18 113 56c27 38 41 90 41 156s-14 117-41 155c-28 38-65 57-113 57s-85-19-112-57-40-89-40-155z"/></symbol><symbol id="s"><path transform="matrix(.001 0 0 .001 0 .092)" d="M254 729h83L83-92H0l254 821z"/></symbol><use xlink:href="#p" transform="matrix(0 -10 -10 0 74.25 204.212)"/><use xlink:href="#q" transform="matrix(0 -10 -10 0 76.19 197.612)"/><use xlink:href="#j" transform="matrix(0 -10 -10 0 74.25 191.622)"/><use xlink:href="#j" transform="matrix(0 -10 -10 0 74.25 185.472)"/><use xlink:href="#r" transform="matrix(0 -10 -10 0 74.25 179.322)"/><use xlink:href="#k" transform="matrix(0 -10 -10 0 74.12 173.522)"/><use xlink:href="#l" transform="matrix(0 -10 -10 0 75.43 169.482)"/><use xlink:href="#i" transform="matrix(0 -10 -10 0 74.12 165.532)"/><use xlink:href="#s" transform="matrix(0 -10 -10 0 75.04 156.702)"/><use xlink:href="#m" transform="matrix(0 -10 -10 0 74.25 152.792)"/><use xlink:href="#n" transform="matrix(0 -10 -10 0 75.43 147.152)"/><clipPath id="t"><path transform="matrix(1 0 0 -1 0 345.6)" d="M103.104 38.016h266.112v266.112H103.104z"/></clipPath><g clip-path="url(#t)"><path stroke-width="2.5" stroke-linecap="square" stroke-linejoin="round" fill="none" stroke="teal" d="m115.2 295.488 1.296-75.606.945-38.396.879-25.49.13-2.208.1-4.327 1.033-18.223.851-10.668 1.39-14.932.285-2.573 1.118-8.62.842-4.75.94-3.368.505-1.382.257-.729.824-1.944.486-.794.262-.627.529-.821.313-.664.243-.23.23-.462.668-.725 1.03-.825.112.033.15-.132 2.245-1.29.247-.132.412-.169.192-.096.29-.067.458-.2.365-.096.468-.07 1.034-.101.205-.001 1.287-.1.187-.034.393-.067.093-.066.187.033.272-.066h.182l.37-.03.3.061.083-.065.384.164.093-.099.272.136 1.31.03.182.067.458-.1.8.332.435-.033.922.1.196.065.28-.035.468.168.38-.065.547.1 1.585-.1h.234l.267.163.266-.03h.192l.272.132.191-.066.187.004.922-.003.3.129.453-.03.58.297.178-.004.402-.36.056.133.197.296h.196l.459-.029 1.295.03.201.1.314.033.252-.034.566.1 3.363-.034.09-.098.093.098.182-.1 2.437.1.187.263.197-.2.065.137.688-.068.262-.066.206-.002.164.068.285.132.37-.066 1.22.066.169.069.29-.069.187.066.098.131.365-.131h.192l.182.267.28.128.3-.065.084.065.192-.132.454.33.337-.198.341-.065.08-.066.177.063.286-.062.093-.067h.206l.557-.063.177.198.276.393.286-.066.379-.065.28-.13.173.064.098-.133h.197l.28.067.094.066.225-.202.8.003.275-.068.398.002.075-.264.196.198.276-.264.192.267.126-.072.108.072.033-.07.294.067.094.066.089-.264.15.131.046-.065.646.067.192.066.27-.066.179-.066.379-.066.093.132.098-.132.384.132.669.065.08-.33.27.33.197-.132.477.201.066-.069.121.066.09-.131.088.066.187-.133.374-.066.272-.128.196-.003.29-.066h.365l.103.134.187-.198.065.13h.3l.36.461.28-.07.192-.058.304.062.174-.066.187-.132.285.202.094-.139.645.464.454-.2.098.073.239-.135h.042l.093-.133.197.067.294-.133.178.136.187-.265.084.13.389.329.07-.198.121.132.169-.132.379-.129.004.132.094-.134.374.198.276-.132h.777l.07-.132.103.132.126-.132.126.198 1.137-.066.267-.135.304.068.08.067.27-.066.206-.066.267-.07.201.205.14-.07.173.133h.15l.384-.066.182-.003.547-.063.323-.133.145.067.089-.07.187.006.435-.003.047-.33.285.33.094-.066.098.07.13-.14.057.073.379-.068.28-.132.085.131.379-.13.093.067.117-.135h.173l.258-.066.177-.066.201.068.173.001.103-.003.094-.132.285.198.113-.199.626.927.117-.003.07-.131.206.066.538-.195h.197l.556-.069.09-.132.102.132.103-.066.379.332.266-.068h.192l.267-.066.206.068.191-.065.604-.069.051-.067h.183l1.389-.068.412-.328.252.66.09.264.29-.066.733-.064.197-.133.271.003.21-.131.45-.07.089-.066h.2l.094-.066.201.062.164-.06.557.064.37.267.093-.138.201.07.276-.001.178-.132.229.066.253.196.191-.126.178-.004.089.132.295-.132.187.066.187-.062.266-.005.09.067.196-.066.178.066.299.199.267-.13h.102l.09.128.2-.132 1.015-.065.29-.066.272-.066h.182l.753-.067.09-.131.476.326.585.006.14-.135h.622l.127-.198.117.132.229-1.838.238-.586.65-4.508.375-3.782.206-2.77.28-2.193.487-3.22.346-1.653.215-.036.131-.183.126.268.688 3.9.921 6.944 1.067 4.123.248.831 1 5.667 1.703 12.555.454 3.899 1.235 12.62.084.66.08-.093.103.15.173-.039.266.052 1.086-2.66.355-2.205.192-1.329.72-5.67.697-6.174 1.46-10.326.8-2.325.243-.035.2-.147.066.056.225-.466.178.04.229-.292.07.104.075-.076.5-.28.636-.648.22.064.15-.008.145-.06.645.08.202.17 1.118 1.069.837 1.32.388-.015.187.16.398-.102.154-.104.187.072.108-.166.08.135.27-.139.104.04.098-.155.093.07 1.32-.837.266-.176.954-.851.262-.351.103-.02.267-.26 1.319-.848.192-.062.177-.17.202.052.07-.095.2.05.193.029.472-.006.066-.183.2.106.525-.185.079-1.885.089.514.14.147.295.923.744.823.196.024.842-.2.094-.02.098-.164.093.074.917-.594.57-.11.361-.034.243.073.225.106.135-.073.145.128h.108l.267.237.098.015.178-2.339.103-.659.098.089.103-.237.49-3.805.263-3.116.767-5.896.435-2.61.187-.626.271-.663.38.42.7 1.248.253 1.376.833 4.513 2.442 17.334.631 5.18.155.727.224 2.516 1.698 13.238.557 2.82.36 1.106.28.518.202.066.458-.405.664-2.293 2.826-18.574.458-1.43.93-2.09.183-.291.384-.599.159-.356.444-.603.136-.29.37-.577.275-.719.099.048.182-.208.898-.842.795.129.103-.095.169.064.37-.063.392.168.276.102 1.46-.397.046-.277.07.135.3-.516.196-.247.374-.667.562-.594.163-.232.29-.42.178-.044.117.077.07-.193.103.07.098-.192.21.01.052.002.108.135.178.01 1.043.011.093-.066.454.446.112-.071.187.12.735-.135.187-.222.089.12.089-.073.332.221.037-.006.197.045.655-.028.29.1.556.073.187.106.29.039.183.039.365.017.191.17.197.041.182-.015.098.056.174-.152.196-.033.37-.001.196.022.07-.143.192.158.108-.023.098-.15.168.082h.094l.098.168.192-.04.093.047.272-.116.196.093.108-.15.168.16.304-.102.066.125.112-.21.365.346.196.052.262-.163.094.128.098-.072.243-.014.051-.021.094.138.075-.066.94-.13.108.073.187-.145.168-.007.197.265.093-.087.103.07.168-.27.389.248.089-.139.102.058.164-.192.108.057.397-.207.36.313.267-.2.28.061.384.124.267-.073.192.003.103.001.187-.07h.126l.047-.13.201.196.393.394.262-.063.098-.065.178.128.3-.139.252.154.21-.07.066.19.2-.062.651-.058.094-.124.2.12.094.014.267.449.098.212.276-.14.098.14.099-.132.187.142.271-.2.393.46.262-.066.201-.058.07-.062.23.072.533.012.107-.08.084.138.08-.066.136.076.145.197.294.325.641-.058.094-.069.308.266.099.066.06-.132.09.066.467.19.393-.132h.182l.188-.46.266.657.187-.139.388.27.103-.138.169.014.21-.073.286-.13.257-.063.29-.07.262.067.215-.059.271.114.09-.125.738.522.098-.147.188.011.093-.08.094.08.29-.142.276.066.294-.073.122.065.065-.141.07.079.375-.018.103-.124.276.248.28.265.117-.072.099.145.07-.207.098.139.136-.205.098.066.051-.197.304.394.155-.147.084.078.468-.209.477-.065.098.204.108-.209.084.06.098-.06.514.711.122-.123.103-.14.384.34 1.197-.278.103-.134.206.138.257-.08h.098l.094-.14.187.066.107-.462.174.261.098.063.187-.132.318-.065.257-.008.061.076.758-.003.192.132.458.192.379.062.29.124.093-.131.085.073.276.069.191.128.276-.14.295.132.173-.139.094-.003.28.331.763-.058.187-.076.093.072.094-.07.089-.204.365.394.393.131.084-.003.098-.117.262.055h.388l.178-.132.178.127.64-.069.038-.065.182-.008.464.06.121-.196.075.144.168-.147h.197l.126-.008.154.131.09-.057.102.068.197-.154.159-.053.318.057.056-.196.706.716.23-.265.58.189.15.01.055-.202.066.145.388-.158.103.074.084-.197.117.131.07-.073.131.08.15.187.262.323.192-.058.215-.147.154.074.37-.282.135.088.267-.084.182.015 1.015-.147.099-.212.089.131h.177l.3.331.08-.072.093.08.13-.208.155.058.089-.123.103.057.28-.196h.192l.09-.077.102.08.182-.077h.09l.083-.131.09.066.472-.008.098-.333.23.385.257.53.088-.066.169.066.374-.197.239.069.243-.127.435-.065.051-.066.066.058.098-.058.192-.003.87-.02.103.065.06-.131.286.06.266-.003.103-.139.44.262.122.208.08-.153.083.08.113-.143.098.066.182-.074.183-.131.463.054.135-.182.066.131.098-.142.257.262.188-.066h.205l.197-.078.252.005.202.262.187.131.168-.131.304.057.098.063.075-.125.183.07.29-.139.27.058.137-.131.154.134.271.12.14-.131.057.13.093-.139.309.131h.15l.2.325.319-.136.243-.008.094-.132.084.066.65-.328.206-.008.271-.13.187.056.272-.134 2.446-.248.117-.131.07.136"/></g><clipPath id="u"><path transform="matrix(1 0 0 -1 0 345.6)" d="M103.104 38.016h266.112v266.112H103.104z"/></clipPath><g clip-path="url(#u)"><path stroke-width="2.5" stroke-dasharray="9.25,4" stroke-linejoin="round" fill="none" stroke="red" d="M115.2 76.486h241.92"/></g><path stroke-width=".8" stroke-linecap="square" stroke-miterlimit="10" fill="none" stroke="#000" d="M103.104 307.584V41.472M369.216 307.584V41.472M103.104 307.584h266.112M103.104 41.472h266.112"/><path d="M233.372 302.584h128.844c1.333 0 2-.667 2-2V272.24c0-1.333-.667-2-2-2H233.372c-1.333 0-2 .667-2 2v28.344c0 1.333.667 2 2 2z" fill="#fff" fill-opacity=".8"/><path stroke-miterlimit="10" fill="none" stroke="#d5d6d5" stroke-opacity=".8" d="M233.372 302.584h128.844c1.333 0 2-.667 2-2V272.24c0-1.333-.667-2-2-2H233.372c-1.333 0-2 .667-2 2v28.344c0 1.333.667 2 2 2z"/><path stroke-width="2.5" stroke-linecap="square" stroke-linejoin="round" fill="none" stroke="teal" d="M235.372 278.334h20"/><symbol id="v"><path transform="matrix(.001 0 0 .001 -.056 .013)" d="M644 673V569c-34 30-69 53-107 69-38 15-77 23-119 23-84 0-148-26-192-77s-66-124-66-220 22-170 66-221 108-76 192-76c42 0 81 7 119 23 38 15 73 38 107 69V56c-35-24-72-41-110-52s-79-17-122-17C302-13 215 20 151 87S56 246 56 364c0 117 31 209 95 277 64 67 151 101 261 101 44 0 85-6 123-17 38-12 75-29 109-52z"/></symbol><symbol id="w"><path transform="matrix(.001 0 0 .001 -.085 .013)" d="M85 216v331h90V219c0-52 10-90 30-116s50-39 91-39c48 0 87 15 115 46s42 73 42 127v310h90V0h-90v84c-22-34-48-58-76-74-29-15-62-23-100-23-63 0-111 19-143 58-33 38-49 95-49 171zm226 344z"/></symbol><symbol id="x"><path transform="translate(-.091) scale(.001)" d="M411 463c-10 6-21 10-33 13-12 2-25 4-39 4-51 0-90-17-117-50-28-33-41-80-41-142V0H91v547h90v-85c18 33 43 58 73 74s67 24 111 24c6 0 13-1 21-1 7-1 15-2 25-4v-92z"/></symbol><symbol id="y"><path transform="translate(-.091) scale(.001)" d="M549 330V0h-90v327c0 52-11 90-31 116s-50 39-90 39c-49 0-87-16-115-47s-42-73-42-126V0H91v547h90v-85c21 32 46 57 76 73 29 16 63 25 101 25 62 0 110-20 142-59s49-96 49-171z"/></symbol><symbol id="z"><path transform="translate(-.027) scale(.001)" d="M183 702V547h185v-70H183V180c0-45 6-74 18-86 12-13 37-19 75-19h92V0h-92c-70 0-118 13-144 39s-39 73-39 141v297H27v70h66v155h90z"/></symbol><symbol id="A"><path transform="matrix(.001 0 0 .001 -.086 .131)" d="M310 759c-44-76-76-150-97-223-22-73-32-147-32-222 0-76 10-150 32-223 21-74 53-147 97-222h-78C183-54 146 20 122 94S86 241 86 314c0 72 12 145 36 219s60 149 110 226h78z"/></symbol><symbol id="B"><path transform="matrix(.001 0 0 .001 -.056 .013)" d="M394 662c-72 0-129-27-171-80-42-54-63-126-63-218s21-165 63-218c42-54 99-80 171-80 71 0 128 26 170 80 42 53 63 126 63 218s-21 164-63 218c-42 53-99 80-170 80zm0 80c102 0 183-35 245-103 61-68 92-160 92-275 0-116-31-207-92-275C577 21 496-13 394-13 291-13 209 21 148 89c-62 68-92 159-92 275 0 115 30 207 92 275 61 68 143 103 246 103z"/></symbol><symbol id="C"><path transform="matrix(.001 0 0 .001 -.08 .131)" d="M80 759h78c48-77 85-152 109-226s37-147 37-219c0-73-13-146-37-220S206-54 158-131H80c43 75 75 148 97 222 21 73 32 147 32 223 0 75-11 149-32 222-22 73-54 147-97 223z"/></symbol><use xlink:href="#v" transform="matrix(10 0 0 -10 263.932 281.964)"/><use xlink:href="#w" transform="matrix(10 0 0 -10 271.202 281.964)"/><use xlink:href="#x" transform="matrix(10 0 0 -10 277.602 281.834)"/><use xlink:href="#x" transform="matrix(10 0 0 -10 281.54 281.834)"/><use xlink:href="#j" transform="matrix(10 0 0 -10 285.072 281.964)"/><use xlink:href="#y" transform="matrix(10 0 0 -10 291.582 281.834)"/><use xlink:href="#z" transform="matrix(10 0 0 -10 297.282 281.834)"/><use xlink:href="#k" transform="matrix(10 0 0 -10 300.932 281.834)"/><use xlink:href="#m" transform="matrix(10 0 0 -10 304.652 281.964)"/><use xlink:href="#q" transform="matrix(10 0 0 -10 310.232 283.904)"/><use xlink:href="#j" transform="matrix(10 0 0 -10 316.222 281.964)"/><use xlink:href="#j" transform="matrix(10 0 0 -10 322.372 281.964)"/><use xlink:href="#r" transform="matrix(10 0 0 -10 328.522 281.964)"/><use xlink:href="#k" transform="matrix(10 0 0 -10 334.322 281.834)"/><use xlink:href="#A" transform="matrix(10 0 0 -10 338.362 283.144)"/><use xlink:href="#B" transform="matrix(10 0 0 -10 341.962 281.964)"/><use xlink:href="#p" transform="matrix(10 0 0 -10 349.932 281.964)"/><use xlink:href="#C" transform="matrix(10 0 0 -10 356.422 283.144)"/><path stroke-width="2.5" stroke-dasharray="9.25,4" stroke-linejoin="round" fill="none" stroke="red" d="M235.372 293.006h20"/><symbol id="D"><path transform="translate(-.098) scale(.001)" d="M197 648V81h119c100 0 174 22 221 68 46 46 70 118 70 216s-24 169-70 215c-47 45-121 68-221 68H197zm-99 81h203c141 0 245-30 311-88 66-59 99-151 99-276 0-126-34-218-100-277S441 0 301 0H98v729z"/></symbol><use xlink:href="#D" transform="matrix(10 0 0 -10 264.352 296.506)"/><use xlink:href="#j" transform="matrix(10 0 0 -10 271.622 296.636)"/><use xlink:href="#m" transform="matrix(10 0 0 -10 277.762 296.636)"/><use xlink:href="#h" transform="matrix(10 0 0 -10 283.372 296.506)"/><use xlink:href="#x" transform="matrix(10 0 0 -10 286.122 296.506)"/><use xlink:href="#j" transform="matrix(10 0 0 -10 289.654 296.636)"/><use xlink:href="#r" transform="matrix(10 0 0 -10 295.803 296.636)"/><use xlink:href="#k" transform="matrix(10 0 0 -10 301.604 296.506)"/><use xlink:href="#m" transform="matrix(10 0 0 -10 305.324 296.636)"/><use xlink:href="#q" transform="matrix(10 0 0 -10 310.904 298.576)"/><use xlink:href="#j" transform="matrix(10 0 0 -10 316.894 296.636)"/><use xlink:href="#j" transform="matrix(10 0 0 -10 323.043 296.636)"/><use xlink:href="#r" transform="matrix(10 0 0 -10 329.193 296.636)"/><use xlink:href="#k" transform="matrix(10 0 0 -10 334.993 296.506)"/><use xlink:href="#A" transform="matrix(10 0 0 -10 339.034 297.816)"/><use xlink:href="#B" transform="matrix(10 0 0 -10 342.634 296.636)"/><use xlink:href="#p" transform="matrix(10 0 0 -10 350.604 296.636)"/><use xlink:href="#C" transform="matrix(10 0 0 -10 357.094 297.816)"/></svg>