<svg xmlns="http://www.w3.org/2000/svg" xmlns:xlink="http://www.w3.org/1999/xlink" width="614.4" height="460.8" viewBox="0 0 460.8 345.6"><path d="M0 345.6h460.8V0H0z" fill="#fff"/><path d="M103.104 307.584h266.112V41.472H103.104z" fill="#fff"/><path stroke-width=".8" stroke-linejoin="round" fill="none" stroke="#000" d="M113.555 307.584v3.5"/><symbol id="a"><path transform="matrix(.001 0 0 .001 -.066 .013)" d="M318 664c-51 0-89-25-115-75s-38-125-38-225 12-175 38-225 64-75 115-75 89 25 115 75c25 50 38 125 38 225s-13 175-38 225c-26 50-64 75-115 75zm0 78c81 0 143-33 187-97 43-65 65-159 65-281 0-123-22-217-65-281-44-64-106-96-188-96S173 19 130 83 66 241 66 364c0 122 21 216 64 281 43 64 106 97 188 97z"/></symbol><use xlink:href="#a" transform="matrix(10 0 0 -10 111.035 322.308)"/><path stroke-width=".8" stroke-linejoin="round" fill="none" stroke="#000" d="M162.671 307.584v3.5"/><symbol id="b"><path transform="translate(-.11) scale(.001)" d="M124 83h161v556l-175-35v90l174 35h99V83h161V0H124v83z"/></symbol><use xlink:href="#b" transform="matrix(10 0 0 -10 157.412 322.178)"/><use xlink:href="#a" transform="matrix(10 0 0 -10 163.332 322.308)"/><path stroke-width=".8" stroke-linejoin="round" fill="none" stroke="#000" d="M211.788 307.584v3.5"/><symbol id="c"><path transform="translate(-.073) scale(.001)" d="M192 83h344V0H73v83c37 38 88 90 153 156 64 65 105 107 122 126 32 35 54 65 66 90 12 24 19 49 19 73 0 38-14 70-41 94s-62 37-106 37c-31 0-64-6-98-16-34-11-71-27-110-49v100c40 16 77 28 111 36s66 12 95 12c75 0 135-19 180-57s68-88 68-151c0-30-6-59-17-85-11-27-31-59-61-95-8-10-34-37-78-82S271 164 192 83z"/></symbol><use xlink:href="#c" transform="matrix(10 0 0 -10 206.159 322.178)"/><use xlink:href="#a" transform="matrix(10 0 0 -10 212.449 322.308)"/><path stroke-width=".8" stroke-linejoin="round" fill="none" stroke="#000" d="M260.905 307.584v3.5"/><symbol id="d"><path transform="matrix(.001 0 0 .001 -.076 .013)" d="M406 393c47-10 84-31 110-63s40-72 40-118c0-72-25-128-74-167-50-39-120-58-211-58-31 0-63 3-95 9-32 5-66 14-100 26v95c27-16 57-28 90-36 32-8 66-12 102-12 62 0 109 12 141 36s49 60 49 107c0 42-15 76-45 100s-72 37-126 37h-85v81h89c48 0 85 9 111 29 26 19 39 47 39 84s-14 66-40 86c-27 20-65 30-114 30-27 0-56-3-87-9s-65-15-102-27v88c37 10 72 18 105 23 32 5 63 8 93 8 74 0 133-17 177-51s66-80 66-138c0-40-12-74-35-102s-56-48-98-58z"/></symbol><use xlink:href="#d" transform="matrix(10 0 0 -10 255.306 322.308)"/><use xlink:href="#a" transform="matrix(10 0 0 -10 261.566 322.308)"/><path stroke-width=".8" stroke-linejoin="round" fill="none" stroke="#000" d="M310.022 307.584v3.5"/><symbol id="e"><path transform="translate(-.049) scale(.001)" d="M378 643 129 254h249v389zm-26 86h124V254h104v-82H476V0h-98v172H49v95l303 462z"/></symbol><use xlink:href="#e" transform="matrix(10 0 0 -10 304.152 322.178)"/><use xlink:href="#a" transform="matrix(10 0 0 -10 310.683 322.308)"/><path stroke-width=".8" stroke-linejoin="round" fill="none" stroke="#000" d="M359.139 307.584v3.5"/><symbol id="f"><path transform="matrix(.001 0 0 .001 -.077 .013)" d="M108 729h387v-83H198V467c14 5 29 9 43 11s29 4 43 4c81 0 145-23 193-67 48-45 72-105 72-181 0-79-25-140-74-183S357-13 269-13c-31 0-62 3-94 7-32 5-64 12-98 23v99c29-16 59-28 91-36 31-8 64-11 99-11 56 0 101 14 134 44 32 30 49 70 49 121 0 50-17 90-49 120-33 30-78 45-134 45-26 0-53-3-79-9s-53-15-80-27v366z"/></symbol><use xlink:href="#f" transform="matrix(10 0 0 -10 353.55 322.308)"/><use xlink:href="#a" transform="matrix(10 0 0 -10 359.8 322.308)"/><symbol id="g"><path transform="translate(.002) scale(.001)" d="M-2 729h616v-83H355V0h-99v646H-2v83z"/></symbol><symbol id="h"><path transform="translate(-.094) scale(.001)" d="M94 547h90V0H94v547zm0 213h90V646H94v114z"/></symbol><symbol id="i"><path transform="translate(-.091) scale(.001)" d="M520 442c22 40 49 69 80 89 31 19 68 29 111 29 56 0 100-20 131-60s47-97 47-170V0h-90v327c0 52-10 91-28 117-19 25-47 38-85 38-47 0-84-16-111-47s-40-73-40-126V0h-90v327c0 52-10 91-28 117-19 25-48 38-86 38-46 0-83-16-110-47s-40-73-40-126V0H91v547h90v-85c20 33 45 58 74 74 28 16 62 24 102 24s73-10 101-30 48-50 62-88z"/></symbol><symbol id="j"><path transform="matrix(.001 0 0 .001 -.055 .013)" d="M562 296v-44H149c4-62 22-110 56-142 33-32 79-48 139-48 34 0 68 4 100 12s65 21 97 39V28c-32-14-65-25-99-31s-69-10-103-10c-88 0-157 25-208 75S55 181 55 268c0 89 24 160 72 213 48 52 114 79 196 79 74 0 132-24 175-71 42-48 64-112 64-193zm-90 26c-1 49-15 88-41 118-27 29-63 44-107 44-50 0-90-15-120-43s-48-68-52-119h320z"/></symbol><symbol id="l"><path transform="matrix(.001 0 0 .001 -.086 .131)" d="M86 760h207v-70H176V-61h117v-70H86v891z"/></symbol><symbol id="m"><path transform="matrix(.001 0 0 .001 -.054 .013)" d="M443 531v-85c-26 12-52 22-79 29-28 6-56 10-85 10-45 0-79-7-101-21s-33-34-33-61c0-21 8-37 24-49s48-24 96-34l31-7c64-14 109-34 136-58 26-25 40-60 40-104 0-51-20-91-60-120-40-30-96-44-166-44-30 0-60 3-92 8S89 8 54 20v93c33-18 66-31 98-39 32-9 64-13 96-13 42 0 75 7 98 21 22 14 34 35 34 62 0 24-9 43-25 56s-52 26-108 38l-31 7c-56 12-97 30-121 54-25 24-37 57-37 100 0 51 18 91 54 119s88 42 156 42c33 0 64-3 94-8 29-5 56-12 81-21z"/></symbol><symbol id="n"><path transform="matrix(.001 0 0 .001 -.097 .131)" d="M304 760v-891H97v70h117v751H97v70h207z"/></symbol><use xlink:href="#g" transform="matrix(10 0 0 -10 215.757 335.85)"/><use xlink:href="#h" transform="matrix(10 0 0 -10 222.53 335.85)"/><use xlink:href="#i" transform="matrix(10 0 0 -10 225.28 335.85)"/><use xlink:href="#j" transform="matrix(10 0 0 -10 234.66 335.98)"/><use xlink:href="#k" transform="matrix(10 0 0 -10 240.26 335.85)"/><use xlink:href="#l" transform="matrix(10 0 0 -10 244.3 337.16)"/><use xlink:href="#m" transform="matrix(10 0 0 -10 247.88 335.98)"/><use xlink:href="#n" transform="matrix(10 0 0 -10 253.52 337.16)"/><path stroke-width=".8" stroke-linejoin="round" fill="none" stroke="#000" d="M103.104 285.484h-3.5"/><use xlink:href="#c" transform="matrix(10 0 0 -10 84.115 289.281)"/><use xlink:href="#f" transform="matrix(10 0 0 -10 90.515 289.411)"/><path stroke-width=".8" stroke-linejoin="round" fill="none" stroke="#000" d="M103.104 254.065h-3.5"/><use xlink:href="#f" transform="matrix(10 0 0 -10 84.155 257.992)"/><use xlink:href="#a" transform="matrix(10 0 0 -10 90.405 257.992)"/><path stroke-width=".8" stroke-linejoin="round" fill="none" stroke="#000" d="M103.104 222.646h-3.5"/><symbol id="o"><path transform="translate(-.082) scale(.001)" d="M82 729h469v-42L286 0H183l249 646H82v83z"/></symbol><use xlink:href="#o" transform="matrix(10 0 0 -10 84.205 226.443)"/><use xlink:href="#f" transform="matrix(10 0 0 -10 90.515 226.573)"/><path stroke-width=".8" stroke-linejoin="round" fill="none" stroke="#000" d="M103.104 191.227h-3.5"/><use xlink:href="#b" transform="matrix(10 0 0 -10 78.126 195.024)"/><use xlink:href="#a" transform="matrix(10 0 0 -10 84.046 195.154)"/><use xlink:href="#a" transform="matrix(10 0 0 -10 90.406 195.154)"/><path stroke-width=".8" stroke-linejoin="round" fill="none" stroke="#000" d="M103.104 159.808h-3.5"/><use xlink:href="#b" transform="matrix(10 0 0 -10 78.126 163.605)"/><use xlink:href="#c" transform="matrix(10 0 0 -10 84.116 163.605)"/><use xlink:href="#f" transform="matrix(10 0 0 -10 90.516 163.735)"/><path stroke-width=".8" stroke-linejoin="round" fill="none" stroke="#000" d="M103.104 128.389h-3.5"/><use xlink:href="#b" transform="matrix(10 0 0 -10 78.126 132.186)"/><use xlink:href="#f" transform="matrix(10 0 0 -10 84.156 132.316)"/><use xlink:href="#a" transform="matrix(10 0 0 -10 90.406 132.316)"/><path stroke-width=".8" stroke-linejoin="round" fill="none" stroke="#000" d="M103.104 96.97h-3.5"/><use xlink:href="#b" transform="matrix(10 0 0 -10 78.126 100.767)"/><use xlink:href="#o" transform="matrix(10 0 0 -10 84.206 100.767)"/><use xlink:href="#f" transform="matrix(10 0 0 -10 90.516 100.897)"/><path stroke-width=".8" stroke-linejoin="round" fill="none" stroke="#000" d="M103.104 65.55h-3.5"/><use xlink:href="#c" transform="matrix(10 0 0 -10 77.756 69.348)"/><use xlink:href="#a" transform="matrix(10 0 0 -10 84.046 69.478)"/><use xlink:href="#a" transform="matrix(10 0 0 -10 90.406 69.478)"/><symbol id="p"><path transform="translate(-.098) scale(.001)" d="M197 648V81h119c100 0 174 22 221 68 46 46 70 118 70 216s-24 169-70 215c-47 45-121 68-221 68H197zm-99 81h203c141 0 245-30 311-88 66-59 99-151 99-276 0-126-34-218-100-277S441 0 301 0H98v729z"/></symbol><symbol id="q"><path transform="translate(-.027) scale(.001)" d="M183 702V547h185v-70H183V180c0-45 6-74 18-86 12-13 37-19 75-19h92V0h-92c-70 0-118 13-144 39s-39 73-39 141v297H27v70h66v155h90z"/></symbol><symbol id="r"><path transform="matrix(.001 0 0 .001 -.06 .013)" d="M343 275c-73 0-123-9-151-25-28-17-42-45-42-85 0-32 10-58 31-76 21-19 50-28 86-28 50 0 90 17 120 53 30 35 45 82 45 141v20h-89zm179 37V0h-90v83c-21-34-47-58-77-73s-68-23-112-23c-56 0-101 15-134 46s-49 73-49 126c0 61 20 107 62 139 41 31 102 47 184 47h126v9c0 41-14 73-41 96-27 22-65 34-114 34-32 0-62-4-92-12s-58-19-85-33v83c32 12 64 22 95 28s61 10 91 10c79 0 138-21 177-62s59-103 59-186z"/></symbol><symbol id="s"><path transform="translate(-.091) scale(.001)" d="M549 330V0h-90v327c0 52-11 90-31 116s-50 39-90 39c-49 0-87-16-115-47s-42-73-42-126V0H91v547h90v-85c21 32 46 57 76 73 29 16 63 25 101 25 62 0 110-20 142-59s49-96 49-171z"/></symbol><symbol id="t"><path transform="matrix(.001 0 0 .001 -.055 .013)" d="M488 526v-84c-26 14-51 24-77 31s-51 11-77 11c-58 0-104-19-136-56s-48-89-48-155c0-67 16-119 48-156s78-55 136-55c26 0 51 3 77 10s51 18 77 32V21C462 9 436 0 410-5c-27-5-56-8-86-8-82 0-148 25-196 77-49 51-73 121-73 209 0 89 24 159 73 210s116 77 202 77c28 0 55-3 81-9s52-14 77-25z"/></symbol><use xlink:href="#p" transform="matrix(0 -10 -10 0 70.948 205.798)"/><use xlink:href="#h" transform="matrix(0 -10 -10 0 70.948 198.138)"/><use xlink:href="#m" transform="matrix(0 -10 -10 0 71.078 195.758)"/><use xlink:href="#q" transform="matrix(0 -10 -10 0 70.948 190.818)"/><use xlink:href="#r" transform="matrix(0 -10 -10 0 71.078 186.568)"/><use xlink:href="#s" transform="matrix(0 -10 -10 0 70.948 180.128)"/><use xlink:href="#t" transform="matrix(0 -10 -10 0 71.078 174.148)"/><use xlink:href="#j" transform="matrix(0 -10 -10 0 71.078 168.648)"/><use xlink:href="#k" transform="matrix(0 -10 -10 0 70.948 163.048)"/><use xlink:href="#l" transform="matrix(0 -10 -10 0 72.258 159.008)"/><use xlink:href="#i" transform="matrix(0 -10 -10 0 70.948 155.058)"/><use xlink:href="#n" transform="matrix(0 -10 -10 0 72.258 145.258)"/><clipPath id="u"><path transform="matrix(1 0 0 -1 0 345.6)" d="M103.104 38.016h266.112v266.112H103.104z"/></clipPath><g clip-path="url(#u)"><path stroke-width="2.5" stroke-linecap="square" stroke-linejoin="round" fill="none" stroke="#00f" d="m115.2 230.604.766.451.26.178.511.466.781.721.875 1.054.191.236.32.36.977 1.28 2.745 3.878.398.674 1.071 1.573.378.691.211.224.575 1.005.206.225 1.665 2.667 7.132 10.941.467.647.408.663 2.097 2.89 1.783 2.343.835 1.31.938 1.36.339.585.324.455.275.47.472.815.412.682.138.175.348.703.26.345.207.508 2.475 3.82 2.034 4.268 1.97 2.856.378.046.348.505 1.602 1.591.461.492.496.49 1.096 1.269.574.684 1.798 1.6.776.701 3.713 2.338 2.2.89 1.494.545 1.567.278 2.244.247.767.114 1.33.015 2.633-.42.388.004.379-.072.304-.002.393-.072.408-.021.471-.071 2.859-.126 1.955.15 2.48.478.88.196 1.276.206 2.554-.097 1.96-.561.496-.257.378-.173 1.587-1.063 3.355-3.11.265-.325.211-.166.255-.335 1.405-1.653.172-.176 1.478-1.83.722-.786.187-.302.3-.31.59-.798 3.933-4.805 2.265-1.934 1.04-1.36.119-.129.393-.669.432-.568 2.156-3.499.324-.462 1.543-2.288.358-.413.364-.573 4.67-7.688.335-.416.574-.871 1.351-2.258.501-1.2 1.262-2.791 2.486-4.019 1.69-2.216.653-.804.564-.922 5.993-7.347.628-1.044.383-.574.742-1.096.486-.663.506-.995.344-.617.61-1.51 2.293-4.288.3-.468.186-.305.491-.814 4.298-5.631.32-.296 1.645-1.962.3-.28.427-.504 1.93-2.211.594-.762.236-.175.157-.3.211-.178 3.448-4.379 1.837-2.522 1.002-1.363.374-.61.25-.273.27-.422.393-.492.285-.485.201-.208.207-.358 19.224-28.557.226-.217.363-.58.384-.584.795-1.23.103-.071.379-.58.407-.582.81-1.241.374-.59.413-.578.363-.508 10.506-15.574.324-.517.172-.22.28-.515.216-.293 1.267-1.824.295-.503 1.596-2.304 5.015-7.498.172-.38.211-.221.27-.518.148-.072.236-.455 1.999-3.068L314 118.28l.202-.289 1.149-1.673.305-.51.363-.364.324-.586.575-.951.137-.072.364-.662.575-.805.206-.37.128-.072.555-.958.21-.295 1.155-1.769.211-.22.32-.518.564-.888.212-.297.49-.74.37-.516.308-.443 1.302-1.998.285-.365.226-.366 5.673-8.52.29-.442 1.08-1.55.226-.37 2.01-3.046.353-.523 1.527-2.38 1.18-1.808.21-.222.855-1.365.417-.668.295-.366 3.257-4.937 1.056-1.608.77-1.178.109-.072.29-.518.388-.514.893-1.404.202-.22.295-.516.294-.368 2.746-4.214.265-.22.035-.222.304-.443 2.937-4.355.482-.812.206-.222.609-.957.118-.073.172-.294 2.136-3.243.904-1.335"/></g><clipPath id="v"><path transform="matrix(1 0 0 -1 0 345.6)" d="M103.104 38.016h266.112v266.112H103.104z"/></clipPath><g clip-path="url(#v)"><path stroke-width="2.5" stroke-dasharray="9.25,4" stroke-linejoin="round" fill="none" stroke="red" d="m115.2 135.173.639.392.486.367.79.67.688.777.516.56.584.715.978 1.27 2.745 3.868.398.674 1.174 1.804.781 1.126 11.533 17.543 1.866 2.35.639.788 2.24 3.905.81 1.239.417.721.875 1.106.206.434.928 1.398 1.547 2.913.664 1.41 1.37 2.724.471.84.31.553.182.206 1.006 1.508.379.056.348.535 1.425 1.516 1.41 1.799 1.12 1.443 1.674 2.045 1.086 1.18 1.232 1.35 2.992 2.773.574.623 1.307 1.19 2.524 1.964.575.618 2.648 2.214.997.745 1.94 2.435 1.016 1.496.492.437.407.417 6.778 7.322.786.988.418.475 1.65 2.082.3.325 2.284 3.142.673.988.21.285.36.51.712 1.08.589.805 1.375 2.12.108.078.177.366.24.296.305.375 1.724 2.693 4.5 7.114.702 1.084.167.232.304.53.786 1.227 1.199 1.763 2.058 3.224.692 1.144 1.08 1.686 3.06 3.225 1.042 1.846.118.164.393.805.432.623.663 1.04.344.427.476.708 1.96 3.233.747 1.377.191.25.364.692.795 1.296 1.38 1.99.236.414.678 1.012.462.606.609 1.106.196.162.796 1.404.427.573 1.44 1.85.353.536 1.405 2.427 1.596 1.96 2.358 2.176.86.614.697.593.894.608 2.141 1.451.703.562 2.2 1.262.481.341.467.362 3.163 2.156.894.446.334.109.727.242.368.1 2.171.378 3.689.369 3.448.183 3.168-.608 1.655-.7 1.488-.946.752-.578.619-.476 1.955-1.814.903-.914.29-.267.324-.382 1.336-1.582.62-.65.451-.663.31-.297 1.502-1.94 1.243-1.622.197-.186 6.488-8.538.211-.195.172-.33.103-.064.477-.659 4.332-6.023 1.188-1.655.216-.207.359-.633 8.05-11.563 13.168-19.312.585-.967.201-.221.496-.81.668-.97.393-.675.187-.218 2.186-3.335.216-.216.265-.51.614-.867 1.08-1.597.295-.362.138-.145.152-.365 1.194-1.759.28-.369 3.713-5.496.506-.798.206-.218.476-.805 2.442-3.588.334-.516 1.05-1.621.87-1.328.211-.22.32-.446.275-.521.2-.294 1.101-1.622.501-.746.462-.742.098-.072.486-.819.89-1.245 5.417-8.199.29-.446 1.08-1.558.226-.373.103-.073.654-1.11 1.252-1.865.354-.516 1.473-2.245.256-.458.196-.226.477-.824.098-.073.324-.534.196-.229.379-.687 19.553-29.528"/></g><clipPath id="w"><path transform="matrix(1 0 0 -1 0 345.6)" d="M103.104 38.016h266.112v266.112H103.104z"/></clipPath><g clip-path="url(#w)"><path d="m183.287 297.231 6-6m-6 0 6 6" fill="orange"/><path stroke-width="2.5" stroke-linejoin="round" fill="none" stroke="orange" d="m183.287 297.231 6-6m-6 0 6 6"/></g><clipPath id="x"><path transform="matrix(1 0 0 -1 0 345.6)" d="M103.104 38.016h266.112v266.112H103.104z"/></clipPath><g clip-path="url(#x)"><path d="M247.124 295.488h6m-3 3v-6" fill="green"/><path stroke-width="2.5" stroke-linejoin="round" fill="none" stroke="green" d="M247.124 295.488h6m-3 3v-6"/></g><path stroke-width=".8" stroke-linecap="square" stroke-miterlimit="10" fill="none" stroke="#000" d="M103.104 307.584V41.472M369.216 307.584V41.472M103.104 307.584h266.112M103.104 41.472h266.112"/><path d="M110.104 108.16h186.797c1.333 0 2-.667 2-2V48.472c0-1.333-.667-2-2-2H110.104c-1.333 0-2 .667-2 2v57.688c0 1.333.667 2 2 2z" fill="#fff" fill-opacity=".8"/><path stroke-miterlimit="10" fill="none" stroke="#d5d6d5" stroke-opacity=".8" d="M110.104 108.16h186.797c1.333 0 2-.667 2-2V48.472c0-1.333-.667-2-2-2H110.104c-1.333 0-2 .667-2 2v57.688c0 1.333.667 2 2 2z"/><path stroke-width="2.5" stroke-linecap="square" stroke-linejoin="round" fill="none" stroke="#00f" d="M112.104 54.566h20"/><symbol id="y"><path transform="matrix(.001 0 0 .001 -.091 .013)" d="M487 273c0 66-14 117-41 155-28 38-65 57-112 57-48 0-85-19-112-57-28-38-41-89-41-155s13-118 41-156c27-38 64-56 112-56 47 0 84 18 112 56 27 38 41 90 41 156zM181 464c18 32 42 56 71 72s64 24 104 24c66 0 120-27 162-79 41-53 62-122 62-208s-21-156-62-208c-42-52-96-78-162-78-40 0-75 8-104 23s-53 39-71 72V0H91v760h90V464z"/></symbol><symbol id="z"><path transform="translate(-.042) scale(.001)" d="M42 547h90l112-427 112 427h106l112-427 112 427h90L633 0H527L409 448 291 0H185L42 547z"/></symbol><symbol id="A"><path transform="matrix(.001 0 0 .001 -.056 .013)" d="M394 662c-72 0-129-27-171-80-42-54-63-126-63-218s21-165 63-218c42-54 99-80 171-80 71 0 128 26 170 80 42 53 63 126 63 218s-21 164-63 218c-42 53-99 80-170 80zm0 80c102 0 183-35 245-103 61-68 92-160 92-275 0-116-31-207-92-275C577 21 496-13 394-13 291-13 209 21 148 89c-62 68-92 159-92 275 0 115 30 207 92 275 61 68 143 103 246 103z"/></symbol><symbol id="B"><path transform="matrix(.001 0 0 .001 -.066 .013)" d="M535 705v-96c-38 18-73 31-106 40-34 8-66 13-96 13-54 0-96-11-125-31-29-21-43-51-43-89 0-32 9-57 29-73 19-17 56-30 110-40l60-12c73-14 127-39 162-74 35-36 53-83 53-142 0-71-24-124-71-160-48-36-117-54-208-54-35 0-72 4-111 11S110 16 69 32v102c40-23 79-40 117-51 38-12 76-17 114-17 56 0 99 11 130 33 30 22 46 53 46 95 0 36-11 64-33 84s-58 35-108 45l-60 12c-74 14-127 37-160 69-33 31-49 74-49 130 0 64 22 115 68 152 45 37 108 56 188 56 34 0 68-3 104-9 35-6 71-16 109-28z"/></symbol><symbol id="C"><path transform="matrix(.001 0 0 .001 -.055 .013)" d="M454 464v296h90V0h-90v82c-19-33-43-57-72-72s-63-23-103-23c-66 0-120 26-162 78S55 187 55 273s20 155 62 208c42 52 96 79 162 79 40 0 74-8 103-24s53-40 72-72zM148 273c0-66 13-118 40-156s64-56 112-56 85 18 113 56c27 38 41 90 41 156s-14 117-41 155c-28 38-65 57-113 57s-85-19-112-57-40-89-40-155z"/></symbol><use xlink:href="#p" transform="matrix(10 0 0 -10 141.084 58.066)"/><use xlink:href="#h" transform="matrix(10 0 0 -10 148.744 58.066)"/><use xlink:href="#m" transform="matrix(10 0 0 -10 151.124 58.196)"/><use xlink:href="#q" transform="matrix(10 0 0 -10 156.064 58.066)"/><use xlink:href="#r" transform="matrix(10 0 0 -10 160.314 58.196)"/><use xlink:href="#s" transform="matrix(10 0 0 -10 166.754 58.066)"/><use xlink:href="#t" transform="matrix(10 0 0 -10 172.734 58.196)"/><use xlink:href="#j" transform="matrix(10 0 0 -10 178.234 58.196)"/><use xlink:href="#k" transform="matrix(10 0 0 -10 183.834 58.066)"/><use xlink:href="#y" transform="matrix(10 0 0 -10 187.924 58.196)"/><use xlink:href="#j" transform="matrix(10 0 0 -10 193.914 58.196)"/><use xlink:href="#q" transform="matrix(10 0 0 -10 199.784 58.066)"/><use xlink:href="#z" transform="matrix(10 0 0 -10 203.854 58.066)"/><use xlink:href="#j" transform="matrix(10 0 0 -10 212.164 58.196)"/><use xlink:href="#j" transform="matrix(10 0 0 -10 218.314 58.196)"/><use xlink:href="#s" transform="matrix(10 0 0 -10 224.824 58.066)"/><use xlink:href="#k" transform="matrix(10 0 0 -10 230.254 58.066)"/><use xlink:href="#A" transform="matrix(10 0 0 -10 233.994 58.196)"/><use xlink:href="#B" transform="matrix(10 0 0 -10 241.964 58.196)"/><use xlink:href="#k" transform="matrix(10 0 0 -10 247.654 58.066)"/><use xlink:href="#r" transform="matrix(10 0 0 -10 251.434 58.196)"/><use xlink:href="#s" transform="matrix(10 0 0 -10 257.874 58.066)"/><use xlink:href="#C" transform="matrix(10 0 0 -10 263.854 58.196)"/><use xlink:href="#k" transform="matrix(10 0 0 -10 269.654 58.066)"/><use xlink:href="#g" transform="matrix(10 0 0 -10 272.814 58.066)"/><use xlink:href="#B" transform="matrix(10 0 0 -10 279.604 58.196)"/><use xlink:href="#k" transform="matrix(10 0 0 -10 285.294 58.066)"/><use xlink:href="#b" transform="matrix(10 0 0 -10 289.574 58.066)"/><path stroke-width="2.5" stroke-dasharray="9.25,4" stroke-linejoin="round" fill="none" stroke="red" d="M112.104 69.238h20"/><use xlink:href="#p" transform="matrix(10 0 0 -10 141.084 72.738)"/><use xlink:href="#h" transform="matrix(10 0 0 -10 148.744 72.738)"/><use xlink:href="#m" transform="matrix(10 0 0 -10 151.124 72.868)"/><use xlink:href="#q" transform="matrix(10 0 0 -10 156.064 72.738)"/><use xlink:href="#r" transform="matrix(10 0 0 -10 160.314 72.868)"/><use xlink:href="#s" transform="matrix(10 0 0 -10 166.754 72.738)"/><use xlink:href="#t" transform="matrix(10 0 0 -10 172.734 72.868)"/><use xlink:href="#j" transform="matrix(10 0 0 -10 178.234 72.868)"/><use xlink:href="#k" transform="matrix(10 0 0 -10 183.834 72.738)"/><use xlink:href="#y" transform="matrix(10 0 0 -10 187.924 72.868)"/><use xlink:href="#j" transform="matrix(10 0 0 -10 193.914 72.868)"/><use xlink:href="#q" transform="matrix(10 0 0 -10 199.784 72.738)"/><use xlink:href="#z" transform="matrix(10 0 0 -10 203.854 72.738)"/><use xlink:href="#j" transform="matrix(10 0 0 -10 212.164 72.868)"/><use xlink:href="#j" transform="matrix(10 0 0 -10 218.314 72.868)"/><use xlink:href="#s" transform="matrix(10 0 0 -10 224.824 72.738)"/><use xlink:href="#k" transform="matrix(10 0 0 -10 230.254 72.738)"/><use xlink:href="#A" transform="matrix(10 0 0 -10 233.994 72.868)"/><use xlink:href="#B" transform="matrix(10 0 0 -10 241.964 72.868)"/><use xlink:href="#k" transform="matrix(10 0 0 -10 247.654 72.738)"/><use xlink:href="#r" transform="matrix(10 0 0 -10 251.434 72.868)"/><use xlink:href="#s" transform="matrix(10 0 0 -10 257.874 72.738)"/><use xlink:href="#C" transform="matrix(10 0 0 -10 263.854 72.868)"/><use xlink:href="#k" transform="matrix(10 0 0 -10 269.654 72.738)"/><use xlink:href="#g" transform="matrix(10 0 0 -10 272.814 72.738)"/><use xlink:href="#B" transform="matrix(10 0 0 -10 279.604 72.868)"/><use xlink:href="#k" transform="matrix(10 0 0 -10 285.294 72.738)"/><use xlink:href="#c" transform="matrix(10 0 0 -10 289.204 72.738)"/><path d="m119.104 87.785 6-6m-6 0 6 6" fill="orange"/><path stroke-width="2.5" stroke-linejoin="round" fill="none" stroke="orange" d="m119.104 87.785 6-6m-6 0 6 6"/><symbol id="D"><path transform="translate(-.107) scale(.001)" d="M107 124h103V0H107v124z"/></symbol><symbol id="E"><path transform="matrix(.001 0 0 .001 -.106 -.172)" d="M106 454h626v-82H106v82zm0-199h626v-83H106v83z"/></symbol><symbol id="F"><path transform="matrix(.001 0 0 .001 -.068 .013)" d="M318 346c-47 0-84-13-111-38s-40-59-40-103 13-79 40-104 64-37 111-37c46 0 83 12 110 38 27 25 41 59 41 103s-14 78-40 103c-27 25-64 38-111 38zm-99 42c-42 10-75 30-99 59s-35 64-35 106c0 58 20 104 62 138 41 34 98 51 171 51 72 0 129-17 171-51 41-34 62-80 62-138 0-42-12-77-36-106s-56-49-98-59c47-11 84-33 111-65 26-32 40-72 40-118 0-71-22-125-65-162-44-38-106-56-186-56S175 5 132 43c-43 37-64 91-64 162 0 46 13 86 40 118 26 32 63 54 111 65zm-36 156c0-38 11-68 35-89s57-31 100-31c42 0 75 10 99 31s36 51 36 89-12 67-36 88-57 32-99 32c-43 0-76-11-100-32s-35-50-35-88z"/></symbol><use xlink:href="#i" transform="matrix(10 0 0 -10 141.014 87.41)"/><use xlink:href="#h" transform="matrix(10 0 0 -10 150.784 87.41)"/><use xlink:href="#s" transform="matrix(10 0 0 -10 153.534 87.41)"/><use xlink:href="#D" transform="matrix(10 0 0 -10 160.034 87.41)"/><use xlink:href="#k" transform="matrix(10 0 0 -10 162.144 87.41)"/><use xlink:href="#C" transform="matrix(10 0 0 -10 165.874 87.54)"/><use xlink:href="#h" transform="matrix(10 0 0 -10 172.614 87.41)"/><use xlink:href="#m" transform="matrix(10 0 0 -10 174.994 87.54)"/><use xlink:href="#q" transform="matrix(10 0 0 -10 179.934 87.41)"/><use xlink:href="#r" transform="matrix(10 0 0 -10 184.184 87.54)"/><use xlink:href="#s" transform="matrix(10 0 0 -10 190.624 87.41)"/><use xlink:href="#t" transform="matrix(10 0 0 -10 196.604 87.54)"/><use xlink:href="#j" transform="matrix(10 0 0 -10 202.104 87.54)"/><use xlink:href="#k" transform="matrix(10 0 0 -10 207.704 87.41)"/><use xlink:href="#E" transform="matrix(10 0 0 -10 211.944 85.69)"/><use xlink:href="#k" transform="matrix(10 0 0 -10 219.264 87.41)"/><use xlink:href="#b" transform="matrix(10 0 0 -10 223.544 87.41)"/><use xlink:href="#F" transform="matrix(10 0 0 -10 229.484 87.54)"/><use xlink:href="#D" transform="matrix(10 0 0 -10 236.234 87.41)"/><use xlink:href="#a" transform="matrix(10 0 0 -10 239.004 87.54)"/><use xlink:href="#e" transform="matrix(10 0 0 -10 245.194 87.41)"/><use xlink:href="#k" transform="matrix(10 0 0 -10 251.064 87.41)"/><use xlink:href="#i" transform="matrix(10 0 0 -10 255.154 87.41)"/><path d="M119.104 99.456h6m-3 3v-6" fill="green"/><path stroke-width="2.5" stroke-linejoin="round" fill="none" stroke="green" d="M119.104 99.456h6m-3 3v-6"/><use xlink:href="#i" transform="matrix(10 0 0 -10 141.014 102.081)"/><use xlink:href="#h" transform="matrix(10 0 0 -10 150.784 102.081)"/><use xlink:href="#s" transform="matrix(10 0 0 -10 153.534 102.081)"/><use xlink:href="#D" transform="matrix(10 0 0 -10 160.034 102.081)"/><use xlink:href="#k" transform="matrix(10 0 0 -10 162.144 102.081)"/><use xlink:href="#C" transform="matrix(10 0 0 -10 165.874 102.211)"/><use xlink:href="#h" transform="matrix(10 0 0 -10 172.614 102.081)"/><use xlink:href="#m" transform="matrix(10 0 0 -10 174.994 102.211)"/><use xlink:href="#q" transform="matrix(10 0 0 -10 179.934 102.081)"/><use xlink:href="#r" transform="matrix(10 0 0 -10 184.184 102.211)"/><use xlink:href="#s" transform="matrix(10 0 0 -10 190.624 102.081)"/><use xlink:href="#t" transform="matrix(10 0 0 -10 196.604 102.211)"/><use xlink:href="#j" transform="matrix(10 0 0 -10 202.104 102.211)"/><use xlink:href="#k" transform="matrix(10 0 0 -10 207.704 102.081)"/><use xlink:href="#E" transform="matrix(10 0 0 -10 211.944 100.361)"/><use xlink:href="#k" transform="matrix(10 0 0 -10 219.264 102.081)"/><use xlink:href="#b" transform="matrix(10 0 0 -10 223.544 102.081)"/><use xlink:href="#o" transform="matrix(10 0 0 -10 229.624 102.081)"/><use xlink:href="#D" transform="matrix(10 0 0 -10 236.234 102.081)"/><use xlink:href="#a" transform="matrix(10 0 0 -10 239.004 102.211)"/><use xlink:href="#e" transform="matrix(10 0 0 -10 245.194 102.081)"/><use xlink:href="#k" transform="matrix(10 0 0 -10 251.064 102.081)"/><use xlink:href="#i" transform="matrix(10 0 0 -10 255.154 102.081)"/></svg>