<svg xmlns="http://www.w3.org/2000/svg" xmlns:xlink="http://www.w3.org/1999/xlink" width="307pt" height="396" viewBox="0 0 307 297"><clipPath id="a"><path transform="matrix(1 0 0 -1 -63 305)" d="M0 0h460.8v345.6H0z"/></clipPath><g clip-path="url(#a)"><path d="M-63 305h460.8V-40.6H-63z" fill="#fff"/><path d="M40.104 266.984h266.112V.872H40.104z" fill="#fff"/><path stroke-width=".8" stroke-linejoin="round" fill="none" stroke="#000" d="M50.555 266.984v3.5"/><symbol id="b"><path transform="matrix(.001 0 0 .001 -.066 .013)" d="M318 664c-51 0-89-25-115-75s-38-125-38-225 12-175 38-225 64-75 115-75 89 25 115 75c25 50 38 125 38 225s-13 175-38 225c-26 50-64 75-115 75zm0 78c81 0 143-33 187-97 43-65 65-159 65-281 0-123-22-217-65-281-44-64-106-96-188-96S173 19 130 83 66 241 66 364c0 122 21 216 64 281 43 64 106 97 188 97z"/></symbol><use xlink:href="#b" transform="matrix(10 0 0 -10 48.035 281.708)"/><path stroke-width=".8" stroke-linejoin="round" fill="none" stroke="#000" d="M99.671 266.984v3.5"/><symbol id="c"><path transform="translate(-.11) scale(.001)" d="M124 83h161v556l-175-35v90l174 35h99V83h161V0H124v83z"/></symbol><use xlink:href="#c" transform="matrix(10 0 0 -10 94.412 281.578)"/><use xlink:href="#b" transform="matrix(10 0 0 -10 100.332 281.708)"/><path stroke-width=".8" stroke-linejoin="round" fill="none" stroke="#000" d="M148.788 266.984v3.5"/><symbol id="d"><path transform="translate(-.073) scale(.001)" d="M192 83h344V0H73v83c37 38 88 90 153 156 64 65 105 107 122 126 32 35 54 65 66 90 12 24 19 49 19 73 0 38-14 70-41 94s-62 37-106 37c-31 0-64-6-98-16-34-11-71-27-110-49v100c40 16 77 28 111 36s66 12 95 12c75 0 135-19 180-57s68-88 68-151c0-30-6-59-17-85-11-27-31-59-61-95-8-10-34-37-78-82S271 164 192 83z"/></symbol><use xlink:href="#d" transform="matrix(10 0 0 -10 143.159 281.578)"/><use xlink:href="#b" transform="matrix(10 0 0 -10 149.449 281.708)"/><path stroke-width=".8" stroke-linejoin="round" fill="none" stroke="#000" d="M197.905 266.984v3.5"/><symbol id="e"><path transform="matrix(.001 0 0 .001 -.076 .013)" d="M406 393c47-10 84-31 110-63s40-72 40-118c0-72-25-128-74-167-50-39-120-58-211-58-31 0-63 3-95 9-32 5-66 14-100 26v95c27-16 57-28 90-36 32-8 66-12 102-12 62 0 109 12 141 36s49 60 49 107c0 42-15 76-45 100s-72 37-126 37h-85v81h89c48 0 85 9 111 29 26 19 39 47 39 84s-14 66-40 86c-27 20-65 30-114 30-27 0-56-3-87-9s-65-15-102-27v88c37 10 72 18 105 23 32 5 63 8 93 8 74 0 133-17 177-51s66-80 66-138c0-40-12-74-35-102s-56-48-98-58z"/></symbol><use xlink:href="#e" transform="matrix(10 0 0 -10 192.306 281.708)"/><use xlink:href="#b" transform="matrix(10 0 0 -10 198.566 281.708)"/><path stroke-width=".8" stroke-linejoin="round" fill="none" stroke="#000" d="M247.022 266.984v3.5"/><symbol id="f"><path transform="translate(-.049) scale(.001)" d="M378 643 129 254h249v389zm-26 86h124V254h104v-82H476V0h-98v172H49v95l303 462z"/></symbol><use xlink:href="#f" transform="matrix(10 0 0 -10 241.153 281.578)"/><use xlink:href="#b" transform="matrix(10 0 0 -10 247.683 281.708)"/><path stroke-width=".8" stroke-linejoin="round" fill="none" stroke="#000" d="M296.139 266.984v3.5"/><symbol id="g"><path transform="matrix(.001 0 0 .001 -.077 .013)" d="M108 729h387v-83H198V467c14 5 29 9 43 11s29 4 43 4c81 0 145-23 193-67 48-45 72-105 72-181 0-79-25-140-74-183S357-13 269-13c-31 0-62 3-94 7-32 5-64 12-98 23v99c29-16 59-28 91-36 31-8 64-11 99-11 56 0 101 14 134 44 32 30 49 70 49 121 0 50-17 90-49 120-33 30-78 45-134 45-26 0-53-3-79-9s-53-15-80-27v366z"/></symbol><use xlink:href="#g" transform="matrix(10 0 0 -10 290.55 281.708)"/><use xlink:href="#b" transform="matrix(10 0 0 -10 296.8 281.708)"/><symbol id="h"><path transform="translate(.002) scale(.001)" d="M-2 729h616v-83H355V0h-99v646H-2v83z"/></symbol><symbol id="i"><path transform="translate(-.094) scale(.001)" d="M94 547h90V0H94v547zm0 213h90V646H94v114z"/></symbol><symbol id="j"><path transform="translate(-.091) scale(.001)" d="M520 442c22 40 49 69 80 89 31 19 68 29 111 29 56 0 100-20 131-60s47-97 47-170V0h-90v327c0 52-10 91-28 117-19 25-47 38-85 38-47 0-84-16-111-47s-40-73-40-126V0h-90v327c0 52-10 91-28 117-19 25-48 38-86 38-46 0-83-16-110-47s-40-73-40-126V0H91v547h90v-85c20 33 45 58 74 74 28 16 62 24 102 24s73-10 101-30 48-50 62-88z"/></symbol><symbol id="k"><path transform="matrix(.001 0 0 .001 -.055 .013)" d="M562 296v-44H149c4-62 22-110 56-142 33-32 79-48 139-48 34 0 68 4 100 12s65 21 97 39V28c-32-14-65-25-99-31s-69-10-103-10c-88 0-157 25-208 75S55 181 55 268c0 89 24 160 72 213 48 52 114 79 196 79 74 0 132-24 175-71 42-48 64-112 64-193zm-90 26c-1 49-15 88-41 118-27 29-63 44-107 44-50 0-90-15-120-43s-48-68-52-119h320z"/></symbol><symbol id="m"><path transform="matrix(.001 0 0 .001 -.086 .131)" d="M86 760h207v-70H176V-61h117v-70H86v891z"/></symbol><symbol id="n"><path transform="matrix(.001 0 0 .001 -.054 .013)" d="M443 531v-85c-26 12-52 22-79 29-28 6-56 10-85 10-45 0-79-7-101-21s-33-34-33-61c0-21 8-37 24-49s48-24 96-34l31-7c64-14 109-34 136-58 26-25 40-60 40-104 0-51-20-91-60-120-40-30-96-44-166-44-30 0-60 3-92 8S89 8 54 20v93c33-18 66-31 98-39 32-9 64-13 96-13 42 0 75 7 98 21 22 14 34 35 34 62 0 24-9 43-25 56s-52 26-108 38l-31 7c-56 12-97 30-121 54-25 24-37 57-37 100 0 51 18 91 54 119s88 42 156 42c33 0 64-3 94-8 29-5 56-12 81-21z"/></symbol><symbol id="o"><path transform="matrix(.001 0 0 .001 -.097 .131)" d="M304 760v-891H97v70h117v751H97v70h207z"/></symbol><use xlink:href="#h" transform="matrix(10 0 0 -10 152.757 295.25)"/><use xlink:href="#i" transform="matrix(10 0 0 -10 159.53 295.25)"/><use xlink:href="#j" transform="matrix(10 0 0 -10 162.28 295.25)"/><use xlink:href="#k" transform="matrix(10 0 0 -10 171.66 295.38)"/><use xlink:href="#l" transform="matrix(10 0 0 -10 177.26 295.25)"/><use xlink:href="#m" transform="matrix(10 0 0 -10 181.3 296.56)"/><use xlink:href="#n" transform="matrix(10 0 0 -10 184.88 295.38)"/><use xlink:href="#o" transform="matrix(10 0 0 -10 190.52 296.56)"/><path stroke-width=".8" stroke-linejoin="round" fill="none" stroke="#000" d="M40.104 252.405h-3.5"/><symbol id="p"><path transform="matrix(.001 0 0 .001 -.07 .013)" d="M330 404c-44 0-79-16-105-46s-39-72-39-124c0-53 13-95 39-125s61-45 105-45 79 15 105 45 39 72 39 125c0 52-13 94-39 124s-61 46-105 46zm196 309v-90c-25 12-50 21-75 27-26 6-51 9-75 9-66 0-116-22-150-66s-54-111-58-199c19 28 43 50 72 65s61 23 96 23c73 0 131-23 173-67s64-105 64-181c0-75-23-135-67-180S403-13 330-13c-84 0-149 32-193 96-45 64-67 158-67 281 0 115 27 207 82 275 54 68 128 103 220 103 24 0 49-3 75-7 25-5 51-12 79-22z"/></symbol><use xlink:href="#p" transform="matrix(10 0 0 -10 21.085 256.331)"/><use xlink:href="#b" transform="matrix(10 0 0 -10 27.405 256.331)"/><path stroke-width=".8" stroke-linejoin="round" fill="none" stroke="#000" d="M40.104 211.735h-3.5"/><symbol id="q"><path transform="matrix(.001 0 0 .001 -.068 .013)" d="M318 346c-47 0-84-13-111-38s-40-59-40-103 13-79 40-104 64-37 111-37c46 0 83 12 110 38 27 25 41 59 41 103s-14 78-40 103c-27 25-64 38-111 38zm-99 42c-42 10-75 30-99 59s-35 64-35 106c0 58 20 104 62 138 41 34 98 51 171 51 72 0 129-17 171-51 41-34 62-80 62-138 0-42-12-77-36-106s-56-49-98-59c47-11 84-33 111-65 26-32 40-72 40-118 0-71-22-125-65-162-44-38-106-56-186-56S175 5 132 43c-43 37-64 91-64 162 0 46 13 86 40 118 26 32 63 54 111 65zm-36 156c0-38 11-68 35-89s57-31 100-31c42 0 75 10 99 31s36 51 36 89-12 67-36 88-57 32-99 32c-43 0-76-11-100-32s-35-50-35-88z"/></symbol><use xlink:href="#q" transform="matrix(10 0 0 -10 21.065 215.662)"/><use xlink:href="#b" transform="matrix(10 0 0 -10 27.405 215.662)"/><path stroke-width=".8" stroke-linejoin="round" fill="none" stroke="#000" d="M40.104 171.066h-3.5"/><use xlink:href="#c" transform="matrix(10 0 0 -10 15.126 174.863)"/><use xlink:href="#b" transform="matrix(10 0 0 -10 21.046 174.993)"/><use xlink:href="#b" transform="matrix(10 0 0 -10 27.406 174.993)"/><path stroke-width=".8" stroke-linejoin="round" fill="none" stroke="#000" d="M40.104 130.397h-3.5"/><use xlink:href="#c" transform="matrix(10 0 0 -10 15.126 134.194)"/><use xlink:href="#d" transform="matrix(10 0 0 -10 21.116 134.194)"/><use xlink:href="#b" transform="matrix(10 0 0 -10 27.406 134.324)"/><path stroke-width=".8" stroke-linejoin="round" fill="none" stroke="#000" d="M40.104 89.728h-3.5"/><use xlink:href="#c" transform="matrix(10 0 0 -10 15.126 93.524)"/><use xlink:href="#f" transform="matrix(10 0 0 -10 20.876 93.524)"/><use xlink:href="#b" transform="matrix(10 0 0 -10 27.406 93.654)"/><path stroke-width=".8" stroke-linejoin="round" fill="none" stroke="#000" d="M40.104 49.058h-3.5"/><use xlink:href="#c" transform="matrix(10 0 0 -10 15.126 52.855)"/><use xlink:href="#p" transform="matrix(10 0 0 -10 21.086 52.985)"/><use xlink:href="#b" transform="matrix(10 0 0 -10 27.406 52.985)"/><path stroke-width=".8" stroke-linejoin="round" fill="none" stroke="#000" d="M40.104 8.389h-3.5"/><use xlink:href="#c" transform="matrix(10 0 0 -10 15.126 12.186)"/><use xlink:href="#q" transform="matrix(10 0 0 -10 21.066 12.316)"/><use xlink:href="#b" transform="matrix(10 0 0 -10 27.406 12.316)"/><symbol id="r"><path transform="matrix(.001 0 0 .001 -.056 .013)" d="M394 662c-72 0-129-27-171-80-42-54-63-126-63-218s21-165 63-218c42-54 99-80 171-80 71 0 128 26 170 80 42 53 63 126 63 218s-21 164-63 218c-42 53-99 80-170 80zm0 80c102 0 183-35 245-103 61-68 92-160 92-275 0-116-31-207-92-275C577 21 496-13 394-13 291-13 209 21 148 89c-62 68-92 159-92 275 0 115 30 207 92 275 61 68 143 103 246 103z"/></symbol><symbol id="s"><path transform="translate(-.091) scale(.001)" d="M411 463c-10 6-21 10-33 13-12 2-25 4-39 4-51 0-90-17-117-50-28-33-41-80-41-142V0H91v547h90v-85c18 33 43 58 73 74s67 24 111 24c6 0 13-1 21-1 7-1 15-2 25-4v-92z"/></symbol><symbol id="t"><path transform="translate(-.027) scale(.001)" d="M183 702V547h185v-70H183V180c0-45 6-74 18-86 12-13 37-19 75-19h92V0h-92c-70 0-118 13-144 39s-39 73-39 141v297H27v70h66v155h90z"/></symbol><symbol id="u"><path transform="translate(-.091) scale(.001)" d="M549 330V0h-90v327c0 52-11 90-31 116s-50 39-90 39c-49 0-87-16-115-47s-42-73-42-126V0H91v547h90v-85c21 32 46 57 76 73 29 16 63 25 101 25 62 0 110-20 142-59s49-96 49-171z"/></symbol><symbol id="v"><path transform="matrix(.001 0 0 .001 -.06 .013)" d="M343 275c-73 0-123-9-151-25-28-17-42-45-42-85 0-32 10-58 31-76 21-19 50-28 86-28 50 0 90 17 120 53 30 35 45 82 45 141v20h-89zm179 37V0h-90v83c-21-34-47-58-77-73s-68-23-112-23c-56 0-101 15-134 46s-49 73-49 126c0 61 20 107 62 139 41 31 102 47 184 47h126v9c0 41-14 73-41 96-27 22-65 34-114 34-32 0-62-4-92-12s-58-19-85-33v83c32 12 64 22 95 28s61 10 91 10c79 0 138-21 177-62s59-103 59-186z"/></symbol><symbol id="w"><path transform="matrix(.001 0 0 .001 -.055 .013)" d="M306 484c-48 0-86-19-114-57s-42-89-42-154c0-66 13-117 41-155s66-56 115-56c48 0 86 18 114 56s42 89 42 155c0 64-14 116-42 154s-66 57-114 57zm0 76c78 0 139-26 184-76 44-51 67-121 67-211s-23-160-67-210c-45-51-106-76-184-76-79 0-141 25-185 76-44 50-66 120-66 210s22 160 66 211c44 50 106 76 185 76z"/></symbol><symbol id="x"><path transform="matrix(.001 0 0 .001 -.095 -.432)" d="M250 679c-26 0-48-9-66-27s-27-40-27-66 9-48 27-66 40-26 66-26 48 8 66 26 27 40 27 66-9 48-27 66-40 27-66 27zm0 63c20 0 40-4 60-12 19-8 36-20 50-34 14-15 25-32 33-50 8-19 12-39 12-60 0-44-16-80-46-110s-67-44-110-44c-44 0-81 14-110 44-30 29-44 66-44 110 0 43 15 80 45 110s66 46 110 46z"/></symbol><use xlink:href="#r" transform="matrix(0 -10 -10 0 8.078 171.571)"/><use xlink:href="#s" transform="matrix(0 -10 -10 0 7.948 163.351)"/><use xlink:href="#i" transform="matrix(0 -10 -10 0 7.948 159.211)"/><use xlink:href="#t" transform="matrix(0 -10 -10 0 7.948 157.101)"/><use xlink:href="#k" transform="matrix(0 -10 -10 0 8.078 152.901)"/><use xlink:href="#u" transform="matrix(0 -10 -10 0 7.948 146.391)"/><use xlink:href="#t" transform="matrix(0 -10 -10 0 7.948 140.691)"/><use xlink:href="#v" transform="matrix(0 -10 -10 0 8.078 136.441)"/><use xlink:href="#t" transform="matrix(0 -10 -10 0 7.948 130.641)"/><use xlink:href="#i" transform="matrix(0 -10 -10 0 7.948 126.051)"/><use xlink:href="#w" transform="matrix(0 -10 -10 0 8.078 123.661)"/><use xlink:href="#u" transform="matrix(0 -10 -10 0 7.948 117.181)"/><use xlink:href="#l" transform="matrix(0 -10 -10 0 7.948 111.751)"/><use xlink:href="#m" transform="matrix(0 -10 -10 0 9.258 107.711)"/><use xlink:href="#x" transform="matrix(0 -10 -10 0 3.628 103.721)"/><use xlink:href="#o" transform="matrix(0 -10 -10 0 9.258 98.701)"/><clipPath id="y"><path transform="matrix(1 0 0 -1 -63 305)" d="M103.104 38.016h266.112v266.112H103.104z"/></clipPath><g clip-path="url(#y)"><path stroke-width="2.5" stroke-linecap="square" stroke-linejoin="round" fill="none" stroke="teal" d="M52.2 191.398h.059l.098.274.113-.274.369.31 1.08-.166.6-.272.117.003.167-.118.305.01.21-.11.418-.04.275-.152.074.11.211-.099.884-.221.384-.083.417-.175.108.1.924-.51.122.05.094-.175.27.015.815-.14 1.479.175.378.092.088-.04.206.087.791.053.202.086.77.091.305.085.3-.038.216.084.069-.04.304.124.089-.04.398.125.5.084.182.123.103-.04.388.163 1.307.408.275.081.84.243.344 2.302.245 1.122.324.142.266-.504 1.35-5.706.762-3.994.23-1.004.222-1.16 2.131-8.985.639-2.665.997-6.546 2.186-20.786.181-2.27.855-7.035.123-.784.319-3.405.398-3.086.334-2.448.398-3.306.26-2.113.427-3.913.28-2.555.776-9.297 1.15-9.635.235-1.252 1.631-9.924.476.503.379-.103.486-1.041 2.053-9.687 2.431-13.929 2.85-14.425.475-2.836.413-2.217.83-4.194.447-1.941 2.52-9.408 2.053-4.331.388-.484.746-.723.786-.638 1.115-.484.374-.072.245-1.723.61-1.97.196-.163.216.157.471.984.28 1.364 1.867 11.185.776 9.084.373 3.795.653 8.044.516 6.897 2.377 44.513.585 12.902 1.169 28.94.997 27.271.368 11.337 2.377 58.796.57 8.595.89 7.216.294.822.29-.079.452-.832.353-1.327.24-.664.33-1.217.403-.867.201-.404.87-1.504.407-1.194.486-1.91.492-2.402.8-5.229.388-3.091 1.312-11.574.545-5.787 1.188-11.464.477-4.554 1.37-10.151.59-2.776.962-2.461.61-.535.476.09.32.262.854 1.285.348.267.26.49.384.493.427.493.482.722.79 1.581.683 1.77.29.827 1.184 3.89.682 2.17.835 1.837.32.344.329 1.831.535 1.371.32.371.309.028.447-.57.334-.837 1.183-5.172.408-1.604.398-1.447 1.311-6.223.29-2.002.54-3.224.359-2.404.378-2.931.766-6.676 1.105-11.123.31-3.74.5-4.871.782-9.183.408-4.474.397-5.232 3.846-43.05 1.08-9.672.37-2.65.377-2.004.447-1.105.305-.273.142.022.241.363.255.419.487.683.948 1.02 1.478 1.406.766 1.344 1.867 6.47 3.472 11.992.413 1.02.78 2.026 2.113 5.894.177.364.378-3.118.22-.307.202.246.231.953 2.397 22.218.31 2.264.982 8.104 1.67 16.93.304 3.502 1.63 22.762 1.204 18.779.202 3.277.363 6.332.408 6.184.673 9.964 1.282 14.09.894 5.685.48 1.4.315.085.28-.223 1.872-3.668.8-.96 1.032-2.268.437-1.874.393-1.923.21-.98 1.95-11.622.821-4.422.157-1.177.506-2.52.378-2.022.487-2.34.393-1.763.26-.838.25-1.122.143-.245.24-.886.389-1.01.196-.396 1.115-1.437.555-.35.481-.08.708.316.284.398.26.123.128.186.334.56.555.984 1.268 1.767 2.45 2.946.104.01.088.202.211.173.673.704 2.274 2.962 1.268.97.304.108.31.153.171-.005.403.152.202-.011.196.114.314.044.472.127.088-.038.212.082.496.056.27.127.103-.083.211.039.295.032 2.559.264.182-.044.402-.013.472.081.108-.159.285.077 3.241-.25.212-.077.108.077.28-.09.967.013.624.036.172-.044 4.155.066.27.039.644.012.128.05.113-.044.181.033 2.579.241.29.033.083-.071.108.103.364-.077.196.071.349-.006.678.032.383.057.3-.032.27.077h.21l.521.045.659.039.397.127.187-.051.305-.013.284-.006 3.159.102.098-.045.113.116.059-.077 3.35.121.196-.051.211.026.988.057.068-.077.207.11.5-.077.207.077 2.254.077h.182l.963.02.108.096.236-.02.27-.006.206.032.378-.045.3.032 1.783.097.24-.007 2.078.129.31-.02 1.586.02.972.006.315.046.162-.046.32.046.18-.007.993.039.413.045.28.038 2.573.039.084-.032.078.116.108-.09.104.083.304-.084.206.11.172-.032.487.006.402.116.506-.09.202.07.761.033 13.66.675.181-.045.604.072.28.018.968.038.314-.013.324.065.575.066.093-.052.128.097.044-.07.344.045.968-.072.093.09.383-.077.187.102.226-.038.068.032.305-.084.403.07.59.039.48.07.384-.025.324.063.186-.004.192.045.683-.059.216.032.584-.007.197.109.196-.046 1.267.088.3.046"/></g><clipPath id="z"><path transform="matrix(1 0 0 -1 -63 305)" d="M103.104 38.016h266.112v266.112H103.104z"/></clipPath><g clip-path="url(#z)"><path stroke-width="2.5" stroke-dasharray="9.25,4" stroke-linejoin="round" fill="none" stroke="red" d="m52.2 192.56 16.842.082.108-62.245h.698l.157-6.1h2.79l.23 6.1h.752l.221-6.1h1.528l.108 6.1h2.156l.216-6.1h.363l.084-6.101h.275l.113-6.1h.359l.181-6.1h.103l.128-6.101h1.798l.177 6.1h1.395l.122-6.1h.167l.153-6.1h.127l.153-6.1h.068l.128-6.101h.142l.133-6.1h.31l.142 6.1h.447l.172 6.1h.79l.094-61.004h17.77l.158 173.902.957.36.62.278.805.317 1.115.476 2.966 1.486 3.645 1.032 2.25.363 2.052.085 2.053-.147 9.357-.802 3.242.135 6.768.406 1.626.053.074-62.036h1.596l.167 6.1h.756l.153-6.1h1.326l.191-6.1h1.297l.162-6.101h.948l.197-6.1h.702l.137-6.101h.634l.172-6.1h.575l.191-6.1h21.071l.133 106.14.796.305.952.377 1.508.721 2.103.771 2.22.577 2.75.425 2.245.084 2.868-.156 6.656-.374 3.477.088 17.152.889 22.603.78 27.014 1.109 22.81 1.158 6.97.412"/></g><path stroke-width=".8" stroke-linecap="square" stroke-miterlimit="10" fill="none" stroke="#000" d="M40.104 266.984V.872M306.216 266.984V.872M40.104 266.984h266.112M40.104.872h266.112"/><path d="M145.857 38.216h153.359c1.333 0 2-.667 2-2V7.872c0-1.333-.667-2-2-2h-153.36c-1.333 0-2 .667-2 2v28.344c0 1.333.667 2 2 2z" fill="#fff" fill-opacity=".8"/><path stroke-miterlimit="10" fill="none" stroke="#d5d6d5" stroke-opacity=".8" d="M145.857 38.216h153.359c1.333 0 2-.667 2-2V7.872c0-1.333-.667-2-2-2h-153.36c-1.333 0-2 .667-2 2v28.344c0 1.333.667 2 2 2z"/><path stroke-width="2.5" stroke-linecap="square" stroke-linejoin="round" fill="none" stroke="teal" d="M147.857 13.966h20"/><symbol id="A"><path transform="matrix(.001 0 0 .001 -.056 .013)" d="M644 673V569c-34 30-69 53-107 69-38 15-77 23-119 23-84 0-148-26-192-77s-66-124-66-220 22-170 66-221 108-76 192-76c42 0 81 7 119 23 38 15 73 38 107 69V56c-35-24-72-41-110-52s-79-17-122-17C302-13 215 20 151 87S56 246 56 364c0 117 31 209 95 277 64 67 151 101 261 101 44 0 85-6 123-17 38-12 75-29 109-52z"/></symbol><symbol id="B"><path transform="matrix(.001 0 0 .001 -.085 .013)" d="M85 216v331h90V219c0-52 10-90 30-116s50-39 91-39c48 0 87 15 115 46s42 73 42 127v310h90V0h-90v84c-22-34-48-58-76-74-29-15-62-23-100-23-63 0-111 19-143 58-33 38-49 95-49 171zm226 344z"/></symbol><symbol id="C"><path transform="matrix(.001 0 0 .001 -.086 .131)" d="M310 759c-44-76-76-150-97-223-22-73-32-147-32-222 0-76 10-150 32-223 21-74 53-147 97-222h-78C183-54 146 20 122 94S86 241 86 314c0 72 12 145 36 219s60 149 110 226h78z"/></symbol><symbol id="D"><path transform="matrix(.001 0 0 .001 -.066 .013)" d="M535 705v-96c-38 18-73 31-106 40-34 8-66 13-96 13-54 0-96-11-125-31-29-21-43-51-43-89 0-32 9-57 29-73 19-17 56-30 110-40l60-12c73-14 127-39 162-74 35-36 53-83 53-142 0-71-24-124-71-160-48-36-117-54-208-54-35 0-72 4-111 11S110 16 69 32v102c40-23 79-40 117-51 38-12 76-17 114-17 56 0 99 11 130 33 30 22 46 53 46 95 0 36-11 64-33 84s-58 35-108 45l-60 12c-74 14-127 37-160 69-33 31-49 74-49 130 0 64 22 115 68 152 45 37 108 56 188 56 34 0 68-3 104-9 35-6 71-16 109-28z"/></symbol><symbol id="E"><path transform="matrix(.001 0 0 .001 -.08 .131)" d="M80 759h78c48-77 85-152 109-226s37-147 37-219c0-73-13-146-37-220S206-54 158-131H80c43 75 75 148 97 222 21 73 32 147 32 223 0 75-11 149-32 222-22 73-54 147-97 223z"/></symbol><use xlink:href="#A" transform="matrix(10 0 0 -10 176.417 17.596)"/><use xlink:href="#B" transform="matrix(10 0 0 -10 183.687 17.596)"/><use xlink:href="#s" transform="matrix(10 0 0 -10 190.087 17.466)"/><use xlink:href="#s" transform="matrix(10 0 0 -10 194.025 17.466)"/><use xlink:href="#k" transform="matrix(10 0 0 -10 197.556 17.596)"/><use xlink:href="#u" transform="matrix(10 0 0 -10 204.066 17.466)"/><use xlink:href="#t" transform="matrix(10 0 0 -10 209.766 17.466)"/><use xlink:href="#l" transform="matrix(10 0 0 -10 213.416 17.466)"/><use xlink:href="#w" transform="matrix(10 0 0 -10 217.146 17.596)"/><use xlink:href="#s" transform="matrix(10 0 0 -10 223.626 17.466)"/><use xlink:href="#i" transform="matrix(10 0 0 -10 227.766 17.466)"/><use xlink:href="#k" transform="matrix(10 0 0 -10 230.156 17.596)"/><use xlink:href="#u" transform="matrix(10 0 0 -10 236.666 17.466)"/><use xlink:href="#t" transform="matrix(10 0 0 -10 242.366 17.466)"/><use xlink:href="#v" transform="matrix(10 0 0 -10 246.616 17.596)"/><use xlink:href="#t" transform="matrix(10 0 0 -10 252.416 17.466)"/><use xlink:href="#i" transform="matrix(10 0 0 -10 257.006 17.466)"/><use xlink:href="#w" transform="matrix(10 0 0 -10 259.396 17.596)"/><use xlink:href="#u" transform="matrix(10 0 0 -10 265.876 17.466)"/><use xlink:href="#l" transform="matrix(10 0 0 -10 271.306 17.466)"/><use xlink:href="#C" transform="matrix(10 0 0 -10 275.346 18.776)"/><use xlink:href="#r" transform="matrix(10 0 0 -10 278.946 17.596)"/><use xlink:href="#D" transform="matrix(10 0 0 -10 286.916 17.596)"/><use xlink:href="#E" transform="matrix(10 0 0 -10 293.406 18.776)"/><path stroke-width="2.5" stroke-dasharray="9.25,4" stroke-linejoin="round" fill="none" stroke="red" d="M147.857 28.638h20"/><symbol id="F"><path transform="translate(-.098) scale(.001)" d="M197 648V81h119c100 0 174 22 221 68 46 46 70 118 70 216s-24 169-70 215c-47 45-121 68-221 68H197zm-99 81h203c141 0 245-30 311-88 66-59 99-151 99-276 0-126-34-218-100-277S441 0 301 0H98v729z"/></symbol><symbol id="G"><path transform="matrix(.001 0 0 .001 -.055 .013)" d="M454 464v296h90V0h-90v82c-19-33-43-57-72-72s-63-23-103-23c-66 0-120 26-162 78S55 187 55 273s20 155 62 208c42 52 96 79 162 79 40 0 74-8 103-24s53-40 72-72zM148 273c0-66 13-118 40-156s64-56 112-56 85 18 113 56c27 38 41 90 41 156s-14 117-41 155c-28 38-65 57-113 57s-85-19-112-57-40-89-40-155z"/></symbol><use xlink:href="#F" transform="matrix(10 0 0 -10 176.837 32.138)"/><use xlink:href="#k" transform="matrix(10 0 0 -10 184.107 32.268)"/><use xlink:href="#n" transform="matrix(10 0 0 -10 190.247 32.268)"/><use xlink:href="#i" transform="matrix(10 0 0 -10 195.857 32.138)"/><use xlink:href="#s" transform="matrix(10 0 0 -10 198.607 32.138)"/><use xlink:href="#k" transform="matrix(10 0 0 -10 202.138 32.268)"/><use xlink:href="#G" transform="matrix(10 0 0 -10 208.288 32.268)"/><use xlink:href="#l" transform="matrix(10 0 0 -10 214.088 32.138)"/><use xlink:href="#w" transform="matrix(10 0 0 -10 217.818 32.268)"/><use xlink:href="#s" transform="matrix(10 0 0 -10 224.298 32.138)"/><use xlink:href="#i" transform="matrix(10 0 0 -10 228.438 32.138)"/><use xlink:href="#k" transform="matrix(10 0 0 -10 230.828 32.268)"/><use xlink:href="#u" transform="matrix(10 0 0 -10 237.338 32.138)"/><use xlink:href="#t" transform="matrix(10 0 0 -10 243.038 32.138)"/><use xlink:href="#v" transform="matrix(10 0 0 -10 247.288 32.268)"/><use xlink:href="#t" transform="matrix(10 0 0 -10 253.088 32.138)"/><use xlink:href="#i" transform="matrix(10 0 0 -10 257.678 32.138)"/><use xlink:href="#w" transform="matrix(10 0 0 -10 260.068 32.268)"/><use xlink:href="#u" transform="matrix(10 0 0 -10 266.548 32.138)"/><use xlink:href="#l" transform="matrix(10 0 0 -10 271.978 32.138)"/><use xlink:href="#C" transform="matrix(10 0 0 -10 276.018 33.448)"/><use xlink:href="#r" transform="matrix(10 0 0 -10 279.618 32.268)"/><use xlink:href="#D" transform="matrix(10 0 0 -10 287.588 32.268)"/><use xlink:href="#E" transform="matrix(10 0 0 -10 294.078 33.448)"/></g></svg>