<svg xmlns="http://www.w3.org/2000/svg" xmlns:xlink="http://www.w3.org/1999/xlink" width="614.4" height="460.8" viewBox="0 0 460.8 345.6"><path d="M0 345.6h460.8V0H0z" fill="#fff"/><path d="M103.104 307.584h266.112V41.472H103.104z" fill="#fff"/><path stroke-width=".8" stroke-linejoin="round" fill="none" stroke="#000" d="M113.555 307.584v3.5"/><symbol id="a"><path transform="matrix(.001 0 0 .001 -.066 .013)" d="M318 664c-51 0-89-25-115-75s-38-125-38-225 12-175 38-225 64-75 115-75 89 25 115 75c25 50 38 125 38 225s-13 175-38 225c-26 50-64 75-115 75zm0 78c81 0 143-33 187-97 43-65 65-159 65-281 0-123-22-217-65-281-44-64-106-96-188-96S173 19 130 83 66 241 66 364c0 122 21 216 64 281 43 64 106 97 188 97z"/></symbol><use xlink:href="#a" transform="matrix(10 0 0 -10 111.035 322.308)"/><path stroke-width=".8" stroke-linejoin="round" fill="none" stroke="#000" d="M162.671 307.584v3.5"/><symbol id="b"><path transform="translate(-.11) scale(.001)" d="M124 83h161v556l-175-35v90l174 35h99V83h161V0H124v83z"/></symbol><use xlink:href="#b" transform="matrix(10 0 0 -10 157.412 322.178)"/><use xlink:href="#a" transform="matrix(10 0 0 -10 163.332 322.308)"/><path stroke-width=".8" stroke-linejoin="round" fill="none" stroke="#000" d="M211.788 307.584v3.5"/><symbol id="c"><path transform="translate(-.073) scale(.001)" d="M192 83h344V0H73v83c37 38 88 90 153 156 64 65 105 107 122 126 32 35 54 65 66 90 12 24 19 49 19 73 0 38-14 70-41 94s-62 37-106 37c-31 0-64-6-98-16-34-11-71-27-110-49v100c40 16 77 28 111 36s66 12 95 12c75 0 135-19 180-57s68-88 68-151c0-30-6-59-17-85-11-27-31-59-61-95-8-10-34-37-78-82S271 164 192 83z"/></symbol><use xlink:href="#c" transform="matrix(10 0 0 -10 206.159 322.178)"/><use xlink:href="#a" transform="matrix(10 0 0 -10 212.449 322.308)"/><path stroke-width=".8" stroke-linejoin="round" fill="none" stroke="#000" d="M260.905 307.584v3.5"/><symbol id="d"><path transform="matrix(.001 0 0 .001 -.076 .013)" d="M406 393c47-10 84-31 110-63s40-72 40-118c0-72-25-128-74-167-50-39-120-58-211-58-31 0-63 3-95 9-32 5-66 14-100 26v95c27-16 57-28 90-36 32-8 66-12 102-12 62 0 109 12 141 36s49 60 49 107c0 42-15 76-45 100s-72 37-126 37h-85v81h89c48 0 85 9 111 29 26 19 39 47 39 84s-14 66-40 86c-27 20-65 30-114 30-27 0-56-3-87-9s-65-15-102-27v88c37 10 72 18 105 23 32 5 63 8 93 8 74 0 133-17 177-51s66-80 66-138c0-40-12-74-35-102s-56-48-98-58z"/></symbol><use xlink:href="#d" transform="matrix(10 0 0 -10 255.306 322.308)"/><use xlink:href="#a" transform="matrix(10 0 0 -10 261.566 322.308)"/><path stroke-width=".8" stroke-linejoin="round" fill="none" stroke="#000" d="M310.022 307.584v3.5"/><symbol id="e"><path transform="translate(-.049) scale(.001)" d="M378 643 129 254h249v389zm-26 86h124V254h104v-82H476V0h-98v172H49v95l303 462z"/></symbol><use xlink:href="#e" transform="matrix(10 0 0 -10 304.152 322.178)"/><use xlink:href="#a" transform="matrix(10 0 0 -10 310.683 322.308)"/><path stroke-width=".8" stroke-linejoin="round" fill="none" stroke="#000" d="M359.139 307.584v3.5"/><symbol id="f"><path transform="matrix(.001 0 0 .001 -.077 .013)" d="M108 729h387v-83H198V467c14 5 29 9 43 11s29 4 43 4c81 0 145-23 193-67 48-45 72-105 72-181 0-79-25-140-74-183S357-13 269-13c-31 0-62 3-94 7-32 5-64 12-98 23v99c29-16 59-28 91-36 31-8 64-11 99-11 56 0 101 14 134 44 32 30 49 70 49 121 0 50-17 90-49 120-33 30-78 45-134 45-26 0-53-3-79-9s-53-15-80-27v366z"/></symbol><use xlink:href="#f" transform="matrix(10 0 0 -10 353.55 322.308)"/><use xlink:href="#a" transform="matrix(10 0 0 -10 359.8 322.308)"/><symbol id="g"><path transform="translate(.002) scale(.001)" d="M-2 729h616v-83H355V0h-99v646H-2v83z"/></symbol><symbol id="h"><path transform="translate(-.094) scale(.001)" d="M94 547h90V0H94v547zm0 213h90V646H94v114z"/></symbol><symbol id="i"><path transform="translate(-.091) scale(.001)" d="M520 442c22 40 49 69 80 89 31 19 68 29 111 29 56 0 100-20 131-60s47-97 47-170V0h-90v327c0 52-10 91-28 117-19 25-47 38-85 38-47 0-84-16-111-47s-40-73-40-126V0h-90v327c0 52-10 91-28 117-19 25-48 38-86 38-46 0-83-16-110-47s-40-73-40-126V0H91v547h90v-85c20 33 45 58 74 74 28 16 62 24 102 24s73-10 101-30 48-50 62-88z"/></symbol><symbol id="j"><path transform="matrix(.001 0 0 .001 -.055 .013)" d="M562 296v-44H149c4-62 22-110 56-142 33-32 79-48 139-48 34 0 68 4 100 12s65 21 97 39V28c-32-14-65-25-99-31s-69-10-103-10c-88 0-157 25-208 75S55 181 55 268c0 89 24 160 72 213 48 52 114 79 196 79 74 0 132-24 175-71 42-48 64-112 64-193zm-90 26c-1 49-15 88-41 118-27 29-63 44-107 44-50 0-90-15-120-43s-48-68-52-119h320z"/></symbol><symbol id="l"><path transform="matrix(.001 0 0 .001 -.086 .131)" d="M86 760h207v-70H176V-61h117v-70H86v891z"/></symbol><symbol id="m"><path transform="matrix(.001 0 0 .001 -.054 .013)" d="M443 531v-85c-26 12-52 22-79 29-28 6-56 10-85 10-45 0-79-7-101-21s-33-34-33-61c0-21 8-37 24-49s48-24 96-34l31-7c64-14 109-34 136-58 26-25 40-60 40-104 0-51-20-91-60-120-40-30-96-44-166-44-30 0-60 3-92 8S89 8 54 20v93c33-18 66-31 98-39 32-9 64-13 96-13 42 0 75 7 98 21 22 14 34 35 34 62 0 24-9 43-25 56s-52 26-108 38l-31 7c-56 12-97 30-121 54-25 24-37 57-37 100 0 51 18 91 54 119s88 42 156 42c33 0 64-3 94-8 29-5 56-12 81-21z"/></symbol><symbol id="n"><path transform="matrix(.001 0 0 .001 -.097 .131)" d="M304 760v-891H97v70h117v751H97v70h207z"/></symbol><use xlink:href="#g" transform="matrix(10 0 0 -10 215.757 335.85)"/><use xlink:href="#h" transform="matrix(10 0 0 -10 222.53 335.85)"/><use xlink:href="#i" transform="matrix(10 0 0 -10 225.28 335.85)"/><use xlink:href="#j" transform="matrix(10 0 0 -10 234.66 335.98)"/><use xlink:href="#k" transform="matrix(10 0 0 -10 240.26 335.85)"/><use xlink:href="#l" transform="matrix(10 0 0 -10 244.3 337.16)"/><use xlink:href="#m" transform="matrix(10 0 0 -10 247.88 335.98)"/><use xlink:href="#n" transform="matrix(10 0 0 -10 253.52 337.16)"/><path stroke-width=".8" stroke-linejoin="round" fill="none" stroke="#000" d="M103.104 272.113h-3.5"/><symbol id="o"><path transform="translate(-.107) scale(.001)" d="M107 124h103V0H107v124z"/></symbol><use xlink:href="#b" transform="matrix(10 0 0 -10 81.298 275.91)"/><use xlink:href="#o" transform="matrix(10 0 0 -10 87.628 275.91)"/><use xlink:href="#a" transform="matrix(10 0 0 -10 90.398 276.04)"/><path stroke-width=".8" stroke-linejoin="round" fill="none" stroke="#000" d="M103.104 225.619h-3.5"/><use xlink:href="#b" transform="matrix(10 0 0 -10 81.298 229.415)"/><use xlink:href="#o" transform="matrix(10 0 0 -10 87.628 229.415)"/><use xlink:href="#f" transform="matrix(10 0 0 -10 90.508 229.545)"/><path stroke-width=".8" stroke-linejoin="round" fill="none" stroke="#000" d="M103.104 179.124h-3.5"/><use xlink:href="#c" transform="matrix(10 0 0 -10 80.928 182.92)"/><use xlink:href="#o" transform="matrix(10 0 0 -10 87.628 182.92)"/><use xlink:href="#a" transform="matrix(10 0 0 -10 90.398 183.05)"/><path stroke-width=".8" stroke-linejoin="round" fill="none" stroke="#000" d="M103.104 132.63h-3.5"/><use xlink:href="#c" transform="matrix(10 0 0 -10 80.928 136.426)"/><use xlink:href="#o" transform="matrix(10 0 0 -10 87.628 136.426)"/><use xlink:href="#f" transform="matrix(10 0 0 -10 90.508 136.556)"/><path stroke-width=".8" stroke-linejoin="round" fill="none" stroke="#000" d="M103.104 86.134h-3.5"/><use xlink:href="#d" transform="matrix(10 0 0 -10 80.958 90.061)"/><use xlink:href="#o" transform="matrix(10 0 0 -10 87.628 89.931)"/><use xlink:href="#a" transform="matrix(10 0 0 -10 90.398 90.061)"/><symbol id="p"><path transform="matrix(.001 0 0 .001 -.066 .013)" d="M535 705v-96c-38 18-73 31-106 40-34 8-66 13-96 13-54 0-96-11-125-31-29-21-43-51-43-89 0-32 9-57 29-73 19-17 56-30 110-40l60-12c73-14 127-39 162-74 35-36 53-83 53-142 0-71-24-124-71-160-48-36-117-54-208-54-35 0-72 4-111 11S110 16 69 32v102c40-23 79-40 117-51 38-12 76-17 114-17 56 0 99 11 130 33 30 22 46 53 46 95 0 36-11 64-33 84s-58 35-108 45l-60 12c-74 14-127 37-160 69-33 31-49 74-49 130 0 64 22 115 68 152 45 37 108 56 188 56 34 0 68-3 104-9 35-6 71-16 109-28z"/></symbol><symbol id="q"><path transform="matrix(.001 0 0 .001 -.091 .207)" d="M181 82v-289H91v754h90v-83c18 32 42 56 71 72s64 24 104 24c66 0 120-27 162-79 41-53 62-122 62-208s-21-156-62-208c-42-52-96-78-162-78-40 0-75 8-104 23s-53 39-71 72zm306 191c0 66-14 117-41 155-28 38-65 57-112 57-48 0-85-19-112-57-28-38-41-89-41-155s13-118 41-156c27-38 64-56 112-56 47 0 84 18 112 56 27 38 41 90 41 156z"/></symbol><symbol id="r"><path transform="matrix(.001 0 0 .001 -.055 .013)" d="M454 464v296h90V0h-90v82c-19-33-43-57-72-72s-63-23-103-23c-66 0-120 26-162 78S55 187 55 273s20 155 62 208c42 52 96 79 162 79 40 0 74-8 103-24s53-40 72-72zM148 273c0-66 13-118 40-156s64-56 112-56 85 18 113 56c27 38 41 90 41 156s-14 117-41 155c-28 38-65 57-113 57s-85-19-112-57-40-89-40-155z"/></symbol><symbol id="s"><path transform="matrix(.001 0 0 .001 0 .092)" d="M254 729h83L83-92H0l254 821z"/></symbol><use xlink:href="#p" transform="matrix(0 -10 -10 0 74.25 204.212)"/><use xlink:href="#q" transform="matrix(0 -10 -10 0 76.19 197.612)"/><use xlink:href="#j" transform="matrix(0 -10 -10 0 74.25 191.622)"/><use xlink:href="#j" transform="matrix(0 -10 -10 0 74.25 185.472)"/><use xlink:href="#r" transform="matrix(0 -10 -10 0 74.25 179.322)"/><use xlink:href="#k" transform="matrix(0 -10 -10 0 74.12 173.522)"/><use xlink:href="#l" transform="matrix(0 -10 -10 0 75.43 169.482)"/><use xlink:href="#i" transform="matrix(0 -10 -10 0 74.12 165.532)"/><use xlink:href="#s" transform="matrix(0 -10 -10 0 75.04 156.702)"/><use xlink:href="#m" transform="matrix(0 -10 -10 0 74.25 152.792)"/><use xlink:href="#n" transform="matrix(0 -10 -10 0 75.43 147.152)"/><clipPath id="t"><path transform="matrix(1 0 0 -1 0 345.6)" d="M103.104 38.016h266.112v266.112H103.104z"/></clipPath><g clip-path="url(#t)"><path stroke-width="2.5" stroke-linecap="square" stroke-linejoin="round" fill="none" stroke="teal" d="m115.2 295.488.27-17.475 1.45-68.06 1.29-38.168.875-16.803 1.095-14.54 2.446-25.373 1.061-7.502.786-3.815 1.376-4.56.5-1.345 2.162-4.773.31-.353.485-.741.776-.883.236-.177 2.186-1.945.098-.75.246.502.088-.016.069-.153.894-5.21.363-2.128.231-1.403.54-2.97.33-1.415.348-.167.8.687.266-.273.118.107.737 2.005 1.13 5.132.982 3.589 1.159 8.173.226 1.52 1.07 4.381.182.152.369.618.216.178.393-.452.206-.567.113-.094.732-1.938.177-.282.348-.682.246-.155.737.99.633 3.816.285.498.143-.157.722-4.701.167-.766.206-1.313.471-1.123.089-.005.692-.88.241-.364.403-3.012.073-.752.379-.55.068-.55.28-11.751.33 3.988.235 1.837.374 3.99.353 1.338.221.333.354-.383.884-2.14.373-1.146.462-1.014.069.238.967 5.319.526 1.231.481 2.19.865 1.471.432 1.123.732.806.412-.724.501-.86 1.415-2.471.324-.788.707-1.57.226-.289.629-1.05.285-.528 1.763-3.416.52-1.383.536-1.01.653-1.262.148.03.51-.388.654-.18.304.314.374.128.122-.722.929 3.776.216-.38.604-2.161.368-1.97.099-.078.235-.424.099-.03.171.181.182.764.369 2.994.348 3.502.275 4.45.496 11.86.388 8.239.413 5.067.373 4.815 1.317 12.073.58 3.253.584 1.74.412.655.482.348.201-.015.334-.234.246-.445.594-1.865.471-2.738.998-5.148.505-2.02.398-2.493 1.267-11.38 1.278-17.097.682-10.566.403-5.125 1.056-7.836.305-1.108.216-.476.476-1.076.084.04.393-1.374.407-.172.373-.218.222-.075.068.088.113-.091.8 1.922.487.817.206.486.398 1.035.27.87.148.167 1.134 3.719 1.184 2.833.103.13.182.427.28.382.216-.1.388-.367 1.076-3.23 1.183-4.83.128-.084.26-.86.212-.354.108.003.157-.273.408.169.083-.128.128.01.29-.185.098.151.083-.066.084.083.348-.13.177.091.177-.057.29-.126.137.005.094-.206.088.079.59-.683.284.156.305-.056.29-.066.108.001.108-.14.093.141.182-.147.304-.149.285.12.212.052.083.129.098-.083.491.477 1.209 1.396.152-.028.26.23.162.183.158-.084.147-.27.54 1.588.344.043.265-.233.349-.4.295-1.11.334-1.045.167-.349.191.014 1.459-1.209.172.039.142.277.207.129.142-.154.486.121.334.68.673 3.666.324 1.807.772 2.787.363.405.201-.003.374.7.731 1.753.31 1.695.5 2.297.782 4.062.132.471.673 4.004.668 3.498.919 5.182.648 1.783.197.088.147-.106.23-.414.389.267.147-.114.6-1.75.5-1.879.3-1.695.3-2.135.565-4.792.432-4.182.624-3.573.142-.402.403-1.048.152-.85.437-.619.108.015.86-.721.329-.218 1.852-1.395.068.169.148.074.147-.026.545-.144.187.082.088-.113.477.56.343.451.094.203.59.101.117.095.23-.085.644 1.081.62.753.088-.093.118-.048.368.127.403.084.687.014.364-.249.123.167.108-.253.284-.12.226-.24.118-.002 1.047-1.055.078.148h.128l.177-.223.319-5.014.972-14.409.438-4.215.314-1.76.22.025.738 3.852.093.23.334 2.67.226 1.35 1.365 11.613 2.157 17.634.383 3.686.206.884.648 7.802.221 1.719.575 4.922.688 4.536.486 1.609.31.394.304-.178.78-2.627.305-1.545.673-5.17.295-2.389 1.095-9.526.388-2.63.978-4.162.59-1.25.196-.305.191-.35.108-.064.305-.552.368-.566.108.067.423-.62.098.022.23-.384.089-.094.157-.211.103-.308.089.057.245-.33.442-.805.108.088.074-.11.143.148.103-.269.078.06.275-.242.108.007.388.498.698.312.088.173.094-.087.8.37.305-.119.088.076.074-.215.304.038.182.022.231-.142.638-.705.246-.273 1.267-1.716.099.017.314-.203.157-.044.339-.114.206.092.148-.126.2.078.286-.128.098.207.206-.212.103.07.192-.15.481.5.108-.086.32.246.068-2.136.334 1.195.177-.047.172.02.997 1.017.295.079.108.12.167-.103.108-.032.108.12.177-.045.717-.237.668.193.373-.02.713.84.304.491.138.04.059-.15.068.048.388-.038.511.123.103-.044.182.14.398-.057.383.15.113-.09.196.075.433-.02.083.053.074-.095.098.109.211-.172.27.03 1.685-.455.138.154.063-.154.197-.022.295-.011.181.206.212.052.196-.008.3.206.083-.092.187.199.314-.056.103.056.192-.14.378.397.142.08.084-.29.187.143.176-.246.104.15.176-.136.226.358.123-.012.093.14.197-.15.162-.074.201.213.099.15.108-.08.103.143.069-.202.113.14.294-.29.58.628.23-.048.074-.198.089.198.211-.058.344.147.245.224.187-.136.24.206.09.011.083.151.083-.15.093.07.118-.137.103.085.108-.147.172.198.163.236.068-.085.157-.117.202-.151.196.08.295.012.083-.15.104.091.614-.35.383.221.073-.15.212.084.137-.015.246.582.707-.081.27.162.103-.081.099.07.103-.21.29.283.343.555.06-.14.294.07.79.082.173-.151.304.01.098-.161.099.08.304-.055.108-.028.27.294.192.128.142-.14.103.06.06-.13.107.06.104-.14.29.073.378.338.294-.143.099.07.388-.224.235.084.776-.173.084.15.093-.165.094.147.23-.143.457.478.201.268.295.019.108-.17h.482l.284-.199.212-.01.393-.152.118.221.2-.162.06.08.412.269.379-.011.21.003.59-.015.295.143.093-.154.383.35.216.256.133-.187.054.059.211-.067.197-.085.407-.058.054-.081h.207l.3-.07.24-.078.074.078.064-.151.51.559.379-.207.226.055.25-.066.236-.073.393.29.27-.066.201.055.31-.07h.29l.098.128.206-.206.088.075.094-.136.678.617.108-.14.309.078.108-.075.098.137.064-.07h.423l.063-.07.212.14.113.011.294-.29.138.209.054-.151.486.29.31-.15.216-.009.059-.073.108.151.113-.151.063.073.614-.003.197-.155.275.004.108.294.211-.073.177.058.31-.058.107-.097.07.088.2-.073.114-.081.196.081.192-.093.402-.055.207-.073.442-.081.344.407.27-.073.584-.136.565-.163.054-.055.074.191.088-.043.221-.081.359.128.103-.14.137.128.148-.21.216.283.22.125.138-.128.06.073.078-.015.079-.14.093.14.113-.221.128.081.108-.14.059.132.098-.24.29.527.21.21.197-.163.383.29.379-.07.112-.139.084.073.123-.142.211.08.069-.092.127.151.08-.128.078.201.206-.282.113.128.088-.198.285.477.727-.288.06.078.52-.209.206.151.177-.232.295.232.196-.232.393.197.334-.14.049.094.206-.102.202.009.113.058.073-.206.207.194.137.07.162-.14h.098l.118.143.26-.236.315.5.275-.151.128.15.078-.197.197.055.093-.121.29.206.103-.218.206.067.113-.14.162.046.212-.066.201-.143.103.093.064-.093.142-.009.064.16.413-.302.172.07.01.22.147.043.255.352.099.082.407-.198.963-.175.118.07.088-.151.084.151.142-.07.477.489.388-.233.078-.058.113.14.477-.225.584-.16.089.081.319-.14.177.067.093-.087.201.148.094-.139.103.073.108-.073.59.258.088-.134.31.143.304-.221.172.197.304-.21.118.195.373-.346.403.407h.275l.098-.288.099.145.314-.218.098-.078.093.09.089-.094.093.233.197-.012.117.197.27.004.104.009.349-.218 1.154-.094.078.16.108-.164.07.152.092-.094.099.164.137-.222.074.128.329-.058.349.197.191-.082.108.058.118-.197.094.07.083-.137.491.419.113-.155.084.07.196-.14.202.21.132.081.064-.18.103.102.211-.213.094.07.083-.148.093.136.501-.21.202.264.088.015.113.14.094-.21.083.119.103-.13.202.209.191-.082.275.008.432-.136.108.061.074-.212.59.688.108-.007.294-.275.378.406.467-.28.035.08.196.003h.211l.197-.21.093.116.147-.058.054.152.079-.094.196-.067.094-.088.113.097.181-.164.197.07.108-.115.108.057.388-.22.098.135.3-.148.098.07.305-.095.078.082.098-.082.275.282.246-.364.069.222.118-.152.31.405.068.013.29-.21.25.01.629-.3.206.209.874-.373.099.012.098-.176.093.164.388-.098.113.076.29-.225.113.143"/></g><clipPath id="u"><path transform="matrix(1 0 0 -1 0 345.6)" d="M103.104 38.016h266.112v266.112H103.104z"/></clipPath><g clip-path="url(#u)"><path stroke-width="2.5" stroke-dasharray="9.25,4" stroke-linejoin="round" fill="none" stroke="red" d="M115.2 86.134h241.92"/></g><path stroke-width=".8" stroke-linecap="square" stroke-miterlimit="10" fill="none" stroke="#000" d="M103.104 307.584V41.472M369.216 307.584V41.472M103.104 307.584h266.112M103.104 41.472h266.112"/><path d="M233.372 302.584h128.844c1.333 0 2-.667 2-2V272.24c0-1.333-.667-2-2-2H233.372c-1.333 0-2 .667-2 2v28.344c0 1.333.667 2 2 2z" fill="#fff" fill-opacity=".8"/><path stroke-miterlimit="10" fill="none" stroke="#d5d6d5" stroke-opacity=".8" d="M233.372 302.584h128.844c1.333 0 2-.667 2-2V272.24c0-1.333-.667-2-2-2H233.372c-1.333 0-2 .667-2 2v28.344c0 1.333.667 2 2 2z"/><path stroke-width="2.5" stroke-linecap="square" stroke-linejoin="round" fill="none" stroke="teal" d="M235.372 278.334h20"/><symbol id="v"><path transform="matrix(.001 0 0 .001 -.056 .013)" d="M644 673V569c-34 30-69 53-107 69-38 15-77 23-119 23-84 0-148-26-192-77s-66-124-66-220 22-170 66-221 108-76 192-76c42 0 81 7 119 23 38 15 73 38 107 69V56c-35-24-72-41-110-52s-79-17-122-17C302-13 215 20 151 87S56 246 56 364c0 117 31 209 95 277 64 67 151 101 261 101 44 0 85-6 123-17 38-12 75-29 109-52z"/></symbol><symbol id="w"><path transform="matrix(.001 0 0 .001 -.085 .013)" d="M85 216v331h90V219c0-52 10-90 30-116s50-39 91-39c48 0 87 15 115 46s42 73 42 127v310h90V0h-90v84c-22-34-48-58-76-74-29-15-62-23-100-23-63 0-111 19-143 58-33 38-49 95-49 171zm226 344z"/></symbol><symbol id="x"><path transform="translate(-.091) scale(.001)" d="M411 463c-10 6-21 10-33 13-12 2-25 4-39 4-51 0-90-17-117-50-28-33-41-80-41-142V0H91v547h90v-85c18 33 43 58 73 74s67 24 111 24c6 0 13-1 21-1 7-1 15-2 25-4v-92z"/></symbol><symbol id="y"><path transform="translate(-.091) scale(.001)" d="M549 330V0h-90v327c0 52-11 90-31 116s-50 39-90 39c-49 0-87-16-115-47s-42-73-42-126V0H91v547h90v-85c21 32 46 57 76 73 29 16 63 25 101 25 62 0 110-20 142-59s49-96 49-171z"/></symbol><symbol id="z"><path transform="translate(-.027) scale(.001)" d="M183 702V547h185v-70H183V180c0-45 6-74 18-86 12-13 37-19 75-19h92V0h-92c-70 0-118 13-144 39s-39 73-39 141v297H27v70h66v155h90z"/></symbol><symbol id="A"><path transform="matrix(.001 0 0 .001 -.086 .131)" d="M310 759c-44-76-76-150-97-223-22-73-32-147-32-222 0-76 10-150 32-223 21-74 53-147 97-222h-78C183-54 146 20 122 94S86 241 86 314c0 72 12 145 36 219s60 149 110 226h78z"/></symbol><symbol id="B"><path transform="matrix(.001 0 0 .001 -.056 .013)" d="M394 662c-72 0-129-27-171-80-42-54-63-126-63-218s21-165 63-218c42-54 99-80 171-80 71 0 128 26 170 80 42 53 63 126 63 218s-21 164-63 218c-42 53-99 80-170 80zm0 80c102 0 183-35 245-103 61-68 92-160 92-275 0-116-31-207-92-275C577 21 496-13 394-13 291-13 209 21 148 89c-62 68-92 159-92 275 0 115 30 207 92 275 61 68 143 103 246 103z"/></symbol><symbol id="C"><path transform="matrix(.001 0 0 .001 -.08 .131)" d="M80 759h78c48-77 85-152 109-226s37-147 37-219c0-73-13-146-37-220S206-54 158-131H80c43 75 75 148 97 222 21 73 32 147 32 223 0 75-11 149-32 222-22 73-54 147-97 223z"/></symbol><use xlink:href="#v" transform="matrix(10 0 0 -10 263.932 281.964)"/><use xlink:href="#w" transform="matrix(10 0 0 -10 271.202 281.964)"/><use xlink:href="#x" transform="matrix(10 0 0 -10 277.602 281.834)"/><use xlink:href="#x" transform="matrix(10 0 0 -10 281.54 281.834)"/><use xlink:href="#j" transform="matrix(10 0 0 -10 285.072 281.964)"/><use xlink:href="#y" transform="matrix(10 0 0 -10 291.582 281.834)"/><use xlink:href="#z" transform="matrix(10 0 0 -10 297.282 281.834)"/><use xlink:href="#k" transform="matrix(10 0 0 -10 300.932 281.834)"/><use xlink:href="#m" transform="matrix(10 0 0 -10 304.652 281.964)"/><use xlink:href="#q" transform="matrix(10 0 0 -10 310.232 283.904)"/><use xlink:href="#j" transform="matrix(10 0 0 -10 316.222 281.964)"/><use xlink:href="#j" transform="matrix(10 0 0 -10 322.372 281.964)"/><use xlink:href="#r" transform="matrix(10 0 0 -10 328.522 281.964)"/><use xlink:href="#k" transform="matrix(10 0 0 -10 334.322 281.834)"/><use xlink:href="#A" transform="matrix(10 0 0 -10 338.362 283.144)"/><use xlink:href="#B" transform="matrix(10 0 0 -10 341.962 281.964)"/><use xlink:href="#p" transform="matrix(10 0 0 -10 349.932 281.964)"/><use xlink:href="#C" transform="matrix(10 0 0 -10 356.422 283.144)"/><path stroke-width="2.5" stroke-dasharray="9.25,4" stroke-linejoin="round" fill="none" stroke="red" d="M235.372 293.006h20"/><symbol id="D"><path transform="translate(-.098) scale(.001)" d="M197 648V81h119c100 0 174 22 221 68 46 46 70 118 70 216s-24 169-70 215c-47 45-121 68-221 68H197zm-99 81h203c141 0 245-30 311-88 66-59 99-151 99-276 0-126-34-218-100-277S441 0 301 0H98v729z"/></symbol><use xlink:href="#D" transform="matrix(10 0 0 -10 264.352 296.506)"/><use xlink:href="#j" transform="matrix(10 0 0 -10 271.622 296.636)"/><use xlink:href="#m" transform="matrix(10 0 0 -10 277.762 296.636)"/><use xlink:href="#h" transform="matrix(10 0 0 -10 283.372 296.506)"/><use xlink:href="#x" transform="matrix(10 0 0 -10 286.122 296.506)"/><use xlink:href="#j" transform="matrix(10 0 0 -10 289.654 296.636)"/><use xlink:href="#r" transform="matrix(10 0 0 -10 295.803 296.636)"/><use xlink:href="#k" transform="matrix(10 0 0 -10 301.604 296.506)"/><use xlink:href="#m" transform="matrix(10 0 0 -10 305.324 296.636)"/><use xlink:href="#q" transform="matrix(10 0 0 -10 310.904 298.576)"/><use xlink:href="#j" transform="matrix(10 0 0 -10 316.894 296.636)"/><use xlink:href="#j" transform="matrix(10 0 0 -10 323.043 296.636)"/><use xlink:href="#r" transform="matrix(10 0 0 -10 329.193 296.636)"/><use xlink:href="#k" transform="matrix(10 0 0 -10 334.993 296.506)"/><use xlink:href="#A" transform="matrix(10 0 0 -10 339.034 297.816)"/><use xlink:href="#B" transform="matrix(10 0 0 -10 342.634 296.636)"/><use xlink:href="#p" transform="matrix(10 0 0 -10 350.604 296.636)"/><use xlink:href="#C" transform="matrix(10 0 0 -10 357.094 297.816)"/></svg>