<?xml version="1.0" encoding="UTF-8"?>
<svg xmlns="http://www.w3.org/2000/svg" xmlns:xlink="http://www.w3.org/1999/xlink" width="500px" height="px" viewBox="0 0 499 375" version="1.1">
<g id="surface1">
<path style=" stroke:none;fill-rule:nonzero;fill:rgb(100%,100%,100%);fill-opacity:1;" d="M 0 374.835938 L 499.324219 374.835938 L 499.324219 0 L 0 0 Z M 0 374.835938 "/>
<path style=" stroke:none;fill-rule:nonzero;fill:rgb(100%,100%,100%);fill-opacity:1;" d="M 111.722656 333.605469 L 400.085938 333.605469 L 400.085938 44.980469 L 111.722656 44.980469 Z M 111.722656 333.605469 "/>
<path style="fill:none;stroke-width:0.8;stroke-linecap:butt;stroke-linejoin:round;stroke:rgb(0%,0%,0%);stroke-opacity:1;stroke-miterlimit:4;" d="M 108.39832 307.584242 L 108.39832 311.084961 " transform="matrix(1.083605,0,0,1.084599,0,0)"/>
<path style=" stroke:none;fill-rule:nonzero;fill:rgb(0%,0%,0%);fill-opacity:1;" d="M 117.460938 342.230469 C 116.910156 342.230469 116.5 342.503906 116.214844 343.046875 C 115.933594 343.585938 115.804688 344.402344 115.804688 345.484375 C 115.804688 346.570312 115.933594 347.382812 116.214844 347.925781 C 116.5 348.46875 116.910156 348.738281 117.460938 348.738281 C 118.015625 348.738281 118.425781 348.46875 118.707031 347.925781 C 118.980469 347.382812 119.121094 346.570312 119.121094 345.484375 C 119.121094 344.402344 118.980469 343.585938 118.707031 343.046875 C 118.425781 342.503906 118.015625 342.230469 117.460938 342.230469 Z M 117.460938 341.386719 C 118.339844 341.386719 119.011719 341.742188 119.488281 342.4375 C 119.953125 343.144531 120.195312 344.164062 120.195312 345.484375 C 120.195312 346.820312 119.953125 347.839844 119.488281 348.535156 C 119.011719 349.226562 118.339844 349.574219 117.453125 349.574219 C 116.5625 349.574219 115.890625 349.226562 115.425781 348.535156 C 114.960938 347.839844 114.730469 346.820312 114.730469 345.484375 C 114.730469 344.164062 114.960938 343.144531 115.425781 342.4375 C 115.890625 341.742188 116.574219 341.386719 117.460938 341.386719 Z M 117.460938 341.386719 "/>
<path style="fill:none;stroke-width:0.8;stroke-linecap:butt;stroke-linejoin:round;stroke:rgb(0%,0%,0%);stroke-opacity:1;stroke-miterlimit:4;" d="M 158.880863 307.584242 L 158.880863 311.084961 " transform="matrix(1.083605,0,0,1.084599,0,0)"/>
<path style=" stroke:none;fill-rule:nonzero;fill:rgb(0%,0%,0%);fill-opacity:1;" d="M 166.617188 348.535156 L 168.363281 348.535156 L 168.363281 342.503906 L 166.464844 342.882812 L 166.464844 341.90625 L 168.351562 341.527344 L 169.421875 341.527344 L 169.421875 348.535156 L 171.167969 348.535156 L 171.167969 349.433594 L 166.617188 349.433594 Z M 166.617188 348.535156 "/>
<path style=" stroke:none;fill-rule:nonzero;fill:rgb(0%,0%,0%);fill-opacity:1;" d="M 175.609375 342.230469 C 175.058594 342.230469 174.648438 342.503906 174.363281 343.046875 C 174.082031 343.585938 173.953125 344.402344 173.953125 345.484375 C 173.953125 346.570312 174.082031 347.382812 174.363281 347.925781 C 174.648438 348.46875 175.058594 348.738281 175.609375 348.738281 C 176.164062 348.738281 176.574219 348.46875 176.855469 347.925781 C 177.128906 347.382812 177.269531 346.570312 177.269531 345.484375 C 177.269531 344.402344 177.128906 343.585938 176.855469 343.046875 C 176.574219 342.503906 176.164062 342.230469 175.609375 342.230469 Z M 175.609375 341.386719 C 176.488281 341.386719 177.160156 341.742188 177.636719 342.4375 C 178.101562 343.144531 178.34375 344.164062 178.34375 345.484375 C 178.34375 346.820312 178.101562 347.839844 177.636719 348.535156 C 177.160156 349.226562 176.488281 349.574219 175.601562 349.574219 C 174.710938 349.574219 174.039062 349.226562 173.574219 348.535156 C 173.109375 347.839844 172.878906 346.820312 172.878906 345.484375 C 172.878906 344.164062 173.109375 343.144531 173.574219 342.4375 C 174.039062 341.742188 174.722656 341.386719 175.609375 341.386719 Z M 175.609375 341.386719 "/>
<path style="fill:none;stroke-width:0.8;stroke-linecap:butt;stroke-linejoin:round;stroke:rgb(0%,0%,0%);stroke-opacity:1;stroke-miterlimit:4;" d="M 209.363407 307.584242 L 209.363407 311.084961 " transform="matrix(1.083605,0,0,1.084599,0,0)"/>
<path style=" stroke:none;fill-rule:nonzero;fill:rgb(0%,0%,0%);fill-opacity:1;" d="M 222.054688 348.535156 L 225.78125 348.535156 L 225.78125 349.433594 L 220.765625 349.433594 L 220.765625 348.535156 C 221.167969 348.121094 221.71875 347.558594 222.425781 346.839844 C 223.117188 346.136719 223.5625 345.679688 223.746094 345.476562 C 224.09375 345.09375 224.332031 344.769531 224.460938 344.5 C 224.589844 344.238281 224.667969 343.96875 224.667969 343.707031 C 224.667969 343.296875 224.515625 342.949219 224.222656 342.6875 C 223.929688 342.425781 223.550781 342.285156 223.074219 342.285156 C 222.738281 342.285156 222.378906 342.351562 222.011719 342.460938 C 221.644531 342.578125 221.242188 342.753906 220.820312 342.992188 L 220.820312 341.90625 C 221.253906 341.734375 221.65625 341.601562 222.023438 341.515625 C 222.390625 341.429688 222.738281 341.386719 223.050781 341.386719 C 223.863281 341.386719 224.515625 341.59375 225.003906 342.003906 C 225.492188 342.417969 225.738281 342.957031 225.738281 343.640625 C 225.738281 343.96875 225.675781 344.28125 225.554688 344.5625 C 225.4375 344.855469 225.21875 345.203125 224.894531 345.59375 C 224.808594 345.703125 224.527344 345.996094 224.050781 346.484375 C 223.574219 346.972656 222.910156 347.65625 222.054688 348.535156 Z M 222.054688 348.535156 "/>
<path style=" stroke:none;fill-rule:nonzero;fill:rgb(0%,0%,0%);fill-opacity:1;" d="M 230.3125 342.230469 C 229.761719 342.230469 229.347656 342.503906 229.066406 343.046875 C 228.785156 343.585938 228.65625 344.402344 228.65625 345.484375 C 228.65625 346.570312 228.785156 347.382812 229.066406 347.925781 C 229.347656 348.46875 229.761719 348.738281 230.3125 348.738281 C 230.867188 348.738281 231.277344 348.46875 231.558594 347.925781 C 231.828125 347.382812 231.96875 346.570312 231.96875 345.484375 C 231.96875 344.402344 231.828125 343.585938 231.558594 343.046875 C 231.277344 342.503906 230.867188 342.230469 230.3125 342.230469 Z M 230.3125 341.386719 C 231.191406 341.386719 231.863281 341.742188 232.339844 342.4375 C 232.804688 343.144531 233.042969 344.164062 233.042969 345.484375 C 233.042969 346.820312 232.804688 347.839844 232.339844 348.535156 C 231.863281 349.226562 231.191406 349.574219 230.300781 349.574219 C 229.414062 349.574219 228.742188 349.226562 228.277344 348.535156 C 227.808594 347.839844 227.582031 346.820312 227.582031 345.484375 C 227.582031 344.164062 227.808594 343.144531 228.277344 342.4375 C 228.742188 341.742188 229.425781 341.386719 230.3125 341.386719 Z M 230.3125 341.386719 "/>
<path style="fill:none;stroke-width:0.8;stroke-linecap:butt;stroke-linejoin:round;stroke:rgb(0%,0%,0%);stroke-opacity:1;stroke-miterlimit:4;" d="M 259.842345 307.584242 L 259.842345 311.084961 " transform="matrix(1.083605,0,0,1.084599,0,0)"/>
<path style=" stroke:none;fill-rule:nonzero;fill:rgb(0%,0%,0%);fill-opacity:1;" d="M 279.074219 345.171875 C 279.585938 345.28125 279.984375 345.507812 280.269531 345.855469 C 280.550781 346.203125 280.703125 346.636719 280.703125 347.132812 C 280.703125 347.914062 280.429688 348.523438 279.898438 348.945312 C 279.359375 349.367188 278.597656 349.574219 277.613281 349.574219 C 277.277344 349.574219 276.929688 349.542969 276.582031 349.476562 C 276.238281 349.421875 275.867188 349.324219 275.5 349.195312 L 275.5 348.164062 C 275.792969 348.339844 276.117188 348.46875 276.476562 348.554688 C 276.820312 348.640625 277.191406 348.683594 277.582031 348.683594 C 278.253906 348.683594 278.761719 348.554688 279.109375 348.296875 C 279.457031 348.035156 279.640625 347.644531 279.640625 347.132812 C 279.640625 346.679688 279.476562 346.308594 279.152344 346.050781 C 278.828125 345.789062 278.371094 345.648438 277.785156 345.648438 L 276.867188 345.648438 L 276.867188 344.769531 L 277.828125 344.769531 C 278.351562 344.769531 278.75 344.671875 279.03125 344.457031 C 279.3125 344.25 279.457031 343.945312 279.457031 343.542969 C 279.457031 343.144531 279.304688 342.828125 279.023438 342.613281 C 278.730469 342.394531 278.316406 342.285156 277.785156 342.285156 C 277.492188 342.285156 277.179688 342.320312 276.84375 342.382812 C 276.507812 342.449219 276.140625 342.546875 275.738281 342.675781 L 275.738281 341.722656 C 276.140625 341.613281 276.519531 341.527344 276.875 341.472656 C 277.222656 341.417969 277.558594 341.386719 277.882812 341.386719 C 278.6875 341.386719 279.324219 341.570312 279.800781 341.9375 C 280.277344 342.308594 280.515625 342.808594 280.515625 343.4375 C 280.515625 343.871094 280.386719 344.238281 280.136719 344.542969 C 279.886719 344.847656 279.53125 345.0625 279.074219 345.171875 Z M 279.074219 345.171875 "/>
<path style=" stroke:none;fill-rule:nonzero;fill:rgb(0%,0%,0%);fill-opacity:1;" d="M 285.015625 342.230469 C 284.460938 342.230469 284.050781 342.503906 283.769531 343.046875 C 283.484375 343.585938 283.355469 344.402344 283.355469 345.484375 C 283.355469 346.570312 283.484375 347.382812 283.769531 347.925781 C 284.050781 348.46875 284.460938 348.738281 285.015625 348.738281 C 285.566406 348.738281 285.976562 348.46875 286.261719 347.925781 C 286.53125 347.382812 286.671875 346.570312 286.671875 345.484375 C 286.671875 344.402344 286.53125 343.585938 286.261719 343.046875 C 285.976562 342.503906 285.566406 342.230469 285.015625 342.230469 Z M 285.015625 341.386719 C 285.890625 341.386719 286.5625 341.742188 287.039062 342.4375 C 287.507812 343.144531 287.746094 344.164062 287.746094 345.484375 C 287.746094 346.820312 287.507812 347.839844 287.039062 348.535156 C 286.5625 349.226562 285.890625 349.574219 285.003906 349.574219 C 284.113281 349.574219 283.441406 349.226562 282.976562 348.535156 C 282.511719 347.839844 282.285156 346.820312 282.285156 345.484375 C 282.285156 344.164062 282.511719 343.144531 282.976562 342.4375 C 283.441406 341.742188 284.125 341.386719 285.015625 341.386719 Z M 285.015625 341.386719 "/>
<path style="fill:none;stroke-width:0.8;stroke-linecap:butt;stroke-linejoin:round;stroke:rgb(0%,0%,0%);stroke-opacity:1;stroke-miterlimit:4;" d="M 310.324888 307.584242 L 310.324888 311.084961 " transform="matrix(1.083605,0,0,1.084599,0,0)"/>
<path style=" stroke:none;fill-rule:nonzero;fill:rgb(0%,0%,0%);fill-opacity:1;" d="M 333.472656 342.460938 L 330.777344 346.679688 L 333.472656 346.679688 Z M 333.191406 341.527344 L 334.535156 341.527344 L 334.535156 346.679688 L 335.664062 346.679688 L 335.664062 347.566406 L 334.535156 347.566406 L 334.535156 349.433594 L 333.472656 349.433594 L 333.472656 347.566406 L 329.910156 347.566406 L 329.910156 346.539062 Z M 333.191406 341.527344 "/>
<path style=" stroke:none;fill-rule:nonzero;fill:rgb(0%,0%,0%);fill-opacity:1;" d="M 339.714844 342.230469 C 339.164062 342.230469 338.75 342.503906 338.46875 343.046875 C 338.1875 343.585938 338.058594 344.402344 338.058594 345.484375 C 338.058594 346.570312 338.1875 347.382812 338.46875 347.925781 C 338.75 348.46875 339.164062 348.738281 339.714844 348.738281 C 340.269531 348.738281 340.679688 348.46875 340.960938 347.925781 C 341.234375 347.382812 341.375 346.570312 341.375 345.484375 C 341.375 344.402344 341.234375 343.585938 340.960938 343.046875 C 340.679688 342.503906 340.269531 342.230469 339.714844 342.230469 Z M 339.714844 341.386719 C 340.59375 341.386719 341.265625 341.742188 341.742188 342.4375 C 342.207031 343.144531 342.445312 344.164062 342.445312 345.484375 C 342.445312 346.820312 342.207031 347.839844 341.742188 348.535156 C 341.265625 349.226562 340.59375 349.574219 339.703125 349.574219 C 338.816406 349.574219 338.144531 349.226562 337.679688 348.535156 C 337.210938 347.839844 336.984375 346.820312 336.984375 345.484375 C 336.984375 344.164062 337.210938 343.144531 337.679688 342.4375 C 338.144531 341.742188 338.828125 341.386719 339.714844 341.386719 Z M 339.714844 341.386719 "/>
<path style="fill:none;stroke-width:0.8;stroke-linecap:butt;stroke-linejoin:round;stroke:rgb(0%,0%,0%);stroke-opacity:1;stroke-miterlimit:4;" d="M 360.803826 307.584242 L 360.803826 311.084961 " transform="matrix(1.083605,0,0,1.084599,0,0)"/>
<path style=" stroke:none;fill-rule:nonzero;fill:rgb(0%,0%,0%);fill-opacity:1;" d="M 385.25 341.527344 L 389.441406 341.527344 L 389.441406 342.425781 L 386.226562 342.425781 L 386.226562 344.367188 C 386.375 344.316406 386.539062 344.269531 386.691406 344.25 C 386.84375 344.226562 387.003906 344.207031 387.15625 344.207031 C 388.035156 344.207031 388.726562 344.457031 389.25 344.933594 C 389.769531 345.421875 390.027344 346.070312 390.027344 346.894531 C 390.027344 347.753906 389.757812 348.414062 389.226562 348.878906 C 388.695312 349.347656 387.949219 349.574219 386.996094 349.574219 C 386.660156 349.574219 386.324219 349.542969 385.976562 349.5 C 385.628906 349.445312 385.28125 349.367188 384.914062 349.25 L 384.914062 348.175781 C 385.226562 348.347656 385.554688 348.480469 385.898438 348.566406 C 386.234375 348.652344 386.59375 348.683594 386.972656 348.683594 C 387.578125 348.683594 388.066406 348.535156 388.425781 348.207031 C 388.769531 347.882812 388.957031 347.449219 388.957031 346.894531 C 388.957031 346.355469 388.769531 345.917969 388.425781 345.59375 C 388.066406 345.269531 387.578125 345.105469 386.972656 345.105469 C 386.691406 345.105469 386.398438 345.140625 386.117188 345.203125 C 385.835938 345.269531 385.542969 345.367188 385.25 345.496094 Z M 385.25 341.527344 "/>
<path style=" stroke:none;fill-rule:nonzero;fill:rgb(0%,0%,0%);fill-opacity:1;" d="M 394.417969 342.230469 C 393.863281 342.230469 393.453125 342.503906 393.171875 343.046875 C 392.890625 343.585938 392.757812 344.402344 392.757812 345.484375 C 392.757812 346.570312 392.890625 347.382812 393.171875 347.925781 C 393.453125 348.46875 393.863281 348.738281 394.417969 348.738281 C 394.96875 348.738281 395.382812 348.46875 395.664062 347.925781 C 395.933594 347.382812 396.074219 346.570312 396.074219 345.484375 C 396.074219 344.402344 395.933594 343.585938 395.664062 343.046875 C 395.382812 342.503906 394.96875 342.230469 394.417969 342.230469 Z M 394.417969 341.386719 C 395.292969 341.386719 395.964844 341.742188 396.441406 342.4375 C 396.910156 343.144531 397.148438 344.164062 397.148438 345.484375 C 397.148438 346.820312 396.910156 347.839844 396.441406 348.535156 C 395.964844 349.226562 395.292969 349.574219 394.40625 349.574219 C 393.515625 349.574219 392.847656 349.226562 392.378906 348.535156 C 391.914062 347.839844 391.6875 346.820312 391.6875 345.484375 C 391.6875 344.164062 391.914062 343.144531 392.378906 342.4375 C 392.847656 341.742188 393.527344 341.386719 394.417969 341.386719 Z M 394.417969 341.386719 "/>
<path style=" stroke:none;fill-rule:nonzero;fill:rgb(0%,0%,0%);fill-opacity:1;" d="M 233.796875 356.355469 L 240.46875 356.355469 L 240.46875 357.257812 L 237.664062 357.257812 L 237.664062 364.261719 L 236.589844 364.261719 L 236.589844 357.257812 L 233.796875 357.257812 Z M 233.796875 356.355469 "/>
<path style=" stroke:none;fill-rule:nonzero;fill:rgb(0%,0%,0%);fill-opacity:1;" d="M 241.132812 358.328125 L 242.109375 358.328125 L 242.109375 364.261719 L 241.132812 364.261719 Z M 241.132812 356.019531 L 242.109375 356.019531 L 242.109375 357.257812 L 241.132812 357.257812 Z M 241.132812 356.019531 "/>
<path style=" stroke:none;fill-rule:nonzero;fill:rgb(0%,0%,0%);fill-opacity:1;" d="M 248.761719 359.46875 C 249 359.035156 249.292969 358.71875 249.628906 358.503906 C 249.964844 358.296875 250.367188 358.1875 250.832031 358.1875 C 251.441406 358.1875 251.917969 358.40625 252.253906 358.839844 C 252.589844 359.273438 252.761719 359.890625 252.761719 360.683594 L 252.761719 364.261719 L 251.785156 364.261719 L 251.785156 360.714844 C 251.785156 360.152344 251.679688 359.730469 251.484375 359.445312 C 251.277344 359.175781 250.972656 359.035156 250.5625 359.035156 C 250.050781 359.035156 249.652344 359.207031 249.359375 359.542969 C 249.066406 359.878906 248.925781 360.335938 248.925781 360.910156 L 248.925781 364.261719 L 247.949219 364.261719 L 247.949219 360.714844 C 247.949219 360.152344 247.84375 359.730469 247.648438 359.445312 C 247.441406 359.175781 247.125 359.035156 246.714844 359.035156 C 246.214844 359.035156 245.816406 359.207031 245.523438 359.542969 C 245.230469 359.878906 245.089844 360.335938 245.089844 360.910156 L 245.089844 364.261719 L 244.113281 364.261719 L 244.113281 358.328125 L 245.089844 358.328125 L 245.089844 359.25 C 245.304688 358.894531 245.578125 358.621094 245.890625 358.449219 C 246.195312 358.277344 246.5625 358.1875 246.996094 358.1875 C 247.429688 358.1875 247.789062 358.296875 248.089844 358.515625 C 248.394531 358.730469 248.613281 359.054688 248.761719 359.46875 Z M 248.761719 359.46875 "/>
<path style=" stroke:none;fill-rule:nonzero;fill:rgb(0%,0%,0%);fill-opacity:1;" d="M 259.773438 361.050781 L 259.773438 361.527344 L 255.296875 361.527344 C 255.339844 362.203125 255.535156 362.722656 255.902344 363.070312 C 256.261719 363.417969 256.761719 363.589844 257.410156 363.589844 C 257.777344 363.589844 258.148438 363.546875 258.492188 363.460938 C 258.839844 363.375 259.199219 363.230469 259.546875 363.035156 L 259.546875 363.957031 C 259.199219 364.109375 258.839844 364.230469 258.472656 364.296875 C 258.105469 364.359375 257.722656 364.402344 257.355469 364.402344 C 256.402344 364.402344 255.65625 364.132812 255.101562 363.589844 C 254.550781 363.046875 254.277344 362.300781 254.277344 361.355469 C 254.277344 360.390625 254.539062 359.621094 255.058594 359.046875 C 255.578125 358.480469 256.292969 358.1875 257.183594 358.1875 C 257.984375 358.1875 258.613281 358.449219 259.078125 358.957031 C 259.535156 359.480469 259.773438 360.171875 259.773438 361.050781 Z M 258.796875 360.769531 C 258.785156 360.238281 258.636719 359.816406 258.351562 359.492188 C 258.058594 359.175781 257.671875 359.011719 257.195312 359.011719 C 256.652344 359.011719 256.21875 359.175781 255.894531 359.480469 C 255.566406 359.78125 255.375 360.21875 255.328125 360.769531 Z M 258.796875 360.769531 "/>
<path style=" stroke:none;fill-rule:nonzero;fill:rgb(0%,0%,0%);fill-opacity:1;" d="M 264.726562 356.019531 L 266.96875 356.019531 L 266.96875 356.777344 L 265.699219 356.777344 L 265.699219 364.925781 L 266.96875 364.925781 L 266.96875 365.683594 L 264.726562 365.683594 Z M 264.726562 356.019531 "/>
<path style=" stroke:none;fill-rule:nonzero;fill:rgb(0%,0%,0%);fill-opacity:1;" d="M 272.820312 358.503906 L 272.820312 359.425781 C 272.539062 359.296875 272.253906 359.1875 271.964844 359.109375 C 271.660156 359.046875 271.355469 359.003906 271.042969 359.003906 C 270.554688 359.003906 270.1875 359.078125 269.949219 359.230469 C 269.710938 359.382812 269.589844 359.597656 269.589844 359.890625 C 269.589844 360.121094 269.675781 360.292969 269.851562 360.421875 C 270.023438 360.554688 270.371094 360.683594 270.890625 360.792969 L 271.226562 360.867188 C 271.917969 361.019531 272.40625 361.238281 272.699219 361.496094 C 272.980469 361.769531 273.132812 362.148438 273.132812 362.625 C 273.132812 363.179688 272.917969 363.613281 272.484375 363.925781 C 272.050781 364.25 271.441406 364.402344 270.683594 364.402344 C 270.359375 364.402344 270.035156 364.371094 269.6875 364.316406 C 269.339844 364.261719 268.984375 364.175781 268.605469 364.046875 L 268.605469 363.035156 C 268.960938 363.230469 269.320312 363.375 269.664062 363.460938 C 270.011719 363.558594 270.359375 363.601562 270.707031 363.601562 C 271.160156 363.601562 271.519531 363.523438 271.769531 363.375 C 272.007812 363.222656 272.136719 362.992188 272.136719 362.699219 C 272.136719 362.441406 272.039062 362.234375 271.867188 362.09375 C 271.691406 361.953125 271.300781 361.8125 270.695312 361.679688 L 270.359375 361.605469 C 269.753906 361.476562 269.308594 361.28125 269.046875 361.019531 C 268.777344 360.757812 268.648438 360.402344 268.648438 359.933594 C 268.648438 359.382812 268.84375 358.949219 269.234375 358.644531 C 269.621094 358.339844 270.1875 358.1875 270.921875 358.1875 C 271.28125 358.1875 271.617188 358.222656 271.941406 358.277344 C 272.253906 358.328125 272.546875 358.40625 272.820312 358.503906 Z M 272.820312 358.503906 "/>
<path style=" stroke:none;fill-rule:nonzero;fill:rgb(0%,0%,0%);fill-opacity:1;" d="M 276.957031 356.019531 L 276.957031 365.683594 L 274.714844 365.683594 L 274.714844 364.925781 L 275.984375 364.925781 L 275.984375 356.777344 L 274.714844 356.777344 L 274.714844 356.019531 Z M 276.957031 356.019531 "/>
<path style="fill:none;stroke-width:0.8;stroke-linecap:butt;stroke-linejoin:round;stroke:rgb(0%,0%,0%);stroke-opacity:1;stroke-miterlimit:4;" d="M 103.102772 276.848508 L 99.602447 276.848508 " transform="matrix(1.083605,0,0,1.084599,0,0)"/>
<path style=" stroke:none;fill-rule:nonzero;fill:rgb(0%,0%,0%);fill-opacity:1;" d="M 92.4375 303.484375 L 96.164062 303.484375 L 96.164062 304.386719 L 91.148438 304.386719 L 91.148438 303.484375 C 91.546875 303.074219 92.101562 302.507812 92.804688 301.792969 C 93.5 301.089844 93.941406 300.632812 94.128906 300.425781 C 94.472656 300.046875 94.710938 299.722656 94.84375 299.453125 C 94.972656 299.191406 95.046875 298.917969 95.046875 298.660156 C 95.046875 298.246094 94.898438 297.898438 94.605469 297.640625 C 94.3125 297.378906 93.933594 297.238281 93.457031 297.238281 C 93.121094 297.238281 92.761719 297.304688 92.394531 297.414062 C 92.023438 297.53125 91.625 297.703125 91.203125 297.945312 L 91.203125 296.859375 C 91.636719 296.683594 92.035156 296.554688 92.40625 296.46875 C 92.773438 296.382812 93.121094 296.339844 93.433594 296.339844 C 94.246094 296.339844 94.898438 296.542969 95.382812 296.957031 C 95.871094 297.367188 96.121094 297.910156 96.121094 298.59375 C 96.121094 298.917969 96.054688 299.234375 95.9375 299.515625 C 95.816406 299.808594 95.601562 300.15625 95.277344 300.546875 C 95.1875 300.65625 94.90625 300.949219 94.429688 301.4375 C 93.953125 301.925781 93.292969 302.605469 92.4375 303.484375 Z M 92.4375 303.484375 "/>
<path style=" stroke:none;fill-rule:nonzero;fill:rgb(0%,0%,0%);fill-opacity:1;" d="M 98.417969 296.480469 L 102.613281 296.480469 L 102.613281 297.378906 L 99.394531 297.378906 L 99.394531 299.320312 C 99.546875 299.265625 99.707031 299.222656 99.859375 299.203125 C 100.011719 299.179688 100.175781 299.160156 100.324219 299.160156 C 101.203125 299.160156 101.898438 299.40625 102.417969 299.886719 C 102.9375 300.375 103.195312 301.023438 103.195312 301.847656 C 103.195312 302.703125 102.925781 303.367188 102.394531 303.832031 C 101.863281 304.300781 101.117188 304.527344 100.164062 304.527344 C 99.828125 304.527344 99.492188 304.496094 99.144531 304.453125 C 98.796875 304.398438 98.449219 304.320312 98.082031 304.203125 L 98.082031 303.128906 C 98.398438 303.300781 98.722656 303.433594 99.070312 303.519531 C 99.40625 303.605469 99.761719 303.636719 100.140625 303.636719 C 100.75 303.636719 101.234375 303.484375 101.59375 303.160156 C 101.941406 302.835938 102.125 302.402344 102.125 301.847656 C 102.125 301.304688 101.941406 300.871094 101.59375 300.546875 C 101.234375 300.222656 100.75 300.058594 100.140625 300.058594 C 99.859375 300.058594 99.566406 300.089844 99.285156 300.15625 C 99.003906 300.222656 98.710938 300.320312 98.417969 300.449219 Z M 98.417969 296.480469 "/>
<path style="fill:none;stroke-width:0.8;stroke-linecap:butt;stroke-linejoin:round;stroke:rgb(0%,0%,0%);stroke-opacity:1;stroke-miterlimit:4;" d="M 103.102772 243.24593 L 99.602447 243.24593 " transform="matrix(1.083605,0,0,1.084599,0,0)"/>
<path style=" stroke:none;fill-rule:nonzero;fill:rgb(0%,0%,0%);fill-opacity:1;" d="M 91.527344 260.035156 L 95.71875 260.035156 L 95.71875 260.9375 L 92.5 260.9375 L 92.5 262.878906 C 92.652344 262.824219 92.816406 262.78125 92.96875 262.757812 C 93.121094 262.738281 93.28125 262.714844 93.433594 262.714844 C 94.3125 262.714844 95.003906 262.964844 95.523438 263.441406 C 96.046875 263.929688 96.304688 264.582031 96.304688 265.40625 C 96.304688 266.261719 96.035156 266.925781 95.503906 267.390625 C 94.972656 267.855469 94.226562 268.085938 93.269531 268.085938 C 92.933594 268.085938 92.597656 268.050781 92.253906 268.007812 C 91.90625 267.953125 91.558594 267.878906 91.191406 267.757812 L 91.191406 266.683594 C 91.503906 266.859375 91.832031 266.988281 92.175781 267.074219 C 92.511719 267.164062 92.871094 267.195312 93.25 267.195312 C 93.855469 267.195312 94.34375 267.042969 94.703125 266.71875 C 95.046875 266.394531 95.234375 265.957031 95.234375 265.40625 C 95.234375 264.863281 95.046875 264.429688 94.703125 264.105469 C 94.34375 263.777344 93.855469 263.617188 93.25 263.617188 C 92.96875 263.617188 92.675781 263.648438 92.394531 263.714844 C 92.113281 263.777344 91.820312 263.875 91.527344 264.007812 Z M 91.527344 260.035156 "/>
<path style=" stroke:none;fill-rule:nonzero;fill:rgb(0%,0%,0%);fill-opacity:1;" d="M 100.695312 260.742188 C 100.140625 260.742188 99.730469 261.011719 99.449219 261.554688 C 99.167969 262.097656 99.035156 262.910156 99.035156 263.996094 C 99.035156 265.082031 99.167969 265.894531 99.449219 266.4375 C 99.730469 266.976562 100.140625 267.25 100.695312 267.25 C 101.246094 267.25 101.660156 266.976562 101.941406 266.4375 C 102.210938 265.894531 102.351562 265.082031 102.351562 263.996094 C 102.351562 262.910156 102.210938 262.097656 101.941406 261.554688 C 101.660156 261.011719 101.246094 260.742188 100.695312 260.742188 Z M 100.695312 259.894531 C 101.570312 259.894531 102.242188 260.253906 102.71875 260.949219 C 103.1875 261.652344 103.425781 262.671875 103.425781 263.996094 C 103.425781 265.328125 103.1875 266.347656 102.71875 267.042969 C 102.242188 267.738281 101.570312 268.085938 100.683594 268.085938 C 99.792969 268.085938 99.121094 267.738281 98.65625 267.042969 C 98.191406 266.347656 97.964844 265.328125 97.964844 263.996094 C 97.964844 262.671875 98.191406 261.652344 98.65625 260.949219 C 99.121094 260.253906 99.804688 259.894531 100.695312 259.894531 Z M 100.695312 259.894531 "/>
<path style="fill:none;stroke-width:0.8;stroke-linecap:butt;stroke-linejoin:round;stroke:rgb(0%,0%,0%);stroke-opacity:1;stroke-miterlimit:4;" d="M 103.102772 209.646953 L 99.602447 209.646953 " transform="matrix(1.083605,0,0,1.084599,0,0)"/>
<path style=" stroke:none;fill-rule:nonzero;fill:rgb(0%,0%,0%);fill-opacity:1;" d="M 91.246094 223.59375 L 96.328125 223.59375 L 96.328125 224.050781 L 93.457031 231.503906 L 92.339844 231.503906 L 95.039062 224.496094 L 91.246094 224.496094 Z M 91.246094 223.59375 "/>
<path style=" stroke:none;fill-rule:nonzero;fill:rgb(0%,0%,0%);fill-opacity:1;" d="M 98.417969 223.59375 L 102.613281 223.59375 L 102.613281 224.496094 L 99.394531 224.496094 L 99.394531 226.4375 C 99.546875 226.382812 99.707031 226.339844 99.859375 226.316406 C 100.011719 226.296875 100.175781 226.273438 100.324219 226.273438 C 101.203125 226.273438 101.898438 226.523438 102.417969 227 C 102.9375 227.488281 103.195312 228.140625 103.195312 228.964844 C 103.195312 229.820312 102.925781 230.484375 102.394531 230.949219 C 101.863281 231.414062 101.117188 231.644531 100.164062 231.644531 C 99.828125 231.644531 99.492188 231.609375 99.144531 231.566406 C 98.796875 231.511719 98.449219 231.4375 98.082031 231.316406 L 98.082031 230.242188 C 98.398438 230.417969 98.722656 230.546875 99.070312 230.632812 C 99.40625 230.722656 99.761719 230.753906 100.140625 230.753906 C 100.75 230.753906 101.234375 230.601562 101.59375 230.277344 C 101.941406 229.953125 102.125 229.515625 102.125 228.964844 C 102.125 228.421875 101.941406 227.988281 101.59375 227.664062 C 101.234375 227.335938 100.75 227.175781 100.140625 227.175781 C 99.859375 227.175781 99.566406 227.207031 99.285156 227.273438 C 99.003906 227.335938 98.710938 227.433594 98.417969 227.566406 Z M 98.417969 223.59375 "/>
<path style="fill:none;stroke-width:0.8;stroke-linecap:butt;stroke-linejoin:round;stroke:rgb(0%,0%,0%);stroke-opacity:1;stroke-miterlimit:4;" d="M 103.102772 176.047977 L 99.602447 176.047977 " transform="matrix(1.083605,0,0,1.084599,0,0)"/>
<path style=" stroke:none;fill-rule:nonzero;fill:rgb(0%,0%,0%);fill-opacity:1;" d="M 84.808594 194.160156 L 86.554688 194.160156 L 86.554688 188.128906 L 84.65625 188.507812 L 84.65625 187.53125 L 86.542969 187.152344 L 87.617188 187.152344 L 87.617188 194.160156 L 89.359375 194.160156 L 89.359375 195.058594 L 84.808594 195.058594 Z M 84.808594 194.160156 "/>
<path style=" stroke:none;fill-rule:nonzero;fill:rgb(0%,0%,0%);fill-opacity:1;" d="M 93.804688 187.859375 C 93.25 187.859375 92.839844 188.128906 92.558594 188.671875 C 92.277344 189.214844 92.144531 190.027344 92.144531 191.113281 C 92.144531 192.195312 92.277344 193.007812 92.558594 193.550781 C 92.839844 194.09375 93.25 194.367188 93.804688 194.367188 C 94.355469 194.367188 94.769531 194.09375 95.050781 193.550781 C 95.320312 193.007812 95.460938 192.195312 95.460938 191.113281 C 95.460938 190.027344 95.320312 189.214844 95.050781 188.671875 C 94.769531 188.128906 94.355469 187.859375 93.804688 187.859375 Z M 93.804688 187.011719 C 94.679688 187.011719 95.351562 187.371094 95.828125 188.0625 C 96.296875 188.769531 96.535156 189.789062 96.535156 191.113281 C 96.535156 192.445312 96.296875 193.464844 95.828125 194.160156 C 95.351562 194.855469 94.679688 195.199219 93.792969 195.199219 C 92.902344 195.199219 92.230469 194.855469 91.765625 194.160156 C 91.300781 193.464844 91.074219 192.445312 91.074219 191.113281 C 91.074219 189.789062 91.300781 188.769531 91.765625 188.0625 C 92.230469 187.371094 92.914062 187.011719 93.804688 187.011719 Z M 93.804688 187.011719 "/>
<path style=" stroke:none;fill-rule:nonzero;fill:rgb(0%,0%,0%);fill-opacity:1;" d="M 100.695312 187.859375 C 100.140625 187.859375 99.730469 188.128906 99.449219 188.671875 C 99.167969 189.214844 99.039062 190.027344 99.039062 191.113281 C 99.039062 192.195312 99.167969 193.007812 99.449219 193.550781 C 99.730469 194.09375 100.140625 194.367188 100.695312 194.367188 C 101.246094 194.367188 101.660156 194.09375 101.941406 193.550781 C 102.210938 193.007812 102.351562 192.195312 102.351562 191.113281 C 102.351562 190.027344 102.210938 189.214844 101.941406 188.671875 C 101.660156 188.128906 101.246094 187.859375 100.695312 187.859375 Z M 100.695312 187.011719 C 101.574219 187.011719 102.246094 187.371094 102.722656 188.0625 C 103.1875 188.769531 103.425781 189.789062 103.425781 191.113281 C 103.425781 192.445312 103.1875 193.464844 102.722656 194.160156 C 102.246094 194.855469 101.574219 195.199219 100.683594 195.199219 C 99.796875 195.199219 99.125 194.855469 98.65625 194.160156 C 98.191406 193.464844 97.964844 192.445312 97.964844 191.113281 C 97.964844 189.789062 98.191406 188.769531 98.65625 188.0625 C 99.125 187.371094 99.804688 187.011719 100.695312 187.011719 Z M 100.695312 187.011719 "/>
<path style="fill:none;stroke-width:0.8;stroke-linecap:butt;stroke-linejoin:round;stroke:rgb(0%,0%,0%);stroke-opacity:1;stroke-miterlimit:4;" d="M 103.102772 142.449 L 99.602447 142.449 " transform="matrix(1.083605,0,0,1.084599,0,0)"/>
<path style=" stroke:none;fill-rule:nonzero;fill:rgb(0%,0%,0%);fill-opacity:1;" d="M 84.808594 157.71875 L 86.554688 157.71875 L 86.554688 151.6875 L 84.65625 152.066406 L 84.65625 151.089844 L 86.542969 150.710938 L 87.617188 150.710938 L 87.617188 157.71875 L 89.359375 157.71875 L 89.359375 158.617188 L 84.808594 158.617188 Z M 84.808594 157.71875 "/>
<path style=" stroke:none;fill-rule:nonzero;fill:rgb(0%,0%,0%);fill-opacity:1;" d="M 92.4375 157.71875 L 96.164062 157.71875 L 96.164062 158.617188 L 91.148438 158.617188 L 91.148438 157.71875 C 91.550781 157.304688 92.101562 156.742188 92.804688 156.027344 C 93.5 155.320312 93.945312 154.867188 94.128906 154.660156 C 94.476562 154.28125 94.714844 153.953125 94.84375 153.683594 C 94.972656 153.421875 95.050781 153.152344 95.050781 152.890625 C 95.050781 152.480469 94.898438 152.132812 94.605469 151.871094 C 94.3125 151.613281 93.933594 151.472656 93.457031 151.472656 C 93.121094 151.472656 92.761719 151.535156 92.394531 151.644531 C 92.027344 151.761719 91.625 151.9375 91.203125 152.175781 L 91.203125 151.089844 C 91.636719 150.917969 92.035156 150.789062 92.40625 150.699219 C 92.773438 150.613281 93.121094 150.570312 93.433594 150.570312 C 94.246094 150.570312 94.898438 150.777344 95.386719 151.1875 C 95.871094 151.601562 96.121094 152.144531 96.121094 152.828125 C 96.121094 153.152344 96.058594 153.464844 95.9375 153.75 C 95.820312 154.042969 95.601562 154.386719 95.277344 154.777344 C 95.191406 154.886719 94.910156 155.179688 94.433594 155.667969 C 93.953125 156.15625 93.292969 156.839844 92.4375 157.71875 Z M 92.4375 157.71875 "/>
<path style=" stroke:none;fill-rule:nonzero;fill:rgb(0%,0%,0%);fill-opacity:1;" d="M 98.417969 150.710938 L 102.613281 150.710938 L 102.613281 151.613281 L 99.394531 151.613281 L 99.394531 153.554688 C 99.546875 153.5 99.707031 153.457031 99.859375 153.433594 C 100.011719 153.414062 100.175781 153.390625 100.328125 153.390625 C 101.203125 153.390625 101.898438 153.640625 102.417969 154.117188 C 102.9375 154.605469 103.199219 155.257812 103.199219 156.082031 C 103.199219 156.9375 102.925781 157.597656 102.394531 158.066406 C 101.867188 158.53125 101.117188 158.757812 100.164062 158.757812 C 99.828125 158.757812 99.492188 158.726562 99.144531 158.683594 C 98.796875 158.628906 98.453125 158.554688 98.082031 158.433594 L 98.082031 157.359375 C 98.398438 157.535156 98.722656 157.664062 99.070312 157.75 C 99.40625 157.835938 99.761719 157.871094 100.140625 157.871094 C 100.75 157.871094 101.238281 157.71875 101.59375 157.394531 C 101.941406 157.066406 102.125 156.632812 102.125 156.082031 C 102.125 155.539062 101.941406 155.105469 101.59375 154.777344 C 101.238281 154.453125 100.75 154.289062 100.140625 154.289062 C 99.859375 154.289062 99.566406 154.324219 99.285156 154.386719 C 99.003906 154.453125 98.710938 154.550781 98.417969 154.679688 Z M 98.417969 150.710938 "/>
<path style="fill:none;stroke-width:0.8;stroke-linecap:butt;stroke-linejoin:round;stroke:rgb(0%,0%,0%);stroke-opacity:1;stroke-miterlimit:4;" d="M 103.102772 108.850023 L 99.602447 108.850023 " transform="matrix(1.083605,0,0,1.084599,0,0)"/>
<path style=" stroke:none;fill-rule:nonzero;fill:rgb(0%,0%,0%);fill-opacity:1;" d="M 84.808594 121.277344 L 86.554688 121.277344 L 86.554688 115.246094 L 84.65625 115.625 L 84.65625 114.648438 L 86.542969 114.269531 L 87.617188 114.269531 L 87.617188 121.277344 L 89.359375 121.277344 L 89.359375 122.175781 L 84.808594 122.175781 Z M 84.808594 121.277344 "/>
<path style=" stroke:none;fill-rule:nonzero;fill:rgb(0%,0%,0%);fill-opacity:1;" d="M 91.527344 114.269531 L 95.722656 114.269531 L 95.722656 115.167969 L 92.503906 115.167969 L 92.503906 117.109375 C 92.65625 117.054688 92.816406 117.011719 92.96875 116.992188 C 93.121094 116.96875 93.28125 116.949219 93.433594 116.949219 C 94.3125 116.949219 95.007812 117.199219 95.527344 117.675781 C 96.046875 118.164062 96.304688 118.8125 96.304688 119.636719 C 96.304688 120.496094 96.035156 121.15625 95.503906 121.621094 C 94.972656 122.089844 94.226562 122.316406 93.273438 122.316406 C 92.9375 122.316406 92.601562 122.285156 92.253906 122.242188 C 91.90625 122.1875 91.558594 122.109375 91.191406 121.992188 L 91.191406 120.917969 C 91.507812 121.089844 91.832031 121.222656 92.179688 121.308594 C 92.515625 121.394531 92.871094 121.425781 93.25 121.425781 C 93.859375 121.425781 94.34375 121.277344 94.703125 120.949219 C 95.050781 120.625 95.234375 120.191406 95.234375 119.636719 C 95.234375 119.09375 95.050781 118.660156 94.703125 118.335938 C 94.34375 118.011719 93.859375 117.847656 93.25 117.847656 C 92.96875 117.847656 92.675781 117.878906 92.394531 117.945312 C 92.113281 118.011719 91.820312 118.109375 91.527344 118.238281 Z M 91.527344 114.269531 "/>
<path style=" stroke:none;fill-rule:nonzero;fill:rgb(0%,0%,0%);fill-opacity:1;" d="M 100.695312 114.972656 C 100.140625 114.972656 99.730469 115.246094 99.449219 115.789062 C 99.167969 116.328125 99.039062 117.144531 99.039062 118.226562 C 99.039062 119.3125 99.167969 120.125 99.449219 120.667969 C 99.730469 121.210938 100.140625 121.480469 100.695312 121.480469 C 101.246094 121.480469 101.660156 121.210938 101.941406 120.667969 C 102.210938 120.125 102.351562 119.3125 102.351562 118.226562 C 102.351562 117.144531 102.210938 116.328125 101.941406 115.789062 C 101.660156 115.246094 101.246094 114.972656 100.695312 114.972656 Z M 100.695312 114.128906 C 101.574219 114.128906 102.246094 114.484375 102.722656 115.179688 C 103.1875 115.886719 103.425781 116.90625 103.425781 118.226562 C 103.425781 119.5625 103.1875 120.582031 102.722656 121.277344 C 102.246094 121.96875 101.574219 122.316406 100.683594 122.316406 C 99.796875 122.316406 99.125 121.96875 98.65625 121.277344 C 98.191406 120.582031 97.964844 119.5625 97.964844 118.226562 C 97.964844 116.90625 98.191406 115.886719 98.65625 115.179688 C 99.125 114.484375 99.804688 114.128906 100.695312 114.128906 Z M 100.695312 114.128906 "/>
<path style="fill:none;stroke-width:0.8;stroke-linecap:butt;stroke-linejoin:round;stroke:rgb(0%,0%,0%);stroke-opacity:1;stroke-miterlimit:4;" d="M 103.102772 75.251047 L 99.602447 75.251047 " transform="matrix(1.083605,0,0,1.084599,0,0)"/>
<path style=" stroke:none;fill-rule:nonzero;fill:rgb(0%,0%,0%);fill-opacity:1;" d="M 84.808594 84.835938 L 86.554688 84.835938 L 86.554688 78.804688 L 84.65625 79.183594 L 84.65625 78.207031 L 86.542969 77.828125 L 87.617188 77.828125 L 87.617188 84.835938 L 89.359375 84.835938 L 89.359375 85.734375 L 84.808594 85.734375 Z M 84.808594 84.835938 "/>
<path style=" stroke:none;fill-rule:nonzero;fill:rgb(0%,0%,0%);fill-opacity:1;" d="M 91.246094 77.828125 L 96.328125 77.828125 L 96.328125 78.28125 L 93.457031 85.734375 L 92.339844 85.734375 L 95.039062 78.726562 L 91.246094 78.726562 Z M 91.246094 77.828125 "/>
<path style=" stroke:none;fill-rule:nonzero;fill:rgb(0%,0%,0%);fill-opacity:1;" d="M 98.417969 77.828125 L 102.613281 77.828125 L 102.613281 78.726562 L 99.394531 78.726562 L 99.394531 80.667969 C 99.546875 80.613281 99.707031 80.570312 99.859375 80.550781 C 100.011719 80.527344 100.175781 80.507812 100.328125 80.507812 C 101.203125 80.507812 101.898438 80.757812 102.417969 81.234375 C 102.9375 81.722656 103.199219 82.371094 103.199219 83.195312 C 103.199219 84.054688 102.925781 84.714844 102.394531 85.179688 C 101.867188 85.648438 101.117188 85.875 100.164062 85.875 C 99.828125 85.875 99.492188 85.84375 99.144531 85.800781 C 98.796875 85.746094 98.453125 85.667969 98.082031 85.550781 L 98.082031 84.476562 C 98.398438 84.648438 98.722656 84.78125 99.070312 84.867188 C 99.40625 84.953125 99.761719 84.984375 100.140625 84.984375 C 100.75 84.984375 101.238281 84.835938 101.59375 84.507812 C 101.941406 84.183594 102.125 83.75 102.125 83.195312 C 102.125 82.652344 101.941406 82.21875 101.59375 81.894531 C 101.238281 81.570312 100.75 81.40625 100.140625 81.40625 C 99.859375 81.40625 99.566406 81.4375 99.285156 81.503906 C 99.003906 81.570312 98.710938 81.667969 98.417969 81.796875 Z M 98.417969 77.828125 "/>
<path style="fill:none;stroke-width:0.8;stroke-linecap:butt;stroke-linejoin:round;stroke:rgb(0%,0%,0%);stroke-opacity:1;stroke-miterlimit:4;" d="M 103.102772 41.648469 L 99.602447 41.648469 " transform="matrix(1.083605,0,0,1.084599,0,0)"/>
<path style=" stroke:none;fill-rule:nonzero;fill:rgb(0%,0%,0%);fill-opacity:1;" d="M 85.546875 48.390625 L 89.273438 48.390625 L 89.273438 49.292969 L 84.257812 49.292969 L 84.257812 48.390625 C 84.65625 47.980469 85.210938 47.414062 85.914062 46.699219 C 86.609375 45.996094 87.050781 45.539062 87.238281 45.332031 C 87.582031 44.953125 87.820312 44.628906 87.953125 44.355469 C 88.082031 44.097656 88.15625 43.824219 88.15625 43.566406 C 88.15625 43.152344 88.007812 42.804688 87.714844 42.546875 C 87.421875 42.285156 87.042969 42.144531 86.566406 42.144531 C 86.230469 42.144531 85.871094 42.210938 85.503906 42.316406 C 85.132812 42.4375 84.734375 42.609375 84.3125 42.847656 L 84.3125 41.765625 C 84.746094 41.589844 85.144531 41.460938 85.515625 41.375 C 85.882812 41.289062 86.230469 41.242188 86.542969 41.242188 C 87.355469 41.242188 88.007812 41.449219 88.492188 41.863281 C 88.980469 42.273438 89.230469 42.816406 89.230469 43.5 C 89.230469 43.824219 89.164062 44.140625 89.046875 44.421875 C 88.925781 44.714844 88.710938 45.0625 88.386719 45.453125 C 88.296875 45.5625 88.015625 45.855469 87.539062 46.339844 C 87.0625 46.828125 86.402344 47.511719 85.546875 48.390625 Z M 85.546875 48.390625 "/>
<path style=" stroke:none;fill-rule:nonzero;fill:rgb(0%,0%,0%);fill-opacity:1;" d="M 93.804688 42.089844 C 93.25 42.089844 92.839844 42.359375 92.558594 42.902344 C 92.277344 43.445312 92.144531 44.257812 92.144531 45.34375 C 92.144531 46.429688 92.277344 47.242188 92.558594 47.785156 C 92.839844 48.328125 93.25 48.597656 93.804688 48.597656 C 94.355469 48.597656 94.769531 48.328125 95.050781 47.785156 C 95.320312 47.242188 95.460938 46.429688 95.460938 45.34375 C 95.460938 44.257812 95.320312 43.445312 95.050781 42.902344 C 94.769531 42.359375 94.355469 42.089844 93.804688 42.089844 Z M 93.804688 41.242188 C 94.679688 41.242188 95.351562 41.601562 95.828125 42.296875 C 96.296875 43 96.535156 44.019531 96.535156 45.34375 C 96.535156 46.679688 96.296875 47.699219 95.828125 48.390625 C 95.351562 49.085938 94.679688 49.433594 93.792969 49.433594 C 92.902344 49.433594 92.230469 49.085938 91.765625 48.390625 C 91.300781 47.699219 91.074219 46.679688 91.074219 45.34375 C 91.074219 44.019531 91.300781 43 91.765625 42.296875 C 92.230469 41.601562 92.914062 41.242188 93.804688 41.242188 Z M 93.804688 41.242188 "/>
<path style=" stroke:none;fill-rule:nonzero;fill:rgb(0%,0%,0%);fill-opacity:1;" d="M 100.695312 42.089844 C 100.140625 42.089844 99.730469 42.359375 99.449219 42.902344 C 99.167969 43.445312 99.039062 44.257812 99.039062 45.34375 C 99.039062 46.429688 99.167969 47.242188 99.449219 47.785156 C 99.730469 48.328125 100.140625 48.597656 100.695312 48.597656 C 101.246094 48.597656 101.660156 48.328125 101.941406 47.785156 C 102.210938 47.242188 102.351562 46.429688 102.351562 45.34375 C 102.351562 44.257812 102.210938 43.445312 101.941406 42.902344 C 101.660156 42.359375 101.246094 42.089844 100.695312 42.089844 Z M 100.695312 41.242188 C 101.574219 41.242188 102.246094 41.601562 102.722656 42.296875 C 103.1875 43 103.425781 44.019531 103.425781 45.34375 C 103.425781 46.679688 103.1875 47.699219 102.722656 48.390625 C 102.246094 49.085938 101.574219 49.433594 100.683594 49.433594 C 99.796875 49.433594 99.125 49.085938 98.65625 48.390625 C 98.191406 47.699219 97.964844 46.679688 97.964844 45.34375 C 97.964844 44.019531 98.191406 43 98.65625 42.296875 C 99.125 41.601562 99.804688 41.242188 100.695312 41.242188 Z M 100.695312 41.242188 "/>
<path style=" stroke:none;fill-rule:nonzero;fill:rgb(0%,0%,0%);fill-opacity:1;" d="M 69.859375 222.132812 L 76 222.132812 L 76 220.84375 C 76 219.757812 75.761719 218.957031 75.265625 218.445312 C 74.765625 217.949219 73.988281 217.6875 72.925781 217.6875 C 71.863281 217.6875 71.09375 217.949219 70.59375 218.445312 C 70.105469 218.957031 69.859375 219.757812 69.859375 220.84375 Z M 68.980469 223.207031 L 68.980469 221.007812 C 68.980469 219.476562 69.304688 218.347656 69.933594 217.632812 C 70.574219 216.917969 71.570312 216.558594 72.925781 216.558594 C 74.289062 216.558594 75.285156 216.929688 75.925781 217.644531 C 76.566406 218.359375 76.878906 219.488281 76.878906 221.007812 L 76.878906 223.207031 Z M 68.980469 223.207031 "/>
<path style=" stroke:none;fill-rule:nonzero;fill:rgb(0%,0%,0%);fill-opacity:1;" d="M 70.953125 214.898438 L 70.953125 213.925781 L 76.878906 213.925781 L 76.878906 214.898438 Z M 68.644531 214.898438 L 68.644531 213.925781 L 69.878906 213.925781 L 69.878906 214.898438 Z M 68.644531 214.898438 "/>
<path style=" stroke:none;fill-rule:nonzero;fill:rgb(0%,0%,0%);fill-opacity:1;" d="M 71.125 208.101562 L 72.046875 208.101562 C 71.917969 208.382812 71.808594 208.664062 71.734375 208.957031 C 71.667969 209.261719 71.625 209.5625 71.625 209.878906 C 71.625 210.367188 71.699219 210.734375 71.851562 210.972656 C 72.003906 211.210938 72.21875 211.332031 72.511719 211.332031 C 72.738281 211.332031 72.914062 211.246094 73.042969 211.070312 C 73.171875 210.898438 73.304688 210.550781 73.410156 210.03125 L 73.488281 209.695312 C 73.640625 209 73.855469 208.511719 74.117188 208.21875 C 74.386719 207.9375 74.765625 207.785156 75.242188 207.785156 C 75.796875 207.785156 76.230469 208.003906 76.542969 208.4375 C 76.867188 208.871094 77.019531 209.476562 77.019531 210.238281 C 77.019531 210.5625 76.988281 210.886719 76.933594 211.234375 C 76.878906 211.582031 76.792969 211.9375 76.664062 212.320312 L 75.65625 212.320312 C 75.851562 211.960938 75.992188 211.601562 76.078125 211.257812 C 76.175781 210.910156 76.21875 210.5625 76.21875 210.214844 C 76.21875 209.757812 76.144531 209.402344 75.992188 209.152344 C 75.839844 208.914062 75.613281 208.78125 75.320312 208.78125 C 75.058594 208.78125 74.851562 208.878906 74.710938 209.054688 C 74.570312 209.226562 74.429688 209.617188 74.300781 210.226562 L 74.226562 210.5625 C 74.09375 211.167969 73.898438 211.613281 73.640625 211.875 C 73.378906 212.144531 73.023438 212.277344 72.554688 212.277344 C 72.003906 212.277344 71.570312 212.082031 71.265625 211.691406 C 70.964844 211.300781 70.8125 210.734375 70.8125 209.996094 C 70.8125 209.640625 70.84375 209.304688 70.898438 208.976562 C 70.953125 208.664062 71.027344 208.371094 71.125 208.101562 Z M 71.125 208.101562 "/>
<path style=" stroke:none;fill-rule:nonzero;fill:rgb(0%,0%,0%);fill-opacity:1;" d="M 69.273438 205.269531 L 70.953125 205.269531 L 70.953125 203.261719 L 71.710938 203.261719 L 71.710938 205.269531 L 74.929688 205.269531 C 75.417969 205.269531 75.730469 205.203125 75.859375 205.074219 C 76 204.945312 76.066406 204.671875 76.066406 204.261719 L 76.066406 203.261719 L 76.878906 203.261719 L 76.878906 204.261719 C 76.878906 205.019531 76.738281 205.539062 76.457031 205.820312 C 76.175781 206.105469 75.664062 206.246094 74.929688 206.246094 L 71.710938 206.246094 L 71.710938 206.960938 L 70.953125 206.960938 L 70.953125 206.246094 L 69.273438 206.246094 Z M 69.273438 205.269531 "/>
<path style=" stroke:none;fill-rule:nonzero;fill:rgb(0%,0%,0%);fill-opacity:1;" d="M 73.898438 199.28125 C 73.898438 200.074219 73.996094 200.617188 74.171875 200.917969 C 74.355469 201.222656 74.65625 201.375 75.089844 201.375 C 75.4375 201.375 75.71875 201.265625 75.914062 201.039062 C 76.121094 200.8125 76.21875 200.496094 76.21875 200.105469 C 76.21875 199.5625 76.035156 199.128906 75.644531 198.804688 C 75.265625 198.480469 74.753906 198.316406 74.117188 198.316406 L 73.898438 198.316406 Z M 73.5 197.339844 L 76.878906 197.339844 L 76.878906 198.316406 L 75.980469 198.316406 C 76.347656 198.542969 76.609375 198.828125 76.769531 199.152344 C 76.933594 199.476562 77.019531 199.890625 77.019531 200.367188 C 77.019531 200.972656 76.859375 201.460938 76.523438 201.820312 C 76.1875 202.179688 75.730469 202.351562 75.15625 202.351562 C 74.496094 202.351562 73.996094 202.132812 73.652344 201.679688 C 73.316406 201.234375 73.140625 200.574219 73.140625 199.683594 L 73.140625 198.316406 L 73.042969 198.316406 C 72.597656 198.316406 72.253906 198.46875 72.003906 198.761719 C 71.765625 199.054688 71.636719 199.464844 71.636719 199.996094 C 71.636719 200.34375 71.679688 200.671875 71.765625 200.996094 C 71.851562 201.320312 71.972656 201.625 72.121094 201.917969 L 71.222656 201.917969 C 71.09375 201.570312 70.984375 201.222656 70.917969 200.886719 C 70.855469 200.550781 70.8125 200.226562 70.8125 199.898438 C 70.8125 199.042969 71.039062 198.402344 71.484375 197.980469 C 71.925781 197.558594 72.597656 197.339844 73.5 197.339844 Z M 73.5 197.339844 "/>
<path style=" stroke:none;fill-rule:nonzero;fill:rgb(0%,0%,0%);fill-opacity:1;" d="M 73.304688 190.398438 L 76.878906 190.398438 L 76.878906 191.375 L 73.335938 191.375 C 72.773438 191.375 72.359375 191.496094 72.078125 191.710938 C 71.796875 191.929688 71.65625 192.253906 71.65625 192.6875 C 71.65625 193.21875 71.828125 193.632812 72.164062 193.933594 C 72.5 194.238281 72.957031 194.390625 73.53125 194.390625 L 76.878906 194.390625 L 76.878906 195.367188 L 70.953125 195.367188 L 70.953125 194.390625 L 71.875 194.390625 C 71.527344 194.164062 71.253906 193.890625 71.082031 193.566406 C 70.910156 193.25 70.8125 192.882812 70.8125 192.472656 C 70.8125 191.796875 71.027344 191.277344 71.449219 190.929688 C 71.875 190.582031 72.492188 190.398438 73.304688 190.398438 Z M 73.304688 190.398438 "/>
<path style=" stroke:none;fill-rule:nonzero;fill:rgb(0%,0%,0%);fill-opacity:1;" d="M 71.179688 184.183594 L 72.089844 184.183594 C 71.9375 184.464844 71.828125 184.738281 71.753906 185.019531 C 71.679688 185.300781 71.636719 185.574219 71.636719 185.855469 C 71.636719 186.484375 71.839844 186.984375 72.242188 187.328125 C 72.644531 187.675781 73.207031 187.851562 73.921875 187.851562 C 74.648438 187.851562 75.210938 187.675781 75.613281 187.328125 C 76.011719 186.984375 76.207031 186.484375 76.207031 185.855469 C 76.207031 185.574219 76.175781 185.300781 76.097656 185.019531 C 76.023438 184.738281 75.90625 184.464844 75.753906 184.183594 L 76.652344 184.183594 C 76.78125 184.464844 76.878906 184.75 76.933594 185.03125 C 76.988281 185.324219 77.019531 185.636719 77.019531 185.964844 C 77.019531 186.851562 76.75 187.566406 76.1875 188.089844 C 75.632812 188.621094 74.875 188.878906 73.921875 188.878906 C 72.957031 188.878906 72.199219 188.621094 71.644531 188.089844 C 71.09375 187.558594 70.8125 186.832031 70.8125 185.898438 C 70.8125 185.59375 70.84375 185.300781 70.910156 185.019531 C 70.972656 184.738281 71.0625 184.457031 71.179688 184.183594 Z M 71.179688 184.183594 "/>
<path style=" stroke:none;fill-rule:nonzero;fill:rgb(0%,0%,0%);fill-opacity:1;" d="M 73.671875 177.417969 L 74.148438 177.417969 L 74.148438 181.894531 C 74.820312 181.851562 75.339844 181.65625 75.6875 181.289062 C 76.035156 180.929688 76.207031 180.433594 76.207031 179.78125 C 76.207031 179.414062 76.164062 179.042969 76.078125 178.695312 C 75.992188 178.347656 75.851562 177.992188 75.65625 177.644531 L 76.578125 177.644531 C 76.726562 177.992188 76.847656 178.347656 76.910156 178.71875 C 76.976562 179.085938 77.019531 179.464844 77.019531 179.835938 C 77.019531 180.789062 76.75 181.539062 76.207031 182.089844 C 75.664062 182.644531 74.917969 182.914062 73.976562 182.914062 C 73.011719 182.914062 72.242188 182.65625 71.667969 182.132812 C 71.105469 181.613281 70.8125 180.898438 70.8125 180.007812 C 70.8125 179.207031 71.070312 178.578125 71.582031 178.109375 C 72.101562 177.65625 72.792969 177.417969 73.671875 177.417969 Z M 73.390625 178.394531 C 72.859375 178.402344 72.4375 178.554688 72.113281 178.835938 C 71.796875 179.128906 71.636719 179.519531 71.636719 179.996094 C 71.636719 180.539062 71.796875 180.972656 72.101562 181.300781 C 72.40625 181.625 72.835938 181.820312 73.390625 181.863281 Z M 73.390625 178.394531 "/>
<path style=" stroke:none;fill-rule:nonzero;fill:rgb(0%,0%,0%);fill-opacity:1;" d="M 68.644531 172.460938 L 68.644531 170.214844 L 69.402344 170.214844 L 69.402344 171.484375 L 77.539062 171.484375 L 77.539062 170.214844 L 78.300781 170.214844 L 78.300781 172.460938 Z M 68.644531 172.460938 "/>
<path style=" stroke:none;fill-rule:nonzero;fill:rgb(0%,0%,0%);fill-opacity:1;" d="M 72.089844 163.523438 C 71.65625 163.285156 71.34375 162.992188 71.125 162.65625 C 70.917969 162.320312 70.8125 161.917969 70.8125 161.453125 C 70.8125 160.84375 71.027344 160.367188 71.460938 160.03125 C 71.894531 159.695312 72.511719 159.519531 73.304688 159.519531 L 76.878906 159.519531 L 76.878906 160.496094 L 73.335938 160.496094 C 72.773438 160.496094 72.351562 160.605469 72.070312 160.800781 C 71.796875 161.007812 71.65625 161.308594 71.65625 161.722656 C 71.65625 162.230469 71.828125 162.632812 72.164062 162.925781 C 72.5 163.21875 72.957031 163.359375 73.53125 163.359375 L 76.878906 163.359375 L 76.878906 164.335938 L 73.335938 164.335938 C 72.773438 164.335938 72.351562 164.445312 72.070312 164.640625 C 71.796875 164.847656 71.65625 165.160156 71.65625 165.574219 C 71.65625 166.070312 71.828125 166.472656 72.164062 166.765625 C 72.5 167.058594 72.957031 167.199219 73.53125 167.199219 L 76.878906 167.199219 L 76.878906 168.175781 L 70.953125 168.175781 L 70.953125 167.199219 L 71.875 167.199219 C 71.515625 166.984375 71.246094 166.710938 71.070312 166.398438 C 70.898438 166.09375 70.8125 165.722656 70.8125 165.289062 C 70.8125 164.855469 70.917969 164.5 71.136719 164.195312 C 71.351562 163.890625 71.679688 163.675781 72.089844 163.523438 Z M 72.089844 163.523438 "/>
<path style=" stroke:none;fill-rule:nonzero;fill:rgb(0%,0%,0%);fill-opacity:1;" d="M 68.644531 155.300781 L 78.300781 155.300781 L 78.300781 157.546875 L 77.539062 157.546875 L 77.539062 156.277344 L 69.402344 156.277344 L 69.402344 157.546875 L 68.644531 157.546875 Z M 68.644531 155.300781 "/>
<path style="fill:none;stroke-width:2.5;stroke-linecap:square;stroke-linejoin:round;stroke:rgb(0%,0%,100%);stroke-opacity:1;stroke-miterlimit:4;" d="M 115.200702 53.569641 L 116.534503 54.1675 L 117.853884 55.107508 L 118.048546 55.327203 L 118.636139 55.842227 L 118.996626 56.187977 L 120.070876 57.304461 L 120.460202 57.80868 L 120.665679 57.977953 L 120.964883 58.327305 L 121.927382 59.458195 L 122.197747 59.829156 L 123.387353 61.280586 L 124.310199 62.519523 L 128.841515 68.562945 L 129.147929 69.049156 L 129.277704 69.117586 L 129.540859 69.535367 L 129.955419 70.162039 L 130.17892 70.37093 L 130.449285 70.788711 L 130.98641 71.555844 L 131.303639 71.977227 L 131.671335 72.467039 L 132.273347 73.378234 L 132.464405 73.587125 L 132.88257 74.221 L 133.185379 74.570352 L 133.535051 75.063766 L 134.995021 77.17068 L 136.829898 79.702578 L 137.157941 80.055531 L 137.309345 80.336453 L 140.045439 84.204531 L 140.265335 84.413422 L 142.183124 87.08218 L 142.56524 87.712453 L 143.776475 89.325953 L 144.32081 90.096688 L 145.65461 91.847047 L 145.816829 92.196398 L 146.015097 92.405289 L 146.700021 93.384914 L 148.347445 95.625086 L 148.639439 96.114898 L 149.046789 96.604711 L 149.345993 97.094523 L 151.051094 99.403125 L 152.370475 101.290344 L 154.086392 103.663773 L 154.299079 103.872664 L 154.583863 104.362477 L 156.209658 106.523414 L 156.508861 107.009625 L 157.442522 108.194539 L 157.720096 108.61232 L 158.751088 110.074555 L 159.129599 110.632797 L 159.324262 110.841688 L 161.288914 113.557266 L 161.66382 114.043477 L 161.858483 114.320797 L 163.177864 116.132383 L 163.480672 116.550164 L 164.590971 118.080828 L 164.88657 118.567039 L 165.495792 119.33057 L 165.780577 119.820383 L 165.931981 119.888813 L 166.115829 120.234563 L 166.710632 121.001695 L 166.991812 121.487906 L 168.422944 123.367922 L 170.351547 126.076297 L 171.249158 127.329641 L 171.451031 127.538531 L 172.759597 129.418547 L 172.911002 129.486977 L 173.062406 129.764297 L 201.634574 169.053742 L 201.854471 169.331063 L 202.301474 169.954133 L 202.431249 170.166625 L 204.875348 173.559297 L 205.167342 173.905047 L 205.783775 174.805438 L 205.996462 175.082758 L 206.58045 175.842688 L 256.410512 244.020266 L 260.37947 248.255703 L 260.938224 249.105672 L 261.266267 249.534258 L 262.297259 250.956875 L 262.679374 251.525922 L 263.198475 252.23543 L 263.872585 253.222258 L 264.427734 254.068625 L 265.152312 255.199516 L 268.872534 261.520258 L 269.160923 261.880414 L 270.339715 263.34625 L 270.87684 264.052156 L 272.614385 266.450797 L 273.169534 267.1495 L 273.695845 267.848203 L 275.584795 270.073969 L 276.79603 271.453367 L 278.576833 273.639516 L 281.49317 277.529203 L 282.181699 278.584461 L 283.140594 280.147539 L 284.312175 282.31568 L 284.676267 282.690242 L 285.325142 283.511398 L 285.876687 284.170484 L 286.143447 284.530641 L 286.399393 284.771945 L 286.74546 285.207734 L 288.410908 287.102156 L 288.605571 287.325453 L 293.313525 291.888633 L 294.315678 292.691781 L 296.143345 293.891102 L 298.774897 295.036398 L 299.380515 295.198469 L 300.083464 295.310117 L 301.828219 295.486594 L 302.102189 295.443375 L 302.404997 295.479391 L 302.801533 295.410961 L 303.02143 295.392953 L 305.025735 295.097625 L 306.175687 294.712258 L 306.327092 294.701453 L 306.734442 294.550188 L 307.058879 294.359305 L 307.278776 294.337695 L 307.758223 294.031563 L 307.833926 294.04957 L 308.071847 293.948727 L 308.875732 293.430102 L 308.951434 293.440906 L 309.156911 293.318453 L 309.989636 292.799828 L 310.166274 292.662969 L 310.865618 292.15875 L 311.0747 292.007484 L 312.585139 290.700117 L 312.848294 290.602875 L 313.313322 290.073445 L 313.908125 289.590836 L 314.499323 289.010984 L 316.644218 286.756406 L 317.689629 285.65793 L 317.844638 285.513867 L 318.165472 285.099688 L 318.659338 284.613477 L 318.839582 284.382977 L 319.960695 283.028789 L 320.169777 282.877523 L 324.221646 278.001008 L 324.614577 277.514797 L 324.722723 277.471578 L 325.144492 276.902531 L 325.519398 276.491953 L 331.485451 269.058328 L 331.986528 268.503688 L 332.148747 268.377633 L 332.278522 268.046289 L 332.483999 267.873414 L 335.908622 263.547938 L 336.532264 262.780805 L 336.716112 262.525094 L 337.332544 261.804781 L 337.437085 261.54907 L 337.588489 261.498648 L 337.750708 261.163703 L 338.132824 260.652281 L 338.410399 260.39657 L 338.749256 259.960781 L 340.068637 258.293258 L 340.375051 257.828656 L 340.760772 257.389266 L 342.188298 255.502047 L 342.491107 255.113078 L 342.887642 254.590852 L 343.597801 253.758891 L 355.717361 238.045273 L 355.99854 237.649102 L 357.119653 236.201273 " transform="matrix(1.083605,0,0,1.084599,0,0)"/>
<path style="fill-rule:nonzero;fill:rgb(100%,64.705882%,0%);fill-opacity:1;stroke-width:2.5;stroke-linecap:butt;stroke-linejoin:round;stroke:rgb(100%,64.705882%,0%);stroke-opacity:1;stroke-miterlimit:4;" d="M 298.82897 298.486695 L 304.827467 292.486492 M 298.82897 292.486492 L 304.827467 298.486695 " transform="matrix(1.083605,0,0,1.084599,0,0)"/>
<path style="fill:none;stroke-width:0.8;stroke-linecap:square;stroke-linejoin:miter;stroke:rgb(0%,0%,0%);stroke-opacity:1;stroke-miterlimit:10;" d="M 103.102772 307.584242 L 103.102772 41.471992 M 369.217584 307.584242 L 369.217584 41.471992 M 103.102772 307.584242 L 369.217584 307.584242 M 103.102772 41.471992 L 369.217584 41.471992 " transform="matrix(1.083605,0,0,1.084599,0,0)"/>
<path style="fill-rule:nonzero;fill:rgb(100%,100%,100%);fill-opacity:0.8;stroke-width:1;stroke-linecap:butt;stroke-linejoin:miter;stroke:rgb(83.529412%,83.921569%,83.529412%);stroke-opacity:0.8;stroke-miterlimit:10;" d="M 184.965674 78.816594 L 362.216934 78.816594 C 363.550734 78.816594 364.217634 78.150305 364.217634 76.817727 L 364.217634 48.47343 C 364.217634 47.13725 363.550734 46.470961 362.216934 46.470961 L 184.965674 46.470961 C 183.631873 46.470961 182.964973 47.13725 182.964973 48.47343 L 182.964973 76.817727 C 182.964973 78.150305 183.631873 78.816594 184.965674 78.816594 Z M 184.965674 78.816594 " transform="matrix(1.083605,0,0,1.084599,0,0)"/>
<path style="fill:none;stroke-width:2.5;stroke-linecap:square;stroke-linejoin:round;stroke:rgb(0%,0%,100%);stroke-opacity:1;stroke-miterlimit:4;" d="M 186.966374 54.567273 L 206.966171 54.567273 " transform="matrix(1.083605,0,0,1.084599,0,0)"/>
<path style=" stroke:none;fill-rule:nonzero;fill:rgb(0%,0%,0%);fill-opacity:1;" d="M 235.074219 55.949219 L 235.074219 62.101562 L 236.363281 62.101562 C 237.445312 62.101562 238.246094 61.859375 238.757812 61.363281 C 239.253906 60.863281 239.515625 60.082031 239.515625 59.019531 C 239.515625 57.957031 239.253906 57.1875 238.757812 56.6875 C 238.246094 56.199219 237.445312 55.949219 236.363281 55.949219 Z M 234 55.070312 L 236.199219 55.070312 C 237.726562 55.070312 238.855469 55.398438 239.570312 56.027344 C 240.285156 56.664062 240.644531 57.664062 240.644531 59.019531 C 240.644531 60.386719 240.273438 61.382812 239.558594 62.023438 C 238.84375 62.664062 237.71875 62.976562 236.199219 62.976562 L 234 62.976562 Z M 234 55.070312 "/>
<path style=" stroke:none;fill-rule:nonzero;fill:rgb(0%,0%,0%);fill-opacity:1;" d="M 242.300781 57.046875 L 243.277344 57.046875 L 243.277344 62.976562 L 242.300781 62.976562 Z M 242.300781 54.734375 L 243.277344 54.734375 L 243.277344 55.972656 L 242.300781 55.972656 Z M 242.300781 54.734375 "/>
<path style=" stroke:none;fill-rule:nonzero;fill:rgb(0%,0%,0%);fill-opacity:1;" d="M 249.09375 57.21875 L 249.09375 58.140625 C 248.8125 58.011719 248.53125 57.902344 248.238281 57.828125 C 247.933594 57.761719 247.632812 57.71875 247.316406 57.71875 C 246.828125 57.71875 246.460938 57.792969 246.222656 57.945312 C 245.984375 58.097656 245.867188 58.316406 245.867188 58.605469 C 245.867188 58.835938 245.953125 59.007812 246.125 59.140625 C 246.300781 59.269531 246.644531 59.398438 247.164062 59.507812 L 247.5 59.582031 C 248.195312 59.734375 248.683594 59.953125 248.976562 60.210938 C 249.257812 60.484375 249.410156 60.863281 249.410156 61.339844 C 249.410156 61.894531 249.191406 62.328125 248.757812 62.640625 C 248.324219 62.96875 247.71875 63.121094 246.960938 63.121094 C 246.636719 63.121094 246.308594 63.085938 245.964844 63.03125 C 245.617188 62.976562 245.257812 62.890625 244.878906 62.761719 L 244.878906 61.753906 C 245.238281 61.949219 245.59375 62.089844 245.941406 62.175781 C 246.289062 62.273438 246.636719 62.316406 246.980469 62.316406 C 247.4375 62.316406 247.792969 62.242188 248.042969 62.089844 C 248.28125 61.9375 248.410156 61.710938 248.410156 61.417969 C 248.410156 61.15625 248.316406 60.949219 248.140625 60.808594 C 247.96875 60.667969 247.578125 60.527344 246.972656 60.398438 L 246.636719 60.320312 C 246.027344 60.191406 245.582031 59.996094 245.324219 59.734375 C 245.054688 59.476562 244.921875 59.117188 244.921875 58.652344 C 244.921875 58.097656 245.117188 57.664062 245.507812 57.359375 C 245.898438 57.054688 246.460938 56.90625 247.199219 56.90625 C 247.554688 56.90625 247.890625 56.9375 248.21875 56.992188 C 248.53125 57.046875 248.824219 57.121094 249.09375 57.21875 Z M 249.09375 57.21875 "/>
<path style=" stroke:none;fill-rule:nonzero;fill:rgb(0%,0%,0%);fill-opacity:1;" d="M 251.921875 55.363281 L 251.921875 57.046875 L 253.925781 57.046875 L 253.925781 57.804688 L 251.921875 57.804688 L 251.921875 61.027344 C 251.921875 61.515625 251.988281 61.828125 252.117188 61.957031 C 252.246094 62.101562 252.519531 62.164062 252.929688 62.164062 L 253.925781 62.164062 L 253.925781 62.976562 L 252.929688 62.976562 C 252.171875 62.976562 251.652344 62.835938 251.371094 62.554688 C 251.089844 62.273438 250.949219 61.761719 250.949219 61.027344 L 250.949219 57.804688 L 250.234375 57.804688 L 250.234375 57.046875 L 250.949219 57.046875 L 250.949219 55.363281 Z M 251.921875 55.363281 "/>
<path style=" stroke:none;fill-rule:nonzero;fill:rgb(0%,0%,0%);fill-opacity:1;" d="M 257.90625 59.996094 C 257.113281 59.996094 256.570312 60.09375 256.269531 60.265625 C 255.964844 60.453125 255.8125 60.753906 255.8125 61.1875 C 255.8125 61.535156 255.921875 61.816406 256.148438 62.011719 C 256.375 62.21875 256.691406 62.316406 257.082031 62.316406 C 257.621094 62.316406 258.054688 62.132812 258.382812 61.742188 C 258.707031 61.363281 258.867188 60.851562 258.867188 60.210938 L 258.867188 59.996094 Z M 259.84375 59.59375 L 259.84375 62.976562 L 258.867188 62.976562 L 258.867188 62.078125 C 258.640625 62.445312 258.359375 62.707031 258.035156 62.871094 C 257.710938 63.03125 257.296875 63.121094 256.820312 63.121094 C 256.214844 63.121094 255.726562 62.957031 255.367188 62.621094 C 255.011719 62.285156 254.835938 61.828125 254.835938 61.253906 C 254.835938 60.59375 255.054688 60.09375 255.507812 59.746094 C 255.953125 59.410156 256.613281 59.238281 257.503906 59.238281 L 258.867188 59.238281 L 258.867188 59.140625 C 258.867188 58.695312 258.71875 58.347656 258.425781 58.097656 C 258.132812 57.859375 257.71875 57.730469 257.1875 57.730469 C 256.84375 57.730469 256.515625 57.773438 256.191406 57.859375 C 255.867188 57.945312 255.5625 58.066406 255.269531 58.21875 L 255.269531 57.316406 C 255.617188 57.1875 255.964844 57.078125 256.300781 57.011719 C 256.636719 56.949219 256.960938 56.90625 257.285156 56.90625 C 258.144531 56.90625 258.78125 57.132812 259.203125 57.578125 C 259.628906 58.023438 259.84375 58.695312 259.84375 59.59375 Z M 259.84375 59.59375 "/>
<path style=" stroke:none;fill-rule:nonzero;fill:rgb(0%,0%,0%);fill-opacity:1;" d="M 266.777344 59.398438 L 266.777344 62.976562 L 265.804688 62.976562 L 265.804688 59.433594 C 265.804688 58.867188 265.683594 58.457031 265.46875 58.171875 C 265.25 57.890625 264.925781 57.75 264.492188 57.75 C 263.960938 57.75 263.550781 57.925781 263.246094 58.261719 C 262.941406 58.597656 262.792969 59.050781 262.792969 59.625 L 262.792969 62.976562 L 261.816406 62.976562 L 261.816406 57.046875 L 262.792969 57.046875 L 262.792969 57.96875 C 263.019531 57.621094 263.289062 57.347656 263.613281 57.175781 C 263.929688 57.003906 264.296875 56.90625 264.710938 56.90625 C 265.382812 56.90625 265.902344 57.121094 266.25 57.542969 C 266.59375 57.96875 266.777344 58.585938 266.777344 59.398438 Z M 266.777344 59.398438 "/>
<path style=" stroke:none;fill-rule:nonzero;fill:rgb(0%,0%,0%);fill-opacity:1;" d="M 272.988281 57.273438 L 272.988281 58.183594 C 272.707031 58.03125 272.4375 57.925781 272.152344 57.847656 C 271.871094 57.773438 271.601562 57.730469 271.320312 57.730469 C 270.691406 57.730469 270.191406 57.933594 269.847656 58.335938 C 269.5 58.738281 269.324219 59.300781 269.324219 60.015625 C 269.324219 60.742188 269.5 61.308594 269.847656 61.710938 C 270.191406 62.109375 270.691406 62.304688 271.320312 62.304688 C 271.601562 62.304688 271.871094 62.273438 272.152344 62.199219 C 272.4375 62.121094 272.707031 62.003906 272.988281 61.851562 L 272.988281 62.75 C 272.707031 62.878906 272.425781 62.976562 272.144531 63.03125 C 271.851562 63.085938 271.535156 63.121094 271.210938 63.121094 C 270.324219 63.121094 269.605469 62.847656 269.085938 62.285156 C 268.554688 61.730469 268.296875 60.972656 268.296875 60.015625 C 268.296875 59.050781 268.554688 58.292969 269.085938 57.738281 C 269.617188 57.1875 270.34375 56.90625 271.277344 56.90625 C 271.578125 56.90625 271.871094 56.9375 272.152344 57.003906 C 272.4375 57.066406 272.71875 57.152344 272.988281 57.273438 Z M 272.988281 57.273438 "/>
<path style=" stroke:none;fill-rule:nonzero;fill:rgb(0%,0%,0%);fill-opacity:1;" d="M 279.75 59.769531 L 279.75 60.246094 L 275.273438 60.246094 C 275.316406 60.917969 275.511719 61.4375 275.882812 61.785156 C 276.238281 62.132812 276.738281 62.304688 277.386719 62.304688 C 277.757812 62.304688 278.125 62.261719 278.472656 62.175781 C 278.816406 62.089844 279.175781 61.949219 279.523438 61.753906 L 279.523438 62.675781 C 279.175781 62.828125 278.816406 62.945312 278.449219 63.011719 C 278.082031 63.074219 277.703125 63.121094 277.332031 63.121094 C 276.378906 63.121094 275.632812 62.847656 275.078125 62.304688 C 274.527344 61.761719 274.257812 61.015625 274.257812 60.070312 C 274.257812 59.105469 274.515625 58.335938 275.035156 57.761719 C 275.554688 57.199219 276.273438 56.90625 277.160156 56.90625 C 277.960938 56.90625 278.589844 57.164062 279.054688 57.675781 C 279.511719 58.195312 279.75 58.890625 279.75 59.769531 Z M 278.773438 59.484375 C 278.765625 58.953125 278.613281 58.53125 278.332031 58.207031 C 278.039062 57.890625 277.648438 57.730469 277.171875 57.730469 C 276.628906 57.730469 276.195312 57.890625 275.871094 58.195312 C 275.546875 58.5 275.351562 58.933594 275.308594 59.484375 Z M 278.773438 59.484375 "/>
<path style=" stroke:none;fill-rule:nonzero;fill:rgb(0%,0%,0%);fill-opacity:1;" d="M 289.046875 60.015625 C 289.046875 59.300781 288.894531 58.75 288.601562 58.335938 C 288.300781 57.925781 287.898438 57.71875 287.390625 57.71875 C 286.871094 57.71875 286.46875 57.925781 286.175781 58.335938 C 285.871094 58.75 285.730469 59.300781 285.730469 60.015625 C 285.730469 60.734375 285.871094 61.296875 286.175781 61.710938 C 286.46875 62.121094 286.871094 62.316406 287.390625 62.316406 C 287.898438 62.316406 288.300781 62.121094 288.601562 61.710938 C 288.894531 61.296875 289.046875 60.734375 289.046875 60.015625 Z M 285.730469 57.945312 C 285.925781 57.597656 286.1875 57.339844 286.5 57.164062 C 286.816406 56.992188 287.195312 56.90625 287.628906 56.90625 C 288.34375 56.90625 288.929688 57.199219 289.382812 57.761719 C 289.828125 58.335938 290.054688 59.085938 290.054688 60.015625 C 290.054688 60.949219 289.828125 61.710938 289.382812 62.273438 C 288.929688 62.835938 288.34375 63.121094 287.628906 63.121094 C 287.195312 63.121094 286.816406 63.03125 286.5 62.871094 C 286.1875 62.707031 285.925781 62.445312 285.730469 62.089844 L 285.730469 62.976562 L 284.757812 62.976562 L 284.757812 54.734375 L 285.730469 54.734375 Z M 285.730469 57.945312 "/>
<path style=" stroke:none;fill-rule:nonzero;fill:rgb(0%,0%,0%);fill-opacity:1;" d="M 296.742188 59.769531 L 296.742188 60.246094 L 292.265625 60.246094 C 292.308594 60.917969 292.503906 61.4375 292.871094 61.785156 C 293.230469 62.132812 293.726562 62.304688 294.378906 62.304688 C 294.746094 62.304688 295.117188 62.261719 295.460938 62.175781 C 295.808594 62.089844 296.167969 61.949219 296.511719 61.753906 L 296.511719 62.675781 C 296.167969 62.828125 295.808594 62.945312 295.441406 63.011719 C 295.070312 63.074219 294.691406 63.121094 294.324219 63.121094 C 293.371094 63.121094 292.625 62.847656 292.070312 62.304688 C 291.519531 61.761719 291.246094 61.015625 291.246094 60.070312 C 291.246094 59.105469 291.507812 58.335938 292.027344 57.761719 C 292.546875 57.199219 293.261719 56.90625 294.152344 56.90625 C 294.953125 56.90625 295.582031 57.164062 296.046875 57.675781 C 296.503906 58.195312 296.742188 58.890625 296.742188 59.769531 Z M 295.765625 59.484375 C 295.753906 58.953125 295.601562 58.53125 295.320312 58.207031 C 295.027344 57.890625 294.636719 57.730469 294.160156 57.730469 C 293.621094 57.730469 293.1875 57.890625 292.863281 58.195312 C 292.535156 58.5 292.339844 58.933594 292.296875 59.484375 Z M 295.765625 59.484375 "/>
<path style=" stroke:none;fill-rule:nonzero;fill:rgb(0%,0%,0%);fill-opacity:1;" d="M 299.296875 55.363281 L 299.296875 57.046875 L 301.304688 57.046875 L 301.304688 57.804688 L 299.296875 57.804688 L 299.296875 61.027344 C 299.296875 61.515625 299.363281 61.828125 299.492188 61.957031 C 299.625 62.101562 299.894531 62.164062 300.304688 62.164062 L 301.304688 62.164062 L 301.304688 62.976562 L 300.304688 62.976562 C 299.546875 62.976562 299.027344 62.835938 298.746094 62.554688 C 298.464844 62.273438 298.324219 61.761719 298.324219 61.027344 L 298.324219 57.804688 L 297.609375 57.804688 L 297.609375 57.046875 L 298.324219 57.046875 L 298.324219 55.363281 Z M 299.296875 55.363281 "/>
<path style=" stroke:none;fill-rule:nonzero;fill:rgb(0%,0%,0%);fill-opacity:1;" d="M 302.019531 57.046875 L 302.992188 57.046875 L 304.207031 61.675781 L 305.421875 57.046875 L 306.570312 57.046875 L 307.78125 61.675781 L 308.996094 57.046875 L 309.972656 57.046875 L 308.421875 62.976562 L 307.273438 62.976562 L 305.996094 58.121094 L 304.714844 62.976562 L 303.566406 62.976562 Z M 302.019531 57.046875 "/>
<path style=" stroke:none;fill-rule:nonzero;fill:rgb(0%,0%,0%);fill-opacity:1;" d="M 316.515625 59.769531 L 316.515625 60.246094 L 312.042969 60.246094 C 312.085938 60.917969 312.28125 61.4375 312.648438 61.785156 C 313.003906 62.132812 313.503906 62.304688 314.15625 62.304688 C 314.523438 62.304688 314.890625 62.261719 315.238281 62.175781 C 315.585938 62.089844 315.941406 61.949219 316.289062 61.753906 L 316.289062 62.675781 C 315.941406 62.828125 315.585938 62.945312 315.214844 63.011719 C 314.847656 63.074219 314.46875 63.121094 314.101562 63.121094 C 313.148438 63.121094 312.398438 62.847656 311.847656 62.304688 C 311.292969 61.761719 311.023438 61.015625 311.023438 60.070312 C 311.023438 59.105469 311.28125 58.335938 311.804688 57.761719 C 312.324219 57.199219 313.039062 56.90625 313.925781 56.90625 C 314.730469 56.90625 315.355469 57.164062 315.824219 57.675781 C 316.277344 58.195312 316.515625 58.890625 316.515625 59.769531 Z M 315.542969 59.484375 C 315.53125 58.953125 315.378906 58.53125 315.097656 58.207031 C 314.804688 57.890625 314.414062 57.730469 313.9375 57.730469 C 313.394531 57.730469 312.960938 57.890625 312.636719 58.195312 C 312.3125 58.5 312.117188 58.933594 312.074219 59.484375 Z M 315.542969 59.484375 "/>
<path style=" stroke:none;fill-rule:nonzero;fill:rgb(0%,0%,0%);fill-opacity:1;" d="M 323.179688 59.769531 L 323.179688 60.246094 L 318.707031 60.246094 C 318.75 60.917969 318.945312 61.4375 319.3125 61.785156 C 319.667969 62.132812 320.167969 62.304688 320.820312 62.304688 C 321.1875 62.304688 321.554688 62.261719 321.902344 62.175781 C 322.25 62.089844 322.605469 61.949219 322.953125 61.753906 L 322.953125 62.675781 C 322.605469 62.828125 322.25 62.945312 321.878906 63.011719 C 321.511719 63.074219 321.132812 63.121094 320.765625 63.121094 C 319.8125 63.121094 319.0625 62.847656 318.511719 62.304688 C 317.957031 61.761719 317.6875 61.015625 317.6875 60.070312 C 317.6875 59.105469 317.945312 58.335938 318.46875 57.761719 C 318.988281 57.199219 319.703125 56.90625 320.589844 56.90625 C 321.394531 56.90625 322.019531 57.164062 322.488281 57.675781 C 322.941406 58.195312 323.179688 58.890625 323.179688 59.769531 Z M 322.207031 59.484375 C 322.195312 58.953125 322.042969 58.53125 321.761719 58.207031 C 321.46875 57.890625 321.078125 57.730469 320.601562 57.730469 C 320.058594 57.730469 319.625 57.890625 319.300781 58.195312 C 318.976562 58.5 318.78125 58.933594 318.738281 59.484375 Z M 322.207031 59.484375 "/>
<path style=" stroke:none;fill-rule:nonzero;fill:rgb(0%,0%,0%);fill-opacity:1;" d="M 329.703125 59.398438 L 329.703125 62.976562 L 328.730469 62.976562 L 328.730469 59.433594 C 328.730469 58.867188 328.609375 58.457031 328.394531 58.171875 C 328.175781 57.890625 327.851562 57.75 327.417969 57.75 C 326.886719 57.75 326.476562 57.925781 326.171875 58.261719 C 325.867188 58.597656 325.714844 59.050781 325.714844 59.625 L 325.714844 62.976562 L 324.742188 62.976562 L 324.742188 57.046875 L 325.714844 57.046875 L 325.714844 57.96875 C 325.945312 57.621094 326.214844 57.347656 326.539062 57.175781 C 326.855469 57.003906 327.222656 56.90625 327.632812 56.90625 C 328.304688 56.90625 328.828125 57.121094 329.171875 57.542969 C 329.519531 57.96875 329.703125 58.585938 329.703125 59.398438 Z M 329.703125 59.398438 "/>
<path style=" stroke:none;fill-rule:nonzero;fill:rgb(0%,0%,0%);fill-opacity:1;" d="M 338.339844 55.796875 C 337.558594 55.796875 336.941406 56.089844 336.488281 56.664062 C 336.03125 57.25 335.804688 58.03125 335.804688 59.03125 C 335.804688 60.027344 336.03125 60.820312 336.488281 61.394531 C 336.941406 61.980469 337.558594 62.261719 338.339844 62.261719 C 339.109375 62.261719 339.726562 61.980469 340.183594 61.394531 C 340.636719 60.820312 340.863281 60.027344 340.863281 59.03125 C 340.863281 58.03125 340.636719 57.25 340.183594 56.664062 C 339.726562 56.089844 339.109375 55.796875 338.339844 55.796875 Z M 338.339844 54.929688 C 339.445312 54.929688 340.324219 55.308594 340.996094 56.046875 C 341.65625 56.785156 341.992188 57.78125 341.992188 59.03125 C 341.992188 60.289062 341.65625 61.277344 340.996094 62.011719 C 340.324219 62.75 339.445312 63.121094 338.339844 63.121094 C 337.222656 63.121094 336.335938 62.75 335.675781 62.011719 C 335.003906 61.277344 334.679688 60.289062 334.679688 59.03125 C 334.679688 57.78125 335.003906 56.785156 335.675781 56.046875 C 336.335938 55.308594 337.222656 54.929688 338.339844 54.929688 Z M 338.339844 54.929688 "/>
<path style=" stroke:none;fill-rule:nonzero;fill:rgb(0%,0%,0%);fill-opacity:1;" d="M 348.394531 55.332031 L 348.394531 56.375 C 347.984375 56.179688 347.605469 56.035156 347.246094 55.9375 C 346.878906 55.851562 346.53125 55.796875 346.207031 55.796875 C 345.621094 55.796875 345.167969 55.917969 344.851562 56.132812 C 344.539062 56.363281 344.386719 56.6875 344.386719 57.101562 C 344.386719 57.445312 344.484375 57.71875 344.703125 57.890625 C 344.90625 58.074219 345.308594 58.21875 345.894531 58.324219 L 346.542969 58.457031 C 347.335938 58.605469 347.917969 58.878906 348.296875 59.257812 C 348.679688 59.648438 348.875 60.160156 348.875 60.796875 C 348.875 61.566406 348.613281 62.144531 348.105469 62.535156 C 347.582031 62.925781 346.835938 63.121094 345.851562 63.121094 C 345.46875 63.121094 345.070312 63.074219 344.648438 63 C 344.222656 62.925781 343.789062 62.804688 343.347656 62.632812 L 343.347656 61.523438 C 343.78125 61.773438 344.203125 61.957031 344.613281 62.078125 C 345.027344 62.207031 345.4375 62.261719 345.851562 62.261719 C 346.457031 62.261719 346.921875 62.144531 347.257812 61.90625 C 347.582031 61.664062 347.757812 61.328125 347.757812 60.875 C 347.757812 60.484375 347.636719 60.179688 347.398438 59.964844 C 347.160156 59.746094 346.769531 59.582031 346.230469 59.476562 L 345.578125 59.34375 C 344.777344 59.191406 344.203125 58.945312 343.84375 58.597656 C 343.488281 58.261719 343.3125 57.792969 343.3125 57.1875 C 343.3125 56.492188 343.550781 55.9375 344.050781 55.539062 C 344.539062 55.136719 345.222656 54.929688 346.089844 54.929688 C 346.457031 54.929688 346.824219 54.964844 347.214844 55.027344 C 347.59375 55.09375 347.984375 55.203125 348.394531 55.332031 Z M 348.394531 55.332031 "/>
<path style=" stroke:none;fill-rule:nonzero;fill:rgb(0%,0%,0%);fill-opacity:1;" d="M 356.640625 59.996094 C 355.851562 59.996094 355.308594 60.09375 355.007812 60.265625 C 354.703125 60.453125 354.550781 60.753906 354.550781 61.1875 C 354.550781 61.535156 354.660156 61.816406 354.886719 62.011719 C 355.113281 62.21875 355.429688 62.316406 355.820312 62.316406 C 356.359375 62.316406 356.792969 62.132812 357.121094 61.742188 C 357.445312 61.363281 357.605469 60.851562 357.605469 60.210938 L 357.605469 59.996094 Z M 358.582031 59.59375 L 358.582031 62.976562 L 357.605469 62.976562 L 357.605469 62.078125 C 357.378906 62.445312 357.097656 62.707031 356.773438 62.871094 C 356.449219 63.03125 356.035156 63.121094 355.558594 63.121094 C 354.953125 63.121094 354.464844 62.957031 354.105469 62.621094 C 353.75 62.285156 353.574219 61.828125 353.574219 61.253906 C 353.574219 60.59375 353.792969 60.09375 354.246094 59.746094 C 354.691406 59.410156 355.351562 59.238281 356.242188 59.238281 L 357.605469 59.238281 L 357.605469 59.140625 C 357.605469 58.695312 357.457031 58.347656 357.164062 58.097656 C 356.871094 57.859375 356.457031 57.730469 355.925781 57.730469 C 355.582031 57.730469 355.253906 57.773438 354.929688 57.859375 C 354.605469 57.945312 354.300781 58.066406 354.007812 58.21875 L 354.007812 57.316406 C 354.355469 57.1875 354.703125 57.078125 355.039062 57.011719 C 355.375 56.949219 355.699219 56.90625 356.023438 56.90625 C 356.882812 56.90625 357.519531 57.132812 357.941406 57.578125 C 358.367188 58.023438 358.582031 58.695312 358.582031 59.59375 Z M 358.582031 59.59375 "/>
<path style=" stroke:none;fill-rule:nonzero;fill:rgb(0%,0%,0%);fill-opacity:1;" d="M 365.515625 59.398438 L 365.515625 62.976562 L 364.542969 62.976562 L 364.542969 59.433594 C 364.542969 58.867188 364.421875 58.457031 364.207031 58.171875 C 363.988281 57.890625 363.664062 57.75 363.230469 57.75 C 362.699219 57.75 362.289062 57.925781 361.984375 58.261719 C 361.679688 58.597656 361.53125 59.050781 361.53125 59.625 L 361.53125 62.976562 L 360.554688 62.976562 L 360.554688 57.046875 L 361.53125 57.046875 L 361.53125 57.96875 C 361.757812 57.621094 362.027344 57.347656 362.351562 57.175781 C 362.667969 57.003906 363.035156 56.90625 363.449219 56.90625 C 364.121094 56.90625 364.640625 57.121094 364.984375 57.542969 C 365.332031 57.96875 365.515625 58.585938 365.515625 59.398438 Z M 365.515625 59.398438 "/>
<path style=" stroke:none;fill-rule:nonzero;fill:rgb(0%,0%,0%);fill-opacity:1;" d="M 371.359375 57.945312 L 371.359375 54.734375 L 372.332031 54.734375 L 372.332031 62.976562 L 371.359375 62.976562 L 371.359375 62.089844 C 371.152344 62.445312 370.890625 62.707031 370.578125 62.871094 C 370.261719 63.03125 369.894531 63.121094 369.460938 63.121094 C 368.746094 63.121094 368.160156 62.835938 367.707031 62.273438 C 367.25 61.710938 367.035156 60.949219 367.035156 60.015625 C 367.035156 59.085938 367.25 58.335938 367.707031 57.761719 C 368.160156 57.199219 368.746094 56.90625 369.460938 56.90625 C 369.894531 56.90625 370.261719 56.992188 370.578125 57.164062 C 370.890625 57.339844 371.152344 57.597656 371.359375 57.945312 Z M 368.042969 60.015625 C 368.042969 60.734375 368.183594 61.296875 368.476562 61.710938 C 368.769531 62.121094 369.167969 62.316406 369.6875 62.316406 C 370.210938 62.316406 370.609375 62.121094 370.914062 61.710938 C 371.207031 61.296875 371.359375 60.734375 371.359375 60.015625 C 371.359375 59.300781 371.207031 58.75 370.914062 58.335938 C 370.609375 57.925781 370.210938 57.71875 369.6875 57.71875 C 369.167969 57.71875 368.769531 57.925781 368.476562 58.335938 C 368.183594 58.75 368.042969 59.300781 368.042969 60.015625 Z M 368.042969 60.015625 "/>
<path style=" stroke:none;fill-rule:nonzero;fill:rgb(0%,0%,0%);fill-opacity:1;" d="M 376.742188 55.070312 L 383.417969 55.070312 L 383.417969 55.972656 L 380.613281 55.972656 L 380.613281 62.976562 L 379.539062 62.976562 L 379.539062 55.972656 L 376.742188 55.972656 Z M 376.742188 55.070312 "/>
<path style=" stroke:none;fill-rule:nonzero;fill:rgb(0%,0%,0%);fill-opacity:1;" d="M 389.183594 55.332031 L 389.183594 56.375 C 388.769531 56.179688 388.390625 56.035156 388.035156 55.9375 C 387.667969 55.851562 387.320312 55.796875 386.996094 55.796875 C 386.410156 55.796875 385.953125 55.917969 385.640625 56.132812 C 385.324219 56.363281 385.171875 56.6875 385.171875 57.101562 C 385.171875 57.445312 385.269531 57.71875 385.488281 57.890625 C 385.695312 58.074219 386.09375 58.21875 386.679688 58.324219 L 387.332031 58.457031 C 388.121094 58.605469 388.707031 58.878906 389.085938 59.257812 C 389.464844 59.648438 389.660156 60.160156 389.660156 60.796875 C 389.660156 61.566406 389.398438 62.144531 388.890625 62.535156 C 388.371094 62.925781 387.621094 63.121094 386.636719 63.121094 C 386.257812 63.121094 385.855469 63.074219 385.433594 63 C 385.011719 62.925781 384.578125 62.804688 384.132812 62.632812 L 384.132812 61.523438 C 384.566406 61.773438 384.988281 61.957031 385.402344 62.078125 C 385.8125 62.207031 386.226562 62.261719 386.636719 62.261719 C 387.242188 62.261719 387.710938 62.144531 388.046875 61.90625 C 388.371094 61.664062 388.542969 61.328125 388.542969 60.875 C 388.542969 60.484375 388.425781 60.179688 388.1875 59.964844 C 387.949219 59.746094 387.558594 59.582031 387.015625 59.476562 L 386.367188 59.34375 C 385.5625 59.191406 384.988281 58.945312 384.632812 58.597656 C 384.273438 58.261719 384.101562 57.792969 384.101562 57.1875 C 384.101562 56.492188 384.339844 55.9375 384.839844 55.539062 C 385.324219 55.136719 386.007812 54.929688 386.875 54.929688 C 387.242188 54.929688 387.613281 54.964844 388.003906 55.027344 C 388.382812 55.09375 388.769531 55.203125 389.183594 55.332031 Z M 389.183594 55.332031 "/>
<path style="fill-rule:nonzero;fill:rgb(100%,64.705882%,0%);fill-opacity:1;stroke-width:2.5;stroke-linecap:butt;stroke-linejoin:round;stroke:rgb(100%,64.705882%,0%);stroke-opacity:1;stroke-miterlimit:4;" d="M 193.967024 73.111719 L 199.965521 67.111516 M 193.967024 67.111516 L 199.965521 73.111719 " transform="matrix(1.083605,0,0,1.084599,0,0)"/>
<path style=" stroke:none;fill-rule:nonzero;fill:rgb(0%,0%,0%);fill-opacity:1;" d="M 238.574219 74.097656 C 238.8125 73.664062 239.105469 73.347656 239.441406 73.132812 C 239.777344 72.925781 240.175781 72.816406 240.644531 72.816406 C 241.25 72.816406 241.726562 73.035156 242.0625 73.46875 C 242.398438 73.902344 242.570312 74.519531 242.570312 75.3125 L 242.570312 78.890625 L 241.597656 78.890625 L 241.597656 75.34375 C 241.597656 74.78125 241.488281 74.359375 241.292969 74.074219 C 241.085938 73.804688 240.785156 73.664062 240.371094 73.664062 C 239.863281 73.664062 239.460938 73.835938 239.167969 74.171875 C 238.875 74.507812 238.734375 74.964844 238.734375 75.539062 L 238.734375 78.890625 L 237.761719 78.890625 L 237.761719 75.34375 C 237.761719 74.78125 237.652344 74.359375 237.457031 74.074219 C 237.25 73.804688 236.9375 73.664062 236.523438 73.664062 C 236.027344 73.664062 235.625 73.835938 235.332031 74.171875 C 235.039062 74.507812 234.898438 74.964844 234.898438 75.539062 L 234.898438 78.890625 L 233.925781 78.890625 L 233.925781 72.957031 L 234.898438 72.957031 L 234.898438 73.878906 C 235.117188 73.523438 235.386719 73.25 235.703125 73.078125 C 236.003906 72.90625 236.375 72.816406 236.808594 72.816406 C 237.238281 72.816406 237.597656 72.925781 237.902344 73.144531 C 238.203125 73.359375 238.421875 73.683594 238.574219 74.097656 Z M 238.574219 74.097656 "/>
<path style=" stroke:none;fill-rule:nonzero;fill:rgb(0%,0%,0%);fill-opacity:1;" d="M 244.511719 72.957031 L 245.484375 72.957031 L 245.484375 78.890625 L 244.511719 78.890625 Z M 244.511719 70.648438 L 245.484375 70.648438 L 245.484375 71.886719 L 244.511719 71.886719 Z M 244.511719 70.648438 "/>
<path style=" stroke:none;fill-rule:nonzero;fill:rgb(0%,0%,0%);fill-opacity:1;" d="M 252.453125 75.3125 L 252.453125 78.890625 L 251.480469 78.890625 L 251.480469 75.34375 C 251.480469 74.78125 251.359375 74.367188 251.144531 74.085938 C 250.925781 73.804688 250.601562 73.664062 250.167969 73.664062 C 249.636719 73.664062 249.226562 73.835938 248.921875 74.171875 C 248.617188 74.507812 248.464844 74.964844 248.464844 75.539062 L 248.464844 78.890625 L 247.492188 78.890625 L 247.492188 72.957031 L 248.464844 72.957031 L 248.464844 73.878906 C 248.695312 73.535156 248.964844 73.261719 249.289062 73.089844 C 249.605469 72.914062 249.972656 72.816406 250.382812 72.816406 C 251.054688 72.816406 251.578125 73.035156 251.921875 73.457031 C 252.269531 73.878906 252.453125 74.5 252.453125 75.3125 Z M 252.453125 75.3125 "/>
<path style=" stroke:none;fill-rule:nonzero;fill:rgb(0%,0%,0%);fill-opacity:1;" d="M 254.535156 77.546875 L 255.652344 77.546875 L 255.652344 78.890625 L 254.535156 78.890625 Z M 254.535156 77.546875 "/>
<path style=" stroke:none;fill-rule:nonzero;fill:rgb(0%,0%,0%);fill-opacity:1;" d="M 265.1875 73.859375 L 265.1875 70.648438 L 266.160156 70.648438 L 266.160156 78.890625 L 265.1875 78.890625 L 265.1875 78.003906 C 264.980469 78.359375 264.71875 78.621094 264.40625 78.78125 C 264.09375 78.945312 263.722656 79.03125 263.289062 79.03125 C 262.574219 79.03125 261.988281 78.75 261.535156 78.1875 C 261.078125 77.621094 260.863281 76.863281 260.863281 75.929688 C 260.863281 74.996094 261.078125 74.25 261.535156 73.675781 C 261.988281 73.109375 262.574219 72.816406 263.289062 72.816406 C 263.722656 72.816406 264.09375 72.90625 264.40625 73.078125 C 264.71875 73.25 264.980469 73.511719 265.1875 73.859375 Z M 261.871094 75.929688 C 261.871094 76.644531 262.011719 77.210938 262.304688 77.621094 C 262.597656 78.035156 262.996094 78.230469 263.515625 78.230469 C 264.039062 78.230469 264.4375 78.035156 264.742188 77.621094 C 265.035156 77.210938 265.1875 76.644531 265.1875 75.929688 C 265.1875 75.214844 265.035156 74.660156 264.742188 74.25 C 264.4375 73.835938 264.039062 73.632812 263.515625 73.632812 C 262.996094 73.632812 262.597656 73.835938 262.304688 74.25 C 262.011719 74.660156 261.871094 75.214844 261.871094 75.929688 Z M 261.871094 75.929688 "/>
<path style=" stroke:none;fill-rule:nonzero;fill:rgb(0%,0%,0%);fill-opacity:1;" d="M 268.167969 72.957031 L 269.140625 72.957031 L 269.140625 78.890625 L 268.167969 78.890625 Z M 268.167969 70.648438 L 269.140625 70.648438 L 269.140625 71.886719 L 268.167969 71.886719 Z M 268.167969 70.648438 "/>
<path style=" stroke:none;fill-rule:nonzero;fill:rgb(0%,0%,0%);fill-opacity:1;" d="M 274.960938 73.132812 L 274.960938 74.054688 C 274.679688 73.925781 274.398438 73.816406 274.105469 73.738281 C 273.800781 73.675781 273.496094 73.632812 273.183594 73.632812 C 272.695312 73.632812 272.328125 73.707031 272.089844 73.859375 C 271.851562 74.011719 271.730469 74.226562 271.730469 74.519531 C 271.730469 74.75 271.816406 74.921875 271.992188 75.050781 C 272.164062 75.183594 272.511719 75.3125 273.03125 75.421875 L 273.367188 75.496094 C 274.0625 75.648438 274.546875 75.867188 274.839844 76.125 C 275.121094 76.398438 275.273438 76.777344 275.273438 77.253906 C 275.273438 77.808594 275.058594 78.242188 274.625 78.554688 C 274.191406 78.878906 273.585938 79.03125 272.824219 79.03125 C 272.5 79.03125 272.175781 79 271.828125 78.945312 C 271.480469 78.890625 271.125 78.804688 270.746094 78.675781 L 270.746094 77.664062 C 271.101562 77.859375 271.460938 78.003906 271.808594 78.089844 C 272.152344 78.1875 272.5 78.230469 272.847656 78.230469 C 273.300781 78.230469 273.660156 78.152344 273.910156 78.003906 C 274.148438 77.851562 274.277344 77.621094 274.277344 77.328125 C 274.277344 77.070312 274.179688 76.863281 274.007812 76.722656 C 273.832031 76.582031 273.441406 76.441406 272.835938 76.308594 L 272.5 76.234375 C 271.894531 76.105469 271.449219 75.910156 271.1875 75.648438 C 270.917969 75.386719 270.789062 75.03125 270.789062 74.5625 C 270.789062 74.011719 270.984375 73.578125 271.375 73.273438 C 271.765625 72.96875 272.328125 72.816406 273.0625 72.816406 C 273.421875 72.816406 273.757812 72.851562 274.082031 72.90625 C 274.398438 72.957031 274.691406 73.035156 274.960938 73.132812 Z M 274.960938 73.132812 "/>
<path style=" stroke:none;fill-rule:nonzero;fill:rgb(0%,0%,0%);fill-opacity:1;" d="M 277.789062 71.277344 L 277.789062 72.957031 L 279.792969 72.957031 L 279.792969 73.71875 L 277.789062 73.71875 L 277.789062 76.9375 C 277.789062 77.425781 277.855469 77.742188 277.984375 77.871094 C 278.113281 78.011719 278.382812 78.078125 278.796875 78.078125 L 279.792969 78.078125 L 279.792969 78.890625 L 278.796875 78.890625 C 278.039062 78.890625 277.519531 78.75 277.234375 78.46875 C 276.953125 78.1875 276.8125 77.675781 276.8125 76.9375 L 276.8125 73.71875 L 276.097656 73.71875 L 276.097656 72.957031 L 276.8125 72.957031 L 276.8125 71.277344 Z M 277.789062 71.277344 "/>
<path style=" stroke:none;fill-rule:nonzero;fill:rgb(0%,0%,0%);fill-opacity:1;" d="M 283.769531 75.910156 C 282.980469 75.910156 282.4375 76.007812 282.132812 76.179688 C 281.832031 76.363281 281.679688 76.667969 281.679688 77.101562 C 281.679688 77.449219 281.785156 77.730469 282.015625 77.925781 C 282.242188 78.132812 282.554688 78.230469 282.945312 78.230469 C 283.488281 78.230469 283.921875 78.046875 284.246094 77.65625 C 284.570312 77.277344 284.734375 76.765625 284.734375 76.125 L 284.734375 75.910156 Z M 285.710938 75.507812 L 285.710938 78.890625 L 284.734375 78.890625 L 284.734375 77.992188 C 284.507812 78.359375 284.226562 78.621094 283.898438 78.78125 C 283.574219 78.945312 283.164062 79.03125 282.6875 79.03125 C 282.078125 79.03125 281.59375 78.871094 281.234375 78.535156 C 280.875 78.199219 280.703125 77.742188 280.703125 77.167969 C 280.703125 76.503906 280.921875 76.007812 281.375 75.660156 C 281.820312 75.324219 282.480469 75.148438 283.371094 75.148438 L 284.734375 75.148438 L 284.734375 75.050781 C 284.734375 74.605469 284.582031 74.261719 284.289062 74.011719 C 283.996094 73.773438 283.585938 73.640625 283.054688 73.640625 C 282.707031 73.640625 282.382812 73.683594 282.058594 73.773438 C 281.734375 73.859375 281.429688 73.976562 281.136719 74.128906 L 281.136719 73.230469 C 281.484375 73.101562 281.832031 72.992188 282.167969 72.925781 C 282.503906 72.859375 282.828125 72.816406 283.152344 72.816406 C 284.007812 72.816406 284.648438 73.046875 285.070312 73.492188 C 285.492188 73.933594 285.710938 74.605469 285.710938 75.507812 Z M 285.710938 75.507812 "/>
<path style=" stroke:none;fill-rule:nonzero;fill:rgb(0%,0%,0%);fill-opacity:1;" d="M 292.644531 75.3125 L 292.644531 78.890625 L 291.667969 78.890625 L 291.667969 75.34375 C 291.667969 74.78125 291.550781 74.367188 291.332031 74.085938 C 291.117188 73.804688 290.792969 73.664062 290.359375 73.664062 C 289.828125 73.664062 289.414062 73.835938 289.113281 74.171875 C 288.808594 74.507812 288.65625 74.964844 288.65625 75.539062 L 288.65625 78.890625 L 287.683594 78.890625 L 287.683594 72.957031 L 288.65625 72.957031 L 288.65625 73.878906 C 288.882812 73.535156 289.15625 73.261719 289.480469 73.089844 C 289.796875 72.914062 290.164062 72.816406 290.574219 72.816406 C 291.246094 72.816406 291.765625 73.035156 292.113281 73.457031 C 292.460938 73.878906 292.644531 74.5 292.644531 75.3125 Z M 292.644531 75.3125 "/>
<path style=" stroke:none;fill-rule:nonzero;fill:rgb(0%,0%,0%);fill-opacity:1;" d="M 298.855469 73.1875 L 298.855469 74.097656 C 298.570312 73.945312 298.300781 73.835938 298.019531 73.761719 C 297.738281 73.683594 297.46875 73.640625 297.183594 73.640625 C 296.554688 73.640625 296.058594 73.847656 295.710938 74.25 C 295.363281 74.652344 295.191406 75.214844 295.191406 75.929688 C 295.191406 76.65625 295.363281 77.222656 295.710938 77.621094 C 296.058594 78.023438 296.554688 78.21875 297.183594 78.21875 C 297.46875 78.21875 297.738281 78.1875 298.019531 78.109375 C 298.300781 78.035156 298.570312 77.914062 298.855469 77.761719 L 298.855469 78.664062 C 298.570312 78.792969 298.289062 78.890625 298.007812 78.945312 C 297.714844 79 297.402344 79.03125 297.078125 79.03125 C 296.1875 79.03125 295.472656 78.761719 294.953125 78.199219 C 294.421875 77.644531 294.160156 76.886719 294.160156 75.929688 C 294.160156 74.964844 294.421875 74.207031 294.953125 73.652344 C 295.484375 73.101562 296.210938 72.816406 297.140625 72.816406 C 297.445312 72.816406 297.738281 72.851562 298.019531 72.914062 C 298.300781 72.980469 298.582031 73.066406 298.855469 73.1875 Z M 298.855469 73.1875 "/>
<path style=" stroke:none;fill-rule:nonzero;fill:rgb(0%,0%,0%);fill-opacity:1;" d="M 305.617188 75.679688 L 305.617188 76.160156 L 301.140625 76.160156 C 301.183594 76.832031 301.378906 77.351562 301.746094 77.699219 C 302.105469 78.046875 302.601562 78.21875 303.253906 78.21875 C 303.621094 78.21875 303.988281 78.175781 304.335938 78.089844 C 304.683594 78.003906 305.042969 77.859375 305.386719 77.664062 L 305.386719 78.585938 C 305.042969 78.738281 304.683594 78.859375 304.316406 78.925781 C 303.945312 78.988281 303.566406 79.03125 303.199219 79.03125 C 302.246094 79.03125 301.496094 78.761719 300.945312 78.21875 C 300.394531 77.675781 300.121094 76.929688 300.121094 75.984375 C 300.121094 75.019531 300.382812 74.25 300.902344 73.675781 C 301.421875 73.109375 302.136719 72.816406 303.027344 72.816406 C 303.828125 72.816406 304.457031 73.078125 304.921875 73.585938 C 305.378906 74.109375 305.617188 74.800781 305.617188 75.679688 Z M 304.640625 75.398438 C 304.628906 74.867188 304.476562 74.445312 304.195312 74.121094 C 303.902344 73.804688 303.511719 73.640625 303.035156 73.640625 C 302.496094 73.640625 302.0625 73.804688 301.734375 74.109375 C 301.410156 74.414062 301.214844 74.847656 301.171875 75.398438 Z M 304.640625 75.398438 "/>
<path style=" stroke:none;fill-rule:nonzero;fill:rgb(0%,0%,0%);fill-opacity:1;" d="M 310.785156 73.96875 L 317.566406 73.96875 L 317.566406 74.855469 L 310.785156 74.855469 Z M 310.785156 76.125 L 317.566406 76.125 L 317.566406 77.027344 L 310.785156 77.027344 Z M 310.785156 76.125 "/>
<path style=" stroke:none;fill-rule:nonzero;fill:rgb(0%,0%,0%);fill-opacity:1;" d="M 323.507812 77.992188 L 325.25 77.992188 L 325.25 71.960938 L 323.355469 72.339844 L 323.355469 71.363281 L 325.238281 70.984375 L 326.3125 70.984375 L 326.3125 77.992188 L 328.058594 77.992188 L 328.058594 78.890625 L 323.507812 78.890625 Z M 323.507812 77.992188 "/>
<path style=" stroke:none;fill-rule:nonzero;fill:rgb(0%,0%,0%);fill-opacity:1;" d="M 330.398438 77.992188 L 332.140625 77.992188 L 332.140625 71.960938 L 330.246094 72.339844 L 330.246094 71.363281 L 332.132812 70.984375 L 333.203125 70.984375 L 333.203125 77.992188 L 334.949219 77.992188 L 334.949219 78.890625 L 330.398438 78.890625 Z M 330.398438 77.992188 "/>
<path style=" stroke:none;fill-rule:nonzero;fill:rgb(0%,0%,0%);fill-opacity:1;" d="M 337.105469 77.546875 L 338.222656 77.546875 L 338.222656 78.890625 L 337.105469 78.890625 Z M 337.105469 77.546875 "/>
<path style=" stroke:none;fill-rule:nonzero;fill:rgb(0%,0%,0%);fill-opacity:1;" d="M 340.734375 77.992188 L 342.480469 77.992188 L 342.480469 71.960938 L 340.582031 72.339844 L 340.582031 71.363281 L 342.46875 70.984375 L 343.542969 70.984375 L 343.542969 77.992188 L 345.285156 77.992188 L 345.285156 78.890625 L 340.734375 78.890625 Z M 340.734375 77.992188 "/>
<path style=" stroke:none;fill-rule:nonzero;fill:rgb(0%,0%,0%);fill-opacity:1;" d="M 350.683594 74.628906 C 351.191406 74.738281 351.59375 74.964844 351.875 75.3125 C 352.15625 75.660156 352.308594 76.09375 352.308594 76.59375 C 352.308594 77.375 352.039062 77.980469 351.507812 78.402344 C 350.964844 78.828125 350.207031 79.03125 349.21875 79.03125 C 348.882812 79.03125 348.539062 79 348.191406 78.933594 C 347.84375 78.878906 347.476562 78.78125 347.105469 78.652344 L 347.105469 77.621094 C 347.398438 77.796875 347.722656 77.925781 348.082031 78.011719 C 348.429688 78.101562 348.796875 78.144531 349.1875 78.144531 C 349.859375 78.144531 350.367188 78.011719 350.714844 77.753906 C 351.0625 77.492188 351.246094 77.101562 351.246094 76.59375 C 351.246094 76.136719 351.082031 75.769531 350.757812 75.507812 C 350.433594 75.246094 349.976562 75.105469 349.394531 75.105469 L 348.472656 75.105469 L 348.472656 74.226562 L 349.4375 74.226562 C 349.957031 74.226562 350.359375 74.128906 350.640625 73.914062 C 350.921875 73.707031 351.0625 73.402344 351.0625 73.003906 C 351.0625 72.601562 350.910156 72.285156 350.628906 72.070312 C 350.335938 71.851562 349.925781 71.742188 349.394531 71.742188 C 349.101562 71.742188 348.785156 71.777344 348.449219 71.839844 C 348.113281 71.90625 347.746094 72.003906 347.34375 72.132812 L 347.34375 71.179688 C 347.746094 71.070312 348.125 70.984375 348.484375 70.929688 C 348.828125 70.875 349.164062 70.84375 349.492188 70.84375 C 350.292969 70.84375 350.933594 71.027344 351.410156 71.398438 C 351.886719 71.765625 352.125 72.265625 352.125 72.894531 C 352.125 73.328125 351.992188 73.695312 351.746094 74 C 351.496094 74.304688 351.136719 74.519531 350.683594 74.628906 Z M 350.683594 74.628906 "/>
<path style=" stroke:none;fill-rule:nonzero;fill:rgb(0%,0%,0%);fill-opacity:1;" d="M 362.253906 74.097656 C 362.492188 73.664062 362.785156 73.347656 363.121094 73.132812 C 363.457031 72.925781 363.859375 72.816406 364.324219 72.816406 C 364.933594 72.816406 365.410156 73.035156 365.746094 73.46875 C 366.082031 73.902344 366.253906 74.519531 366.253906 75.3125 L 366.253906 78.890625 L 365.277344 78.890625 L 365.277344 75.34375 C 365.277344 74.78125 365.171875 74.359375 364.976562 74.074219 C 364.769531 73.804688 364.464844 73.664062 364.054688 73.664062 C 363.546875 73.664062 363.144531 73.835938 362.851562 74.171875 C 362.558594 74.507812 362.417969 74.964844 362.417969 75.539062 L 362.417969 78.890625 L 361.441406 78.890625 L 361.441406 75.34375 C 361.441406 74.78125 361.335938 74.359375 361.140625 74.074219 C 360.933594 73.804688 360.621094 73.664062 360.207031 73.664062 C 359.710938 73.664062 359.308594 73.835938 359.015625 74.171875 C 358.722656 74.507812 358.582031 74.964844 358.582031 75.539062 L 358.582031 78.890625 L 357.605469 78.890625 L 357.605469 72.957031 L 358.582031 72.957031 L 358.582031 73.878906 C 358.800781 73.523438 359.070312 73.25 359.382812 73.078125 C 359.6875 72.90625 360.054688 72.816406 360.488281 72.816406 C 360.921875 72.816406 361.28125 72.925781 361.582031 73.144531 C 361.886719 73.359375 362.105469 73.683594 362.253906 74.097656 Z M 362.253906 74.097656 "/>
</g>
</svg>
