<svg xmlns="http://www.w3.org/2000/svg" xmlns:xlink="http://www.w3.org/1999/xlink" width="614.4" height="460.8" viewBox="0 0 460.8 345.6"><path d="M0 345.6h460.8V0H0z" fill="#fff"/><path d="M103.104 307.584h266.112V41.472H103.104z" fill="#fff"/><path stroke-width=".8" stroke-linejoin="round" fill="none" stroke="#000" d="M109.56 307.584v3.5"/><symbol id="a"><path transform="matrix(.001 0 0 .001 -.066 .013)" d="M318 664c-51 0-89-25-115-75s-38-125-38-225 12-175 38-225 64-75 115-75 89 25 115 75c25 50 38 125 38 225s-13 175-38 225c-26 50-64 75-115 75zm0 78c81 0 143-33 187-97 43-65 65-159 65-281 0-123-22-217-65-281-44-64-106-96-188-96S173 19 130 83 66 241 66 364c0 122 21 216 64 281 43 64 106 97 188 97z"/></symbol><use xlink:href="#a" transform="matrix(10 0 0 -10 107.04 322.308)"/><path stroke-width=".8" stroke-linejoin="round" fill="none" stroke="#000" d="M145.37 307.584v3.5"/><symbol id="b"><path transform="translate(-.11) scale(.001)" d="M124 83h161v556l-175-35v90l174 35h99V83h161V0H124v83z"/></symbol><use xlink:href="#b" transform="matrix(10 0 0 -10 140.11 322.178)"/><use xlink:href="#a" transform="matrix(10 0 0 -10 146.03 322.308)"/><path stroke-width=".8" stroke-linejoin="round" fill="none" stroke="#000" d="M181.18 307.584v3.5"/><symbol id="c"><path transform="translate(-.073) scale(.001)" d="M192 83h344V0H73v83c37 38 88 90 153 156 64 65 105 107 122 126 32 35 54 65 66 90 12 24 19 49 19 73 0 38-14 70-41 94s-62 37-106 37c-31 0-64-6-98-16-34-11-71-27-110-49v100c40 16 77 28 111 36s66 12 95 12c75 0 135-19 180-57s68-88 68-151c0-30-6-59-17-85-11-27-31-59-61-95-8-10-34-37-78-82S271 164 192 83z"/></symbol><use xlink:href="#c" transform="matrix(10 0 0 -10 175.551 322.178)"/><use xlink:href="#a" transform="matrix(10 0 0 -10 181.841 322.308)"/><path stroke-width=".8" stroke-linejoin="round" fill="none" stroke="#000" d="M216.99 307.584v3.5"/><symbol id="d"><path transform="matrix(.001 0 0 .001 -.076 .013)" d="M406 393c47-10 84-31 110-63s40-72 40-118c0-72-25-128-74-167-50-39-120-58-211-58-31 0-63 3-95 9-32 5-66 14-100 26v95c27-16 57-28 90-36 32-8 66-12 102-12 62 0 109 12 141 36s49 60 49 107c0 42-15 76-45 100s-72 37-126 37h-85v81h89c48 0 85 9 111 29 26 19 39 47 39 84s-14 66-40 86c-27 20-65 30-114 30-27 0-56-3-87-9s-65-15-102-27v88c37 10 72 18 105 23 32 5 63 8 93 8 74 0 133-17 177-51s66-80 66-138c0-40-12-74-35-102s-56-48-98-58z"/></symbol><use xlink:href="#d" transform="matrix(10 0 0 -10 211.391 322.308)"/><use xlink:href="#a" transform="matrix(10 0 0 -10 217.651 322.308)"/><path stroke-width=".8" stroke-linejoin="round" fill="none" stroke="#000" d="M252.801 307.584v3.5"/><symbol id="e"><path transform="translate(-.049) scale(.001)" d="M378 643 129 254h249v389zm-26 86h124V254h104v-82H476V0h-98v172H49v95l303 462z"/></symbol><use xlink:href="#e" transform="matrix(10 0 0 -10 246.932 322.178)"/><use xlink:href="#a" transform="matrix(10 0 0 -10 253.462 322.308)"/><path stroke-width=".8" stroke-linejoin="round" fill="none" stroke="#000" d="M288.611 307.584v3.5"/><symbol id="f"><path transform="matrix(.001 0 0 .001 -.077 .013)" d="M108 729h387v-83H198V467c14 5 29 9 43 11s29 4 43 4c81 0 145-23 193-67 48-45 72-105 72-181 0-79-25-140-74-183S357-13 269-13c-31 0-62 3-94 7-32 5-64 12-98 23v99c29-16 59-28 91-36 31-8 64-11 99-11 56 0 101 14 134 44 32 30 49 70 49 121 0 50-17 90-49 120-33 30-78 45-134 45-26 0-53-3-79-9s-53-15-80-27v366z"/></symbol><use xlink:href="#f" transform="matrix(10 0 0 -10 283.022 322.308)"/><use xlink:href="#a" transform="matrix(10 0 0 -10 289.272 322.308)"/><path stroke-width=".8" stroke-linejoin="round" fill="none" stroke="#000" d="M324.422 307.584v3.5"/><symbol id="g"><path transform="matrix(.001 0 0 .001 -.07 .013)" d="M330 404c-44 0-79-16-105-46s-39-72-39-124c0-53 13-95 39-125s61-45 105-45 79 15 105 45 39 72 39 125c0 52-13 94-39 124s-61 46-105 46zm196 309v-90c-25 12-50 21-75 27-26 6-51 9-75 9-66 0-116-22-150-66s-54-111-58-199c19 28 43 50 72 65s61 23 96 23c73 0 131-23 173-67s64-105 64-181c0-75-23-135-67-180S403-13 330-13c-84 0-149 32-193 96-45 64-67 158-67 281 0 115 27 207 82 275 54 68 128 103 220 103 24 0 49-3 75-7 25-5 51-12 79-22z"/></symbol><use xlink:href="#g" transform="matrix(10 0 0 -10 318.762 322.308)"/><use xlink:href="#a" transform="matrix(10 0 0 -10 325.082 322.308)"/><path stroke-width=".8" stroke-linejoin="round" fill="none" stroke="#000" d="M360.232 307.584v3.5"/><symbol id="h"><path transform="translate(-.082) scale(.001)" d="M82 729h469v-42L286 0H183l249 646H82v83z"/></symbol><use xlink:href="#h" transform="matrix(10 0 0 -10 354.693 322.178)"/><use xlink:href="#a" transform="matrix(10 0 0 -10 360.893 322.308)"/><symbol id="i"><path transform="translate(.002) scale(.001)" d="M-2 729h616v-83H355V0h-99v646H-2v83z"/></symbol><symbol id="j"><path transform="translate(-.094) scale(.001)" d="M94 547h90V0H94v547zm0 213h90V646H94v114z"/></symbol><symbol id="k"><path transform="translate(-.091) scale(.001)" d="M520 442c22 40 49 69 80 89 31 19 68 29 111 29 56 0 100-20 131-60s47-97 47-170V0h-90v327c0 52-10 91-28 117-19 25-47 38-85 38-47 0-84-16-111-47s-40-73-40-126V0h-90v327c0 52-10 91-28 117-19 25-48 38-86 38-46 0-83-16-110-47s-40-73-40-126V0H91v547h90v-85c20 33 45 58 74 74 28 16 62 24 102 24s73-10 101-30 48-50 62-88z"/></symbol><symbol id="l"><path transform="matrix(.001 0 0 .001 -.055 .013)" d="M562 296v-44H149c4-62 22-110 56-142 33-32 79-48 139-48 34 0 68 4 100 12s65 21 97 39V28c-32-14-65-25-99-31s-69-10-103-10c-88 0-157 25-208 75S55 181 55 268c0 89 24 160 72 213 48 52 114 79 196 79 74 0 132-24 175-71 42-48 64-112 64-193zm-90 26c-1 49-15 88-41 118-27 29-63 44-107 44-50 0-90-15-120-43s-48-68-52-119h320z"/></symbol><symbol id="n"><path transform="matrix(.001 0 0 .001 -.086 .131)" d="M86 760h207v-70H176V-61h117v-70H86v891z"/></symbol><symbol id="o"><path transform="matrix(.001 0 0 .001 -.054 .013)" d="M443 531v-85c-26 12-52 22-79 29-28 6-56 10-85 10-45 0-79-7-101-21s-33-34-33-61c0-21 8-37 24-49s48-24 96-34l31-7c64-14 109-34 136-58 26-25 40-60 40-104 0-51-20-91-60-120-40-30-96-44-166-44-30 0-60 3-92 8S89 8 54 20v93c33-18 66-31 98-39 32-9 64-13 96-13 42 0 75 7 98 21 22 14 34 35 34 62 0 24-9 43-25 56s-52 26-108 38l-31 7c-56 12-97 30-121 54-25 24-37 57-37 100 0 51 18 91 54 119s88 42 156 42c33 0 64-3 94-8 29-5 56-12 81-21z"/></symbol><symbol id="p"><path transform="matrix(.001 0 0 .001 -.097 .131)" d="M304 760v-891H97v70h117v751H97v70h207z"/></symbol><use xlink:href="#i" transform="matrix(10 0 0 -10 215.757 335.85)"/><use xlink:href="#j" transform="matrix(10 0 0 -10 222.53 335.85)"/><use xlink:href="#k" transform="matrix(10 0 0 -10 225.28 335.85)"/><use xlink:href="#l" transform="matrix(10 0 0 -10 234.66 335.98)"/><use xlink:href="#m" transform="matrix(10 0 0 -10 240.26 335.85)"/><use xlink:href="#n" transform="matrix(10 0 0 -10 244.3 337.16)"/><use xlink:href="#o" transform="matrix(10 0 0 -10 247.88 335.98)"/><use xlink:href="#p" transform="matrix(10 0 0 -10 253.52 337.16)"/><path stroke-width=".8" stroke-linejoin="round" fill="none" stroke="#000" d="M103.104 305.15h-3.5"/><use xlink:href="#e" transform="matrix(10 0 0 -10 83.875 308.947)"/><use xlink:href="#a" transform="matrix(10 0 0 -10 90.405 309.077)"/><path stroke-width=".8" stroke-linejoin="round" fill="none" stroke="#000" d="M103.104 259.025h-3.5"/><use xlink:href="#g" transform="matrix(10 0 0 -10 84.085 262.952)"/><use xlink:href="#a" transform="matrix(10 0 0 -10 90.405 262.952)"/><path stroke-width=".8" stroke-linejoin="round" fill="none" stroke="#000" d="M103.104 212.9h-3.5"/><symbol id="q"><path transform="matrix(.001 0 0 .001 -.068 .013)" d="M318 346c-47 0-84-13-111-38s-40-59-40-103 13-79 40-104 64-37 111-37c46 0 83 12 110 38 27 25 41 59 41 103s-14 78-40 103c-27 25-64 38-111 38zm-99 42c-42 10-75 30-99 59s-35 64-35 106c0 58 20 104 62 138 41 34 98 51 171 51 72 0 129-17 171-51 41-34 62-80 62-138 0-42-12-77-36-106s-56-49-98-59c47-11 84-33 111-65 26-32 40-72 40-118 0-71-22-125-65-162-44-38-106-56-186-56S175 5 132 43c-43 37-64 91-64 162 0 46 13 86 40 118 26 32 63 54 111 65zm-36 156c0-38 11-68 35-89s57-31 100-31c42 0 75 10 99 31s36 51 36 89-12 67-36 88-57 32-99 32c-43 0-76-11-100-32s-35-50-35-88z"/></symbol><use xlink:href="#q" transform="matrix(10 0 0 -10 84.065 216.826)"/><use xlink:href="#a" transform="matrix(10 0 0 -10 90.405 216.826)"/><path stroke-width=".8" stroke-linejoin="round" fill="none" stroke="#000" d="M103.104 166.773h-3.5"/><use xlink:href="#b" transform="matrix(10 0 0 -10 78.126 170.57)"/><use xlink:href="#a" transform="matrix(10 0 0 -10 84.046 170.7)"/><use xlink:href="#a" transform="matrix(10 0 0 -10 90.406 170.7)"/><path stroke-width=".8" stroke-linejoin="round" fill="none" stroke="#000" d="M103.104 120.648h-3.5"/><use xlink:href="#b" transform="matrix(10 0 0 -10 78.126 124.445)"/><use xlink:href="#c" transform="matrix(10 0 0 -10 84.116 124.445)"/><use xlink:href="#a" transform="matrix(10 0 0 -10 90.406 124.575)"/><path stroke-width=".8" stroke-linejoin="round" fill="none" stroke="#000" d="M103.104 74.522h-3.5"/><use xlink:href="#b" transform="matrix(10 0 0 -10 78.126 78.319)"/><use xlink:href="#e" transform="matrix(10 0 0 -10 83.876 78.319)"/><use xlink:href="#a" transform="matrix(10 0 0 -10 90.406 78.449)"/><symbol id="r"><path transform="matrix(.001 0 0 .001 -.056 .013)" d="M394 662c-72 0-129-27-171-80-42-54-63-126-63-218s21-165 63-218c42-54 99-80 171-80 71 0 128 26 170 80 42 53 63 126 63 218s-21 164-63 218c-42 53-99 80-170 80zm0 80c102 0 183-35 245-103 61-68 92-160 92-275 0-116-31-207-92-275C577 21 496-13 394-13 291-13 209 21 148 89c-62 68-92 159-92 275 0 115 30 207 92 275 61 68 143 103 246 103z"/></symbol><symbol id="s"><path transform="translate(-.091) scale(.001)" d="M411 463c-10 6-21 10-33 13-12 2-25 4-39 4-51 0-90-17-117-50-28-33-41-80-41-142V0H91v547h90v-85c18 33 43 58 73 74s67 24 111 24c6 0 13-1 21-1 7-1 15-2 25-4v-92z"/></symbol><symbol id="t"><path transform="translate(-.091) scale(.001)" d="M549 330V0h-90v327c0 52-11 90-31 116s-50 39-90 39c-49 0-87-16-115-47s-42-73-42-126V0H91v547h90v-85c21 32 46 57 76 73 29 16 63 25 101 25 62 0 110-20 142-59s49-96 49-171z"/></symbol><symbol id="u"><path transform="translate(-.027) scale(.001)" d="M183 702V547h185v-70H183V180c0-45 6-74 18-86 12-13 37-19 75-19h92V0h-92c-70 0-118 13-144 39s-39 73-39 141v297H27v70h66v155h90z"/></symbol><symbol id="v"><path transform="matrix(.001 0 0 .001 -.06 .013)" d="M343 275c-73 0-123-9-151-25-28-17-42-45-42-85 0-32 10-58 31-76 21-19 50-28 86-28 50 0 90 17 120 53 30 35 45 82 45 141v20h-89zm179 37V0h-90v83c-21-34-47-58-77-73s-68-23-112-23c-56 0-101 15-134 46s-49 73-49 126c0 61 20 107 62 139 41 31 102 47 184 47h126v9c0 41-14 73-41 96-27 22-65 34-114 34-32 0-62-4-92-12s-58-19-85-33v83c32 12 64 22 95 28s61 10 91 10c79 0 138-21 177-62s59-103 59-186z"/></symbol><symbol id="w"><path transform="matrix(.001 0 0 .001 -.055 .013)" d="M306 484c-48 0-86-19-114-57s-42-89-42-154c0-66 13-117 41-155s66-56 115-56c48 0 86 18 114 56s42 89 42 155c0 64-14 116-42 154s-66 57-114 57zm0 76c78 0 139-26 184-76 44-51 67-121 67-211s-23-160-67-210c-45-51-106-76-184-76-79 0-141 25-185 76-44 50-66 120-66 210s22 160 66 211c44 50 106 76 185 76z"/></symbol><symbol id="x"><path transform="matrix(.001 0 0 .001 -.095 -.432)" d="M250 679c-26 0-48-9-66-27s-27-40-27-66 9-48 27-66 40-26 66-26 48 8 66 26 27 40 27 66-9 48-27 66-40 27-66 27zm0 63c20 0 40-4 60-12 19-8 36-20 50-34 14-15 25-32 33-50 8-19 12-39 12-60 0-44-16-80-46-110s-67-44-110-44c-44 0-81 14-110 44-30 29-44 66-44 110 0 43 15 80 45 110s66 46 110 46z"/></symbol><use xlink:href="#r" transform="matrix(0 -10 -10 0 71.078 210.21)"/><use xlink:href="#s" transform="matrix(0 -10 -10 0 70.948 201.99)"/><use xlink:href="#j" transform="matrix(0 -10 -10 0 70.948 197.85)"/><use xlink:href="#l" transform="matrix(0 -10 -10 0 71.078 195.46)"/><use xlink:href="#t" transform="matrix(0 -10 -10 0 70.948 188.95)"/><use xlink:href="#u" transform="matrix(0 -10 -10 0 70.948 183.25)"/><use xlink:href="#v" transform="matrix(0 -10 -10 0 71.078 179)"/><use xlink:href="#u" transform="matrix(0 -10 -10 0 70.948 173.2)"/><use xlink:href="#j" transform="matrix(0 -10 -10 0 70.948 168.61)"/><use xlink:href="#w" transform="matrix(0 -10 -10 0 71.078 166.22)"/><use xlink:href="#t" transform="matrix(0 -10 -10 0 70.948 159.74)"/><use xlink:href="#m" transform="matrix(0 -10 -10 0 70.948 154.31)"/><use xlink:href="#n" transform="matrix(0 -10 -10 0 72.258 150.27)"/><use xlink:href="#x" transform="matrix(0 -10 -10 0 66.628 146.28)"/><use xlink:href="#p" transform="matrix(0 -10 -10 0 72.258 141.26)"/><clipPath id="y"><path transform="matrix(1 0 0 -1 0 345.6)" d="M103.104 38.016h266.112v266.112H103.104z"/></clipPath><g clip-path="url(#y)"><path stroke-width="2.5" stroke-linecap="square" stroke-linejoin="round" fill="none" stroke="teal" d="m115.2 189.991.054-.157.068.14.096.256.068-.145.061.228.054-.137.061-.014.115.092.103-.224.09.183.075-.195.057.174.158-.359.129.162.06-.241.173.08.064-.225.065.077.29-.198.146.009.201-.054.136.008 1.24-.524.114.06.046-.108.14.008.365-.196.133-.044.197-.146.064.059.269-.141.071.058.18-.243.075.057.168-.194.261-.08.63-.354.441-.075.133-.09.293-.068.208-.145.304-.09.784-.362.115.003.254-.136.19-.086.283-.129.3-.08.055-.09.053.05 1.325-.469.272-.089.298-.135.1.047.186-.137.165.001.422-.176.308-.089.34-.13.552-.085.483-.172.412-.06.04-.06.071.125.061-.144.086.13.054-.095.218.03.373-.11.326-.096.67-.306.05.049.24-.087.282-.088.362-.08.34-.176.297-.001.13-.047h.16l.065-.092.097.09.057-.093.462-.052.186-.091.129-.05.508-.09.165-.088.634-.088.057-.09.158.088.197-.138.16.005.166-.042.304-.178.093.049.068-.093.111.047.186-.09 1.007-.137.2-.087.136.002.53-.13.058.09.068-.044.354-.04 1.472-.04.143-.043.208-.092.157.048h.488l.046.108.308.024h.269l.093-.094.071.093.043-.092.348-.087h.225l.147-.087.15.005.058.052.2-.134.251.003.487-.083.448-.127 1.181-.148.326-.137.104.002.204-.089.072.048.075-.135.104.091.057-.09.13-.044.221.048.24-.043.06.044.044-.089.376.01.068-.136.158.046.573-.093h.121l.351-.09.075.046.24-.093.154.002.19.044.444-.084.86.025.064.09.065-.083.361-.09.15-.007.448-.026.058-.09.154.045.393-.138.273.09.182-.087.126.09.25-.09.054.088.06-.088 3.861-.104.158-.547.225-.583.222.07.115.31.738 2.936.386.595.258.138.323-.086 1.231.001.15.047.266.091 1.772.776.13-.003.186.043.128-.091.05.138.047-.091 1.024-.12.187-.046.386-.08.05-.092.058.09.372-.177h.215l.129-.09.079.086.222-.09.29-.09.39-.043.183-.142.265.048.179-.087.286-.098.226.087.258-.044.69-.097.144-.132.104.046.211-.135.91-.088.222.002h.48l.841.054.262-.1 1.711-.593.315-.08.219-.09.036.045.426-.054.193-.142.093.087.047-.09.215.022.118-.103.516-.124.143-.05.236-.094.33-.172.068.048.315-.17.079.051.053-.084.258.01.168-.763.502-.793.834 3.318.222.684.294.552.218.14.204.097.068-.089.069.091.58-.26.1.09.06-.088.105.045.232-.046.19.002 1.25.69.183.18.24.138.154.046.2.134.193.095.376.092.219.002 2.299-.008.365-.14.387-.091.19-.09.45-.093.27-.134.168.05.06-.136.058.047.226-.042.175-.09.24-.004.347-.09.1.087.058-.09.58-.09.276-.088.057.046.065-.136.229.041.35-.135.624-.09.186-.091.064.09.061-.09.49-.091.223-.043h.161l.734-.042.05-.092.058.047 1.006-.002.072-.135.06.094.258-.094.054.089.068-.046.269-.084.512-.086.24-.046.197.044.128-.044.24.044 12.953-.015.358 4.278.133.363.121.048.233-.652.405-3.896 1.056-10.257.226-1.455.247-1.87.25-1.45.903-7.353.455-4.764.386-2.575.122-1.941.18-1.694.21-2.063.251-.967 1.622-24.031.738-13.4.587-6.814.584-4.823.168-1.013.133-.921.168 1.192.981-9.16.61-2.082.687-1.723 1.235-2.163.1.042.244-.357.34-.614 1-1.387.687-.476.075.022.294-.223 1.321-.526.236-.04.169-.057.215-.01.694-.087.351.63.265.032.18-.153.21-.295.176-.28 1.05-2.937.26-.633.416-1.278.183-.363.179-.525.186-.397.233-.421.451-.658.412.062.272-.279.72-1.616.473-1.586.59-2.276.348-1.665.45-1.077.305-.42.323-.463.501-.463.175-.22 1.204-1.352.182-.086.72-.535.183-.05.877-.343.19-.021.336-.103 1.154-.167h.218l.996-.086.21-.023 3.03-.075.376-.141.215-.008.315-.046.144.046.164.003.584-.087.3-.064.731-.11.978-.109.308-.061.451-.058.276-.028h.347l.15-.082.223.052.386-.077.47-.131.175-.079.777-.264 4.484-.767.182.002.13-.042 1.141-.153.13-.101.236-.024.272-.097.297-.049.258-.06.501-.123.075.027.24-.08.33-.062.666-.107.308-.078 1.282-.287 2.045-.45.322-.098.14.023.497-.09h.08l.25-1.278.319-.327.128.234.61 2.493.458 2.234.727 2.05.293.539.656 1.487.282 1.16.262.83.512 2.407.52 1.938.275 1.658.662 2.809.48 1.877.545 1.77.225.327 1.02.42.065-.052.058.092.21.07.914.904.376.331.398.257.071.09.075-.073.215.086.591.033.881-.348.269-3.082.16-.225.133.063.276.777.175.712 1.275 8.323 1.909 17.288 1.84 26.219.405 6.757.383 7.112.495 10.75.257 4.897.867 12.294.902 18.686.831 27.068.95 39.552.228 6.167.09-.405.33-.768.207-.197.154.123.283.526.91 2.826.587 1.143.236.366.254.642.541 1.016.297.283.44.194.334-.12.319-.172.304-.221.365-.41h.065l.268-.324 2.102-1.532h.144l.343-.169.208-.014.38-.12.558-.047.09-.123.075.12.15-.14.119.033.25-.106.505-.157.297-.014.437-.113.15-.019 4.448-1.284.212-.09.544-.113.337-.14.805-.11.05-.072.069.088.204-.117.24-.017.207-.058.054.016.25-.1.309-.092.146.036.23-.088.118.027.208-.13.14.077.246-.062.144.006.05-.092.053.038.634-.181.315-.033.251-.113.3-.048.592-.163 1.636-.38.28 3.205.24.462.146.048.355-1.377.422-4.029.301-3.113.831-7.513.738-4.856.394-3.572.519-4.935.91-12.575.544-14.494.254-9.822.304-5.981.301-2.034.061-.051.107.086.122.878 1.067 10.565.28.442.186.131.233.008.523 1.33.913 8.378 1.052 16.293.154 2.49.402 7.368.179 2.567.182 3.607.365 5.377.86 10.233 1.472 10.642.472 2.842.677 1.567.942.43.365.34.251.383.143.103.498.524.097-.048.064.178.072-.112.193.157.236.04.248.092.136-.107.247-.053.34-.047.23-.18.837-.485.305-.245.068.074.197-.235.196.037.061-.134.065.065.34-.203.064.036.437-.207.15.037.08-.097.057.105.132-.036.792-.065.071-.142.104.101.065-.069.497-.068.205-.065.121.008.194-.033.121.042.05-.082.072.049.158.056.06-.065.076.077.229-.06.509-.058.637-.124 1.407-.44.695-.874.036.03.136.072.211.367.29.954.423 1.45.601 1.575.072-.061.269.312.118-.016.748-.598.147-.006.211-.092.154.054h.283l.2-.017.144.13.365-.587.244-.07.243.56.412 1.198.161.94.66 1.717.436.273.111-.07 1.658-.015.713.304.297.031.204.11 1.218.201.171.031.308-.8.29-.234.183.031.061.234"/></g><clipPath id="z"><path transform="matrix(1 0 0 -1 0 345.6)" d="M103.104 38.016h266.112v266.112H103.104z"/></clipPath><g clip-path="url(#z)"><path stroke-width="2.5" stroke-dasharray="9.25,4" stroke-linejoin="round" fill="none" stroke="red" d="m115.2 191.152 12.458.138 26.69.886 10.02.415 5.962.226 40.408 2.004.133-81.092h4.848l.122-27.675h4.172l.168-6.92h3.016l.154-6.918h4.941l.169-6.919h4l.179-6.919h35.284l.16 27.676h12.151l.14 168.162 4.827 5.686h30.904l.169-76.985h5.242l.126 89.692.419.354.487.49 3.344 3.671.344.375 1.998 1.738 3.084 1.567.974.351 2.134.82.985.387 2.36.995.587.262 6.571 3.508 7.549 4.842 4.057 3.033.34.241.244.245"/></g><path stroke-width=".8" stroke-linecap="square" stroke-miterlimit="10" fill="none" stroke="#000" d="M103.104 307.584V41.472M369.216 307.584V41.472M103.104 307.584h266.112M103.104 41.472h266.112"/><path d="M110.104 302.584h153.36c1.333 0 2-.667 2-2V272.24c0-1.333-.667-2-2-2h-153.36c-1.333 0-2 .667-2 2v28.344c0 1.333.667 2 2 2z" fill="#fff" fill-opacity=".8"/><path stroke-miterlimit="10" fill="none" stroke="#d5d6d5" stroke-opacity=".8" d="M110.104 302.584h153.36c1.333 0 2-.667 2-2V272.24c0-1.333-.667-2-2-2h-153.36c-1.333 0-2 .667-2 2v28.344c0 1.333.667 2 2 2z"/><path stroke-width="2.5" stroke-linecap="square" stroke-linejoin="round" fill="none" stroke="teal" d="M112.104 278.334h20"/><symbol id="A"><path transform="matrix(.001 0 0 .001 -.056 .013)" d="M644 673V569c-34 30-69 53-107 69-38 15-77 23-119 23-84 0-148-26-192-77s-66-124-66-220 22-170 66-221 108-76 192-76c42 0 81 7 119 23 38 15 73 38 107 69V56c-35-24-72-41-110-52s-79-17-122-17C302-13 215 20 151 87S56 246 56 364c0 117 31 209 95 277 64 67 151 101 261 101 44 0 85-6 123-17 38-12 75-29 109-52z"/></symbol><symbol id="B"><path transform="matrix(.001 0 0 .001 -.085 .013)" d="M85 216v331h90V219c0-52 10-90 30-116s50-39 91-39c48 0 87 15 115 46s42 73 42 127v310h90V0h-90v84c-22-34-48-58-76-74-29-15-62-23-100-23-63 0-111 19-143 58-33 38-49 95-49 171zm226 344z"/></symbol><symbol id="C"><path transform="matrix(.001 0 0 .001 -.086 .131)" d="M310 759c-44-76-76-150-97-223-22-73-32-147-32-222 0-76 10-150 32-223 21-74 53-147 97-222h-78C183-54 146 20 122 94S86 241 86 314c0 72 12 145 36 219s60 149 110 226h78z"/></symbol><symbol id="D"><path transform="matrix(.001 0 0 .001 -.066 .013)" d="M535 705v-96c-38 18-73 31-106 40-34 8-66 13-96 13-54 0-96-11-125-31-29-21-43-51-43-89 0-32 9-57 29-73 19-17 56-30 110-40l60-12c73-14 127-39 162-74 35-36 53-83 53-142 0-71-24-124-71-160-48-36-117-54-208-54-35 0-72 4-111 11S110 16 69 32v102c40-23 79-40 117-51 38-12 76-17 114-17 56 0 99 11 130 33 30 22 46 53 46 95 0 36-11 64-33 84s-58 35-108 45l-60 12c-74 14-127 37-160 69-33 31-49 74-49 130 0 64 22 115 68 152 45 37 108 56 188 56 34 0 68-3 104-9 35-6 71-16 109-28z"/></symbol><symbol id="E"><path transform="matrix(.001 0 0 .001 -.08 .131)" d="M80 759h78c48-77 85-152 109-226s37-147 37-219c0-73-13-146-37-220S206-54 158-131H80c43 75 75 148 97 222 21 73 32 147 32 223 0 75-11 149-32 222-22 73-54 147-97 223z"/></symbol><use xlink:href="#A" transform="matrix(10 0 0 -10 140.664 281.964)"/><use xlink:href="#B" transform="matrix(10 0 0 -10 147.934 281.964)"/><use xlink:href="#s" transform="matrix(10 0 0 -10 154.334 281.834)"/><use xlink:href="#s" transform="matrix(10 0 0 -10 158.272 281.834)"/><use xlink:href="#l" transform="matrix(10 0 0 -10 161.803 281.964)"/><use xlink:href="#t" transform="matrix(10 0 0 -10 168.313 281.834)"/><use xlink:href="#u" transform="matrix(10 0 0 -10 174.013 281.834)"/><use xlink:href="#m" transform="matrix(10 0 0 -10 177.663 281.834)"/><use xlink:href="#w" transform="matrix(10 0 0 -10 181.393 281.964)"/><use xlink:href="#s" transform="matrix(10 0 0 -10 187.873 281.834)"/><use xlink:href="#j" transform="matrix(10 0 0 -10 192.013 281.834)"/><use xlink:href="#l" transform="matrix(10 0 0 -10 194.403 281.964)"/><use xlink:href="#t" transform="matrix(10 0 0 -10 200.913 281.834)"/><use xlink:href="#u" transform="matrix(10 0 0 -10 206.613 281.834)"/><use xlink:href="#v" transform="matrix(10 0 0 -10 210.863 281.964)"/><use xlink:href="#u" transform="matrix(10 0 0 -10 216.663 281.834)"/><use xlink:href="#j" transform="matrix(10 0 0 -10 221.253 281.834)"/><use xlink:href="#w" transform="matrix(10 0 0 -10 223.643 281.964)"/><use xlink:href="#t" transform="matrix(10 0 0 -10 230.123 281.834)"/><use xlink:href="#m" transform="matrix(10 0 0 -10 235.553 281.834)"/><use xlink:href="#C" transform="matrix(10 0 0 -10 239.593 283.144)"/><use xlink:href="#r" transform="matrix(10 0 0 -10 243.193 281.964)"/><use xlink:href="#D" transform="matrix(10 0 0 -10 251.163 281.964)"/><use xlink:href="#E" transform="matrix(10 0 0 -10 257.653 283.144)"/><path stroke-width="2.5" stroke-dasharray="9.25,4" stroke-linejoin="round" fill="none" stroke="red" d="M112.104 293.006h20"/><symbol id="F"><path transform="translate(-.098) scale(.001)" d="M197 648V81h119c100 0 174 22 221 68 46 46 70 118 70 216s-24 169-70 215c-47 45-121 68-221 68H197zm-99 81h203c141 0 245-30 311-88 66-59 99-151 99-276 0-126-34-218-100-277S441 0 301 0H98v729z"/></symbol><symbol id="G"><path transform="matrix(.001 0 0 .001 -.055 .013)" d="M454 464v296h90V0h-90v82c-19-33-43-57-72-72s-63-23-103-23c-66 0-120 26-162 78S55 187 55 273s20 155 62 208c42 52 96 79 162 79 40 0 74-8 103-24s53-40 72-72zM148 273c0-66 13-118 40-156s64-56 112-56 85 18 113 56c27 38 41 90 41 156s-14 117-41 155c-28 38-65 57-113 57s-85-19-112-57-40-89-40-155z"/></symbol><use xlink:href="#F" transform="matrix(10 0 0 -10 141.084 296.506)"/><use xlink:href="#l" transform="matrix(10 0 0 -10 148.354 296.636)"/><use xlink:href="#o" transform="matrix(10 0 0 -10 154.494 296.636)"/><use xlink:href="#j" transform="matrix(10 0 0 -10 160.104 296.506)"/><use xlink:href="#s" transform="matrix(10 0 0 -10 162.854 296.506)"/><use xlink:href="#l" transform="matrix(10 0 0 -10 166.385 296.636)"/><use xlink:href="#G" transform="matrix(10 0 0 -10 172.535 296.636)"/><use xlink:href="#m" transform="matrix(10 0 0 -10 178.335 296.506)"/><use xlink:href="#w" transform="matrix(10 0 0 -10 182.065 296.636)"/><use xlink:href="#s" transform="matrix(10 0 0 -10 188.545 296.506)"/><use xlink:href="#j" transform="matrix(10 0 0 -10 192.685 296.506)"/><use xlink:href="#l" transform="matrix(10 0 0 -10 195.075 296.636)"/><use xlink:href="#t" transform="matrix(10 0 0 -10 201.585 296.506)"/><use xlink:href="#u" transform="matrix(10 0 0 -10 207.285 296.506)"/><use xlink:href="#v" transform="matrix(10 0 0 -10 211.535 296.636)"/><use xlink:href="#u" transform="matrix(10 0 0 -10 217.335 296.506)"/><use xlink:href="#j" transform="matrix(10 0 0 -10 221.925 296.506)"/><use xlink:href="#w" transform="matrix(10 0 0 -10 224.315 296.636)"/><use xlink:href="#t" transform="matrix(10 0 0 -10 230.795 296.506)"/><use xlink:href="#m" transform="matrix(10 0 0 -10 236.225 296.506)"/><use xlink:href="#C" transform="matrix(10 0 0 -10 240.265 297.816)"/><use xlink:href="#r" transform="matrix(10 0 0 -10 243.865 296.636)"/><use xlink:href="#D" transform="matrix(10 0 0 -10 251.835 296.636)"/><use xlink:href="#E" transform="matrix(10 0 0 -10 258.325 297.816)"/></svg>