<svg xmlns="http://www.w3.org/2000/svg" xmlns:xlink="http://www.w3.org/1999/xlink" width="304pt" height="396" viewBox="0 0 304 297"><clipPath id="a"><path transform="matrix(1 0 0 -1 -66 305)" d="M0 0h460.8v345.6H0z"/></clipPath><g clip-path="url(#a)"><path d="M-66 305h460.8V-40.6H-66z" fill="#fff"/><path d="M37.104 266.984h266.112V.872H37.104z" fill="#fff"/><path stroke-width=".8" stroke-linejoin="round" fill="none" stroke="#000" d="M43.56 266.984v3.5"/><symbol id="b"><path transform="matrix(.001 0 0 .001 -.066 .013)" d="M318 664c-51 0-89-25-115-75s-38-125-38-225 12-175 38-225 64-75 115-75 89 25 115 75c25 50 38 125 38 225s-13 175-38 225c-26 50-64 75-115 75zm0 78c81 0 143-33 187-97 43-65 65-159 65-281 0-123-22-217-65-281-44-64-106-96-188-96S173 19 130 83 66 241 66 364c0 122 21 216 64 281 43 64 106 97 188 97z"/></symbol><use xlink:href="#b" transform="matrix(10 0 0 -10 41.04 281.708)"/><path stroke-width=".8" stroke-linejoin="round" fill="none" stroke="#000" d="M79.37 266.984v3.5"/><symbol id="c"><path transform="translate(-.11) scale(.001)" d="M124 83h161v556l-175-35v90l174 35h99V83h161V0H124v83z"/></symbol><use xlink:href="#c" transform="matrix(10 0 0 -10 74.11 281.578)"/><use xlink:href="#b" transform="matrix(10 0 0 -10 80.03 281.708)"/><path stroke-width=".8" stroke-linejoin="round" fill="none" stroke="#000" d="M115.18 266.984v3.5"/><symbol id="d"><path transform="translate(-.073) scale(.001)" d="M192 83h344V0H73v83c37 38 88 90 153 156 64 65 105 107 122 126 32 35 54 65 66 90 12 24 19 49 19 73 0 38-14 70-41 94s-62 37-106 37c-31 0-64-6-98-16-34-11-71-27-110-49v100c40 16 77 28 111 36s66 12 95 12c75 0 135-19 180-57s68-88 68-151c0-30-6-59-17-85-11-27-31-59-61-95-8-10-34-37-78-82S271 164 192 83z"/></symbol><use xlink:href="#d" transform="matrix(10 0 0 -10 109.551 281.578)"/><use xlink:href="#b" transform="matrix(10 0 0 -10 115.841 281.708)"/><path stroke-width=".8" stroke-linejoin="round" fill="none" stroke="#000" d="M150.99 266.984v3.5"/><symbol id="e"><path transform="matrix(.001 0 0 .001 -.076 .013)" d="M406 393c47-10 84-31 110-63s40-72 40-118c0-72-25-128-74-167-50-39-120-58-211-58-31 0-63 3-95 9-32 5-66 14-100 26v95c27-16 57-28 90-36 32-8 66-12 102-12 62 0 109 12 141 36s49 60 49 107c0 42-15 76-45 100s-72 37-126 37h-85v81h89c48 0 85 9 111 29 26 19 39 47 39 84s-14 66-40 86c-27 20-65 30-114 30-27 0-56-3-87-9s-65-15-102-27v88c37 10 72 18 105 23 32 5 63 8 93 8 74 0 133-17 177-51s66-80 66-138c0-40-12-74-35-102s-56-48-98-58z"/></symbol><use xlink:href="#e" transform="matrix(10 0 0 -10 145.391 281.708)"/><use xlink:href="#b" transform="matrix(10 0 0 -10 151.651 281.708)"/><path stroke-width=".8" stroke-linejoin="round" fill="none" stroke="#000" d="M186.801 266.984v3.5"/><symbol id="f"><path transform="translate(-.049) scale(.001)" d="M378 643 129 254h249v389zm-26 86h124V254h104v-82H476V0h-98v172H49v95l303 462z"/></symbol><use xlink:href="#f" transform="matrix(10 0 0 -10 180.932 281.578)"/><use xlink:href="#b" transform="matrix(10 0 0 -10 187.462 281.708)"/><path stroke-width=".8" stroke-linejoin="round" fill="none" stroke="#000" d="M222.611 266.984v3.5"/><symbol id="g"><path transform="matrix(.001 0 0 .001 -.077 .013)" d="M108 729h387v-83H198V467c14 5 29 9 43 11s29 4 43 4c81 0 145-23 193-67 48-45 72-105 72-181 0-79-25-140-74-183S357-13 269-13c-31 0-62 3-94 7-32 5-64 12-98 23v99c29-16 59-28 91-36 31-8 64-11 99-11 56 0 101 14 134 44 32 30 49 70 49 121 0 50-17 90-49 120-33 30-78 45-134 45-26 0-53-3-79-9s-53-15-80-27v366z"/></symbol><use xlink:href="#g" transform="matrix(10 0 0 -10 217.022 281.708)"/><use xlink:href="#b" transform="matrix(10 0 0 -10 223.272 281.708)"/><path stroke-width=".8" stroke-linejoin="round" fill="none" stroke="#000" d="M258.422 266.984v3.5"/><symbol id="h"><path transform="matrix(.001 0 0 .001 -.07 .013)" d="M330 404c-44 0-79-16-105-46s-39-72-39-124c0-53 13-95 39-125s61-45 105-45 79 15 105 45 39 72 39 125c0 52-13 94-39 124s-61 46-105 46zm196 309v-90c-25 12-50 21-75 27-26 6-51 9-75 9-66 0-116-22-150-66s-54-111-58-199c19 28 43 50 72 65s61 23 96 23c73 0 131-23 173-67s64-105 64-181c0-75-23-135-67-180S403-13 330-13c-84 0-149 32-193 96-45 64-67 158-67 281 0 115 27 207 82 275 54 68 128 103 220 103 24 0 49-3 75-7 25-5 51-12 79-22z"/></symbol><use xlink:href="#h" transform="matrix(10 0 0 -10 252.762 281.708)"/><use xlink:href="#b" transform="matrix(10 0 0 -10 259.082 281.708)"/><path stroke-width=".8" stroke-linejoin="round" fill="none" stroke="#000" d="M294.232 266.984v3.5"/><symbol id="i"><path transform="translate(-.082) scale(.001)" d="M82 729h469v-42L286 0H183l249 646H82v83z"/></symbol><use xlink:href="#i" transform="matrix(10 0 0 -10 288.693 281.578)"/><use xlink:href="#b" transform="matrix(10 0 0 -10 294.893 281.708)"/><symbol id="j"><path transform="translate(.002) scale(.001)" d="M-2 729h616v-83H355V0h-99v646H-2v83z"/></symbol><symbol id="k"><path transform="translate(-.094) scale(.001)" d="M94 547h90V0H94v547zm0 213h90V646H94v114z"/></symbol><symbol id="l"><path transform="translate(-.091) scale(.001)" d="M520 442c22 40 49 69 80 89 31 19 68 29 111 29 56 0 100-20 131-60s47-97 47-170V0h-90v327c0 52-10 91-28 117-19 25-47 38-85 38-47 0-84-16-111-47s-40-73-40-126V0h-90v327c0 52-10 91-28 117-19 25-48 38-86 38-46 0-83-16-110-47s-40-73-40-126V0H91v547h90v-85c20 33 45 58 74 74 28 16 62 24 102 24s73-10 101-30 48-50 62-88z"/></symbol><symbol id="m"><path transform="matrix(.001 0 0 .001 -.055 .013)" d="M562 296v-44H149c4-62 22-110 56-142 33-32 79-48 139-48 34 0 68 4 100 12s65 21 97 39V28c-32-14-65-25-99-31s-69-10-103-10c-88 0-157 25-208 75S55 181 55 268c0 89 24 160 72 213 48 52 114 79 196 79 74 0 132-24 175-71 42-48 64-112 64-193zm-90 26c-1 49-15 88-41 118-27 29-63 44-107 44-50 0-90-15-120-43s-48-68-52-119h320z"/></symbol><symbol id="o"><path transform="matrix(.001 0 0 .001 -.086 .131)" d="M86 760h207v-70H176V-61h117v-70H86v891z"/></symbol><symbol id="p"><path transform="matrix(.001 0 0 .001 -.054 .013)" d="M443 531v-85c-26 12-52 22-79 29-28 6-56 10-85 10-45 0-79-7-101-21s-33-34-33-61c0-21 8-37 24-49s48-24 96-34l31-7c64-14 109-34 136-58 26-25 40-60 40-104 0-51-20-91-60-120-40-30-96-44-166-44-30 0-60 3-92 8S89 8 54 20v93c33-18 66-31 98-39 32-9 64-13 96-13 42 0 75 7 98 21 22 14 34 35 34 62 0 24-9 43-25 56s-52 26-108 38l-31 7c-56 12-97 30-121 54-25 24-37 57-37 100 0 51 18 91 54 119s88 42 156 42c33 0 64-3 94-8 29-5 56-12 81-21z"/></symbol><symbol id="q"><path transform="matrix(.001 0 0 .001 -.097 .131)" d="M304 760v-891H97v70h117v751H97v70h207z"/></symbol><use xlink:href="#j" transform="matrix(10 0 0 -10 149.757 295.25)"/><use xlink:href="#k" transform="matrix(10 0 0 -10 156.53 295.25)"/><use xlink:href="#l" transform="matrix(10 0 0 -10 159.28 295.25)"/><use xlink:href="#m" transform="matrix(10 0 0 -10 168.66 295.38)"/><use xlink:href="#n" transform="matrix(10 0 0 -10 174.26 295.25)"/><use xlink:href="#o" transform="matrix(10 0 0 -10 178.3 296.56)"/><use xlink:href="#p" transform="matrix(10 0 0 -10 181.88 295.38)"/><use xlink:href="#q" transform="matrix(10 0 0 -10 187.52 296.56)"/><path stroke-width=".8" stroke-linejoin="round" fill="none" stroke="#000" d="M37.104 241.076h-3.5"/><symbol id="r"><path transform="translate(-.107) scale(.001)" d="M107 124h103V0H107v124z"/></symbol><use xlink:href="#c" transform="matrix(10 0 0 -10 15.298 244.873)"/><use xlink:href="#r" transform="matrix(10 0 0 -10 21.628 244.873)"/><use xlink:href="#b" transform="matrix(10 0 0 -10 24.398 245.003)"/><path stroke-width=".8" stroke-linejoin="round" fill="none" stroke="#000" d="M37.104 189.9h-3.5"/><use xlink:href="#c" transform="matrix(10 0 0 -10 15.298 193.697)"/><use xlink:href="#r" transform="matrix(10 0 0 -10 21.628 193.697)"/><use xlink:href="#g" transform="matrix(10 0 0 -10 24.508 193.827)"/><path stroke-width=".8" stroke-linejoin="round" fill="none" stroke="#000" d="M37.104 138.724h-3.5"/><use xlink:href="#d" transform="matrix(10 0 0 -10 14.928 142.52)"/><use xlink:href="#r" transform="matrix(10 0 0 -10 21.628 142.52)"/><use xlink:href="#b" transform="matrix(10 0 0 -10 24.398 142.65)"/><path stroke-width=".8" stroke-linejoin="round" fill="none" stroke="#000" d="M37.104 87.548h-3.5"/><use xlink:href="#d" transform="matrix(10 0 0 -10 14.928 91.345)"/><use xlink:href="#r" transform="matrix(10 0 0 -10 21.628 91.345)"/><use xlink:href="#g" transform="matrix(10 0 0 -10 24.508 91.475)"/><path stroke-width=".8" stroke-linejoin="round" fill="none" stroke="#000" d="M37.104 36.372h-3.5"/><use xlink:href="#e" transform="matrix(10 0 0 -10 14.958 40.299)"/><use xlink:href="#r" transform="matrix(10 0 0 -10 21.628 40.169)"/><use xlink:href="#b" transform="matrix(10 0 0 -10 24.398 40.299)"/><symbol id="s"><path transform="matrix(.001 0 0 .001 -.066 .013)" d="M535 705v-96c-38 18-73 31-106 40-34 8-66 13-96 13-54 0-96-11-125-31-29-21-43-51-43-89 0-32 9-57 29-73 19-17 56-30 110-40l60-12c73-14 127-39 162-74 35-36 53-83 53-142 0-71-24-124-71-160-48-36-117-54-208-54-35 0-72 4-111 11S110 16 69 32v102c40-23 79-40 117-51 38-12 76-17 114-17 56 0 99 11 130 33 30 22 46 53 46 95 0 36-11 64-33 84s-58 35-108 45l-60 12c-74 14-127 37-160 69-33 31-49 74-49 130 0 64 22 115 68 152 45 37 108 56 188 56 34 0 68-3 104-9 35-6 71-16 109-28z"/></symbol><symbol id="t"><path transform="matrix(.001 0 0 .001 -.091 .207)" d="M181 82v-289H91v754h90v-83c18 32 42 56 71 72s64 24 104 24c66 0 120-27 162-79 41-53 62-122 62-208s-21-156-62-208c-42-52-96-78-162-78-40 0-75 8-104 23s-53 39-71 72zm306 191c0 66-14 117-41 155-28 38-65 57-112 57-48 0-85-19-112-57-28-38-41-89-41-155s13-118 41-156c27-38 64-56 112-56 47 0 84 18 112 56 27 38 41 90 41 156z"/></symbol><symbol id="u"><path transform="matrix(.001 0 0 .001 -.055 .013)" d="M454 464v296h90V0h-90v82c-19-33-43-57-72-72s-63-23-103-23c-66 0-120 26-162 78S55 187 55 273s20 155 62 208c42 52 96 79 162 79 40 0 74-8 103-24s53-40 72-72zM148 273c0-66 13-118 40-156s64-56 112-56 85 18 113 56c27 38 41 90 41 156s-14 117-41 155c-28 38-65 57-113 57s-85-19-112-57-40-89-40-155z"/></symbol><symbol id="v"><path transform="matrix(.001 0 0 .001 0 .092)" d="M254 729h83L83-92H0l254 821z"/></symbol><use xlink:href="#s" transform="matrix(0 -10 -10 0 8.25 163.612)"/><use xlink:href="#t" transform="matrix(0 -10 -10 0 10.19 157.012)"/><use xlink:href="#m" transform="matrix(0 -10 -10 0 8.25 151.022)"/><use xlink:href="#m" transform="matrix(0 -10 -10 0 8.25 144.872)"/><use xlink:href="#u" transform="matrix(0 -10 -10 0 8.25 138.722)"/><use xlink:href="#n" transform="matrix(0 -10 -10 0 8.12 132.922)"/><use xlink:href="#o" transform="matrix(0 -10 -10 0 9.43 128.882)"/><use xlink:href="#l" transform="matrix(0 -10 -10 0 8.12 124.932)"/><use xlink:href="#v" transform="matrix(0 -10 -10 0 9.04 116.102)"/><use xlink:href="#p" transform="matrix(0 -10 -10 0 8.25 112.192)"/><use xlink:href="#q" transform="matrix(0 -10 -10 0 9.43 106.552)"/><clipPath id="w"><path transform="matrix(1 0 0 -1 -66 305)" d="M103.104 38.016h266.112v266.112H103.104z"/></clipPath><g clip-path="url(#w)"><path stroke-width="2.5" stroke-linecap="square" stroke-linejoin="round" fill="none" stroke="teal" d="m49.2 254.888.462-38.856.158-10.046.5-30.68.649-30.762.555-19.582.272-5.685.806-19.47.462-6.775.365-5.764 1.157-16.753.892-9.587.809-4.908.057-2.495.068.239.444-.942.054-2.22.068.39.408.111.126-.077.62-1.648 1.149-4.724.67-1.88.834-.744.45-.28 1.548-1.77.075-.042.24-.355.19-.119.122-.274.214-.152.169-3.671.272 1.87.634 2.139.225.19.455-.397.562-.867.283-.204.133-.19.694-.752.172.075.509.303.215.24.064-.09.057.081.126.082.057-.126.06.08.069.037.218.347.212-.275.207.114.308-.317.2.111.126.04.09.003.132-.204.158.122.197.07.376-.434h.136l.211-.317.18.036 1.328-.136.2-.154.272-.124.87-.47.151.036.05-.156.068.078.212.032.168.166.44-.198.394-.201.079.117.057-.078.426-.12.086-2.143.047.623.072.388.308 3.554.2-.503.072-.275.222.58.4-.237.226.036.208-.201.208-.46.365-.13.967-.795 1.02.654.215-.155.162.106.21-.195.13.032.383-.237.494-.127.154-.117.186-.004.294-.385.652-.092.268.155.19-.16.326.184.057-.148.093.152.054-.082.523-.077.057-.156.373.155.136.082.236.389.075-.078.05.156.061-.078.147.16.165-.405.068.156.064-.152.065.074.215.311.214-.552.068.082.376-.234.394.062.104.086.072-.237.215.155.19-.073.426.07.093.073.06-.155.065.163.272-.233.058.074.078-.078.187.074h.068l.164.159.19-.156.66-.007.056-.16.437.479.075-.16.061.078.065.16.1-.238.075.078.186.078.133.233.19.082.247-.16.064.074.072-.155.143.074.029-.095.071-1.964.058.69.358 1.647.272.703.107.03.108.298.455.266.146-.135.183-.067.057.088.068-.08.269.004.06-.156h.363l.2-.313.501-.084.061-.076.29.315.15-.076.065-.077.401.166.065-.075.06.081.133.08.655-.06.054-2.34.068.779.28.79.197.313.19.391.314.15.097-.068.104.152.097-.231.071.073.083-.31.104.074.042-.309.065.153.276-.547.078.084.208-.164.083.078.308-.548.397-.01.161-.158.129-.08.294.31.118-.078.04.077.483-.083.15-.158.158.224.064.006.14.153.06-.238.205.155.046-.078.065-.155.286.38.226.168.125-.084.566.538.129-.154.272-.242.104-.075.888-.167.183-.081.05.078.222-.078.272-.08.064-5.846.065 2.107.272 5.226.068-2.027.057.547.287 2.727.1.309.194.934.204.308.182.15.2-.314.069-.003.19-.707.129-.158.186-.707.755-2.275.126-.078.19-.395.064.078.068-.156.086.071.247.075.215.314.072.071.068.237.053-.08.14.155.05-2.108.054.62.11.55.248 2.798.211.312.176.54.043-.006.179.155.157.071.792-1.188.193-.4.154-.418.075-2.038.058.288.14.913.128 1.694.161-.172.262-.67.068.245.071-.054.505.653.061-.136.1.01.061.167.065-.146.229-.059 1.063-1.32.076-.161.1.082.165-.158.146-.004.004.158.082-.074.154-.157h.036l.394-.46.269.086.068.076.286-.3.154-.153.215.32.133-.073.154-.157.071.16.083-.229.064.078.136.08.283-.384.208-.082.078.01.137-.155.082-.005.218-.234h.656l.157-.155.054.08.054-.16.172.235.06-2.181.054.778.365 1.327.219.545.225.31.627.616.125.076.126-.315.265.233h.14l.089-.16.086.079.06-.236.065.078.144-.004.286-.395.068.082.068-.078.2-.24.065-.077.24.311.283-.154.222.306.261-.002.093.235.068-.315.09.155.197-.233.437.069.215.156.197-.079.243-.161.065.158.064-.083.627-.079.068.228.064-.156.745-.004.129-.156h.079l.157.15.23-.31.071.08.176.075.06.004.147.152.19-.314.269-.156.215.474.19-.396.311.312.068-.003.197-.235.269-.236.2.075.047-.003.068-.156.064.076h.856l.057.158.219-.074.412-.006.068.077.06-.153.065.073.11-.15.187.31.168.395.337-.316.05.082.065.076.075-.078.215-.074.193-.236.082.154.226-.08.065.158.075-.08.207-.153.072.071.057-.07.165-.078.093.074.043-.078h.322l.058-.233.046.078.208.467.075.006.097-.162.04.078.164-.076.19.387.071-.153.09.075.415-.314.08.153.246-.075.208.157.197-.075.06.071.083-.075.065.075.39-.072.157-.087.194.088.186-.082.426.237.326-.159h.362l.122-.156.222.007.19.385.318.316.118-.16.294-.236.097.159.064-.081.261.23.197-.075.326.231.061-.069.068.074.068-.002.108.158.06-.156.061.076.208-.078.304-.074.201-.002.06-.155.058.075.516-.228.258.233.268-.233.133.075.075.16.222-2.67.064.007.56-5.684.404-4.349.075-.436.981 5.573.337.843.064-.007.247.741.856 7.56.061-1.393.294 4.307.082-1.43.376 5.204.075-.675.075-2.255.047 2.35.075-.273.1-2.575.208 5.584.083-.981.096.118.086-.882.068-2.529.219 3.597.186 1.092.197-.032.849 5.082.043-.084.128.243.068.019.355 3.578.133-.249.3.757 1.221-8.289.133-.53.168-3.338.072 1.084.057-.07.09-.037.175-1.544.14-.458.172-.4.11-.043.259-.981.257-1.355 1.025-2.93.082.082.43-.596.057-.081.1.057.147-.368.086.075.458-.39.083.054.132-.262.186.03.08.025.282-.26.383-.54.398-.721.788-.934.1-2.035.304.866.47.868.254.362.19.094.128-.341.08.17.619-.811.09-.043.142-.201.144.088.157-.1.602.069.175.17.08-.099.239.257.168.078.806 1.152.423.607.497.62.627.133.075-.084.083.12.318-.378.208-.096.147-.225.093-.115.082.11.197-.24.237.01.179.02.071-.155.1-1.913.298 1.72.179.684.487 1.665.34.509.057-.22.09.043.054-2.266.064.488.358.607.33-.036.207-.24.04-.01.182-.454.154-.018.122-.175.326.026.068-.221.054.101.125-.016.351.453.064-.225.083.043.075-.124.054.055.35.454.155-.19h.107l.075-.121.2.42.083-.228.079.056.082.095.05-.227.094.052.197.26.118.267.594-.646.344.324.38-.576.085.168.076-.168.05.051.093-.058.072.104.071-.214.065.104.29-.117.05.068.054-.12.085.11.154-.058.169-.052.143-.007.079.004.068-.117.125.169.247-.062.477-.01.078.11.061-.114.072.062.175-.062.19-.11.2.11.14-.114.158-.044.068-.114.082.052.172.169.28.447.282.279.086.282.072-.069.09-.279.082.11.06-.22.083-2.216.06.492.23.782.473 1.039.046-.052.219.324.157.096.13.23.246.269.154-.066.076.066.154-.234.43-.165.074.106.069-.058.09.058.067-.117.068.059.165-.008.369-.183.497.265.09.007.15.275.08-.007.146.228.082-.011.204.271.09.059.154-.169.079.103.172-.224.078.066.276-.238.09-.008.096-2.15.29 1.533.076.287.071-1.985.09.755.06-1.824.463 4.529.58 2.803.036-2.107.085.44.244.311.698-2.145.133.058.043-.342.104.06.071-.119.09.11.068-.059.125-.287.387-.28.197-.117.172.042.215.33.043-.177.103.17.054-.165.208.608.154-.122.064.05.122-.118.111.06.136-.11.057.046.1-.118.08.106.046-.157.06.097.323.06.065-.068.14.11.06-.06.068.217.183-.047.28.042.07.102.058-.22.219-.01.075.12.107-6.09.054 1.973.075-1.266.197 3.047.2 5.627.122 1.219.083-.12.064-.169.351 1.311.125.01.065.032.3-.999.57-2.354.197-.729.877-2.144.05.05.083-.17.054.064.232.1.29.478h.133l.154.05.383.424.082-.013.248.27.082-.01.05.11.158-.225.168-.074.075-.106.065-2.281.078.44.265 1.049.273.256.15.274.236-.06.054-2.228.075.61.287 1.038.164 1.096.176.283.082-.18.075.05.137-.07.512-.51.358-.13.494-.686.197.397.172-.009.075-.474.072.061.06-2.316.069.217.121.292.348.49.465 1.37.215-.07.25-.198.251 1.128.08.243.203-.727.079.023.294.227.075-.101.079.08.222-.067.254.419.204.137.147.303.408.757.061.063.186.541.376.403.15.282.28.458.104.025.054.19.057-.142.075.139.068-.094.082.136.226-.273.408-.125.204.035.076.017.179-.297.075.087.15-.37.176-.237.186-.517.064.04.14-.288.093.11.204-.285.058.505.433-1.256.72-.077.064-.25.068.05.501-.153.047-.176.082.035 1.157-.882.584-.233.09.007.067-.16.072.17.068-.039.197-2.796.072-.806.096.094.197-2.274.702-9.925.254-1.82.333-2.014.498-2.554.054.034.147-.02.147.367.197-.565.164.075.165.273.125.202 2.55 12.84.28 1.59.78 4.205 1.565 19.762.107-1.32.37 6.081.067-1.226 1.361 31.206.093-.089.043.072.15-.104.122-.635.154-2.198.405-11.297.268-7.792.394-6.584.92-8.034.939-5.731.168-.516.068-2.51.054.144.072.038.612-1.69.49-2.408.208-1.05.43-2.121.383-1.533.53-1.71.075-.036.333-.63.172-.103.086.065.136-.178.226-.003.09-.106.067.208.08-2.302.067.592.76 1.87.21.164.087-.096.064.064.2.033.133-.177.584-.525.054.033.078-2.408.083.697.723 1.605.269.27.25.275.37.138.053-2.165.082.627.297 1.22.39.696.266.307.247-3.558.072.905.06-1.846.072.87.247 3.418.204 2.364.061.311.072-.103.118-.353.208.307.326.315 1.2-1.868.68-.118.136.348.132.104.333.902.147-.113.147.136.046-.103.387.758.057-.101.072.067.362-.147.523.24.053-.21.086.17.065-.173.06.103.223.245.308-.603.075.111.415.474.158-.245.093.136.15-.1.14.345.071-.241.058.132.172-.142.064.038.054-2.373.04.73.697 2.192.05.167.054-1.915.08.626.164.451.268 2.683.076.28.15-.39.079-.071.179.238.14-.174.064.239.3-.21.08.029.512-.742.38-.355.07.103.266-.427.3-.224.072.253.08-.068.192.167.169-.04.043.072.204-3.65.075-.133.143.65.083-.027 1.056-11.89.322.904.351 1.599.072.026.401 2.007.107.186.201.62.437 1.943.387 4.54.164 1.138.68 7.616.316 5.306.2 1.965.43 7.417.115-.512.118-3.197.369-4.127.598-11.139.19-5.888.214.163.086-.515.076.086.071.093.118-.298.215.29.161.004.086.127.076-.25.05.072.068-.006.344-2.208.136-2.98.075-.03.071.466.076-2.186.078.43.13.274.031.565.036-1.92.036 1.658.537 7.32.13 1.431 2.144 23.87.365 1.528.15.022.155-.225.054.095.132-.394.369-.97.319-1.734.275-2.026.086-.294.423-4.54.25-.677.119-.046 1.704-7.796.076-.188.053-.577.065.055.071-.116.122-.386.154-.328.04-.387.039-2.107.071.058.15.112.212 1.63.154.15.24-.833.118-.078.079.191.097-.479.064.319.204-.731.061-.04.13-.735.106-.213.065-.387.06.348.058-.309.065.057.136-.227.2-.348.118-.486h.068l.273-.539.1.04.057-.306.068.032.057.043.144-.27.057.078h.14l.25-.636.083.251.04-.174.304-.42.068.267.064-.232.072.348.06-.193.197.135.334-.116.064-.132.068.035.179.213.068-.097.104.097.15-.368.351.564.13-.216.171-.136.061-.135.304.39.13-.178.064.14.071-.372.104.058.197-.232.14.27.068-.194.079.233.146-.365.065.268.072-.094.121.345.065-.31.129.348.035-.212.086-2.34.05.812.466 3.693.197.348.14.386.068-.174.06.348.173-.313.068.394.064-.042.068-.017.136.403.068-.059.083-.174.085.174.473-1.023.194.48.078-.136.144-.62.218.038h.208l.157-.544.047.25.308-.263.057.386.079-.16.24-.31.057.352.079-.08.064-.075.111.122.036-.288.086.295.09-.19.05.119.064.276.05-.095.147-.014.29.513.183-.1.036.152.172-3.625.146 1.496.072-1.92.387 9.043.107-.054.28-.67.132.296.057.075.108-.09.254-.755.082.134.24-1.043.691-1.778.165-.111.136-.424.072.047.469-.619.261-.045.258.427.075-.114.162.134.666.767.064-.129.172.302.193-.347.269.392.136.038.222-.132h.258l.097-.347.06.041.165.087.057-.298.069.26.128-.214h.072l.247.223.122-.042.222-.086.057-.08.065.136.154-.177.347.354.122-.042.129-.392.064.23.061-.053.197.222.072-.347.365.09.208-.346.107.177.064-.219.065.118.132.283.061.256.05-.14.219.074.132-.136.183.025"/></g><clipPath id="x"><path transform="matrix(1 0 0 -1 -66 305)" d="M103.104 38.016h266.112v266.112H103.104z"/></clipPath><g clip-path="url(#x)"><path stroke-width="2.5" stroke-dasharray="9.25,4" stroke-linejoin="round" fill="none" stroke="red" d="M49.2 36.372h241.92"/></g><path stroke-width=".8" stroke-linecap="square" stroke-miterlimit="10" fill="none" stroke="#000" d="M37.104 266.984V.872M303.216 266.984V.872M37.104 266.984h266.112M37.104.872h266.112"/><path d="M167.372 261.984h128.844c1.333 0 2-.667 2-2V231.64c0-1.333-.667-2-2-2H167.372c-1.333 0-2 .667-2 2v28.344c0 1.333.667 2 2 2z" fill="#fff" fill-opacity=".8"/><path stroke-miterlimit="10" fill="none" stroke="#d5d6d5" stroke-opacity=".8" d="M167.372 261.984h128.844c1.333 0 2-.667 2-2V231.64c0-1.333-.667-2-2-2H167.372c-1.333 0-2 .667-2 2v28.344c0 1.333.667 2 2 2z"/><path stroke-width="2.5" stroke-linecap="square" stroke-linejoin="round" fill="none" stroke="teal" d="M169.372 237.734h20"/><symbol id="y"><path transform="matrix(.001 0 0 .001 -.056 .013)" d="M644 673V569c-34 30-69 53-107 69-38 15-77 23-119 23-84 0-148-26-192-77s-66-124-66-220 22-170 66-221 108-76 192-76c42 0 81 7 119 23 38 15 73 38 107 69V56c-35-24-72-41-110-52s-79-17-122-17C302-13 215 20 151 87S56 246 56 364c0 117 31 209 95 277 64 67 151 101 261 101 44 0 85-6 123-17 38-12 75-29 109-52z"/></symbol><symbol id="z"><path transform="matrix(.001 0 0 .001 -.085 .013)" d="M85 216v331h90V219c0-52 10-90 30-116s50-39 91-39c48 0 87 15 115 46s42 73 42 127v310h90V0h-90v84c-22-34-48-58-76-74-29-15-62-23-100-23-63 0-111 19-143 58-33 38-49 95-49 171zm226 344z"/></symbol><symbol id="A"><path transform="translate(-.091) scale(.001)" d="M411 463c-10 6-21 10-33 13-12 2-25 4-39 4-51 0-90-17-117-50-28-33-41-80-41-142V0H91v547h90v-85c18 33 43 58 73 74s67 24 111 24c6 0 13-1 21-1 7-1 15-2 25-4v-92z"/></symbol><symbol id="B"><path transform="translate(-.091) scale(.001)" d="M549 330V0h-90v327c0 52-11 90-31 116s-50 39-90 39c-49 0-87-16-115-47s-42-73-42-126V0H91v547h90v-85c21 32 46 57 76 73 29 16 63 25 101 25 62 0 110-20 142-59s49-96 49-171z"/></symbol><symbol id="C"><path transform="translate(-.027) scale(.001)" d="M183 702V547h185v-70H183V180c0-45 6-74 18-86 12-13 37-19 75-19h92V0h-92c-70 0-118 13-144 39s-39 73-39 141v297H27v70h66v155h90z"/></symbol><symbol id="D"><path transform="matrix(.001 0 0 .001 -.086 .131)" d="M310 759c-44-76-76-150-97-223-22-73-32-147-32-222 0-76 10-150 32-223 21-74 53-147 97-222h-78C183-54 146 20 122 94S86 241 86 314c0 72 12 145 36 219s60 149 110 226h78z"/></symbol><symbol id="E"><path transform="matrix(.001 0 0 .001 -.056 .013)" d="M394 662c-72 0-129-27-171-80-42-54-63-126-63-218s21-165 63-218c42-54 99-80 171-80 71 0 128 26 170 80 42 53 63 126 63 218s-21 164-63 218c-42 53-99 80-170 80zm0 80c102 0 183-35 245-103 61-68 92-160 92-275 0-116-31-207-92-275C577 21 496-13 394-13 291-13 209 21 148 89c-62 68-92 159-92 275 0 115 30 207 92 275 61 68 143 103 246 103z"/></symbol><symbol id="F"><path transform="matrix(.001 0 0 .001 -.08 .131)" d="M80 759h78c48-77 85-152 109-226s37-147 37-219c0-73-13-146-37-220S206-54 158-131H80c43 75 75 148 97 222 21 73 32 147 32 223 0 75-11 149-32 222-22 73-54 147-97 223z"/></symbol><use xlink:href="#y" transform="matrix(10 0 0 -10 197.932 241.364)"/><use xlink:href="#z" transform="matrix(10 0 0 -10 205.202 241.364)"/><use xlink:href="#A" transform="matrix(10 0 0 -10 211.602 241.234)"/><use xlink:href="#A" transform="matrix(10 0 0 -10 215.54 241.234)"/><use xlink:href="#m" transform="matrix(10 0 0 -10 219.072 241.364)"/><use xlink:href="#B" transform="matrix(10 0 0 -10 225.582 241.234)"/><use xlink:href="#C" transform="matrix(10 0 0 -10 231.282 241.234)"/><use xlink:href="#n" transform="matrix(10 0 0 -10 234.932 241.234)"/><use xlink:href="#p" transform="matrix(10 0 0 -10 238.652 241.364)"/><use xlink:href="#t" transform="matrix(10 0 0 -10 244.232 243.304)"/><use xlink:href="#m" transform="matrix(10 0 0 -10 250.222 241.364)"/><use xlink:href="#m" transform="matrix(10 0 0 -10 256.372 241.364)"/><use xlink:href="#u" transform="matrix(10 0 0 -10 262.522 241.364)"/><use xlink:href="#n" transform="matrix(10 0 0 -10 268.322 241.234)"/><use xlink:href="#D" transform="matrix(10 0 0 -10 272.362 242.544)"/><use xlink:href="#E" transform="matrix(10 0 0 -10 275.962 241.364)"/><use xlink:href="#s" transform="matrix(10 0 0 -10 283.932 241.364)"/><use xlink:href="#F" transform="matrix(10 0 0 -10 290.422 242.544)"/><path stroke-width="2.5" stroke-dasharray="9.25,4" stroke-linejoin="round" fill="none" stroke="red" d="M169.372 252.406h20"/><symbol id="G"><path transform="translate(-.098) scale(.001)" d="M197 648V81h119c100 0 174 22 221 68 46 46 70 118 70 216s-24 169-70 215c-47 45-121 68-221 68H197zm-99 81h203c141 0 245-30 311-88 66-59 99-151 99-276 0-126-34-218-100-277S441 0 301 0H98v729z"/></symbol><use xlink:href="#G" transform="matrix(10 0 0 -10 198.352 255.906)"/><use xlink:href="#m" transform="matrix(10 0 0 -10 205.622 256.036)"/><use xlink:href="#p" transform="matrix(10 0 0 -10 211.762 256.036)"/><use xlink:href="#k" transform="matrix(10 0 0 -10 217.372 255.906)"/><use xlink:href="#A" transform="matrix(10 0 0 -10 220.122 255.906)"/><use xlink:href="#m" transform="matrix(10 0 0 -10 223.654 256.036)"/><use xlink:href="#u" transform="matrix(10 0 0 -10 229.804 256.036)"/><use xlink:href="#n" transform="matrix(10 0 0 -10 235.604 255.906)"/><use xlink:href="#p" transform="matrix(10 0 0 -10 239.323 256.036)"/><use xlink:href="#t" transform="matrix(10 0 0 -10 244.904 257.976)"/><use xlink:href="#m" transform="matrix(10 0 0 -10 250.894 256.036)"/><use xlink:href="#m" transform="matrix(10 0 0 -10 257.043 256.036)"/><use xlink:href="#u" transform="matrix(10 0 0 -10 263.193 256.036)"/><use xlink:href="#n" transform="matrix(10 0 0 -10 268.993 255.906)"/><use xlink:href="#D" transform="matrix(10 0 0 -10 273.034 257.216)"/><use xlink:href="#E" transform="matrix(10 0 0 -10 276.634 256.036)"/><use xlink:href="#s" transform="matrix(10 0 0 -10 284.604 256.036)"/><use xlink:href="#F" transform="matrix(10 0 0 -10 291.094 257.216)"/></g></svg>