<svg xmlns="http://www.w3.org/2000/svg" xmlns:xlink="http://www.w3.org/1999/xlink" width="307pt" height="396" viewBox="0 0 307 297"><clipPath id="a"><path transform="matrix(1 0 0 -1 -63 305)" d="M0 0h460.8v345.6H0z"/></clipPath><g clip-path="url(#a)"><path d="M-63 305h460.8V-40.6H-63z" fill="#fff"/><path d="M40.104 266.984h266.112V.872H40.104z" fill="#fff"/><path stroke-width=".8" stroke-linejoin="round" fill="none" stroke="#000" d="M50.688 266.984v3.5"/><symbol id="b"><path transform="matrix(.001 0 0 .001 -.066 .013)" d="M318 664c-51 0-89-25-115-75s-38-125-38-225 12-175 38-225 64-75 115-75 89 25 115 75c25 50 38 125 38 225s-13 175-38 225c-26 50-64 75-115 75zm0 78c81 0 143-33 187-97 43-65 65-159 65-281 0-123-22-217-65-281-44-64-106-96-188-96S173 19 130 83 66 241 66 364c0 122 21 216 64 281 43 64 106 97 188 97z"/></symbol><use xlink:href="#b" transform="matrix(10 0 0 -10 48.168 281.708)"/><path stroke-width=".8" stroke-linejoin="round" fill="none" stroke="#000" d="M97.933 266.984v3.5"/><symbol id="c"><path transform="translate(-.11) scale(.001)" d="M124 83h161v556l-175-35v90l174 35h99V83h161V0H124v83z"/></symbol><use xlink:href="#c" transform="matrix(10 0 0 -10 92.673 281.578)"/><use xlink:href="#b" transform="matrix(10 0 0 -10 98.593 281.708)"/><path stroke-width=".8" stroke-linejoin="round" fill="none" stroke="#000" d="M145.177 266.984v3.5"/><symbol id="d"><path transform="translate(-.073) scale(.001)" d="M192 83h344V0H73v83c37 38 88 90 153 156 64 65 105 107 122 126 32 35 54 65 66 90 12 24 19 49 19 73 0 38-14 70-41 94s-62 37-106 37c-31 0-64-6-98-16-34-11-71-27-110-49v100c40 16 77 28 111 36s66 12 95 12c75 0 135-19 180-57s68-88 68-151c0-30-6-59-17-85-11-27-31-59-61-95-8-10-34-37-78-82S271 164 192 83z"/></symbol><use xlink:href="#d" transform="matrix(10 0 0 -10 139.548 281.578)"/><use xlink:href="#b" transform="matrix(10 0 0 -10 145.838 281.708)"/><path stroke-width=".8" stroke-linejoin="round" fill="none" stroke="#000" d="M192.422 266.984v3.5"/><symbol id="e"><path transform="matrix(.001 0 0 .001 -.076 .013)" d="M406 393c47-10 84-31 110-63s40-72 40-118c0-72-25-128-74-167-50-39-120-58-211-58-31 0-63 3-95 9-32 5-66 14-100 26v95c27-16 57-28 90-36 32-8 66-12 102-12 62 0 109 12 141 36s49 60 49 107c0 42-15 76-45 100s-72 37-126 37h-85v81h89c48 0 85 9 111 29 26 19 39 47 39 84s-14 66-40 86c-27 20-65 30-114 30-27 0-56-3-87-9s-65-15-102-27v88c37 10 72 18 105 23 32 5 63 8 93 8 74 0 133-17 177-51s66-80 66-138c0-40-12-74-35-102s-56-48-98-58z"/></symbol><use xlink:href="#e" transform="matrix(10 0 0 -10 186.822 281.708)"/><use xlink:href="#b" transform="matrix(10 0 0 -10 193.082 281.708)"/><path stroke-width=".8" stroke-linejoin="round" fill="none" stroke="#000" d="M239.666 266.984v3.5"/><symbol id="f"><path transform="translate(-.049) scale(.001)" d="M378 643 129 254h249v389zm-26 86h124V254h104v-82H476V0h-98v172H49v95l303 462z"/></symbol><use xlink:href="#f" transform="matrix(10 0 0 -10 233.797 281.578)"/><use xlink:href="#b" transform="matrix(10 0 0 -10 240.327 281.708)"/><path stroke-width=".8" stroke-linejoin="round" fill="none" stroke="#000" d="M286.91 266.984v3.5"/><symbol id="g"><path transform="matrix(.001 0 0 .001 -.077 .013)" d="M108 729h387v-83H198V467c14 5 29 9 43 11s29 4 43 4c81 0 145-23 193-67 48-45 72-105 72-181 0-79-25-140-74-183S357-13 269-13c-31 0-62 3-94 7-32 5-64 12-98 23v99c29-16 59-28 91-36 31-8 64-11 99-11 56 0 101 14 134 44 32 30 49 70 49 121 0 50-17 90-49 120-33 30-78 45-134 45-26 0-53-3-79-9s-53-15-80-27v366z"/></symbol><use xlink:href="#g" transform="matrix(10 0 0 -10 281.321 281.708)"/><use xlink:href="#b" transform="matrix(10 0 0 -10 287.571 281.708)"/><symbol id="h"><path transform="translate(.002) scale(.001)" d="M-2 729h616v-83H355V0h-99v646H-2v83z"/></symbol><symbol id="i"><path transform="translate(-.094) scale(.001)" d="M94 547h90V0H94v547zm0 213h90V646H94v114z"/></symbol><symbol id="j"><path transform="translate(-.091) scale(.001)" d="M520 442c22 40 49 69 80 89 31 19 68 29 111 29 56 0 100-20 131-60s47-97 47-170V0h-90v327c0 52-10 91-28 117-19 25-47 38-85 38-47 0-84-16-111-47s-40-73-40-126V0h-90v327c0 52-10 91-28 117-19 25-48 38-86 38-46 0-83-16-110-47s-40-73-40-126V0H91v547h90v-85c20 33 45 58 74 74 28 16 62 24 102 24s73-10 101-30 48-50 62-88z"/></symbol><symbol id="k"><path transform="matrix(.001 0 0 .001 -.055 .013)" d="M562 296v-44H149c4-62 22-110 56-142 33-32 79-48 139-48 34 0 68 4 100 12s65 21 97 39V28c-32-14-65-25-99-31s-69-10-103-10c-88 0-157 25-208 75S55 181 55 268c0 89 24 160 72 213 48 52 114 79 196 79 74 0 132-24 175-71 42-48 64-112 64-193zm-90 26c-1 49-15 88-41 118-27 29-63 44-107 44-50 0-90-15-120-43s-48-68-52-119h320z"/></symbol><symbol id="m"><path transform="matrix(.001 0 0 .001 -.086 .131)" d="M86 760h207v-70H176V-61h117v-70H86v891z"/></symbol><symbol id="n"><path transform="matrix(.001 0 0 .001 -.054 .013)" d="M443 531v-85c-26 12-52 22-79 29-28 6-56 10-85 10-45 0-79-7-101-21s-33-34-33-61c0-21 8-37 24-49s48-24 96-34l31-7c64-14 109-34 136-58 26-25 40-60 40-104 0-51-20-91-60-120-40-30-96-44-166-44-30 0-60 3-92 8S89 8 54 20v93c33-18 66-31 98-39 32-9 64-13 96-13 42 0 75 7 98 21 22 14 34 35 34 62 0 24-9 43-25 56s-52 26-108 38l-31 7c-56 12-97 30-121 54-25 24-37 57-37 100 0 51 18 91 54 119s88 42 156 42c33 0 64-3 94-8 29-5 56-12 81-21z"/></symbol><symbol id="o"><path transform="matrix(.001 0 0 .001 -.097 .131)" d="M304 760v-891H97v70h117v751H97v70h207z"/></symbol><use xlink:href="#h" transform="matrix(10 0 0 -10 152.757 295.25)"/><use xlink:href="#i" transform="matrix(10 0 0 -10 159.53 295.25)"/><use xlink:href="#j" transform="matrix(10 0 0 -10 162.28 295.25)"/><use xlink:href="#k" transform="matrix(10 0 0 -10 171.66 295.38)"/><use xlink:href="#l" transform="matrix(10 0 0 -10 177.26 295.25)"/><use xlink:href="#m" transform="matrix(10 0 0 -10 181.3 296.56)"/><use xlink:href="#n" transform="matrix(10 0 0 -10 184.88 295.38)"/><use xlink:href="#o" transform="matrix(10 0 0 -10 190.52 296.56)"/><path stroke-width=".8" stroke-linejoin="round" fill="none" stroke="#000" d="M40.104 246.255h-3.5"/><use xlink:href="#d" transform="matrix(10 0 0 -10 21.115 250.052)"/><use xlink:href="#b" transform="matrix(10 0 0 -10 27.405 250.182)"/><path stroke-width=".8" stroke-linejoin="round" fill="none" stroke="#000" d="M40.104 207.37h-3.5"/><use xlink:href="#f" transform="matrix(10 0 0 -10 20.875 211.167)"/><use xlink:href="#b" transform="matrix(10 0 0 -10 27.405 211.297)"/><path stroke-width=".8" stroke-linejoin="round" fill="none" stroke="#000" d="M40.104 168.484h-3.5"/><symbol id="p"><path transform="matrix(.001 0 0 .001 -.07 .013)" d="M330 404c-44 0-79-16-105-46s-39-72-39-124c0-53 13-95 39-125s61-45 105-45 79 15 105 45 39 72 39 125c0 52-13 94-39 124s-61 46-105 46zm196 309v-90c-25 12-50 21-75 27-26 6-51 9-75 9-66 0-116-22-150-66s-54-111-58-199c19 28 43 50 72 65s61 23 96 23c73 0 131-23 173-67s64-105 64-181c0-75-23-135-67-180S403-13 330-13c-84 0-149 32-193 96-45 64-67 158-67 281 0 115 27 207 82 275 54 68 128 103 220 103 24 0 49-3 75-7 25-5 51-12 79-22z"/></symbol><use xlink:href="#p" transform="matrix(10 0 0 -10 21.085 172.411)"/><use xlink:href="#b" transform="matrix(10 0 0 -10 27.405 172.411)"/><path stroke-width=".8" stroke-linejoin="round" fill="none" stroke="#000" d="M40.104 129.599h-3.5"/><symbol id="q"><path transform="matrix(.001 0 0 .001 -.068 .013)" d="M318 346c-47 0-84-13-111-38s-40-59-40-103 13-79 40-104 64-37 111-37c46 0 83 12 110 38 27 25 41 59 41 103s-14 78-40 103c-27 25-64 38-111 38zm-99 42c-42 10-75 30-99 59s-35 64-35 106c0 58 20 104 62 138 41 34 98 51 171 51 72 0 129-17 171-51 41-34 62-80 62-138 0-42-12-77-36-106s-56-49-98-59c47-11 84-33 111-65 26-32 40-72 40-118 0-71-22-125-65-162-44-38-106-56-186-56S175 5 132 43c-43 37-64 91-64 162 0 46 13 86 40 118 26 32 63 54 111 65zm-36 156c0-38 11-68 35-89s57-31 100-31c42 0 75 10 99 31s36 51 36 89-12 67-36 88-57 32-99 32c-43 0-76-11-100-32s-35-50-35-88z"/></symbol><use xlink:href="#q" transform="matrix(10 0 0 -10 21.065 133.526)"/><use xlink:href="#b" transform="matrix(10 0 0 -10 27.405 133.526)"/><path stroke-width=".8" stroke-linejoin="round" fill="none" stroke="#000" d="M40.104 90.713h-3.5"/><use xlink:href="#c" transform="matrix(10 0 0 -10 15.126 94.51)"/><use xlink:href="#b" transform="matrix(10 0 0 -10 21.046 94.64)"/><use xlink:href="#b" transform="matrix(10 0 0 -10 27.406 94.64)"/><path stroke-width=".8" stroke-linejoin="round" fill="none" stroke="#000" d="M40.104 51.827h-3.5"/><use xlink:href="#c" transform="matrix(10 0 0 -10 15.126 55.624)"/><use xlink:href="#d" transform="matrix(10 0 0 -10 21.116 55.624)"/><use xlink:href="#b" transform="matrix(10 0 0 -10 27.406 55.754)"/><path stroke-width=".8" stroke-linejoin="round" fill="none" stroke="#000" d="M40.104 12.942h-3.5"/><use xlink:href="#c" transform="matrix(10 0 0 -10 15.126 16.739)"/><use xlink:href="#f" transform="matrix(10 0 0 -10 20.876 16.739)"/><use xlink:href="#b" transform="matrix(10 0 0 -10 27.406 16.869)"/><symbol id="r"><path transform="translate(-.098) scale(.001)" d="M197 648V81h119c100 0 174 22 221 68 46 46 70 118 70 216s-24 169-70 215c-47 45-121 68-221 68H197zm-99 81h203c141 0 245-30 311-88 66-59 99-151 99-276 0-126-34-218-100-277S441 0 301 0H98v729z"/></symbol><symbol id="s"><path transform="translate(-.027) scale(.001)" d="M183 702V547h185v-70H183V180c0-45 6-74 18-86 12-13 37-19 75-19h92V0h-92c-70 0-118 13-144 39s-39 73-39 141v297H27v70h66v155h90z"/></symbol><symbol id="t"><path transform="matrix(.001 0 0 .001 -.06 .013)" d="M343 275c-73 0-123-9-151-25-28-17-42-45-42-85 0-32 10-58 31-76 21-19 50-28 86-28 50 0 90 17 120 53 30 35 45 82 45 141v20h-89zm179 37V0h-90v83c-21-34-47-58-77-73s-68-23-112-23c-56 0-101 15-134 46s-49 73-49 126c0 61 20 107 62 139 41 31 102 47 184 47h126v9c0 41-14 73-41 96-27 22-65 34-114 34-32 0-62-4-92-12s-58-19-85-33v83c32 12 64 22 95 28s61 10 91 10c79 0 138-21 177-62s59-103 59-186z"/></symbol><symbol id="u"><path transform="translate(-.091) scale(.001)" d="M549 330V0h-90v327c0 52-11 90-31 116s-50 39-90 39c-49 0-87-16-115-47s-42-73-42-126V0H91v547h90v-85c21 32 46 57 76 73 29 16 63 25 101 25 62 0 110-20 142-59s49-96 49-171z"/></symbol><symbol id="v"><path transform="matrix(.001 0 0 .001 -.055 .013)" d="M488 526v-84c-26 14-51 24-77 31s-51 11-77 11c-58 0-104-19-136-56s-48-89-48-155c0-67 16-119 48-156s78-55 136-55c26 0 51 3 77 10s51 18 77 32V21C462 9 436 0 410-5c-27-5-56-8-86-8-82 0-148 25-196 77-49 51-73 121-73 209 0 89 24 159 73 210s116 77 202 77c28 0 55-3 81-9s52-14 77-25z"/></symbol><use xlink:href="#r" transform="matrix(0 -10 -10 0 7.948 165.198)"/><use xlink:href="#i" transform="matrix(0 -10 -10 0 7.948 157.538)"/><use xlink:href="#n" transform="matrix(0 -10 -10 0 8.078 155.158)"/><use xlink:href="#s" transform="matrix(0 -10 -10 0 7.948 150.218)"/><use xlink:href="#t" transform="matrix(0 -10 -10 0 8.078 145.968)"/><use xlink:href="#u" transform="matrix(0 -10 -10 0 7.948 139.528)"/><use xlink:href="#v" transform="matrix(0 -10 -10 0 8.078 133.548)"/><use xlink:href="#k" transform="matrix(0 -10 -10 0 8.078 128.048)"/><use xlink:href="#l" transform="matrix(0 -10 -10 0 7.948 122.448)"/><use xlink:href="#m" transform="matrix(0 -10 -10 0 9.258 118.408)"/><use xlink:href="#j" transform="matrix(0 -10 -10 0 7.948 114.458)"/><use xlink:href="#o" transform="matrix(0 -10 -10 0 9.258 104.658)"/><clipPath id="w"><path transform="matrix(1 0 0 -1 -63 305)" d="M103.104 38.016h266.112v266.112H103.104z"/></clipPath><g clip-path="url(#w)"><path stroke-width="2.5" stroke-linecap="square" stroke-linejoin="round" fill="none" stroke="#00f" d="m52.2 12.968.288.12.846.593.959.89.87 1.01.358.405.558.786.293.315.269.448.227.261.548.735 4.228 6.72.147.077.156.392.184.234.189.395.227.236.15.396 1.149 1.83.453.885 1.79 2.996.464.816 7.564 13.235.397.667 1.313 2.336.482.917 1.88 3.34.095.084.472.916.1.083.462.915.289.416.406.749.17.25.567 1.08.09.084.368.75.236.249.142.333 2.277 4.076.605.998.997 1.746.297.582.26.416.397.665.175.333.293.499.68 1.247.09.083.354.748.208.25.279.58.213.25.245.582.095.083.297.498 2.83 5.072.19.25.566.999.16.166.209.582.212.333.917 1.664.104.083.288.5 2.211 3.91.194.084.075.333.213.417.137.25.288.5 1.748 3.072.128.332.193.25.199.414.383.58 2.272 4.068.463.83.676 1.08.463.83 17.778 31.404.283.5.26.416.553.998 1.214 2.082.217.417 1.002 1.75.34.666.184.25.184.417.17.25.393.75.387.584.284.584.283.417.94 1.669.463.918 1.328 2.252.368.752.383.583 1.885 3.34.468.834.732 1.252.321.667.095.084.368.667.383.668.392.752.284.501 30.708 54.133.28.445.368.582 3.038 4.21.84.889.095.19.34.118.595.783 3.827 3.314.062-.016.652.59.207.055.733.664 2.948 2.265.472.375.194.06 1.309 1.177.184.066.288.333 1.7 1.391.284.347.199.076.274.35.217.077.846.87 2.631 2.33.19.175.373.349.08.183.227.079 1.015 1.059.185.077 7.001 6.41.085-.023.18.264.099-.023.496.504.657.563.094-.024.827.83.236.055.43.403 1.611 1.478.104-.027.166.269.189.052.434.43.232.132.118.08.18.27.09-.03.382.428 1.427 1.182 4.148 3.097.283.198.1.18.188.015.222.244.066-.053.19.241 1.138.715.279.168.18-.007.66.37.09.167.11-.066.292.264.78.37.066-.074.274.245.113-.074.27.238 2.584.868.18-.067 2.03.358 1.654.095 1.616-.094 2.5-.329.127-.118.061.08 3.79-.797.174.056.213-.116.222.056 3.656-.453 3.51-.396 1.857-.605 1.238-.668 1.706-1.328 1.989-1.979 2.541-3.134.463-.62.662-.903.302-.278.199-.384.619-.962.67-.943.577-.861.751-1.115.855-1.302.317-.466.945-1.477.245-.417 4.644-7.545.383-.676.463-.755 4.148-7.179.482-.883.293-.502.543-.955.373-.673 1.938-3.438.245-.51 2.377-4.227.269-.574.288-.46 1.03-1.963.217-.288.35-.753.18-.288.666-1.217 1.138-2.153 1.795-3.323.194-.288 2.211-4.111.26-.53 10.786-20.356.165-.29 1.914-3.683.538-1.014 1.72-3.336"/></g><clipPath id="x"><path transform="matrix(1 0 0 -1 -63 305)" d="M103.104 38.016h266.112v266.112H103.104z"/></clipPath><g clip-path="url(#x)"><path d="m219.908 257.888 6-6m-6 0 6 6" fill="orange"/><path stroke-width="2.5" stroke-linejoin="round" fill="none" stroke="orange" d="m219.908 257.888 6-6m-6 0 6 6"/></g><path stroke-width=".8" stroke-linecap="square" stroke-miterlimit="10" fill="none" stroke="#000" d="M40.104 266.984V.872M306.216 266.984V.872M40.104 266.984h266.112M40.104.872h266.112"/><path d="M121.966 38.216h177.25c1.333 0 2-.667 2-2V7.872c0-1.333-.667-2-2-2h-177.25c-1.333 0-2 .667-2 2v28.344c0 1.333.667 2 2 2z" fill="#fff" fill-opacity=".8"/><path stroke-miterlimit="10" fill="none" stroke="#d5d6d5" stroke-opacity=".8" d="M121.966 38.216h177.25c1.333 0 2-.667 2-2V7.872c0-1.333-.667-2-2-2h-177.25c-1.333 0-2 .667-2 2v28.344c0 1.333.667 2 2 2z"/><path stroke-width="2.5" stroke-linecap="square" stroke-linejoin="round" fill="none" stroke="#00f" d="M123.966 13.966h20"/><symbol id="y"><path transform="matrix(.001 0 0 .001 -.091 .013)" d="M487 273c0 66-14 117-41 155-28 38-65 57-112 57-48 0-85-19-112-57-28-38-41-89-41-155s13-118 41-156c27-38 64-56 112-56 47 0 84 18 112 56 27 38 41 90 41 156zM181 464c18 32 42 56 71 72s64 24 104 24c66 0 120-27 162-79 41-53 62-122 62-208s-21-156-62-208c-42-52-96-78-162-78-40 0-75 8-104 23s-53 39-71 72V0H91v760h90V464z"/></symbol><symbol id="z"><path transform="translate(-.042) scale(.001)" d="M42 547h90l112-427 112 427h106l112-427 112 427h90L633 0H527L409 448 291 0H185L42 547z"/></symbol><symbol id="A"><path transform="matrix(.001 0 0 .001 -.056 .013)" d="M394 662c-72 0-129-27-171-80-42-54-63-126-63-218s21-165 63-218c42-54 99-80 171-80 71 0 128 26 170 80 42 53 63 126 63 218s-21 164-63 218c-42 53-99 80-170 80zm0 80c102 0 183-35 245-103 61-68 92-160 92-275 0-116-31-207-92-275C577 21 496-13 394-13 291-13 209 21 148 89c-62 68-92 159-92 275 0 115 30 207 92 275 61 68 143 103 246 103z"/></symbol><symbol id="B"><path transform="matrix(.001 0 0 .001 -.066 .013)" d="M535 705v-96c-38 18-73 31-106 40-34 8-66 13-96 13-54 0-96-11-125-31-29-21-43-51-43-89 0-32 9-57 29-73 19-17 56-30 110-40l60-12c73-14 127-39 162-74 35-36 53-83 53-142 0-71-24-124-71-160-48-36-117-54-208-54-35 0-72 4-111 11S110 16 69 32v102c40-23 79-40 117-51 38-12 76-17 114-17 56 0 99 11 130 33 30 22 46 53 46 95 0 36-11 64-33 84s-58 35-108 45l-60 12c-74 14-127 37-160 69-33 31-49 74-49 130 0 64 22 115 68 152 45 37 108 56 188 56 34 0 68-3 104-9 35-6 71-16 109-28z"/></symbol><symbol id="C"><path transform="matrix(.001 0 0 .001 -.055 .013)" d="M454 464v296h90V0h-90v82c-19-33-43-57-72-72s-63-23-103-23c-66 0-120 26-162 78S55 187 55 273s20 155 62 208c42 52 96 79 162 79 40 0 74-8 103-24s53-40 72-72zM148 273c0-66 13-118 40-156s64-56 112-56 85 18 113 56c27 38 41 90 41 156s-14 117-41 155c-28 38-65 57-113 57s-85-19-112-57-40-89-40-155z"/></symbol><use xlink:href="#r" transform="matrix(10 0 0 -10 152.946 17.466)"/><use xlink:href="#i" transform="matrix(10 0 0 -10 160.606 17.466)"/><use xlink:href="#n" transform="matrix(10 0 0 -10 162.986 17.596)"/><use xlink:href="#s" transform="matrix(10 0 0 -10 167.926 17.466)"/><use xlink:href="#t" transform="matrix(10 0 0 -10 172.176 17.596)"/><use xlink:href="#u" transform="matrix(10 0 0 -10 178.616 17.466)"/><use xlink:href="#v" transform="matrix(10 0 0 -10 184.596 17.596)"/><use xlink:href="#k" transform="matrix(10 0 0 -10 190.096 17.596)"/><use xlink:href="#l" transform="matrix(10 0 0 -10 195.696 17.466)"/><use xlink:href="#y" transform="matrix(10 0 0 -10 199.786 17.596)"/><use xlink:href="#k" transform="matrix(10 0 0 -10 205.776 17.596)"/><use xlink:href="#s" transform="matrix(10 0 0 -10 211.646 17.466)"/><use xlink:href="#z" transform="matrix(10 0 0 -10 215.716 17.466)"/><use xlink:href="#k" transform="matrix(10 0 0 -10 224.026 17.596)"/><use xlink:href="#k" transform="matrix(10 0 0 -10 230.176 17.596)"/><use xlink:href="#u" transform="matrix(10 0 0 -10 236.686 17.466)"/><use xlink:href="#l" transform="matrix(10 0 0 -10 242.116 17.466)"/><use xlink:href="#A" transform="matrix(10 0 0 -10 245.856 17.596)"/><use xlink:href="#B" transform="matrix(10 0 0 -10 253.826 17.596)"/><use xlink:href="#l" transform="matrix(10 0 0 -10 259.516 17.466)"/><use xlink:href="#t" transform="matrix(10 0 0 -10 263.296 17.596)"/><use xlink:href="#u" transform="matrix(10 0 0 -10 269.736 17.466)"/><use xlink:href="#C" transform="matrix(10 0 0 -10 275.716 17.596)"/><use xlink:href="#l" transform="matrix(10 0 0 -10 281.516 17.466)"/><use xlink:href="#h" transform="matrix(10 0 0 -10 284.676 17.466)"/><use xlink:href="#B" transform="matrix(10 0 0 -10 291.466 17.596)"/><path d="m130.966 32.513 6-6m-6 0 6 6" fill="orange"/><path stroke-width="2.5" stroke-linejoin="round" fill="none" stroke="orange" d="m130.966 32.513 6-6m-6 0 6 6"/><symbol id="D"><path transform="translate(-.107) scale(.001)" d="M107 124h103V0H107v124z"/></symbol><symbol id="E"><path transform="matrix(.001 0 0 .001 -.106 -.172)" d="M106 454h626v-82H106v82zm0-199h626v-83H106v83z"/></symbol><use xlink:href="#j" transform="matrix(10 0 0 -10 152.876 32.138)"/><use xlink:href="#i" transform="matrix(10 0 0 -10 162.646 32.138)"/><use xlink:href="#u" transform="matrix(10 0 0 -10 165.396 32.138)"/><use xlink:href="#D" transform="matrix(10 0 0 -10 171.896 32.138)"/><use xlink:href="#l" transform="matrix(10 0 0 -10 174.006 32.138)"/><use xlink:href="#C" transform="matrix(10 0 0 -10 177.736 32.268)"/><use xlink:href="#i" transform="matrix(10 0 0 -10 184.476 32.138)"/><use xlink:href="#n" transform="matrix(10 0 0 -10 186.856 32.268)"/><use xlink:href="#s" transform="matrix(10 0 0 -10 191.796 32.138)"/><use xlink:href="#t" transform="matrix(10 0 0 -10 196.046 32.268)"/><use xlink:href="#u" transform="matrix(10 0 0 -10 202.486 32.138)"/><use xlink:href="#v" transform="matrix(10 0 0 -10 208.466 32.268)"/><use xlink:href="#k" transform="matrix(10 0 0 -10 213.966 32.268)"/><use xlink:href="#l" transform="matrix(10 0 0 -10 219.566 32.138)"/><use xlink:href="#E" transform="matrix(10 0 0 -10 223.806 30.418)"/><use xlink:href="#l" transform="matrix(10 0 0 -10 231.126 32.138)"/><use xlink:href="#c" transform="matrix(10 0 0 -10 235.406 32.138)"/><use xlink:href="#g" transform="matrix(10 0 0 -10 241.436 32.268)"/><use xlink:href="#D" transform="matrix(10 0 0 -10 248.096 32.138)"/><use xlink:href="#g" transform="matrix(10 0 0 -10 250.976 32.268)"/><use xlink:href="#p" transform="matrix(10 0 0 -10 257.266 32.268)"/><use xlink:href="#l" transform="matrix(10 0 0 -10 262.926 32.138)"/><use xlink:href="#j" transform="matrix(10 0 0 -10 267.016 32.138)"/></g></svg>