<svg xmlns="http://www.w3.org/2000/svg" xmlns:xlink="http://www.w3.org/1999/xlink" width="307pt" height="396" viewBox="0 0 307 297"><clipPath id="a"><path transform="matrix(1 0 0 -1 -63 305)" d="M0 0h460.8v345.6H0z"/></clipPath><g clip-path="url(#a)"><path d="M-63 305h460.8V-40.6H-63z" fill="#fff"/><path d="M40.104 266.984h266.112V.872H40.104z" fill="#fff"/><path stroke-width=".8" stroke-linejoin="round" fill="none" stroke="#000" d="M50.688 266.984v3.5"/><symbol id="b"><path transform="matrix(.001 0 0 .001 -.066 .013)" d="M318 664c-51 0-89-25-115-75s-38-125-38-225 12-175 38-225 64-75 115-75 89 25 115 75c25 50 38 125 38 225s-13 175-38 225c-26 50-64 75-115 75zm0 78c81 0 143-33 187-97 43-65 65-159 65-281 0-123-22-217-65-281-44-64-106-96-188-96S173 19 130 83 66 241 66 364c0 122 21 216 64 281 43 64 106 97 188 97z"/></symbol><use xlink:href="#b" transform="matrix(10 0 0 -10 48.168 281.708)"/><path stroke-width=".8" stroke-linejoin="round" fill="none" stroke="#000" d="M97.933 266.984v3.5"/><symbol id="c"><path transform="translate(-.11) scale(.001)" d="M124 83h161v556l-175-35v90l174 35h99V83h161V0H124v83z"/></symbol><use xlink:href="#c" transform="matrix(10 0 0 -10 92.673 281.578)"/><use xlink:href="#b" transform="matrix(10 0 0 -10 98.593 281.708)"/><path stroke-width=".8" stroke-linejoin="round" fill="none" stroke="#000" d="M145.177 266.984v3.5"/><symbol id="d"><path transform="translate(-.073) scale(.001)" d="M192 83h344V0H73v83c37 38 88 90 153 156 64 65 105 107 122 126 32 35 54 65 66 90 12 24 19 49 19 73 0 38-14 70-41 94s-62 37-106 37c-31 0-64-6-98-16-34-11-71-27-110-49v100c40 16 77 28 111 36s66 12 95 12c75 0 135-19 180-57s68-88 68-151c0-30-6-59-17-85-11-27-31-59-61-95-8-10-34-37-78-82S271 164 192 83z"/></symbol><use xlink:href="#d" transform="matrix(10 0 0 -10 139.548 281.578)"/><use xlink:href="#b" transform="matrix(10 0 0 -10 145.838 281.708)"/><path stroke-width=".8" stroke-linejoin="round" fill="none" stroke="#000" d="M192.422 266.984v3.5"/><symbol id="e"><path transform="matrix(.001 0 0 .001 -.076 .013)" d="M406 393c47-10 84-31 110-63s40-72 40-118c0-72-25-128-74-167-50-39-120-58-211-58-31 0-63 3-95 9-32 5-66 14-100 26v95c27-16 57-28 90-36 32-8 66-12 102-12 62 0 109 12 141 36s49 60 49 107c0 42-15 76-45 100s-72 37-126 37h-85v81h89c48 0 85 9 111 29 26 19 39 47 39 84s-14 66-40 86c-27 20-65 30-114 30-27 0-56-3-87-9s-65-15-102-27v88c37 10 72 18 105 23 32 5 63 8 93 8 74 0 133-17 177-51s66-80 66-138c0-40-12-74-35-102s-56-48-98-58z"/></symbol><use xlink:href="#e" transform="matrix(10 0 0 -10 186.822 281.708)"/><use xlink:href="#b" transform="matrix(10 0 0 -10 193.082 281.708)"/><path stroke-width=".8" stroke-linejoin="round" fill="none" stroke="#000" d="M239.666 266.984v3.5"/><symbol id="f"><path transform="translate(-.049) scale(.001)" d="M378 643 129 254h249v389zm-26 86h124V254h104v-82H476V0h-98v172H49v95l303 462z"/></symbol><use xlink:href="#f" transform="matrix(10 0 0 -10 233.797 281.578)"/><use xlink:href="#b" transform="matrix(10 0 0 -10 240.327 281.708)"/><path stroke-width=".8" stroke-linejoin="round" fill="none" stroke="#000" d="M286.91 266.984v3.5"/><symbol id="g"><path transform="matrix(.001 0 0 .001 -.077 .013)" d="M108 729h387v-83H198V467c14 5 29 9 43 11s29 4 43 4c81 0 145-23 193-67 48-45 72-105 72-181 0-79-25-140-74-183S357-13 269-13c-31 0-62 3-94 7-32 5-64 12-98 23v99c29-16 59-28 91-36 31-8 64-11 99-11 56 0 101 14 134 44 32 30 49 70 49 121 0 50-17 90-49 120-33 30-78 45-134 45-26 0-53-3-79-9s-53-15-80-27v366z"/></symbol><use xlink:href="#g" transform="matrix(10 0 0 -10 281.321 281.708)"/><use xlink:href="#b" transform="matrix(10 0 0 -10 287.571 281.708)"/><symbol id="h"><path transform="translate(.002) scale(.001)" d="M-2 729h616v-83H355V0h-99v646H-2v83z"/></symbol><symbol id="i"><path transform="translate(-.094) scale(.001)" d="M94 547h90V0H94v547zm0 213h90V646H94v114z"/></symbol><symbol id="j"><path transform="translate(-.091) scale(.001)" d="M520 442c22 40 49 69 80 89 31 19 68 29 111 29 56 0 100-20 131-60s47-97 47-170V0h-90v327c0 52-10 91-28 117-19 25-47 38-85 38-47 0-84-16-111-47s-40-73-40-126V0h-90v327c0 52-10 91-28 117-19 25-48 38-86 38-46 0-83-16-110-47s-40-73-40-126V0H91v547h90v-85c20 33 45 58 74 74 28 16 62 24 102 24s73-10 101-30 48-50 62-88z"/></symbol><symbol id="k"><path transform="matrix(.001 0 0 .001 -.055 .013)" d="M562 296v-44H149c4-62 22-110 56-142 33-32 79-48 139-48 34 0 68 4 100 12s65 21 97 39V28c-32-14-65-25-99-31s-69-10-103-10c-88 0-157 25-208 75S55 181 55 268c0 89 24 160 72 213 48 52 114 79 196 79 74 0 132-24 175-71 42-48 64-112 64-193zm-90 26c-1 49-15 88-41 118-27 29-63 44-107 44-50 0-90-15-120-43s-48-68-52-119h320z"/></symbol><symbol id="m"><path transform="matrix(.001 0 0 .001 -.086 .131)" d="M86 760h207v-70H176V-61h117v-70H86v891z"/></symbol><symbol id="n"><path transform="matrix(.001 0 0 .001 -.054 .013)" d="M443 531v-85c-26 12-52 22-79 29-28 6-56 10-85 10-45 0-79-7-101-21s-33-34-33-61c0-21 8-37 24-49s48-24 96-34l31-7c64-14 109-34 136-58 26-25 40-60 40-104 0-51-20-91-60-120-40-30-96-44-166-44-30 0-60 3-92 8S89 8 54 20v93c33-18 66-31 98-39 32-9 64-13 96-13 42 0 75 7 98 21 22 14 34 35 34 62 0 24-9 43-25 56s-52 26-108 38l-31 7c-56 12-97 30-121 54-25 24-37 57-37 100 0 51 18 91 54 119s88 42 156 42c33 0 64-3 94-8 29-5 56-12 81-21z"/></symbol><symbol id="o"><path transform="matrix(.001 0 0 .001 -.097 .131)" d="M304 760v-891H97v70h117v751H97v70h207z"/></symbol><use xlink:href="#h" transform="matrix(10 0 0 -10 152.757 295.25)"/><use xlink:href="#i" transform="matrix(10 0 0 -10 159.53 295.25)"/><use xlink:href="#j" transform="matrix(10 0 0 -10 162.28 295.25)"/><use xlink:href="#k" transform="matrix(10 0 0 -10 171.66 295.38)"/><use xlink:href="#l" transform="matrix(10 0 0 -10 177.26 295.25)"/><use xlink:href="#m" transform="matrix(10 0 0 -10 181.3 296.56)"/><use xlink:href="#n" transform="matrix(10 0 0 -10 184.88 295.38)"/><use xlink:href="#o" transform="matrix(10 0 0 -10 190.52 296.56)"/><path stroke-width=".8" stroke-linejoin="round" fill="none" stroke="#000" d="M40.104 241.875h-3.5"/><symbol id="p"><path transform="matrix(.001 0 0 .001 -.07 .013)" d="M330 404c-44 0-79-16-105-46s-39-72-39-124c0-53 13-95 39-125s61-45 105-45 79 15 105 45 39 72 39 125c0 52-13 94-39 124s-61 46-105 46zm196 309v-90c-25 12-50 21-75 27-26 6-51 9-75 9-66 0-116-22-150-66s-54-111-58-199c19 28 43 50 72 65s61 23 96 23c73 0 131-23 173-67s64-105 64-181c0-75-23-135-67-180S403-13 330-13c-84 0-149 32-193 96-45 64-67 158-67 281 0 115 27 207 82 275 54 68 128 103 220 103 24 0 49-3 75-7 25-5 51-12 79-22z"/></symbol><use xlink:href="#p" transform="matrix(10 0 0 -10 21.085 245.802)"/><use xlink:href="#b" transform="matrix(10 0 0 -10 27.405 245.802)"/><path stroke-width=".8" stroke-linejoin="round" fill="none" stroke="#000" d="M40.104 190.222h-3.5"/><symbol id="q"><path transform="matrix(.001 0 0 .001 -.068 .013)" d="M318 346c-47 0-84-13-111-38s-40-59-40-103 13-79 40-104 64-37 111-37c46 0 83 12 110 38 27 25 41 59 41 103s-14 78-40 103c-27 25-64 38-111 38zm-99 42c-42 10-75 30-99 59s-35 64-35 106c0 58 20 104 62 138 41 34 98 51 171 51 72 0 129-17 171-51 41-34 62-80 62-138 0-42-12-77-36-106s-56-49-98-59c47-11 84-33 111-65 26-32 40-72 40-118 0-71-22-125-65-162-44-38-106-56-186-56S175 5 132 43c-43 37-64 91-64 162 0 46 13 86 40 118 26 32 63 54 111 65zm-36 156c0-38 11-68 35-89s57-31 100-31c42 0 75 10 99 31s36 51 36 89-12 67-36 88-57 32-99 32c-43 0-76-11-100-32s-35-50-35-88z"/></symbol><use xlink:href="#q" transform="matrix(10 0 0 -10 21.065 194.15)"/><use xlink:href="#b" transform="matrix(10 0 0 -10 27.405 194.15)"/><path stroke-width=".8" stroke-linejoin="round" fill="none" stroke="#000" d="M40.104 138.57h-3.5"/><use xlink:href="#c" transform="matrix(10 0 0 -10 15.126 142.367)"/><use xlink:href="#b" transform="matrix(10 0 0 -10 21.046 142.497)"/><use xlink:href="#b" transform="matrix(10 0 0 -10 27.406 142.497)"/><path stroke-width=".8" stroke-linejoin="round" fill="none" stroke="#000" d="M40.104 86.918h-3.5"/><use xlink:href="#c" transform="matrix(10 0 0 -10 15.126 90.714)"/><use xlink:href="#d" transform="matrix(10 0 0 -10 21.116 90.714)"/><use xlink:href="#b" transform="matrix(10 0 0 -10 27.406 90.844)"/><path stroke-width=".8" stroke-linejoin="round" fill="none" stroke="#000" d="M40.104 35.265h-3.5"/><use xlink:href="#c" transform="matrix(10 0 0 -10 15.126 39.062)"/><use xlink:href="#f" transform="matrix(10 0 0 -10 20.876 39.062)"/><use xlink:href="#b" transform="matrix(10 0 0 -10 27.406 39.192)"/><symbol id="r"><path transform="matrix(.001 0 0 .001 -.056 .013)" d="M394 662c-72 0-129-27-171-80-42-54-63-126-63-218s21-165 63-218c42-54 99-80 171-80 71 0 128 26 170 80 42 53 63 126 63 218s-21 164-63 218c-42 53-99 80-170 80zm0 80c102 0 183-35 245-103 61-68 92-160 92-275 0-116-31-207-92-275C577 21 496-13 394-13 291-13 209 21 148 89c-62 68-92 159-92 275 0 115 30 207 92 275 61 68 143 103 246 103z"/></symbol><symbol id="s"><path transform="translate(-.091) scale(.001)" d="M411 463c-10 6-21 10-33 13-12 2-25 4-39 4-51 0-90-17-117-50-28-33-41-80-41-142V0H91v547h90v-85c18 33 43 58 73 74s67 24 111 24c6 0 13-1 21-1 7-1 15-2 25-4v-92z"/></symbol><symbol id="t"><path transform="translate(-.027) scale(.001)" d="M183 702V547h185v-70H183V180c0-45 6-74 18-86 12-13 37-19 75-19h92V0h-92c-70 0-118 13-144 39s-39 73-39 141v297H27v70h66v155h90z"/></symbol><symbol id="u"><path transform="translate(-.091) scale(.001)" d="M549 330V0h-90v327c0 52-11 90-31 116s-50 39-90 39c-49 0-87-16-115-47s-42-73-42-126V0H91v547h90v-85c21 32 46 57 76 73 29 16 63 25 101 25 62 0 110-20 142-59s49-96 49-171z"/></symbol><symbol id="v"><path transform="matrix(.001 0 0 .001 -.06 .013)" d="M343 275c-73 0-123-9-151-25-28-17-42-45-42-85 0-32 10-58 31-76 21-19 50-28 86-28 50 0 90 17 120 53 30 35 45 82 45 141v20h-89zm179 37V0h-90v83c-21-34-47-58-77-73s-68-23-112-23c-56 0-101 15-134 46s-49 73-49 126c0 61 20 107 62 139 41 31 102 47 184 47h126v9c0 41-14 73-41 96-27 22-65 34-114 34-32 0-62-4-92-12s-58-19-85-33v83c32 12 64 22 95 28s61 10 91 10c79 0 138-21 177-62s59-103 59-186z"/></symbol><symbol id="w"><path transform="matrix(.001 0 0 .001 -.055 .013)" d="M306 484c-48 0-86-19-114-57s-42-89-42-154c0-66 13-117 41-155s66-56 115-56c48 0 86 18 114 56s42 89 42 155c0 64-14 116-42 154s-66 57-114 57zm0 76c78 0 139-26 184-76 44-51 67-121 67-211s-23-160-67-210c-45-51-106-76-184-76-79 0-141 25-185 76-44 50-66 120-66 210s22 160 66 211c44 50 106 76 185 76z"/></symbol><symbol id="x"><path transform="matrix(.001 0 0 .001 -.095 -.432)" d="M250 679c-26 0-48-9-66-27s-27-40-27-66 9-48 27-66 40-26 66-26 48 8 66 26 27 40 27 66-9 48-27 66-40 27-66 27zm0 63c20 0 40-4 60-12 19-8 36-20 50-34 14-15 25-32 33-50 8-19 12-39 12-60 0-44-16-80-46-110s-67-44-110-44c-44 0-81 14-110 44-30 29-44 66-44 110 0 43 15 80 45 110s66 46 110 46z"/></symbol><use xlink:href="#r" transform="matrix(0 -10 -10 0 8.078 171.571)"/><use xlink:href="#s" transform="matrix(0 -10 -10 0 7.948 163.351)"/><use xlink:href="#i" transform="matrix(0 -10 -10 0 7.948 159.211)"/><use xlink:href="#t" transform="matrix(0 -10 -10 0 7.948 157.101)"/><use xlink:href="#k" transform="matrix(0 -10 -10 0 8.078 152.901)"/><use xlink:href="#u" transform="matrix(0 -10 -10 0 7.948 146.391)"/><use xlink:href="#t" transform="matrix(0 -10 -10 0 7.948 140.691)"/><use xlink:href="#v" transform="matrix(0 -10 -10 0 8.078 136.441)"/><use xlink:href="#t" transform="matrix(0 -10 -10 0 7.948 130.641)"/><use xlink:href="#i" transform="matrix(0 -10 -10 0 7.948 126.051)"/><use xlink:href="#w" transform="matrix(0 -10 -10 0 8.078 123.661)"/><use xlink:href="#u" transform="matrix(0 -10 -10 0 7.948 117.181)"/><use xlink:href="#l" transform="matrix(0 -10 -10 0 7.948 111.751)"/><use xlink:href="#m" transform="matrix(0 -10 -10 0 9.258 107.711)"/><use xlink:href="#x" transform="matrix(0 -10 -10 0 3.628 103.721)"/><use xlink:href="#o" transform="matrix(0 -10 -10 0 9.258 98.701)"/><clipPath id="y"><path transform="matrix(1 0 0 -1 -63 305)" d="M103.104 38.016h266.112v266.112H103.104z"/></clipPath><g clip-path="url(#y)"><path stroke-width="2.5" stroke-linecap="square" stroke-linejoin="round" fill="none" stroke="teal" d="m52.2 164.393.146.38.052-.557.09.177.095.155.094-.155.09.278.1-.145.098.247.194-.147.104.105.07-.12.1.203.104-.319.17.188 1.058-.6.265-.063.132-.069.166.082.297-.199.279.013.123-.13.052.072.099.004.123-.194.07.136.445-.176.052.005.156-.118.198-.052.572-.215 1.412-.672.08.006.105-.165.18.07.183-.044.293-.04 1.125.16.619.177.056-.051.18.057.104.002.08.163.336-.049.056.109.095-.052.108-.052.17.162.095-.104.109.16.075-.104.095.16.123-.105.08.107.094-.104.378.163.104-.052.066.106.194.002.76.11 5.207 1.91.369.051.094.102.132-.051.293.153.038-.052.189.153h.208l.647.202.69.1.085.102.316-.051.147.101.09-.102.34.152h.123l.822.101.156.051.07-.05.199.05 1.13.099h.188l.936.096.382.108.586-.097.373-.153.36-.05.193-.101.095.101.099-.204.09.102.49-.155 1.012-.052.288-.102.284.102.203-.102h.746l.104-.152.18.101.226-.05.147.05.387-.1 6.048.1.274.05 1.322.052.289.152.222-.102 1.285.05.094.102.118-.102.185.051.274.051h.203l3.34.096.137.106.288-.047.312.054.184-.05.066.053.109-.154.07.053.298-.053.289-.051.288-.154h.26l.973-.051.066-.103.222.051.16.001.478-.153.09.102.387-.1.307.05 1.002-.052.208-.05 4.516.049.26.05.123-.05.293.1.175-.05.34.101.137-.05 1.053.1.203.001.841.102 1.229.1.085.05.364-.05 1.143.102.231-.001.719.052.236.103.047-.051h.184l1.71-.001.095-.152.222.05.817.054.1.102.07-.103.213.05.076-.05.222.002.165-.002h.189l.378-.103.222.05.203-.05 1.673-.1.15-.052 10.328.1.17-.001h.199l1.474.003.057.153.099-.153.061.101.298-.05 14.83-.1.283-.052 7.38.15.18.052.085-.05.118.1.269-.152h2.844l.26 3.619.25 1.113.241.502.199-.048.26-.906.67-4.8.68-6.162.275-2.794 1.044-8.983.274-2.501 1.413-14.039.685-8.04.543-7.646.24-2.66.313-5.444.604-8.682.265-4.562.203-2.946 1.314-21.506.302-4.542.425-7.461.208-2.807.25-1.41 1.342-20.104 1.261-11.71.738-4.867.481-1.899.478-1.124.467-.56.355-.094.311.14.355.535 1.082 1.034.146.303 1.408 1.617.77 1.535 1.04 3.047.236.572.619 2.32.104.226.274 1.053.855 3.042 2.173 6.191.586.673.656.55.256.126.33.185.095-.003.279.279.146.104.213.21 1.795 2.248.08.004.321.283.345.226.855.37.284.037.364.1.193-.028.61.092h.156l.959.045.453.042 1.262.101.912.151.392-.161.09-.04.278-.559.378-.105.19.17.6 1.236.33 1.188.713 1.854.218.768.307.76.467 1.26.742 1.712.411.905.364.852.76 1.812.35.982.218.512.685 1.748.193.473.27.705 1.389 2.329.576 1.07 1.242 2.19.199.233.496.55.369.32.25.3.123.018.26.284.094-.012.184.115.392.248.364.161.288.028.308.086.08-.07.184.07.473.027.174.023.671.004.388-.064.17-.001.392-.051.099.051.175-.029.198-.086.473-.006.274-.086.307.006.189-.057.84-.069.26-.057.416-.034.374-.034.68-.159.08.086.194-.086.104.046.184-.086.458.007.19-.069.987-.154.104.069.165-.069.42-.062.421.04.227-.057 2.012-.08.17-2 .388-1.47.08-.018.274.484.293.958 1.257 6.902.335 2.83.766 5.913.992 7.858.793 7.554 1.753 24.71.373 6.294.355 6.694.449 6.976.382 6.968.799 15.038.534 7.756 1.318 23.842.614 15.983.274 7.893 1.389 28.912.76 8.023.289 1.845.378 1.47.18.103.278-.286.198-.415.468-1.534.312-.797.43-1.582.217-.273.274-.528.751-1.444.137-.198.185-.49.444-1.812 1.913-12.543 1.205-10.841.212-1.757.331-3.435 1.706-14.53.288-1.922.27-.626.23-2.23.719-4.157.756-2.652.274-.596.415-.698.35-.233.373-.14.312-.018.416.195.175.262.434.67.567.827.85 1.801.313.59.075.055.26.603.326.54.25.596.515 1.148 1.847 4.886.317.505.926 1.456 1.304 1.758.288.598.1.084.566 1.032 1.05 1.379.16.198 1.375.738.354.047.189.151.203.058 1.857.493.094-.093.288.057.293.07.388.024.17.058.246-.011.222.071.406.094h.175l1.228.093.184.104.369-.046.477.077.368.02.199.025.1-.116.08.104.34-.06.326.033 1.034-.015.194.01.109.048.09-.108.084.105.1-.13.08.072.208-.013.935-.117.1.094.146-.083.047.106.284-.07 1.322.059.298.058.246.036.321.094.16-.014.289.065.1.07.188-.048.392.014.274-.034.199-.022 3.297.408.288.094 1.05.153.065.105.1-.058.302.105.085-.07.18.07 2.083.35.118-.046.166.047.373.094.373.081.109.059.184.035.676.106 3.15.48.152.013.194.046.07-.093.265.14h.241"/></g><clipPath id="z"><path transform="matrix(1 0 0 -1 -63 305)" d="M103.104 38.016h266.112v266.112H103.104z"/></clipPath><g clip-path="url(#z)"><path stroke-width="2.5" stroke-dasharray="9.25,4" stroke-linejoin="round" fill="none" stroke="red" d="m52.2 165.87 34.016.133 74.528.133.137-110.21h.449l.113-7.748h2.315l.147-7.748h33.647l.08 23.244h26.472l.165 138.049.387.396.662.556 1.02.858.61.454.434.368 3.695 2.449 2.339.99 2.38.467 1.357.1 1.762-.182 7.79-.969 2.126.133 2.934.464 2.859.54 1.318.233 1.738.276 2.797.382 2.183.252 2.806.286 4.862.48 3.557.373 8.485.972 11.75 1.505"/></g><path stroke-width=".8" stroke-linecap="square" stroke-miterlimit="10" fill="none" stroke="#000" d="M40.104 266.984V.872M306.216 266.984V.872M40.104 266.984h266.112M40.104.872h266.112"/><path d="M47.104 261.984h153.36c1.333 0 2-.667 2-2V231.64c0-1.333-.667-2-2-2H47.103c-1.333 0-2 .667-2 2v28.344c0 1.333.667 2 2 2z" fill="#fff" fill-opacity=".8"/><path stroke-miterlimit="10" fill="none" stroke="#d5d6d5" stroke-opacity=".8" d="M47.104 261.984h153.36c1.333 0 2-.667 2-2V231.64c0-1.333-.667-2-2-2H47.103c-1.333 0-2 .667-2 2v28.344c0 1.333.667 2 2 2z"/><path stroke-width="2.5" stroke-linecap="square" stroke-linejoin="round" fill="none" stroke="teal" d="M49.104 237.734h20"/><symbol id="A"><path transform="matrix(.001 0 0 .001 -.056 .013)" d="M644 673V569c-34 30-69 53-107 69-38 15-77 23-119 23-84 0-148-26-192-77s-66-124-66-220 22-170 66-221 108-76 192-76c42 0 81 7 119 23 38 15 73 38 107 69V56c-35-24-72-41-110-52s-79-17-122-17C302-13 215 20 151 87S56 246 56 364c0 117 31 209 95 277 64 67 151 101 261 101 44 0 85-6 123-17 38-12 75-29 109-52z"/></symbol><symbol id="B"><path transform="matrix(.001 0 0 .001 -.085 .013)" d="M85 216v331h90V219c0-52 10-90 30-116s50-39 91-39c48 0 87 15 115 46s42 73 42 127v310h90V0h-90v84c-22-34-48-58-76-74-29-15-62-23-100-23-63 0-111 19-143 58-33 38-49 95-49 171zm226 344z"/></symbol><symbol id="C"><path transform="matrix(.001 0 0 .001 -.086 .131)" d="M310 759c-44-76-76-150-97-223-22-73-32-147-32-222 0-76 10-150 32-223 21-74 53-147 97-222h-78C183-54 146 20 122 94S86 241 86 314c0 72 12 145 36 219s60 149 110 226h78z"/></symbol><symbol id="D"><path transform="matrix(.001 0 0 .001 -.066 .013)" d="M535 705v-96c-38 18-73 31-106 40-34 8-66 13-96 13-54 0-96-11-125-31-29-21-43-51-43-89 0-32 9-57 29-73 19-17 56-30 110-40l60-12c73-14 127-39 162-74 35-36 53-83 53-142 0-71-24-124-71-160-48-36-117-54-208-54-35 0-72 4-111 11S110 16 69 32v102c40-23 79-40 117-51 38-12 76-17 114-17 56 0 99 11 130 33 30 22 46 53 46 95 0 36-11 64-33 84s-58 35-108 45l-60 12c-74 14-127 37-160 69-33 31-49 74-49 130 0 64 22 115 68 152 45 37 108 56 188 56 34 0 68-3 104-9 35-6 71-16 109-28z"/></symbol><symbol id="E"><path transform="matrix(.001 0 0 .001 -.08 .131)" d="M80 759h78c48-77 85-152 109-226s37-147 37-219c0-73-13-146-37-220S206-54 158-131H80c43 75 75 148 97 222 21 73 32 147 32 223 0 75-11 149-32 222-22 73-54 147-97 223z"/></symbol><use xlink:href="#A" transform="matrix(10 0 0 -10 77.664 241.364)"/><use xlink:href="#B" transform="matrix(10 0 0 -10 84.934 241.364)"/><use xlink:href="#s" transform="matrix(10 0 0 -10 91.334 241.234)"/><use xlink:href="#s" transform="matrix(10 0 0 -10 95.272 241.234)"/><use xlink:href="#k" transform="matrix(10 0 0 -10 98.803 241.364)"/><use xlink:href="#u" transform="matrix(10 0 0 -10 105.313 241.234)"/><use xlink:href="#t" transform="matrix(10 0 0 -10 111.013 241.234)"/><use xlink:href="#l" transform="matrix(10 0 0 -10 114.663 241.234)"/><use xlink:href="#w" transform="matrix(10 0 0 -10 118.393 241.364)"/><use xlink:href="#s" transform="matrix(10 0 0 -10 124.873 241.234)"/><use xlink:href="#i" transform="matrix(10 0 0 -10 129.013 241.234)"/><use xlink:href="#k" transform="matrix(10 0 0 -10 131.403 241.364)"/><use xlink:href="#u" transform="matrix(10 0 0 -10 137.913 241.234)"/><use xlink:href="#t" transform="matrix(10 0 0 -10 143.613 241.234)"/><use xlink:href="#v" transform="matrix(10 0 0 -10 147.863 241.364)"/><use xlink:href="#t" transform="matrix(10 0 0 -10 153.663 241.234)"/><use xlink:href="#i" transform="matrix(10 0 0 -10 158.253 241.234)"/><use xlink:href="#w" transform="matrix(10 0 0 -10 160.643 241.364)"/><use xlink:href="#u" transform="matrix(10 0 0 -10 167.123 241.234)"/><use xlink:href="#l" transform="matrix(10 0 0 -10 172.553 241.234)"/><use xlink:href="#C" transform="matrix(10 0 0 -10 176.593 242.544)"/><use xlink:href="#r" transform="matrix(10 0 0 -10 180.193 241.364)"/><use xlink:href="#D" transform="matrix(10 0 0 -10 188.163 241.364)"/><use xlink:href="#E" transform="matrix(10 0 0 -10 194.653 242.544)"/><path stroke-width="2.5" stroke-dasharray="9.25,4" stroke-linejoin="round" fill="none" stroke="red" d="M49.104 252.406h20"/><symbol id="F"><path transform="translate(-.098) scale(.001)" d="M197 648V81h119c100 0 174 22 221 68 46 46 70 118 70 216s-24 169-70 215c-47 45-121 68-221 68H197zm-99 81h203c141 0 245-30 311-88 66-59 99-151 99-276 0-126-34-218-100-277S441 0 301 0H98v729z"/></symbol><symbol id="G"><path transform="matrix(.001 0 0 .001 -.055 .013)" d="M454 464v296h90V0h-90v82c-19-33-43-57-72-72s-63-23-103-23c-66 0-120 26-162 78S55 187 55 273s20 155 62 208c42 52 96 79 162 79 40 0 74-8 103-24s53-40 72-72zM148 273c0-66 13-118 40-156s64-56 112-56 85 18 113 56c27 38 41 90 41 156s-14 117-41 155c-28 38-65 57-113 57s-85-19-112-57-40-89-40-155z"/></symbol><use xlink:href="#F" transform="matrix(10 0 0 -10 78.084 255.906)"/><use xlink:href="#k" transform="matrix(10 0 0 -10 85.354 256.036)"/><use xlink:href="#n" transform="matrix(10 0 0 -10 91.494 256.036)"/><use xlink:href="#i" transform="matrix(10 0 0 -10 97.104 255.906)"/><use xlink:href="#s" transform="matrix(10 0 0 -10 99.854 255.906)"/><use xlink:href="#k" transform="matrix(10 0 0 -10 103.385 256.036)"/><use xlink:href="#G" transform="matrix(10 0 0 -10 109.535 256.036)"/><use xlink:href="#l" transform="matrix(10 0 0 -10 115.335 255.906)"/><use xlink:href="#w" transform="matrix(10 0 0 -10 119.065 256.036)"/><use xlink:href="#s" transform="matrix(10 0 0 -10 125.545 255.906)"/><use xlink:href="#i" transform="matrix(10 0 0 -10 129.685 255.906)"/><use xlink:href="#k" transform="matrix(10 0 0 -10 132.075 256.036)"/><use xlink:href="#u" transform="matrix(10 0 0 -10 138.585 255.906)"/><use xlink:href="#t" transform="matrix(10 0 0 -10 144.285 255.906)"/><use xlink:href="#v" transform="matrix(10 0 0 -10 148.535 256.036)"/><use xlink:href="#t" transform="matrix(10 0 0 -10 154.335 255.906)"/><use xlink:href="#i" transform="matrix(10 0 0 -10 158.925 255.906)"/><use xlink:href="#w" transform="matrix(10 0 0 -10 161.315 256.036)"/><use xlink:href="#u" transform="matrix(10 0 0 -10 167.795 255.906)"/><use xlink:href="#l" transform="matrix(10 0 0 -10 173.225 255.906)"/><use xlink:href="#C" transform="matrix(10 0 0 -10 177.265 257.216)"/><use xlink:href="#r" transform="matrix(10 0 0 -10 180.865 256.036)"/><use xlink:href="#D" transform="matrix(10 0 0 -10 188.835 256.036)"/><use xlink:href="#E" transform="matrix(10 0 0 -10 195.325 257.216)"/></g></svg>