<svg xmlns="http://www.w3.org/2000/svg" xmlns:xlink="http://www.w3.org/1999/xlink" width="614.4" height="460.8" viewBox="0 0 460.8 345.6"><path d="M0 345.6h460.8V0H0z" fill="#fff"/><path d="M103.104 307.584h266.112V41.472H103.104z" fill="#fff"/><path stroke-width=".8" stroke-linejoin="round" fill="none" stroke="#000" d="M113.688 307.584v3.5"/><symbol id="a"><path transform="matrix(.001 0 0 .001 -.066 .013)" d="M318 664c-51 0-89-25-115-75s-38-125-38-225 12-175 38-225 64-75 115-75 89 25 115 75c25 50 38 125 38 225s-13 175-38 225c-26 50-64 75-115 75zm0 78c81 0 143-33 187-97 43-65 65-159 65-281 0-123-22-217-65-281-44-64-106-96-188-96S173 19 130 83 66 241 66 364c0 122 21 216 64 281 43 64 106 97 188 97z"/></symbol><use xlink:href="#a" transform="matrix(10 0 0 -10 111.168 322.308)"/><path stroke-width=".8" stroke-linejoin="round" fill="none" stroke="#000" d="M160.933 307.584v3.5"/><symbol id="b"><path transform="translate(-.11) scale(.001)" d="M124 83h161v556l-175-35v90l174 35h99V83h161V0H124v83z"/></symbol><use xlink:href="#b" transform="matrix(10 0 0 -10 155.673 322.178)"/><use xlink:href="#a" transform="matrix(10 0 0 -10 161.593 322.308)"/><path stroke-width=".8" stroke-linejoin="round" fill="none" stroke="#000" d="M208.177 307.584v3.5"/><symbol id="c"><path transform="translate(-.073) scale(.001)" d="M192 83h344V0H73v83c37 38 88 90 153 156 64 65 105 107 122 126 32 35 54 65 66 90 12 24 19 49 19 73 0 38-14 70-41 94s-62 37-106 37c-31 0-64-6-98-16-34-11-71-27-110-49v100c40 16 77 28 111 36s66 12 95 12c75 0 135-19 180-57s68-88 68-151c0-30-6-59-17-85-11-27-31-59-61-95-8-10-34-37-78-82S271 164 192 83z"/></symbol><use xlink:href="#c" transform="matrix(10 0 0 -10 202.548 322.178)"/><use xlink:href="#a" transform="matrix(10 0 0 -10 208.838 322.308)"/><path stroke-width=".8" stroke-linejoin="round" fill="none" stroke="#000" d="M255.422 307.584v3.5"/><symbol id="d"><path transform="matrix(.001 0 0 .001 -.076 .013)" d="M406 393c47-10 84-31 110-63s40-72 40-118c0-72-25-128-74-167-50-39-120-58-211-58-31 0-63 3-95 9-32 5-66 14-100 26v95c27-16 57-28 90-36 32-8 66-12 102-12 62 0 109 12 141 36s49 60 49 107c0 42-15 76-45 100s-72 37-126 37h-85v81h89c48 0 85 9 111 29 26 19 39 47 39 84s-14 66-40 86c-27 20-65 30-114 30-27 0-56-3-87-9s-65-15-102-27v88c37 10 72 18 105 23 32 5 63 8 93 8 74 0 133-17 177-51s66-80 66-138c0-40-12-74-35-102s-56-48-98-58z"/></symbol><use xlink:href="#d" transform="matrix(10 0 0 -10 249.822 322.308)"/><use xlink:href="#a" transform="matrix(10 0 0 -10 256.082 322.308)"/><path stroke-width=".8" stroke-linejoin="round" fill="none" stroke="#000" d="M302.666 307.584v3.5"/><symbol id="e"><path transform="translate(-.049) scale(.001)" d="M378 643 129 254h249v389zm-26 86h124V254h104v-82H476V0h-98v172H49v95l303 462z"/></symbol><use xlink:href="#e" transform="matrix(10 0 0 -10 296.797 322.178)"/><use xlink:href="#a" transform="matrix(10 0 0 -10 303.327 322.308)"/><path stroke-width=".8" stroke-linejoin="round" fill="none" stroke="#000" d="M349.91 307.584v3.5"/><symbol id="f"><path transform="matrix(.001 0 0 .001 -.077 .013)" d="M108 729h387v-83H198V467c14 5 29 9 43 11s29 4 43 4c81 0 145-23 193-67 48-45 72-105 72-181 0-79-25-140-74-183S357-13 269-13c-31 0-62 3-94 7-32 5-64 12-98 23v99c29-16 59-28 91-36 31-8 64-11 99-11 56 0 101 14 134 44 32 30 49 70 49 121 0 50-17 90-49 120-33 30-78 45-134 45-26 0-53-3-79-9s-53-15-80-27v366z"/></symbol><use xlink:href="#f" transform="matrix(10 0 0 -10 344.321 322.308)"/><use xlink:href="#a" transform="matrix(10 0 0 -10 350.571 322.308)"/><symbol id="g"><path transform="translate(.002) scale(.001)" d="M-2 729h616v-83H355V0h-99v646H-2v83z"/></symbol><symbol id="h"><path transform="translate(-.094) scale(.001)" d="M94 547h90V0H94v547zm0 213h90V646H94v114z"/></symbol><symbol id="i"><path transform="translate(-.091) scale(.001)" d="M520 442c22 40 49 69 80 89 31 19 68 29 111 29 56 0 100-20 131-60s47-97 47-170V0h-90v327c0 52-10 91-28 117-19 25-47 38-85 38-47 0-84-16-111-47s-40-73-40-126V0h-90v327c0 52-10 91-28 117-19 25-48 38-86 38-46 0-83-16-110-47s-40-73-40-126V0H91v547h90v-85c20 33 45 58 74 74 28 16 62 24 102 24s73-10 101-30 48-50 62-88z"/></symbol><symbol id="j"><path transform="matrix(.001 0 0 .001 -.055 .013)" d="M562 296v-44H149c4-62 22-110 56-142 33-32 79-48 139-48 34 0 68 4 100 12s65 21 97 39V28c-32-14-65-25-99-31s-69-10-103-10c-88 0-157 25-208 75S55 181 55 268c0 89 24 160 72 213 48 52 114 79 196 79 74 0 132-24 175-71 42-48 64-112 64-193zm-90 26c-1 49-15 88-41 118-27 29-63 44-107 44-50 0-90-15-120-43s-48-68-52-119h320z"/></symbol><symbol id="l"><path transform="matrix(.001 0 0 .001 -.086 .131)" d="M86 760h207v-70H176V-61h117v-70H86v891z"/></symbol><symbol id="m"><path transform="matrix(.001 0 0 .001 -.054 .013)" d="M443 531v-85c-26 12-52 22-79 29-28 6-56 10-85 10-45 0-79-7-101-21s-33-34-33-61c0-21 8-37 24-49s48-24 96-34l31-7c64-14 109-34 136-58 26-25 40-60 40-104 0-51-20-91-60-120-40-30-96-44-166-44-30 0-60 3-92 8S89 8 54 20v93c33-18 66-31 98-39 32-9 64-13 96-13 42 0 75 7 98 21 22 14 34 35 34 62 0 24-9 43-25 56s-52 26-108 38l-31 7c-56 12-97 30-121 54-25 24-37 57-37 100 0 51 18 91 54 119s88 42 156 42c33 0 64-3 94-8 29-5 56-12 81-21z"/></symbol><symbol id="n"><path transform="matrix(.001 0 0 .001 -.097 .131)" d="M304 760v-891H97v70h117v751H97v70h207z"/></symbol><use xlink:href="#g" transform="matrix(10 0 0 -10 215.757 335.85)"/><use xlink:href="#h" transform="matrix(10 0 0 -10 222.53 335.85)"/><use xlink:href="#i" transform="matrix(10 0 0 -10 225.28 335.85)"/><use xlink:href="#j" transform="matrix(10 0 0 -10 234.66 335.98)"/><use xlink:href="#k" transform="matrix(10 0 0 -10 240.26 335.85)"/><use xlink:href="#l" transform="matrix(10 0 0 -10 244.3 337.16)"/><use xlink:href="#m" transform="matrix(10 0 0 -10 247.88 335.98)"/><use xlink:href="#n" transform="matrix(10 0 0 -10 253.52 337.16)"/><path stroke-width=".8" stroke-linejoin="round" fill="none" stroke="#000" d="M103.104 274.97h-3.5"/><symbol id="o"><path transform="translate(-.107) scale(.001)" d="M107 124h103V0H107v124z"/></symbol><use xlink:href="#b" transform="matrix(10 0 0 -10 81.298 278.767)"/><use xlink:href="#o" transform="matrix(10 0 0 -10 87.628 278.767)"/><use xlink:href="#a" transform="matrix(10 0 0 -10 90.398 278.897)"/><path stroke-width=".8" stroke-linejoin="round" fill="none" stroke="#000" d="M103.104 234.943h-3.5"/><use xlink:href="#b" transform="matrix(10 0 0 -10 81.298 238.74)"/><use xlink:href="#o" transform="matrix(10 0 0 -10 87.628 238.74)"/><use xlink:href="#f" transform="matrix(10 0 0 -10 90.508 238.87)"/><path stroke-width=".8" stroke-linejoin="round" fill="none" stroke="#000" d="M103.104 194.916h-3.5"/><use xlink:href="#c" transform="matrix(10 0 0 -10 80.928 198.713)"/><use xlink:href="#o" transform="matrix(10 0 0 -10 87.628 198.713)"/><use xlink:href="#a" transform="matrix(10 0 0 -10 90.398 198.843)"/><path stroke-width=".8" stroke-linejoin="round" fill="none" stroke="#000" d="M103.104 154.89h-3.5"/><use xlink:href="#c" transform="matrix(10 0 0 -10 80.928 158.687)"/><use xlink:href="#o" transform="matrix(10 0 0 -10 87.628 158.687)"/><use xlink:href="#f" transform="matrix(10 0 0 -10 90.508 158.817)"/><path stroke-width=".8" stroke-linejoin="round" fill="none" stroke="#000" d="M103.104 114.863h-3.5"/><use xlink:href="#d" transform="matrix(10 0 0 -10 80.958 118.79)"/><use xlink:href="#o" transform="matrix(10 0 0 -10 87.628 118.66)"/><use xlink:href="#a" transform="matrix(10 0 0 -10 90.398 118.79)"/><path stroke-width=".8" stroke-linejoin="round" fill="none" stroke="#000" d="M103.104 74.836h-3.5"/><use xlink:href="#d" transform="matrix(10 0 0 -10 80.958 78.763)"/><use xlink:href="#o" transform="matrix(10 0 0 -10 87.628 78.633)"/><use xlink:href="#f" transform="matrix(10 0 0 -10 90.508 78.763)"/><symbol id="p"><path transform="matrix(.001 0 0 .001 -.066 .013)" d="M535 705v-96c-38 18-73 31-106 40-34 8-66 13-96 13-54 0-96-11-125-31-29-21-43-51-43-89 0-32 9-57 29-73 19-17 56-30 110-40l60-12c73-14 127-39 162-74 35-36 53-83 53-142 0-71-24-124-71-160-48-36-117-54-208-54-35 0-72 4-111 11S110 16 69 32v102c40-23 79-40 117-51 38-12 76-17 114-17 56 0 99 11 130 33 30 22 46 53 46 95 0 36-11 64-33 84s-58 35-108 45l-60 12c-74 14-127 37-160 69-33 31-49 74-49 130 0 64 22 115 68 152 45 37 108 56 188 56 34 0 68-3 104-9 35-6 71-16 109-28z"/></symbol><symbol id="q"><path transform="matrix(.001 0 0 .001 -.091 .207)" d="M181 82v-289H91v754h90v-83c18 32 42 56 71 72s64 24 104 24c66 0 120-27 162-79 41-53 62-122 62-208s-21-156-62-208c-42-52-96-78-162-78-40 0-75 8-104 23s-53 39-71 72zm306 191c0 66-14 117-41 155-28 38-65 57-112 57-48 0-85-19-112-57-28-38-41-89-41-155s13-118 41-156c27-38 64-56 112-56 47 0 84 18 112 56 27 38 41 90 41 156z"/></symbol><symbol id="r"><path transform="matrix(.001 0 0 .001 -.055 .013)" d="M454 464v296h90V0h-90v82c-19-33-43-57-72-72s-63-23-103-23c-66 0-120 26-162 78S55 187 55 273s20 155 62 208c42 52 96 79 162 79 40 0 74-8 103-24s53-40 72-72zM148 273c0-66 13-118 40-156s64-56 112-56 85 18 113 56c27 38 41 90 41 156s-14 117-41 155c-28 38-65 57-113 57s-85-19-112-57-40-89-40-155z"/></symbol><symbol id="s"><path transform="matrix(.001 0 0 .001 0 .092)" d="M254 729h83L83-92H0l254 821z"/></symbol><use xlink:href="#p" transform="matrix(0 -10 -10 0 74.25 204.212)"/><use xlink:href="#q" transform="matrix(0 -10 -10 0 76.19 197.612)"/><use xlink:href="#j" transform="matrix(0 -10 -10 0 74.25 191.622)"/><use xlink:href="#j" transform="matrix(0 -10 -10 0 74.25 185.472)"/><use xlink:href="#r" transform="matrix(0 -10 -10 0 74.25 179.322)"/><use xlink:href="#k" transform="matrix(0 -10 -10 0 74.12 173.522)"/><use xlink:href="#l" transform="matrix(0 -10 -10 0 75.43 169.482)"/><use xlink:href="#i" transform="matrix(0 -10 -10 0 74.12 165.532)"/><use xlink:href="#s" transform="matrix(0 -10 -10 0 75.04 156.702)"/><use xlink:href="#m" transform="matrix(0 -10 -10 0 74.25 152.792)"/><use xlink:href="#n" transform="matrix(0 -10 -10 0 75.43 147.152)"/><clipPath id="t"><path transform="matrix(1 0 0 -1 0 345.6)" d="M103.104 38.016h266.112v266.112H103.104z"/></clipPath><g clip-path="url(#t)"><path stroke-width="2.5" stroke-linecap="square" stroke-linejoin="round" fill="none" stroke="teal" d="m115.2 295.488.198-9.562.567-27.225.676-26.616.265-9.712.33-9.107.236-8.131.69-15.96.307-5.48.222-4.872.95-12.974.175-1.124.297-4.236 2.457-21.752.477-3.077.463-2.588.945-3.985.969-2.802.18-.516 2.177-4.688.194-.274 1.115-1.52.288-.243.175-.213.231-.183.544-.426.363-.273 3.412-2.318.141.03.142-.152.397-.06.264-.064.567-.214.86-.306.416-.03.33-.184.294.124 2.66-.553.066-1.796.302 1.129.368.726.374.58.675.153.166.001.193-.03.194.153.775-.425.264-.092.199-.06.189.03.359-.151 4.167.002.18-.061.32.094.17.18.081.03.203-.091.265.06.203.122.283-.152h.114l.156.094.217-.003.496-.06.137.063.208-.094.213-.027.07.058.175-.092.671-.122 2.858-.093h.27l.387-.03.255.032.303.028.836.124.84-.092.11-.155.292.246.085-.124h.194l.581.09.298.035.316-.095.052-1.736.45 1.707.188.363.222.307.34.423.109-.059.07.182.298-.182.289-.058.113-.001.175-.122.453-.002.095-.177.104.119.189-.122.194.183.198-.061.066-.182.576.183h.11l.174-.06.198.06.175.183.411-.12.071.059.463-.182.59.058.086.125.099-.122h.146l.048.125.07-.064.204.182.406-.06.264-.183.463-.061.218-.122.425-.06h.203l.576-.244.123.121.142-.185.288.125.128-.061.057.124.094-.185.151.121.052-.121.274.243h.345l.038-.122.085.061.401-.122.067.06h.193l.203-.124.08.127.19-.064.34.122.222-.122h.203l1.885-.001.194-.062.515-.064.156.003.373-.062.17.001.302-.001.09-.125.085.067.303.057.354-.182.595.486h.36l.193-.182.368.243.393-.182.094.12.194.002h.099l.076-.122.184.061.203-.057.222-.003.066.182.17-.24.1.118.094-.122.213.183.174.304.383-.305.076.184.293.183.094-.244.09.12.283-.242.114.064.18-.124.183.06.369.062.491.059.095.066.123-.124.052.06.472-.06.1-.061.264.064.132-.005.071-.12.189.061.491.244.166-.06.472-.061.288-.062.227-.06.34-.12.19-.002.292.003.194.119.118-.122.07.122.138-.184.236.362.288.004.071-.123.26.123.024-.122.203.122.368-.124.104.124.265-.24.208.057h.302l.07-.121h.478l.194-.058.094-.064.1.183.08-.062.954.061.274.183.473-.18.76-.125.284-.058.189-.003h.41l.048-.121.212.12.274-.12.482.181.274-.06.08-.061.298.365.104.002.18.18.472-.243.676-.058.17-.064.586.062.184-.001.26-.06.567.303.212-.06.289-.003.099-.177.07.12.37-.184.226.06.156-.06.288-.064.208.003.26-.06.293-.062.193.001.085-.122.194.063.95-.002.193.18.237-.06.897-.062.364-.059.477.244 1.05-.061.07-.122.477.43.1-.187.198.122.373.487.194-.183.099-.121.189.18.165.125.1-.184.188.002.09-.001.388-.182.378-.061.118.183.075-.06.284-.184.278.305.468-.366.298.305.463-.182.1.06.188.004.085-.003.104.121.18-.118.103-.003.204.183.203.06.165-.058.194-.002h.099l.07-.122.426.122h.156l.572-.062.094-.12.104.123.076-.124.368.183.109-.183.085.124.175-.005.123-.12.269-.06.274-.061h.109l.278-.186.288.125.09-.122.123.063.061-.123.1.06.18-.121.113.06.085-.122.193.058.175-.057h.307l.09-.122.378.121.09-.122.08.12.198-.12.119-.304.061.06.118.064.458.727.185.004.118-.129.467.187h.204l.448-.063.1-.116.17.119.193-.058.303.24.373-.058.265-.125.104.06.486-.06.17-1.633.09-.27.113.279.137-.133.44-3.556.354-3.233.402-3.347.174-1.075.369-1.96.586-1.64.491-.694.265.467.562 2.03.283.883.605 3.157.723 4.41.194 1.072 4.143 28.232.137.218.335 1.43.095.278.34.487.062-1.462.047.578.236.536.354-.319.293-.003.26-.692.52-2.068.34-2.162.198-.908.874-4.816.43-2.931 1.418-6.957.86-1.887 1.313-2.04.392-.023.652-.588.288-.333.652-.266.695-.391.16-.09.487-.251.203.077.449-.121.194.097.392.097.557.013.095.118.075-.096.194.15.713-.15.052-.056.1.066.49-.395.171.048.189.006.09.03.09-.184.141.114.142-.147.477-.091.662-.128.103.086.289-.195.208-.193.24-.073.119.043.463-.29 1.89-.403.774-.317.27.073.359-.227h.103l.185-.14.193-.037.61.2.08-.094.076.094.217-.086.241.294.095.092.33-.09.16.04.114.047.166-.086.24-.094.506.034.208-.136.283.047.582-.141.26.202.184.172.113.133.17-.133.298-10.72.085-1.826.094.273.27-.68.193-5.029.411-4.392.544-5.918.302-2.823.916-6.372.657-2.65.652-1.618.208-.263.09-.272.113.023.553-1.078.184-.176.388-.643 1.124-2.58.59-1.123.473-1.227.661-1.068.445-.716.236-.116.245-.427.648-.196.203-.19.236.014.061-.073.133.093.236-.43.09-.023.321-.362.18-.05.477-.52.444-.407.486-.676.175-.13.104-.188.085.066.477-.6.118.01.265-.355.109.031.075-.167.08.15.11-.422.17.053.283-.262.127-.084.08.112.095-.442.085.08.572-.356.09-.334.198.22.194-.067.189-.11.416-.22.07-.387.204.22.453-.063.104-.22.09.053.189-.063.26.021.108.115.19-.111.094.014.09-.269.217.074.468-.063.269.272.298.052.103-.25.175.17.104-.234.194.46.08.094.397-.38.085.171.36.46.179.073.42-.335.406.24.27-.25.104.146.094-.261.071.115.227-.115.614.662.36-.15h.098l.203-.168h.1l.094-.255.217.036.308-.008.103-.108.076.168.151-.2.147.105.056-.456.052.265.11.202.089-.063.075-.017.062-.238.666 7.444.865 3.609.26 1.217.136.29.345 1.983.19 1.178.57 4.409 1.669 12.48 1.077 10.917.316 2.884.544 5.201.316 2.658.898 8.778 1.143 10.098 1.701 11.813.817 3.57.246 1.286.104.117.198.657.166.422.17.095.061.232.062-.189.085-.023.628-2.085.794-5.1.548-4.799 1.502-12.181.473-1.797.396-1.4.454-.971.189-.308 1.053-1.669.36-.394 1.237-1.019.08.05.2-.158.297-.24.16-.078.118.002.076.192.156-.069.236.215.08.01.1-.13.746.871.199.103.378.235.222.083.274.105.16-.003.199.078.08-.14.194.01.557-.273.033-.121.038-1.885.047.384.733.065.293-.405.099.015.463-.732.945-1.237.283-.28.77-.385.184.09.307.18.067.094.099-.07.217.078.265.004.123.173.056-.29.085.096.218.279.25.329.61-.141.335.123.288-.01.095-.008.302.007.175.024.302-.007.08.073.09-.126.203.152.407.083.07.137.086-.123.174.121.666.318.114-.157.373.27.19.124.301.19.265.084.095.155.26-.251.122.107.071-.275.09.08.293-.167.302-.076.284-.066.075.068.208-.086.364-.051.293-.012.09-.099.113.106.07-.099.298.142.18-.124.368.203.11-.146.075.06.203-.114 1.502-.294.199.28.274-.087.099-.014.1.192.098-.073.478.415.184-.028.165-.014h.109l.198.119.17-.06.288.049.293.101.459-.146.099.059.1-.119.146.063.103-.226.043.15.076-.074.283.045.298-.073h.09l.122.119.08-.192.076.056.303-.07.07.132.199-.073h.189l.85.107.647.723.199-.13.18-.062.188.076.402.44.076-.133.137.06.052-.175.297.175.274.324.132.237.142-.178.104-.045.473.443.189-.22.099.268.085-.062.184.178.118-.178.071.119.576-.178.293.073.369.014.222-.194.548.107.468.104.198-.003.095.136.15-.206.062.178.057-.042.146.042.057-.206.643 1.052.203-.209h.099l.07-.175.228.07.16-.191h.586l.449.488.302-.147.071-.073.279.028.77-.19.784.223.184-.133 2.14.004.591.503.118-.062.038.08.241-.018.265-.073.207-.074.355-.07.638-.033.472-.014.298.207.496-.148.099.119.057-.06.108-.044.459.266.614-.147.245-.074.284-.015.746-.162.232.18.335.145.581-.207.289.115.387-.07"/></g><clipPath id="u"><path transform="matrix(1 0 0 -1 0 345.6)" d="M103.104 38.016h266.112v266.112H103.104z"/></clipPath><g clip-path="url(#u)"><path stroke-width="2.5" stroke-dasharray="9.25,4" stroke-linejoin="round" fill="none" stroke="red" d="M115.2 114.863h145.352l.08-60.04h26.472l.165 60.04h69.851"/></g><path stroke-width=".8" stroke-linecap="square" stroke-miterlimit="10" fill="none" stroke="#000" d="M103.104 307.584V41.472M369.216 307.584V41.472M103.104 307.584h266.112M103.104 41.472h266.112"/><path d="M110.104 78.816h128.844c1.333 0 2-.667 2-2V48.472c0-1.333-.667-2-2-2H110.104c-1.333 0-2 .667-2 2v28.344c0 1.333.667 2 2 2z" fill="#fff" fill-opacity=".8"/><path stroke-miterlimit="10" fill="none" stroke="#d5d6d5" stroke-opacity=".8" d="M110.104 78.816h128.844c1.333 0 2-.667 2-2V48.472c0-1.333-.667-2-2-2H110.104c-1.333 0-2 .667-2 2v28.344c0 1.333.667 2 2 2z"/><path stroke-width="2.5" stroke-linecap="square" stroke-linejoin="round" fill="none" stroke="teal" d="M112.104 54.566h20"/><symbol id="v"><path transform="matrix(.001 0 0 .001 -.056 .013)" d="M644 673V569c-34 30-69 53-107 69-38 15-77 23-119 23-84 0-148-26-192-77s-66-124-66-220 22-170 66-221 108-76 192-76c42 0 81 7 119 23 38 15 73 38 107 69V56c-35-24-72-41-110-52s-79-17-122-17C302-13 215 20 151 87S56 246 56 364c0 117 31 209 95 277 64 67 151 101 261 101 44 0 85-6 123-17 38-12 75-29 109-52z"/></symbol><symbol id="w"><path transform="matrix(.001 0 0 .001 -.085 .013)" d="M85 216v331h90V219c0-52 10-90 30-116s50-39 91-39c48 0 87 15 115 46s42 73 42 127v310h90V0h-90v84c-22-34-48-58-76-74-29-15-62-23-100-23-63 0-111 19-143 58-33 38-49 95-49 171zm226 344z"/></symbol><symbol id="x"><path transform="translate(-.091) scale(.001)" d="M411 463c-10 6-21 10-33 13-12 2-25 4-39 4-51 0-90-17-117-50-28-33-41-80-41-142V0H91v547h90v-85c18 33 43 58 73 74s67 24 111 24c6 0 13-1 21-1 7-1 15-2 25-4v-92z"/></symbol><symbol id="y"><path transform="translate(-.091) scale(.001)" d="M549 330V0h-90v327c0 52-11 90-31 116s-50 39-90 39c-49 0-87-16-115-47s-42-73-42-126V0H91v547h90v-85c21 32 46 57 76 73 29 16 63 25 101 25 62 0 110-20 142-59s49-96 49-171z"/></symbol><symbol id="z"><path transform="translate(-.027) scale(.001)" d="M183 702V547h185v-70H183V180c0-45 6-74 18-86 12-13 37-19 75-19h92V0h-92c-70 0-118 13-144 39s-39 73-39 141v297H27v70h66v155h90z"/></symbol><symbol id="A"><path transform="matrix(.001 0 0 .001 -.086 .131)" d="M310 759c-44-76-76-150-97-223-22-73-32-147-32-222 0-76 10-150 32-223 21-74 53-147 97-222h-78C183-54 146 20 122 94S86 241 86 314c0 72 12 145 36 219s60 149 110 226h78z"/></symbol><symbol id="B"><path transform="matrix(.001 0 0 .001 -.056 .013)" d="M394 662c-72 0-129-27-171-80-42-54-63-126-63-218s21-165 63-218c42-54 99-80 171-80 71 0 128 26 170 80 42 53 63 126 63 218s-21 164-63 218c-42 53-99 80-170 80zm0 80c102 0 183-35 245-103 61-68 92-160 92-275 0-116-31-207-92-275C577 21 496-13 394-13 291-13 209 21 148 89c-62 68-92 159-92 275 0 115 30 207 92 275 61 68 143 103 246 103z"/></symbol><symbol id="C"><path transform="matrix(.001 0 0 .001 -.08 .131)" d="M80 759h78c48-77 85-152 109-226s37-147 37-219c0-73-13-146-37-220S206-54 158-131H80c43 75 75 148 97 222 21 73 32 147 32 223 0 75-11 149-32 222-22 73-54 147-97 223z"/></symbol><use xlink:href="#v" transform="matrix(10 0 0 -10 140.664 58.196)"/><use xlink:href="#w" transform="matrix(10 0 0 -10 147.934 58.196)"/><use xlink:href="#x" transform="matrix(10 0 0 -10 154.334 58.066)"/><use xlink:href="#x" transform="matrix(10 0 0 -10 158.272 58.066)"/><use xlink:href="#j" transform="matrix(10 0 0 -10 161.803 58.196)"/><use xlink:href="#y" transform="matrix(10 0 0 -10 168.313 58.066)"/><use xlink:href="#z" transform="matrix(10 0 0 -10 174.013 58.066)"/><use xlink:href="#k" transform="matrix(10 0 0 -10 177.663 58.066)"/><use xlink:href="#m" transform="matrix(10 0 0 -10 181.383 58.196)"/><use xlink:href="#q" transform="matrix(10 0 0 -10 186.963 60.136)"/><use xlink:href="#j" transform="matrix(10 0 0 -10 192.953 58.196)"/><use xlink:href="#j" transform="matrix(10 0 0 -10 199.103 58.196)"/><use xlink:href="#r" transform="matrix(10 0 0 -10 205.253 58.196)"/><use xlink:href="#k" transform="matrix(10 0 0 -10 211.053 58.066)"/><use xlink:href="#A" transform="matrix(10 0 0 -10 215.093 59.376)"/><use xlink:href="#B" transform="matrix(10 0 0 -10 218.693 58.196)"/><use xlink:href="#p" transform="matrix(10 0 0 -10 226.663 58.196)"/><use xlink:href="#C" transform="matrix(10 0 0 -10 233.153 59.376)"/><path stroke-width="2.5" stroke-dasharray="9.25,4" stroke-linejoin="round" fill="none" stroke="red" d="M112.104 69.238h20"/><symbol id="D"><path transform="translate(-.098) scale(.001)" d="M197 648V81h119c100 0 174 22 221 68 46 46 70 118 70 216s-24 169-70 215c-47 45-121 68-221 68H197zm-99 81h203c141 0 245-30 311-88 66-59 99-151 99-276 0-126-34-218-100-277S441 0 301 0H98v729z"/></symbol><use xlink:href="#D" transform="matrix(10 0 0 -10 141.084 72.738)"/><use xlink:href="#j" transform="matrix(10 0 0 -10 148.354 72.868)"/><use xlink:href="#m" transform="matrix(10 0 0 -10 154.494 72.868)"/><use xlink:href="#h" transform="matrix(10 0 0 -10 160.104 72.738)"/><use xlink:href="#x" transform="matrix(10 0 0 -10 162.854 72.738)"/><use xlink:href="#j" transform="matrix(10 0 0 -10 166.385 72.868)"/><use xlink:href="#r" transform="matrix(10 0 0 -10 172.535 72.868)"/><use xlink:href="#k" transform="matrix(10 0 0 -10 178.335 72.738)"/><use xlink:href="#m" transform="matrix(10 0 0 -10 182.055 72.868)"/><use xlink:href="#q" transform="matrix(10 0 0 -10 187.635 74.808)"/><use xlink:href="#j" transform="matrix(10 0 0 -10 193.625 72.868)"/><use xlink:href="#j" transform="matrix(10 0 0 -10 199.775 72.868)"/><use xlink:href="#r" transform="matrix(10 0 0 -10 205.925 72.868)"/><use xlink:href="#k" transform="matrix(10 0 0 -10 211.725 72.738)"/><use xlink:href="#A" transform="matrix(10 0 0 -10 215.765 74.048)"/><use xlink:href="#B" transform="matrix(10 0 0 -10 219.365 72.868)"/><use xlink:href="#p" transform="matrix(10 0 0 -10 227.335 72.868)"/><use xlink:href="#C" transform="matrix(10 0 0 -10 233.825 74.048)"/></svg>