<svg width="460.8" height="345.6" xmlns="http://www.w3.org/2000/svg" xmlns:xlink="http://www.w3.org/1999/xlink">

 <symbol id="a">
  <path id="svg_1" d="m0.252,0.677c-0.051,0 -0.089,-0.025 -0.115,-0.075s-0.038,-0.125 -0.038,-0.225s0.012,-0.175 0.038,-0.225s0.064,-0.075 0.115,-0.075s0.089,0.025 0.115,0.075c0.025,0.05 0.038,0.125 0.038,0.225s-0.013,0.175 -0.038,0.225c-0.026,0.05 -0.064,0.075 -0.115,0.075zm0,0.078c0.081,0 0.143,-0.033 0.187,-0.097c0.043,-0.065 0.065,-0.159 0.065,-0.281c0,-0.123 -0.022,-0.217 -0.065,-0.281c-0.044,-0.064 -0.106,-0.096 -0.188,-0.096s-0.144,0.032 -0.187,0.096s-0.064,0.158 -0.064,0.281c0,0.122 0.021,0.216 0.064,0.281c0.043,0.064 0.106,0.097 0.188,0.097z"/>
 </symbol>
 <symbol id="b">
  <path id="svg_2" d="m124,83l161,0l0,556l-175,-35l0,90l174,35l99,0l0,-646l161,0l0,-83l-420,0l0,83z" transform="translate(-.11) scale(.001)"/>
 </symbol>
 <symbol id="c">
  <path id="svg_3" d="m192,83l344,0l0,-83l-463,0l0,83c37,38 88,90 153,156c64,65 105,107 122,126c32,35 54,65 66,90c12,24 19,49 19,73c0,38 -14,70 -41,94s-62,37 -106,37c-31,0 -64,-6 -98,-16c-34,-11 -71,-27 -110,-49l0,100c40,16 77,28 111,36s66,12 95,12c75,0 135,-19 180,-57s68,-88 68,-151c0,-30 -6,-59 -17,-85c-11,-27 -31,-59 -61,-95c-8,-10 -34,-37 -78,-82s-105,-108 -184,-189z" transform="translate(-.073) scale(.001)"/>
 </symbol>
 <symbol id="d">
  <path id="svg_4" d="m0.33,0.406c0.047,-0.01 0.084,-0.031 0.11,-0.063s0.04,-0.072 0.04,-0.118c0,-0.072 -0.025,-0.128 -0.074,-0.167c-0.05,-0.039 -0.12,-0.058 -0.211,-0.058c-0.031,0 -0.063,0.003 -0.095,0.009c-0.032,0.005 -0.066,0.014 -0.1,0.026l0,0.095c0.027,-0.016 0.057,-0.028 0.09,-0.036c0.032,-0.008 0.066,-0.012 0.102,-0.012c0.062,0 0.109,0.012 0.141,0.036s0.049,0.06 0.049,0.107c0,0.042 -0.015,0.076 -0.045,0.1s-0.072,0.037 -0.126,0.037l-0.085,0l0,0.081l0.089,0c0.048,0 0.085,0.009 0.111,0.029c0.026,0.019 0.039,0.047 0.039,0.084s-0.014,0.066 -0.04,0.086c-0.027,0.02 -0.065,0.03 -0.114,0.03c-0.027,0 -0.056,-0.003 -0.087,-0.009s-0.065,-0.015 -0.102,-0.027l0,0.088c0.037,0.01 0.072,0.018 0.105,0.023c0.032,0.005 0.063,0.008 0.093,0.008c0.074,0 0.133,-0.017 0.177,-0.051s0.066,-0.08 0.066,-0.138c0,-0.04 -0.012,-0.074 -0.035,-0.102s-0.056,-0.048 -0.098,-0.058z"/>
 </symbol>
 <symbol id="e">
  <path id="svg_5" d="m378,643l-249,-389l249,0l0,389zm-26,86l124,0l0,-475l104,0l0,-82l-104,0l0,-172l-98,0l0,172l-329,0l0,95l303,462z" transform="translate(-.049) scale(.001)"/>
 </symbol>
 <symbol id="f">
  <path id="svg_6" d="m0.031,0.742l0.387,0l0,-0.083l-0.297,0l0,-0.179c0.014,0.005 0.029,0.009 0.043,0.011s0.029,0.004 0.043,0.004c0.081,0 0.145,-0.023 0.193,-0.067c0.048,-0.045 0.072,-0.105 0.072,-0.181c0,-0.079 -0.025,-0.14 -0.074,-0.183s-0.118,-0.064 -0.206,-0.064c-0.031,0 -0.062,0.003 -0.094,0.007c-0.032,0.005 -0.064,0.012 -0.098,0.023l0,0.099c0.029,-0.016 0.059,-0.028 0.091,-0.036c0.031,-0.008 0.064,-0.011 0.099,-0.011c0.056,0 0.101,0.014 0.134,0.044c0.032,0.03 0.049,0.07 0.049,0.121c0,0.05 -0.017,0.09 -0.049,0.12c-0.033,0.03 -0.078,0.045 -0.134,0.045c-0.026,0 -0.053,-0.003 -0.079,-0.009s-0.053,-0.015 -0.08,-0.027l0,0.366z"/>
 </symbol>
 <symbol id="g">
  <path id="svg_7" d="m-2,729l616,0l0,-83l-259,0l0,-646l-99,0l0,646l-258,0l0,83z" transform="translate(.002) scale(.001)"/>
 </symbol>
 <symbol id="h">
  <path id="svg_8" d="m94,547l90,0l0,-547l-90,0l0,547zm0,213l90,0l0,-114l-90,0l0,114z" transform="translate(-.094) scale(.001)"/>
 </symbol>
 <symbol id="i">
  <path id="svg_9" d="m520,442c22,40 49,69 80,89c31,19 68,29 111,29c56,0 100,-20 131,-60s47,-97 47,-170l0,-330l-90,0l0,327c0,52 -10,91 -28,117c-19,25 -47,38 -85,38c-47,0 -84,-16 -111,-47s-40,-73 -40,-126l0,-309l-90,0l0,327c0,52 -10,91 -28,117c-19,25 -48,38 -86,38c-46,0 -83,-16 -110,-47s-40,-73 -40,-126l0,-309l-90,0l0,547l90,0l0,-85c20,33 45,58 74,74c28,16 62,24 102,24s73,-10 101,-30s48,-50 62,-88z" transform="translate(-.091) scale(.001)"/>
 </symbol>
 <symbol id="j">
  <path id="svg_10" d="m0.507,0.309l0,-0.044l-0.413,0c0.004,-0.062 0.022,-0.11 0.056,-0.142c0.033,-0.032 0.079,-0.048 0.139,-0.048c0.034,0 0.068,0.004 0.1,0.012s0.065,0.021 0.097,0.039l0,-0.085c-0.032,-0.014 -0.065,-0.025 -0.099,-0.031s-0.069,-0.01 -0.103,-0.01c-0.088,0 -0.157,0.025 -0.208,0.075s-0.076,0.119 -0.076,0.206c0,0.089 0.024,0.16 0.072,0.213c0.048,0.052 0.114,0.079 0.196,0.079c0.074,0 0.132,-0.024 0.175,-0.071c0.042,-0.048 0.064,-0.112 0.064,-0.193zm-0.09,0.026c-0.001,0.049 -0.015,0.088 -0.041,0.118c-0.027,0.029 -0.063,0.044 -0.107,0.044c-0.05,0 -0.09,-0.015 -0.12,-0.043s-0.048,-0.068 -0.052,-0.119l0.32,0z"/>
 </symbol>
 <symbol id="l">
  <path id="svg_11" d="m0,0.891l0.207,0l0,-0.07l-0.117,0l0,-0.751l0.117,0l0,-0.07l-0.207,0l0,0.891z"/>
 </symbol>
 <symbol id="m">
  <path id="svg_12" d="m0.389,0.544l0,-0.085c-0.026,0.012 -0.052,0.022 -0.079,0.029c-0.028,0.006 -0.056,0.01 -0.085,0.01c-0.045,0 -0.079,-0.007 -0.101,-0.021s-0.033,-0.034 -0.033,-0.061c0,-0.021 0.008,-0.037 0.024,-0.049s0.048,-0.024 0.096,-0.034l0.031,-0.007c0.064,-0.014 0.109,-0.034 0.136,-0.058c0.026,-0.025 0.04,-0.06 0.04,-0.104c0,-0.051 -0.02,-0.091 -0.06,-0.12c-0.04,-0.03 -0.096,-0.044 -0.166,-0.044c-0.03,0 -0.06,0.003 -0.092,0.008s-0.065,0.013 -0.1,0.025l0,0.093c0.033,-0.018 0.066,-0.031 0.098,-0.039c0.032,-0.009 0.064,-0.013 0.096,-0.013c0.042,0 0.075,0.007 0.098,0.021c0.022,0.014 0.034,0.035 0.034,0.062c0,0.024 -0.009,0.043 -0.025,0.056s-0.052,0.026 -0.108,0.038l-0.031,0.007c-0.056,0.012 -0.097,0.03 -0.121,0.054c-0.025,0.024 -0.037,0.057 -0.037,0.1c0,0.051 0.018,0.091 0.054,0.119s0.088,0.042 0.156,0.042c0.033,0 0.064,-0.003 0.094,-0.008c0.029,-0.005 0.056,-0.012 0.081,-0.021z"/>
 </symbol>
 <symbol id="n">
  <path id="svg_13" d="m0.207,0.891l0,-0.891l-0.207,0l0,0.07l0.117,0l0,0.751l-0.117,0l0,0.07l0.207,0z"/>
 </symbol>
 <symbol id="o">
  <path id="svg_14" d="m82,729l469,0l0,-42l-265,-687l-103,0l249,646l-350,0l0,83z" transform="translate(-.082) scale(.001)"/>
 </symbol>
 <symbol id="p">
  <path id="svg_15" d="m0.25,0.359c-0.047,0 -0.084,-0.013 -0.111,-0.038s-0.04,-0.059 -0.04,-0.103s0.013,-0.079 0.04,-0.104s0.064,-0.037 0.111,-0.037c0.046,0 0.083,0.012 0.11,0.038c0.027,0.025 0.041,0.059 0.041,0.103s-0.014,0.078 -0.04,0.103c-0.027,0.025 -0.064,0.038 -0.111,0.038zm-0.099,0.042c-0.042,0.01 -0.075,0.03 -0.099,0.059s-0.035,0.064 -0.035,0.106c0,0.058 0.02,0.104 0.062,0.138c0.041,0.034 0.098,0.051 0.171,0.051c0.072,0 0.129,-0.017 0.171,-0.051c0.041,-0.034 0.062,-0.08 0.062,-0.138c0,-0.042 -0.012,-0.077 -0.036,-0.106s-0.056,-0.049 -0.098,-0.059c0.047,-0.011 0.084,-0.033 0.111,-0.065c0.026,-0.032 0.04,-0.072 0.04,-0.118c0,-0.071 -0.022,-0.125 -0.065,-0.162c-0.044,-0.038 -0.106,-0.056 -0.186,-0.056s-0.142,0.018 -0.185,0.056c-0.043,0.037 -0.064,0.091 -0.064,0.162c0,0.046 0.013,0.086 0.04,0.118c0.026,0.032 0.063,0.054 0.111,0.065zm-0.036,0.156c0,-0.038 0.011,-0.068 0.035,-0.089s0.057,-0.031 0.1,-0.031c0.042,0 0.075,0.01 0.099,0.031s0.036,0.051 0.036,0.089s-0.012,0.067 -0.036,0.088s-0.057,0.032 -0.099,0.032c-0.043,0 -0.076,-0.011 -0.1,-0.032s-0.035,-0.05 -0.035,-0.088z"/>
 </symbol>
 <symbol id="q">
  <path id="svg_16" d="m0.047,0.028l0,0.09c0.024,-0.012 0.049,-0.021 0.075,-0.027c0.025,-0.006 0.05,-0.009 0.075,-0.009c0.064,0 0.114,0.021 0.148,0.065s0.054,0.11 0.06,0.2c-0.02,-0.028 -0.044,-0.05 -0.072,-0.065c-0.029,-0.015 -0.061,-0.022 -0.096,-0.022c-0.074,0 -0.132,0.022 -0.174,0.066s-0.063,0.104 -0.063,0.181c0,0.074 0.022,0.134 0.066,0.18c0.044,0.045 0.103,0.068 0.177,0.068c0.084,0 0.149,-0.033 0.193,-0.097c0.044,-0.065 0.067,-0.159 0.067,-0.281c0,-0.116 -0.028,-0.207 -0.082,-0.275c-0.055,-0.068 -0.128,-0.102 -0.22,-0.102c-0.025,0 -0.05,0.003 -0.075,0.007c-0.026,0.004 -0.052,0.011 -0.079,0.021zm0.196,0.309c0.044,0 0.079,0.015 0.105,0.045s0.039,0.072 0.039,0.125c0,0.052 -0.013,0.094 -0.039,0.124s-0.061,0.046 -0.105,0.046s-0.079,-0.016 -0.105,-0.046s-0.039,-0.072 -0.039,-0.124c0,-0.053 0.013,-0.095 0.039,-0.125s0.061,-0.045 0.105,-0.045z"/>
 </symbol>
 <symbol id="r">
  <path id="svg_17" d="m0.338,0.675c-0.072,0 -0.129,-0.027 -0.171,-0.08c-0.042,-0.054 -0.063,-0.126 -0.063,-0.218s0.021,-0.165 0.063,-0.218c0.042,-0.054 0.099,-0.08 0.171,-0.08c0.071,0 0.128,0.026 0.17,0.08c0.042,0.053 0.063,0.126 0.063,0.218s-0.021,0.164 -0.063,0.218c-0.042,0.053 -0.099,0.08 -0.17,0.08zm0,0.08c0.102,0 0.183,-0.035 0.245,-0.103c0.061,-0.068 0.092,-0.16 0.092,-0.275c0,-0.116 -0.031,-0.207 -0.092,-0.275c-0.062,-0.068 -0.143,-0.102 -0.245,-0.102c-0.103,0 -0.185,0.034 -0.246,0.102c-0.062,0.068 -0.092,0.159 -0.092,0.275c0,0.115 0.03,0.207 0.092,0.275c0.061,0.068 0.143,0.103 0.246,0.103z"/>
 </symbol>
 <symbol id="s">
  <path id="svg_18" d="m411,463c-10,6 -21,10 -33,13c-12,2 -25,4 -39,4c-51,0 -90,-17 -117,-50c-28,-33 -41,-80 -41,-142l0,-288l-90,0l0,547l90,0l0,-85c18,33 43,58 73,74s67,24 111,24c6,0 13,-1 21,-1c7,-1 15,-2 25,-4l0,-92z" transform="translate(-.091) scale(.001)"/>
 </symbol>
 <symbol id="t">
  <path id="svg_19" d="m183,702l0,-155l185,0l0,-70l-185,0l0,-297c0,-45 6,-74 18,-86c12,-13 37,-19 75,-19l92,0l0,-75l-92,0c-70,0 -118,13 -144,39s-39,73 -39,141l0,297l-66,0l0,70l66,0l0,155l90,0z" transform="translate(-.027) scale(.001)"/>
 </symbol>
 <symbol id="u">
  <path id="svg_20" d="m549,330l0,-330l-90,0l0,327c0,52 -11,90 -31,116s-50,39 -90,39c-49,0 -87,-16 -115,-47s-42,-73 -42,-126l0,-309l-90,0l0,547l90,0l0,-85c21,32 46,57 76,73c29,16 63,25 101,25c62,0 110,-20 142,-59s49,-96 49,-171z" transform="translate(-.091) scale(.001)"/>
 </symbol>
 <symbol id="v">
  <path id="svg_21" d="m0.283,0.288c-0.073,0 -0.123,-0.009 -0.151,-0.025c-0.028,-0.017 -0.042,-0.045 -0.042,-0.085c0,-0.032 0.01,-0.058 0.031,-0.076c0.021,-0.019 0.05,-0.028 0.086,-0.028c0.05,0 0.09,0.017 0.12,0.053c0.03,0.035 0.045,0.082 0.045,0.141l0,0.02l-0.089,0zm0.179,0.037l0,-0.312l-0.09,0l0,0.083c-0.021,-0.034 -0.047,-0.058 -0.077,-0.073s-0.068,-0.023 -0.112,-0.023c-0.056,0 -0.101,0.015 -0.134,0.046s-0.049,0.073 -0.049,0.126c0,0.061 0.02,0.107 0.062,0.139c0.041,0.031 0.102,0.047 0.184,0.047l0.126,0l0,0.009c0,0.041 -0.014,0.073 -0.041,0.096c-0.027,0.022 -0.065,0.034 -0.114,0.034c-0.032,0 -0.062,-0.004 -0.092,-0.012s-0.058,-0.019 -0.085,-0.033l0,0.083c0.032,0.012 0.064,0.022 0.095,0.028s0.061,0.01 0.091,0.01c0.079,0 0.138,-0.021 0.177,-0.062s0.059,-0.103 0.059,-0.186z"/>
 </symbol>
 <symbol id="w">
  <path id="svg_22" d="m0.251,0.497c-0.048,0 -0.086,-0.019 -0.114,-0.057s-0.042,-0.089 -0.042,-0.154c0,-0.066 0.013,-0.117 0.041,-0.155s0.066,-0.056 0.115,-0.056c0.048,0 0.086,0.018 0.114,0.056s0.042,0.089 0.042,0.155c0,0.064 -0.014,0.116 -0.042,0.154s-0.066,0.057 -0.114,0.057zm0,0.076c0.078,0 0.139,-0.026 0.184,-0.076c0.044,-0.051 0.067,-0.121 0.067,-0.211s-0.023,-0.16 -0.067,-0.21c-0.045,-0.051 -0.106,-0.076 -0.184,-0.076c-0.079,0 -0.141,0.025 -0.185,0.076c-0.044,0.05 -0.066,0.12 -0.066,0.21s0.022,0.16 0.066,0.211c0.044,0.05 0.106,0.076 0.185,0.076z"/>
 </symbol>
 <symbol id="x">
  <path id="svg_23" d="m0.155,0.247c-0.026,0 -0.048,-0.009 -0.066,-0.027s-0.027,-0.04 -0.027,-0.066s0.009,-0.048 0.027,-0.066s0.04,-0.026 0.066,-0.026s0.048,0.008 0.066,0.026s0.027,0.04 0.027,0.066s-0.009,0.048 -0.027,0.066s-0.04,0.027 -0.066,0.027zm0,0.063c0.02,0 0.04,-0.004 0.06,-0.012c0.019,-0.008 0.036,-0.02 0.05,-0.034c0.014,-0.015 0.025,-0.032 0.033,-0.05c0.008,-0.019 0.012,-0.039 0.012,-0.06c0,-0.044 -0.016,-0.08 -0.046,-0.11s-0.067,-0.044 -0.11,-0.044c-0.044,0 -0.081,0.014 -0.11,0.044c-0.03,0.029 -0.044,0.066 -0.044,0.11c0,0.043 0.015,0.08 0.045,0.11s0.066,0.046 0.11,0.046z"/>
 </symbol>
 <clipPath id="y">
  <path id="svg_24" d="m103.104,307.58401l266.112,0l0,-266.112l-266.112,0l0,266.112z"/>
 </clipPath>
 <clipPath id="z">
  <path id="svg_25" d="m103.104,307.58401l266.112,0l0,-266.112l-266.112,0l0,266.112z"/>
 </clipPath>
 <symbol id="A">
  <path id="svg_26" d="m0.588,0.686l0,-0.104c-0.034,0.03 -0.069,0.053 -0.107,0.069c-0.038,0.015 -0.077,0.023 -0.119,0.023c-0.084,0 -0.148,-0.026 -0.192,-0.077s-0.066,-0.124 -0.066,-0.22s0.022,-0.17 0.066,-0.221s0.108,-0.076 0.192,-0.076c0.042,0 0.081,0.007 0.119,0.023c0.038,0.015 0.073,0.038 0.107,0.069l0,-0.103c-0.035,-0.024 -0.072,-0.041 -0.11,-0.052s-0.079,-0.017 -0.122,-0.017c-0.11,0 -0.197,0.033 -0.261,0.1s-0.095,0.159 -0.095,0.277c0,0.117 0.031,0.209 0.095,0.277c0.064,0.067 0.151,0.101 0.261,0.101c0.044,0 0.085,-0.006 0.123,-0.017c0.038,-0.012 0.075,-0.029 0.109,-0.052z"/>
 </symbol>
 <symbol id="B">
  <path id="svg_27" d="m0,0.229l0,0.331l0.09,0l0,-0.328c0,-0.052 0.01,-0.09 0.03,-0.116s0.05,-0.039 0.091,-0.039c0.048,0 0.087,0.015 0.115,0.046s0.042,0.073 0.042,0.127l0,0.31l0.09,0l0,-0.547l-0.09,0l0,0.084c-0.022,-0.034 -0.048,-0.058 -0.076,-0.074c-0.029,-0.015 -0.062,-0.023 -0.1,-0.023c-0.063,0 -0.111,0.019 -0.143,0.058c-0.033,0.038 -0.049,0.095 -0.049,0.171zm0.226,0.344z"/>
 </symbol>
 <symbol id="C">
  <path id="svg_28" d="m0.224,0.89c-0.044,-0.076 -0.076,-0.15 -0.097,-0.223c-0.022,-0.073 -0.032,-0.147 -0.032,-0.222c0,-0.076 0.01,-0.15 0.032,-0.223c0.021,-0.074 0.053,-0.147 0.097,-0.222l-0.078,0c-0.049,0.077 -0.086,0.151 -0.11,0.225s-0.036,0.147 -0.036,0.22c0,0.072 0.012,0.145 0.036,0.219s0.06,0.149 0.11,0.226l0.078,0z"/>
 </symbol>
 <symbol id="D">
  <path id="svg_29" d="m0.469,0.718l0,-0.096c-0.038,0.018 -0.073,0.031 -0.106,0.04c-0.034,0.008 -0.066,0.013 -0.096,0.013c-0.054,0 -0.096,-0.011 -0.125,-0.031c-0.029,-0.021 -0.043,-0.051 -0.043,-0.089c0,-0.032 0.009,-0.057 0.029,-0.073c0.019,-0.017 0.056,-0.03 0.11,-0.04l0.06,-0.012c0.073,-0.014 0.127,-0.039 0.162,-0.074c0.035,-0.036 0.053,-0.083 0.053,-0.142c0,-0.071 -0.024,-0.124 -0.071,-0.16c-0.048,-0.036 -0.117,-0.054 -0.208,-0.054c-0.035,0 -0.072,0.004 -0.111,0.011s-0.079,0.018 -0.12,0.034l0,0.102c0.04,-0.023 0.079,-0.04 0.117,-0.051c0.038,-0.012 0.076,-0.017 0.114,-0.017c0.056,0 0.099,0.011 0.13,0.033c0.03,0.022 0.046,0.053 0.046,0.095c0,0.036 -0.011,0.064 -0.033,0.084s-0.058,0.035 -0.108,0.045l-0.06,0.012c-0.074,0.014 -0.127,0.037 -0.16,0.069c-0.033,0.031 -0.049,0.074 -0.049,0.13c0,0.064 0.022,0.115 0.068,0.152c0.045,0.037 0.108,0.056 0.188,0.056c0.034,0 0.068,-0.003 0.104,-0.009c0.035,-0.006 0.071,-0.016 0.109,-0.028z"/>
 </symbol>
 <symbol id="E">
  <path id="svg_30" d="m0,0.89l0.078,0c0.048,-0.077 0.085,-0.152 0.109,-0.226s0.037,-0.147 0.037,-0.219c0,-0.073 -0.013,-0.146 -0.037,-0.22s-0.061,-0.148 -0.109,-0.225l-0.078,0c0.043,0.075 0.075,0.148 0.097,0.222c0.021,0.073 0.032,0.147 0.032,0.223c0,0.075 -0.011,0.149 -0.032,0.222c-0.022,0.073 -0.054,0.147 -0.097,0.223z"/>
 </symbol>
 <symbol id="F">
  <path id="svg_31" d="m197,648l0,-567l119,0c100,0 174,22 221,68c46,46 70,118 70,216s-24,169 -70,215c-47,45 -121,68 -221,68l-119,0zm-99,81l203,0c141,0 245,-30 311,-88c66,-59 99,-151 99,-276c0,-126 -34,-218 -100,-277s-170,-88 -310,-88l-203,0l0,729z" transform="translate(-.098) scale(.001)"/>
 </symbol>
 <symbol id="G">
  <path id="svg_32" d="m0.399,0.477l0,0.296l0.09,0l0,-0.76l-0.09,0l0,0.082c-0.019,-0.033 -0.043,-0.057 -0.072,-0.072s-0.063,-0.023 -0.103,-0.023c-0.066,0 -0.12,0.026 -0.162,0.078s-0.062,0.122 -0.062,0.208s0.02,0.155 0.062,0.208c0.042,0.052 0.096,0.079 0.162,0.079c0.04,0 0.074,-0.008 0.103,-0.024s0.053,-0.04 0.072,-0.072zm-0.306,-0.191c0,-0.066 0.013,-0.118 0.04,-0.156s0.064,-0.056 0.112,-0.056s0.085,0.018 0.113,0.056c0.027,0.038 0.041,0.09 0.041,0.156s-0.014,0.117 -0.041,0.155c-0.028,0.038 -0.065,0.057 -0.113,0.057s-0.085,-0.019 -0.112,-0.057s-0.04,-0.089 -0.04,-0.155z"/>
 </symbol>
 <g>
  <title>Layer 1</title>
  <path id="svg_33" fill="#fff" d="m0,345.88169l460.8,0l0,-345.6l-460.8,0l0,345.6z"/>
  <path id="svg_34" fill="#fff" d="m103.104,307.584l266.112,0l0,-266.112l-266.112,0l0,266.112z"/>
  <path id="svg_35" d="m113.726,307.584l0,3.5" stroke="#000" fill="none" stroke-linejoin="round" stroke-width="0.8"/>
  <use id="svg_36" transform="matrix(10 0 0 -10 111.206 322.308)" xlink:href="#a"/>
  <path id="svg_37" d="m159.939,307.584l0,3.5" stroke="#000" fill="none" stroke-linejoin="round" stroke-width="0.8"/>
  <use id="svg_38" transform="matrix(10 0 0 -10 154.68 322.178)" xlink:href="#b"/>
  <use id="svg_39" transform="matrix(10 0 0 -10 160.6 322.308)" xlink:href="#a"/>
  <path id="svg_40" d="m206.152,307.584l0,3.5" stroke="#000" fill="none" stroke-linejoin="round" stroke-width="0.8"/>
  <use id="svg_41" transform="matrix(10 0 0 -10 200.522 322.178)" xlink:href="#c"/>
  <use id="svg_42" transform="matrix(10 0 0 -10 206.812 322.308)" xlink:href="#a"/>
  <path id="svg_43" d="m252.365,307.584l0,3.5" stroke="#000" fill="none" stroke-linejoin="round" stroke-width="0.8"/>
  <use id="svg_44" transform="matrix(10 0 0 -10 246.765 322.308)" xlink:href="#d"/>
  <use id="svg_45" transform="matrix(10 0 0 -10 253.025 322.308)" xlink:href="#a"/>
  <path id="svg_46" d="m298.577,307.584l0,3.5" stroke="#000" fill="none" stroke-linejoin="round" stroke-width="0.8"/>
  <use id="svg_47" transform="matrix(10 0 0 -10 292.708 322.178)" xlink:href="#e"/>
  <use id="svg_48" transform="matrix(10 0 0 -10 299.238 322.308)" xlink:href="#a"/>
  <path id="svg_49" d="m344.79,307.584l0,3.5" stroke="#000" fill="none" stroke-linejoin="round" stroke-width="0.8"/>
  <use id="svg_50" transform="matrix(10 0 0 -10 339.201 322.308)" xlink:href="#f"/>
  <use id="svg_51" transform="matrix(10 0 0 -10 345.451 322.308)" xlink:href="#a"/>
  <use id="svg_52" transform="matrix(10 0 0 -10 215.757 335.85)" xlink:href="#g"/>
  <use id="svg_53" transform="matrix(10 0 0 -10 222.53 335.85)" xlink:href="#h"/>
  <use id="svg_54" transform="matrix(10 0 0 -10 225.28 335.85)" xlink:href="#i"/>
  <use id="svg_55" transform="matrix(10 0 0 -10 234.66 335.98)" xlink:href="#j"/>
  <use id="svg_56" transform="matrix(10 0 0 -10 240.26 335.85)" xlink:href="#k"/>
  <use id="svg_57" transform="matrix(10 0 0 -10 244.3 337.16)" xlink:href="#l"/>
  <use id="svg_58" transform="matrix(10 0 0 -10 247.88 335.98)" xlink:href="#m"/>
  <use id="svg_59" transform="matrix(10 0 0 -10 253.52 337.16)" xlink:href="#n"/>
  <path id="svg_60" d="m103.104,296.223l-3.5,0" stroke="#000" fill="none" stroke-linejoin="round" stroke-width="0.8"/>
  <use id="svg_61" transform="matrix(10 0 0 -10 84.205 300.02)" xlink:href="#o"/>
  <use id="svg_62" transform="matrix(10 0 0 -10 90.405 300.15)" xlink:href="#a"/>
  <path id="svg_63" d="m103.104,256.933l-3.5,0" stroke="#000" fill="none" stroke-linejoin="round" stroke-width="0.8"/>
  <use id="svg_64" transform="matrix(10 0 0 -10 84.065 260.86)" xlink:href="#p"/>
  <use id="svg_65" transform="matrix(10 0 0 -10 90.405 260.86)" xlink:href="#a"/>
  <path id="svg_66" d="m103.104,217.643l-3.5,0" stroke="#000" fill="none" stroke-linejoin="round" stroke-width="0.8"/>
  <use id="svg_67" transform="matrix(10 0 0 -10 84.015 221.57)" xlink:href="#q"/>
  <use id="svg_68" transform="matrix(10 0 0 -10 90.405 221.57)" xlink:href="#a"/>
  <path id="svg_69" d="m103.104,178.353l-3.5,0" stroke="#000" fill="none" stroke-linejoin="round" stroke-width="0.8"/>
  <use id="svg_70" transform="matrix(10 0 0 -10 78.126 182.15)" xlink:href="#b"/>
  <use id="svg_71" transform="matrix(10 0 0 -10 84.046 182.28)" xlink:href="#a"/>
  <use id="svg_72" transform="matrix(10 0 0 -10 90.406 182.28)" xlink:href="#a"/>
  <path id="svg_73" d="m103.104,139.063l-3.5,0" stroke="#000" fill="none" stroke-linejoin="round" stroke-width="0.8"/>
  <use id="svg_74" transform="matrix(10 0 0 -10 78.126 142.86)" xlink:href="#b"/>
  <use id="svg_75" transform="matrix(10 0 0 -10 84.486 142.86)" xlink:href="#b"/>
  <use id="svg_76" transform="matrix(10 0 0 -10 90.406 142.99)" xlink:href="#a"/>
  <path id="svg_77" d="m103.104,99.773l-3.5,0" stroke="#000" fill="none" stroke-linejoin="round" stroke-width="0.8"/>
  <use id="svg_78" transform="matrix(10 0 0 -10 78.126 103.57)" xlink:href="#b"/>
  <use id="svg_79" transform="matrix(10 0 0 -10 84.116 103.57)" xlink:href="#c"/>
  <use id="svg_80" transform="matrix(10 0 0 -10 90.406 103.7)" xlink:href="#a"/>
  <path id="svg_81" d="m103.104,60.483l-3.5,0" stroke="#000" fill="none" stroke-linejoin="round" stroke-width="0.8"/>
  <use id="svg_82" transform="matrix(10 0 0 -10 78.126 64.28)" xlink:href="#b"/>
  <use id="svg_83" transform="matrix(10 0 0 -10 84.146 64.41)" xlink:href="#d"/>
  <use id="svg_84" transform="matrix(10 0 0 -10 90.406 64.41)" xlink:href="#a"/>
  <use x="0.47887" y="0" id="svg_85" transform="matrix(0 -10 -10 0 71.078 212.171)" xlink:href="#r"/>
  <use x="0.47887" y="0" id="svg_86" transform="matrix(0 -10 -10 0 70.948 203.951)" xlink:href="#s"/>
  <use x="0.47887" y="0" id="svg_87" transform="matrix(0 -10 -10 0 70.948 199.811)" xlink:href="#h"/>
  <use id="svg_89" transform="matrix(0 -10 -10 0 71.078 193.501)" xlink:href="#j"/>
  <use id="svg_90" transform="matrix(0 -10 -10 0 70.948 186.991)" xlink:href="#u"/>
  <use id="svg_91" transform="matrix(0 -10 -10 0 70.948 181.291)" xlink:href="#t"/>
  <use id="svg_92" transform="matrix(0 -10 -10 0 71.078 177.041)" xlink:href="#v"/>
  <use id="svg_93" transform="matrix(0 -10 -10 0 70.948 171.241)" xlink:href="#t"/>
  <use id="svg_94" transform="matrix(0 -10 -10 0 70.948 166.651)" xlink:href="#h"/>
  <use id="svg_95" transform="matrix(0 -10 -10 0 71.078 164.261)" xlink:href="#w"/>
  <use id="svg_96" transform="matrix(0 -10 -10 0 70.948 157.781)" xlink:href="#u"/>
  <use id="svg_97" transform="matrix(0 -10 -10 0 70.948 152.351)" xlink:href="#k"/>
  <use id="svg_98" transform="matrix(0 -10 -10 0 72.258 148.311)" xlink:href="#l"/>
  <use id="svg_99" transform="matrix(0 -10 -10 0 66.628 144.321)" xlink:href="#x"/>
  <use id="svg_100" transform="matrix(0 -10 -10 0 72.258 139.301)" xlink:href="#n"/>
  <g id="svg_101" clip-path="url(#y)">
   <path id="svg_102" d="m115.2,217.639l0.25,0l0.069,0.28l0.19,-0.28l0.096,0.459l0.107,-0.026l0.069,0.185l0.092,-0.226l0.102,0.357l0.088,-0.21l0.088,0.325l0.101,-0.532l0.194,0.29l0.074,-0.32l0.097,0.138l0.093,-0.298l0.134,0.275l0.041,-0.146l0.18,-0.272l0.12,0l0.07,-0.25l0.194,0.009l0.102,-0.233l0.102,0.124l0.258,-0.21l0.088,0.118l0.19,-0.206l0.217,-0.092l0.25,0.02l0.18,-0.19l0.37,-0.075l0.49,-0.354l0.161,0.014l0.088,-0.181l0.383,-0.063l0.18,-0.169l0.19,-0.075l0.712,-0.727l0.106,0.011l0.088,-0.164l0.236,-0.068l0.24,-0.229l0.097,0.096l0.379,-0.134l0.194,-0.067l0.07,-0.076l0.069,0.174l0.11,-0.075l0.088,0.09l0.097,-0.16l0.273,0.1l0.083,-0.075l0.19,0.256l0.138,-0.077l0.416,0.264l0.093,-0.078l0.198,0.169l0.107,0.003l0.078,0.164l0.093,-0.16l0.087,0.326l0.079,-0.24l0.092,0.244l0.25,-0.076l0.139,0.165l0.277,0.006l0.092,0.16l0.097,-0.078l0.12,0.161l0.084,-0.078l0.06,0.081l0.097,0.081l0.097,-0.077l0.305,0.161l0.083,-0.077l0.074,0.159l0.079,-0.157l0.101,0.238l0.097,-0.156l0.097,0.158l0.07,-0.078l0.11,0.159l0.356,0.003l0.19,0.159l0.097,-0.078l0.217,0.236l0.254,0.002l0.171,0.235l0.287,0.08l0.175,0.155l0.222,0.157l0.056,0l0.101,0.156l0.19,0l0.17,0.156l0.19,0.155l0.102,0l0.185,0.156l0.25,0.233l0.096,-0.078l0.3,0.31l0.26,0l0.138,0.232l0.051,-0.155l0.203,0.154l0.717,0.308l0.115,0.31l0.065,-0.078l0.226,0l0.157,0.23l0.171,0l0.569,0.307l0.208,0.077l0.351,0.23l0.088,-0.077l0.448,0.232l0.097,-0.078l0.088,0.154l0.471,0.077l0.079,0.076l0.102,-0.154l0.097,0.231l0.268,-0.078l0.097,0.154l0.379,-0.154l0.166,0.23l0.092,-0.077l0.125,0.154l0.079,-0.078l0.19,0.077l0.184,-0.077l0.097,0.23l0.065,-0.076l0.554,-0.001l0.116,0.153l0.088,-0.077l0.083,0.154l0.12,-0.154l0.065,0.153l0.374,-0.153l0.097,0.154l0.093,-0.077l0.092,0.076l0.194,-0.076l0.55,0.156l0.171,0.014l0.55,0.007l0.097,0.156l0.19,-0.23l0.272,-0.08l0.458,-0.235l0.198,-0.078l0.074,0.077l0.111,-0.31l0.185,0.154l0.18,-0.156l0.365,-0.08l0.088,-0.078l0.102,0.077l0.393,-0.234l0.064,0.154l0.107,-0.231l0.097,0.154l0.069,-0.078l0.37,0l0.208,-0.155l0.166,0.077l0.18,-0.077l0.093,0.078l0.185,-0.076l0.101,0.076l0.093,-0.076l0.101,0.077l0.116,-0.231l0.07,0.077l0.087,0.077l0.356,-0.154l0.471,-0.077l0.093,-0.077l0.097,0.077l0.097,-0.078l0.083,0.078l0.083,-0.078l0.102,0.078l0.097,-0.077l0.17,0l1.216,0.077l0.093,0.077l0.087,-0.155l0.093,0.154l0.175,-0.154l0.111,0.155l0.268,-0.232l0.291,0.076l1.48,0l0.092,0.154l0.074,-0.154l0.198,0.078l0.171,0l0.093,0.155l1.59,0.077l0.073,0.077l0.185,-0.078l0.236,0l0.055,0.153l0.088,-0.154l0.19,0.077l0.36,0.076l0.088,0.077l0.148,-0.153l0.05,0.076l0.37,0.078l0.176,0.077l0.277,-0.153l0.18,0.154l1.105,0.076l0.037,0.154l0.06,-0.153l0.564,0l0.092,0.154l0.083,-0.154l0.375,0.153l0.175,-0.077l0.486,0.078l0.18,0.08l2.292,0.001l0.092,-0.077l0.758,0l0.097,0.155l0.093,-0.153l0.083,0.156l0.314,-0.156l2.08,-0.074l0.138,-0.078l0.042,0.155l0.291,-0.078l0.273,-0.002l0.092,-0.154l0.185,0.077l0.083,-0.076l0.342,0.075l7.15,-0.007l0.096,0.166l0.093,-0.067l0.328,0.153l0.153,-0.073l0.439,0.002l0.272,-0.233l0.102,0.077l0.499,-0.314l0.074,0.078l0.074,-0.079l0.097,0l0.097,-0.156l0.286,0.076l0.352,-0.157l0.282,0.077l0.258,-0.078l2.075,-0.08l0.074,-0.077l0.273,0.154l0.199,-0.077l2.652,-0.086l0.097,0.24l0.084,-0.07l0.203,0.231l0.106,-0.157l0.06,0.08l0.693,0.005l0.148,-0.157l0.268,0l0.199,-0.156l0.462,-0.08l0.083,-0.078l0.273,0.077l0.11,-0.079l0.186,0.077l0.148,-0.077l0.046,0.153l0.074,-0.155l0.296,0.156l1.104,-0.004l0.088,0.156l0.088,-0.077l0.097,0.078l0.175,-0.079l0.088,0.078l0.111,-0.077l0.088,0.077l0.092,-0.077l0.083,0.077l0.093,-0.155l0.194,0.154l0.083,-0.154l0.111,0.154l0.088,-0.076l0.083,0.154l0.176,-0.077l0.734,0.077l0.195,0l1.109,0.077l0.092,0.154l0.199,-0.155l0.175,0.077l0.176,-0.078l0.185,0.077l0.933,-0.002l0.088,0.155l0.093,-0.153l0.124,0.153l0.06,-0.155l0.19,0.232l0.083,-0.154l0.374,0.077l0.398,-0.001l0.102,0.155l0.078,-0.078l0.564,0.078l0.097,0.076l0.07,-0.154l0.281,0.155l0.097,-0.077l0.171,0.233l0.116,-0.154l0.064,0.078l1.747,0.077l0.102,0.08l0.194,-0.079l0.083,0.077l0.093,-0.079l0.092,0.078l0.18,-0.077l1.119,0.073l0.19,0.081l0.267,-0.072l0.157,0.08l0.046,-0.156l0.074,0.079l0.093,0.001l0.102,-0.154l0.101,0.077l0.18,-0.156l0.079,0.077l0.462,-0.233l0.564,0l0.102,-0.155l0.064,0.076l0.763,-0.08l0.25,-0.08l0.115,-0.076l0.102,0.077l0.166,-0.076l0.282,0.076l0.277,0l0.106,-0.154l0.278,0.154l0.087,-0.155l0.07,0.078l0.277,-0.077l0.102,-0.077l0.19,0.078l2.213,0.077l0.078,0.078l0.194,-0.156l0.195,0.077l0.184,-0.077l0.084,0.154l0.087,-0.154l0.282,0.076l0.74,0.08l0.101,0.077l0.393,-0.155l0.056,0.155l0.097,-0.156l0.194,0.078l0.638,0l0.124,0.154l0.153,-0.155l0.18,0.155l0.102,-0.079l0.185,0.077l0.568,0.077l0.065,0.077l0.101,-0.154l0.278,0.155l0.087,-0.078l0.097,0.155l0.093,-0.077l0.092,0.076l0.116,-0.153l0.263,0.154l0.73,0.078l0.084,0.077l0.092,-0.078l0.559,0l0.093,0.155l0.101,-0.078l0.093,0.078l0.088,-0.078l0.189,0l0.268,0.077l0.282,0.154l0.125,-0.153l0.166,0.08l2.417,0.077l0.088,0.078l0.074,-0.156l0.198,0.077l1.105,-0.08l0.07,-0.076l0.138,0.155l0.074,-0.078l0.074,-0.077l0.282,0.077l1.012,-0.078l0.092,-0.078l0.291,0.155l0.18,-0.155l0.111,0.154l0.07,-0.154l0.125,0.155l0.055,-0.077l0.092,0.078l0.097,-0.078l0.093,0.078l0.088,-0.078l0.092,0.077l0.291,-0.077l0.088,0.077l0.106,-0.077l0.07,0.154l0.194,-0.155l0.097,0.079l0.097,-0.155l0.074,0.155l0.254,-0.155l0.028,0.058l0.124,-0.07l0.06,0.157l0.102,-0.073l0.19,0.158l0.628,0.012l0.088,-0.155l0.102,0.078l0.097,-0.155l0.134,0.078l0.041,-0.078l0.291,-0.155l0.093,0.079l0.286,-0.232l0.065,0.076l0.287,-0.233l0.101,0.078l0.388,4.804l0.255,1.068l0.115,0.064l0.749,-4.297l0.6,-6.225l0.222,-2.024l0.255,-3.138l1.215,-13.331l0.185,-1.936l0.448,-4.899l0.587,-6.157l1.654,-22.305l0.426,-7.865l0.43,-6.37l1.899,-34.354l2.005,-27.89l1.142,-13.38l1.867,-13.11l0.568,-2.245l1.096,-2.216l0.346,-0.38l0.305,-0.07l0.083,-0.137l0.079,0.136l0.074,-0.068l0.536,0.257l0.199,0.224l0.203,0.428l0.402,0.634l0.263,0.598l0.476,0.954l2.311,5.516l0.351,0.432l0.333,0.517l0.564,1.178l0.333,0.509l0.674,1.276l0.666,2.257l0.097,0.142l0.365,1.029l0.744,1.596l0.078,0.055l0.093,0.287l0.138,0.056l0.24,0.518l1.1,1.4l0.31,0.143l0.056,0.263l0.198,0.056l0.2,0.119l0.073,0.17l0.116,-0.057l0.6,0.464l0.097,-0.057l0.158,0.258l0.508,0.201l0.199,0.175l0.73,0.32l0.194,0.176l1.557,0.556l0.153,0l0.05,0.145l0.088,-0.057l0.079,0l0.18,0.088l0.375,0.084l0.097,0.167l0.092,-0.171l0.273,0.179l0.194,0.027l4.182,-0.09l0.079,-0.027l0.073,0.119l0.18,-0.057l0.652,-0.03l0.093,-0.088l0.101,0.14l0.19,-0.117l0.444,-0.027l0.097,-0.118l0.101,0.175l0.074,-0.06l0.333,-0.088l0.046,0.087l0.194,-0.144l0.3,0l0.088,-0.088l0.065,0.145l0.199,-0.084l0.273,0.115l0.189,-0.118l0.176,-3.342l0.272,-1.813l0.324,-0.06l0.166,0.612l0.365,2.128l1.41,13.541l0.24,3.022l0.351,4.055l0.48,5.55l0.925,11.47l0.213,1.21l0.332,5.915l0.282,3.868l1.706,29.505l0.221,5.784l0.85,18.556l1.105,26.332l2.865,67.33l0.92,14.648l0.513,5.373l0.356,3.285l0.236,1.798l0.55,0.284l0.092,-0.136l0.388,-1.194l0.199,-0.555l0.545,-2.162l0.176,-0.475l0.457,-1.165l0.213,-0.29l0.166,-0.343l1.017,-2.909l0.818,-4.235l0.411,-2.653l0.231,-2.37l0.582,-4.685l0.36,-3.485l0.269,-2.597l0.471,-4.417l0.37,-3.627l0.444,-4.23l0.42,-3.26l0.291,-2.461l0.68,-5.123l0.208,-1.013l0.61,-2.881l0.762,-3.204l0.693,-1.482l0.056,-0.072l0.185,-0.39l0.725,-1.017l0.093,0.004l0.115,-0.232l0.06,0.072l0.111,-0.004l0.259,-0.152l0.573,0.309l0.268,0.461l0.116,0.084l2.37,5.917l0.107,0.082l0.452,0.93l0.097,0.071l0.55,1.02l0.296,0.298l1.225,2.314l0.236,0.684l0.198,0.463l0.259,0.69l0.11,0.07l0.92,2l1.11,1.683l0.092,0.067l0.097,0.227l0.097,-0.084l0.18,0.295l0.453,0.37l0.185,0.21l0.139,-0.144l0.245,0.395l0.083,-0.084l0.222,0.226l0.097,-0.092l0.05,0.16l0.14,-0.085l0.147,0.227l0.374,0.05l0.167,0.067l0.194,0.066l0.097,0.067l0.088,-0.142l0.092,0.234l0.268,-0.075l0.199,0.243l0.115,-0.16l0.051,0.06l0.194,0.158l0.19,0l0.578,0.003l0.092,0.236l0.065,-0.041l0.175,0.05l0.282,0.058l0.384,0.163l0.097,-0.143l0.07,0.085l0.198,-0.135l0.263,-0.017l0.185,-0.152l0.116,-0.084l0.203,0.067l0.152,-0.169l0.393,-0.026l0.153,-0.177l2.135,-0.361l0.166,-0.084l0.051,0.15l0.199,-0.15l0.416,-0.068l0.092,0.084l0.379,-0.16l0.079,0.068l0.596,-0.143l0.055,0.076l0.217,-0.16l0.171,0.084l0.26,-0.008l0.184,-0.009l0.836,0.068l0.07,-0.151l0.208,0.15l1.654,0.21l0.277,0.06l0.56,0.067l0.19,0.042l0.262,0.194l0.098,-0.059l0.31,0.143l0.156,-0.067l0.088,0.067l0.185,-0.008l0.55,0.067l0.379,0.075l0.185,0.093l0.074,-0.084l0.106,0.177l0.185,-0.084l0.272,0.134l0.084,-0.067l0.138,0.152l0.056,-0.17l0.245,0.228l0.037,-0.16l0.087,0.102l0.2,0.075l0.646,0.137l0.54,0.335l0.2,0.053l0.092,0.026l0.092,-0.142l0.097,0.16l0.065,-0.201l0.111,0.143l0.467,-0.152l0.272,-0.009l0.116,-0.134l0.07,0.067l1.695,-0.003l0.097,0.143l0.07,-0.16l0.083,0.169l0.078,-0.143l0.282,0.134l0.596,-0.067l0.204,0.169l0.157,-0.085l0.157,-0.058l0.088,0.085l0.092,-0.085l0.102,0.16l0.254,-0.084l0.111,0.094l0.273,-0.085l0.933,0.143l0.093,-0.16l0.19,0.16l0.36,0l0.323,0.063l0.037,0.089l0.185,-0.107l0.185,0.196l0.402,-0.036l0.24,-0.032l0.277,-0.125l0.088,0.134l0.203,-0.143l0.088,0.076l0.116,-0.152l0.134,0.076l0.023,-0.16l0.291,0.075l0.929,-0.044l0.185,0.058l0.72,0.125l0.093,0.094l0.088,-0.085l0.425,0.21l0.153,-0.16l0.25,0.227l0.189,-0.076l0.379,0.16l0.203,-0.066l0.157,0.066l0.471,0.067l0.084,0.085l0.318,-0.094l0.167,0.085l0.254,0.067l0.097,0.085l0.097,-0.17l0.171,0.16l0.545,0.067l0.222,0.112l0.102,0.103l0.083,-0.085l0.083,0.219l0.171,-0.134l0.014,0.076l0.185,0.01l0.176,-0.068l0.175,0.076l0.647,-0.036l0.296,0.076l0.074,-0.076l0.199,0.121l0.087,0.095l0.102,-0.076l0.083,0.142l0.083,-0.076l0.555,0.076l0.097,0.067l0.194,-0.085l0.291,0.18l0.208,-0.104l0.056,0.009l0.185,0.133l0.078,-0.142l0.106,0.151l0.102,-0.076l0.273,0.095l0.466,0.048l0.097,0.085l0.07,-0.095l0.291,0.17l0.092,-0.151l0.278,0.142l0.286,0.057l0.13,-0.151l0.147,0.151l0.084,-0.085l0.101,0.142l0.084,-0.066l0.365,0.066l2.042,0.293l0.093,0.066l0.175,-0.075l0.111,0.066l0.116,-0.076l0.245,0.152l0.074,-0.17l0.277,0.17l0.097,-0.076l0.115,0.17l0.06,-0.132l0.3,0.123l0.176,-0.066l0.213,0.066l0.07,-0.076l0.277,0.142l0.554,-0.019l0.171,0.066l0.088,-0.066l0.102,0.142l0.577,0.01l0.153,0.009l0.485,0.217l0.185,-0.15l0.139,0.065l0.046,0.151l0.078,-0.122l0.287,0.085l0.73,0.029" stroke="teal" fill="none" stroke-linejoin="round" stroke-linecap="square" stroke-width="2.5"/>
  </g>
  <g id="svg_103" clip-path="url(#z)">
   <path id="svg_104" d="m115.2,219.884l15.218,0.147l15.333,0.04l80.212,0.28l0.199,-108.791l0.66,0l0.172,-11.787l1.603,0l0.144,11.787l4.538,0l0.17,-11.787l1.253,0l0.152,-11.787l1.48,0l0.092,-11.787l31.263,0l0.161,167.895l1.849,1.528l2.851,2.253l0.555,0.385l2.62,1.478l1.179,0.461l1.123,0.284l1.728,0.179l1.705,-0.102l5.509,-0.798l2.967,-0.128l2.38,0.178l5.55,0.815l10.102,0.929l6.558,0.468l25.81,2.376l4.667,0.52l8.799,1.052l3.318,0.437" stroke="red" fill="none" stroke-linejoin="round" stroke-dasharray="9.25,4" stroke-width="2.5"/>
  </g>
  <path id="svg_105" d="m103.104,307.584l0,-266.112m266.112,266.112l0,-266.112m-266.112,266.112l266.112,0m-266.112,-266.112l266.112,0" stroke="#000" fill="none" stroke-miterlimit="10" stroke-linecap="square" stroke-width="0.8"/>
  <path id="svg_106" fill-opacity="0.8" fill="#fff" d="m110.104,302.584l153.36,0c1.333,0 2,-0.667 2,-2l0,-28.344c0,-1.333 -0.667,-2 -2,-2l-153.36,0c-1.333,0 -2,0.667 -2,2l0,28.344c0,1.333 0.667,2 2,2z"/>
  <path id="svg_107" d="m110.104,302.584l153.36,0c1.333,0 2,-0.667 2,-2l0,-28.344c0,-1.333 -0.667,-2 -2,-2l-153.36,0c-1.333,0 -2,0.667 -2,2l0,28.344c0,1.333 0.667,2 2,2z" stroke-opacity="0.8" stroke="#d5d6d5" fill="none" stroke-miterlimit="10"/>
  <path id="svg_108" d="m112.104,278.334l20,0" stroke="teal" fill="none" stroke-linejoin="round" stroke-linecap="square" stroke-width="2.5"/>
  <use id="svg_109" transform="matrix(10 0 0 -10 140.664 281.964)" xlink:href="#A"/>
  <use id="svg_110" transform="matrix(10 0 0 -10 147.934 281.964)" xlink:href="#B"/>
  <use id="svg_111" transform="matrix(10 0 0 -10 154.334 281.834)" xlink:href="#s"/>
  <use id="svg_112" transform="matrix(10 0 0 -10 158.272 281.834)" xlink:href="#s"/>
  <use id="svg_113" transform="matrix(10 0 0 -10 161.803 281.964)" xlink:href="#j"/>
  <use id="svg_114" transform="matrix(10 0 0 -10 168.313 281.834)" xlink:href="#u"/>
  <use id="svg_115" transform="matrix(10 0 0 -10 174.013 281.834)" xlink:href="#t"/>
  <use id="svg_116" transform="matrix(10 0 0 -10 177.663 281.834)" xlink:href="#k"/>
  <use id="svg_117" transform="matrix(10 0 0 -10 181.393 281.964)" xlink:href="#w"/>
  <use id="svg_118" transform="matrix(10 0 0 -10 187.873 281.834)" xlink:href="#s"/>
  <use id="svg_119" transform="matrix(10 0 0 -10 192.013 281.834)" xlink:href="#h"/>
  <use id="svg_120" transform="matrix(10 0 0 -10 194.403 281.964)" xlink:href="#j"/>
  <use id="svg_121" transform="matrix(10 0 0 -10 200.913 281.834)" xlink:href="#u"/>
  <use id="svg_122" transform="matrix(10 0 0 -10 206.613 281.834)" xlink:href="#t"/>
  <use id="svg_123" transform="matrix(10 0 0 -10 210.863 281.964)" xlink:href="#v"/>
  <use id="svg_124" transform="matrix(10 0 0 -10 216.663 281.834)" xlink:href="#t"/>
  <use id="svg_125" transform="matrix(10 0 0 -10 221.253 281.834)" xlink:href="#h"/>
  <use id="svg_126" transform="matrix(10 0 0 -10 223.643 281.964)" xlink:href="#w"/>
  <use id="svg_127" transform="matrix(10 0 0 -10 230.123 281.834)" xlink:href="#u"/>
  <use id="svg_128" transform="matrix(10 0 0 -10 235.553 281.834)" xlink:href="#k"/>
  <use id="svg_129" transform="matrix(10 0 0 -10 239.593 283.144)" xlink:href="#C"/>
  <use id="svg_130" transform="matrix(10 0 0 -10 243.193 281.964)" xlink:href="#r"/>
  <use id="svg_131" transform="matrix(10 0 0 -10 251.163 281.964)" xlink:href="#D"/>
  <use id="svg_132" transform="matrix(10 0 0 -10 257.653 283.144)" xlink:href="#E"/>
  <path id="svg_133" d="m112.104,293.006l20,0" stroke="red" fill="none" stroke-linejoin="round" stroke-dasharray="9.25,4" stroke-width="2.5"/>
  <use id="svg_134" transform="matrix(10 0 0 -10 141.084 296.506)" xlink:href="#F"/>
  <use id="svg_135" transform="matrix(10 0 0 -10 148.354 296.636)" xlink:href="#j"/>
  <use id="svg_136" transform="matrix(10 0 0 -10 154.494 296.636)" xlink:href="#m"/>
  <use id="svg_137" transform="matrix(10 0 0 -10 160.104 296.506)" xlink:href="#h"/>
  <use id="svg_138" transform="matrix(10 0 0 -10 162.854 296.506)" xlink:href="#s"/>
  <use id="svg_139" transform="matrix(10 0 0 -10 166.385 296.636)" xlink:href="#j"/>
  <use id="svg_140" transform="matrix(10 0 0 -10 172.535 296.636)" xlink:href="#G"/>
  <use id="svg_141" transform="matrix(10 0 0 -10 178.335 296.506)" xlink:href="#k"/>
  <use id="svg_142" transform="matrix(10 0 0 -10 182.065 296.636)" xlink:href="#w"/>
  <use id="svg_143" transform="matrix(10 0 0 -10 188.545 296.506)" xlink:href="#s"/>
  <use id="svg_144" transform="matrix(10 0 0 -10 192.685 296.506)" xlink:href="#h"/>
  <use id="svg_145" transform="matrix(10 0 0 -10 195.075 296.636)" xlink:href="#j"/>
  <use id="svg_146" transform="matrix(10 0 0 -10 201.585 296.506)" xlink:href="#u"/>
  <use id="svg_147" transform="matrix(10 0 0 -10 207.285 296.506)" xlink:href="#t"/>
  <use id="svg_148" transform="matrix(10 0 0 -10 211.535 296.636)" xlink:href="#v"/>
  <use id="svg_149" transform="matrix(10 0 0 -10 217.335 296.506)" xlink:href="#t"/>
  <use id="svg_150" transform="matrix(10 0 0 -10 221.925 296.506)" xlink:href="#h"/>
  <use id="svg_151" transform="matrix(10 0 0 -10 224.315 296.636)" xlink:href="#w"/>
  <use id="svg_152" transform="matrix(10 0 0 -10 230.795 296.506)" xlink:href="#u"/>
  <use id="svg_153" transform="matrix(10 0 0 -10 236.225 296.506)" xlink:href="#k"/>
  <use id="svg_154" transform="matrix(10 0 0 -10 240.265 297.816)" xlink:href="#C"/>
  <use id="svg_155" transform="matrix(10 0 0 -10 243.865 296.636)" xlink:href="#r"/>
  <use id="svg_156" transform="matrix(10 0 0 -10 251.835 296.636)" xlink:href="#D"/>
  <use id="svg_157" transform="matrix(10 0 0 -10 258.325 297.816)" xlink:href="#E"/>
 </g>
</svg>