<?xml version="1.0" encoding="UTF-8" standalone="no"?>
<svg
   width="307pt"
   height="396"
   viewBox="0 0 307 297"
   version="1.1"
   id="svg1500"
   sodipodi:docname="Orientation-cropped-new.svg"
   inkscape:version="1.2.2 (732a01da63, 2022-12-09)"
   xmlns:inkscape="http://www.inkscape.org/namespaces/inkscape"
   xmlns:sodipodi="http://sodipodi.sourceforge.net/DTD/sodipodi-0.dtd"
   xmlns:xlink="http://www.w3.org/1999/xlink"
   xmlns="http://www.w3.org/2000/svg"
   xmlns:svg="http://www.w3.org/2000/svg">
  <defs
     id="defs1504" />
  <sodipodi:namedview
     id="namedview1502"
     pagecolor="#ffffff"
     bordercolor="#999999"
     borderopacity="1"
     inkscape:showpageshadow="0"
     inkscape:pageopacity="0"
     inkscape:pagecheckerboard="0"
     inkscape:deskcolor="#d1d1d1"
     inkscape:document-units="pt"
     showgrid="false"
     inkscape:zoom="1.0088771"
     inkscape:cx="173.46018"
     inkscape:cy="231.94104"
     inkscape:window-width="1366"
     inkscape:window-height="745"
     inkscape:window-x="-8"
     inkscape:window-y="-8"
     inkscape:window-maximized="1"
     inkscape:current-layer="g1498" />
  <clipPath
     id="a">
    <path
       transform="matrix(1 0 0 -1 -63 305)"
       d="M0 0h460.8v345.6H0z"
       id="path1149" />
  </clipPath>
  <g
     clip-path="url(#a)"
     id="g1498">
    <path
       d="M-63 305h460.8V-40.6H-63z"
       fill="#fff"
       id="path1152" />
    <path
       d="M40.104 266.984h266.112V.872H40.104z"
       fill="#fff"
       id="path1154" />
    <path
       stroke-width=".8"
       stroke-linejoin="round"
       fill="none"
       stroke="#000"
       d="M50.726 266.984v3.5"
       id="path1156" />
    <symbol
       id="b">
      <path
         transform="matrix(.001 0 0 .001 -.066 .013)"
         d="M318 664c-51 0-89-25-115-75s-38-125-38-225 12-175 38-225 64-75 115-75 89 25 115 75c25 50 38 125 38 225s-13 175-38 225c-26 50-64 75-115 75zm0 78c81 0 143-33 187-97 43-65 65-159 65-281 0-123-22-217-65-281-44-64-106-96-188-96S173 19 130 83 66 241 66 364c0 122 21 216 64 281 43 64 106 97 188 97z"
         id="path1158" />
    </symbol>
    <use
       xlink:href="#b"
       transform="matrix(10 0 0 -10 48.206 281.708)"
       id="use1161" />
    <path
       stroke-width=".8"
       stroke-linejoin="round"
       fill="none"
       stroke="#000"
       d="M96.939 266.984v3.5"
       id="path1163" />
    <symbol
       id="c">
      <path
         transform="translate(-.11) scale(.001)"
         d="M124 83h161v556l-175-35v90l174 35h99V83h161V0H124v83z"
         id="path1165" />
    </symbol>
    <use
       xlink:href="#c"
       transform="matrix(10 0 0 -10 91.68 281.578)"
       id="use1168" />
    <use
       xlink:href="#b"
       transform="matrix(10 0 0 -10 97.6 281.708)"
       id="use1170" />
    <path
       stroke-width=".8"
       stroke-linejoin="round"
       fill="none"
       stroke="#000"
       d="M143.152 266.984v3.5"
       id="path1172" />
    <symbol
       id="d">
      <path
         transform="translate(-.073) scale(.001)"
         d="M192 83h344V0H73v83c37 38 88 90 153 156 64 65 105 107 122 126 32 35 54 65 66 90 12 24 19 49 19 73 0 38-14 70-41 94s-62 37-106 37c-31 0-64-6-98-16-34-11-71-27-110-49v100c40 16 77 28 111 36s66 12 95 12c75 0 135-19 180-57s68-88 68-151c0-30-6-59-17-85-11-27-31-59-61-95-8-10-34-37-78-82S271 164 192 83z"
         id="path1174" />
    </symbol>
    <use
       xlink:href="#d"
       transform="matrix(10 0 0 -10 137.522 281.578)"
       id="use1177" />
    <use
       xlink:href="#b"
       transform="matrix(10 0 0 -10 143.812 281.708)"
       id="use1179" />
    <path
       stroke-width=".8"
       stroke-linejoin="round"
       fill="none"
       stroke="#000"
       d="M189.365 266.984v3.5"
       id="path1181" />
    <symbol
       id="e">
      <path
         transform="matrix(.001 0 0 .001 -.076 .013)"
         d="M406 393c47-10 84-31 110-63s40-72 40-118c0-72-25-128-74-167-50-39-120-58-211-58-31 0-63 3-95 9-32 5-66 14-100 26v95c27-16 57-28 90-36 32-8 66-12 102-12 62 0 109 12 141 36s49 60 49 107c0 42-15 76-45 100s-72 37-126 37h-85v81h89c48 0 85 9 111 29 26 19 39 47 39 84s-14 66-40 86c-27 20-65 30-114 30-27 0-56-3-87-9s-65-15-102-27v88c37 10 72 18 105 23 32 5 63 8 93 8 74 0 133-17 177-51s66-80 66-138c0-40-12-74-35-102s-56-48-98-58z"
         id="path1183" />
    </symbol>
    <use
       xlink:href="#e"
       transform="matrix(10 0 0 -10 183.765 281.708)"
       id="use1186" />
    <use
       xlink:href="#b"
       transform="matrix(10 0 0 -10 190.025 281.708)"
       id="use1188" />
    <path
       stroke-width=".8"
       stroke-linejoin="round"
       fill="none"
       stroke="#000"
       d="M235.577 266.984v3.5"
       id="path1190" />
    <symbol
       id="f">
      <path
         transform="translate(-.049) scale(.001)"
         d="M378 643 129 254h249v389zm-26 86h124V254h104v-82H476V0h-98v172H49v95l303 462z"
         id="path1192" />
    </symbol>
    <use
       xlink:href="#f"
       transform="matrix(10 0 0 -10 229.708 281.578)"
       id="use1195" />
    <use
       xlink:href="#b"
       transform="matrix(10 0 0 -10 236.238 281.708)"
       id="use1197" />
    <path
       stroke-width=".8"
       stroke-linejoin="round"
       fill="none"
       stroke="#000"
       d="M281.79 266.984v3.5"
       id="path1199" />
    <symbol
       id="g">
      <path
         transform="matrix(.001 0 0 .001 -.077 .013)"
         d="M108 729h387v-83H198V467c14 5 29 9 43 11s29 4 43 4c81 0 145-23 193-67 48-45 72-105 72-181 0-79-25-140-74-183S357-13 269-13c-31 0-62 3-94 7-32 5-64 12-98 23v99c29-16 59-28 91-36 31-8 64-11 99-11 56 0 101 14 134 44 32 30 49 70 49 121 0 50-17 90-49 120-33 30-78 45-134 45-26 0-53-3-79-9s-53-15-80-27v366z"
         id="path1201" />
    </symbol>
    <use
       xlink:href="#g"
       transform="matrix(10 0 0 -10 276.201 281.708)"
       id="use1204" />
    <use
       xlink:href="#b"
       transform="matrix(10 0 0 -10 282.451 281.708)"
       id="use1206" />
    <symbol
       id="h">
      <path
         transform="translate(.002) scale(.001)"
         d="M-2 729h616v-83H355V0h-99v646H-2v83z"
         id="path1208" />
    </symbol>
    <symbol
       id="i">
      <path
         transform="translate(-.094) scale(.001)"
         d="M94 547h90V0H94v547zm0 213h90V646H94v114z"
         id="path1211" />
    </symbol>
    <symbol
       id="j">
      <path
         transform="translate(-.091) scale(.001)"
         d="M520 442c22 40 49 69 80 89 31 19 68 29 111 29 56 0 100-20 131-60s47-97 47-170V0h-90v327c0 52-10 91-28 117-19 25-47 38-85 38-47 0-84-16-111-47s-40-73-40-126V0h-90v327c0 52-10 91-28 117-19 25-48 38-86 38-46 0-83-16-110-47s-40-73-40-126V0H91v547h90v-85c20 33 45 58 74 74 28 16 62 24 102 24s73-10 101-30 48-50 62-88z"
         id="path1214" />
    </symbol>
    <symbol
       id="k">
      <path
         transform="matrix(.001 0 0 .001 -.055 .013)"
         d="M562 296v-44H149c4-62 22-110 56-142 33-32 79-48 139-48 34 0 68 4 100 12s65 21 97 39V28c-32-14-65-25-99-31s-69-10-103-10c-88 0-157 25-208 75S55 181 55 268c0 89 24 160 72 213 48 52 114 79 196 79 74 0 132-24 175-71 42-48 64-112 64-193zm-90 26c-1 49-15 88-41 118-27 29-63 44-107 44-50 0-90-15-120-43s-48-68-52-119h320z"
         id="path1217" />
    </symbol>
    <symbol
       id="m">
      <path
         transform="matrix(.001 0 0 .001 -.086 .131)"
         d="M86 760h207v-70H176V-61h117v-70H86v891z"
         id="path1220" />
    </symbol>
    <symbol
       id="n">
      <path
         transform="matrix(.001 0 0 .001 -.054 .013)"
         d="M443 531v-85c-26 12-52 22-79 29-28 6-56 10-85 10-45 0-79-7-101-21s-33-34-33-61c0-21 8-37 24-49s48-24 96-34l31-7c64-14 109-34 136-58 26-25 40-60 40-104 0-51-20-91-60-120-40-30-96-44-166-44-30 0-60 3-92 8S89 8 54 20v93c33-18 66-31 98-39 32-9 64-13 96-13 42 0 75 7 98 21 22 14 34 35 34 62 0 24-9 43-25 56s-52 26-108 38l-31 7c-56 12-97 30-121 54-25 24-37 57-37 100 0 51 18 91 54 119s88 42 156 42c33 0 64-3 94-8 29-5 56-12 81-21z"
         id="path1223" />
    </symbol>
    <symbol
       id="o">
      <path
         transform="matrix(.001 0 0 .001 -.097 .131)"
         d="M304 760v-891H97v70h117v751H97v70h207z"
         id="path1226" />
    </symbol>
    <use
       xlink:href="#h"
       transform="matrix(10 0 0 -10 152.757 295.25)"
       id="use1229" />
    <use
       xlink:href="#i"
       transform="matrix(10 0 0 -10 159.53 295.25)"
       id="use1231" />
    <use
       xlink:href="#j"
       transform="matrix(10 0 0 -10 162.28 295.25)"
       id="use1233" />
    <use
       xlink:href="#k"
       transform="matrix(10 0 0 -10 171.66 295.38)"
       id="use1235" />
    <use
       xlink:href="#l"
       transform="matrix(10 0 0 -10 177.26 295.25)"
       id="use1237" />
    <use
       xlink:href="#m"
       transform="matrix(10 0 0 -10 181.3 296.56)"
       id="use1239" />
    <use
       xlink:href="#n"
       transform="matrix(10 0 0 -10 184.88 295.38)"
       id="use1241" />
    <use
       xlink:href="#o"
       transform="matrix(10 0 0 -10 190.52 296.56)"
       id="use1243" />
    <path
       stroke-width=".8"
       stroke-linejoin="round"
       fill="none"
       stroke="#000"
       d="M40.104 255.623h-3.5"
       id="path1245" />
    <symbol
       id="p">
      <path
         transform="translate(-.082) scale(.001)"
         d="M82 729h469v-42L286 0H183l249 646H82v83z"
         id="path1247" />
    </symbol>
    <use
       xlink:href="#p"
       transform="matrix(10 0 0 -10 21.205 259.42)"
       id="use1250" />
    <use
       xlink:href="#b"
       transform="matrix(10 0 0 -10 27.405 259.55)"
       id="use1252" />
    <path
       stroke-width=".8"
       stroke-linejoin="round"
       fill="none"
       stroke="#000"
       d="M40.104 216.333h-3.5"
       id="path1254" />
    <symbol
       id="q">
      <path
         transform="matrix(.001 0 0 .001 -.068 .013)"
         d="M318 346c-47 0-84-13-111-38s-40-59-40-103 13-79 40-104 64-37 111-37c46 0 83 12 110 38 27 25 41 59 41 103s-14 78-40 103c-27 25-64 38-111 38zm-99 42c-42 10-75 30-99 59s-35 64-35 106c0 58 20 104 62 138 41 34 98 51 171 51 72 0 129-17 171-51 41-34 62-80 62-138 0-42-12-77-36-106s-56-49-98-59c47-11 84-33 111-65 26-32 40-72 40-118 0-71-22-125-65-162-44-38-106-56-186-56S175 5 132 43c-43 37-64 91-64 162 0 46 13 86 40 118 26 32 63 54 111 65zm-36 156c0-38 11-68 35-89s57-31 100-31c42 0 75 10 99 31s36 51 36 89-12 67-36 88-57 32-99 32c-43 0-76-11-100-32s-35-50-35-88z"
         id="path1256" />
    </symbol>
    <use
       xlink:href="#q"
       transform="matrix(10 0 0 -10 21.065 220.26)"
       id="use1259" />
    <use
       xlink:href="#b"
       transform="matrix(10 0 0 -10 27.405 220.26)"
       id="use1261" />
    <path
       stroke-width=".8"
       stroke-linejoin="round"
       fill="none"
       stroke="#000"
       d="M40.104 177.043h-3.5"
       id="path1263" />
    <symbol
       id="r">
      <path
         transform="matrix(.001 0 0 .001 -.063 .013)"
         d="M110 15v90c24-12 49-21 75-27 25-6 50-9 75-9 64 0 114 21 148 65s54 110 60 200c-20-28-44-50-72-65-29-15-61-22-96-22-74 0-132 22-174 66S63 417 63 494c0 74 22 134 66 180 44 45 103 68 177 68 84 0 149-33 193-97 44-65 67-159 67-281 0-116-28-207-82-275C429 21 356-13 264-13c-25 0-50 3-75 7-26 4-52 11-79 21zm196 309c44 0 79 15 105 45s39 72 39 125c0 52-13 94-39 124s-61 46-105 46-79-16-105-46-39-72-39-124c0-53 13-95 39-125s61-45 105-45z"
         id="path1265" />
    </symbol>
    <use
       xlink:href="#r"
       transform="matrix(10 0 0 -10 21.015 180.97)"
       id="use1268" />
    <use
       xlink:href="#b"
       transform="matrix(10 0 0 -10 27.405 180.97)"
       id="use1270" />
    <path
       stroke-width=".8"
       stroke-linejoin="round"
       fill="none"
       stroke="#000"
       d="M40.104 137.753h-3.5"
       id="path1272" />
    <use
       xlink:href="#c"
       transform="matrix(10 0 0 -10 15.126 141.55)"
       id="use1274" />
    <use
       xlink:href="#b"
       transform="matrix(10 0 0 -10 21.046 141.68)"
       id="use1276" />
    <use
       xlink:href="#b"
       transform="matrix(10 0 0 -10 27.406 141.68)"
       id="use1278" />
    <path
       stroke-width=".8"
       stroke-linejoin="round"
       fill="none"
       stroke="#000"
       d="M40.104 98.463h-3.5"
       id="path1280" />
    <use
       xlink:href="#c"
       transform="matrix(10 0 0 -10 15.126 102.26)"
       id="use1282" />
    <use
       xlink:href="#c"
       transform="matrix(10 0 0 -10 21.486 102.26)"
       id="use1284" />
    <use
       xlink:href="#b"
       transform="matrix(10 0 0 -10 27.406 102.39)"
       id="use1286" />
    <path
       stroke-width=".8"
       stroke-linejoin="round"
       fill="none"
       stroke="#000"
       d="M40.104 59.173h-3.5"
       id="path1288" />
    <use
       xlink:href="#c"
       transform="matrix(10 0 0 -10 15.126 62.97)"
       id="use1290" />
    <use
       xlink:href="#d"
       transform="matrix(10 0 0 -10 21.116 62.97)"
       id="use1292" />
    <use
       xlink:href="#b"
       transform="matrix(10 0 0 -10 27.406 63.1)"
       id="use1294" />
    <path
       stroke-width=".8"
       stroke-linejoin="round"
       fill="none"
       stroke="#000"
       d="M40.104 19.883h-3.5"
       id="path1296" />
    <use
       xlink:href="#c"
       transform="matrix(10 0 0 -10 15.126 23.68)"
       id="use1298" />
    <use
       xlink:href="#e"
       transform="matrix(10 0 0 -10 21.146 23.81)"
       id="use1300" />
    <use
       xlink:href="#b"
       transform="matrix(10 0 0 -10 27.406 23.81)"
       id="use1302" />
    <symbol
       id="s">
      <path
         transform="matrix(.001 0 0 .001 -.056 .013)"
         d="M394 662c-72 0-129-27-171-80-42-54-63-126-63-218s21-165 63-218c42-54 99-80 171-80 71 0 128 26 170 80 42 53 63 126 63 218s-21 164-63 218c-42 53-99 80-170 80zm0 80c102 0 183-35 245-103 61-68 92-160 92-275 0-116-31-207-92-275C577 21 496-13 394-13 291-13 209 21 148 89c-62 68-92 159-92 275 0 115 30 207 92 275 61 68 143 103 246 103z"
         id="path1304" />
    </symbol>
    <symbol
       id="t">
      <path
         transform="translate(-.091) scale(.001)"
         d="M411 463c-10 6-21 10-33 13-12 2-25 4-39 4-51 0-90-17-117-50-28-33-41-80-41-142V0H91v547h90v-85c18 33 43 58 73 74s67 24 111 24c6 0 13-1 21-1 7-1 15-2 25-4v-92z"
         id="path1307" />
    </symbol>
    <symbol
       id="u">
      <path
         transform="translate(-.027) scale(.001)"
         d="M183 702V547h185v-70H183V180c0-45 6-74 18-86 12-13 37-19 75-19h92V0h-92c-70 0-118 13-144 39s-39 73-39 141v297H27v70h66v155h90z"
         id="path1310" />
    </symbol>
    <symbol
       id="v">
      <path
         transform="translate(-.091) scale(.001)"
         d="M549 330V0h-90v327c0 52-11 90-31 116s-50 39-90 39c-49 0-87-16-115-47s-42-73-42-126V0H91v547h90v-85c21 32 46 57 76 73 29 16 63 25 101 25 62 0 110-20 142-59s49-96 49-171z"
         id="path1313" />
    </symbol>
    <symbol
       id="w">
      <path
         transform="matrix(.001 0 0 .001 -.06 .013)"
         d="M343 275c-73 0-123-9-151-25-28-17-42-45-42-85 0-32 10-58 31-76 21-19 50-28 86-28 50 0 90 17 120 53 30 35 45 82 45 141v20h-89zm179 37V0h-90v83c-21-34-47-58-77-73s-68-23-112-23c-56 0-101 15-134 46s-49 73-49 126c0 61 20 107 62 139 41 31 102 47 184 47h126v9c0 41-14 73-41 96-27 22-65 34-114 34-32 0-62-4-92-12s-58-19-85-33v83c32 12 64 22 95 28s61 10 91 10c79 0 138-21 177-62s59-103 59-186z"
         id="path1316" />
    </symbol>
    <symbol
       id="x">
      <path
         transform="matrix(.001 0 0 .001 -.055 .013)"
         d="M306 484c-48 0-86-19-114-57s-42-89-42-154c0-66 13-117 41-155s66-56 115-56c48 0 86 18 114 56s42 89 42 155c0 64-14 116-42 154s-66 57-114 57zm0 76c78 0 139-26 184-76 44-51 67-121 67-211s-23-160-67-210c-45-51-106-76-184-76-79 0-141 25-185 76-44 50-66 120-66 210s22 160 66 211c44 50 106 76 185 76z"
         id="path1319" />
    </symbol>
    <symbol
       id="y">
      <path
         transform="matrix(.001 0 0 .001 -.095 -.432)"
         d="M250 679c-26 0-48-9-66-27s-27-40-27-66 9-48 27-66 40-26 66-26 48 8 66 26 27 40 27 66-9 48-27 66-40 27-66 27zm0 63c20 0 40-4 60-12 19-8 36-20 50-34 14-15 25-32 33-50 8-19 12-39 12-60 0-44-16-80-46-110s-67-44-110-44c-44 0-81 14-110 44-30 29-44 66-44 110 0 43 15 80 45 110s66 46 110 46z"
         id="path1322" />
    </symbol>
    <use
       xlink:href="#s"
       transform="matrix(0,-10,-10,0,8.078,167.071)"
       id="use1325" />
    <use
       xlink:href="#t"
       transform="matrix(0,-10,-10,0,7.948,158.851)"
       id="use1327" />
    <use
       xlink:href="#i"
       transform="matrix(0,-10,-10,0,7.948,154.711)"
       id="use1329" />
    <use
       xlink:href="#k"
       transform="matrix(0 -10 -10 0 8.078 152.901)"
       id="use1333" />
    <use
       xlink:href="#v"
       transform="matrix(0 -10 -10 0 7.948 146.391)"
       id="use1335" />
    <use
       xlink:href="#u"
       transform="matrix(0 -10 -10 0 7.948 140.691)"
       id="use1337" />
    <use
       xlink:href="#w"
       transform="matrix(0 -10 -10 0 8.078 136.441)"
       id="use1339" />
    <use
       xlink:href="#u"
       transform="matrix(0 -10 -10 0 7.948 130.641)"
       id="use1341" />
    <use
       xlink:href="#i"
       transform="matrix(0 -10 -10 0 7.948 126.051)"
       id="use1343" />
    <use
       xlink:href="#x"
       transform="matrix(0 -10 -10 0 8.078 123.661)"
       id="use1345" />
    <use
       xlink:href="#v"
       transform="matrix(0 -10 -10 0 7.948 117.181)"
       id="use1347" />
    <use
       xlink:href="#l"
       transform="matrix(0 -10 -10 0 7.948 111.751)"
       id="use1349" />
    <use
       xlink:href="#m"
       transform="matrix(0 -10 -10 0 9.258 107.711)"
       id="use1351" />
    <use
       xlink:href="#y"
       transform="matrix(0 -10 -10 0 3.628 103.721)"
       id="use1353" />
    <use
       xlink:href="#o"
       transform="matrix(0 -10 -10 0 9.258 98.701)"
       id="use1355" />
    <clipPath
       id="z">
      <path
         transform="matrix(1 0 0 -1 -63 305)"
         d="M103.104 38.016h266.112v266.112H103.104z"
         id="path1357" />
    </clipPath>
    <g
       clip-path="url(#z)"
       id="g1362">
      <path
         stroke-width="2.5"
         stroke-linecap="square"
         stroke-linejoin="round"
         fill="none"
         stroke="teal"
         d="M52.2 177.039h.25l.069.28.19-.28.096.459.107-.026.069.185.092-.226.102.357.088-.21.088.325.101-.532.194.29.074-.32.097.138.093-.298.134.275.041-.146.18-.272h.12l.07-.25.194.009.102-.233.102.124.258-.21.088.118.19-.206.217-.092.25.02.18-.19.37-.075.49-.354.161.014.088-.181.383-.063.18-.169.19-.075.712-.727.106.011.088-.164.236-.068.24-.229.097.096.379-.134.194-.067.07-.076.069.174.11-.075.088.09.097-.16.273.1.083-.075.19.256.138-.077.416.264.093-.078.198.169.107.003.078.164.093-.16.087.326.079-.24.092.244.25-.076.139.165.277.006.092.16.097-.078.12.161.084-.078.06.081.097.081.097-.077.305.161.083-.077.074.159.079-.157.101.238.097-.156.097.158.07-.078.11.159.356.003.19.159.097-.078.217.236.254.002.171.235.287.08.175.155.222.157h.056l.101.156h.19l.17.156.19.155h.102l.185.156.25.233.096-.078.3.31h.26l.138.232.051-.155.203.154.717.308.115.31.065-.078h.226l.157.23h.171l.569.307.208.077.351.23.088-.077.448.232.097-.078.088.154.471.077.079.076.102-.154.097.231.268-.078.097.154.379-.154.166.23.092-.077.125.154.079-.078.19.077.184-.077.097.23.065-.076.554-.001.116.153.088-.077.083.154.12-.154.065.153.374-.153.097.154.093-.077.092.076.194-.076.55.156.171.014.55.007.097.156.19-.23.272-.08.458-.235.198-.078.074.077.111-.31.185.154.18-.156.365-.08.088-.078.102.077.393-.234.064.154.107-.231.097.154.069-.078h.37l.208-.155.166.077.18-.077.093.078.185-.076.101.076.093-.076.101.077.116-.231.07.077.087.077.356-.154.471-.077.093-.077.097.077.097-.078.083.078.083-.078.102.078.097-.077h.17l1.216.077.093.077.087-.155.093.154.175-.154.111.155.268-.232.291.076h1.48l.092.154.074-.154.198.078h.171l.093.155 1.59.077.073.077.185-.078h.236l.055.153.088-.154.19.077.36.076.088.077.148-.153.05.076.37.078.176.077.277-.153.18.154 1.105.076.037.154.06-.153h.564l.092.154.083-.154.375.153.175-.077.486.078.18.08 2.292.001.092-.077h.758l.097.155.093-.153.083.156.314-.156 2.08-.074.138-.078.042.155.291-.078.273-.002.092-.154.185.077.083-.076.342.075 7.15-.007.096.166.093-.067.328.153.153-.073.439.002.272-.233.102.077.499-.314.074.078.074-.079h.097l.097-.156.286.076.352-.157.282.077.258-.078 2.075-.08.074-.077.273.154.199-.077 2.652-.086.097.24.084-.07.203.231.106-.157.06.08.693.005.148-.157h.268l.199-.156.462-.08.083-.078.273.077.11-.079.186.077.148-.077.046.153.074-.155.296.156 1.104-.004.088.156.088-.077.097.078.175-.079.088.078.111-.077.088.077.092-.077.083.077.093-.155.194.154.083-.154.111.154.088-.076.083.154.176-.077.734.077h.195l1.109.077.092.154.199-.155.175.077.176-.078.185.077.933-.002.088.155.093-.153.124.153.06-.155.19.232.083-.154.374.077.398-.001.102.155.078-.078.564.078.097.076.07-.154.281.155.097-.077.171.233.116-.154.064.078 1.747.077.102.08.194-.079.083.077.093-.079.092.078.18-.077 1.119.073.19.081.267-.072.157.08.046-.156.074.079.093.001.102-.154.101.077.18-.156.079.077.462-.233h.564l.102-.155.064.076.763-.08.25-.08.115-.076.102.077.166-.076.282.076h.277l.106-.154.278.154.087-.155.07.078.277-.077.102-.077.19.078 2.213.077.078.078.194-.156.195.077.184-.077.084.154.087-.154.282.076.74.08.101.077.393-.155.056.155.097-.156.194.078h.638l.124.154.153-.155.18.155.102-.079.185.077.568.077.065.077.101-.154.278.155.087-.078.097.155.093-.077.092.076.116-.153.263.154.73.078.084.076.092-.077H151.04l.093.155.101-.078.093.078.088-.078h.189l.268.077.282.154.125-.153.166.08 2.417.077.088.078.074-.156.198.077 1.105-.08.07-.076.138.155.074-.078.074-.077.282.077 1.012-.078.092-.078.291.155.18-.155.111.154.07-.154.125.155.055-.077.092.078.097-.078.093.078.088-.078.092.077.291-.077.088.077.106-.077.07.154.194-.155.097.079.097-.155.074.155.254-.155.028.058.124-.07.06.157.102-.073.19.158.628.012.088-.155.102.078.097-.155.134.078.041-.078.291-.155.093.079.286-.232.065.076.287-.233.101.078.388 4.804.255 1.068.115.064.749-4.297.6-6.225.222-2.024.255-3.138 1.215-13.331.185-1.936.448-4.899.587-6.157 1.654-22.305.426-7.865.43-6.37 1.899-34.354 2.005-27.89 1.142-13.38 1.867-13.11.568-2.245 1.096-2.216.346-.38.305-.07.083-.137.079.136.074-.068.536.257.199.224.203.428.402.634.263.598.476.954 2.311 5.516.351.432.333.517.564 1.178.333.509.674 1.276.666 2.257.097.142.365 1.029.744 1.595.078.056.093.287.138.056.24.518 1.1 1.4.31.143.056.263.198.056.2.119.073.17.116-.057.6.464.097-.057.158.258.508.201.199.175.73.32.194.176 1.557.556h.153l.05.145.088-.057h.079l.18.088.374.083.098.168.092-.171.273.179.194.027 4.182-.09.079-.027.073.119.18-.057.652-.03.093-.088.101.14.19-.117.444-.027.097-.118.101.175.074-.06.333-.088.046.087.194-.144h.3l.088-.088.065.145.199-.084.273.115.189-.118.176-3.342.272-1.813.324-.06.166.612.365 2.128 1.41 13.541.24 3.022.351 4.055.48 5.55.925 11.47.213 1.21.332 5.915.282 3.868 1.706 29.505.221 5.784.85 18.556 1.105 26.332 2.865 67.33.92 14.648.513 5.373.356 3.285.236 1.798.55.284.092-.136.388-1.194.199-.555.545-2.162.176-.475.457-1.165.213-.29.166-.343 1.017-2.909.818-4.235.411-2.653.231-2.37.582-4.685.36-3.485.269-2.597.471-4.417.37-3.627.444-4.23.42-3.26.291-2.461.68-5.123.208-1.013.61-2.881.762-3.204.693-1.482.056-.072.185-.39.725-1.017.093.004.115-.232.06.072.111-.004.259-.152.573.309.268.461.116.084 2.37 5.917.107.082.452.93.097.071.55 1.02.296.298 1.225 2.314.235.684.2.463.258.69.11.07.92 2 1.11 1.683.092.067.097.227.097-.084.18.295.453.37.185.21.139-.144.245.395.083-.084.222.226.097-.092.05.16.14-.085.147.227.374.05.167.067.194.066.097.067.088-.142.092.234.268-.075.199.243.115-.16.051.06.194.158h.19l.578.003.092.236.065-.041.175.05.282.058.384.163.097-.143.07.085.198-.135.263-.017.185-.152.116-.084.203.067.152-.169.393-.026.153-.177 2.135-.361.166-.084.051.15.199-.15.416-.068.092.084.379-.16.079.068.596-.143.055.076.217-.16.171.084.26-.008.184-.009.836.068.07-.151.208.15 1.654.21.277.06.56.067.19.042.262.194.098-.059.31.143.156-.067.088.067.185-.008.55.067.379.075.185.093.074-.084.106.177.185-.084.272.134.084-.067.138.152.056-.17.245.228.037-.16.087.102.2.075.646.137.54.335.2.053.092.026.092-.142.097.16.065-.201.111.143.467-.152.272-.009.116-.134.07.067 1.695-.003.097.143.07-.16.083.169.078-.143.282.134.596-.067.204.169.157-.085.157-.058.088.085.092-.085.102.16.254-.084.111.094.273-.085.933.143.093-.16.19.16h.36l.323.063.037.089.185-.107.185.196.402-.036.24-.032.277-.125.088.134.203-.143.088.076.116-.152.134.076.023-.16.291.075.929-.044.185.058.72.125.093.094.088-.085.425.21.153-.16.25.227.189-.076.379.16.203-.066.157.066.471.067.084.085.318-.094.167.085.254.067.097.085.097-.17.171.16.545.067.222.112.102.103.083-.085.083.219.171-.134.014.076.185.01.176-.068.175.076.647-.036.296.076.074-.076.199.121.087.095.102-.076.083.142.083-.076.555.076.097.067.194-.085.291.18.208-.104.056.009.185.133.078-.142.106.151.102-.076.273.095.466.048.097.085.07-.095.291.17.092-.151.278.142.286.057.13-.151.147.151.084-.085.101.142.084-.066.365.066 2.042.293.093.066.175-.075.111.066.116-.076.245.152.074-.17.277.17.097-.076.115.17.06-.132.3.123.176-.066.213.066.07-.076.277.142.554-.019.171.066.088-.066.102.142.577.01.153.009.485.217.185-.15.139.065.046.151.078-.122.287.085.73.029"
         id="path1360" />
    </g>
    <clipPath
       id="A">
      <path
         transform="matrix(1 0 0 -1 -63 305)"
         d="M103.104 38.016h266.112v266.112H103.104z"
         id="path1364" />
    </clipPath>
    <g
       clip-path="url(#A)"
       id="g1369">
      <path
         stroke-width="2.5"
         stroke-dasharray="9.25,4"
         stroke-linejoin="round"
         fill="none"
         stroke="red"
         d="m52.2 179.284 15.218.147 15.333.04 80.212.28.199-108.791h.66l.172-11.787h1.603l.144 11.787h4.538l.17-11.787h1.253l.152-11.787h1.48l.092-11.787h31.263l.162 167.895 1.848 1.528 2.851 2.253.555.385 2.62 1.478 1.179.461 1.123.284 1.728.179 1.705-.102 5.509-.798 2.967-.128 2.38.178 5.55.815 10.102.929 6.558.468 25.81 2.376 4.667.52 8.799 1.052 3.318.437"
         id="path1367" />
    </g>
    <path
       stroke-width=".8"
       stroke-linecap="square"
       stroke-miterlimit="10"
       fill="none"
       stroke="#000"
       d="M40.104 266.984V.872M306.216 266.984V.872M40.104 266.984h266.112M40.104.872h266.112"
       id="path1371" />
    <path
       d="M47.104 261.984h153.36c1.333 0 2-.667 2-2V231.64c0-1.333-.667-2-2-2H47.103c-1.333 0-2 .667-2 2v28.344c0 1.333.667 2 2 2z"
       fill="#fff"
       fill-opacity=".8"
       id="path1373" />
    <path
       stroke-miterlimit="10"
       fill="none"
       stroke="#d5d6d5"
       stroke-opacity=".8"
       d="M47.104 261.984h153.36c1.333 0 2-.667 2-2V231.64c0-1.333-.667-2-2-2H47.103c-1.333 0-2 .667-2 2v28.344c0 1.333.667 2 2 2z"
       id="path1375" />
    <path
       stroke-width="2.5"
       stroke-linecap="square"
       stroke-linejoin="round"
       fill="none"
       stroke="teal"
       d="M49.104 237.734h20"
       id="path1377" />
    <symbol
       id="B">
      <path
         transform="matrix(.001 0 0 .001 -.056 .013)"
         d="M644 673V569c-34 30-69 53-107 69-38 15-77 23-119 23-84 0-148-26-192-77s-66-124-66-220 22-170 66-221 108-76 192-76c42 0 81 7 119 23 38 15 73 38 107 69V56c-35-24-72-41-110-52s-79-17-122-17C302-13 215 20 151 87S56 246 56 364c0 117 31 209 95 277 64 67 151 101 261 101 44 0 85-6 123-17 38-12 75-29 109-52z"
         id="path1379" />
    </symbol>
    <symbol
       id="C">
      <path
         transform="matrix(.001 0 0 .001 -.085 .013)"
         d="M85 216v331h90V219c0-52 10-90 30-116s50-39 91-39c48 0 87 15 115 46s42 73 42 127v310h90V0h-90v84c-22-34-48-58-76-74-29-15-62-23-100-23-63 0-111 19-143 58-33 38-49 95-49 171zm226 344z"
         id="path1382" />
    </symbol>
    <symbol
       id="D">
      <path
         transform="matrix(.001 0 0 .001 -.086 .131)"
         d="M310 759c-44-76-76-150-97-223-22-73-32-147-32-222 0-76 10-150 32-223 21-74 53-147 97-222h-78C183-54 146 20 122 94S86 241 86 314c0 72 12 145 36 219s60 149 110 226h78z"
         id="path1385" />
    </symbol>
    <symbol
       id="E">
      <path
         transform="matrix(.001 0 0 .001 -.066 .013)"
         d="M535 705v-96c-38 18-73 31-106 40-34 8-66 13-96 13-54 0-96-11-125-31-29-21-43-51-43-89 0-32 9-57 29-73 19-17 56-30 110-40l60-12c73-14 127-39 162-74 35-36 53-83 53-142 0-71-24-124-71-160-48-36-117-54-208-54-35 0-72 4-111 11S110 16 69 32v102c40-23 79-40 117-51 38-12 76-17 114-17 56 0 99 11 130 33 30 22 46 53 46 95 0 36-11 64-33 84s-58 35-108 45l-60 12c-74 14-127 37-160 69-33 31-49 74-49 130 0 64 22 115 68 152 45 37 108 56 188 56 34 0 68-3 104-9 35-6 71-16 109-28z"
         id="path1388" />
    </symbol>
    <symbol
       id="F">
      <path
         transform="matrix(.001 0 0 .001 -.08 .131)"
         d="M80 759h78c48-77 85-152 109-226s37-147 37-219c0-73-13-146-37-220S206-54 158-131H80c43 75 75 148 97 222 21 73 32 147 32 223 0 75-11 149-32 222-22 73-54 147-97 223z"
         id="path1391" />
    </symbol>
    <use
       xlink:href="#B"
       transform="matrix(10 0 0 -10 77.664 241.364)"
       id="use1394" />
    <use
       xlink:href="#C"
       transform="matrix(10 0 0 -10 84.934 241.364)"
       id="use1396" />
    <use
       xlink:href="#t"
       transform="matrix(10 0 0 -10 91.334 241.234)"
       id="use1398" />
    <use
       xlink:href="#t"
       transform="matrix(10 0 0 -10 95.272 241.234)"
       id="use1400" />
    <use
       xlink:href="#k"
       transform="matrix(10 0 0 -10 98.803 241.364)"
       id="use1402" />
    <use
       xlink:href="#v"
       transform="matrix(10 0 0 -10 105.313 241.234)"
       id="use1404" />
    <use
       xlink:href="#u"
       transform="matrix(10 0 0 -10 111.013 241.234)"
       id="use1406" />
    <use
       xlink:href="#l"
       transform="matrix(10 0 0 -10 114.663 241.234)"
       id="use1408" />
    <use
       xlink:href="#x"
       transform="matrix(10 0 0 -10 118.393 241.364)"
       id="use1410" />
    <use
       xlink:href="#t"
       transform="matrix(10 0 0 -10 124.873 241.234)"
       id="use1412" />
    <use
       xlink:href="#i"
       transform="matrix(10 0 0 -10 129.013 241.234)"
       id="use1414" />
    <use
       xlink:href="#k"
       transform="matrix(10 0 0 -10 131.403 241.364)"
       id="use1416" />
    <use
       xlink:href="#v"
       transform="matrix(10 0 0 -10 137.913 241.234)"
       id="use1418" />
    <use
       xlink:href="#u"
       transform="matrix(10 0 0 -10 143.613 241.234)"
       id="use1420" />
    <use
       xlink:href="#w"
       transform="matrix(10 0 0 -10 147.863 241.364)"
       id="use1422" />
    <use
       xlink:href="#u"
       transform="matrix(10 0 0 -10 153.663 241.234)"
       id="use1424" />
    <use
       xlink:href="#i"
       transform="matrix(10 0 0 -10 158.253 241.234)"
       id="use1426" />
    <use
       xlink:href="#x"
       transform="matrix(10 0 0 -10 160.643 241.364)"
       id="use1428" />
    <use
       xlink:href="#v"
       transform="matrix(10 0 0 -10 167.123 241.234)"
       id="use1430" />
    <use
       xlink:href="#l"
       transform="matrix(10 0 0 -10 172.553 241.234)"
       id="use1432" />
    <use
       xlink:href="#D"
       transform="matrix(10 0 0 -10 176.593 242.544)"
       id="use1434" />
    <use
       xlink:href="#s"
       transform="matrix(10 0 0 -10 180.193 241.364)"
       id="use1436" />
    <use
       xlink:href="#E"
       transform="matrix(10 0 0 -10 188.163 241.364)"
       id="use1438" />
    <use
       xlink:href="#F"
       transform="matrix(10 0 0 -10 194.653 242.544)"
       id="use1440" />
    <path
       stroke-width="2.5"
       stroke-dasharray="9.25,4"
       stroke-linejoin="round"
       fill="none"
       stroke="red"
       d="M49.104 252.406h20"
       id="path1442" />
    <symbol
       id="G">
      <path
         transform="translate(-.098) scale(.001)"
         d="M197 648V81h119c100 0 174 22 221 68 46 46 70 118 70 216s-24 169-70 215c-47 45-121 68-221 68H197zm-99 81h203c141 0 245-30 311-88 66-59 99-151 99-276 0-126-34-218-100-277S441 0 301 0H98v729z"
         id="path1444" />
    </symbol>
    <symbol
       id="H">
      <path
         transform="matrix(.001 0 0 .001 -.055 .013)"
         d="M454 464v296h90V0h-90v82c-19-33-43-57-72-72s-63-23-103-23c-66 0-120 26-162 78S55 187 55 273s20 155 62 208c42 52 96 79 162 79 40 0 74-8 103-24s53-40 72-72zM148 273c0-66 13-118 40-156s64-56 112-56 85 18 113 56c27 38 41 90 41 156s-14 117-41 155c-28 38-65 57-113 57s-85-19-112-57-40-89-40-155z"
         id="path1447" />
    </symbol>
    <use
       xlink:href="#G"
       transform="matrix(10 0 0 -10 78.084 255.906)"
       id="use1450" />
    <use
       xlink:href="#k"
       transform="matrix(10 0 0 -10 85.354 256.036)"
       id="use1452" />
    <use
       xlink:href="#n"
       transform="matrix(10 0 0 -10 91.494 256.036)"
       id="use1454" />
    <use
       xlink:href="#i"
       transform="matrix(10 0 0 -10 97.104 255.906)"
       id="use1456" />
    <use
       xlink:href="#t"
       transform="matrix(10 0 0 -10 99.854 255.906)"
       id="use1458" />
    <use
       xlink:href="#k"
       transform="matrix(10 0 0 -10 103.385 256.036)"
       id="use1460" />
    <use
       xlink:href="#H"
       transform="matrix(10 0 0 -10 109.535 256.036)"
       id="use1462" />
    <use
       xlink:href="#l"
       transform="matrix(10 0 0 -10 115.335 255.906)"
       id="use1464" />
    <use
       xlink:href="#x"
       transform="matrix(10 0 0 -10 119.065 256.036)"
       id="use1466" />
    <use
       xlink:href="#t"
       transform="matrix(10 0 0 -10 125.545 255.906)"
       id="use1468" />
    <use
       xlink:href="#i"
       transform="matrix(10 0 0 -10 129.685 255.906)"
       id="use1470" />
    <use
       xlink:href="#k"
       transform="matrix(10 0 0 -10 132.075 256.036)"
       id="use1472" />
    <use
       xlink:href="#v"
       transform="matrix(10 0 0 -10 138.585 255.906)"
       id="use1474" />
    <use
       xlink:href="#u"
       transform="matrix(10 0 0 -10 144.285 255.906)"
       id="use1476" />
    <use
       xlink:href="#w"
       transform="matrix(10 0 0 -10 148.535 256.036)"
       id="use1478" />
    <use
       xlink:href="#u"
       transform="matrix(10 0 0 -10 154.335 255.906)"
       id="use1480" />
    <use
       xlink:href="#i"
       transform="matrix(10 0 0 -10 158.925 255.906)"
       id="use1482" />
    <use
       xlink:href="#x"
       transform="matrix(10 0 0 -10 161.315 256.036)"
       id="use1484" />
    <use
       xlink:href="#v"
       transform="matrix(10 0 0 -10 167.795 255.906)"
       id="use1486" />
    <use
       xlink:href="#l"
       transform="matrix(10 0 0 -10 173.225 255.906)"
       id="use1488" />
    <use
       xlink:href="#D"
       transform="matrix(10 0 0 -10 177.265 257.216)"
       id="use1490" />
    <use
       xlink:href="#s"
       transform="matrix(10 0 0 -10 180.865 256.036)"
       id="use1492" />
    <use
       xlink:href="#E"
       transform="matrix(10 0 0 -10 188.835 256.036)"
       id="use1494" />
    <use
       xlink:href="#F"
       transform="matrix(10 0 0 -10 195.325 257.216)"
       id="use1496" />
  </g>
</svg>
