<svg xmlns="http://www.w3.org/2000/svg" xmlns:xlink="http://www.w3.org/1999/xlink" width="304pt" height="396" viewBox="0 0 304 297"><clipPath id="a"><path transform="matrix(1 0 0 -1 -66 305)" d="M0 0h460.8v345.6H0z"/></clipPath><g clip-path="url(#a)"><path d="M-66 305h460.8V-40.6H-66z" fill="#fff"/><path d="M37.104 266.984h266.112V.872H37.104z" fill="#fff"/><path stroke-width=".8" stroke-linejoin="round" fill="none" stroke="#000" d="M47.726 266.984v3.5"/><symbol id="b"><path transform="matrix(.001 0 0 .001 -.066 .013)" d="M318 664c-51 0-89-25-115-75s-38-125-38-225 12-175 38-225 64-75 115-75 89 25 115 75c25 50 38 125 38 225s-13 175-38 225c-26 50-64 75-115 75zm0 78c81 0 143-33 187-97 43-65 65-159 65-281 0-123-22-217-65-281-44-64-106-96-188-96S173 19 130 83 66 241 66 364c0 122 21 216 64 281 43 64 106 97 188 97z"/></symbol><use xlink:href="#b" transform="matrix(10 0 0 -10 45.206 281.708)"/><path stroke-width=".8" stroke-linejoin="round" fill="none" stroke="#000" d="M93.939 266.984v3.5"/><symbol id="c"><path transform="translate(-.11) scale(.001)" d="M124 83h161v556l-175-35v90l174 35h99V83h161V0H124v83z"/></symbol><use xlink:href="#c" transform="matrix(10 0 0 -10 88.68 281.578)"/><use xlink:href="#b" transform="matrix(10 0 0 -10 94.6 281.708)"/><path stroke-width=".8" stroke-linejoin="round" fill="none" stroke="#000" d="M140.152 266.984v3.5"/><symbol id="d"><path transform="translate(-.073) scale(.001)" d="M192 83h344V0H73v83c37 38 88 90 153 156 64 65 105 107 122 126 32 35 54 65 66 90 12 24 19 49 19 73 0 38-14 70-41 94s-62 37-106 37c-31 0-64-6-98-16-34-11-71-27-110-49v100c40 16 77 28 111 36s66 12 95 12c75 0 135-19 180-57s68-88 68-151c0-30-6-59-17-85-11-27-31-59-61-95-8-10-34-37-78-82S271 164 192 83z"/></symbol><use xlink:href="#d" transform="matrix(10 0 0 -10 134.522 281.578)"/><use xlink:href="#b" transform="matrix(10 0 0 -10 140.812 281.708)"/><path stroke-width=".8" stroke-linejoin="round" fill="none" stroke="#000" d="M186.365 266.984v3.5"/><symbol id="e"><path transform="matrix(.001 0 0 .001 -.076 .013)" d="M406 393c47-10 84-31 110-63s40-72 40-118c0-72-25-128-74-167-50-39-120-58-211-58-31 0-63 3-95 9-32 5-66 14-100 26v95c27-16 57-28 90-36 32-8 66-12 102-12 62 0 109 12 141 36s49 60 49 107c0 42-15 76-45 100s-72 37-126 37h-85v81h89c48 0 85 9 111 29 26 19 39 47 39 84s-14 66-40 86c-27 20-65 30-114 30-27 0-56-3-87-9s-65-15-102-27v88c37 10 72 18 105 23 32 5 63 8 93 8 74 0 133-17 177-51s66-80 66-138c0-40-12-74-35-102s-56-48-98-58z"/></symbol><use xlink:href="#e" transform="matrix(10 0 0 -10 180.765 281.708)"/><use xlink:href="#b" transform="matrix(10 0 0 -10 187.025 281.708)"/><path stroke-width=".8" stroke-linejoin="round" fill="none" stroke="#000" d="M232.577 266.984v3.5"/><symbol id="f"><path transform="translate(-.049) scale(.001)" d="M378 643 129 254h249v389zm-26 86h124V254h104v-82H476V0h-98v172H49v95l303 462z"/></symbol><use xlink:href="#f" transform="matrix(10 0 0 -10 226.708 281.578)"/><use xlink:href="#b" transform="matrix(10 0 0 -10 233.238 281.708)"/><path stroke-width=".8" stroke-linejoin="round" fill="none" stroke="#000" d="M278.79 266.984v3.5"/><symbol id="g"><path transform="matrix(.001 0 0 .001 -.077 .013)" d="M108 729h387v-83H198V467c14 5 29 9 43 11s29 4 43 4c81 0 145-23 193-67 48-45 72-105 72-181 0-79-25-140-74-183S357-13 269-13c-31 0-62 3-94 7-32 5-64 12-98 23v99c29-16 59-28 91-36 31-8 64-11 99-11 56 0 101 14 134 44 32 30 49 70 49 121 0 50-17 90-49 120-33 30-78 45-134 45-26 0-53-3-79-9s-53-15-80-27v366z"/></symbol><use xlink:href="#g" transform="matrix(10 0 0 -10 273.201 281.708)"/><use xlink:href="#b" transform="matrix(10 0 0 -10 279.451 281.708)"/><symbol id="h"><path transform="translate(.002) scale(.001)" d="M-2 729h616v-83H355V0h-99v646H-2v83z"/></symbol><symbol id="i"><path transform="translate(-.094) scale(.001)" d="M94 547h90V0H94v547zm0 213h90V646H94v114z"/></symbol><symbol id="j"><path transform="translate(-.091) scale(.001)" d="M520 442c22 40 49 69 80 89 31 19 68 29 111 29 56 0 100-20 131-60s47-97 47-170V0h-90v327c0 52-10 91-28 117-19 25-47 38-85 38-47 0-84-16-111-47s-40-73-40-126V0h-90v327c0 52-10 91-28 117-19 25-48 38-86 38-46 0-83-16-110-47s-40-73-40-126V0H91v547h90v-85c20 33 45 58 74 74 28 16 62 24 102 24s73-10 101-30 48-50 62-88z"/></symbol><symbol id="k"><path transform="matrix(.001 0 0 .001 -.055 .013)" d="M562 296v-44H149c4-62 22-110 56-142 33-32 79-48 139-48 34 0 68 4 100 12s65 21 97 39V28c-32-14-65-25-99-31s-69-10-103-10c-88 0-157 25-208 75S55 181 55 268c0 89 24 160 72 213 48 52 114 79 196 79 74 0 132-24 175-71 42-48 64-112 64-193zm-90 26c-1 49-15 88-41 118-27 29-63 44-107 44-50 0-90-15-120-43s-48-68-52-119h320z"/></symbol><symbol id="m"><path transform="matrix(.001 0 0 .001 -.086 .131)" d="M86 760h207v-70H176V-61h117v-70H86v891z"/></symbol><symbol id="n"><path transform="matrix(.001 0 0 .001 -.054 .013)" d="M443 531v-85c-26 12-52 22-79 29-28 6-56 10-85 10-45 0-79-7-101-21s-33-34-33-61c0-21 8-37 24-49s48-24 96-34l31-7c64-14 109-34 136-58 26-25 40-60 40-104 0-51-20-91-60-120-40-30-96-44-166-44-30 0-60 3-92 8S89 8 54 20v93c33-18 66-31 98-39 32-9 64-13 96-13 42 0 75 7 98 21 22 14 34 35 34 62 0 24-9 43-25 56s-52 26-108 38l-31 7c-56 12-97 30-121 54-25 24-37 57-37 100 0 51 18 91 54 119s88 42 156 42c33 0 64-3 94-8 29-5 56-12 81-21z"/></symbol><symbol id="o"><path transform="matrix(.001 0 0 .001 -.097 .131)" d="M304 760v-891H97v70h117v751H97v70h207z"/></symbol><use xlink:href="#h" transform="matrix(10 0 0 -10 149.757 295.25)"/><use xlink:href="#i" transform="matrix(10 0 0 -10 156.53 295.25)"/><use xlink:href="#j" transform="matrix(10 0 0 -10 159.28 295.25)"/><use xlink:href="#k" transform="matrix(10 0 0 -10 168.66 295.38)"/><use xlink:href="#l" transform="matrix(10 0 0 -10 174.26 295.25)"/><use xlink:href="#m" transform="matrix(10 0 0 -10 178.3 296.56)"/><use xlink:href="#n" transform="matrix(10 0 0 -10 181.88 295.38)"/><use xlink:href="#o" transform="matrix(10 0 0 -10 187.52 296.56)"/><path stroke-width=".8" stroke-linejoin="round" fill="none" stroke="#000" d="M37.104 260.251h-3.5"/><symbol id="p"><path transform="translate(-.107) scale(.001)" d="M107 124h103V0H107v124z"/></symbol><use xlink:href="#b" transform="matrix(10 0 0 -10 14.858 264.178)"/><use xlink:href="#p" transform="matrix(10 0 0 -10 21.628 264.048)"/><use xlink:href="#g" transform="matrix(10 0 0 -10 24.508 264.178)"/><path stroke-width=".8" stroke-linejoin="round" fill="none" stroke="#000" d="M37.104 214.652h-3.5"/><use xlink:href="#c" transform="matrix(10 0 0 -10 15.298 218.449)"/><use xlink:href="#p" transform="matrix(10 0 0 -10 21.628 218.449)"/><use xlink:href="#b" transform="matrix(10 0 0 -10 24.398 218.579)"/><path stroke-width=".8" stroke-linejoin="round" fill="none" stroke="#000" d="M37.104 169.052h-3.5"/><use xlink:href="#c" transform="matrix(10 0 0 -10 15.298 172.849)"/><use xlink:href="#p" transform="matrix(10 0 0 -10 21.628 172.849)"/><use xlink:href="#g" transform="matrix(10 0 0 -10 24.508 172.979)"/><path stroke-width=".8" stroke-linejoin="round" fill="none" stroke="#000" d="M37.104 123.452h-3.5"/><use xlink:href="#d" transform="matrix(10 0 0 -10 14.928 127.25)"/><use xlink:href="#p" transform="matrix(10 0 0 -10 21.628 127.25)"/><use xlink:href="#b" transform="matrix(10 0 0 -10 24.398 127.38)"/><path stroke-width=".8" stroke-linejoin="round" fill="none" stroke="#000" d="M37.104 77.853h-3.5"/><use xlink:href="#d" transform="matrix(10 0 0 -10 14.928 81.65)"/><use xlink:href="#p" transform="matrix(10 0 0 -10 21.628 81.65)"/><use xlink:href="#g" transform="matrix(10 0 0 -10 24.508 81.78)"/><path stroke-width=".8" stroke-linejoin="round" fill="none" stroke="#000" d="M37.104 32.253h-3.5"/><use xlink:href="#e" transform="matrix(10 0 0 -10 14.958 36.18)"/><use xlink:href="#p" transform="matrix(10 0 0 -10 21.628 36.05)"/><use xlink:href="#b" transform="matrix(10 0 0 -10 24.398 36.18)"/><symbol id="q"><path transform="matrix(.001 0 0 .001 -.066 .013)" d="M535 705v-96c-38 18-73 31-106 40-34 8-66 13-96 13-54 0-96-11-125-31-29-21-43-51-43-89 0-32 9-57 29-73 19-17 56-30 110-40l60-12c73-14 127-39 162-74 35-36 53-83 53-142 0-71-24-124-71-160-48-36-117-54-208-54-35 0-72 4-111 11S110 16 69 32v102c40-23 79-40 117-51 38-12 76-17 114-17 56 0 99 11 130 33 30 22 46 53 46 95 0 36-11 64-33 84s-58 35-108 45l-60 12c-74 14-127 37-160 69-33 31-49 74-49 130 0 64 22 115 68 152 45 37 108 56 188 56 34 0 68-3 104-9 35-6 71-16 109-28z"/></symbol><symbol id="r"><path transform="matrix(.001 0 0 .001 -.091 .207)" d="M181 82v-289H91v754h90v-83c18 32 42 56 71 72s64 24 104 24c66 0 120-27 162-79 41-53 62-122 62-208s-21-156-62-208c-42-52-96-78-162-78-40 0-75 8-104 23s-53 39-71 72zm306 191c0 66-14 117-41 155-28 38-65 57-112 57-48 0-85-19-112-57-28-38-41-89-41-155s13-118 41-156c27-38 64-56 112-56 47 0 84 18 112 56 27 38 41 90 41 156z"/></symbol><symbol id="s"><path transform="matrix(.001 0 0 .001 -.055 .013)" d="M454 464v296h90V0h-90v82c-19-33-43-57-72-72s-63-23-103-23c-66 0-120 26-162 78S55 187 55 273s20 155 62 208c42 52 96 79 162 79 40 0 74-8 103-24s53-40 72-72zM148 273c0-66 13-118 40-156s64-56 112-56 85 18 113 56c27 38 41 90 41 156s-14 117-41 155c-28 38-65 57-113 57s-85-19-112-57-40-89-40-155z"/></symbol><symbol id="t"><path transform="matrix(.001 0 0 .001 0 .092)" d="M254 729h83L83-92H0l254 821z"/></symbol><use xlink:href="#q" transform="matrix(0 -10 -10 0 8.25 163.612)"/><use xlink:href="#r" transform="matrix(0 -10 -10 0 10.19 157.012)"/><use xlink:href="#k" transform="matrix(0 -10 -10 0 8.25 151.022)"/><use xlink:href="#k" transform="matrix(0 -10 -10 0 8.25 144.872)"/><use xlink:href="#s" transform="matrix(0 -10 -10 0 8.25 138.722)"/><use xlink:href="#l" transform="matrix(0 -10 -10 0 8.12 132.922)"/><use xlink:href="#m" transform="matrix(0 -10 -10 0 9.43 128.882)"/><use xlink:href="#j" transform="matrix(0 -10 -10 0 8.12 124.932)"/><use xlink:href="#t" transform="matrix(0 -10 -10 0 9.04 116.102)"/><use xlink:href="#n" transform="matrix(0 -10 -10 0 8.25 112.192)"/><use xlink:href="#o" transform="matrix(0 -10 -10 0 9.43 106.552)"/><clipPath id="u"><path transform="matrix(1 0 0 -1 -66 305)" d="M103.104 38.016h266.112v266.112H103.104z"/></clipPath><g clip-path="url(#u)"><path stroke-width="2.5" stroke-linecap="square" stroke-linejoin="round" fill="none" stroke="teal" d="m49.2 254.888.319-24.424 1.201-64.598 1.031-38.301.855-21.755 1.067-18.594.287-3.713 1.386-16.171 1.41-12.98.194-1.39.434-2.949 1.008-4.85.92-3.088.249-.455.226-.828.583-1.248.254-.728 1.751-3.223 1.391-1.42.462-.313.375-.277.346-.209 2.51-1.634 1.368-.385.374.034.19-.07h.281l.278-.102.097.032.17-.104.278-.071.199.001.462-.14.268-.001.203-.036.62-.1.47-.11.287.036.772.07.074-1.944.079.659.189 1.421.171 1.18.097.035.153-.105.207.624.282.175.208.104.264-.137.088.041.268-.248.48-.207 1.28-.9 1.114-.24.176.173.185.07h.194l.466.07 1.558-.069.092-.104.245.035.042-.035.19.07.092-.104.388.034.166.284.448-.249.208.104.578-.208.176.07.17-.07.393-.104h.148l.476.07.167.103.198.035.171-.07.268.416.305.034.393-.173.171-.035.259-.07.453-.069.092-.07.236.035.143-.104.449-.066.189-.04.568.035.176.034.37.105.453-.105.198.07.296-.035 1.733-.036.093-.104.18.07.453.518.573-.138.462.206.125.003.106.137.032-.068.924-.066.2-.003h.166l.092-.139.49.278.17.204.227-.135.236.139.097-.139.56.278.258-.14.55.278.25-.138.129.066.836-.273.268.07.139-.206.07.066.184-.07.093.07.161-.139.758-.07.07-.068.217.069.263-.139h.185l.273.004.092-.143.097.139.176-.07.245.14.046.207.097-.207.07.068.12-.138.073.076.093.06.467-.136.221.139.148-.07h.093l.18.208.088.004.101.205.079-.07.11.07.19-.07.093.14.088-.139h.166l.19.006.596.272.097-.21.055.07.36-.138.195.142.217.135.083-2.082.065.694.087.278.19 2.289.097-.07.231-.14.236.556.088.14h.17l.472-.07.499-.275h.074l.268-.276h.13l.156-.209.171-.207.18-.073.107.211.083-.07.19-.137h.106l.152-.14.287-.277h.384l.161.208.102-.138.102.07h.208l.069.068.166-.069.393.069.106-.207.074.07.185-.07.088-.14.097.21.453-.206.11.136.167-.14.093.21.097-.279.203.14.11.068.135.209.102.075.083-.148.12.073.083-.347.088.139.185-.208.185.069.281-.277.07-2.013.37 3.261.101-.07.102-.07.106-.277.18.555.573.347.231-.138.185-.07.111-.137.176.069 1.174-.693.12-.278.097-.063.199.201.189-.277.254.139.661-.413.176.204h.185l.175-.14.111.14.263-.07.287-.139.083.14.111-.14.088.14.083-.07.176.07.328-.07h.037l.305.138.259-.208.11.139.26-.208h.466l.176.207.29-.347.223.208.226-.138.494-.278.07.07.18-.209.088.138.092-.139.5.208.06-.068.092.068.18-.069h.675l.097-.136.259.066.268-.14.217.14.374-.212.171.211.287.277.064.069.134-.208.056.139.273-.347.281.207.097-.139.185.07.102-.138.11.068.061-.138h.125l.143.138.18.275.102.28.092-.069.37-.209.18.001.416-.069.157-.07.083-1.942.306 1.248.346.832.171.353.569.62.36-.139.102.07.282-.134.078-.003.254-.209h.042l.268.278.48-.488.07.073.938-.485.074.208.282-.07.277-.07.106.071.365-.139.167.205.101-.135.079.139.102-.07.097.208.092-.069.088.139.171-.139h.203l.079.139.365-.208.286.208.2-.139.364.145.425-.214.111.137h.102l.092-.137h.195l.466-.07.083-.139.088.07.268-.278.573.55.393-.065.532-.07.092-.069.097.07.088-.136.088.066h.545l.287-.209.277.07.596-.071.046-.069.093.138.087-.068.19.068.092-.066.116.067.263-.001.268.139.097-.001.084-.138.281.065.176-.066 1.391-.07.102-.07.305.208.258.145 1.48-.145.281.346.365-.07.199-.062.088.059.074-.135.106.07.19-.14.064.07.093-.138.198.068.084-.138.087.069.296-.065.185-.004h.457l.093-.138.185.138.554-.07h.744l.079-.134.102.067h.18l.462.137.18-.07.148.147.05-.08.181-.066.892.07.028-1.943.383 1.664.19.347.203.416.328.492.462-.004.097.07.194-.069.18.208.08-.138.12.14.161-.205.291.066.097-.57.167.45.208-.026.17-.5.463-2.052.402-1.897.236-1.645.84-3.064.088-.026.176.078.416.464.236.675.425.96.305 1.799.383 1.757.407 2.252.864 4.455.698 2.798 1.11 3.475.23.111.43.727.152.537.389.247.087-.005.255-.505.471.451.18.03.19-.117.19-.038.498-.521.55-1.12.199-.212 1.516-2.824 2.343-4.992.984-1.222.097.02.305-.386.083-.019.079-.225.074.106.356-.112.18.057.72-.22.153-.138.49-.918.18-.044.111-.217.074.054.093.04.11.177.098-.081.087.17.273-.134.166.142.074-.102.097.11.26-.117.295-.119.287-.062.092.073.194-.173.222.063.13-.171.124.099.208-.244.097.084.074-.106.522.17.102-.107.208.059.48-.48.088.07.051-.108.06.082.37.438.185-.09.832.13.258.123.194-.018.472.046.282-.133.272.014.097.04.185-.175.18-.054.18-.088.098.067.282-.115.6-.136.26.167.313-.155.389.139.217-.089.157.066.578-.271.161.193.638-.239.088.189.102-.061.092.188.194-.15.324-.184.069.156.07-.09.087-.127.102.13.078-.13.924.077.098.244.365-.307.134-.033.235.25 1.304-.339.457.155h.097l.097-.155.171.216.31-.183.212.183.06-.122.084.065.263-.065.642.245.097.1.093-.165.12.126.254-.155.273-.094.092.094.217-.188.435.465 1.488-.005.074.189.212-.1.065.006.199-.128.185.095.185-.095.092.156.176-1.813.138-.333.056.28.217-.603.041-.863.245-1.55.509-5.468.194-1.52.37-2.606.526-2.01.384-1.016.282.04.277.62.074.226.143-.053.523 1.36.49 2 .064.47.213.4.245 2.066 1.788 10.802.06.691.18.66.268 2.636.85 6.283.366 2.871 1.839 10.966.934 1.43.194-.23.92-2.12.771-3.59.62-3.724.253-1.483 1.128-5.482.199-.583.092.171.185-.749.166-.707.222-.234.148-.235.208-.186.157-.32.693-1 .056-.002.185-.324.097-.087.07-.222.152-.087.143-.343.101-.33.12-.005.246-.715.101.054.721-1.049.171-.145.435-.38.06.073.25-.271.863.074.148.105.296-.085.106.1.167-.147.17.05.185-.09.444-.165.157.05.065-.064.115.122.426-.45.143.035.148-.336.097.034.199-.21.822-.558.171-.304.097-.199.083.086.102-.265.467.04.185-.12.097.014.35-.258.2.007.078-.132.093.07.757-.267.176.059.185.07.735.214.37.014.078.13.194-.03.134-.081.046.195.481-.284.176.046.198.391.171.045.093.06.078-.152.194.042.31.033.055.128.097-.074.37.292.18-.016.084-.14.212.049.079-.15.573.208.11-.161.056.139.102-.091.305.226.342-.068.166.024.12-.075.065.106.277-.122.111.056.088-.159.194.174.07-.083.194.173.915-.067.124.047.453-.175.633-.205.185-.16.217.06.472.039.097-.13.05.053 1.207-.445.272.115.185-.008.102.068.36-.153.416.146.25-.024.102-1.938.531 3.256.083-.215.291.766.093-.084.365.3.564-.184.305-.13.143-.138.106.012.194-.15.153-.19.323-.276.143.069.407-.13.051.076.194-.138 1.234-.13.102-.122.097.138.05-.138.18.207 2.136-.039.083-.076.476.207.43-.269.3.054.176-.13.19-.005.355-.003.106-.153.097.145h.218l.235.413.305.055h.338l.222-.138.064.13.093-.138.66.88.255-.137.101.069.453-.292.102.138.185-.13.411.2.05-.147.075.062.402.275.17-.145h.075l.101-.146.222.06.157-.137.18-.055.19.185.582-.077.074-1.824.088.56 1.086 2.42.111-.085.356.154.24-.138.43.008.092-.199.088.06.305.004.157-.21h.074l.204-.138.277-.138.083.061.19-.001.29-.205.255.198.106-.215.083.07.24-.07h.042l.217.276.2-.146.1.138.052-.13.545.268 1.03.008.268-.138.167.003.319.119.138-.207.093.207.199-.07.272.009.051-1.895.037.68.291.623.079.069.503 1.188.139.077.277.223.088-.154.102.154.19-.077.41.085.153-.131.268-.076h.19l.184-.199.171-.068.204-.017.097-.137.074.068.365-.085.282-.206.18.069.199-.146.379-.07.66-.024.07.138.088-.077.203.08 2.412-.405.171.344.102.199.083-.061.083-.094.37.215.351.069.208-.138.18-.069.18.07.08-.139.133.06.051-.137.291.198.18.345.393-.069.083-.069.074.198.37-.215.143.078.051-.138.19.13h.19l.12-.139.055.07.12.051.065-.206.078.085.208-.008.176.13.282-.078.087-.069.093.138.101-.207.097.06.162-.14.199.132.226-.069h.144l.101-.146.093.077.222-.06.78-.163.31.129H284.211l.093-.146.448.275.092.201.093-.063.771-.018.07-.206.088.136.074-.13.092.063.088-.086.37.43.115-.146.092.069.093-.147.097.147.078-.07.56-.154.277-.07.088.07.19-.138.36-.086.143-.07.231.147.841-.035.185.018.185-.095.078.224.102-.078.287.213.207-.153.074.138.06-.129.287.275"/></g><clipPath id="v"><path transform="matrix(1 0 0 -1 -66 305)" d="M103.104 38.016h266.112v266.112H103.104z"/></clipPath><g clip-path="url(#v)"><path stroke-width="2.5" stroke-dasharray="9.25,4" stroke-linejoin="round" fill="none" stroke="red" d="M49.2 32.253h241.92"/></g><path stroke-width=".8" stroke-linecap="square" stroke-miterlimit="10" fill="none" stroke="#000" d="M37.104 266.984V.872M303.216 266.984V.872M37.104 266.984h266.112M37.104.872h266.112"/><path d="M167.372 261.984h128.844c1.333 0 2-.667 2-2V231.64c0-1.333-.667-2-2-2H167.372c-1.333 0-2 .667-2 2v28.344c0 1.333.667 2 2 2z" fill="#fff" fill-opacity=".8"/><path stroke-miterlimit="10" fill="none" stroke="#d5d6d5" stroke-opacity=".8" d="M167.372 261.984h128.844c1.333 0 2-.667 2-2V231.64c0-1.333-.667-2-2-2H167.372c-1.333 0-2 .667-2 2v28.344c0 1.333.667 2 2 2z"/><path stroke-width="2.5" stroke-linecap="square" stroke-linejoin="round" fill="none" stroke="teal" d="M169.372 237.734h20"/><symbol id="w"><path transform="matrix(.001 0 0 .001 -.056 .013)" d="M644 673V569c-34 30-69 53-107 69-38 15-77 23-119 23-84 0-148-26-192-77s-66-124-66-220 22-170 66-221 108-76 192-76c42 0 81 7 119 23 38 15 73 38 107 69V56c-35-24-72-41-110-52s-79-17-122-17C302-13 215 20 151 87S56 246 56 364c0 117 31 209 95 277 64 67 151 101 261 101 44 0 85-6 123-17 38-12 75-29 109-52z"/></symbol><symbol id="x"><path transform="matrix(.001 0 0 .001 -.085 .013)" d="M85 216v331h90V219c0-52 10-90 30-116s50-39 91-39c48 0 87 15 115 46s42 73 42 127v310h90V0h-90v84c-22-34-48-58-76-74-29-15-62-23-100-23-63 0-111 19-143 58-33 38-49 95-49 171zm226 344z"/></symbol><symbol id="y"><path transform="translate(-.091) scale(.001)" d="M411 463c-10 6-21 10-33 13-12 2-25 4-39 4-51 0-90-17-117-50-28-33-41-80-41-142V0H91v547h90v-85c18 33 43 58 73 74s67 24 111 24c6 0 13-1 21-1 7-1 15-2 25-4v-92z"/></symbol><symbol id="z"><path transform="translate(-.091) scale(.001)" d="M549 330V0h-90v327c0 52-11 90-31 116s-50 39-90 39c-49 0-87-16-115-47s-42-73-42-126V0H91v547h90v-85c21 32 46 57 76 73 29 16 63 25 101 25 62 0 110-20 142-59s49-96 49-171z"/></symbol><symbol id="A"><path transform="translate(-.027) scale(.001)" d="M183 702V547h185v-70H183V180c0-45 6-74 18-86 12-13 37-19 75-19h92V0h-92c-70 0-118 13-144 39s-39 73-39 141v297H27v70h66v155h90z"/></symbol><symbol id="B"><path transform="matrix(.001 0 0 .001 -.086 .131)" d="M310 759c-44-76-76-150-97-223-22-73-32-147-32-222 0-76 10-150 32-223 21-74 53-147 97-222h-78C183-54 146 20 122 94S86 241 86 314c0 72 12 145 36 219s60 149 110 226h78z"/></symbol><symbol id="C"><path transform="matrix(.001 0 0 .001 -.056 .013)" d="M394 662c-72 0-129-27-171-80-42-54-63-126-63-218s21-165 63-218c42-54 99-80 171-80 71 0 128 26 170 80 42 53 63 126 63 218s-21 164-63 218c-42 53-99 80-170 80zm0 80c102 0 183-35 245-103 61-68 92-160 92-275 0-116-31-207-92-275C577 21 496-13 394-13 291-13 209 21 148 89c-62 68-92 159-92 275 0 115 30 207 92 275 61 68 143 103 246 103z"/></symbol><symbol id="D"><path transform="matrix(.001 0 0 .001 -.08 .131)" d="M80 759h78c48-77 85-152 109-226s37-147 37-219c0-73-13-146-37-220S206-54 158-131H80c43 75 75 148 97 222 21 73 32 147 32 223 0 75-11 149-32 222-22 73-54 147-97 223z"/></symbol><use xlink:href="#w" transform="matrix(10 0 0 -10 197.932 241.364)"/><use xlink:href="#x" transform="matrix(10 0 0 -10 205.202 241.364)"/><use xlink:href="#y" transform="matrix(10 0 0 -10 211.602 241.234)"/><use xlink:href="#y" transform="matrix(10 0 0 -10 215.54 241.234)"/><use xlink:href="#k" transform="matrix(10 0 0 -10 219.072 241.364)"/><use xlink:href="#z" transform="matrix(10 0 0 -10 225.582 241.234)"/><use xlink:href="#A" transform="matrix(10 0 0 -10 231.282 241.234)"/><use xlink:href="#l" transform="matrix(10 0 0 -10 234.932 241.234)"/><use xlink:href="#n" transform="matrix(10 0 0 -10 238.652 241.364)"/><use xlink:href="#r" transform="matrix(10 0 0 -10 244.232 243.304)"/><use xlink:href="#k" transform="matrix(10 0 0 -10 250.222 241.364)"/><use xlink:href="#k" transform="matrix(10 0 0 -10 256.372 241.364)"/><use xlink:href="#s" transform="matrix(10 0 0 -10 262.522 241.364)"/><use xlink:href="#l" transform="matrix(10 0 0 -10 268.322 241.234)"/><use xlink:href="#B" transform="matrix(10 0 0 -10 272.362 242.544)"/><use xlink:href="#C" transform="matrix(10 0 0 -10 275.962 241.364)"/><use xlink:href="#q" transform="matrix(10 0 0 -10 283.932 241.364)"/><use xlink:href="#D" transform="matrix(10 0 0 -10 290.422 242.544)"/><path stroke-width="2.5" stroke-dasharray="9.25,4" stroke-linejoin="round" fill="none" stroke="red" d="M169.372 252.406h20"/><symbol id="E"><path transform="translate(-.098) scale(.001)" d="M197 648V81h119c100 0 174 22 221 68 46 46 70 118 70 216s-24 169-70 215c-47 45-121 68-221 68H197zm-99 81h203c141 0 245-30 311-88 66-59 99-151 99-276 0-126-34-218-100-277S441 0 301 0H98v729z"/></symbol><use xlink:href="#E" transform="matrix(10 0 0 -10 198.352 255.906)"/><use xlink:href="#k" transform="matrix(10 0 0 -10 205.622 256.036)"/><use xlink:href="#n" transform="matrix(10 0 0 -10 211.762 256.036)"/><use xlink:href="#i" transform="matrix(10 0 0 -10 217.372 255.906)"/><use xlink:href="#y" transform="matrix(10 0 0 -10 220.122 255.906)"/><use xlink:href="#k" transform="matrix(10 0 0 -10 223.654 256.036)"/><use xlink:href="#s" transform="matrix(10 0 0 -10 229.804 256.036)"/><use xlink:href="#l" transform="matrix(10 0 0 -10 235.604 255.906)"/><use xlink:href="#n" transform="matrix(10 0 0 -10 239.323 256.036)"/><use xlink:href="#r" transform="matrix(10 0 0 -10 244.904 257.976)"/><use xlink:href="#k" transform="matrix(10 0 0 -10 250.894 256.036)"/><use xlink:href="#k" transform="matrix(10 0 0 -10 257.043 256.036)"/><use xlink:href="#s" transform="matrix(10 0 0 -10 263.193 256.036)"/><use xlink:href="#l" transform="matrix(10 0 0 -10 268.993 255.906)"/><use xlink:href="#B" transform="matrix(10 0 0 -10 273.034 257.216)"/><use xlink:href="#C" transform="matrix(10 0 0 -10 276.634 256.036)"/><use xlink:href="#q" transform="matrix(10 0 0 -10 284.604 256.036)"/><use xlink:href="#D" transform="matrix(10 0 0 -10 291.094 257.216)"/></g></svg>