<svg xmlns="http://www.w3.org/2000/svg" xmlns:xlink="http://www.w3.org/1999/xlink" width="733pt" height="386pt" viewBox="0 0 733 386"><clipPath id="a"><path transform="matrix(1 0 0 -1 -30 413)" d="M0 0h793.7v446.457H0z"/></clipPath><g clip-path="url(#a)"><clipPath id="b"><path transform="matrix(1 0 0 -1 -30 413)" d="M0 .028h793.672v446.428H0z" fill-rule="evenodd"/></clipPath><g clip-path="url(#b)"><path d="M-30-33.456h793.672v446.428H-30V-33.456z" fill="#fff" fill-rule="evenodd"/><path stroke-width="4.507" stroke-linejoin="round" fill="none" stroke="#3465a4" d="M338.504 193.316h42.463"/><path d="m379.946 185.69 15.251 7.626-15.251 7.625V185.69z" fill="#3465a4" fill-rule="evenodd"/></g><clipPath id="c"><path transform="matrix(1 0 0 -1 -30 413)" d="M28.346 15.618h325.955v409.464H28.346z" fill-rule="evenodd"/></clipPath><g clip-path="url(#c)"><path d="M-224.542 443.983h753.874V-58.684h-753.874v502.667z" fill="#fff" fill-rule="evenodd"/><path d="M1.606 381.139h320.429V1.637H1.606v379.502z" fill="#fff" fill-rule="evenodd"/><path d="m74.683 354.125 16.611 2.92 5.868-33.222-16.611-2.92-5.868 33.222z" fill="#00f" fill-rule="evenodd"/><path stroke-width="1.745" stroke-miterlimit="3.864" fill="none" stroke="#000" d="m74.683 354.125 16.611 2.92 5.868-33.222-16.611-2.92-5.868 33.222z"/></g><clipPath id="d"><path transform="matrix(1 0 0 -1 -30 413)" d="M114.617 72.713h237.417v338.646H114.617z" fill-rule="evenodd"/></clipPath><g clip-path="url(#d)"><path stroke-width="2.618" stroke-linecap="square" stroke-linejoin="round" fill="none" stroke="#d3d3d3" d="M229.512-60.413 85.937 338.988 506.315-60.413"/></g><clipPath id="e"><path transform="matrix(1 0 0 -1 -30 413)" d="M67.074 55.407h284.961v355.952H67.074z" fill-rule="evenodd"/></clipPath><g clip-path="url(#e)"><path stroke-width="2.618" stroke-linecap="square" stroke-linejoin="round" fill="none" stroke="salmon" d="M188.211-60.413 38.372 356.279 477.005-60.413"/></g><clipPath id="f"><path transform="matrix(1 0 0 -1 -30 413)" d="M161.415 161.206h190.619v250.153H161.415z" fill-rule="evenodd"/></clipPath><g clip-path="url(#f)"><path stroke-width="2.618" stroke-linecap="square" stroke-linejoin="round" fill="none" stroke="gray" d="m229.512-60.413-87.988 244.771-8.787 49.833 4.309 11.906 24.916 4.393 27.723-10.091 316.63-300.812"/></g><clipPath id="g"><path transform="matrix(1 0 0 -1 -30 413)" d="M162.724 162.515h189.31v248.844h-189.31z" fill-rule="evenodd"/></clipPath><g clip-path="url(#g)"><path d="M2865.109-7391.317 141.524 184.358l-8.787 49.833 4.309 11.906 24.916 4.393 27.723-10.091 5084.787-4830.86-2409.363-2800.856z" fill="#d3d3d3" fill-rule="evenodd"/></g><clipPath id="h"><path transform="matrix(1 0 0 -1 -30 413)" d="M113.872 143.9h238.163v267.459H113.872z" fill-rule="evenodd"/></clipPath><g clip-path="url(#h)"><path stroke-width="2.618" stroke-linecap="square" stroke-linejoin="round" fill="none" stroke="red" d="M188.211-60.413 93.959 201.678l-8.787 49.833 4.337 11.877 24.916 4.394 27.723-10.092L477.005-60.413"/></g><clipPath id="i"><path transform="matrix(1 0 0 -1 -30 413)" d="M115.181 145.209h236.854v266.15H115.181z" fill-rule="evenodd"/></clipPath><g clip-path="url(#i)"><path d="M594.217-1189.765 93.959 201.678l-8.787 49.833 4.337 11.877 24.916 4.394 27.723-10.092 933.931-887.3-481.862-560.155z" fill="salmon" fill-rule="evenodd"/></g><clipPath id="j"><path transform="matrix(1 0 0 -1 -30 413)" d="M28.346 15.618h325.955v409.464H28.346z" fill-rule="evenodd"/></clipPath><g clip-path="url(#j)"><path d="m293.461 141.81 17.575-99.666-8.645-23.783-49.834-8.787-55.474 20.183-17.574 99.666 8.674 23.782 49.804 8.788 55.474-20.183z" fill="#ff0" fill-rule="evenodd"/><path stroke-width="1.745" stroke-miterlimit="3.864" fill="none" stroke="#000" d="m293.461 141.81 17.575-99.666-8.645-23.783-49.834-8.787-55.474 20.183-17.574 99.666 8.674 23.782 49.804 8.788 55.474-20.183z"/><path d="m201.987 99.149 8.646 23.754 16.611 2.948 55.474-20.211 5.868-33.222-8.674-23.754-16.611-2.948-55.446 20.211-5.868 33.222z" fill="orange" fill-rule="evenodd"/><path stroke-width="1.745" stroke-miterlimit="3.864" fill="none" stroke="#000" d="m201.987 99.149 8.646 23.754 16.611 2.948 55.474-20.211 5.868-33.222-8.674-23.754-16.611-2.948-55.446 20.211-5.868 33.222z"/><path d="m213.213 83.983 8.674 23.783 55.445-20.183-8.645-23.782-55.474 20.182z" fill="red" fill-rule="evenodd"/><path stroke-width="1.745" stroke-miterlimit="3.864" fill="none" stroke="#000" d="m213.213 83.983 8.674 23.783 55.445-20.183-8.645-23.782-55.474 20.182z"/><path d="M85.937 339.952a.99.99 0 0 0 .68-.284.99.99 0 0 0 .284-.68c0-.255-.114-.51-.284-.709a.99.99 0 0 0-.68-.283c-.255 0-.51.113-.709.283a1.12 1.12 0 0 0-.283.709c0 .255.113.51.283.68.199.17.454.284.709.284z" fill-rule="evenodd"/><path stroke-width="1.745" stroke-linejoin="round" fill="none" stroke="#000" d="M85.937 339.952a.99.99 0 0 0 .68-.284.99.99 0 0 0 .284-.68c0-.255-.114-.51-.284-.709a.99.99 0 0 0-.68-.283c-.255 0-.51.113-.709.283a1.12 1.12 0 0 0-.283.709c0 .255.113.51.283.68.199.17.454.284.709.284z"/><path d="M245.272 86.761c.256 0 .511-.113.709-.283.17-.199.284-.425.284-.68 0-.284-.114-.511-.284-.709a1.118 1.118 0 0 0-.709-.284.99.99 0 0 0-.68.284c-.17.198-.283.425-.283.709 0 .255.113.481.283.68a.99.99 0 0 0 .68.283z" fill-rule="evenodd"/><path stroke-width="1.745" stroke-linejoin="round" fill="none" stroke="#000" d="M245.272 86.761c.256 0 .511-.113.709-.283.17-.199.284-.425.284-.68 0-.284-.114-.511-.284-.709a1.118 1.118 0 0 0-.709-.284.99.99 0 0 0-.68.284c-.17.198-.283.425-.283.709 0 .255.113.481.283.68a.99.99 0 0 0 .68.283z"/><path d="m131.773 281.87-3.486-.85 13.974-9.185-6.633 15.364-1.417-3.288-47.055 56.098-2.466-2.07 47.083-56.069z" fill="purple" fill-rule="evenodd"/><path d="m90.643 303.073-3.459 1.021 7.54-14.939 1.928 16.611-2.863-2.126-6.293 35.603-3.146-.538 6.293-35.632zM211.824 99.659l2.607 2.466-16.696.964 13.408-10.006-.397 3.571 33.988-12.387 1.105 3.033-34.015 12.359z" fill-rule="evenodd"/><path d="m45.572 354.55 1.332 1.248-8.532.481 6.859-5.102-.226 1.814 40.649-14.768.538 1.53-40.62 14.797z" fill="red" fill-rule="evenodd"/><path stroke-width="1.396" stroke-linecap="square" stroke-miterlimit="3.864" fill="none" stroke="#000" d="M1.606 381.139V1.637M322.035 381.139V1.637M1.606 381.139h320.429M1.606 1.637h320.429"/><symbol id="k"><path d="M.128 0 0 .729h.097L.203.102.557.73h.107L.243 0H.128z"/></symbol><use xlink:href="#k" transform="matrix(17.45099 0 0 -17.453 156.347 287.685)" fill="purple"/><symbol id="l"><path d="M.416.676a.26.26 0 0 1-.143-.04.33.33 0 0 1-.108-.119.463.463 0 0 1-.06-.225.23.23 0 0 1 .048-.157A.174.174 0 0 1 .291.08c.053 0 .1.013.143.04A.327.327 0 0 1 .54.238a.478.478 0 0 1 .061.226c0 .068-.016.12-.049.157a.173.173 0 0 1-.137.055M.288 0a.28.28 0 0 0-.211.08A.3.3 0 0 0 0 .297a.504.504 0 0 0 .113.309.374.374 0 0 0 .306.15c.09 0 .16-.026.21-.079A.293.293 0 0 0 .708.462.482.482 0 0 0 .594.15.373.373 0 0 0 .288 0z"/></symbol><symbol id="m"><path d="M.597.72.578.622a.466.466 0 0 1-.192.053.232.232 0 0 1-.14-.038.121.121 0 0 1-.053-.103C.193.512.2.494.213.481a.272.272 0 0 1 .099-.04l.06-.015A.302.302 0 0 0 .51.36.152.152 0 0 0 .55.25a.22.22 0 0 0-.088-.18A.354.354 0 0 0 .234 0 .594.594 0 0 0 0 .046l.02.102a.478.478 0 0 1 .108-.05.363.363 0 0 1 .11-.018c.06 0 .11.014.147.041a.127.127 0 0 1 .056.107c0 .03-.008.051-.023.066C.404.31.372.324.323.336L.264.35a.34.34 0 0 0-.138.06.127.127 0 0 0-.037.097c0 .073.028.132.084.179a.33.33 0 0 0 .218.07.58.58 0 0 0 .206-.038z"/></symbol><use xlink:href="#l" transform="matrix(12.2156 0 0 -12.217 167.69 291.348)" fill="purple"/><use xlink:href="#m" transform="matrix(12.2156 0 0 -12.217 177.74 291.348)" fill="purple"/><use xlink:href="#k" transform="matrix(17.45099 0 0 -17.453 206.955 287.685)" fill="purple"/><symbol id="n"><path d="M.016.729h.617L.617.646h-.26L.232 0h-.1l.126.646H0l.016.083z"/></symbol><use xlink:href="#n" transform="matrix(12.2156 0 0 -12.217 218.333 291.175)" fill="purple"/><use xlink:href="#m" transform="matrix(12.2156 0 0 -12.217 224.867 291.348)" fill="purple"/><path d="M189.94 281.275h10.914v1.445H189.94v-1.445z" fill="purple" fill-rule="evenodd"/><use xlink:href="#k" transform="matrix(17.45099 0 0 -17.453 20.227 367.97)" fill="red"/><use xlink:href="#n" transform="matrix(12.2156 0 0 -12.217 31.605 369.715)" fill="red"/><use xlink:href="#m" transform="matrix(12.2156 0 0 -12.217 38.139 369.888)" fill="red"/><symbol id="o"><path d="M.278 0 0 .729h.103L.334.115.565.73h.103L.39 0H.278z"/></symbol><symbol id="p"><path d="M.338.676a.207.207 0 0 1-.171-.08.344.344 0 0 1-.063-.218C.104.286.125.214.167.16c.042-.053.1-.08.17-.08.073 0 .13.027.17.08a.343.343 0 0 1 .064.218.344.344 0 0 1-.063.218.204.204 0 0 1-.17.08m0 .08A.312.312 0 0 0 .583.653.398.398 0 0 0 .675.378.399.399 0 0 0 .583.103.313.313 0 0 0 .338 0a.315.315 0 0 0-.246.103A.398.398 0 0 0 0 .378c0 .115.03.207.092.275a.314.314 0 0 0 .246.103z"/></symbol><use xlink:href="#o" transform="matrix(17.45099 0 0 -17.453 123.707 212.636)" fill="red"/><use xlink:href="#p" transform="matrix(17.45099 0 0 -17.453 136.714 212.883)" fill="red"/><symbol id="q"><path d="M.47.72V.622a.608.608 0 0 1-.107.04.375.375 0 0 1-.096.013.213.213 0 0 1-.124-.031.103.103 0 0 1-.044-.089C.1.524.11.5.128.483a.256.256 0 0 1 .11-.04l.06-.012A.302.302 0 0 0 .46.357.191.191 0 0 0 .513.215C.513.145.49.091.442.055A.336.336 0 0 0 .234 0a.564.564 0 0 0-.11.012.822.822 0 0 0-.121.034v.102c.04-.023.08-.04.118-.05A.397.397 0 0 1 .234.08c.056 0 .1.011.13.033A.11.11 0 0 1 .41.208a.108.108 0 0 1-.033.084.225.225 0 0 1-.108.045L.209.35a.322.322 0 0 0-.16.069.171.171 0 0 0-.049.13c0 .065.023.116.068.153a.29.29 0 0 0 .188.055A.608.608 0 0 0 .469.72z"/></symbol><use xlink:href="#p" transform="matrix(17.45099 0 0 -17.453 103.61 343.782)"/><use xlink:href="#q" transform="matrix(17.45099 0 0 -17.453 117.689 343.782)"/><use xlink:href="#k" transform="matrix(17.45099 0 0 -17.453 69.09 285.939)"/><use xlink:href="#l" transform="matrix(12.2156 0 0 -12.217 80.432 287.858)"/><use xlink:href="#m" transform="matrix(12.2156 0 0 -12.217 90.483 287.858)"/><use xlink:href="#k" transform="matrix(17.45099 0 0 -17.453 172.053 109.661)"/><use xlink:href="#n" transform="matrix(12.2156 0 0 -12.217 183.43 113.152)"/><use xlink:href="#m" transform="matrix(12.2156 0 0 -12.217 189.965 113.325)"/></g><clipPath id="r"><path transform="matrix(1 0 0 -1 -30 413)" d="M439.37 19.842h325.955v406.771H439.37z" fill-rule="evenodd"/></clipPath><g clip-path="url(#r)"><path d="M183.194 445.542h755.603V-58.117H183.194v503.659z" fill="#fff" fill-rule="evenodd"/><path d="M409.852 382.585h321.165V2.317H409.852v380.268z" fill="#fff" fill-rule="evenodd"/><path d="m483.128 355.514 16.639 2.948 5.868-33.307-16.64-2.92-5.867 33.279z" fill="#00f" fill-rule="evenodd"/><path stroke-width="1.749" stroke-miterlimit="3.864" fill="none" stroke="#000" d="m483.128 355.514 16.639 2.948 5.868-33.307-16.64-2.92-5.867 33.279z"/></g><clipPath id="s"><path transform="matrix(1 0 0 -1 -30 413)" d="M490.546 131.121H761.02v279.56H490.546z" fill-rule="evenodd"/></clipPath><g clip-path="url(#s)"><path stroke-width="2.624" stroke-linecap="square" stroke-linejoin="round" fill="none" stroke="red" d="M569.272-59.875 470.655 214.32l-8.787 49.947 4.337 11.905 24.973 4.394 27.779-10.12L866.74-59.875"/></g><clipPath id="t"><path transform="matrix(1 0 0 -1 -30 413)" d="M491.858 132.432H761.02v278.249H491.858z" fill-rule="evenodd"/></clipPath><g clip-path="url(#t)"><path d="M972.047-1179.928 470.655 214.32l-8.787 49.947 4.337 11.905 24.973 4.394 27.779-10.12 936.086-889.086-482.996-561.288z" fill="salmon" fill-rule="evenodd"/></g><clipPath id="u"><path transform="matrix(1 0 0 -1 -30 413)" d="M439.37 19.842h325.955v406.771H439.37z" fill-rule="evenodd"/></clipPath><g clip-path="url(#u)"><path d="m702.387 142.774 17.604-99.865-8.674-23.839-49.919-8.787-55.615 20.211-17.603 99.864 8.674 23.84 49.946 8.787 55.587-20.211z" fill="#ff0" fill-rule="evenodd"/><path stroke-width="1.749" stroke-miterlimit="3.864" fill="none" stroke="#000" d="m702.387 142.774 17.604-99.865-8.674-23.839-49.919-8.787-55.615 20.211-17.603 99.864 8.674 23.84 49.946 8.787 55.587-20.211z"/><path d="m610.687 100.027 8.674 23.811 16.667 2.92 55.588-20.211 5.867-33.307-8.674-23.811-16.639-2.948-55.587 20.239-5.896 33.307z" fill="orange" fill-rule="evenodd"/><path stroke-width="1.749" stroke-miterlimit="3.864" fill="none" stroke="#000" d="m610.687 100.027 8.674 23.811 16.667 2.92 55.588-20.211 5.867-33.307-8.674-23.811-16.639-2.948-55.587 20.239-5.896 33.307z"/><path d="m621.969 84.834 8.674 23.839 55.587-20.239-8.674-23.84-55.587 20.24z" fill="red" fill-rule="evenodd"/><path stroke-width="1.749" stroke-miterlimit="3.864" fill="none" stroke="#000" d="m621.969 84.834 8.674 23.839 55.587-20.239-8.674-23.84-55.587 20.24z"/><path d="M494.381 341.313a.99.99 0 0 0 .68-.284c.199-.17.284-.425.284-.68a.938.938 0 0 0-.284-.709.99.99 0 0 0-.68-.283c-.255 0-.51.113-.709.283-.17.198-.283.425-.283.709 0 .255.113.51.283.68.199.17.454.284.709.284z" fill-rule="evenodd"/><path stroke-width="1.749" stroke-linejoin="round" fill="none" stroke="#000" d="M494.381 341.313a.99.99 0 0 0 .68-.284c.199-.17.284-.425.284-.68a.938.938 0 0 0-.284-.709.99.99 0 0 0-.68-.283c-.255 0-.51.113-.709.283-.17.198-.283.425-.283.709 0 .255.113.51.283.68.199.17.454.284.709.284z"/><path d="M654.085 87.612c.255 0 .51-.114.709-.284.17-.198.283-.425.283-.708 0-.256-.113-.482-.283-.681a1.12 1.12 0 0 0-.709-.283.99.99 0 0 0-.68.283.92.92 0 0 0-.284.681c0 .283.085.51.284.708a.99.99 0 0 0 .68.284z" fill-rule="evenodd"/><path stroke-width="1.749" stroke-linejoin="round" fill="none" stroke="#000" d="M654.085 87.612c.255 0 .51-.114.709-.284.17-.198.283-.425.283-.708 0-.256-.113-.482-.283-.681a1.12 1.12 0 0 0-.709-.283.99.99 0 0 0-.68.283.92.92 0 0 0-.284.681c0 .283.085.51.284.708a.99.99 0 0 0 .68.284z"/><path d="m499.087 304.349-3.43 1.02 7.512-14.967 1.955 16.64-2.863-2.126-6.292 35.688-3.175-.539 6.293-35.716zM588.803 112.103l2.608 2.466-16.753.964 13.465-10.006-.425 3.543 65.848-23.953 1.106 3.033-65.849 23.953z" fill-rule="evenodd"/><path stroke-width="1.399" stroke-linecap="square" stroke-miterlimit="3.864" fill="none" stroke="#000" d="M409.852 382.585V2.317M731.017 382.585V2.317M409.852 382.585h321.165M409.852 2.317h321.165"/><use xlink:href="#o" transform="matrix(17.49156 0 0 -17.489 510.612 213.133)" fill="red"/><use xlink:href="#p" transform="matrix(17.49156 0 0 -17.489 523.684 213.38)" fill="red"/><use xlink:href="#p" transform="matrix(17.49156 0 0 -17.489 511.457 344.545)"/><use xlink:href="#q" transform="matrix(17.49156 0 0 -17.489 525.586 344.545)"/><use xlink:href="#k" transform="matrix(17.49156 0 0 -17.489 504.846 288.333)"/><use xlink:href="#l" transform="matrix(12.2438 0 0 -12.242 516.213 292.004)"/><use xlink:href="#m" transform="matrix(12.2438 0 0 -12.242 526.312 292.004)"/><use xlink:href="#k" transform="matrix(17.49156 0 0 -17.489 548.573 122.192)"/><use xlink:href="#n" transform="matrix(12.2438 0 0 -12.242 559.976 125.69)"/><use xlink:href="#m" transform="matrix(12.2438 0 0 -12.242 566.537 125.863)"/></g></g></svg>