<svg xmlns="http://www.w3.org/2000/svg" xmlns:xlink="http://www.w3.org/1999/xlink" width="646pt" height="385pt" viewBox="0 0 646 385"><clipPath id="a"><path transform="matrix(1 0 0 -1 -34 385)" d="M0 0h680v385H0z"/></clipPath><g clip-path="url(#a)"><clipPath id="b"><path transform="matrix(1 0 0 -1 -73 412)" d="M0 0h793.7v446.457H0z"/></clipPath><g clip-path="url(#b)"><clipPath id="c"><path transform="matrix(1 0 0 -1 -73 412)" d="M0 .028h793.672v446.428H0z" fill-rule="evenodd"/></clipPath><g clip-path="url(#c)"><path d="M-73-34.456h793.672v446.428H-73V-34.456z" fill="#fff" fill-rule="evenodd"/><path stroke-width="4.507" stroke-linejoin="round" fill="none" stroke="#3465a4" d="M295.504 178.142h42.463"/><path d="m336.946 170.517 15.251 7.625-15.251 7.626v-15.251z" fill="#3465a4" fill-rule="evenodd"/></g><clipPath id="d"><path transform="matrix(1 0 0 -1 -73 412)" d="M70.866 14.626H354.33V424.09H70.866z" fill-rule="evenodd"/></clipPath><g clip-path="url(#d)"><path d="M-253.369 443.975h753.903V-58.692h-753.903v502.667z" fill="#fff" fill-rule="evenodd"/><path d="M2.288 381.131h261.411V1.629H2.288v379.502z" fill="#fff" fill-rule="evenodd"/><path d="m16.348 354.117 16.611 2.92 5.868-33.222-16.611-2.92-5.868 33.222z" fill="#00f" fill-rule="evenodd"/><path stroke-width="1.745" stroke-miterlimit="3.864" fill="none" stroke="#000" d="m16.348 354.117 16.611 2.92 5.868-33.222-16.611-2.92-5.868 33.222z"/></g><clipPath id="e"><path transform="matrix(1 0 0 -1 -73 412)" d="M99.278 71.721h237.42v338.646H99.278z" fill-rule="evenodd"/></clipPath><g clip-path="url(#e)"><path stroke-width="2.618" stroke-linecap="square" stroke-linejoin="round" fill="none" stroke="gray" d="M171.176-60.421 27.573 338.98 447.98-60.421"/></g><clipPath id="f"><path transform="matrix(1 0 0 -1 -73 412)" d="M100.586 73.03h236.111v337.337H100.586z" fill-rule="evenodd"/></clipPath><g clip-path="url(#f)"><path d="M583.419-1207.092 27.573 338.98l1037.736-985.89-481.89-560.182z" fill="#d3d3d3" fill-rule="evenodd"/></g><clipPath id="g"><path transform="matrix(1 0 0 -1 -73 412)" d="M70.866 14.626H354.33V424.09H70.866z" fill-rule="evenodd"/></clipPath><g clip-path="url(#g)"><path d="m235.126 141.802 17.575-99.666-8.646-23.783-49.833-8.787-55.474 20.183-17.575 99.666 8.674 23.783 49.805 8.787 55.474-20.183z" fill="#ff0" fill-rule="evenodd"/><path stroke-width="1.745" stroke-miterlimit="3.864" fill="none" stroke="#000" d="m235.126 141.802 17.575-99.666-8.646-23.783-49.833-8.787-55.474 20.183-17.575 99.666 8.674 23.783 49.805 8.787 55.474-20.183z"/><path d="m143.652 99.141 8.646 23.754 16.611 2.948 55.474-20.211 5.867-33.222-8.674-23.754-16.611-2.948-55.445 20.211-5.868 33.222z" fill="orange" fill-rule="evenodd"/><path stroke-width="1.745" stroke-miterlimit="3.864" fill="none" stroke="#000" d="m143.652 99.141 8.646 23.754 16.611 2.948 55.474-20.211 5.867-33.222-8.674-23.754-16.611-2.948-55.445 20.211-5.868 33.222z"/><path d="m154.877 83.975 8.646 23.783 55.474-20.183-8.646-23.782-55.474 20.182z" fill="red" fill-rule="evenodd"/><path stroke-width="1.745" stroke-miterlimit="3.864" fill="none" stroke="#000" d="m154.877 83.975 8.646 23.783 55.474-20.183-8.646-23.782-55.474 20.182z"/><path d="M27.573 339.944c.284 0 .51-.113.709-.283a.993.993 0 0 0 .283-.681c0-.255-.113-.51-.283-.708-.199-.171-.425-.284-.709-.284-.255 0-.482.113-.68.284-.17.198-.284.453-.284.708 0 .255.114.51.284.681.198.17.425.283.68.283z" fill-rule="evenodd"/><path stroke-width="1.745" stroke-linejoin="round" fill="none" stroke="#000" d="M27.573 339.944c.284 0 .51-.113.709-.283a.993.993 0 0 0 .283-.681c0-.255-.113-.51-.283-.708-.199-.171-.425-.284-.709-.284-.255 0-.482.113-.68.284-.17.198-.284.453-.284.708 0 .255.114.51.284.681.198.17.425.283.68.283z"/><path d="M186.937 86.753c.255 0 .51-.113.709-.283.17-.198.283-.425.283-.68 0-.284-.113-.511-.283-.709a1.12 1.12 0 0 0-.709-.283.99.99 0 0 0-.68.283.938.938 0 0 0-.284.709c0 .255.085.482.284.68a.99.99 0 0 0 .68.283z" fill-rule="evenodd"/><path stroke-width="1.745" stroke-linejoin="round" fill="none" stroke="#000" d="M186.937 86.753c.255 0 .51-.113.709-.283.17-.198.283-.425.283-.68 0-.284-.113-.511-.283-.709a1.12 1.12 0 0 0-.709-.283.99.99 0 0 0-.68.283.938.938 0 0 0-.284.709c0 .255.085.482.284.68a.99.99 0 0 0 .68.283z"/><path d="m75.365 279.991-2.863-.68 11.424-7.484-5.414 12.53-1.162-2.665-48.756 58.11-2.013-1.672 48.784-58.139z" fill="purple" fill-rule="evenodd"/><path d="m33.044 300.486-2.806.85 6.123-12.189 1.615 13.55-2.352-1.758-6.747 38.268-2.579-.454 6.746-38.267zM150.909 100.275l2.126 2.012-13.635.794 10.942-8.164-.34 2.92 36.481-13.295.908 2.467-36.482 13.266z" fill-rule="evenodd"/><path stroke-width="1.396" stroke-linecap="square" stroke-miterlimit="3.864" fill="none" stroke="#000" d="M2.288 381.131V1.629M263.699 381.131V1.629M2.288 381.131h261.411M2.288 1.629h261.411"/><symbol id="h"><path d="M.128 0 0 .729h.097L.203.102.557.73h.107L.243 0H.128z"/></symbol><use xlink:href="#h" transform="matrix(17.45118 0 0 -17.453 97.642 286.685)" fill="purple"/><symbol id="i"><path d="M.416.676a.26.26 0 0 1-.143-.04.33.33 0 0 1-.108-.119.463.463 0 0 1-.06-.225.23.23 0 0 1 .048-.157A.174.174 0 0 1 .291.08c.053 0 .1.013.143.04A.327.327 0 0 1 .54.238a.478.478 0 0 1 .061.226c0 .068-.016.12-.049.157a.173.173 0 0 1-.137.055M.288 0a.28.28 0 0 0-.211.08A.3.3 0 0 0 0 .297a.504.504 0 0 0 .113.309.374.374 0 0 0 .306.15c.09 0 .16-.026.21-.079A.293.293 0 0 0 .708.462.482.482 0 0 0 .594.15.373.373 0 0 0 .288 0z"/></symbol><symbol id="j"><path d="M.597.72.578.622a.466.466 0 0 1-.192.053.232.232 0 0 1-.14-.038.121.121 0 0 1-.053-.103C.193.512.2.494.213.481a.272.272 0 0 1 .099-.04l.06-.015A.302.302 0 0 0 .51.36.152.152 0 0 0 .55.25a.22.22 0 0 0-.088-.18A.354.354 0 0 0 .234 0 .594.594 0 0 0 0 .046l.02.102a.478.478 0 0 1 .108-.05.363.363 0 0 1 .11-.018c.06 0 .11.014.147.041a.127.127 0 0 1 .056.107c0 .03-.008.051-.023.066C.404.31.372.324.323.336L.264.35a.34.34 0 0 0-.138.06.127.127 0 0 0-.037.097c0 .073.028.132.084.179a.33.33 0 0 0 .218.07.58.58 0 0 0 .206-.038z"/></symbol><use xlink:href="#i" transform="matrix(12.21573 0 0 -12.217 108.984 290.348)" fill="purple"/><use xlink:href="#j" transform="matrix(12.21573 0 0 -12.217 119.035 290.348)" fill="purple"/><use xlink:href="#h" transform="matrix(17.45118 0 0 -17.453 149.997 286.685)" fill="purple"/><symbol id="k"><path d="M.016.729h.617L.617.646h-.26L.232 0h-.1l.126.646H0l.016.083z"/></symbol><use xlink:href="#k" transform="matrix(12.21573 0 0 -12.217 159.63 290.175)" fill="purple"/><use xlink:href="#j" transform="matrix(12.21573 0 0 -12.217 166.164 290.348)" fill="purple"/><path d="M131.605 281.267h10.913v1.446h-10.913v-1.446z" fill="purple" fill-rule="evenodd"/><symbol id="l"><path d="M.588.687V.583a.313.313 0 0 1-.226.092C.278.675.215.65.17.6.126.548.104.474.104.378S.126.208.17.158C.215.105.278.08.362.08a.313.313 0 0 1 .226.092V.07A.402.402 0 0 0 .356 0a.34.34 0 0 0-.26.101A.389.389 0 0 0 0 .378c0 .117.032.21.095.277a.34.34 0 0 0 .261.101.42.42 0 0 0 .232-.069z"/></symbol><use xlink:href="#l" transform="matrix(17.45118 0 0 -17.453 104.24 211.883)" fill="#696969"/><use xlink:href="#l" transform="matrix(17.45118 0 0 -17.453 116.42 211.883)" fill="#696969"/><symbol id="m"><path d="M.44.323.265.228.44.133.412.085l-.164.1V0H.192v.184L.028.085 0 .133l.175.095L0 .323.028.37.192.272v.184h.056V.272l.164.1.028-.05z"/></symbol><use xlink:href="#m" transform="matrix(12.21573 0 0 -12.217 131.546 201.158)" fill="#696969"/><symbol id="n"><path d="M.338.676a.207.207 0 0 1-.171-.08.344.344 0 0 1-.063-.218C.104.286.125.214.167.16c.042-.053.1-.08.17-.08.073 0 .13.027.17.08a.343.343 0 0 1 .064.218.344.344 0 0 1-.063.218.204.204 0 0 1-.17.08m0 .08A.312.312 0 0 0 .583.653.398.398 0 0 0 .675.378.399.399 0 0 0 .583.103.313.313 0 0 0 .338 0a.315.315 0 0 0-.246.103A.398.398 0 0 0 0 .378c0 .115.03.207.092.275a.314.314 0 0 0 .246.103z"/></symbol><symbol id="o"><path d="M.47.72V.622a.608.608 0 0 1-.107.04.375.375 0 0 1-.096.013.213.213 0 0 1-.124-.031.103.103 0 0 1-.044-.089C.1.524.11.5.128.483a.256.256 0 0 1 .11-.04l.06-.012A.302.302 0 0 0 .46.357.191.191 0 0 0 .513.215C.513.145.49.091.442.055A.336.336 0 0 0 .234 0a.564.564 0 0 0-.11.012.822.822 0 0 0-.121.034v.102c.04-.023.08-.04.118-.05A.397.397 0 0 1 .234.08c.056 0 .1.011.13.033A.11.11 0 0 1 .41.208a.108.108 0 0 1-.033.084.225.225 0 0 1-.108.045L.209.35a.322.322 0 0 0-.16.069.171.171 0 0 0-.049.13c0 .065.023.116.068.153a.29.29 0 0 0 .188.055A.608.608 0 0 0 .469.72z"/></symbol><use xlink:href="#n" transform="matrix(17.45118 0 0 -17.453 44.905 342.782)"/><use xlink:href="#o" transform="matrix(17.45118 0 0 -17.453 58.984 342.782)"/><use xlink:href="#h" transform="matrix(17.45118 0 0 -17.453 12.13 284.939)"/><use xlink:href="#i" transform="matrix(12.21573 0 0 -12.217 23.472 288.603)"/><use xlink:href="#j" transform="matrix(12.21573 0 0 -12.217 33.523 288.603)"/><use xlink:href="#h" transform="matrix(17.45118 0 0 -17.453 113.35 110.406)"/><use xlink:href="#k" transform="matrix(12.21573 0 0 -12.217 124.727 113.897)"/><use xlink:href="#j" transform="matrix(12.21573 0 0 -12.217 131.261 114.07)"/></g><clipPath id="p"><path transform="matrix(1 0 0 -1 -73 412)" d="M439.37 19.842h286.299v406.771H439.37z" fill-rule="evenodd"/></clipPath><g clip-path="url(#p)"><path d="M125.992 444.542h755.66V-59.117h-755.66v503.659z" fill="#fff" fill-rule="evenodd"/><path d="M382.244 381.585h262.035V1.317H382.244v380.268z" fill="#fff" fill-rule="evenodd"/><path d="M396.361 354.514 413 357.462l5.868-33.307-16.64-2.92-5.867 33.279z" fill="#00f" fill-rule="evenodd"/><path stroke-width="1.749" stroke-miterlimit="3.864" fill="none" stroke="#000" d="M396.361 354.514 413 357.462l5.868-33.307-16.64-2.92-5.867 33.279z"/></g><clipPath id="q"><path transform="matrix(1 0 0 -1 -73 412)" d="M479.301 71.351h237.967v339.33H479.301z" fill-rule="evenodd"/></clipPath><g clip-path="url(#q)"><path stroke-width="2.624" stroke-linecap="square" stroke-linejoin="round" fill="none" stroke="#d3d3d3" d="M551.529-60.875 407.614 339.349l421.37-400.224"/></g><clipPath id="r"><path transform="matrix(1 0 0 -1 -73 412)" d="M526.207 160.023h191.06v250.658h-191.06z" fill-rule="evenodd"/></clipPath><g clip-path="url(#r)"><path stroke-width="2.624" stroke-linecap="square" stroke-linejoin="round" fill="none" stroke="gray" d="m551.529-60.875-88.214 245.282-8.787 49.946 4.337 11.906 24.973 4.394 27.779-10.092L828.984-60.875"/></g><clipPath id="s"><path transform="matrix(1 0 0 -1 -73 412)" d="M527.519 161.334h189.749V410.68H527.519z" fill-rule="evenodd"/></clipPath><g clip-path="url(#s)"><path d="M3193.22-7406.547 463.315 184.407l-8.787 49.946 4.337 11.906 24.973 4.394 27.779-10.092L5608.169-4600.05 3193.22-7406.547z" fill="#d3d3d3" fill-rule="evenodd"/></g><clipPath id="t"><path transform="matrix(1 0 0 -1 -73 412)" d="M439.37 19.842h286.299v406.771H439.37z" fill-rule="evenodd"/></clipPath><g clip-path="url(#t)"><path d="m615.649 141.774 17.603-99.865-8.674-23.839-49.947-8.787-55.587 20.211-17.631 99.864 8.674 23.84 49.946 8.787 55.616-20.211z" fill="#ff0" fill-rule="evenodd"/><path stroke-width="1.749" stroke-miterlimit="3.864" fill="none" stroke="#000" d="m615.649 141.774 17.603-99.865-8.674-23.839-49.947-8.787-55.587 20.211-17.631 99.864 8.674 23.84 49.946 8.787 55.616-20.211z"/><path d="m523.948 99.027 8.674 23.811 16.639 2.92 55.588-20.211 5.868-33.307-8.646-23.811-16.668-2.948-55.587 20.239-5.868 33.307z" fill="orange" fill-rule="evenodd"/><path stroke-width="1.749" stroke-miterlimit="3.864" fill="none" stroke="#000" d="m523.948 99.027 8.674 23.811 16.639 2.92 55.588-20.211 5.868-33.307-8.646-23.811-16.668-2.948-55.587 20.239-5.868 33.307z"/><path d="m535.202 83.834 8.674 23.839 55.587-20.239-8.674-23.84-55.587 20.24z" fill="red" fill-rule="evenodd"/><path stroke-width="1.749" stroke-miterlimit="3.864" fill="none" stroke="#000" d="m535.202 83.834 8.674 23.839 55.587-20.239-8.674-23.84-55.587 20.24z"/><path d="M407.614 340.313a.99.99 0 0 0 .68-.284c.199-.17.284-.425.284-.68a.938.938 0 0 0-.284-.709.99.99 0 0 0-.68-.283.99.99 0 0 0-.68.283c-.199.198-.312.425-.312.709 0 .255.113.51.312.68a.99.99 0 0 0 .68.284z" fill-rule="evenodd"/><path stroke-width="1.749" stroke-linejoin="round" fill="none" stroke="#000" d="M407.614 340.313a.99.99 0 0 0 .68-.284c.199-.17.284-.425.284-.68a.938.938 0 0 0-.284-.709.99.99 0 0 0-.68-.283.99.99 0 0 0-.68.283c-.199.198-.312.425-.312.709 0 .255.113.51.312.68a.99.99 0 0 0 .68.284z"/><path d="M567.346 86.612a.99.99 0 0 0 .681-.284.94.94 0 0 0 .283-.708.923.923 0 0 0-.283-.681.99.99 0 0 0-.681-.283c-.255 0-.51.113-.708.283-.17.199-.284.425-.284.681 0 .283.114.51.284.708.198.17.453.284.708.284z" fill-rule="evenodd"/><path stroke-width="1.749" stroke-linejoin="round" fill="none" stroke="#000" d="M567.346 86.612a.99.99 0 0 0 .681-.284.94.94 0 0 0 .283-.708.923.923 0 0 0-.283-.681.99.99 0 0 0-.681-.283c-.255 0-.51.113-.708.283-.17.199-.284.425-.284.681 0 .283.114.51.284.708.198.17.453.284.708.284z"/><path d="m455.491 280.246-2.863-.68 11.452-7.512-5.414 12.558-1.162-2.665-48.898 58.224-1.984-1.673 48.869-58.252z" fill="purple" fill-rule="evenodd"/><path d="m413.085 300.798-2.806.822 6.151-12.218 1.587 13.578-2.352-1.729-6.775 38.324-2.58-.453 6.775-38.324zM531.205 100.161l2.126 2.013-13.635.794 10.942-8.164-.312 2.92 36.567-13.323.879 2.466-36.567 13.294z" fill-rule="evenodd"/><path stroke-width="1.399" stroke-linecap="square" stroke-miterlimit="3.864" fill="none" stroke="#000" d="M382.244 381.585V1.317M644.279 381.585V1.317M382.244 381.585h262.035M382.244 1.317h262.035"/><use xlink:href="#h" transform="matrix(17.49213 0 0 -17.489 477.606 287.333)" fill="purple"/><use xlink:href="#i" transform="matrix(12.2442 0 0 -12.242 488.973 291.004)" fill="purple"/><use xlink:href="#j" transform="matrix(12.2442 0 0 -12.242 499.072 291.004)" fill="purple"/><use xlink:href="#h" transform="matrix(17.49213 0 0 -17.489 530.08 287.333)" fill="purple"/><use xlink:href="#k" transform="matrix(12.2442 0 0 -12.242 539.735 290.831)" fill="purple"/><use xlink:href="#j" transform="matrix(12.2442 0 0 -12.242 546.297 291.004)" fill="purple"/><path d="M511.872 281.522h10.942v1.446h-10.942v-1.446z" fill="purple" fill-rule="evenodd"/><use xlink:href="#l" transform="matrix(17.49213 0 0 -17.489 484.217 210.632)" fill="#696969"/><use xlink:href="#l" transform="matrix(17.49213 0 0 -17.489 496.444 210.632)" fill="#696969"/><use xlink:href="#m" transform="matrix(12.2442 0 0 -12.242 511.587 199.885)" fill="#696969"/><use xlink:href="#n" transform="matrix(17.49213 0 0 -17.489 424.746 343.545)"/><use xlink:href="#o" transform="matrix(17.49213 0 0 -17.489 438.876 343.545)"/><use xlink:href="#h" transform="matrix(17.49213 0 0 -17.489 391.897 285.584)"/><use xlink:href="#i" transform="matrix(12.2442 0 0 -12.242 403.264 289.255)"/><use xlink:href="#j" transform="matrix(12.2442 0 0 -12.242 413.363 289.255)"/><use xlink:href="#h" transform="matrix(17.49213 0 0 -17.489 493.348 110.699)"/><use xlink:href="#k" transform="matrix(12.2442 0 0 -12.242 504.751 112.448)"/><use xlink:href="#j" transform="matrix(12.2442 0 0 -12.242 511.313 112.621)"/></g></g></g></svg>