<svg xmlns="http://www.w3.org/2000/svg" xmlns:xlink="http://www.w3.org/1999/xlink" width="1032" height="369.768" viewBox="0 0 774 277.326"><clipPath id="a"><path transform="matrix(1 0 0 -1 0 335)" d="M0 0h774v335H0z"/></clipPath><g clip-path="url(#a)"><clipPath id="b"><path transform="matrix(1 0 0 -1 -11 362)" d="M0 0h793.7v446.457H0z"/></clipPath><g clip-path="url(#b)"><clipPath id="c"><path transform="matrix(1 0 0 -1 -11 362)" d="M0 .028h793.672v446.428H0z" fill-rule="evenodd"/></clipPath><g clip-path="url(#c)"><path d="M-11-84.456h793.672v446.428H-11V-84.456z" fill="#fff" fill-rule="evenodd"/></g><clipPath id="d"><path transform="matrix(1 0 0 -1 -11 362)" d="M0 77.981h248.059v291.94H0z" fill-rule="evenodd"/></clipPath><g clip-path="url(#d)" fill="#fff" fill-rule="evenodd"><path d="M-165.63 321.097h539.972V-38.847H-165.63v359.944z"/><path d="M.707 276.111h220.819V4.353H.707v271.758z"/></g><clipPath id="e"><path transform="matrix(1 0 0 -1 -11 362)" d="M11.704 85.887h220.824v271.762H11.704V85.887z" fill-rule="evenodd"/></clipPath><g clip-path="url(#e)"><path d="m127.189 53.364 8.731 23.925 55.842-20.325-8.702-23.952-55.871 20.352z" fill="red" fill-rule="evenodd"/><path stroke-width="1.25" stroke-miterlimit="3.864" fill="none" stroke="#000" d="m127.189 53.364 8.731 23.925 55.842-20.325-8.702-23.952-55.871 20.352z"/><path d="m14.88 265.878 16.725 2.948 5.896-33.449-16.725-2.948-5.896 33.449z" fill="#00f" fill-rule="evenodd"/><path stroke-width="1.25" stroke-miterlimit="3.864" fill="none" stroke="#000" d="m14.88 265.878 16.725 2.948 5.896-33.449-16.725-2.948-5.896 33.449z"/><path d="M26.191 251.336c.17 0 .368-.085.481-.198a.684.684 0 0 0 .199-.511c0-.17-.057-.368-.199-.481-.113-.142-.311-.199-.481-.199a.684.684 0 0 0-.511.199.738.738 0 0 0-.198.481c0 .199.085.369.198.511a.818.818 0 0 0 .511.198z" fill-rule="evenodd"/><path stroke-width="1.25" stroke-linejoin="round" fill="none" stroke="#000" d="M26.191 251.336c.17 0 .368-.085.481-.198a.684.684 0 0 0 .199-.511c0-.17-.057-.368-.199-.481-.113-.142-.311-.199-.481-.199a.684.684 0 0 0-.511.199.738.738 0 0 0-.198.481c0 .199.085.369.198.511a.818.818 0 0 0 .511.198z"/><path d="M159.476 55.859a.818.818 0 0 0 .51-.198.818.818 0 0 0 .198-.511.743.743 0 0 0-.198-.482.686.686 0 0 0-.51-.198c-.17 0-.369.057-.482.198-.142.114-.199.312-.199.482 0 .199.057.369.199.511a.74.74 0 0 0 .482.198z" fill-rule="evenodd"/><path stroke-width="1.25" stroke-linejoin="round" fill="none" stroke="#000" d="M159.476 55.859a.818.818 0 0 0 .51-.198.818.818 0 0 0 .198-.511.743.743 0 0 0-.198-.482.686.686 0 0 0-.51-.198c-.17 0-.369.057-.482.198-.142.114-.199.312-.199.482 0 .199.057.369.199.511a.74.74 0 0 0 .482.198z"/><path d="m32.228 210.035-2.381.709 5.188-10.29 1.332 11.452-1.984-1.474-7.115 40.394-2.183-.369 7.143-40.422zM129.287 67.311l1.785 1.701-11.48.68 9.241-6.888-.283 2.438 30.557-11.112.765 2.069-30.585 11.112z" fill-rule="evenodd"/></g><clipPath id="f"><path transform="matrix(1 0 0 -1 -11 362)" d="M0 77.981h248.059v291.94H0z" fill-rule="evenodd"/></clipPath><g clip-path="url(#f)"><path stroke-linecap="square" stroke-miterlimit="3.864" fill="none" stroke="#000" d="M.707 276.111V4.353M221.526 276.111V4.353M.707 276.111h220.819M.707 4.353h220.819"/><symbol id="g"><path d="M.338.676a.207.207 0 0 1-.171-.08.344.344 0 0 1-.063-.218C.104.286.125.214.167.16c.042-.053.1-.08.17-.08.073 0 .13.027.17.08a.343.343 0 0 1 .064.218.344.344 0 0 1-.063.218.204.204 0 0 1-.17.08m0 .08A.312.312 0 0 0 .583.653.398.398 0 0 0 .675.378.399.399 0 0 0 .583.103.313.313 0 0 0 .338 0a.315.315 0 0 0-.246.103A.398.398 0 0 0 0 .378c0 .115.03.207.092.275a.314.314 0 0 0 .246.103z"/></symbol><symbol id="h"><path d="M0 .547h.09L.202.12l.112.427H.42L.532.12l.112.427h.09L.59 0H.485L.367.448.25 0H.143L0 .547z"/></symbol><symbol id="i"><path d="M.458.33V0h-.09v.327c0 .052-.01.09-.03.116-.02.026-.05.039-.09.039A.147.147 0 0 1 .131.436.181.181 0 0 1 .09.309V0H0v.547h.09V.462a.22.22 0 0 0 .076.074C.196.552.229.56.267.56.33.56.377.54.41.501.442.463.458.406.458.331z"/></symbol><symbol id="j"><path d="M0 0z"/></symbol><symbol id="k"><path d="M.389.545V.46a.35.35 0 0 1-.164.039.197.197 0 0 1-.101-.02.068.068 0 0 1-.033-.062c0-.02.008-.037.024-.05A.287.287 0 0 1 .21.335L.24.327A.288.288 0 0 0 .378.27.134.134 0 0 0 .418.165c0-.05-.02-.09-.06-.12A.273.273 0 0 0 .191 0 .74.74 0 0 0 0 .034v.093a.497.497 0 0 1 .098-.04.376.376 0 0 1 .096-.012c.042 0 .075.007.098.022a.07.07 0 0 1 .034.061A.067.067 0 0 1 .3.214a.298.298 0 0 1-.108.038L.162.259A.244.244 0 0 0 .04.313a.134.134 0 0 0-.037.1c0 .052.018.091.055.12a.25.25 0 0 0 .155.041.57.57 0 0 0 .094-.007.399.399 0 0 0 .08-.022z"/></symbol><symbol id="l"><path d="M.458.33V0h-.09v.327c0 .052-.01.09-.03.116-.02.026-.05.039-.09.039A.147.147 0 0 1 .131.436.181.181 0 0 1 .09.309V0H0v.76h.09V.462a.22.22 0 0 0 .076.074C.196.552.229.56.267.56.33.56.377.54.41.501.442.463.458.406.458.331z"/></symbol><symbol id="m"><path d="M0 .547h.09V0H0v.547M0 .76h.09V.646H0V.76z"/></symbol><symbol id="n"><path d="M.09.29V0H0v.755h.09V.672a.186.186 0 0 0 .175.096C.332.768.385.742.427.69A.326.326 0 0 0 .489.481.326.326 0 0 0 .427.273a.196.196 0 0 0-.162-.08.215.215 0 0 0-.103.024A.19.19 0 0 0 .09.29m.306.191a.259.259 0 0 1-.041.155.13.13 0 0 1-.112.057.131.131 0 0 1-.112-.057.261.261 0 0 1-.04-.155C.09.415.103.363.13.325A.132.132 0 0 1 .243.27a.13.13 0 0 1 .112.056c.027.038.041.09.041.156z"/></symbol><symbol id="o"><path d="M.224.89A.986.986 0 0 1 .127.669a.798.798 0 0 1 0-.446C.148.15.181.075.224 0H.146a1.01 1.01 0 0 0-.11.226.707.707 0 0 0 0 .439c.024.074.06.149.11.226h.078z"/></symbol><symbol id="p"><path d="M.47.72V.622a.608.608 0 0 1-.107.04.375.375 0 0 1-.096.013.213.213 0 0 1-.124-.031.103.103 0 0 1-.044-.089C.1.524.11.5.128.483a.256.256 0 0 1 .11-.04l.06-.012A.302.302 0 0 0 .46.357.191.191 0 0 0 .513.215C.513.145.49.091.442.055A.336.336 0 0 0 .234 0a.564.564 0 0 0-.11.012.822.822 0 0 0-.121.034v.102c.04-.023.08-.04.118-.05A.397.397 0 0 1 .234.08c.056 0 .1.011.13.033A.11.11 0 0 1 .41.208a.108.108 0 0 1-.033.084.225.225 0 0 1-.108.045L.209.35a.322.322 0 0 0-.16.069.171.171 0 0 0-.049.13c0 .065.023.116.068.153a.29.29 0 0 0 .188.055A.608.608 0 0 0 .469.72z"/></symbol><symbol id="q"><path d="M0 .89h.078C.127.815.163.74.188.666a.693.693 0 0 0 0-.44A.994.994 0 0 0 .077 0H0a.986.986 0 0 1 .097.222.797.797 0 0 1 0 .446A.999.999 0 0 1 0 .891z"/></symbol><use xlink:href="#g" transform="matrix(12.49904 0 0 -12.498 43.449 255.673)"/><use xlink:href="#h" transform="matrix(12.49904 0 0 -12.498 53.259 255.496)"/><use xlink:href="#i" transform="matrix(12.49904 0 0 -12.498 63.868 255.496)"/><use xlink:href="#j" transform="matrix(12.49904 0 0 -12.498 70.232 255.496)"/><use xlink:href="#k" transform="matrix(12.49904 0 0 -12.498 75.897 255.673)"/><use xlink:href="#l" transform="matrix(12.49904 0 0 -12.498 82.604 255.496)"/><use xlink:href="#m" transform="matrix(12.49904 0 0 -12.498 90.146 255.496)"/><use xlink:href="#n" transform="matrix(12.49904 0 0 -12.498 93.84 258.096)"/><use xlink:href="#j" transform="matrix(12.49904 0 0 -12.498 100.205 255.496)"/><use xlink:href="#o" transform="matrix(12.49904 0 0 -12.498 105.029 257.144)"/><use xlink:href="#g" transform="matrix(12.49904 0 0 -12.498 109.644 255.673)"/><use xlink:href="#p" transform="matrix(12.49904 0 0 -12.498 119.753 255.673)"/><use xlink:href="#q" transform="matrix(12.49904 0 0 -12.498 128.666 257.144)"/><symbol id="r"><path d="M0 .729h.617V.646h-.26V0H.26v.646H0v.083z"/></symbol><symbol id="s"><path d="M.283.29A.321.321 0 0 1 .132.263C.104.248.09.22.09.18.09.147.1.122.12.103A.126.126 0 0 1 .207.075c.05 0 .09.018.12.053a.21.21 0 0 1 .045.141v.02h-.09m.18.037V.014h-.09v.083A.198.198 0 0 0 .295.023.245.245 0 0 0 .183 0C.127 0 .083.016.05.047A.167.167 0 0 0 0 .173c0 .062.02.108.062.14a.304.304 0 0 0 .184.046h.126v.01a.117.117 0 0 1-.04.095.172.172 0 0 1-.115.034A.371.371 0 0 1 .04.453v.083a.584.584 0 0 0 .186.038c.08 0 .138-.02.177-.061C.443.472.462.41.462.326z"/></symbol><symbol id="t"><path d="M.32.463A.161.161 0 0 1 .248.48.143.143 0 0 1 .131.43.219.219 0 0 1 .09.288V0H0v.547h.09V.462a.183.183 0 0 0 .074.074.23.23 0 0 0 .156.02V.462z"/></symbol><symbol id="u"><path d="M.399.488a.247.247 0 0 1-.04.151.132.132 0 0 1-.113.054.133.133 0 0 1-.113-.054.25.25 0 0 1-.04-.151c0-.065.013-.115.04-.151A.133.133 0 0 1 .246.283c.048 0 .086.018.112.054.027.036.04.086.04.15m.09-.211C.489.183.469.114.428.068.385.023.322 0 .237 0a.52.52 0 0 0-.171.029v.087A.305.305 0 0 1 .223.074c.059 0 .103.016.132.047.03.03.044.077.044.139v.044A.186.186 0 0 0 .224.208a.198.198 0 0 0-.162.077A.315.315 0 0 0 0 .488C0 .572.02.64.062.69a.198.198 0 0 0 .162.077.186.186 0 0 0 .175-.096v.083h.09v-.48z"/></symbol><symbol id="v"><path d="M.507.31V.266H.094A.209.209 0 0 1 .149.125.193.193 0 0 1 .29.076a.392.392 0 0 1 .197.051V.042A.539.539 0 0 0 .284 0a.281.281 0 0 0-.208.076A.278.278 0 0 0 0 .282c0 .09.024.16.072.213.049.053.114.08.196.08A.222.222 0 0 0 .442.502.276.276 0 0 0 .507.31m-.09.026a.17.17 0 0 1-.042.118.137.137 0 0 1-.106.044.17.17 0 0 1-.12-.042.18.18 0 0 1-.052-.12h.32z"/></symbol><symbol id="w"><path d="M.156.702V.547h.185v-.07H.156V.18c0-.044.006-.073.018-.086C.187.082.212.075.25.075h.092V0H.25C.179 0 .132.013.105.039.08.065.065.112.065.18v.297H0v.07h.066v.155h.09z"/></symbol><use xlink:href="#r" transform="matrix(12.49904 0 0 -12.498 108.956 25.528)"/><use xlink:href="#s" transform="matrix(12.49904 0 0 -12.498 114.743 25.705)"/><use xlink:href="#t" transform="matrix(12.49904 0 0 -12.498 123.865 25.528)"/><use xlink:href="#u" transform="matrix(12.49904 0 0 -12.498 128.419 28.128)"/><use xlink:href="#v" transform="matrix(12.49904 0 0 -12.498 135.918 25.705)"/><use xlink:href="#w" transform="matrix(12.49904 0 0 -12.498 143.064 25.528)"/><use xlink:href="#j" transform="matrix(12.49904 0 0 -12.498 147.715 25.528)"/><use xlink:href="#k" transform="matrix(12.49904 0 0 -12.498 152.142 25.705)"/><use xlink:href="#l" transform="matrix(12.49904 0 0 -12.498 158.85 25.528)"/><use xlink:href="#m" transform="matrix(12.49904 0 0 -12.498 167.629 25.528)"/><use xlink:href="#n" transform="matrix(12.49904 0 0 -12.498 170.086 28.128)"/><use xlink:href="#j" transform="matrix(12.49904 0 0 -12.498 177.688 25.528)"/><use xlink:href="#o" transform="matrix(12.49904 0 0 -12.498 182.512 27.176)"/><use xlink:href="#r" transform="matrix(12.49904 0 0 -12.498 186.388 25.528)"/><use xlink:href="#p" transform="matrix(12.49904 0 0 -12.498 194.748 25.705)"/><use xlink:href="#q" transform="matrix(12.49904 0 0 -12.498 202.424 27.176)"/><symbol id="x"><path d="M.128 0 0 .729h.097L.203.102.557.73h.107L.243 0H.128z"/></symbol><use xlink:href="#x" transform="matrix(12.49904 0 0 -12.498 36.223 199.254)"/><symbol id="y"><path d="M.416.676a.26.26 0 0 1-.143-.04.33.33 0 0 1-.108-.119.463.463 0 0 1-.06-.225.23.23 0 0 1 .048-.157A.174.174 0 0 1 .291.08c.053 0 .1.013.143.04A.327.327 0 0 1 .54.238a.478.478 0 0 1 .061.226c0 .068-.016.12-.049.157a.173.173 0 0 1-.137.055M.288 0a.28.28 0 0 0-.211.08A.3.3 0 0 0 0 .297a.504.504 0 0 0 .113.309.374.374 0 0 0 .306.15c.09 0 .16-.026.21-.079A.293.293 0 0 0 .708.462.482.482 0 0 0 .594.15.373.373 0 0 0 .288 0z"/></symbol><symbol id="z"><path d="M.597.72.578.622a.466.466 0 0 1-.192.053.232.232 0 0 1-.14-.038.121.121 0 0 1-.053-.103C.193.512.2.494.213.481a.272.272 0 0 1 .099-.04l.06-.015A.302.302 0 0 0 .51.36.152.152 0 0 0 .55.25a.22.22 0 0 0-.088-.18A.354.354 0 0 0 .234 0 .594.594 0 0 0 0 .046l.02.102a.478.478 0 0 1 .108-.05.363.363 0 0 1 .11-.018c.06 0 .11.014.147.041a.127.127 0 0 1 .056.107c0 .03-.008.051-.023.066C.404.31.372.324.323.336L.264.35a.34.34 0 0 0-.138.06.127.127 0 0 0-.037.097c0 .073.028.132.084.179a.33.33 0 0 0 .218.07.58.58 0 0 0 .206-.038z"/></symbol><use xlink:href="#y" transform="matrix(8.74973 0 0 -8.749 44.347 201.877)"/><use xlink:href="#z" transform="matrix(8.74973 0 0 -8.749 51.582 201.877)"/><use xlink:href="#x" transform="matrix(12.49904 0 0 -12.498 98.72 60.523)"/><symbol id="A"><path d="M.016.729h.617L.617.646h-.26L.232 0h-.1l.126.646H0l.016.083z"/></symbol><use xlink:href="#A" transform="matrix(8.74973 0 0 -8.749 106.869 61.773)"/><use xlink:href="#z" transform="matrix(8.74973 0 0 -8.749 111.575 61.897)"/></g><clipPath id="B"><path transform="matrix(1 0 0 -1 -11 362)" d="M581.102 77.981H793.7v294.774H581.102z" fill-rule="evenodd"/></clipPath><g clip-path="url(#B)"><path d="M397.784 318.319h539.915V-41.653H397.784v359.972z" fill="#fff" fill-rule="evenodd"/><path d="M576.537 273.305h195.902V1.547H576.537v271.758z" fill="#fff" fill-rule="evenodd"/><path d="m587.082 265.708 12.444 2.182 4.394-24.888-12.444-2.182-4.394 24.888z" fill="#00f" fill-rule="evenodd"/><path stroke-width="1.25" stroke-miterlimit="3.864" fill="none" stroke="#000" d="m587.082 265.708 12.444 2.182 4.394-24.888-12.444-2.182-4.394 24.888z"/><g opacity=".5"><clipPath id="C"><path transform="matrix(1 0 0 -1 -11 362)" d="M676.63 240.264h98.589v114.237H676.63z" fill-rule="evenodd"/></clipPath><g clip-path="url(#C)"><path d="m751.038 106.599 13.153-74.693-6.463-17.83L720.367 7.5l-41.556 15.137L665.63 97.33l6.491 17.801 37.333 6.577 41.584-15.109z" fill="#ff0" fill-rule="evenodd"/></g></g><g opacity=".5"><clipPath id="D"><path transform="matrix(1 0 0 -1 -11 362)" d="M676.006 239.64h99.836v115.484h-99.836z" fill-rule="evenodd"/></clipPath><g clip-path="url(#D)"><path stroke-width="1.25" stroke-miterlimit="3.864" fill="none" stroke="#000" d="m751.038 106.599 13.153-74.693-6.463-17.83L720.367 7.5l-41.556 15.137L665.63 97.33l6.491 17.801 37.333 6.577 41.584-15.109z"/></g></g><g opacity=".5"><clipPath id="E"><path transform="matrix(1 0 0 -1 -11 362)" d="M693.468 267.335h64.913v60.067h-64.913z" fill-rule="evenodd"/></clipPath><g clip-path="url(#E)"><path d="m682.468 74.624 6.491 17.802 12.444 2.211L742.987 79.5l4.366-24.888-6.463-17.83-12.444-2.183-41.585 15.109-4.393 24.916z" fill="orange" fill-rule="evenodd"/></g></g><g opacity=".5"><clipPath id="F"><path transform="matrix(1 0 0 -1 -11 362)" d="M692.844 266.711h66.189v61.314h-66.189z" fill-rule="evenodd"/></clipPath><g clip-path="url(#F)"><path stroke-width="1.25" stroke-miterlimit="3.864" fill="none" stroke="#000" d="m682.468 74.624 6.491 17.802 12.444 2.211L742.987 79.5l4.366-24.888-6.463-17.83-12.444-2.183-41.585 15.109-4.393 24.916z"/></g></g><path d="m690.887 63.257 6.491 17.83 41.556-15.137-6.463-17.801-41.584 15.108z" fill="red" fill-rule="evenodd"/><path stroke-width="1.25" stroke-miterlimit="3.864" fill="none" stroke="#000" d="m690.887 63.257 6.491 17.83 41.556-15.137-6.463-17.801-41.584 15.108z"/><path d="M595.501 255.05c.17 0 .368-.057.482-.199a.686.686 0 0 0 .198-.51c0-.17-.057-.34-.198-.482-.114-.142-.312-.198-.482-.198a.68.68 0 0 0-.51.198c-.114.142-.199.312-.199.482 0 .198.085.368.199.51a.68.68 0 0 0 .51.199z" fill-rule="evenodd"/><path stroke-width="1.25" stroke-linejoin="round" fill="none" stroke="#000" d="M595.501 255.05c.17 0 .368-.057.482-.199a.686.686 0 0 0 .198-.51c0-.17-.057-.34-.198-.482-.114-.142-.312-.198-.482-.198a.68.68 0 0 0-.51.198c-.114.142-.199.312-.199.482 0 .198.085.368.199.51a.68.68 0 0 0 .51.199z"/><path d="M714.924 65.298c.17 0 .369-.056.482-.198a.664.664 0 0 0 .199-.482.683.683 0 0 0-.199-.51.737.737 0 0 0-.482-.199.813.813 0 0 0-.51.199.818.818 0 0 0-.198.51c0 .17.085.34.198.482a.682.682 0 0 0 .51.198z" fill-rule="evenodd"/><path stroke-width="1.25" stroke-linejoin="round" fill="none" stroke="#000" d="M714.924 65.298c.17 0 .369-.056.482-.198a.664.664 0 0 0 .199-.482.683.683 0 0 0-.199-.51.737.737 0 0 0-.482-.199.813.813 0 0 0-.51.199.818.818 0 0 0-.198.51c0 .17.085.34.198.482a.682.682 0 0 0 .51.198z"/><path d="m599.583 225.513-2.098.623 4.592-9.127 1.191 10.148-1.758-1.304-5.045 28.658-1.928-.34 5.046-28.658zM687.91 75.475l1.588 1.502-10.205.595 8.192-6.094-.255 2.154 27.354-9.949.681 1.842-27.355 9.95z" fill-rule="evenodd"/><path stroke-linecap="square" stroke-miterlimit="3.864" fill="none" stroke="#000" d="M576.537 273.305V1.547M772.439 273.305V1.547M576.537 273.305h195.902M576.537 1.547h195.902"/><path stroke-width="1.25" stroke-linecap="round" stroke-linejoin="round" fill="none" stroke="#000" d="M667.983 23.827c16.781-1.672 29.508.652 38.154 6.974"/><path stroke-width="1.25" stroke-linecap="round" stroke-linejoin="round" fill="none" stroke="#000" d="m704.096 26.832 2.041 3.969-4.394-.737"/><symbol id="G"><path d="M.348.76V.685H.262C.23.685.208.68.195.665.182.654.176.63.176.596V.547h.148v-.07H.176V0h-.09v.477H0v.07h.086v.038c0 .06.014.105.042.133C.157.746.202.76.263.76h.085z"/></symbol><symbol id="H"><path d="M.292.157A.326.326 0 0 0 .218.03.147.147 0 0 0 .12 0H.05v.075h.053c.025 0 .044.006.058.018.013.011.028.04.045.083l.016.04L0 .756h.095L.266.327l.171.428h.095L.292.157z"/></symbol><use xlink:href="#p" transform="matrix(9.99845 0 0 -9.999 584.542 25.67)"/><use xlink:href="#s" transform="matrix(9.99845 0 0 -9.999 590.732 25.67)"/><use xlink:href="#G" transform="matrix(9.99845 0 0 -9.999 596.6 25.528)"/><use xlink:href="#v" transform="matrix(9.99845 0 0 -9.999 600.662 25.67)"/><use xlink:href="#w" transform="matrix(9.99845 0 0 -9.999 606.618 25.528)"/><use xlink:href="#H" transform="matrix(9.99845 0 0 -9.999 610.397 27.608)"/><use xlink:href="#j" transform="matrix(9.99845 0 0 -9.999 616.338 25.528)"/><use xlink:href="#s" transform="matrix(9.99845 0 0 -9.999 619.438 25.67)"/><use xlink:href="#t" transform="matrix(9.99845 0 0 -9.999 625.985 25.528)"/><use xlink:href="#v" transform="matrix(9.99845 0 0 -9.999 629.378 25.67)"/><use xlink:href="#s" transform="matrix(9.99845 0 0 -9.999 635.665 25.67)"/><use xlink:href="#j" transform="matrix(9.99845 0 0 -9.999 641.304 25.528)"/><symbol id="I"><path d="M.251.498A.135.135 0 0 1 .137.441.252.252 0 0 1 .095.287C.095.222.109.17.136.132A.136.136 0 0 1 .251.076c.048 0 .086.02.114.057.028.038.042.089.042.154a.253.253 0 0 1-.042.154.134.134 0 0 1-.114.057m0 .076C.329.574.391.55.435.498a.309.309 0 0 0 .067-.21.31.31 0 0 0-.067-.212A.232.232 0 0 0 .251 0a.233.233 0 0 0-.185.076A.312.312 0 0 0 0 .287c0 .09.022.16.066.211.045.05.107.076.185.076z"/></symbol><symbol id="J"><path d="M0 .23v.331h.09V.233C.09.182.1.143.12.117.14.09.17.078.21.078c.05 0 .088.016.116.047A.18.18 0 0 1 .368.25v.31h.09V.014h-.09v.084A.223.223 0 0 0 .292.024.202.202 0 0 0 .192 0C.129 0 .082.02.049.059.016.098 0 .155 0 .23m.226.344z"/></symbol><symbol id="K"><path d="M.399.478v.296h.09v-.76h-.09v.082A.188.188 0 0 0 .327.023.213.213 0 0 0 .224 0a.197.197 0 0 0-.162.08A.328.328 0 0 0 0 .286c0 .086.02.155.062.208.042.053.096.08.162.08A.21.21 0 0 0 .327.55.185.185 0 0 0 .4.478M.093.288C.093.22.106.168.133.13A.132.132 0 0 1 .246.075c.047 0 .085.019.112.056.027.038.04.09.04.156a.259.259 0 0 1-.04.155A.131.131 0 0 1 .246.5.131.131 0 0 1 .133.442a.261.261 0 0 1-.04-.155z"/></symbol><use xlink:href="#s" transform="matrix(9.99845 0 0 -9.999 584.483 36.919)"/><use xlink:href="#t" transform="matrix(9.99845 0 0 -9.999 591.03 36.777)"/><use xlink:href="#I" transform="matrix(9.99845 0 0 -9.999 594.423 36.919)"/><use xlink:href="#J" transform="matrix(9.99845 0 0 -9.999 600.96 36.919)"/><use xlink:href="#i" transform="matrix(9.99845 0 0 -9.999 607.268 36.777)"/><use xlink:href="#K" transform="matrix(9.99845 0 0 -9.999 613.16 36.919)"/><use xlink:href="#j" transform="matrix(9.99845 0 0 -9.999 618.858 36.777)"/><use xlink:href="#r" transform="matrix(9.99845 0 0 -9.999 622.568 36.777)"/><use xlink:href="#p" transform="matrix(9.99845 0 0 -9.999 629.495 36.919)"/><use xlink:href="#j" transform="matrix(9.99845 0 0 -9.999 635.085 36.777)"/><use xlink:href="#o" transform="matrix(9.99845 0 0 -9.999 584.742 49.343)"/><use xlink:href="#A" transform="matrix(9.99845 0 0 -9.999 588.062 48.025)"/><use xlink:href="#z" transform="matrix(9.99845 0 0 -9.999 593.93 48.167)"/><use xlink:href="#o" transform="matrix(9.99845 0 0 -9.999 613.486 49.343)"/><symbol id="L"><path d="M.522.33.458 0h-.09l.064.327A.814.814 0 0 1 .44.395a.081.081 0 0 1-.026.064.105.105 0 0 1-.072.023.177.177 0 0 1-.125-.048.23.23 0 0 1-.068-.13L.09 0H0l.106.547h.09L.178.46a.261.261 0 0 0 .2.1.152.152 0 0 0 .113-.04.146.146 0 0 0 .04-.11L.528.374A.501.501 0 0 0 .522.33z"/></symbol><use xlink:href="#L" transform="matrix(9.99845 0 0 -9.999 616.729 48.025)"/><symbol id="M"><path d="M.44.323.265.228.44.133.412.085l-.164.1V0H.192v.184L.028.085 0 .133l.175.095L0 .323.028.37.192.272v.184h.056V.272l.164.1.028-.05z"/></symbol><use xlink:href="#M" transform="matrix(9.99845 0 0 -9.999 625.423 45.164)"/><use xlink:href="#y" transform="matrix(9.99845 0 0 -9.999 640.522 48.167)"/><use xlink:href="#z" transform="matrix(9.99845 0 0 -9.999 647.68 48.167)"/><use xlink:href="#q" transform="matrix(9.99845 0 0 -9.999 655.92 49.343)"/><use xlink:href="#q" transform="matrix(9.99845 0 0 -9.999 659.67 49.343)"/><path d="M607.746 42.735a2.902 2.902 0 0 0-.992-.171c-.34 0-.68.057-.963.171-.312.141-.596.34-.822.566a2.512 2.512 0 0 0-.567.823 2.785 2.785 0 0 0-.171.992c0 .34.057.652.171.963.113.312.311.567.567.822.226.256.51.454.822.567.283.142.623.199.963.199.34 0 .681-.057.992-.199.284-.113.567-.311.823-.567.226-.255.425-.51.538-.822.113-.311.199-.623.199-.963 0-.369-.086-.681-.199-.992-.113-.284-.312-.567-.538-.823a3.886 3.886 0 0 0-.823-.566zm-2.239-.652c.397-.17.794-.256 1.247-.256.454 0 .879.086 1.248.256.396.141.737.396 1.077.708.312.312.567.681.737 1.049.141.397.227.822.227 1.276 0 .453-.086.85-.227 1.247a3.35 3.35 0 0 1-.737 1.049c-.312.34-.681.567-1.077.737a3.509 3.509 0 0 1-1.248.226c-.453 0-.85-.085-1.247-.226a2.95 2.95 0 0 1-1.049-.737 2.95 2.95 0 0 1-.737-1.049c-.17-.397-.227-.794-.227-1.247 0-.454.057-.879.227-1.276.17-.368.397-.737.737-1.049.312-.312.652-.567 1.049-.708zm1.673.878v1.729h1.729v.851h-1.729v1.729h-.851v-1.729H604.6v-.851h1.729v-1.729h.851zM633.088 44.69h6.265v.851h-6.265v-.851z" fill-rule="evenodd"/></g><clipPath id="N"><path transform="matrix(1 0 0 -1 -11 362)" d="M294.831 77.952h229.577v300.274H294.831z" fill-rule="evenodd"/></clipPath><g clip-path="url(#N)"><clipPath id="O"><path transform="matrix(1.2459 0 0 -1.24589 124.921 319.368)" d="M0 0h432v288H0z" fill-rule="evenodd"/></clipPath><g clip-path="url(#O)"><path d="M124.921 319.368H663.15V-39.447H124.921z" fill="#fff" fill-rule="evenodd"/><clipPath id="P"><path transform="matrix(1.2459 0 0 -1.24589 124.921 319.368)" d="M0 0h432v288H0z" fill-rule="evenodd"/></clipPath><g clip-path="url(#P)"><path d="M124.921-39.447H663.15v358.815H124.921z" fill="#fff"/><path d="M290.708 3.61h220.11v270.906h-220.11z" fill="#fff"/><clipPath id="Q"><path transform="matrix(1.2459 0 0 1.24589 124.921 -39.447)" d="M133.066 34.559h176.668V252H133.066z"/></clipPath><g clip-path="url(#Q)"><clipPath id="R"><path transform="matrix(1.2459 0 0 1.24589 124.921 -39.447)" d="M0 0h433v289H0z"/></clipPath><g clip-path="url(#R)"><path d="m304.827 264.325 16.673 2.94 5.88-33.352-16.674-2.94zm0 0" fill="#00f"/><path transform="matrix(1.2459 0 0 -1.24589 124.921 -39.447)" stroke-miterlimit="10" fill="none" stroke="#000" d="m144.398-243.82 13.383-2.36 4.719 26.77-13.383 2.359zm0 0"/></g><clipPath id="S"><path transform="matrix(1.2459 0 0 1.24589 124.921 -39.447)" d="M0 0h433v289H0z"/></clipPath><g clip-path="url(#S)"><path d="m411.39 34.313-5.878 33.352 8.687 23.867 16.673 2.939 55.687-20.27 5.878-33.347-8.687-23.866-16.674-2.94zm0 0" fill="orange" fill-opacity=".5"/><path transform="matrix(1.2459 0 0 -1.24589 124.921 -39.447)" stroke-miterlimit="10" fill="none" stroke="#000" stroke-opacity=".5" d="m229.93-59.203-4.719-26.77 6.973-19.156 13.382-2.359 44.696 16.269 4.718 26.766-6.972 19.156-13.383 2.359zm0 0"/></g><clipPath id="T"><path transform="matrix(1.2459 0 0 1.24589 124.921 -39.447)" d="M0 0h433v289H0z"/></clipPath><g clip-path="url(#T)"><path d="m416.788 52.462 8.687 23.861 55.686-20.265-8.687-23.867zm0 0" fill="red"/><path transform="matrix(1.2459 0 0 -1.24589 124.921 -39.447)" stroke-miterlimit="10" fill="none" stroke="#000" d="m234.262-73.77 6.972-19.152 44.696 16.266-6.973 19.156zm0 0"/></g><clipPath id="U"><path transform="matrix(1.2459 0 0 1.24589 124.921 -39.447)" d="M0 0h433v289H0z"/></clipPath><g clip-path="url(#U)"><path d="M316.103 249.818a.708.708 0 0 0 .492-.205.708.708 0 0 0 .205-.497.693.693 0 0 0-.205-.49.682.682 0 0 0-.492-.205.688.688 0 0 0-.49.204.702.702 0 0 0 0 .988c.13.126.306.205.49.205zm0 0"/><path transform="matrix(1.2459 0 0 -1.24589 124.921 -39.447)" stroke-linejoin="round" fill="none" stroke="#000" d="M153.449-232.176c.149 0 .293.063.395.164.105.106.164.25.164.399a.556.556 0 0 1-.559.558.552.552 0 0 1-.394-.164.564.564 0 0 1 .394-.957zm0 0"/></g><clipPath id="V"><path transform="matrix(1.2459 0 0 1.24589 124.921 -39.447)" d="M0 0h433v289H0z"/></clipPath><g clip-path="url(#V)"><path d="M448.977 54.954a.698.698 0 0 0 .491-1.189.702.702 0 0 0-.988 0 .72.72 0 0 0-.204.492c0 .185.078.365.204.491a.704.704 0 0 0 .497.206zm0 0"/><path transform="matrix(1.2459 0 0 -1.24589 124.921 -39.447)" stroke-linejoin="round" fill="none" stroke="#000" d="M260.098-75.77a.56.56 0 0 1 0 1.118.568.568 0 0 1-.399-.164.578.578 0 0 1-.164-.395.565.565 0 0 1 .563-.559zm0 0"/></g><clipPath id="W"><path transform="matrix(1.2459 0 0 1.24589 124.921 -39.447)" d="M0 0h433v289H0z"/></clipPath><g clip-path="url(#W)"><path d="m469.885 71.261 16.674 2.94 5.878-33.347-16.673-2.939zm0 0" fill="#00f" fill-opacity=".3"/><path transform="matrix(1.2459 0 0 -1.24589 124.921 -39.447)" stroke-miterlimit="10" fill="none" stroke="#000" stroke-opacity=".3" d="m276.879-88.859 13.383-2.36 4.718 26.766-13.382 2.359zm0 0"/></g><clipPath id="X"><path transform="matrix(1.2459 0 0 1.24589 124.921 -39.447)" d="M0 0h433v289H0z"/></clipPath><g clip-path="url(#X)"><path d="m461.197 47.395 16.674 2.94 5.88-33.347-16.675-2.94zm0 0" fill="#00f" fill-opacity=".3"/><path transform="matrix(1.2459 0 0 -1.24589 124.921 -39.447)" stroke-miterlimit="10" fill="none" stroke="#000" stroke-opacity=".3" d="m269.906-69.703 13.383-2.36 4.719 26.766-13.383 2.359zm0 0"/></g><clipPath id="Y"><path transform="matrix(1.2459 0 0 1.24589 124.921 -39.447)" d="M0 0h433v289H0z"/></clipPath><g clip-path="url(#Y)"><path d="m405.512 67.665 16.673 2.94 5.88-33.348-16.674-2.944zm0 0" fill="#00f" fill-opacity=".3"/><path transform="matrix(1.2459 0 0 -1.24589 124.921 -39.447)" stroke-miterlimit="10" fill="none" stroke="#000" stroke-opacity=".3" d="m225.211-85.973 13.383-2.359 4.719 26.766-13.383 2.363zm0 0"/></g><clipPath id="Z"><path transform="matrix(1.2459 0 0 1.24589 124.921 -39.447)" d="M0 0h433v289H0z"/></clipPath><g clip-path="url(#Z)"><path d="m414.2 91.532 16.672 2.939 5.88-33.351-16.675-2.94zm0 0" fill="#00f" fill-opacity=".3"/><path transform="matrix(1.2459 0 0 -1.24589 124.921 -39.447)" stroke-miterlimit="10" fill="none" stroke="#000" stroke-opacity=".3" d="m232.184-105.129 13.382-2.359 4.719 26.769-13.383 2.36zm0 0"/></g><clipPath id="aa"><path transform="matrix(1.2459 0 0 1.24589 124.921 -39.447)" d="M0 0h433v289H0z"/></clipPath><g clip-path="url(#aa)"><path d="m315.227 248.455 42.634-56.586-2.42-.447 9.262-6.804-3.985 10.774-1.096-2.199-42.638 56.59-1.757-1.328" fill="purple"/></g><clipPath id="ab"><path transform="matrix(1.2459 0 0 1.24589 124.921 -39.447)" d="M0 0h433v289H0z"/></clipPath><g clip-path="url(#ab)"><path d="m315.018 248.927 7.1-40.267-2.354.7 5.163-10.264 1.338 11.413-1.975-1.47-7.102 40.273-2.17-.385"/></g><clipPath id="ac"><path transform="matrix(1.2459 0 0 1.24589 124.921 -39.447)" d="M0 0h433v289H0z"/></clipPath><g clip-path="url(#ac)"><path d="M449.351 55.294 418.88 66.38l1.787 1.694-11.471.662 9.213-6.868-.278 2.444 30.466-11.086.754 2.068"/></g></g><path transform="matrix(1.2459 0 0 -1.24589 124.921 -39.447)" stroke-width=".8" stroke-linecap="square" stroke-miterlimit="10" fill="none" stroke="#000" d="M133.066-252v217.441M309.734-252v217.441M133.066-252h176.668M133.066-34.559h176.668"/><symbol id="ad"><path d="M.338.676a.207.207 0 0 1-.171-.08.344.344 0 0 1-.063-.218C.104.286.125.214.167.16c.042-.053.1-.08.17-.08.073 0 .13.027.17.08a.343.343 0 0 1 .064.218.344.344 0 0 1-.063.218.204.204 0 0 1-.17.08m0 .08A.312.312 0 0 0 .583.653.398.398 0 0 0 .675.378.399.399 0 0 0 .583.103.313.313 0 0 0 .338 0a.315.315 0 0 0-.246.103A.398.398 0 0 0 0 .378c0 .115.03.207.092.275a.314.314 0 0 0 .246.103z"/></symbol><symbol id="ae"><path d="M.47.72V.622a.608.608 0 0 1-.107.04.375.375 0 0 1-.096.013.213.213 0 0 1-.124-.031.103.103 0 0 1-.044-.089C.1.524.11.5.128.483a.256.256 0 0 1 .11-.04l.06-.012A.302.302 0 0 0 .46.357.191.191 0 0 0 .513.215C.513.145.49.091.442.055A.336.336 0 0 0 .234 0a.564.564 0 0 0-.11.012.822.822 0 0 0-.121.034v.102c.04-.023.08-.04.118-.05A.397.397 0 0 1 .234.08c.056 0 .1.011.13.033A.11.11 0 0 1 .41.208a.108.108 0 0 1-.033.084.225.225 0 0 1-.108.045L.209.35a.322.322 0 0 0-.16.069.171.171 0 0 0-.049.13c0 .065.023.116.068.153a.29.29 0 0 0 .188.055A.608.608 0 0 0 .469.72z"/></symbol><symbol id="af"><path d="M0 .729h.617V.646h-.26V0H.26v.646H0v.083z"/></symbol><use xlink:href="#ad" transform="matrix(12.459 0 0 -12.45885 333.736 253.528)"/><use xlink:href="#ae" transform="matrix(12.459 0 0 -12.45885 343.663 253.528)"/><use xlink:href="#af" transform="matrix(12.459 0 0 -12.45885 492.114 47.909)"/><use xlink:href="#ae" transform="matrix(12.459 0 0 -12.45885 500.584 48.085)"/><symbol id="ag"><path d="M.128 0 0 .729h.097L.203.102.557.73h.107L.243 0H.128z"/></symbol><use xlink:href="#ag" transform="matrix(12.459 0 0 -12.45885 325.898 198.22)"/><symbol id="ah"><path d="M.416.676a.26.26 0 0 1-.143-.04.33.33 0 0 1-.108-.119.463.463 0 0 1-.06-.225.23.23 0 0 1 .048-.157A.174.174 0 0 1 .291.08c.053 0 .1.013.143.04A.327.327 0 0 1 .54.238a.478.478 0 0 1 .061.226c0 .068-.016.12-.049.157a.173.173 0 0 1-.137.055M.288 0a.28.28 0 0 0-.211.08A.3.3 0 0 0 0 .297a.504.504 0 0 0 .113.309.374.374 0 0 0 .306.15c.09 0 .16-.026.21-.079A.293.293 0 0 0 .708.462.482.482 0 0 0 .594.15.373.373 0 0 0 .288 0z"/></symbol><symbol id="ai"><path d="M.597.72.578.622a.466.466 0 0 1-.192.053.232.232 0 0 1-.14-.038.121.121 0 0 1-.053-.103C.193.512.2.494.213.481a.272.272 0 0 1 .099-.04l.06-.015A.302.302 0 0 0 .51.36.152.152 0 0 0 .55.25a.22.22 0 0 0-.088-.18A.354.354 0 0 0 .234 0 .594.594 0 0 0 0 .046l.02.102a.478.478 0 0 1 .108-.05.363.363 0 0 1 .11-.018c.06 0 .11.014.147.041a.127.127 0 0 1 .056.107c0 .03-.008.051-.023.066C.404.31.372.324.323.336L.264.35a.34.34 0 0 0-.138.06.127.127 0 0 0-.037.097c0 .073.028.132.084.179a.33.33 0 0 0 .218.07.58.58 0 0 0 .206-.038z"/></symbol><use xlink:href="#ah" transform="matrix(8.7213 0 0 -8.7212 333.797 200.387)"/><use xlink:href="#ai" transform="matrix(8.7213 0 0 -8.7212 340.363 200.387)"/><use xlink:href="#ag" transform="matrix(12.459 0 0 -12.45885 365.675 183.742)"/><use xlink:href="#ah" transform="matrix(8.7213 0 0 -8.7212 373.574 185.91)"/><use xlink:href="#ai" transform="matrix(8.7213 0 0 -8.7212 380.14 185.91)"/><use xlink:href="#ag" transform="matrix(12.459 0 0 -12.45885 402.233 183.742)"/><symbol id="aj"><path d="M.016.729h.617L.617.646h-.26L.232 0h-.1l.126.646H0l.016.083z"/></symbol><use xlink:href="#aj" transform="matrix(8.7213 0 0 -8.7212 410.158 185.786)"/><use xlink:href="#ai" transform="matrix(8.7213 0 0 -8.7212 415.163 185.91)"/><clipPath id="ak"><path transform="matrix(1.2459 0 0 1.24589 124.921 -39.447)" d="M201.262 166.813h28.148v16.957h-28.148z"/></clipPath><g clip-path="url(#ak)"><clipPath id="al"><path transform="matrix(1.2459 0 0 1.24589 124.921 -39.447)" d="M0 0h433v289H0z"/></clipPath><g clip-path="url(#al)"><path d="M389.713 179.318h7.802v1.037h-7.802z"/></g></g><use xlink:href="#ag" transform="matrix(12.459 0 0 -12.45885 385.62 59.394)"/><use xlink:href="#aj" transform="matrix(8.7213 0 0 -8.7212 393.545 61.438)"/><use xlink:href="#ai" transform="matrix(8.7213 0 0 -8.7212 398.55 61.561)"/><path transform="matrix(1.2459 0 0 -1.24589 124.921 -39.447)" stroke-linecap="round" stroke-linejoin="round" fill="none" stroke="#000" d="M207.371-44.008c17.926 1.59 33.121-2.535 45.578-12.379"/><path transform="matrix(1.2459 0 0 -1.24589 124.921 -39.447)" stroke-linecap="round" stroke-linejoin="round" fill="none" stroke="#000" d="m251.051-52.336 1.898-4.051-4.379.91"/><use xlink:href="#aj" transform="matrix(12.459 0 0 -12.45885 319.038 26.291)"/><use xlink:href="#ai" transform="matrix(12.459 0 0 -12.45885 326.188 26.468)"/><use xlink:href="#ah" transform="matrix(12.459 0 0 -12.45885 360.253 26.468)"/><use xlink:href="#ai" transform="matrix(12.459 0 0 -12.45885 369.633 26.468)"/><clipPath id="am"><path transform="matrix(1.2459 0 0 1.24589 124.921 -39.447)" d="M159.57 40.434h28.148v16.961H159.57z"/></clipPath><g clip-path="url(#am)"><clipPath id="an"><path transform="matrix(1.2459 0 0 1.24589 124.921 -39.447)" d="M0 0h433v289H0z"/></clipPath><g clip-path="url(#an)"><path d="M342.89 19.441a3.345 3.345 0 0 0-1.22-.24c-.435 0-.848.09-1.223.24-.374.16-.72.399-1.022.695a3.057 3.057 0 0 0-.696 1.023c-.151.374-.223.782-.223 1.231 0 .424.072.822.223 1.197.15.375.385.725.696 1.037.302.311.648.544 1.022.695.375.16.788.24 1.222.24a3.15 3.15 0 0 0 1.221-.24c.375-.15.711-.384 1.023-.695.296-.312.534-.662.685-1.037a3.258 3.258 0 0 0 0-2.428 3.258 3.258 0 0 0-.685-1.023 3.471 3.471 0 0 0-1.023-.695zm-2.788-.847a4.08 4.08 0 0 1 3.124 0c.486.2.925.496 1.319.896.4.398.711.846.91 1.318.2.487.302 1.013.302 1.582 0 .55-.102 1.075-.302 1.547-.199.488-.497.92-.895 1.32-.4.398-.848.7-1.334.9a4.15 4.15 0 0 1-1.557.297c-.56 0-1.085-.102-1.567-.298-.487-.199-.925-.5-1.31-.9a3.83 3.83 0 0 1-.91-1.319 3.975 3.975 0 0 1-.3-1.547c0-.57.101-1.095.3-1.582.2-.472.497-.92.91-1.318a3.8 3.8 0 0 1 1.31-.896zm2.078 1.105v2.17h2.17v1.032h-2.17v2.17h-1.032v-2.17h-2.156v-1.032h2.156V19.7zm0 0"/></g></g><clipPath id="ao"><path transform="matrix(1.2459 0 0 1.24589 124.921 -39.447)" d="M169.895 40.434h28.152v16.961h-28.152z"/></clipPath><g clip-path="url(#ao)"><clipPath id="ap"><path transform="matrix(1.2459 0 0 1.24589 124.921 -39.447)" d="M0 0h433v289H0z"/></clipPath><g clip-path="url(#ap)"><path d="M350.638 21.87h7.797v1.03h-7.797z"/></g></g></g></g></g><clipPath id="aq"><path transform="matrix(1 0 0 -1 -11 362)" d="M0 .028h793.672v446.428H0z" fill-rule="evenodd"/></clipPath><g clip-path="url(#aq)"><path stroke-width="4.507" stroke-linejoin="round" fill="none" stroke="#3465a4" d="M229.945 128.142h42.463"/><path d="m271.387 120.517 15.251 7.625-15.251 7.626v-15.251z" fill="#3465a4" fill-rule="evenodd"/><path stroke-width="4.507" stroke-linejoin="round" fill="none" stroke="#3465a4" d="M515.394 128.142h42.463"/><path d="m556.836 120.517 15.251 7.625-15.251 7.626v-15.251z" fill="#3465a4" fill-rule="evenodd"/></g></g></g></svg>