<?xml version="1.0" encoding="UTF-8"?>
<svg xmlns="http://www.w3.org/2000/svg" xmlns:xlink="http://www.w3.org/1999/xlink" width="400px" height="px" viewBox="0 0 400 412" version="1.1">
<defs>
<clipPath id="clip1">
  <path d="M 0 0 L 400 0 L 400 409.527344 L 0 409.527344 Z M 0 0 "/>
</clipPath>
</defs>
<g id="surface1">
<g clip-path="url(#clip1)" clip-rule="nonzero">
<path style=" stroke:none;fill-rule:nonzero;fill:rgb(100%,100%,100%);fill-opacity:1;" d="M -82.03125 409.527344 L 517.96875 409.527344 L 517.96875 -39.925781 L -82.03125 -39.925781 Z M -82.03125 409.527344 "/>
</g>
<path style=" stroke:none;fill-rule:nonzero;fill:rgb(100%,100%,100%);fill-opacity:1;" d="M 52.21875 360.089844 L 398.71875 360.089844 L 398.71875 14.007812 L 52.21875 14.007812 Z M 52.21875 360.089844 "/>
<path style="fill:none;stroke-width:0.8;stroke-linecap:butt;stroke-linejoin:round;stroke:rgb(0%,0%,0%);stroke-opacity:1;stroke-miterlimit:4;" d="M 50.154 266.984618 L 50.154 270.483859 " transform="matrix(1.302083,0,0,1.300505,0,12.875)"/>
<path style=" stroke:none;fill-rule:nonzero;fill:rgb(0%,0%,0%);fill-opacity:1;" d="M 65.304688 370.433594 C 64.640625 370.433594 64.144531 370.757812 63.808594 371.410156 C 63.46875 372.058594 63.3125 373.035156 63.3125 374.335938 C 63.3125 375.636719 63.46875 376.609375 63.808594 377.261719 C 64.144531 377.910156 64.640625 378.234375 65.304688 378.234375 C 65.96875 378.234375 66.464844 377.910156 66.800781 377.261719 C 67.128906 376.609375 67.296875 375.636719 67.296875 374.335938 C 67.296875 373.035156 67.128906 372.058594 66.800781 371.410156 C 66.464844 370.757812 65.96875 370.433594 65.304688 370.433594 Z M 65.304688 369.417969 C 66.359375 369.417969 67.167969 369.847656 67.738281 370.679688 C 68.300781 371.527344 68.585938 372.75 68.585938 374.335938 C 68.585938 375.933594 68.300781 377.15625 67.738281 377.988281 C 67.167969 378.820312 66.359375 379.238281 65.292969 379.238281 C 64.222656 379.238281 63.417969 378.820312 62.855469 377.988281 C 62.296875 377.15625 62.023438 375.933594 62.023438 374.335938 C 62.023438 372.75 62.296875 371.527344 62.855469 370.679688 C 63.417969 369.847656 64.238281 369.417969 65.304688 369.417969 Z M 65.304688 369.417969 "/>
<path style="fill:none;stroke-width:0.8;stroke-linecap:butt;stroke-linejoin:round;stroke:rgb(0%,0%,0%);stroke-opacity:1;stroke-miterlimit:4;" d="M 114.297 266.984618 L 114.297 270.483859 " transform="matrix(1.302083,0,0,1.300505,0,12.875)"/>
<path style=" stroke:none;fill-rule:nonzero;fill:rgb(0%,0%,0%);fill-opacity:1;" d="M 142.15625 377.988281 L 144.253906 377.988281 L 144.253906 370.757812 L 141.976562 371.214844 L 141.976562 370.042969 L 144.242188 369.589844 L 145.53125 369.589844 L 145.53125 377.988281 L 147.625 377.988281 L 147.625 379.070312 L 142.15625 379.070312 Z M 142.15625 377.988281 "/>
<path style=" stroke:none;fill-rule:nonzero;fill:rgb(0%,0%,0%);fill-opacity:1;" d="M 152.964844 370.433594 C 152.300781 370.433594 151.804688 370.757812 151.46875 371.410156 C 151.128906 372.058594 150.972656 373.035156 150.972656 374.335938 C 150.972656 375.636719 151.128906 376.609375 151.46875 377.261719 C 151.804688 377.910156 152.300781 378.234375 152.964844 378.234375 C 153.628906 378.234375 154.125 377.910156 154.460938 377.261719 C 154.789062 376.609375 154.957031 375.636719 154.957031 374.335938 C 154.957031 373.035156 154.789062 372.058594 154.460938 371.410156 C 154.125 370.757812 153.628906 370.433594 152.964844 370.433594 Z M 152.964844 369.417969 C 154.019531 369.417969 154.828125 369.847656 155.398438 370.679688 C 155.960938 371.527344 156.246094 372.75 156.246094 374.335938 C 156.246094 375.933594 155.960938 377.15625 155.398438 377.988281 C 154.828125 378.820312 154.019531 379.238281 152.953125 379.238281 C 151.882812 379.238281 151.078125 378.820312 150.515625 377.988281 C 149.957031 377.15625 149.683594 375.933594 149.683594 374.335938 C 149.683594 372.75 149.957031 371.527344 150.515625 370.679688 C 151.078125 369.847656 151.898438 369.417969 152.964844 369.417969 Z M 152.964844 369.417969 "/>
<path style="fill:none;stroke-width:0.8;stroke-linecap:butt;stroke-linejoin:round;stroke:rgb(0%,0%,0%);stroke-opacity:1;stroke-miterlimit:4;" d="M 178.44 266.984618 L 178.44 270.483859 " transform="matrix(1.302083,0,0,1.300505,0,12.875)"/>
<path style=" stroke:none;fill-rule:nonzero;fill:rgb(0%,0%,0%);fill-opacity:1;" d="M 226.5625 377.988281 L 231.042969 377.988281 L 231.042969 379.070312 L 225.011719 379.070312 L 225.011719 377.988281 C 225.496094 377.496094 226.160156 376.820312 227.003906 375.960938 C 227.839844 375.113281 228.371094 374.570312 228.59375 374.320312 C 229.011719 373.867188 229.296875 373.476562 229.453125 373.152344 C 229.609375 372.839844 229.699219 372.515625 229.699219 372.203125 C 229.699219 371.707031 229.519531 371.292969 229.167969 370.980469 C 228.816406 370.667969 228.359375 370.5 227.785156 370.5 C 227.382812 370.5 226.953125 370.578125 226.511719 370.707031 C 226.066406 370.847656 225.585938 371.058594 225.078125 371.34375 L 225.078125 370.042969 C 225.597656 369.835938 226.082031 369.679688 226.523438 369.574219 C 226.964844 369.472656 227.382812 369.417969 227.761719 369.417969 C 228.738281 369.417969 229.519531 369.664062 230.105469 370.160156 C 230.691406 370.65625 230.988281 371.304688 230.988281 372.125 C 230.988281 372.515625 230.910156 372.890625 230.769531 373.230469 C 230.625 373.582031 230.363281 373.996094 229.972656 374.464844 C 229.871094 374.59375 229.53125 374.945312 228.957031 375.53125 C 228.386719 376.117188 227.589844 376.9375 226.5625 377.988281 Z M 226.5625 377.988281 "/>
<path style=" stroke:none;fill-rule:nonzero;fill:rgb(0%,0%,0%);fill-opacity:1;" d="M 236.484375 370.433594 C 235.820312 370.433594 235.324219 370.757812 234.988281 371.410156 C 234.648438 372.058594 234.492188 373.035156 234.492188 374.335938 C 234.492188 375.636719 234.648438 376.609375 234.988281 377.261719 C 235.324219 377.910156 235.820312 378.234375 236.484375 378.234375 C 237.148438 378.234375 237.644531 377.910156 237.980469 377.261719 C 238.308594 376.609375 238.476562 375.636719 238.476562 374.335938 C 238.476562 373.035156 238.308594 372.058594 237.980469 371.410156 C 237.644531 370.757812 237.148438 370.433594 236.484375 370.433594 Z M 236.484375 369.417969 C 237.539062 369.417969 238.347656 369.847656 238.917969 370.679688 C 239.480469 371.527344 239.765625 372.75 239.765625 374.335938 C 239.765625 375.933594 239.480469 377.15625 238.917969 377.988281 C 238.347656 378.820312 237.539062 379.238281 236.472656 379.238281 C 235.402344 379.238281 234.597656 378.820312 234.035156 377.988281 C 233.476562 377.15625 233.203125 375.933594 233.203125 374.335938 C 233.203125 372.75 233.476562 371.527344 234.035156 370.679688 C 234.597656 369.847656 235.417969 369.417969 236.484375 369.417969 Z M 236.484375 369.417969 "/>
<path style="fill:none;stroke-width:0.8;stroke-linecap:butt;stroke-linejoin:round;stroke:rgb(0%,0%,0%);stroke-opacity:1;stroke-miterlimit:4;" d="M 242.58 266.984618 L 242.58 270.483859 " transform="matrix(1.302083,0,0,1.300505,0,12.875)"/>
<path style=" stroke:none;fill-rule:nonzero;fill:rgb(0%,0%,0%);fill-opacity:1;" d="M 312.867188 373.957031 C 313.480469 374.085938 313.960938 374.359375 314.300781 374.777344 C 314.636719 375.191406 314.820312 375.714844 314.820312 376.3125 C 314.820312 377.246094 314.496094 377.976562 313.855469 378.484375 C 313.207031 378.992188 312.292969 379.238281 311.109375 379.238281 C 310.707031 379.238281 310.289062 379.199219 309.871094 379.121094 C 309.457031 379.054688 309.011719 378.9375 308.570312 378.78125 L 308.570312 377.546875 C 308.921875 377.753906 309.3125 377.910156 309.742188 378.015625 C 310.160156 378.121094 310.601562 378.171875 311.070312 378.171875 C 311.878906 378.171875 312.488281 378.015625 312.90625 377.703125 C 313.324219 377.390625 313.542969 376.921875 313.542969 376.3125 C 313.542969 375.765625 313.347656 375.324219 312.957031 375.011719 C 312.566406 374.699219 312.019531 374.53125 311.316406 374.53125 L 310.210938 374.53125 L 310.210938 373.476562 L 311.371094 373.476562 C 311.996094 373.476562 312.476562 373.359375 312.816406 373.097656 C 313.152344 372.851562 313.324219 372.488281 313.324219 372.007812 C 313.324219 371.527344 313.140625 371.148438 312.800781 370.886719 C 312.449219 370.628906 311.957031 370.5 311.316406 370.5 C 310.964844 370.5 310.589844 370.539062 310.183594 370.617188 C 309.78125 370.691406 309.339844 370.808594 308.855469 370.964844 L 308.855469 369.820312 C 309.339844 369.691406 309.792969 369.589844 310.222656 369.523438 C 310.640625 369.457031 311.042969 369.417969 311.433594 369.417969 C 312.398438 369.417969 313.167969 369.640625 313.738281 370.082031 C 314.3125 370.523438 314.597656 371.121094 314.597656 371.875 C 314.597656 372.398438 314.441406 372.839844 314.144531 373.203125 C 313.84375 373.566406 313.414062 373.828125 312.867188 373.957031 Z M 312.867188 373.957031 "/>
<path style=" stroke:none;fill-rule:nonzero;fill:rgb(0%,0%,0%);fill-opacity:1;" d="M 320.003906 370.433594 C 319.339844 370.433594 318.84375 370.757812 318.503906 371.410156 C 318.167969 372.058594 318.011719 373.035156 318.011719 374.335938 C 318.011719 375.636719 318.167969 376.609375 318.503906 377.261719 C 318.84375 377.910156 319.339844 378.234375 320.003906 378.234375 C 320.667969 378.234375 321.160156 377.910156 321.5 377.261719 C 321.824219 376.609375 321.996094 375.636719 321.996094 374.335938 C 321.996094 373.035156 321.824219 372.058594 321.5 371.410156 C 321.160156 370.757812 320.667969 370.433594 320.003906 370.433594 Z M 320.003906 369.417969 C 321.058594 369.417969 321.863281 369.847656 322.4375 370.679688 C 322.996094 371.527344 323.285156 372.75 323.285156 374.335938 C 323.285156 375.933594 322.996094 377.15625 322.4375 377.988281 C 321.863281 378.820312 321.058594 379.238281 319.988281 379.238281 C 318.921875 379.238281 318.113281 378.820312 317.554688 377.988281 C 316.996094 377.15625 316.722656 375.933594 316.722656 374.335938 C 316.722656 372.75 316.996094 371.527344 317.554688 370.679688 C 318.113281 369.847656 318.933594 369.417969 320.003906 369.417969 Z M 320.003906 369.417969 "/>
<path style=" stroke:none;fill-rule:nonzero;fill:rgb(0%,0%,0%);fill-opacity:1;" d="M 198.902344 387.367188 L 206.921875 387.367188 L 206.921875 388.449219 L 203.550781 388.449219 L 203.550781 396.847656 L 202.261719 396.847656 L 202.261719 388.449219 L 198.902344 388.449219 Z M 198.902344 387.367188 "/>
<path style=" stroke:none;fill-rule:nonzero;fill:rgb(0%,0%,0%);fill-opacity:1;" d="M 207.722656 389.734375 L 208.894531 389.734375 L 208.894531 396.847656 L 207.722656 396.847656 Z M 207.722656 386.964844 L 208.894531 386.964844 L 208.894531 388.449219 L 207.722656 388.449219 Z M 207.722656 386.964844 "/>
<path style=" stroke:none;fill-rule:nonzero;fill:rgb(0%,0%,0%);fill-opacity:1;" d="M 216.886719 391.101562 C 217.175781 390.582031 217.527344 390.203125 217.929688 389.945312 C 218.332031 389.695312 218.816406 389.566406 219.375 389.566406 C 220.105469 389.566406 220.675781 389.828125 221.082031 390.347656 C 221.484375 390.867188 221.691406 391.609375 221.691406 392.558594 L 221.691406 396.847656 L 220.519531 396.847656 L 220.519531 392.597656 C 220.519531 391.921875 220.390625 391.414062 220.15625 391.074219 C 219.910156 390.75 219.542969 390.582031 219.050781 390.582031 C 218.4375 390.582031 217.957031 390.789062 217.605469 391.191406 C 217.253906 391.59375 217.082031 392.140625 217.082031 392.832031 L 217.082031 396.847656 L 215.910156 396.847656 L 215.910156 392.597656 C 215.910156 391.921875 215.78125 391.414062 215.546875 391.074219 C 215.300781 390.75 214.921875 390.582031 214.425781 390.582031 C 213.828125 390.582031 213.347656 390.789062 212.996094 391.191406 C 212.644531 391.59375 212.472656 392.140625 212.472656 392.832031 L 212.472656 396.847656 L 211.300781 396.847656 L 211.300781 389.734375 L 212.472656 389.734375 L 212.472656 390.839844 C 212.734375 390.410156 213.058594 390.085938 213.4375 389.878906 C 213.800781 389.671875 214.246094 389.566406 214.765625 389.566406 C 215.285156 389.566406 215.714844 389.695312 216.082031 389.957031 C 216.445312 390.214844 216.707031 390.605469 216.886719 391.101562 Z M 216.886719 391.101562 "/>
<path style=" stroke:none;fill-rule:nonzero;fill:rgb(0%,0%,0%);fill-opacity:1;" d="M 230.117188 393 L 230.117188 393.570312 L 224.738281 393.570312 C 224.792969 394.378906 225.027344 395.003906 225.46875 395.417969 C 225.898438 395.835938 226.496094 396.042969 227.277344 396.042969 C 227.722656 396.042969 228.164062 395.992188 228.582031 395.886719 C 228.996094 395.78125 229.425781 395.613281 229.84375 395.378906 L 229.84375 396.484375 C 229.425781 396.667969 228.996094 396.808594 228.554688 396.886719 C 228.113281 396.964844 227.65625 397.019531 227.214844 397.019531 C 226.066406 397.019531 225.167969 396.691406 224.503906 396.042969 C 223.839844 395.390625 223.515625 394.496094 223.515625 393.363281 C 223.515625 392.207031 223.828125 391.28125 224.453125 390.59375 C 225.078125 389.917969 225.9375 389.566406 227.003906 389.566406 C 227.96875 389.566406 228.722656 389.878906 229.285156 390.488281 C 229.832031 391.113281 230.117188 391.945312 230.117188 393 Z M 228.945312 392.660156 C 228.933594 392.023438 228.75 391.515625 228.410156 391.125 C 228.058594 390.75 227.589844 390.554688 227.019531 390.554688 C 226.367188 390.554688 225.847656 390.75 225.457031 391.113281 C 225.066406 391.476562 224.832031 392 224.777344 392.660156 Z M 228.945312 392.660156 "/>
<path style=" stroke:none;fill-rule:nonzero;fill:rgb(0%,0%,0%);fill-opacity:1;" d="M 236.066406 386.964844 L 238.761719 386.964844 L 238.761719 387.875 L 237.238281 387.875 L 237.238281 397.640625 L 238.761719 397.640625 L 238.761719 398.554688 L 236.066406 398.554688 Z M 236.066406 386.964844 "/>
<path style=" stroke:none;fill-rule:nonzero;fill:rgb(0%,0%,0%);fill-opacity:1;" d="M 245.792969 389.945312 L 245.792969 391.050781 C 245.457031 390.894531 245.117188 390.761719 244.765625 390.671875 C 244.402344 390.59375 244.035156 390.542969 243.660156 390.542969 C 243.074219 390.542969 242.628906 390.632812 242.34375 390.816406 C 242.058594 390.996094 241.914062 391.257812 241.914062 391.609375 C 241.914062 391.882812 242.019531 392.089844 242.226562 392.246094 C 242.433594 392.402344 242.851562 392.558594 243.476562 392.6875 L 243.878906 392.777344 C 244.714844 392.960938 245.300781 393.222656 245.652344 393.53125 C 245.988281 393.859375 246.171875 394.3125 246.171875 394.886719 C 246.171875 395.546875 245.910156 396.070312 245.390625 396.445312 C 244.871094 396.835938 244.140625 397.019531 243.230469 397.019531 C 242.839844 397.019531 242.449219 396.980469 242.03125 396.914062 C 241.613281 396.847656 241.183594 396.746094 240.730469 396.589844 L 240.730469 395.378906 C 241.160156 395.613281 241.589844 395.78125 242.003906 395.886719 C 242.421875 396.003906 242.839844 396.054688 243.253906 396.054688 C 243.800781 396.054688 244.230469 395.964844 244.53125 395.78125 C 244.816406 395.601562 244.972656 395.328125 244.972656 394.976562 C 244.972656 394.664062 244.855469 394.417969 244.648438 394.25 C 244.441406 394.078125 243.972656 393.910156 243.242188 393.753906 L 242.839844 393.664062 C 242.109375 393.507812 241.574219 393.273438 241.261719 392.960938 C 240.9375 392.648438 240.78125 392.21875 240.78125 391.660156 C 240.78125 390.996094 241.015625 390.476562 241.484375 390.113281 C 241.953125 389.75 242.628906 389.566406 243.515625 389.566406 C 243.945312 389.566406 244.347656 389.605469 244.738281 389.671875 C 245.117188 389.734375 245.46875 389.828125 245.792969 389.945312 Z M 245.792969 389.945312 "/>
<path style=" stroke:none;fill-rule:nonzero;fill:rgb(0%,0%,0%);fill-opacity:1;" d="M 250.769531 386.964844 L 250.769531 398.554688 L 248.074219 398.554688 L 248.074219 397.640625 L 249.597656 397.640625 L 249.597656 387.875 L 248.074219 387.875 L 248.074219 386.964844 Z M 250.769531 386.964844 "/>
<path style="fill:none;stroke-width:0.8;stroke-linecap:butt;stroke-linejoin:round;stroke:rgb(0%,0%,0%);stroke-opacity:1;stroke-miterlimit:4;" d="M 40.104 239.372148 L 36.603 239.372148 " transform="matrix(1.302083,0,0,1.300505,0,12.875)"/>
<path style=" stroke:none;fill-rule:nonzero;fill:rgb(0%,0%,0%);fill-opacity:1;" d="M 29.042969 328.039062 L 33.523438 328.039062 L 33.523438 329.117188 L 27.492188 329.117188 L 27.492188 328.039062 C 27.976562 327.546875 28.640625 326.867188 29.484375 326.011719 C 30.320312 325.164062 30.851562 324.617188 31.074219 324.371094 C 31.492188 323.917969 31.777344 323.527344 31.933594 323.203125 C 32.089844 322.890625 32.179688 322.5625 32.179688 322.253906 C 32.179688 321.757812 32 321.339844 31.648438 321.03125 C 31.296875 320.71875 30.839844 320.546875 30.265625 320.546875 C 29.863281 320.546875 29.433594 320.625 28.992188 320.757812 C 28.546875 320.898438 28.066406 321.109375 27.558594 321.394531 L 27.558594 320.09375 C 28.078125 319.886719 28.5625 319.730469 29.003906 319.625 C 29.445312 319.519531 29.863281 319.46875 30.242188 319.46875 C 31.21875 319.46875 32 319.714844 32.585938 320.210938 C 33.171875 320.703125 33.46875 321.355469 33.46875 322.175781 C 33.46875 322.5625 33.390625 322.941406 33.25 323.28125 C 33.105469 323.628906 32.84375 324.046875 32.453125 324.515625 C 32.351562 324.644531 32.011719 324.996094 31.4375 325.582031 C 30.867188 326.167969 30.070312 326.984375 29.042969 328.039062 Z M 29.042969 328.039062 "/>
<path style=" stroke:none;fill-rule:nonzero;fill:rgb(0%,0%,0%);fill-opacity:1;" d="M 36.230469 319.636719 L 41.269531 319.636719 L 41.269531 320.71875 L 37.402344 320.71875 L 37.402344 323.046875 C 37.585938 322.980469 37.78125 322.929688 37.960938 322.902344 C 38.144531 322.875 38.339844 322.851562 38.523438 322.851562 C 39.578125 322.851562 40.410156 323.148438 41.035156 323.722656 C 41.660156 324.308594 41.972656 325.085938 41.972656 326.074219 C 41.972656 327.101562 41.648438 327.894531 41.007812 328.457031 C 40.371094 329.015625 39.472656 329.289062 38.328125 329.289062 C 37.921875 329.289062 37.519531 329.25 37.101562 329.195312 C 36.6875 329.132812 36.269531 329.039062 35.828125 328.898438 L 35.828125 327.609375 C 36.203125 327.816406 36.59375 327.972656 37.011719 328.078125 C 37.414062 328.183594 37.84375 328.222656 38.300781 328.222656 C 39.03125 328.222656 39.617188 328.039062 40.046875 327.648438 C 40.460938 327.257812 40.683594 326.738281 40.683594 326.074219 C 40.683594 325.425781 40.460938 324.90625 40.046875 324.515625 C 39.617188 324.125 39.03125 323.929688 38.300781 323.929688 C 37.960938 323.929688 37.609375 323.96875 37.273438 324.046875 C 36.933594 324.125 36.582031 324.242188 36.230469 324.398438 Z M 36.230469 319.636719 "/>
<path style="fill:none;stroke-width:0.8;stroke-linecap:butt;stroke-linejoin:round;stroke:rgb(0%,0%,0%);stroke-opacity:1;stroke-miterlimit:4;" d="M 40.104 205.196723 L 36.603 205.196723 " transform="matrix(1.302083,0,0,1.300505,0,12.875)"/>
<path style=" stroke:none;fill-rule:nonzero;fill:rgb(0%,0%,0%);fill-opacity:1;" d="M 27.949219 275.191406 L 32.988281 275.191406 L 32.988281 276.273438 L 29.121094 276.273438 L 29.121094 278.597656 C 29.304688 278.535156 29.5 278.480469 29.679688 278.457031 C 29.863281 278.429688 30.058594 278.40625 30.242188 278.40625 C 31.296875 278.40625 32.128906 278.703125 32.753906 279.277344 C 33.378906 279.859375 33.691406 280.640625 33.691406 281.628906 C 33.691406 282.65625 33.367188 283.449219 32.726562 284.007812 C 32.089844 284.570312 31.191406 284.84375 30.046875 284.84375 C 29.640625 284.84375 29.238281 284.804688 28.820312 284.75 C 28.40625 284.6875 27.988281 284.59375 27.546875 284.453125 L 27.546875 283.164062 C 27.921875 283.371094 28.3125 283.527344 28.730469 283.632812 C 29.132812 283.738281 29.5625 283.777344 30.019531 283.777344 C 30.75 283.777344 31.335938 283.59375 31.765625 283.203125 C 32.179688 282.8125 32.402344 282.292969 32.402344 281.628906 C 32.402344 280.980469 32.179688 280.460938 31.765625 280.070312 C 31.335938 279.679688 30.75 279.484375 30.019531 279.484375 C 29.679688 279.484375 29.328125 279.523438 28.992188 279.601562 C 28.652344 279.679688 28.300781 279.796875 27.949219 279.953125 Z M 27.949219 275.191406 "/>
<path style=" stroke:none;fill-rule:nonzero;fill:rgb(0%,0%,0%);fill-opacity:1;" d="M 38.964844 276.039062 C 38.300781 276.039062 37.804688 276.363281 37.46875 277.011719 C 37.128906 277.664062 36.972656 278.636719 36.972656 279.9375 C 36.972656 281.238281 37.128906 282.214844 37.46875 282.863281 C 37.804688 283.515625 38.300781 283.839844 38.964844 283.839844 C 39.628906 283.839844 40.125 283.515625 40.460938 282.863281 C 40.789062 282.214844 40.957031 281.238281 40.957031 279.9375 C 40.957031 278.636719 40.789062 277.664062 40.460938 277.011719 C 40.125 276.363281 39.628906 276.039062 38.964844 276.039062 Z M 38.964844 275.023438 C 40.019531 275.023438 40.828125 275.453125 41.398438 276.285156 C 41.960938 277.128906 42.246094 278.351562 42.246094 279.9375 C 42.246094 281.539062 41.960938 282.761719 41.398438 283.59375 C 40.828125 284.425781 40.019531 284.84375 38.953125 284.84375 C 37.882812 284.84375 37.078125 284.425781 36.515625 283.59375 C 35.957031 282.761719 35.683594 281.539062 35.683594 279.9375 C 35.683594 278.351562 35.957031 277.128906 36.515625 276.285156 C 37.078125 275.453125 37.898438 275.023438 38.964844 275.023438 Z M 38.964844 275.023438 "/>
<path style="fill:none;stroke-width:0.8;stroke-linecap:butt;stroke-linejoin:round;stroke:rgb(0%,0%,0%);stroke-opacity:1;stroke-miterlimit:4;" d="M 40.104 171.021299 L 36.603 171.021299 " transform="matrix(1.302083,0,0,1.300505,0,12.875)"/>
<path style=" stroke:none;fill-rule:nonzero;fill:rgb(0%,0%,0%);fill-opacity:1;" d="M 27.609375 230.746094 L 33.71875 230.746094 L 33.71875 231.292969 L 30.265625 240.226562 L 28.925781 240.226562 L 32.167969 231.824219 L 27.609375 231.824219 Z M 27.609375 230.746094 "/>
<path style=" stroke:none;fill-rule:nonzero;fill:rgb(0%,0%,0%);fill-opacity:1;" d="M 36.230469 230.746094 L 41.269531 230.746094 L 41.269531 231.824219 L 37.402344 231.824219 L 37.402344 234.152344 C 37.585938 234.089844 37.78125 234.035156 37.960938 234.011719 C 38.144531 233.984375 38.339844 233.957031 38.523438 233.957031 C 39.578125 233.957031 40.410156 234.257812 41.035156 234.828125 C 41.660156 235.414062 41.972656 236.195312 41.972656 237.183594 C 41.972656 238.210938 41.648438 239.003906 41.007812 239.5625 C 40.371094 240.121094 39.472656 240.394531 38.328125 240.394531 C 37.921875 240.394531 37.519531 240.355469 37.101562 240.304688 C 36.6875 240.238281 36.269531 240.148438 35.828125 240.003906 L 35.828125 238.71875 C 36.203125 238.925781 36.59375 239.082031 37.011719 239.1875 C 37.414062 239.289062 37.84375 239.328125 38.300781 239.328125 C 39.03125 239.328125 39.617188 239.148438 40.046875 238.757812 C 40.460938 238.367188 40.683594 237.847656 40.683594 237.183594 C 40.683594 236.535156 40.460938 236.011719 40.046875 235.621094 C 39.617188 235.234375 39.03125 235.039062 38.300781 235.039062 C 37.960938 235.039062 37.609375 235.078125 37.273438 235.15625 C 36.933594 235.234375 36.582031 235.351562 36.230469 235.503906 Z M 36.230469 230.746094 "/>
<path style="fill:none;stroke-width:0.8;stroke-linecap:butt;stroke-linejoin:round;stroke:rgb(0%,0%,0%);stroke-opacity:1;stroke-miterlimit:4;" d="M 40.104 136.845874 L 36.603 136.845874 " transform="matrix(1.302083,0,0,1.300505,0,12.875)"/>
<path style=" stroke:none;fill-rule:nonzero;fill:rgb(0%,0%,0%);fill-opacity:1;" d="M 19.878906 194.703125 L 21.972656 194.703125 L 21.972656 187.46875 L 19.695312 187.925781 L 19.695312 186.753906 L 21.960938 186.300781 L 23.25 186.300781 L 23.25 194.703125 L 25.347656 194.703125 L 25.347656 195.78125 L 19.878906 195.78125 Z M 19.878906 194.703125 "/>
<path style=" stroke:none;fill-rule:nonzero;fill:rgb(0%,0%,0%);fill-opacity:1;" d="M 30.683594 187.144531 C 30.019531 187.144531 29.527344 187.46875 29.1875 188.121094 C 28.847656 188.769531 28.691406 189.746094 28.691406 191.046875 C 28.691406 192.347656 28.847656 193.324219 29.1875 193.972656 C 29.527344 194.625 30.019531 194.949219 30.683594 194.949219 C 31.347656 194.949219 31.84375 194.625 32.183594 193.972656 C 32.507812 193.324219 32.675781 192.347656 32.675781 191.046875 C 32.675781 189.746094 32.507812 188.769531 32.183594 188.121094 C 31.84375 187.46875 31.347656 187.144531 30.683594 187.144531 Z M 30.683594 186.132812 C 31.738281 186.132812 32.546875 186.558594 33.121094 187.390625 C 33.679688 188.238281 33.964844 189.460938 33.964844 191.046875 C 33.964844 192.644531 33.679688 193.867188 33.121094 194.703125 C 32.546875 195.535156 31.738281 195.949219 30.671875 195.949219 C 29.605469 195.949219 28.796875 195.535156 28.238281 194.703125 C 27.675781 193.867188 27.402344 192.644531 27.402344 191.046875 C 27.402344 189.460938 27.675781 188.238281 28.238281 187.390625 C 28.796875 186.558594 29.617188 186.132812 30.683594 186.132812 Z M 30.683594 186.132812 "/>
<path style=" stroke:none;fill-rule:nonzero;fill:rgb(0%,0%,0%);fill-opacity:1;" d="M 38.964844 187.144531 C 38.300781 187.144531 37.808594 187.46875 37.46875 188.121094 C 37.128906 188.769531 36.972656 189.746094 36.972656 191.046875 C 36.972656 192.347656 37.128906 193.324219 37.46875 193.972656 C 37.808594 194.625 38.300781 194.949219 38.964844 194.949219 C 39.628906 194.949219 40.125 194.625 40.464844 193.972656 C 40.789062 193.324219 40.957031 192.347656 40.957031 191.046875 C 40.957031 189.746094 40.789062 188.769531 40.464844 188.121094 C 40.125 187.46875 39.628906 187.144531 38.964844 187.144531 Z M 38.964844 186.132812 C 40.019531 186.132812 40.828125 186.558594 41.402344 187.390625 C 41.960938 188.238281 42.246094 189.460938 42.246094 191.046875 C 42.246094 192.644531 41.960938 193.867188 41.402344 194.703125 C 40.828125 195.535156 40.019531 195.949219 38.953125 195.949219 C 37.886719 195.949219 37.078125 195.535156 36.519531 194.703125 C 35.957031 193.867188 35.683594 192.644531 35.683594 191.046875 C 35.683594 189.460938 35.957031 188.238281 36.519531 187.390625 C 37.078125 186.558594 37.898438 186.132812 38.964844 186.132812 Z M 38.964844 186.132812 "/>
<path style="fill:none;stroke-width:0.8;stroke-linecap:butt;stroke-linejoin:round;stroke:rgb(0%,0%,0%);stroke-opacity:1;stroke-miterlimit:4;" d="M 40.104 102.670449 L 36.603 102.670449 " transform="matrix(1.302083,0,0,1.300505,0,12.875)"/>
<path style=" stroke:none;fill-rule:nonzero;fill:rgb(0%,0%,0%);fill-opacity:1;" d="M 19.878906 150.257812 L 21.972656 150.257812 L 21.972656 143.027344 L 19.695312 143.480469 L 19.695312 142.308594 L 21.960938 141.855469 L 23.25 141.855469 L 23.25 150.257812 L 25.347656 150.257812 L 25.347656 151.335938 L 19.878906 151.335938 Z M 19.878906 150.257812 "/>
<path style=" stroke:none;fill-rule:nonzero;fill:rgb(0%,0%,0%);fill-opacity:1;" d="M 29.042969 150.257812 L 33.523438 150.257812 L 33.523438 151.335938 L 27.496094 151.335938 L 27.496094 150.257812 C 27.976562 149.761719 28.640625 149.085938 29.488281 148.226562 C 30.320312 147.382812 30.855469 146.835938 31.074219 146.589844 C 31.492188 146.132812 31.777344 145.742188 31.933594 145.417969 C 32.089844 145.105469 32.183594 144.78125 32.183594 144.46875 C 32.183594 143.976562 32 143.558594 31.648438 143.246094 C 31.296875 142.933594 30.839844 142.765625 30.269531 142.765625 C 29.863281 142.765625 29.433594 142.84375 28.992188 142.972656 C 28.550781 143.117188 28.066406 143.324219 27.558594 143.609375 L 27.558594 142.308594 C 28.082031 142.101562 28.5625 141.945312 29.003906 141.84375 C 29.449219 141.738281 29.863281 141.6875 30.242188 141.6875 C 31.21875 141.6875 32 141.933594 32.585938 142.425781 C 33.171875 142.921875 33.472656 143.570312 33.472656 144.390625 C 33.472656 144.78125 33.394531 145.160156 33.25 145.496094 C 33.105469 145.847656 32.847656 146.265625 32.457031 146.730469 C 32.351562 146.863281 32.011719 147.214844 31.441406 147.796875 C 30.867188 148.382812 30.074219 149.203125 29.042969 150.257812 Z M 29.042969 150.257812 "/>
<path style=" stroke:none;fill-rule:nonzero;fill:rgb(0%,0%,0%);fill-opacity:1;" d="M 36.230469 141.855469 L 41.269531 141.855469 L 41.269531 142.933594 L 37.402344 142.933594 L 37.402344 145.261719 C 37.585938 145.199219 37.78125 145.144531 37.964844 145.121094 C 38.144531 145.09375 38.339844 145.066406 38.523438 145.066406 C 39.578125 145.066406 40.410156 145.367188 41.035156 145.9375 C 41.660156 146.523438 41.972656 147.304688 41.972656 148.292969 C 41.972656 149.320312 41.648438 150.113281 41.011719 150.671875 C 40.371094 151.230469 39.472656 151.503906 38.328125 151.503906 C 37.925781 151.503906 37.519531 151.464844 37.105469 151.414062 C 36.6875 151.347656 36.269531 151.257812 35.828125 151.113281 L 35.828125 149.828125 C 36.207031 150.035156 36.597656 150.191406 37.011719 150.296875 C 37.417969 150.398438 37.847656 150.4375 38.300781 150.4375 C 39.03125 150.4375 39.617188 150.257812 40.046875 149.867188 C 40.464844 149.476562 40.683594 148.957031 40.683594 148.292969 C 40.683594 147.640625 40.464844 147.121094 40.046875 146.730469 C 39.617188 146.34375 39.03125 146.148438 38.300781 146.148438 C 37.964844 146.148438 37.613281 146.1875 37.273438 146.265625 C 36.933594 146.34375 36.582031 146.457031 36.230469 146.613281 Z M 36.230469 141.855469 "/>
<path style="fill:none;stroke-width:0.8;stroke-linecap:butt;stroke-linejoin:round;stroke:rgb(0%,0%,0%);stroke-opacity:1;stroke-miterlimit:4;" d="M 40.104 68.495024 L 36.603 68.495024 " transform="matrix(1.302083,0,0,1.300505,0,12.875)"/>
<path style=" stroke:none;fill-rule:nonzero;fill:rgb(0%,0%,0%);fill-opacity:1;" d="M 19.878906 105.808594 L 21.972656 105.808594 L 21.972656 98.578125 L 19.695312 99.035156 L 19.695312 97.863281 L 21.960938 97.410156 L 23.25 97.410156 L 23.25 105.808594 L 25.347656 105.808594 L 25.347656 106.890625 L 19.878906 106.890625 Z M 19.878906 105.808594 "/>
<path style=" stroke:none;fill-rule:nonzero;fill:rgb(0%,0%,0%);fill-opacity:1;" d="M 27.949219 97.410156 L 32.988281 97.410156 L 32.988281 98.488281 L 29.121094 98.488281 L 29.121094 100.816406 C 29.304688 100.75 29.5 100.699219 29.683594 100.671875 C 29.863281 100.648438 30.058594 100.621094 30.242188 100.621094 C 31.296875 100.621094 32.128906 100.921875 32.753906 101.492188 C 33.378906 102.078125 33.691406 102.859375 33.691406 103.847656 C 33.691406 104.875 33.367188 105.667969 32.730469 106.226562 C 32.089844 106.785156 31.191406 107.058594 30.046875 107.058594 C 29.644531 107.058594 29.238281 107.019531 28.824219 106.96875 C 28.40625 106.902344 27.988281 106.8125 27.546875 106.667969 L 27.546875 105.382812 C 27.925781 105.589844 28.316406 105.746094 28.730469 105.847656 C 29.136719 105.953125 29.566406 105.992188 30.019531 105.992188 C 30.75 105.992188 31.335938 105.808594 31.765625 105.421875 C 32.183594 105.03125 32.402344 104.511719 32.402344 103.847656 C 32.402344 103.195312 32.183594 102.675781 31.765625 102.285156 C 31.335938 101.894531 30.75 101.699219 30.019531 101.699219 C 29.683594 101.699219 29.332031 101.738281 28.992188 101.816406 C 28.652344 101.894531 28.300781 102.011719 27.949219 102.167969 Z M 27.949219 97.410156 "/>
<path style=" stroke:none;fill-rule:nonzero;fill:rgb(0%,0%,0%);fill-opacity:1;" d="M 38.964844 98.253906 C 38.300781 98.253906 37.808594 98.578125 37.46875 99.230469 C 37.128906 99.878906 36.972656 100.855469 36.972656 102.15625 C 36.972656 103.457031 37.128906 104.433594 37.46875 105.082031 C 37.808594 105.730469 38.300781 106.058594 38.964844 106.058594 C 39.628906 106.058594 40.125 105.730469 40.464844 105.082031 C 40.789062 104.433594 40.957031 103.457031 40.957031 102.15625 C 40.957031 100.855469 40.789062 99.878906 40.464844 99.230469 C 40.125 98.578125 39.628906 98.253906 38.964844 98.253906 Z M 38.964844 97.238281 C 40.019531 97.238281 40.828125 97.667969 41.402344 98.5 C 41.960938 99.347656 42.246094 100.570312 42.246094 102.15625 C 42.246094 103.753906 41.960938 104.976562 41.402344 105.808594 C 40.828125 106.644531 40.019531 107.058594 38.953125 107.058594 C 37.886719 107.058594 37.078125 106.644531 36.519531 105.808594 C 35.957031 104.976562 35.683594 103.753906 35.683594 102.15625 C 35.683594 100.570312 35.957031 99.347656 36.519531 98.5 C 37.078125 97.667969 37.898438 97.238281 38.964844 97.238281 Z M 38.964844 97.238281 "/>
<path style="fill:none;stroke-width:0.8;stroke-linecap:butt;stroke-linejoin:round;stroke:rgb(0%,0%,0%);stroke-opacity:1;stroke-miterlimit:4;" d="M 40.104 34.3196 L 36.603 34.3196 " transform="matrix(1.302083,0,0,1.300505,0,12.875)"/>
<path style=" stroke:none;fill-rule:nonzero;fill:rgb(0%,0%,0%);fill-opacity:1;" d="M 19.878906 61.367188 L 21.972656 61.367188 L 21.972656 54.136719 L 19.695312 54.589844 L 19.695312 53.417969 L 21.960938 52.964844 L 23.25 52.964844 L 23.25 61.367188 L 25.347656 61.367188 L 25.347656 62.445312 L 19.878906 62.445312 Z M 19.878906 61.367188 "/>
<path style=" stroke:none;fill-rule:nonzero;fill:rgb(0%,0%,0%);fill-opacity:1;" d="M 27.613281 52.964844 L 33.71875 52.964844 L 33.71875 53.511719 L 30.269531 62.445312 L 28.925781 62.445312 L 32.167969 54.042969 L 27.613281 54.042969 Z M 27.613281 52.964844 "/>
<path style=" stroke:none;fill-rule:nonzero;fill:rgb(0%,0%,0%);fill-opacity:1;" d="M 36.230469 52.964844 L 41.269531 52.964844 L 41.269531 54.042969 L 37.402344 54.042969 L 37.402344 56.371094 C 37.585938 56.308594 37.78125 56.253906 37.964844 56.230469 C 38.144531 56.203125 38.339844 56.175781 38.523438 56.175781 C 39.578125 56.175781 40.410156 56.476562 41.035156 57.046875 C 41.660156 57.632812 41.972656 58.414062 41.972656 59.402344 C 41.972656 60.429688 41.648438 61.222656 41.011719 61.78125 C 40.371094 62.339844 39.472656 62.613281 38.328125 62.613281 C 37.925781 62.613281 37.519531 62.574219 37.105469 62.523438 C 36.6875 62.457031 36.269531 62.367188 35.828125 62.222656 L 35.828125 60.9375 C 36.207031 61.144531 36.597656 61.300781 37.011719 61.40625 C 37.417969 61.507812 37.847656 61.546875 38.300781 61.546875 C 39.03125 61.546875 39.617188 61.367188 40.046875 60.976562 C 40.464844 60.585938 40.683594 60.066406 40.683594 59.402344 C 40.683594 58.75 40.464844 58.230469 40.046875 57.839844 C 39.617188 57.449219 39.03125 57.257812 38.300781 57.257812 C 37.964844 57.257812 37.613281 57.296875 37.273438 57.375 C 36.933594 57.449219 36.582031 57.566406 36.230469 57.722656 Z M 36.230469 52.964844 "/>
<path style=" stroke:none;fill-rule:nonzero;fill:rgb(0%,0%,0%);fill-opacity:1;" d="M 1.910156 226.429688 L 9.292969 226.429688 L 9.292969 224.878906 C 9.292969 223.582031 9.007812 222.617188 8.410156 222.007812 C 7.808594 221.410156 6.871094 221.097656 5.597656 221.097656 C 4.320312 221.097656 3.394531 221.410156 2.796875 222.007812 C 2.210938 222.617188 1.910156 223.582031 1.910156 224.878906 Z M 0.855469 227.714844 L 0.855469 225.074219 C 0.855469 223.242188 1.246094 221.890625 2.003906 221.03125 C 2.769531 220.171875 3.96875 219.742188 5.597656 219.742188 C 7.238281 219.742188 8.433594 220.1875 9.203125 221.042969 C 9.972656 221.902344 10.347656 223.253906 10.347656 225.074219 L 10.347656 227.714844 Z M 0.855469 227.714844 "/>
<path style=" stroke:none;fill-rule:nonzero;fill:rgb(0%,0%,0%);fill-opacity:1;" d="M 3.226562 217.753906 L 3.226562 216.582031 L 10.347656 216.582031 L 10.347656 217.753906 Z M 0.453125 217.753906 L 0.453125 216.582031 L 1.9375 216.582031 L 1.9375 217.753906 Z M 0.453125 217.753906 "/>
<path style=" stroke:none;fill-rule:nonzero;fill:rgb(0%,0%,0%);fill-opacity:1;" d="M 3.433594 209.601562 L 4.542969 209.601562 C 4.386719 209.9375 4.253906 210.277344 4.164062 210.628906 C 4.085938 210.992188 4.035156 211.355469 4.035156 211.734375 C 4.035156 212.316406 4.125 212.761719 4.308594 213.046875 C 4.488281 213.332031 4.75 213.476562 5.101562 213.476562 C 5.375 213.476562 5.582031 213.371094 5.738281 213.164062 C 5.894531 212.957031 6.050781 212.539062 6.183594 211.914062 L 6.273438 211.511719 C 6.457031 210.679688 6.714844 210.09375 7.027344 209.742188 C 7.355469 209.40625 7.808594 209.222656 8.382812 209.222656 C 9.046875 209.222656 9.566406 209.484375 9.945312 210.003906 C 10.335938 210.523438 10.519531 211.25 10.519531 212.160156 C 10.519531 212.550781 10.480469 212.941406 10.414062 213.359375 C 10.347656 213.773438 10.246094 214.203125 10.089844 214.660156 L 8.878906 214.660156 C 9.113281 214.230469 9.28125 213.800781 9.386719 213.382812 C 9.503906 212.96875 9.554688 212.550781 9.554688 212.136719 C 9.554688 211.589844 9.464844 211.160156 9.28125 210.859375 C 9.097656 210.574219 8.824219 210.417969 8.472656 210.417969 C 8.160156 210.417969 7.914062 210.535156 7.746094 210.746094 C 7.574219 210.953125 7.40625 211.421875 7.25 212.148438 L 7.160156 212.550781 C 7.003906 213.28125 6.769531 213.8125 6.457031 214.125 C 6.144531 214.449219 5.714844 214.605469 5.152344 214.605469 C 4.488281 214.605469 3.96875 214.371094 3.605469 213.90625 C 3.238281 213.4375 3.058594 212.761719 3.058594 211.875 C 3.058594 211.445312 3.097656 211.042969 3.160156 210.652344 C 3.226562 210.277344 3.316406 209.925781 3.433594 209.601562 Z M 3.433594 209.601562 "/>
<path style=" stroke:none;fill-rule:nonzero;fill:rgb(0%,0%,0%);fill-opacity:1;" d="M 1.207031 206.207031 L 3.226562 206.207031 L 3.226562 203.800781 L 4.136719 203.800781 L 4.136719 206.207031 L 8.003906 206.207031 C 8.589844 206.207031 8.96875 206.128906 9.125 205.972656 C 9.292969 205.816406 9.371094 205.488281 9.371094 204.996094 L 9.371094 203.800781 L 10.347656 203.800781 L 10.347656 204.996094 C 10.347656 205.90625 10.179688 206.53125 9.839844 206.867188 C 9.503906 207.207031 8.890625 207.375 8.003906 207.375 L 4.136719 207.375 L 4.136719 208.234375 L 3.226562 208.234375 L 3.226562 207.375 L 1.207031 207.375 Z M 1.207031 206.207031 "/>
<path style=" stroke:none;fill-rule:nonzero;fill:rgb(0%,0%,0%);fill-opacity:1;" d="M 6.769531 199.027344 C 6.769531 199.976562 6.886719 200.625 7.09375 200.992188 C 7.316406 201.355469 7.679688 201.535156 8.199219 201.535156 C 8.617188 201.535156 8.957031 201.40625 9.191406 201.132812 C 9.4375 200.859375 9.554688 200.484375 9.554688 200.015625 C 9.554688 199.363281 9.332031 198.84375 8.863281 198.453125 C 8.410156 198.0625 7.796875 197.871094 7.027344 197.871094 L 6.769531 197.871094 Z M 6.285156 196.699219 L 10.347656 196.699219 L 10.347656 197.871094 L 9.269531 197.871094 C 9.710938 198.140625 10.023438 198.480469 10.21875 198.871094 C 10.414062 199.261719 10.519531 199.753906 10.519531 200.328125 C 10.519531 201.054688 10.324219 201.640625 9.917969 202.070312 C 9.515625 202.5 8.96875 202.707031 8.277344 202.707031 C 7.484375 202.707031 6.886719 202.445312 6.46875 201.902344 C 6.066406 201.367188 5.855469 200.574219 5.855469 199.507812 L 5.855469 197.871094 L 5.738281 197.871094 C 5.207031 197.871094 4.789062 198.050781 4.488281 198.402344 C 4.203125 198.753906 4.046875 199.246094 4.046875 199.886719 C 4.046875 200.300781 4.097656 200.691406 4.203125 201.082031 C 4.308594 201.472656 4.449219 201.835938 4.632812 202.1875 L 3.550781 202.1875 C 3.394531 201.769531 3.265625 201.355469 3.1875 200.953125 C 3.109375 200.546875 3.058594 200.15625 3.058594 199.769531 C 3.058594 198.742188 3.332031 197.972656 3.863281 197.464844 C 4.398438 196.957031 5.207031 196.699219 6.285156 196.699219 Z M 6.285156 196.699219 "/>
<path style=" stroke:none;fill-rule:nonzero;fill:rgb(0%,0%,0%);fill-opacity:1;" d="M 6.050781 188.375 L 10.347656 188.375 L 10.347656 189.546875 L 6.089844 189.546875 C 5.414062 189.546875 4.917969 189.6875 4.582031 189.949219 C 4.242188 190.210938 4.074219 190.597656 4.074219 191.121094 C 4.074219 191.757812 4.28125 192.25 4.683594 192.613281 C 5.089844 192.980469 5.636719 193.160156 6.324219 193.160156 L 10.347656 193.160156 L 10.347656 194.332031 L 3.226562 194.332031 L 3.226562 193.160156 L 4.332031 193.160156 C 3.917969 192.886719 3.589844 192.5625 3.382812 192.171875 C 3.175781 191.796875 3.058594 191.355469 3.058594 190.859375 C 3.058594 190.054688 3.316406 189.429688 3.824219 189.011719 C 4.332031 188.597656 5.074219 188.375 6.050781 188.375 Z M 6.050781 188.375 "/>
<path style=" stroke:none;fill-rule:nonzero;fill:rgb(0%,0%,0%);fill-opacity:1;" d="M 3.5 180.921875 L 4.59375 180.921875 C 4.410156 181.261719 4.28125 181.585938 4.191406 181.925781 C 4.097656 182.261719 4.046875 182.589844 4.046875 182.925781 C 4.046875 183.679688 4.292969 184.277344 4.777344 184.695312 C 5.257812 185.109375 5.933594 185.320312 6.792969 185.320312 C 7.667969 185.320312 8.34375 185.109375 8.824219 184.695312 C 9.308594 184.277344 9.542969 183.679688 9.542969 182.925781 C 9.542969 182.589844 9.503906 182.261719 9.410156 181.925781 C 9.320312 181.585938 9.175781 181.261719 8.996094 180.921875 L 10.074219 180.921875 C 10.230469 181.261719 10.347656 181.601562 10.414062 181.9375 C 10.480469 182.289062 10.519531 182.667969 10.519531 183.054688 C 10.519531 184.121094 10.191406 184.980469 9.515625 185.605469 C 8.851562 186.242188 7.941406 186.554688 6.792969 186.554688 C 5.636719 186.554688 4.722656 186.242188 4.058594 185.605469 C 3.394531 184.96875 3.058594 184.097656 3.058594 182.976562 C 3.058594 182.613281 3.097656 182.261719 3.175781 181.925781 C 3.253906 181.585938 3.355469 181.25 3.5 180.921875 Z M 3.5 180.921875 "/>
<path style=" stroke:none;fill-rule:nonzero;fill:rgb(0%,0%,0%);fill-opacity:1;" d="M 6.496094 172.808594 L 7.066406 172.808594 L 7.066406 178.179688 C 7.875 178.128906 8.5 177.894531 8.917969 177.453125 C 9.332031 177.023438 9.542969 176.425781 9.542969 175.644531 C 9.542969 175.203125 9.488281 174.757812 9.386719 174.34375 C 9.28125 173.925781 9.113281 173.496094 8.878906 173.082031 L 9.984375 173.082031 C 10.167969 173.496094 10.308594 173.925781 10.386719 174.367188 C 10.464844 174.8125 10.519531 175.265625 10.519531 175.707031 C 10.519531 176.851562 10.191406 177.75 9.542969 178.414062 C 8.890625 179.078125 7.992188 179.402344 6.859375 179.402344 C 5.699219 179.402344 4.777344 179.089844 4.085938 178.464844 C 3.410156 177.839844 3.058594 176.984375 3.058594 175.917969 C 3.058594 174.953125 3.371094 174.199219 3.980469 173.640625 C 4.605469 173.09375 5.441406 172.808594 6.496094 172.808594 Z M 6.15625 173.980469 C 5.519531 173.992188 5.011719 174.175781 4.621094 174.511719 C 4.242188 174.863281 4.046875 175.332031 4.046875 175.902344 C 4.046875 176.554688 4.242188 177.074219 4.605469 177.464844 C 4.972656 177.855469 5.492188 178.089844 6.15625 178.140625 Z M 6.15625 173.980469 "/>
<path style=" stroke:none;fill-rule:nonzero;fill:rgb(0%,0%,0%);fill-opacity:1;" d="M 0.453125 166.863281 L 0.453125 164.171875 L 1.363281 164.171875 L 1.363281 165.695312 L 11.144531 165.695312 L 11.144531 164.171875 L 12.054688 164.171875 L 12.054688 166.863281 Z M 0.453125 166.863281 "/>
<path style=" stroke:none;fill-rule:nonzero;fill:rgb(0%,0%,0%);fill-opacity:1;" d="M 4.59375 156.148438 C 4.074219 155.863281 3.695312 155.511719 3.433594 155.109375 C 3.1875 154.707031 3.058594 154.222656 3.058594 153.664062 C 3.058594 152.9375 3.316406 152.363281 3.839844 151.960938 C 4.359375 151.558594 5.101562 151.351562 6.050781 151.351562 L 10.347656 151.351562 L 10.347656 152.519531 L 6.089844 152.519531 C 5.414062 152.519531 4.90625 152.652344 4.566406 152.886719 C 4.242188 153.132812 4.074219 153.496094 4.074219 153.988281 C 4.074219 154.601562 4.28125 155.082031 4.683594 155.433594 C 5.089844 155.785156 5.636719 155.953125 6.324219 155.953125 L 10.347656 155.953125 L 10.347656 157.125 L 6.089844 157.125 C 5.414062 157.125 4.90625 157.253906 4.566406 157.488281 C 4.242188 157.734375 4.074219 158.113281 4.074219 158.605469 C 4.074219 159.207031 4.28125 159.6875 4.683594 160.039062 C 5.089844 160.390625 5.636719 160.558594 6.324219 160.558594 L 10.347656 160.558594 L 10.347656 161.726562 L 3.226562 161.726562 L 3.226562 160.558594 L 4.332031 160.558594 C 3.902344 160.296875 3.578125 159.972656 3.371094 159.59375 C 3.160156 159.230469 3.058594 158.789062 3.058594 158.269531 C 3.058594 157.75 3.1875 157.320312 3.449219 156.957031 C 3.707031 156.589844 4.097656 156.332031 4.59375 156.148438 Z M 4.59375 156.148438 "/>
<path style=" stroke:none;fill-rule:nonzero;fill:rgb(0%,0%,0%);fill-opacity:1;" d="M 0.453125 146.292969 L 12.054688 146.292969 L 12.054688 148.984375 L 11.144531 148.984375 L 11.144531 147.460938 L 1.363281 147.460938 L 1.363281 148.984375 L 0.453125 148.984375 Z M 0.453125 146.292969 "/>
<path style="fill:none;stroke-width:2.5;stroke-linecap:square;stroke-linejoin:round;stroke:rgb(0%,0%,100%);stroke-opacity:1;stroke-miterlimit:4;" d="M 52.2 12.966717 L 52.875 13.303125 L 53.073 13.465322 L 54.726 14.889047 L 55.068 15.240473 L 55.368 15.56787 L 55.785 16.093507 L 56.202 16.550061 L 56.304 16.604126 L 56.409 16.859436 L 56.793 17.234891 L 59.217 20.529885 L 59.487 21.022482 L 59.724 21.277791 L 62.046 24.813076 L 62.418 25.554976 L 62.565 25.630067 L 63.33 26.999727 L 63.462 27.074818 L 63.693 27.624484 L 63.861 27.699575 L 65.568 30.592081 L 65.619 30.80534 L 65.772 30.883434 L 66.036 31.312955 L 68.523 35.581129 L 68.664 35.662227 L 68.859 36.238926 L 71.301 40.422998 L 71.403 40.645267 L 71.61 40.723362 L 71.808 41.306068 L 71.943 41.387166 L 72.957 43.300485 L 73.092 43.37858 L 102.975 94.83395 L 103.176 95.053216 L 103.233 95.410649 L 103.359 95.491748 L 142.506 162.367809 L 142.665 162.451911 L 142.878 163.025607 L 143.52 163.980765 L 143.667 164.203034 L 143.769 164.557464 L 143.916 164.638562 L 144.156 165.212257 L 144.288 165.296359 L 144.912 166.524848 L 145.053 166.60895 L 145.815 167.921541 L 146.85 169.810831 L 149.403 174.048968 L 149.613 174.268234 L 149.805 174.706766 L 149.946 174.926032 L 150.171 175.499727 L 150.705 176.238623 L 151.062 177.031584 L 151.185 177.112682 L 151.449 177.551214 L 152.115 178.782706 L 152.256 178.863805 L 152.532 179.4375 L 152.742 179.740868 L 154.047 182.065686 L 154.173 182.146784 L 154.596 182.939745 L 154.977 183.459375 L 155.304 184.114169 L 155.952 185.207494 L 156.444 186.219721 L 156.579 186.300819 L 158.01 188.706735 L 158.265 189.145267 L 161.145 194.092263 L 161.229 194.173362 L 161.34 194.527791 L 161.499 194.60889 L 161.961 195.485953 L 162.492 196.360012 L 162.738 196.933708 L 162.885 197.014806 L 163.134 197.588501 L 163.467 198.027033 L 163.782 198.681826 L 165.315 201.307008 L 165.432 201.388107 L 165.693 201.826638 L 166.08 202.481432 L 166.656 203.493659 L 166.977 204.013289 L 171.006 210.750455 L 172.062 212.531614 L 172.524 213.201426 L 173.736 215.201851 L 174.393 216.090928 L 174.771 216.532464 L 175.206 217.196268 L 176.43 219.172664 L 176.958 219.827458 L 177.414 220.476244 L 182.244 228.108495 L 182.685 228.724242 L 183.327 229.745479 L 183.789 230.355218 L 184.14 230.95895 L 184.758 231.959163 L 186.162 234.124788 L 186.552 234.707494 L 187.092 235.668659 L 188.1 237.554945 L 191.127 242.862379 L 195.084 247.653186 L 195.219 247.6652 L 195.975 248.485194 L 196.263 248.749515 L 197.805 250.248331 L 199.695 251.774181 L 200.394 252.254763 L 203.46 254.135042 L 204.309 254.450425 L 204.435 254.402367 L 204.846 254.591596 L 205.656 254.753792 L 205.989 254.735771 L 207.906 254.85892 L 208.932 254.669691 L 210.663 254.270206 L 210.978 254.102002 L 211.371 253.954824 L 211.89 253.738562 L 213.558 252.918568 L 215.34 251.873301 L 219.132 249.275152 L 219.45 248.983799 L 221.754 247.217658 L 222.03 247.010407 L 225.861 243.796511 L 226.116 243.496147 L 226.77 243.033586 L 227.175 242.613076 L 227.265 242.592051 L 227.667 242.165534 L 227.802 242.144508 L 227.913 241.940261 L 228.201 241.711984 L 228.426 241.573817 L 228.585 241.456675 L 228.804 241.126274 L 231.126 238.828489 L 231.768 238.230765 L 232.638 237.254581 L 232.914 236.807039 L 233.19 236.614806 L 233.442 236.200303 L 235.563 233.641201 L 235.737 233.421936 L 236.763 232.058283 L 237.039 231.706857 L 237.336 231.358434 L 237.663 230.823786 L 238.125 230.162985 L 238.227 230.102913 L 238.335 229.799545 L 238.476 229.736468 L 239.112 228.694205 L 239.445 228.31875 L 240.132 227.186377 L 240.273 227.117294 L 241.434 225.25804 L 241.671 224.990716 L 242.022 224.27585 L 242.184 224.200758 L 243.588 221.875941 L 243.717 221.797846 L 244.59 220.247967 L 244.902 219.965625 L 245.127 219.554126 L 245.622 218.601972 L 245.751 218.520874 L 245.877 218.18747 L 246.072 218.109375 L 250.746 210.368993 L 251.652 208.762045 L 252.15 208.050182 L 252.549 207.416414 L 252.813 206.863744 L 252.984 206.782646 L 253.305 206.016717 L 253.44 205.935619 L 253.974 204.962439 L 254.094 204.881341 L 254.616 204.034314 L 257.577 199.045267 L 257.673 198.964169 L 257.937 198.540655 L 258.186 198.117142 L 258.45 197.564472 L 258.951 196.846602 L 259.239 196.290928 L 274.242 171.468841 L 274.479 171.03932 L 274.698 170.826062 L 274.863 170.396541 L 275.898 168.681462 L 276.405 167.684254 L 276.666 167.389897 L 278.847 163.73747 L 279.246 162.956523 L 279.381 162.878428 L 279.477 162.527002 L 279.618 162.448908 L 280.785 160.511559 L 281.175 159.733617 L 281.574 159.222998 L 282.054 158.228792 L 282.189 158.147694 L 282.588 157.369751 L 282.813 156.940231 L 282.96 156.859132 L 283.71 155.567567 L 284.106 154.789624 L 284.241 154.708525 L 285.276 152.855279 L 285.39 152.774181 L 285.885 151.91514 L 286.686 150.623574 L 286.788 150.275152 L 286.941 150.194053 L 287.322 149.548271 L 287.61 148.983586 L 287.82 148.689229 L 289.104 146.532615 L 289.347 146.103095 L 289.911 145.105886 L 290.946 143.378792 L 291.318 142.73301 L 291.933 141.789867 L 292.182 141.576608 L 292.305 141.144084 L 292.581 140.711559 L 292.83 140.143871 L 293.088 139.846511 L 293.349 139.41699 L 294.12 138.125425 " transform="matrix(1.302083,0,0,1.300505,0,12.875)"/>
<path style="fill-rule:nonzero;fill:rgb(100%,64.705882%,0%);fill-opacity:1;stroke-width:2.5;stroke-linecap:butt;stroke-linejoin:round;stroke:rgb(100%,64.705882%,0%);stroke-opacity:1;stroke-miterlimit:4;" d="M 204.015 257.88659 L 210.015 251.888319 M 204.015 251.888319 L 210.015 257.88659 " transform="matrix(1.302083,0,0,1.300505,0,12.875)"/>
<path style="fill:none;stroke-width:0.8;stroke-linecap:square;stroke-linejoin:miter;stroke:rgb(0%,0%,0%);stroke-opacity:1;stroke-miterlimit:10;" d="M 40.104 266.984618 L 40.104 0.871056 M 306.216 266.984618 L 306.216 0.871056 M 40.104 266.984618 L 306.216 266.984618 M 40.104 0.871056 L 306.216 0.871056 " transform="matrix(1.302083,0,0,1.300505,0,12.875)"/>
<path style="fill-rule:nonzero;fill:rgb(100%,100%,100%);fill-opacity:0.8;stroke-width:1;stroke-linecap:butt;stroke-linejoin:miter;stroke:rgb(83.529412%,83.921569%,83.529412%);stroke-opacity:0.8;stroke-miterlimit:10;" d="M 121.965 38.215322 L 299.217 38.215322 C 300.549 38.215322 301.215 37.548513 301.215 36.214897 L 301.215 7.872542 C 301.215 6.538926 300.549 5.872118 299.217 5.872118 L 121.965 5.872118 C 120.633 5.872118 119.967 6.538926 119.967 7.872542 L 119.967 36.214897 C 119.967 37.548513 120.633 38.215322 121.965 38.215322 Z M 121.965 38.215322 " transform="matrix(1.302083,0,0,1.300505,0,12.875)"/>
<path style="fill:none;stroke-width:2.5;stroke-linecap:square;stroke-linejoin:round;stroke:rgb(0%,0%,100%);stroke-opacity:1;stroke-miterlimit:4;" d="M 123.966 13.96693 L 143.967 13.96693 " transform="matrix(1.302083,0,0,1.300505,0,12.875)"/>
<path style=" stroke:none;fill-rule:nonzero;fill:rgb(0%,0%,0%);fill-opacity:1;" d="M 200.4375 27.164062 L 200.4375 34.535156 L 201.988281 34.535156 C 203.289062 34.535156 204.253906 34.25 204.863281 33.652344 C 205.464844 33.054688 205.777344 32.117188 205.777344 30.84375 C 205.777344 29.566406 205.464844 28.644531 204.863281 28.046875 C 204.253906 27.460938 203.289062 27.164062 201.988281 27.164062 Z M 199.148438 26.109375 L 201.792969 26.109375 C 203.628906 26.109375 204.980469 26.5 205.839844 27.253906 C 206.699219 28.019531 207.128906 29.21875 207.128906 30.84375 C 207.128906 32.480469 206.6875 33.679688 205.828125 34.445312 C 204.96875 35.210938 203.613281 35.589844 201.792969 35.589844 L 199.148438 35.589844 Z M 199.148438 26.109375 "/>
<path style=" stroke:none;fill-rule:nonzero;fill:rgb(0%,0%,0%);fill-opacity:1;" d="M 209.121094 28.476562 L 210.292969 28.476562 L 210.292969 35.589844 L 209.121094 35.589844 Z M 209.121094 25.707031 L 210.292969 25.707031 L 210.292969 27.1875 L 209.121094 27.1875 Z M 209.121094 25.707031 "/>
<path style=" stroke:none;fill-rule:nonzero;fill:rgb(0%,0%,0%);fill-opacity:1;" d="M 217.285156 28.683594 L 217.285156 29.789062 C 216.949219 29.632812 216.609375 29.503906 216.257812 29.414062 C 215.894531 29.335938 215.527344 29.28125 215.152344 29.28125 C 214.566406 29.28125 214.121094 29.375 213.835938 29.554688 C 213.550781 29.738281 213.40625 29.996094 213.40625 30.347656 C 213.40625 30.621094 213.511719 30.828125 213.71875 30.984375 C 213.925781 31.140625 214.34375 31.296875 214.96875 31.429688 L 215.371094 31.519531 C 216.207031 31.699219 216.792969 31.960938 217.144531 32.273438 C 217.480469 32.597656 217.664062 33.054688 217.664062 33.625 C 217.664062 34.289062 217.402344 34.808594 216.882812 35.1875 C 216.363281 35.578125 215.632812 35.757812 214.722656 35.757812 C 214.332031 35.757812 213.941406 35.71875 213.523438 35.65625 C 213.105469 35.589844 212.675781 35.484375 212.222656 35.328125 L 212.222656 34.121094 C 212.652344 34.355469 213.082031 34.523438 213.496094 34.628906 C 213.914062 34.746094 214.332031 34.796875 214.746094 34.796875 C 215.292969 34.796875 215.722656 34.707031 216.023438 34.523438 C 216.308594 34.339844 216.464844 34.066406 216.464844 33.71875 C 216.464844 33.40625 216.347656 33.15625 216.140625 32.988281 C 215.933594 32.820312 215.464844 32.652344 214.734375 32.496094 L 214.332031 32.402344 C 213.601562 32.246094 213.066406 32.011719 212.753906 31.699219 C 212.429688 31.390625 212.273438 30.960938 212.273438 30.402344 C 212.273438 29.738281 212.507812 29.21875 212.976562 28.851562 C 213.445312 28.488281 214.121094 28.308594 215.007812 28.308594 C 215.4375 28.308594 215.839844 28.347656 216.230469 28.410156 C 216.609375 28.476562 216.960938 28.566406 217.285156 28.683594 Z M 217.285156 28.683594 "/>
<path style=" stroke:none;fill-rule:nonzero;fill:rgb(0%,0%,0%);fill-opacity:1;" d="M 220.683594 26.460938 L 220.683594 28.476562 L 223.09375 28.476562 L 223.09375 29.386719 L 220.683594 29.386719 L 220.683594 33.25 C 220.683594 33.832031 220.761719 34.210938 220.917969 34.367188 C 221.074219 34.535156 221.402344 34.613281 221.894531 34.613281 L 223.09375 34.613281 L 223.09375 35.589844 L 221.894531 35.589844 C 220.984375 35.589844 220.359375 35.421875 220.019531 35.082031 C 219.683594 34.746094 219.511719 34.132812 219.511719 33.25 L 219.511719 29.386719 L 218.652344 29.386719 L 218.652344 28.476562 L 219.511719 28.476562 L 219.511719 26.460938 Z M 220.683594 26.460938 "/>
<path style=" stroke:none;fill-rule:nonzero;fill:rgb(0%,0%,0%);fill-opacity:1;" d="M 227.871094 32.011719 C 226.921875 32.011719 226.269531 32.128906 225.90625 32.339844 C 225.542969 32.558594 225.359375 32.921875 225.359375 33.445312 C 225.359375 33.859375 225.488281 34.199219 225.761719 34.433594 C 226.035156 34.679688 226.414062 34.796875 226.882812 34.796875 C 227.535156 34.796875 228.054688 34.574219 228.445312 34.105469 C 228.835938 33.652344 229.03125 33.039062 229.03125 32.273438 L 229.03125 32.011719 Z M 230.203125 31.53125 L 230.203125 35.589844 L 229.03125 35.589844 L 229.03125 34.511719 C 228.757812 34.953125 228.417969 35.265625 228.027344 35.460938 C 227.636719 35.65625 227.144531 35.757812 226.570312 35.757812 C 225.839844 35.757812 225.253906 35.5625 224.824219 35.160156 C 224.394531 34.757812 224.1875 34.210938 224.1875 33.523438 C 224.1875 32.726562 224.449219 32.128906 224.996094 31.714844 C 225.527344 31.3125 226.324219 31.101562 227.390625 31.101562 L 229.03125 31.101562 L 229.03125 30.984375 C 229.03125 30.453125 228.847656 30.035156 228.496094 29.738281 C 228.144531 29.453125 227.652344 29.296875 227.011719 29.296875 C 226.597656 29.296875 226.207031 29.347656 225.816406 29.453125 C 225.425781 29.554688 225.058594 29.699219 224.707031 29.878906 L 224.707031 28.800781 C 225.125 28.644531 225.542969 28.515625 225.945312 28.4375 C 226.347656 28.359375 226.738281 28.308594 227.128906 28.308594 C 228.160156 28.308594 228.925781 28.578125 229.433594 29.113281 C 229.941406 29.644531 230.203125 30.453125 230.203125 31.53125 Z M 230.203125 31.53125 "/>
<path style=" stroke:none;fill-rule:nonzero;fill:rgb(0%,0%,0%);fill-opacity:1;" d="M 238.535156 31.296875 L 238.535156 35.589844 L 237.363281 35.589844 L 237.363281 31.335938 C 237.363281 30.660156 237.222656 30.167969 236.960938 29.828125 C 236.699219 29.492188 236.308594 29.320312 235.789062 29.320312 C 235.152344 29.320312 234.65625 29.527344 234.292969 29.933594 C 233.925781 30.335938 233.746094 30.882812 233.746094 31.570312 L 233.746094 35.589844 L 232.574219 35.589844 L 232.574219 28.476562 L 233.746094 28.476562 L 233.746094 29.582031 C 234.019531 29.164062 234.34375 28.839844 234.734375 28.632812 C 235.113281 28.425781 235.554688 28.308594 236.050781 28.308594 C 236.855469 28.308594 237.480469 28.566406 237.898438 29.074219 C 238.316406 29.582031 238.535156 30.324219 238.535156 31.296875 Z M 238.535156 31.296875 "/>
<path style=" stroke:none;fill-rule:nonzero;fill:rgb(0%,0%,0%);fill-opacity:1;" d="M 245.996094 28.75 L 245.996094 29.839844 C 245.660156 29.660156 245.332031 29.527344 244.996094 29.4375 C 244.65625 29.347656 244.332031 29.296875 243.992188 29.296875 C 243.238281 29.296875 242.636719 29.542969 242.222656 30.023438 C 241.804688 30.503906 241.597656 31.179688 241.597656 32.039062 C 241.597656 32.910156 241.804688 33.585938 242.222656 34.066406 C 242.636719 34.550781 243.238281 34.785156 243.992188 34.785156 C 244.332031 34.785156 244.65625 34.746094 244.996094 34.652344 C 245.332031 34.5625 245.660156 34.417969 245.996094 34.238281 L 245.996094 35.316406 C 245.660156 35.472656 245.320312 35.589844 244.980469 35.65625 C 244.628906 35.71875 244.253906 35.757812 243.863281 35.757812 C 242.792969 35.757812 241.933594 35.433594 241.308594 34.757812 C 240.671875 34.09375 240.359375 33.183594 240.359375 32.039062 C 240.359375 30.882812 240.671875 29.972656 241.308594 29.308594 C 241.949219 28.644531 242.820312 28.308594 243.941406 28.308594 C 244.304688 28.308594 244.65625 28.347656 244.996094 28.425781 C 245.332031 28.5 245.671875 28.605469 245.996094 28.75 Z M 245.996094 28.75 "/>
<path style=" stroke:none;fill-rule:nonzero;fill:rgb(0%,0%,0%);fill-opacity:1;" d="M 254.121094 31.738281 L 254.121094 32.3125 L 248.746094 32.3125 C 248.796875 33.117188 249.03125 33.742188 249.472656 34.160156 C 249.902344 34.574219 250.503906 34.785156 251.285156 34.785156 C 251.726562 34.785156 252.167969 34.730469 252.585938 34.628906 C 253.003906 34.523438 253.433594 34.355469 253.847656 34.121094 L 253.847656 35.226562 C 253.433594 35.40625 253.003906 35.550781 252.558594 35.628906 C 252.117188 35.707031 251.660156 35.757812 251.21875 35.757812 C 250.074219 35.757812 249.175781 35.433594 248.511719 34.785156 C 247.847656 34.132812 247.519531 33.234375 247.519531 32.105469 C 247.519531 30.945312 247.832031 30.023438 248.457031 29.335938 C 249.082031 28.65625 249.941406 28.308594 251.011719 28.308594 C 251.972656 28.308594 252.730469 28.617188 253.289062 29.230469 C 253.835938 29.855469 254.121094 30.6875 254.121094 31.738281 Z M 252.949219 31.402344 C 252.9375 30.765625 252.753906 30.257812 252.417969 29.867188 C 252.066406 29.492188 251.597656 29.296875 251.023438 29.296875 C 250.371094 29.296875 249.851562 29.492188 249.460938 29.855469 C 249.070312 30.21875 248.835938 30.738281 248.785156 31.402344 Z M 252.949219 31.402344 "/>
<path style=" stroke:none;fill-rule:nonzero;fill:rgb(0%,0%,0%);fill-opacity:1;" d="M 265.292969 32.039062 C 265.292969 31.179688 265.113281 30.519531 264.761719 30.023438 C 264.394531 29.527344 263.914062 29.28125 263.300781 29.28125 C 262.675781 29.28125 262.195312 29.527344 261.84375 30.023438 C 261.480469 30.519531 261.308594 31.179688 261.308594 32.039062 C 261.308594 32.898438 261.480469 33.574219 261.84375 34.066406 C 262.195312 34.5625 262.675781 34.796875 263.300781 34.796875 C 263.914062 34.796875 264.394531 34.5625 264.761719 34.066406 C 265.113281 33.574219 265.292969 32.898438 265.292969 32.039062 Z M 261.308594 29.554688 C 261.542969 29.140625 261.855469 28.828125 262.234375 28.617188 C 262.613281 28.410156 263.066406 28.308594 263.589844 28.308594 C 264.449219 28.308594 265.152344 28.65625 265.699219 29.335938 C 266.230469 30.023438 266.503906 30.921875 266.503906 32.039062 C 266.503906 33.15625 266.230469 34.066406 265.699219 34.746094 C 265.152344 35.421875 264.449219 35.757812 263.589844 35.757812 C 263.066406 35.757812 262.613281 35.65625 262.234375 35.460938 C 261.855469 35.265625 261.542969 34.953125 261.308594 34.523438 L 261.308594 35.589844 L 260.136719 35.589844 L 260.136719 25.707031 L 261.308594 25.707031 Z M 261.308594 29.554688 "/>
<path style=" stroke:none;fill-rule:nonzero;fill:rgb(0%,0%,0%);fill-opacity:1;" d="M 274.539062 31.738281 L 274.539062 32.3125 L 269.160156 32.3125 C 269.214844 33.117188 269.449219 33.742188 269.890625 34.160156 C 270.320312 34.574219 270.917969 34.785156 271.699219 34.785156 C 272.144531 34.785156 272.585938 34.730469 273.003906 34.628906 C 273.417969 34.523438 273.847656 34.355469 274.265625 34.121094 L 274.265625 35.226562 C 273.847656 35.40625 273.417969 35.550781 272.976562 35.628906 C 272.535156 35.707031 272.078125 35.757812 271.636719 35.757812 C 270.488281 35.757812 269.589844 35.433594 268.925781 34.785156 C 268.261719 34.132812 267.9375 33.234375 267.9375 32.105469 C 267.9375 30.945312 268.25 30.023438 268.875 29.335938 C 269.5 28.65625 270.359375 28.308594 271.425781 28.308594 C 272.390625 28.308594 273.144531 28.617188 273.707031 29.230469 C 274.253906 29.855469 274.539062 30.6875 274.539062 31.738281 Z M 273.367188 31.402344 C 273.355469 30.765625 273.171875 30.257812 272.832031 29.867188 C 272.480469 29.492188 272.011719 29.296875 271.441406 29.296875 C 270.789062 29.296875 270.269531 29.492188 269.878906 29.855469 C 269.488281 30.21875 269.253906 30.738281 269.199219 31.402344 Z M 273.367188 31.402344 "/>
<path style=" stroke:none;fill-rule:nonzero;fill:rgb(0%,0%,0%);fill-opacity:1;" d="M 277.613281 26.460938 L 277.613281 28.476562 L 280.019531 28.476562 L 280.019531 29.386719 L 277.613281 29.386719 L 277.613281 33.25 C 277.613281 33.832031 277.691406 34.210938 277.847656 34.367188 C 278.003906 34.535156 278.328125 34.613281 278.824219 34.613281 L 280.019531 34.613281 L 280.019531 35.589844 L 278.824219 35.589844 C 277.910156 35.589844 277.285156 35.421875 276.949219 35.082031 C 276.609375 34.746094 276.441406 34.132812 276.441406 33.25 L 276.441406 29.386719 L 275.582031 29.386719 L 275.582031 28.476562 L 276.441406 28.476562 L 276.441406 26.460938 Z M 277.613281 26.460938 "/>
<path style=" stroke:none;fill-rule:nonzero;fill:rgb(0%,0%,0%);fill-opacity:1;" d="M 280.878906 28.476562 L 282.050781 28.476562 L 283.511719 34.027344 L 284.96875 28.476562 L 286.347656 28.476562 L 287.808594 34.027344 L 289.265625 28.476562 L 290.4375 28.476562 L 288.574219 35.589844 L 287.195312 35.589844 L 285.660156 29.761719 L 284.121094 35.589844 L 282.742188 35.589844 Z M 280.878906 28.476562 "/>
<path style=" stroke:none;fill-rule:nonzero;fill:rgb(0%,0%,0%);fill-opacity:1;" d="M 298.300781 31.738281 L 298.300781 32.3125 L 292.925781 32.3125 C 292.976562 33.117188 293.210938 33.742188 293.652344 34.160156 C 294.082031 34.574219 294.683594 34.785156 295.464844 34.785156 C 295.90625 34.785156 296.347656 34.730469 296.765625 34.628906 C 297.183594 34.523438 297.613281 34.355469 298.027344 34.121094 L 298.027344 35.226562 C 297.613281 35.40625 297.183594 35.550781 296.738281 35.628906 C 296.296875 35.707031 295.839844 35.757812 295.398438 35.757812 C 294.253906 35.757812 293.355469 35.433594 292.691406 34.785156 C 292.027344 34.132812 291.699219 33.234375 291.699219 32.105469 C 291.699219 30.945312 292.011719 30.023438 292.636719 29.335938 C 293.261719 28.65625 294.121094 28.308594 295.191406 28.308594 C 296.152344 28.308594 296.910156 28.617188 297.46875 29.230469 C 298.015625 29.855469 298.300781 30.6875 298.300781 31.738281 Z M 297.128906 31.402344 C 297.117188 30.765625 296.933594 30.257812 296.597656 29.867188 C 296.246094 29.492188 295.777344 29.296875 295.203125 29.296875 C 294.550781 29.296875 294.03125 29.492188 293.640625 29.855469 C 293.25 30.21875 293.015625 30.738281 292.964844 31.402344 Z M 297.128906 31.402344 "/>
<path style=" stroke:none;fill-rule:nonzero;fill:rgb(0%,0%,0%);fill-opacity:1;" d="M 306.308594 31.738281 L 306.308594 32.3125 L 300.933594 32.3125 C 300.984375 33.117188 301.21875 33.742188 301.660156 34.160156 C 302.089844 34.574219 302.691406 34.785156 303.472656 34.785156 C 303.914062 34.785156 304.355469 34.730469 304.773438 34.628906 C 305.191406 34.523438 305.621094 34.355469 306.035156 34.121094 L 306.035156 35.226562 C 305.621094 35.40625 305.191406 35.550781 304.746094 35.628906 C 304.304688 35.707031 303.847656 35.757812 303.40625 35.757812 C 302.261719 35.757812 301.363281 35.433594 300.699219 34.785156 C 300.035156 34.132812 299.707031 33.234375 299.707031 32.105469 C 299.707031 30.945312 300.019531 30.023438 300.644531 29.335938 C 301.269531 28.65625 302.128906 28.308594 303.199219 28.308594 C 304.160156 28.308594 304.917969 28.617188 305.476562 29.230469 C 306.023438 29.855469 306.308594 30.6875 306.308594 31.738281 Z M 305.136719 31.402344 C 305.125 30.765625 304.941406 30.257812 304.605469 29.867188 C 304.253906 29.492188 303.785156 29.296875 303.210938 29.296875 C 302.558594 29.296875 302.039062 29.492188 301.648438 29.855469 C 301.257812 30.21875 301.023438 30.738281 300.972656 31.402344 Z M 305.136719 31.402344 "/>
<path style=" stroke:none;fill-rule:nonzero;fill:rgb(0%,0%,0%);fill-opacity:1;" d="M 314.148438 31.296875 L 314.148438 35.589844 L 312.976562 35.589844 L 312.976562 31.335938 C 312.976562 30.660156 312.832031 30.167969 312.574219 29.828125 C 312.3125 29.492188 311.921875 29.320312 311.402344 29.320312 C 310.761719 29.320312 310.269531 29.527344 309.902344 29.933594 C 309.539062 30.335938 309.355469 30.882812 309.355469 31.570312 L 309.355469 35.589844 L 308.183594 35.589844 L 308.183594 28.476562 L 309.355469 28.476562 L 309.355469 29.582031 C 309.628906 29.164062 309.957031 28.839844 310.347656 28.632812 C 310.722656 28.425781 311.167969 28.308594 311.660156 28.308594 C 312.46875 28.308594 313.09375 28.566406 313.511719 29.074219 C 313.925781 29.582031 314.148438 30.324219 314.148438 31.296875 Z M 314.148438 31.296875 "/>
<path style=" stroke:none;fill-rule:nonzero;fill:rgb(0%,0%,0%);fill-opacity:1;" d="M 324.527344 26.980469 C 323.589844 26.980469 322.847656 27.332031 322.300781 28.019531 C 321.753906 28.722656 321.480469 29.660156 321.480469 30.855469 C 321.480469 32.050781 321.753906 33 322.300781 33.691406 C 322.847656 34.394531 323.589844 34.730469 324.527344 34.730469 C 325.449219 34.730469 326.191406 34.394531 326.738281 33.691406 C 327.285156 33 327.558594 32.050781 327.558594 30.855469 C 327.558594 29.660156 327.285156 28.722656 326.738281 28.019531 C 326.191406 27.332031 325.449219 26.980469 324.527344 26.980469 Z M 324.527344 25.941406 C 325.855469 25.941406 326.910156 26.394531 327.714844 27.28125 C 328.511719 28.164062 328.914062 29.359375 328.914062 30.855469 C 328.914062 32.363281 328.511719 33.546875 327.714844 34.433594 C 326.910156 35.316406 325.855469 35.757812 324.527344 35.757812 C 323.183594 35.757812 322.117188 35.316406 321.324219 34.433594 C 320.515625 33.546875 320.125 32.363281 320.125 30.855469 C 320.125 29.359375 320.515625 28.164062 321.324219 27.28125 C 322.117188 26.394531 323.183594 25.941406 324.527344 25.941406 Z M 324.527344 25.941406 "/>
<path style=" stroke:none;fill-rule:nonzero;fill:rgb(0%,0%,0%);fill-opacity:1;" d="M 336.609375 26.421875 L 336.609375 27.667969 C 336.113281 27.433594 335.660156 27.265625 335.230469 27.148438 C 334.785156 27.046875 334.371094 26.980469 333.980469 26.980469 C 333.277344 26.980469 332.730469 27.125 332.351562 27.382812 C 331.972656 27.65625 331.792969 28.046875 331.792969 28.539062 C 331.792969 28.957031 331.910156 29.28125 332.167969 29.492188 C 332.417969 29.710938 332.898438 29.878906 333.601562 30.011719 L 334.382812 30.167969 C 335.332031 30.347656 336.035156 30.671875 336.492188 31.128906 C 336.949219 31.597656 337.183594 32.207031 337.183594 32.976562 C 337.183594 33.898438 336.871094 34.589844 336.257812 35.054688 C 335.632812 35.523438 334.734375 35.757812 333.550781 35.757812 C 333.09375 35.757812 332.613281 35.707031 332.105469 35.617188 C 331.597656 35.523438 331.074219 35.382812 330.542969 35.171875 L 330.542969 33.847656 C 331.0625 34.144531 331.570312 34.367188 332.066406 34.511719 C 332.558594 34.667969 333.054688 34.730469 333.550781 34.730469 C 334.277344 34.730469 334.839844 34.589844 335.242188 34.300781 C 335.632812 34.015625 335.839844 33.613281 335.839844 33.066406 C 335.839844 32.597656 335.699219 32.234375 335.410156 31.972656 C 335.125 31.714844 334.65625 31.519531 334.003906 31.390625 L 333.222656 31.234375 C 332.261719 31.050781 331.570312 30.75 331.140625 30.335938 C 330.710938 29.933594 330.503906 29.375 330.503906 28.644531 C 330.503906 27.8125 330.789062 27.148438 331.386719 26.667969 C 331.972656 26.1875 332.792969 25.941406 333.835938 25.941406 C 334.277344 25.941406 334.722656 25.980469 335.191406 26.058594 C 335.644531 26.136719 336.113281 26.265625 336.609375 26.421875 Z M 336.609375 26.421875 "/>
<path style=" stroke:none;fill-rule:nonzero;fill:rgb(0%,0%,0%);fill-opacity:1;" d="M 346.519531 32.011719 C 345.566406 32.011719 344.917969 32.128906 344.550781 32.339844 C 344.1875 32.558594 344.003906 32.921875 344.003906 33.445312 C 344.003906 33.859375 344.136719 34.199219 344.410156 34.433594 C 344.683594 34.679688 345.058594 34.796875 345.527344 34.796875 C 346.179688 34.796875 346.699219 34.574219 347.089844 34.105469 C 347.480469 33.652344 347.675781 33.039062 347.675781 32.273438 L 347.675781 32.011719 Z M 348.847656 31.53125 L 348.847656 35.589844 L 347.675781 35.589844 L 347.675781 34.511719 C 347.402344 34.953125 347.066406 35.265625 346.675781 35.460938 C 346.285156 35.65625 345.789062 35.757812 345.214844 35.757812 C 344.488281 35.757812 343.902344 35.5625 343.472656 35.160156 C 343.042969 34.757812 342.832031 34.210938 342.832031 33.523438 C 342.832031 32.726562 343.09375 32.128906 343.640625 31.714844 C 344.175781 31.3125 344.96875 31.101562 346.035156 31.101562 L 347.675781 31.101562 L 347.675781 30.984375 C 347.675781 30.453125 347.496094 30.035156 347.144531 29.738281 C 346.792969 29.453125 346.296875 29.296875 345.660156 29.296875 C 345.242188 29.296875 344.851562 29.347656 344.460938 29.453125 C 344.070312 29.554688 343.707031 29.699219 343.355469 29.878906 L 343.355469 28.800781 C 343.769531 28.644531 344.1875 28.515625 344.589844 28.4375 C 344.996094 28.359375 345.386719 28.308594 345.777344 28.308594 C 346.804688 28.308594 347.574219 28.578125 348.082031 29.113281 C 348.589844 29.644531 348.847656 30.453125 348.847656 31.53125 Z M 348.847656 31.53125 "/>
<path style=" stroke:none;fill-rule:nonzero;fill:rgb(0%,0%,0%);fill-opacity:1;" d="M 357.183594 31.296875 L 357.183594 35.589844 L 356.011719 35.589844 L 356.011719 31.335938 C 356.011719 30.660156 355.867188 30.167969 355.605469 29.828125 C 355.347656 29.492188 354.957031 29.320312 354.433594 29.320312 C 353.796875 29.320312 353.300781 29.527344 352.9375 29.933594 C 352.574219 30.335938 352.390625 30.882812 352.390625 31.570312 L 352.390625 35.589844 L 351.21875 35.589844 L 351.21875 28.476562 L 352.390625 28.476562 L 352.390625 29.582031 C 352.664062 29.164062 352.988281 28.839844 353.378906 28.632812 C 353.757812 28.425781 354.199219 28.308594 354.695312 28.308594 C 355.503906 28.308594 356.128906 28.566406 356.542969 29.074219 C 356.960938 29.582031 357.183594 30.324219 357.183594 31.296875 Z M 357.183594 31.296875 "/>
<path style=" stroke:none;fill-rule:nonzero;fill:rgb(0%,0%,0%);fill-opacity:1;" d="M 364.199219 29.554688 L 364.199219 25.707031 L 365.371094 25.707031 L 365.371094 35.589844 L 364.199219 35.589844 L 364.199219 34.523438 C 363.953125 34.953125 363.640625 35.265625 363.261719 35.460938 C 362.886719 35.65625 362.441406 35.757812 361.921875 35.757812 C 361.0625 35.757812 360.359375 35.421875 359.8125 34.746094 C 359.265625 34.066406 359.003906 33.15625 359.003906 32.039062 C 359.003906 30.921875 359.265625 30.023438 359.8125 29.335938 C 360.359375 28.65625 361.0625 28.308594 361.921875 28.308594 C 362.441406 28.308594 362.886719 28.410156 363.261719 28.617188 C 363.640625 28.828125 363.953125 29.140625 364.199219 29.554688 Z M 360.214844 32.039062 C 360.214844 32.898438 360.386719 33.574219 360.738281 34.066406 C 361.089844 34.5625 361.570312 34.796875 362.195312 34.796875 C 362.820312 34.796875 363.300781 34.5625 363.667969 34.066406 C 364.019531 33.574219 364.199219 32.898438 364.199219 32.039062 C 364.199219 31.179688 364.019531 30.519531 363.667969 30.023438 C 363.300781 29.527344 362.820312 29.28125 362.195312 29.28125 C 361.570312 29.28125 361.089844 29.527344 360.738281 30.023438 C 360.386719 30.519531 360.214844 31.179688 360.214844 32.039062 Z M 360.214844 32.039062 "/>
<path style=" stroke:none;fill-rule:nonzero;fill:rgb(0%,0%,0%);fill-opacity:1;" d="M 370.671875 26.109375 L 378.691406 26.109375 L 378.691406 27.1875 L 375.320312 27.1875 L 375.320312 35.589844 L 374.03125 35.589844 L 374.03125 27.1875 L 370.671875 27.1875 Z M 370.671875 26.109375 "/>
<path style=" stroke:none;fill-rule:nonzero;fill:rgb(0%,0%,0%);fill-opacity:1;" d="M 385.621094 26.421875 L 385.621094 27.667969 C 385.125 27.433594 384.667969 27.265625 384.238281 27.148438 C 383.796875 27.046875 383.378906 26.980469 382.988281 26.980469 C 382.285156 26.980469 381.738281 27.125 381.363281 27.382812 C 380.984375 27.65625 380.800781 28.046875 380.800781 28.539062 C 380.800781 28.957031 380.917969 29.28125 381.179688 29.492188 C 381.425781 29.710938 381.910156 29.878906 382.613281 30.011719 L 383.394531 30.167969 C 384.34375 30.347656 385.046875 30.671875 385.503906 31.128906 C 385.957031 31.597656 386.191406 32.207031 386.191406 32.976562 C 386.191406 33.898438 385.878906 34.589844 385.269531 35.054688 C 384.644531 35.523438 383.746094 35.757812 382.558594 35.757812 C 382.105469 35.757812 381.621094 35.707031 381.113281 35.617188 C 380.605469 35.523438 380.085938 35.382812 379.550781 35.171875 L 379.550781 33.847656 C 380.074219 34.144531 380.582031 34.367188 381.074219 34.511719 C 381.570312 34.667969 382.066406 34.730469 382.558594 34.730469 C 383.289062 34.730469 383.847656 34.589844 384.253906 34.300781 C 384.644531 34.015625 384.851562 33.613281 384.851562 33.066406 C 384.851562 32.597656 384.707031 32.234375 384.421875 31.972656 C 384.136719 31.714844 383.667969 31.519531 383.015625 31.390625 L 382.234375 31.234375 C 381.269531 31.050781 380.582031 30.75 380.152344 30.335938 C 379.722656 29.933594 379.511719 29.375 379.511719 28.644531 C 379.511719 27.8125 379.800781 27.148438 380.398438 26.667969 C 380.984375 26.1875 381.804688 25.941406 382.847656 25.941406 C 383.289062 25.941406 383.730469 25.980469 384.199219 26.058594 C 384.65625 26.136719 385.125 26.265625 385.621094 26.421875 Z M 385.621094 26.421875 "/>
<path style="fill-rule:nonzero;fill:rgb(100%,64.705882%,0%);fill-opacity:1;stroke-width:2.5;stroke-linecap:butt;stroke-linejoin:round;stroke:rgb(100%,64.705882%,0%);stroke-opacity:1;stroke-miterlimit:4;" d="M 130.965 32.514411 L 136.965 26.513137 M 130.965 26.513137 L 136.965 32.514411 " transform="matrix(1.302083,0,0,1.300505,0,12.875)"/>
<path style=" stroke:none;fill-rule:nonzero;fill:rgb(0%,0%,0%);fill-opacity:1;" d="M 204.644531 48.921875 C 204.929688 48.402344 205.28125 48.023438 205.683594 47.765625 C 206.089844 47.519531 206.570312 47.386719 207.128906 47.386719 C 207.859375 47.386719 208.433594 47.648438 208.835938 48.167969 C 209.238281 48.6875 209.449219 49.429688 209.449219 50.378906 L 209.449219 54.671875 L 208.277344 54.671875 L 208.277344 50.417969 C 208.277344 49.742188 208.144531 49.234375 207.910156 48.894531 C 207.664062 48.570312 207.300781 48.402344 206.804688 48.402344 C 206.191406 48.402344 205.710938 48.609375 205.359375 49.011719 C 205.007812 49.417969 204.839844 49.960938 204.839844 50.652344 L 204.839844 54.671875 L 203.667969 54.671875 L 203.667969 50.417969 C 203.667969 49.742188 203.535156 49.234375 203.300781 48.894531 C 203.054688 48.570312 202.675781 48.402344 202.183594 48.402344 C 201.582031 48.402344 201.101562 48.609375 200.75 49.011719 C 200.398438 49.417969 200.230469 49.960938 200.230469 50.652344 L 200.230469 54.671875 L 199.058594 54.671875 L 199.058594 47.558594 L 200.230469 47.558594 L 200.230469 48.664062 C 200.488281 48.234375 200.816406 47.90625 201.191406 47.699219 C 201.558594 47.492188 202 47.386719 202.519531 47.386719 C 203.042969 47.386719 203.472656 47.519531 203.835938 47.777344 C 204.199219 48.039062 204.460938 48.429688 204.644531 48.921875 Z M 204.644531 48.921875 "/>
<path style=" stroke:none;fill-rule:nonzero;fill:rgb(0%,0%,0%);fill-opacity:1;" d="M 211.777344 47.558594 L 212.949219 47.558594 L 212.949219 54.671875 L 211.777344 54.671875 Z M 211.777344 44.785156 L 212.949219 44.785156 L 212.949219 46.269531 L 211.777344 46.269531 Z M 211.777344 44.785156 "/>
<path style=" stroke:none;fill-rule:nonzero;fill:rgb(0%,0%,0%);fill-opacity:1;" d="M 221.324219 50.378906 L 221.324219 54.671875 L 220.152344 54.671875 L 220.152344 50.417969 C 220.152344 49.742188 220.007812 49.246094 219.746094 48.910156 C 219.488281 48.570312 219.097656 48.402344 218.574219 48.402344 C 217.9375 48.402344 217.441406 48.609375 217.078125 49.011719 C 216.714844 49.417969 216.53125 49.960938 216.53125 50.652344 L 216.53125 54.671875 L 215.359375 54.671875 L 215.359375 47.558594 L 216.53125 47.558594 L 216.53125 48.664062 C 216.804688 48.246094 217.128906 47.921875 217.519531 47.714844 C 217.898438 47.503906 218.339844 47.386719 218.835938 47.386719 C 219.644531 47.386719 220.269531 47.648438 220.683594 48.15625 C 221.101562 48.664062 221.324219 49.402344 221.324219 50.378906 Z M 221.324219 50.378906 "/>
<path style=" stroke:none;fill-rule:nonzero;fill:rgb(0%,0%,0%);fill-opacity:1;" d="M 223.824219 53.058594 L 225.164062 53.058594 L 225.164062 54.671875 L 223.824219 54.671875 Z M 223.824219 53.058594 "/>
<path style=" stroke:none;fill-rule:nonzero;fill:rgb(0%,0%,0%);fill-opacity:1;" d="M 236.621094 48.636719 L 236.621094 44.785156 L 237.792969 44.785156 L 237.792969 54.671875 L 236.621094 54.671875 L 236.621094 53.605469 C 236.375 54.035156 236.0625 54.34375 235.683594 54.539062 C 235.308594 54.734375 234.863281 54.839844 234.34375 54.839844 C 233.484375 54.839844 232.78125 54.5 232.234375 53.824219 C 231.6875 53.148438 231.425781 52.238281 231.425781 51.121094 C 231.425781 50 231.6875 49.105469 232.234375 48.414062 C 232.78125 47.738281 233.484375 47.386719 234.34375 47.386719 C 234.863281 47.386719 235.308594 47.492188 235.683594 47.699219 C 236.0625 47.90625 236.375 48.21875 236.621094 48.636719 Z M 232.636719 51.121094 C 232.636719 51.980469 232.808594 52.65625 233.160156 53.148438 C 233.511719 53.644531 233.992188 53.878906 234.617188 53.878906 C 235.242188 53.878906 235.722656 53.644531 236.089844 53.148438 C 236.441406 52.65625 236.621094 51.980469 236.621094 51.121094 C 236.621094 50.261719 236.441406 49.597656 236.089844 49.105469 C 235.722656 48.609375 235.242188 48.363281 234.617188 48.363281 C 233.992188 48.363281 233.511719 48.609375 233.160156 49.105469 C 232.808594 49.597656 232.636719 50.261719 232.636719 51.121094 Z M 232.636719 51.121094 "/>
<path style=" stroke:none;fill-rule:nonzero;fill:rgb(0%,0%,0%);fill-opacity:1;" d="M 240.203125 47.558594 L 241.375 47.558594 L 241.375 54.671875 L 240.203125 54.671875 Z M 240.203125 44.785156 L 241.375 44.785156 L 241.375 46.269531 L 240.203125 46.269531 Z M 240.203125 44.785156 "/>
<path style=" stroke:none;fill-rule:nonzero;fill:rgb(0%,0%,0%);fill-opacity:1;" d="M 248.367188 47.765625 L 248.367188 48.871094 C 248.027344 48.714844 247.691406 48.585938 247.339844 48.492188 C 246.972656 48.414062 246.609375 48.363281 246.230469 48.363281 C 245.644531 48.363281 245.203125 48.453125 244.917969 48.636719 C 244.628906 48.816406 244.488281 49.078125 244.488281 49.429688 C 244.488281 49.703125 244.589844 49.910156 244.800781 50.066406 C 245.007812 50.222656 245.425781 50.378906 246.050781 50.507812 L 246.453125 50.601562 C 247.285156 50.78125 247.871094 51.042969 248.222656 51.355469 C 248.5625 51.679688 248.746094 52.132812 248.746094 52.707031 C 248.746094 53.371094 248.484375 53.890625 247.964844 54.265625 C 247.441406 54.65625 246.714844 54.839844 245.800781 54.839844 C 245.410156 54.839844 245.019531 54.800781 244.605469 54.734375 C 244.1875 54.671875 243.757812 54.566406 243.300781 54.410156 L 243.300781 53.199219 C 243.730469 53.433594 244.160156 53.605469 244.578125 53.707031 C 244.996094 53.824219 245.410156 53.878906 245.828125 53.878906 C 246.375 53.878906 246.804688 53.785156 247.105469 53.605469 C 247.390625 53.421875 247.546875 53.148438 247.546875 52.796875 C 247.546875 52.484375 247.429688 52.238281 247.222656 52.070312 C 247.011719 51.902344 246.542969 51.730469 245.816406 51.574219 L 245.410156 51.484375 C 244.683594 51.328125 244.148438 51.09375 243.835938 50.78125 C 243.511719 50.46875 243.355469 50.039062 243.355469 49.480469 C 243.355469 48.816406 243.589844 48.296875 244.058594 47.933594 C 244.527344 47.570312 245.203125 47.386719 246.089844 47.386719 C 246.519531 47.386719 246.921875 47.425781 247.3125 47.492188 C 247.691406 47.558594 248.042969 47.648438 248.367188 47.765625 Z M 248.367188 47.765625 "/>
<path style=" stroke:none;fill-rule:nonzero;fill:rgb(0%,0%,0%);fill-opacity:1;" d="M 251.765625 45.542969 L 251.765625 47.558594 L 254.175781 47.558594 L 254.175781 48.46875 L 251.765625 48.46875 L 251.765625 52.328125 C 251.765625 52.914062 251.84375 53.292969 252 53.449219 C 252.15625 53.617188 252.480469 53.695312 252.976562 53.695312 L 254.175781 53.695312 L 254.175781 54.671875 L 252.976562 54.671875 C 252.066406 54.671875 251.441406 54.5 251.101562 54.164062 C 250.761719 53.824219 250.59375 53.214844 250.59375 52.328125 L 250.59375 48.46875 L 249.734375 48.46875 L 249.734375 47.558594 L 250.59375 47.558594 L 250.59375 45.542969 Z M 251.765625 45.542969 "/>
<path style=" stroke:none;fill-rule:nonzero;fill:rgb(0%,0%,0%);fill-opacity:1;" d="M 258.953125 51.09375 C 258.003906 51.09375 257.351562 51.210938 256.988281 51.417969 C 256.621094 51.640625 256.441406 52.003906 256.441406 52.523438 C 256.441406 52.941406 256.570312 53.277344 256.84375 53.511719 C 257.117188 53.761719 257.496094 53.878906 257.964844 53.878906 C 258.613281 53.878906 259.136719 53.65625 259.527344 53.1875 C 259.917969 52.734375 260.113281 52.121094 260.113281 51.355469 L 260.113281 51.09375 Z M 261.285156 50.613281 L 261.285156 54.671875 L 260.113281 54.671875 L 260.113281 53.589844 C 259.839844 54.035156 259.5 54.34375 259.109375 54.539062 C 258.71875 54.734375 258.222656 54.839844 257.652344 54.839844 C 256.921875 54.839844 256.335938 54.644531 255.90625 54.242188 C 255.476562 53.839844 255.269531 53.292969 255.269531 52.601562 C 255.269531 51.808594 255.527344 51.210938 256.074219 50.796875 C 256.609375 50.390625 257.402344 50.183594 258.472656 50.183594 L 260.113281 50.183594 L 260.113281 50.066406 C 260.113281 49.535156 259.929688 49.117188 259.578125 48.816406 C 259.226562 48.53125 258.730469 48.375 258.09375 48.375 C 257.675781 48.375 257.285156 48.429688 256.894531 48.53125 C 256.503906 48.636719 256.140625 48.78125 255.789062 48.960938 L 255.789062 47.882812 C 256.207031 47.726562 256.621094 47.597656 257.027344 47.519531 C 257.429688 47.441406 257.820312 47.386719 258.210938 47.386719 C 259.238281 47.386719 260.007812 47.660156 260.515625 48.195312 C 261.023438 48.726562 261.285156 49.535156 261.285156 50.613281 Z M 261.285156 50.613281 "/>
<path style=" stroke:none;fill-rule:nonzero;fill:rgb(0%,0%,0%);fill-opacity:1;" d="M 269.617188 50.378906 L 269.617188 54.671875 L 268.445312 54.671875 L 268.445312 50.417969 C 268.445312 49.742188 268.300781 49.246094 268.042969 48.910156 C 267.78125 48.570312 267.390625 48.402344 266.871094 48.402344 C 266.230469 48.402344 265.738281 48.609375 265.371094 49.011719 C 265.007812 49.417969 264.824219 49.960938 264.824219 50.652344 L 264.824219 54.671875 L 263.652344 54.671875 L 263.652344 47.558594 L 264.824219 47.558594 L 264.824219 48.664062 C 265.097656 48.246094 265.425781 47.921875 265.816406 47.714844 C 266.191406 47.503906 266.636719 47.386719 267.128906 47.386719 C 267.9375 47.386719 268.5625 47.648438 268.980469 48.15625 C 269.394531 48.664062 269.617188 49.402344 269.617188 50.378906 Z M 269.617188 50.378906 "/>
<path style=" stroke:none;fill-rule:nonzero;fill:rgb(0%,0%,0%);fill-opacity:1;" d="M 277.078125 47.828125 L 277.078125 48.921875 C 276.738281 48.742188 276.414062 48.609375 276.074219 48.519531 C 275.738281 48.429688 275.410156 48.375 275.074219 48.375 C 274.316406 48.375 273.71875 48.625 273.300781 49.105469 C 272.886719 49.585938 272.675781 50.261719 272.675781 51.121094 C 272.675781 51.992188 272.886719 52.667969 273.300781 53.148438 C 273.71875 53.628906 274.316406 53.863281 275.074219 53.863281 C 275.410156 53.863281 275.738281 53.824219 276.074219 53.734375 C 276.414062 53.644531 276.738281 53.5 277.078125 53.316406 L 277.078125 54.398438 C 276.738281 54.554688 276.402344 54.671875 276.0625 54.734375 C 275.710938 54.800781 275.332031 54.839844 274.941406 54.839844 C 273.875 54.839844 273.015625 54.515625 272.390625 53.839844 C 271.753906 53.175781 271.441406 52.265625 271.441406 51.121094 C 271.441406 49.960938 271.753906 49.050781 272.390625 48.390625 C 273.027344 47.726562 273.902344 47.386719 275.019531 47.386719 C 275.386719 47.386719 275.738281 47.425781 276.074219 47.503906 C 276.414062 47.582031 276.753906 47.6875 277.078125 47.828125 Z M 277.078125 47.828125 "/>
<path style=" stroke:none;fill-rule:nonzero;fill:rgb(0%,0%,0%);fill-opacity:1;" d="M 285.203125 50.820312 L 285.203125 51.394531 L 279.824219 51.394531 C 279.878906 52.199219 280.113281 52.824219 280.554688 53.238281 C 280.984375 53.65625 281.582031 53.863281 282.363281 53.863281 C 282.808594 53.863281 283.25 53.8125 283.667969 53.707031 C 284.082031 53.605469 284.511719 53.433594 284.929688 53.199219 L 284.929688 54.304688 C 284.511719 54.488281 284.082031 54.632812 283.640625 54.710938 C 283.199219 54.789062 282.742188 54.839844 282.300781 54.839844 C 281.152344 54.839844 280.253906 54.515625 279.589844 53.863281 C 278.925781 53.214844 278.601562 52.316406 278.601562 51.183594 C 278.601562 50.027344 278.914062 49.105469 279.539062 48.414062 C 280.164062 47.738281 281.023438 47.386719 282.089844 47.386719 C 283.054688 47.386719 283.808594 47.699219 284.371094 48.3125 C 284.917969 48.933594 285.203125 49.769531 285.203125 50.820312 Z M 284.03125 50.484375 C 284.019531 49.847656 283.835938 49.339844 283.496094 48.949219 C 283.144531 48.570312 282.675781 48.375 282.105469 48.375 C 281.453125 48.375 280.933594 48.570312 280.542969 48.933594 C 280.152344 49.300781 279.917969 49.820312 279.863281 50.484375 Z M 284.03125 50.484375 "/>
<path style=" stroke:none;fill-rule:nonzero;fill:rgb(0%,0%,0%);fill-opacity:1;" d="M 291.414062 48.765625 L 299.566406 48.765625 L 299.566406 49.832031 L 291.414062 49.832031 Z M 291.414062 51.355469 L 299.566406 51.355469 L 299.566406 52.433594 L 291.414062 52.433594 Z M 291.414062 51.355469 "/>
<path style=" stroke:none;fill-rule:nonzero;fill:rgb(0%,0%,0%);fill-opacity:1;" d="M 306.699219 53.589844 L 308.796875 53.589844 L 308.796875 46.359375 L 306.519531 46.816406 L 306.519531 45.644531 L 308.785156 45.191406 L 310.074219 45.191406 L 310.074219 53.589844 L 312.167969 53.589844 L 312.167969 54.671875 L 306.699219 54.671875 Z M 306.699219 53.589844 "/>
<path style=" stroke:none;fill-rule:nonzero;fill:rgb(0%,0%,0%);fill-opacity:1;" d="M 318.652344 49.558594 C 319.265625 49.691406 319.746094 49.960938 320.085938 50.378906 C 320.425781 50.796875 320.605469 51.316406 320.605469 51.914062 C 320.605469 52.851562 320.28125 53.578125 319.644531 54.085938 C 318.992188 54.59375 318.082031 54.839844 316.894531 54.839844 C 316.492188 54.839844 316.074219 54.800781 315.660156 54.722656 C 315.242188 54.65625 314.800781 54.539062 314.355469 54.382812 L 314.355469 53.148438 C 314.707031 53.355469 315.097656 53.511719 315.527344 53.617188 C 315.945312 53.722656 316.386719 53.773438 316.855469 53.773438 C 317.664062 53.773438 318.277344 53.617188 318.691406 53.304688 C 319.109375 52.992188 319.332031 52.523438 319.332031 51.914062 C 319.332031 51.367188 319.136719 50.925781 318.746094 50.613281 C 318.355469 50.300781 317.808594 50.132812 317.105469 50.132812 L 315.996094 50.132812 L 315.996094 49.078125 L 317.15625 49.078125 C 317.78125 49.078125 318.261719 48.960938 318.601562 48.703125 C 318.941406 48.453125 319.109375 48.089844 319.109375 47.609375 C 319.109375 47.128906 318.925781 46.75 318.589844 46.492188 C 318.238281 46.230469 317.742188 46.101562 317.105469 46.101562 C 316.753906 46.101562 316.375 46.140625 315.972656 46.21875 C 315.566406 46.296875 315.125 46.414062 314.644531 46.570312 L 314.644531 45.425781 C 315.125 45.292969 315.582031 45.191406 316.011719 45.125 C 316.425781 45.058594 316.832031 45.019531 317.222656 45.019531 C 318.183594 45.019531 318.953125 45.242188 319.527344 45.683594 C 320.097656 46.125 320.386719 46.722656 320.386719 47.480469 C 320.386719 48 320.230469 48.441406 319.929688 48.804688 C 319.628906 49.167969 319.199219 49.429688 318.652344 49.558594 Z M 318.652344 49.558594 "/>
<path style=" stroke:none;fill-rule:nonzero;fill:rgb(0%,0%,0%);fill-opacity:1;" d="M 323.042969 53.058594 L 324.382812 53.058594 L 324.382812 54.671875 L 323.042969 54.671875 Z M 323.042969 53.058594 "/>
<path style=" stroke:none;fill-rule:nonzero;fill:rgb(0%,0%,0%);fill-opacity:1;" d="M 330.085938 49.417969 C 329.511719 49.417969 329.058594 49.625 328.71875 50.015625 C 328.378906 50.40625 328.210938 50.953125 328.210938 51.628906 C 328.210938 52.316406 328.378906 52.863281 328.71875 53.253906 C 329.058594 53.644531 329.511719 53.839844 330.085938 53.839844 C 330.660156 53.839844 331.113281 53.644531 331.453125 53.253906 C 331.792969 52.863281 331.960938 52.316406 331.960938 51.628906 C 331.960938 50.953125 331.792969 50.40625 331.453125 50.015625 C 331.113281 49.625 330.660156 49.417969 330.085938 49.417969 Z M 332.636719 45.398438 L 332.636719 46.570312 C 332.3125 46.414062 331.988281 46.296875 331.660156 46.21875 C 331.324219 46.140625 330.996094 46.101562 330.683594 46.101562 C 329.824219 46.101562 329.175781 46.386719 328.730469 46.957031 C 328.289062 47.53125 328.027344 48.402344 327.976562 49.546875 C 328.222656 49.183594 328.535156 48.894531 328.914062 48.703125 C 329.292969 48.507812 329.707031 48.402344 330.164062 48.402344 C 331.113281 48.402344 331.871094 48.703125 332.417969 49.273438 C 332.964844 49.847656 333.25 50.640625 333.25 51.628906 C 333.25 52.601562 332.949219 53.382812 332.378906 53.96875 C 331.804688 54.554688 331.035156 54.839844 330.085938 54.839844 C 328.992188 54.839844 328.144531 54.421875 327.574219 53.589844 C 326.988281 52.757812 326.699219 51.535156 326.699219 49.9375 C 326.699219 48.441406 327.050781 47.246094 327.769531 46.359375 C 328.472656 45.476562 329.433594 45.019531 330.632812 45.019531 C 330.945312 45.019531 331.269531 45.058594 331.609375 45.113281 C 331.933594 45.175781 332.273438 45.269531 332.636719 45.398438 Z M 332.636719 45.398438 "/>
<path style=" stroke:none;fill-rule:nonzero;fill:rgb(0%,0%,0%);fill-opacity:1;" d="M 335.476562 45.191406 L 340.515625 45.191406 L 340.515625 46.269531 L 336.648438 46.269531 L 336.648438 48.597656 C 336.832031 48.53125 337.027344 48.480469 337.207031 48.453125 C 337.390625 48.429688 337.585938 48.402344 337.769531 48.402344 C 338.824219 48.402344 339.65625 48.703125 340.28125 49.273438 C 340.90625 49.859375 341.21875 50.640625 341.21875 51.628906 C 341.21875 52.65625 340.894531 53.449219 340.253906 54.007812 C 339.617188 54.566406 338.71875 54.839844 337.574219 54.839844 C 337.167969 54.839844 336.765625 54.800781 336.347656 54.75 C 335.933594 54.683594 335.515625 54.59375 335.074219 54.449219 L 335.074219 53.160156 C 335.449219 53.371094 335.839844 53.527344 336.257812 53.628906 C 336.660156 53.734375 337.089844 53.773438 337.546875 53.773438 C 338.277344 53.773438 338.863281 53.589844 339.292969 53.199219 C 339.707031 52.8125 339.929688 52.289062 339.929688 51.628906 C 339.929688 50.976562 339.707031 50.457031 339.292969 50.066406 C 338.863281 49.675781 338.277344 49.480469 337.546875 49.480469 C 337.207031 49.480469 336.855469 49.519531 336.519531 49.597656 C 336.179688 49.675781 335.828125 49.792969 335.476562 49.949219 Z M 335.476562 45.191406 "/>
<path style=" stroke:none;fill-rule:nonzero;fill:rgb(0%,0%,0%);fill-opacity:1;" d="M 353.261719 48.921875 C 353.550781 48.402344 353.902344 48.023438 354.304688 47.765625 C 354.707031 47.519531 355.191406 47.386719 355.75 47.386719 C 356.480469 47.386719 357.050781 47.648438 357.457031 48.167969 C 357.859375 48.6875 358.066406 49.429688 358.066406 50.378906 L 358.066406 54.671875 L 356.894531 54.671875 L 356.894531 50.417969 C 356.894531 49.742188 356.765625 49.234375 356.53125 48.894531 C 356.285156 48.570312 355.917969 48.402344 355.425781 48.402344 C 354.8125 48.402344 354.332031 48.609375 353.980469 49.011719 C 353.628906 49.417969 353.457031 49.960938 353.457031 50.652344 L 353.457031 54.671875 L 352.285156 54.671875 L 352.285156 50.417969 C 352.285156 49.742188 352.15625 49.234375 351.921875 48.894531 C 351.675781 48.570312 351.296875 48.402344 350.800781 48.402344 C 350.203125 48.402344 349.722656 48.609375 349.371094 49.011719 C 349.019531 49.417969 348.847656 49.960938 348.847656 50.652344 L 348.847656 54.671875 L 347.675781 54.671875 L 347.675781 47.558594 L 348.847656 47.558594 L 348.847656 48.664062 C 349.109375 48.234375 349.433594 47.90625 349.8125 47.699219 C 350.175781 47.492188 350.621094 47.386719 351.140625 47.386719 C 351.660156 47.386719 352.089844 47.519531 352.457031 47.777344 C 352.820312 48.039062 353.082031 48.429688 353.261719 48.921875 Z M 353.261719 48.921875 "/>
</g>
</svg>
