<?xml version="1.0" encoding="UTF-8"?>
<svg xmlns="http://www.w3.org/2000/svg" xmlns:xlink="http://www.w3.org/1999/xlink" width="400px" height="px" viewBox="0 0 400 416" version="1.1">
<defs>
<clipPath id="clip1">
  <path d="M 0 0 L 400 0 L 400 413.503906 L 0 413.503906 Z M 0 0 "/>
</clipPath>
</defs>
<g id="surface1">
<g clip-path="url(#clip1)" clip-rule="nonzero">
<path style=" stroke:none;fill-rule:nonzero;fill:rgb(100%,100%,100%);fill-opacity:1;" d="M -90.789062 413.503906 L 515.527344 413.503906 L 515.527344 -40.3125 L -90.789062 -40.3125 Z M -90.789062 413.503906 "/>
</g>
<path style=" stroke:none;fill-rule:nonzero;fill:rgb(100%,100%,100%);fill-opacity:1;" d="M 44.875 363.585938 L 395.019531 363.585938 L 395.019531 14.144531 L 44.875 14.144531 Z M 44.875 363.585938 "/>
<path style="fill:none;stroke-width:0.8;stroke-linecap:butt;stroke-linejoin:round;stroke:rgb(0%,0%,0%);stroke-opacity:1;stroke-miterlimit:4;" d="M 43.174531 266.984675 L 43.174531 270.482993 " transform="matrix(1.315789,0,0,1.313131,0,13)"/>
<path style=" stroke:none;fill-rule:nonzero;fill:rgb(0%,0%,0%);fill-opacity:1;" d="M 56.808594 374.03125 C 56.136719 374.03125 55.636719 374.359375 55.296875 375.015625 C 54.953125 375.671875 54.796875 376.65625 54.796875 377.96875 C 54.796875 379.28125 54.953125 380.265625 55.296875 380.921875 C 55.636719 381.582031 56.136719 381.910156 56.808594 381.910156 C 57.480469 381.910156 57.980469 381.582031 58.324219 380.921875 C 58.652344 380.265625 58.824219 379.28125 58.824219 377.96875 C 58.824219 376.65625 58.652344 375.671875 58.324219 375.015625 C 57.980469 374.359375 57.480469 374.03125 56.808594 374.03125 Z M 56.808594 373.003906 C 57.875 373.003906 58.691406 373.4375 59.269531 374.277344 C 59.835938 375.132812 60.125 376.367188 60.125 377.96875 C 60.125 379.585938 59.835938 380.820312 59.269531 381.660156 C 58.691406 382.5 57.875 382.917969 56.796875 382.917969 C 55.71875 382.917969 54.902344 382.5 54.335938 381.660156 C 53.769531 380.820312 53.492188 379.585938 53.492188 377.96875 C 53.492188 376.367188 53.769531 375.132812 54.335938 374.277344 C 54.902344 373.4375 55.730469 373.003906 56.808594 373.003906 Z M 56.808594 373.003906 "/>
<path style="fill:none;stroke-width:0.8;stroke-linecap:butt;stroke-linejoin:round;stroke:rgb(0%,0%,0%);stroke-opacity:1;stroke-miterlimit:4;" d="M 106.7325 266.984675 L 106.7325 270.482993 " transform="matrix(1.315789,0,0,1.313131,0,13)"/>
<path style=" stroke:none;fill-rule:nonzero;fill:rgb(0%,0%,0%);fill-opacity:1;" d="M 133.703125 381.660156 L 135.820312 381.660156 L 135.820312 374.359375 L 133.515625 374.816406 L 133.515625 373.636719 L 135.804688 373.175781 L 137.109375 373.175781 L 137.109375 381.660156 L 139.226562 381.660156 L 139.226562 382.75 L 133.703125 382.75 Z M 133.703125 381.660156 "/>
<path style=" stroke:none;fill-rule:nonzero;fill:rgb(0%,0%,0%);fill-opacity:1;" d="M 144.621094 374.03125 C 143.953125 374.03125 143.453125 374.359375 143.109375 375.015625 C 142.765625 375.671875 142.609375 376.65625 142.609375 377.96875 C 142.609375 379.28125 142.765625 380.265625 143.109375 380.921875 C 143.453125 381.582031 143.953125 381.910156 144.621094 381.910156 C 145.292969 381.910156 145.792969 381.582031 146.136719 380.921875 C 146.464844 380.265625 146.636719 379.28125 146.636719 377.96875 C 146.636719 376.65625 146.464844 375.671875 146.136719 375.015625 C 145.792969 374.359375 145.292969 374.03125 144.621094 374.03125 Z M 144.621094 373.003906 C 145.6875 373.003906 146.503906 373.4375 147.082031 374.277344 C 147.648438 375.132812 147.9375 376.367188 147.9375 377.96875 C 147.9375 379.585938 147.648438 380.820312 147.082031 381.660156 C 146.503906 382.5 145.6875 382.917969 144.609375 382.917969 C 143.53125 382.917969 142.714844 382.5 142.148438 381.660156 C 141.582031 380.820312 141.304688 379.585938 141.304688 377.96875 C 141.304688 376.367188 141.582031 375.132812 142.148438 374.277344 C 142.714844 373.4375 143.542969 373.003906 144.621094 373.003906 Z M 144.621094 373.003906 "/>
<path style="fill:none;stroke-width:0.8;stroke-linecap:butt;stroke-linejoin:round;stroke:rgb(0%,0%,0%);stroke-opacity:1;stroke-miterlimit:4;" d="M 170.290469 266.984675 L 170.290469 270.482993 " transform="matrix(1.315789,0,0,1.313131,0,13)"/>
<path style=" stroke:none;fill-rule:nonzero;fill:rgb(0%,0%,0%);fill-opacity:1;" d="M 218.222656 381.660156 L 222.75 381.660156 L 222.75 382.75 L 216.65625 382.75 L 216.65625 381.660156 C 217.144531 381.160156 217.816406 380.476562 218.671875 379.609375 C 219.511719 378.757812 220.050781 378.207031 220.277344 377.957031 C 220.699219 377.496094 220.988281 377.101562 221.144531 376.773438 C 221.300781 376.460938 221.394531 376.128906 221.394531 375.816406 C 221.394531 375.316406 221.210938 374.894531 220.855469 374.582031 C 220.5 374.265625 220.039062 374.09375 219.460938 374.09375 C 219.050781 374.09375 218.617188 374.175781 218.171875 374.304688 C 217.722656 374.449219 217.238281 374.660156 216.722656 374.949219 L 216.722656 373.636719 C 217.25 373.425781 217.738281 373.269531 218.183594 373.164062 C 218.632812 373.058594 219.050781 373.003906 219.433594 373.003906 C 220.421875 373.003906 221.210938 373.253906 221.800781 373.753906 C 222.394531 374.253906 222.699219 374.910156 222.699219 375.738281 C 222.699219 376.128906 222.617188 376.511719 222.472656 376.851562 C 222.328125 377.207031 222.066406 377.628906 221.671875 378.101562 C 221.566406 378.230469 221.222656 378.585938 220.644531 379.175781 C 220.066406 379.769531 219.261719 380.59375 218.222656 381.660156 Z M 218.222656 381.660156 "/>
<path style=" stroke:none;fill-rule:nonzero;fill:rgb(0%,0%,0%);fill-opacity:1;" d="M 228.25 374.03125 C 227.578125 374.03125 227.078125 374.359375 226.738281 375.015625 C 226.394531 375.671875 226.238281 376.65625 226.238281 377.96875 C 226.238281 379.28125 226.394531 380.265625 226.738281 380.921875 C 227.078125 381.582031 227.578125 381.910156 228.25 381.910156 C 228.921875 381.910156 229.421875 381.582031 229.761719 380.921875 C 230.09375 380.265625 230.261719 379.28125 230.261719 377.96875 C 230.261719 376.65625 230.09375 375.671875 229.761719 375.015625 C 229.421875 374.359375 228.921875 374.03125 228.25 374.03125 Z M 228.25 373.003906 C 229.316406 373.003906 230.132812 373.4375 230.710938 374.277344 C 231.277344 375.132812 231.566406 376.367188 231.566406 377.96875 C 231.566406 379.585938 231.277344 380.820312 230.710938 381.660156 C 230.132812 382.5 229.316406 382.917969 228.238281 382.917969 C 227.15625 382.917969 226.34375 382.5 225.777344 381.660156 C 225.210938 380.820312 224.933594 379.585938 224.933594 377.96875 C 224.933594 376.367188 225.210938 375.132812 225.777344 374.277344 C 226.34375 373.4375 227.171875 373.003906 228.25 373.003906 Z M 228.25 373.003906 "/>
<path style="fill:none;stroke-width:0.8;stroke-linecap:butt;stroke-linejoin:round;stroke:rgb(0%,0%,0%);stroke-opacity:1;stroke-miterlimit:4;" d="M 233.848438 266.984675 L 233.848438 270.482993 " transform="matrix(1.315789,0,0,1.313131,0,13)"/>
<path style=" stroke:none;fill-rule:nonzero;fill:rgb(0%,0%,0%);fill-opacity:1;" d="M 304.667969 377.589844 C 305.289062 377.71875 305.773438 377.996094 306.117188 378.414062 C 306.460938 378.835938 306.644531 379.359375 306.644531 379.964844 C 306.644531 380.910156 306.316406 381.644531 305.667969 382.15625 C 305.011719 382.671875 304.089844 382.917969 302.894531 382.917969 C 302.484375 382.917969 302.066406 382.878906 301.644531 382.800781 C 301.222656 382.734375 300.773438 382.617188 300.328125 382.460938 L 300.328125 381.210938 C 300.683594 381.421875 301.078125 381.582031 301.511719 381.683594 C 301.933594 381.789062 302.378906 381.84375 302.855469 381.84375 C 303.667969 381.84375 304.289062 381.683594 304.710938 381.371094 C 305.128906 381.054688 305.355469 380.582031 305.355469 379.964844 C 305.355469 379.414062 305.15625 378.96875 304.761719 378.652344 C 304.367188 378.335938 303.816406 378.167969 303.105469 378.167969 L 301.984375 378.167969 L 301.984375 377.101562 L 303.15625 377.101562 C 303.789062 377.101562 304.273438 376.984375 304.617188 376.722656 C 304.960938 376.472656 305.128906 376.105469 305.128906 375.617188 C 305.128906 375.132812 304.945312 374.75 304.605469 374.488281 C 304.25 374.226562 303.75 374.09375 303.105469 374.09375 C 302.75 374.09375 302.367188 374.132812 301.960938 374.214844 C 301.550781 374.292969 301.105469 374.410156 300.617188 374.566406 L 300.617188 373.414062 C 301.105469 373.28125 301.566406 373.175781 302 373.109375 C 302.417969 373.042969 302.828125 373.003906 303.222656 373.003906 C 304.195312 373.003906 304.972656 373.230469 305.550781 373.675781 C 306.128906 374.121094 306.417969 374.726562 306.417969 375.488281 C 306.417969 376.011719 306.261719 376.460938 305.960938 376.828125 C 305.65625 377.195312 305.222656 377.457031 304.667969 377.589844 Z M 304.667969 377.589844 "/>
<path style=" stroke:none;fill-rule:nonzero;fill:rgb(0%,0%,0%);fill-opacity:1;" d="M 311.878906 374.03125 C 311.210938 374.03125 310.710938 374.359375 310.367188 375.015625 C 310.023438 375.671875 309.867188 376.65625 309.867188 377.96875 C 309.867188 379.28125 310.023438 380.265625 310.367188 380.921875 C 310.710938 381.582031 311.210938 381.910156 311.878906 381.910156 C 312.550781 381.910156 313.050781 381.582031 313.394531 380.921875 C 313.722656 380.265625 313.894531 379.28125 313.894531 377.96875 C 313.894531 376.65625 313.722656 375.671875 313.394531 375.015625 C 313.050781 374.359375 312.550781 374.03125 311.878906 374.03125 Z M 311.878906 373.003906 C 312.945312 373.003906 313.761719 373.4375 314.339844 374.277344 C 314.90625 375.132812 315.195312 376.367188 315.195312 377.96875 C 315.195312 379.585938 314.90625 380.820312 314.339844 381.660156 C 313.761719 382.5 312.945312 382.917969 311.867188 382.917969 C 310.789062 382.917969 309.972656 382.5 309.40625 381.660156 C 308.839844 380.820312 308.566406 379.585938 308.566406 377.96875 C 308.566406 376.367188 308.839844 375.132812 309.40625 374.277344 C 309.972656 373.4375 310.800781 373.003906 311.878906 373.003906 Z M 311.878906 373.003906 "/>
<path style="fill:none;stroke-width:0.8;stroke-linecap:butt;stroke-linejoin:round;stroke:rgb(0%,0%,0%);stroke-opacity:1;stroke-miterlimit:4;" d="M 297.406406 266.984675 L 297.406406 270.482993 " transform="matrix(1.315789,0,0,1.313131,0,13)"/>
<path style=" stroke:none;fill-rule:nonzero;fill:rgb(0%,0%,0%);fill-opacity:1;" d="M 387.929688 374.304688 L 384.652344 379.414062 L 387.929688 379.414062 Z M 387.585938 373.175781 L 389.21875 373.175781 L 389.21875 379.414062 L 390.585938 379.414062 L 390.585938 380.492188 L 389.21875 380.492188 L 389.21875 382.75 L 387.929688 382.75 L 387.929688 380.492188 L 383.601562 380.492188 L 383.601562 379.242188 Z M 387.585938 373.175781 "/>
<path style=" stroke:none;fill-rule:nonzero;fill:rgb(0%,0%,0%);fill-opacity:1;" d="M 395.507812 374.03125 C 394.835938 374.03125 394.335938 374.359375 393.996094 375.015625 C 393.652344 375.671875 393.496094 376.65625 393.496094 377.96875 C 393.496094 379.28125 393.652344 380.265625 393.996094 380.921875 C 394.335938 381.582031 394.835938 381.910156 395.507812 381.910156 C 396.179688 381.910156 396.679688 381.582031 397.019531 380.921875 C 397.351562 380.265625 397.519531 379.28125 397.519531 377.96875 C 397.519531 376.65625 397.351562 375.671875 397.019531 375.015625 C 396.679688 374.359375 396.179688 374.03125 395.507812 374.03125 Z M 395.507812 373.003906 C 396.574219 373.003906 397.390625 373.4375 397.96875 374.277344 C 398.535156 375.132812 398.824219 376.367188 398.824219 377.96875 C 398.824219 379.585938 398.535156 380.820312 397.96875 381.660156 C 397.390625 382.5 396.574219 382.917969 395.496094 382.917969 C 394.414062 382.917969 393.601562 382.5 393.035156 381.660156 C 392.46875 380.820312 392.191406 379.585938 392.191406 377.96875 C 392.191406 376.367188 392.46875 375.132812 393.035156 374.277344 C 393.601562 373.4375 394.429688 373.003906 395.507812 373.003906 Z M 395.507812 373.003906 "/>
<path style=" stroke:none;fill-rule:nonzero;fill:rgb(0%,0%,0%);fill-opacity:1;" d="M 193.101562 391.128906 L 201.207031 391.128906 L 201.207031 392.21875 L 197.796875 392.21875 L 197.796875 400.703125 L 196.496094 400.703125 L 196.496094 392.21875 L 193.101562 392.21875 Z M 193.101562 391.128906 "/>
<path style=" stroke:none;fill-rule:nonzero;fill:rgb(0%,0%,0%);fill-opacity:1;" d="M 202.011719 393.519531 L 203.199219 393.519531 L 203.199219 400.703125 L 202.011719 400.703125 Z M 202.011719 390.722656 L 203.199219 390.722656 L 203.199219 392.21875 L 202.011719 392.21875 Z M 202.011719 390.722656 "/>
<path style=" stroke:none;fill-rule:nonzero;fill:rgb(0%,0%,0%);fill-opacity:1;" d="M 211.277344 394.898438 C 211.566406 394.371094 211.921875 393.992188 212.328125 393.730469 C 212.738281 393.480469 213.222656 393.347656 213.789062 393.347656 C 214.527344 393.347656 215.105469 393.609375 215.511719 394.136719 C 215.921875 394.660156 216.132812 395.410156 216.132812 396.367188 L 216.132812 400.703125 L 214.949219 400.703125 L 214.949219 396.40625 C 214.949219 395.726562 214.816406 395.214844 214.578125 394.871094 C 214.328125 394.542969 213.960938 394.371094 213.460938 394.371094 C 212.84375 394.371094 212.355469 394.582031 212 394.988281 C 211.644531 395.398438 211.472656 395.949219 211.472656 396.644531 L 211.472656 400.703125 L 210.289062 400.703125 L 210.289062 396.40625 C 210.289062 395.726562 210.15625 395.214844 209.921875 394.871094 C 209.671875 394.542969 209.289062 394.371094 208.789062 394.371094 C 208.183594 394.371094 207.699219 394.582031 207.34375 394.988281 C 206.988281 395.398438 206.816406 395.949219 206.816406 396.644531 L 206.816406 400.703125 L 205.632812 400.703125 L 205.632812 393.519531 L 206.816406 393.519531 L 206.816406 394.636719 C 207.078125 394.203125 207.40625 393.875 207.789062 393.664062 C 208.15625 393.453125 208.605469 393.347656 209.132812 393.347656 C 209.65625 393.347656 210.09375 393.480469 210.460938 393.742188 C 210.828125 394.003906 211.09375 394.398438 211.277344 394.898438 Z M 211.277344 394.898438 "/>
<path style=" stroke:none;fill-rule:nonzero;fill:rgb(0%,0%,0%);fill-opacity:1;" d="M 224.644531 396.816406 L 224.644531 397.394531 L 219.210938 397.394531 C 219.261719 398.207031 219.5 398.835938 219.949219 399.257812 C 220.382812 399.679688 220.988281 399.886719 221.777344 399.886719 C 222.222656 399.886719 222.671875 399.835938 223.09375 399.730469 C 223.511719 399.625 223.949219 399.453125 224.367188 399.21875 L 224.367188 400.335938 C 223.949219 400.519531 223.511719 400.664062 223.066406 400.742188 C 222.617188 400.820312 222.15625 400.871094 221.710938 400.871094 C 220.550781 400.871094 219.644531 400.542969 218.972656 399.886719 C 218.300781 399.230469 217.972656 398.324219 217.972656 397.183594 C 217.972656 396.015625 218.289062 395.082031 218.921875 394.386719 C 219.550781 393.703125 220.421875 393.347656 221.5 393.347656 C 222.472656 393.347656 223.238281 393.664062 223.800781 394.28125 C 224.355469 394.910156 224.644531 395.75 224.644531 396.816406 Z M 223.460938 396.472656 C 223.449219 395.832031 223.261719 395.316406 222.921875 394.925781 C 222.566406 394.542969 222.09375 394.347656 221.511719 394.347656 C 220.855469 394.347656 220.328125 394.542969 219.933594 394.910156 C 219.539062 395.277344 219.300781 395.804688 219.25 396.472656 Z M 223.460938 396.472656 "/>
<path style=" stroke:none;fill-rule:nonzero;fill:rgb(0%,0%,0%);fill-opacity:1;" d="M 230.65625 390.722656 L 233.382812 390.722656 L 233.382812 391.640625 L 231.84375 391.640625 L 231.84375 401.503906 L 233.382812 401.503906 L 233.382812 402.421875 L 230.65625 402.421875 Z M 230.65625 390.722656 "/>
<path style=" stroke:none;fill-rule:nonzero;fill:rgb(0%,0%,0%);fill-opacity:1;" d="M 240.488281 393.730469 L 240.488281 394.84375 C 240.144531 394.6875 239.800781 394.554688 239.449219 394.464844 C 239.078125 394.386719 238.710938 394.332031 238.328125 394.332031 C 237.738281 394.332031 237.289062 394.425781 237 394.609375 C 236.710938 394.792969 236.566406 395.054688 236.566406 395.410156 C 236.566406 395.6875 236.671875 395.894531 236.882812 396.054688 C 237.09375 396.210938 237.511719 396.367188 238.144531 396.5 L 238.550781 396.59375 C 239.394531 396.777344 239.988281 397.039062 240.34375 397.355469 C 240.683594 397.683594 240.867188 398.140625 240.867188 398.71875 C 240.867188 399.390625 240.605469 399.914062 240.078125 400.296875 C 239.550781 400.6875 238.816406 400.871094 237.894531 400.871094 C 237.5 400.871094 237.105469 400.832031 236.683594 400.769531 C 236.261719 400.703125 235.828125 400.597656 235.367188 400.4375 L 235.367188 399.21875 C 235.800781 399.453125 236.238281 399.625 236.65625 399.730469 C 237.078125 399.847656 237.5 399.902344 237.921875 399.902344 C 238.472656 399.902344 238.90625 399.808594 239.210938 399.625 C 239.5 399.441406 239.65625 399.164062 239.65625 398.8125 C 239.65625 398.496094 239.539062 398.246094 239.328125 398.074219 C 239.117188 397.90625 238.644531 397.734375 237.90625 397.578125 L 237.5 397.484375 C 236.761719 397.328125 236.222656 397.089844 235.90625 396.777344 C 235.578125 396.460938 235.421875 396.027344 235.421875 395.460938 C 235.421875 394.792969 235.65625 394.269531 236.132812 393.898438 C 236.605469 393.53125 237.289062 393.347656 238.183594 393.347656 C 238.617188 393.347656 239.027344 393.386719 239.421875 393.453125 C 239.800781 393.519531 240.15625 393.609375 240.488281 393.730469 Z M 240.488281 393.730469 "/>
<path style=" stroke:none;fill-rule:nonzero;fill:rgb(0%,0%,0%);fill-opacity:1;" d="M 245.511719 390.722656 L 245.511719 402.421875 L 242.789062 402.421875 L 242.789062 401.503906 L 244.328125 401.503906 L 244.328125 391.640625 L 242.789062 391.640625 L 242.789062 390.722656 Z M 245.511719 390.722656 "/>
<path style="fill:none;stroke-width:0.8;stroke-linecap:butt;stroke-linejoin:round;stroke:rgb(0%,0%,0%);stroke-opacity:1;stroke-miterlimit:4;" d="M 34.105 243.653636 L 30.604844 243.653636 " transform="matrix(1.315789,0,0,1.313131,0,13)"/>
<path style=" stroke:none;fill-rule:nonzero;fill:rgb(0%,0%,0%);fill-opacity:1;" d="M 21.453125 336.847656 L 25.980469 336.847656 L 25.980469 337.9375 L 19.886719 337.9375 L 19.886719 336.847656 C 20.375 336.347656 21.046875 335.664062 21.902344 334.796875 C 22.742188 333.945312 23.28125 333.390625 23.507812 333.144531 C 23.925781 332.683594 24.21875 332.289062 24.375 331.960938 C 24.53125 331.644531 24.625 331.316406 24.625 331.003906 C 24.625 330.503906 24.441406 330.082031 24.085938 329.769531 C 23.730469 329.453125 23.269531 329.28125 22.691406 329.28125 C 22.28125 329.28125 21.847656 329.359375 21.402344 329.492188 C 20.953125 329.636719 20.46875 329.847656 19.953125 330.136719 L 19.953125 328.824219 C 20.480469 328.613281 20.96875 328.453125 21.414062 328.351562 C 21.863281 328.246094 22.28125 328.191406 22.664062 328.191406 C 23.652344 328.191406 24.441406 328.441406 25.03125 328.941406 C 25.625 329.441406 25.925781 330.097656 25.925781 330.921875 C 25.925781 331.316406 25.847656 331.699219 25.703125 332.039062 C 25.558594 332.394531 25.296875 332.8125 24.902344 333.289062 C 24.796875 333.417969 24.453125 333.773438 23.875 334.363281 C 23.296875 334.953125 22.492188 335.78125 21.453125 336.847656 Z M 21.453125 336.847656 "/>
<path style=" stroke:none;fill-rule:nonzero;fill:rgb(0%,0%,0%);fill-opacity:1;" d="M 31.480469 329.214844 C 30.808594 329.214844 30.308594 329.542969 29.96875 330.203125 C 29.625 330.859375 29.46875 331.84375 29.46875 333.15625 C 29.46875 334.46875 29.625 335.453125 29.96875 336.109375 C 30.308594 336.765625 30.808594 337.09375 31.480469 337.09375 C 32.152344 337.09375 32.652344 336.765625 32.992188 336.109375 C 33.324219 335.453125 33.492188 334.46875 33.492188 333.15625 C 33.492188 331.84375 33.324219 330.859375 32.992188 330.203125 C 32.652344 329.542969 32.152344 329.214844 31.480469 329.214844 Z M 31.480469 328.191406 C 32.546875 328.191406 33.363281 328.625 33.941406 329.464844 C 34.507812 330.320312 34.796875 331.554688 34.796875 333.15625 C 34.796875 334.769531 34.507812 336.003906 33.941406 336.847656 C 33.363281 337.6875 32.546875 338.105469 31.46875 338.105469 C 30.386719 338.105469 29.574219 337.6875 29.007812 336.847656 C 28.441406 336.003906 28.164062 334.769531 28.164062 333.15625 C 28.164062 331.554688 28.441406 330.320312 29.007812 329.464844 C 29.574219 328.625 30.402344 328.191406 31.480469 328.191406 Z M 31.480469 328.191406 "/>
<path style="fill:none;stroke-width:0.8;stroke-linecap:butt;stroke-linejoin:round;stroke:rgb(0%,0%,0%);stroke-opacity:1;stroke-miterlimit:4;" d="M 34.105 194.632572 L 30.604844 194.632572 " transform="matrix(1.315789,0,0,1.313131,0,13)"/>
<path style=" stroke:none;fill-rule:nonzero;fill:rgb(0%,0%,0%);fill-opacity:1;" d="M 24.269531 268.402344 C 24.886719 268.535156 25.375 268.8125 25.71875 269.230469 C 26.058594 269.652344 26.242188 270.175781 26.242188 270.78125 C 26.242188 271.726562 25.914062 272.460938 25.269531 272.972656 C 24.613281 273.484375 23.691406 273.734375 22.492188 273.734375 C 22.085938 273.734375 21.664062 273.695312 21.242188 273.617188 C 20.824219 273.550781 20.375 273.433594 19.925781 273.277344 L 19.925781 272.027344 C 20.28125 272.238281 20.675781 272.394531 21.113281 272.5 C 21.53125 272.605469 21.980469 272.660156 22.453125 272.660156 C 23.269531 272.660156 23.886719 272.5 24.308594 272.1875 C 24.730469 271.871094 24.953125 271.398438 24.953125 270.78125 C 24.953125 270.230469 24.757812 269.78125 24.363281 269.46875 C 23.96875 269.152344 23.414062 268.980469 22.703125 268.980469 L 21.585938 268.980469 L 21.585938 267.917969 L 22.757812 267.917969 C 23.386719 267.917969 23.875 267.800781 24.21875 267.539062 C 24.558594 267.289062 24.730469 266.921875 24.730469 266.433594 C 24.730469 265.949219 24.546875 265.566406 24.203125 265.304688 C 23.847656 265.042969 23.347656 264.910156 22.703125 264.910156 C 22.347656 264.910156 21.96875 264.949219 21.558594 265.027344 C 21.152344 265.109375 20.703125 265.226562 20.21875 265.382812 L 20.21875 264.226562 C 20.703125 264.097656 21.164062 263.992188 21.597656 263.925781 C 22.019531 263.859375 22.425781 263.820312 22.824219 263.820312 C 23.796875 263.820312 24.574219 264.042969 25.152344 264.492188 C 25.730469 264.9375 26.019531 265.542969 26.019531 266.304688 C 26.019531 266.828125 25.863281 267.273438 25.558594 267.640625 C 25.257812 268.011719 24.824219 268.273438 24.269531 268.402344 Z M 24.269531 268.402344 "/>
<path style=" stroke:none;fill-rule:nonzero;fill:rgb(0%,0%,0%);fill-opacity:1;" d="M 31.480469 264.84375 C 30.808594 264.84375 30.308594 265.171875 29.96875 265.832031 C 29.625 266.488281 29.46875 267.472656 29.46875 268.785156 C 29.46875 270.097656 29.625 271.082031 29.96875 271.738281 C 30.308594 272.394531 30.808594 272.722656 31.480469 272.722656 C 32.152344 272.722656 32.652344 272.394531 32.992188 271.738281 C 33.324219 271.082031 33.492188 270.097656 33.492188 268.785156 C 33.492188 267.472656 33.324219 266.488281 32.992188 265.832031 C 32.652344 265.171875 32.152344 264.84375 31.480469 264.84375 Z M 31.480469 263.820312 C 32.546875 263.820312 33.363281 264.253906 33.941406 265.09375 C 34.507812 265.949219 34.796875 267.183594 34.796875 268.785156 C 34.796875 270.398438 34.507812 271.632812 33.941406 272.476562 C 33.363281 273.316406 32.546875 273.734375 31.46875 273.734375 C 30.386719 273.734375 29.574219 273.316406 29.007812 272.476562 C 28.441406 271.632812 28.164062 270.398438 28.164062 268.785156 C 28.164062 267.183594 28.441406 265.949219 29.007812 265.09375 C 29.574219 264.253906 30.402344 263.820312 31.480469 263.820312 Z M 31.480469 263.820312 "/>
<path style="fill:none;stroke-width:0.8;stroke-linecap:butt;stroke-linejoin:round;stroke:rgb(0%,0%,0%);stroke-opacity:1;stroke-miterlimit:4;" d="M 34.105 145.608534 L 30.604844 145.608534 " transform="matrix(1.315789,0,0,1.313131,0,13)"/>
<path style=" stroke:none;fill-rule:nonzero;fill:rgb(0%,0%,0%);fill-opacity:1;" d="M 23.902344 200.746094 L 20.625 205.855469 L 23.902344 205.855469 Z M 23.558594 199.617188 L 25.191406 199.617188 L 25.191406 205.855469 L 26.558594 205.855469 L 26.558594 206.933594 L 25.191406 206.933594 L 25.191406 209.191406 L 23.902344 209.191406 L 23.902344 206.933594 L 19.574219 206.933594 L 19.574219 205.683594 Z M 23.558594 199.617188 "/>
<path style=" stroke:none;fill-rule:nonzero;fill:rgb(0%,0%,0%);fill-opacity:1;" d="M 31.480469 200.472656 C 30.808594 200.472656 30.308594 200.800781 29.96875 201.457031 C 29.625 202.113281 29.46875 203.097656 29.46875 204.410156 C 29.46875 205.722656 29.625 206.710938 29.96875 207.367188 C 30.308594 208.023438 30.808594 208.351562 31.480469 208.351562 C 32.152344 208.351562 32.652344 208.023438 32.992188 207.367188 C 33.324219 206.710938 33.492188 205.722656 33.492188 204.410156 C 33.492188 203.097656 33.324219 202.113281 32.992188 201.457031 C 32.652344 200.800781 32.152344 200.472656 31.480469 200.472656 Z M 31.480469 199.449219 C 32.546875 199.449219 33.363281 199.882812 33.941406 200.722656 C 34.507812 201.574219 34.796875 202.808594 34.796875 204.410156 C 34.796875 206.027344 34.507812 207.261719 33.941406 208.101562 C 33.363281 208.941406 32.546875 209.363281 31.46875 209.363281 C 30.386719 209.363281 29.574219 208.941406 29.007812 208.101562 C 28.441406 207.261719 28.164062 206.027344 28.164062 204.410156 C 28.164062 202.808594 28.441406 201.574219 29.007812 200.722656 C 29.574219 199.882812 30.402344 199.449219 31.480469 199.449219 Z M 31.480469 199.449219 "/>
<path style="fill:none;stroke-width:0.8;stroke-linecap:butt;stroke-linejoin:round;stroke:rgb(0%,0%,0%);stroke-opacity:1;stroke-miterlimit:4;" d="M 34.105 96.58747 L 30.604844 96.58747 " transform="matrix(1.315789,0,0,1.313131,0,13)"/>
<path style=" stroke:none;fill-rule:nonzero;fill:rgb(0%,0%,0%);fill-opacity:1;" d="M 20.347656 135.246094 L 25.441406 135.246094 L 25.441406 136.335938 L 21.53125 136.335938 L 21.53125 138.6875 C 21.71875 138.621094 21.914062 138.566406 22.097656 138.542969 C 22.28125 138.515625 22.480469 138.488281 22.664062 138.488281 C 23.730469 138.488281 24.574219 138.792969 25.203125 139.371094 C 25.835938 139.960938 26.152344 140.746094 26.152344 141.746094 C 26.152344 142.785156 25.824219 143.585938 25.175781 144.148438 C 24.53125 144.714844 23.625 144.988281 22.46875 144.988281 C 22.058594 144.988281 21.652344 144.949219 21.230469 144.898438 C 20.808594 144.832031 20.386719 144.738281 19.941406 144.59375 L 19.941406 143.296875 C 20.324219 143.503906 20.71875 143.664062 21.136719 143.769531 C 21.546875 143.875 21.980469 143.914062 22.441406 143.914062 C 23.175781 143.914062 23.769531 143.730469 24.203125 143.335938 C 24.625 142.941406 24.847656 142.414062 24.847656 141.746094 C 24.847656 141.089844 24.625 140.5625 24.203125 140.171875 C 23.769531 139.777344 23.175781 139.578125 22.441406 139.578125 C 22.097656 139.578125 21.742188 139.617188 21.402344 139.699219 C 21.058594 139.777344 20.703125 139.894531 20.347656 140.050781 Z M 20.347656 135.246094 "/>
<path style=" stroke:none;fill-rule:nonzero;fill:rgb(0%,0%,0%);fill-opacity:1;" d="M 31.480469 136.097656 C 30.808594 136.097656 30.308594 136.429688 29.96875 137.085938 C 29.625 137.742188 29.46875 138.726562 29.46875 140.039062 C 29.46875 141.351562 29.625 142.335938 29.96875 142.992188 C 30.308594 143.648438 30.808594 143.976562 31.480469 143.976562 C 32.152344 143.976562 32.652344 143.648438 32.992188 142.992188 C 33.324219 142.335938 33.492188 141.351562 33.492188 140.039062 C 33.492188 138.726562 33.324219 137.742188 32.992188 137.085938 C 32.652344 136.429688 32.152344 136.097656 31.480469 136.097656 Z M 31.480469 135.074219 C 32.546875 135.074219 33.363281 135.507812 33.941406 136.347656 C 34.507812 137.203125 34.796875 138.4375 34.796875 140.039062 C 34.796875 141.652344 34.507812 142.886719 33.941406 143.730469 C 33.363281 144.570312 32.546875 144.988281 31.46875 144.988281 C 30.386719 144.988281 29.574219 144.570312 29.007812 143.730469 C 28.441406 142.886719 28.164062 141.652344 28.164062 140.039062 C 28.164062 138.4375 28.441406 137.203125 29.007812 136.347656 C 29.574219 135.507812 30.402344 135.074219 31.480469 135.074219 Z M 31.480469 135.074219 "/>
<path style="fill:none;stroke-width:0.8;stroke-linecap:butt;stroke-linejoin:round;stroke:rgb(0%,0%,0%);stroke-opacity:1;stroke-miterlimit:4;" d="M 34.105 47.566406 L 30.604844 47.566406 " transform="matrix(1.315789,0,0,1.313131,0,13)"/>
<path style=" stroke:none;fill-rule:nonzero;fill:rgb(0%,0%,0%);fill-opacity:1;" d="M 23.269531 75.140625 C 22.691406 75.140625 22.230469 75.351562 21.886719 75.746094 C 21.546875 76.140625 21.375 76.691406 21.375 77.375 C 21.375 78.070312 21.546875 78.621094 21.886719 79.015625 C 22.230469 79.410156 22.691406 79.605469 23.269531 79.605469 C 23.847656 79.605469 24.308594 79.410156 24.652344 79.015625 C 24.992188 78.621094 25.164062 78.070312 25.164062 77.375 C 25.164062 76.691406 24.992188 76.140625 24.652344 75.746094 C 24.308594 75.351562 23.847656 75.140625 23.269531 75.140625 Z M 25.847656 71.082031 L 25.847656 72.265625 C 25.519531 72.109375 25.191406 71.988281 24.863281 71.910156 C 24.519531 71.832031 24.191406 71.792969 23.875 71.792969 C 23.007812 71.792969 22.347656 72.082031 21.902344 72.660156 C 21.453125 73.238281 21.191406 74.117188 21.136719 75.273438 C 21.386719 74.90625 21.703125 74.617188 22.085938 74.417969 C 22.46875 74.222656 22.886719 74.117188 23.347656 74.117188 C 24.308594 74.117188 25.074219 74.417969 25.625 74.996094 C 26.175781 75.574219 26.46875 76.375 26.46875 77.375 C 26.46875 78.359375 26.164062 79.144531 25.585938 79.738281 C 25.007812 80.328125 24.230469 80.617188 23.269531 80.617188 C 22.164062 80.617188 21.308594 80.195312 20.730469 79.355469 C 20.136719 78.515625 19.847656 77.28125 19.847656 75.667969 C 19.847656 74.15625 20.203125 72.949219 20.925781 72.054688 C 21.636719 71.164062 22.613281 70.703125 23.824219 70.703125 C 24.136719 70.703125 24.46875 70.742188 24.808594 70.792969 C 25.136719 70.859375 25.480469 70.953125 25.847656 71.082031 Z M 25.847656 71.082031 "/>
<path style=" stroke:none;fill-rule:nonzero;fill:rgb(0%,0%,0%);fill-opacity:1;" d="M 31.480469 71.726562 C 30.808594 71.726562 30.308594 72.054688 29.96875 72.710938 C 29.625 73.367188 29.46875 74.351562 29.46875 75.667969 C 29.46875 76.980469 29.625 77.964844 29.96875 78.621094 C 30.308594 79.277344 30.808594 79.605469 31.480469 79.605469 C 32.152344 79.605469 32.652344 79.277344 32.992188 78.621094 C 33.324219 77.964844 33.492188 76.980469 33.492188 75.667969 C 33.492188 74.351562 33.324219 73.367188 32.992188 72.710938 C 32.652344 72.054688 32.152344 71.726562 31.480469 71.726562 Z M 31.480469 70.703125 C 32.546875 70.703125 33.363281 71.136719 33.941406 71.976562 C 34.507812 72.832031 34.796875 74.066406 34.796875 75.667969 C 34.796875 77.28125 34.507812 78.515625 33.941406 79.355469 C 33.363281 80.195312 32.546875 80.617188 31.46875 80.617188 C 30.386719 80.617188 29.574219 80.195312 29.007812 79.355469 C 28.441406 78.515625 28.164062 77.28125 28.164062 75.667969 C 28.164062 74.066406 28.441406 72.832031 29.007812 71.976562 C 29.574219 71.136719 30.402344 70.703125 31.480469 70.703125 Z M 31.480469 70.703125 "/>
<path style=" stroke:none;fill-rule:nonzero;fill:rgb(0%,0%,0%);fill-opacity:1;" d="M 2.402344 228.625 L 9.863281 228.625 L 9.863281 227.0625 C 9.863281 225.75 9.574219 224.777344 8.96875 224.160156 C 8.363281 223.558594 7.417969 223.242188 6.128906 223.242188 C 4.839844 223.242188 3.902344 223.558594 3.296875 224.160156 C 2.707031 224.777344 2.402344 225.75 2.402344 227.0625 Z M 1.339844 229.925781 L 1.339844 227.261719 C 1.339844 225.410156 1.734375 224.042969 2.496094 223.175781 C 3.273438 222.308594 4.484375 221.878906 6.128906 221.878906 C 7.785156 221.878906 8.996094 222.324219 9.773438 223.191406 C 10.546875 224.058594 10.929688 225.421875 10.929688 227.261719 L 10.929688 229.925781 Z M 1.339844 229.925781 "/>
<path style=" stroke:none;fill-rule:nonzero;fill:rgb(0%,0%,0%);fill-opacity:1;" d="M 3.734375 219.867188 L 3.734375 218.6875 L 10.929688 218.6875 L 10.929688 219.867188 Z M 0.929688 219.867188 L 0.929688 218.6875 L 2.429688 218.6875 L 2.429688 219.867188 Z M 0.929688 219.867188 "/>
<path style=" stroke:none;fill-rule:nonzero;fill:rgb(0%,0%,0%);fill-opacity:1;" d="M 3.945312 211.632812 L 5.0625 211.632812 C 4.902344 211.976562 4.773438 212.316406 4.679688 212.671875 C 4.601562 213.039062 4.546875 213.40625 4.546875 213.789062 C 4.546875 214.378906 4.640625 214.824219 4.824219 215.113281 C 5.007812 215.402344 5.273438 215.546875 5.628906 215.546875 C 5.902344 215.546875 6.113281 215.441406 6.273438 215.234375 C 6.429688 215.023438 6.589844 214.601562 6.71875 213.972656 L 6.8125 213.566406 C 6.996094 212.726562 7.257812 212.132812 7.574219 211.777344 C 7.902344 211.4375 8.363281 211.253906 8.945312 211.253906 C 9.613281 211.253906 10.140625 211.515625 10.523438 212.042969 C 10.917969 212.566406 11.101562 213.300781 11.101562 214.222656 C 11.101562 214.617188 11.0625 215.007812 10.996094 215.429688 C 10.929688 215.851562 10.824219 216.285156 10.667969 216.742188 L 9.445312 216.742188 C 9.679688 216.308594 9.851562 215.875 9.957031 215.457031 C 10.074219 215.035156 10.128906 214.617188 10.128906 214.195312 C 10.128906 213.644531 10.035156 213.210938 9.851562 212.910156 C 9.667969 212.621094 9.390625 212.460938 9.035156 212.460938 C 8.71875 212.460938 8.46875 212.582031 8.296875 212.789062 C 8.128906 213 7.957031 213.472656 7.796875 214.207031 L 7.707031 214.617188 C 7.546875 215.351562 7.3125 215.890625 6.996094 216.203125 C 6.679688 216.53125 6.246094 216.691406 5.679688 216.691406 C 5.007812 216.691406 4.484375 216.453125 4.113281 215.980469 C 3.746094 215.507812 3.5625 214.824219 3.5625 213.933594 C 3.5625 213.5 3.601562 213.09375 3.667969 212.699219 C 3.734375 212.316406 3.824219 211.964844 3.945312 211.632812 Z M 3.945312 211.632812 "/>
<path style=" stroke:none;fill-rule:nonzero;fill:rgb(0%,0%,0%);fill-opacity:1;" d="M 1.695312 208.207031 L 3.734375 208.207031 L 3.734375 205.777344 L 4.652344 205.777344 L 4.652344 208.207031 L 8.5625 208.207031 C 9.152344 208.207031 9.535156 208.128906 9.695312 207.972656 C 9.863281 207.8125 9.945312 207.484375 9.945312 206.984375 L 9.945312 205.777344 L 10.929688 205.777344 L 10.929688 206.984375 C 10.929688 207.90625 10.757812 208.535156 10.417969 208.878906 C 10.074219 209.21875 9.457031 209.390625 8.5625 209.390625 L 4.652344 209.390625 L 4.652344 210.257812 L 3.734375 210.257812 L 3.734375 209.390625 L 1.695312 209.390625 Z M 1.695312 208.207031 "/>
<path style=" stroke:none;fill-rule:nonzero;fill:rgb(0%,0%,0%);fill-opacity:1;" d="M 7.3125 200.960938 C 7.3125 201.917969 7.429688 202.574219 7.640625 202.941406 C 7.863281 203.308594 8.234375 203.492188 8.757812 203.492188 C 9.179688 203.492188 9.523438 203.363281 9.757812 203.085938 C 10.007812 202.808594 10.128906 202.429688 10.128906 201.957031 C 10.128906 201.300781 9.902344 200.773438 9.429688 200.382812 C 8.96875 199.988281 8.351562 199.789062 7.574219 199.789062 L 7.3125 199.789062 Z M 6.824219 198.609375 L 10.929688 198.609375 L 10.929688 199.789062 L 9.839844 199.789062 C 10.285156 200.066406 10.601562 200.40625 10.796875 200.800781 C 10.996094 201.195312 11.101562 201.695312 11.101562 202.273438 C 11.101562 203.007812 10.902344 203.597656 10.496094 204.03125 C 10.089844 204.464844 9.535156 204.675781 8.839844 204.675781 C 8.035156 204.675781 7.429688 204.414062 7.007812 203.859375 C 6.601562 203.324219 6.390625 202.523438 6.390625 201.445312 L 6.390625 199.789062 L 6.273438 199.789062 C 5.734375 199.789062 5.3125 199.972656 5.007812 200.328125 C 4.71875 200.683594 4.5625 201.183594 4.5625 201.824219 C 4.5625 202.246094 4.613281 202.640625 4.71875 203.035156 C 4.824219 203.425781 4.96875 203.796875 5.152344 204.148438 L 4.0625 204.148438 C 3.902344 203.730469 3.773438 203.308594 3.695312 202.902344 C 3.613281 202.496094 3.5625 202.101562 3.5625 201.707031 C 3.5625 200.671875 3.839844 199.894531 4.378906 199.382812 C 4.917969 198.871094 5.734375 198.609375 6.824219 198.609375 Z M 6.824219 198.609375 "/>
<path style=" stroke:none;fill-rule:nonzero;fill:rgb(0%,0%,0%);fill-opacity:1;" d="M 6.589844 190.203125 L 10.929688 190.203125 L 10.929688 191.386719 L 6.628906 191.386719 C 5.945312 191.386719 5.445312 191.53125 5.101562 191.792969 C 4.757812 192.054688 4.589844 192.449219 4.589844 192.976562 C 4.589844 193.617188 4.796875 194.117188 5.207031 194.484375 C 5.613281 194.851562 6.167969 195.035156 6.863281 195.035156 L 10.929688 195.035156 L 10.929688 196.21875 L 3.734375 196.21875 L 3.734375 195.035156 L 4.851562 195.035156 C 4.429688 194.761719 4.101562 194.433594 3.890625 194.039062 C 3.679688 193.65625 3.5625 193.210938 3.5625 192.710938 C 3.5625 191.898438 3.824219 191.269531 4.339844 190.847656 C 4.851562 190.425781 5.601562 190.203125 6.589844 190.203125 Z M 6.589844 190.203125 "/>
<path style=" stroke:none;fill-rule:nonzero;fill:rgb(0%,0%,0%);fill-opacity:1;" d="M 4.007812 182.679688 L 5.113281 182.679688 C 4.929688 183.023438 4.796875 183.351562 4.707031 183.691406 C 4.613281 184.03125 4.5625 184.359375 4.5625 184.703125 C 4.5625 185.464844 4.8125 186.066406 5.296875 186.488281 C 5.785156 186.910156 6.46875 187.117188 7.339844 187.117188 C 8.21875 187.117188 8.902344 186.910156 9.390625 186.488281 C 9.878906 186.066406 10.113281 185.464844 10.113281 184.703125 C 10.113281 184.359375 10.074219 184.03125 9.984375 183.691406 C 9.890625 183.351562 9.746094 183.023438 9.5625 182.679688 L 10.652344 182.679688 C 10.8125 183.023438 10.929688 183.363281 10.996094 183.703125 C 11.0625 184.058594 11.101562 184.441406 11.101562 184.832031 C 11.101562 185.910156 10.773438 186.777344 10.089844 187.40625 C 9.417969 188.050781 8.496094 188.367188 7.339844 188.367188 C 6.167969 188.367188 5.246094 188.050781 4.574219 187.40625 C 3.902344 186.765625 3.5625 185.882812 3.5625 184.753906 C 3.5625 184.386719 3.601562 184.03125 3.679688 183.691406 C 3.757812 183.351562 3.863281 183.007812 4.007812 182.679688 Z M 4.007812 182.679688 "/>
<path style=" stroke:none;fill-rule:nonzero;fill:rgb(0%,0%,0%);fill-opacity:1;" d="M 7.035156 174.484375 L 7.613281 174.484375 L 7.613281 179.910156 C 8.429688 179.855469 9.0625 179.621094 9.484375 179.175781 C 9.902344 178.742188 10.113281 178.136719 10.113281 177.347656 C 10.113281 176.902344 10.0625 176.457031 9.957031 176.035156 C 9.851562 175.617188 9.679688 175.183594 9.445312 174.761719 L 10.5625 174.761719 C 10.746094 175.183594 10.890625 175.617188 10.96875 176.0625 C 11.046875 176.507812 11.101562 176.96875 11.101562 177.414062 C 11.101562 178.570312 10.773438 179.476562 10.113281 180.144531 C 9.457031 180.816406 8.546875 181.144531 7.402344 181.144531 C 6.234375 181.144531 5.296875 180.828125 4.601562 180.199219 C 3.917969 179.566406 3.5625 178.703125 3.5625 177.625 C 3.5625 176.652344 3.878906 175.890625 4.496094 175.328125 C 5.128906 174.773438 5.96875 174.484375 7.035156 174.484375 Z M 6.695312 175.667969 C 6.046875 175.679688 5.535156 175.863281 5.140625 176.207031 C 4.757812 176.5625 4.5625 177.035156 4.5625 177.613281 C 4.5625 178.269531 4.757812 178.792969 5.128906 179.1875 C 5.496094 179.582031 6.023438 179.816406 6.695312 179.871094 Z M 6.695312 175.667969 "/>
<path style=" stroke:none;fill-rule:nonzero;fill:rgb(0%,0%,0%);fill-opacity:1;" d="M 0.929688 168.484375 L 0.929688 165.765625 L 1.851562 165.765625 L 1.851562 167.304688 L 11.734375 167.304688 L 11.734375 165.765625 L 12.652344 165.765625 L 12.652344 168.484375 Z M 0.929688 168.484375 "/>
<path style=" stroke:none;fill-rule:nonzero;fill:rgb(0%,0%,0%);fill-opacity:1;" d="M 5.113281 157.664062 C 4.589844 157.375 4.207031 157.023438 3.945312 156.613281 C 3.695312 156.207031 3.5625 155.722656 3.5625 155.15625 C 3.5625 154.421875 3.824219 153.84375 4.351562 153.4375 C 4.878906 153.03125 5.628906 152.820312 6.589844 152.820312 L 10.929688 152.820312 L 10.929688 154 L 6.628906 154 C 5.945312 154 5.429688 154.132812 5.089844 154.367188 C 4.757812 154.617188 4.589844 154.984375 4.589844 155.484375 C 4.589844 156.101562 4.796875 156.589844 5.207031 156.941406 C 5.613281 157.296875 6.167969 157.46875 6.863281 157.46875 L 10.929688 157.46875 L 10.929688 158.648438 L 6.628906 158.648438 C 5.945312 158.648438 5.429688 158.78125 5.089844 159.015625 C 4.757812 159.265625 4.589844 159.648438 4.589844 160.148438 C 4.589844 160.75 4.796875 161.238281 5.207031 161.589844 C 5.613281 161.945312 6.167969 162.117188 6.863281 162.117188 L 10.929688 162.117188 L 10.929688 163.296875 L 3.734375 163.296875 L 3.734375 162.117188 L 4.851562 162.117188 C 4.417969 161.855469 4.089844 161.527344 3.878906 161.144531 C 3.667969 160.777344 3.5625 160.332031 3.5625 159.804688 C 3.5625 159.28125 3.695312 158.847656 3.957031 158.480469 C 4.21875 158.113281 4.613281 157.847656 5.113281 157.664062 Z M 5.113281 157.664062 "/>
<path style=" stroke:none;fill-rule:nonzero;fill:rgb(0%,0%,0%);fill-opacity:1;" d="M 0.929688 147.710938 L 12.652344 147.710938 L 12.652344 150.429688 L 11.734375 150.429688 L 11.734375 148.894531 L 1.851562 148.894531 L 1.851562 150.429688 L 0.929688 150.429688 Z M 0.929688 147.710938 "/>
<path style="fill:none;stroke-width:2.5;stroke-linecap:square;stroke-linejoin:round;stroke:rgb(0%,0%,100%);stroke-opacity:1;stroke-miterlimit:4;" d="M 46.199688 12.966977 L 46.974531 13.282302 L 47.776094 13.838582 L 48.740938 14.90652 L 49.892813 16.45637 L 53.078281 21.983474 L 54.595313 24.990956 L 56.109375 28.1561 L 57.139531 30.339573 L 58.398281 33.132873 L 59.567969 35.691166 L 60.048906 36.836448 L 60.494219 37.699129 L 60.690156 38.273257 L 62.851406 43.205409 L 71.624063 63.600361 L 72.900625 66.57512 L 73.185625 67.170072 L 74.153438 69.54988 L 97.185 123.181821 L 97.645156 123.99393 L 97.936094 124.80009 L 104.544531 137.835487 L 104.826563 138.320373 L 105.194688 139.049189 L 107.210469 142.928275 L 108.994688 146.322476 L 109.63 147.539153 L 110.410781 148.99976 L 110.921406 149.978456 L 113.444844 154.892758 L 113.836719 155.636448 L 116.247344 160.363341 L 116.63625 161.112981 L 128.318281 183.941286 L 128.591406 184.426172 L 129.087188 185.392969 L 129.740313 186.600721 L 129.829375 186.838702 L 130.046094 187.079657 L 130.230156 187.561569 L 131.26625 189.477314 L 132.118281 191.143179 L 135.835156 197.922656 L 136.330938 198.841857 L 137.099844 200.213221 L 137.601563 201.117548 L 137.886563 201.569712 L 138.242813 202.244982 L 142.179375 209.072055 L 143.182813 210.779567 L 143.99625 212.04979 L 144.212969 212.472206 L 145.35 214.343329 L 146.118906 215.57488 L 154.363125 228.000451 L 155.256719 229.226052 L 155.957344 230.085757 L 161.117031 236.621304 L 161.568281 237.058594 L 162.764688 238.480529 L 165.32375 241.12509 L 169.132656 244.557963 L 171.293906 246.194081 L 172.056875 246.714663 L 174.325 248.094952 L 178.537656 249.879808 L 180.820625 250.436088 L 182.70875 250.641346 L 186.407813 250.5878 L 191.885156 250.578876 L 193.779219 250.796034 L 196.189844 251.364213 L 198.374844 252.13765 L 199.874063 252.792097 L 203.840313 254.338972 L 204.980313 254.615625 L 206.764531 254.859555 L 208.545781 254.844681 L 210.300313 254.523407 L 211.823281 253.984976 L 213.159219 253.363251 L 214.245781 252.685006 L 218.586094 249.255108 L 221.13625 246.753335 L 222.145625 245.679447 L 223.7725 243.84997 L 225.6725 241.630799 L 227.851563 238.983263 L 229.932656 236.359525 L 230.523438 235.514694 L 231.859375 233.789333 L 238.18875 224.472386 L 238.779531 223.478816 L 239.682031 222.06878 L 244.016406 214.976953 L 244.607188 213.90009 L 244.918906 213.465775 L 245.153438 213.03146 L 245.376094 212.814303 L 245.586875 212.377013 L 247.786719 208.396785 L 249.075156 206.150841 L 254.974063 195.486328 L 255.303594 194.775361 L 261.532031 182.923918 L 263.826875 178.470703 L 264.984688 176.22476 L 265.370625 175.47512 L 272.750938 160.729237 L 273.119063 159.955799 L 273.487188 159.179387 L 273.825625 158.661779 L 276.399531 153.209044 L 276.622188 152.95024 L 276.922031 152.167879 L 277.670156 150.60018 L 278.952656 147.982392 L 280.211406 145.352704 L 282.633906 140.340234 L 283.524531 138.483984 L 283.910469 137.689724 L 285.932188 133.432843 L 287.336406 130.496755 L 287.609531 129.964273 L 288.120156 128.893359 " transform="matrix(1.315789,0,0,1.313131,0,13)"/>
<path style="fill-rule:nonzero;fill:rgb(100%,64.705882%,0%);fill-opacity:1;stroke-width:2.5;stroke-linecap:butt;stroke-linejoin:round;stroke:rgb(100%,64.705882%,0%);stroke-opacity:1;stroke-miterlimit:4;" d="M 204.51125 257.878936 L 210.511094 251.878846 M 204.51125 251.878846 L 210.511094 257.878936 " transform="matrix(1.315789,0,0,1.313131,0,13)"/>
<path style="fill:none;stroke-width:0.8;stroke-linecap:square;stroke-linejoin:miter;stroke:rgb(0%,0%,0%);stroke-opacity:1;stroke-miterlimit:10;" d="M 34.105 266.984675 L 34.105 0.871605 M 300.214844 266.984675 L 300.214844 0.871605 M 34.105 266.984675 L 300.214844 266.984675 M 34.105 0.871605 L 300.214844 0.871605 " transform="matrix(1.315789,0,0,1.313131,0,13)"/>
<path style="fill-rule:nonzero;fill:rgb(100%,100%,100%);fill-opacity:0.8;stroke-width:1;stroke-linecap:butt;stroke-linejoin:miter;stroke:rgb(83.529412%,83.921569%,83.529412%);stroke-opacity:0.8;stroke-miterlimit:10;" d="M 115.965313 38.216737 L 293.214531 38.216737 C 294.550469 38.216737 295.215469 37.550391 295.215469 36.214724 L 295.215469 7.871214 C 295.215469 6.538522 294.550469 5.872175 293.214531 5.872175 L 115.965313 5.872175 C 114.632344 5.872175 113.967344 6.538522 113.967344 7.871214 L 113.967344 36.214724 C 113.967344 37.550391 114.632344 38.216737 115.965313 38.216737 Z M 115.965313 38.216737 " transform="matrix(1.315789,0,0,1.313131,0,13)"/>
<path style="fill:none;stroke-width:2.5;stroke-linecap:square;stroke-linejoin:round;stroke:rgb(0%,0%,100%);stroke-opacity:1;stroke-miterlimit:4;" d="M 117.96625 13.966496 L 137.966719 13.966496 " transform="matrix(1.315789,0,0,1.313131,0,13)"/>
<path style=" stroke:none;fill-rule:nonzero;fill:rgb(0%,0%,0%);fill-opacity:1;" d="M 194.652344 27.425781 L 194.652344 34.871094 L 196.21875 34.871094 C 197.535156 34.871094 198.507812 34.582031 199.125 33.980469 C 199.730469 33.375 200.046875 32.429688 200.046875 31.140625 C 200.046875 29.855469 199.730469 28.921875 199.125 28.320312 C 198.507812 27.726562 197.535156 27.425781 196.21875 27.425781 Z M 193.351562 26.363281 L 196.019531 26.363281 C 197.875 26.363281 199.246094 26.757812 200.113281 27.519531 C 200.980469 28.292969 201.414062 29.5 201.414062 31.140625 C 201.414062 32.796875 200.96875 34.003906 200.101562 34.78125 C 199.230469 35.554688 197.863281 35.933594 196.019531 35.933594 L 193.351562 35.933594 Z M 193.351562 26.363281 "/>
<path style=" stroke:none;fill-rule:nonzero;fill:rgb(0%,0%,0%);fill-opacity:1;" d="M 203.429688 28.753906 L 204.613281 28.753906 L 204.613281 35.933594 L 203.429688 35.933594 Z M 203.429688 25.957031 L 204.613281 25.957031 L 204.613281 27.453125 L 203.429688 27.453125 Z M 203.429688 25.957031 "/>
<path style=" stroke:none;fill-rule:nonzero;fill:rgb(0%,0%,0%);fill-opacity:1;" d="M 211.679688 28.960938 L 211.679688 30.078125 C 211.335938 29.921875 210.996094 29.789062 210.640625 29.699219 C 210.269531 29.617188 209.902344 29.566406 209.519531 29.566406 C 208.929688 29.566406 208.480469 29.660156 208.191406 29.84375 C 207.902344 30.027344 207.757812 30.289062 207.757812 30.644531 C 207.757812 30.917969 207.863281 31.128906 208.074219 31.285156 C 208.285156 31.445312 208.707031 31.601562 209.335938 31.734375 L 209.746094 31.824219 C 210.585938 32.007812 211.179688 32.273438 211.535156 32.585938 C 211.875 32.914062 212.058594 33.375 212.058594 33.953125 C 212.058594 34.621094 211.796875 35.148438 211.269531 35.527344 C 210.746094 35.921875 210.007812 36.105469 209.085938 36.105469 C 208.691406 36.105469 208.296875 36.066406 207.875 36 C 207.457031 35.933594 207.019531 35.832031 206.558594 35.671875 L 206.558594 34.453125 C 206.996094 34.6875 207.429688 34.859375 207.851562 34.964844 C 208.269531 35.082031 208.691406 35.132812 209.113281 35.132812 C 209.664062 35.132812 210.101562 35.042969 210.402344 34.859375 C 210.691406 34.675781 210.851562 34.398438 210.851562 34.042969 C 210.851562 33.730469 210.730469 33.480469 210.519531 33.308594 C 210.308594 33.136719 209.835938 32.96875 209.101562 32.808594 L 208.691406 32.71875 C 207.957031 32.558594 207.414062 32.324219 207.101562 32.007812 C 206.769531 31.695312 206.613281 31.261719 206.613281 30.695312 C 206.613281 30.027344 206.851562 29.5 207.324219 29.132812 C 207.796875 28.765625 208.480469 28.582031 209.375 28.582031 C 209.808594 28.582031 210.21875 28.621094 210.613281 28.6875 C 210.996094 28.753906 211.351562 28.84375 211.679688 28.960938 Z M 211.679688 28.960938 "/>
<path style=" stroke:none;fill-rule:nonzero;fill:rgb(0%,0%,0%);fill-opacity:1;" d="M 215.113281 26.71875 L 215.113281 28.753906 L 217.546875 28.753906 L 217.546875 29.671875 L 215.113281 29.671875 L 215.113281 33.570312 C 215.113281 34.164062 215.191406 34.542969 215.351562 34.699219 C 215.507812 34.871094 215.835938 34.949219 216.335938 34.949219 L 217.546875 34.949219 L 217.546875 35.933594 L 216.335938 35.933594 C 215.414062 35.933594 214.785156 35.765625 214.441406 35.421875 C 214.101562 35.082031 213.929688 34.464844 213.929688 33.570312 L 213.929688 29.671875 L 213.058594 29.671875 L 213.058594 28.753906 L 213.929688 28.753906 L 213.929688 26.71875 Z M 215.113281 26.71875 "/>
<path style=" stroke:none;fill-rule:nonzero;fill:rgb(0%,0%,0%);fill-opacity:1;" d="M 222.375 32.324219 C 221.414062 32.324219 220.757812 32.441406 220.390625 32.652344 C 220.019531 32.875 219.835938 33.242188 219.835938 33.769531 C 219.835938 34.1875 219.96875 34.53125 220.246094 34.765625 C 220.519531 35.015625 220.902344 35.132812 221.375 35.132812 C 222.035156 35.132812 222.558594 34.910156 222.957031 34.4375 C 223.351562 33.980469 223.546875 33.363281 223.546875 32.585938 L 223.546875 32.324219 Z M 224.730469 31.839844 L 224.730469 35.933594 L 223.546875 35.933594 L 223.546875 34.84375 C 223.269531 35.292969 222.929688 35.605469 222.535156 35.804688 C 222.140625 36 221.640625 36.105469 221.058594 36.105469 C 220.324219 36.105469 219.730469 35.910156 219.296875 35.5 C 218.863281 35.09375 218.652344 34.542969 218.652344 33.847656 C 218.652344 33.046875 218.914062 32.441406 219.46875 32.023438 C 220.007812 31.613281 220.808594 31.40625 221.890625 31.40625 L 223.546875 31.40625 L 223.546875 31.285156 C 223.546875 30.75 223.363281 30.328125 223.007812 30.027344 C 222.652344 29.738281 222.152344 29.578125 221.507812 29.578125 C 221.085938 29.578125 220.691406 29.632812 220.296875 29.738281 C 219.902344 29.84375 219.535156 29.988281 219.179688 30.171875 L 219.179688 29.082031 C 219.601562 28.921875 220.019531 28.792969 220.429688 28.714844 C 220.835938 28.632812 221.230469 28.582031 221.625 28.582031 C 222.664062 28.582031 223.441406 28.855469 223.957031 29.394531 C 224.46875 29.933594 224.730469 30.75 224.730469 31.839844 Z M 224.730469 31.839844 "/>
<path style=" stroke:none;fill-rule:nonzero;fill:rgb(0%,0%,0%);fill-opacity:1;" d="M 233.152344 31.601562 L 233.152344 35.933594 L 231.96875 35.933594 L 231.96875 31.640625 C 231.96875 30.957031 231.824219 30.460938 231.558594 30.117188 C 231.296875 29.777344 230.902344 29.605469 230.375 29.605469 C 229.730469 29.605469 229.230469 29.816406 228.863281 30.222656 C 228.496094 30.628906 228.308594 31.179688 228.308594 31.878906 L 228.308594 35.933594 L 227.125 35.933594 L 227.125 28.753906 L 228.308594 28.753906 L 228.308594 29.867188 C 228.585938 29.449219 228.914062 29.121094 229.308594 28.910156 C 229.691406 28.699219 230.140625 28.582031 230.640625 28.582031 C 231.457031 28.582031 232.085938 28.84375 232.507812 29.355469 C 232.929688 29.867188 233.152344 30.617188 233.152344 31.601562 Z M 233.152344 31.601562 "/>
<path style=" stroke:none;fill-rule:nonzero;fill:rgb(0%,0%,0%);fill-opacity:1;" d="M 240.691406 29.027344 L 240.691406 30.132812 C 240.351562 29.949219 240.019531 29.816406 239.679688 29.722656 C 239.335938 29.632812 239.007812 29.578125 238.664062 29.578125 C 237.902344 29.578125 237.296875 29.828125 236.875 30.316406 C 236.457031 30.800781 236.246094 31.484375 236.246094 32.351562 C 236.246094 33.230469 236.457031 33.914062 236.875 34.398438 C 237.296875 34.882812 237.902344 35.121094 238.664062 35.121094 C 239.007812 35.121094 239.335938 35.082031 239.679688 34.988281 C 240.019531 34.898438 240.351562 34.753906 240.691406 34.570312 L 240.691406 35.660156 C 240.351562 35.816406 240.007812 35.933594 239.664062 36 C 239.308594 36.066406 238.929688 36.105469 238.535156 36.105469 C 237.457031 36.105469 236.585938 35.777344 235.957031 35.09375 C 235.308594 34.425781 234.996094 33.503906 234.996094 32.351562 C 234.996094 31.179688 235.308594 30.261719 235.957031 29.59375 C 236.601562 28.921875 237.480469 28.582031 238.613281 28.582031 C 238.980469 28.582031 239.335938 28.621094 239.679688 28.699219 C 240.019531 28.777344 240.363281 28.882812 240.691406 29.027344 Z M 240.691406 29.027344 "/>
<path style=" stroke:none;fill-rule:nonzero;fill:rgb(0%,0%,0%);fill-opacity:1;" d="M 248.902344 32.046875 L 248.902344 32.625 L 243.46875 32.625 C 243.519531 33.441406 243.757812 34.070312 244.207031 34.492188 C 244.640625 34.910156 245.246094 35.121094 246.035156 35.121094 C 246.480469 35.121094 246.929688 35.070312 247.351562 34.964844 C 247.769531 34.859375 248.207031 34.6875 248.625 34.453125 L 248.625 35.566406 C 248.207031 35.75 247.769531 35.894531 247.324219 35.972656 C 246.875 36.054688 246.414062 36.105469 245.96875 36.105469 C 244.808594 36.105469 243.902344 35.777344 243.230469 35.121094 C 242.558594 34.464844 242.230469 33.558594 242.230469 32.414062 C 242.230469 31.246094 242.546875 30.316406 243.179688 29.617188 C 243.808594 28.9375 244.679688 28.582031 245.757812 28.582031 C 246.730469 28.582031 247.496094 28.898438 248.058594 29.515625 C 248.613281 30.144531 248.902344 30.984375 248.902344 32.046875 Z M 247.71875 31.707031 C 247.707031 31.0625 247.519531 30.550781 247.179688 30.15625 C 246.824219 29.777344 246.351562 29.578125 245.769531 29.578125 C 245.113281 29.578125 244.585938 29.777344 244.191406 30.144531 C 243.796875 30.511719 243.558594 31.039062 243.507812 31.707031 Z M 247.71875 31.707031 "/>
<path style=" stroke:none;fill-rule:nonzero;fill:rgb(0%,0%,0%);fill-opacity:1;" d="M 260.191406 32.351562 C 260.191406 31.484375 260.007812 30.8125 259.652344 30.316406 C 259.285156 29.816406 258.796875 29.566406 258.179688 29.566406 C 257.546875 29.566406 257.058594 29.816406 256.707031 30.316406 C 256.335938 30.8125 256.164062 31.484375 256.164062 32.351562 C 256.164062 33.21875 256.335938 33.898438 256.707031 34.398438 C 257.058594 34.898438 257.546875 35.132812 258.179688 35.132812 C 258.796875 35.132812 259.285156 34.898438 259.652344 34.398438 C 260.007812 33.898438 260.191406 33.21875 260.191406 32.351562 Z M 256.164062 29.84375 C 256.402344 29.421875 256.71875 29.105469 257.101562 28.898438 C 257.480469 28.6875 257.941406 28.582031 258.46875 28.582031 C 259.335938 28.582031 260.046875 28.9375 260.601562 29.617188 C 261.140625 30.316406 261.414062 31.222656 261.414062 32.351562 C 261.414062 33.480469 261.140625 34.398438 260.601562 35.082031 C 260.046875 35.765625 259.335938 36.105469 258.46875 36.105469 C 257.941406 36.105469 257.480469 36 257.101562 35.804688 C 256.71875 35.605469 256.402344 35.292969 256.164062 34.859375 L 256.164062 35.933594 L 254.980469 35.933594 L 254.980469 25.957031 L 256.164062 25.957031 Z M 256.164062 29.84375 "/>
<path style=" stroke:none;fill-rule:nonzero;fill:rgb(0%,0%,0%);fill-opacity:1;" d="M 269.535156 32.046875 L 269.535156 32.625 L 264.101562 32.625 C 264.152344 33.441406 264.390625 34.070312 264.835938 34.492188 C 265.269531 34.910156 265.875 35.121094 266.664062 35.121094 C 267.113281 35.121094 267.558594 35.070312 267.980469 34.964844 C 268.402344 34.859375 268.835938 34.6875 269.257812 34.453125 L 269.257812 35.566406 C 268.835938 35.75 268.402344 35.894531 267.957031 35.972656 C 267.507812 36.054688 267.046875 36.105469 266.601562 36.105469 C 265.441406 36.105469 264.535156 35.777344 263.863281 35.121094 C 263.191406 34.464844 262.863281 33.558594 262.863281 32.414062 C 262.863281 31.246094 263.179688 30.316406 263.808594 29.617188 C 264.441406 28.9375 265.308594 28.582031 266.390625 28.582031 C 267.363281 28.582031 268.125 28.898438 268.691406 29.515625 C 269.246094 30.144531 269.535156 30.984375 269.535156 32.046875 Z M 268.351562 31.707031 C 268.335938 31.0625 268.152344 30.550781 267.808594 30.15625 C 267.457031 29.777344 266.980469 29.578125 266.402344 29.578125 C 265.746094 29.578125 265.21875 29.777344 264.824219 30.144531 C 264.429688 30.511719 264.191406 31.039062 264.140625 31.707031 Z M 268.351562 31.707031 "/>
<path style=" stroke:none;fill-rule:nonzero;fill:rgb(0%,0%,0%);fill-opacity:1;" d="M 272.640625 26.71875 L 272.640625 28.753906 L 275.074219 28.753906 L 275.074219 29.671875 L 272.640625 29.671875 L 272.640625 33.570312 C 272.640625 34.164062 272.71875 34.542969 272.875 34.699219 C 273.035156 34.871094 273.363281 34.949219 273.863281 34.949219 L 275.074219 34.949219 L 275.074219 35.933594 L 273.863281 35.933594 C 272.941406 35.933594 272.308594 35.765625 271.96875 35.421875 C 271.625 35.082031 271.457031 34.464844 271.457031 33.570312 L 271.457031 29.671875 L 270.585938 29.671875 L 270.585938 28.753906 L 271.457031 28.753906 L 271.457031 26.71875 Z M 272.640625 26.71875 "/>
<path style=" stroke:none;fill-rule:nonzero;fill:rgb(0%,0%,0%);fill-opacity:1;" d="M 275.941406 28.753906 L 277.125 28.753906 L 278.601562 34.359375 L 280.074219 28.753906 L 281.46875 28.753906 L 282.941406 34.359375 L 284.414062 28.753906 L 285.601562 28.753906 L 283.71875 35.933594 L 282.324219 35.933594 L 280.769531 30.050781 L 279.21875 35.933594 L 277.824219 35.933594 Z M 275.941406 28.753906 "/>
<path style=" stroke:none;fill-rule:nonzero;fill:rgb(0%,0%,0%);fill-opacity:1;" d="M 293.546875 32.046875 L 293.546875 32.625 L 288.113281 32.625 C 288.164062 33.441406 288.402344 34.070312 288.851562 34.492188 C 289.285156 34.910156 289.890625 35.121094 290.679688 35.121094 C 291.125 35.121094 291.574219 35.070312 291.996094 34.964844 C 292.414062 34.859375 292.851562 34.6875 293.269531 34.453125 L 293.269531 35.566406 C 292.851562 35.75 292.414062 35.894531 291.96875 35.972656 C 291.519531 36.054688 291.058594 36.105469 290.613281 36.105469 C 289.457031 36.105469 288.546875 35.777344 287.875 35.121094 C 287.207031 34.464844 286.875 33.558594 286.875 32.414062 C 286.875 31.246094 287.191406 30.316406 287.824219 29.617188 C 288.457031 28.9375 289.324219 28.582031 290.402344 28.582031 C 291.375 28.582031 292.140625 28.898438 292.707031 29.515625 C 293.257812 30.144531 293.546875 30.984375 293.546875 32.046875 Z M 292.363281 31.707031 C 292.351562 31.0625 292.164062 30.550781 291.824219 30.15625 C 291.46875 29.777344 290.996094 29.578125 290.414062 29.578125 C 289.757812 29.578125 289.230469 29.777344 288.835938 30.144531 C 288.441406 30.511719 288.207031 31.039062 288.152344 31.707031 Z M 292.363281 31.707031 "/>
<path style=" stroke:none;fill-rule:nonzero;fill:rgb(0%,0%,0%);fill-opacity:1;" d="M 301.640625 32.046875 L 301.640625 32.625 L 296.207031 32.625 C 296.257812 33.441406 296.496094 34.070312 296.941406 34.492188 C 297.375 34.910156 297.980469 35.121094 298.769531 35.121094 C 299.21875 35.121094 299.664062 35.070312 300.085938 34.964844 C 300.507812 34.859375 300.941406 34.6875 301.363281 34.453125 L 301.363281 35.566406 C 300.941406 35.75 300.507812 35.894531 300.058594 35.972656 C 299.613281 36.054688 299.152344 36.105469 298.707031 36.105469 C 297.546875 36.105469 296.640625 35.777344 295.96875 35.121094 C 295.296875 34.464844 294.96875 33.558594 294.96875 32.414062 C 294.96875 31.246094 295.285156 30.316406 295.914062 29.617188 C 296.546875 28.9375 297.414062 28.582031 298.496094 28.582031 C 299.46875 28.582031 300.230469 28.898438 300.796875 29.515625 C 301.351562 30.144531 301.640625 30.984375 301.640625 32.046875 Z M 300.457031 31.707031 C 300.441406 31.0625 300.257812 30.550781 299.914062 30.15625 C 299.558594 29.777344 299.085938 29.578125 298.507812 29.578125 C 297.851562 29.578125 297.324219 29.777344 296.929688 30.144531 C 296.535156 30.511719 296.296875 31.039062 296.246094 31.707031 Z M 300.457031 31.707031 "/>
<path style=" stroke:none;fill-rule:nonzero;fill:rgb(0%,0%,0%);fill-opacity:1;" d="M 309.558594 31.601562 L 309.558594 35.933594 L 308.375 35.933594 L 308.375 31.640625 C 308.375 30.957031 308.230469 30.460938 307.96875 30.117188 C 307.707031 29.777344 307.308594 29.605469 306.785156 29.605469 C 306.140625 29.605469 305.640625 29.816406 305.269531 30.222656 C 304.902344 30.628906 304.71875 31.179688 304.71875 31.878906 L 304.71875 35.933594 L 303.535156 35.933594 L 303.535156 28.753906 L 304.71875 28.753906 L 304.71875 29.867188 C 304.996094 29.449219 305.324219 29.121094 305.71875 28.910156 C 306.101562 28.699219 306.546875 28.582031 307.046875 28.582031 C 307.863281 28.582031 308.496094 28.84375 308.914062 29.355469 C 309.335938 29.867188 309.558594 30.617188 309.558594 31.601562 Z M 309.558594 31.601562 "/>
<path style=" stroke:none;fill-rule:nonzero;fill:rgb(0%,0%,0%);fill-opacity:1;" d="M 320.046875 27.242188 C 319.101562 27.242188 318.351562 27.597656 317.796875 28.292969 C 317.246094 29 316.96875 29.949219 316.96875 31.15625 C 316.96875 32.363281 317.246094 33.320312 317.796875 34.019531 C 318.351562 34.726562 319.101562 35.070312 320.046875 35.070312 C 320.980469 35.070312 321.730469 34.726562 322.285156 34.019531 C 322.835938 33.320312 323.113281 32.363281 323.113281 31.15625 C 323.113281 29.949219 322.835938 29 322.285156 28.292969 C 321.730469 27.597656 320.980469 27.242188 320.046875 27.242188 Z M 320.046875 26.191406 C 321.390625 26.191406 322.457031 26.652344 323.269531 27.542969 C 324.074219 28.4375 324.480469 29.644531 324.480469 31.15625 C 324.480469 32.679688 324.074219 33.875 323.269531 34.765625 C 322.457031 35.660156 321.390625 36.105469 320.046875 36.105469 C 318.691406 36.105469 317.613281 35.660156 316.808594 34.765625 C 315.996094 33.875 315.601562 32.679688 315.601562 31.15625 C 315.601562 29.644531 315.996094 28.4375 316.808594 27.542969 C 317.613281 26.652344 318.691406 26.191406 320.046875 26.191406 Z M 320.046875 26.191406 "/>
<path style=" stroke:none;fill-rule:nonzero;fill:rgb(0%,0%,0%);fill-opacity:1;" d="M 332.257812 26.675781 L 332.257812 27.9375 C 331.757812 27.703125 331.296875 27.53125 330.863281 27.414062 C 330.414062 27.308594 329.996094 27.242188 329.601562 27.242188 C 328.890625 27.242188 328.335938 27.386719 327.957031 27.648438 C 327.574219 27.925781 327.390625 28.320312 327.390625 28.816406 C 327.390625 29.238281 327.507812 29.566406 327.769531 29.777344 C 328.019531 30 328.507812 30.171875 329.21875 30.300781 L 330.007812 30.460938 C 330.96875 30.644531 331.679688 30.972656 332.140625 31.429688 C 332.601562 31.902344 332.835938 32.519531 332.835938 33.296875 C 332.835938 34.226562 332.519531 34.925781 331.902344 35.398438 C 331.269531 35.871094 330.363281 36.105469 329.164062 36.105469 C 328.707031 36.105469 328.21875 36.054688 327.707031 35.960938 C 327.191406 35.871094 326.664062 35.726562 326.125 35.515625 L 326.125 34.175781 C 326.652344 34.476562 327.164062 34.699219 327.664062 34.84375 C 328.164062 35.003906 328.664062 35.070312 329.164062 35.070312 C 329.902344 35.070312 330.46875 34.925781 330.875 34.636719 C 331.269531 34.347656 331.480469 33.9375 331.480469 33.386719 C 331.480469 32.914062 331.335938 32.546875 331.046875 32.285156 C 330.757812 32.023438 330.285156 31.824219 329.625 31.695312 L 328.835938 31.535156 C 327.863281 31.351562 327.164062 31.050781 326.730469 30.628906 C 326.296875 30.222656 326.085938 29.660156 326.085938 28.921875 C 326.085938 28.082031 326.375 27.414062 326.980469 26.925781 C 327.574219 26.441406 328.402344 26.191406 329.457031 26.191406 C 329.902344 26.191406 330.351562 26.230469 330.824219 26.308594 C 331.285156 26.390625 331.757812 26.519531 332.257812 26.675781 Z M 332.257812 26.675781 "/>
<path style=" stroke:none;fill-rule:nonzero;fill:rgb(0%,0%,0%);fill-opacity:1;" d="M 342.269531 32.324219 C 341.308594 32.324219 340.652344 32.441406 340.285156 32.652344 C 339.914062 32.875 339.730469 33.242188 339.730469 33.769531 C 339.730469 34.1875 339.863281 34.53125 340.140625 34.765625 C 340.414062 35.015625 340.796875 35.132812 341.269531 35.132812 C 341.929688 35.132812 342.457031 34.910156 342.851562 34.4375 C 343.246094 33.980469 343.441406 33.363281 343.441406 32.585938 L 343.441406 32.324219 Z M 344.625 31.839844 L 344.625 35.933594 L 343.441406 35.933594 L 343.441406 34.84375 C 343.164062 35.292969 342.824219 35.605469 342.429688 35.804688 C 342.035156 36 341.535156 36.105469 340.957031 36.105469 C 340.21875 36.105469 339.625 35.910156 339.191406 35.5 C 338.757812 35.09375 338.546875 34.542969 338.546875 33.847656 C 338.546875 33.046875 338.808594 32.441406 339.363281 32.023438 C 339.902344 31.613281 340.707031 31.40625 341.785156 31.40625 L 343.441406 31.40625 L 343.441406 31.285156 C 343.441406 30.75 343.257812 30.328125 342.902344 30.027344 C 342.546875 29.738281 342.046875 29.578125 341.402344 29.578125 C 340.980469 29.578125 340.585938 29.632812 340.191406 29.738281 C 339.796875 29.84375 339.429688 29.988281 339.074219 30.171875 L 339.074219 29.082031 C 339.496094 28.921875 339.914062 28.792969 340.324219 28.714844 C 340.730469 28.632812 341.125 28.582031 341.519531 28.582031 C 342.558594 28.582031 343.335938 28.855469 343.851562 29.394531 C 344.363281 29.933594 344.625 30.75 344.625 31.839844 Z M 344.625 31.839844 "/>
<path style=" stroke:none;fill-rule:nonzero;fill:rgb(0%,0%,0%);fill-opacity:1;" d="M 353.046875 31.601562 L 353.046875 35.933594 L 351.863281 35.933594 L 351.863281 31.640625 C 351.863281 30.957031 351.71875 30.460938 351.457031 30.117188 C 351.191406 29.777344 350.796875 29.605469 350.269531 29.605469 C 349.625 29.605469 349.125 29.816406 348.757812 30.222656 C 348.390625 30.628906 348.207031 31.179688 348.207031 31.878906 L 348.207031 35.933594 L 347.019531 35.933594 L 347.019531 28.753906 L 348.207031 28.753906 L 348.207031 29.867188 C 348.480469 29.449219 348.808594 29.121094 349.207031 28.910156 C 349.585938 28.699219 350.035156 28.582031 350.535156 28.582031 C 351.351562 28.582031 351.980469 28.84375 352.402344 29.355469 C 352.824219 29.867188 353.046875 30.617188 353.046875 31.601562 Z M 353.046875 31.601562 "/>
<path style=" stroke:none;fill-rule:nonzero;fill:rgb(0%,0%,0%);fill-opacity:1;" d="M 360.140625 29.84375 L 360.140625 25.957031 L 361.324219 25.957031 L 361.324219 35.933594 L 360.140625 35.933594 L 360.140625 34.859375 C 359.890625 35.292969 359.574219 35.605469 359.191406 35.804688 C 358.808594 36 358.363281 36.105469 357.835938 36.105469 C 356.96875 36.105469 356.257812 35.765625 355.707031 35.082031 C 355.152344 34.398438 354.890625 33.480469 354.890625 32.351562 C 354.890625 31.222656 355.152344 30.316406 355.707031 29.617188 C 356.257812 28.9375 356.96875 28.582031 357.835938 28.582031 C 358.363281 28.582031 358.808594 28.6875 359.191406 28.898438 C 359.574219 29.105469 359.890625 29.421875 360.140625 29.84375 Z M 356.113281 32.351562 C 356.113281 33.21875 356.285156 33.898438 356.640625 34.398438 C 356.996094 34.898438 357.480469 35.132812 358.113281 35.132812 C 358.746094 35.132812 359.230469 34.898438 359.601562 34.398438 C 359.957031 33.898438 360.140625 33.21875 360.140625 32.351562 C 360.140625 31.484375 359.957031 30.8125 359.601562 30.316406 C 359.230469 29.816406 358.746094 29.566406 358.113281 29.566406 C 357.480469 29.566406 356.996094 29.816406 356.640625 30.316406 C 356.285156 30.8125 356.113281 31.484375 356.113281 32.351562 Z M 356.113281 32.351562 "/>
<path style=" stroke:none;fill-rule:nonzero;fill:rgb(0%,0%,0%);fill-opacity:1;" d="M 366.679688 26.363281 L 374.785156 26.363281 L 374.785156 27.453125 L 371.375 27.453125 L 371.375 35.933594 L 370.074219 35.933594 L 370.074219 27.453125 L 366.679688 27.453125 Z M 366.679688 26.363281 "/>
<path style=" stroke:none;fill-rule:nonzero;fill:rgb(0%,0%,0%);fill-opacity:1;" d="M 381.785156 26.675781 L 381.785156 27.9375 C 381.285156 27.703125 380.824219 27.53125 380.390625 27.414062 C 379.941406 27.308594 379.519531 27.242188 379.125 27.242188 C 378.414062 27.242188 377.863281 27.386719 377.480469 27.648438 C 377.101562 27.925781 376.914062 28.320312 376.914062 28.816406 C 376.914062 29.238281 377.035156 29.566406 377.296875 29.777344 C 377.546875 30 378.035156 30.171875 378.746094 30.300781 L 379.535156 30.460938 C 380.496094 30.644531 381.207031 30.972656 381.664062 31.429688 C 382.125 31.902344 382.363281 32.519531 382.363281 33.296875 C 382.363281 34.226562 382.046875 34.925781 381.429688 35.398438 C 380.796875 35.871094 379.890625 36.105469 378.691406 36.105469 C 378.230469 36.105469 377.746094 36.054688 377.230469 35.960938 C 376.71875 35.871094 376.191406 35.726562 375.652344 35.515625 L 375.652344 34.175781 C 376.179688 34.476562 376.691406 34.699219 377.191406 34.84375 C 377.691406 35.003906 378.191406 35.070312 378.691406 35.070312 C 379.429688 35.070312 379.996094 34.925781 380.402344 34.636719 C 380.796875 34.347656 381.007812 33.9375 381.007812 33.386719 C 381.007812 32.914062 380.863281 32.546875 380.574219 32.285156 C 380.285156 32.023438 379.808594 31.824219 379.152344 31.695312 L 378.363281 31.535156 C 377.390625 31.351562 376.691406 31.050781 376.257812 30.628906 C 375.824219 30.222656 375.613281 29.660156 375.613281 28.921875 C 375.613281 28.082031 375.902344 27.414062 376.507812 26.925781 C 377.101562 26.441406 377.929688 26.191406 378.980469 26.191406 C 379.429688 26.191406 379.875 26.230469 380.351562 26.308594 C 380.808594 26.390625 381.285156 26.519531 381.785156 26.675781 Z M 381.785156 26.675781 "/>
<path style="fill-rule:nonzero;fill:rgb(100%,64.705882%,0%);fill-opacity:1;stroke-width:2.5;stroke-linecap:butt;stroke-linejoin:round;stroke:rgb(100%,64.705882%,0%);stroke-opacity:1;stroke-miterlimit:4;" d="M 124.966563 32.514123 L 130.966406 26.514032 M 124.966563 26.514032 L 130.966406 32.514123 " transform="matrix(1.315789,0,0,1.313131,0,13)"/>
<path style=" stroke:none;fill-rule:nonzero;fill:rgb(0%,0%,0%);fill-opacity:1;" d="M 198.902344 49.398438 C 199.191406 48.871094 199.546875 48.492188 199.957031 48.230469 C 200.363281 47.980469 200.851562 47.847656 201.414062 47.847656 C 202.152344 47.847656 202.730469 48.109375 203.140625 48.636719 C 203.546875 49.160156 203.757812 49.910156 203.757812 50.867188 L 203.757812 55.203125 L 202.574219 55.203125 L 202.574219 50.90625 C 202.574219 50.226562 202.441406 49.710938 202.207031 49.371094 C 201.957031 49.042969 201.585938 48.871094 201.085938 48.871094 C 200.46875 48.871094 199.980469 49.082031 199.625 49.488281 C 199.269531 49.894531 199.101562 50.449219 199.101562 51.144531 L 199.101562 55.203125 L 197.914062 55.203125 L 197.914062 50.90625 C 197.914062 50.226562 197.785156 49.710938 197.546875 49.371094 C 197.296875 49.042969 196.914062 48.871094 196.414062 48.871094 C 195.808594 48.871094 195.324219 49.082031 194.96875 49.488281 C 194.613281 49.894531 194.441406 50.449219 194.441406 51.144531 L 194.441406 55.203125 L 193.257812 55.203125 L 193.257812 48.019531 L 194.441406 48.019531 L 194.441406 49.132812 C 194.707031 48.703125 195.035156 48.375 195.414062 48.164062 C 195.785156 47.953125 196.230469 47.847656 196.757812 47.847656 C 197.285156 47.847656 197.71875 47.980469 198.085938 48.242188 C 198.457031 48.503906 198.71875 48.898438 198.902344 49.398438 Z M 198.902344 49.398438 "/>
<path style=" stroke:none;fill-rule:nonzero;fill:rgb(0%,0%,0%);fill-opacity:1;" d="M 206.113281 48.019531 L 207.296875 48.019531 L 207.296875 55.203125 L 206.113281 55.203125 Z M 206.113281 45.222656 L 207.296875 45.222656 L 207.296875 46.71875 L 206.113281 46.71875 Z M 206.113281 45.222656 "/>
<path style=" stroke:none;fill-rule:nonzero;fill:rgb(0%,0%,0%);fill-opacity:1;" d="M 215.757812 50.867188 L 215.757812 55.203125 L 214.574219 55.203125 L 214.574219 50.90625 C 214.574219 50.226562 214.429688 49.726562 214.164062 49.382812 C 213.902344 49.042969 213.507812 48.871094 212.980469 48.871094 C 212.335938 48.871094 211.835938 49.082031 211.46875 49.488281 C 211.101562 49.894531 210.914062 50.449219 210.914062 51.144531 L 210.914062 55.203125 L 209.730469 55.203125 L 209.730469 48.019531 L 210.914062 48.019531 L 210.914062 49.132812 C 211.191406 48.714844 211.519531 48.386719 211.914062 48.175781 C 212.296875 47.964844 212.746094 47.847656 213.246094 47.847656 C 214.058594 47.847656 214.691406 48.109375 215.113281 48.621094 C 215.535156 49.132812 215.757812 49.882812 215.757812 50.867188 Z M 215.757812 50.867188 "/>
<path style=" stroke:none;fill-rule:nonzero;fill:rgb(0%,0%,0%);fill-opacity:1;" d="M 218.285156 53.574219 L 219.640625 53.574219 L 219.640625 55.203125 L 218.285156 55.203125 Z M 218.285156 53.574219 "/>
<path style=" stroke:none;fill-rule:nonzero;fill:rgb(0%,0%,0%);fill-opacity:1;" d="M 231.21875 49.109375 L 231.21875 45.222656 L 232.402344 45.222656 L 232.402344 55.203125 L 231.21875 55.203125 L 231.21875 54.125 C 230.96875 54.558594 230.652344 54.875 230.269531 55.070312 C 229.890625 55.265625 229.441406 55.371094 228.914062 55.371094 C 228.046875 55.371094 227.335938 55.03125 226.785156 54.347656 C 226.230469 53.664062 225.96875 52.746094 225.96875 51.617188 C 225.96875 50.488281 226.230469 49.582031 226.785156 48.886719 C 227.335938 48.203125 228.046875 47.847656 228.914062 47.847656 C 229.441406 47.847656 229.890625 47.953125 230.269531 48.164062 C 230.652344 48.375 230.96875 48.6875 231.21875 49.109375 Z M 227.191406 51.617188 C 227.191406 52.484375 227.363281 53.167969 227.71875 53.664062 C 228.074219 54.164062 228.558594 54.402344 229.191406 54.402344 C 229.824219 54.402344 230.308594 54.164062 230.679688 53.664062 C 231.035156 53.167969 231.21875 52.484375 231.21875 51.617188 C 231.21875 50.75 231.035156 50.082031 230.679688 49.582031 C 230.308594 49.082031 229.824219 48.832031 229.191406 48.832031 C 228.558594 48.832031 228.074219 49.082031 227.71875 49.582031 C 227.363281 50.082031 227.191406 50.75 227.191406 51.617188 Z M 227.191406 51.617188 "/>
<path style=" stroke:none;fill-rule:nonzero;fill:rgb(0%,0%,0%);fill-opacity:1;" d="M 234.835938 48.019531 L 236.019531 48.019531 L 236.019531 55.203125 L 234.835938 55.203125 Z M 234.835938 45.222656 L 236.019531 45.222656 L 236.019531 46.71875 L 234.835938 46.71875 Z M 234.835938 45.222656 "/>
<path style=" stroke:none;fill-rule:nonzero;fill:rgb(0%,0%,0%);fill-opacity:1;" d="M 243.085938 48.230469 L 243.085938 49.34375 C 242.746094 49.1875 242.402344 49.054688 242.046875 48.964844 C 241.679688 48.886719 241.308594 48.832031 240.929688 48.832031 C 240.335938 48.832031 239.890625 48.925781 239.601562 49.109375 C 239.308594 49.292969 239.164062 49.554688 239.164062 49.910156 C 239.164062 50.183594 239.269531 50.394531 239.480469 50.554688 C 239.691406 50.710938 240.113281 50.867188 240.746094 51 L 241.152344 51.089844 C 241.996094 51.273438 242.585938 51.539062 242.941406 51.851562 C 243.285156 52.179688 243.46875 52.640625 243.46875 53.21875 C 243.46875 53.886719 243.207031 54.414062 242.679688 54.792969 C 242.152344 55.1875 241.414062 55.371094 240.496094 55.371094 C 240.101562 55.371094 239.707031 55.332031 239.285156 55.265625 C 238.863281 55.203125 238.429688 55.097656 237.96875 54.9375 L 237.96875 53.71875 C 238.402344 53.953125 238.835938 54.125 239.257812 54.230469 C 239.679688 54.347656 240.101562 54.402344 240.519531 54.402344 C 241.074219 54.402344 241.507812 54.308594 241.808594 54.125 C 242.101562 53.941406 242.257812 53.664062 242.257812 53.308594 C 242.257812 52.996094 242.140625 52.746094 241.929688 52.574219 C 241.71875 52.40625 241.246094 52.234375 240.507812 52.074219 L 240.101562 51.984375 C 239.363281 51.828125 238.824219 51.589844 238.507812 51.273438 C 238.179688 50.960938 238.019531 50.527344 238.019531 49.960938 C 238.019531 49.292969 238.257812 48.765625 238.730469 48.398438 C 239.207031 48.03125 239.890625 47.847656 240.785156 47.847656 C 241.21875 47.847656 241.625 47.886719 242.019531 47.953125 C 242.402344 48.019531 242.757812 48.109375 243.085938 48.230469 Z M 243.085938 48.230469 "/>
<path style=" stroke:none;fill-rule:nonzero;fill:rgb(0%,0%,0%);fill-opacity:1;" d="M 246.519531 45.984375 L 246.519531 48.019531 L 248.957031 48.019531 L 248.957031 48.9375 L 246.519531 48.9375 L 246.519531 52.835938 C 246.519531 53.429688 246.601562 53.808594 246.757812 53.96875 C 246.914062 54.136719 247.246094 54.214844 247.746094 54.214844 L 248.957031 54.214844 L 248.957031 55.203125 L 247.746094 55.203125 C 246.824219 55.203125 246.191406 55.03125 245.851562 54.6875 C 245.507812 54.347656 245.335938 53.730469 245.335938 52.835938 L 245.335938 48.9375 L 244.46875 48.9375 L 244.46875 48.019531 L 245.335938 48.019531 L 245.335938 45.984375 Z M 246.519531 45.984375 "/>
<path style=" stroke:none;fill-rule:nonzero;fill:rgb(0%,0%,0%);fill-opacity:1;" d="M 253.785156 51.589844 C 252.824219 51.589844 252.164062 51.707031 251.796875 51.917969 C 251.429688 52.140625 251.246094 52.507812 251.246094 53.035156 C 251.246094 53.453125 251.375 53.796875 251.652344 54.03125 C 251.929688 54.28125 252.308594 54.402344 252.785156 54.402344 C 253.441406 54.402344 253.96875 54.175781 254.363281 53.703125 C 254.757812 53.246094 254.957031 52.628906 254.957031 51.851562 L 254.957031 51.589844 Z M 256.140625 51.105469 L 256.140625 55.203125 L 254.957031 55.203125 L 254.957031 54.113281 C 254.679688 54.558594 254.335938 54.875 253.941406 55.070312 C 253.546875 55.265625 253.046875 55.371094 252.46875 55.371094 C 251.730469 55.371094 251.140625 55.175781 250.707031 54.769531 C 250.269531 54.359375 250.058594 53.808594 250.058594 53.113281 C 250.058594 52.3125 250.324219 51.707031 250.875 51.289062 C 251.414062 50.882812 252.21875 50.671875 253.296875 50.671875 L 254.957031 50.671875 L 254.957031 50.554688 C 254.957031 50.015625 254.769531 49.59375 254.414062 49.292969 C 254.058594 49.003906 253.558594 48.847656 252.914062 48.847656 C 252.496094 48.847656 252.101562 48.898438 251.707031 49.003906 C 251.308594 49.109375 250.941406 49.253906 250.585938 49.4375 L 250.585938 48.347656 C 251.007812 48.1875 251.429688 48.058594 251.835938 47.980469 C 252.246094 47.902344 252.640625 47.847656 253.035156 47.847656 C 254.074219 47.847656 254.851562 48.125 255.363281 48.660156 C 255.875 49.199219 256.140625 50.015625 256.140625 51.105469 Z M 256.140625 51.105469 "/>
<path style=" stroke:none;fill-rule:nonzero;fill:rgb(0%,0%,0%);fill-opacity:1;" d="M 264.558594 50.867188 L 264.558594 55.203125 L 263.375 55.203125 L 263.375 50.90625 C 263.375 50.226562 263.230469 49.726562 262.96875 49.382812 C 262.707031 49.042969 262.308594 48.871094 261.785156 48.871094 C 261.140625 48.871094 260.640625 49.082031 260.269531 49.488281 C 259.902344 49.894531 259.71875 50.449219 259.71875 51.144531 L 259.71875 55.203125 L 258.535156 55.203125 L 258.535156 48.019531 L 259.71875 48.019531 L 259.71875 49.132812 C 259.996094 48.714844 260.324219 48.386719 260.71875 48.175781 C 261.101562 47.964844 261.546875 47.847656 262.046875 47.847656 C 262.863281 47.847656 263.496094 48.109375 263.914062 48.621094 C 264.335938 49.132812 264.558594 49.882812 264.558594 50.867188 Z M 264.558594 50.867188 "/>
<path style=" stroke:none;fill-rule:nonzero;fill:rgb(0%,0%,0%);fill-opacity:1;" d="M 272.101562 48.292969 L 272.101562 49.398438 C 271.757812 49.214844 271.429688 49.082031 271.085938 48.992188 C 270.746094 48.898438 270.414062 48.847656 270.074219 48.847656 C 269.308594 48.847656 268.707031 49.09375 268.285156 49.582031 C 267.863281 50.066406 267.652344 50.75 267.652344 51.617188 C 267.652344 52.496094 267.863281 53.179688 268.285156 53.664062 C 268.707031 54.152344 269.308594 54.386719 270.074219 54.386719 C 270.414062 54.386719 270.746094 54.347656 271.085938 54.257812 C 271.429688 54.164062 271.757812 54.019531 272.101562 53.835938 L 272.101562 54.925781 C 271.757812 55.082031 271.414062 55.203125 271.074219 55.265625 C 270.71875 55.332031 270.335938 55.371094 269.941406 55.371094 C 268.863281 55.371094 267.996094 55.042969 267.363281 54.359375 C 266.71875 53.691406 266.402344 52.773438 266.402344 51.617188 C 266.402344 50.449219 266.71875 49.527344 267.363281 48.859375 C 268.007812 48.1875 268.890625 47.847656 270.019531 47.847656 C 270.390625 47.847656 270.746094 47.886719 271.085938 47.964844 C 271.429688 48.042969 271.769531 48.148438 272.101562 48.292969 Z M 272.101562 48.292969 "/>
<path style=" stroke:none;fill-rule:nonzero;fill:rgb(0%,0%,0%);fill-opacity:1;" d="M 280.308594 51.316406 L 280.308594 51.890625 L 274.875 51.890625 C 274.929688 52.707031 275.164062 53.335938 275.613281 53.757812 C 276.046875 54.175781 276.652344 54.386719 277.441406 54.386719 C 277.890625 54.386719 278.335938 54.335938 278.757812 54.230469 C 279.179688 54.125 279.613281 53.953125 280.035156 53.71875 L 280.035156 54.832031 C 279.613281 55.015625 279.179688 55.160156 278.730469 55.242188 C 278.285156 55.320312 277.824219 55.371094 277.375 55.371094 C 276.21875 55.371094 275.308594 55.042969 274.640625 54.386719 C 273.96875 53.730469 273.640625 52.824219 273.640625 51.683594 C 273.640625 50.511719 273.957031 49.582031 274.585938 48.886719 C 275.21875 48.203125 276.085938 47.847656 277.164062 47.847656 C 278.140625 47.847656 278.902344 48.164062 279.46875 48.78125 C 280.019531 49.410156 280.308594 50.25 280.308594 51.316406 Z M 279.125 50.972656 C 279.113281 50.328125 278.929688 49.816406 278.585938 49.421875 C 278.230469 49.042969 277.757812 48.847656 277.179688 48.847656 C 276.519531 48.847656 275.996094 49.042969 275.601562 49.410156 C 275.207031 49.777344 274.96875 50.304688 274.914062 50.972656 Z M 279.125 50.972656 "/>
<path style=" stroke:none;fill-rule:nonzero;fill:rgb(0%,0%,0%);fill-opacity:1;" d="M 286.585938 49.238281 L 294.824219 49.238281 L 294.824219 50.316406 L 286.585938 50.316406 Z M 286.585938 51.851562 L 294.824219 51.851562 L 294.824219 52.941406 L 286.585938 52.941406 Z M 286.585938 51.851562 "/>
<path style=" stroke:none;fill-rule:nonzero;fill:rgb(0%,0%,0%);fill-opacity:1;" d="M 302.035156 54.113281 L 304.152344 54.113281 L 304.152344 46.808594 L 301.851562 47.269531 L 301.851562 46.089844 L 304.140625 45.628906 L 305.441406 45.628906 L 305.441406 54.113281 L 307.558594 54.113281 L 307.558594 55.203125 L 302.035156 55.203125 Z M 302.035156 54.113281 "/>
<path style=" stroke:none;fill-rule:nonzero;fill:rgb(0%,0%,0%);fill-opacity:1;" d="M 309.851562 45.628906 L 316.019531 45.628906 L 316.019531 46.179688 L 312.535156 55.203125 L 311.179688 55.203125 L 314.457031 46.71875 L 309.851562 46.71875 Z M 309.851562 45.628906 "/>
<path style=" stroke:none;fill-rule:nonzero;fill:rgb(0%,0%,0%);fill-opacity:1;" d="M 318.546875 53.574219 L 319.902344 53.574219 L 319.902344 55.203125 L 318.546875 55.203125 Z M 318.546875 53.574219 "/>
<path style=" stroke:none;fill-rule:nonzero;fill:rgb(0%,0%,0%);fill-opacity:1;" d="M 322.402344 45.628906 L 328.574219 45.628906 L 328.574219 46.179688 L 325.085938 55.203125 L 323.730469 55.203125 L 327.007812 46.71875 L 322.402344 46.71875 Z M 322.402344 45.628906 "/>
<path style=" stroke:none;fill-rule:nonzero;fill:rgb(0%,0%,0%);fill-opacity:1;" d="M 331.324219 54.113281 L 333.441406 54.113281 L 333.441406 46.808594 L 331.140625 47.269531 L 331.140625 46.089844 L 333.429688 45.628906 L 334.730469 45.628906 L 334.730469 54.113281 L 336.851562 54.113281 L 336.851562 55.203125 L 331.324219 55.203125 Z M 331.324219 54.113281 "/>
<path style=" stroke:none;fill-rule:nonzero;fill:rgb(0%,0%,0%);fill-opacity:1;" d="M 349.085938 49.398438 C 349.375 48.871094 349.730469 48.492188 350.140625 48.230469 C 350.546875 47.980469 351.035156 47.847656 351.601562 47.847656 C 352.335938 47.847656 352.914062 48.109375 353.324219 48.636719 C 353.730469 49.160156 353.941406 49.910156 353.941406 50.867188 L 353.941406 55.203125 L 352.757812 55.203125 L 352.757812 50.90625 C 352.757812 50.226562 352.625 49.710938 352.390625 49.371094 C 352.140625 49.042969 351.769531 48.871094 351.269531 48.871094 C 350.652344 48.871094 350.164062 49.082031 349.808594 49.488281 C 349.457031 49.894531 349.285156 50.449219 349.285156 51.144531 L 349.285156 55.203125 L 348.101562 55.203125 L 348.101562 50.90625 C 348.101562 50.226562 347.96875 49.710938 347.730469 49.371094 C 347.480469 49.042969 347.101562 48.871094 346.601562 48.871094 C 345.996094 48.871094 345.507812 49.082031 345.152344 49.488281 C 344.796875 49.894531 344.625 50.449219 344.625 51.144531 L 344.625 55.203125 L 343.441406 55.203125 L 343.441406 48.019531 L 344.625 48.019531 L 344.625 49.132812 C 344.890625 48.703125 345.21875 48.375 345.601562 48.164062 C 345.96875 47.953125 346.414062 47.847656 346.941406 47.847656 C 347.46875 47.847656 347.902344 47.980469 348.269531 48.242188 C 348.640625 48.503906 348.902344 48.898438 349.085938 49.398438 Z M 349.085938 49.398438 "/>
</g>
</svg>
