<?xml version="1.0" encoding="UTF-8"?>
<svg xmlns="http://www.w3.org/2000/svg" xmlns:xlink="http://www.w3.org/1999/xlink" width="400px" height="px" viewBox="0 0 400 416" version="1.1">
<defs>
<clipPath id="clip1">
  <path d="M 0 0 L 400 0 L 400 413.503906 L 0 413.503906 Z M 0 0 "/>
</clipPath>
</defs>
<g id="surface1">
<g clip-path="url(#clip1)" clip-rule="nonzero">
<path style=" stroke:none;fill-rule:nonzero;fill:rgb(100%,100%,100%);fill-opacity:1;" d="M -86.84375 413.503906 L 519.472656 413.503906 L 519.472656 -40.3125 L -86.84375 -40.3125 Z M -86.84375 413.503906 "/>
</g>
<path style=" stroke:none;fill-rule:nonzero;fill:rgb(100%,100%,100%);fill-opacity:1;" d="M 48.820312 363.585938 L 398.96875 363.585938 L 398.96875 14.144531 L 48.820312 14.144531 Z M 48.820312 363.585938 "/>
<path style="fill:none;stroke-width:0.8;stroke-linecap:butt;stroke-linejoin:round;stroke:rgb(0%,0%,0%);stroke-opacity:1;stroke-miterlimit:4;" d="M 47.134844 266.984675 L 47.134844 270.482993 " transform="matrix(1.315789,0,0,1.313131,0,13)"/>
<path style=" stroke:none;fill-rule:nonzero;fill:rgb(0%,0%,0%);fill-opacity:1;" d="M 62.019531 374.03125 C 61.347656 374.03125 60.847656 374.359375 60.507812 375.015625 C 60.164062 375.671875 60.007812 376.65625 60.007812 377.96875 C 60.007812 379.28125 60.164062 380.265625 60.507812 380.921875 C 60.847656 381.582031 61.347656 381.910156 62.019531 381.910156 C 62.691406 381.910156 63.191406 381.582031 63.53125 380.921875 C 63.863281 380.265625 64.03125 379.28125 64.03125 377.96875 C 64.03125 376.65625 63.863281 375.671875 63.53125 375.015625 C 63.191406 374.359375 62.691406 374.03125 62.019531 374.03125 Z M 62.019531 373.003906 C 63.085938 373.003906 63.902344 373.4375 64.480469 374.277344 C 65.046875 375.132812 65.335938 376.367188 65.335938 377.96875 C 65.335938 379.585938 65.046875 380.820312 64.480469 381.660156 C 63.902344 382.5 63.085938 382.917969 62.007812 382.917969 C 60.925781 382.917969 60.113281 382.5 59.546875 381.660156 C 58.980469 380.820312 58.703125 379.585938 58.703125 377.96875 C 58.703125 376.367188 58.980469 375.132812 59.546875 374.277344 C 60.113281 373.4375 60.941406 373.003906 62.019531 373.003906 Z M 62.019531 373.003906 "/>
<path style="fill:none;stroke-width:0.8;stroke-linecap:butt;stroke-linejoin:round;stroke:rgb(0%,0%,0%);stroke-opacity:1;stroke-miterlimit:4;" d="M 112.070313 266.984675 L 112.070313 270.482993 " transform="matrix(1.315789,0,0,1.313131,0,13)"/>
<path style=" stroke:none;fill-rule:nonzero;fill:rgb(0%,0%,0%);fill-opacity:1;" d="M 140.726562 381.660156 L 142.84375 381.660156 L 142.84375 374.359375 L 140.542969 374.816406 L 140.542969 373.636719 L 142.832031 373.175781 L 144.132812 373.175781 L 144.132812 381.660156 L 146.253906 381.660156 L 146.253906 382.75 L 140.726562 382.75 Z M 140.726562 381.660156 "/>
<path style=" stroke:none;fill-rule:nonzero;fill:rgb(0%,0%,0%);fill-opacity:1;" d="M 151.648438 374.03125 C 150.976562 374.03125 150.476562 374.359375 150.132812 375.015625 C 149.792969 375.671875 149.632812 376.65625 149.632812 377.96875 C 149.632812 379.28125 149.792969 380.265625 150.132812 380.921875 C 150.476562 381.582031 150.976562 381.910156 151.648438 381.910156 C 152.320312 381.910156 152.820312 381.582031 153.160156 380.921875 C 153.488281 380.265625 153.660156 379.28125 153.660156 377.96875 C 153.660156 376.65625 153.488281 375.671875 153.160156 375.015625 C 152.820312 374.359375 152.320312 374.03125 151.648438 374.03125 Z M 151.648438 373.003906 C 152.714844 373.003906 153.527344 373.4375 154.109375 374.277344 C 154.671875 375.132812 154.964844 376.367188 154.964844 377.96875 C 154.964844 379.585938 154.671875 380.820312 154.109375 381.660156 C 153.527344 382.5 152.714844 382.917969 151.632812 382.917969 C 150.554688 382.917969 149.738281 382.5 149.171875 381.660156 C 148.609375 380.820312 148.332031 379.585938 148.332031 377.96875 C 148.332031 376.367188 148.609375 375.132812 149.171875 374.277344 C 149.738281 373.4375 150.570312 373.003906 151.648438 373.003906 Z M 151.648438 373.003906 "/>
<path style="fill:none;stroke-width:0.8;stroke-linecap:butt;stroke-linejoin:round;stroke:rgb(0%,0%,0%);stroke-opacity:1;stroke-miterlimit:4;" d="M 177.00875 266.984675 L 177.00875 270.482993 " transform="matrix(1.315789,0,0,1.313131,0,13)"/>
<path style=" stroke:none;fill-rule:nonzero;fill:rgb(0%,0%,0%);fill-opacity:1;" d="M 227.0625 381.660156 L 231.589844 381.660156 L 231.589844 382.75 L 225.496094 382.75 L 225.496094 381.660156 C 225.984375 381.160156 226.65625 380.476562 227.511719 379.609375 C 228.351562 378.757812 228.890625 378.207031 229.117188 377.957031 C 229.535156 377.496094 229.828125 377.101562 229.984375 376.773438 C 230.140625 376.460938 230.234375 376.128906 230.234375 375.816406 C 230.234375 375.316406 230.050781 374.894531 229.695312 374.582031 C 229.339844 374.265625 228.878906 374.09375 228.300781 374.09375 C 227.890625 374.09375 227.457031 374.175781 227.011719 374.304688 C 226.5625 374.449219 226.078125 374.660156 225.5625 374.949219 L 225.5625 373.636719 C 226.089844 373.425781 226.578125 373.269531 227.023438 373.164062 C 227.472656 373.058594 227.890625 373.003906 228.273438 373.003906 C 229.261719 373.003906 230.050781 373.253906 230.640625 373.753906 C 231.234375 374.253906 231.535156 374.910156 231.535156 375.738281 C 231.535156 376.128906 231.457031 376.511719 231.3125 376.851562 C 231.167969 377.207031 230.90625 377.628906 230.511719 378.101562 C 230.40625 378.230469 230.0625 378.585938 229.484375 379.175781 C 228.90625 379.769531 228.101562 380.59375 227.0625 381.660156 Z M 227.0625 381.660156 "/>
<path style=" stroke:none;fill-rule:nonzero;fill:rgb(0%,0%,0%);fill-opacity:1;" d="M 237.089844 374.03125 C 236.417969 374.03125 235.917969 374.359375 235.578125 375.015625 C 235.234375 375.671875 235.078125 376.65625 235.078125 377.96875 C 235.078125 379.28125 235.234375 380.265625 235.578125 380.921875 C 235.917969 381.582031 236.417969 381.910156 237.089844 381.910156 C 237.761719 381.910156 238.261719 381.582031 238.601562 380.921875 C 238.929688 380.265625 239.101562 379.28125 239.101562 377.96875 C 239.101562 376.65625 238.929688 375.671875 238.601562 375.015625 C 238.261719 374.359375 237.761719 374.03125 237.089844 374.03125 Z M 237.089844 373.003906 C 238.15625 373.003906 238.972656 373.4375 239.550781 374.277344 C 240.117188 375.132812 240.40625 376.367188 240.40625 377.96875 C 240.40625 379.585938 240.117188 380.820312 239.550781 381.660156 C 238.972656 382.5 238.15625 382.917969 237.078125 382.917969 C 235.996094 382.917969 235.179688 382.5 234.617188 381.660156 C 234.050781 380.820312 233.773438 379.585938 233.773438 377.96875 C 233.773438 376.367188 234.050781 375.132812 234.617188 374.277344 C 235.179688 373.4375 236.011719 373.003906 237.089844 373.003906 Z M 237.089844 373.003906 "/>
<path style="fill:none;stroke-width:0.8;stroke-linecap:butt;stroke-linejoin:round;stroke:rgb(0%,0%,0%);stroke-opacity:1;stroke-miterlimit:4;" d="M 241.944219 266.984675 L 241.944219 270.482993 " transform="matrix(1.315789,0,0,1.313131,0,13)"/>
<path style=" stroke:none;fill-rule:nonzero;fill:rgb(0%,0%,0%);fill-opacity:1;" d="M 315.320312 377.589844 C 315.941406 377.71875 316.425781 377.996094 316.769531 378.414062 C 317.109375 378.835938 317.292969 379.359375 317.292969 379.964844 C 317.292969 380.910156 316.964844 381.644531 316.320312 382.15625 C 315.664062 382.671875 314.742188 382.917969 313.542969 382.917969 C 313.136719 382.917969 312.714844 382.878906 312.292969 382.800781 C 311.875 382.734375 311.425781 382.617188 310.980469 382.460938 L 310.980469 381.210938 C 311.335938 381.421875 311.730469 381.582031 312.164062 381.683594 C 312.585938 381.789062 313.03125 381.84375 313.503906 381.84375 C 314.320312 381.84375 314.941406 381.683594 315.359375 381.371094 C 315.78125 381.054688 316.003906 380.582031 316.003906 379.964844 C 316.003906 379.414062 315.808594 378.96875 315.414062 378.652344 C 315.019531 378.335938 314.464844 378.167969 313.753906 378.167969 L 312.636719 378.167969 L 312.636719 377.101562 L 313.808594 377.101562 C 314.441406 377.101562 314.925781 376.984375 315.269531 376.722656 C 315.609375 376.472656 315.78125 376.105469 315.78125 375.617188 C 315.78125 375.132812 315.597656 374.75 315.253906 374.488281 C 314.898438 374.226562 314.398438 374.09375 313.753906 374.09375 C 313.398438 374.09375 313.019531 374.132812 312.609375 374.214844 C 312.203125 374.292969 311.753906 374.410156 311.269531 374.566406 L 311.269531 373.414062 C 311.753906 373.28125 312.214844 373.175781 312.648438 373.109375 C 313.070312 373.042969 313.480469 373.003906 313.875 373.003906 C 314.847656 373.003906 315.625 373.230469 316.203125 373.675781 C 316.78125 374.121094 317.070312 374.726562 317.070312 375.488281 C 317.070312 376.011719 316.914062 376.460938 316.609375 376.828125 C 316.308594 377.195312 315.875 377.457031 315.320312 377.589844 Z M 315.320312 377.589844 "/>
<path style=" stroke:none;fill-rule:nonzero;fill:rgb(0%,0%,0%);fill-opacity:1;" d="M 322.53125 374.03125 C 321.859375 374.03125 321.359375 374.359375 321.019531 375.015625 C 320.675781 375.671875 320.519531 376.65625 320.519531 377.96875 C 320.519531 379.28125 320.675781 380.265625 321.019531 380.921875 C 321.359375 381.582031 321.859375 381.910156 322.53125 381.910156 C 323.203125 381.910156 323.703125 381.582031 324.042969 380.921875 C 324.375 380.265625 324.542969 379.28125 324.542969 377.96875 C 324.542969 376.65625 324.375 375.671875 324.042969 375.015625 C 323.703125 374.359375 323.203125 374.03125 322.53125 374.03125 Z M 322.53125 373.003906 C 323.597656 373.003906 324.414062 373.4375 324.992188 374.277344 C 325.558594 375.132812 325.847656 376.367188 325.847656 377.96875 C 325.847656 379.585938 325.558594 380.820312 324.992188 381.660156 C 324.414062 382.5 323.597656 382.917969 322.519531 382.917969 C 321.441406 382.917969 320.625 382.5 320.058594 381.660156 C 319.492188 380.820312 319.214844 379.585938 319.214844 377.96875 C 319.214844 376.367188 319.492188 375.132812 320.058594 374.277344 C 320.625 373.4375 321.453125 373.003906 322.53125 373.003906 Z M 322.53125 373.003906 "/>
<path style=" stroke:none;fill-rule:nonzero;fill:rgb(0%,0%,0%);fill-opacity:1;" d="M 197.046875 391.128906 L 205.152344 391.128906 L 205.152344 392.21875 L 201.746094 392.21875 L 201.746094 400.703125 L 200.445312 400.703125 L 200.445312 392.21875 L 197.046875 392.21875 Z M 197.046875 391.128906 "/>
<path style=" stroke:none;fill-rule:nonzero;fill:rgb(0%,0%,0%);fill-opacity:1;" d="M 205.960938 393.519531 L 207.144531 393.519531 L 207.144531 400.703125 L 205.960938 400.703125 Z M 205.960938 390.722656 L 207.144531 390.722656 L 207.144531 392.21875 L 205.960938 392.21875 Z M 205.960938 390.722656 "/>
<path style=" stroke:none;fill-rule:nonzero;fill:rgb(0%,0%,0%);fill-opacity:1;" d="M 215.222656 394.898438 C 215.511719 394.371094 215.867188 393.992188 216.277344 393.730469 C 216.683594 393.480469 217.171875 393.347656 217.738281 393.347656 C 218.472656 393.347656 219.050781 393.609375 219.460938 394.136719 C 219.867188 394.660156 220.078125 395.410156 220.078125 396.367188 L 220.078125 400.703125 L 218.894531 400.703125 L 218.894531 396.40625 C 218.894531 395.726562 218.761719 395.214844 218.527344 394.871094 C 218.277344 394.542969 217.90625 394.371094 217.40625 394.371094 C 216.789062 394.371094 216.300781 394.582031 215.949219 394.988281 C 215.59375 395.398438 215.421875 395.949219 215.421875 396.644531 L 215.421875 400.703125 L 214.238281 400.703125 L 214.238281 396.40625 C 214.238281 395.726562 214.105469 395.214844 213.867188 394.871094 C 213.617188 394.542969 213.238281 394.371094 212.738281 394.371094 C 212.132812 394.371094 211.644531 394.582031 211.289062 394.988281 C 210.933594 395.398438 210.761719 395.949219 210.761719 396.644531 L 210.761719 400.703125 L 209.578125 400.703125 L 209.578125 393.519531 L 210.761719 393.519531 L 210.761719 394.636719 C 211.027344 394.203125 211.355469 393.875 211.738281 393.664062 C 212.105469 393.453125 212.550781 393.347656 213.078125 393.347656 C 213.605469 393.347656 214.039062 393.480469 214.40625 393.742188 C 214.777344 394.003906 215.039062 394.398438 215.222656 394.898438 Z M 215.222656 394.898438 "/>
<path style=" stroke:none;fill-rule:nonzero;fill:rgb(0%,0%,0%);fill-opacity:1;" d="M 228.59375 396.816406 L 228.59375 397.394531 L 223.15625 397.394531 C 223.210938 398.207031 223.449219 398.835938 223.894531 399.257812 C 224.328125 399.679688 224.933594 399.886719 225.722656 399.886719 C 226.171875 399.886719 226.617188 399.835938 227.039062 399.730469 C 227.460938 399.625 227.894531 399.453125 228.316406 399.21875 L 228.316406 400.335938 C 227.894531 400.519531 227.460938 400.664062 227.011719 400.742188 C 226.566406 400.820312 226.105469 400.871094 225.65625 400.871094 C 224.5 400.871094 223.59375 400.542969 222.921875 399.886719 C 222.25 399.230469 221.921875 398.324219 221.921875 397.183594 C 221.921875 396.015625 222.238281 395.082031 222.867188 394.386719 C 223.5 393.703125 224.367188 393.347656 225.449219 393.347656 C 226.421875 393.347656 227.183594 393.664062 227.75 394.28125 C 228.300781 394.910156 228.59375 395.75 228.59375 396.816406 Z M 227.40625 396.472656 C 227.394531 395.832031 227.210938 395.316406 226.867188 394.925781 C 226.511719 394.542969 226.039062 394.347656 225.460938 394.347656 C 224.800781 394.347656 224.277344 394.542969 223.882812 394.910156 C 223.488281 395.277344 223.25 395.804688 223.199219 396.472656 Z M 227.40625 396.472656 "/>
<path style=" stroke:none;fill-rule:nonzero;fill:rgb(0%,0%,0%);fill-opacity:1;" d="M 234.605469 390.722656 L 237.328125 390.722656 L 237.328125 391.640625 L 235.789062 391.640625 L 235.789062 401.503906 L 237.328125 401.503906 L 237.328125 402.421875 L 234.605469 402.421875 Z M 234.605469 390.722656 "/>
<path style=" stroke:none;fill-rule:nonzero;fill:rgb(0%,0%,0%);fill-opacity:1;" d="M 244.433594 393.730469 L 244.433594 394.84375 C 244.09375 394.6875 243.75 394.554688 243.394531 394.464844 C 243.027344 394.386719 242.65625 394.332031 242.277344 394.332031 C 241.683594 394.332031 241.238281 394.425781 240.949219 394.609375 C 240.65625 394.792969 240.511719 395.054688 240.511719 395.410156 C 240.511719 395.6875 240.617188 395.894531 240.828125 396.054688 C 241.039062 396.210938 241.460938 396.367188 242.09375 396.5 L 242.5 396.59375 C 243.34375 396.777344 243.933594 397.039062 244.289062 397.355469 C 244.632812 397.683594 244.816406 398.140625 244.816406 398.71875 C 244.816406 399.390625 244.550781 399.914062 244.027344 400.296875 C 243.5 400.6875 242.761719 400.871094 241.84375 400.871094 C 241.449219 400.871094 241.050781 400.832031 240.632812 400.769531 C 240.210938 400.703125 239.777344 400.597656 239.316406 400.4375 L 239.316406 399.21875 C 239.75 399.453125 240.183594 399.625 240.605469 399.730469 C 241.027344 399.847656 241.449219 399.902344 241.867188 399.902344 C 242.421875 399.902344 242.855469 399.808594 243.15625 399.625 C 243.449219 399.441406 243.605469 399.164062 243.605469 398.8125 C 243.605469 398.496094 243.488281 398.246094 243.277344 398.074219 C 243.066406 397.90625 242.59375 397.734375 241.855469 397.578125 L 241.449219 397.484375 C 240.710938 397.328125 240.171875 397.089844 239.855469 396.777344 C 239.527344 396.460938 239.367188 396.027344 239.367188 395.460938 C 239.367188 394.792969 239.605469 394.269531 240.078125 393.898438 C 240.550781 393.53125 241.238281 393.347656 242.132812 393.347656 C 242.566406 393.347656 242.972656 393.386719 243.367188 393.453125 C 243.75 393.519531 244.105469 393.609375 244.433594 393.730469 Z M 244.433594 393.730469 "/>
<path style=" stroke:none;fill-rule:nonzero;fill:rgb(0%,0%,0%);fill-opacity:1;" d="M 249.460938 390.722656 L 249.460938 402.421875 L 246.738281 402.421875 L 246.738281 401.503906 L 248.277344 401.503906 L 248.277344 391.640625 L 246.738281 391.640625 L 246.738281 390.722656 Z M 249.460938 390.722656 "/>
<path style="fill:none;stroke-width:0.8;stroke-linecap:butt;stroke-linejoin:round;stroke:rgb(0%,0%,0%);stroke-opacity:1;stroke-miterlimit:4;" d="M 37.103438 226.239393 L 33.603281 226.239393 " transform="matrix(1.315789,0,0,1.313131,0,13)"/>
<path style=" stroke:none;fill-rule:nonzero;fill:rgb(0%,0%,0%);fill-opacity:1;" d="M 20.3125 313.980469 L 22.429688 313.980469 L 22.429688 306.679688 L 20.128906 307.136719 L 20.128906 305.957031 L 22.417969 305.496094 L 23.722656 305.496094 L 23.722656 313.980469 L 25.839844 313.980469 L 25.839844 315.070312 L 20.3125 315.070312 Z M 20.3125 313.980469 "/>
<path style=" stroke:none;fill-rule:nonzero;fill:rgb(0%,0%,0%);fill-opacity:1;" d="M 28.457031 313.441406 L 29.8125 313.441406 L 29.8125 315.070312 L 28.457031 315.070312 Z M 28.457031 313.441406 "/>
<path style=" stroke:none;fill-rule:nonzero;fill:rgb(0%,0%,0%);fill-opacity:1;" d="M 35.417969 306.347656 C 34.746094 306.347656 34.246094 306.679688 33.90625 307.335938 C 33.5625 307.992188 33.40625 308.976562 33.40625 310.289062 C 33.40625 311.601562 33.5625 312.585938 33.90625 313.242188 C 34.246094 313.898438 34.746094 314.226562 35.417969 314.226562 C 36.089844 314.226562 36.589844 313.898438 36.929688 313.242188 C 37.261719 312.585938 37.429688 311.601562 37.429688 310.289062 C 37.429688 308.976562 37.261719 307.992188 36.929688 307.335938 C 36.589844 306.679688 36.089844 306.347656 35.417969 306.347656 Z M 35.417969 305.324219 C 36.484375 305.324219 37.300781 305.757812 37.878906 306.597656 C 38.445312 307.453125 38.734375 308.6875 38.734375 310.289062 C 38.734375 311.902344 38.445312 313.136719 37.878906 313.980469 C 37.300781 314.820312 36.484375 315.238281 35.40625 315.238281 C 34.328125 315.238281 33.511719 314.820312 32.945312 313.980469 C 32.378906 313.136719 32.101562 311.902344 32.101562 310.289062 C 32.101562 308.6875 32.378906 307.453125 32.945312 306.597656 C 33.511719 305.757812 34.339844 305.324219 35.417969 305.324219 Z M 35.417969 305.324219 "/>
<path style="fill:none;stroke-width:0.8;stroke-linecap:butt;stroke-linejoin:round;stroke:rgb(0%,0%,0%);stroke-opacity:1;stroke-miterlimit:4;" d="M 37.103438 183.584315 L 33.603281 183.584315 " transform="matrix(1.315789,0,0,1.313131,0,13)"/>
<path style=" stroke:none;fill-rule:nonzero;fill:rgb(0%,0%,0%);fill-opacity:1;" d="M 20.3125 257.96875 L 22.429688 257.96875 L 22.429688 250.667969 L 20.128906 251.125 L 20.128906 249.945312 L 22.417969 249.484375 L 23.722656 249.484375 L 23.722656 257.96875 L 25.839844 257.96875 L 25.839844 259.058594 L 20.3125 259.058594 Z M 20.3125 257.96875 "/>
<path style=" stroke:none;fill-rule:nonzero;fill:rgb(0%,0%,0%);fill-opacity:1;" d="M 28.457031 257.429688 L 29.8125 257.429688 L 29.8125 259.058594 L 28.457031 259.058594 Z M 28.457031 257.429688 "/>
<path style=" stroke:none;fill-rule:nonzero;fill:rgb(0%,0%,0%);fill-opacity:1;" d="M 32.65625 249.484375 L 37.746094 249.484375 L 37.746094 250.574219 L 33.839844 250.574219 L 33.839844 252.925781 C 34.023438 252.859375 34.222656 252.808594 34.40625 252.78125 C 34.589844 252.753906 34.785156 252.726562 34.972656 252.726562 C 36.035156 252.726562 36.878906 253.03125 37.511719 253.609375 C 38.140625 254.199219 38.457031 254.988281 38.457031 255.984375 C 38.457031 257.023438 38.128906 257.824219 37.484375 258.386719 C 36.839844 258.953125 35.929688 259.226562 34.773438 259.226562 C 34.367188 259.226562 33.957031 259.1875 33.535156 259.136719 C 33.117188 259.070312 32.695312 258.976562 32.246094 258.832031 L 32.246094 257.535156 C 32.628906 257.742188 33.023438 257.902344 33.445312 258.007812 C 33.851562 258.113281 34.285156 258.152344 34.746094 258.152344 C 35.484375 258.152344 36.078125 257.96875 36.511719 257.574219 C 36.929688 257.179688 37.15625 256.652344 37.15625 255.984375 C 37.15625 255.328125 36.929688 254.800781 36.511719 254.410156 C 36.078125 254.015625 35.484375 253.816406 34.746094 253.816406 C 34.40625 253.816406 34.050781 253.855469 33.707031 253.9375 C 33.367188 254.015625 33.011719 254.132812 32.65625 254.289062 Z M 32.65625 249.484375 "/>
<path style="fill:none;stroke-width:0.8;stroke-linecap:butt;stroke-linejoin:round;stroke:rgb(0%,0%,0%);stroke-opacity:1;stroke-miterlimit:4;" d="M 37.103438 140.932212 L 33.603281 140.932212 " transform="matrix(1.315789,0,0,1.313131,0,13)"/>
<path style=" stroke:none;fill-rule:nonzero;fill:rgb(0%,0%,0%);fill-opacity:1;" d="M 21.207031 201.957031 L 25.734375 201.957031 L 25.734375 203.046875 L 19.640625 203.046875 L 19.640625 201.957031 C 20.128906 201.457031 20.800781 200.773438 21.65625 199.910156 C 22.496094 199.054688 23.035156 198.503906 23.261719 198.253906 C 23.679688 197.792969 23.972656 197.402344 24.128906 197.070312 C 24.285156 196.757812 24.378906 196.429688 24.378906 196.113281 C 24.378906 195.613281 24.195312 195.195312 23.839844 194.878906 C 23.484375 194.5625 23.023438 194.394531 22.445312 194.394531 C 22.035156 194.394531 21.601562 194.472656 21.15625 194.601562 C 20.707031 194.746094 20.222656 194.957031 19.707031 195.246094 L 19.707031 193.933594 C 20.234375 193.722656 20.722656 193.566406 21.167969 193.460938 C 21.617188 193.355469 22.035156 193.304688 22.417969 193.304688 C 23.40625 193.304688 24.195312 193.554688 24.785156 194.050781 C 25.378906 194.550781 25.679688 195.207031 25.679688 196.035156 C 25.679688 196.429688 25.601562 196.808594 25.457031 197.152344 C 25.3125 197.503906 25.050781 197.925781 24.65625 198.398438 C 24.550781 198.53125 24.207031 198.882812 23.628906 199.476562 C 23.050781 200.066406 22.246094 200.894531 21.207031 201.957031 Z M 21.207031 201.957031 "/>
<path style=" stroke:none;fill-rule:nonzero;fill:rgb(0%,0%,0%);fill-opacity:1;" d="M 28.457031 201.417969 L 29.8125 201.417969 L 29.8125 203.046875 L 28.457031 203.046875 Z M 28.457031 201.417969 "/>
<path style=" stroke:none;fill-rule:nonzero;fill:rgb(0%,0%,0%);fill-opacity:1;" d="M 35.417969 194.328125 C 34.746094 194.328125 34.246094 194.65625 33.90625 195.3125 C 33.5625 195.96875 33.40625 196.953125 33.40625 198.265625 C 33.40625 199.582031 33.5625 200.566406 33.90625 201.222656 C 34.246094 201.878906 34.746094 202.207031 35.417969 202.207031 C 36.089844 202.207031 36.589844 201.878906 36.929688 201.222656 C 37.261719 200.566406 37.429688 199.582031 37.429688 198.265625 C 37.429688 196.953125 37.261719 195.96875 36.929688 195.3125 C 36.589844 194.65625 36.089844 194.328125 35.417969 194.328125 Z M 35.417969 193.304688 C 36.484375 193.304688 37.300781 193.738281 37.878906 194.578125 C 38.445312 195.429688 38.734375 196.664062 38.734375 198.265625 C 38.734375 199.882812 38.445312 201.117188 37.878906 201.957031 C 37.300781 202.796875 36.484375 203.21875 35.40625 203.21875 C 34.328125 203.21875 33.511719 202.796875 32.945312 201.957031 C 32.378906 201.117188 32.101562 199.882812 32.101562 198.265625 C 32.101562 196.664062 32.378906 195.429688 32.945312 194.578125 C 33.511719 193.738281 34.339844 193.304688 35.417969 193.304688 Z M 35.417969 193.304688 "/>
<path style="fill:none;stroke-width:0.8;stroke-linecap:butt;stroke-linejoin:round;stroke:rgb(0%,0%,0%);stroke-opacity:1;stroke-miterlimit:4;" d="M 37.103438 98.277133 L 33.603281 98.277133 " transform="matrix(1.315789,0,0,1.313131,0,13)"/>
<path style=" stroke:none;fill-rule:nonzero;fill:rgb(0%,0%,0%);fill-opacity:1;" d="M 21.207031 145.945312 L 25.734375 145.945312 L 25.734375 147.035156 L 19.640625 147.035156 L 19.640625 145.945312 C 20.128906 145.449219 20.800781 144.765625 21.65625 143.898438 C 22.496094 143.042969 23.035156 142.492188 23.261719 142.242188 C 23.679688 141.785156 23.972656 141.390625 24.128906 141.0625 C 24.285156 140.746094 24.378906 140.417969 24.378906 140.101562 C 24.378906 139.605469 24.195312 139.183594 23.839844 138.867188 C 23.484375 138.554688 23.023438 138.382812 22.445312 138.382812 C 22.035156 138.382812 21.601562 138.460938 21.15625 138.59375 C 20.707031 138.738281 20.222656 138.949219 19.707031 139.238281 L 19.707031 137.921875 C 20.234375 137.714844 20.722656 137.554688 21.167969 137.449219 C 21.617188 137.34375 22.035156 137.292969 22.417969 137.292969 C 23.40625 137.292969 24.195312 137.542969 24.785156 138.042969 C 25.378906 138.539062 25.679688 139.195312 25.679688 140.023438 C 25.679688 140.417969 25.601562 140.800781 25.457031 141.140625 C 25.3125 141.496094 25.050781 141.914062 24.65625 142.386719 C 24.550781 142.519531 24.207031 142.875 23.628906 143.464844 C 23.050781 144.054688 22.246094 144.882812 21.207031 145.945312 Z M 21.207031 145.945312 "/>
<path style=" stroke:none;fill-rule:nonzero;fill:rgb(0%,0%,0%);fill-opacity:1;" d="M 28.457031 145.410156 L 29.8125 145.410156 L 29.8125 147.035156 L 28.457031 147.035156 Z M 28.457031 145.410156 "/>
<path style=" stroke:none;fill-rule:nonzero;fill:rgb(0%,0%,0%);fill-opacity:1;" d="M 32.65625 137.464844 L 37.746094 137.464844 L 37.746094 138.554688 L 33.839844 138.554688 L 33.839844 140.902344 C 34.023438 140.839844 34.222656 140.785156 34.40625 140.761719 C 34.589844 140.734375 34.785156 140.707031 34.972656 140.707031 C 36.035156 140.707031 36.878906 141.007812 37.511719 141.585938 C 38.140625 142.179688 38.457031 142.964844 38.457031 143.964844 C 38.457031 145 38.128906 145.800781 37.484375 146.367188 C 36.839844 146.929688 35.929688 147.207031 34.773438 147.207031 C 34.367188 147.207031 33.957031 147.167969 33.535156 147.117188 C 33.117188 147.050781 32.695312 146.957031 32.246094 146.8125 L 32.246094 145.511719 C 32.628906 145.722656 33.023438 145.882812 33.445312 145.984375 C 33.851562 146.089844 34.285156 146.128906 34.746094 146.128906 C 35.484375 146.128906 36.078125 145.945312 36.511719 145.550781 C 36.929688 145.160156 37.15625 144.632812 37.15625 143.964844 C 37.15625 143.308594 36.929688 142.78125 36.511719 142.386719 C 36.078125 141.996094 35.484375 141.796875 34.746094 141.796875 C 34.40625 141.796875 34.050781 141.835938 33.707031 141.914062 C 33.367188 141.996094 33.011719 142.113281 32.65625 142.269531 Z M 32.65625 137.464844 "/>
<path style="fill:none;stroke-width:0.8;stroke-linecap:butt;stroke-linejoin:round;stroke:rgb(0%,0%,0%);stroke-opacity:1;stroke-miterlimit:4;" d="M 37.103438 55.622055 L 33.603281 55.622055 " transform="matrix(1.315789,0,0,1.313131,0,13)"/>
<path style=" stroke:none;fill-rule:nonzero;fill:rgb(0%,0%,0%);fill-opacity:1;" d="M 24.023438 85.867188 C 24.640625 85.996094 25.128906 86.273438 25.472656 86.691406 C 25.8125 87.113281 25.996094 87.636719 25.996094 88.242188 C 25.996094 89.1875 25.667969 89.921875 25.023438 90.433594 C 24.367188 90.949219 23.445312 91.195312 22.246094 91.195312 C 21.839844 91.195312 21.417969 91.15625 20.996094 91.078125 C 20.578125 91.011719 20.128906 90.894531 19.679688 90.738281 L 19.679688 89.488281 C 20.035156 89.699219 20.429688 89.859375 20.867188 89.960938 C 21.285156 90.066406 21.734375 90.121094 22.207031 90.121094 C 23.023438 90.121094 23.640625 89.960938 24.0625 89.648438 C 24.484375 89.332031 24.707031 88.859375 24.707031 88.242188 C 24.707031 87.691406 24.511719 87.246094 24.117188 86.929688 C 23.722656 86.613281 23.167969 86.445312 22.457031 86.445312 L 21.339844 86.445312 L 21.339844 85.378906 L 22.511719 85.378906 C 23.140625 85.378906 23.628906 85.261719 23.972656 85 C 24.3125 84.75 24.484375 84.382812 24.484375 83.894531 C 24.484375 83.410156 24.300781 83.027344 23.957031 82.765625 C 23.601562 82.503906 23.101562 82.371094 22.457031 82.371094 C 22.101562 82.371094 21.722656 82.414062 21.3125 82.492188 C 20.90625 82.570312 20.457031 82.6875 19.972656 82.84375 L 19.972656 81.691406 C 20.457031 81.558594 20.917969 81.453125 21.351562 81.386719 C 21.773438 81.320312 22.179688 81.28125 22.578125 81.28125 C 23.550781 81.28125 24.328125 81.507812 24.90625 81.953125 C 25.484375 82.398438 25.773438 83.003906 25.773438 83.765625 C 25.773438 84.289062 25.617188 84.738281 25.3125 85.105469 C 25.011719 85.472656 24.578125 85.734375 24.023438 85.867188 Z M 24.023438 85.867188 "/>
<path style=" stroke:none;fill-rule:nonzero;fill:rgb(0%,0%,0%);fill-opacity:1;" d="M 28.457031 89.398438 L 29.8125 89.398438 L 29.8125 91.027344 L 28.457031 91.027344 Z M 28.457031 89.398438 "/>
<path style=" stroke:none;fill-rule:nonzero;fill:rgb(0%,0%,0%);fill-opacity:1;" d="M 35.417969 82.308594 C 34.746094 82.308594 34.246094 82.636719 33.90625 83.292969 C 33.5625 83.949219 33.40625 84.933594 33.40625 86.246094 C 33.40625 87.558594 33.5625 88.542969 33.90625 89.199219 C 34.246094 89.859375 34.746094 90.1875 35.417969 90.1875 C 36.089844 90.1875 36.589844 89.859375 36.929688 89.199219 C 37.261719 88.542969 37.429688 87.558594 37.429688 86.246094 C 37.429688 84.933594 37.261719 83.949219 36.929688 83.292969 C 36.589844 82.636719 36.089844 82.308594 35.417969 82.308594 Z M 35.417969 81.28125 C 36.484375 81.28125 37.300781 81.714844 37.878906 82.554688 C 38.445312 83.410156 38.734375 84.644531 38.734375 86.246094 C 38.734375 87.863281 38.445312 89.097656 37.878906 89.9375 C 37.300781 90.777344 36.484375 91.195312 35.40625 91.195312 C 34.328125 91.195312 33.511719 90.777344 32.945312 89.9375 C 32.378906 89.097656 32.101562 87.863281 32.101562 86.246094 C 32.101562 84.644531 32.378906 83.410156 32.945312 82.554688 C 33.511719 81.714844 34.339844 81.28125 35.417969 81.28125 Z M 35.417969 81.28125 "/>
<path style="fill:none;stroke-width:0.8;stroke-linecap:butt;stroke-linejoin:round;stroke:rgb(0%,0%,0%);stroke-opacity:1;stroke-miterlimit:4;" d="M 37.103438 12.966977 L 33.603281 12.966977 " transform="matrix(1.315789,0,0,1.313131,0,13)"/>
<path style=" stroke:none;fill-rule:nonzero;fill:rgb(0%,0%,0%);fill-opacity:1;" d="M 24.023438 29.855469 C 24.640625 29.984375 25.128906 30.261719 25.472656 30.679688 C 25.8125 31.101562 25.996094 31.625 25.996094 32.230469 C 25.996094 33.175781 25.667969 33.910156 25.023438 34.421875 C 24.367188 34.9375 23.445312 35.183594 22.246094 35.183594 C 21.839844 35.183594 21.417969 35.144531 20.996094 35.066406 C 20.578125 35 20.128906 34.882812 19.679688 34.726562 L 19.679688 33.476562 C 20.035156 33.6875 20.429688 33.847656 20.867188 33.949219 C 21.285156 34.054688 21.734375 34.109375 22.207031 34.109375 C 23.023438 34.109375 23.640625 33.949219 24.0625 33.636719 C 24.484375 33.320312 24.707031 32.847656 24.707031 32.230469 C 24.707031 31.679688 24.511719 31.234375 24.117188 30.917969 C 23.722656 30.601562 23.167969 30.433594 22.457031 30.433594 L 21.339844 30.433594 L 21.339844 29.367188 L 22.511719 29.367188 C 23.140625 29.367188 23.628906 29.25 23.972656 28.988281 C 24.3125 28.738281 24.484375 28.371094 24.484375 27.882812 C 24.484375 27.398438 24.300781 27.019531 23.957031 26.753906 C 23.601562 26.492188 23.101562 26.359375 22.457031 26.359375 C 22.101562 26.359375 21.722656 26.402344 21.3125 26.480469 C 20.90625 26.558594 20.457031 26.675781 19.972656 26.832031 L 19.972656 25.679688 C 20.457031 25.546875 20.917969 25.441406 21.351562 25.375 C 21.773438 25.3125 22.179688 25.269531 22.578125 25.269531 C 23.550781 25.269531 24.328125 25.496094 24.90625 25.941406 C 25.484375 26.386719 25.773438 26.992188 25.773438 27.753906 C 25.773438 28.277344 25.617188 28.726562 25.3125 29.09375 C 25.011719 29.460938 24.578125 29.722656 24.023438 29.855469 Z M 24.023438 29.855469 "/>
<path style=" stroke:none;fill-rule:nonzero;fill:rgb(0%,0%,0%);fill-opacity:1;" d="M 28.457031 33.386719 L 29.8125 33.386719 L 29.8125 35.015625 L 28.457031 35.015625 Z M 28.457031 33.386719 "/>
<path style=" stroke:none;fill-rule:nonzero;fill:rgb(0%,0%,0%);fill-opacity:1;" d="M 32.65625 25.441406 L 37.746094 25.441406 L 37.746094 26.53125 L 33.839844 26.53125 L 33.839844 28.882812 C 34.023438 28.816406 34.222656 28.765625 34.40625 28.738281 C 34.589844 28.710938 34.785156 28.683594 34.972656 28.683594 C 36.035156 28.683594 36.878906 28.988281 37.511719 29.566406 C 38.140625 30.15625 38.457031 30.945312 38.457031 31.941406 C 38.457031 32.980469 38.128906 33.78125 37.484375 34.34375 C 36.839844 34.910156 35.929688 35.183594 34.773438 35.183594 C 34.367188 35.183594 33.957031 35.144531 33.535156 35.09375 C 33.117188 35.027344 32.695312 34.9375 32.246094 34.792969 L 32.246094 33.492188 C 32.628906 33.703125 33.023438 33.859375 33.445312 33.964844 C 33.851562 34.070312 34.285156 34.109375 34.746094 34.109375 C 35.484375 34.109375 36.078125 33.925781 36.511719 33.53125 C 36.929688 33.136719 37.15625 32.613281 37.15625 31.941406 C 37.15625 31.285156 36.929688 30.761719 36.511719 30.367188 C 36.078125 29.972656 35.484375 29.773438 34.746094 29.773438 C 34.40625 29.773438 34.050781 29.816406 33.707031 29.894531 C 33.367188 29.972656 33.011719 30.089844 32.65625 30.246094 Z M 32.65625 25.441406 "/>
<path style=" stroke:none;fill-rule:nonzero;fill:rgb(0%,0%,0%);fill-opacity:1;" d="M 1.40625 221.683594 L 2.671875 221.683594 C 2.433594 222.183594 2.261719 222.644531 2.144531 223.078125 C 2.039062 223.523438 1.972656 223.945312 1.972656 224.339844 C 1.972656 225.046875 2.117188 225.597656 2.382812 225.980469 C 2.65625 226.359375 3.050781 226.542969 3.550781 226.542969 C 3.972656 226.542969 4.300781 226.425781 4.511719 226.164062 C 4.738281 225.914062 4.90625 225.429688 5.039062 224.71875 L 5.199219 223.929688 C 5.382812 222.972656 5.710938 222.261719 6.171875 221.804688 C 6.644531 221.34375 7.261719 221.109375 8.039062 221.109375 C 8.972656 221.109375 9.671875 221.421875 10.144531 222.039062 C 10.617188 222.671875 10.855469 223.578125 10.855469 224.769531 C 10.855469 225.230469 10.800781 225.714844 10.710938 226.230469 C 10.617188 226.742188 10.472656 227.265625 10.261719 227.804688 L 8.921875 227.804688 C 9.222656 227.28125 9.449219 226.765625 9.59375 226.269531 C 9.75 225.769531 9.816406 225.269531 9.816406 224.769531 C 9.816406 224.035156 9.671875 223.472656 9.382812 223.0625 C 9.09375 222.671875 8.683594 222.460938 8.132812 222.460938 C 7.65625 222.460938 7.289062 222.605469 7.027344 222.894531 C 6.761719 223.183594 6.566406 223.65625 6.433594 224.3125 L 6.277344 225.097656 C 6.09375 226.070312 5.789062 226.765625 5.367188 227.199219 C 4.960938 227.632812 4.394531 227.84375 3.65625 227.84375 C 2.816406 227.84375 2.144531 227.554688 1.65625 226.949219 C 1.171875 226.359375 0.921875 225.53125 0.921875 224.484375 C 0.921875 224.035156 0.960938 223.589844 1.039062 223.117188 C 1.117188 222.65625 1.25 222.183594 1.40625 221.683594 Z M 1.40625 221.683594 "/>
<path style=" stroke:none;fill-rule:nonzero;fill:rgb(0%,0%,0%);fill-opacity:1;" d="M 9.605469 217.996094 L 13.40625 217.996094 L 13.40625 219.175781 L 3.488281 219.175781 L 3.488281 217.996094 L 4.578125 217.996094 C 4.15625 217.757812 3.84375 217.445312 3.632812 217.0625 C 3.421875 216.683594 3.316406 216.222656 3.316406 215.699219 C 3.316406 214.832031 3.671875 214.121094 4.355469 213.570312 C 5.050781 213.03125 5.960938 212.757812 7.09375 212.757812 C 8.222656 212.757812 9.144531 213.03125 9.828125 213.570312 C 10.511719 214.121094 10.855469 214.832031 10.855469 215.699219 C 10.855469 216.222656 10.75 216.683594 10.550781 217.0625 C 10.355469 217.445312 10.039062 217.757812 9.605469 217.996094 Z M 7.09375 213.976562 C 6.222656 213.976562 5.550781 214.160156 5.050781 214.515625 C 4.550781 214.882812 4.300781 215.371094 4.300781 215.988281 C 4.300781 216.617188 4.550781 217.101562 5.050781 217.457031 C 5.550781 217.824219 6.222656 217.996094 7.09375 217.996094 C 7.960938 217.996094 8.644531 217.824219 9.144531 217.457031 C 9.644531 217.101562 9.882812 216.617188 9.882812 215.988281 C 9.882812 215.371094 9.644531 214.882812 9.144531 214.515625 C 8.644531 214.160156 7.960938 213.976562 7.09375 213.976562 Z M 7.09375 213.976562 "/>
<path style=" stroke:none;fill-rule:nonzero;fill:rgb(0%,0%,0%);fill-opacity:1;" d="M 6.789062 204.652344 L 7.367188 204.652344 L 7.367188 210.078125 C 8.183594 210.023438 8.816406 209.789062 9.238281 209.34375 C 9.65625 208.910156 9.867188 208.304688 9.867188 207.515625 C 9.867188 207.070312 9.816406 206.625 9.710938 206.203125 C 9.605469 205.785156 9.433594 205.351562 9.199219 204.929688 L 10.316406 204.929688 C 10.5 205.351562 10.644531 205.785156 10.722656 206.230469 C 10.800781 206.675781 10.855469 207.136719 10.855469 207.582031 C 10.855469 208.738281 10.527344 209.644531 9.867188 210.3125 C 9.210938 210.984375 8.300781 211.3125 7.15625 211.3125 C 5.988281 211.3125 5.050781 210.996094 4.355469 210.367188 C 3.671875 209.734375 3.316406 208.871094 3.316406 207.792969 C 3.316406 206.820312 3.632812 206.058594 4.25 205.496094 C 4.882812 204.941406 5.722656 204.652344 6.789062 204.652344 Z M 6.449219 205.835938 C 5.800781 205.847656 5.289062 206.03125 4.894531 206.375 C 4.511719 206.730469 4.316406 207.203125 4.316406 207.78125 C 4.316406 208.4375 4.511719 208.960938 4.882812 209.355469 C 5.25 209.75 5.777344 209.984375 6.449219 210.039062 Z M 6.449219 205.835938 "/>
<path style=" stroke:none;fill-rule:nonzero;fill:rgb(0%,0%,0%);fill-opacity:1;" d="M 6.789062 196.578125 L 7.367188 196.578125 L 7.367188 202 C 8.183594 201.949219 8.816406 201.710938 9.238281 201.265625 C 9.65625 200.832031 9.867188 200.230469 9.867188 199.441406 C 9.867188 198.996094 9.816406 198.546875 9.710938 198.128906 C 9.605469 197.707031 9.433594 197.273438 9.199219 196.855469 L 10.316406 196.855469 C 10.5 197.273438 10.644531 197.707031 10.722656 198.152344 C 10.800781 198.601562 10.855469 199.058594 10.855469 199.507812 C 10.855469 200.664062 10.527344 201.566406 9.867188 202.238281 C 9.210938 202.90625 8.300781 203.234375 7.15625 203.234375 C 5.988281 203.234375 5.050781 202.921875 4.355469 202.289062 C 3.671875 201.660156 3.316406 200.792969 3.316406 199.714844 C 3.316406 198.746094 3.632812 197.984375 4.25 197.417969 C 4.882812 196.867188 5.722656 196.578125 6.789062 196.578125 Z M 6.449219 197.761719 C 5.800781 197.773438 5.289062 197.957031 4.894531 198.296875 C 4.511719 198.652344 4.316406 199.125 4.316406 199.703125 C 4.316406 200.359375 4.511719 200.886719 4.882812 201.28125 C 5.25 201.671875 5.777344 201.910156 6.449219 201.960938 Z M 6.449219 197.761719 "/>
<path style=" stroke:none;fill-rule:nonzero;fill:rgb(0%,0%,0%);fill-opacity:1;" d="M 4.578125 189.921875 L 0.683594 189.921875 L 0.683594 188.738281 L 10.683594 188.738281 L 10.683594 189.921875 L 9.605469 189.921875 C 10.039062 190.171875 10.355469 190.484375 10.550781 190.867188 C 10.75 191.246094 10.855469 191.695312 10.855469 192.21875 C 10.855469 193.085938 10.511719 193.792969 9.828125 194.347656 C 9.144531 194.898438 8.222656 195.160156 7.09375 195.160156 C 5.960938 195.160156 5.050781 194.898438 4.355469 194.347656 C 3.671875 193.792969 3.316406 193.085938 3.316406 192.21875 C 3.316406 191.695312 3.421875 191.246094 3.632812 190.867188 C 3.84375 190.484375 4.15625 190.171875 4.578125 189.921875 Z M 7.09375 193.9375 C 7.960938 193.9375 8.644531 193.769531 9.144531 193.414062 C 9.644531 193.058594 9.882812 192.574219 9.882812 191.941406 C 9.882812 191.3125 9.644531 190.828125 9.144531 190.460938 C 8.644531 190.105469 7.960938 189.921875 7.09375 189.921875 C 6.222656 189.921875 5.550781 190.105469 5.050781 190.460938 C 4.550781 190.828125 4.300781 191.3125 4.300781 191.941406 C 4.300781 192.574219 4.550781 193.058594 5.050781 193.414062 C 5.550781 193.769531 6.222656 193.9375 7.09375 193.9375 Z M 7.09375 193.9375 "/>
<path style=" stroke:none;fill-rule:nonzero;fill:rgb(0%,0%,0%);fill-opacity:1;" d="M 0.683594 182.238281 L 0.683594 179.519531 L 1.605469 179.519531 L 1.605469 181.058594 L 11.488281 181.058594 L 11.488281 179.519531 L 12.40625 179.519531 L 12.40625 182.238281 Z M 0.683594 182.238281 "/>
<path style=" stroke:none;fill-rule:nonzero;fill:rgb(0%,0%,0%);fill-opacity:1;" d="M 4.867188 171.417969 C 4.34375 171.128906 3.960938 170.773438 3.699219 170.367188 C 3.449219 169.960938 3.316406 169.476562 3.316406 168.910156 C 3.316406 168.175781 3.578125 167.597656 4.105469 167.191406 C 4.632812 166.785156 5.382812 166.574219 6.34375 166.574219 L 10.683594 166.574219 L 10.683594 167.753906 L 6.382812 167.753906 C 5.699219 167.753906 5.183594 167.886719 4.84375 168.121094 C 4.511719 168.371094 4.34375 168.738281 4.34375 169.238281 C 4.34375 169.855469 4.550781 170.34375 4.960938 170.695312 C 5.367188 171.050781 5.921875 171.222656 6.617188 171.222656 L 10.683594 171.222656 L 10.683594 172.402344 L 6.382812 172.402344 C 5.699219 172.402344 5.183594 172.535156 4.84375 172.769531 C 4.511719 173.019531 4.34375 173.402344 4.34375 173.902344 C 4.34375 174.503906 4.550781 174.992188 4.960938 175.34375 C 5.367188 175.699219 5.921875 175.871094 6.617188 175.871094 L 10.683594 175.871094 L 10.683594 177.050781 L 3.488281 177.050781 L 3.488281 175.871094 L 4.605469 175.871094 C 4.171875 175.609375 3.84375 175.28125 3.632812 174.898438 C 3.421875 174.53125 3.316406 174.085938 3.316406 173.558594 C 3.316406 173.035156 3.449219 172.601562 3.710938 172.234375 C 3.972656 171.867188 4.367188 171.601562 4.867188 171.417969 Z M 4.867188 171.417969 "/>
<path style=" stroke:none;fill-rule:nonzero;fill:rgb(0%,0%,0%);fill-opacity:1;" d="M 1.09375 162.121094 L 1.09375 161.03125 L 11.894531 164.367188 L 11.894531 165.457031 Z M 1.09375 162.121094 "/>
<path style=" stroke:none;fill-rule:nonzero;fill:rgb(0%,0%,0%);fill-opacity:1;" d="M 3.699219 155.214844 L 4.816406 155.214844 C 4.65625 155.554688 4.527344 155.898438 4.433594 156.253906 C 4.355469 156.621094 4.300781 156.988281 4.300781 157.367188 C 4.300781 157.960938 4.394531 158.40625 4.578125 158.695312 C 4.761719 158.984375 5.027344 159.128906 5.382812 159.128906 C 5.65625 159.128906 5.867188 159.023438 6.027344 158.8125 C 6.183594 158.601562 6.34375 158.183594 6.472656 157.550781 L 6.566406 157.144531 C 6.75 156.304688 7.011719 155.714844 7.328125 155.359375 C 7.65625 155.019531 8.117188 154.832031 8.699219 154.832031 C 9.367188 154.832031 9.894531 155.097656 10.277344 155.621094 C 10.671875 156.148438 10.855469 156.882812 10.855469 157.800781 C 10.855469 158.195312 10.816406 158.589844 10.75 159.007812 C 10.683594 159.429688 10.578125 159.863281 10.421875 160.324219 L 9.199219 160.324219 C 9.433594 159.890625 9.605469 159.457031 9.710938 159.035156 C 9.828125 158.617188 9.882812 158.195312 9.882812 157.773438 C 9.882812 157.222656 9.789062 156.789062 9.605469 156.488281 C 9.421875 156.199219 9.144531 156.042969 8.789062 156.042969 C 8.472656 156.042969 8.222656 156.160156 8.050781 156.371094 C 7.882812 156.582031 7.710938 157.054688 7.550781 157.789062 L 7.460938 158.195312 C 7.300781 158.929688 7.066406 159.46875 6.75 159.785156 C 6.433594 160.113281 6 160.269531 5.433594 160.269531 C 4.761719 160.269531 4.238281 160.035156 3.867188 159.5625 C 3.5 159.089844 3.316406 158.40625 3.316406 157.511719 C 3.316406 157.078125 3.355469 156.671875 3.421875 156.277344 C 3.488281 155.898438 3.578125 155.542969 3.699219 155.214844 Z M 3.699219 155.214844 "/>
<path style=" stroke:none;fill-rule:nonzero;fill:rgb(0%,0%,0%);fill-opacity:1;" d="M 0.683594 150.199219 L 12.40625 150.199219 L 12.40625 152.917969 L 11.488281 152.917969 L 11.488281 151.378906 L 1.605469 151.378906 L 1.605469 152.917969 L 0.683594 152.917969 Z M 0.683594 150.199219 "/>
<path style="fill:none;stroke-width:2.5;stroke-linecap:square;stroke-linejoin:round;stroke:rgb(0%,50.196078%,50.196078%);stroke-opacity:1;stroke-miterlimit:4;" d="M 49.201094 254.889303 L 49.886875 228.244381 L 50.109531 223.115895 L 50.531094 204.425481 L 51.552344 172.753215 L 52.707188 145.557963 L 53.648281 129.720343 L 54.179688 122.453005 L 54.402344 119.204567 L 55.349375 110.054207 L 55.726406 106.48747 L 55.97875 104.179056 L 56.201406 103.075421 L 56.465625 99.829958 L 57.439375 92.788702 L 57.656094 90.869982 L 58.226094 87.103936 L 58.549688 84.602163 L 59.259219 80.737951 L 59.472969 79.310066 L 60.004375 76.647656 L 60.238906 76.097326 L 60.39625 74.963942 L 61.031563 72.527614 L 61.343281 71.682782 L 61.699531 70.451232 L 62.590156 68.053576 L 62.979063 67.274189 L 63.765781 65.64997 L 63.964688 65.46256 L 64.012188 65.230529 L 64.620781 64.323227 L 64.822656 63.871064 L 65.039375 63.415925 L 65.33625 63.05598 L 66.122969 61.827404 L 66.396094 61.43771 L 66.746406 60.917127 L 68.174375 59.426773 L 68.875 59.010306 L 69.225313 58.715805 L 69.427188 58.683083 L 69.519219 58.522446 L 69.596406 58.584916 L 70.492969 58.103005 L 70.881875 57.775781 L 71.071875 57.775781 L 71.276719 57.579447 L 74.298906 56.115865 L 74.809531 55.922506 L 76.504688 55.62503 L 76.739219 55.6875 L 77.154844 55.526863 L 78.701563 55.202614 L 78.959844 55.169892 L 79.215156 55.104447 L 79.862344 55.0747 L 80.102813 55.107422 L 80.524375 54.940835 L 81.162656 54.842668 L 81.67625 55.104447 L 83.098281 54.845643 L 83.368438 54.911088 L 83.997813 54.777224 L 84.291719 54.744501 L 85.069531 54.714754 L 85.226875 54.613612 L 85.583125 54.580889 L 86.233281 54.682031 L 86.363906 54.747476 L 87.687969 54.616587 L 88.026406 54.679056 L 91.752188 54.845643 L 91.93625 49.943239 L 91.974844 51.629928 L 92.063906 50.689904 L 92.467656 54.548167 L 92.987188 56.264603 L 93.387969 57.698438 L 94.032188 58.510547 L 94.293438 58.641436 L 94.890156 58.290415 L 95.338438 57.638942 L 96.122188 56.701893 L 97.024688 55.660727 L 98.031094 55.276983 L 98.687188 55.50009 L 98.981094 55.50009 L 99.200781 55.696424 L 101.038438 56.505559 L 101.442188 56.475811 L 101.584688 56.541256 L 101.798438 56.410367 L 101.961719 56.3122 L 102.225938 56.410367 L 102.748438 56.341947 L 103.072031 56.246755 L 103.410469 56.246755 L 103.618281 56.11884 L 104.007188 55.827314 L 104.280313 55.886809 L 104.532656 55.699399 L 104.669219 55.535787 L 105.064063 55.535787 L 105.129375 55.339453 L 105.182813 55.404898 L 105.452969 55.372175 L 105.791406 55.339453 L 106.174375 55.244261 L 106.349531 55.43762 L 106.486094 55.532812 L 107.228281 55.43762 L 107.519219 55.628005 L 107.655781 55.699399 L 108.531563 55.50009 L 108.979844 55.434645 L 109.199531 55.366226 L 109.739844 55.401923 L 110.007031 55.303756 L 110.170313 55.303756 L 110.253438 55.175841 L 110.401875 55.303756 L 110.8175 55.140144 L 111.052031 55.113371 L 112.726406 54.976532 L 113.251875 54.845643 L 113.513125 55.041977 L 113.622969 55.107422 L 114.026719 55.039002 L 114.415625 55.107422 L 114.676875 55.169892 L 114.792656 55.235337 L 115.235 55.039002 L 115.44875 55.169892 L 115.843594 55.300781 L 116.000938 55.169892 L 116.084063 55.297806 L 116.247344 55.169892 L 116.383906 55.235337 L 116.505625 55.104447 L 117.271563 55.422746 L 117.675313 55.297806 L 118.714375 55.232362 L 118.850938 55.169892 L 119.765313 55.363251 L 119.987969 55.297806 L 120.682656 55.366226 L 120.765781 55.169892 L 121.038906 55.232362 L 121.487188 55.036028 L 121.650469 55.166917 L 121.787031 55.036028 L 122.095781 52.733564 L 122.297656 52.308173 L 122.745938 49.928365 L 123.013125 44.023468 L 123.396094 51.150992 L 124.162031 43.282752 L 124.559844 42.196965 L 125.046719 39.495883 L 125.168438 41.420553 L 125.450469 43.731941 L 125.572188 46.421124 L 125.9225 41.21232 L 126.118438 38.91878 L 126.228281 39.486959 L 126.557813 40.563822 L 126.792344 41.33726 L 127.267344 39.406641 L 127.487031 39.028846 L 127.923438 40.245523 L 128.187656 41.123077 L 128.345 41.08738 L 128.508281 41.328335 L 128.968438 39.674369 L 129.116875 38.984225 L 129.609688 50.246665 L 129.740313 50.636358 L 130.155938 47.27488 L 130.271719 47.608053 L 130.461719 47.64375 L 130.752656 48.140535 L 130.954531 48.500481 L 131.162344 48.646244 L 131.287031 48.554026 L 131.506719 48.655168 L 131.779844 49.199549 L 132.234063 50.377554 L 132.364688 50.347806 L 132.753594 51.073648 L 133.246406 51.945252 L 133.382969 51.948227 L 133.819375 52.439062 L 133.923281 52.328996 L 134.012344 52.403365 L 134.668438 52.117788 L 135.098906 51.323528 L 135.345313 50.508444 L 135.547188 50.190144 L 136.363594 46.888161 L 136.669375 45.754778 L 137.052344 43.815234 L 138.7475 35.283624 L 139.24625 36.286118 L 139.350156 36.190925 L 139.492656 36.32479 L 139.831094 36.431881 L 141.279844 37.708053 L 141.541094 37.55634 L 142.0725 37.309435 L 142.226875 37.37488 L 143.494531 39.165685 L 143.993281 40.126532 L 144.227813 40.373438 L 144.402969 40.876172 L 145.305469 42.922806 L 145.715156 44.764183 L 145.976406 46.082001 L 146.772031 48.571875 L 147.437031 50.859465 L 149.07875 55.086599 L 149.242031 55.321605 L 149.559688 56.190234 L 150.209844 57.463431 L 150.955 59.043029 L 151.31125 58.96866 L 151.703125 59.269111 L 151.890156 59.138221 L 152.020781 59.203666 L 152.1425 59.114423 L 152.252344 59.33753 L 152.365156 59.307782 L 152.534375 59.539814 L 152.68875 59.527915 L 152.955938 59.864062 L 153.454688 59.890835 L 153.707031 60.110968 L 154.187969 59.926532 L 154.363125 59.911659 L 154.734219 59.435697 L 155.384375 58.290415 L 155.987031 57.353365 L 159.092344 54.57494 L 159.285313 54.369681 L 159.475313 53.991887 L 159.689063 53.819351 L 159.819688 53.527825 L 160.033438 53.343389 L 160.362969 52.855529 L 160.837969 52.159435 L 161.793906 50.865415 L 162.960625 49.25607 L 163.117969 49.217398 L 163.28125 49.050811 L 163.474219 49.018089 L 163.857188 48.684916 L 165.573125 49.107332 L 165.914531 49.404808 L 166.13125 49.372085 L 166.532031 49.49405 L 168.265781 49.663612 L 168.467656 49.589243 L 168.927813 49.735006 L 169.512656 49.514874 L 171.326563 49.473227 L 171.558125 49.651713 L 171.792656 49.657662 L 173.072188 50.086028 L 175.723281 50.451923 L 176.189375 50.148498 L 176.495156 50.202043 L 177.189844 49.842097 L 177.611406 49.809375 L 177.91125 49.907542 L 178.234844 50.050331 L 178.573281 50.047356 L 179.229375 50.312109 L 182.408906 50.686929 L 183.765625 50.740475 L 184.457344 50.874339 L 184.935313 50.877314 L 185.422188 51.061749 L 185.683438 50.990355 L 185.935781 51.145042 L 186.395938 51.115294 L 187.274688 51.258083 L 187.521094 50.779147 L 187.954531 48.25655 L 188.195 48.000721 L 188.747188 47.923377 L 189.248906 47.658624 L 189.566563 48.211929 L 190.3325 50.829718 L 190.83125 51.597206 L 191.508125 52.605649 L 191.73375 52.602674 L 191.974219 52.430138 L 192.247344 51.96905 L 192.508594 51.853035 L 193.30125 51.034976 L 193.532813 50.954657 L 193.788125 48.794982 L 194.01375 39.998618 L 194.29875 45.133053 L 194.548125 46.822716 L 194.800469 46.626382 L 195.67625 46.795944 L 195.895938 48.003696 L 196.118594 46.977404 L 196.605469 43.916376 L 197.944375 46.504417 L 198.903281 51.811388 L 199.42875 53.102434 L 199.924531 54.491647 L 200.111563 53.075661 L 200.33125 53.536749 L 201.521719 53.271995 L 201.839375 52.96857 L 202.430156 53.426683 L 202.715156 53.254147 L 203.288125 53.325541 L 203.519688 53.319591 L 203.932344 53.655739 L 204.564688 53.03104 L 205.137656 53.263071 L 205.351406 52.403365 L 205.820469 53.164904 L 206.215313 54.149549 L 206.476563 54.066256 L 206.800156 53.536749 L 207.156406 52.522356 L 207.631406 51.225361 L 208.248906 49.755829 L 208.753594 49.235246 L 209.293906 49.532722 L 209.825313 51.148017 L 210.137031 52.697867 L 210.419063 54.470823 L 211.793594 64.78729 L 212.185469 68.666376 L 212.363594 69.886028 L 214.768281 92.583444 L 214.964219 93.588912 L 215.813281 99.883504 L 216.157656 101.659435 L 216.703906 103.979748 L 217.17 105.175601 L 217.377813 105.342187 L 217.820156 106.380379 L 218.131875 106.686779 L 218.324844 106.645132 L 218.514844 102.748197 L 218.975 100.377314 L 219.767656 104.440835 L 220.02 104.934645 L 220.242656 105.62479 L 220.417813 107.35015 L 220.833438 107.995673 L 221.287656 106.990204 L 221.703281 105.145853 L 222.792813 99.443239 L 223.190625 97.646484 L 223.879375 94.868059 L 224.50875 91.923047 L 225.203438 86.880829 L 225.996094 80.140024 L 226.833281 69.314874 L 227.204375 65.519081 L 227.827813 56.579928 L 229.071719 44.314994 L 229.775313 41.236118 L 230.104844 40.358564 L 230.487813 39.855829 L 230.82625 39.573227 L 231.645625 39.23113 L 233.138906 40.644141 L 234.002813 42.741346 L 234.385781 43.31845 L 235.136875 45.448377 L 235.644531 46.311058 L 236.36 48.559976 L 237.33375 54.634435 L 237.612813 56.832782 L 237.787969 57.78768 L 238.455938 63.014333 L 238.957656 66.128906 L 239.631563 68.889483 L 240.073906 70.228125 L 240.412344 71.147326 L 240.857656 71.923738 L 240.961563 72.045703 L 241.338594 71.83152 L 241.593906 71.227644 L 241.801719 70.540475 L 242.481563 66.807151 L 242.716094 65.495282 L 244.455781 54.670132 L 245.331563 50.564964 L 245.50375 50.169321 L 245.773906 49.146004 L 246.370625 47.807362 L 246.554688 47.590204 L 246.679375 47.682422 L 247.130625 46.769171 L 247.718438 45.368059 L 248.950469 43.836058 L 249.104844 43.9372 L 249.431406 43.916376 L 249.573906 44.071064 L 249.73125 43.972897 L 250.143906 44.124609 L 251.450156 43.9253 L 251.75 44.008594 L 252.364531 44.109736 L 252.58125 44.383413 L 255.591563 48.339844 L 255.71625 48.321995 L 255.846875 48.607572 L 255.962656 48.562951 L 256.247656 48.735487 L 256.853281 48.940745 L 257.536094 48.750361 L 257.800313 48.619471 L 257.942813 48.678966 L 259.554844 48.185156 L 259.724063 48.417187 L 260.020938 48.000721 L 260.445469 47.628876 L 260.715625 47.158864 L 261.015469 46.813792 L 262.624531 43.803335 L 262.799688 43.901502 L 262.930313 43.824159 L 263.212344 43.922326 L 263.372656 43.827133 L 264.203906 44.359615 L 264.640313 44.353666 L 264.969844 44.249549 L 265.462656 44.389363 L 265.658594 44.445883 L 266.151406 44.23765 L 266.335469 44.407212 L 267.261719 44.666016 L 267.540781 44.990264 L 268.173125 45.147927 L 268.306719 45.127103 L 268.39875 45.028936 L 268.464063 45.121154 L 268.755 45.037861 L 268.918281 45.183624 L 269.01625 45.141977 L 269.378438 45.368059 L 269.874219 45.540595 L 269.936563 45.490024 L 270.016719 45.73098 L 270.378906 45.864844 L 270.503594 46.016556 L 270.931094 46.108774 L 270.969688 46.198017 L 271.040938 46.067127 L 271.138906 46.284285 L 271.406094 46.358654 L 272.403594 46.84354 L 272.462969 47.013101 L 272.845938 47.042849 L 274.665781 47.747867 L 274.835 47.697296 L 275.04875 47.902554 L 275.464375 47.843059 L 275.963125 48.006671 L 276.230313 48.101863 L 276.360938 48.066166 L 276.601406 48.155409 L 277.42375 48.50643 L 279.216875 48.946695 L 279.353438 49.160877 L 279.626563 49.009165 L 280.276719 49.264994 L 280.769531 49.654688 L 281.241563 49.675511 L 281.585938 49.877794 L 281.995625 49.871845 L 282.455781 50.196094 L 282.859531 50.419201 L 283.073281 50.255589 L 283.257344 50.413251 L 283.373125 50.520343 L 283.509688 50.457873 L 283.64625 50.758323 L 283.776875 50.606611 L 284.329063 50.865415 L 284.542813 51.011178 L 284.815938 50.969531 L 285.056406 51.067698 L 285.204844 51.121244 L 285.335469 51.29973 L 285.477969 51.269982 L 285.757031 51.374099 L 286.178594 51.573407 L 286.419063 51.621004 L 286.511094 51.78759 L 286.650625 51.701322 L 286.873281 51.858984 L 287.003906 51.772716 L 289.087969 52.278425 L 289.367031 52.102915 L 289.524375 52.007722 L 289.6075 52.135637 L 290.314063 52.114814 L 290.504063 52.15646 L 290.815781 52.311148 L 290.931563 52.174309 L 291.118594 52.308173 " transform="matrix(1.315789,0,0,1.313131,0,13)"/>
<path style="fill:none;stroke-width:2.5;stroke-linecap:butt;stroke-linejoin:round;stroke:rgb(100%,0%,0%);stroke-opacity:1;stroke-dasharray:9.25,4;stroke-miterlimit:4;" d="M 49.201094 55.622055 L 122.297656 55.622055 L 122.395625 34.296004 L 122.624219 34.296004 L 122.745938 55.622055 L 124.417344 55.622055 L 124.642969 34.296004 L 124.83 55.622055 L 125.046719 55.622055 L 125.168438 34.296004 L 125.450469 34.296004 L 125.572188 55.622055 L 125.702813 34.296004 L 125.824531 34.296004 L 126.011563 55.622055 L 126.118438 55.622055 L 126.228281 34.296004 L 126.459844 34.296004 L 126.557813 12.966977 L 126.792344 12.966977 L 126.89625 34.296004 L 127.487031 34.296004 L 127.590938 55.622055 L 127.694844 34.296004 L 128.187656 34.296004 L 128.345 12.966977 L 128.727969 12.966977 L 128.837813 34.296004 L 129.609688 34.296004 L 129.740313 12.966977 L 137.993438 12.966977 L 138.13 55.622055 L 185.175781 55.622055 L 185.422188 34.296004 L 185.935781 34.296004 L 186.137656 55.622055 L 191.73375 55.622055 L 191.974219 34.296004 L 192.247344 55.622055 L 291.118594 55.622055 " transform="matrix(1.315789,0,0,1.313131,0,13)"/>
<path style="fill:none;stroke-width:0.8;stroke-linecap:square;stroke-linejoin:miter;stroke:rgb(0%,0%,0%);stroke-opacity:1;stroke-miterlimit:10;" d="M 37.103438 266.984675 L 37.103438 0.871605 M 303.21625 266.984675 L 303.21625 0.871605 M 37.103438 266.984675 L 303.21625 266.984675 M 37.103438 0.871605 L 303.21625 0.871605 " transform="matrix(1.315789,0,0,1.313131,0,13)"/>
<path style="fill-rule:nonzero;fill:rgb(100%,100%,100%);fill-opacity:0.8;stroke-width:1;stroke-linecap:butt;stroke-linejoin:miter;stroke:rgb(83.529412%,83.921569%,83.529412%);stroke-opacity:0.8;stroke-miterlimit:10;" d="M 167.372188 261.984105 L 296.215938 261.984105 C 297.548906 261.984105 298.216875 261.317758 298.216875 259.985066 L 298.216875 231.638582 C 298.216875 230.305889 297.548906 229.639543 296.215938 229.639543 L 167.372188 229.639543 C 166.039219 229.639543 165.37125 230.305889 165.37125 231.638582 L 165.37125 259.985066 C 165.37125 261.317758 166.039219 261.984105 167.372188 261.984105 Z M 167.372188 261.984105 " transform="matrix(1.315789,0,0,1.313131,0,13)"/>
<path style="fill:none;stroke-width:2.5;stroke-linecap:square;stroke-linejoin:round;stroke:rgb(0%,50.196078%,50.196078%);stroke-opacity:1;stroke-miterlimit:4;" d="M 169.373125 237.733864 L 189.370625 237.733864 " transform="matrix(1.315789,0,0,1.313131,0,13)"/>
<path style=" stroke:none;fill-rule:nonzero;fill:rgb(0%,0%,0%);fill-opacity:1;" d="M 268.171875 320.933594 L 268.171875 322.300781 C 267.726562 321.90625 267.265625 321.605469 266.765625 321.394531 C 266.265625 321.195312 265.753906 321.09375 265.199219 321.09375 C 264.09375 321.09375 263.253906 321.433594 262.671875 322.101562 C 262.09375 322.773438 261.804688 323.730469 261.804688 324.992188 C 261.804688 326.253906 262.09375 327.222656 262.671875 327.894531 C 263.253906 328.5625 264.09375 328.890625 265.199219 328.890625 C 265.753906 328.890625 266.265625 328.800781 266.765625 328.589844 C 267.265625 328.394531 267.726562 328.089844 268.171875 327.683594 L 268.171875 329.035156 C 267.714844 329.351562 267.226562 329.574219 266.726562 329.71875 C 266.226562 329.863281 265.6875 329.941406 265.121094 329.941406 C 263.671875 329.941406 262.527344 329.507812 261.6875 328.628906 C 260.84375 327.75 260.4375 326.542969 260.4375 324.992188 C 260.4375 323.457031 260.84375 322.246094 261.6875 321.355469 C 262.527344 320.476562 263.671875 320.027344 265.121094 320.027344 C 265.699219 320.027344 266.238281 320.105469 266.738281 320.25 C 267.238281 320.410156 267.726562 320.632812 268.171875 320.933594 Z M 268.171875 320.933594 "/>
<path style=" stroke:none;fill-rule:nonzero;fill:rgb(0%,0%,0%);fill-opacity:1;" d="M 270.003906 326.9375 L 270.003906 322.589844 L 271.1875 322.589844 L 271.1875 326.894531 C 271.1875 327.578125 271.320312 328.078125 271.582031 328.417969 C 271.84375 328.761719 272.238281 328.929688 272.777344 328.929688 C 273.410156 328.929688 273.921875 328.734375 274.292969 328.328125 C 274.660156 327.921875 274.84375 327.367188 274.84375 326.660156 L 274.84375 322.589844 L 276.027344 322.589844 L 276.027344 329.773438 L 274.84375 329.773438 L 274.84375 328.667969 C 274.554688 329.117188 274.214844 329.429688 273.84375 329.640625 C 273.464844 329.835938 273.027344 329.941406 272.527344 329.941406 C 271.699219 329.941406 271.070312 329.691406 270.648438 329.179688 C 270.214844 328.683594 270.003906 327.933594 270.003906 326.9375 Z M 272.976562 322.417969 Z M 272.976562 322.417969 "/>
<path style=" stroke:none;fill-rule:nonzero;fill:rgb(0%,0%,0%);fill-opacity:1;" d="M 282.632812 323.691406 C 282.503906 323.613281 282.359375 323.5625 282.199219 323.519531 C 282.042969 323.496094 281.871094 323.46875 281.6875 323.46875 C 281.015625 323.46875 280.503906 323.691406 280.148438 324.125 C 279.777344 324.558594 279.609375 325.175781 279.609375 325.988281 L 279.609375 329.773438 L 278.421875 329.773438 L 278.421875 322.589844 L 279.609375 322.589844 L 279.609375 323.707031 C 279.84375 323.273438 280.171875 322.945312 280.570312 322.734375 C 280.964844 322.523438 281.449219 322.417969 282.027344 322.417969 C 282.109375 322.417969 282.199219 322.429688 282.304688 322.429688 C 282.398438 322.445312 282.503906 322.457031 282.632812 322.484375 Z M 282.632812 323.691406 "/>
<path style=" stroke:none;fill-rule:nonzero;fill:rgb(0%,0%,0%);fill-opacity:1;" d="M 287.816406 323.691406 C 287.683594 323.613281 287.539062 323.5625 287.382812 323.519531 C 287.222656 323.496094 287.050781 323.46875 286.867188 323.46875 C 286.199219 323.46875 285.683594 323.691406 285.328125 324.125 C 284.960938 324.558594 284.789062 325.175781 284.789062 325.988281 L 284.789062 329.773438 L 283.605469 329.773438 L 283.605469 322.589844 L 284.789062 322.589844 L 284.789062 323.707031 C 285.027344 323.273438 285.355469 322.945312 285.75 322.734375 C 286.144531 322.523438 286.632812 322.417969 287.210938 322.417969 C 287.289062 322.417969 287.382812 322.429688 287.488281 322.429688 C 287.578125 322.445312 287.683594 322.457031 287.816406 322.484375 Z M 287.816406 323.691406 "/>
<path style=" stroke:none;fill-rule:nonzero;fill:rgb(0%,0%,0%);fill-opacity:1;" d="M 294.921875 325.886719 L 294.921875 326.460938 L 289.488281 326.460938 C 289.542969 327.277344 289.777344 327.90625 290.226562 328.328125 C 290.660156 328.746094 291.265625 328.957031 292.054688 328.957031 C 292.503906 328.957031 292.949219 328.90625 293.371094 328.800781 C 293.792969 328.695312 294.226562 328.523438 294.648438 328.289062 L 294.648438 329.402344 C 294.226562 329.589844 293.792969 329.734375 293.34375 329.8125 C 292.898438 329.890625 292.4375 329.941406 291.988281 329.941406 C 290.832031 329.941406 289.921875 329.613281 289.253906 328.957031 C 288.582031 328.300781 288.253906 327.394531 288.253906 326.253906 C 288.253906 325.085938 288.570312 324.152344 289.199219 323.457031 C 289.832031 322.773438 290.699219 322.417969 291.777344 322.417969 C 292.753906 322.417969 293.515625 322.734375 294.082031 323.351562 C 294.632812 323.980469 294.921875 324.820312 294.921875 325.886719 Z M 293.738281 325.542969 C 293.726562 324.898438 293.542969 324.386719 293.199219 323.996094 C 292.84375 323.613281 292.371094 323.417969 291.792969 323.417969 C 291.132812 323.417969 290.609375 323.613281 290.214844 323.980469 C 289.820312 324.347656 289.582031 324.875 289.527344 325.542969 Z M 293.738281 325.542969 "/>
<path style=" stroke:none;fill-rule:nonzero;fill:rgb(0%,0%,0%);fill-opacity:1;" d="M 302.84375 325.4375 L 302.84375 329.773438 L 301.660156 329.773438 L 301.660156 325.476562 C 301.660156 324.796875 301.515625 324.296875 301.253906 323.953125 C 300.988281 323.613281 300.59375 323.441406 300.070312 323.441406 C 299.421875 323.441406 298.921875 323.652344 298.554688 324.058594 C 298.1875 324.46875 298.003906 325.019531 298.003906 325.714844 L 298.003906 329.773438 L 296.820312 329.773438 L 296.820312 322.589844 L 298.003906 322.589844 L 298.003906 323.707031 C 298.277344 323.285156 298.609375 322.957031 299.003906 322.746094 C 299.382812 322.535156 299.832031 322.417969 300.332031 322.417969 C 301.148438 322.417969 301.777344 322.679688 302.199219 323.191406 C 302.621094 323.707031 302.84375 324.453125 302.84375 325.4375 Z M 302.84375 325.4375 "/>
<path style=" stroke:none;fill-rule:nonzero;fill:rgb(0%,0%,0%);fill-opacity:1;" d="M 306.371094 320.554688 L 306.371094 322.589844 L 308.804688 322.589844 L 308.804688 323.507812 L 306.371094 323.507812 L 306.371094 327.410156 C 306.371094 328 306.449219 328.378906 306.609375 328.539062 C 306.765625 328.707031 307.09375 328.785156 307.59375 328.785156 L 308.804688 328.785156 L 308.804688 329.773438 L 307.59375 329.773438 C 306.671875 329.773438 306.042969 329.601562 305.699219 329.261719 C 305.359375 328.917969 305.1875 328.300781 305.1875 327.410156 L 305.1875 323.507812 L 304.320312 323.507812 L 304.320312 322.589844 L 305.1875 322.589844 L 305.1875 320.554688 Z M 306.371094 320.554688 "/>
<path style=" stroke:none;fill-rule:nonzero;fill:rgb(0%,0%,0%);fill-opacity:1;" d="M 319.132812 322.800781 L 319.132812 323.914062 C 318.792969 323.757812 318.449219 323.625 318.09375 323.535156 C 317.726562 323.457031 317.359375 323.402344 316.976562 323.402344 C 316.382812 323.402344 315.9375 323.496094 315.648438 323.679688 C 315.359375 323.863281 315.214844 324.125 315.214844 324.480469 C 315.214844 324.753906 315.320312 324.964844 315.527344 325.125 C 315.738281 325.28125 316.160156 325.4375 316.792969 325.570312 L 317.199219 325.660156 C 318.042969 325.84375 318.632812 326.109375 318.988281 326.421875 C 319.332031 326.75 319.515625 327.210938 319.515625 327.789062 C 319.515625 328.457031 319.253906 328.984375 318.726562 329.363281 C 318.199219 329.757812 317.464844 329.941406 316.542969 329.941406 C 316.148438 329.941406 315.753906 329.902344 315.332031 329.835938 C 314.910156 329.773438 314.476562 329.667969 314.015625 329.507812 L 314.015625 328.289062 C 314.449219 328.523438 314.882812 328.695312 315.304688 328.800781 C 315.726562 328.917969 316.148438 328.972656 316.570312 328.972656 C 317.121094 328.972656 317.554688 328.878906 317.859375 328.695312 C 318.148438 328.511719 318.304688 328.234375 318.304688 327.882812 C 318.304688 327.566406 318.1875 327.316406 317.976562 327.144531 C 317.765625 326.976562 317.292969 326.804688 316.554688 326.648438 L 316.148438 326.554688 C 315.410156 326.398438 314.871094 326.160156 314.554688 325.84375 C 314.226562 325.53125 314.070312 325.097656 314.070312 324.53125 C 314.070312 323.863281 314.304688 323.335938 314.777344 322.96875 C 315.253906 322.601562 315.9375 322.417969 316.832031 322.417969 C 317.265625 322.417969 317.671875 322.457031 318.070312 322.523438 C 318.449219 322.589844 318.804688 322.679688 319.132812 322.800781 Z M 319.132812 322.800781 "/>
<path style=" stroke:none;fill-rule:nonzero;fill:rgb(0%,0%,0%);fill-opacity:1;" d="M 322.542969 328.695312 L 322.542969 332.488281 L 321.359375 332.488281 L 321.359375 322.589844 L 322.542969 322.589844 L 322.542969 323.679688 C 322.777344 323.257812 323.09375 322.945312 323.476562 322.734375 C 323.859375 322.523438 324.320312 322.417969 324.84375 322.417969 C 325.714844 322.417969 326.421875 322.773438 326.976562 323.457031 C 327.515625 324.152344 327.792969 325.058594 327.792969 326.1875 C 327.792969 327.316406 327.515625 328.234375 326.976562 328.917969 C 326.421875 329.601562 325.714844 329.941406 324.84375 329.941406 C 324.320312 329.941406 323.859375 329.835938 323.476562 329.640625 C 323.09375 329.445312 322.777344 329.128906 322.542969 328.695312 Z M 326.570312 326.1875 C 326.570312 325.320312 326.382812 324.652344 326.027344 324.152344 C 325.660156 323.652344 325.171875 323.402344 324.554688 323.402344 C 323.921875 323.402344 323.4375 323.652344 323.082031 324.152344 C 322.714844 324.652344 322.542969 325.320312 322.542969 326.1875 C 322.542969 327.054688 322.714844 327.738281 323.082031 328.234375 C 323.4375 328.734375 323.921875 328.972656 324.554688 328.972656 C 325.171875 328.972656 325.660156 328.734375 326.027344 328.234375 C 326.382812 327.738281 326.570312 327.054688 326.570312 326.1875 Z M 326.570312 326.1875 "/>
<path style=" stroke:none;fill-rule:nonzero;fill:rgb(0%,0%,0%);fill-opacity:1;" d="M 335.910156 325.886719 L 335.910156 326.460938 L 330.476562 326.460938 C 330.527344 327.277344 330.765625 327.90625 331.214844 328.328125 C 331.648438 328.746094 332.253906 328.957031 333.042969 328.957031 C 333.488281 328.957031 333.9375 328.90625 334.359375 328.800781 C 334.777344 328.695312 335.214844 328.523438 335.632812 328.289062 L 335.632812 329.402344 C 335.214844 329.589844 334.777344 329.734375 334.332031 329.8125 C 333.882812 329.890625 333.421875 329.941406 332.976562 329.941406 C 331.820312 329.941406 330.910156 329.613281 330.238281 328.957031 C 329.570312 328.300781 329.238281 327.394531 329.238281 326.253906 C 329.238281 325.085938 329.554688 324.152344 330.1875 323.457031 C 330.820312 322.773438 331.6875 322.417969 332.765625 322.417969 C 333.738281 322.417969 334.503906 322.734375 335.070312 323.351562 C 335.621094 323.980469 335.910156 324.820312 335.910156 325.886719 Z M 334.726562 325.542969 C 334.714844 324.898438 334.527344 324.386719 334.1875 323.996094 C 333.832031 323.613281 333.359375 323.417969 332.777344 323.417969 C 332.121094 323.417969 331.59375 323.613281 331.199219 323.980469 C 330.804688 324.347656 330.570312 324.875 330.515625 325.542969 Z M 334.726562 325.542969 "/>
<path style=" stroke:none;fill-rule:nonzero;fill:rgb(0%,0%,0%);fill-opacity:1;" d="M 344.003906 325.886719 L 344.003906 326.460938 L 338.570312 326.460938 C 338.621094 327.277344 338.859375 327.90625 339.304688 328.328125 C 339.738281 328.746094 340.34375 328.957031 341.132812 328.957031 C 341.582031 328.957031 342.027344 328.90625 342.449219 328.800781 C 342.871094 328.695312 343.304688 328.523438 343.726562 328.289062 L 343.726562 329.402344 C 343.304688 329.589844 342.871094 329.734375 342.421875 329.8125 C 341.976562 329.890625 341.515625 329.941406 341.070312 329.941406 C 339.910156 329.941406 339.003906 329.613281 338.332031 328.957031 C 337.660156 328.300781 337.332031 327.394531 337.332031 326.253906 C 337.332031 325.085938 337.648438 324.152344 338.277344 323.457031 C 338.910156 322.773438 339.777344 322.417969 340.859375 322.417969 C 341.832031 322.417969 342.59375 322.734375 343.160156 323.351562 C 343.714844 323.980469 344.003906 324.820312 344.003906 325.886719 Z M 342.820312 325.542969 C 342.804688 324.898438 342.621094 324.386719 342.277344 323.996094 C 341.921875 323.613281 341.449219 323.417969 340.871094 323.417969 C 340.214844 323.417969 339.6875 323.613281 339.292969 323.980469 C 338.898438 324.347656 338.660156 324.875 338.609375 325.542969 Z M 342.820312 325.542969 "/>
<path style=" stroke:none;fill-rule:nonzero;fill:rgb(0%,0%,0%);fill-opacity:1;" d="M 350.671875 323.679688 L 350.671875 319.792969 L 351.859375 319.792969 L 351.859375 329.773438 L 350.671875 329.773438 L 350.671875 328.695312 C 350.421875 329.128906 350.109375 329.445312 349.726562 329.640625 C 349.34375 329.835938 348.898438 329.941406 348.371094 329.941406 C 347.503906 329.941406 346.792969 329.601562 346.238281 328.917969 C 345.6875 328.234375 345.421875 327.316406 345.421875 326.1875 C 345.421875 325.058594 345.6875 324.152344 346.238281 323.457031 C 346.792969 322.773438 347.503906 322.417969 348.371094 322.417969 C 348.898438 322.417969 349.34375 322.523438 349.726562 322.734375 C 350.109375 322.945312 350.421875 323.257812 350.671875 323.679688 Z M 346.648438 326.1875 C 346.648438 327.054688 346.820312 327.738281 347.171875 328.234375 C 347.527344 328.734375 348.015625 328.972656 348.648438 328.972656 C 349.277344 328.972656 349.765625 328.734375 350.132812 328.234375 C 350.488281 327.738281 350.671875 327.054688 350.671875 326.1875 C 350.671875 325.320312 350.488281 324.652344 350.132812 324.152344 C 349.765625 323.652344 349.277344 323.402344 348.648438 323.402344 C 348.015625 323.402344 347.527344 323.652344 347.171875 324.152344 C 346.820312 324.652344 346.648438 325.320312 346.648438 326.1875 Z M 346.648438 326.1875 "/>
<path style=" stroke:none;fill-rule:nonzero;fill:rgb(0%,0%,0%);fill-opacity:1;" d="M 361.320312 319.804688 C 360.738281 320.804688 360.320312 321.773438 360.042969 322.734375 C 359.753906 323.691406 359.621094 324.664062 359.621094 325.648438 C 359.621094 326.648438 359.753906 327.617188 360.042969 328.578125 C 360.320312 329.546875 360.738281 330.507812 361.320312 331.492188 L 360.292969 331.492188 C 359.648438 330.480469 359.160156 329.507812 358.84375 328.539062 C 358.527344 327.566406 358.371094 326.605469 358.371094 325.648438 C 358.371094 324.703125 358.527344 323.746094 358.84375 322.773438 C 359.160156 321.800781 359.632812 320.816406 360.292969 319.804688 Z M 361.320312 319.804688 "/>
<path style=" stroke:none;fill-rule:nonzero;fill:rgb(0%,0%,0%);fill-opacity:1;" d="M 367.554688 321.078125 C 366.609375 321.078125 365.859375 321.433594 365.304688 322.128906 C 364.753906 322.839844 364.476562 323.785156 364.476562 324.992188 C 364.476562 326.199219 364.753906 327.160156 365.304688 327.855469 C 365.859375 328.5625 366.609375 328.90625 367.554688 328.90625 C 368.488281 328.90625 369.238281 328.5625 369.792969 327.855469 C 370.34375 327.160156 370.621094 326.199219 370.621094 324.992188 C 370.621094 323.785156 370.34375 322.839844 369.792969 322.128906 C 369.238281 321.433594 368.488281 321.078125 367.554688 321.078125 Z M 367.554688 320.027344 C 368.898438 320.027344 369.964844 320.488281 370.777344 321.382812 C 371.582031 322.273438 371.988281 323.480469 371.988281 324.992188 C 371.988281 326.515625 371.582031 327.710938 370.777344 328.601562 C 369.964844 329.496094 368.898438 329.941406 367.554688 329.941406 C 366.199219 329.941406 365.121094 329.496094 364.320312 328.601562 C 363.503906 327.710938 363.109375 326.515625 363.109375 324.992188 C 363.109375 323.480469 363.503906 322.273438 364.320312 321.382812 C 365.121094 320.488281 366.199219 320.027344 367.554688 320.027344 Z M 367.554688 320.027344 "/>
<path style=" stroke:none;fill-rule:nonzero;fill:rgb(0%,0%,0%);fill-opacity:1;" d="M 379.765625 320.515625 L 379.765625 321.773438 C 379.265625 321.539062 378.804688 321.367188 378.371094 321.25 C 377.921875 321.144531 377.503906 321.078125 377.109375 321.078125 C 376.398438 321.078125 375.84375 321.222656 375.464844 321.484375 C 375.082031 321.761719 374.898438 322.15625 374.898438 322.65625 C 374.898438 323.074219 375.015625 323.402344 375.277344 323.613281 C 375.527344 323.835938 376.015625 324.007812 376.726562 324.136719 L 377.515625 324.296875 C 378.476562 324.480469 379.1875 324.808594 379.648438 325.269531 C 380.109375 325.742188 380.34375 326.359375 380.34375 327.132812 C 380.34375 328.066406 380.027344 328.761719 379.410156 329.234375 C 378.777344 329.707031 377.871094 329.941406 376.671875 329.941406 C 376.214844 329.941406 375.726562 329.890625 375.214844 329.796875 C 374.699219 329.707031 374.171875 329.5625 373.632812 329.351562 L 373.632812 328.011719 C 374.160156 328.3125 374.671875 328.539062 375.171875 328.683594 C 375.671875 328.839844 376.171875 328.90625 376.671875 328.90625 C 377.410156 328.90625 377.976562 328.761719 378.382812 328.472656 C 378.777344 328.183594 378.988281 327.777344 378.988281 327.222656 C 378.988281 326.75 378.84375 326.382812 378.554688 326.121094 C 378.265625 325.859375 377.792969 325.660156 377.132812 325.53125 L 376.34375 325.371094 C 375.371094 325.1875 374.671875 324.886719 374.238281 324.46875 C 373.804688 324.058594 373.59375 323.496094 373.59375 322.761719 C 373.59375 321.917969 373.882812 321.25 374.488281 320.765625 C 375.082031 320.277344 375.910156 320.027344 376.964844 320.027344 C 377.410156 320.027344 377.859375 320.066406 378.332031 320.148438 C 378.792969 320.226562 379.265625 320.355469 379.765625 320.515625 Z M 379.765625 320.515625 "/>
<path style=" stroke:none;fill-rule:nonzero;fill:rgb(0%,0%,0%);fill-opacity:1;" d="M 382.132812 319.804688 L 383.160156 319.804688 C 383.792969 320.816406 384.277344 321.800781 384.59375 322.773438 C 384.910156 323.746094 385.082031 324.703125 385.082031 325.648438 C 385.082031 326.605469 384.910156 327.566406 384.59375 328.539062 C 384.277344 329.507812 383.792969 330.480469 383.160156 331.492188 L 382.132812 331.492188 C 382.699219 330.507812 383.121094 329.546875 383.410156 328.578125 C 383.6875 327.617188 383.832031 326.648438 383.832031 325.648438 C 383.832031 324.664062 383.6875 323.691406 383.410156 322.734375 C 383.121094 321.773438 382.699219 320.804688 382.132812 319.804688 Z M 382.132812 319.804688 "/>
<path style="fill:none;stroke-width:2.5;stroke-linecap:butt;stroke-linejoin:round;stroke:rgb(100%,0%,0%);stroke-opacity:1;stroke-dasharray:9.25,4;stroke-miterlimit:4;" d="M 169.373125 252.405379 L 189.370625 252.405379 " transform="matrix(1.315789,0,0,1.313131,0,13)"/>
<path style=" stroke:none;fill-rule:nonzero;fill:rgb(0%,0%,0%);fill-opacity:1;" d="M 262.292969 340.527344 L 262.292969 347.972656 L 263.859375 347.972656 C 265.171875 347.972656 266.148438 347.6875 266.765625 347.082031 C 267.371094 346.476562 267.6875 345.53125 267.6875 344.246094 C 267.6875 342.957031 267.371094 342.027344 266.765625 341.421875 C 266.148438 340.832031 265.171875 340.527344 263.859375 340.527344 Z M 260.988281 339.464844 L 263.660156 339.464844 C 265.515625 339.464844 266.882812 339.859375 267.753906 340.621094 C 268.621094 341.394531 269.054688 342.605469 269.054688 344.246094 C 269.054688 345.898438 268.609375 347.109375 267.738281 347.882812 C 266.871094 348.65625 265.503906 349.039062 263.660156 349.039062 L 260.988281 349.039062 Z M 260.988281 339.464844 "/>
<path style=" stroke:none;fill-rule:nonzero;fill:rgb(0%,0%,0%);fill-opacity:1;" d="M 277.226562 345.152344 L 277.226562 345.730469 L 271.792969 345.730469 C 271.84375 346.542969 272.082031 347.171875 272.527344 347.59375 C 272.964844 348.015625 273.570312 348.222656 274.359375 348.222656 C 274.804688 348.222656 275.253906 348.171875 275.671875 348.066406 C 276.09375 347.960938 276.527344 347.789062 276.949219 347.554688 L 276.949219 348.671875 C 276.527344 348.855469 276.09375 349 275.648438 349.078125 C 275.199219 349.15625 274.738281 349.207031 274.292969 349.207031 C 273.132812 349.207031 272.226562 348.878906 271.554688 348.222656 C 270.882812 347.566406 270.554688 346.660156 270.554688 345.519531 C 270.554688 344.351562 270.871094 343.417969 271.503906 342.722656 C 272.132812 342.039062 273.003906 341.683594 274.082031 341.683594 C 275.054688 341.683594 275.820312 342 276.382812 342.617188 C 276.9375 343.246094 277.226562 344.085938 277.226562 345.152344 Z M 276.042969 344.808594 C 276.027344 344.167969 275.84375 343.65625 275.503906 343.261719 C 275.148438 342.878906 274.671875 342.683594 274.09375 342.683594 C 273.4375 342.683594 272.910156 342.878906 272.515625 343.246094 C 272.121094 343.613281 271.882812 344.140625 271.832031 344.808594 Z M 276.042969 344.808594 "/>
<path style=" stroke:none;fill-rule:nonzero;fill:rgb(0%,0%,0%);fill-opacity:1;" d="M 283.753906 342.066406 L 283.753906 343.179688 C 283.410156 343.023438 283.070312 342.894531 282.714844 342.800781 C 282.34375 342.722656 281.976562 342.667969 281.59375 342.667969 C 281.003906 342.667969 280.554688 342.761719 280.265625 342.945312 C 279.976562 343.128906 279.832031 343.390625 279.832031 343.746094 C 279.832031 344.023438 279.9375 344.230469 280.148438 344.390625 C 280.359375 344.546875 280.777344 344.703125 281.410156 344.835938 L 281.820312 344.929688 C 282.660156 345.113281 283.253906 345.375 283.609375 345.691406 C 283.949219 346.019531 284.132812 346.476562 284.132812 347.054688 C 284.132812 347.726562 283.871094 348.25 283.34375 348.632812 C 282.820312 349.023438 282.082031 349.207031 281.160156 349.207031 C 280.765625 349.207031 280.371094 349.167969 279.949219 349.105469 C 279.527344 349.039062 279.09375 348.933594 278.632812 348.777344 L 278.632812 347.554688 C 279.070312 347.789062 279.503906 347.960938 279.921875 348.066406 C 280.34375 348.183594 280.765625 348.238281 281.1875 348.238281 C 281.738281 348.238281 282.171875 348.144531 282.476562 347.960938 C 282.765625 347.777344 282.921875 347.5 282.921875 347.148438 C 282.921875 346.832031 282.804688 346.582031 282.59375 346.410156 C 282.382812 346.242188 281.910156 346.070312 281.171875 345.914062 L 280.765625 345.820312 C 280.027344 345.664062 279.488281 345.425781 279.171875 345.113281 C 278.84375 344.796875 278.6875 344.363281 278.6875 343.796875 C 278.6875 343.128906 278.921875 342.605469 279.398438 342.234375 C 279.871094 341.867188 280.554688 341.683594 281.449219 341.683594 C 281.882812 341.683594 282.292969 341.722656 282.6875 341.789062 C 283.070312 341.855469 283.421875 341.949219 283.753906 342.066406 Z M 283.753906 342.066406 "/>
<path style=" stroke:none;fill-rule:nonzero;fill:rgb(0%,0%,0%);fill-opacity:1;" d="M 286.015625 341.855469 L 287.199219 341.855469 L 287.199219 349.039062 L 286.015625 349.039062 Z M 286.015625 339.058594 L 287.199219 339.058594 L 287.199219 340.554688 L 286.015625 340.554688 Z M 286.015625 339.058594 "/>
<path style=" stroke:none;fill-rule:nonzero;fill:rgb(0%,0%,0%);fill-opacity:1;" d="M 293.84375 342.957031 C 293.714844 342.878906 293.570312 342.828125 293.410156 342.789062 C 293.253906 342.761719 293.082031 342.734375 292.898438 342.734375 C 292.226562 342.734375 291.714844 342.957031 291.359375 343.390625 C 290.988281 343.824219 290.820312 344.441406 290.820312 345.257812 L 290.820312 349.039062 L 289.632812 349.039062 L 289.632812 341.855469 L 290.820312 341.855469 L 290.820312 342.972656 C 291.054688 342.539062 291.382812 342.210938 291.777344 342 C 292.171875 341.789062 292.660156 341.683594 293.238281 341.683594 C 293.320312 341.683594 293.410156 341.699219 293.515625 341.699219 C 293.609375 341.710938 293.714844 341.722656 293.84375 341.75 Z M 293.84375 342.957031 "/>
<path style=" stroke:none;fill-rule:nonzero;fill:rgb(0%,0%,0%);fill-opacity:1;" d="M 300.953125 345.152344 L 300.953125 345.730469 L 295.519531 345.730469 C 295.570312 346.542969 295.808594 347.171875 296.253906 347.59375 C 296.691406 348.015625 297.292969 348.222656 298.085938 348.222656 C 298.53125 348.222656 298.980469 348.171875 299.398438 348.066406 C 299.820312 347.960938 300.253906 347.789062 300.675781 347.554688 L 300.675781 348.671875 C 300.253906 348.855469 299.820312 349 299.375 349.078125 C 298.925781 349.15625 298.464844 349.207031 298.019531 349.207031 C 296.859375 349.207031 295.953125 348.878906 295.28125 348.222656 C 294.609375 347.566406 294.28125 346.660156 294.28125 345.519531 C 294.28125 344.351562 294.597656 343.417969 295.230469 342.722656 C 295.859375 342.039062 296.730469 341.683594 297.808594 341.683594 C 298.78125 341.683594 299.542969 342 300.109375 342.617188 C 300.664062 343.246094 300.953125 344.085938 300.953125 345.152344 Z M 299.769531 344.808594 C 299.753906 344.167969 299.570312 343.65625 299.230469 343.261719 C 298.875 342.878906 298.398438 342.683594 297.820312 342.683594 C 297.164062 342.683594 296.636719 342.878906 296.242188 343.246094 C 295.847656 343.613281 295.609375 344.140625 295.558594 344.808594 Z M 299.769531 344.808594 "/>
<path style=" stroke:none;fill-rule:nonzero;fill:rgb(0%,0%,0%);fill-opacity:1;" d="M 307.625 342.945312 L 307.625 339.058594 L 308.808594 339.058594 L 308.808594 349.039062 L 307.625 349.039062 L 307.625 347.960938 C 307.375 348.394531 307.058594 348.710938 306.675781 348.90625 C 306.292969 349.105469 305.847656 349.207031 305.320312 349.207031 C 304.453125 349.207031 303.742188 348.867188 303.191406 348.183594 C 302.636719 347.5 302.375 346.582031 302.375 345.453125 C 302.375 344.324219 302.636719 343.417969 303.191406 342.722656 C 303.742188 342.039062 304.453125 341.683594 305.320312 341.683594 C 305.847656 341.683594 306.292969 341.789062 306.675781 342 C 307.058594 342.210938 307.375 342.523438 307.625 342.945312 Z M 303.597656 345.453125 C 303.597656 346.320312 303.769531 347.003906 304.125 347.5 C 304.480469 348 304.964844 348.238281 305.597656 348.238281 C 306.230469 348.238281 306.714844 348 307.085938 347.5 C 307.441406 347.003906 307.625 346.320312 307.625 345.453125 C 307.625 344.585938 307.441406 343.917969 307.085938 343.417969 C 306.714844 342.917969 306.230469 342.667969 305.597656 342.667969 C 304.964844 342.667969 304.480469 342.917969 304.125 343.417969 C 303.769531 343.917969 303.597656 344.585938 303.597656 345.453125 Z M 303.597656 345.453125 "/>
<path style=" stroke:none;fill-rule:nonzero;fill:rgb(0%,0%,0%);fill-opacity:1;" d="M 320.015625 342.066406 L 320.015625 343.179688 C 319.675781 343.023438 319.332031 342.894531 318.976562 342.800781 C 318.609375 342.722656 318.242188 342.667969 317.859375 342.667969 C 317.265625 342.667969 316.820312 342.761719 316.53125 342.945312 C 316.242188 343.128906 316.097656 343.390625 316.097656 343.746094 C 316.097656 344.023438 316.203125 344.230469 316.410156 344.390625 C 316.621094 344.546875 317.042969 344.703125 317.675781 344.835938 L 318.082031 344.929688 C 318.925781 345.113281 319.515625 345.375 319.871094 345.691406 C 320.214844 346.019531 320.398438 346.476562 320.398438 347.054688 C 320.398438 347.726562 320.136719 348.25 319.609375 348.632812 C 319.082031 349.023438 318.347656 349.207031 317.425781 349.207031 C 317.03125 349.207031 316.636719 349.167969 316.214844 349.105469 C 315.792969 349.039062 315.359375 348.933594 314.898438 348.777344 L 314.898438 347.554688 C 315.332031 347.789062 315.765625 347.960938 316.1875 348.066406 C 316.609375 348.183594 317.03125 348.238281 317.453125 348.238281 C 318.003906 348.238281 318.4375 348.144531 318.742188 347.960938 C 319.03125 347.777344 319.1875 347.5 319.1875 347.148438 C 319.1875 346.832031 319.070312 346.582031 318.859375 346.410156 C 318.648438 346.242188 318.175781 346.070312 317.4375 345.914062 L 317.03125 345.820312 C 316.292969 345.664062 315.753906 345.425781 315.4375 345.113281 C 315.109375 344.796875 314.953125 344.363281 314.953125 343.796875 C 314.953125 343.128906 315.1875 342.605469 315.660156 342.234375 C 316.136719 341.867188 316.820312 341.683594 317.714844 341.683594 C 318.148438 341.683594 318.554688 341.722656 318.953125 341.789062 C 319.332031 341.855469 319.6875 341.949219 320.015625 342.066406 Z M 320.015625 342.066406 "/>
<path style=" stroke:none;fill-rule:nonzero;fill:rgb(0%,0%,0%);fill-opacity:1;" d="M 323.425781 347.960938 L 323.425781 351.757812 L 322.242188 351.757812 L 322.242188 341.855469 L 323.425781 341.855469 L 323.425781 342.945312 C 323.664062 342.523438 323.980469 342.210938 324.359375 342 C 324.742188 341.789062 325.203125 341.683594 325.730469 341.683594 C 326.597656 341.683594 327.308594 342.039062 327.859375 342.722656 C 328.398438 343.417969 328.675781 344.324219 328.675781 345.453125 C 328.675781 346.582031 328.398438 347.5 327.859375 348.183594 C 327.308594 348.867188 326.597656 349.207031 325.730469 349.207031 C 325.203125 349.207031 324.742188 349.105469 324.359375 348.90625 C 323.980469 348.710938 323.664062 348.394531 323.425781 347.960938 Z M 327.453125 345.453125 C 327.453125 344.585938 327.269531 343.917969 326.914062 343.417969 C 326.542969 342.917969 326.058594 342.667969 325.441406 342.667969 C 324.808594 342.667969 324.320312 342.917969 323.964844 343.417969 C 323.597656 343.917969 323.425781 344.585938 323.425781 345.453125 C 323.425781 346.320312 323.597656 347.003906 323.964844 347.5 C 324.320312 348 324.808594 348.238281 325.441406 348.238281 C 326.058594 348.238281 326.542969 348 326.914062 347.5 C 327.269531 347.003906 327.453125 346.320312 327.453125 345.453125 Z M 327.453125 345.453125 "/>
<path style=" stroke:none;fill-rule:nonzero;fill:rgb(0%,0%,0%);fill-opacity:1;" d="M 336.792969 345.152344 L 336.792969 345.730469 L 331.359375 345.730469 C 331.414062 346.542969 331.648438 347.171875 332.097656 347.59375 C 332.53125 348.015625 333.136719 348.222656 333.925781 348.222656 C 334.375 348.222656 334.820312 348.171875 335.242188 348.066406 C 335.664062 347.960938 336.097656 347.789062 336.519531 347.554688 L 336.519531 348.671875 C 336.097656 348.855469 335.664062 349 335.214844 349.078125 C 334.769531 349.15625 334.308594 349.207031 333.859375 349.207031 C 332.703125 349.207031 331.792969 348.878906 331.125 348.222656 C 330.453125 347.566406 330.125 346.660156 330.125 345.519531 C 330.125 344.351562 330.441406 343.417969 331.070312 342.722656 C 331.703125 342.039062 332.570312 341.683594 333.648438 341.683594 C 334.625 341.683594 335.386719 342 335.953125 342.617188 C 336.503906 343.246094 336.792969 344.085938 336.792969 345.152344 Z M 335.609375 344.808594 C 335.597656 344.167969 335.414062 343.65625 335.070312 343.261719 C 334.714844 342.878906 334.242188 342.683594 333.664062 342.683594 C 333.003906 342.683594 332.480469 342.878906 332.085938 343.246094 C 331.691406 343.613281 331.453125 344.140625 331.398438 344.808594 Z M 335.609375 344.808594 "/>
<path style=" stroke:none;fill-rule:nonzero;fill:rgb(0%,0%,0%);fill-opacity:1;" d="M 344.886719 345.152344 L 344.886719 345.730469 L 339.453125 345.730469 C 339.503906 346.542969 339.742188 347.171875 340.1875 347.59375 C 340.621094 348.015625 341.226562 348.222656 342.015625 348.222656 C 342.464844 348.222656 342.910156 348.171875 343.332031 348.066406 C 343.753906 347.960938 344.1875 347.789062 344.609375 347.554688 L 344.609375 348.671875 C 344.1875 348.855469 343.753906 349 343.304688 349.078125 C 342.859375 349.15625 342.398438 349.207031 341.953125 349.207031 C 340.792969 349.207031 339.886719 348.878906 339.214844 348.222656 C 338.542969 347.566406 338.214844 346.660156 338.214844 345.519531 C 338.214844 344.351562 338.53125 343.417969 339.160156 342.722656 C 339.792969 342.039062 340.660156 341.683594 341.742188 341.683594 C 342.714844 341.683594 343.476562 342 344.042969 342.617188 C 344.597656 343.246094 344.886719 344.085938 344.886719 345.152344 Z M 343.703125 344.808594 C 343.6875 344.167969 343.503906 343.65625 343.160156 343.261719 C 342.804688 342.878906 342.332031 342.683594 341.753906 342.683594 C 341.097656 342.683594 340.570312 342.878906 340.175781 343.246094 C 339.78125 343.613281 339.542969 344.140625 339.492188 344.808594 Z M 343.703125 344.808594 "/>
<path style=" stroke:none;fill-rule:nonzero;fill:rgb(0%,0%,0%);fill-opacity:1;" d="M 351.554688 342.945312 L 351.554688 339.058594 L 352.742188 339.058594 L 352.742188 349.039062 L 351.554688 349.039062 L 351.554688 347.960938 C 351.304688 348.394531 350.992188 348.710938 350.609375 348.90625 C 350.226562 349.105469 349.78125 349.207031 349.253906 349.207031 C 348.386719 349.207031 347.675781 348.867188 347.121094 348.183594 C 346.570312 347.5 346.304688 346.582031 346.304688 345.453125 C 346.304688 344.324219 346.570312 343.417969 347.121094 342.722656 C 347.675781 342.039062 348.386719 341.683594 349.253906 341.683594 C 349.78125 341.683594 350.226562 341.789062 350.609375 342 C 350.992188 342.210938 351.304688 342.523438 351.554688 342.945312 Z M 347.53125 345.453125 C 347.53125 346.320312 347.703125 347.003906 348.054688 347.5 C 348.410156 348 348.898438 348.238281 349.53125 348.238281 C 350.160156 348.238281 350.648438 348 351.015625 347.5 C 351.371094 347.003906 351.554688 346.320312 351.554688 345.453125 C 351.554688 344.585938 351.371094 343.917969 351.015625 343.417969 C 350.648438 342.917969 350.160156 342.667969 349.53125 342.667969 C 348.898438 342.667969 348.410156 342.917969 348.054688 343.417969 C 347.703125 343.917969 347.53125 344.585938 347.53125 345.453125 Z M 347.53125 345.453125 "/>
<path style=" stroke:none;fill-rule:nonzero;fill:rgb(0%,0%,0%);fill-opacity:1;" d="M 362.203125 339.070312 C 361.625 340.070312 361.203125 341.042969 360.925781 342 C 360.636719 342.957031 360.503906 343.929688 360.503906 344.914062 C 360.503906 345.914062 360.636719 346.882812 360.925781 347.84375 C 361.203125 348.816406 361.625 349.773438 362.203125 350.757812 L 361.175781 350.757812 C 360.53125 349.746094 360.042969 348.777344 359.730469 347.804688 C 359.414062 346.832031 359.253906 345.875 359.253906 344.914062 C 359.253906 343.96875 359.414062 343.011719 359.730469 342.039062 C 360.042969 341.066406 360.519531 340.082031 361.175781 339.070312 Z M 362.203125 339.070312 "/>
<path style=" stroke:none;fill-rule:nonzero;fill:rgb(0%,0%,0%);fill-opacity:1;" d="M 368.441406 340.34375 C 367.492188 340.34375 366.742188 340.699219 366.191406 341.394531 C 365.636719 342.105469 365.359375 343.050781 365.359375 344.257812 C 365.359375 345.464844 365.636719 346.425781 366.191406 347.121094 C 366.742188 347.832031 367.492188 348.171875 368.441406 348.171875 C 369.375 348.171875 370.125 347.832031 370.675781 347.121094 C 371.230469 346.425781 371.503906 345.464844 371.503906 344.257812 C 371.503906 343.050781 371.230469 342.105469 370.675781 341.394531 C 370.125 340.699219 369.375 340.34375 368.441406 340.34375 Z M 368.441406 339.292969 C 369.78125 339.292969 370.847656 339.753906 371.664062 340.648438 C 372.464844 341.539062 372.875 342.75 372.875 344.257812 C 372.875 345.78125 372.464844 346.976562 371.664062 347.871094 C 370.847656 348.761719 369.78125 349.207031 368.441406 349.207031 C 367.085938 349.207031 366.003906 348.761719 365.203125 347.871094 C 364.386719 346.976562 363.992188 345.78125 363.992188 344.257812 C 363.992188 342.75 364.386719 341.539062 365.203125 340.648438 C 366.003906 339.753906 367.085938 339.292969 368.441406 339.292969 Z M 368.441406 339.292969 "/>
<path style=" stroke:none;fill-rule:nonzero;fill:rgb(0%,0%,0%);fill-opacity:1;" d="M 380.648438 339.78125 L 380.648438 341.042969 C 380.148438 340.804688 379.691406 340.632812 379.253906 340.515625 C 378.808594 340.410156 378.386719 340.34375 377.992188 340.34375 C 377.28125 340.34375 376.730469 340.488281 376.347656 340.753906 C 375.964844 341.027344 375.78125 341.421875 375.78125 341.921875 C 375.78125 342.339844 375.898438 342.667969 376.164062 342.878906 C 376.414062 343.101562 376.898438 343.273438 377.609375 343.40625 L 378.398438 343.5625 C 379.359375 343.746094 380.070312 344.074219 380.53125 344.535156 C 380.992188 345.007812 381.230469 345.625 381.230469 346.398438 C 381.230469 347.332031 380.914062 348.027344 380.292969 348.5 C 379.664062 348.972656 378.753906 349.207031 377.558594 349.207031 C 377.097656 349.207031 376.609375 349.15625 376.097656 349.0625 C 375.585938 348.972656 375.058594 348.828125 374.519531 348.617188 L 374.519531 347.277344 C 375.042969 347.582031 375.558594 347.804688 376.058594 347.949219 C 376.558594 348.105469 377.058594 348.171875 377.558594 348.171875 C 378.292969 348.171875 378.859375 348.027344 379.269531 347.738281 C 379.664062 347.449219 379.875 347.042969 379.875 346.492188 C 379.875 346.019531 379.730469 345.648438 379.441406 345.386719 C 379.148438 345.125 378.675781 344.929688 378.019531 344.796875 L 377.230469 344.640625 C 376.253906 344.457031 375.558594 344.152344 375.125 343.734375 C 374.691406 343.324219 374.480469 342.761719 374.480469 342.027344 C 374.480469 341.1875 374.769531 340.515625 375.375 340.03125 C 375.964844 339.542969 376.792969 339.292969 377.847656 339.292969 C 378.292969 339.292969 378.742188 339.335938 379.214844 339.414062 C 379.675781 339.492188 380.148438 339.621094 380.648438 339.78125 Z M 380.648438 339.78125 "/>
<path style=" stroke:none;fill-rule:nonzero;fill:rgb(0%,0%,0%);fill-opacity:1;" d="M 383.019531 339.070312 L 384.042969 339.070312 C 384.675781 340.082031 385.164062 341.066406 385.480469 342.039062 C 385.792969 343.011719 385.964844 343.96875 385.964844 344.914062 C 385.964844 345.875 385.792969 346.832031 385.480469 347.804688 C 385.164062 348.777344 384.675781 349.746094 384.042969 350.757812 L 383.019531 350.757812 C 383.585938 349.773438 384.003906 348.816406 384.292969 347.84375 C 384.570312 346.882812 384.714844 345.914062 384.714844 344.914062 C 384.714844 343.929688 384.570312 342.957031 384.292969 342 C 384.003906 341.042969 383.585938 340.070312 383.019531 339.070312 Z M 383.019531 339.070312 "/>
</g>
</svg>
