<?xml version="1.0" encoding="UTF-8"?>
<svg xmlns="http://www.w3.org/2000/svg" xmlns:xlink="http://www.w3.org/1999/xlink" width="500px" height="px" viewBox="0 0 499 489" version="1.1">
<g id="surface1">
<path style=" stroke:none;fill-rule:nonzero;fill:rgb(100%,100%,100%);fill-opacity:1;" d="M 0 489.558594 L 498.75 489.558594 L 498.75 0 L 0 0 Z M 0 489.558594 "/>
<path style=" stroke:none;fill-rule:nonzero;fill:rgb(100%,100%,100%);fill-opacity:1;" d="M 68.859375 430.433594 L 487.421875 430.433594 L 487.421875 11.339844 L 68.859375 11.339844 Z M 68.859375 430.433594 "/>
<path style="fill:none;stroke-width:0.8;stroke-linecap:butt;stroke-linejoin:round;stroke:rgb(0%,0%,0%);stroke-opacity:1;stroke-miterlimit:4;" d="M 46.920132 273.312568 L 46.920132 276.812346 " transform="matrix(1.57289,0,0,1.574877,0.00059772,0)"/>
<path style=" stroke:none;fill-rule:nonzero;fill:rgb(0%,0%,0%);fill-opacity:1;" d="M 73.800781 442.960938 C 73 442.960938 72.402344 443.351562 71.992188 444.140625 C 71.582031 444.929688 71.394531 446.109375 71.394531 447.683594 C 71.394531 449.257812 71.582031 450.441406 71.992188 451.226562 C 72.402344 452.015625 73 452.410156 73.800781 452.410156 C 74.601562 452.410156 75.199219 452.015625 75.609375 451.226562 C 76.003906 450.441406 76.207031 449.257812 76.207031 447.683594 C 76.207031 446.109375 76.003906 444.929688 75.609375 444.140625 C 75.199219 443.351562 74.601562 442.960938 73.800781 442.960938 Z M 73.800781 441.730469 C 75.074219 441.730469 76.050781 442.25 76.742188 443.257812 C 77.417969 444.28125 77.765625 445.761719 77.765625 447.683594 C 77.765625 449.621094 77.417969 451.101562 76.742188 452.109375 C 76.050781 453.117188 75.074219 453.621094 73.785156 453.621094 C 72.496094 453.621094 71.519531 453.117188 70.84375 452.109375 C 70.167969 451.101562 69.835938 449.621094 69.835938 447.683594 C 69.835938 445.761719 70.167969 444.28125 70.84375 443.257812 C 71.519531 442.25 72.511719 441.730469 73.800781 441.730469 Z M 73.800781 441.730469 "/>
<path style="fill:none;stroke-width:0.8;stroke-linecap:butt;stroke-linejoin:round;stroke:rgb(0%,0%,0%);stroke-opacity:1;stroke-miterlimit:4;" d="M 104.139663 273.312568 L 104.139663 276.812346 " transform="matrix(1.57289,0,0,1.574877,0.00059772,0)"/>
<path style=" stroke:none;fill-rule:nonzero;fill:rgb(0%,0%,0%);fill-opacity:1;" d="M 155.75 452.109375 L 158.28125 452.109375 L 158.28125 443.351562 L 155.527344 443.902344 L 155.527344 442.488281 L 158.265625 441.9375 L 159.820312 441.9375 L 159.820312 452.109375 L 162.355469 452.109375 L 162.355469 453.417969 L 155.75 453.417969 Z M 155.75 452.109375 "/>
<path style=" stroke:none;fill-rule:nonzero;fill:rgb(0%,0%,0%);fill-opacity:1;" d="M 168.804688 442.960938 C 168 442.960938 167.402344 443.351562 166.996094 444.140625 C 166.585938 444.929688 166.398438 446.109375 166.398438 447.683594 C 166.398438 449.257812 166.585938 450.441406 166.996094 451.226562 C 167.402344 452.015625 168 452.410156 168.804688 452.410156 C 169.605469 452.410156 170.203125 452.015625 170.613281 451.226562 C 171.003906 450.441406 171.210938 449.257812 171.210938 447.683594 C 171.210938 446.109375 171.003906 444.929688 170.613281 444.140625 C 170.203125 443.351562 169.605469 442.960938 168.804688 442.960938 Z M 168.804688 441.730469 C 170.078125 441.730469 171.050781 442.25 171.746094 443.257812 C 172.421875 444.28125 172.765625 445.761719 172.765625 447.683594 C 172.765625 449.621094 172.421875 451.101562 171.746094 452.109375 C 171.050781 453.117188 170.078125 453.621094 168.789062 453.621094 C 167.496094 453.621094 166.523438 453.117188 165.847656 452.109375 C 165.167969 451.101562 164.839844 449.621094 164.839844 447.683594 C 164.839844 445.761719 165.167969 444.28125 165.847656 443.257812 C 166.523438 442.25 167.511719 441.730469 168.804688 441.730469 Z M 168.804688 441.730469 "/>
<path style="fill:none;stroke-width:0.8;stroke-linecap:butt;stroke-linejoin:round;stroke:rgb(0%,0%,0%);stroke-opacity:1;stroke-miterlimit:4;" d="M 161.359194 273.312568 L 161.359194 276.812346 " transform="matrix(1.57289,0,0,1.574877,0.00059772,0)"/>
<path style=" stroke:none;fill-rule:nonzero;fill:rgb(0%,0%,0%);fill-opacity:1;" d="M 246.820312 452.109375 L 252.230469 452.109375 L 252.230469 453.417969 L 244.945312 453.417969 L 244.945312 452.109375 C 245.527344 451.511719 246.332031 450.691406 247.351562 449.652344 C 248.359375 448.628906 249.003906 447.96875 249.273438 447.667969 C 249.777344 447.117188 250.121094 446.644531 250.308594 446.25 C 250.5 445.871094 250.609375 445.480469 250.609375 445.101562 C 250.609375 444.503906 250.390625 444 249.964844 443.621094 C 249.539062 443.242188 248.988281 443.039062 248.296875 443.039062 C 247.808594 443.039062 247.289062 443.132812 246.753906 443.289062 C 246.222656 443.464844 245.640625 443.714844 245.023438 444.0625 L 245.023438 442.488281 C 245.65625 442.234375 246.238281 442.046875 246.769531 441.917969 C 247.304688 441.792969 247.808594 441.730469 248.265625 441.730469 C 249.445312 441.730469 250.390625 442.03125 251.097656 442.628906 C 251.804688 443.226562 252.167969 444.015625 252.167969 445.007812 C 252.167969 445.480469 252.070312 445.9375 251.898438 446.34375 C 251.726562 446.769531 251.410156 447.273438 250.9375 447.839844 C 250.8125 448 250.40625 448.425781 249.710938 449.132812 C 249.019531 449.839844 248.0625 450.832031 246.820312 452.109375 Z M 246.820312 452.109375 "/>
<path style=" stroke:none;fill-rule:nonzero;fill:rgb(0%,0%,0%);fill-opacity:1;" d="M 258.804688 442.960938 C 258 442.960938 257.402344 443.351562 256.996094 444.140625 C 256.585938 444.929688 256.398438 446.109375 256.398438 447.683594 C 256.398438 449.257812 256.585938 450.441406 256.996094 451.226562 C 257.402344 452.015625 258 452.410156 258.804688 452.410156 C 259.605469 452.410156 260.203125 452.015625 260.613281 451.226562 C 261.007812 450.441406 261.210938 449.257812 261.210938 447.683594 C 261.210938 446.109375 261.007812 444.929688 260.613281 444.140625 C 260.203125 443.351562 259.605469 442.960938 258.804688 442.960938 Z M 258.804688 441.730469 C 260.078125 441.730469 261.054688 442.25 261.746094 443.257812 C 262.421875 444.28125 262.765625 445.761719 262.765625 447.683594 C 262.765625 449.621094 262.421875 451.101562 261.746094 452.109375 C 261.054688 453.117188 260.078125 453.621094 258.789062 453.621094 C 257.5 453.621094 256.523438 453.117188 255.847656 452.109375 C 255.171875 451.101562 254.839844 449.621094 254.839844 447.683594 C 254.839844 445.761719 255.171875 444.28125 255.847656 443.257812 C 256.523438 442.25 257.515625 441.730469 258.804688 441.730469 Z M 258.804688 441.730469 "/>
<path style="fill:none;stroke-width:0.8;stroke-linecap:butt;stroke-linejoin:round;stroke:rgb(0%,0%,0%);stroke-opacity:1;stroke-miterlimit:4;" d="M 218.578725 273.312568 L 218.578725 276.812346 " transform="matrix(1.57289,0,0,1.574877,0.00059772,0)"/>
<path style=" stroke:none;fill-rule:nonzero;fill:rgb(0%,0%,0%);fill-opacity:1;" d="M 340.183594 447.226562 C 340.925781 447.382812 341.507812 447.714844 341.914062 448.21875 C 342.324219 448.722656 342.542969 449.351562 342.542969 450.078125 C 342.542969 451.210938 342.152344 452.09375 341.378906 452.707031 C 340.59375 453.320312 339.492188 453.621094 338.0625 453.621094 C 337.574219 453.621094 337.070312 453.574219 336.566406 453.480469 C 336.0625 453.402344 335.53125 453.257812 334.996094 453.070312 L 334.996094 451.574219 C 335.417969 451.824219 335.890625 452.015625 336.410156 452.140625 C 336.914062 452.265625 337.449219 452.328125 338.015625 452.328125 C 338.988281 452.328125 339.730469 452.140625 340.230469 451.761719 C 340.734375 451.386719 341.003906 450.816406 341.003906 450.078125 C 341.003906 449.417969 340.765625 448.878906 340.296875 448.503906 C 339.824219 448.125 339.164062 447.921875 338.3125 447.921875 L 336.976562 447.921875 L 336.976562 446.644531 L 338.375 446.644531 C 339.132812 446.644531 339.714844 446.503906 340.121094 446.1875 C 340.53125 445.886719 340.734375 445.449219 340.734375 444.863281 C 340.734375 444.28125 340.515625 443.824219 340.105469 443.511719 C 339.683594 443.195312 339.085938 443.039062 338.3125 443.039062 C 337.890625 443.039062 337.433594 443.085938 336.945312 443.179688 C 336.457031 443.273438 335.921875 443.414062 335.339844 443.605469 L 335.339844 442.21875 C 335.921875 442.0625 336.472656 441.9375 336.992188 441.855469 C 337.496094 441.777344 337.984375 441.730469 338.453125 441.730469 C 339.617188 441.730469 340.546875 442 341.238281 442.535156 C 341.929688 443.070312 342.277344 443.792969 342.277344 444.707031 C 342.277344 445.335938 342.089844 445.871094 341.726562 446.3125 C 341.363281 446.753906 340.847656 447.070312 340.183594 447.226562 Z M 340.183594 447.226562 "/>
<path style=" stroke:none;fill-rule:nonzero;fill:rgb(0%,0%,0%);fill-opacity:1;" d="M 348.804688 442.960938 C 348.003906 442.960938 347.40625 443.351562 346.996094 444.140625 C 346.585938 444.929688 346.398438 446.109375 346.398438 447.683594 C 346.398438 449.257812 346.585938 450.441406 346.996094 451.226562 C 347.40625 452.015625 348.003906 452.410156 348.804688 452.410156 C 349.605469 452.410156 350.203125 452.015625 350.613281 451.226562 C 351.007812 450.441406 351.210938 449.257812 351.210938 447.683594 C 351.210938 446.109375 351.007812 444.929688 350.613281 444.140625 C 350.203125 443.351562 349.605469 442.960938 348.804688 442.960938 Z M 348.804688 441.730469 C 350.078125 441.730469 351.054688 442.25 351.746094 443.257812 C 352.421875 444.28125 352.769531 445.761719 352.769531 447.683594 C 352.769531 449.621094 352.421875 451.101562 351.746094 452.109375 C 351.054688 453.117188 350.078125 453.621094 348.789062 453.621094 C 347.5 453.621094 346.523438 453.117188 345.847656 452.109375 C 345.171875 451.101562 344.839844 449.621094 344.839844 447.683594 C 344.839844 445.761719 345.171875 444.28125 345.847656 443.257812 C 346.523438 442.25 347.515625 441.730469 348.804688 441.730469 Z M 348.804688 441.730469 "/>
<path style="fill:none;stroke-width:0.8;stroke-linecap:butt;stroke-linejoin:round;stroke:rgb(0%,0%,0%);stroke-opacity:1;stroke-miterlimit:4;" d="M 275.798256 273.312568 L 275.798256 276.812346 " transform="matrix(1.57289,0,0,1.574877,0.00059772,0)"/>
<path style=" stroke:none;fill-rule:nonzero;fill:rgb(0%,0%,0%);fill-opacity:1;" d="M 429.746094 443.289062 L 425.828125 449.417969 L 429.746094 449.417969 Z M 429.335938 441.9375 L 431.285156 441.9375 L 431.285156 449.417969 L 432.921875 449.417969 L 432.921875 450.707031 L 431.285156 450.707031 L 431.285156 453.417969 L 429.746094 453.417969 L 429.746094 450.707031 L 424.570312 450.707031 L 424.570312 449.210938 Z M 429.335938 441.9375 "/>
<path style=" stroke:none;fill-rule:nonzero;fill:rgb(0%,0%,0%);fill-opacity:1;" d="M 438.804688 442.960938 C 438.003906 442.960938 437.40625 443.351562 436.996094 444.140625 C 436.585938 444.929688 436.398438 446.109375 436.398438 447.683594 C 436.398438 449.257812 436.585938 450.441406 436.996094 451.226562 C 437.40625 452.015625 438.003906 452.410156 438.804688 452.410156 C 439.609375 452.410156 440.207031 452.015625 440.613281 451.226562 C 441.007812 450.441406 441.210938 449.257812 441.210938 447.683594 C 441.210938 446.109375 441.007812 444.929688 440.613281 444.140625 C 440.207031 443.351562 439.609375 442.960938 438.804688 442.960938 Z M 438.804688 441.730469 C 440.078125 441.730469 441.054688 442.25 441.746094 443.257812 C 442.421875 444.28125 442.769531 445.761719 442.769531 447.683594 C 442.769531 449.621094 442.421875 451.101562 441.746094 452.109375 C 441.054688 453.117188 440.078125 453.621094 438.789062 453.621094 C 437.5 453.621094 436.523438 453.117188 435.847656 452.109375 C 435.171875 451.101562 434.839844 449.621094 434.839844 447.683594 C 434.839844 445.761719 435.171875 444.28125 435.847656 443.257812 C 436.523438 442.25 437.515625 441.730469 438.804688 441.730469 Z M 438.804688 441.730469 "/>
<path style=" stroke:none;fill-rule:nonzero;fill:rgb(0%,0%,0%);fill-opacity:1;" d="M 246.050781 463.46875 L 255.738281 463.46875 L 255.738281 464.773438 L 251.664062 464.773438 L 251.664062 474.949219 L 250.105469 474.949219 L 250.105469 464.773438 L 246.050781 464.773438 Z M 246.050781 463.46875 "/>
<path style=" stroke:none;fill-rule:nonzero;fill:rgb(0%,0%,0%);fill-opacity:1;" d="M 256.703125 466.332031 L 258.117188 466.332031 L 258.117188 474.949219 L 256.703125 474.949219 Z M 256.703125 462.980469 L 258.117188 462.980469 L 258.117188 464.773438 L 256.703125 464.773438 Z M 256.703125 462.980469 "/>
<path style=" stroke:none;fill-rule:nonzero;fill:rgb(0%,0%,0%);fill-opacity:1;" d="M 267.777344 467.988281 C 268.121094 467.355469 268.546875 466.902344 269.035156 466.585938 C 269.523438 466.285156 270.101562 466.128906 270.78125 466.128906 C 271.660156 466.128906 272.351562 466.445312 272.839844 467.074219 C 273.328125 467.703125 273.578125 468.601562 273.578125 469.75 L 273.578125 474.949219 L 272.164062 474.949219 L 272.164062 469.796875 C 272.164062 468.980469 272.007812 468.363281 271.722656 467.957031 C 271.425781 467.5625 270.984375 467.355469 270.386719 467.355469 C 269.648438 467.355469 269.066406 467.609375 268.640625 468.097656 C 268.214844 468.585938 268.011719 469.246094 268.011719 470.082031 L 268.011719 474.949219 L 266.597656 474.949219 L 266.597656 469.796875 C 266.597656 468.980469 266.4375 468.363281 266.15625 467.957031 C 265.855469 467.5625 265.402344 467.355469 264.804688 467.355469 C 264.078125 467.355469 263.496094 467.609375 263.074219 468.097656 C 262.648438 468.585938 262.445312 469.246094 262.445312 470.082031 L 262.445312 474.949219 L 261.027344 474.949219 L 261.027344 466.332031 L 262.445312 466.332031 L 262.445312 467.671875 C 262.757812 467.152344 263.152344 466.757812 263.609375 466.507812 C 264.046875 466.253906 264.582031 466.128906 265.210938 466.128906 C 265.839844 466.128906 266.359375 466.285156 266.800781 466.601562 C 267.242188 466.917969 267.554688 467.390625 267.777344 467.988281 Z M 267.777344 467.988281 "/>
<path style=" stroke:none;fill-rule:nonzero;fill:rgb(0%,0%,0%);fill-opacity:1;" d="M 283.757812 470.285156 L 283.757812 470.980469 L 277.261719 470.980469 C 277.324219 471.957031 277.605469 472.710938 278.140625 473.214844 C 278.660156 473.71875 279.382812 473.972656 280.328125 473.972656 C 280.863281 473.972656 281.398438 473.910156 281.898438 473.78125 C 282.402344 473.65625 282.921875 473.453125 283.425781 473.167969 L 283.425781 474.507812 C 282.921875 474.726562 282.402344 474.902344 281.867188 474.996094 C 281.332031 475.089844 280.785156 475.152344 280.25 475.152344 C 278.863281 475.152344 277.777344 474.757812 276.976562 473.972656 C 276.175781 473.183594 275.78125 472.097656 275.78125 470.726562 C 275.78125 469.324219 276.160156 468.207031 276.914062 467.371094 C 277.667969 466.554688 278.707031 466.128906 279.996094 466.128906 C 281.160156 466.128906 282.074219 466.507812 282.75 467.246094 C 283.410156 468.003906 283.757812 469.011719 283.757812 470.285156 Z M 282.339844 469.878906 C 282.324219 469.105469 282.105469 468.492188 281.695312 468.019531 C 281.269531 467.5625 280.703125 467.324219 280.011719 467.324219 C 279.226562 467.324219 278.597656 467.5625 278.125 468.003906 C 277.652344 468.445312 277.371094 469.074219 277.308594 469.878906 Z M 282.339844 469.878906 "/>
<path style=" stroke:none;fill-rule:nonzero;fill:rgb(0%,0%,0%);fill-opacity:1;" d="M 290.945312 462.980469 L 294.199219 462.980469 L 294.199219 464.082031 L 292.359375 464.082031 L 292.359375 475.910156 L 294.199219 475.910156 L 294.199219 477.011719 L 290.945312 477.011719 Z M 290.945312 462.980469 "/>
<path style=" stroke:none;fill-rule:nonzero;fill:rgb(0%,0%,0%);fill-opacity:1;" d="M 302.695312 466.585938 L 302.695312 467.925781 C 302.285156 467.734375 301.875 467.578125 301.449219 467.46875 C 301.011719 467.371094 300.570312 467.308594 300.113281 467.308594 C 299.40625 467.308594 298.871094 467.421875 298.527344 467.640625 C 298.179688 467.859375 298.007812 468.175781 298.007812 468.601562 C 298.007812 468.933594 298.132812 469.183594 298.382812 469.375 C 298.636719 469.5625 299.140625 469.75 299.894531 469.910156 L 300.382812 470.019531 C 301.386719 470.238281 302.097656 470.554688 302.519531 470.933594 C 302.929688 471.324219 303.148438 471.878906 303.148438 472.570312 C 303.148438 473.375 302.835938 474.003906 302.207031 474.460938 C 301.578125 474.933594 300.695312 475.152344 299.59375 475.152344 C 299.125 475.152344 298.652344 475.105469 298.148438 475.027344 C 297.644531 474.949219 297.125 474.820312 296.574219 474.632812 L 296.574219 473.167969 C 297.09375 473.453125 297.613281 473.65625 298.117188 473.78125 C 298.621094 473.925781 299.125 473.988281 299.625 473.988281 C 300.289062 473.988281 300.804688 473.878906 301.167969 473.65625 C 301.515625 473.4375 301.703125 473.105469 301.703125 472.679688 C 301.703125 472.300781 301.5625 472.003906 301.308594 471.796875 C 301.058594 471.59375 300.492188 471.390625 299.609375 471.199219 L 299.125 471.089844 C 298.242188 470.902344 297.597656 470.617188 297.21875 470.238281 C 296.828125 469.859375 296.636719 469.339844 296.636719 468.664062 C 296.636719 467.859375 296.921875 467.230469 297.488281 466.789062 C 298.054688 466.347656 298.871094 466.128906 299.941406 466.128906 C 300.460938 466.128906 300.949219 466.175781 301.417969 466.253906 C 301.875 466.332031 302.300781 466.445312 302.695312 466.585938 Z M 302.695312 466.585938 "/>
<path style=" stroke:none;fill-rule:nonzero;fill:rgb(0%,0%,0%);fill-opacity:1;" d="M 308.703125 462.980469 L 308.703125 477.011719 L 305.445312 477.011719 L 305.445312 475.910156 L 307.285156 475.910156 L 307.285156 464.082031 L 305.445312 464.082031 L 305.445312 462.980469 Z M 308.703125 462.980469 "/>
<path style="fill:none;stroke-width:0.8;stroke-linecap:butt;stroke-linejoin:round;stroke:rgb(0%,0%,0%);stroke-opacity:1;stroke-miterlimit:4;" d="M 43.778522 247.157247 L 40.276805 247.157247 " transform="matrix(1.57289,0,0,1.574877,0.00059772,0)"/>
<path style=" stroke:none;fill-rule:nonzero;fill:rgb(0%,0%,0%);fill-opacity:1;" d="M 37.832031 384.765625 C 37.03125 384.765625 36.433594 385.15625 36.023438 385.945312 C 35.613281 386.734375 35.425781 387.914062 35.425781 389.488281 C 35.425781 391.0625 35.613281 392.246094 36.023438 393.03125 C 36.433594 393.820312 37.03125 394.214844 37.832031 394.214844 C 38.632812 394.214844 39.230469 393.820312 39.640625 393.03125 C 40.035156 392.246094 40.238281 391.0625 40.238281 389.488281 C 40.238281 387.914062 40.035156 386.734375 39.640625 385.945312 C 39.230469 385.15625 38.632812 384.765625 37.832031 384.765625 Z M 37.832031 383.535156 C 39.105469 383.535156 40.082031 384.054688 40.773438 385.0625 C 41.449219 386.085938 41.796875 387.566406 41.796875 389.488281 C 41.796875 391.425781 41.449219 392.90625 40.773438 393.914062 C 40.082031 394.921875 39.105469 395.425781 37.816406 395.425781 C 36.527344 395.425781 35.550781 394.921875 34.875 393.914062 C 34.199219 392.90625 33.867188 391.425781 33.867188 389.488281 C 33.867188 387.566406 34.199219 386.085938 34.875 385.0625 C 35.550781 384.054688 36.542969 383.535156 37.832031 383.535156 Z M 37.832031 383.535156 "/>
<path style=" stroke:none;fill-rule:nonzero;fill:rgb(0%,0%,0%);fill-opacity:1;" d="M 44.515625 393.269531 L 46.136719 393.269531 L 46.136719 395.222656 L 44.515625 395.222656 Z M 44.515625 393.269531 "/>
<path style=" stroke:none;fill-rule:nonzero;fill:rgb(0%,0%,0%);fill-opacity:1;" d="M 49.535156 383.742188 L 55.621094 383.742188 L 55.621094 385.046875 L 50.949219 385.046875 L 50.949219 387.867188 C 51.167969 387.789062 51.40625 387.726562 51.625 387.695312 C 51.847656 387.664062 52.082031 387.628906 52.300781 387.628906 C 53.578125 387.628906 54.582031 387.992188 55.339844 388.6875 C 56.09375 389.394531 56.46875 390.339844 56.46875 391.535156 C 56.46875 392.78125 56.078125 393.742188 55.304688 394.417969 C 54.535156 395.09375 53.449219 395.425781 52.066406 395.425781 C 51.578125 395.425781 51.089844 395.378906 50.585938 395.316406 C 50.085938 395.238281 49.582031 395.128906 49.046875 394.953125 L 49.046875 393.394531 C 49.503906 393.648438 49.972656 393.835938 50.476562 393.960938 C 50.964844 394.085938 51.484375 394.136719 52.035156 394.136719 C 52.914062 394.136719 53.625 393.914062 54.144531 393.441406 C 54.644531 392.96875 54.914062 392.339844 54.914062 391.535156 C 54.914062 390.75 54.644531 390.117188 54.144531 389.648438 C 53.625 389.175781 52.914062 388.9375 52.035156 388.9375 C 51.625 388.9375 51.203125 388.984375 50.792969 389.078125 C 50.382812 389.175781 49.957031 389.316406 49.535156 389.503906 Z M 49.535156 383.742188 "/>
<path style="fill:none;stroke-width:0.8;stroke-linecap:butt;stroke-linejoin:round;stroke:rgb(0%,0%,0%);stroke-opacity:1;stroke-miterlimit:4;" d="M 43.778522 190.190981 L 40.276805 190.190981 " transform="matrix(1.57289,0,0,1.574877,0.00059772,0)"/>
<path style=" stroke:none;fill-rule:nonzero;fill:rgb(0%,0%,0%);fill-opacity:1;" d="M 34.78125 304.203125 L 37.3125 304.203125 L 37.3125 295.445312 L 34.558594 295.996094 L 34.558594 294.578125 L 37.296875 294.027344 L 38.855469 294.027344 L 38.855469 304.203125 L 41.386719 304.203125 L 41.386719 305.507812 L 34.78125 305.507812 Z M 34.78125 304.203125 "/>
<path style=" stroke:none;fill-rule:nonzero;fill:rgb(0%,0%,0%);fill-opacity:1;" d="M 44.515625 303.554688 L 46.136719 303.554688 L 46.136719 305.507812 L 44.515625 305.507812 Z M 44.515625 303.554688 "/>
<path style=" stroke:none;fill-rule:nonzero;fill:rgb(0%,0%,0%);fill-opacity:1;" d="M 52.835938 295.050781 C 52.035156 295.050781 51.4375 295.445312 51.027344 296.234375 C 50.621094 297.019531 50.429688 298.203125 50.429688 299.777344 C 50.429688 301.351562 50.621094 302.53125 51.027344 303.320312 C 51.4375 304.105469 52.035156 304.5 52.835938 304.5 C 53.640625 304.5 54.238281 304.105469 54.644531 303.320312 C 55.039062 302.53125 55.242188 301.351562 55.242188 299.777344 C 55.242188 298.203125 55.039062 297.019531 54.644531 296.234375 C 54.238281 295.445312 53.640625 295.050781 52.835938 295.050781 Z M 52.835938 293.824219 C 54.109375 293.824219 55.085938 294.34375 55.777344 295.351562 C 56.453125 296.375 56.800781 297.855469 56.800781 299.777344 C 56.800781 301.714844 56.453125 303.195312 55.777344 304.203125 C 55.085938 305.210938 54.109375 305.714844 52.820312 305.714844 C 51.53125 305.714844 50.554688 305.210938 49.878906 304.203125 C 49.203125 303.195312 48.875 301.714844 48.875 299.777344 C 48.875 297.855469 49.203125 296.375 49.878906 295.351562 C 50.554688 294.34375 51.546875 293.824219 52.835938 293.824219 Z M 52.835938 293.824219 "/>
<path style="fill:none;stroke-width:0.8;stroke-linecap:butt;stroke-linejoin:round;stroke:rgb(0%,0%,0%);stroke-opacity:1;stroke-miterlimit:4;" d="M 43.778522 133.227196 L 40.276805 133.227196 " transform="matrix(1.57289,0,0,1.574877,0.00059772,0)"/>
<path style=" stroke:none;fill-rule:nonzero;fill:rgb(0%,0%,0%);fill-opacity:1;" d="M 34.78125 214.488281 L 37.3125 214.488281 L 37.3125 205.730469 L 34.558594 206.28125 L 34.558594 204.863281 L 37.296875 204.3125 L 38.855469 204.3125 L 38.855469 214.488281 L 41.386719 214.488281 L 41.386719 215.792969 L 34.78125 215.792969 Z M 34.78125 214.488281 "/>
<path style=" stroke:none;fill-rule:nonzero;fill:rgb(0%,0%,0%);fill-opacity:1;" d="M 44.515625 213.839844 L 46.136719 213.839844 L 46.136719 215.792969 L 44.515625 215.792969 Z M 44.515625 213.839844 "/>
<path style=" stroke:none;fill-rule:nonzero;fill:rgb(0%,0%,0%);fill-opacity:1;" d="M 49.535156 204.3125 L 55.621094 204.3125 L 55.621094 205.621094 L 50.949219 205.621094 L 50.949219 208.441406 C 51.167969 208.359375 51.40625 208.296875 51.625 208.265625 C 51.847656 208.234375 52.082031 208.203125 52.300781 208.203125 C 53.578125 208.203125 54.582031 208.566406 55.339844 209.257812 C 56.09375 209.96875 56.46875 210.914062 56.46875 212.109375 C 56.46875 213.351562 56.078125 214.3125 55.304688 214.992188 C 54.535156 215.667969 53.449219 216 52.066406 216 C 51.578125 216 51.089844 215.953125 50.585938 215.890625 C 50.085938 215.808594 49.582031 215.699219 49.046875 215.527344 L 49.046875 213.96875 C 49.503906 214.21875 49.972656 214.410156 50.476562 214.535156 C 50.964844 214.660156 51.484375 214.707031 52.035156 214.707031 C 52.914062 214.707031 53.625 214.488281 54.144531 214.015625 C 54.644531 213.542969 54.914062 212.914062 54.914062 212.109375 C 54.914062 211.320312 54.644531 210.691406 54.144531 210.21875 C 53.625 209.746094 52.914062 209.511719 52.035156 209.511719 C 51.625 209.511719 51.203125 209.558594 50.792969 209.652344 C 50.382812 209.746094 49.957031 209.886719 49.535156 210.078125 Z M 49.535156 204.3125 "/>
<path style="fill:none;stroke-width:0.8;stroke-linecap:butt;stroke-linejoin:round;stroke:rgb(0%,0%,0%);stroke-opacity:1;stroke-miterlimit:4;" d="M 43.778522 76.260931 L 40.276805 76.260931 " transform="matrix(1.57289,0,0,1.574877,0.00059772,0)"/>
<path style=" stroke:none;fill-rule:nonzero;fill:rgb(0%,0%,0%);fill-opacity:1;" d="M 35.851562 124.773438 L 41.261719 124.773438 L 41.261719 126.082031 L 33.976562 126.082031 L 33.976562 124.773438 C 34.558594 124.175781 35.363281 123.355469 36.382812 122.316406 C 37.390625 121.292969 38.035156 120.632812 38.304688 120.332031 C 38.808594 119.78125 39.152344 119.308594 39.339844 118.914062 C 39.53125 118.539062 39.640625 118.144531 39.640625 117.765625 C 39.640625 117.167969 39.421875 116.664062 38.996094 116.285156 C 38.570312 115.90625 38.019531 115.703125 37.328125 115.703125 C 36.839844 115.703125 36.320312 115.796875 35.785156 115.953125 C 35.253906 116.128906 34.671875 116.378906 34.058594 116.726562 L 34.058594 115.152344 C 34.6875 114.898438 35.269531 114.710938 35.800781 114.585938 C 36.335938 114.457031 36.839844 114.394531 37.296875 114.394531 C 38.476562 114.394531 39.421875 114.695312 40.128906 115.292969 C 40.835938 115.890625 41.199219 116.679688 41.199219 117.671875 C 41.199219 118.144531 41.101562 118.601562 40.929688 119.011719 C 40.757812 119.433594 40.441406 119.941406 39.972656 120.507812 C 39.84375 120.664062 39.4375 121.089844 38.742188 121.796875 C 38.050781 122.507812 37.09375 123.5 35.851562 124.773438 Z M 35.851562 124.773438 "/>
<path style=" stroke:none;fill-rule:nonzero;fill:rgb(0%,0%,0%);fill-opacity:1;" d="M 44.515625 124.128906 L 46.136719 124.128906 L 46.136719 126.082031 L 44.515625 126.082031 Z M 44.515625 124.128906 "/>
<path style=" stroke:none;fill-rule:nonzero;fill:rgb(0%,0%,0%);fill-opacity:1;" d="M 52.835938 115.625 C 52.035156 115.625 51.4375 116.019531 51.027344 116.804688 C 50.621094 117.59375 50.429688 118.773438 50.429688 120.347656 C 50.429688 121.921875 50.621094 123.105469 51.027344 123.890625 C 51.4375 124.679688 52.035156 125.074219 52.835938 125.074219 C 53.640625 125.074219 54.238281 124.679688 54.644531 123.890625 C 55.039062 123.105469 55.242188 121.921875 55.242188 120.347656 C 55.242188 118.773438 55.039062 117.59375 54.644531 116.804688 C 54.238281 116.019531 53.640625 115.625 52.835938 115.625 Z M 52.835938 114.394531 C 54.109375 114.394531 55.085938 114.914062 55.777344 115.921875 C 56.453125 116.945312 56.800781 118.425781 56.800781 120.347656 C 56.800781 122.285156 56.453125 123.765625 55.777344 124.773438 C 55.085938 125.78125 54.109375 126.285156 52.820312 126.285156 C 51.53125 126.285156 50.554688 125.78125 49.878906 124.773438 C 49.203125 123.765625 48.875 122.285156 48.875 120.347656 C 48.875 118.425781 49.203125 116.945312 49.878906 115.921875 C 50.554688 114.914062 51.546875 114.394531 52.835938 114.394531 Z M 52.835938 114.394531 "/>
<path style="fill:none;stroke-width:0.8;stroke-linecap:butt;stroke-linejoin:round;stroke:rgb(0%,0%,0%);stroke-opacity:1;stroke-miterlimit:4;" d="M 43.778522 19.297146 L 40.276805 19.297146 " transform="matrix(1.57289,0,0,1.574877,0.00059772,0)"/>
<path style=" stroke:none;fill-rule:nonzero;fill:rgb(0%,0%,0%);fill-opacity:1;" d="M 35.851562 35.0625 L 41.261719 35.0625 L 41.261719 36.367188 L 33.976562 36.367188 L 33.976562 35.0625 C 34.558594 34.464844 35.363281 33.644531 36.382812 32.605469 C 37.390625 31.582031 38.035156 30.917969 38.304688 30.621094 C 38.808594 30.070312 39.152344 29.597656 39.339844 29.203125 C 39.53125 28.824219 39.640625 28.429688 39.640625 28.054688 C 39.640625 27.453125 39.421875 26.949219 38.996094 26.574219 C 38.570312 26.195312 38.019531 25.988281 37.328125 25.988281 C 36.839844 25.988281 36.320312 26.085938 35.785156 26.242188 C 35.253906 26.414062 34.671875 26.667969 34.058594 27.015625 L 34.058594 25.4375 C 34.6875 25.1875 35.269531 24.996094 35.800781 24.871094 C 36.335938 24.746094 36.839844 24.683594 37.296875 24.683594 C 38.476562 24.683594 39.421875 24.980469 40.128906 25.582031 C 40.835938 26.179688 41.199219 26.964844 41.199219 27.957031 C 41.199219 28.429688 41.101562 28.886719 40.929688 29.296875 C 40.757812 29.722656 40.441406 30.226562 39.972656 30.792969 C 39.84375 30.949219 39.4375 31.375 38.742188 32.085938 C 38.050781 32.792969 37.09375 33.785156 35.851562 35.0625 Z M 35.851562 35.0625 "/>
<path style=" stroke:none;fill-rule:nonzero;fill:rgb(0%,0%,0%);fill-opacity:1;" d="M 44.515625 34.414062 L 46.136719 34.414062 L 46.136719 36.367188 L 44.515625 36.367188 Z M 44.515625 34.414062 "/>
<path style=" stroke:none;fill-rule:nonzero;fill:rgb(0%,0%,0%);fill-opacity:1;" d="M 49.535156 24.886719 L 55.621094 24.886719 L 55.621094 26.195312 L 50.949219 26.195312 L 50.949219 29.015625 C 51.167969 28.933594 51.40625 28.871094 51.625 28.839844 C 51.847656 28.808594 52.082031 28.777344 52.300781 28.777344 C 53.578125 28.777344 54.582031 29.140625 55.339844 29.832031 C 56.09375 30.542969 56.46875 31.488281 56.46875 32.683594 C 56.46875 33.925781 56.078125 34.886719 55.304688 35.566406 C 54.535156 36.242188 53.449219 36.574219 52.066406 36.574219 C 51.578125 36.574219 51.089844 36.527344 50.585938 36.464844 C 50.085938 36.382812 49.582031 36.273438 49.046875 36.101562 L 49.046875 34.542969 C 49.503906 34.792969 49.972656 34.984375 50.476562 35.109375 C 50.964844 35.234375 51.484375 35.28125 52.035156 35.28125 C 52.914062 35.28125 53.625 35.0625 54.144531 34.589844 C 54.644531 34.117188 54.914062 33.488281 54.914062 32.683594 C 54.914062 31.894531 54.644531 31.265625 54.144531 30.792969 C 53.625 30.320312 52.914062 30.085938 52.035156 30.085938 C 51.625 30.085938 51.203125 30.132812 50.792969 30.226562 C 50.382812 30.320312 49.957031 30.460938 49.535156 30.652344 Z M 49.535156 24.886719 "/>
<path style=" stroke:none;fill-rule:nonzero;fill:rgb(0%,0%,0%);fill-opacity:1;" d="M 12.179688 260.25 L 13.691406 260.25 C 13.40625 260.847656 13.203125 261.398438 13.0625 261.917969 C 12.9375 262.453125 12.855469 262.957031 12.855469 263.429688 C 12.855469 264.28125 13.03125 264.941406 13.34375 265.398438 C 13.675781 265.855469 14.148438 266.074219 14.746094 266.074219 C 15.25 266.074219 15.640625 265.933594 15.894531 265.617188 C 16.160156 265.320312 16.363281 264.738281 16.523438 263.886719 L 16.710938 262.941406 C 16.929688 261.792969 17.324219 260.941406 17.875 260.390625 C 18.441406 259.839844 19.179688 259.554688 20.109375 259.554688 C 21.226562 259.554688 22.058594 259.933594 22.625 260.671875 C 23.191406 261.429688 23.472656 262.515625 23.472656 263.949219 C 23.472656 264.5 23.410156 265.082031 23.300781 265.699219 C 23.191406 266.3125 23.019531 266.941406 22.765625 267.585938 L 21.164062 267.585938 C 21.523438 266.957031 21.792969 266.34375 21.964844 265.746094 C 22.152344 265.144531 22.230469 264.546875 22.230469 263.949219 C 22.230469 263.066406 22.058594 262.390625 21.710938 261.902344 C 21.367188 261.429688 20.878906 261.175781 20.21875 261.175781 C 19.652344 261.175781 19.210938 261.351562 18.898438 261.695312 C 18.582031 262.042969 18.347656 262.609375 18.191406 263.398438 L 18 264.34375 C 17.78125 265.507812 17.417969 266.34375 16.914062 266.863281 C 16.429688 267.382812 15.75 267.632812 14.871094 267.632812 C 13.863281 267.632812 13.0625 267.289062 12.480469 266.5625 C 11.898438 265.855469 11.597656 264.863281 11.597656 263.601562 C 11.597656 263.066406 11.644531 262.53125 11.742188 261.964844 C 11.835938 261.414062 11.992188 260.847656 12.179688 260.25 Z M 12.179688 260.25 "/>
<path style=" stroke:none;fill-rule:nonzero;fill:rgb(0%,0%,0%);fill-opacity:1;" d="M 21.980469 255.824219 L 26.527344 255.824219 L 26.527344 257.242188 L 14.667969 257.242188 L 14.667969 255.824219 L 15.972656 255.824219 C 15.46875 255.539062 15.089844 255.160156 14.839844 254.703125 C 14.585938 254.25 14.460938 253.695312 14.460938 253.066406 C 14.460938 252.027344 14.886719 251.175781 15.703125 250.515625 C 16.539062 249.871094 17.625 249.539062 18.976562 249.539062 C 20.328125 249.539062 21.429688 249.871094 22.246094 250.515625 C 23.066406 251.175781 23.472656 252.027344 23.472656 253.066406 C 23.472656 253.695312 23.347656 254.25 23.113281 254.703125 C 22.875 255.160156 22.5 255.539062 21.980469 255.824219 Z M 18.976562 251.003906 C 17.9375 251.003906 17.136719 251.222656 16.539062 251.648438 C 15.941406 252.089844 15.640625 252.671875 15.640625 253.414062 C 15.640625 254.167969 15.941406 254.753906 16.539062 255.175781 C 17.136719 255.617188 17.9375 255.824219 18.976562 255.824219 C 20.015625 255.824219 20.832031 255.617188 21.429688 255.175781 C 22.027344 254.753906 22.308594 254.167969 22.308594 253.414062 C 22.308594 252.671875 22.027344 252.089844 21.429688 251.648438 C 20.832031 251.222656 20.015625 251.003906 18.976562 251.003906 Z M 18.976562 251.003906 "/>
<path style=" stroke:none;fill-rule:nonzero;fill:rgb(0%,0%,0%);fill-opacity:1;" d="M 18.613281 239.820312 L 19.304688 239.820312 L 19.304688 246.328125 C 20.28125 246.261719 21.035156 245.980469 21.539062 245.445312 C 22.042969 244.925781 22.292969 244.199219 22.292969 243.253906 C 22.292969 242.71875 22.230469 242.183594 22.105469 241.679688 C 21.980469 241.175781 21.777344 240.65625 21.492188 240.152344 L 22.828125 240.152344 C 23.050781 240.65625 23.222656 241.175781 23.316406 241.710938 C 23.410156 242.246094 23.472656 242.796875 23.472656 243.335938 C 23.472656 244.71875 23.082031 245.808594 22.292969 246.609375 C 21.507812 247.414062 20.421875 247.808594 19.054688 247.808594 C 17.65625 247.808594 16.539062 247.429688 15.703125 246.671875 C 14.886719 245.917969 14.460938 244.878906 14.460938 243.585938 C 14.460938 242.421875 14.839844 241.507812 15.578125 240.832031 C 16.332031 240.167969 17.339844 239.820312 18.613281 239.820312 Z M 18.207031 241.238281 C 17.433594 241.253906 16.820312 241.476562 16.347656 241.886719 C 15.894531 242.308594 15.65625 242.878906 15.65625 243.570312 C 15.65625 244.359375 15.894531 244.988281 16.332031 245.460938 C 16.773438 245.933594 17.402344 246.214844 18.207031 246.277344 Z M 18.207031 241.238281 "/>
<path style=" stroke:none;fill-rule:nonzero;fill:rgb(0%,0%,0%);fill-opacity:1;" d="M 18.613281 230.136719 L 19.304688 230.136719 L 19.304688 236.640625 C 20.28125 236.578125 21.035156 236.292969 21.539062 235.757812 C 22.042969 235.238281 22.292969 234.515625 22.292969 233.570312 C 22.292969 233.035156 22.230469 232.5 22.105469 231.996094 C 21.980469 231.492188 21.777344 230.972656 21.492188 230.46875 L 22.828125 230.46875 C 23.050781 230.972656 23.222656 231.492188 23.316406 232.027344 C 23.410156 232.5625 23.472656 233.113281 23.472656 233.648438 C 23.472656 235.035156 23.082031 236.121094 22.292969 236.925781 C 21.507812 237.726562 20.421875 238.121094 19.054688 238.121094 C 17.65625 238.121094 16.539062 237.742188 15.703125 236.988281 C 14.886719 236.230469 14.460938 235.191406 14.460938 233.902344 C 14.460938 232.734375 14.839844 231.820312 15.578125 231.144531 C 16.332031 230.484375 17.339844 230.136719 18.613281 230.136719 Z M 18.207031 231.554688 C 17.433594 231.570312 16.820312 231.789062 16.347656 232.199219 C 15.894531 232.625 15.65625 233.191406 15.65625 233.886719 C 15.65625 234.671875 15.894531 235.300781 16.332031 235.773438 C 16.773438 236.246094 17.402344 236.53125 18.207031 236.59375 Z M 18.207031 231.554688 "/>
<path style=" stroke:none;fill-rule:nonzero;fill:rgb(0%,0%,0%);fill-opacity:1;" d="M 15.972656 222.152344 L 11.316406 222.152344 L 11.316406 220.734375 L 23.269531 220.734375 L 23.269531 222.152344 L 21.980469 222.152344 C 22.5 222.453125 22.875 222.828125 23.113281 223.285156 C 23.347656 223.742188 23.472656 224.277344 23.472656 224.90625 C 23.472656 225.949219 23.066406 226.796875 22.246094 227.460938 C 21.429688 228.121094 20.328125 228.4375 18.976562 228.4375 C 17.625 228.4375 16.539062 228.121094 15.703125 227.460938 C 14.886719 226.796875 14.460938 225.949219 14.460938 224.90625 C 14.460938 224.277344 14.585938 223.742188 14.839844 223.285156 C 15.089844 222.828125 15.46875 222.453125 15.972656 222.152344 Z M 18.976562 226.972656 C 20.015625 226.972656 20.832031 226.765625 21.429688 226.339844 C 22.027344 225.917969 22.308594 225.332031 22.308594 224.578125 C 22.308594 223.820312 22.027344 223.238281 21.429688 222.796875 C 20.832031 222.371094 20.015625 222.152344 18.976562 222.152344 C 17.9375 222.152344 17.136719 222.371094 16.539062 222.796875 C 15.941406 223.238281 15.640625 223.820312 15.640625 224.578125 C 15.640625 225.332031 15.941406 225.917969 16.539062 226.339844 C 17.136719 226.765625 17.9375 226.972656 18.976562 226.972656 Z M 18.976562 226.972656 "/>
<path style=" stroke:none;fill-rule:nonzero;fill:rgb(0%,0%,0%);fill-opacity:1;" d="M 11.316406 212.9375 L 11.316406 209.679688 L 12.417969 209.679688 L 12.417969 211.523438 L 24.230469 211.523438 L 24.230469 209.679688 L 25.332031 209.679688 L 25.332031 212.9375 Z M 11.316406 212.9375 "/>
<path style=" stroke:none;fill-rule:nonzero;fill:rgb(0%,0%,0%);fill-opacity:1;" d="M 16.316406 199.960938 C 15.6875 199.617188 15.234375 199.191406 14.917969 198.703125 C 14.617188 198.214844 14.460938 197.632812 14.460938 196.953125 C 14.460938 196.070312 14.777344 195.378906 15.40625 194.890625 C 16.035156 194.402344 16.929688 194.152344 18.078125 194.152344 L 23.269531 194.152344 L 23.269531 195.566406 L 18.125 195.566406 C 17.308594 195.566406 16.695312 195.726562 16.285156 196.007812 C 15.894531 196.308594 15.6875 196.75 15.6875 197.347656 C 15.6875 198.089844 15.941406 198.671875 16.429688 199.097656 C 16.914062 199.519531 17.574219 199.726562 18.410156 199.726562 L 23.269531 199.726562 L 23.269531 201.144531 L 18.125 201.144531 C 17.308594 201.144531 16.695312 201.300781 16.285156 201.585938 C 15.894531 201.882812 15.6875 202.339844 15.6875 202.9375 C 15.6875 203.664062 15.941406 204.246094 16.429688 204.671875 C 16.914062 205.097656 17.574219 205.300781 18.410156 205.300781 L 23.269531 205.300781 L 23.269531 206.71875 L 14.667969 206.71875 L 14.667969 205.300781 L 16.003906 205.300781 C 15.484375 204.984375 15.089844 204.59375 14.839844 204.136719 C 14.585938 203.695312 14.460938 203.160156 14.460938 202.527344 C 14.460938 201.898438 14.617188 201.378906 14.933594 200.9375 C 15.25 200.496094 15.71875 200.183594 16.316406 199.960938 Z M 16.316406 199.960938 "/>
<path style=" stroke:none;fill-rule:nonzero;fill:rgb(0%,0%,0%);fill-opacity:1;" d="M 11.804688 188.8125 L 11.804688 187.503906 L 24.71875 191.503906 L 24.71875 192.8125 Z M 11.804688 188.8125 "/>
<path style=" stroke:none;fill-rule:nonzero;fill:rgb(0%,0%,0%);fill-opacity:1;" d="M 14.917969 180.527344 L 16.253906 180.527344 C 16.066406 180.9375 15.910156 181.347656 15.796875 181.773438 C 15.703125 182.214844 15.640625 182.652344 15.640625 183.109375 C 15.640625 183.820312 15.75 184.355469 15.972656 184.703125 C 16.191406 185.046875 16.507812 185.222656 16.929688 185.222656 C 17.261719 185.222656 17.511719 185.09375 17.703125 184.84375 C 17.890625 184.589844 18.078125 184.085938 18.238281 183.332031 L 18.347656 182.84375 C 18.566406 181.835938 18.882812 181.125 19.257812 180.703125 C 19.652344 180.292969 20.203125 180.070312 20.894531 180.070312 C 21.695312 180.070312 22.328125 180.386719 22.78125 181.015625 C 23.253906 181.644531 23.472656 182.527344 23.472656 183.628906 C 23.472656 184.101562 23.425781 184.574219 23.347656 185.078125 C 23.269531 185.582031 23.144531 186.101562 22.957031 186.65625 L 21.492188 186.65625 C 21.777344 186.132812 21.980469 185.613281 22.105469 185.109375 C 22.246094 184.605469 22.308594 184.101562 22.308594 183.597656 C 22.308594 182.9375 22.199219 182.417969 21.980469 182.054688 C 21.761719 181.710938 21.429688 181.519531 21.003906 181.519531 C 20.628906 181.519531 20.328125 181.660156 20.125 181.914062 C 19.917969 182.164062 19.714844 182.734375 19.527344 183.613281 L 19.417969 184.101562 C 19.226562 184.984375 18.945312 185.628906 18.566406 186.007812 C 18.191406 186.402344 17.671875 186.589844 16.992188 186.589844 C 16.191406 186.589844 15.5625 186.308594 15.121094 185.742188 C 14.683594 185.175781 14.460938 184.355469 14.460938 183.285156 C 14.460938 182.765625 14.507812 182.277344 14.585938 181.804688 C 14.667969 181.347656 14.777344 180.921875 14.917969 180.527344 Z M 14.917969 180.527344 "/>
<path style=" stroke:none;fill-rule:nonzero;fill:rgb(0%,0%,0%);fill-opacity:1;" d="M 11.316406 174.511719 L 25.332031 174.511719 L 25.332031 177.773438 L 24.230469 177.773438 L 24.230469 175.929688 L 12.417969 175.929688 L 12.417969 177.773438 L 11.316406 177.773438 Z M 11.316406 174.511719 "/>
<path style="fill:none;stroke-width:2.5;stroke-linecap:square;stroke-linejoin:round;stroke:rgb(0%,50.196078%,50.196078%);stroke-opacity:1;stroke-miterlimit:4;" d="M 55.873101 261.215887 L 56.543643 255.148944 L 57.609058 248.213877 L 57.830089 247.087797 L 58.075954 245.961717 L 58.50063 243.967513 L 63.68615 224.54883 L 63.822742 224.290873 L 64.12076 223.162313 L 64.331856 222.728251 L 64.898091 221.083777 L 65.836849 218.829136 L 66.095132 218.395074 L 67.004088 215.882477 L 67.110878 215.879996 L 67.431248 214.927541 L 67.999966 214.233042 L 68.325303 211.202051 L 68.382423 211.286383 L 68.672991 212.328131 L 68.834418 212.154506 L 69.162238 211.720445 L 69.273995 211.720445 L 69.497509 211.375675 L 69.716055 211.025946 L 70.667231 209.292179 L 71.072039 208.076806 L 71.335289 207.818849 L 71.541418 207.12187 L 71.913941 206.429852 L 72.336134 205.303772 L 72.495077 205.216959 L 72.954522 204.348836 L 73.595261 203.222755 L 73.754205 203.222755 L 73.972751 202.875506 L 74.283187 202.357112 L 74.538986 202.094195 L 75.596952 200.707678 L 75.671456 200.707678 L 75.798114 200.357948 L 75.917321 200.449721 L 76.250109 199.752742 L 76.381733 199.839554 L 76.587863 199.405492 L 76.811377 199.231868 L 76.965353 198.971431 L 77.101944 199.058243 L 77.171482 198.713474 L 77.501786 198.366224 L 77.966198 197.932163 L 78.264216 197.584913 L 78.86522 197.064039 L 79.29983 196.629977 L 79.535761 196.458833 L 79.888416 196.109103 L 80.129315 196.019811 L 80.48942 195.761854 L 80.586276 195.59071 L 80.799856 195.503897 L 80.914096 195.24346 L 81.050688 195.24346 L 81.154995 195.069835 L 81.428178 195.069835 L 82.063951 194.375337 L 83.030027 193.680838 L 83.126883 193.76765 L 83.390133 193.422881 L 83.551559 193.596506 L 83.717953 193.164924 L 83.814809 193.249256 L 84.055707 193.162444 L 84.135179 193.249256 L 84.512668 192.9913 L 84.604557 193.075632 L 85.061519 192.728382 L 85.307384 192.64405 L 85.416658 192.554758 L 85.513514 192.64157 L 85.759379 192.383613 L 85.876103 192.467945 L 85.965508 192.294321 L 87.830607 191.51797 L 88.044186 191.431158 L 88.352139 191.257533 L 88.707277 191.16824 L 88.970527 190.997096 L 89.295864 190.910284 L 89.40017 190.736659 L 89.988756 190.649847 L 90.115414 190.563034 L 90.239589 190.652327 L 90.445718 190.39189 L 91.019403 190.305077 L 91.511134 190.131453 L 91.915942 190.131453 L 92.037633 189.957828 L 92.151873 190.04464 L 92.402705 189.960308 L 92.757844 189.960308 L 92.849733 189.786684 L 93.073247 189.960308 L 93.44577 189.786684 L 93.547593 189.873496 L 93.872929 189.699871 L 93.977236 189.786684 L 94.332374 189.528727 L 94.531053 189.699871 L 94.697447 189.526247 L 94.903576 189.613059 L 95.117156 189.526247 L 95.487196 189.441915 L 95.693325 189.441915 L 95.812532 189.26581 L 96.190022 189.355102 L 96.768675 189.26829 L 97.009573 189.181478 L 97.33491 189.181478 L 97.439216 189.007853 L 97.66273 189.181478 L 98.022835 189.441915 L 98.330788 189.26829 L 98.921858 189.181478 L 99.018714 189.094665 L 99.127987 189.26829 L 99.217393 189.183958 L 99.843231 189.097146 L 99.967405 189.010333 L 100.064261 189.097146 L 100.173535 189.007853 L 100.402016 189.097146 L 102.217444 189.183958 L 102.359003 189.27077 L 102.468276 189.097146 L 103.039478 189.097146 L 103.372266 189.357583 L 104.390495 189.355102 L 104.499768 189.186438 L 104.763018 189.357583 L 104.974114 189.27077 L 105.078421 189.444395 L 105.306902 189.27077 L 106.434405 189.357583 L 106.931102 189.61802 L 107.129781 189.444395 L 107.830124 189.444395 L 107.922013 189.27077 L 108.272185 189.444395 L 108.607455 189.360063 L 108.888089 189.357583 L 108.967561 189.183958 L 109.225843 189.27077 L 109.638102 189.27077 L 109.76476 189.097146 L 109.975856 189.27077 L 110.112448 189.183958 L 110.318578 189.27077 L 113.129884 189.360063 L 113.807876 189.791644 L 113.899765 189.6205 L 114.004072 189.791644 L 114.227585 189.704832 L 114.369144 189.704832 L 114.466 189.444395 L 114.701931 189.791644 L 114.811205 189.704832 L 115.034719 189.878457 L 115.131575 189.704832 L 118.610939 189.704832 L 118.72518 189.531207 L 118.936276 189.61802 L 119.045549 189.531207 L 119.154823 189.61802 L 119.291415 189.531207 L 119.418072 189.704832 L 119.519895 189.531207 L 119.840265 189.704832 L 119.97189 189.531207 L 120.205338 189.615539 L 120.29226 189.531207 L 120.446236 189.61802 L 120.555509 189.531207 L 120.652365 189.704832 L 120.766606 189.61802 L 120.858495 189.789164 L 120.995086 189.704832 L 121.10436 189.791644 L 121.208666 189.704832 L 121.327874 189.791644 L 121.48185 189.61802 L 121.705364 189.704832 L 121.80967 189.61802 L 121.906526 189.875976 L 122.008349 189.704832 L 122.135007 189.789164 L 122.529881 189.61802 L 122.745944 189.789164 L 122.820449 189.704832 L 122.959524 189.791644 L 123.078732 189.613059 L 123.183038 189.704832 L 123.289828 189.615539 L 123.500924 189.702352 L 125.96951 189.786684 L 126.048982 189.875976 L 126.123486 189.789164 L 126.294847 189.789164 L 127.255956 154.334999 L 127.553974 147.573557 L 128.760949 115.572044 L 130.037461 101.329858 L 131.63931 89.714365 L 131.850406 88.950416 L 131.95968 88.404739 L 132.424092 87.943393 L 132.543299 88.136861 L 132.652572 87.831777 L 132.915822 87.84914 L 133.367817 88.685019 L 133.482057 88.749508 L 133.601264 87.258816 L 134.140181 89.173648 L 134.470485 90.307169 L 134.860392 91.229861 L 135.396825 92.608937 L 135.965544 94.422075 L 136.084751 94.637866 L 136.295847 94.508887 L 136.434922 94.613062 L 137.120365 93.735017 L 137.448185 92.886736 L 138.598039 89.39688 L 139.059968 87.945873 L 139.427524 87.15216 L 139.621236 86.695775 L 140.564961 85.066184 L 141.178382 84.302235 L 142.069954 82.677604 L 142.218963 82.553586 L 142.415158 82.223699 L 142.740495 81.571366 L 142.859702 81.556484 L 143.088183 81.266283 L 143.565012 80.688361 L 143.666835 80.646195 L 143.912701 80.360954 L 144.00459 80.274142 L 144.228103 79.90953 L 144.466518 79.703661 L 144.565858 79.463066 L 144.702449 79.534997 L 144.935897 79.212551 L 145.400309 78.602384 L 145.767865 78.277458 L 146.195025 77.597841 L 146.321683 77.674732 L 146.522845 77.275395 L 146.637085 77.275395 L 146.743875 76.848774 L 146.853149 77.037281 L 147.853994 76.089786 L 147.9583 76.002974 L 148.261286 75.457296 L 148.730665 74.995951 L 149.130506 68.465182 L 149.652038 63.474711 L 150.779541 51.772406 L 151.792804 43.173023 L 152.443477 38.611654 L 152.706727 37.287145 L 153.25061 34.218949 L 153.742341 32.643925 L 153.960887 31.84029 L 154.544507 30.051956 L 154.795339 29.412025 L 154.91703 29.302889 L 155.155444 28.811779 L 155.254784 28.777055 L 155.396343 28.357875 L 156.116554 32.361164 L 156.610768 34.288399 L 157.335946 36.309886 L 157.720886 38.008928 L 157.874862 38.125505 L 158.10831 38.705907 L 159.68284 40.871255 L 159.802048 40.945666 L 159.906354 40.712513 L 160.117451 41.139133 L 160.621598 41.712095 L 160.718454 41.669929 L 160.810343 41.823711 L 161.073593 41.664968 L 161.267305 41.893161 L 161.376578 41.811309 L 161.538005 41.970052 L 161.649762 41.883239 L 161.764002 42.084148 L 161.89066 42.002296 L 162.0049 42.195764 L 162.126591 42.076707 L 162.342655 42.230489 L 162.434544 42.037021 L 162.675442 42.188323 L 162.777265 42.113912 L 163.087701 42.106471 L 163.303764 42.032061 L 163.539695 42.069266 L 164.364213 41.841073 L 164.456102 41.994855 L 164.580276 41.766663 L 164.821174 41.766663 L 164.895679 41.573195 L 165.168862 41.729457 L 165.278136 41.459099 L 165.501649 41.53599 L 165.839404 41.89068 L 166.296365 43.277198 L 166.440407 43.314403 L 166.532296 43.512831 L 166.865084 43.128377 L 166.966907 43.165582 L 167.331979 42.778647 L 167.436286 43.061407 L 167.652349 43.130857 L 168.15153 43.602124 L 168.235968 43.297041 L 168.648227 43.681495 L 168.836972 43.832797 L 168.941278 43.681495 L 169.038134 43.800552 L 169.39824 43.64677 L 169.507513 43.837757 L 169.604369 43.649251 L 169.745928 43.721181 L 169.867619 43.64677 L 169.981859 43.760866 L 170.217791 43.564919 L 170.319613 43.765827 L 170.433854 43.453303 L 170.543127 43.64677 L 170.91565 43.373931 L 171.039825 43.373931 L 171.126747 43.182944 L 171.365161 43.336726 L 171.469468 43.217669 L 171.591159 43.262316 L 171.837024 43.101093 L 172.144976 43.143259 L 172.465346 43.145739 L 173.193007 42.989477 L 174.19882 43.602124 L 174.563892 46.73977 L 174.983601 51.199445 L 175.83047 56.750475 L 176.41409 60.43876 L 177.770073 66.304794 L 177.914115 66.500742 L 178.135146 67.083625 L 178.341275 67.706194 L 178.651711 69.293619 L 179.280033 71.153884 L 179.955541 72.012086 L 180.149253 72.751231 L 180.829729 74.14767 L 181.311525 73.919478 L 181.403414 73.840106 L 181.679081 73.993888 L 181.768487 73.924438 L 181.987033 74.07822 L 182.078922 73.998849 L 182.448962 74.311373 L 182.565686 74.393225 L 182.68986 74.311373 L 182.764365 74.584212 L 182.913374 74.467636 L 183.256095 74.661103 L 183.352951 74.740474 L 183.474642 74.661103 L 183.703123 74.857051 L 183.812396 74.742955 L 183.926636 74.936422 L 184.075646 74.78016 L 184.172502 75.010833 L 184.276808 74.817365 L 184.396015 74.973628 L 184.492871 74.814885 L 184.619529 74.899217 L 184.716385 74.663583 L 184.870361 74.817365 L 184.974668 74.547007 L 185.185764 75.010833 L 185.637759 76.603219 L 185.751999 76.717316 L 186.129489 76.486643 L 186.353003 76.136913 L 186.67834 76.102188 L 187.011127 75.908721 L 187.117917 75.638362 L 187.38365 77.573037 L 188.19575 84.014514 L 188.327375 84.560192 L 188.533504 86.187303 L 189.184178 90.341894 L 189.775247 92.824728 L 190.145287 94.417114 L 191.021958 98.2567 L 191.632895 99.30837 L 191.71485 99.343095 L 192.514533 101.248006 L 192.589038 101.324897 L 192.84732 101.168635 L 193.058417 101.362102 L 193.276963 101.751518 L 193.65942 102.761021 L 193.86555 102.914803 L 194.133766 102.761021 L 194.215721 102.837912 L 194.511256 102.803187 L 194.67765 103.071065 L 194.918548 102.837912 L 195.002987 102.877598 L 195.291071 102.800707 L 195.48975 102.954489 L 195.713264 103.071065 L 195.906976 102.991694 L 196.051018 103.229808 L 196.291916 104.973496 L 196.726526 108.773397 L 197.21329 111.722536 L 197.476539 112.461682 L 197.538626 113.15618 L 197.625548 112.536092 L 198.368111 118.317795 L 199.478229 124.250799 L 199.950092 126.113544 L 200.039497 126.656741 L 200.198441 126.92958 L 200.508876 128.05318 L 200.754742 128.363224 L 200.864015 128.750159 L 201.688533 135.496719 L 202.150461 138.215186 L 202.488215 140.192027 L 203.282931 145.430533 L 203.523829 146.7476 L 203.963406 151.480113 L 204.857461 158.960858 L 205.160447 160.783917 L 205.423696 163.346122 L 205.699363 164.973233 L 206.129007 168.036469 L 206.494079 170.169573 L 206.687791 171.412229 L 208.537989 179.594914 L 209.10919 181.413012 L 209.481713 182.499407 L 209.571119 182.576298 L 209.777248 183.389854 L 210.065333 184.047147 L 210.355901 180.358862 L 211.277274 175.388235 L 211.408899 175.537056 L 212.084407 178.282807 L 212.181263 178.324973 L 212.295504 178.590371 L 212.461897 178.617655 L 212.901474 180.69619 L 214.4015 185.976862 L 214.687101 186.676321 L 215.086943 188.114926 L 215.407312 189.084744 L 215.730166 190.089287 L 216.082821 190.788746 L 216.437959 191.364188 L 216.534815 191.284817 L 216.798065 191.632066 L 216.902371 191.555175 L 217.565462 184.047147 L 217.925568 181.068243 L 218.481869 175.085632 L 219.241816 169.51724 L 219.539834 167.193149 L 219.85027 165.203906 L 220.158222 164.244009 L 220.299781 163.269231 L 220.461208 162.877335 L 220.535712 162.361422 L 220.71949 162.388705 L 220.76916 162.2126 L 220.885884 162.229963 L 221.245989 161.607394 L 221.452119 161.731412 L 222.068023 162.200199 L 222.378459 162.619378 L 222.865223 163.177458 L 223.053968 163.485021 L 223.317217 163.700812 L 223.404139 163.767782 L 223.500995 163.998454 L 223.664905 164.062944 L 223.95299 164.774805 L 224.318062 165.895924 L 225.341259 171.714832 L 226.304852 179.465935 L 227.395102 183.474186 L 227.561496 183.637889 L 228.693966 189.112028 L 229.131059 191.473324 L 230.8695 198.889579 L 231.224638 199.913965 L 231.430768 199.752742 L 231.532591 199.789947 L 231.79584 199.31868 L 232.006937 199.985895 L 232.32234 200.568778 L 232.81407 200.851538 L 233.251164 201.593164 L 233.352986 202.004902 L 233.454809 201.903208 L 234.073198 202.930074 L 234.296711 203.073934 L 234.76609 203.386459 L 234.97222 203.431105 L 235.24292 203.646896 L 235.550872 203.654337 L 236.020251 203.81556 L 236.231347 203.780835 L 237.94247 203.277323 L 238.079061 203.150825 L 238.180884 203.222755 L 238.267806 202.952397 L 238.531056 202.910231 L 238.742152 202.865585 L 238.834041 202.667156 L 238.965666 202.753969 L 239.320805 202.337269 L 239.430078 202.451366 L 239.777766 202.146282 L 239.88704 202.052029 L 239.991346 202.121479 L 241.185903 198.457998 L 241.387066 198.423273 L 241.488889 198.574574 L 241.588228 198.482801 L 241.816709 198.75812 L 241.970685 198.745718 L 242.072508 198.904461 L 242.303472 198.83005 L 242.646193 198.944147 L 242.770368 199.212025 L 242.85729 199.100409 L 242.949179 199.283955 L 243.103155 199.100409 L 243.326669 199.157457 L 243.428492 199.184741 L 243.694225 199.415414 L 244.007144 199.403012 L 244.104 199.487344 L 244.613115 199.484864 L 244.687619 199.559274 L 245.065109 199.38813 L 245.199217 199.502226 L 245.283656 199.301318 L 245.385479 199.502226 L 245.745585 199.244269 L 245.849891 199.343484 L 245.993933 199.159937 L 246.083339 199.283955 L 246.398741 198.83005 L 246.560168 198.954068 L 246.885505 198.601858 L 246.994778 198.698592 L 247.096601 198.356303 L 247.210842 198.455517 L 247.469124 198.209962 L 247.680221 198.138032 L 248.152083 197.780861 L 248.276257 197.795743 L 248.442651 197.465856 L 248.601594 197.450974 L 249.02627 197.036755 L 250.071818 196.448912 L 250.153773 196.203357 L 250.282915 196.178553 L 250.426957 196.019811 L 250.541197 196.190955 L 250.754777 195.848666 L 251.114883 195.749452 L 251.211738 195.59319 L 251.6687 195.59319 L 251.78294 195.407163 L 251.93195 195.419565 L 252.138079 195.149207 L 252.229968 195.236019 L 253.163759 194.620892 L 253.300351 194.722586 L 253.757312 194.353013 L 253.861619 194.353013 L 254.095066 194.194271 L 254.301196 193.923912 L 254.547061 193.923912 L 254.656334 193.750288 L 254.884815 193.752768 L 255.13068 193.470008 L 255.349227 193.383195 L 255.428699 193.385676 L 255.595092 193.212051 L 255.696915 193.286462 L 256.114141 193.115317 L 256.722595 192.832557 L 256.928725 192.748225 L 257.179557 192.745745 L 257.28883 192.587002 L 257.504894 192.658932 L 257.850098 192.462985 L 258.004074 192.475386 L 258.128249 192.304242 L 258.210204 192.403456 L 258.312027 192.207508 L 258.443651 192.304242 L 258.570309 192.120696 L 258.746637 192.192626 L 259.377442 191.862739 L 259.484232 191.949551 L 259.583572 191.763525 L 259.702779 191.922268 L 259.807086 191.679193 L 260.028116 191.751123 L 260.177125 191.679193 L 260.291365 191.753604 L 260.504945 191.679193 L 261.07118 191.493167 L 261.202805 191.654389 L 261.312078 191.408835 L 261.523175 191.480765 L 261.900665 191.393952 L 261.962752 190.612641 L 262.682963 192.683736 L 262.889092 192.706059 L 263.480162 192.606845 L 263.581985 192.462985 L 263.678841 192.534915 L 263.937124 192.36377 L 264.143253 192.36377 L 264.257494 192.29184 L 264.394085 192.36377 L 264.587797 192.105814 L 264.744257 192.00908 L 264.85353 192.093412 L 265.206185 191.922268 L 265.327876 191.850337 L 265.424732 191.651909 L 265.586159 191.837936 L 265.740135 191.468363 L 266.231865 191.297219 L 266.323754 191.384031 L 266.433028 191.113673 L 266.544785 191.198005 L 266.639157 191.014458 L 266.803067 191.210406 L 266.957043 191.185603 L 267.021614 191.014458 L 267.461191 191.011978 L 267.582882 190.942528 L 267.731891 191.014458 L 267.93057 190.927646 L 268.171468 191.002057 L 268.273291 190.756502 L 268.399949 190.917725 L 268.760055 190.756502 L 268.864361 190.843314 L 268.995986 190.74162 L 269.087875 190.828432 L 269.400794 190.657288 L 269.716197 190.756502 L 269.785735 190.560554 L 269.991864 190.630004 L 270.08872 190.630004 L 270.299816 190.473741 L 270.356937 190.729218 L 270.436408 190.632484 L 270.918205 190.558073 L 271.027478 190.458859 L 271.134268 190.53079 L 271.22119 190.389409 L 271.380133 190.362126 L 271.479473 190.558073 L 271.593713 190.374527 L 271.914083 190.458859 L 272.09041 190.473741 L 272.286606 190.374527 L 272.520053 190.446458 L 272.852841 190.262911 L 272.972048 190.374527 L 273.200529 190.188501 L 273.43646 190.275313 L 273.520898 190.091767 L 273.687292 190.275313 L 273.893421 190.076885 L 274.131836 190.076885 L 274.596248 189.821409 L 274.712972 190.004955 L 274.906684 189.806527 L 275.296591 189.734596 L 276.766815 189.451836 L 276.863671 189.608098 L 276.982879 189.439434 L 277.092152 189.536168 L 277.184041 189.436954 L 277.395138 189.62298 L 277.521795 189.436954 L 277.772628 189.508884 L 277.886868 189.436954 L 278.078096 189.523766 L 278.326445 189.424552 L 278.482905 189.608098 L 278.579761 189.424552 L 278.763539 189.508884 L 279.026788 189.424552 L 279.369509 189.424552 L 279.511068 189.253408 L 279.702297 189.508884 L 279.958096 189.34022 L 280.146841 189.508884 L 280.285916 189.424552 L 280.73046 189.496482 L 281.189905 189.511365 L 281.304145 189.310456 L 281.43577 189.496482 L 281.646867 189.394788 L 281.75614 189.466718 L 282.002005 189.397268 L 282.339759 189.469199 L 282.784303 189.298054 L 282.905994 189.283172 L 283.104673 189.384867 L 283.169244 189.285652 L 283.248715 189.382386 L 283.506998 189.19884 L 283.58647 189.369984 L 284.043431 189.186438 L 284.296747 189.283172 L 284.39857 189.112028 L 284.535161 189.183958 L 284.656852 188.997931 L 284.753708 189.087224 L 284.845597 189.012814 L 285.570775 189.513845 L 285.771938 189.784203 L 286.002902 190.04216 L 286.218965 189.883417 L 286.35059 189.796605 L 286.447446 189.883417 L 287.060867 189.598177 L 287.36882 189.598177 L 288.113866 189.613059 L 288.210722 189.511365 L 288.421818 189.670107 L 289.31339 189.684989 L 289.695847 189.684989 L 289.777802 189.841251 L 290.001315 189.655225 L 290.185093 189.826369 L 290.252148 189.655225 L 290.475661 189.742037 L 291.041896 189.670107 L 291.161104 189.556011 L 291.419386 189.742037 L 291.52866 189.471679 L 291.849029 189.739557 L 292.065093 189.556011 L 292.517087 189.640343 L 292.897061 190.153776 L 292.998884 190.069444 L 293.10319 190.238108 L 293.381341 190.156256 L 293.47323 190.153776 L 293.565119 190.267872 L 293.652041 190.153776 L 293.815951 190.32492 L 293.902873 190.168658 L 294.007179 190.339802 L 294.143771 190.084326 L 294.287813 190.153776 L 294.372252 189.997514 L 294.481525 190.054562 L 294.583348 189.913182 L 294.965805 190.153776 L 296.197614 190.04216 L 296.289503 190.126492 L 296.455897 190.03968 L 296.552753 190.126492 L 296.662026 189.955348 L 297.022132 190.141374 L 297.451775 190.11409 L 297.794496 190.096728 " transform="matrix(1.57289,0,0,1.574877,0.00059772,0)"/>
<path style="fill:none;stroke-width:2.5;stroke-linecap:butt;stroke-linejoin:round;stroke:rgb(100%,0%,0%);stroke-opacity:1;stroke-dasharray:9.25,4;stroke-miterlimit:4;" d="M 55.873101 190.190981 L 125.69881 190.190981 L 125.81305 76.260931 L 148.134628 76.260931 L 148.370559 19.297146 L 154.663714 19.297146 L 154.795339 47.779038 L 173.632585 47.779038 L 173.866032 76.260931 L 186.581484 76.260931 L 186.67834 104.742823 L 186.814931 104.742823 L 186.911787 76.260931 L 187.117917 104.742823 L 195.594056 104.742823 L 195.713264 133.227196 L 200.508876 133.227196 L 200.754742 161.709089 L 202.488215 161.709089 L 202.67696 190.190981 L 202.922825 161.709089 L 203.071835 161.709089 L 203.282931 190.190981 L 297.794496 190.190981 " transform="matrix(1.57289,0,0,1.574877,0.00059772,0)"/>
<path style="fill:none;stroke-width:0.8;stroke-linecap:square;stroke-linejoin:miter;stroke:rgb(0%,0%,0%);stroke-opacity:1;stroke-miterlimit:10;" d="M 43.778522 273.312568 L 43.778522 7.200465 M 309.889076 273.312568 L 309.889076 7.200465 M 43.778522 273.312568 L 309.889076 273.312568 M 43.778522 7.200465 L 309.889076 7.200465 " transform="matrix(1.57289,0,0,1.574877,0.00059772,0)"/>
<path style="fill-rule:nonzero;fill:rgb(100%,100%,100%);fill-opacity:0.8;stroke-width:1;stroke-linecap:butt;stroke-linejoin:miter;stroke:rgb(83.529412%,83.921569%,83.529412%);stroke-opacity:0.8;stroke-miterlimit:10;" d="M 174.044843 268.312177 L 302.890611 268.312177 C 304.22176 268.312177 304.889818 267.644962 304.889818 266.313012 L 304.889818 237.967539 C 304.889818 236.63559 304.22176 235.968375 302.890611 235.968375 L 174.044843 235.968375 C 172.713695 235.968375 172.045637 236.63559 172.045637 237.967539 L 172.045637 266.313012 C 172.045637 267.644962 172.713695 268.312177 174.044843 268.312177 Z M 174.044843 268.312177 " transform="matrix(1.57289,0,0,1.574877,0.00059772,0)"/>
<path style="fill:none;stroke-width:2.5;stroke-linecap:square;stroke-linejoin:round;stroke:rgb(0%,50.196078%,50.196078%);stroke-opacity:1;stroke-miterlimit:4;" d="M 176.046534 244.061766 L 196.046051 244.061766 " transform="matrix(1.57289,0,0,1.574877,0.00059772,0)"/>
<path style=" stroke:none;fill-rule:nonzero;fill:rgb(0%,0%,0%);fill-opacity:1;" d="M 331.070312 379.28125 L 331.070312 380.917969 C 330.535156 380.445312 329.988281 380.082031 329.390625 379.832031 C 328.792969 379.59375 328.175781 379.46875 327.515625 379.46875 C 326.195312 379.46875 325.1875 379.878906 324.496094 380.683594 C 323.804688 381.484375 323.460938 382.636719 323.460938 384.148438 C 323.460938 385.660156 323.804688 386.824219 324.496094 387.628906 C 325.1875 388.429688 326.195312 388.824219 327.515625 388.824219 C 328.175781 388.824219 328.792969 388.714844 329.390625 388.460938 C 329.988281 388.226562 330.535156 387.863281 331.070312 387.375 L 331.070312 388.996094 C 330.519531 389.375 329.9375 389.644531 329.339844 389.816406 C 328.742188 389.988281 328.097656 390.085938 327.421875 390.085938 C 325.691406 390.085938 324.324219 389.566406 323.316406 388.507812 C 322.3125 387.453125 321.824219 386.003906 321.824219 384.148438 C 321.824219 382.304688 322.3125 380.855469 323.316406 379.785156 C 324.324219 378.730469 325.691406 378.195312 327.421875 378.195312 C 328.113281 378.195312 328.757812 378.289062 329.355469 378.460938 C 329.953125 378.652344 330.535156 378.917969 331.070312 379.28125 Z M 331.070312 379.28125 "/>
<path style=" stroke:none;fill-rule:nonzero;fill:rgb(0%,0%,0%);fill-opacity:1;" d="M 333.257812 386.476562 L 333.257812 381.265625 L 334.671875 381.265625 L 334.671875 386.429688 C 334.671875 387.25 334.832031 387.847656 335.144531 388.257812 C 335.460938 388.667969 335.933594 388.871094 336.578125 388.871094 C 337.332031 388.871094 337.945312 388.636719 338.386719 388.148438 C 338.824219 387.660156 339.046875 386.996094 339.046875 386.148438 L 339.046875 381.265625 L 340.460938 381.265625 L 340.460938 389.878906 L 339.046875 389.878906 L 339.046875 388.558594 C 338.699219 389.09375 338.292969 389.46875 337.851562 389.722656 C 337.394531 389.957031 336.875 390.085938 336.277344 390.085938 C 335.289062 390.085938 334.53125 389.785156 334.027344 389.171875 C 333.511719 388.574219 333.257812 387.675781 333.257812 386.476562 Z M 336.8125 381.058594 Z M 336.8125 381.058594 "/>
<path style=" stroke:none;fill-rule:nonzero;fill:rgb(0%,0%,0%);fill-opacity:1;" d="M 348.359375 382.589844 C 348.199219 382.492188 348.027344 382.429688 347.839844 382.382812 C 347.648438 382.351562 347.445312 382.320312 347.226562 382.320312 C 346.421875 382.320312 345.808594 382.589844 345.386719 383.109375 C 344.945312 383.628906 344.738281 384.367188 344.738281 385.34375 L 344.738281 389.878906 L 343.324219 389.878906 L 343.324219 381.265625 L 344.738281 381.265625 L 344.738281 382.605469 C 345.023438 382.085938 345.417969 381.691406 345.886719 381.4375 C 346.359375 381.1875 346.941406 381.058594 347.632812 381.058594 C 347.730469 381.058594 347.839844 381.074219 347.964844 381.074219 C 348.074219 381.09375 348.199219 381.109375 348.359375 381.140625 Z M 348.359375 382.589844 "/>
<path style=" stroke:none;fill-rule:nonzero;fill:rgb(0%,0%,0%);fill-opacity:1;" d="M 354.554688 382.589844 C 354.394531 382.492188 354.222656 382.429688 354.035156 382.382812 C 353.84375 382.351562 353.640625 382.320312 353.421875 382.320312 C 352.617188 382.320312 352.003906 382.589844 351.582031 383.109375 C 351.140625 383.628906 350.9375 384.367188 350.9375 385.34375 L 350.9375 389.878906 L 349.519531 389.878906 L 349.519531 381.265625 L 350.9375 381.265625 L 350.9375 382.605469 C 351.21875 382.085938 351.613281 381.691406 352.085938 381.4375 C 352.554688 381.1875 353.136719 381.058594 353.828125 381.058594 C 353.925781 381.058594 354.035156 381.074219 354.160156 381.074219 C 354.269531 381.09375 354.394531 381.109375 354.554688 381.140625 Z M 354.554688 382.589844 "/>
<path style=" stroke:none;fill-rule:nonzero;fill:rgb(0%,0%,0%);fill-opacity:1;" d="M 363.046875 385.21875 L 363.046875 385.910156 L 356.550781 385.910156 C 356.617188 386.886719 356.898438 387.644531 357.433594 388.148438 C 357.953125 388.652344 358.675781 388.902344 359.621094 388.902344 C 360.15625 388.902344 360.6875 388.839844 361.191406 388.714844 C 361.695312 388.589844 362.214844 388.382812 362.71875 388.101562 L 362.71875 389.4375 C 362.214844 389.660156 361.695312 389.832031 361.160156 389.925781 C 360.625 390.019531 360.074219 390.085938 359.542969 390.085938 C 358.15625 390.085938 357.070312 389.691406 356.269531 388.902344 C 355.46875 388.117188 355.074219 387.027344 355.074219 385.660156 C 355.074219 384.257812 355.453125 383.140625 356.207031 382.304688 C 356.960938 381.484375 358 381.058594 359.289062 381.058594 C 360.453125 381.058594 361.367188 381.4375 362.042969 382.179688 C 362.703125 382.933594 363.046875 383.941406 363.046875 385.21875 Z M 361.632812 384.808594 C 361.617188 384.035156 361.398438 383.421875 360.988281 382.949219 C 360.5625 382.492188 359.996094 382.257812 359.304688 382.257812 C 358.519531 382.257812 357.890625 382.492188 357.417969 382.933594 C 356.945312 383.375 356.664062 384.003906 356.601562 384.808594 Z M 361.632812 384.808594 "/>
<path style=" stroke:none;fill-rule:nonzero;fill:rgb(0%,0%,0%);fill-opacity:1;" d="M 372.515625 384.683594 L 372.515625 389.878906 L 371.101562 389.878906 L 371.101562 384.730469 C 371.101562 383.910156 370.929688 383.3125 370.613281 382.902344 C 370.300781 382.492188 369.828125 382.289062 369.199219 382.289062 C 368.429688 382.289062 367.832031 382.539062 367.390625 383.027344 C 366.949219 383.515625 366.730469 384.179688 366.730469 385.011719 L 366.730469 389.878906 L 365.3125 389.878906 L 365.3125 381.265625 L 366.730469 381.265625 L 366.730469 382.605469 C 367.058594 382.101562 367.453125 381.707031 367.925781 381.453125 C 368.378906 381.203125 368.914062 381.058594 369.511719 381.058594 C 370.488281 381.058594 371.242188 381.375 371.746094 381.988281 C 372.25 382.605469 372.515625 383.5 372.515625 384.683594 Z M 372.515625 384.683594 "/>
<path style=" stroke:none;fill-rule:nonzero;fill:rgb(0%,0%,0%);fill-opacity:1;" d="M 376.734375 378.824219 L 376.734375 381.265625 L 379.644531 381.265625 L 379.644531 382.367188 L 376.734375 382.367188 L 376.734375 387.042969 C 376.734375 387.753906 376.828125 388.210938 377.015625 388.398438 C 377.203125 388.605469 377.597656 388.699219 378.195312 388.699219 L 379.644531 388.699219 L 379.644531 389.878906 L 378.195312 389.878906 C 377.09375 389.878906 376.339844 389.675781 375.929688 389.265625 C 375.523438 388.855469 375.316406 388.117188 375.316406 387.042969 L 375.316406 382.367188 L 374.277344 382.367188 L 374.277344 381.265625 L 375.316406 381.265625 L 375.316406 378.824219 Z M 376.734375 378.824219 "/>
<path style=" stroke:none;fill-rule:nonzero;fill:rgb(0%,0%,0%);fill-opacity:1;" d="M 391.988281 381.515625 L 391.988281 382.855469 C 391.582031 382.667969 391.171875 382.507812 390.746094 382.398438 C 390.308594 382.304688 389.867188 382.242188 389.410156 382.242188 C 388.703125 382.242188 388.167969 382.351562 387.820312 382.570312 C 387.476562 382.792969 387.300781 383.109375 387.300781 383.53125 C 387.300781 383.863281 387.429688 384.117188 387.679688 384.304688 C 387.933594 384.492188 388.433594 384.683594 389.191406 384.839844 L 389.675781 384.949219 C 390.683594 385.171875 391.390625 385.484375 391.816406 385.863281 C 392.226562 386.257812 392.445312 386.808594 392.445312 387.5 C 392.445312 388.304688 392.132812 388.933594 391.503906 389.390625 C 390.875 389.863281 389.992188 390.085938 388.890625 390.085938 C 388.417969 390.085938 387.949219 390.039062 387.445312 389.957031 C 386.941406 389.878906 386.421875 389.753906 385.871094 389.566406 L 385.871094 388.101562 C 386.390625 388.382812 386.910156 388.589844 387.414062 388.714844 C 387.917969 388.855469 388.417969 388.917969 388.921875 388.917969 C 389.582031 388.917969 390.101562 388.808594 390.464844 388.589844 C 390.808594 388.367188 391 388.035156 391 387.613281 C 391 387.234375 390.855469 386.933594 390.605469 386.730469 C 390.355469 386.523438 389.789062 386.320312 388.90625 386.132812 L 388.417969 386.019531 C 387.539062 385.832031 386.894531 385.546875 386.515625 385.171875 C 386.121094 384.792969 385.933594 384.273438 385.933594 383.597656 C 385.933594 382.792969 386.21875 382.164062 386.785156 381.722656 C 387.351562 381.28125 388.167969 381.058594 389.238281 381.058594 C 389.757812 381.058594 390.242188 381.109375 390.714844 381.1875 C 391.171875 381.265625 391.597656 381.375 391.988281 381.515625 Z M 391.988281 381.515625 "/>
<path style=" stroke:none;fill-rule:nonzero;fill:rgb(0%,0%,0%);fill-opacity:1;" d="M 396.0625 388.589844 L 396.0625 393.140625 L 394.648438 393.140625 L 394.648438 381.265625 L 396.0625 381.265625 L 396.0625 382.570312 C 396.347656 382.066406 396.722656 381.691406 397.179688 381.4375 C 397.636719 381.1875 398.1875 381.058594 398.816406 381.058594 C 399.855469 381.058594 400.703125 381.484375 401.363281 382.304688 C 402.007812 383.140625 402.339844 384.226562 402.339844 385.582031 C 402.339844 386.933594 402.007812 388.035156 401.363281 388.855469 C 400.703125 389.675781 399.855469 390.085938 398.816406 390.085938 C 398.1875 390.085938 397.636719 389.957031 397.179688 389.722656 C 396.722656 389.484375 396.347656 389.109375 396.0625 388.589844 Z M 400.875 385.582031 C 400.875 384.539062 400.65625 383.738281 400.230469 383.140625 C 399.792969 382.539062 399.210938 382.242188 398.46875 382.242188 C 397.714844 382.242188 397.132812 382.539062 396.707031 383.140625 C 396.269531 383.738281 396.0625 384.539062 396.0625 385.582031 C 396.0625 386.621094 396.269531 387.4375 396.707031 388.035156 C 397.132812 388.636719 397.714844 388.917969 398.46875 388.917969 C 399.210938 388.917969 399.792969 388.636719 400.230469 388.035156 C 400.65625 387.4375 400.875 386.621094 400.875 385.582031 Z M 400.875 385.582031 "/>
<path style=" stroke:none;fill-rule:nonzero;fill:rgb(0%,0%,0%);fill-opacity:1;" d="M 412.042969 385.21875 L 412.042969 385.910156 L 405.546875 385.910156 C 405.609375 386.886719 405.894531 387.644531 406.429688 388.148438 C 406.949219 388.652344 407.671875 388.902344 408.617188 388.902344 C 409.148438 388.902344 409.683594 388.839844 410.1875 388.714844 C 410.691406 388.589844 411.210938 388.382812 411.714844 388.101562 L 411.714844 389.4375 C 411.210938 389.660156 410.691406 389.832031 410.15625 389.925781 C 409.621094 390.019531 409.070312 390.085938 408.535156 390.085938 C 407.152344 390.085938 406.066406 389.691406 405.265625 388.902344 C 404.460938 388.117188 404.070312 387.027344 404.070312 385.660156 C 404.070312 384.257812 404.445312 383.140625 405.203125 382.304688 C 405.957031 381.484375 406.996094 381.058594 408.285156 381.058594 C 409.449219 381.058594 410.359375 381.4375 411.039062 382.179688 C 411.699219 382.933594 412.042969 383.941406 412.042969 385.21875 Z M 410.628906 384.808594 C 410.613281 384.035156 410.394531 383.421875 409.984375 382.949219 C 409.558594 382.492188 408.992188 382.257812 408.300781 382.257812 C 407.515625 382.257812 406.886719 382.492188 406.414062 382.933594 C 405.941406 383.375 405.660156 384.003906 405.59375 384.808594 Z M 410.628906 384.808594 "/>
<path style=" stroke:none;fill-rule:nonzero;fill:rgb(0%,0%,0%);fill-opacity:1;" d="M 421.71875 385.21875 L 421.71875 385.910156 L 415.222656 385.910156 C 415.285156 386.886719 415.566406 387.644531 416.101562 388.148438 C 416.621094 388.652344 417.34375 388.902344 418.289062 388.902344 C 418.824219 388.902344 419.359375 388.839844 419.863281 388.714844 C 420.363281 388.589844 420.882812 388.382812 421.386719 388.101562 L 421.386719 389.4375 C 420.882812 389.660156 420.363281 389.832031 419.828125 389.925781 C 419.296875 390.019531 418.746094 390.085938 418.210938 390.085938 C 416.824219 390.085938 415.742188 389.691406 414.9375 388.902344 C 414.136719 388.117188 413.742188 387.027344 413.742188 385.660156 C 413.742188 384.257812 414.121094 383.140625 414.875 382.304688 C 415.628906 381.484375 416.667969 381.058594 417.957031 381.058594 C 419.121094 381.058594 420.035156 381.4375 420.710938 382.179688 C 421.371094 382.933594 421.71875 383.941406 421.71875 385.21875 Z M 420.300781 384.808594 C 420.285156 384.035156 420.066406 383.421875 419.65625 382.949219 C 419.230469 382.492188 418.667969 382.257812 417.972656 382.257812 C 417.1875 382.257812 416.558594 382.492188 416.085938 382.933594 C 415.613281 383.375 415.332031 384.003906 415.269531 384.808594 Z M 420.300781 384.808594 "/>
<path style=" stroke:none;fill-rule:nonzero;fill:rgb(0%,0%,0%);fill-opacity:1;" d="M 429.691406 382.570312 L 429.691406 377.910156 L 431.109375 377.910156 L 431.109375 389.878906 L 429.691406 389.878906 L 429.691406 388.589844 C 429.394531 389.109375 429.015625 389.484375 428.558594 389.722656 C 428.101562 389.957031 427.570312 390.085938 426.9375 390.085938 C 425.902344 390.085938 425.050781 389.675781 424.390625 388.855469 C 423.730469 388.035156 423.417969 386.933594 423.417969 385.582031 C 423.417969 384.226562 423.730469 383.140625 424.390625 382.304688 C 425.050781 381.484375 425.902344 381.058594 426.9375 381.058594 C 427.570312 381.058594 428.101562 381.1875 428.558594 381.4375 C 429.015625 381.691406 429.394531 382.066406 429.691406 382.570312 Z M 424.878906 385.582031 C 424.878906 386.621094 425.082031 387.4375 425.507812 388.035156 C 425.933594 388.636719 426.515625 388.917969 427.269531 388.917969 C 428.023438 388.917969 428.605469 388.636719 429.046875 388.035156 C 429.472656 387.4375 429.691406 386.621094 429.691406 385.582031 C 429.691406 384.539062 429.472656 383.738281 429.046875 383.140625 C 428.605469 382.539062 428.023438 382.242188 427.269531 382.242188 C 426.515625 382.242188 425.933594 382.539062 425.507812 383.140625 C 425.082031 383.738281 424.878906 384.539062 424.878906 385.582031 Z M 424.878906 385.582031 "/>
<path style=" stroke:none;fill-rule:nonzero;fill:rgb(0%,0%,0%);fill-opacity:1;" d="M 442.417969 377.925781 C 441.722656 379.125 441.222656 380.289062 440.890625 381.4375 C 440.546875 382.589844 440.386719 383.753906 440.386719 384.933594 C 440.386719 386.132812 440.546875 387.296875 440.890625 388.445312 C 441.222656 389.613281 441.722656 390.761719 442.417969 391.941406 L 441.191406 391.941406 C 440.417969 390.730469 439.835938 389.566406 439.460938 388.398438 C 439.082031 387.234375 438.894531 386.085938 438.894531 384.933594 C 438.894531 383.800781 439.082031 382.652344 439.460938 381.484375 C 439.835938 380.320312 440.402344 379.140625 441.191406 377.925781 Z M 442.417969 377.925781 "/>
<path style=" stroke:none;fill-rule:nonzero;fill:rgb(0%,0%,0%);fill-opacity:1;" d="M 449.871094 379.453125 C 448.738281 379.453125 447.84375 379.878906 447.183594 380.714844 C 446.523438 381.5625 446.191406 382.699219 446.191406 384.148438 C 446.191406 385.597656 446.523438 386.746094 447.183594 387.582031 C 447.84375 388.429688 448.738281 388.839844 449.871094 388.839844 C 450.988281 388.839844 451.886719 388.429688 452.546875 387.582031 C 453.207031 386.746094 453.535156 385.597656 453.535156 384.148438 C 453.535156 382.699219 453.207031 381.5625 452.546875 380.714844 C 451.886719 379.878906 450.988281 379.453125 449.871094 379.453125 Z M 449.871094 378.195312 C 451.476562 378.195312 452.75 378.746094 453.726562 379.816406 C 454.683594 380.886719 455.171875 382.335938 455.171875 384.148438 C 455.171875 385.972656 454.683594 387.40625 453.726562 388.476562 C 452.75 389.550781 451.476562 390.085938 449.871094 390.085938 C 448.253906 390.085938 446.960938 389.550781 446.003906 388.476562 C 445.027344 387.40625 444.554688 385.972656 444.554688 384.148438 C 444.554688 382.335938 445.027344 380.886719 446.003906 379.816406 C 446.960938 378.746094 448.253906 378.195312 449.871094 378.195312 Z M 449.871094 378.195312 "/>
<path style=" stroke:none;fill-rule:nonzero;fill:rgb(0%,0%,0%);fill-opacity:1;" d="M 464.46875 378.777344 L 464.46875 380.289062 C 463.871094 380.003906 463.320312 379.800781 462.800781 379.660156 C 462.265625 379.53125 461.761719 379.453125 461.292969 379.453125 C 460.441406 379.453125 459.78125 379.628906 459.324219 379.941406 C 458.867188 380.273438 458.648438 380.746094 458.648438 381.34375 C 458.648438 381.847656 458.789062 382.242188 459.105469 382.492188 C 459.402344 382.761719 459.984375 382.964844 460.835938 383.125 L 461.777344 383.3125 C 462.925781 383.53125 463.777344 383.925781 464.328125 384.476562 C 464.878906 385.042969 465.160156 385.785156 465.160156 386.714844 C 465.160156 387.832031 464.78125 388.667969 464.042969 389.234375 C 463.289062 389.800781 462.203125 390.085938 460.773438 390.085938 C 460.222656 390.085938 459.640625 390.019531 459.027344 389.910156 C 458.414062 389.800781 457.785156 389.628906 457.140625 389.375 L 457.140625 387.769531 C 457.769531 388.132812 458.382812 388.398438 458.980469 388.574219 C 459.578125 388.761719 460.175781 388.839844 460.773438 388.839844 C 461.652344 388.839844 462.328125 388.667969 462.816406 388.320312 C 463.289062 387.972656 463.539062 387.484375 463.539062 386.824219 C 463.539062 386.257812 463.367188 385.816406 463.023438 385.5 C 462.675781 385.1875 462.109375 384.949219 461.324219 384.792969 L 460.378906 384.605469 C 459.214844 384.382812 458.382812 384.019531 457.863281 383.515625 C 457.34375 383.027344 457.089844 382.351562 457.089844 381.46875 C 457.089844 380.460938 457.4375 379.660156 458.160156 379.074219 C 458.867188 378.492188 459.859375 378.195312 461.117188 378.195312 C 461.652344 378.195312 462.1875 378.242188 462.753906 378.335938 C 463.304688 378.429688 463.871094 378.585938 464.46875 378.777344 Z M 464.46875 378.777344 "/>
<path style=" stroke:none;fill-rule:nonzero;fill:rgb(0%,0%,0%);fill-opacity:1;" d="M 467.300781 377.925781 L 468.527344 377.925781 C 469.28125 379.140625 469.863281 380.320312 470.242188 381.484375 C 470.617188 382.652344 470.824219 383.800781 470.824219 384.933594 C 470.824219 386.085938 470.617188 387.234375 470.242188 388.398438 C 469.863281 389.566406 469.28125 390.730469 468.527344 391.941406 L 467.300781 391.941406 C 467.976562 390.761719 468.480469 389.613281 468.824219 388.445312 C 469.15625 387.296875 469.328125 386.132812 469.328125 384.933594 C 469.328125 383.753906 469.15625 382.589844 468.824219 381.4375 C 468.480469 380.289062 467.976562 379.125 467.300781 377.925781 Z M 467.300781 377.925781 "/>
<path style="fill:none;stroke-width:2.5;stroke-linecap:butt;stroke-linejoin:round;stroke:rgb(100%,0%,0%);stroke-opacity:1;stroke-dasharray:9.25,4;stroke-miterlimit:4;" d="M 176.046534 258.733054 L 196.046051 258.733054 " transform="matrix(1.57289,0,0,1.574877,0.00059772,0)"/>
<path style=" stroke:none;fill-rule:nonzero;fill:rgb(0%,0%,0%);fill-opacity:1;" d="M 324.039062 402.78125 L 324.039062 411.710938 L 325.914062 411.710938 C 327.484375 411.710938 328.648438 411.363281 329.390625 410.640625 C 330.113281 409.914062 330.488281 408.78125 330.488281 407.238281 C 330.488281 405.695312 330.113281 404.578125 329.390625 403.851562 C 328.648438 403.144531 327.484375 402.78125 325.914062 402.78125 Z M 322.484375 401.503906 L 325.675781 401.503906 C 327.894531 401.503906 329.53125 401.976562 330.570312 402.890625 C 331.605469 403.820312 332.125 405.269531 332.125 407.238281 C 332.125 409.222656 331.589844 410.671875 330.554688 411.601562 C 329.515625 412.53125 327.878906 412.984375 325.675781 412.984375 L 322.484375 412.984375 Z M 322.484375 401.503906 "/>
<path style=" stroke:none;fill-rule:nonzero;fill:rgb(0%,0%,0%);fill-opacity:1;" d="M 341.894531 408.324219 L 341.894531 409.015625 L 335.398438 409.015625 C 335.460938 409.992188 335.742188 410.75 336.277344 411.253906 C 336.796875 411.757812 337.519531 412.011719 338.464844 412.011719 C 339 412.011719 339.535156 411.945312 340.039062 411.820312 C 340.539062 411.695312 341.058594 411.488281 341.5625 411.207031 L 341.5625 412.546875 C 341.058594 412.765625 340.539062 412.9375 340.003906 413.035156 C 339.472656 413.128906 338.921875 413.191406 338.386719 413.191406 C 337 413.191406 335.917969 412.796875 335.113281 412.011719 C 334.3125 411.222656 333.917969 410.136719 333.917969 408.765625 C 333.917969 407.363281 334.296875 406.246094 335.050781 405.410156 C 335.804688 404.59375 336.84375 404.167969 338.132812 404.167969 C 339.296875 404.167969 340.210938 404.542969 340.886719 405.285156 C 341.546875 406.039062 341.894531 407.050781 341.894531 408.324219 Z M 340.476562 407.914062 C 340.460938 407.144531 340.242188 406.527344 339.832031 406.058594 C 339.40625 405.601562 338.84375 405.363281 338.148438 405.363281 C 337.363281 405.363281 336.734375 405.601562 336.261719 406.039062 C 335.789062 406.480469 335.507812 407.113281 335.445312 407.914062 Z M 340.476562 407.914062 "/>
<path style=" stroke:none;fill-rule:nonzero;fill:rgb(0%,0%,0%);fill-opacity:1;" d="M 349.695312 404.625 L 349.695312 405.960938 C 349.285156 405.773438 348.875 405.617188 348.453125 405.503906 C 348.011719 405.410156 347.570312 405.347656 347.117188 405.347656 C 346.40625 405.347656 345.871094 405.457031 345.527344 405.679688 C 345.179688 405.898438 345.007812 406.214844 345.007812 406.640625 C 345.007812 406.96875 345.132812 407.222656 345.386719 407.410156 C 345.636719 407.601562 346.140625 407.789062 346.894531 407.945312 L 347.382812 408.058594 C 348.390625 408.277344 349.097656 408.59375 349.523438 408.96875 C 349.929688 409.363281 350.152344 409.914062 350.152344 410.609375 C 350.152344 411.410156 349.835938 412.042969 349.207031 412.496094 C 348.578125 412.96875 347.695312 413.191406 346.597656 413.191406 C 346.125 413.191406 345.652344 413.144531 345.148438 413.066406 C 344.644531 412.984375 344.125 412.859375 343.578125 412.671875 L 343.578125 411.207031 C 344.09375 411.488281 344.613281 411.695312 345.117188 411.820312 C 345.621094 411.960938 346.125 412.027344 346.628906 412.027344 C 347.289062 412.027344 347.808594 411.914062 348.167969 411.695312 C 348.515625 411.472656 348.703125 411.144531 348.703125 410.71875 C 348.703125 410.339844 348.5625 410.042969 348.3125 409.835938 C 348.058594 409.632812 347.492188 409.425781 346.613281 409.238281 L 346.125 409.128906 C 345.242188 408.9375 344.597656 408.65625 344.222656 408.277344 C 343.828125 407.898438 343.640625 407.378906 343.640625 406.703125 C 343.640625 405.898438 343.921875 405.269531 344.488281 404.828125 C 345.054688 404.386719 345.871094 404.167969 346.941406 404.167969 C 347.460938 404.167969 347.949219 404.214844 348.421875 404.292969 C 348.875 404.371094 349.300781 404.480469 349.695312 404.625 Z M 349.695312 404.625 "/>
<path style=" stroke:none;fill-rule:nonzero;fill:rgb(0%,0%,0%);fill-opacity:1;" d="M 352.398438 404.371094 L 353.816406 404.371094 L 353.816406 412.984375 L 352.398438 412.984375 Z M 352.398438 401.015625 L 353.816406 401.015625 L 353.816406 402.8125 L 352.398438 402.8125 Z M 352.398438 401.015625 "/>
<path style=" stroke:none;fill-rule:nonzero;fill:rgb(0%,0%,0%);fill-opacity:1;" d="M 361.757812 405.695312 C 361.601562 405.601562 361.429688 405.535156 361.238281 405.488281 C 361.050781 405.457031 360.847656 405.425781 360.625 405.425781 C 359.824219 405.425781 359.210938 405.695312 358.785156 406.214844 C 358.347656 406.734375 358.140625 407.472656 358.140625 408.449219 L 358.140625 412.984375 L 356.726562 412.984375 L 356.726562 404.371094 L 358.140625 404.371094 L 358.140625 405.710938 C 358.425781 405.191406 358.816406 404.796875 359.289062 404.542969 C 359.761719 404.292969 360.34375 404.167969 361.035156 404.167969 C 361.128906 404.167969 361.238281 404.183594 361.367188 404.183594 C 361.476562 404.199219 361.601562 404.214844 361.757812 404.246094 Z M 361.757812 405.695312 "/>
<path style=" stroke:none;fill-rule:nonzero;fill:rgb(0%,0%,0%);fill-opacity:1;" d="M 370.253906 408.324219 L 370.253906 409.015625 L 363.757812 409.015625 C 363.824219 409.992188 364.105469 410.75 364.640625 411.253906 C 365.160156 411.757812 365.882812 412.011719 366.828125 412.011719 C 367.363281 412.011719 367.894531 411.945312 368.398438 411.820312 C 368.902344 411.695312 369.421875 411.488281 369.925781 411.207031 L 369.925781 412.546875 C 369.421875 412.765625 368.902344 412.9375 368.367188 413.035156 C 367.832031 413.128906 367.28125 413.191406 366.75 413.191406 C 365.363281 413.191406 364.277344 412.796875 363.476562 412.011719 C 362.675781 411.222656 362.28125 410.136719 362.28125 408.765625 C 362.28125 407.363281 362.660156 406.246094 363.414062 405.410156 C 364.167969 404.59375 365.207031 404.167969 366.496094 404.167969 C 367.660156 404.167969 368.574219 404.542969 369.25 405.285156 C 369.910156 406.039062 370.253906 407.050781 370.253906 408.324219 Z M 368.839844 407.914062 C 368.824219 407.144531 368.605469 406.527344 368.195312 406.058594 C 367.769531 405.601562 367.203125 405.363281 366.511719 405.363281 C 365.726562 405.363281 365.097656 405.601562 364.625 406.039062 C 364.152344 406.480469 363.871094 407.113281 363.808594 407.914062 Z M 368.839844 407.914062 "/>
<path style=" stroke:none;fill-rule:nonzero;fill:rgb(0%,0%,0%);fill-opacity:1;" d="M 378.230469 405.679688 L 378.230469 401.015625 L 379.644531 401.015625 L 379.644531 412.984375 L 378.230469 412.984375 L 378.230469 411.695312 C 377.929688 412.214844 377.554688 412.59375 377.097656 412.828125 C 376.640625 413.066406 376.105469 413.191406 375.476562 413.191406 C 374.441406 413.191406 373.589844 412.78125 372.929688 411.960938 C 372.269531 411.144531 371.953125 410.042969 371.953125 408.6875 C 371.953125 407.332031 372.269531 406.246094 372.929688 405.410156 C 373.589844 404.59375 374.441406 404.167969 375.476562 404.167969 C 376.105469 404.167969 376.640625 404.292969 377.097656 404.542969 C 377.554688 404.796875 377.929688 405.175781 378.230469 405.679688 Z M 373.417969 408.6875 C 373.417969 409.726562 373.621094 410.546875 374.046875 411.144531 C 374.472656 411.742188 375.054688 412.027344 375.808594 412.027344 C 376.5625 412.027344 377.144531 411.742188 377.585938 411.144531 C 378.011719 410.546875 378.230469 409.726562 378.230469 408.6875 C 378.230469 407.648438 378.011719 406.84375 377.585938 406.246094 C 377.144531 405.648438 376.5625 405.347656 375.808594 405.347656 C 375.054688 405.347656 374.472656 405.648438 374.046875 406.246094 C 373.621094 406.84375 373.417969 407.648438 373.417969 408.6875 Z M 373.417969 408.6875 "/>
<path style=" stroke:none;fill-rule:nonzero;fill:rgb(0%,0%,0%);fill-opacity:1;" d="M 393.046875 404.625 L 393.046875 405.960938 C 392.636719 405.773438 392.230469 405.617188 391.804688 405.503906 C 391.363281 405.410156 390.921875 405.347656 390.46875 405.347656 C 389.757812 405.347656 389.226562 405.457031 388.878906 405.679688 C 388.53125 405.898438 388.359375 406.214844 388.359375 406.640625 C 388.359375 406.96875 388.484375 407.222656 388.738281 407.410156 C 388.988281 407.601562 389.492188 407.789062 390.246094 407.945312 L 390.734375 408.058594 C 391.742188 408.277344 392.449219 408.59375 392.875 408.96875 C 393.28125 409.363281 393.503906 409.914062 393.503906 410.609375 C 393.503906 411.410156 393.1875 412.042969 392.558594 412.496094 C 391.929688 412.96875 391.050781 413.191406 389.949219 413.191406 C 389.476562 413.191406 389.003906 413.144531 388.5 413.066406 C 387.996094 412.984375 387.480469 412.859375 386.929688 412.671875 L 386.929688 411.207031 C 387.449219 411.488281 387.964844 411.695312 388.46875 411.820312 C 388.972656 411.960938 389.476562 412.027344 389.980469 412.027344 C 390.640625 412.027344 391.160156 411.914062 391.519531 411.695312 C 391.867188 411.472656 392.054688 411.144531 392.054688 410.71875 C 392.054688 410.339844 391.914062 410.042969 391.664062 409.835938 C 391.410156 409.632812 390.84375 409.425781 389.964844 409.238281 L 389.476562 409.128906 C 388.59375 408.9375 387.949219 408.65625 387.574219 408.277344 C 387.179688 407.898438 386.992188 407.378906 386.992188 406.703125 C 386.992188 405.898438 387.273438 405.269531 387.839844 404.828125 C 388.40625 404.386719 389.226562 404.167969 390.292969 404.167969 C 390.8125 404.167969 391.300781 404.214844 391.773438 404.292969 C 392.230469 404.371094 392.652344 404.480469 393.046875 404.625 Z M 393.046875 404.625 "/>
<path style=" stroke:none;fill-rule:nonzero;fill:rgb(0%,0%,0%);fill-opacity:1;" d="M 397.121094 411.695312 L 397.121094 416.246094 L 395.703125 416.246094 L 395.703125 404.371094 L 397.121094 404.371094 L 397.121094 405.679688 C 397.402344 405.175781 397.78125 404.796875 398.238281 404.542969 C 398.695312 404.292969 399.242188 404.167969 399.875 404.167969 C 400.910156 404.167969 401.761719 404.59375 402.421875 405.410156 C 403.066406 406.246094 403.394531 407.332031 403.394531 408.6875 C 403.394531 410.042969 403.066406 411.144531 402.421875 411.960938 C 401.761719 412.78125 400.910156 413.191406 399.875 413.191406 C 399.242188 413.191406 398.695312 413.066406 398.238281 412.828125 C 397.78125 412.59375 397.402344 412.214844 397.121094 411.695312 Z M 401.933594 408.6875 C 401.933594 407.648438 401.714844 406.84375 401.289062 406.246094 C 400.847656 405.648438 400.265625 405.347656 399.527344 405.347656 C 398.773438 405.347656 398.191406 405.648438 397.765625 406.246094 C 397.324219 406.84375 397.121094 407.648438 397.121094 408.6875 C 397.121094 409.726562 397.324219 410.546875 397.765625 411.144531 C 398.191406 411.742188 398.773438 412.027344 399.527344 412.027344 C 400.265625 412.027344 400.847656 411.742188 401.289062 411.144531 C 401.714844 410.546875 401.933594 409.726562 401.933594 408.6875 Z M 401.933594 408.6875 "/>
<path style=" stroke:none;fill-rule:nonzero;fill:rgb(0%,0%,0%);fill-opacity:1;" d="M 413.101562 408.324219 L 413.101562 409.015625 L 406.605469 409.015625 C 406.667969 409.992188 406.949219 410.75 407.484375 411.253906 C 408.003906 411.757812 408.730469 412.011719 409.671875 412.011719 C 410.207031 412.011719 410.742188 411.945312 411.246094 411.820312 C 411.75 411.695312 412.265625 411.488281 412.769531 411.207031 L 412.769531 412.546875 C 412.265625 412.765625 411.75 412.9375 411.214844 413.035156 C 410.679688 413.128906 410.128906 413.191406 409.59375 413.191406 C 408.210938 413.191406 407.125 412.796875 406.320312 412.011719 C 405.519531 411.222656 405.125 410.136719 405.125 408.765625 C 405.125 407.363281 405.503906 406.246094 406.257812 405.410156 C 407.015625 404.59375 408.050781 404.167969 409.34375 404.167969 C 410.507812 404.167969 411.417969 404.542969 412.09375 405.285156 C 412.753906 406.039062 413.101562 407.050781 413.101562 408.324219 Z M 411.6875 407.914062 C 411.667969 407.144531 411.449219 406.527344 411.039062 406.058594 C 410.617188 405.601562 410.050781 405.363281 409.359375 405.363281 C 408.570312 405.363281 407.941406 405.601562 407.46875 406.039062 C 407 406.480469 406.714844 407.113281 406.652344 407.914062 Z M 411.6875 407.914062 "/>
<path style=" stroke:none;fill-rule:nonzero;fill:rgb(0%,0%,0%);fill-opacity:1;" d="M 422.773438 408.324219 L 422.773438 409.015625 L 416.277344 409.015625 C 416.339844 409.992188 416.625 410.75 417.160156 411.253906 C 417.679688 411.757812 418.402344 412.011719 419.34375 412.011719 C 419.878906 412.011719 420.414062 411.945312 420.917969 411.820312 C 421.421875 411.695312 421.941406 411.488281 422.445312 411.207031 L 422.445312 412.546875 C 421.941406 412.765625 421.421875 412.9375 420.886719 413.035156 C 420.351562 413.128906 419.800781 413.191406 419.265625 413.191406 C 417.882812 413.191406 416.796875 412.796875 415.996094 412.011719 C 415.191406 411.222656 414.800781 410.136719 414.800781 408.765625 C 414.800781 407.363281 415.175781 406.246094 415.933594 405.410156 C 416.6875 404.59375 417.726562 404.167969 419.015625 404.167969 C 420.179688 404.167969 421.089844 404.542969 421.769531 405.285156 C 422.429688 406.039062 422.773438 407.050781 422.773438 408.324219 Z M 421.359375 407.914062 C 421.34375 407.144531 421.121094 406.527344 420.714844 406.058594 C 420.289062 405.601562 419.722656 405.363281 419.03125 405.363281 C 418.246094 405.363281 417.617188 405.601562 417.144531 406.039062 C 416.671875 406.480469 416.386719 407.113281 416.324219 407.914062 Z M 421.359375 407.914062 "/>
<path style=" stroke:none;fill-rule:nonzero;fill:rgb(0%,0%,0%);fill-opacity:1;" d="M 430.75 405.679688 L 430.75 401.015625 L 432.164062 401.015625 L 432.164062 412.984375 L 430.75 412.984375 L 430.75 411.695312 C 430.449219 412.214844 430.074219 412.59375 429.617188 412.828125 C 429.160156 413.066406 428.625 413.191406 427.996094 413.191406 C 426.957031 413.191406 426.109375 412.78125 425.449219 411.960938 C 424.789062 411.144531 424.472656 410.042969 424.472656 408.6875 C 424.472656 407.332031 424.789062 406.246094 425.449219 405.410156 C 426.109375 404.59375 426.957031 404.167969 427.996094 404.167969 C 428.625 404.167969 429.160156 404.292969 429.617188 404.542969 C 430.074219 404.796875 430.449219 405.175781 430.75 405.679688 Z M 425.9375 408.6875 C 425.9375 409.726562 426.140625 410.546875 426.566406 411.144531 C 426.988281 411.742188 427.570312 412.027344 428.328125 412.027344 C 429.082031 412.027344 429.664062 411.742188 430.105469 411.144531 C 430.527344 410.546875 430.75 409.726562 430.75 408.6875 C 430.75 407.648438 430.527344 406.84375 430.105469 406.246094 C 429.664062 405.648438 429.082031 405.347656 428.328125 405.347656 C 427.570312 405.347656 426.988281 405.648438 426.566406 406.246094 C 426.140625 406.84375 425.9375 407.648438 425.9375 408.6875 Z M 425.9375 408.6875 "/>
<path style=" stroke:none;fill-rule:nonzero;fill:rgb(0%,0%,0%);fill-opacity:1;" d="M 443.472656 401.03125 C 442.78125 402.230469 442.277344 403.394531 441.949219 404.542969 C 441.601562 405.695312 441.445312 406.859375 441.445312 408.042969 C 441.445312 409.238281 441.601562 410.402344 441.949219 411.554688 C 442.277344 412.71875 442.78125 413.867188 443.472656 415.050781 L 442.246094 415.050781 C 441.476562 413.835938 440.894531 412.671875 440.515625 411.503906 C 440.140625 410.339844 439.949219 409.191406 439.949219 408.042969 C 439.949219 406.90625 440.140625 405.757812 440.515625 404.59375 C 440.894531 403.425781 441.460938 402.246094 442.246094 401.03125 Z M 443.472656 401.03125 "/>
<path style=" stroke:none;fill-rule:nonzero;fill:rgb(0%,0%,0%);fill-opacity:1;" d="M 450.929688 402.558594 C 449.796875 402.558594 448.898438 402.984375 448.238281 403.820312 C 447.578125 404.671875 447.25 405.804688 447.25 407.253906 C 447.25 408.703125 447.578125 409.851562 448.238281 410.6875 C 448.898438 411.539062 449.796875 411.945312 450.929688 411.945312 C 452.046875 411.945312 452.941406 411.539062 453.601562 410.6875 C 454.261719 409.851562 454.59375 408.703125 454.59375 407.253906 C 454.59375 405.804688 454.261719 404.671875 453.601562 403.820312 C 452.941406 402.984375 452.046875 402.558594 450.929688 402.558594 Z M 450.929688 401.300781 C 452.535156 401.300781 453.808594 401.851562 454.78125 402.921875 C 455.742188 403.992188 456.230469 405.441406 456.230469 407.253906 C 456.230469 409.082031 455.742188 410.511719 454.78125 411.585938 C 453.808594 412.65625 452.535156 413.191406 450.929688 413.191406 C 449.308594 413.191406 448.019531 412.65625 447.058594 411.585938 C 446.085938 410.511719 445.613281 409.082031 445.613281 407.253906 C 445.613281 405.441406 446.085938 403.992188 447.058594 402.921875 C 448.019531 401.851562 449.308594 401.300781 450.929688 401.300781 Z M 450.929688 401.300781 "/>
<path style=" stroke:none;fill-rule:nonzero;fill:rgb(0%,0%,0%);fill-opacity:1;" d="M 465.527344 401.882812 L 465.527344 403.394531 C 464.929688 403.113281 464.378906 402.90625 463.859375 402.765625 C 463.324219 402.640625 462.820312 402.558594 462.347656 402.558594 C 461.5 402.558594 460.839844 402.734375 460.382812 403.046875 C 459.925781 403.378906 459.707031 403.851562 459.707031 404.449219 C 459.707031 404.953125 459.847656 405.347656 460.160156 405.601562 C 460.460938 405.867188 461.042969 406.074219 461.890625 406.230469 L 462.835938 406.417969 C 463.984375 406.640625 464.832031 407.03125 465.382812 407.585938 C 465.933594 408.152344 466.21875 408.890625 466.21875 409.820312 C 466.21875 410.9375 465.839844 411.773438 465.101562 412.339844 C 464.347656 412.90625 463.261719 413.191406 461.828125 413.191406 C 461.277344 413.191406 460.695312 413.128906 460.082031 413.019531 C 459.46875 412.90625 458.839844 412.734375 458.195312 412.480469 L 458.195312 410.875 C 458.824219 411.238281 459.4375 411.503906 460.035156 411.679688 C 460.632812 411.867188 461.230469 411.945312 461.828125 411.945312 C 462.710938 411.945312 463.386719 411.773438 463.875 411.425781 C 464.347656 411.082031 464.597656 410.59375 464.597656 409.929688 C 464.597656 409.363281 464.425781 408.921875 464.078125 408.609375 C 463.734375 408.292969 463.167969 408.058594 462.378906 407.898438 L 461.4375 407.710938 C 460.273438 407.488281 459.4375 407.128906 458.917969 406.625 C 458.398438 406.136719 458.148438 405.457031 458.148438 404.578125 C 458.148438 403.570312 458.496094 402.765625 459.21875 402.183594 C 459.925781 401.601562 460.917969 401.300781 462.175781 401.300781 C 462.710938 401.300781 463.246094 401.347656 463.8125 401.441406 C 464.363281 401.535156 464.929688 401.695312 465.527344 401.882812 Z M 465.527344 401.882812 "/>
<path style=" stroke:none;fill-rule:nonzero;fill:rgb(0%,0%,0%);fill-opacity:1;" d="M 468.355469 401.03125 L 469.582031 401.03125 C 470.339844 402.246094 470.921875 403.425781 471.296875 404.59375 C 471.675781 405.757812 471.878906 406.90625 471.878906 408.042969 C 471.878906 409.191406 471.675781 410.339844 471.296875 411.503906 C 470.921875 412.671875 470.339844 413.835938 469.582031 415.050781 L 468.355469 415.050781 C 469.03125 413.867188 469.535156 412.71875 469.882812 411.554688 C 470.210938 410.402344 470.386719 409.238281 470.386719 408.042969 C 470.386719 406.859375 470.210938 405.695312 469.882812 404.542969 C 469.535156 403.394531 469.03125 402.230469 468.355469 401.03125 Z M 468.355469 401.03125 "/>
</g>
</svg>
