<svg xmlns="http://www.w3.org/2000/svg" xmlns:xlink="http://www.w3.org/1999/xlink" width="248.089" height="294.112" viewBox="0 0 186.067 220.584"><clipPath id="a"><path transform="matrix(1 0 0 -1 -128.36 255.101)" d="M0 0h432v288H0z"/></clipPath><g clip-path="url(#a)"><path d="M-128.36-32.899h432v288h-432z" fill="#fff"/><path d="M1.234 1.66h183.613v217.441H1.234z" fill="#fff"/><clipPath id="b"><path transform="translate(-128.36 -32.899)" d="M129.594 34.559h183.613V252H129.594z"/></clipPath><g clip-path="url(#b)"><clipPath id="c"><path transform="translate(-128.36 -32.899)" d="M0 0h433v289H0z"/></clipPath><g clip-path="url(#c)"><path d="m43.117 203.621 9.515 1.675 3.356-19.035-9.516-1.676zm0 0" fill="#00f"/><path stroke-miterlimit="10" fill="none" stroke="#000" d="m43.117 203.621 9.515 1.675 3.356-19.035-9.516-1.676zm0 0"/></g><clipPath id="d"><path transform="translate(-128.36 -32.899)" d="M0 0h433v289H0z"/></clipPath><g clip-path="url(#d)"><path stroke-width="1.5" stroke-linecap="square" stroke-linejoin="round" fill="none" stroke="#000" d="M83.745-33.899 29.703 116.41l-5.036 28.55 2.207 7.965 2.481 6.809 3.426 7.523 14.277 2.516 15.891-5.785 7.609-4.215L274.433-33.899"/></g><clipPath id="e"><path transform="translate(-128.36 -32.899)" d="M0 0h433v289H0z"/></clipPath><g clip-path="url(#e)"><path d="m324.898-682.493-8.539 1.66L29.703 116.41l-5.036 28.55 2.207 7.965 2.481 6.809 3.426 7.523 14.277 2.516 15.891-5.785 7.609-4.215 535.168-508.387-4.707-12.926zm0 0" fill="red"/></g><clipPath id="f"><path transform="translate(-128.36 -32.899)" d="M0 0h433v289H0z"/></clipPath><g clip-path="url(#f)"><path stroke-width="1.5" stroke-linecap="square" stroke-linejoin="round" fill="none" stroke="#000" d="M92.37-33.899 35.995 122.886l-5.031 28.551 2.477 6.809 14.277 2.519 15.891-5.785L262.441-33.899"/></g><clipPath id="g"><path transform="translate(-128.36 -32.899)" d="M0 0h433v289H0z"/></clipPath><g clip-path="url(#g)"><path d="M322.656-674.356 35.995 122.886l-5.031 28.551 2.477 6.809 14.277 2.519 15.891-5.785 535.168-508.383zm0 0" fill="salmon"/></g><clipPath id="h"><path transform="translate(-128.36 -32.899)" d="M0 0h433v289H0z"/></clipPath><g clip-path="url(#h)"><path d="m168.48 81.968 10.066-57.105-4.957-13.621-28.551-5.036-31.785 11.571-10.07 57.101 4.961 13.621 28.551 5.036zm0 0" fill="#ff0"/><path stroke-miterlimit="10" fill="none" stroke="#000" d="m168.48 81.968 10.066-57.105-4.957-13.621-28.551-5.036-31.785 11.571-10.07 57.101 4.961 13.621 28.551 5.036zm0 0"/></g><clipPath id="i"><path transform="translate(-128.36 -32.899)" d="M0 0h433v289H0z"/></clipPath><g clip-path="url(#i)"><path d="m116.058 57.523 4.957 13.621 9.52 1.68 31.781-11.571 3.359-19.035-4.961-13.621-9.515-1.676-31.786 11.567zm0 0" fill="orange"/><path stroke-miterlimit="10" fill="none" stroke="#000" d="m116.058 57.523 4.957 13.621 9.52 1.68 31.781-11.571 3.359-19.035-4.961-13.621-9.515-1.676-31.786 11.567zm0 0"/></g><clipPath id="j"><path transform="translate(-128.36 -32.899)" d="M0 0h433v289H0z"/></clipPath><g clip-path="url(#j)"><path d="m122.495 48.843 4.958 13.625 31.785-11.57-4.957-13.621zm0 0" fill="red"/><path stroke-miterlimit="10" fill="none" stroke="#000" d="m122.495 48.843 4.958 13.625 31.785-11.57-4.957-13.621zm0 0"/></g><clipPath id="k"><path transform="translate(-128.36 -32.899)" d="M0 0h433v289H0z"/></clipPath><g clip-path="url(#k)"><path d="M49.55 195.499a.564.564 0 0 0 .563-.558.559.559 0 0 0-.563-.559.563.563 0 0 0-.558.559.56.56 0 0 0 .558.558zm0 0"/><path stroke-linejoin="round" fill="none" stroke="#000" d="M49.55 195.499a.564.564 0 0 0 .563-.558.559.559 0 0 0-.563-.559.563.563 0 0 0-.558.559.56.56 0 0 0 .558.558zm0 0"/></g><clipPath id="l"><path transform="translate(-128.36 -32.899)" d="M0 0h433v289H0z"/></clipPath><g clip-path="url(#l)"><path d="M140.867 50.429a.552.552 0 0 0 .394-.164.545.545 0 0 0 .164-.394.556.556 0 1 0-1.117 0 .55.55 0 0 0 .164.394.548.548 0 0 0 .395.164zm0 0"/><path stroke-linejoin="round" fill="none" stroke="#000" d="M140.867 50.429a.552.552 0 0 0 .394-.164.545.545 0 0 0 .164-.394.556.556 0 1 0-1.117 0 .55.55 0 0 0 .164.394.548.548 0 0 0 .395.164zm0 0"/></g><clipPath id="m"><path transform="translate(-128.36 -32.899)" d="M0 0h433v289H0z"/></clipPath><g clip-path="url(#m)"><path d="m94.8 75.406-3.426-7.52-2.211-7.965 8.54-1.66 1.843 6.649 2.864 6.281zm0 0" fill="green"/><path stroke-width="1.5" stroke-miterlimit="10" fill="none" stroke="#000" d="m94.8 75.406-3.426-7.52-2.211-7.965 8.54-1.66 1.843 6.649 2.864 6.281zm0 0"/></g><clipPath id="n"><path transform="translate(-128.36 -32.899)" d="M0 0h433v289H0z"/></clipPath><g clip-path="url(#n)"><path d="m48.648 194.781 3.601-20.414-1.968.586 4.304-8.563 1.121 9.52-1.652-1.223-3.598 20.414-1.808-.32"/></g><clipPath id="o"><path transform="translate(-128.36 -32.899)" d="M0 0h433v289H0z"/></clipPath><g clip-path="url(#o)"><path d="m141.179 50.734-37.641 13.699 1.493 1.414-9.571.551 7.684-5.727-.234 2.039 37.64-13.703.629 1.727"/></g></g><path stroke-width=".8" stroke-linecap="square" stroke-miterlimit="10" fill="none" stroke="#000" d="M1.234 219.101V1.66M184.847 219.101V1.66M1.234 219.101h183.613M1.234 1.66h183.613"/><symbol id="p"><path d="M.278 0 0 .729h.103L.334.115.565.73h.103L.39 0H.278z"/></symbol><symbol id="q"><path d="M.338.676a.207.207 0 0 1-.171-.08.344.344 0 0 1-.063-.218C.104.286.125.214.167.16c.042-.053.1-.08.17-.08.073 0 .13.027.17.08a.343.343 0 0 1 .064.218.344.344 0 0 1-.063.218.204.204 0 0 1-.17.08m0 .08A.312.312 0 0 0 .583.653.398.398 0 0 0 .675.378.399.399 0 0 0 .583.103.313.313 0 0 0 .338 0a.315.315 0 0 0-.246.103A.398.398 0 0 0 0 .378c0 .115.03.207.092.275a.314.314 0 0 0 .246.103z"/></symbol><use xlink:href="#p" transform="matrix(10 0 0 -10 59.294 122.461)" fill="red"/><use xlink:href="#q" transform="matrix(10 0 0 -10 66.448 122.603)" fill="red"/><symbol id="r"><path d="M.47.72V.622a.608.608 0 0 1-.107.04.375.375 0 0 1-.096.013.213.213 0 0 1-.124-.031.103.103 0 0 1-.044-.089C.1.524.11.5.128.483a.256.256 0 0 1 .11-.04l.06-.012A.302.302 0 0 0 .46.357.191.191 0 0 0 .513.215C.513.145.49.091.442.055A.336.336 0 0 0 .234 0a.564.564 0 0 0-.11.012.822.822 0 0 0-.121.034v.102c.04-.023.08-.04.118-.05A.397.397 0 0 1 .234.08c.056 0 .1.011.13.033A.11.11 0 0 1 .41.208a.108.108 0 0 1-.033.084.225.225 0 0 1-.108.045L.209.35a.322.322 0 0 0-.16.069.171.171 0 0 0-.049.13c0 .065.023.116.068.153a.29.29 0 0 0 .188.055A.608.608 0 0 0 .469.72z"/></symbol><use xlink:href="#q" transform="matrix(10 0 0 -10 59.778 197.499)"/><use xlink:href="#r" transform="matrix(10 0 0 -10 67.745 197.499)"/><symbol id="s"><path d="M.128 0 0 .729h.097L.203.102.557.73h.107L.243 0H.128z"/></symbol><use xlink:href="#s" transform="matrix(10 0 0 -10 57.784 175.35)"/><symbol id="t"><path d="M.416.676a.26.26 0 0 1-.143-.04.33.33 0 0 1-.108-.119.463.463 0 0 1-.06-.225.23.23 0 0 1 .048-.157A.174.174 0 0 1 .291.08c.053 0 .1.013.143.04A.327.327 0 0 1 .54.238a.478.478 0 0 1 .061.226c0 .068-.016.12-.049.157a.173.173 0 0 1-.137.055M.288 0a.28.28 0 0 0-.211.08A.3.3 0 0 0 0 .297a.504.504 0 0 0 .113.309.374.374 0 0 0 .306.15c.09 0 .16-.026.21-.079A.293.293 0 0 0 .708.462.482.482 0 0 0 .594.15.373.373 0 0 0 .288 0z"/></symbol><symbol id="u"><path d="M.597.72.578.622a.466.466 0 0 1-.192.053.232.232 0 0 1-.14-.038.121.121 0 0 1-.053-.103C.193.512.2.494.213.481a.272.272 0 0 1 .099-.04l.06-.015A.302.302 0 0 0 .51.36.152.152 0 0 0 .55.25a.22.22 0 0 0-.088-.18A.354.354 0 0 0 .234 0 .594.594 0 0 0 0 .046l.02.102a.478.478 0 0 1 .108-.05.363.363 0 0 1 .11-.018c.06 0 .11.014.147.041a.127.127 0 0 1 .056.107c0 .03-.008.051-.023.066C.404.31.372.324.323.336L.264.35a.34.34 0 0 0-.138.06.127.127 0 0 0-.037.097c0 .073.028.132.084.179a.33.33 0 0 0 .218.07.58.58 0 0 0 .206-.038z"/></symbol><use xlink:href="#t" transform="matrix(7 0 0 -7 64.124 177.09)"/><use xlink:href="#u" transform="matrix(7 0 0 -7 69.393 177.09)"/><use xlink:href="#s" transform="matrix(10 0 0 -10 104.939 75.359)"/><symbol id="v"><path d="M.016.729h.617L.617.646h-.26L.232 0h-.1l.126.646H0l.016.083z"/></symbol><use xlink:href="#v" transform="matrix(7 0 0 -7 111.3 77)"/><use xlink:href="#u" transform="matrix(7 0 0 -7 115.316 77.098)"/><path stroke-linecap="round" stroke-linejoin="round" fill="none" stroke="#000" d="M59.601 27.519C81.855 32.593 93.3 45.48 93.941 66.187"/><path stroke-linecap="round" stroke-linejoin="round" fill="none" stroke="#000" d="m95.816 62.128-1.875 4.059-2.121-3.934"/><symbol id="w"><path d="M0 .743h.1V.3C.1.222.112.166.141.131.17.097.216.081.279.081c.063 0 .11.016.138.05.028.035.042.091.042.17v.442h.1V.288C.558.193.534.121.486.073.44.024.371 0 .28 0 .187 0 .118.024.07.073.023.12 0 .193 0 .288v.455z"/></symbol><symbol id="x"><path d="M.458.33V0h-.09v.327c0 .052-.01.09-.03.116-.02.026-.05.039-.09.039A.147.147 0 0 1 .131.436.181.181 0 0 1 .09.309V0H0v.547h.09V.462a.22.22 0 0 0 .076.074C.196.552.229.56.267.56.33.56.377.54.41.501.442.463.458.406.458.331z"/></symbol><symbol id="y"><path d="M.433.54V.456a.34.34 0 0 1-.154.042.17.17 0 0 1-.136-.056.228.228 0 0 1-.048-.155.23.23 0 0 1 .048-.156A.17.17 0 0 1 .28.076a.296.296 0 0 1 .154.042V.035A.368.368 0 0 0 .269 0a.256.256 0 0 0-.196.078.294.294 0 0 0-.073.21c0 .088.024.158.073.21.05.05.117.076.202.076A.373.373 0 0 0 .433.54z"/></symbol><symbol id="z"><path d="M.507.31V.266H.094A.209.209 0 0 1 .149.125.193.193 0 0 1 .29.076a.392.392 0 0 1 .197.051V.042A.539.539 0 0 0 .284 0a.281.281 0 0 0-.208.076A.278.278 0 0 0 0 .282c0 .09.024.16.072.213.049.053.114.08.196.08A.222.222 0 0 0 .442.502.276.276 0 0 0 .507.31m-.09.026a.17.17 0 0 1-.042.118.137.137 0 0 1-.106.044.17.17 0 0 1-.12-.042.18.18 0 0 1-.052-.12h.32z"/></symbol><symbol id="A"><path d="M.32.463A.161.161 0 0 1 .248.48.143.143 0 0 1 .131.43.219.219 0 0 1 .09.288V0H0v.547h.09V.462a.183.183 0 0 0 .074.074.23.23 0 0 0 .156.02V.462z"/></symbol><symbol id="B"><path d="M.156.702V.547h.185v-.07H.156V.18c0-.044.006-.073.018-.086C.187.082.212.075.25.075h.092V0H.25C.179 0 .132.013.105.039.08.065.065.112.065.18v.297H0v.07h.066v.155h.09z"/></symbol><symbol id="C"><path d="M.283.29A.321.321 0 0 1 .132.263C.104.248.09.22.09.18.09.147.1.122.12.103A.126.126 0 0 1 .207.075c.05 0 .09.018.12.053a.21.21 0 0 1 .045.141v.02h-.09m.18.037V.014h-.09v.083A.198.198 0 0 0 .295.023.245.245 0 0 0 .183 0C.127 0 .083.016.05.047A.167.167 0 0 0 0 .173c0 .062.02.108.062.14a.304.304 0 0 0 .184.046h.126v.01a.117.117 0 0 1-.04.095.172.172 0 0 1-.115.034A.371.371 0 0 1 .04.453v.083a.584.584 0 0 0 .186.038c.08 0 .138-.02.177-.061C.443.472.462.41.462.326z"/></symbol><symbol id="D"><path d="M0 .547h.09V0H0v.547M0 .76h.09V.646H0V.76z"/></symbol><symbol id="E"><path d="M.292.157A.326.326 0 0 0 .218.03.147.147 0 0 0 .12 0H.05v.075h.053c.025 0 .044.006.058.018.013.011.028.04.045.083l.016.04L0 .756h.095L.266.327l.171.428h.095L.292.157z"/></symbol><symbol id="F"><path d="M0 0z"/></symbol><use xlink:href="#w" transform="matrix(10 0 0 -10 5.876 16.676)"/><use xlink:href="#x" transform="matrix(10 0 0 -10 13.235 16.534)"/><use xlink:href="#y" transform="matrix(10 0 0 -10 19.218 16.676)"/><use xlink:href="#z" transform="matrix(10 0 0 -10 24.718 16.676)"/><use xlink:href="#A" transform="matrix(10 0 0 -10 31.225 16.534)"/><use xlink:href="#B" transform="matrix(10 0 0 -10 34.695 16.534)"/><use xlink:href="#C" transform="matrix(10 0 0 -10 38.947 16.676)"/><use xlink:href="#D" transform="matrix(10 0 0 -10 45.419 16.534)"/><use xlink:href="#x" transform="matrix(10 0 0 -10 48.165 16.534)"/><use xlink:href="#B" transform="matrix(10 0 0 -10 53.865 16.534)"/><use xlink:href="#E" transform="matrix(10 0 0 -10 57.814 18.614)"/><use xlink:href="#F" transform="matrix(10 0 0 -10 63.436 16.534)"/><use xlink:href="#D" transform="matrix(10 0 0 -10 5.949 27.712)"/><use xlink:href="#x" transform="matrix(10 0 0 -10 8.695 27.712)"/><use xlink:href="#F" transform="matrix(10 0 0 -10 14.126 27.712)"/><use xlink:href="#s" transform="matrix(10 0 0 -10 18.088 27.712)"/><use xlink:href="#v" transform="matrix(7 0 0 -7 24.443 29.353)"/><use xlink:href="#u" transform="matrix(7 0 0 -7 28.46 29.452)"/><symbol id="G"><path d="M.224.89A.986.986 0 0 1 .127.669a.798.798 0 0 1 0-.446C.148.15.181.075.224 0H.146a1.01 1.01 0 0 0-.11.226.707.707 0 0 0 0 .439c.024.074.06.149.11.226h.078z"/></symbol><symbol id="H"><path d="M0 .89h.078C.127.815.163.74.188.666a.693.693 0 0 0 0-.44A.994.994 0 0 0 .077 0H0a.986.986 0 0 1 .097.222.797.797 0 0 1 0 .446A.999.999 0 0 1 0 .891z"/></symbol><use xlink:href="#G" transform="matrix(10 0 0 -10 5.866 40.627)"/><use xlink:href="#w" transform="matrix(10 0 0 -10 9.776 39.45)"/><use xlink:href="#x" transform="matrix(10 0 0 -10 17.135 39.309)"/><use xlink:href="#y" transform="matrix(10 0 0 -10 23.118 39.45)"/><use xlink:href="#H" transform="matrix(10 0 0 -10 28.867 40.627)"/><path stroke-linecap="round" stroke-linejoin="round" fill="none" stroke="#000" d="M139.265 146.605c-5.496-15.516-16.645-23.539-33.441-24.078"/><path stroke-linecap="round" stroke-linejoin="round" fill="none" stroke="#000" d="m109.757 124.656-3.933-2.129 4.062-1.871"/><symbol id="I"><path d="M0 .547h.09L.202.12l.112.427H.42L.532.12l.112.427h.09L.59 0H.485L.367.448.25 0H.143L0 .547z"/></symbol><symbol id="J"><path d="M.458.33V0h-.09v.327c0 .052-.01.09-.03.116-.02.026-.05.039-.09.039A.147.147 0 0 1 .131.436.181.181 0 0 1 .09.309V0H0v.76h.09V.462a.22.22 0 0 0 .076.074C.196.552.229.56.267.56.33.56.377.54.41.501.442.463.458.406.458.331z"/></symbol><symbol id="K"><path d="M0 .23v.331h.09V.233C.09.182.1.143.12.117.14.09.17.078.21.078c.05 0 .088.016.116.047A.18.18 0 0 1 .368.25v.31h.09V.014h-.09v.084A.223.223 0 0 0 .292.024.202.202 0 0 0 .192 0C.129 0 .082.02.049.059.016.098 0 .155 0 .23m.226.344z"/></symbol><use xlink:href="#p" transform="matrix(10 0 0 -10 112.782 158.102)"/><use xlink:href="#q" transform="matrix(10 0 0 -10 119.936 158.243)"/><use xlink:href="#I" transform="matrix(10 0 0 -10 130.844 158.102)"/><use xlink:href="#D" transform="matrix(10 0 0 -10 139.546 158.102)"/><use xlink:href="#B" transform="matrix(10 0 0 -10 141.653 158.102)"/><use xlink:href="#J" transform="matrix(10 0 0 -10 146.212 158.102)"/><use xlink:href="#K" transform="matrix(10 0 0 -10 113.554 169.434)"/><use xlink:href="#x" transform="matrix(10 0 0 -10 119.952 169.292)"/><use xlink:href="#y" transform="matrix(10 0 0 -10 125.936 169.434)"/><use xlink:href="#z" transform="matrix(10 0 0 -10 131.436 169.434)"/><use xlink:href="#A" transform="matrix(10 0 0 -10 137.942 169.292)"/><use xlink:href="#B" transform="matrix(10 0 0 -10 141.413 169.292)"/><use xlink:href="#C" transform="matrix(10 0 0 -10 145.665 169.434)"/><use xlink:href="#D" transform="matrix(10 0 0 -10 152.136 169.292)"/><use xlink:href="#x" transform="matrix(10 0 0 -10 154.882 169.292)"/><use xlink:href="#B" transform="matrix(10 0 0 -10 160.583 169.292)"/><use xlink:href="#E" transform="matrix(10 0 0 -10 164.532 171.372)"/><use xlink:href="#F" transform="matrix(10 0 0 -10 170.154 169.292)"/><use xlink:href="#D" transform="matrix(10 0 0 -10 113.646 180.47)"/><use xlink:href="#x" transform="matrix(10 0 0 -10 116.392 180.47)"/><use xlink:href="#F" transform="matrix(10 0 0 -10 121.824 180.47)"/><use xlink:href="#s" transform="matrix(10 0 0 -10 125.785 180.47)"/><use xlink:href="#v" transform="matrix(7 0 0 -7 132.14 182.111)"/><use xlink:href="#u" transform="matrix(7 0 0 -7 136.158 182.21)"/><use xlink:href="#G" transform="matrix(10 0 0 -10 113.563 193.373)"/><symbol id="L"><path d="M.097.743h.099L.11.3A.956.956 0 0 1 .1.217C.1.172.113.138.138.115.163.092.2.08.248.08a.2.2 0 0 1 .147.052C.43.166.455.222.47.3l.086.443h.099L.567.288A.374.374 0 0 0 .457.07.324.324 0 0 0 .238 0a.258.258 0 0 0-.174.055.188.188 0 0 0-.063.15.332.332 0 0 0 .01.083l.087.455z"/></symbol><symbol id="M"><path d="M.522.33.458 0h-.09l.064.327A.814.814 0 0 1 .44.395a.081.081 0 0 1-.026.064.105.105 0 0 1-.072.023.177.177 0 0 1-.125-.048.23.23 0 0 1-.068-.13L.09 0H0l.106.547h.09L.178.46a.261.261 0 0 0 .2.1.152.152 0 0 0 .113-.04.146.146 0 0 0 .04-.11L.528.374A.501.501 0 0 0 .522.33z"/></symbol><symbol id="N"><path d="M.49.54.472.451a.242.242 0 0 1-.226.032A.177.177 0 0 1 .181.44.314.314 0 0 1 .093.222c0-.049.012-.086.037-.11C.155.088.192.076.242.076c.025 0 .051.004.079.011a.475.475 0 0 1 .087.034L.391.032A.41.41 0 0 0 .226 0C.153 0 .098.018.06.054.019.091 0 .143 0 .21c0 .057.01.109.03.156.02.048.051.091.091.13.027.025.06.045.096.058a.351.351 0 0 0 .197.011A.414.414 0 0 0 .49.54z"/></symbol><use xlink:href="#s" transform="matrix(10 0 0 -10 117.385 192.055)"/><use xlink:href="#t" transform="matrix(10 0 0 -10 123.844 192.196)"/><use xlink:href="#L" transform="matrix(10 0 0 -10 144.175 192.196)"/><use xlink:href="#M" transform="matrix(10 0 0 -10 151.266 192.055)"/><use xlink:href="#N" transform="matrix(10 0 0 -10 157.713 192.196)"/><use xlink:href="#H" transform="matrix(10 0 0 -10 163.555 193.373)"/><clipPath id="O"><path transform="translate(-128.36 -32.899)" d="M251.414 212.625h28.152v16.957h-28.152z"/></clipPath><g clip-path="url(#O)"><clipPath id="P"><path transform="translate(-128.36 -32.899)" d="M0 0h433v289H0z"/></clipPath><g clip-path="url(#P)"><path d="M138.437 186.554a2.706 2.706 0 0 0-.981-.187 2.61 2.61 0 0 0-.98.187c-.301.129-.582.32-.82.563-.25.25-.442.519-.559.816a2.64 2.64 0 0 0-.18.992c0 .34.059.66.18.961.117.297.309.578.559.828.238.25.519.442.82.559.301.133.629.191.98.191a2.479 2.479 0 0 0 1.801-.75 2.557 2.557 0 0 0 .738-1.789c0-.359-.07-.691-.191-.992a2.562 2.562 0 0 0-.547-.816 2.757 2.757 0 0 0-.82-.563zm-2.242-.68a3.288 3.288 0 0 1 2.511 0c.391.161.739.399 1.059.719.32.321.57.68.73 1.063.161.39.239.808.239 1.269 0 .442-.078.86-.239 1.239a3.22 3.22 0 0 1-.718 1.062c-.321.32-.68.559-1.071.719a3.28 3.28 0 0 1-1.25.238c-.449 0-.871-.078-1.261-.238a3.092 3.092 0 0 1-1.051-.719 3.089 3.089 0 0 1-.727-1.062 3.172 3.172 0 0 1-.242-1.239c0-.461.082-.879.242-1.269a3.17 3.17 0 0 1 .727-1.063c.312-.32.66-.558 1.051-.719zm1.672.891v1.738h1.738v.832h-1.738v1.739h-.832v-1.739h-1.731v-.832h1.731v-1.738zm0 0"/></g></g></g></svg>