<svg width="460.8" height="345.6" xmlns="http://www.w3.org/2000/svg" xmlns:xlink="http://www.w3.org/1999/xlink">

 <symbol id="a">
  <path id="svg_1" d="m0.252,0.677c-0.051,0 -0.089,-0.025 -0.115,-0.075s-0.038,-0.125 -0.038,-0.225s0.012,-0.175 0.038,-0.225s0.064,-0.075 0.115,-0.075s0.089,0.025 0.115,0.075c0.025,0.05 0.038,0.125 0.038,0.225s-0.013,0.175 -0.038,0.225c-0.026,0.05 -0.064,0.075 -0.115,0.075zm0,0.078c0.081,0 0.143,-0.033 0.187,-0.097c0.043,-0.065 0.065,-0.159 0.065,-0.281c0,-0.123 -0.022,-0.217 -0.065,-0.281c-0.044,-0.064 -0.106,-0.096 -0.188,-0.096s-0.144,0.032 -0.187,0.096s-0.064,0.158 -0.064,0.281c0,0.122 0.021,0.216 0.064,0.281c0.043,0.064 0.106,0.097 0.188,0.097z"/>
 </symbol>
 <symbol id="b">
  <path id="svg_2" d="m124,83l161,0l0,556l-175,-35l0,90l174,35l99,0l0,-646l161,0l0,-83l-420,0l0,83z" transform="translate(-.11) scale(.001)"/>
 </symbol>
 <symbol id="c">
  <path id="svg_3" d="m192,83l344,0l0,-83l-463,0l0,83c37,38 88,90 153,156c64,65 105,107 122,126c32,35 54,65 66,90c12,24 19,49 19,73c0,38 -14,70 -41,94s-62,37 -106,37c-31,0 -64,-6 -98,-16c-34,-11 -71,-27 -110,-49l0,100c40,16 77,28 111,36s66,12 95,12c75,0 135,-19 180,-57s68,-88 68,-151c0,-30 -6,-59 -17,-85c-11,-27 -31,-59 -61,-95c-8,-10 -34,-37 -78,-82s-105,-108 -184,-189z" transform="translate(-.073) scale(.001)"/>
 </symbol>
 <symbol id="d">
  <path id="svg_4" d="m0.33,0.406c0.047,-0.01 0.084,-0.031 0.11,-0.063s0.04,-0.072 0.04,-0.118c0,-0.072 -0.025,-0.128 -0.074,-0.167c-0.05,-0.039 -0.12,-0.058 -0.211,-0.058c-0.031,0 -0.063,0.003 -0.095,0.009c-0.032,0.005 -0.066,0.014 -0.1,0.026l0,0.095c0.027,-0.016 0.057,-0.028 0.09,-0.036c0.032,-0.008 0.066,-0.012 0.102,-0.012c0.062,0 0.109,0.012 0.141,0.036s0.049,0.06 0.049,0.107c0,0.042 -0.015,0.076 -0.045,0.1s-0.072,0.037 -0.126,0.037l-0.085,0l0,0.081l0.089,0c0.048,0 0.085,0.009 0.111,0.029c0.026,0.019 0.039,0.047 0.039,0.084s-0.014,0.066 -0.04,0.086c-0.027,0.02 -0.065,0.03 -0.114,0.03c-0.027,0 -0.056,-0.003 -0.087,-0.009s-0.065,-0.015 -0.102,-0.027l0,0.088c0.037,0.01 0.072,0.018 0.105,0.023c0.032,0.005 0.063,0.008 0.093,0.008c0.074,0 0.133,-0.017 0.177,-0.051s0.066,-0.08 0.066,-0.138c0,-0.04 -0.012,-0.074 -0.035,-0.102s-0.056,-0.048 -0.098,-0.058z"/>
 </symbol>
 <symbol id="e">
  <path id="svg_5" d="m378,643l-249,-389l249,0l0,389zm-26,86l124,0l0,-475l104,0l0,-82l-104,0l0,-172l-98,0l0,172l-329,0l0,95l303,462z" transform="translate(-.049) scale(.001)"/>
 </symbol>
 <symbol id="f">
  <path id="svg_6" d="m-2,729l616,0l0,-83l-259,0l0,-646l-99,0l0,646l-258,0l0,83z" transform="translate(.002) scale(.001)"/>
 </symbol>
 <symbol id="g">
  <path id="svg_7" d="m94,547l90,0l0,-547l-90,0l0,547zm0,213l90,0l0,-114l-90,0l0,114z" transform="translate(-.094) scale(.001)"/>
 </symbol>
 <symbol id="h">
  <path id="svg_8" d="m520,442c22,40 49,69 80,89c31,19 68,29 111,29c56,0 100,-20 131,-60s47,-97 47,-170l0,-330l-90,0l0,327c0,52 -10,91 -28,117c-19,25 -47,38 -85,38c-47,0 -84,-16 -111,-47s-40,-73 -40,-126l0,-309l-90,0l0,327c0,52 -10,91 -28,117c-19,25 -48,38 -86,38c-46,0 -83,-16 -110,-47s-40,-73 -40,-126l0,-309l-90,0l0,547l90,0l0,-85c20,33 45,58 74,74c28,16 62,24 102,24s73,-10 101,-30s48,-50 62,-88z" transform="translate(-.091) scale(.001)"/>
 </symbol>
 <symbol id="i">
  <path id="svg_9" d="m0.507,0.309l0,-0.044l-0.413,0c0.004,-0.062 0.022,-0.11 0.056,-0.142c0.033,-0.032 0.079,-0.048 0.139,-0.048c0.034,0 0.068,0.004 0.1,0.012s0.065,0.021 0.097,0.039l0,-0.085c-0.032,-0.014 -0.065,-0.025 -0.099,-0.031s-0.069,-0.01 -0.103,-0.01c-0.088,0 -0.157,0.025 -0.208,0.075s-0.076,0.119 -0.076,0.206c0,0.089 0.024,0.16 0.072,0.213c0.048,0.052 0.114,0.079 0.196,0.079c0.074,0 0.132,-0.024 0.175,-0.071c0.042,-0.048 0.064,-0.112 0.064,-0.193zm-0.09,0.026c-0.001,0.049 -0.015,0.088 -0.041,0.118c-0.027,0.029 -0.063,0.044 -0.107,0.044c-0.05,0 -0.09,-0.015 -0.12,-0.043s-0.048,-0.068 -0.052,-0.119l0.32,0z"/>
 </symbol>
 <symbol id="k">
  <path id="svg_10" d="m0,0.891l0.207,0l0,-0.07l-0.117,0l0,-0.751l0.117,0l0,-0.07l-0.207,0l0,0.891z"/>
 </symbol>
 <symbol id="l">
  <path id="svg_11" d="m0.389,0.544l0,-0.085c-0.026,0.012 -0.052,0.022 -0.079,0.029c-0.028,0.006 -0.056,0.01 -0.085,0.01c-0.045,0 -0.079,-0.007 -0.101,-0.021s-0.033,-0.034 -0.033,-0.061c0,-0.021 0.008,-0.037 0.024,-0.049s0.048,-0.024 0.096,-0.034l0.031,-0.007c0.064,-0.014 0.109,-0.034 0.136,-0.058c0.026,-0.025 0.04,-0.06 0.04,-0.104c0,-0.051 -0.02,-0.091 -0.06,-0.12c-0.04,-0.03 -0.096,-0.044 -0.166,-0.044c-0.03,0 -0.06,0.003 -0.092,0.008s-0.065,0.013 -0.1,0.025l0,0.093c0.033,-0.018 0.066,-0.031 0.098,-0.039c0.032,-0.009 0.064,-0.013 0.096,-0.013c0.042,0 0.075,0.007 0.098,0.021c0.022,0.014 0.034,0.035 0.034,0.062c0,0.024 -0.009,0.043 -0.025,0.056s-0.052,0.026 -0.108,0.038l-0.031,0.007c-0.056,0.012 -0.097,0.03 -0.121,0.054c-0.025,0.024 -0.037,0.057 -0.037,0.1c0,0.051 0.018,0.091 0.054,0.119s0.088,0.042 0.156,0.042c0.033,0 0.064,-0.003 0.094,-0.008c0.029,-0.005 0.056,-0.012 0.081,-0.021z"/>
 </symbol>
 <symbol id="m">
  <path id="svg_12" d="m0.207,0.891l0,-0.891l-0.207,0l0,0.07l0.117,0l0,0.751l-0.117,0l0,0.07l0.207,0z"/>
 </symbol>
 <symbol id="n">
  <path id="svg_13" d="m82,729l469,0l0,-42l-265,-687l-103,0l249,646l-350,0l0,83z" transform="translate(-.082) scale(.001)"/>
 </symbol>
 <symbol id="o">
  <path id="svg_14" d="m0.25,0.359c-0.047,0 -0.084,-0.013 -0.111,-0.038s-0.04,-0.059 -0.04,-0.103s0.013,-0.079 0.04,-0.104s0.064,-0.037 0.111,-0.037c0.046,0 0.083,0.012 0.11,0.038c0.027,0.025 0.041,0.059 0.041,0.103s-0.014,0.078 -0.04,0.103c-0.027,0.025 -0.064,0.038 -0.111,0.038zm-0.099,0.042c-0.042,0.01 -0.075,0.03 -0.099,0.059s-0.035,0.064 -0.035,0.106c0,0.058 0.02,0.104 0.062,0.138c0.041,0.034 0.098,0.051 0.171,0.051c0.072,0 0.129,-0.017 0.171,-0.051c0.041,-0.034 0.062,-0.08 0.062,-0.138c0,-0.042 -0.012,-0.077 -0.036,-0.106s-0.056,-0.049 -0.098,-0.059c0.047,-0.011 0.084,-0.033 0.111,-0.065c0.026,-0.032 0.04,-0.072 0.04,-0.118c0,-0.071 -0.022,-0.125 -0.065,-0.162c-0.044,-0.038 -0.106,-0.056 -0.186,-0.056s-0.142,0.018 -0.185,0.056c-0.043,0.037 -0.064,0.091 -0.064,0.162c0,0.046 0.013,0.086 0.04,0.118c0.026,0.032 0.063,0.054 0.111,0.065zm-0.036,0.156c0,-0.038 0.011,-0.068 0.035,-0.089s0.057,-0.031 0.1,-0.031c0.042,0 0.075,0.01 0.099,0.031s0.036,0.051 0.036,0.089s-0.012,0.067 -0.036,0.088s-0.057,0.032 -0.099,0.032c-0.043,0 -0.076,-0.011 -0.1,-0.032s-0.035,-0.05 -0.035,-0.088z"/>
 </symbol>
 <symbol id="p">
  <path id="svg_15" d="m0.047,0.028l0,0.09c0.024,-0.012 0.049,-0.021 0.075,-0.027c0.025,-0.006 0.05,-0.009 0.075,-0.009c0.064,0 0.114,0.021 0.148,0.065s0.054,0.11 0.06,0.2c-0.02,-0.028 -0.044,-0.05 -0.072,-0.065c-0.029,-0.015 -0.061,-0.022 -0.096,-0.022c-0.074,0 -0.132,0.022 -0.174,0.066s-0.063,0.104 -0.063,0.181c0,0.074 0.022,0.134 0.066,0.18c0.044,0.045 0.103,0.068 0.177,0.068c0.084,0 0.149,-0.033 0.193,-0.097c0.044,-0.065 0.067,-0.159 0.067,-0.281c0,-0.116 -0.028,-0.207 -0.082,-0.275c-0.055,-0.068 -0.128,-0.102 -0.22,-0.102c-0.025,0 -0.05,0.003 -0.075,0.007c-0.026,0.004 -0.052,0.011 -0.079,0.021zm0.196,0.309c0.044,0 0.079,0.015 0.105,0.045s0.039,0.072 0.039,0.125c0,0.052 -0.013,0.094 -0.039,0.124s-0.061,0.046 -0.105,0.046s-0.079,-0.016 -0.105,-0.046s-0.039,-0.072 -0.039,-0.124c0,-0.053 0.013,-0.095 0.039,-0.125s0.061,-0.045 0.105,-0.045z"/>
 </symbol>
 <symbol id="q">
  <path id="svg_16" d="m0.338,0.675c-0.072,0 -0.129,-0.027 -0.171,-0.08c-0.042,-0.054 -0.063,-0.126 -0.063,-0.218s0.021,-0.165 0.063,-0.218c0.042,-0.054 0.099,-0.08 0.171,-0.08c0.071,0 0.128,0.026 0.17,0.08c0.042,0.053 0.063,0.126 0.063,0.218s-0.021,0.164 -0.063,0.218c-0.042,0.053 -0.099,0.08 -0.17,0.08zm0,0.08c0.102,0 0.183,-0.035 0.245,-0.103c0.061,-0.068 0.092,-0.16 0.092,-0.275c0,-0.116 -0.031,-0.207 -0.092,-0.275c-0.062,-0.068 -0.143,-0.102 -0.245,-0.102c-0.103,0 -0.185,0.034 -0.246,0.102c-0.062,0.068 -0.092,0.159 -0.092,0.275c0,0.115 0.03,0.207 0.092,0.275c0.061,0.068 0.143,0.103 0.246,0.103z"/>
 </symbol>
 <symbol id="r">
  <path id="svg_17" d="m411,463c-10,6 -21,10 -33,13c-12,2 -25,4 -39,4c-51,0 -90,-17 -117,-50c-28,-33 -41,-80 -41,-142l0,-288l-90,0l0,547l90,0l0,-85c18,33 43,58 73,74s67,24 111,24c6,0 13,-1 21,-1c7,-1 15,-2 25,-4l0,-92z" transform="translate(-.091) scale(.001)"/>
 </symbol>
 <symbol id="s">
  <path id="svg_18" d="m183,702l0,-155l185,0l0,-70l-185,0l0,-297c0,-45 6,-74 18,-86c12,-13 37,-19 75,-19l92,0l0,-75l-92,0c-70,0 -118,13 -144,39s-39,73 -39,141l0,297l-66,0l0,70l66,0l0,155l90,0z" transform="translate(-.027) scale(.001)"/>
 </symbol>
 <symbol id="t">
  <path id="svg_19" d="m549,330l0,-330l-90,0l0,327c0,52 -11,90 -31,116s-50,39 -90,39c-49,0 -87,-16 -115,-47s-42,-73 -42,-126l0,-309l-90,0l0,547l90,0l0,-85c21,32 46,57 76,73c29,16 63,25 101,25c62,0 110,-20 142,-59s49,-96 49,-171z" transform="translate(-.091) scale(.001)"/>
 </symbol>
 <symbol id="u">
  <path id="svg_20" d="m0.283,0.288c-0.073,0 -0.123,-0.009 -0.151,-0.025c-0.028,-0.017 -0.042,-0.045 -0.042,-0.085c0,-0.032 0.01,-0.058 0.031,-0.076c0.021,-0.019 0.05,-0.028 0.086,-0.028c0.05,0 0.09,0.017 0.12,0.053c0.03,0.035 0.045,0.082 0.045,0.141l0,0.02l-0.089,0zm0.179,0.037l0,-0.312l-0.09,0l0,0.083c-0.021,-0.034 -0.047,-0.058 -0.077,-0.073s-0.068,-0.023 -0.112,-0.023c-0.056,0 -0.101,0.015 -0.134,0.046s-0.049,0.073 -0.049,0.126c0,0.061 0.02,0.107 0.062,0.139c0.041,0.031 0.102,0.047 0.184,0.047l0.126,0l0,0.009c0,0.041 -0.014,0.073 -0.041,0.096c-0.027,0.022 -0.065,0.034 -0.114,0.034c-0.032,0 -0.062,-0.004 -0.092,-0.012s-0.058,-0.019 -0.085,-0.033l0,0.083c0.032,0.012 0.064,0.022 0.095,0.028s0.061,0.01 0.091,0.01c0.079,0 0.138,-0.021 0.177,-0.062s0.059,-0.103 0.059,-0.186z"/>
 </symbol>
 <symbol id="v">
  <path id="svg_21" d="m0.251,0.497c-0.048,0 -0.086,-0.019 -0.114,-0.057s-0.042,-0.089 -0.042,-0.154c0,-0.066 0.013,-0.117 0.041,-0.155s0.066,-0.056 0.115,-0.056c0.048,0 0.086,0.018 0.114,0.056s0.042,0.089 0.042,0.155c0,0.064 -0.014,0.116 -0.042,0.154s-0.066,0.057 -0.114,0.057zm0,0.076c0.078,0 0.139,-0.026 0.184,-0.076c0.044,-0.051 0.067,-0.121 0.067,-0.211s-0.023,-0.16 -0.067,-0.21c-0.045,-0.051 -0.106,-0.076 -0.184,-0.076c-0.079,0 -0.141,0.025 -0.185,0.076c-0.044,0.05 -0.066,0.12 -0.066,0.21s0.022,0.16 0.066,0.211c0.044,0.05 0.106,0.076 0.185,0.076z"/>
 </symbol>
 <symbol id="w">
  <path id="svg_22" d="m0.155,0.247c-0.026,0 -0.048,-0.009 -0.066,-0.027s-0.027,-0.04 -0.027,-0.066s0.009,-0.048 0.027,-0.066s0.04,-0.026 0.066,-0.026s0.048,0.008 0.066,0.026s0.027,0.04 0.027,0.066s-0.009,0.048 -0.027,0.066s-0.04,0.027 -0.066,0.027zm0,0.063c0.02,0 0.04,-0.004 0.06,-0.012c0.019,-0.008 0.036,-0.02 0.05,-0.034c0.014,-0.015 0.025,-0.032 0.033,-0.05c0.008,-0.019 0.012,-0.039 0.012,-0.06c0,-0.044 -0.016,-0.08 -0.046,-0.11s-0.067,-0.044 -0.11,-0.044c-0.044,0 -0.081,0.014 -0.11,0.044c-0.03,0.029 -0.044,0.066 -0.044,0.11c0,0.043 0.015,0.08 0.045,0.11s0.066,0.046 0.11,0.046z"/>
 </symbol>
 <clipPath id="x">
  <path id="svg_23" d="m103.104,307.58401l266.112,0l0,-266.112l-266.112,0l0,266.112z"/>
 </clipPath>
 <clipPath id="y">
  <path id="svg_24" d="m103.104,307.58401l266.112,0l0,-266.112l-266.112,0l0,266.112z"/>
 </clipPath>
 <symbol id="z">
  <path id="svg_25" d="m0.588,0.686l0,-0.104c-0.034,0.03 -0.069,0.053 -0.107,0.069c-0.038,0.015 -0.077,0.023 -0.119,0.023c-0.084,0 -0.148,-0.026 -0.192,-0.077s-0.066,-0.124 -0.066,-0.22s0.022,-0.17 0.066,-0.221s0.108,-0.076 0.192,-0.076c0.042,0 0.081,0.007 0.119,0.023c0.038,0.015 0.073,0.038 0.107,0.069l0,-0.103c-0.035,-0.024 -0.072,-0.041 -0.11,-0.052s-0.079,-0.017 -0.122,-0.017c-0.11,0 -0.197,0.033 -0.261,0.1s-0.095,0.159 -0.095,0.277c0,0.117 0.031,0.209 0.095,0.277c0.064,0.067 0.151,0.101 0.261,0.101c0.044,0 0.085,-0.006 0.123,-0.017c0.038,-0.012 0.075,-0.029 0.109,-0.052z"/>
 </symbol>
 <symbol id="A">
  <path id="svg_26" d="m0,0.229l0,0.331l0.09,0l0,-0.328c0,-0.052 0.01,-0.09 0.03,-0.116s0.05,-0.039 0.091,-0.039c0.048,0 0.087,0.015 0.115,0.046s0.042,0.073 0.042,0.127l0,0.31l0.09,0l0,-0.547l-0.09,0l0,0.084c-0.022,-0.034 -0.048,-0.058 -0.076,-0.074c-0.029,-0.015 -0.062,-0.023 -0.1,-0.023c-0.063,0 -0.111,0.019 -0.143,0.058c-0.033,0.038 -0.049,0.095 -0.049,0.171zm0.226,0.344z"/>
 </symbol>
 <symbol id="B">
  <path id="svg_27" d="m0.224,0.89c-0.044,-0.076 -0.076,-0.15 -0.097,-0.223c-0.022,-0.073 -0.032,-0.147 -0.032,-0.222c0,-0.076 0.01,-0.15 0.032,-0.223c0.021,-0.074 0.053,-0.147 0.097,-0.222l-0.078,0c-0.049,0.077 -0.086,0.151 -0.11,0.225s-0.036,0.147 -0.036,0.22c0,0.072 0.012,0.145 0.036,0.219s0.06,0.149 0.11,0.226l0.078,0z"/>
 </symbol>
 <symbol id="C">
  <path id="svg_28" d="m0.469,0.718l0,-0.096c-0.038,0.018 -0.073,0.031 -0.106,0.04c-0.034,0.008 -0.066,0.013 -0.096,0.013c-0.054,0 -0.096,-0.011 -0.125,-0.031c-0.029,-0.021 -0.043,-0.051 -0.043,-0.089c0,-0.032 0.009,-0.057 0.029,-0.073c0.019,-0.017 0.056,-0.03 0.11,-0.04l0.06,-0.012c0.073,-0.014 0.127,-0.039 0.162,-0.074c0.035,-0.036 0.053,-0.083 0.053,-0.142c0,-0.071 -0.024,-0.124 -0.071,-0.16c-0.048,-0.036 -0.117,-0.054 -0.208,-0.054c-0.035,0 -0.072,0.004 -0.111,0.011s-0.079,0.018 -0.12,0.034l0,0.102c0.04,-0.023 0.079,-0.04 0.117,-0.051c0.038,-0.012 0.076,-0.017 0.114,-0.017c0.056,0 0.099,0.011 0.13,0.033c0.03,0.022 0.046,0.053 0.046,0.095c0,0.036 -0.011,0.064 -0.033,0.084s-0.058,0.035 -0.108,0.045l-0.06,0.012c-0.074,0.014 -0.127,0.037 -0.16,0.069c-0.033,0.031 -0.049,0.074 -0.049,0.13c0,0.064 0.022,0.115 0.068,0.152c0.045,0.037 0.108,0.056 0.188,0.056c0.034,0 0.068,-0.003 0.104,-0.009c0.035,-0.006 0.071,-0.016 0.109,-0.028z"/>
 </symbol>
 <symbol id="D">
  <path id="svg_29" d="m0,0.89l0.078,0c0.048,-0.077 0.085,-0.152 0.109,-0.226s0.037,-0.147 0.037,-0.219c0,-0.073 -0.013,-0.146 -0.037,-0.22s-0.061,-0.148 -0.109,-0.225l-0.078,0c0.043,0.075 0.075,0.148 0.097,0.222c0.021,0.073 0.032,0.147 0.032,0.223c0,0.075 -0.011,0.149 -0.032,0.222c-0.022,0.073 -0.054,0.147 -0.097,0.223z"/>
 </symbol>
 <symbol id="E">
  <path id="svg_30" d="m197,648l0,-567l119,0c100,0 174,22 221,68c46,46 70,118 70,216s-24,169 -70,215c-47,45 -121,68 -221,68l-119,0zm-99,81l203,0c141,0 245,-30 311,-88c66,-59 99,-151 99,-276c0,-126 -34,-218 -100,-277s-170,-88 -310,-88l-203,0l0,729z" transform="translate(-.098) scale(.001)"/>
 </symbol>
 <symbol id="F">
  <path id="svg_31" d="m0.399,0.477l0,0.296l0.09,0l0,-0.76l-0.09,0l0,0.082c-0.019,-0.033 -0.043,-0.057 -0.072,-0.072s-0.063,-0.023 -0.103,-0.023c-0.066,0 -0.12,0.026 -0.162,0.078s-0.062,0.122 -0.062,0.208s0.02,0.155 0.062,0.208c0.042,0.052 0.096,0.079 0.162,0.079c0.04,0 0.074,-0.008 0.103,-0.024s0.053,-0.04 0.072,-0.072zm-0.306,-0.191c0,-0.066 0.013,-0.118 0.04,-0.156s0.064,-0.056 0.112,-0.056s0.085,0.018 0.113,0.056c0.027,0.038 0.041,0.09 0.041,0.156s-0.014,0.117 -0.041,0.155c-0.028,0.038 -0.065,0.057 -0.113,0.057s-0.085,-0.019 -0.112,-0.057s-0.04,-0.089 -0.04,-0.155z"/>
 </symbol>
 <g>
  <title>Layer 1</title>
  <path id="svg_32" fill="#fff" d="m0,345.6l460.8,0l0,-345.6l-460.8,0l0,345.6z"/>
  <path id="svg_33" fill="#fff" d="m103.104,307.584l266.112,0l0,-266.112l-266.112,0l0,266.112z"/>
  <path id="svg_34" d="m112.175,307.584l0,3.5" stroke="#000" fill="none" stroke-linejoin="round" stroke-width="0.8"/>
  <use id="svg_35" transform="matrix(10 0 0 -10 109.655 322.308)" xlink:href="#a"/>
  <path id="svg_36" d="m175.732,307.584l0,3.5" stroke="#000" fill="none" stroke-linejoin="round" stroke-width="0.8"/>
  <use id="svg_37" transform="matrix(10 0 0 -10 170.473 322.178)" xlink:href="#b"/>
  <use id="svg_38" transform="matrix(10 0 0 -10 176.393 322.308)" xlink:href="#a"/>
  <path id="svg_39" d="m239.29,307.584l0,3.5" stroke="#000" fill="none" stroke-linejoin="round" stroke-width="0.8"/>
  <use id="svg_40" transform="matrix(10 0 0 -10 233.66 322.178)" xlink:href="#c"/>
  <use id="svg_41" transform="matrix(10 0 0 -10 239.95 322.308)" xlink:href="#a"/>
  <path id="svg_42" d="m302.848,307.584l0,3.5" stroke="#000" fill="none" stroke-linejoin="round" stroke-width="0.8"/>
  <use id="svg_43" transform="matrix(10 0 0 -10 297.249 322.308)" xlink:href="#d"/>
  <use id="svg_44" transform="matrix(10 0 0 -10 303.509 322.308)" xlink:href="#a"/>
  <path id="svg_45" d="m366.406,307.584l0,3.5" stroke="#000" fill="none" stroke-linejoin="round" stroke-width="0.8"/>
  <use id="svg_46" transform="matrix(10 0 0 -10 360.536 322.178)" xlink:href="#e"/>
  <use id="svg_47" transform="matrix(10 0 0 -10 367.066 322.308)" xlink:href="#a"/>
  <use id="svg_48" transform="matrix(10 0 0 -10 215.757 335.85)" xlink:href="#f"/>
  <use id="svg_49" transform="matrix(10 0 0 -10 222.53 335.85)" xlink:href="#g"/>
  <use id="svg_50" transform="matrix(10 0 0 -10 225.28 335.85)" xlink:href="#h"/>
  <use id="svg_51" transform="matrix(10 0 0 -10 234.66 335.98)" xlink:href="#i"/>
  <use id="svg_52" transform="matrix(10 0 0 -10 240.26 335.85)" xlink:href="#j"/>
  <use id="svg_53" transform="matrix(10 0 0 -10 244.3 337.16)" xlink:href="#k"/>
  <use id="svg_54" transform="matrix(10 0 0 -10 247.88 335.98)" xlink:href="#l"/>
  <use id="svg_55" transform="matrix(10 0 0 -10 253.52 337.16)" xlink:href="#m"/>
  <path id="svg_56" d="m103.104,304.932l-3.5,0" stroke="#000" fill="none" stroke-linejoin="round" stroke-width="0.8"/>
  <use id="svg_57" transform="matrix(10 0 0 -10 84.205 308.729)" xlink:href="#n"/>
  <use id="svg_58" transform="matrix(10 0 0 -10 90.405 308.859)" xlink:href="#a"/>
  <path id="svg_59" d="m103.104,262.065l-3.5,0" stroke="#000" fill="none" stroke-linejoin="round" stroke-width="0.8"/>
  <use id="svg_60" transform="matrix(10 0 0 -10 84.065 265.992)" xlink:href="#o"/>
  <use id="svg_61" transform="matrix(10 0 0 -10 90.405 265.992)" xlink:href="#a"/>
  <path id="svg_62" d="m103.104,219.198l-3.5,0" stroke="#000" fill="none" stroke-linejoin="round" stroke-width="0.8"/>
  <use id="svg_63" transform="matrix(10 0 0 -10 84.015 223.125)" xlink:href="#p"/>
  <use id="svg_64" transform="matrix(10 0 0 -10 90.405 223.125)" xlink:href="#a"/>
  <path id="svg_65" d="m103.104,176.331l-3.5,0" stroke="#000" fill="none" stroke-linejoin="round" stroke-width="0.8"/>
  <use id="svg_66" transform="matrix(10 0 0 -10 78.126 180.128)" xlink:href="#b"/>
  <use id="svg_67" transform="matrix(10 0 0 -10 84.046 180.258)" xlink:href="#a"/>
  <use id="svg_68" transform="matrix(10 0 0 -10 90.406 180.258)" xlink:href="#a"/>
  <path id="svg_69" d="m103.104,133.464l-3.5,0" stroke="#000" fill="none" stroke-linejoin="round" stroke-width="0.8"/>
  <use id="svg_70" transform="matrix(10 0 0 -10 78.126 137.261)" xlink:href="#b"/>
  <use id="svg_71" transform="matrix(10 0 0 -10 84.486 137.261)" xlink:href="#b"/>
  <use id="svg_72" transform="matrix(10 0 0 -10 90.406 137.391)" xlink:href="#a"/>
  <path id="svg_73" d="m103.104,90.597l-3.5,0" stroke="#000" fill="none" stroke-linejoin="round" stroke-width="0.8"/>
  <use id="svg_74" transform="matrix(10 0 0 -10 78.126 94.394)" xlink:href="#b"/>
  <use id="svg_75" transform="matrix(10 0 0 -10 84.116 94.394)" xlink:href="#c"/>
  <use id="svg_76" transform="matrix(10 0 0 -10 90.406 94.524)" xlink:href="#a"/>
  <path id="svg_77" d="m103.104,47.73l-3.5,0" stroke="#000" fill="none" stroke-linejoin="round" stroke-width="0.8"/>
  <use id="svg_78" transform="matrix(10 0 0 -10 78.126 51.527)" xlink:href="#b"/>
  <use id="svg_79" transform="matrix(10 0 0 -10 84.146 51.657)" xlink:href="#d"/>
  <use id="svg_80" transform="matrix(10 0 0 -10 90.406 51.657)" xlink:href="#a"/>
  <use x="0.39749" y="-0.02092" id="svg_81" transform="matrix(0 -10 -10 0 71.078 212.171)" xlink:href="#q"/>
  <use x="0.39749" y="-0.02092" id="svg_82" transform="matrix(0 -10 -10 0 70.948 203.951)" xlink:href="#r"/>
  <use x="0.39749" y="-0.02092" id="svg_83" transform="matrix(0 -10 -10 0 70.948 199.811)" xlink:href="#g"/>
  <use id="svg_85" transform="matrix(0 -10 -10 0 71.078 193.501)" xlink:href="#i"/>
  <use id="svg_86" transform="matrix(0 -10 -10 0 70.948 186.991)" xlink:href="#t"/>
  <use id="svg_87" transform="matrix(0 -10 -10 0 70.948 181.291)" xlink:href="#s"/>
  <use id="svg_88" transform="matrix(0 -10 -10 0 71.078 177.041)" xlink:href="#u"/>
  <use id="svg_89" transform="matrix(0 -10 -10 0 70.948 171.241)" xlink:href="#s"/>
  <use id="svg_90" transform="matrix(0 -10 -10 0 70.948 166.651)" xlink:href="#g"/>
  <use id="svg_91" transform="matrix(0 -10 -10 0 71.078 164.261)" xlink:href="#v"/>
  <use id="svg_92" transform="matrix(0 -10 -10 0 70.948 157.781)" xlink:href="#t"/>
  <use id="svg_93" transform="matrix(0 -10 -10 0 70.948 152.351)" xlink:href="#j"/>
  <use id="svg_94" transform="matrix(0 -10 -10 0 72.258 148.311)" xlink:href="#k"/>
  <use id="svg_95" transform="matrix(0 -10 -10 0 66.628 144.321)" xlink:href="#w"/>
  <use id="svg_96" transform="matrix(0 -10 -10 0 72.258 139.301)" xlink:href="#m"/>
  <g id="svg_97" clip-path="url(#x)">
   <path id="svg_98" d="m115.2,220.104l0.248,-1.507l0.114,0.596l0.413,0l0.134,0.324l0.222,-0.324l0.445,0.686l0.09,-0.252l0.19,0.393l0.063,-0.234l0.115,0.164l0.133,-0.029l0.115,-0.378l0.26,0.307l0.127,-0.339l0.172,0.147l0.095,-0.163l0.14,0.14l0.235,-0.442l0.127,0.137l0.255,-0.402l0.114,0.005l0.26,-0.117l0.115,0.006l0.134,-0.238l0.14,0.128l0.629,-0.312l0.133,0.12l0.127,-0.216l0.26,0.016l0.166,-0.21l0.089,0.116l0.63,-0.384l0.133,0.111l0.635,-0.471l0.16,0.108l0.597,-0.453l0.108,0.009l0.387,-0.358l0.388,-0.065l0.114,-0.084l0.121,0.104l0.267,-0.169l0.267,-0.073l0.108,-0.083l0.134,0.193l0.254,-0.257l0.273,0.108l0.242,-0.074l0.114,0.098l0.146,-0.173l0.255,0.105l0.108,0.006l0.146,-0.17l0.235,0.19l0.146,-0.083l0.248,0.187l0.12,-0.083l0.255,0.097l0.394,0.011l0.114,0.179l0.261,-0.081l0.496,0.27l0.133,-0.085l0.274,0.178l0.171,-0.085l0.064,0.26l0.133,-0.17l0.134,0.174l0.127,-0.084l0.52,0.349l0.115,-0.17l0.134,0.258l0.114,-0.17l0.26,0.259l0.395,0.088l0.12,0.086l0.121,-0.084l0.248,0.172l0.375,0.088l0.14,0.085l0.248,-0.083l0.254,0.17l0.12,0.001l0.128,0.17l0.134,-0.169l0.241,0.17l0.165,0.085l0.09,-0.084l0.279,0.169l0.375,0.169l0.235,0l0.127,0.253l0.14,-0.168l0.311,0.252l0.217,0l0.12,0.168l0.375,0l0.115,0.251l0.146,-0.168l0.35,0.336l0.571,0.083l0.083,0.167l0.12,-0.084l0.535,0.335l0.12,0l0.23,0.166l0.266,0.084l0.4,0.166l0.223,0.083l1.31,0.5l0.222,0.082l0.12,0.084l0.185,-0.084l0.083,0.167l0.52,0.083l0.249,0.084l0.578,0.167l0.064,-0.084l0.127,0.168l0.133,-0.082l0.35,0.166l0.127,-0.084l0.12,0.168l0.134,-0.084l0.4,0.166l0.14,-0.083l0.223,0.167l0.127,-0.167l0.388,0.337l0.38,-0.167l0.198,0.166l0.076,-0.083l0.369,0.167l0.171,-0.167l0.083,0.166l0.19,-0.167l0.077,0.167l0.254,-0.084l0.134,0.168l0.089,-0.168l0.28,0.167l0.228,-0.083l0.4,0.085l4.755,-0.079l0.07,-0.084l0.133,0.167l0.254,-0.167l0.172,0.084l0.089,-0.084l2.16,-0.08l0.242,3.342l0.496,3.177l0.273,0.066l0.121,-0.177l0.388,-1.537l0.502,-3.269l3.197,-27.137l0.356,-3.09l0.305,-2.026l0.337,-3.173l1.265,-11.97l0.648,-7.017l0.902,-11.294l0.363,-5.285l0.286,-3.69l1.131,-17.06l0.458,-5.959l0.292,-5.75l0.896,-13.336l0.388,-5.551l0.394,-5.057l0.343,-4.919l1.926,-21.696l0.998,-7.77l1.182,-5.358l0.248,-0.734l0.235,-0.736l0.445,-0.679l0.203,-0.459l0.566,-0.495l0.197,0.029l0.381,0.004l0.388,0.402l0.216,0.349l1.557,2.01l0.255,0.455l1.404,2.513l0.254,0.604l0.63,1.502l0.756,2.267l0.756,2.647l0.509,1.824l0.775,3.173l0.91,3.455l0.228,0.975l0.642,2.346l1.017,2.573l0.127,0.159l0.26,0.558l0.884,1.21l0.114,0.024l0.26,0.256l1.139,1.488l1.13,2.114l0.382,0.6l0.14,0.36l0.153,0.067l0.356,0.63l0.762,1.052l0.28,0.106l0.343,0.42l0.642,0.554l0.133,-0.068l0.318,0.195l0.318,0.126l1.189,0.214l0.101,-0.107l0.108,0.107l0.166,-0.068l0.235,0.068l0.101,-0.107l0.267,0.165l0.89,0.04l0.267,0.089l0.795,0.176l0.197,-0.01l0.14,0.028l0.12,-0.126l0.28,0.127l0.095,-0.108l0.14,0.097l0.127,-0.097l0.235,0.068l0.28,0.058l0.12,-0.068l0.147,0.087l0.254,-0.126l0.096,0.165l0.292,-0.018l1.1,-0.078l0.133,0.097l0.267,-0.068l0.642,-0.04l1.131,-0.076l0.134,0.224l0.266,-0.253l0.242,0.147l0.14,-0.136l0.089,0.137l0.426,-0.108l0.095,0.029l0.248,-0.097l0.127,-0.068l0.133,0.097l0.395,-0.166l0.14,0.069l0.095,-0.127l0.28,0.069l0.24,-0.205l0.147,0.205l0.311,-0.126l0.09,0.107l0.082,-0.224l0.273,0.195l0.356,-0.194l1.913,-0.048l0.274,-0.068l0.133,0.058l0.108,-0.098l0.14,0.059l0.127,-0.127l0.14,0.127l0.242,-0.048l0.38,-0.02l0.122,0.167l0.114,-0.166l0.14,0.058l0.381,-0.117l0.134,0.137l0.235,-0.185l0.248,0.088l0.127,-0.137l0.14,0.068l0.14,-0.068l0.228,0.03l0.388,-0.06l0.381,0.01l0.134,-0.126l0.114,0.127l0.267,-0.098l0.248,0.03l0.26,0.068l0.134,-0.127l0.26,0.147l0.23,-0.03l0.254,-0.028l0.127,-0.04l0.146,0.098l0.267,-0.097l0.496,0.127l0.146,-0.196l0.241,0.157l0.255,-0.03l0.127,-0.068l0.235,0.098l0.14,-0.137l0.127,0.235l0.229,-0.235l0.203,0.235l0.057,-0.137l0.248,0.03l0.153,0.038l0.12,-0.136l0.121,0.205l0.134,-0.166l0.108,0.137l0.394,-0.059l0.394,0.098l0.108,-0.107l0.146,0.107l0.108,-0.137l0.248,0.205l0.14,-0.117l0.502,0.119l0.165,0.03l0.095,-0.138l0.14,0.069l0.127,-0.138l0.23,0.099l0.266,-0.07l0.146,0.099l0.127,-0.206l0.37,0.167l0.24,-0.137l0.268,0.098l0.108,-0.069l0.133,0.127l0.14,-0.127l0.108,0.059l0.14,-0.069l0.267,0.069l0.286,0l0.146,0.127l0.21,-0.068l0.222,-0.059l0.267,0.098l0.4,-0.137l0.236,0.196l0.133,-0.088l0.381,0.069l0.318,0.02l0.077,0.147l0.108,-0.166l0.267,0.166l0.26,-0.137l0.102,0.098l0.388,-0.206l0.38,0.098l0.376,-0.04l0.152,0.07l0.096,-0.167l0.133,0.206l0.146,-0.167l0.369,0.03l0.7,0.108l0.063,-0.069l0.413,0.119l0.299,-0.098l0.082,0.127l0.127,-0.069l0.102,0.098l0.273,-0.087l0.255,0.068l0.629,-0.108l0.095,-0.068l0.159,0.206l0.241,-0.196l0.261,0.098l0.381,-0.079l0.267,0.109l0.134,-0.109l0.248,0.099l0.101,-0.167l0.134,0.167l0.127,-0.098l0.4,0.058l0.09,-0.029l0.196,0.098l0.077,-0.098l0.4,0.069l0.095,-0.098l0.261,0.127l0.267,0l0.114,0.04l0.33,-0.049l0.172,0.04l0.14,-0.069l0.521,0.098l0.147,-0.147l0.28,0.167l0.444,-0.079l0.54,0.129l0.096,-0.236l0.267,0.256l0.133,-0.226l0.121,0.128l0.508,-0.118l0.255,0.03l1.017,-0.128l5.466,0.02l0.266,0.099l0.096,-0.138l0.286,0.207l0.235,-0.177l0.381,0.069l0.407,-0.04l0.09,0.07l0.126,-0.128l0.127,0.098l0.134,-0.069l0.14,0.069l0.26,-0.04l0.305,0.099l0.051,-0.167l0.826,0.158l0.191,-3.54l0.381,-2.244l0.267,0.08l0.26,0.627l0.497,2.318l1.582,11.484l0.197,2.046l2.187,17.406l0.642,5.753l1.01,9.282l0.362,3.836l1.303,14.157l0.731,10.66l0.56,7.515l0.197,4.205l3.05,51.254l0.4,6.254l1.653,26.882l0.267,3.7l1.119,14.517l0.883,8.484l1.405,9.589l0.254,0.322l0.14,0.311l0.102,-0.115l0.26,0.132l0.515,-0.767l1.29,-2.612l0.242,-0.476l0.4,-0.583l0.235,-0.33l0.522,-0.86l0.623,-1.124l0.14,-0.132l0.476,-1.173l0.14,-0.178l0.89,-2.943l0.909,-3.868l0.985,-5.715l0.527,-3.052l2.434,-14.189l0.687,-3.048l0.94,-4.068l1.259,-4.156l0.19,-0.276l0.21,-0.742l0.242,-0.436l0.527,-1.023l0.242,-0.25l0.362,-0.594l0.267,-0.083l0.4,-0.686l0.128,0.08l0.229,-0.34l0.158,-0.005l0.108,-0.263l0.128,-0.011l0.362,-0.357l0.534,-0.162l0.375,-0.01l0.146,0.25l0.102,-0.184l0.413,0.24l0.095,0.244l0.267,0.073l0.267,0.327l0.242,0.328l0.133,0.083l0.133,0.333l0.191,0.078l0.178,0.41l0.127,0.237l0.14,0.006l0.254,0.487l0.757,1.322l0.114,-0.006l0.369,0.74l0.133,0.026l0.776,1.196l0.14,0.166l0.228,0.422l0.756,1.1l0.388,0.596l0.305,0.34l0.216,0.421l0.14,0.083l0.865,1.275l0.14,0l0.374,0.58l0.127,0.075l0.14,0.257l0.185,0.066l0.21,0.422l0.349,0.339l2.307,2.404l0.178,0l0.725,0.778l0.305,-0.018l0.19,0.155l0.369,0.275l0.146,-0.092l0.102,0.183l0.407,0.054l0.235,0.165l0.642,0.11l0.14,0.155l0.114,-0.164l0.273,0.155l0.744,0l0.26,0.154l0.109,-0.082l0.254,0.073l0.14,-0.092l0.375,0.101l2.815,-0.038l0.108,-0.082l0.254,0.073l0.128,-0.01l0.133,-0.135l0.388,0.1l0.235,-0.116l0.12,0.092l0.134,-0.145l0.14,0.164l0.146,-0.247l0.26,0.083l0.122,-0.01l0.095,-0.165l0.267,0.102l0.133,-0.257l0.23,0.184l0.152,-0.257l0.362,0.083l0.4,-0.146l0.134,0.073l0.362,-0.156l0.134,0.165l0.146,-0.228l0.082,0.063l0.547,0.02l0.28,-0.093l0.59,0.083l0.14,-0.257l0.382,0.092l0.496,-0.019l0.743,-0.026l0.14,0.092l0.12,-0.083l0.122,0.165l0.273,-0.184l0.883,-0.018l0.127,-0.102l0.134,0.102l0.12,-0.083l0.147,0.092l0.12,-0.073l0.23,0.12l0.266,-0.101l0.14,0.155l0.229,-0.146l0.153,0.101l0.152,-0.174l0.248,0.156l0.114,-0.166l0.4,0.166l0.23,-0.102l0.654,0.203l0.127,-0.257l0.236,0.165l0.12,-0.165l0.146,0.248l0.102,-0.175l0.14,0.175l0.14,-0.102l0.114,0.102l0.134,-0.175l0.14,0.238l0.222,-0.092l0.14,0.102l0.254,-0.092l2.314,0.444l0.101,-0.184l0.274,0.082l0.896,-0.028l0.12,-0.092l0.108,0.156l0.115,-0.074l0.248,0.156l1.557,0.092l0.362,0.146l0.185,-0.155l0.203,0.165l0.14,-0.063l0.108,0.092l0.267,-0.083l0.368,0.083l0.897,0.092l0.14,0.083l0.235,-0.092l0.26,0.082l0.127,0.083l0.14,-0.165l0.12,0.165l0.268,-0.083l0.286,0.073l0.082,0.083l0.121,-0.156l0.14,0.165l0.095,-0.101l0.521,0.082l0.134,0.092l0.241,-0.184l0.134,0.175l0.292,-0.083l0.235,0.146l0.166,-0.073l0.076,0.185l0.248,-0.117l0.324,0.102l0.216,-0.092l0.115,0.063l0.305,-0.054l0.705,0.05l0.102,-0.093l0.14,0.073l0.375,-0.112l0.381,0l0.184,-0.102l0.21,0.175l0.127,-0.185l0.26,0.092l0.636,-0.02l0.496,-0.091l0.134,0.165l0.114,-0.083l0.4,0.156l0.127,-0.083l0.363,0.083l1.423,0.048l0.242,0.064l0.375,-0.073l0.133,0.082l0.394,-0.082l0.102,0.082l0.273,-0.092l0.84,0.083l0.063,-0.136l0.235,0.165l0.108,-0.092l0.14,0.092l0.19,-0.102l0.07,0.185l0.242,-0.166l0.14,0.093l0.133,-0.054l0.248,0.083l0.121,-0.092l0.14,0.082l0.108,-0.102l0.14,0.122l0.14,-0.102l0.228,0.155l0.14,-0.092l0.26,0.092l0.242,-0.102l0.121,0.073l0.267,-0.073l0.248,0.132l0.108,0l0.152,-0.112l0.121,0.155l0.274,-0.063l0.87,0l0.134,-0.083l0.101,0.195l0.14,-0.175l0.121,0.083l0.267,-0.063l0.114,0.063l0.286,-0.083l0.356,-0.093l0.134,0.195l0.171,-0.175l0.102,0.185l0.248,-0.102l0.159,0.01l0.089,0.155l0.12,-0.092l0.134,0.083l0.14,-0.083l0.229,0.073l0.133,-0.073l0.127,0.063l0.127,-0.166l0.128,0.176l0.133,-0.103l0.133,0.103l0.134,-0.073l0.222,0.102l0.642,0.176l0.134,-0.186l0.146,0.196l0.12,-0.093l0.102,0.093l0.414,-0.166l0.108,0.156l0.4,-0.176" stroke="teal" fill="none" stroke-linejoin="round" stroke-linecap="square" stroke-width="2.5"/>
  </g>
  <g id="svg_99" clip-path="url(#y)">
   <path id="svg_100" d="m115.2,221.643l17.294,0.123l22.245,0.062l0.26,-131.23l95.592,0l0.235,160.786l2.174,0.93l2.142,0.913l2.32,0.88l3.425,1.061l2.65,0.528l2.689,0.235l2.402,-0.01l4.087,-0.255l6.076,-0.278l3.82,0.07l4.83,0.309l14.505,0.839l23.783,0.962l10.576,0.478l12.273,0.596l8.542,0.444" stroke="red" fill="none" stroke-linejoin="round" stroke-dasharray="9.25,4" stroke-width="2.5"/>
  </g>
  <path id="svg_101" d="m103.104,307.584l0,-266.112m266.112,266.112l0,-266.112m-266.112,266.112l266.112,0m-266.112,-266.112l266.112,0" stroke="#000" fill="none" stroke-miterlimit="10" stroke-linecap="square" stroke-width="0.8"/>
  <path id="svg_102" fill-opacity="0.8" fill="#fff" d="m208.857,78.816l153.359,0c1.333,0 2,-0.667 2,-2l0,-28.344c0,-1.333 -0.667,-2 -2,-2l-153.36,0c-1.333,0 -2,0.667 -2,2l0,28.344c0,1.333 0.667,2 2,2l0.001,0z"/>
  <path id="svg_103" d="m208.857,78.816l153.359,0c1.333,0 2,-0.667 2,-2l0,-28.344c0,-1.333 -0.667,-2 -2,-2l-153.36,0c-1.333,0 -2,0.667 -2,2l0,28.344c0,1.333 0.667,2 2,2l0.001,0z" stroke-opacity="0.8" stroke="#d5d6d5" fill="none" stroke-miterlimit="10"/>
  <path id="svg_104" d="m210.857,54.566l20,0" stroke="teal" fill="none" stroke-linejoin="round" stroke-linecap="square" stroke-width="2.5"/>
  <use id="svg_105" transform="matrix(10 0 0 -10 239.417 58.196)" xlink:href="#z"/>
  <use id="svg_106" transform="matrix(10 0 0 -10 246.687 58.196)" xlink:href="#A"/>
  <use id="svg_107" transform="matrix(10 0 0 -10 253.087 58.066)" xlink:href="#r"/>
  <use id="svg_108" transform="matrix(10 0 0 -10 257.025 58.066)" xlink:href="#r"/>
  <use id="svg_109" transform="matrix(10 0 0 -10 260.556 58.196)" xlink:href="#i"/>
  <use id="svg_110" transform="matrix(10 0 0 -10 267.066 58.066)" xlink:href="#t"/>
  <use id="svg_111" transform="matrix(10 0 0 -10 272.766 58.066)" xlink:href="#s"/>
  <use id="svg_112" transform="matrix(10 0 0 -10 276.416 58.066)" xlink:href="#j"/>
  <use id="svg_113" transform="matrix(10 0 0 -10 280.146 58.196)" xlink:href="#v"/>
  <use id="svg_114" transform="matrix(10 0 0 -10 286.626 58.066)" xlink:href="#r"/>
  <use id="svg_115" transform="matrix(10 0 0 -10 290.766 58.066)" xlink:href="#g"/>
  <use id="svg_116" transform="matrix(10 0 0 -10 293.156 58.196)" xlink:href="#i"/>
  <use id="svg_117" transform="matrix(10 0 0 -10 299.666 58.066)" xlink:href="#t"/>
  <use id="svg_118" transform="matrix(10 0 0 -10 305.366 58.066)" xlink:href="#s"/>
  <use id="svg_119" transform="matrix(10 0 0 -10 309.616 58.196)" xlink:href="#u"/>
  <use id="svg_120" transform="matrix(10 0 0 -10 315.416 58.066)" xlink:href="#s"/>
  <use id="svg_121" transform="matrix(10 0 0 -10 320.006 58.066)" xlink:href="#g"/>
  <use id="svg_122" transform="matrix(10 0 0 -10 322.396 58.196)" xlink:href="#v"/>
  <use id="svg_123" transform="matrix(10 0 0 -10 328.876 58.066)" xlink:href="#t"/>
  <use id="svg_124" transform="matrix(10 0 0 -10 334.306 58.066)" xlink:href="#j"/>
  <use id="svg_125" transform="matrix(10 0 0 -10 338.346 59.376)" xlink:href="#B"/>
  <use id="svg_126" transform="matrix(10 0 0 -10 341.946 58.196)" xlink:href="#q"/>
  <use id="svg_127" transform="matrix(10 0 0 -10 349.916 58.196)" xlink:href="#C"/>
  <use id="svg_128" transform="matrix(10 0 0 -10 356.406 59.376)" xlink:href="#D"/>
  <path id="svg_129" d="m210.857,69.238l20,0" stroke="red" fill="none" stroke-linejoin="round" stroke-dasharray="9.25,4" stroke-width="2.5"/>
  <use id="svg_130" transform="matrix(10 0 0 -10 239.837 72.738)" xlink:href="#E"/>
  <use id="svg_131" transform="matrix(10 0 0 -10 247.107 72.868)" xlink:href="#i"/>
  <use id="svg_132" transform="matrix(10 0 0 -10 253.247 72.868)" xlink:href="#l"/>
  <use id="svg_133" transform="matrix(10 0 0 -10 258.857 72.738)" xlink:href="#g"/>
  <use id="svg_134" transform="matrix(10 0 0 -10 261.607 72.738)" xlink:href="#r"/>
  <use id="svg_135" transform="matrix(10 0 0 -10 265.138 72.868)" xlink:href="#i"/>
  <use id="svg_136" transform="matrix(10 0 0 -10 271.288 72.868)" xlink:href="#F"/>
  <use id="svg_137" transform="matrix(10 0 0 -10 277.088 72.738)" xlink:href="#j"/>
  <use id="svg_138" transform="matrix(10 0 0 -10 280.818 72.868)" xlink:href="#v"/>
  <use id="svg_139" transform="matrix(10 0 0 -10 287.298 72.738)" xlink:href="#r"/>
  <use id="svg_140" transform="matrix(10 0 0 -10 291.438 72.738)" xlink:href="#g"/>
  <use id="svg_141" transform="matrix(10 0 0 -10 293.828 72.868)" xlink:href="#i"/>
  <use id="svg_142" transform="matrix(10 0 0 -10 300.338 72.738)" xlink:href="#t"/>
  <use id="svg_143" transform="matrix(10 0 0 -10 306.038 72.738)" xlink:href="#s"/>
  <use id="svg_144" transform="matrix(10 0 0 -10 310.288 72.868)" xlink:href="#u"/>
  <use id="svg_145" transform="matrix(10 0 0 -10 316.088 72.738)" xlink:href="#s"/>
  <use id="svg_146" transform="matrix(10 0 0 -10 320.678 72.738)" xlink:href="#g"/>
  <use id="svg_147" transform="matrix(10 0 0 -10 323.068 72.868)" xlink:href="#v"/>
  <use id="svg_148" transform="matrix(10 0 0 -10 329.548 72.738)" xlink:href="#t"/>
  <use id="svg_149" transform="matrix(10 0 0 -10 334.978 72.738)" xlink:href="#j"/>
  <use id="svg_150" transform="matrix(10 0 0 -10 339.018 74.048)" xlink:href="#B"/>
  <use id="svg_151" transform="matrix(10 0 0 -10 342.618 72.868)" xlink:href="#q"/>
  <use id="svg_152" transform="matrix(10 0 0 -10 350.588 72.868)" xlink:href="#C"/>
  <use id="svg_153" transform="matrix(10 0 0 -10 357.078 74.048)" xlink:href="#D"/>
 </g>
</svg>