<?xml version="1.0" encoding="UTF-8" standalone="no"?>
<svg
   width="310pt"
   height="396"
   viewBox="0 0 310 297"
   version="1.1"
   id="svg6178"
   sodipodi:docname="Orientation-cropped_new.svg"
   inkscape:version="1.2.2 (732a01da63, 2022-12-09)"
   xmlns:inkscape="http://www.inkscape.org/namespaces/inkscape"
   xmlns:sodipodi="http://sodipodi.sourceforge.net/DTD/sodipodi-0.dtd"
   xmlns:xlink="http://www.w3.org/1999/xlink"
   xmlns="http://www.w3.org/2000/svg"
   xmlns:svg="http://www.w3.org/2000/svg">
  <defs
     id="defs6182" />
  <sodipodi:namedview
     id="namedview6180"
     pagecolor="#ffffff"
     bordercolor="#999999"
     borderopacity="1"
     inkscape:showpageshadow="0"
     inkscape:pageopacity="0"
     inkscape:pagecheckerboard="0"
     inkscape:deskcolor="#d1d1d1"
     inkscape:document-units="pt"
     showgrid="false"
     inkscape:zoom="11.414141"
     inkscape:cx="33.204425"
     inkscape:cy="210.87876"
     inkscape:window-width="1366"
     inkscape:window-height="745"
     inkscape:window-x="-8"
     inkscape:window-y="-8"
     inkscape:window-maximized="1"
     inkscape:current-layer="g6176" />
  <clipPath
     id="a">
    <path
       transform="matrix(1 0 0 -1 -63 305)"
       d="M0 0h460.8v345.6H0z"
       id="path5836" />
  </clipPath>
  <g
     clip-path="url(#a)"
     id="g6176">
    <path
       d="M-63 305h460.8V-40.6H-63z"
       fill="#fff"
       id="path5839" />
    <path
       d="M40.104 266.984h266.112V.872H40.104z"
       fill="#fff"
       id="path5841" />
    <path
       stroke-width=".8"
       stroke-linejoin="round"
       fill="none"
       stroke="#000"
       d="M49.175 266.984v3.5"
       id="path5843" />
    <symbol
       id="b">
      <path
         transform="matrix(.001 0 0 .001 -.066 .013)"
         d="M318 664c-51 0-89-25-115-75s-38-125-38-225 12-175 38-225 64-75 115-75 89 25 115 75c25 50 38 125 38 225s-13 175-38 225c-26 50-64 75-115 75zm0 78c81 0 143-33 187-97 43-65 65-159 65-281 0-123-22-217-65-281-44-64-106-96-188-96S173 19 130 83 66 241 66 364c0 122 21 216 64 281 43 64 106 97 188 97z"
         id="path5845" />
    </symbol>
    <use
       xlink:href="#b"
       transform="matrix(10 0 0 -10 46.655 281.708)"
       id="use5848" />
    <path
       stroke-width=".8"
       stroke-linejoin="round"
       fill="none"
       stroke="#000"
       d="M112.732 266.984v3.5"
       id="path5850" />
    <symbol
       id="c">
      <path
         transform="translate(-.11) scale(.001)"
         d="M124 83h161v556l-175-35v90l174 35h99V83h161V0H124v83z"
         id="path5852" />
    </symbol>
    <use
       xlink:href="#c"
       transform="matrix(10 0 0 -10 107.473 281.578)"
       id="use5855" />
    <use
       xlink:href="#b"
       transform="matrix(10 0 0 -10 113.393 281.708)"
       id="use5857" />
    <path
       stroke-width=".8"
       stroke-linejoin="round"
       fill="none"
       stroke="#000"
       d="M176.29 266.984v3.5"
       id="path5859" />
    <symbol
       id="d">
      <path
         transform="translate(-.073) scale(.001)"
         d="M192 83h344V0H73v83c37 38 88 90 153 156 64 65 105 107 122 126 32 35 54 65 66 90 12 24 19 49 19 73 0 38-14 70-41 94s-62 37-106 37c-31 0-64-6-98-16-34-11-71-27-110-49v100c40 16 77 28 111 36s66 12 95 12c75 0 135-19 180-57s68-88 68-151c0-30-6-59-17-85-11-27-31-59-61-95-8-10-34-37-78-82S271 164 192 83z"
         id="path5861" />
    </symbol>
    <use
       xlink:href="#d"
       transform="matrix(10 0 0 -10 170.66 281.578)"
       id="use5864" />
    <use
       xlink:href="#b"
       transform="matrix(10 0 0 -10 176.95 281.708)"
       id="use5866" />
    <path
       stroke-width=".8"
       stroke-linejoin="round"
       fill="none"
       stroke="#000"
       d="M239.848 266.984v3.5"
       id="path5868" />
    <symbol
       id="e">
      <path
         transform="matrix(.001 0 0 .001 -.076 .013)"
         d="M406 393c47-10 84-31 110-63s40-72 40-118c0-72-25-128-74-167-50-39-120-58-211-58-31 0-63 3-95 9-32 5-66 14-100 26v95c27-16 57-28 90-36 32-8 66-12 102-12 62 0 109 12 141 36s49 60 49 107c0 42-15 76-45 100s-72 37-126 37h-85v81h89c48 0 85 9 111 29 26 19 39 47 39 84s-14 66-40 86c-27 20-65 30-114 30-27 0-56-3-87-9s-65-15-102-27v88c37 10 72 18 105 23 32 5 63 8 93 8 74 0 133-17 177-51s66-80 66-138c0-40-12-74-35-102s-56-48-98-58z"
         id="path5870" />
    </symbol>
    <use
       xlink:href="#e"
       transform="matrix(10 0 0 -10 234.249 281.708)"
       id="use5873" />
    <use
       xlink:href="#b"
       transform="matrix(10 0 0 -10 240.509 281.708)"
       id="use5875" />
    <path
       stroke-width=".8"
       stroke-linejoin="round"
       fill="none"
       stroke="#000"
       d="M303.406 266.984v3.5"
       id="path5877" />
    <symbol
       id="f">
      <path
         transform="translate(-.049) scale(.001)"
         d="M378 643 129 254h249v389zm-26 86h124V254h104v-82H476V0h-98v172H49v95l303 462z"
         id="path5879" />
    </symbol>
    <use
       xlink:href="#f"
       transform="matrix(10 0 0 -10 297.536 281.578)"
       id="use5882" />
    <use
       xlink:href="#b"
       transform="matrix(10 0 0 -10 304.066 281.708)"
       id="use5884" />
    <symbol
       id="g">
      <path
         transform="translate(.002) scale(.001)"
         d="M-2 729h616v-83H355V0h-99v646H-2v83z"
         id="path5886" />
    </symbol>
    <symbol
       id="h">
      <path
         transform="translate(-.094) scale(.001)"
         d="M94 547h90V0H94v547zm0 213h90V646H94v114z"
         id="path5889" />
    </symbol>
    <symbol
       id="i">
      <path
         transform="translate(-.091) scale(.001)"
         d="M520 442c22 40 49 69 80 89 31 19 68 29 111 29 56 0 100-20 131-60s47-97 47-170V0h-90v327c0 52-10 91-28 117-19 25-47 38-85 38-47 0-84-16-111-47s-40-73-40-126V0h-90v327c0 52-10 91-28 117-19 25-48 38-86 38-46 0-83-16-110-47s-40-73-40-126V0H91v547h90v-85c20 33 45 58 74 74 28 16 62 24 102 24s73-10 101-30 48-50 62-88z"
         id="path5892" />
    </symbol>
    <symbol
       id="j">
      <path
         transform="matrix(.001 0 0 .001 -.055 .013)"
         d="M562 296v-44H149c4-62 22-110 56-142 33-32 79-48 139-48 34 0 68 4 100 12s65 21 97 39V28c-32-14-65-25-99-31s-69-10-103-10c-88 0-157 25-208 75S55 181 55 268c0 89 24 160 72 213 48 52 114 79 196 79 74 0 132-24 175-71 42-48 64-112 64-193zm-90 26c-1 49-15 88-41 118-27 29-63 44-107 44-50 0-90-15-120-43s-48-68-52-119h320z"
         id="path5895" />
    </symbol>
    <symbol
       id="l">
      <path
         transform="matrix(.001 0 0 .001 -.086 .131)"
         d="M86 760h207v-70H176V-61h117v-70H86v891z"
         id="path5898" />
    </symbol>
    <symbol
       id="m">
      <path
         transform="matrix(.001 0 0 .001 -.054 .013)"
         d="M443 531v-85c-26 12-52 22-79 29-28 6-56 10-85 10-45 0-79-7-101-21s-33-34-33-61c0-21 8-37 24-49s48-24 96-34l31-7c64-14 109-34 136-58 26-25 40-60 40-104 0-51-20-91-60-120-40-30-96-44-166-44-30 0-60 3-92 8S89 8 54 20v93c33-18 66-31 98-39 32-9 64-13 96-13 42 0 75 7 98 21 22 14 34 35 34 62 0 24-9 43-25 56s-52 26-108 38l-31 7c-56 12-97 30-121 54-25 24-37 57-37 100 0 51 18 91 54 119s88 42 156 42c33 0 64-3 94-8 29-5 56-12 81-21z"
         id="path5901" />
    </symbol>
    <symbol
       id="n">
      <path
         transform="matrix(.001 0 0 .001 -.097 .131)"
         d="M304 760v-891H97v70h117v751H97v70h207z"
         id="path5904" />
    </symbol>
    <use
       xlink:href="#g"
       transform="matrix(10 0 0 -10 152.757 295.25)"
       id="use5907" />
    <use
       xlink:href="#h"
       transform="matrix(10 0 0 -10 159.53 295.25)"
       id="use5909" />
    <use
       xlink:href="#i"
       transform="matrix(10 0 0 -10 162.28 295.25)"
       id="use5911" />
    <use
       xlink:href="#j"
       transform="matrix(10 0 0 -10 171.66 295.38)"
       id="use5913" />
    <use
       xlink:href="#k"
       transform="matrix(10 0 0 -10 177.26 295.25)"
       id="use5915" />
    <use
       xlink:href="#l"
       transform="matrix(10 0 0 -10 181.3 296.56)"
       id="use5917" />
    <use
       xlink:href="#m"
       transform="matrix(10 0 0 -10 184.88 295.38)"
       id="use5919" />
    <use
       xlink:href="#n"
       transform="matrix(10 0 0 -10 190.52 296.56)"
       id="use5921" />
    <path
       stroke-width=".8"
       stroke-linejoin="round"
       fill="none"
       stroke="#000"
       d="M40.104 264.332h-3.5"
       id="path5923" />
    <symbol
       id="o">
      <path
         transform="translate(-.082) scale(.001)"
         d="M82 729h469v-42L286 0H183l249 646H82v83z"
         id="path5925" />
    </symbol>
    <use
       xlink:href="#o"
       transform="matrix(10 0 0 -10 21.205 268.129)"
       id="use5928" />
    <use
       xlink:href="#b"
       transform="matrix(10 0 0 -10 27.405 268.259)"
       id="use5930" />
    <path
       stroke-width=".8"
       stroke-linejoin="round"
       fill="none"
       stroke="#000"
       d="M40.104 221.465h-3.5"
       id="path5932" />
    <symbol
       id="p">
      <path
         transform="matrix(.001 0 0 .001 -.068 .013)"
         d="M318 346c-47 0-84-13-111-38s-40-59-40-103 13-79 40-104 64-37 111-37c46 0 83 12 110 38 27 25 41 59 41 103s-14 78-40 103c-27 25-64 38-111 38zm-99 42c-42 10-75 30-99 59s-35 64-35 106c0 58 20 104 62 138 41 34 98 51 171 51 72 0 129-17 171-51 41-34 62-80 62-138 0-42-12-77-36-106s-56-49-98-59c47-11 84-33 111-65 26-32 40-72 40-118 0-71-22-125-65-162-44-38-106-56-186-56S175 5 132 43c-43 37-64 91-64 162 0 46 13 86 40 118 26 32 63 54 111 65zm-36 156c0-38 11-68 35-89s57-31 100-31c42 0 75 10 99 31s36 51 36 89-12 67-36 88-57 32-99 32c-43 0-76-11-100-32s-35-50-35-88z"
         id="path5934" />
    </symbol>
    <use
       xlink:href="#p"
       transform="matrix(10 0 0 -10 21.065 225.392)"
       id="use5937" />
    <use
       xlink:href="#b"
       transform="matrix(10 0 0 -10 27.405 225.392)"
       id="use5939" />
    <path
       stroke-width=".8"
       stroke-linejoin="round"
       fill="none"
       stroke="#000"
       d="M40.104 178.598h-3.5"
       id="path5941" />
    <symbol
       id="q">
      <path
         transform="matrix(.001 0 0 .001 -.063 .013)"
         d="M110 15v90c24-12 49-21 75-27 25-6 50-9 75-9 64 0 114 21 148 65s54 110 60 200c-20-28-44-50-72-65-29-15-61-22-96-22-74 0-132 22-174 66S63 417 63 494c0 74 22 134 66 180 44 45 103 68 177 68 84 0 149-33 193-97 44-65 67-159 67-281 0-116-28-207-82-275C429 21 356-13 264-13c-25 0-50 3-75 7-26 4-52 11-79 21zm196 309c44 0 79 15 105 45s39 72 39 125c0 52-13 94-39 124s-61 46-105 46-79-16-105-46-39-72-39-124c0-53 13-95 39-125s61-45 105-45z"
         id="path5943" />
    </symbol>
    <use
       xlink:href="#q"
       transform="matrix(10 0 0 -10 21.015 182.525)"
       id="use5946" />
    <use
       xlink:href="#b"
       transform="matrix(10 0 0 -10 27.405 182.525)"
       id="use5948" />
    <path
       stroke-width=".8"
       stroke-linejoin="round"
       fill="none"
       stroke="#000"
       d="M40.104 135.731h-3.5"
       id="path5950" />
    <use
       xlink:href="#c"
       transform="matrix(10 0 0 -10 15.126 139.528)"
       id="use5952" />
    <use
       xlink:href="#b"
       transform="matrix(10 0 0 -10 21.046 139.658)"
       id="use5954" />
    <use
       xlink:href="#b"
       transform="matrix(10 0 0 -10 27.406 139.658)"
       id="use5956" />
    <path
       stroke-width=".8"
       stroke-linejoin="round"
       fill="none"
       stroke="#000"
       d="M40.104 92.864h-3.5"
       id="path5958" />
    <use
       xlink:href="#c"
       transform="matrix(10 0 0 -10 15.126 96.661)"
       id="use5960" />
    <use
       xlink:href="#c"
       transform="matrix(10 0 0 -10 21.486 96.661)"
       id="use5962" />
    <use
       xlink:href="#b"
       transform="matrix(10 0 0 -10 27.406 96.791)"
       id="use5964" />
    <path
       stroke-width=".8"
       stroke-linejoin="round"
       fill="none"
       stroke="#000"
       d="M40.104 49.997h-3.5"
       id="path5966" />
    <use
       xlink:href="#c"
       transform="matrix(10 0 0 -10 15.126 53.794)"
       id="use5968" />
    <use
       xlink:href="#d"
       transform="matrix(10 0 0 -10 21.116 53.794)"
       id="use5970" />
    <use
       xlink:href="#b"
       transform="matrix(10 0 0 -10 27.406 53.924)"
       id="use5972" />
    <path
       stroke-width=".8"
       stroke-linejoin="round"
       fill="none"
       stroke="#000"
       d="M40.104 7.13h-3.5"
       id="path5974" />
    <use
       xlink:href="#c"
       transform="matrix(10 0 0 -10 15.126 10.927)"
       id="use5976" />
    <use
       xlink:href="#e"
       transform="matrix(10 0 0 -10 21.146 11.057)"
       id="use5978" />
    <use
       xlink:href="#b"
       transform="matrix(10 0 0 -10 27.406 11.057)"
       id="use5980" />
    <symbol
       id="r">
      <path
         transform="matrix(.001 0 0 .001 -.056 .013)"
         d="M394 662c-72 0-129-27-171-80-42-54-63-126-63-218s21-165 63-218c42-54 99-80 171-80 71 0 128 26 170 80 42 53 63 126 63 218s-21 164-63 218c-42 53-99 80-170 80zm0 80c102 0 183-35 245-103 61-68 92-160 92-275 0-116-31-207-92-275C577 21 496-13 394-13 291-13 209 21 148 89c-62 68-92 159-92 275 0 115 30 207 92 275 61 68 143 103 246 103z"
         id="path5982" />
    </symbol>
    <symbol
       id="s">
      <path
         transform="translate(-.091) scale(.001)"
         d="M411 463c-10 6-21 10-33 13-12 2-25 4-39 4-51 0-90-17-117-50-28-33-41-80-41-142V0H91v547h90v-85c18 33 43 58 73 74s67 24 111 24c6 0 13-1 21-1 7-1 15-2 25-4v-92z"
         id="path5985" />
    </symbol>
    <symbol
       id="t">
      <path
         transform="translate(-.027) scale(.001)"
         d="M183 702V547h185v-70H183V180c0-45 6-74 18-86 12-13 37-19 75-19h92V0h-92c-70 0-118 13-144 39s-39 73-39 141v297H27v70h66v155h90z"
         id="path5988" />
    </symbol>
    <symbol
       id="u">
      <path
         transform="translate(-.091) scale(.001)"
         d="M549 330V0h-90v327c0 52-11 90-31 116s-50 39-90 39c-49 0-87-16-115-47s-42-73-42-126V0H91v547h90v-85c21 32 46 57 76 73 29 16 63 25 101 25 62 0 110-20 142-59s49-96 49-171z"
         id="path5991" />
    </symbol>
    <symbol
       id="v">
      <path
         transform="matrix(.001 0 0 .001 -.06 .013)"
         d="M343 275c-73 0-123-9-151-25-28-17-42-45-42-85 0-32 10-58 31-76 21-19 50-28 86-28 50 0 90 17 120 53 30 35 45 82 45 141v20h-89zm179 37V0h-90v83c-21-34-47-58-77-73s-68-23-112-23c-56 0-101 15-134 46s-49 73-49 126c0 61 20 107 62 139 41 31 102 47 184 47h126v9c0 41-14 73-41 96-27 22-65 34-114 34-32 0-62-4-92-12s-58-19-85-33v83c32 12 64 22 95 28s61 10 91 10c79 0 138-21 177-62s59-103 59-186z"
         id="path5994" />
    </symbol>
    <symbol
       id="w">
      <path
         transform="matrix(.001 0 0 .001 -.055 .013)"
         d="M306 484c-48 0-86-19-114-57s-42-89-42-154c0-66 13-117 41-155s66-56 115-56c48 0 86 18 114 56s42 89 42 155c0 64-14 116-42 154s-66 57-114 57zm0 76c78 0 139-26 184-76 44-51 67-121 67-211s-23-160-67-210c-45-51-106-76-184-76-79 0-141 25-185 76-44 50-66 120-66 210s22 160 66 211c44 50 106 76 185 76z"
         id="path5997" />
    </symbol>
    <symbol
       id="x">
      <path
         transform="matrix(.001 0 0 .001 -.095 -.432)"
         d="M250 679c-26 0-48-9-66-27s-27-40-27-66 9-48 27-66 40-26 66-26 48 8 66 26 27 40 27 66-9 48-27 66-40 27-66 27zm0 63c20 0 40-4 60-12 19-8 36-20 50-34 14-15 25-32 33-50 8-19 12-39 12-60 0-44-16-80-46-110s-67-44-110-44c-44 0-81 14-110 44-30 29-44 66-44 110 0 43 15 80 45 110s66 46 110 46z"
         id="path6000" />
    </symbol>
    <use
       xlink:href="#r"
       transform="matrix(0,-10,-10,0,8.078,167.071)"
       id="use6003" />
    <use
       xlink:href="#s"
       transform="matrix(0,-10,-10,0,7.948,158.851)"
       id="use6005" />
    <use
       xlink:href="#h"
       transform="matrix(0,-10,-10,0,7.948,154.711)"
       id="use6007" />
    <use
       xlink:href="#j"
       transform="matrix(0 -10 -10 0 8.078 152.901)"
       id="use6011" />
    <use
       xlink:href="#u"
       transform="matrix(0 -10 -10 0 7.948 146.391)"
       id="use6013" />
    <use
       xlink:href="#t"
       transform="matrix(0 -10 -10 0 7.948 140.691)"
       id="use6015" />
    <use
       xlink:href="#v"
       transform="matrix(0 -10 -10 0 8.078 136.441)"
       id="use6017" />
    <use
       xlink:href="#t"
       transform="matrix(0 -10 -10 0 7.948 130.641)"
       id="use6019" />
    <use
       xlink:href="#h"
       transform="matrix(0 -10 -10 0 7.948 126.051)"
       id="use6021" />
    <use
       xlink:href="#w"
       transform="matrix(0 -10 -10 0 8.078 123.661)"
       id="use6023" />
    <use
       xlink:href="#u"
       transform="matrix(0 -10 -10 0 7.948 117.181)"
       id="use6025" />
    <use
       xlink:href="#k"
       transform="matrix(0 -10 -10 0 7.948 111.751)"
       id="use6027" />
    <use
       xlink:href="#l"
       transform="matrix(0 -10 -10 0 9.258 107.711)"
       id="use6029" />
    <use
       xlink:href="#x"
       transform="matrix(0 -10 -10 0 3.628 103.721)"
       id="use6031" />
    <use
       xlink:href="#n"
       transform="matrix(0 -10 -10 0 9.258 98.701)"
       id="use6033" />
    <clipPath
       id="y">
      <path
         transform="matrix(1 0 0 -1 -63 305)"
         d="M103.104 38.016h266.112v266.112H103.104z"
         id="path6035" />
    </clipPath>
    <g
       clip-path="url(#y)"
       id="g6040">
      <path
         stroke-width="2.5"
         stroke-linecap="square"
         stroke-linejoin="round"
         fill="none"
         stroke="teal"
         d="m52.2 179.504.248-1.507.114.596h.413l.134.324.222-.324.445.686.09-.252.19.393.063-.234.115.164.133-.029.115-.378.26.307.127-.339.172.147.095-.163.14.14.235-.442.127.137.255-.402.114.005.26-.117.115.006.134-.238.14.128.629-.312.133.12.127-.216.26.016.166-.21.089.116.63-.384.133.111.635-.472.16.11.597-.454.108.009.387-.358.388-.065.114-.084.121.104.267-.169.267-.073.108-.083.134.193.254-.257.273.108.242-.074.114.098.146-.173.255.105.108.006.146-.17.235.19.146-.083.248.187.12-.083.255.097.394.011.114.179.261-.081.496.27.133-.085.274.178.171-.085.064.26.133-.17.134.174.127-.084.52.349.115-.17.134.258.114-.17.26.259.395.088.12.086.121-.084.248.172.375.088.14.085.248-.083.254.17.121.001.127.17.134-.169.241.17.165.085.09-.084.279.169.375.169h.235l.127.253.14-.168.311.252h.217l.12.168h.375l.115.251.146-.168.35.336.571.083.083.167.12-.084.535.335h.12l.23.166.266.084.4.166.223.083 1.31.5.222.082.12.084.185-.084.083.167.52.083.249.084.578.167.064-.084.127.168.133-.082.35.166.127-.084.12.168.134-.084.4.166.14-.083.223.167.127-.167.388.337.38-.167.198.166.076-.083.369.167.171-.167.083.166.19-.167.077.167.254-.084.134.168.089-.168.28.167.228-.083.4.085 4.755-.079.07-.084.133.167.254-.167.172.084.089-.084 2.16-.08.242 3.342.496 3.177.273.066.121-.177.388-1.537.502-3.269 3.197-27.137.356-3.09.305-2.026.337-3.173 1.265-11.97.648-7.017.902-11.294.363-5.285.286-3.69 1.131-17.06.458-5.959.292-5.75.896-13.336.388-5.551.394-5.057.343-4.919 1.926-21.696.998-7.77 1.182-5.358.248-.734.235-.736.445-.679.203-.459.566-.495.197.029.381.004.388.402.216.349 1.557 2.01.255.455 1.404 2.513.254.604.63 1.502.756 2.267.756 2.647.509 1.824.775 3.173.91 3.455.228.975.642 2.346 1.017 2.573.127.159.26.558.884 1.21.114.024.26.256 1.139 1.488 1.13 2.114.382.6.14.36.153.067.356.63.762 1.052.28.106.343.42.642.554.133-.068.318.195.318.126 1.189.214.101-.107.108.107.166-.068.235.068.101-.107.267.165.89.04.267.089.795.176.197-.01.14.028.12-.126.28.127.095-.108.14.097.127-.097.235.068.28.058.12-.068.147.087.254-.126.096.165.292-.018 1.1-.078.133.097.267-.068.642-.04 1.131-.076.134.224.266-.253.242.147.14-.136.089.136.426-.107.095.029.248-.097.127-.068.133.097.395-.166.14.069.095-.127.28.069.24-.205.147.205.311-.126.09.107.082-.224.273.195.356-.194 1.913-.048.274-.068.133.058.108-.098.14.059.127-.127.14.127.242-.048.38-.02.122.167.114-.166.14.058.381-.117.134.137.235-.185.248.088.127-.137.14.068.14-.068.228.03.388-.06.381.01.134-.126.114.127.267-.098.248.03.26.068.134-.127.26.147.23-.03.254-.028.127-.04.146.098.267-.097.496.127.146-.196.241.157.255-.03.127-.068.235.098.14-.137.127.235.229-.235.203.235.057-.137.248.03.153.038.12-.136.121.205.134-.166.108.137.394-.059.394.098.108-.107.146.107.108-.137.248.205.14-.117.502.119.165.03.095-.138.14.069.127-.138.23.099.266-.07.146.099.127-.206.37.167.24-.137.268.098.108-.069.133.127.14-.127.108.059.14-.069.267.069h.286l.146.127.21-.068.222-.059.267.098.4-.137.236.196.133-.088.381.069.318.02.077.147.108-.166.267.166.26-.137.102.098.388-.206.38.098.376-.04.152.07.096-.167.133.206.146-.167.369.03.7.108.063-.069.413.119.299-.098.082.127.127-.069.102.098.273-.087.255.068.629-.108.095-.068.159.206.241-.196.261.098.381-.079.267.109.134-.109.248.099.101-.167.134.167.127-.098.4.058.09-.029.196.098.077-.098.4.069.095-.098.261.127h.267l.114.04.33-.049.172.04.14-.069.521.098.147-.147.28.167.444-.079.54.129.096-.236.267.256.133-.226.121.128.508-.118.255.03 1.017-.128 5.466.02.266.099.096-.138.286.207.235-.177.381.069.407-.04.09.07.126-.128.127.098.134-.069.14.069.26-.04.305.099.051-.167.826.158.191-3.54.381-2.244.267.08.26.627.497 2.318 1.582 11.484.197 2.046 2.187 17.406.642 5.753 1.01 9.282.362 3.836 1.303 14.157.731 10.66.56 7.515.197 4.205 3.05 51.254.4 6.254 1.653 26.882.267 3.7 1.119 14.517.883 8.484 1.405 9.589.254.322.14.311.102-.115.26.132.515-.767 1.29-2.612.242-.476.4-.583.235-.33.522-.86.623-1.124.14-.132.476-1.173.14-.178.89-2.943.909-3.868.985-5.715.527-3.052 2.434-14.189.687-3.048.94-4.068 1.259-4.156.19-.276.21-.742.242-.436.527-1.023.242-.25.362-.594.267-.083.4-.686.128.08.229-.34.158-.005.108-.263.128-.011.362-.357.534-.162.375-.01.146.25.102-.184.413.24.095.244.267.073.267.327.242.328.133.083.133.333.191.078.178.41.127.237.14.006.254.487.757 1.322.114-.006.369.74.133.026.776 1.196.14.166.228.422.756 1.1.388.596.305.34.216.421.14.083.865 1.275h.14l.374.58.127.075.14.257.185.066.21.422.349.339 2.307 2.404h.178l.725.778.305-.018.19.155.369.275.146-.092.102.183.407.054.235.165.642.11.14.155.114-.164.273.155h.744l.26.154.109-.082.254.073.14-.092.375.101 2.815-.038.108-.082.254.073.128-.01.133-.135.388.1.235-.116.12.092.134-.145.14.164.146-.247.26.083.121-.01.096-.165.267.102.133-.257.23.184.152-.257.362.083.4-.146.134.073.362-.156.134.165.146-.228.082.063.547.02.28-.093.59.083.14-.257.382.092.496-.019.743-.026.14.092.12-.083.122.165.273-.184.883-.018.127-.102.134.102.12-.083.147.092.12-.073.23.12.266-.101.14.155.229-.146.153.101.152-.174.248.156.114-.166.4.166.23-.102.654.203.127-.257.236.165.12-.165.146.248.102-.175.14.175.14-.102.114.102.134-.175.14.238.222-.092.14.102.254-.092 2.314.444.101-.184.274.082.896-.028.12-.092.108.156.115-.074.248.156 1.557.092.362.146.185-.155.203.165.14-.063.108.092.267-.083.368.083.897.092.14.083.235-.092.26.082.127.083.14-.165.12.165.268-.083.286.073.082.083.121-.156.14.165.095-.101.521.082.134.092.241-.184.134.175.292-.083.235.146.166-.073.076.185.248-.117.324.102.216-.092.115.063.305-.054.705.05.102-.093.14.073.375-.112h.381l.184-.102.21.175.127-.185.26.092.636-.02.496-.091.134.165.114-.083.4.156.127-.083.363.083 1.423.048.242.064.375-.073.133.082.394-.082.102.082.273-.092.84.083.063-.137.235.166.108-.093.14.093.19-.102.07.185.242-.166.14.093.133-.054.248.083.121-.092.14.082.108-.102.14.122.14-.102.228.155.14-.092.26.092.242-.102.121.073.267-.073.248.132h.108l.152-.112.121.155.274-.063h.87l.134-.083.101.195.14-.175.121.083.267-.063.114.063.286-.083.356-.093.134.195.171-.175.102.185.248-.102.159.01.089.155.12-.092.134.083.14-.083.229.073.133-.073.127.063.127-.166.128.176.133-.103.133.103.134-.073.222.102.642.176.134-.186.146.196.12-.093.102.093.414-.166.108.156.4-.176"
         id="path6038" />
    </g>
    <clipPath
       id="z">
      <path
         transform="matrix(1 0 0 -1 -63 305)"
         d="M103.104 38.016h266.112v266.112H103.104z"
         id="path6042" />
    </clipPath>
    <g
       clip-path="url(#z)"
       id="g6047">
      <path
         stroke-width="2.5"
         stroke-dasharray="9.25,4"
         stroke-linejoin="round"
         fill="none"
         stroke="red"
         d="m52.2 181.043 17.294.123 22.245.062.26-131.23h95.592l.235 160.786 2.174.93 2.142.913 2.32.88 3.425 1.061 2.65.528 2.689.235 2.402-.01 4.087-.255 6.076-.278 3.82.07 4.83.309 14.504.839 23.784.962 10.576.478 12.273.596 8.542.444"
         id="path6045" />
    </g>
    <path
       stroke-width=".8"
       stroke-linecap="square"
       stroke-miterlimit="10"
       fill="none"
       stroke="#000"
       d="M40.104 266.984V.872M306.216 266.984V.872M40.104 266.984h266.112M40.104.872h266.112"
       id="path6049" />
    <path
       d="M145.857 38.216h153.359c1.333 0 2-.667 2-2V7.872c0-1.333-.667-2-2-2h-153.36c-1.333 0-2 .667-2 2v28.344c0 1.333.667 2 2 2z"
       fill="#fff"
       fill-opacity=".8"
       id="path6051" />
    <path
       stroke-miterlimit="10"
       fill="none"
       stroke="#d5d6d5"
       stroke-opacity=".8"
       d="M145.857 38.216h153.359c1.333 0 2-.667 2-2V7.872c0-1.333-.667-2-2-2h-153.36c-1.333 0-2 .667-2 2v28.344c0 1.333.667 2 2 2z"
       id="path6053" />
    <path
       stroke-width="2.5"
       stroke-linecap="square"
       stroke-linejoin="round"
       fill="none"
       stroke="teal"
       d="M147.857 13.966h20"
       id="path6055" />
    <symbol
       id="A">
      <path
         transform="matrix(.001 0 0 .001 -.056 .013)"
         d="M644 673V569c-34 30-69 53-107 69-38 15-77 23-119 23-84 0-148-26-192-77s-66-124-66-220 22-170 66-221 108-76 192-76c42 0 81 7 119 23 38 15 73 38 107 69V56c-35-24-72-41-110-52s-79-17-122-17C302-13 215 20 151 87S56 246 56 364c0 117 31 209 95 277 64 67 151 101 261 101 44 0 85-6 123-17 38-12 75-29 109-52z"
         id="path6057" />
    </symbol>
    <symbol
       id="B">
      <path
         transform="matrix(.001 0 0 .001 -.085 .013)"
         d="M85 216v331h90V219c0-52 10-90 30-116s50-39 91-39c48 0 87 15 115 46s42 73 42 127v310h90V0h-90v84c-22-34-48-58-76-74-29-15-62-23-100-23-63 0-111 19-143 58-33 38-49 95-49 171zm226 344z"
         id="path6060" />
    </symbol>
    <symbol
       id="C">
      <path
         transform="matrix(.001 0 0 .001 -.086 .131)"
         d="M310 759c-44-76-76-150-97-223-22-73-32-147-32-222 0-76 10-150 32-223 21-74 53-147 97-222h-78C183-54 146 20 122 94S86 241 86 314c0 72 12 145 36 219s60 149 110 226h78z"
         id="path6063" />
    </symbol>
    <symbol
       id="D">
      <path
         transform="matrix(.001 0 0 .001 -.066 .013)"
         d="M535 705v-96c-38 18-73 31-106 40-34 8-66 13-96 13-54 0-96-11-125-31-29-21-43-51-43-89 0-32 9-57 29-73 19-17 56-30 110-40l60-12c73-14 127-39 162-74 35-36 53-83 53-142 0-71-24-124-71-160-48-36-117-54-208-54-35 0-72 4-111 11S110 16 69 32v102c40-23 79-40 117-51 38-12 76-17 114-17 56 0 99 11 130 33 30 22 46 53 46 95 0 36-11 64-33 84s-58 35-108 45l-60 12c-74 14-127 37-160 69-33 31-49 74-49 130 0 64 22 115 68 152 45 37 108 56 188 56 34 0 68-3 104-9 35-6 71-16 109-28z"
         id="path6066" />
    </symbol>
    <symbol
       id="E">
      <path
         transform="matrix(.001 0 0 .001 -.08 .131)"
         d="M80 759h78c48-77 85-152 109-226s37-147 37-219c0-73-13-146-37-220S206-54 158-131H80c43 75 75 148 97 222 21 73 32 147 32 223 0 75-11 149-32 222-22 73-54 147-97 223z"
         id="path6069" />
    </symbol>
    <use
       xlink:href="#A"
       transform="matrix(10 0 0 -10 176.417 17.596)"
       id="use6072" />
    <use
       xlink:href="#B"
       transform="matrix(10 0 0 -10 183.687 17.596)"
       id="use6074" />
    <use
       xlink:href="#s"
       transform="matrix(10 0 0 -10 190.087 17.466)"
       id="use6076" />
    <use
       xlink:href="#s"
       transform="matrix(10 0 0 -10 194.025 17.466)"
       id="use6078" />
    <use
       xlink:href="#j"
       transform="matrix(10 0 0 -10 197.556 17.596)"
       id="use6080" />
    <use
       xlink:href="#u"
       transform="matrix(10 0 0 -10 204.066 17.466)"
       id="use6082" />
    <use
       xlink:href="#t"
       transform="matrix(10 0 0 -10 209.766 17.466)"
       id="use6084" />
    <use
       xlink:href="#k"
       transform="matrix(10 0 0 -10 213.416 17.466)"
       id="use6086" />
    <use
       xlink:href="#w"
       transform="matrix(10 0 0 -10 217.146 17.596)"
       id="use6088" />
    <use
       xlink:href="#s"
       transform="matrix(10 0 0 -10 223.626 17.466)"
       id="use6090" />
    <use
       xlink:href="#h"
       transform="matrix(10 0 0 -10 227.766 17.466)"
       id="use6092" />
    <use
       xlink:href="#j"
       transform="matrix(10 0 0 -10 230.156 17.596)"
       id="use6094" />
    <use
       xlink:href="#u"
       transform="matrix(10 0 0 -10 236.666 17.466)"
       id="use6096" />
    <use
       xlink:href="#t"
       transform="matrix(10 0 0 -10 242.366 17.466)"
       id="use6098" />
    <use
       xlink:href="#v"
       transform="matrix(10 0 0 -10 246.616 17.596)"
       id="use6100" />
    <use
       xlink:href="#t"
       transform="matrix(10 0 0 -10 252.416 17.466)"
       id="use6102" />
    <use
       xlink:href="#h"
       transform="matrix(10 0 0 -10 257.006 17.466)"
       id="use6104" />
    <use
       xlink:href="#w"
       transform="matrix(10 0 0 -10 259.396 17.596)"
       id="use6106" />
    <use
       xlink:href="#u"
       transform="matrix(10 0 0 -10 265.876 17.466)"
       id="use6108" />
    <use
       xlink:href="#k"
       transform="matrix(10 0 0 -10 271.306 17.466)"
       id="use6110" />
    <use
       xlink:href="#C"
       transform="matrix(10 0 0 -10 275.346 18.776)"
       id="use6112" />
    <use
       xlink:href="#r"
       transform="matrix(10 0 0 -10 278.946 17.596)"
       id="use6114" />
    <use
       xlink:href="#D"
       transform="matrix(10 0 0 -10 286.916 17.596)"
       id="use6116" />
    <use
       xlink:href="#E"
       transform="matrix(10 0 0 -10 293.406 18.776)"
       id="use6118" />
    <path
       stroke-width="2.5"
       stroke-dasharray="9.25,4"
       stroke-linejoin="round"
       fill="none"
       stroke="red"
       d="M147.857 28.638h20"
       id="path6120" />
    <symbol
       id="F">
      <path
         transform="translate(-.098) scale(.001)"
         d="M197 648V81h119c100 0 174 22 221 68 46 46 70 118 70 216s-24 169-70 215c-47 45-121 68-221 68H197zm-99 81h203c141 0 245-30 311-88 66-59 99-151 99-276 0-126-34-218-100-277S441 0 301 0H98v729z"
         id="path6122" />
    </symbol>
    <symbol
       id="G">
      <path
         transform="matrix(.001 0 0 .001 -.055 .013)"
         d="M454 464v296h90V0h-90v82c-19-33-43-57-72-72s-63-23-103-23c-66 0-120 26-162 78S55 187 55 273s20 155 62 208c42 52 96 79 162 79 40 0 74-8 103-24s53-40 72-72zM148 273c0-66 13-118 40-156s64-56 112-56 85 18 113 56c27 38 41 90 41 156s-14 117-41 155c-28 38-65 57-113 57s-85-19-112-57-40-89-40-155z"
         id="path6125" />
    </symbol>
    <use
       xlink:href="#F"
       transform="matrix(10 0 0 -10 176.837 32.138)"
       id="use6128" />
    <use
       xlink:href="#j"
       transform="matrix(10 0 0 -10 184.107 32.268)"
       id="use6130" />
    <use
       xlink:href="#m"
       transform="matrix(10 0 0 -10 190.247 32.268)"
       id="use6132" />
    <use
       xlink:href="#h"
       transform="matrix(10 0 0 -10 195.857 32.138)"
       id="use6134" />
    <use
       xlink:href="#s"
       transform="matrix(10 0 0 -10 198.607 32.138)"
       id="use6136" />
    <use
       xlink:href="#j"
       transform="matrix(10 0 0 -10 202.138 32.268)"
       id="use6138" />
    <use
       xlink:href="#G"
       transform="matrix(10 0 0 -10 208.288 32.268)"
       id="use6140" />
    <use
       xlink:href="#k"
       transform="matrix(10 0 0 -10 214.088 32.138)"
       id="use6142" />
    <use
       xlink:href="#w"
       transform="matrix(10 0 0 -10 217.818 32.268)"
       id="use6144" />
    <use
       xlink:href="#s"
       transform="matrix(10 0 0 -10 224.298 32.138)"
       id="use6146" />
    <use
       xlink:href="#h"
       transform="matrix(10 0 0 -10 228.438 32.138)"
       id="use6148" />
    <use
       xlink:href="#j"
       transform="matrix(10 0 0 -10 230.828 32.268)"
       id="use6150" />
    <use
       xlink:href="#u"
       transform="matrix(10 0 0 -10 237.338 32.138)"
       id="use6152" />
    <use
       xlink:href="#t"
       transform="matrix(10 0 0 -10 243.038 32.138)"
       id="use6154" />
    <use
       xlink:href="#v"
       transform="matrix(10 0 0 -10 247.288 32.268)"
       id="use6156" />
    <use
       xlink:href="#t"
       transform="matrix(10 0 0 -10 253.088 32.138)"
       id="use6158" />
    <use
       xlink:href="#h"
       transform="matrix(10 0 0 -10 257.678 32.138)"
       id="use6160" />
    <use
       xlink:href="#w"
       transform="matrix(10 0 0 -10 260.068 32.268)"
       id="use6162" />
    <use
       xlink:href="#u"
       transform="matrix(10 0 0 -10 266.548 32.138)"
       id="use6164" />
    <use
       xlink:href="#k"
       transform="matrix(10 0 0 -10 271.978 32.138)"
       id="use6166" />
    <use
       xlink:href="#C"
       transform="matrix(10 0 0 -10 276.018 33.448)"
       id="use6168" />
    <use
       xlink:href="#r"
       transform="matrix(10 0 0 -10 279.618 32.268)"
       id="use6170" />
    <use
       xlink:href="#D"
       transform="matrix(10 0 0 -10 287.588 32.268)"
       id="use6172" />
    <use
       xlink:href="#E"
       transform="matrix(10 0 0 -10 294.078 33.448)"
       id="use6174" />
  </g>
</svg>
