<svg xmlns="http://www.w3.org/2000/svg" xmlns:xlink="http://www.w3.org/1999/xlink" width="614.4" height="460.8" viewBox="0 0 460.8 345.6"><path d="M0 345.6h460.8V0H0z" fill="#fff"/><path d="M103.104 307.584h266.112V41.472H103.104z" fill="#fff"/><path stroke-width=".8" stroke-linejoin="round" fill="none" stroke="#000" d="M112.175 307.584v3.5"/><symbol id="a"><path transform="matrix(.001 0 0 .001 -.066 .013)" d="M318 664c-51 0-89-25-115-75s-38-125-38-225 12-175 38-225 64-75 115-75 89 25 115 75c25 50 38 125 38 225s-13 175-38 225c-26 50-64 75-115 75zm0 78c81 0 143-33 187-97 43-65 65-159 65-281 0-123-22-217-65-281-44-64-106-96-188-96S173 19 130 83 66 241 66 364c0 122 21 216 64 281 43 64 106 97 188 97z"/></symbol><use xlink:href="#a" transform="matrix(10 0 0 -10 109.655 322.308)"/><path stroke-width=".8" stroke-linejoin="round" fill="none" stroke="#000" d="M175.732 307.584v3.5"/><symbol id="b"><path transform="translate(-.11) scale(.001)" d="M124 83h161v556l-175-35v90l174 35h99V83h161V0H124v83z"/></symbol><use xlink:href="#b" transform="matrix(10 0 0 -10 170.473 322.178)"/><use xlink:href="#a" transform="matrix(10 0 0 -10 176.393 322.308)"/><path stroke-width=".8" stroke-linejoin="round" fill="none" stroke="#000" d="M239.29 307.584v3.5"/><symbol id="c"><path transform="translate(-.073) scale(.001)" d="M192 83h344V0H73v83c37 38 88 90 153 156 64 65 105 107 122 126 32 35 54 65 66 90 12 24 19 49 19 73 0 38-14 70-41 94s-62 37-106 37c-31 0-64-6-98-16-34-11-71-27-110-49v100c40 16 77 28 111 36s66 12 95 12c75 0 135-19 180-57s68-88 68-151c0-30-6-59-17-85-11-27-31-59-61-95-8-10-34-37-78-82S271 164 192 83z"/></symbol><use xlink:href="#c" transform="matrix(10 0 0 -10 233.66 322.178)"/><use xlink:href="#a" transform="matrix(10 0 0 -10 239.95 322.308)"/><path stroke-width=".8" stroke-linejoin="round" fill="none" stroke="#000" d="M302.848 307.584v3.5"/><symbol id="d"><path transform="matrix(.001 0 0 .001 -.076 .013)" d="M406 393c47-10 84-31 110-63s40-72 40-118c0-72-25-128-74-167-50-39-120-58-211-58-31 0-63 3-95 9-32 5-66 14-100 26v95c27-16 57-28 90-36 32-8 66-12 102-12 62 0 109 12 141 36s49 60 49 107c0 42-15 76-45 100s-72 37-126 37h-85v81h89c48 0 85 9 111 29 26 19 39 47 39 84s-14 66-40 86c-27 20-65 30-114 30-27 0-56-3-87-9s-65-15-102-27v88c37 10 72 18 105 23 32 5 63 8 93 8 74 0 133-17 177-51s66-80 66-138c0-40-12-74-35-102s-56-48-98-58z"/></symbol><use xlink:href="#d" transform="matrix(10 0 0 -10 297.249 322.308)"/><use xlink:href="#a" transform="matrix(10 0 0 -10 303.509 322.308)"/><path stroke-width=".8" stroke-linejoin="round" fill="none" stroke="#000" d="M366.406 307.584v3.5"/><symbol id="e"><path transform="translate(-.049) scale(.001)" d="M378 643 129 254h249v389zm-26 86h124V254h104v-82H476V0h-98v172H49v95l303 462z"/></symbol><use xlink:href="#e" transform="matrix(10 0 0 -10 360.536 322.178)"/><use xlink:href="#a" transform="matrix(10 0 0 -10 367.066 322.308)"/><symbol id="f"><path transform="translate(.002) scale(.001)" d="M-2 729h616v-83H355V0h-99v646H-2v83z"/></symbol><symbol id="g"><path transform="translate(-.094) scale(.001)" d="M94 547h90V0H94v547zm0 213h90V646H94v114z"/></symbol><symbol id="h"><path transform="translate(-.091) scale(.001)" d="M520 442c22 40 49 69 80 89 31 19 68 29 111 29 56 0 100-20 131-60s47-97 47-170V0h-90v327c0 52-10 91-28 117-19 25-47 38-85 38-47 0-84-16-111-47s-40-73-40-126V0h-90v327c0 52-10 91-28 117-19 25-48 38-86 38-46 0-83-16-110-47s-40-73-40-126V0H91v547h90v-85c20 33 45 58 74 74 28 16 62 24 102 24s73-10 101-30 48-50 62-88z"/></symbol><symbol id="i"><path transform="matrix(.001 0 0 .001 -.055 .013)" d="M562 296v-44H149c4-62 22-110 56-142 33-32 79-48 139-48 34 0 68 4 100 12s65 21 97 39V28c-32-14-65-25-99-31s-69-10-103-10c-88 0-157 25-208 75S55 181 55 268c0 89 24 160 72 213 48 52 114 79 196 79 74 0 132-24 175-71 42-48 64-112 64-193zm-90 26c-1 49-15 88-41 118-27 29-63 44-107 44-50 0-90-15-120-43s-48-68-52-119h320z"/></symbol><symbol id="k"><path transform="matrix(.001 0 0 .001 -.086 .131)" d="M86 760h207v-70H176V-61h117v-70H86v891z"/></symbol><symbol id="l"><path transform="matrix(.001 0 0 .001 -.054 .013)" d="M443 531v-85c-26 12-52 22-79 29-28 6-56 10-85 10-45 0-79-7-101-21s-33-34-33-61c0-21 8-37 24-49s48-24 96-34l31-7c64-14 109-34 136-58 26-25 40-60 40-104 0-51-20-91-60-120-40-30-96-44-166-44-30 0-60 3-92 8S89 8 54 20v93c33-18 66-31 98-39 32-9 64-13 96-13 42 0 75 7 98 21 22 14 34 35 34 62 0 24-9 43-25 56s-52 26-108 38l-31 7c-56 12-97 30-121 54-25 24-37 57-37 100 0 51 18 91 54 119s88 42 156 42c33 0 64-3 94-8 29-5 56-12 81-21z"/></symbol><symbol id="m"><path transform="matrix(.001 0 0 .001 -.097 .131)" d="M304 760v-891H97v70h117v751H97v70h207z"/></symbol><use xlink:href="#f" transform="matrix(10 0 0 -10 215.757 335.85)"/><use xlink:href="#g" transform="matrix(10 0 0 -10 222.53 335.85)"/><use xlink:href="#h" transform="matrix(10 0 0 -10 225.28 335.85)"/><use xlink:href="#i" transform="matrix(10 0 0 -10 234.66 335.98)"/><use xlink:href="#j" transform="matrix(10 0 0 -10 240.26 335.85)"/><use xlink:href="#k" transform="matrix(10 0 0 -10 244.3 337.16)"/><use xlink:href="#l" transform="matrix(10 0 0 -10 247.88 335.98)"/><use xlink:href="#m" transform="matrix(10 0 0 -10 253.52 337.16)"/><path stroke-width=".8" stroke-linejoin="round" fill="none" stroke="#000" d="M103.104 276.929h-3.5"/><symbol id="n"><path transform="translate(-.107) scale(.001)" d="M107 124h103V0H107v124z"/></symbol><symbol id="o"><path transform="matrix(.001 0 0 .001 -.077 .013)" d="M108 729h387v-83H198V467c14 5 29 9 43 11s29 4 43 4c81 0 145-23 193-67 48-45 72-105 72-181 0-79-25-140-74-183S357-13 269-13c-31 0-62 3-94 7-32 5-64 12-98 23v99c29-16 59-28 91-36 31-8 64-11 99-11 56 0 101 14 134 44 32 30 49 70 49 121 0 50-17 90-49 120-33 30-78 45-134 45-26 0-53-3-79-9s-53-15-80-27v366z"/></symbol><use xlink:href="#a" transform="matrix(10 0 0 -10 80.858 280.856)"/><use xlink:href="#n" transform="matrix(10 0 0 -10 87.628 280.726)"/><use xlink:href="#o" transform="matrix(10 0 0 -10 90.508 280.856)"/><path stroke-width=".8" stroke-linejoin="round" fill="none" stroke="#000" d="M103.104 235.114h-3.5"/><use xlink:href="#b" transform="matrix(10 0 0 -10 81.298 238.91)"/><use xlink:href="#n" transform="matrix(10 0 0 -10 87.628 238.91)"/><use xlink:href="#a" transform="matrix(10 0 0 -10 90.398 239.04)"/><path stroke-width=".8" stroke-linejoin="round" fill="none" stroke="#000" d="M103.104 193.299h-3.5"/><use xlink:href="#b" transform="matrix(10 0 0 -10 81.298 197.096)"/><use xlink:href="#n" transform="matrix(10 0 0 -10 87.628 197.096)"/><use xlink:href="#o" transform="matrix(10 0 0 -10 90.508 197.226)"/><path stroke-width=".8" stroke-linejoin="round" fill="none" stroke="#000" d="M103.104 151.484h-3.5"/><use xlink:href="#c" transform="matrix(10 0 0 -10 80.928 155.28)"/><use xlink:href="#n" transform="matrix(10 0 0 -10 87.628 155.28)"/><use xlink:href="#a" transform="matrix(10 0 0 -10 90.398 155.41)"/><path stroke-width=".8" stroke-linejoin="round" fill="none" stroke="#000" d="M103.104 109.669h-3.5"/><use xlink:href="#c" transform="matrix(10 0 0 -10 80.928 113.466)"/><use xlink:href="#n" transform="matrix(10 0 0 -10 87.628 113.466)"/><use xlink:href="#o" transform="matrix(10 0 0 -10 90.508 113.596)"/><path stroke-width=".8" stroke-linejoin="round" fill="none" stroke="#000" d="M103.104 67.854h-3.5"/><use xlink:href="#d" transform="matrix(10 0 0 -10 80.958 71.78)"/><use xlink:href="#n" transform="matrix(10 0 0 -10 87.628 71.65)"/><use xlink:href="#a" transform="matrix(10 0 0 -10 90.398 71.78)"/><symbol id="p"><path transform="matrix(.001 0 0 .001 -.066 .013)" d="M535 705v-96c-38 18-73 31-106 40-34 8-66 13-96 13-54 0-96-11-125-31-29-21-43-51-43-89 0-32 9-57 29-73 19-17 56-30 110-40l60-12c73-14 127-39 162-74 35-36 53-83 53-142 0-71-24-124-71-160-48-36-117-54-208-54-35 0-72 4-111 11S110 16 69 32v102c40-23 79-40 117-51 38-12 76-17 114-17 56 0 99 11 130 33 30 22 46 53 46 95 0 36-11 64-33 84s-58 35-108 45l-60 12c-74 14-127 37-160 69-33 31-49 74-49 130 0 64 22 115 68 152 45 37 108 56 188 56 34 0 68-3 104-9 35-6 71-16 109-28z"/></symbol><symbol id="q"><path transform="matrix(.001 0 0 .001 -.091 .207)" d="M181 82v-289H91v754h90v-83c18 32 42 56 71 72s64 24 104 24c66 0 120-27 162-79 41-53 62-122 62-208s-21-156-62-208c-42-52-96-78-162-78-40 0-75 8-104 23s-53 39-71 72zm306 191c0 66-14 117-41 155-28 38-65 57-112 57-48 0-85-19-112-57-28-38-41-89-41-155s13-118 41-156c27-38 64-56 112-56 47 0 84 18 112 56 27 38 41 90 41 156z"/></symbol><symbol id="r"><path transform="matrix(.001 0 0 .001 -.055 .013)" d="M454 464v296h90V0h-90v82c-19-33-43-57-72-72s-63-23-103-23c-66 0-120 26-162 78S55 187 55 273s20 155 62 208c42 52 96 79 162 79 40 0 74-8 103-24s53-40 72-72zM148 273c0-66 13-118 40-156s64-56 112-56 85 18 113 56c27 38 41 90 41 156s-14 117-41 155c-28 38-65 57-113 57s-85-19-112-57-40-89-40-155z"/></symbol><symbol id="s"><path transform="matrix(.001 0 0 .001 0 .092)" d="M254 729h83L83-92H0l254 821z"/></symbol><use xlink:href="#p" transform="matrix(0 -10 -10 0 74.25 204.212)"/><use xlink:href="#q" transform="matrix(0 -10 -10 0 76.19 197.612)"/><use xlink:href="#i" transform="matrix(0 -10 -10 0 74.25 191.622)"/><use xlink:href="#i" transform="matrix(0 -10 -10 0 74.25 185.472)"/><use xlink:href="#r" transform="matrix(0 -10 -10 0 74.25 179.322)"/><use xlink:href="#j" transform="matrix(0 -10 -10 0 74.12 173.522)"/><use xlink:href="#k" transform="matrix(0 -10 -10 0 75.43 169.482)"/><use xlink:href="#h" transform="matrix(0 -10 -10 0 74.12 165.532)"/><use xlink:href="#s" transform="matrix(0 -10 -10 0 75.04 156.702)"/><use xlink:href="#l" transform="matrix(0 -10 -10 0 74.25 152.792)"/><use xlink:href="#m" transform="matrix(0 -10 -10 0 75.43 147.152)"/><clipPath id="t"><path transform="matrix(1 0 0 -1 0 345.6)" d="M103.104 38.016h266.112v266.112H103.104z"/></clipPath><g clip-path="url(#t)"><path stroke-width="2.5" stroke-linecap="square" stroke-linejoin="round" fill="none" stroke="teal" d="m115.2 295.488 1.131-53.383.28-10.848.445-14.857.178-9.447 1.042-32.037 1.24-29.905 1.163-18.518.877-10.242 1.163-9.737 2.765-19.604.909-4.611.635-2.771 1.271-3.877.75-1.526.445-.667.197-.445 2.803-3.814 2.034-2.099.235-.124.648-.353 1.824-.7.204-.095.883-.256 1.271-.384.388.032.394-.16.49-.096.788-.033.534.032h.356l.26.19 1.748.026.394.161.248-.03.896-.101.655.066.292-.096.598.099.241.029.388-.032h.508l2.028.066.368.061h.394l.248.16.502.19.903-.062 1.417.096.286.222h.197l.26-.06.109-.624.273.667.248.033.267-.557.49-1.315.756-2.602 1.017-2.903.515-.812.12-.184.757-.025.394.463.934 1.97.337 1.281.648 2.624.49 1.846.527 1.877.521 1.861.731 2.81 1.678 4.872.458.777.292.832.706 1.215.19.519.248.405.286.027.496-.29 1.252-.918.902-1.183.242-.495.26-.593 2.028-4.967.28-.488.368-.667.223-.362 1.176-.942 1.156.098.61-.49.503-.588.286-.284.152-.165h.21l.267-.008.229-.174.915-.566.12.068 1.005-.58.127.076.381-.14.636-.293.254.075.172-.024.095.17.127-.05.121.118.108-.083.28.202.127-.056.152.113.223-.118.127.144.381-.07.26.072.382-.19.108.052.305-.209.744-.259.095.081.14-.093.14.112.292-.12 1.348-.927.362-.021.14.079.114-.093.14.079.127-.102.388.121.782.065 1.88-.159.115-.123.14.112.528-.217.89-.186.247-.03.642-.31.108.109 1.024-.084.114.084.127-.176.134.117.12-.092.636.448.763-.03.14-.059.12.092.515-.23.127.027.146-.09.09.118.546-.318.254.092.096-.008.292.2.108-.145.14.173.14-.053.21-.175 2.167.033.197-.167.063.287.248.053.134-.12.133.03.375.343.49-.167.26.003.248.028.655-.047 1.302.342.083.126h.77l.133.112.247-.057.388.003.127.025.127.201.242-.084.14.059.235-.056.133.056.14-.17.134.148.381-.204.127.092.14-.092.521.544.223-.09.114.003.14-.114.235.117.515.376.515-.2.368-.084.286.117h.255l.095.175.133-.033.134.092.114-.092.267.036.108-.123 1.278.49.273-.122.146.098.362-.12.128.058.127-.091.146.066.241-.15.255.061.858-.111.42.025.088-.117.394.106.242.061.26.175.388-.116.14.025.108-.11.254.062.127-.576.26.398.414.794.35-.167.387.087.108-.146.146.114.267-.172.242-.05.496-.084 1.163-.175.565-.059.077-.058.42.105.272.037.102.025.096-.134.14.075.095-.142.133.176.12-.117.58.429.184.198.267-.009 1.754-.242.28.083.273-.091.235-.023.216.059.235-.062.172.143.273.083.229.142.292-.033.356-.028.273.17.502-.025.115-.142.394.109.102-.048.14.117.12-.123.14.087.381-.167.496.025.388-.059.127.03.184-.11.077.139.228-.084.407-.058.127.142.63-.204.89.488h.26l.127-.114.133.08.147-.195.101.115.4-.204.09.092.133-.175.267.284.14-.084.362.371.267.231.63-.343.514.062.096-.145.158.055.255-.055.508.142.229-.084.508-.022.14-.123.54.087.096-.142.496.175.14.087.133-.12.146.114.229-.14.394-.116.127.117.521-.176.235.062.248-.087.14-.058.356.225.28.059 1.131-.226.12-.117.261.142.236-.025.26-.03.254.052 1.024-.164.146-.234.546.63.083-1.196.108.01.292-.19 2.015-10.165.68-2.06.197-.253.63-.296.12.15.388-.302.585.32.07.263.14.059 1.016 2.548.433 1.16.082-1.488.598 5.405 1.442 6.279 1.602 5.876.273.777.89 3.214 1.265 4.383.14.198.368.976.636 1.397.28.524.248.312.241.197.375.093.273.136.509-.368.362-.489.394-.794 3.42-9.75.14-.168.254-.629.14-.077.254-.562.413-.63.35-.072.101-.203.14.025.496-.71.286-.207.241.007.134.04.101-.158.134.04.883-.78.121-.258.286-.095.375-.34.267-.439.737-.738.274-.095.368-.468.267-.076.095-.17.128.047.28-.183.997-.208 1.17-.245.101.135.28-.118.432.176.82-.443.146.048.108-.16.496.076.527-.322.172.09.083-.157.14.022.413-.39.07.156.648-.248.388-.215.114.076.114-.116.248.021.363.01.089-1.781.572 3.354.158-.064.509-.613.089.136.267.13.14-.122.241.064 1.208-.602.076-.067.12.05.389-.213.533-.111.623-.298.757-.142.483-.173.133.254.134-.142.267.163 1.004.352.495.012.808.232.241-.078.242-.1.14.19.216-.094.267.165.514-.047.452-.156.21.031.73-.123.14-.086.134.056.616-.247.14.056.496-.292.267.1.133-.138.763.077.14.112.108-.126.902.034.102.112.642-.212.642.182.381-.204.521.127.496-.068.362-.137 1.608.008.102-.134.095.063.369-.063.273.066.248.12.102-.19.133.138.127-.205.147.141.368-.126.254-.07.128-.064.133.208.14-.071.114.19.134-.003.49.527.908-.059.12.133.268-.115.095.182.515-.048.14.07.133-.063.127.137.267-.07.363.06.146.148.082-.134.77.144.057-.073 1.112.007.114-.19.134.127.12-.124.128.063.254-.129.108.253h.127l.254.26.382.049.152.014.235-.126.394-.07.502-.176.255.127.381.248.242.128.28-.201.228.14.153.12.737-.246.178.116.229-.116.387.253.267-.014.363-.056.508-.008.14-.119.114.12.496-.19.14.119.254-.053.362.246.267.13.4-.007.115-.197.248.197.28-.068.355.306.91-.063.12-.07.146.073.096-.13.286.004.476-.208.382.19.387-.187.801.053.102.063.362-.14.636.255.12-.059.147.063.254-.085.375.141.133-.134.503.124.14-.005.101-.119.254.064 2.841-.15.235-.14.242.182.248.33.324.12.083-.116.133.06.115-.137.502.326.133.253.235-.119h.242l.515-.255.12.129.445-.245 1.977-.197.267-.071 1.493.056.236.319.19-.133.242.059.127-.127.14.134.235-.063 1.741-.07.16.197 1.029.055.133.197.509-.07.108-.12.14.249.368-.2.255-.063.146.063.108-.182.133.063.121-.07.623.375.273-.257.127.008.509.379.642-.242.101.168.4-.045.128.126.28-.252.12.126.236-.126.527.31.248-.12.248-.016.254-.063.502.01.254-.124.128.05.133-.118.63.498.247-.063.388-.193.146.18.222-.003.649.008.14-.19.133.071"/></g><clipPath id="u"><path transform="matrix(1 0 0 -1 0 345.6)" d="M103.104 38.016h266.112v266.112H103.104z"/></clipPath><g clip-path="url(#u)"><path stroke-width="2.5" stroke-dasharray="9.25,4" stroke-linejoin="round" fill="none" stroke="red" d="M115.2 67.854h241.92"/></g><path stroke-width=".8" stroke-linecap="square" stroke-miterlimit="10" fill="none" stroke="#000" d="M103.104 307.584V41.472M369.216 307.584V41.472M103.104 307.584h266.112M103.104 41.472h266.112"/><path d="M233.372 302.584h128.844c1.333 0 2-.667 2-2V272.24c0-1.333-.667-2-2-2H233.372c-1.333 0-2 .667-2 2v28.344c0 1.333.667 2 2 2z" fill="#fff" fill-opacity=".8"/><path stroke-miterlimit="10" fill="none" stroke="#d5d6d5" stroke-opacity=".8" d="M233.372 302.584h128.844c1.333 0 2-.667 2-2V272.24c0-1.333-.667-2-2-2H233.372c-1.333 0-2 .667-2 2v28.344c0 1.333.667 2 2 2z"/><path stroke-width="2.5" stroke-linecap="square" stroke-linejoin="round" fill="none" stroke="teal" d="M235.372 278.334h20"/><symbol id="v"><path transform="matrix(.001 0 0 .001 -.056 .013)" d="M644 673V569c-34 30-69 53-107 69-38 15-77 23-119 23-84 0-148-26-192-77s-66-124-66-220 22-170 66-221 108-76 192-76c42 0 81 7 119 23 38 15 73 38 107 69V56c-35-24-72-41-110-52s-79-17-122-17C302-13 215 20 151 87S56 246 56 364c0 117 31 209 95 277 64 67 151 101 261 101 44 0 85-6 123-17 38-12 75-29 109-52z"/></symbol><symbol id="w"><path transform="matrix(.001 0 0 .001 -.085 .013)" d="M85 216v331h90V219c0-52 10-90 30-116s50-39 91-39c48 0 87 15 115 46s42 73 42 127v310h90V0h-90v84c-22-34-48-58-76-74-29-15-62-23-100-23-63 0-111 19-143 58-33 38-49 95-49 171zm226 344z"/></symbol><symbol id="x"><path transform="translate(-.091) scale(.001)" d="M411 463c-10 6-21 10-33 13-12 2-25 4-39 4-51 0-90-17-117-50-28-33-41-80-41-142V0H91v547h90v-85c18 33 43 58 73 74s67 24 111 24c6 0 13-1 21-1 7-1 15-2 25-4v-92z"/></symbol><symbol id="y"><path transform="translate(-.091) scale(.001)" d="M549 330V0h-90v327c0 52-11 90-31 116s-50 39-90 39c-49 0-87-16-115-47s-42-73-42-126V0H91v547h90v-85c21 32 46 57 76 73 29 16 63 25 101 25 62 0 110-20 142-59s49-96 49-171z"/></symbol><symbol id="z"><path transform="translate(-.027) scale(.001)" d="M183 702V547h185v-70H183V180c0-45 6-74 18-86 12-13 37-19 75-19h92V0h-92c-70 0-118 13-144 39s-39 73-39 141v297H27v70h66v155h90z"/></symbol><symbol id="A"><path transform="matrix(.001 0 0 .001 -.086 .131)" d="M310 759c-44-76-76-150-97-223-22-73-32-147-32-222 0-76 10-150 32-223 21-74 53-147 97-222h-78C183-54 146 20 122 94S86 241 86 314c0 72 12 145 36 219s60 149 110 226h78z"/></symbol><symbol id="B"><path transform="matrix(.001 0 0 .001 -.056 .013)" d="M394 662c-72 0-129-27-171-80-42-54-63-126-63-218s21-165 63-218c42-54 99-80 171-80 71 0 128 26 170 80 42 53 63 126 63 218s-21 164-63 218c-42 53-99 80-170 80zm0 80c102 0 183-35 245-103 61-68 92-160 92-275 0-116-31-207-92-275C577 21 496-13 394-13 291-13 209 21 148 89c-62 68-92 159-92 275 0 115 30 207 92 275 61 68 143 103 246 103z"/></symbol><symbol id="C"><path transform="matrix(.001 0 0 .001 -.08 .131)" d="M80 759h78c48-77 85-152 109-226s37-147 37-219c0-73-13-146-37-220S206-54 158-131H80c43 75 75 148 97 222 21 73 32 147 32 223 0 75-11 149-32 222-22 73-54 147-97 223z"/></symbol><use xlink:href="#v" transform="matrix(10 0 0 -10 263.932 281.964)"/><use xlink:href="#w" transform="matrix(10 0 0 -10 271.202 281.964)"/><use xlink:href="#x" transform="matrix(10 0 0 -10 277.602 281.834)"/><use xlink:href="#x" transform="matrix(10 0 0 -10 281.54 281.834)"/><use xlink:href="#i" transform="matrix(10 0 0 -10 285.072 281.964)"/><use xlink:href="#y" transform="matrix(10 0 0 -10 291.582 281.834)"/><use xlink:href="#z" transform="matrix(10 0 0 -10 297.282 281.834)"/><use xlink:href="#j" transform="matrix(10 0 0 -10 300.932 281.834)"/><use xlink:href="#l" transform="matrix(10 0 0 -10 304.652 281.964)"/><use xlink:href="#q" transform="matrix(10 0 0 -10 310.232 283.904)"/><use xlink:href="#i" transform="matrix(10 0 0 -10 316.222 281.964)"/><use xlink:href="#i" transform="matrix(10 0 0 -10 322.372 281.964)"/><use xlink:href="#r" transform="matrix(10 0 0 -10 328.522 281.964)"/><use xlink:href="#j" transform="matrix(10 0 0 -10 334.322 281.834)"/><use xlink:href="#A" transform="matrix(10 0 0 -10 338.362 283.144)"/><use xlink:href="#B" transform="matrix(10 0 0 -10 341.962 281.964)"/><use xlink:href="#p" transform="matrix(10 0 0 -10 349.932 281.964)"/><use xlink:href="#C" transform="matrix(10 0 0 -10 356.422 283.144)"/><path stroke-width="2.5" stroke-dasharray="9.25,4" stroke-linejoin="round" fill="none" stroke="red" d="M235.372 293.006h20"/><symbol id="D"><path transform="translate(-.098) scale(.001)" d="M197 648V81h119c100 0 174 22 221 68 46 46 70 118 70 216s-24 169-70 215c-47 45-121 68-221 68H197zm-99 81h203c141 0 245-30 311-88 66-59 99-151 99-276 0-126-34-218-100-277S441 0 301 0H98v729z"/></symbol><use xlink:href="#D" transform="matrix(10 0 0 -10 264.352 296.506)"/><use xlink:href="#i" transform="matrix(10 0 0 -10 271.622 296.636)"/><use xlink:href="#l" transform="matrix(10 0 0 -10 277.762 296.636)"/><use xlink:href="#g" transform="matrix(10 0 0 -10 283.372 296.506)"/><use xlink:href="#x" transform="matrix(10 0 0 -10 286.122 296.506)"/><use xlink:href="#i" transform="matrix(10 0 0 -10 289.654 296.636)"/><use xlink:href="#r" transform="matrix(10 0 0 -10 295.803 296.636)"/><use xlink:href="#j" transform="matrix(10 0 0 -10 301.604 296.506)"/><use xlink:href="#l" transform="matrix(10 0 0 -10 305.324 296.636)"/><use xlink:href="#q" transform="matrix(10 0 0 -10 310.904 298.576)"/><use xlink:href="#i" transform="matrix(10 0 0 -10 316.894 296.636)"/><use xlink:href="#i" transform="matrix(10 0 0 -10 323.043 296.636)"/><use xlink:href="#r" transform="matrix(10 0 0 -10 329.193 296.636)"/><use xlink:href="#j" transform="matrix(10 0 0 -10 334.993 296.506)"/><use xlink:href="#A" transform="matrix(10 0 0 -10 339.034 297.816)"/><use xlink:href="#B" transform="matrix(10 0 0 -10 342.634 296.636)"/><use xlink:href="#p" transform="matrix(10 0 0 -10 350.604 296.636)"/><use xlink:href="#C" transform="matrix(10 0 0 -10 357.094 297.816)"/></svg>