<svg xmlns="http://www.w3.org/2000/svg" xmlns:xlink="http://www.w3.org/1999/xlink" width="301pt" height="400" viewBox="0 0 301 300"><clipPath id="a"><path transform="matrix(1 0 0 -1 -7 307)" d="M0 0h313.903v314.292H0z"/></clipPath><g clip-path="url(#a)"><path d="M-7 307h313.903V-7.292H-7z" fill="#fff"/><path d="M33.59 269.456h266.113V3.344H33.59z" fill="#fff"/><path stroke-width=".8" stroke-linejoin="round" fill="none" stroke="#000" d="M40.678 269.456v3.5"/><symbol id="b"><path transform="matrix(.001 0 0 .001 -.066 .013)" d="M318 664c-51 0-89-25-115-75s-38-125-38-225 12-175 38-225 64-75 115-75 89 25 115 75c25 50 38 125 38 225s-13 175-38 225c-26 50-64 75-115 75zm0 78c81 0 143-33 187-97 43-65 65-159 65-281 0-123-22-217-65-281-44-64-106-96-188-96S173 19 130 83 66 241 66 364c0 122 21 216 64 281 43 64 106 97 188 97z"/></symbol><use xlink:href="#b" transform="matrix(10 0 0 -10 38.158 284.18)"/><path stroke-width=".8" stroke-linejoin="round" fill="none" stroke="#000" d="M82.21 269.456v3.5"/><symbol id="c"><path transform="matrix(.001 0 0 .001 -.077 .013)" d="M108 729h387v-83H198V467c14 5 29 9 43 11s29 4 43 4c81 0 145-23 193-67 48-45 72-105 72-181 0-79-25-140-74-183S357-13 269-13c-31 0-62 3-94 7-32 5-64 12-98 23v99c29-16 59-28 91-36 31-8 64-11 99-11 56 0 101 14 134 44 32 30 49 70 49 121 0 50-17 90-49 120-33 30-78 45-134 45-26 0-53-3-79-9s-53-15-80-27v366z"/></symbol><use xlink:href="#c" transform="matrix(10 0 0 -10 79.8 284.18)"/><path stroke-width=".8" stroke-linejoin="round" fill="none" stroke="#000" d="M123.743 269.456v3.5"/><symbol id="d"><path transform="translate(-.11) scale(.001)" d="M124 83h161v556l-175-35v90l174 35h99V83h161V0H124v83z"/></symbol><use xlink:href="#d" transform="matrix(10 0 0 -10 118.484 284.05)"/><use xlink:href="#b" transform="matrix(10 0 0 -10 124.404 284.18)"/><path stroke-width=".8" stroke-linejoin="round" fill="none" stroke="#000" d="M165.276 269.456v3.5"/><use xlink:href="#d" transform="matrix(10 0 0 -10 160.017 284.05)"/><use xlink:href="#c" transform="matrix(10 0 0 -10 166.047 284.18)"/><path stroke-width=".8" stroke-linejoin="round" fill="none" stroke="#000" d="M206.809 269.456v3.5"/><symbol id="e"><path transform="translate(-.073) scale(.001)" d="M192 83h344V0H73v83c37 38 88 90 153 156 64 65 105 107 122 126 32 35 54 65 66 90 12 24 19 49 19 73 0 38-14 70-41 94s-62 37-106 37c-31 0-64-6-98-16-34-11-71-27-110-49v100c40 16 77 28 111 36s66 12 95 12c75 0 135-19 180-57s68-88 68-151c0-30-6-59-17-85-11-27-31-59-61-95-8-10-34-37-78-82S271 164 192 83z"/></symbol><use xlink:href="#e" transform="matrix(10 0 0 -10 201.18 284.05)"/><use xlink:href="#b" transform="matrix(10 0 0 -10 207.47 284.18)"/><path stroke-width=".8" stroke-linejoin="round" fill="none" stroke="#000" d="M248.342 269.456v3.5"/><use xlink:href="#e" transform="matrix(10 0 0 -10 242.712 284.05)"/><use xlink:href="#c" transform="matrix(10 0 0 -10 249.112 284.18)"/><path stroke-width=".8" stroke-linejoin="round" fill="none" stroke="#000" d="M289.874 269.456v3.5"/><symbol id="f"><path transform="matrix(.001 0 0 .001 -.076 .013)" d="M406 393c47-10 84-31 110-63s40-72 40-118c0-72-25-128-74-167-50-39-120-58-211-58-31 0-63 3-95 9-32 5-66 14-100 26v95c27-16 57-28 90-36 32-8 66-12 102-12 62 0 109 12 141 36s49 60 49 107c0 42-15 76-45 100s-72 37-126 37h-85v81h89c48 0 85 9 111 29 26 19 39 47 39 84s-14 66-40 86c-27 20-65 30-114 30-27 0-56-3-87-9s-65-15-102-27v88c37 10 72 18 105 23 32 5 63 8 93 8 74 0 133-17 177-51s66-80 66-138c0-40-12-74-35-102s-56-48-98-58z"/></symbol><use xlink:href="#f" transform="matrix(10 0 0 -10 284.275 284.18)"/><use xlink:href="#b" transform="matrix(10 0 0 -10 290.535 284.18)"/><symbol id="g"><path transform="translate(.002) scale(.001)" d="M-2 729h616v-83H355V0h-99v646H-2v83z"/></symbol><symbol id="h"><path transform="translate(-.094) scale(.001)" d="M94 547h90V0H94v547zm0 213h90V646H94v114z"/></symbol><symbol id="i"><path transform="translate(-.091) scale(.001)" d="M520 442c22 40 49 69 80 89 31 19 68 29 111 29 56 0 100-20 131-60s47-97 47-170V0h-90v327c0 52-10 91-28 117-19 25-47 38-85 38-47 0-84-16-111-47s-40-73-40-126V0h-90v327c0 52-10 91-28 117-19 25-48 38-86 38-46 0-83-16-110-47s-40-73-40-126V0H91v547h90v-85c20 33 45 58 74 74 28 16 62 24 102 24s73-10 101-30 48-50 62-88z"/></symbol><symbol id="j"><path transform="matrix(.001 0 0 .001 -.055 .013)" d="M562 296v-44H149c4-62 22-110 56-142 33-32 79-48 139-48 34 0 68 4 100 12s65 21 97 39V28c-32-14-65-25-99-31s-69-10-103-10c-88 0-157 25-208 75S55 181 55 268c0 89 24 160 72 213 48 52 114 79 196 79 74 0 132-24 175-71 42-48 64-112 64-193zm-90 26c-1 49-15 88-41 118-27 29-63 44-107 44-50 0-90-15-120-43s-48-68-52-119h320z"/></symbol><symbol id="l"><path transform="matrix(.001 0 0 .001 -.086 .131)" d="M86 760h207v-70H176V-61h117v-70H86v891z"/></symbol><symbol id="m"><path transform="matrix(.001 0 0 .001 -.054 .013)" d="M443 531v-85c-26 12-52 22-79 29-28 6-56 10-85 10-45 0-79-7-101-21s-33-34-33-61c0-21 8-37 24-49s48-24 96-34l31-7c64-14 109-34 136-58 26-25 40-60 40-104 0-51-20-91-60-120-40-30-96-44-166-44-30 0-60 3-92 8S89 8 54 20v93c33-18 66-31 98-39 32-9 64-13 96-13 42 0 75 7 98 21 22 14 34 35 34 62 0 24-9 43-25 56s-52 26-108 38l-31 7c-56 12-97 30-121 54-25 24-37 57-37 100 0 51 18 91 54 119s88 42 156 42c33 0 64-3 94-8 29-5 56-12 81-21z"/></symbol><symbol id="n"><path transform="matrix(.001 0 0 .001 -.097 .131)" d="M304 760v-891H97v70h117v751H97v70h207z"/></symbol><use xlink:href="#g" transform="matrix(10 0 0 -10 146.244 297.722)"/><use xlink:href="#h" transform="matrix(10 0 0 -10 153.017 297.722)"/><use xlink:href="#i" transform="matrix(10 0 0 -10 155.767 297.722)"/><use xlink:href="#j" transform="matrix(10 0 0 -10 165.147 297.852)"/><use xlink:href="#k" transform="matrix(10 0 0 -10 170.747 297.722)"/><use xlink:href="#l" transform="matrix(10 0 0 -10 174.787 299.032)"/><use xlink:href="#m" transform="matrix(10 0 0 -10 178.367 297.852)"/><use xlink:href="#n" transform="matrix(10 0 0 -10 184.007 299.032)"/><path stroke-width=".8" stroke-linejoin="round" fill="none" stroke="#000" d="M33.59 230.062h-3.5"/><use xlink:href="#e" transform="matrix(10 0 0 -10 14.602 233.859)"/><use xlink:href="#b" transform="matrix(10 0 0 -10 20.892 233.989)"/><path stroke-width=".8" stroke-linejoin="round" fill="none" stroke="#000" d="M33.59 184.79h-3.5"/><use xlink:href="#f" transform="matrix(10 0 0 -10 14.632 188.717)"/><use xlink:href="#b" transform="matrix(10 0 0 -10 20.892 188.717)"/><path stroke-width=".8" stroke-linejoin="round" fill="none" stroke="#000" d="M33.59 139.519h-3.5"/><symbol id="o"><path transform="translate(-.049) scale(.001)" d="M378 643 129 254h249v389zm-26 86h124V254h104v-82H476V0h-98v172H49v95l303 462z"/></symbol><use xlink:href="#o" transform="matrix(10 0 0 -10 14.362 143.316)"/><use xlink:href="#b" transform="matrix(10 0 0 -10 20.892 143.446)"/><path stroke-width=".8" stroke-linejoin="round" fill="none" stroke="#000" d="M33.59 94.248h-3.5"/><use xlink:href="#c" transform="matrix(10 0 0 -10 14.642 98.175)"/><use xlink:href="#b" transform="matrix(10 0 0 -10 20.892 98.175)"/><path stroke-width=".8" stroke-linejoin="round" fill="none" stroke="#000" d="M33.59 48.976h-3.5"/><symbol id="p"><path transform="matrix(.001 0 0 .001 -.07 .013)" d="M330 404c-44 0-79-16-105-46s-39-72-39-124c0-53 13-95 39-125s61-45 105-45 79 15 105 45 39 72 39 125c0 52-13 94-39 124s-61 46-105 46zm196 309v-90c-25 12-50 21-75 27-26 6-51 9-75 9-66 0-116-22-150-66s-54-111-58-199c19 28 43 50 72 65s61 23 96 23c73 0 131-23 173-67s64-105 64-181c0-75-23-135-67-180S403-13 330-13c-84 0-149 32-193 96-45 64-67 158-67 281 0 115 27 207 82 275 54 68 128 103 220 103 24 0 49-3 75-7 25-5 51-12 79-22z"/></symbol><use xlink:href="#p" transform="matrix(10 0 0 -10 14.572 52.903)"/><use xlink:href="#b" transform="matrix(10 0 0 -10 20.892 52.903)"/><path stroke-width=".8" stroke-linejoin="round" fill="none" stroke="#000" d="M33.59 3.705h-3.5"/><symbol id="q"><path transform="translate(-.082) scale(.001)" d="M82 729h469v-42L286 0H183l249 646H82v83z"/></symbol><use xlink:href="#q" transform="matrix(10 0 0 -10 14.692 7.502)"/><use xlink:href="#b" transform="matrix(10 0 0 -10 20.892 7.632)"/><symbol id="r"><path transform="translate(-.098) scale(.001)" d="M197 648V81h119c100 0 174 22 221 68 46 46 70 118 70 216s-24 169-70 215c-47 45-121 68-221 68H197zm-99 81h203c141 0 245-30 311-88 66-59 99-151 99-276 0-126-34-218-100-277S441 0 301 0H98v729z"/></symbol><symbol id="s"><path transform="translate(-.027) scale(.001)" d="M183 702V547h185v-70H183V180c0-45 6-74 18-86 12-13 37-19 75-19h92V0h-92c-70 0-118 13-144 39s-39 73-39 141v297H27v70h66v155h90z"/></symbol><symbol id="t"><path transform="matrix(.001 0 0 .001 -.06 .013)" d="M343 275c-73 0-123-9-151-25-28-17-42-45-42-85 0-32 10-58 31-76 21-19 50-28 86-28 50 0 90 17 120 53 30 35 45 82 45 141v20h-89zm179 37V0h-90v83c-21-34-47-58-77-73s-68-23-112-23c-56 0-101 15-134 46s-49 73-49 126c0 61 20 107 62 139 41 31 102 47 184 47h126v9c0 41-14 73-41 96-27 22-65 34-114 34-32 0-62-4-92-12s-58-19-85-33v83c32 12 64 22 95 28s61 10 91 10c79 0 138-21 177-62s59-103 59-186z"/></symbol><symbol id="u"><path transform="translate(-.091) scale(.001)" d="M549 330V0h-90v327c0 52-11 90-31 116s-50 39-90 39c-49 0-87-16-115-47s-42-73-42-126V0H91v547h90v-85c21 32 46 57 76 73 29 16 63 25 101 25 62 0 110-20 142-59s49-96 49-171z"/></symbol><symbol id="v"><path transform="matrix(.001 0 0 .001 -.055 .013)" d="M488 526v-84c-26 14-51 24-77 31s-51 11-77 11c-58 0-104-19-136-56s-48-89-48-155c0-67 16-119 48-156s78-55 136-55c26 0 51 3 77 10s51 18 77 32V21C462 9 436 0 410-5c-27-5-56-8-86-8-82 0-148 25-196 77-49 51-73 121-73 209 0 89 24 159 73 210s116 77 202 77c28 0 55-3 81-9s52-14 77-25z"/></symbol><use xlink:href="#r" transform="matrix(0 -10 -10 0 7.794 167.67)"/><use xlink:href="#h" transform="matrix(0 -10 -10 0 7.794 160.01)"/><use xlink:href="#m" transform="matrix(0 -10 -10 0 7.924 157.63)"/><use xlink:href="#s" transform="matrix(0 -10 -10 0 7.794 152.69)"/><use xlink:href="#t" transform="matrix(0 -10 -10 0 7.924 148.44)"/><use xlink:href="#u" transform="matrix(0 -10 -10 0 7.794 142)"/><use xlink:href="#v" transform="matrix(0 -10 -10 0 7.924 136.02)"/><use xlink:href="#j" transform="matrix(0 -10 -10 0 7.924 130.52)"/><use xlink:href="#k" transform="matrix(0 -10 -10 0 7.794 124.92)"/><use xlink:href="#l" transform="matrix(0 -10 -10 0 9.104 120.88)"/><use xlink:href="#i" transform="matrix(0 -10 -10 0 7.794 116.93)"/><use xlink:href="#n" transform="matrix(0 -10 -10 0 9.104 107.13)"/><clipPath id="w"><path transform="matrix(1 0 0 -1 -7 307)" d="M40.59 37.544h266.113v266.112H40.59z"/></clipPath><g clip-path="url(#w)"><path stroke-width="2.5" stroke-linecap="square" stroke-linejoin="round" fill="none" stroke="#00f" d="m45.687 15.44.257.307.233-.091.282.454.125.128.15-.111.307.256.132.397.457.29.142.15.157-.139.266.608.158-.15.133.478.482.34.158-.162.29.347.316.722.307.385.216-.181.133.579.141-.186.133.598.258-.19.523.639.3.871.165.233.1-.2.133.677.224-.204.424.946.15-.208.182.717.183-.21.133.257.157.738.117-.214.166.75.25-.217.323.542.332 1.051.54.85.133.287.083-.226.283 1.096.157-.229.183.817.2.295.216-.232.224 1.126.183.3.199-.236.158.839.108-.238.473.607.108.85.108-.24.349 1.165.307.62.532.939.108-.247.24.876.109-.247.2.88.207-.248.1.884.249-.25.606 1.852.166-.252.83 2.192.375.65.282.652.191.326.166-.255.117.91.199-.256.382 1.238.1-.257.631.983.133.328.15.914.149-.258.29 1.244.15.328.283.329.108-.26.332 1.245.465.984.15.328.157-.261.275.917.09-.262.15.328.3 1.245.207-.263.15.917.14-.262.25.916.15-.263.157.916.142-.263.307 1.24.2-.263.165.914.25.324.116-.264.274 1.236.498.969.3.322.215.643.208-.267.158.321.316 1.227.282.637.257.318.108-.267.15.319.141.902.208-.267.29 1.218.325.316.456.948.133-.267.283 1.211.166.315.116-.267.233.894.158-.267.15.894.165.312.224-.267.15.312.324 1.202.208-.268.282 1.2.324.619.2-.268.29 1.194.233-.268.14.884.167-.269.29 1.19.117-.268.59.918.224.88.083-.27.15.306.133.878.24.304.158-.27.615 1.787.15-.27.199.303.324 1.176.299.301.299.602.124-.27.3 1.172.14.3.217-.27.382.6.274 1.165.141-.27.307.596.233.864.15-.27.423 1.16.457.89.141-.27.507 1.45.15-.27.124.86.515.883.133-.27.141.294.25.858.116-.27.15.857.323.293.067-.27.274 1.148.515.584.083-.27.307 1.145.125-.27.307.582.133.852.274.291.258.58.199.291.15-.27.307.579.324.29.24 1.137.914 1.152 1.188 1.434 2.6 2.863 2.11 4.266.573.851 1.38 2.547.813 1.698 4.436 8.155.947 1.117 1.204 1.392.465.557.98 1.39.283.277.216.556.457.556.465 1.113.723.834.19.007.233.826.283.278.224.555.274.278.623 1.387.283.277.647 1.11.499.83.714 1.106.233.553.257.276.183.554.24.277.217.006.482 1.1.199.274.208.55.257.276.233.005.158.275.257.82.233.274.398.825 2.443 3.82.199.546.25.273.88 1.642.531.547 1.18 2.187 1.163 1.912.274.547.515.546.332.82.656 1.096 2.077 3.286.531.82.25.275 2.326 4.103.232.273.2.545.531.546.3.82.29.274.457.819.432.546.207.548.266.274.482.824.224.274.233.548.282.004.241.817.731 1.35.474.533.68 1.053.275.777.756 1.27.747 1.003 1.28 2.266.448.76 1.163 2.011.714.991 1.03 1.512.557 1.02.615.76.855 1.251 1.362 1.24.607.994 4.112 6.297.249.495.581.496.806 1.494.747.986.225.488.257.244.956 1.213.29.177.35 1.023.257.239.888 1.43.499.474.315.707.806.941.366.47.423.7 3.323 4.565.25-.093.257.76.29.442.34.22.325.656 3.24 4.087.348.64.274.213 3.68 4.591.208.202.349.601.299.2.573.79.266-.133.332.917.258.194.49.582.531.58.482.577.233.191 1.379 1.705.523.374.448.556.324.372.291.564 2.093 2.694.731.763.914 1.1.615.717 1.453 1.775.831.878.507.52.573.515.482.342 1.952 1.519.265.332.283.165.208.329.24.164.266.33.274.642.316-.147 1.42 1.49.258.165.24.327.267.163 1.395 1.44.29.156.45.468 1.328 1.397.258.157.415.473.266.157.266-.12.49.891.88.752 3.082 2.465.3.367 3.895 2.343.374.274.19.09.184.426.174-.17 4.884 1.829 3.232.566 1.196-.105.739-.118.174-.202.15.148.166-.199.15.142.15-.03.149-.193.15.133.232-.19.183.127.431-.096.308-.208.963-.18.333.066.39-.062.1-.15.14.089.192-.144.407.057 1.753-.369.216.063.1-.103.365.04.357-.111 3.156-.175.449.002 2.741.16 1.014.068.29.072.582.007 3.979.173 2.633-.026.158-.162.133.128.315-.038.15-.175.158.133.166-.182.232.137.316-.216.29-.059.341.113.166-.208.39.114.192-.218.133.15.15-.225.697-.163.141.156.158-.245.174-.046.167.159.132-.046.333-.309.814-.27.174.166.532-.174.158-.294.14.172.142-.063.216-.303.158.174.15-.067.232-.312.158.176.158-.319.15.178.174-.325.132.18.167-.074.14-.334.516-.239.324-.163.15.187.215-.356.15.187.158-.087.407-.455.14-.092.142.19.141-.376.166-.095.142.192.398-.483.141.196.781-.504.34-.407.059.199.141-.104.316-.524.141-.11.208.202.315-.538.241.203.166-.113.142-.435.332-.233.133.207.324-.565.207.21.15-.121.158-.454.141.21.166-.458.64-.378.133.215.157-.127.283-.603.158.217.166-.479.15.218.157-.483.582-.404.166.222.15-.136.174-.497.116.224.407-.277.158-.505.141.226.141-.51.308-.287.15.227.149-.518.232-.146.158.229.15-.147.49-.826.133.231.357-.302.141-.538.174-.154.233.232.091-.543.142.234.166-.156.523-.867.141.235.374-.717.457-.489.166.238.2-.567.132.239.191-.57.183.239.141-.574.208.24.208-.167.24-.748.167.242.174-.17.15-.585.157.242.2-.588.274-.174.091.244.117-.174.182-.595.108.245.183-.597.224.245.457-.778.083.246.117-.178.124-.607.175-.18.182.247.166-.61.208.248.233-.613.157.249.142-.183.15-.618.165-.185.133.25.715-.745.157-.627.142.252.157-.63.15.252.166-.189.166-.633.382-.383.2.253.216-.384.407-.835.14.254.366-.839.133.255.291-.391.366-.848.14.256.283-.652.116.256.416-.597.232-.2.3-.861.249.258.15-.202.29-.867.141.259.15-.203.174-.667.15.259.39-.875.15.26.29-.88.224.26.167-.206.157-.676.225-.208.174.26.141-.678.233.261.548-1.31.241.261.29-.894.15.262.316-.898.141-.213.15.263.299-.69.091.263.166-.691.764-1.079.241.264.333-.914.448-.654.399-.438.2.264.14-.22.316-.924.133.264.307-.927.125.265.399-.932"/></g><clipPath id="x"><path transform="matrix(1 0 0 -1 -7 307)" d="M40.59 37.544h266.113v266.112H40.59z"/></clipPath><g clip-path="url(#x)"><path d="m213.802 260.36 6-6m-6 0 6 6" fill="orange"/><path stroke-width="2.5" stroke-linejoin="round" fill="none" stroke="orange" d="m213.802 260.36 6-6m-6 0 6 6"/></g><path stroke-width=".8" stroke-linecap="square" stroke-miterlimit="10" fill="none" stroke="#000" d="M33.59 269.456V3.344M299.703 269.456V3.344M33.59 269.456h266.113M33.59 3.344h266.113"/><path d="M98.328 40.688h194.375c1.333 0 2-.667 2-2V10.344c0-1.333-.667-2-2-2H98.328c-1.334 0-2 .667-2 2v28.344c0 1.333.666 2 2 2z" fill="#fff" fill-opacity=".8"/><path stroke-miterlimit="10" fill="none" stroke="#d5d6d5" stroke-opacity=".8" d="M98.328 40.688h194.375c1.333 0 2-.667 2-2V10.344c0-1.333-.667-2-2-2H98.328c-1.334 0-2 .667-2 2v28.344c0 1.333.666 2 2 2z"/><path stroke-width="2.5" stroke-linecap="square" stroke-linejoin="round" fill="none" stroke="#00f" d="M100.328 16.438h20"/><symbol id="y"><path transform="matrix(.001 0 0 .001 -.091 .013)" d="M487 273c0 66-14 117-41 155-28 38-65 57-112 57-48 0-85-19-112-57-28-38-41-89-41-155s13-118 41-156c27-38 64-56 112-56 47 0 84 18 112 56 27 38 41 90 41 156zM181 464c18 32 42 56 71 72s64 24 104 24c66 0 120-27 162-79 41-53 62-122 62-208s-21-156-62-208c-42-52-96-78-162-78-40 0-75 8-104 23s-53 39-71 72V0H91v760h90V464z"/></symbol><symbol id="z"><path transform="translate(-.042) scale(.001)" d="M42 547h90l112-427 112 427h106l112-427 112 427h90L633 0H527L409 448 291 0H185L42 547z"/></symbol><symbol id="A"><path transform="matrix(.001 0 0 .001 -.056 .013)" d="M394 662c-72 0-129-27-171-80-42-54-63-126-63-218s21-165 63-218c42-54 99-80 171-80 71 0 128 26 170 80 42 53 63 126 63 218s-21 164-63 218c-42 53-99 80-170 80zm0 80c102 0 183-35 245-103 61-68 92-160 92-275 0-116-31-207-92-275C577 21 496-13 394-13 291-13 209 21 148 89c-62 68-92 159-92 275 0 115 30 207 92 275 61 68 143 103 246 103z"/></symbol><symbol id="B"><path transform="matrix(.001 0 0 .001 -.066 .013)" d="M535 705v-96c-38 18-73 31-106 40-34 8-66 13-96 13-54 0-96-11-125-31-29-21-43-51-43-89 0-32 9-57 29-73 19-17 56-30 110-40l60-12c73-14 127-39 162-74 35-36 53-83 53-142 0-71-24-124-71-160-48-36-117-54-208-54-35 0-72 4-111 11S110 16 69 32v102c40-23 79-40 117-51 38-12 76-17 114-17 56 0 99 11 130 33 30 22 46 53 46 95 0 36-11 64-33 84s-58 35-108 45l-60 12c-74 14-127 37-160 69-33 31-49 74-49 130 0 64 22 115 68 152 45 37 108 56 188 56 34 0 68-3 104-9 35-6 71-16 109-28z"/></symbol><symbol id="C"><path transform="matrix(.001 0 0 .001 -.055 .013)" d="M454 464v296h90V0h-90v82c-19-33-43-57-72-72s-63-23-103-23c-66 0-120 26-162 78S55 187 55 273s20 155 62 208c42 52 96 79 162 79 40 0 74-8 103-24s53-40 72-72zM148 273c0-66 13-118 40-156s64-56 112-56 85 18 113 56c27 38 41 90 41 156s-14 117-41 155c-28 38-65 57-113 57s-85-19-112-57-40-89-40-155z"/></symbol><use xlink:href="#r" transform="matrix(10 0 0 -10 129.308 19.938)"/><use xlink:href="#h" transform="matrix(10 0 0 -10 136.968 19.938)"/><use xlink:href="#m" transform="matrix(10 0 0 -10 139.348 20.068)"/><use xlink:href="#s" transform="matrix(10 0 0 -10 144.288 19.938)"/><use xlink:href="#t" transform="matrix(10 0 0 -10 148.538 20.068)"/><use xlink:href="#u" transform="matrix(10 0 0 -10 154.978 19.938)"/><use xlink:href="#v" transform="matrix(10 0 0 -10 160.958 20.068)"/><use xlink:href="#j" transform="matrix(10 0 0 -10 166.458 20.068)"/><use xlink:href="#k" transform="matrix(10 0 0 -10 172.058 19.938)"/><use xlink:href="#y" transform="matrix(10 0 0 -10 176.148 20.068)"/><use xlink:href="#j" transform="matrix(10 0 0 -10 182.138 20.068)"/><use xlink:href="#s" transform="matrix(10 0 0 -10 188.008 19.938)"/><use xlink:href="#z" transform="matrix(10 0 0 -10 192.078 19.938)"/><use xlink:href="#j" transform="matrix(10 0 0 -10 200.388 20.068)"/><use xlink:href="#j" transform="matrix(10 0 0 -10 206.538 20.068)"/><use xlink:href="#u" transform="matrix(10 0 0 -10 213.048 19.938)"/><use xlink:href="#k" transform="matrix(10 0 0 -10 218.478 19.938)"/><use xlink:href="#A" transform="matrix(10 0 0 -10 222.218 20.068)"/><use xlink:href="#B" transform="matrix(10 0 0 -10 230.188 20.068)"/><use xlink:href="#k" transform="matrix(10 0 0 -10 235.878 19.938)"/><use xlink:href="#t" transform="matrix(10 0 0 -10 239.658 20.068)"/><use xlink:href="#u" transform="matrix(10 0 0 -10 246.098 19.938)"/><use xlink:href="#C" transform="matrix(10 0 0 -10 252.078 20.068)"/><use xlink:href="#k" transform="matrix(10 0 0 -10 257.878 19.938)"/><use xlink:href="#g" transform="matrix(10 0 0 -10 261.038 19.938)"/><use xlink:href="#B" transform="matrix(10 0 0 -10 267.828 20.068)"/><use xlink:href="#k" transform="matrix(10 0 0 -10 273.518 19.938)"/><use xlink:href="#d" transform="matrix(10 0 0 -10 277.798 19.938)"/><path d="m107.328 34.985 6-6m-6 0 6 6" fill="orange"/><path stroke-width="2.5" stroke-linejoin="round" fill="none" stroke="orange" d="m107.328 34.985 6-6m-6 0 6 6"/><symbol id="D"><path transform="translate(-.107) scale(.001)" d="M107 124h103V0H107v124z"/></symbol><symbol id="E"><path transform="matrix(.001 0 0 .001 -.055 .013)" d="M306 484c-48 0-86-19-114-57s-42-89-42-154c0-66 13-117 41-155s66-56 115-56c48 0 86 18 114 56s42 89 42 155c0 64-14 116-42 154s-66 57-114 57zm0 76c78 0 139-26 184-76 44-51 67-121 67-211s-23-160-67-210c-45-51-106-76-184-76-79 0-141 25-185 76-44 50-66 120-66 210s22 160 66 211c44 50 106 76 185 76z"/></symbol><symbol id="F"><path transform="matrix(.001 0 0 .001 -.106 -.172)" d="M106 454h626v-82H106v82zm0-199h626v-83H106v83z"/></symbol><symbol id="G"><path transform="matrix(.001 0 0 .001 -.063 .013)" d="M110 15v90c24-12 49-21 75-27 25-6 50-9 75-9 64 0 114 21 148 65s54 110 60 200c-20-28-44-50-72-65-29-15-61-22-96-22-74 0-132 22-174 66S63 417 63 494c0 74 22 134 66 180 44 45 103 68 177 68 84 0 149-33 193-97 44-65 67-159 67-281 0-116-28-207-82-275C429 21 356-13 264-13c-25 0-50 3-75 7-26 4-52 11-79 21zm196 309c44 0 79 15 105 45s39 72 39 125c0 52-13 94-39 124s-61 46-105 46-79-16-105-46-39-72-39-124c0-53 13-95 39-125s61-45 105-45z"/></symbol><use xlink:href="#i" transform="matrix(10 0 0 -10 129.238 34.61)"/><use xlink:href="#h" transform="matrix(10 0 0 -10 139.008 34.61)"/><use xlink:href="#u" transform="matrix(10 0 0 -10 141.758 34.61)"/><use xlink:href="#D" transform="matrix(10 0 0 -10 148.258 34.61)"/><use xlink:href="#k" transform="matrix(10 0 0 -10 150.368 34.61)"/><use xlink:href="#C" transform="matrix(10 0 0 -10 154.098 34.74)"/><use xlink:href="#h" transform="matrix(10 0 0 -10 160.838 34.61)"/><use xlink:href="#m" transform="matrix(10 0 0 -10 163.218 34.74)"/><use xlink:href="#s" transform="matrix(10 0 0 -10 168.158 34.61)"/><use xlink:href="#t" transform="matrix(10 0 0 -10 172.408 34.74)"/><use xlink:href="#u" transform="matrix(10 0 0 -10 178.848 34.61)"/><use xlink:href="#v" transform="matrix(10 0 0 -10 184.828 34.74)"/><use xlink:href="#j" transform="matrix(10 0 0 -10 190.328 34.74)"/><use xlink:href="#k" transform="matrix(10 0 0 -10 195.928 34.61)"/><use xlink:href="#s" transform="matrix(10 0 0 -10 199.378 34.61)"/><use xlink:href="#E" transform="matrix(10 0 0 -10 203.578 34.74)"/><use xlink:href="#k" transform="matrix(10 0 0 -10 209.148 34.61)"/><use xlink:href="#g" transform="matrix(10 0 0 -10 212.308 34.61)"/><use xlink:href="#B" transform="matrix(10 0 0 -10 219.098 34.74)"/><use xlink:href="#k" transform="matrix(10 0 0 -10 224.788 34.61)"/><use xlink:href="#d" transform="matrix(10 0 0 -10 229.068 34.61)"/><use xlink:href="#k" transform="matrix(10 0 0 -10 234.328 34.61)"/><use xlink:href="#F" transform="matrix(10 0 0 -10 238.568 32.89)"/><use xlink:href="#k" transform="matrix(10 0 0 -10 245.888 34.61)"/><use xlink:href="#d" transform="matrix(10 0 0 -10 250.168 34.61)"/><use xlink:href="#f" transform="matrix(10 0 0 -10 256.188 34.74)"/><use xlink:href="#D" transform="matrix(10 0 0 -10 262.858 34.61)"/><use xlink:href="#G" transform="matrix(10 0 0 -10 265.598 34.74)"/><use xlink:href="#q" transform="matrix(10 0 0 -10 272.148 34.61)"/><use xlink:href="#k" transform="matrix(10 0 0 -10 277.688 34.61)"/><use xlink:href="#i" transform="matrix(10 0 0 -10 281.778 34.61)"/></g></svg>