<svg width="313.90299999999996" height="314.292" xmlns="http://www.w3.org/2000/svg" xmlns:xlink="http://www.w3.org/1999/xlink">

 <symbol id="a">
  <path id="svg_1" d="m0.252,0.677c-0.051,0 -0.089,-0.025 -0.115,-0.075s-0.038,-0.125 -0.038,-0.225s0.012,-0.175 0.038,-0.225s0.064,-0.075 0.115,-0.075s0.089,0.025 0.115,0.075c0.025,0.05 0.038,0.125 0.038,0.225s-0.013,0.175 -0.038,0.225c-0.026,0.05 -0.064,0.075 -0.115,0.075zm0,0.078c0.081,0 0.143,-0.033 0.187,-0.097c0.043,-0.065 0.065,-0.159 0.065,-0.281c0,-0.123 -0.022,-0.217 -0.065,-0.281c-0.044,-0.064 -0.106,-0.096 -0.188,-0.096s-0.144,0.032 -0.187,0.096s-0.064,0.158 -0.064,0.281c0,0.122 0.021,0.216 0.064,0.281c0.043,0.064 0.106,0.097 0.188,0.097z"/>
 </symbol>
 <symbol id="b">
  <path id="svg_2" d="m0.031,0.742l0.387,0l0,-0.083l-0.297,0l0,-0.179c0.014,0.005 0.029,0.009 0.043,0.011s0.029,0.004 0.043,0.004c0.081,0 0.145,-0.023 0.193,-0.067c0.048,-0.045 0.072,-0.105 0.072,-0.181c0,-0.079 -0.025,-0.14 -0.074,-0.183s-0.118,-0.064 -0.206,-0.064c-0.031,0 -0.062,0.003 -0.094,0.007c-0.032,0.005 -0.064,0.012 -0.098,0.023l0,0.099c0.029,-0.016 0.059,-0.028 0.091,-0.036c0.031,-0.008 0.064,-0.011 0.099,-0.011c0.056,0 0.101,0.014 0.134,0.044c0.032,0.03 0.049,0.07 0.049,0.121c0,0.05 -0.017,0.09 -0.049,0.12c-0.033,0.03 -0.078,0.045 -0.134,0.045c-0.026,0 -0.053,-0.003 -0.079,-0.009s-0.053,-0.015 -0.08,-0.027l0,0.366z"/>
 </symbol>
 <symbol id="c">
  <path id="svg_3" d="m124,83l161,0l0,556l-175,-35l0,90l174,35l99,0l0,-646l161,0l0,-83l-420,0l0,83z" transform="translate(-.11) scale(.001)"/>
 </symbol>
 <symbol id="d">
  <path id="svg_4" d="m192,83l344,0l0,-83l-463,0l0,83c37,38 88,90 153,156c64,65 105,107 122,126c32,35 54,65 66,90c12,24 19,49 19,73c0,38 -14,70 -41,94s-62,37 -106,37c-31,0 -64,-6 -98,-16c-34,-11 -71,-27 -110,-49l0,100c40,16 77,28 111,36s66,12 95,12c75,0 135,-19 180,-57s68,-88 68,-151c0,-30 -6,-59 -17,-85c-11,-27 -31,-59 -61,-95c-8,-10 -34,-37 -78,-82s-105,-108 -184,-189z" transform="translate(-.073) scale(.001)"/>
 </symbol>
 <symbol id="e">
  <path id="svg_5" d="m0.33,0.406c0.047,-0.01 0.084,-0.031 0.11,-0.063s0.04,-0.072 0.04,-0.118c0,-0.072 -0.025,-0.128 -0.074,-0.167c-0.05,-0.039 -0.12,-0.058 -0.211,-0.058c-0.031,0 -0.063,0.003 -0.095,0.009c-0.032,0.005 -0.066,0.014 -0.1,0.026l0,0.095c0.027,-0.016 0.057,-0.028 0.09,-0.036c0.032,-0.008 0.066,-0.012 0.102,-0.012c0.062,0 0.109,0.012 0.141,0.036s0.049,0.06 0.049,0.107c0,0.042 -0.015,0.076 -0.045,0.1s-0.072,0.037 -0.126,0.037l-0.085,0l0,0.081l0.089,0c0.048,0 0.085,0.009 0.111,0.029c0.026,0.019 0.039,0.047 0.039,0.084s-0.014,0.066 -0.04,0.086c-0.027,0.02 -0.065,0.03 -0.114,0.03c-0.027,0 -0.056,-0.003 -0.087,-0.009s-0.065,-0.015 -0.102,-0.027l0,0.088c0.037,0.01 0.072,0.018 0.105,0.023c0.032,0.005 0.063,0.008 0.093,0.008c0.074,0 0.133,-0.017 0.177,-0.051s0.066,-0.08 0.066,-0.138c0,-0.04 -0.012,-0.074 -0.035,-0.102s-0.056,-0.048 -0.098,-0.058z"/>
 </symbol>
 <symbol id="f">
  <path id="svg_6" d="m-2,729l616,0l0,-83l-259,0l0,-646l-99,0l0,646l-258,0l0,83z" transform="translate(.002) scale(.001)"/>
 </symbol>
 <symbol id="g">
  <path id="svg_7" d="m94,547l90,0l0,-547l-90,0l0,547zm0,213l90,0l0,-114l-90,0l0,114z" transform="translate(-.094) scale(.001)"/>
 </symbol>
 <symbol id="h">
  <path id="svg_8" d="m520,442c22,40 49,69 80,89c31,19 68,29 111,29c56,0 100,-20 131,-60s47,-97 47,-170l0,-330l-90,0l0,327c0,52 -10,91 -28,117c-19,25 -47,38 -85,38c-47,0 -84,-16 -111,-47s-40,-73 -40,-126l0,-309l-90,0l0,327c0,52 -10,91 -28,117c-19,25 -48,38 -86,38c-46,0 -83,-16 -110,-47s-40,-73 -40,-126l0,-309l-90,0l0,547l90,0l0,-85c20,33 45,58 74,74c28,16 62,24 102,24s73,-10 101,-30s48,-50 62,-88z" transform="translate(-.091) scale(.001)"/>
 </symbol>
 <symbol id="i">
  <path id="svg_9" d="m0.507,0.309l0,-0.044l-0.413,0c0.004,-0.062 0.022,-0.11 0.056,-0.142c0.033,-0.032 0.079,-0.048 0.139,-0.048c0.034,0 0.068,0.004 0.1,0.012s0.065,0.021 0.097,0.039l0,-0.085c-0.032,-0.014 -0.065,-0.025 -0.099,-0.031s-0.069,-0.01 -0.103,-0.01c-0.088,0 -0.157,0.025 -0.208,0.075s-0.076,0.119 -0.076,0.206c0,0.089 0.024,0.16 0.072,0.213c0.048,0.052 0.114,0.079 0.196,0.079c0.074,0 0.132,-0.024 0.175,-0.071c0.042,-0.048 0.064,-0.112 0.064,-0.193zm-0.09,0.026c-0.001,0.049 -0.015,0.088 -0.041,0.118c-0.027,0.029 -0.063,0.044 -0.107,0.044c-0.05,0 -0.09,-0.015 -0.12,-0.043s-0.048,-0.068 -0.052,-0.119l0.32,0z"/>
 </symbol>
 <symbol id="k">
  <path id="svg_10" d="m0,0.891l0.207,0l0,-0.07l-0.117,0l0,-0.751l0.117,0l0,-0.07l-0.207,0l0,0.891z"/>
 </symbol>
 <symbol id="l">
  <path id="svg_11" d="m0.389,0.544l0,-0.085c-0.026,0.012 -0.052,0.022 -0.079,0.029c-0.028,0.006 -0.056,0.01 -0.085,0.01c-0.045,0 -0.079,-0.007 -0.101,-0.021s-0.033,-0.034 -0.033,-0.061c0,-0.021 0.008,-0.037 0.024,-0.049s0.048,-0.024 0.096,-0.034l0.031,-0.007c0.064,-0.014 0.109,-0.034 0.136,-0.058c0.026,-0.025 0.04,-0.06 0.04,-0.104c0,-0.051 -0.02,-0.091 -0.06,-0.12c-0.04,-0.03 -0.096,-0.044 -0.166,-0.044c-0.03,0 -0.06,0.003 -0.092,0.008s-0.065,0.013 -0.1,0.025l0,0.093c0.033,-0.018 0.066,-0.031 0.098,-0.039c0.032,-0.009 0.064,-0.013 0.096,-0.013c0.042,0 0.075,0.007 0.098,0.021c0.022,0.014 0.034,0.035 0.034,0.062c0,0.024 -0.009,0.043 -0.025,0.056s-0.052,0.026 -0.108,0.038l-0.031,0.007c-0.056,0.012 -0.097,0.03 -0.121,0.054c-0.025,0.024 -0.037,0.057 -0.037,0.1c0,0.051 0.018,0.091 0.054,0.119s0.088,0.042 0.156,0.042c0.033,0 0.064,-0.003 0.094,-0.008c0.029,-0.005 0.056,-0.012 0.081,-0.021z"/>
 </symbol>
 <symbol id="m">
  <path id="svg_12" d="m0.207,0.891l0,-0.891l-0.207,0l0,0.07l0.117,0l0,0.751l-0.117,0l0,0.07l0.207,0z"/>
 </symbol>
 <symbol id="n">
  <path id="svg_13" d="m378,643l-249,-389l249,0l0,389zm-26,86l124,0l0,-475l104,0l0,-82l-104,0l0,-172l-98,0l0,172l-329,0l0,95l303,462z" transform="translate(-.049) scale(.001)"/>
 </symbol>
 <symbol id="o">
  <path id="svg_14" d="m0.26,0.417c-0.044,0 -0.079,-0.016 -0.105,-0.046s-0.039,-0.072 -0.039,-0.124c0,-0.053 0.013,-0.095 0.039,-0.125s0.061,-0.045 0.105,-0.045s0.079,0.015 0.105,0.045s0.039,0.072 0.039,0.125c0,0.052 -0.013,0.094 -0.039,0.124s-0.061,0.046 -0.105,0.046zm0.196,0.309l0,-0.09c-0.025,0.012 -0.05,0.021 -0.075,0.027c-0.026,0.006 -0.051,0.009 -0.075,0.009c-0.066,0 -0.116,-0.022 -0.15,-0.066s-0.054,-0.111 -0.058,-0.199c0.019,0.028 0.043,0.05 0.072,0.065s0.061,0.023 0.096,0.023c0.073,0 0.131,-0.023 0.173,-0.067s0.064,-0.105 0.064,-0.181c0,-0.075 -0.023,-0.135 -0.067,-0.18s-0.103,-0.067 -0.176,-0.067c-0.084,0 -0.149,0.032 -0.193,0.096c-0.045,0.064 -0.067,0.158 -0.067,0.281c0,0.115 0.027,0.207 0.082,0.275c0.054,0.068 0.128,0.103 0.22,0.103c0.024,0 0.049,-0.003 0.075,-0.007c0.025,-0.005 0.051,-0.012 0.079,-0.022z"/>
 </symbol>
 <symbol id="p">
  <path id="svg_15" d="m82,729l469,0l0,-42l-265,-687l-103,0l249,646l-350,0l0,83z" transform="translate(-.082) scale(.001)"/>
 </symbol>
 <symbol id="q">
  <path id="svg_16" d="m197,648l0,-567l119,0c100,0 174,22 221,68c46,46 70,118 70,216s-24,169 -70,215c-47,45 -121,68 -221,68l-119,0zm-99,81l203,0c141,0 245,-30 311,-88c66,-59 99,-151 99,-276c0,-126 -34,-218 -100,-277s-170,-88 -310,-88l-203,0l0,729z" transform="translate(-.098) scale(.001)"/>
 </symbol>
 <symbol id="r">
  <path id="svg_17" d="m183,702l0,-155l185,0l0,-70l-185,0l0,-297c0,-45 6,-74 18,-86c12,-13 37,-19 75,-19l92,0l0,-75l-92,0c-70,0 -118,13 -144,39s-39,73 -39,141l0,297l-66,0l0,70l66,0l0,155l90,0z" transform="translate(-.027) scale(.001)"/>
 </symbol>
 <symbol id="s">
  <path id="svg_18" d="m0.283,0.288c-0.073,0 -0.123,-0.009 -0.151,-0.025c-0.028,-0.017 -0.042,-0.045 -0.042,-0.085c0,-0.032 0.01,-0.058 0.031,-0.076c0.021,-0.019 0.05,-0.028 0.086,-0.028c0.05,0 0.09,0.017 0.12,0.053c0.03,0.035 0.045,0.082 0.045,0.141l0,0.02l-0.089,0zm0.179,0.037l0,-0.312l-0.09,0l0,0.083c-0.021,-0.034 -0.047,-0.058 -0.077,-0.073s-0.068,-0.023 -0.112,-0.023c-0.056,0 -0.101,0.015 -0.134,0.046s-0.049,0.073 -0.049,0.126c0,0.061 0.02,0.107 0.062,0.139c0.041,0.031 0.102,0.047 0.184,0.047l0.126,0l0,0.009c0,0.041 -0.014,0.073 -0.041,0.096c-0.027,0.022 -0.065,0.034 -0.114,0.034c-0.032,0 -0.062,-0.004 -0.092,-0.012s-0.058,-0.019 -0.085,-0.033l0,0.083c0.032,0.012 0.064,0.022 0.095,0.028s0.061,0.01 0.091,0.01c0.079,0 0.138,-0.021 0.177,-0.062s0.059,-0.103 0.059,-0.186z"/>
 </symbol>
 <symbol id="t">
  <path id="svg_19" d="m549,330l0,-330l-90,0l0,327c0,52 -11,90 -31,116s-50,39 -90,39c-49,0 -87,-16 -115,-47s-42,-73 -42,-126l0,-309l-90,0l0,547l90,0l0,-85c21,32 46,57 76,73c29,16 63,25 101,25c62,0 110,-20 142,-59s49,-96 49,-171z" transform="translate(-.091) scale(.001)"/>
 </symbol>
 <symbol id="u">
  <path id="svg_20" d="m0.433,0.539l0,-0.084c-0.026,0.014 -0.051,0.024 -0.077,0.031s-0.051,0.011 -0.077,0.011c-0.058,0 -0.104,-0.019 -0.136,-0.056s-0.048,-0.089 -0.048,-0.155c0,-0.067 0.016,-0.119 0.048,-0.156s0.078,-0.055 0.136,-0.055c0.026,0 0.051,0.003 0.077,0.01s0.051,0.018 0.077,0.032l0,-0.083c-0.026,-0.012 -0.052,-0.021 -0.078,-0.026c-0.027,-0.005 -0.056,-0.008 -0.086,-0.008c-0.082,0 -0.148,0.025 -0.196,0.077c-0.049,0.051 -0.073,0.121 -0.073,0.209c0,0.089 0.024,0.159 0.073,0.21s0.116,0.077 0.202,0.077c0.028,0 0.055,-0.003 0.081,-0.009s0.052,-0.014 0.077,-0.025z"/>
 </symbol>
 <clipPath id="v">
  <path id="svg_21" d="m40.59,276.74799l266.113,0l0,-266.112l-266.113,0l0,266.112z"/>
 </clipPath>
 <clipPath id="w">
  <path id="svg_22" d="m40.59,276.74799l266.113,0l0,-266.112l-266.113,0l0,266.112z"/>
 </clipPath>
 <symbol id="x">
  <path id="svg_23" d="m0.396,0.286c0,0.066 -0.014,0.117 -0.041,0.155c-0.028,0.038 -0.065,0.057 -0.112,0.057c-0.048,0 -0.085,-0.019 -0.112,-0.057c-0.028,-0.038 -0.041,-0.089 -0.041,-0.155s0.013,-0.118 0.041,-0.156c0.027,-0.038 0.064,-0.056 0.112,-0.056c0.047,0 0.084,0.018 0.112,0.056c0.027,0.038 0.041,0.09 0.041,0.156zm-0.306,0.191c0.018,0.032 0.042,0.056 0.071,0.072s0.064,0.024 0.104,0.024c0.066,0 0.12,-0.027 0.162,-0.079c0.041,-0.053 0.062,-0.122 0.062,-0.208s-0.021,-0.156 -0.062,-0.208c-0.042,-0.052 -0.096,-0.078 -0.162,-0.078c-0.04,0 -0.075,0.008 -0.104,0.023s-0.053,0.039 -0.071,0.072l0,-0.082l-0.09,0l0,0.76l0.09,0l0,-0.296z"/>
 </symbol>
 <symbol id="y">
  <path id="svg_24" d="m42,547l90,0l112,-427l112,427l106,0l112,-427l112,427l90,0l-143,-547l-106,0l-118,448l-118,-448l-106,0l-143,547z" transform="translate(-.042) scale(.001)"/>
 </symbol>
 <symbol id="z">
  <path id="svg_25" d="m0.338,0.675c-0.072,0 -0.129,-0.027 -0.171,-0.08c-0.042,-0.054 -0.063,-0.126 -0.063,-0.218s0.021,-0.165 0.063,-0.218c0.042,-0.054 0.099,-0.08 0.171,-0.08c0.071,0 0.128,0.026 0.17,0.08c0.042,0.053 0.063,0.126 0.063,0.218s-0.021,0.164 -0.063,0.218c-0.042,0.053 -0.099,0.08 -0.17,0.08zm0,0.08c0.102,0 0.183,-0.035 0.245,-0.103c0.061,-0.068 0.092,-0.16 0.092,-0.275c0,-0.116 -0.031,-0.207 -0.092,-0.275c-0.062,-0.068 -0.143,-0.102 -0.245,-0.102c-0.103,0 -0.185,0.034 -0.246,0.102c-0.062,0.068 -0.092,0.159 -0.092,0.275c0,0.115 0.03,0.207 0.092,0.275c0.061,0.068 0.143,0.103 0.246,0.103z"/>
 </symbol>
 <symbol id="A">
  <path id="svg_26" d="m0.469,0.718l0,-0.096c-0.038,0.018 -0.073,0.031 -0.106,0.04c-0.034,0.008 -0.066,0.013 -0.096,0.013c-0.054,0 -0.096,-0.011 -0.125,-0.031c-0.029,-0.021 -0.043,-0.051 -0.043,-0.089c0,-0.032 0.009,-0.057 0.029,-0.073c0.019,-0.017 0.056,-0.03 0.11,-0.04l0.06,-0.012c0.073,-0.014 0.127,-0.039 0.162,-0.074c0.035,-0.036 0.053,-0.083 0.053,-0.142c0,-0.071 -0.024,-0.124 -0.071,-0.16c-0.048,-0.036 -0.117,-0.054 -0.208,-0.054c-0.035,0 -0.072,0.004 -0.111,0.011s-0.079,0.018 -0.12,0.034l0,0.102c0.04,-0.023 0.079,-0.04 0.117,-0.051c0.038,-0.012 0.076,-0.017 0.114,-0.017c0.056,0 0.099,0.011 0.13,0.033c0.03,0.022 0.046,0.053 0.046,0.095c0,0.036 -0.011,0.064 -0.033,0.084s-0.058,0.035 -0.108,0.045l-0.06,0.012c-0.074,0.014 -0.127,0.037 -0.16,0.069c-0.033,0.031 -0.049,0.074 -0.049,0.13c0,0.064 0.022,0.115 0.068,0.152c0.045,0.037 0.108,0.056 0.188,0.056c0.034,0 0.068,-0.003 0.104,-0.009c0.035,-0.006 0.071,-0.016 0.109,-0.028z"/>
 </symbol>
 <symbol id="B">
  <path id="svg_27" d="m0.399,0.477l0,0.296l0.09,0l0,-0.76l-0.09,0l0,0.082c-0.019,-0.033 -0.043,-0.057 -0.072,-0.072s-0.063,-0.023 -0.103,-0.023c-0.066,0 -0.12,0.026 -0.162,0.078s-0.062,0.122 -0.062,0.208s0.02,0.155 0.062,0.208c0.042,0.052 0.096,0.079 0.162,0.079c0.04,0 0.074,-0.008 0.103,-0.024s0.053,-0.04 0.072,-0.072zm-0.306,-0.191c0,-0.066 0.013,-0.118 0.04,-0.156s0.064,-0.056 0.112,-0.056s0.085,0.018 0.113,0.056c0.027,0.038 0.041,0.09 0.041,0.156s-0.014,0.117 -0.041,0.155c-0.028,0.038 -0.065,0.057 -0.113,0.057s-0.085,-0.019 -0.112,-0.057s-0.04,-0.089 -0.04,-0.155z"/>
 </symbol>
 <symbol id="C">
  <path id="svg_28" d="m107,124l103,0l0,-124l-103,0l0,124z" transform="translate(-.107) scale(.001)"/>
 </symbol>
 <symbol id="D">
  <path id="svg_29" d="m0.251,0.497c-0.048,0 -0.086,-0.019 -0.114,-0.057s-0.042,-0.089 -0.042,-0.154c0,-0.066 0.013,-0.117 0.041,-0.155s0.066,-0.056 0.115,-0.056c0.048,0 0.086,0.018 0.114,0.056s0.042,0.089 0.042,0.155c0,0.064 -0.014,0.116 -0.042,0.154s-0.066,0.057 -0.114,0.057zm0,0.076c0.078,0 0.139,-0.026 0.184,-0.076c0.044,-0.051 0.067,-0.121 0.067,-0.211s-0.023,-0.16 -0.067,-0.21c-0.045,-0.051 -0.106,-0.076 -0.184,-0.076c-0.079,0 -0.141,0.025 -0.185,0.076c-0.044,0.05 -0.066,0.12 -0.066,0.21s0.022,0.16 0.066,0.211c0.044,0.05 0.106,0.076 0.185,0.076z"/>
 </symbol>
 <symbol id="E">
  <path id="svg_30" d="m0,0.282l0.626,0l0,-0.082l-0.626,0l0,0.082zm0,-0.199l0.626,0l0,-0.083l-0.626,0l0,0.083z"/>
 </symbol>
 <symbol id="F">
  <path id="svg_31" d="m0.047,0.028l0,0.09c0.024,-0.012 0.049,-0.021 0.075,-0.027c0.025,-0.006 0.05,-0.009 0.075,-0.009c0.064,0 0.114,0.021 0.148,0.065s0.054,0.11 0.06,0.2c-0.02,-0.028 -0.044,-0.05 -0.072,-0.065c-0.029,-0.015 -0.061,-0.022 -0.096,-0.022c-0.074,0 -0.132,0.022 -0.174,0.066s-0.063,0.104 -0.063,0.181c0,0.074 0.022,0.134 0.066,0.18c0.044,0.045 0.103,0.068 0.177,0.068c0.084,0 0.149,-0.033 0.193,-0.097c0.044,-0.065 0.067,-0.159 0.067,-0.281c0,-0.116 -0.028,-0.207 -0.082,-0.275c-0.055,-0.068 -0.128,-0.102 -0.22,-0.102c-0.025,0 -0.05,0.003 -0.075,0.007c-0.026,0.004 -0.052,0.011 -0.079,0.021zm0.196,0.309c0.044,0 0.079,0.015 0.105,0.045s0.039,0.072 0.039,0.125c0,0.052 -0.013,0.094 -0.039,0.124s-0.061,0.046 -0.105,0.046s-0.079,-0.016 -0.105,-0.046s-0.039,-0.072 -0.039,-0.124c0,-0.053 0.013,-0.095 0.039,-0.125s0.061,-0.045 0.105,-0.045z"/>
 </symbol>
 <g>
  <title>Layer 1</title>
  <path id="svg_32" fill="#fff" d="m0.30303,314.292l313.903,0l0,-314.292l-313.903,0l0,314.292z"/>
  <path id="svg_33" fill="#fff" d="m40.59,276.748l266.113,0l0,-266.112l-266.113,0l0,266.112z"/>
  <path id="svg_34" d="m47.678,276.748l0,3.5" stroke="#000" fill="none" stroke-linejoin="round" stroke-width="0.8"/>
  <use id="svg_35" transform="matrix(10 0 0 -10 45.158 291.472)" xlink:href="#a"/>
  <path id="svg_36" d="m89.21,276.748l0,3.5" stroke="#000" fill="none" stroke-linejoin="round" stroke-width="0.8"/>
  <use id="svg_37" transform="matrix(10 0 0 -10 86.8 291.472)" xlink:href="#b"/>
  <path id="svg_38" d="m130.743,276.748l0,3.5" stroke="#000" fill="none" stroke-linejoin="round" stroke-width="0.8"/>
  <use id="svg_39" transform="matrix(10 0 0 -10 125.484 291.342)" xlink:href="#c"/>
  <use id="svg_40" transform="matrix(10 0 0 -10 131.404 291.472)" xlink:href="#a"/>
  <path id="svg_41" d="m172.276,276.748l0,3.5" stroke="#000" fill="none" stroke-linejoin="round" stroke-width="0.8"/>
  <use id="svg_42" transform="matrix(10 0 0 -10 167.017 291.342)" xlink:href="#c"/>
  <use id="svg_43" transform="matrix(10 0 0 -10 173.047 291.472)" xlink:href="#b"/>
  <path id="svg_44" d="m213.809,276.748l0,3.5" stroke="#000" fill="none" stroke-linejoin="round" stroke-width="0.8"/>
  <use id="svg_45" transform="matrix(10 0 0 -10 208.18 291.342)" xlink:href="#d"/>
  <use id="svg_46" transform="matrix(10 0 0 -10 214.47 291.472)" xlink:href="#a"/>
  <path id="svg_47" d="m255.342,276.748l0,3.5" stroke="#000" fill="none" stroke-linejoin="round" stroke-width="0.8"/>
  <use id="svg_48" transform="matrix(10 0 0 -10 249.712 291.342)" xlink:href="#d"/>
  <use id="svg_49" transform="matrix(10 0 0 -10 256.112 291.472)" xlink:href="#b"/>
  <path id="svg_50" d="m296.874,276.748l0,3.5" stroke="#000" fill="none" stroke-linejoin="round" stroke-width="0.8"/>
  <use id="svg_51" transform="matrix(10 0 0 -10 291.275 291.472)" xlink:href="#e"/>
  <use id="svg_52" transform="matrix(10 0 0 -10 297.535 291.472)" xlink:href="#a"/>
  <use id="svg_53" transform="matrix(10 0 0 -10 153.244 305.014)" xlink:href="#f"/>
  <use id="svg_54" transform="matrix(10 0 0 -10 160.017 305.014)" xlink:href="#g"/>
  <use id="svg_55" transform="matrix(10 0 0 -10 162.767 305.014)" xlink:href="#h"/>
  <use id="svg_56" transform="matrix(10 0 0 -10 172.147 305.144)" xlink:href="#i"/>
  <use id="svg_57" transform="matrix(10 0 0 -10 177.747 305.014)" xlink:href="#j"/>
  <use id="svg_58" transform="matrix(10 0 0 -10 181.787 306.324)" xlink:href="#k"/>
  <use id="svg_59" transform="matrix(10 0 0 -10 185.367 305.144)" xlink:href="#l"/>
  <use id="svg_60" transform="matrix(10 0 0 -10 191.007 306.324)" xlink:href="#m"/>
  <path id="svg_61" d="m40.59,237.354l-3.5,0" stroke="#000" fill="none" stroke-linejoin="round" stroke-width="0.8"/>
  <use id="svg_62" transform="matrix(10 0 0 -10 21.602 241.15)" xlink:href="#d"/>
  <use id="svg_63" transform="matrix(10 0 0 -10 27.892 241.28)" xlink:href="#a"/>
  <path id="svg_64" d="m40.59,192.082l-3.5,0" stroke="#000" fill="none" stroke-linejoin="round" stroke-width="0.8"/>
  <use id="svg_65" transform="matrix(10 0 0 -10 21.632 196.01)" xlink:href="#e"/>
  <use id="svg_66" transform="matrix(10 0 0 -10 27.892 196.01)" xlink:href="#a"/>
  <path id="svg_67" d="m40.59,146.81l-3.5,0" stroke="#000" fill="none" stroke-linejoin="round" stroke-width="0.8"/>
  <use id="svg_68" transform="matrix(10 0 0 -10 21.362 150.608)" xlink:href="#n"/>
  <use id="svg_69" transform="matrix(10 0 0 -10 27.892 150.738)" xlink:href="#a"/>
  <path id="svg_70" d="m40.59,101.54l-3.5,0" stroke="#000" fill="none" stroke-linejoin="round" stroke-width="0.8"/>
  <use id="svg_71" transform="matrix(10 0 0 -10 21.642 105.466)" xlink:href="#b"/>
  <use id="svg_72" transform="matrix(10 0 0 -10 27.892 105.466)" xlink:href="#a"/>
  <path id="svg_73" d="m40.59,56.268l-3.5,0" stroke="#000" fill="none" stroke-linejoin="round" stroke-width="0.8"/>
  <use id="svg_74" transform="matrix(10 0 0 -10 21.572 60.195)" xlink:href="#o"/>
  <use id="svg_75" transform="matrix(10 0 0 -10 27.892 60.195)" xlink:href="#a"/>
  <path id="svg_76" d="m40.59,10.997l-3.5,0" stroke="#000" fill="none" stroke-linejoin="round" stroke-width="0.8"/>
  <use id="svg_77" transform="matrix(10 0 0 -10 21.692 14.794)" xlink:href="#p"/>
  <use id="svg_78" transform="matrix(10 0 0 -10 27.892 14.924)" xlink:href="#a"/>
  <use id="svg_79" transform="matrix(0 -10 -10 0 14.794 174.962)" xlink:href="#q"/>
  <use id="svg_80" transform="matrix(0 -10 -10 0 14.794 167.302)" xlink:href="#g"/>
  <use id="svg_81" transform="rotate(-90 17.785 162.83) scale(10 10)" xlink:href="#l"/>
  <use id="svg_82" transform="matrix(0 -10 -10 0 14.794 159.982)" xlink:href="#r"/>
  <use id="svg_83" transform="matrix(0 -10 -10 0 14.924 155.732)" xlink:href="#s"/>
  <use id="svg_84" transform="matrix(0 -10 -10 0 14.794 149.292)" xlink:href="#t"/>
  <use id="svg_85" transform="matrix(0 -10 -10 0 14.924 143.312)" xlink:href="#u"/>
  <use id="svg_86" transform="matrix(0 -10 -10 0 14.924 137.812)" xlink:href="#i"/>
  <use id="svg_87" transform="rotate(-90 14.8 132.2) scale(10 10)" xlink:href="#j"/>
  <use id="svg_88" transform="matrix(0 -10 -10 0 16.104 128.172)" xlink:href="#k"/>
  <use id="svg_89" transform="matrix(0 -10 -10 0 14.794 124.222)" xlink:href="#h"/>
  <use id="svg_90" transform="matrix(0 -10 -10 0 16.104 114.422)" xlink:href="#m"/>
  <g id="svg_91" clip-path="url(#v)">
   <path id="svg_92" d="m52.687,22.732l0.257,0.307l0.233,-0.091l0.282,0.454l0.125,0.127l0.15,-0.11l0.307,0.256l0.132,0.397l0.457,0.29l0.142,0.15l0.157,-0.139l0.266,0.608l0.158,-0.15l0.133,0.478l0.482,0.34l0.158,-0.162l0.29,0.347l0.316,0.722l0.307,0.385l0.216,-0.182l0.133,0.58l0.141,-0.186l0.133,0.598l0.258,-0.19l0.523,0.639l0.3,0.871l0.165,0.233l0.1,-0.201l0.133,0.678l0.224,-0.204l0.424,0.946l0.15,-0.208l0.182,0.717l0.183,-0.21l0.133,0.257l0.157,0.738l0.117,-0.215l0.166,0.75l0.25,-0.217l0.323,0.543l0.332,1.051l0.54,0.85l0.133,0.287l0.083,-0.226l0.283,1.096l0.157,-0.23l0.183,0.818l0.2,0.295l0.216,-0.232l0.224,1.126l0.183,0.3l0.199,-0.237l0.158,0.84l0.108,-0.238l0.473,0.606l0.108,0.852l0.108,-0.241l0.349,1.165l0.307,0.62l0.532,0.939l0.108,-0.247l0.24,0.876l0.109,-0.247l0.2,0.88l0.207,-0.249l0.1,0.885l0.249,-0.25l0.606,1.852l0.166,-0.252l0.83,2.191l0.375,0.65l0.282,0.653l0.191,0.326l0.166,-0.255l0.117,0.91l0.199,-0.257l0.382,1.239l0.1,-0.257l0.631,0.983l0.133,0.328l0.15,0.914l0.149,-0.258l0.29,1.243l0.15,0.329l0.283,0.328l0.108,-0.26l0.332,1.246l0.465,0.984l0.15,0.328l0.157,-0.261l0.275,0.917l0.09,-0.262l0.15,0.328l0.3,1.244l0.207,-0.262l0.15,0.917l0.14,-0.262l0.25,0.916l0.15,-0.263l0.157,0.916l0.142,-0.263l0.307,1.24l0.2,-0.263l0.165,0.914l0.25,0.324l0.116,-0.264l0.274,1.236l0.498,0.969l0.3,0.322l0.215,0.643l0.208,-0.267l0.158,0.321l0.316,1.227l0.282,0.637l0.257,0.318l0.108,-0.267l0.15,0.318l0.141,0.902l0.208,-0.266l0.29,1.218l0.325,0.316l0.456,0.947l0.133,-0.266l0.283,1.211l0.166,0.315l0.116,-0.267l0.233,0.894l0.158,-0.267l0.15,0.893l0.165,0.313l0.224,-0.267l0.15,0.312l0.324,1.202l0.208,-0.268l0.282,1.2l0.324,0.619l0.2,-0.269l0.29,1.195l0.233,-0.269l0.14,0.885l0.167,-0.269l0.29,1.19l0.117,-0.268l0.59,0.918l0.224,0.88l0.083,-0.27l0.15,0.306l0.133,0.878l0.24,0.304l0.158,-0.27l0.615,1.787l0.15,-0.27l0.199,0.303l0.324,1.176l0.299,0.301l0.299,0.602l0.124,-0.27l0.3,1.172l0.14,0.3l0.217,-0.27l0.382,0.6l0.274,1.165l0.141,-0.27l0.307,0.596l0.233,0.864l0.15,-0.27l0.423,1.16l0.457,0.89l0.141,-0.27l0.507,1.45l0.15,-0.27l0.124,0.86l0.515,0.883l0.133,-0.27l0.141,0.294l0.25,0.858l0.116,-0.27l0.15,0.856l0.323,0.293l0.067,-0.27l0.274,1.148l0.515,0.585l0.083,-0.27l0.307,1.145l0.125,-0.27l0.307,0.582l0.133,0.852l0.274,0.29l0.258,0.582l0.199,0.29l0.15,-0.27l0.307,0.579l0.324,0.29l0.24,1.137l0.914,1.152l1.188,1.434l2.6,2.863l2.11,4.266l0.573,0.851l1.38,2.547l0.813,1.698l4.436,8.155l0.947,1.117l1.204,1.392l0.465,0.556l0.98,1.39l0.283,0.278l0.216,0.556l0.457,0.556l0.465,1.112l0.723,0.835l0.19,0.007l0.233,0.826l0.283,0.278l0.224,0.555l0.274,0.278l0.623,1.387l0.283,0.277l0.647,1.109l0.499,0.83l0.714,1.106l0.233,0.554l0.257,0.276l0.183,0.554l0.24,0.277l0.217,0.006l0.482,1.099l0.199,0.275l0.208,0.55l0.257,0.275l0.233,0.006l0.158,0.275l0.257,0.82l0.233,0.274l0.398,0.824l2.443,3.82l0.199,0.547l0.25,0.273l0.88,1.642l0.531,0.547l1.18,2.187l1.163,1.912l0.274,0.546l0.515,0.547l0.332,0.82l0.656,1.096l2.077,3.286l0.531,0.82l0.25,0.274l2.326,4.104l0.232,0.273l0.2,0.545l0.531,0.546l0.3,0.82l0.29,0.274l0.457,0.819l0.432,0.546l0.207,0.548l0.266,0.274l0.482,0.824l0.224,0.274l0.233,0.548l0.282,0.004l0.241,0.817l0.731,1.35l0.474,0.533l0.68,1.053l0.275,0.777l0.756,1.27l0.747,1.003l1.28,2.266l0.448,0.76l1.163,2.011l0.714,0.991l1.03,1.512l0.557,1.02l0.615,0.76l0.855,1.25l1.362,1.24l0.607,0.995l4.112,6.297l0.249,0.495l0.581,0.495l0.806,1.495l0.747,0.986l0.225,0.488l0.257,0.244l0.956,1.213l0.29,0.177l0.35,1.023l0.257,0.238l0.888,1.43l0.499,0.475l0.315,0.707l0.806,0.941l0.366,0.47l0.423,0.699l3.323,4.566l0.25,-0.094l0.257,0.76l0.29,0.442l0.34,0.22l0.325,0.657l3.24,4.087l0.348,0.64l0.274,0.213l3.68,4.591l0.208,0.202l0.349,0.6l0.299,0.2l0.573,0.792l0.266,-0.135l0.332,0.918l0.258,0.194l0.49,0.582l0.531,0.58l0.482,0.577l0.233,0.191l1.379,1.705l0.523,0.374l0.448,0.555l0.324,0.373l0.291,0.563l2.093,2.695l0.731,0.763l0.914,1.1l0.615,0.717l1.453,1.775l0.831,0.878l0.507,0.52l0.573,0.515l0.482,0.342l1.952,1.519l0.265,0.332l0.283,0.165l0.208,0.329l0.24,0.164l0.266,0.33l0.274,0.642l0.316,-0.147l1.42,1.49l0.258,0.165l0.24,0.327l0.267,0.163l1.395,1.44l0.29,0.156l0.45,0.468l1.328,1.397l0.258,0.157l0.415,0.472l0.266,0.158l0.266,-0.12l0.49,0.891l0.88,0.752l3.082,2.465l0.3,0.366l3.895,2.344l0.374,0.274l0.19,0.09l0.184,0.426l0.174,-0.17l4.884,1.829l3.232,0.566l1.196,-0.105l0.739,-0.118l0.174,-0.202l0.15,0.148l0.166,-0.199l0.15,0.142l0.15,-0.03l0.149,-0.193l0.15,0.132l0.232,-0.19l0.183,0.128l0.431,-0.096l0.308,-0.208l0.963,-0.18l0.333,0.066l0.39,-0.063l0.1,-0.15l0.14,0.09l0.192,-0.144l0.407,0.057l1.753,-0.369l0.216,0.063l0.1,-0.103l0.365,0.039l0.357,-0.11l3.156,-0.175l0.449,0.002l2.741,0.16l1.014,0.068l0.29,0.072l0.582,0.007l3.979,0.173l2.633,-0.026l0.158,-0.162l0.133,0.128l0.315,-0.038l0.15,-0.175l0.158,0.133l0.166,-0.182l0.232,0.136l0.316,-0.216l0.29,-0.058l0.341,0.113l0.166,-0.208l0.39,0.114l0.192,-0.218l0.133,0.15l0.15,-0.225l0.697,-0.163l0.141,0.155l0.158,-0.244l0.174,-0.046l0.167,0.159l0.132,-0.047l0.333,-0.308l0.814,-0.27l0.174,0.166l0.532,-0.174l0.158,-0.294l0.14,0.172l0.142,-0.063l0.216,-0.304l0.158,0.174l0.15,-0.066l0.232,-0.313l0.158,0.177l0.158,-0.319l0.15,0.178l0.174,-0.325l0.132,0.18l0.167,-0.074l0.14,-0.335l0.516,-0.238l0.324,-0.163l0.15,0.186l0.215,-0.355l0.15,0.187l0.158,-0.087l0.407,-0.455l0.14,-0.092l0.142,0.19l0.141,-0.377l0.166,-0.095l0.142,0.193l0.398,-0.483l0.141,0.195l0.781,-0.503l0.34,-0.407l0.059,0.199l0.141,-0.104l0.316,-0.524l0.141,-0.11l0.208,0.202l0.315,-0.538l0.241,0.203l0.166,-0.113l0.142,-0.435l0.332,-0.233l0.133,0.206l0.324,-0.564l0.207,0.21l0.15,-0.121l0.158,-0.454l0.141,0.21l0.166,-0.458l0.64,-0.378l0.133,0.215l0.157,-0.127l0.283,-0.603l0.158,0.217l0.166,-0.48l0.15,0.22l0.157,-0.484l0.582,-0.404l0.166,0.222l0.15,-0.136l0.174,-0.497l0.116,0.223l0.407,-0.276l0.158,-0.505l0.141,0.226l0.141,-0.51l0.308,-0.287l0.15,0.227l0.149,-0.518l0.232,-0.146l0.158,0.229l0.15,-0.147l0.49,-0.826l0.133,0.231l0.357,-0.302l0.141,-0.538l0.174,-0.154l0.233,0.232l0.091,-0.543l0.142,0.234l0.166,-0.156l0.523,-0.868l0.141,0.236l0.374,-0.717l0.457,-0.489l0.166,0.238l0.2,-0.567l0.132,0.239l0.191,-0.57l0.183,0.239l0.141,-0.574l0.208,0.24l0.208,-0.167l0.24,-0.748l0.167,0.242l0.174,-0.17l0.15,-0.585l0.157,0.242l0.2,-0.588l0.274,-0.174l0.091,0.244l0.117,-0.174l0.182,-0.595l0.108,0.245l0.183,-0.597l0.224,0.245l0.457,-0.779l0.083,0.247l0.117,-0.179l0.124,-0.606l0.175,-0.18l0.182,0.247l0.166,-0.61l0.208,0.248l0.233,-0.613l0.157,0.249l0.142,-0.183l0.15,-0.618l0.165,-0.185l0.133,0.25l0.715,-0.745l0.157,-0.627l0.142,0.252l0.157,-0.63l0.15,0.252l0.166,-0.189l0.166,-0.633l0.382,-0.383l0.2,0.253l0.216,-0.385l0.407,-0.834l0.14,0.254l0.366,-0.839l0.133,0.255l0.291,-0.392l0.366,-0.847l0.14,0.256l0.283,-0.653l0.116,0.257l0.416,-0.598l0.232,-0.2l0.3,-0.86l0.249,0.257l0.15,-0.201l0.29,-0.867l0.141,0.259l0.15,-0.203l0.174,-0.667l0.15,0.259l0.39,-0.875l0.15,0.26l0.29,-0.88l0.224,0.26l0.167,-0.206l0.157,-0.676l0.225,-0.208l0.174,0.26l0.141,-0.678l0.233,0.26l0.548,-1.31l0.241,0.262l0.29,-0.894l0.15,0.262l0.316,-0.898l0.141,-0.213l0.15,0.262l0.299,-0.689l0.091,0.263l0.166,-0.691l0.764,-1.079l0.241,0.264l0.333,-0.914l0.448,-0.654l0.399,-0.438l0.2,0.264l0.14,-0.22l0.316,-0.924l0.133,0.264l0.307,-0.927l0.125,0.264l0.399,-0.931" stroke="#00f" fill="none" stroke-linejoin="round" stroke-linecap="square" stroke-width="2.5"/>
  </g>
  <g id="svg_93" clip-path="url(#w)">
   <path id="svg_94" fill="orange" d="m220.802,267.652l6,-6m-6,0l6,6"/>
   <path id="svg_95" d="m220.802,267.652l6,-6m-6,0l6,6" stroke="orange" fill="none" stroke-linejoin="round" stroke-width="2.5"/>
  </g>
  <path id="svg_96" d="m40.59,276.748l0,-266.112m266.113,266.112l0,-266.112m-266.113,266.112l266.113,0m-266.113,-266.112l266.113,0" stroke="#000" fill="none" stroke-miterlimit="10" stroke-linecap="square" stroke-width="0.8"/>
  <path id="svg_97" fill-opacity="0.8" fill="#fff" d="m105.328,47.98l194.375,0c1.333,0 2,-0.667 2,-2l0,-28.344c0,-1.333 -0.667,-2 -2,-2l-194.375,0c-1.334,0 -2,0.667 -2,2l0,28.344c0,1.333 0.666,2 2,2z"/>
  <path id="svg_98" d="m105.328,47.98l194.375,0c1.333,0 2,-0.667 2,-2l0,-28.344c0,-1.333 -0.667,-2 -2,-2l-194.375,0c-1.334,0 -2,0.667 -2,2l0,28.344c0,1.333 0.666,2 2,2z" stroke-opacity="0.8" stroke="#d5d6d5" fill="none" stroke-miterlimit="10"/>
  <path id="svg_99" d="m107.328,23.73l20,0" stroke="#00f" fill="none" stroke-linejoin="round" stroke-linecap="square" stroke-width="2.5"/>
  <use id="svg_100" transform="matrix(10 0 0 -10 136.308 27.23)" xlink:href="#q"/>
  <use id="svg_101" transform="matrix(10 0 0 -10 143.968 27.23)" xlink:href="#g"/>
  <use id="svg_102" transform="matrix(10 0 0 -10 146.348 27.36)" xlink:href="#l"/>
  <use id="svg_103" transform="matrix(10 0 0 -10 151.288 27.23)" xlink:href="#r"/>
  <use id="svg_104" transform="matrix(10 0 0 -10 155.538 27.36)" xlink:href="#s"/>
  <use id="svg_105" transform="matrix(10 0 0 -10 161.978 27.23)" xlink:href="#t"/>
  <use id="svg_106" transform="matrix(10 0 0 -10 167.958 27.36)" xlink:href="#u"/>
  <use id="svg_107" transform="matrix(10 0 0 -10 173.458 27.36)" xlink:href="#i"/>
  <use id="svg_108" transform="matrix(10 0 0 -10 179.058 27.23)" xlink:href="#j"/>
  <use id="svg_109" transform="matrix(10 0 0 -10 183.148 27.36)" xlink:href="#x"/>
  <use id="svg_110" transform="matrix(10 0 0 -10 189.138 27.36)" xlink:href="#i"/>
  <use id="svg_111" transform="matrix(10 0 0 -10 195.008 27.23)" xlink:href="#r"/>
  <use id="svg_112" transform="matrix(10 0 0 -10 199.078 27.23)" xlink:href="#y"/>
  <use id="svg_113" transform="matrix(10 0 0 -10 207.388 27.36)" xlink:href="#i"/>
  <use id="svg_114" transform="matrix(10 0 0 -10 213.538 27.36)" xlink:href="#i"/>
  <use id="svg_115" transform="matrix(10 0 0 -10 220.048 27.23)" xlink:href="#t"/>
  <use id="svg_116" transform="matrix(10 0 0 -10 225.478 27.23)" xlink:href="#j"/>
  <use id="svg_117" transform="matrix(10 0 0 -10 229.218 27.36)" xlink:href="#z"/>
  <use id="svg_118" transform="matrix(10 0 0 -10 237.188 27.36)" xlink:href="#A"/>
  <use id="svg_119" transform="matrix(10 0 0 -10 242.878 27.23)" xlink:href="#j"/>
  <use id="svg_120" transform="matrix(10 0 0 -10 246.658 27.36)" xlink:href="#s"/>
  <use id="svg_121" transform="matrix(10 0 0 -10 253.098 27.23)" xlink:href="#t"/>
  <use id="svg_122" transform="matrix(10 0 0 -10 259.078 27.36)" xlink:href="#B"/>
  <use id="svg_123" transform="matrix(10 0 0 -10 264.878 27.23)" xlink:href="#j"/>
  <use id="svg_124" transform="matrix(10 0 0 -10 268.038 27.23)" xlink:href="#f"/>
  <use id="svg_125" transform="matrix(10 0 0 -10 274.828 27.36)" xlink:href="#A"/>
  <use id="svg_126" transform="matrix(10 0 0 -10 280.518 27.23)" xlink:href="#j"/>
  <use id="svg_127" transform="matrix(10 0 0 -10 284.798 27.23)" xlink:href="#c"/>
  <path id="svg_128" fill="orange" d="m114.328,42.277l6,-6m-6,0l6,6"/>
  <path id="svg_129" d="m114.328,42.277l6,-6m-6,0l6,6" stroke="orange" fill="none" stroke-linejoin="round" stroke-width="2.5"/>
  <use id="svg_130" transform="matrix(10 0 0 -10 136.238 41.902)" xlink:href="#h"/>
  <use id="svg_131" transform="matrix(10 0 0 -10 146.008 41.902)" xlink:href="#g"/>
  <use id="svg_132" transform="matrix(10 0 0 -10 148.758 41.902)" xlink:href="#t"/>
  <use id="svg_133" transform="matrix(10 0 0 -10 155.258 41.902)" xlink:href="#C"/>
  <use id="svg_134" transform="matrix(10 0 0 -10 157.368 41.902)" xlink:href="#j"/>
  <use id="svg_135" transform="matrix(10 0 0 -10 161.098 42.032)" xlink:href="#B"/>
  <use id="svg_136" transform="matrix(10 0 0 -10 167.838 41.902)" xlink:href="#g"/>
  <use id="svg_137" transform="matrix(10 0 0 -10 170.218 42.032)" xlink:href="#l"/>
  <use id="svg_138" transform="matrix(10 0 0 -10 175.158 41.902)" xlink:href="#r"/>
  <use id="svg_139" transform="matrix(10 0 0 -10 179.408 42.032)" xlink:href="#s"/>
  <use id="svg_140" transform="matrix(10 0 0 -10 185.848 41.902)" xlink:href="#t"/>
  <use id="svg_141" transform="matrix(10 0 0 -10 191.828 42.032)" xlink:href="#u"/>
  <use id="svg_142" transform="matrix(10 0 0 -10 197.328 42.032)" xlink:href="#i"/>
  <use id="svg_143" transform="matrix(10 0 0 -10 202.928 41.902)" xlink:href="#j"/>
  <use id="svg_144" transform="matrix(10 0 0 -10 206.378 41.902)" xlink:href="#r"/>
  <use id="svg_145" transform="matrix(10 0 0 -10 210.578 42.032)" xlink:href="#D"/>
  <use id="svg_146" transform="matrix(10 0 0 -10 216.148 41.902)" xlink:href="#j"/>
  <use id="svg_147" transform="matrix(10 0 0 -10 219.308 41.902)" xlink:href="#f"/>
  <use id="svg_148" transform="matrix(10 0 0 -10 226.098 42.032)" xlink:href="#A"/>
  <use id="svg_149" transform="matrix(10 0 0 -10 231.788 41.902)" xlink:href="#j"/>
  <use id="svg_150" transform="matrix(10 0 0 -10 236.068 41.902)" xlink:href="#c"/>
  <use id="svg_151" transform="matrix(10 0 0 -10 241.328 41.902)" xlink:href="#j"/>
  <use id="svg_152" transform="matrix(10 0 0 -10 245.568 40.182)" xlink:href="#E"/>
  <use id="svg_153" transform="matrix(10 0 0 -10 252.888 41.902)" xlink:href="#j"/>
  <use id="svg_154" transform="matrix(10 0 0 -10 257.168 41.902)" xlink:href="#c"/>
  <use id="svg_155" transform="matrix(10 0 0 -10 263.188 42.032)" xlink:href="#e"/>
  <use id="svg_156" transform="matrix(10 0 0 -10 269.858 41.902)" xlink:href="#C"/>
  <use id="svg_157" transform="matrix(10 0 0 -10 272.598 42.032)" xlink:href="#F"/>
  <use id="svg_158" transform="matrix(10 0 0 -10 279.148 41.902)" xlink:href="#p"/>
  <use id="svg_159" transform="matrix(10 0 0 -10 284.688 41.902)" xlink:href="#j"/>
  <use id="svg_160" transform="matrix(10 0 0 -10 288.778 41.902)" xlink:href="#h"/>
  <use x="-17.56455" y="13.9149" id="svg_161" transform="rotate(89.4653 11.8115 163.13) matrix(10 0 0 -10 185.367 305.144)" xlink:href="#l"/>
 </g>
</svg>