<svg xmlns="http://www.w3.org/2000/svg" xmlns:xlink="http://www.w3.org/1999/xlink" width="307pt" height="298pt" viewBox="0 0 307 298"><clipPath id="a"><path transform="matrix(1 0 0 -1 -7 305)" d="M0 0h320.262v310.856H0z"/></clipPath><g clip-path="url(#a)"><path d="M-7 305h320.262V-5.856H-7z" fill="#fff"/><path d="M39.95 267.456h266.112V1.344H39.95z" fill="#fff"/><path stroke-width=".8" stroke-linejoin="round" fill="none" stroke="#000" d="M47.037 267.456v3.5"/><symbol id="b"><path transform="matrix(.001 0 0 .001 -.066 .013)" d="M318 664c-51 0-89-25-115-75s-38-125-38-225 12-175 38-225 64-75 115-75 89 25 115 75c25 50 38 125 38 225s-13 175-38 225c-26 50-64 75-115 75zm0 78c81 0 143-33 187-97 43-65 65-159 65-281 0-123-22-217-65-281-44-64-106-96-188-96S173 19 130 83 66 241 66 364c0 122 21 216 64 281 43 64 106 97 188 97z"/></symbol><use xlink:href="#b" transform="matrix(10 0 0 -10 44.517 282.18)"/><path stroke-width=".8" stroke-linejoin="round" fill="none" stroke="#000" d="M88.57 267.456v3.5"/><symbol id="c"><path transform="matrix(.001 0 0 .001 -.077 .013)" d="M108 729h387v-83H198V467c14 5 29 9 43 11s29 4 43 4c81 0 145-23 193-67 48-45 72-105 72-181 0-79-25-140-74-183S357-13 269-13c-31 0-62 3-94 7-32 5-64 12-98 23v99c29-16 59-28 91-36 31-8 64-11 99-11 56 0 101 14 134 44 32 30 49 70 49 121 0 50-17 90-49 120-33 30-78 45-134 45-26 0-53-3-79-9s-53-15-80-27v366z"/></symbol><use xlink:href="#c" transform="matrix(10 0 0 -10 86.16 282.18)"/><path stroke-width=".8" stroke-linejoin="round" fill="none" stroke="#000" d="M130.103 267.456v3.5"/><symbol id="d"><path transform="translate(-.11) scale(.001)" d="M124 83h161v556l-175-35v90l174 35h99V83h161V0H124v83z"/></symbol><use xlink:href="#d" transform="matrix(10 0 0 -10 124.843 282.05)"/><use xlink:href="#b" transform="matrix(10 0 0 -10 130.763 282.18)"/><path stroke-width=".8" stroke-linejoin="round" fill="none" stroke="#000" d="M171.635 267.456v3.5"/><use xlink:href="#d" transform="matrix(10 0 0 -10 166.376 282.05)"/><use xlink:href="#c" transform="matrix(10 0 0 -10 172.406 282.18)"/><path stroke-width=".8" stroke-linejoin="round" fill="none" stroke="#000" d="M213.168 267.456v3.5"/><symbol id="e"><path transform="translate(-.073) scale(.001)" d="M192 83h344V0H73v83c37 38 88 90 153 156 64 65 105 107 122 126 32 35 54 65 66 90 12 24 19 49 19 73 0 38-14 70-41 94s-62 37-106 37c-31 0-64-6-98-16-34-11-71-27-110-49v100c40 16 77 28 111 36s66 12 95 12c75 0 135-19 180-57s68-88 68-151c0-30-6-59-17-85-11-27-31-59-61-95-8-10-34-37-78-82S271 164 192 83z"/></symbol><use xlink:href="#e" transform="matrix(10 0 0 -10 207.539 282.05)"/><use xlink:href="#b" transform="matrix(10 0 0 -10 213.829 282.18)"/><path stroke-width=".8" stroke-linejoin="round" fill="none" stroke="#000" d="M254.7 267.456v3.5"/><use xlink:href="#e" transform="matrix(10 0 0 -10 249.072 282.05)"/><use xlink:href="#c" transform="matrix(10 0 0 -10 255.472 282.18)"/><path stroke-width=".8" stroke-linejoin="round" fill="none" stroke="#000" d="M296.234 267.456v3.5"/><symbol id="f"><path transform="matrix(.001 0 0 .001 -.076 .013)" d="M406 393c47-10 84-31 110-63s40-72 40-118c0-72-25-128-74-167-50-39-120-58-211-58-31 0-63 3-95 9-32 5-66 14-100 26v95c27-16 57-28 90-36 32-8 66-12 102-12 62 0 109 12 141 36s49 60 49 107c0 42-15 76-45 100s-72 37-126 37h-85v81h89c48 0 85 9 111 29 26 19 39 47 39 84s-14 66-40 86c-27 20-65 30-114 30-27 0-56-3-87-9s-65-15-102-27v88c37 10 72 18 105 23 32 5 63 8 93 8 74 0 133-17 177-51s66-80 66-138c0-40-12-74-35-102s-56-48-98-58z"/></symbol><use xlink:href="#f" transform="matrix(10 0 0 -10 290.634 282.18)"/><use xlink:href="#b" transform="matrix(10 0 0 -10 296.894 282.18)"/><symbol id="g"><path transform="translate(.002) scale(.001)" d="M-2 729h616v-83H355V0h-99v646H-2v83z"/></symbol><symbol id="h"><path transform="translate(-.094) scale(.001)" d="M94 547h90V0H94v547zm0 213h90V646H94v114z"/></symbol><symbol id="i"><path transform="translate(-.091) scale(.001)" d="M520 442c22 40 49 69 80 89 31 19 68 29 111 29 56 0 100-20 131-60s47-97 47-170V0h-90v327c0 52-10 91-28 117-19 25-47 38-85 38-47 0-84-16-111-47s-40-73-40-126V0h-90v327c0 52-10 91-28 117-19 25-48 38-86 38-46 0-83-16-110-47s-40-73-40-126V0H91v547h90v-85c20 33 45 58 74 74 28 16 62 24 102 24s73-10 101-30 48-50 62-88z"/></symbol><symbol id="j"><path transform="matrix(.001 0 0 .001 -.055 .013)" d="M562 296v-44H149c4-62 22-110 56-142 33-32 79-48 139-48 34 0 68 4 100 12s65 21 97 39V28c-32-14-65-25-99-31s-69-10-103-10c-88 0-157 25-208 75S55 181 55 268c0 89 24 160 72 213 48 52 114 79 196 79 74 0 132-24 175-71 42-48 64-112 64-193zm-90 26c-1 49-15 88-41 118-27 29-63 44-107 44-50 0-90-15-120-43s-48-68-52-119h320z"/></symbol><symbol id="l"><path transform="matrix(.001 0 0 .001 -.086 .131)" d="M86 760h207v-70H176V-61h117v-70H86v891z"/></symbol><symbol id="m"><path transform="matrix(.001 0 0 .001 -.054 .013)" d="M443 531v-85c-26 12-52 22-79 29-28 6-56 10-85 10-45 0-79-7-101-21s-33-34-33-61c0-21 8-37 24-49s48-24 96-34l31-7c64-14 109-34 136-58 26-25 40-60 40-104 0-51-20-91-60-120-40-30-96-44-166-44-30 0-60 3-92 8S89 8 54 20v93c33-18 66-31 98-39 32-9 64-13 96-13 42 0 75 7 98 21 22 14 34 35 34 62 0 24-9 43-25 56s-52 26-108 38l-31 7c-56 12-97 30-121 54-25 24-37 57-37 100 0 51 18 91 54 119s88 42 156 42c33 0 64-3 94-8 29-5 56-12 81-21z"/></symbol><symbol id="n"><path transform="matrix(.001 0 0 .001 -.097 .131)" d="M304 760v-891H97v70h117v751H97v70h207z"/></symbol><use xlink:href="#g" transform="matrix(10 0 0 -10 152.603 295.722)"/><use xlink:href="#h" transform="matrix(10 0 0 -10 159.376 295.722)"/><use xlink:href="#i" transform="matrix(10 0 0 -10 162.126 295.722)"/><use xlink:href="#j" transform="matrix(10 0 0 -10 171.506 295.852)"/><use xlink:href="#k" transform="matrix(10 0 0 -10 177.106 295.722)"/><use xlink:href="#l" transform="matrix(10 0 0 -10 181.146 297.032)"/><use xlink:href="#m" transform="matrix(10 0 0 -10 184.726 295.852)"/><use xlink:href="#n" transform="matrix(10 0 0 -10 190.366 297.032)"/><path stroke-width=".8" stroke-linejoin="round" fill="none" stroke="#000" d="M39.95 265.174h-3.5"/><symbol id="o"><path transform="translate(-.082) scale(.001)" d="M82 729h469v-42L286 0H183l249 646H82v83z"/></symbol><use xlink:href="#o" transform="matrix(10 0 0 -10 21.051 268.97)"/><use xlink:href="#b" transform="matrix(10 0 0 -10 27.251 269.1)"/><path stroke-width=".8" stroke-linejoin="round" fill="none" stroke="#000" d="M39.95 222.507h-3.5"/><symbol id="p"><path transform="matrix(.001 0 0 .001 -.068 .013)" d="M318 346c-47 0-84-13-111-38s-40-59-40-103 13-79 40-104 64-37 111-37c46 0 83 12 110 38 27 25 41 59 41 103s-14 78-40 103c-27 25-64 38-111 38zm-99 42c-42 10-75 30-99 59s-35 64-35 106c0 58 20 104 62 138 41 34 98 51 171 51 72 0 129-17 171-51 41-34 62-80 62-138 0-42-12-77-36-106s-56-49-98-59c47-11 84-33 111-65 26-32 40-72 40-118 0-71-22-125-65-162-44-38-106-56-186-56S175 5 132 43c-43 37-64 91-64 162 0 46 13 86 40 118 26 32 63 54 111 65zm-36 156c0-38 11-68 35-89s57-31 100-31c42 0 75 10 99 31s36 51 36 89-12 67-36 88-57 32-99 32c-43 0-76-11-100-32s-35-50-35-88z"/></symbol><use xlink:href="#p" transform="matrix(10 0 0 -10 20.911 226.434)"/><use xlink:href="#b" transform="matrix(10 0 0 -10 27.251 226.434)"/><path stroke-width=".8" stroke-linejoin="round" fill="none" stroke="#000" d="M39.95 179.84h-3.5"/><symbol id="q"><path transform="matrix(.001 0 0 .001 -.063 .013)" d="M110 15v90c24-12 49-21 75-27 25-6 50-9 75-9 64 0 114 21 148 65s54 110 60 200c-20-28-44-50-72-65-29-15-61-22-96-22-74 0-132 22-174 66S63 417 63 494c0 74 22 134 66 180 44 45 103 68 177 68 84 0 149-33 193-97 44-65 67-159 67-281 0-116-28-207-82-275C429 21 356-13 264-13c-25 0-50 3-75 7-26 4-52 11-79 21zm196 309c44 0 79 15 105 45s39 72 39 125c0 52-13 94-39 124s-61 46-105 46-79-16-105-46-39-72-39-124c0-53 13-95 39-125s61-45 105-45z"/></symbol><use xlink:href="#q" transform="matrix(10 0 0 -10 20.861 183.767)"/><use xlink:href="#b" transform="matrix(10 0 0 -10 27.251 183.767)"/><path stroke-width=".8" stroke-linejoin="round" fill="none" stroke="#000" d="M39.95 137.174h-3.5"/><use xlink:href="#d" transform="matrix(10 0 0 -10 14.972 140.97)"/><use xlink:href="#b" transform="matrix(10 0 0 -10 20.892 141.1)"/><use xlink:href="#b" transform="matrix(10 0 0 -10 27.252 141.1)"/><path stroke-width=".8" stroke-linejoin="round" fill="none" stroke="#000" d="M39.95 94.507h-3.5"/><use xlink:href="#d" transform="matrix(10 0 0 -10 14.972 98.304)"/><use xlink:href="#d" transform="matrix(10 0 0 -10 21.332 98.304)"/><use xlink:href="#b" transform="matrix(10 0 0 -10 27.252 98.434)"/><path stroke-width=".8" stroke-linejoin="round" fill="none" stroke="#000" d="M39.95 51.84h-3.5"/><use xlink:href="#d" transform="matrix(10 0 0 -10 14.972 55.637)"/><use xlink:href="#e" transform="matrix(10 0 0 -10 20.962 55.637)"/><use xlink:href="#b" transform="matrix(10 0 0 -10 27.252 55.767)"/><path stroke-width=".8" stroke-linejoin="round" fill="none" stroke="#000" d="M39.95 9.174h-3.5"/><use xlink:href="#d" transform="matrix(10 0 0 -10 14.972 12.97)"/><use xlink:href="#f" transform="matrix(10 0 0 -10 20.992 13.1)"/><use xlink:href="#b" transform="matrix(10 0 0 -10 27.252 13.1)"/><symbol id="r"><path transform="matrix(.001 0 0 .001 -.056 .013)" d="M394 662c-72 0-129-27-171-80-42-54-63-126-63-218s21-165 63-218c42-54 99-80 171-80 71 0 128 26 170 80 42 53 63 126 63 218s-21 164-63 218c-42 53-99 80-170 80zm0 80c102 0 183-35 245-103 61-68 92-160 92-275 0-116-31-207-92-275C577 21 496-13 394-13 291-13 209 21 148 89c-62 68-92 159-92 275 0 115 30 207 92 275 61 68 143 103 246 103z"/></symbol><symbol id="s"><path transform="translate(-.091) scale(.001)" d="M411 463c-10 6-21 10-33 13-12 2-25 4-39 4-51 0-90-17-117-50-28-33-41-80-41-142V0H91v547h90v-85c18 33 43 58 73 74s67 24 111 24c6 0 13-1 21-1 7-1 15-2 25-4v-92z"/></symbol><symbol id="t"><path transform="translate(-.091) scale(.001)" d="M549 330V0h-90v327c0 52-11 90-31 116s-50 39-90 39c-49 0-87-16-115-47s-42-73-42-126V0H91v547h90v-85c21 32 46 57 76 73 29 16 63 25 101 25 62 0 110-20 142-59s49-96 49-171z"/></symbol><symbol id="u"><path transform="translate(-.027) scale(.001)" d="M183 702V547h185v-70H183V180c0-45 6-74 18-86 12-13 37-19 75-19h92V0h-92c-70 0-118 13-144 39s-39 73-39 141v297H27v70h66v155h90z"/></symbol><symbol id="v"><path transform="matrix(.001 0 0 .001 -.06 .013)" d="M343 275c-73 0-123-9-151-25-28-17-42-45-42-85 0-32 10-58 31-76 21-19 50-28 86-28 50 0 90 17 120 53 30 35 45 82 45 141v20h-89zm179 37V0h-90v83c-21-34-47-58-77-73s-68-23-112-23c-56 0-101 15-134 46s-49 73-49 126c0 61 20 107 62 139 41 31 102 47 184 47h126v9c0 41-14 73-41 96-27 22-65 34-114 34-32 0-62-4-92-12s-58-19-85-33v83c32 12 64 22 95 28s61 10 91 10c79 0 138-21 177-62s59-103 59-186z"/></symbol><symbol id="w"><path transform="matrix(.001 0 0 .001 -.055 .013)" d="M306 484c-48 0-86-19-114-57s-42-89-42-154c0-66 13-117 41-155s66-56 115-56c48 0 86 18 114 56s42 89 42 155c0 64-14 116-42 154s-66 57-114 57zm0 76c78 0 139-26 184-76 44-51 67-121 67-211s-23-160-67-210c-45-51-106-76-184-76-79 0-141 25-185 76-44 50-66 120-66 210s22 160 66 211c44 50 106 76 185 76z"/></symbol><symbol id="x"><path transform="matrix(.001 0 0 .001 -.095 -.432)" d="M250 679c-26 0-48-9-66-27s-27-40-27-66 9-48 27-66 40-26 66-26 48 8 66 26 27 40 27 66-9 48-27 66-40 27-66 27zm0 63c20 0 40-4 60-12 19-8 36-20 50-34 14-15 25-32 33-50 8-19 12-39 12-60 0-44-16-80-46-110s-67-44-110-44c-44 0-81 14-110 44-30 29-44 66-44 110 0 43 15 80 45 110s66 46 110 46z"/></symbol><use xlink:href="#r" transform="matrix(0 -10 -10 0 7.924 170.082)"/><use xlink:href="#s" transform="matrix(0 -10 -10 0 7.794 161.862)"/><use xlink:href="#h" transform="matrix(0 -10 -10 0 7.794 157.722)"/><use xlink:href="#j" transform="matrix(0 -10 -10 0 7.924 155.332)"/><use xlink:href="#t" transform="matrix(0 -10 -10 0 7.794 148.822)"/><use xlink:href="#u" transform="matrix(0 -10 -10 0 7.794 143.122)"/><use xlink:href="#v" transform="matrix(0 -10 -10 0 7.924 138.872)"/><use xlink:href="#u" transform="matrix(0 -10 -10 0 7.794 133.072)"/><use xlink:href="#h" transform="matrix(0 -10 -10 0 7.794 128.482)"/><use xlink:href="#w" transform="matrix(0 -10 -10 0 7.924 126.092)"/><use xlink:href="#t" transform="matrix(0 -10 -10 0 7.794 119.612)"/><use xlink:href="#k" transform="matrix(0 -10 -10 0 7.794 114.182)"/><use xlink:href="#l" transform="matrix(0 -10 -10 0 9.104 110.142)"/><use xlink:href="#x" transform="matrix(0 -10 -10 0 3.474 106.152)"/><use xlink:href="#n" transform="matrix(0 -10 -10 0 9.104 101.132)"/><clipPath id="y"><path transform="matrix(1 0 0 -1 -7 305)" d="M46.95 37.544h266.112v266.112H46.95z"/></clipPath><g clip-path="url(#y)"><path stroke-width="2.5" stroke-linecap="square" stroke-linejoin="round" fill="none" stroke="teal" d="m52.046 180.394.49.436.15-.053.133.18.274-.095.15.158.157-.425.133.158.307-.03.15-.199.14.149.159-.023.116-.5.15.46.29-.481.333.14.15-.152.157-.426.125.416.166-.547.315.14.308.004.49-.242.133.126.49-.23.29.005.466-.217.1.118.132-.22.798-.09.656-.3.116.219.166-.418.25.218.656-.286.315-.088 1.263-.537.216.107.224-.178.648-.257.191-.276.283.102.216-.362.174.102.382-.263.523-.067.108-.271.108.1.756-.337.1.19.357-.26.108.097 1.595-.578.274-.08.648-.25.2.095.381-.345.1.185.39-.346.241.095.133-.171.15.092.15-.173.44.014.556-.337.166.092.615-.332.158.005.274-.168.091.09.806-.325.39-.079.15-.17.158.092.448-.16.2-.083.166.088.523-.247.116.09.499-.248.374.093.14-.122.208.078.474-.183.282.17.515-.263.64.004.324-.251.158.17.432-.343.15.087.132-.167.166.09.35-.171.473-.076.905-.327.133.175.299-.25.174.086.2-.168.15.09.14-.25.233.174.141-.254.166.087.407-.161.59-.08.457-.078.374-.087.158-.08.108.089.257-.087.141.082.108-.171.15.084.365-.162.158.082.44-.164h.283l.141-.17.158.083.498-.251.374.089.282-.162.167-.084.14.082.233-.003.15-.168.424.091.307-.168.29.084.125-.087.133.087.399-.082.124-.08.316.164.332-.173.657-.075 2.134-.408.274.09.258-.253.2.166.149-.166 1.28.045.506.055h.216l.249.16.233-.168.207.076.283-.084.564.079.499-.084.515-.084.581-.082.715-.092.216-.084.157.084.266-.171.274.005.117-.168.24.087.79-.241h.182l.167-.157.166.087.382-.192.365.064.125-.095.174.072.416-.118.15.078.115-.177.167.154.132-.169.74-.087.257-.085.142.003.157-.162.133.078.117-.168.838-.072.49-.153.549-.081.581-.25.432.163.266-.24.29.081.217-.249.174.165.216.003.274-.164.283.087.224-.162.856-.006.149-.168 1.412-.104.191-.171.191.077 1.927-.382.897-.357.549.09.224-.17.158.171.498-.173.183.073 1.204-.128.241-.22.216.16.681-.285.208.09.49-.028.158-.22.49.077.573-.176 2.069-.528.398-.07.25-.162.257.096.357-.148.266.042.25-.198.282.088 1.844-.573.207.063.291-.127.565.02.224-.173.332-.02.274-.015.208-.174.175.164.182-.252.482.075.258-.252.199.084.49-.117.191.007.565-.143.24.07.956-1.999.258-.18.955.556.407 1.023.232.005.731 1.115 1.687 5.91 1.487 3.813.739 7.955.232.99.25.32.224-.09.324-.547.357-1.922.532-5.468 1.104-8.027.4-4.977.448-5.256.432-10.784.722-2.116.266-8.336.457.46.307-7.118.582 2.035.473-4.379.34 1.425.35-2.585.124-1.464.274 1.838.598-1.604.175.28.324-.186.266-2.866.523-1.316 1.37-8.632 1.255-16.778.324-8.11.216-8.418 1.819-19.45.257-2.211.275 1.632.307-1.61.556-5.191.275-1.647.805-6.826.191-.155.233.903.324.534.224-.618.598-2.926.615-1.819.64-.42 1.96-2.579.232-.646.574-.861.365-.71.424-1.18 1.794-2.73.507-.443.265-.277.756-.248.507-.172.29.046.341-.109.324.143.939.107 1.645.363.656.11.955.1.2-.107.365.092.93-.109 1.853-.328 2.55-.731.224.073.233-.205.299.022.714-.227.548-.14.233-.154.598-.087.972-.366.324.027.29-.186.44-.028.142-.13.141.077.283-.234.132.04.324-.165.324-.061 2.143-.51.142-.162.415-.022.498-.138.407-.11.125-.154.15.095.971-.298.142.024.365-.185.382-.019.357-.152.54.033.166-.167.69-.088.166-.12.29.124.233-.197.183.024 1.537-.485.315.005.856-.302 1.77-.187.124-.197.24.05 2.136-.59.232-.163 1.23-.17.971-.167.3-.16.365-.014.39-.188.54-.098.35-.127.132.052.822-.314.69-.156.872-.224.191.051.216-.176.191.12.407-.212.415-.013.35-.139.199.043.481-.19.2.01.465-.193.365-.016.565-.245.183.051.174-.142.208.021.382-.118.15-.008.158-.162.39-.025.158-.034.623-1.63.614-.471.424.311.698.972.897 2.267.673 2.195 2.002 7.523.274.73.68-6.555.234-.426.116.142.498 2.085.382 2.527.49 3.405.939 7.132.382 2.585.615 5.615.465 4.4.349 1.393.457 6.187.216 1.57.116 1.695.282 1.603.54 6.53.532 4.786 1.329 13.133.515 5.178.1 1.811.249 1.846.316 3.699 2.658 33.69.307 4.972.656 10.846.357 5.802.358 6.161 1.81 32.669 1.055 14.807.781 10.15.15 1.532 1.37 7.337.25.249.265.637 2.118 6.905.598.563.1.329.631.67.233.009.158.324.2.037.115.3.216.09 1.529 2.217.399.394 1.37 1.143.133-.078.191.16.133-.078.15.193.166-.095.349.066.481-.173.34-.047.134-.175.232-.061.1-.16.2.065 1.32-1.074.158.064.282-.348.216-.08.308-.298.872-.74.133.095.307-.362h.3l.215-.309.474-.127.365-.23 1.296-.602.723-.128.448-.237.548-.126.142.05.182-.211.274.011.208.04.175-.15.14.096 1.214-.428.124.147.515-.204.141.08.167-.189.174.024.133-.123.623-.113.282-.042 1.529-.398.174.108.116-.216.15.038.698-.173.158-.014.149-.225.15.16.382-.08.64-.198.099.16.058-.226.133.066.15-.16.207.08.316-.198.232.013.092-.107.307-.014 2.924-.653.125.04.116-.12 1.213-.093.299-.187.108.146.182-.119.682-.053.68-.227.167.08.207-.16.532.013.15-.146.299.013.714-.067.158-.08.141.174.158-.187.15.026.332-.093.224.08.814-.227.166.093.374-.186.266.106.14-.067.15.067.366-.067.141.08.399-.106.947.08.548-.067.141.08.291-.067.174.08.15-.147 1.379-.04.224.08.175-.093.14.093.325-.08h.457l.398-.08.133.107.465-.014.59.053.258.134.481-.08.283.053.839-.053.183.093.199-.134.2.094.34-.094.606.08.274-.886.399-.283"/></g><clipPath id="z"><path transform="matrix(1 0 0 -1 -7 305)" d="M46.95 37.544h266.112v266.112H46.95z"/></clipPath><g clip-path="url(#z)"><path stroke-width="2.5" stroke-dasharray="9.25,4" stroke-linejoin="round" fill="none" stroke="red" d="m52.046 183.524 14.296.135 12.925.284 11.787.357 9.992.241h39.473l.216-158.3h4.569l.199 12.8h1.047l.133-25.6.124 12.8h.748l.133 12.8h1.611l.141-12.8h4.286l.316 12.8h2.052l.324-12.8h20.434l.282 12.8h6.09l.198-12.8h2.908l.14 12.8h27.487l.166 12.8h7.144l.174 181.623 1.72 1.815 1.935 2.076 6.222 4.822 4.801 2.606.88.314 2.866.748 2.135.354 3.231.42 1.438.182 4.958.57 8.581 1.14 15.16 2.598.947.198 1.005.202 8.148 1.774 6.679 1.606 1.819.471"/></g><path stroke-width=".8" stroke-linecap="square" stroke-miterlimit="10" fill="none" stroke="#000" d="M39.95 267.456V1.344M306.062 267.456V1.344M39.95 267.456h266.112M39.95 1.344h266.112"/><path d="M46.95 262.456h153.36c1.333 0 2-.666 2-2v-28.344c0-1.333-.667-2-2-2H46.95c-1.333 0-2 .667-2 2v28.344c0 1.334.667 2 2 2z" fill="#fff" fill-opacity=".8"/><path stroke-miterlimit="10" fill="none" stroke="#d5d6d5" stroke-opacity=".8" d="M46.95 262.456h153.36c1.333 0 2-.666 2-2v-28.344c0-1.333-.667-2-2-2H46.95c-1.333 0-2 .667-2 2v28.344c0 1.334.667 2 2 2z"/><path stroke-width="2.5" stroke-linecap="square" stroke-linejoin="round" fill="none" stroke="teal" d="M48.95 238.206h20"/><symbol id="A"><path transform="matrix(.001 0 0 .001 -.056 .013)" d="M644 673V569c-34 30-69 53-107 69-38 15-77 23-119 23-84 0-148-26-192-77s-66-124-66-220 22-170 66-221 108-76 192-76c42 0 81 7 119 23 38 15 73 38 107 69V56c-35-24-72-41-110-52s-79-17-122-17C302-13 215 20 151 87S56 246 56 364c0 117 31 209 95 277 64 67 151 101 261 101 44 0 85-6 123-17 38-12 75-29 109-52z"/></symbol><symbol id="B"><path transform="matrix(.001 0 0 .001 -.085 .013)" d="M85 216v331h90V219c0-52 10-90 30-116s50-39 91-39c48 0 87 15 115 46s42 73 42 127v310h90V0h-90v84c-22-34-48-58-76-74-29-15-62-23-100-23-63 0-111 19-143 58-33 38-49 95-49 171zm226 344z"/></symbol><symbol id="C"><path transform="matrix(.001 0 0 .001 -.086 .131)" d="M310 759c-44-76-76-150-97-223-22-73-32-147-32-222 0-76 10-150 32-223 21-74 53-147 97-222h-78C183-54 146 20 122 94S86 241 86 314c0 72 12 145 36 219s60 149 110 226h78z"/></symbol><symbol id="D"><path transform="matrix(.001 0 0 .001 -.066 .013)" d="M535 705v-96c-38 18-73 31-106 40-34 8-66 13-96 13-54 0-96-11-125-31-29-21-43-51-43-89 0-32 9-57 29-73 19-17 56-30 110-40l60-12c73-14 127-39 162-74 35-36 53-83 53-142 0-71-24-124-71-160-48-36-117-54-208-54-35 0-72 4-111 11S110 16 69 32v102c40-23 79-40 117-51 38-12 76-17 114-17 56 0 99 11 130 33 30 22 46 53 46 95 0 36-11 64-33 84s-58 35-108 45l-60 12c-74 14-127 37-160 69-33 31-49 74-49 130 0 64 22 115 68 152 45 37 108 56 188 56 34 0 68-3 104-9 35-6 71-16 109-28z"/></symbol><symbol id="E"><path transform="matrix(.001 0 0 .001 -.08 .131)" d="M80 759h78c48-77 85-152 109-226s37-147 37-219c0-73-13-146-37-220S206-54 158-131H80c43 75 75 148 97 222 21 73 32 147 32 223 0 75-11 149-32 222-22 73-54 147-97 223z"/></symbol><use xlink:href="#A" transform="matrix(10 0 0 -10 77.51 241.836)"/><use xlink:href="#B" transform="matrix(10 0 0 -10 84.78 241.836)"/><use xlink:href="#s" transform="matrix(10 0 0 -10 91.18 241.706)"/><use xlink:href="#s" transform="matrix(10 0 0 -10 95.118 241.706)"/><use xlink:href="#j" transform="matrix(10 0 0 -10 98.65 241.836)"/><use xlink:href="#t" transform="matrix(10 0 0 -10 105.16 241.706)"/><use xlink:href="#u" transform="matrix(10 0 0 -10 110.86 241.706)"/><use xlink:href="#k" transform="matrix(10 0 0 -10 114.51 241.706)"/><use xlink:href="#w" transform="matrix(10 0 0 -10 118.24 241.836)"/><use xlink:href="#s" transform="matrix(10 0 0 -10 124.72 241.706)"/><use xlink:href="#h" transform="matrix(10 0 0 -10 128.86 241.706)"/><use xlink:href="#j" transform="matrix(10 0 0 -10 131.25 241.836)"/><use xlink:href="#t" transform="matrix(10 0 0 -10 137.76 241.706)"/><use xlink:href="#u" transform="matrix(10 0 0 -10 143.46 241.706)"/><use xlink:href="#v" transform="matrix(10 0 0 -10 147.71 241.836)"/><use xlink:href="#u" transform="matrix(10 0 0 -10 153.51 241.706)"/><use xlink:href="#h" transform="matrix(10 0 0 -10 158.1 241.706)"/><use xlink:href="#w" transform="matrix(10 0 0 -10 160.49 241.836)"/><use xlink:href="#t" transform="matrix(10 0 0 -10 166.97 241.706)"/><use xlink:href="#k" transform="matrix(10 0 0 -10 172.4 241.706)"/><use xlink:href="#C" transform="matrix(10 0 0 -10 176.44 243.016)"/><use xlink:href="#r" transform="matrix(10 0 0 -10 180.04 241.836)"/><use xlink:href="#D" transform="matrix(10 0 0 -10 188.01 241.836)"/><use xlink:href="#E" transform="matrix(10 0 0 -10 194.5 243.016)"/><path stroke-width="2.5" stroke-dasharray="9.25,4" stroke-linejoin="round" fill="none" stroke="red" d="M48.95 252.878h20"/><symbol id="F"><path transform="translate(-.098) scale(.001)" d="M197 648V81h119c100 0 174 22 221 68 46 46 70 118 70 216s-24 169-70 215c-47 45-121 68-221 68H197zm-99 81h203c141 0 245-30 311-88 66-59 99-151 99-276 0-126-34-218-100-277S441 0 301 0H98v729z"/></symbol><symbol id="G"><path transform="matrix(.001 0 0 .001 -.055 .013)" d="M454 464v296h90V0h-90v82c-19-33-43-57-72-72s-63-23-103-23c-66 0-120 26-162 78S55 187 55 273s20 155 62 208c42 52 96 79 162 79 40 0 74-8 103-24s53-40 72-72zM148 273c0-66 13-118 40-156s64-56 112-56 85 18 113 56c27 38 41 90 41 156s-14 117-41 155c-28 38-65 57-113 57s-85-19-112-57-40-89-40-155z"/></symbol><use xlink:href="#F" transform="matrix(10 0 0 -10 77.93 256.378)"/><use xlink:href="#j" transform="matrix(10 0 0 -10 85.2 256.508)"/><use xlink:href="#m" transform="matrix(10 0 0 -10 91.34 256.508)"/><use xlink:href="#h" transform="matrix(10 0 0 -10 96.95 256.378)"/><use xlink:href="#s" transform="matrix(10 0 0 -10 99.7 256.378)"/><use xlink:href="#j" transform="matrix(10 0 0 -10 103.231 256.508)"/><use xlink:href="#G" transform="matrix(10 0 0 -10 109.381 256.508)"/><use xlink:href="#k" transform="matrix(10 0 0 -10 115.181 256.378)"/><use xlink:href="#w" transform="matrix(10 0 0 -10 118.911 256.508)"/><use xlink:href="#s" transform="matrix(10 0 0 -10 125.391 256.378)"/><use xlink:href="#h" transform="matrix(10 0 0 -10 129.531 256.378)"/><use xlink:href="#j" transform="matrix(10 0 0 -10 131.921 256.508)"/><use xlink:href="#t" transform="matrix(10 0 0 -10 138.431 256.378)"/><use xlink:href="#u" transform="matrix(10 0 0 -10 144.131 256.378)"/><use xlink:href="#v" transform="matrix(10 0 0 -10 148.381 256.508)"/><use xlink:href="#u" transform="matrix(10 0 0 -10 154.181 256.378)"/><use xlink:href="#h" transform="matrix(10 0 0 -10 158.771 256.378)"/><use xlink:href="#w" transform="matrix(10 0 0 -10 161.161 256.508)"/><use xlink:href="#t" transform="matrix(10 0 0 -10 167.641 256.378)"/><use xlink:href="#k" transform="matrix(10 0 0 -10 173.071 256.378)"/><use xlink:href="#C" transform="matrix(10 0 0 -10 177.111 257.688)"/><use xlink:href="#r" transform="matrix(10 0 0 -10 180.711 256.508)"/><use xlink:href="#D" transform="matrix(10 0 0 -10 188.681 256.508)"/><use xlink:href="#E" transform="matrix(10 0 0 -10 195.171 257.688)"/></g></svg>