<svg xmlns="http://www.w3.org/2000/svg" xmlns:xlink="http://www.w3.org/1999/xlink" width="304pt" height="298pt" viewBox="0 0 304 298"><clipPath id="a"><path transform="matrix(1 0 0 -1 -7 305)" d="M0 0h317.09v310.856H0z"/></clipPath><g clip-path="url(#a)"><path d="M-7 305h317.09V-5.856H-7z" fill="#fff"/><path d="M36.778 267.456H302.89V1.344H36.778z" fill="#fff"/><path stroke-width=".8" stroke-linejoin="round" fill="none" stroke="#000" d="M43.865 267.456v3.5"/><symbol id="b"><path transform="matrix(.001 0 0 .001 -.066 .013)" d="M318 664c-51 0-89-25-115-75s-38-125-38-225 12-175 38-225 64-75 115-75 89 25 115 75c25 50 38 125 38 225s-13 175-38 225c-26 50-64 75-115 75zm0 78c81 0 143-33 187-97 43-65 65-159 65-281 0-123-22-217-65-281-44-64-106-96-188-96S173 19 130 83 66 241 66 364c0 122 21 216 64 281 43 64 106 97 188 97z"/></symbol><use xlink:href="#b" transform="matrix(10 0 0 -10 41.346 282.18)"/><path stroke-width=".8" stroke-linejoin="round" fill="none" stroke="#000" d="M85.398 267.456v3.5"/><symbol id="c"><path transform="matrix(.001 0 0 .001 -.077 .013)" d="M108 729h387v-83H198V467c14 5 29 9 43 11s29 4 43 4c81 0 145-23 193-67 48-45 72-105 72-181 0-79-25-140-74-183S357-13 269-13c-31 0-62 3-94 7-32 5-64 12-98 23v99c29-16 59-28 91-36 31-8 64-11 99-11 56 0 101 14 134 44 32 30 49 70 49 121 0 50-17 90-49 120-33 30-78 45-134 45-26 0-53-3-79-9s-53-15-80-27v366z"/></symbol><use xlink:href="#c" transform="matrix(10 0 0 -10 82.988 282.18)"/><path stroke-width=".8" stroke-linejoin="round" fill="none" stroke="#000" d="M126.93 267.456v3.5"/><symbol id="d"><path transform="translate(-.11) scale(.001)" d="M124 83h161v556l-175-35v90l174 35h99V83h161V0H124v83z"/></symbol><use xlink:href="#d" transform="matrix(10 0 0 -10 121.671 282.05)"/><use xlink:href="#b" transform="matrix(10 0 0 -10 127.591 282.18)"/><path stroke-width=".8" stroke-linejoin="round" fill="none" stroke="#000" d="M168.464 267.456v3.5"/><use xlink:href="#d" transform="matrix(10 0 0 -10 163.204 282.05)"/><use xlink:href="#c" transform="matrix(10 0 0 -10 169.234 282.18)"/><path stroke-width=".8" stroke-linejoin="round" fill="none" stroke="#000" d="M209.996 267.456v3.5"/><symbol id="e"><path transform="translate(-.073) scale(.001)" d="M192 83h344V0H73v83c37 38 88 90 153 156 64 65 105 107 122 126 32 35 54 65 66 90 12 24 19 49 19 73 0 38-14 70-41 94s-62 37-106 37c-31 0-64-6-98-16-34-11-71-27-110-49v100c40 16 77 28 111 36s66 12 95 12c75 0 135-19 180-57s68-88 68-151c0-30-6-59-17-85-11-27-31-59-61-95-8-10-34-37-78-82S271 164 192 83z"/></symbol><use xlink:href="#e" transform="matrix(10 0 0 -10 204.367 282.05)"/><use xlink:href="#b" transform="matrix(10 0 0 -10 210.657 282.18)"/><path stroke-width=".8" stroke-linejoin="round" fill="none" stroke="#000" d="M251.53 267.456v3.5"/><use xlink:href="#e" transform="matrix(10 0 0 -10 245.9 282.05)"/><use xlink:href="#c" transform="matrix(10 0 0 -10 252.3 282.18)"/><path stroke-width=".8" stroke-linejoin="round" fill="none" stroke="#000" d="M293.062 267.456v3.5"/><symbol id="f"><path transform="matrix(.001 0 0 .001 -.076 .013)" d="M406 393c47-10 84-31 110-63s40-72 40-118c0-72-25-128-74-167-50-39-120-58-211-58-31 0-63 3-95 9-32 5-66 14-100 26v95c27-16 57-28 90-36 32-8 66-12 102-12 62 0 109 12 141 36s49 60 49 107c0 42-15 76-45 100s-72 37-126 37h-85v81h89c48 0 85 9 111 29 26 19 39 47 39 84s-14 66-40 86c-27 20-65 30-114 30-27 0-56-3-87-9s-65-15-102-27v88c37 10 72 18 105 23 32 5 63 8 93 8 74 0 133-17 177-51s66-80 66-138c0-40-12-74-35-102s-56-48-98-58z"/></symbol><use xlink:href="#f" transform="matrix(10 0 0 -10 287.462 282.18)"/><use xlink:href="#b" transform="matrix(10 0 0 -10 293.722 282.18)"/><symbol id="g"><path transform="translate(.002) scale(.001)" d="M-2 729h616v-83H355V0h-99v646H-2v83z"/></symbol><symbol id="h"><path transform="translate(-.094) scale(.001)" d="M94 547h90V0H94v547zm0 213h90V646H94v114z"/></symbol><symbol id="i"><path transform="translate(-.091) scale(.001)" d="M520 442c22 40 49 69 80 89 31 19 68 29 111 29 56 0 100-20 131-60s47-97 47-170V0h-90v327c0 52-10 91-28 117-19 25-47 38-85 38-47 0-84-16-111-47s-40-73-40-126V0h-90v327c0 52-10 91-28 117-19 25-48 38-86 38-46 0-83-16-110-47s-40-73-40-126V0H91v547h90v-85c20 33 45 58 74 74 28 16 62 24 102 24s73-10 101-30 48-50 62-88z"/></symbol><symbol id="j"><path transform="matrix(.001 0 0 .001 -.055 .013)" d="M562 296v-44H149c4-62 22-110 56-142 33-32 79-48 139-48 34 0 68 4 100 12s65 21 97 39V28c-32-14-65-25-99-31s-69-10-103-10c-88 0-157 25-208 75S55 181 55 268c0 89 24 160 72 213 48 52 114 79 196 79 74 0 132-24 175-71 42-48 64-112 64-193zm-90 26c-1 49-15 88-41 118-27 29-63 44-107 44-50 0-90-15-120-43s-48-68-52-119h320z"/></symbol><symbol id="l"><path transform="matrix(.001 0 0 .001 -.086 .131)" d="M86 760h207v-70H176V-61h117v-70H86v891z"/></symbol><symbol id="m"><path transform="matrix(.001 0 0 .001 -.054 .013)" d="M443 531v-85c-26 12-52 22-79 29-28 6-56 10-85 10-45 0-79-7-101-21s-33-34-33-61c0-21 8-37 24-49s48-24 96-34l31-7c64-14 109-34 136-58 26-25 40-60 40-104 0-51-20-91-60-120-40-30-96-44-166-44-30 0-60 3-92 8S89 8 54 20v93c33-18 66-31 98-39 32-9 64-13 96-13 42 0 75 7 98 21 22 14 34 35 34 62 0 24-9 43-25 56s-52 26-108 38l-31 7c-56 12-97 30-121 54-25 24-37 57-37 100 0 51 18 91 54 119s88 42 156 42c33 0 64-3 94-8 29-5 56-12 81-21z"/></symbol><symbol id="n"><path transform="matrix(.001 0 0 .001 -.097 .131)" d="M304 760v-891H97v70h117v751H97v70h207z"/></symbol><use xlink:href="#g" transform="matrix(10 0 0 -10 149.431 295.722)"/><use xlink:href="#h" transform="matrix(10 0 0 -10 156.204 295.722)"/><use xlink:href="#i" transform="matrix(10 0 0 -10 158.954 295.722)"/><use xlink:href="#j" transform="matrix(10 0 0 -10 168.334 295.852)"/><use xlink:href="#k" transform="matrix(10 0 0 -10 173.934 295.722)"/><use xlink:href="#l" transform="matrix(10 0 0 -10 177.974 297.032)"/><use xlink:href="#m" transform="matrix(10 0 0 -10 181.554 295.852)"/><use xlink:href="#n" transform="matrix(10 0 0 -10 187.194 297.032)"/><path stroke-width=".8" stroke-linejoin="round" fill="none" stroke="#000" d="M36.778 246.655h-3.5"/><symbol id="o"><path transform="translate(-.107) scale(.001)" d="M107 124h103V0H107v124z"/></symbol><use xlink:href="#d" transform="matrix(10 0 0 -10 14.972 250.452)"/><use xlink:href="#o" transform="matrix(10 0 0 -10 21.302 250.452)"/><use xlink:href="#b" transform="matrix(10 0 0 -10 24.072 250.582)"/><path stroke-width=".8" stroke-linejoin="round" fill="none" stroke="#000" d="M36.778 204.706h-3.5"/><use xlink:href="#d" transform="matrix(10 0 0 -10 14.972 208.503)"/><use xlink:href="#o" transform="matrix(10 0 0 -10 21.302 208.503)"/><use xlink:href="#c" transform="matrix(10 0 0 -10 24.182 208.633)"/><path stroke-width=".8" stroke-linejoin="round" fill="none" stroke="#000" d="M36.778 162.757h-3.5"/><use xlink:href="#e" transform="matrix(10 0 0 -10 14.602 166.554)"/><use xlink:href="#o" transform="matrix(10 0 0 -10 21.302 166.554)"/><use xlink:href="#b" transform="matrix(10 0 0 -10 24.072 166.684)"/><path stroke-width=".8" stroke-linejoin="round" fill="none" stroke="#000" d="M36.778 120.808h-3.5"/><use xlink:href="#e" transform="matrix(10 0 0 -10 14.602 124.605)"/><use xlink:href="#o" transform="matrix(10 0 0 -10 21.302 124.605)"/><use xlink:href="#c" transform="matrix(10 0 0 -10 24.182 124.735)"/><path stroke-width=".8" stroke-linejoin="round" fill="none" stroke="#000" d="M36.778 78.859h-3.5"/><use xlink:href="#f" transform="matrix(10 0 0 -10 14.632 82.786)"/><use xlink:href="#o" transform="matrix(10 0 0 -10 21.302 82.656)"/><use xlink:href="#b" transform="matrix(10 0 0 -10 24.072 82.786)"/><path stroke-width=".8" stroke-linejoin="round" fill="none" stroke="#000" d="M36.778 36.91h-3.5"/><use xlink:href="#f" transform="matrix(10 0 0 -10 14.632 40.837)"/><use xlink:href="#o" transform="matrix(10 0 0 -10 21.302 40.707)"/><use xlink:href="#c" transform="matrix(10 0 0 -10 24.182 40.837)"/><symbol id="p"><path transform="matrix(.001 0 0 .001 -.066 .013)" d="M535 705v-96c-38 18-73 31-106 40-34 8-66 13-96 13-54 0-96-11-125-31-29-21-43-51-43-89 0-32 9-57 29-73 19-17 56-30 110-40l60-12c73-14 127-39 162-74 35-36 53-83 53-142 0-71-24-124-71-160-48-36-117-54-208-54-35 0-72 4-111 11S110 16 69 32v102c40-23 79-40 117-51 38-12 76-17 114-17 56 0 99 11 130 33 30 22 46 53 46 95 0 36-11 64-33 84s-58 35-108 45l-60 12c-74 14-127 37-160 69-33 31-49 74-49 130 0 64 22 115 68 152 45 37 108 56 188 56 34 0 68-3 104-9 35-6 71-16 109-28z"/></symbol><symbol id="q"><path transform="matrix(.001 0 0 .001 -.091 .207)" d="M181 82v-289H91v754h90v-83c18 32 42 56 71 72s64 24 104 24c66 0 120-27 162-79 41-53 62-122 62-208s-21-156-62-208c-42-52-96-78-162-78-40 0-75 8-104 23s-53 39-71 72zm306 191c0 66-14 117-41 155-28 38-65 57-112 57-48 0-85-19-112-57-28-38-41-89-41-155s13-118 41-156c27-38 64-56 112-56 47 0 84 18 112 56 27 38 41 90 41 156z"/></symbol><symbol id="r"><path transform="matrix(.001 0 0 .001 -.055 .013)" d="M454 464v296h90V0h-90v82c-19-33-43-57-72-72s-63-23-103-23c-66 0-120 26-162 78S55 187 55 273s20 155 62 208c42 52 96 79 162 79 40 0 74-8 103-24s53-40 72-72zM148 273c0-66 13-118 40-156s64-56 112-56 85 18 113 56c27 38 41 90 41 156s-14 117-41 155c-28 38-65 57-113 57s-85-19-112-57-40-89-40-155z"/></symbol><symbol id="s"><path transform="matrix(.001 0 0 .001 0 .092)" d="M254 729h83L83-92H0l254 821z"/></symbol><use xlink:href="#p" transform="matrix(0 -10 -10 0 7.924 164.084)"/><use xlink:href="#q" transform="matrix(0 -10 -10 0 9.864 157.484)"/><use xlink:href="#j" transform="matrix(0 -10 -10 0 7.924 151.494)"/><use xlink:href="#j" transform="matrix(0 -10 -10 0 7.924 145.344)"/><use xlink:href="#r" transform="matrix(0 -10 -10 0 7.924 139.194)"/><use xlink:href="#k" transform="matrix(0 -10 -10 0 7.794 133.394)"/><use xlink:href="#l" transform="matrix(0 -10 -10 0 9.104 129.354)"/><use xlink:href="#i" transform="matrix(0 -10 -10 0 7.794 125.404)"/><use xlink:href="#s" transform="matrix(0 -10 -10 0 8.714 116.574)"/><use xlink:href="#m" transform="matrix(0 -10 -10 0 7.924 112.664)"/><use xlink:href="#n" transform="matrix(0 -10 -10 0 9.104 107.024)"/><clipPath id="t"><path transform="matrix(1 0 0 -1 -7 305)" d="M43.778 37.544H309.89v266.112H43.778z"/></clipPath><g clip-path="url(#t)"><path stroke-width="2.5" stroke-linecap="square" stroke-linejoin="round" fill="none" stroke="teal" d="m48.874 255.36.49-9.447.997-29.999.307-3.767 1.005-23.68.333-3.065 1.063-18.191.78-10.405.4-3.513.09-1.593.292-1.594 1.03-9.833.315-1.212.922-6.958.416-2.234.216-1.086.274-2.107 2.566-15.134 1.786-7.597.357-1.218.35-1.144.307-.96.207-.449.1-.509.25-.449.215-.765.557-1.154.116-.442.432-.639.091-.322.4-.703.921-1.533 1.744-2.626.15-.128.29-.513.283-.252.274-.385.166-.193.324-.576.964-1.023.797-.836 1.37-1.284 1.513-1.215.14-1.79.682.701.282.067.366-.067.15.254.14-.064.208.065.291-.129.482-.195.581-.002.416-.258.232-.001 1.022-.707 1.312-.642.374-.257.598-.13.117-.196.216.064.132-.193.466-.065.232-.128.374.065.266-.258.855.188.166-.193.158.065.3-.003.298-.128.424.062.141.065.357-.134.374-.126.283-.195.307.064.382.057.59-.188 1.088-.066.125-.13.315.135.332.124.142-.003 1.18-.515.315.063.282-.07.872-.064.275-.126.1.124.157-.13.2.068.307-.065.523-.003.191-1.79.2.512.498.578.216.32h.216l.25.195.232-.001.207.187.549.07 1.054.123.84-.132h.282l.158.125.913.124.39-.132.242-.062.19-.066.134.129.116-.26.532-.064.332-.321.116-.13.15-1.79.116.573.183.13 1.329 2.233.606-.004.133.125.69-.262.249.125.224.064.324-.194.465-.13.125-.324.481.004.133-.131.125.064.307-.196.125.13.15-.005.157.194.274-.062.266-.26.681.065 1.205-.394 2.4.626.465.224.466.028.257-.064.191.13.515-.071.723-.26.681-.325h.648l.274-1.026.224-.385 1.205 1.406.183.317.73.634.208.316.2-1.536.207.642.49.48.158.15 1.346.253.913-.554.474-.196 1.495-.874.166-.258.266.002.25-.2 1.636-.27.49-.003.207.322.291.026 1.96 1.106.291-.003.191.133.947-.141.191-1.982.274.603 1.745 1.573.473 1.643.673-.028.897-.338.582-.116.29-.304.457-1.868.64.603.747.205.457.056.283.325.24-1.592.499-1.709 1.03-4.533.498-4.532.59-6.629.906-2.912.14-.308.134.185.29 1.177.283 1.663.299-3.686.274 1.707.324.69.257.76.266-3.699.15.984.141-.1.166.071.307-3.858.216.04.366-1.255.324 2.626.15 1.692.157.041.183-.684.191.926.282 3.549.142-.362.133-1.057.157-.13.44-1.074.624-3.066.664-2.43 1.105-.956.266-.294.34.517.914 2.99.54-4.065.307-.575 1.77-6.804.274-1.86.556-2.118.582-.48.357.108.448-.811.424-1.865.324-.873.482-2.06.34-.398.35-.725.265-2.849.29-.168.35.13.257-.212.258-.055.63.291.283-.113.216-.282.549 1.282.265-.258.88-1.588.55-1.153.564-1.157.897-3.043.773-1.861.29-.359.715-1.364.548-.772 1.329-1.227.274-.028.307.088.2-.114.282-1.954.64 1.562.54.643.68 1.086.275.304.332.672.2-1.146 1.013 1.374.631.468.308-.145.315-.315.582-1.14.506-.549.94-1.61.547-.836.333-2.386.257.53.266-.008.756.44.482.928.515.394.265.338.233.052.266.285.59.251.265-.03.241-1.988.673 5.036.44 3.567.848 6.198.324 3.02.323 1.198 1.039-3.097.34-1.801.44-3.467.134.255.747 1.167.499 1.081.274 1.025.407 1.855.498.51.34.392.466.31.174-.17.382.568.357.565.316.26 1.537 2.164.681.571.282.24.208.567 2.517 12.998.257.87.241-1.245.266.981.44 1.204.125.62.24.174.59-.325.524 2.057.216 1.394.282-1.877.756 3.52.964 11.261.531 2.528.258-.816.748 4.91.556.362.382-.031.357-.491.158-.404.324.658.307-1.04.333-.913.315-.637.374-.808.183-2.203.158.341.299-.063.415-.028.191.17.216-1.779.598 1.709.573 1.196.873 2.024.664 1.075.74.792.19.02.183.18.175-1.51.398.723.706.507.183-1.72.34.889.158.133.283.66.473.516.565.502.191-.102.166.152.781-.943.191.025.632-.306.432-.098.481.461.241.491.532.999.34.601.283.247.274-.018.257-2.036.208-1.663 1.063-8.383.873-4.447.323-.812.765-1.245.415-.287.15-.066.14.067.142-.11.166.163.141-.04.615.247.083-.18.108.115.158-.115.216.02.506 1.15.432 1.825.532 1.466.474 1.803 1.37 5.177.1.806.249.736.116.921.357 1.481.707 3.516.465 2.741.498 2.806.3 2.206 1.303 7.563.906 6.183 1.337 5.507.183.073.29.368.358-.318.199-.374.133-.005.224-.13.457-1.033.29-.937.582-2.084.216-.39.133-.746.34-2.6.275-1.153.15.16.249-.094.116.084.15-1.702.548-1.383.116-.45.822-1.343.324-.574.308-.649.232-.099.366-.821.274-.781.847-1.933.316-.368.988-1.716.922-1.555.233-.233.166-.415.15-.037.29-.562.507-.487 1.703-1.877.963-.569.54-.223.274-.289.175.012.14-.176 1.048-.214.307-.216.872-.347.3.011.14-.102.374-.105.141-1.927.69 1.674.15 1.04.157.01.69.498.14.02.167.194.141-.117.324.203.075-.129.141-1.804.482 1.45.299 1.701.399-.31.14-1.96.183.163.133-.134.35 1.813.174.799.14.052.765-.943.449.162.124-.088.357.034.3-.211.166-.103.307-.44.332-.063.449-.495.598-.5.74-.566h.165l.15-.114.174.114.266-.426.856-.106.299.073.69.088.49.222.282-.055.207-.011.141.273.175-.052.233.063.09-.115.142.063.166-.126.416-.038.108.186.855.032.283-.052 1.054-.175.208.07.125-.199.116.21.34.074.507.126.773-.438.183.208.68.136.2-.189.648-.118 4.186.41.366.006.274.133.15-.073.506.063.283.02.116-.136.415.13.382-.127.549.008.581.115.864.024.839.25.864-.004.299.066.158-.06.24.133.158-.125.133.115.15-.189.997.49.34.269.83-.392.175.2.424.063 1.146.262.092-.126.132.137.308-.2.124.23.4.233"/></g><clipPath id="u"><path transform="matrix(1 0 0 -1 -7 305)" d="M43.778 37.544H309.89v266.112H43.778z"/></clipPath><g clip-path="url(#u)"><path stroke-width="2.5" stroke-dasharray="9.25,4" stroke-linejoin="round" fill="none" stroke="red" d="M48.874 78.859h93.258l.2-20.975h1.046l.133 20.975.124-20.975h.748l.133-20.974h6.039l.315-20.975h29.181l.2 20.975h2.907l.141-20.975h1.786l.15 20.975h6.412l.224 20.974h4.436l.3 20.975h94.187"/></g><path stroke-width=".8" stroke-linecap="square" stroke-miterlimit="10" fill="none" stroke="#000" d="M36.778 267.456V1.344M302.89 267.456V1.344M36.778 267.456H302.89M36.778 1.344H302.89"/><path d="M167.046 262.456H295.89c1.333 0 2-.666 2-2v-28.344c0-1.333-.667-2-2-2H167.046c-1.333 0-2 .667-2 2v28.344c0 1.334.667 2 2 2z" fill="#fff" fill-opacity=".8"/><path stroke-miterlimit="10" fill="none" stroke="#d5d6d5" stroke-opacity=".8" d="M167.046 262.456H295.89c1.333 0 2-.666 2-2v-28.344c0-1.333-.667-2-2-2H167.046c-1.333 0-2 .667-2 2v28.344c0 1.334.667 2 2 2z"/><path stroke-width="2.5" stroke-linecap="square" stroke-linejoin="round" fill="none" stroke="teal" d="M169.046 238.206h20"/><symbol id="v"><path transform="matrix(.001 0 0 .001 -.056 .013)" d="M644 673V569c-34 30-69 53-107 69-38 15-77 23-119 23-84 0-148-26-192-77s-66-124-66-220 22-170 66-221 108-76 192-76c42 0 81 7 119 23 38 15 73 38 107 69V56c-35-24-72-41-110-52s-79-17-122-17C302-13 215 20 151 87S56 246 56 364c0 117 31 209 95 277 64 67 151 101 261 101 44 0 85-6 123-17 38-12 75-29 109-52z"/></symbol><symbol id="w"><path transform="matrix(.001 0 0 .001 -.085 .013)" d="M85 216v331h90V219c0-52 10-90 30-116s50-39 91-39c48 0 87 15 115 46s42 73 42 127v310h90V0h-90v84c-22-34-48-58-76-74-29-15-62-23-100-23-63 0-111 19-143 58-33 38-49 95-49 171zm226 344z"/></symbol><symbol id="x"><path transform="translate(-.091) scale(.001)" d="M411 463c-10 6-21 10-33 13-12 2-25 4-39 4-51 0-90-17-117-50-28-33-41-80-41-142V0H91v547h90v-85c18 33 43 58 73 74s67 24 111 24c6 0 13-1 21-1 7-1 15-2 25-4v-92z"/></symbol><symbol id="y"><path transform="translate(-.091) scale(.001)" d="M549 330V0h-90v327c0 52-11 90-31 116s-50 39-90 39c-49 0-87-16-115-47s-42-73-42-126V0H91v547h90v-85c21 32 46 57 76 73 29 16 63 25 101 25 62 0 110-20 142-59s49-96 49-171z"/></symbol><symbol id="z"><path transform="translate(-.027) scale(.001)" d="M183 702V547h185v-70H183V180c0-45 6-74 18-86 12-13 37-19 75-19h92V0h-92c-70 0-118 13-144 39s-39 73-39 141v297H27v70h66v155h90z"/></symbol><symbol id="A"><path transform="matrix(.001 0 0 .001 -.086 .131)" d="M310 759c-44-76-76-150-97-223-22-73-32-147-32-222 0-76 10-150 32-223 21-74 53-147 97-222h-78C183-54 146 20 122 94S86 241 86 314c0 72 12 145 36 219s60 149 110 226h78z"/></symbol><symbol id="B"><path transform="matrix(.001 0 0 .001 -.056 .013)" d="M394 662c-72 0-129-27-171-80-42-54-63-126-63-218s21-165 63-218c42-54 99-80 171-80 71 0 128 26 170 80 42 53 63 126 63 218s-21 164-63 218c-42 53-99 80-170 80zm0 80c102 0 183-35 245-103 61-68 92-160 92-275 0-116-31-207-92-275C577 21 496-13 394-13 291-13 209 21 148 89c-62 68-92 159-92 275 0 115 30 207 92 275 61 68 143 103 246 103z"/></symbol><symbol id="C"><path transform="matrix(.001 0 0 .001 -.08 .131)" d="M80 759h78c48-77 85-152 109-226s37-147 37-219c0-73-13-146-37-220S206-54 158-131H80c43 75 75 148 97 222 21 73 32 147 32 223 0 75-11 149-32 222-22 73-54 147-97 223z"/></symbol><use xlink:href="#v" transform="matrix(10 0 0 -10 197.606 241.836)"/><use xlink:href="#w" transform="matrix(10 0 0 -10 204.876 241.836)"/><use xlink:href="#x" transform="matrix(10 0 0 -10 211.276 241.706)"/><use xlink:href="#x" transform="matrix(10 0 0 -10 215.215 241.706)"/><use xlink:href="#j" transform="matrix(10 0 0 -10 218.746 241.836)"/><use xlink:href="#y" transform="matrix(10 0 0 -10 225.256 241.706)"/><use xlink:href="#z" transform="matrix(10 0 0 -10 230.956 241.706)"/><use xlink:href="#k" transform="matrix(10 0 0 -10 234.606 241.706)"/><use xlink:href="#m" transform="matrix(10 0 0 -10 238.326 241.836)"/><use xlink:href="#q" transform="matrix(10 0 0 -10 243.906 243.776)"/><use xlink:href="#j" transform="matrix(10 0 0 -10 249.896 241.836)"/><use xlink:href="#j" transform="matrix(10 0 0 -10 256.046 241.836)"/><use xlink:href="#r" transform="matrix(10 0 0 -10 262.196 241.836)"/><use xlink:href="#k" transform="matrix(10 0 0 -10 267.996 241.706)"/><use xlink:href="#A" transform="matrix(10 0 0 -10 272.036 243.016)"/><use xlink:href="#B" transform="matrix(10 0 0 -10 275.636 241.836)"/><use xlink:href="#p" transform="matrix(10 0 0 -10 283.606 241.836)"/><use xlink:href="#C" transform="matrix(10 0 0 -10 290.096 243.016)"/><path stroke-width="2.5" stroke-dasharray="9.25,4" stroke-linejoin="round" fill="none" stroke="red" d="M169.046 252.878h20"/><symbol id="D"><path transform="translate(-.098) scale(.001)" d="M197 648V81h119c100 0 174 22 221 68 46 46 70 118 70 216s-24 169-70 215c-47 45-121 68-221 68H197zm-99 81h203c141 0 245-30 311-88 66-59 99-151 99-276 0-126-34-218-100-277S441 0 301 0H98v729z"/></symbol><use xlink:href="#D" transform="matrix(10 0 0 -10 198.026 256.378)"/><use xlink:href="#j" transform="matrix(10 0 0 -10 205.296 256.508)"/><use xlink:href="#m" transform="matrix(10 0 0 -10 211.436 256.508)"/><use xlink:href="#h" transform="matrix(10 0 0 -10 217.046 256.378)"/><use xlink:href="#x" transform="matrix(10 0 0 -10 219.796 256.378)"/><use xlink:href="#j" transform="matrix(10 0 0 -10 223.328 256.508)"/><use xlink:href="#r" transform="matrix(10 0 0 -10 229.478 256.508)"/><use xlink:href="#k" transform="matrix(10 0 0 -10 235.278 256.378)"/><use xlink:href="#m" transform="matrix(10 0 0 -10 238.998 256.508)"/><use xlink:href="#q" transform="matrix(10 0 0 -10 244.578 258.448)"/><use xlink:href="#j" transform="matrix(10 0 0 -10 250.568 256.508)"/><use xlink:href="#j" transform="matrix(10 0 0 -10 256.718 256.508)"/><use xlink:href="#r" transform="matrix(10 0 0 -10 262.868 256.508)"/><use xlink:href="#k" transform="matrix(10 0 0 -10 268.668 256.378)"/><use xlink:href="#A" transform="matrix(10 0 0 -10 272.708 257.688)"/><use xlink:href="#B" transform="matrix(10 0 0 -10 276.308 256.508)"/><use xlink:href="#p" transform="matrix(10 0 0 -10 284.278 256.508)"/><use xlink:href="#C" transform="matrix(10 0 0 -10 290.768 257.688)"/></g></svg>