<?xml version="1.0" encoding="UTF-8"?>
<svg xmlns="http://www.w3.org/2000/svg" xmlns:xlink="http://www.w3.org/1999/xlink" width="400px" height="px" viewBox="0 0 400 412" version="1.1">
<defs>
<clipPath id="clip1">
  <path d="M 0 0 L 400 0 L 400 409.527344 L 0 409.527344 Z M 0 0 "/>
</clipPath>
</defs>
<g id="surface1">
<g clip-path="url(#clip1)" clip-rule="nonzero">
<path style=" stroke:none;fill-rule:nonzero;fill:rgb(100%,100%,100%);fill-opacity:1;" d="M -82.03125 409.527344 L 517.96875 409.527344 L 517.96875 -39.925781 L -82.03125 -39.925781 Z M -82.03125 409.527344 "/>
</g>
<path style=" stroke:none;fill-rule:nonzero;fill:rgb(100%,100%,100%);fill-opacity:1;" d="M 52.21875 360.089844 L 398.71875 360.089844 L 398.71875 14.007812 L 52.21875 14.007812 Z M 52.21875 360.089844 "/>
<path style="fill:none;stroke-width:0.8;stroke-linecap:butt;stroke-linejoin:round;stroke:rgb(0%,0%,0%);stroke-opacity:1;stroke-miterlimit:4;" d="M 49.509 266.984618 L 49.509 270.483859 " transform="matrix(1.302083,0,0,1.300505,0,12.875)"/>
<path style=" stroke:none;fill-rule:nonzero;fill:rgb(0%,0%,0%);fill-opacity:1;" d="M 64.46875 370.433594 C 63.804688 370.433594 63.308594 370.757812 62.96875 371.410156 C 62.632812 372.058594 62.476562 373.035156 62.476562 374.335938 C 62.476562 375.636719 62.632812 376.609375 62.96875 377.261719 C 63.308594 377.910156 63.804688 378.234375 64.46875 378.234375 C 65.132812 378.234375 65.625 377.910156 65.964844 377.261719 C 66.289062 376.609375 66.460938 375.636719 66.460938 374.335938 C 66.460938 373.035156 66.289062 372.058594 65.964844 371.410156 C 65.625 370.757812 65.132812 370.433594 64.46875 370.433594 Z M 64.46875 369.417969 C 65.523438 369.417969 66.328125 369.847656 66.902344 370.679688 C 67.460938 371.527344 67.75 372.75 67.75 374.335938 C 67.75 375.933594 67.460938 377.15625 66.902344 377.988281 C 66.328125 378.820312 65.523438 379.238281 64.453125 379.238281 C 63.386719 379.238281 62.578125 378.820312 62.019531 377.988281 C 61.460938 377.15625 61.1875 375.933594 61.1875 374.335938 C 61.1875 372.75 61.460938 371.527344 62.019531 370.679688 C 62.578125 369.847656 63.398438 369.417969 64.46875 369.417969 Z M 64.46875 369.417969 "/>
<path style="fill:none;stroke-width:0.8;stroke-linecap:butt;stroke-linejoin:round;stroke:rgb(0%,0%,0%);stroke-opacity:1;stroke-miterlimit:4;" d="M 94.785 266.984618 L 94.785 270.483859 " transform="matrix(1.302083,0,0,1.300505,0,12.875)"/>
<path style=" stroke:none;fill-rule:nonzero;fill:rgb(0%,0%,0%);fill-opacity:1;" d="M 120.683594 369.589844 L 125.722656 369.589844 L 125.722656 370.667969 L 121.855469 370.667969 L 121.855469 372.996094 C 122.035156 372.929688 122.230469 372.878906 122.414062 372.851562 C 122.597656 372.828125 122.792969 372.800781 122.972656 372.800781 C 124.027344 372.800781 124.863281 373.097656 125.488281 373.671875 C 126.113281 374.257812 126.425781 375.035156 126.425781 376.027344 C 126.425781 377.054688 126.097656 377.847656 125.460938 378.40625 C 124.824219 378.964844 123.925781 379.238281 122.777344 379.238281 C 122.375 379.238281 121.972656 379.199219 121.554688 379.148438 C 121.136719 379.082031 120.722656 378.992188 120.277344 378.847656 L 120.277344 377.558594 C 120.65625 377.769531 121.046875 377.925781 121.464844 378.027344 C 121.867188 378.132812 122.296875 378.171875 122.753906 378.171875 C 123.480469 378.171875 124.066406 377.988281 124.496094 377.597656 C 124.914062 377.207031 125.136719 376.6875 125.136719 376.027344 C 125.136719 375.375 124.914062 374.855469 124.496094 374.464844 C 124.066406 374.074219 123.480469 373.878906 122.753906 373.878906 C 122.414062 373.878906 122.0625 373.917969 121.722656 373.996094 C 121.386719 374.074219 121.035156 374.191406 120.683594 374.347656 Z M 120.683594 369.589844 "/>
<path style="fill:none;stroke-width:0.8;stroke-linecap:butt;stroke-linejoin:round;stroke:rgb(0%,0%,0%);stroke-opacity:1;stroke-miterlimit:4;" d="M 140.055 266.984618 L 140.055 270.483859 " transform="matrix(1.302083,0,0,1.300505,0,12.875)"/>
<path style=" stroke:none;fill-rule:nonzero;fill:rgb(0%,0%,0%);fill-opacity:1;" d="M 175.699219 377.988281 L 177.796875 377.988281 L 177.796875 370.757812 L 175.515625 371.214844 L 175.515625 370.042969 L 177.78125 369.589844 L 179.070312 369.589844 L 179.070312 377.988281 L 181.167969 377.988281 L 181.167969 379.070312 L 175.699219 379.070312 Z M 175.699219 377.988281 "/>
<path style=" stroke:none;fill-rule:nonzero;fill:rgb(0%,0%,0%);fill-opacity:1;" d="M 186.507812 370.433594 C 185.84375 370.433594 185.347656 370.757812 185.007812 371.410156 C 184.671875 372.058594 184.515625 373.035156 184.515625 374.335938 C 184.515625 375.636719 184.671875 376.609375 185.007812 377.261719 C 185.347656 377.910156 185.84375 378.234375 186.507812 378.234375 C 187.171875 378.234375 187.664062 377.910156 188.003906 377.261719 C 188.328125 376.609375 188.5 375.636719 188.5 374.335938 C 188.5 373.035156 188.328125 372.058594 188.003906 371.410156 C 187.664062 370.757812 187.171875 370.433594 186.507812 370.433594 Z M 186.507812 369.417969 C 187.5625 369.417969 188.367188 369.847656 188.941406 370.679688 C 189.5 371.527344 189.789062 372.75 189.789062 374.335938 C 189.789062 375.933594 189.5 377.15625 188.941406 377.988281 C 188.367188 378.820312 187.5625 379.238281 186.492188 379.238281 C 185.425781 379.238281 184.617188 378.820312 184.058594 377.988281 C 183.5 377.15625 183.226562 375.933594 183.226562 374.335938 C 183.226562 372.75 183.5 371.527344 184.058594 370.679688 C 184.617188 369.847656 185.4375 369.417969 186.507812 369.417969 Z M 186.507812 369.417969 "/>
<path style="fill:none;stroke-width:0.8;stroke-linecap:butt;stroke-linejoin:round;stroke:rgb(0%,0%,0%);stroke-opacity:1;stroke-miterlimit:4;" d="M 185.331 266.984618 L 185.331 270.483859 " transform="matrix(1.302083,0,0,1.300505,0,12.875)"/>
<path style=" stroke:none;fill-rule:nonzero;fill:rgb(0%,0%,0%);fill-opacity:1;" d="M 234.648438 377.988281 L 236.746094 377.988281 L 236.746094 370.757812 L 234.464844 371.214844 L 234.464844 370.042969 L 236.730469 369.589844 L 238.019531 369.589844 L 238.019531 377.988281 L 240.117188 377.988281 L 240.117188 379.070312 L 234.648438 379.070312 Z M 234.648438 377.988281 "/>
<path style=" stroke:none;fill-rule:nonzero;fill:rgb(0%,0%,0%);fill-opacity:1;" d="M 242.722656 369.589844 L 247.761719 369.589844 L 247.761719 370.667969 L 243.894531 370.667969 L 243.894531 372.996094 C 244.074219 372.929688 244.269531 372.878906 244.453125 372.851562 C 244.636719 372.828125 244.832031 372.800781 245.011719 372.800781 C 246.066406 372.800781 246.902344 373.097656 247.527344 373.671875 C 248.152344 374.257812 248.464844 375.035156 248.464844 376.027344 C 248.464844 377.054688 248.136719 377.847656 247.5 378.40625 C 246.863281 378.964844 245.964844 379.238281 244.816406 379.238281 C 244.414062 379.238281 244.011719 379.199219 243.59375 379.148438 C 243.175781 379.082031 242.761719 378.992188 242.316406 378.847656 L 242.316406 377.558594 C 242.695312 377.769531 243.085938 377.925781 243.503906 378.027344 C 243.90625 378.132812 244.335938 378.171875 244.792969 378.171875 C 245.519531 378.171875 246.105469 377.988281 246.535156 377.597656 C 246.953125 377.207031 247.175781 376.6875 247.175781 376.027344 C 247.175781 375.375 246.953125 374.855469 246.535156 374.464844 C 246.105469 374.074219 245.519531 373.878906 244.792969 373.878906 C 244.453125 373.878906 244.101562 373.917969 243.761719 373.996094 C 243.425781 374.074219 243.074219 374.191406 242.722656 374.347656 Z M 242.722656 369.589844 "/>
<path style="fill:none;stroke-width:0.8;stroke-linecap:butt;stroke-linejoin:round;stroke:rgb(0%,0%,0%);stroke-opacity:1;stroke-miterlimit:4;" d="M 230.601 266.984618 L 230.601 270.483859 " transform="matrix(1.302083,0,0,1.300505,0,12.875)"/>
<path style=" stroke:none;fill-rule:nonzero;fill:rgb(0%,0%,0%);fill-opacity:1;" d="M 294.484375 377.988281 L 298.960938 377.988281 L 298.960938 379.070312 L 292.933594 379.070312 L 292.933594 377.988281 C 293.414062 377.496094 294.078125 376.820312 294.925781 375.960938 C 295.757812 375.113281 296.292969 374.570312 296.515625 374.320312 C 296.929688 373.867188 297.21875 373.476562 297.375 373.152344 C 297.53125 372.839844 297.621094 372.515625 297.621094 372.203125 C 297.621094 371.707031 297.4375 371.292969 297.085938 370.980469 C 296.734375 370.667969 296.28125 370.5 295.707031 370.5 C 295.304688 370.5 294.875 370.578125 294.429688 370.707031 C 293.988281 370.847656 293.507812 371.058594 293 371.34375 L 293 370.042969 C 293.519531 369.835938 294 369.679688 294.445312 369.574219 C 294.886719 369.472656 295.304688 369.417969 295.679688 369.417969 C 296.65625 369.417969 297.4375 369.664062 298.023438 370.160156 C 298.609375 370.65625 298.910156 371.304688 298.910156 372.125 C 298.910156 372.515625 298.832031 372.890625 298.6875 373.230469 C 298.546875 373.582031 298.285156 373.996094 297.894531 374.464844 C 297.789062 374.59375 297.453125 374.945312 296.878906 375.53125 C 296.304688 376.117188 295.511719 376.9375 294.484375 377.988281 Z M 294.484375 377.988281 "/>
<path style=" stroke:none;fill-rule:nonzero;fill:rgb(0%,0%,0%);fill-opacity:1;" d="M 304.40625 370.433594 C 303.742188 370.433594 303.246094 370.757812 302.90625 371.410156 C 302.570312 372.058594 302.414062 373.035156 302.414062 374.335938 C 302.414062 375.636719 302.570312 376.609375 302.90625 377.261719 C 303.246094 377.910156 303.742188 378.234375 304.40625 378.234375 C 305.070312 378.234375 305.5625 377.910156 305.902344 377.261719 C 306.226562 376.609375 306.398438 375.636719 306.398438 374.335938 C 306.398438 373.035156 306.226562 372.058594 305.902344 371.410156 C 305.5625 370.757812 305.070312 370.433594 304.40625 370.433594 Z M 304.40625 369.417969 C 305.460938 369.417969 306.265625 369.847656 306.839844 370.679688 C 307.398438 371.527344 307.6875 372.75 307.6875 374.335938 C 307.6875 375.933594 307.398438 377.15625 306.839844 377.988281 C 306.265625 378.820312 305.460938 379.238281 304.390625 379.238281 C 303.324219 379.238281 302.515625 378.820312 301.957031 377.988281 C 301.398438 377.15625 301.125 375.933594 301.125 374.335938 C 301.125 372.75 301.398438 371.527344 301.957031 370.679688 C 302.515625 369.847656 303.335938 369.417969 304.40625 369.417969 Z M 304.40625 369.417969 "/>
<path style="fill:none;stroke-width:0.8;stroke-linecap:butt;stroke-linejoin:round;stroke:rgb(0%,0%,0%);stroke-opacity:1;stroke-miterlimit:4;" d="M 275.874 266.984618 L 275.874 270.483859 " transform="matrix(1.302083,0,0,1.300505,0,12.875)"/>
<path style=" stroke:none;fill-rule:nonzero;fill:rgb(0%,0%,0%);fill-opacity:1;" d="M 353.433594 377.988281 L 357.910156 377.988281 L 357.910156 379.070312 L 351.882812 379.070312 L 351.882812 377.988281 C 352.363281 377.496094 353.027344 376.820312 353.875 375.960938 C 354.707031 375.113281 355.242188 374.570312 355.464844 374.320312 C 355.878906 373.867188 356.167969 373.476562 356.324219 373.152344 C 356.480469 372.839844 356.570312 372.515625 356.570312 372.203125 C 356.570312 371.707031 356.386719 371.292969 356.035156 370.980469 C 355.683594 370.667969 355.230469 370.5 354.65625 370.5 C 354.253906 370.5 353.824219 370.578125 353.378906 370.707031 C 352.9375 370.847656 352.457031 371.058594 351.949219 371.34375 L 351.949219 370.042969 C 352.46875 369.835938 352.949219 369.679688 353.394531 369.574219 C 353.835938 369.472656 354.253906 369.417969 354.628906 369.417969 C 355.605469 369.417969 356.386719 369.664062 356.972656 370.160156 C 357.558594 370.65625 357.859375 371.304688 357.859375 372.125 C 357.859375 372.515625 357.78125 372.890625 357.636719 373.230469 C 357.496094 373.582031 357.234375 373.996094 356.84375 374.464844 C 356.738281 374.59375 356.402344 374.945312 355.828125 375.53125 C 355.253906 376.117188 354.460938 376.9375 353.433594 377.988281 Z M 353.433594 377.988281 "/>
<path style=" stroke:none;fill-rule:nonzero;fill:rgb(0%,0%,0%);fill-opacity:1;" d="M 360.621094 369.589844 L 365.660156 369.589844 L 365.660156 370.667969 L 361.792969 370.667969 L 361.792969 372.996094 C 361.972656 372.929688 362.167969 372.878906 362.351562 372.851562 C 362.535156 372.828125 362.730469 372.800781 362.910156 372.800781 C 363.964844 372.800781 364.800781 373.097656 365.425781 373.671875 C 366.050781 374.257812 366.363281 375.035156 366.363281 376.027344 C 366.363281 377.054688 366.035156 377.847656 365.398438 378.40625 C 364.761719 378.964844 363.863281 379.238281 362.714844 379.238281 C 362.3125 379.238281 361.910156 379.199219 361.492188 379.148438 C 361.074219 379.082031 360.660156 378.992188 360.214844 378.847656 L 360.214844 377.558594 C 360.59375 377.769531 360.984375 377.925781 361.402344 378.027344 C 361.804688 378.132812 362.234375 378.171875 362.691406 378.171875 C 363.417969 378.171875 364.003906 377.988281 364.433594 377.597656 C 364.851562 377.207031 365.074219 376.6875 365.074219 376.027344 C 365.074219 375.375 364.851562 374.855469 364.433594 374.464844 C 364.003906 374.074219 363.417969 373.878906 362.691406 373.878906 C 362.351562 373.878906 362 373.917969 361.660156 373.996094 C 361.324219 374.074219 360.972656 374.191406 360.621094 374.347656 Z M 360.621094 369.589844 "/>
<path style=" stroke:none;fill-rule:nonzero;fill:rgb(0%,0%,0%);fill-opacity:1;" d="M 198.902344 387.367188 L 206.921875 387.367188 L 206.921875 388.449219 L 203.550781 388.449219 L 203.550781 396.847656 L 202.261719 396.847656 L 202.261719 388.449219 L 198.902344 388.449219 Z M 198.902344 387.367188 "/>
<path style=" stroke:none;fill-rule:nonzero;fill:rgb(0%,0%,0%);fill-opacity:1;" d="M 207.722656 389.734375 L 208.894531 389.734375 L 208.894531 396.847656 L 207.722656 396.847656 Z M 207.722656 386.964844 L 208.894531 386.964844 L 208.894531 388.449219 L 207.722656 388.449219 Z M 207.722656 386.964844 "/>
<path style=" stroke:none;fill-rule:nonzero;fill:rgb(0%,0%,0%);fill-opacity:1;" d="M 216.886719 391.101562 C 217.175781 390.582031 217.527344 390.203125 217.929688 389.945312 C 218.332031 389.695312 218.816406 389.566406 219.375 389.566406 C 220.105469 389.566406 220.675781 389.828125 221.082031 390.347656 C 221.484375 390.867188 221.691406 391.609375 221.691406 392.558594 L 221.691406 396.847656 L 220.519531 396.847656 L 220.519531 392.597656 C 220.519531 391.921875 220.390625 391.414062 220.15625 391.074219 C 219.910156 390.75 219.542969 390.582031 219.050781 390.582031 C 218.4375 390.582031 217.957031 390.789062 217.605469 391.191406 C 217.253906 391.59375 217.082031 392.140625 217.082031 392.832031 L 217.082031 396.847656 L 215.910156 396.847656 L 215.910156 392.597656 C 215.910156 391.921875 215.78125 391.414062 215.546875 391.074219 C 215.300781 390.75 214.921875 390.582031 214.425781 390.582031 C 213.828125 390.582031 213.347656 390.789062 212.996094 391.191406 C 212.644531 391.59375 212.472656 392.140625 212.472656 392.832031 L 212.472656 396.847656 L 211.300781 396.847656 L 211.300781 389.734375 L 212.472656 389.734375 L 212.472656 390.839844 C 212.734375 390.410156 213.058594 390.085938 213.4375 389.878906 C 213.800781 389.671875 214.246094 389.566406 214.765625 389.566406 C 215.285156 389.566406 215.714844 389.695312 216.082031 389.957031 C 216.445312 390.214844 216.707031 390.605469 216.886719 391.101562 Z M 216.886719 391.101562 "/>
<path style=" stroke:none;fill-rule:nonzero;fill:rgb(0%,0%,0%);fill-opacity:1;" d="M 230.117188 393 L 230.117188 393.570312 L 224.738281 393.570312 C 224.792969 394.378906 225.027344 395.003906 225.46875 395.417969 C 225.898438 395.835938 226.496094 396.042969 227.277344 396.042969 C 227.722656 396.042969 228.164062 395.992188 228.582031 395.886719 C 228.996094 395.78125 229.425781 395.613281 229.84375 395.378906 L 229.84375 396.484375 C 229.425781 396.667969 228.996094 396.808594 228.554688 396.886719 C 228.113281 396.964844 227.65625 397.019531 227.214844 397.019531 C 226.066406 397.019531 225.167969 396.691406 224.503906 396.042969 C 223.839844 395.390625 223.515625 394.496094 223.515625 393.363281 C 223.515625 392.207031 223.828125 391.28125 224.453125 390.59375 C 225.078125 389.917969 225.9375 389.566406 227.003906 389.566406 C 227.96875 389.566406 228.722656 389.878906 229.285156 390.488281 C 229.832031 391.113281 230.117188 391.945312 230.117188 393 Z M 228.945312 392.660156 C 228.933594 392.023438 228.75 391.515625 228.410156 391.125 C 228.058594 390.75 227.589844 390.554688 227.019531 390.554688 C 226.367188 390.554688 225.847656 390.75 225.457031 391.113281 C 225.066406 391.476562 224.832031 392 224.777344 392.660156 Z M 228.945312 392.660156 "/>
<path style=" stroke:none;fill-rule:nonzero;fill:rgb(0%,0%,0%);fill-opacity:1;" d="M 236.066406 386.964844 L 238.761719 386.964844 L 238.761719 387.875 L 237.238281 387.875 L 237.238281 397.640625 L 238.761719 397.640625 L 238.761719 398.554688 L 236.066406 398.554688 Z M 236.066406 386.964844 "/>
<path style=" stroke:none;fill-rule:nonzero;fill:rgb(0%,0%,0%);fill-opacity:1;" d="M 245.792969 389.945312 L 245.792969 391.050781 C 245.457031 390.894531 245.117188 390.761719 244.765625 390.671875 C 244.402344 390.59375 244.035156 390.542969 243.660156 390.542969 C 243.074219 390.542969 242.628906 390.632812 242.34375 390.816406 C 242.058594 390.996094 241.914062 391.257812 241.914062 391.609375 C 241.914062 391.882812 242.019531 392.089844 242.226562 392.246094 C 242.433594 392.402344 242.851562 392.558594 243.476562 392.6875 L 243.878906 392.777344 C 244.714844 392.960938 245.300781 393.222656 245.652344 393.53125 C 245.988281 393.859375 246.171875 394.3125 246.171875 394.886719 C 246.171875 395.546875 245.910156 396.070312 245.390625 396.445312 C 244.871094 396.835938 244.140625 397.019531 243.230469 397.019531 C 242.839844 397.019531 242.449219 396.980469 242.03125 396.914062 C 241.613281 396.847656 241.183594 396.746094 240.730469 396.589844 L 240.730469 395.378906 C 241.160156 395.613281 241.589844 395.78125 242.003906 395.886719 C 242.421875 396.003906 242.839844 396.054688 243.253906 396.054688 C 243.800781 396.054688 244.230469 395.964844 244.53125 395.78125 C 244.816406 395.601562 244.972656 395.328125 244.972656 394.976562 C 244.972656 394.664062 244.855469 394.417969 244.648438 394.25 C 244.441406 394.078125 243.972656 393.910156 243.242188 393.753906 L 242.839844 393.664062 C 242.109375 393.507812 241.574219 393.273438 241.261719 392.960938 C 240.9375 392.648438 240.78125 392.21875 240.78125 391.660156 C 240.78125 390.996094 241.015625 390.476562 241.484375 390.113281 C 241.953125 389.75 242.628906 389.566406 243.515625 389.566406 C 243.945312 389.566406 244.347656 389.605469 244.738281 389.671875 C 245.117188 389.734375 245.46875 389.828125 245.792969 389.945312 Z M 245.792969 389.945312 "/>
<path style=" stroke:none;fill-rule:nonzero;fill:rgb(0%,0%,0%);fill-opacity:1;" d="M 250.769531 386.964844 L 250.769531 398.554688 L 248.074219 398.554688 L 248.074219 397.640625 L 249.597656 397.640625 L 249.597656 387.875 L 248.074219 387.875 L 248.074219 386.964844 Z M 250.769531 386.964844 "/>
<path style="fill:none;stroke-width:0.8;stroke-linecap:butt;stroke-linejoin:round;stroke:rgb(0%,0%,0%);stroke-opacity:1;stroke-miterlimit:4;" d="M 40.104 238.77142 L 36.603 238.77142 " transform="matrix(1.302083,0,0,1.300505,0,12.875)"/>
<path style=" stroke:none;fill-rule:nonzero;fill:rgb(0%,0%,0%);fill-opacity:1;" d="M 29.042969 327.253906 L 33.523438 327.253906 L 33.523438 328.332031 L 27.492188 328.332031 L 27.492188 327.253906 C 27.976562 326.757812 28.640625 326.082031 29.484375 325.226562 C 30.320312 324.378906 30.851562 323.832031 31.074219 323.585938 C 31.492188 323.132812 31.777344 322.742188 31.933594 322.414062 C 32.089844 322.105469 32.179688 321.777344 32.179688 321.464844 C 32.179688 320.972656 32 320.554688 31.648438 320.246094 C 31.296875 319.933594 30.839844 319.761719 30.265625 319.761719 C 29.863281 319.761719 29.433594 319.839844 28.992188 319.972656 C 28.546875 320.113281 28.066406 320.320312 27.558594 320.609375 L 27.558594 319.308594 C 28.078125 319.101562 28.5625 318.945312 29.003906 318.839844 C 29.445312 318.734375 29.863281 318.683594 30.242188 318.683594 C 31.21875 318.683594 32 318.929688 32.585938 319.425781 C 33.171875 319.917969 33.46875 320.570312 33.46875 321.386719 C 33.46875 321.777344 33.390625 322.15625 33.25 322.492188 C 33.105469 322.84375 32.84375 323.261719 32.453125 323.730469 C 32.351562 323.859375 32.011719 324.210938 31.4375 324.796875 C 30.867188 325.382812 30.070312 326.199219 29.042969 327.253906 Z M 29.042969 327.253906 "/>
<path style=" stroke:none;fill-rule:nonzero;fill:rgb(0%,0%,0%);fill-opacity:1;" d="M 36.230469 318.851562 L 41.269531 318.851562 L 41.269531 319.933594 L 37.402344 319.933594 L 37.402344 322.261719 C 37.585938 322.195312 37.78125 322.144531 37.960938 322.117188 C 38.144531 322.089844 38.339844 322.066406 38.523438 322.066406 C 39.578125 322.066406 40.410156 322.363281 41.035156 322.9375 C 41.660156 323.519531 41.972656 324.300781 41.972656 325.289062 C 41.972656 326.316406 41.648438 327.109375 41.007812 327.671875 C 40.371094 328.230469 39.472656 328.503906 38.328125 328.503906 C 37.921875 328.503906 37.519531 328.464844 37.101562 328.410156 C 36.6875 328.347656 36.269531 328.253906 35.828125 328.113281 L 35.828125 326.824219 C 36.203125 327.03125 36.59375 327.1875 37.011719 327.292969 C 37.414062 327.398438 37.84375 327.4375 38.300781 327.4375 C 39.03125 327.4375 39.617188 327.253906 40.046875 326.863281 C 40.460938 326.472656 40.683594 325.953125 40.683594 325.289062 C 40.683594 324.640625 40.460938 324.121094 40.046875 323.730469 C 39.617188 323.339844 39.03125 323.144531 38.300781 323.144531 C 37.960938 323.144531 37.609375 323.183594 37.273438 323.261719 C 36.933594 323.339844 36.582031 323.457031 36.230469 323.613281 Z M 36.230469 318.851562 "/>
<path style="fill:none;stroke-width:0.8;stroke-linecap:butt;stroke-linejoin:round;stroke:rgb(0%,0%,0%);stroke-opacity:1;stroke-miterlimit:4;" d="M 40.104 204.70713 L 36.603 204.70713 " transform="matrix(1.302083,0,0,1.300505,0,12.875)"/>
<path style=" stroke:none;fill-rule:nonzero;fill:rgb(0%,0%,0%);fill-opacity:1;" d="M 27.949219 274.554688 L 32.988281 274.554688 L 32.988281 275.632812 L 29.121094 275.632812 L 29.121094 277.960938 C 29.304688 277.898438 29.5 277.84375 29.679688 277.820312 C 29.863281 277.792969 30.058594 277.765625 30.242188 277.765625 C 31.296875 277.765625 32.128906 278.066406 32.753906 278.636719 C 33.378906 279.222656 33.691406 280.003906 33.691406 280.992188 C 33.691406 282.019531 33.367188 282.8125 32.726562 283.371094 C 32.089844 283.929688 31.191406 284.203125 30.046875 284.203125 C 29.640625 284.203125 29.238281 284.164062 28.820312 284.113281 C 28.40625 284.046875 27.988281 283.957031 27.546875 283.8125 L 27.546875 282.527344 C 27.921875 282.734375 28.3125 282.890625 28.730469 282.996094 C 29.132812 283.097656 29.5625 283.136719 30.019531 283.136719 C 30.75 283.136719 31.335938 282.957031 31.765625 282.566406 C 32.179688 282.175781 32.402344 281.65625 32.402344 280.992188 C 32.402344 280.34375 32.179688 279.820312 31.765625 279.433594 C 31.335938 279.042969 30.75 278.847656 30.019531 278.847656 C 29.679688 278.847656 29.328125 278.886719 28.992188 278.964844 C 28.652344 279.042969 28.300781 279.160156 27.949219 279.316406 Z M 27.949219 274.554688 "/>
<path style=" stroke:none;fill-rule:nonzero;fill:rgb(0%,0%,0%);fill-opacity:1;" d="M 38.964844 275.398438 C 38.300781 275.398438 37.804688 275.726562 37.46875 276.375 C 37.128906 277.027344 36.972656 278 36.972656 279.300781 C 36.972656 280.601562 37.128906 281.578125 37.46875 282.226562 C 37.804688 282.878906 38.300781 283.203125 38.964844 283.203125 C 39.628906 283.203125 40.125 282.878906 40.460938 282.226562 C 40.789062 281.578125 40.957031 280.601562 40.957031 279.300781 C 40.957031 278 40.789062 277.027344 40.460938 276.375 C 40.125 275.726562 39.628906 275.398438 38.964844 275.398438 Z M 38.964844 274.386719 C 40.019531 274.386719 40.828125 274.816406 41.398438 275.648438 C 41.960938 276.492188 42.246094 277.714844 42.246094 279.300781 C 42.246094 280.902344 41.960938 282.125 41.398438 282.957031 C 40.828125 283.789062 40.019531 284.203125 38.953125 284.203125 C 37.882812 284.203125 37.078125 283.789062 36.515625 282.957031 C 35.957031 282.125 35.683594 280.902344 35.683594 279.300781 C 35.683594 277.714844 35.957031 276.492188 36.515625 275.648438 C 37.078125 274.816406 37.898438 274.386719 38.964844 274.386719 Z M 38.964844 274.386719 "/>
<path style="fill:none;stroke-width:0.8;stroke-linecap:butt;stroke-linejoin:round;stroke:rgb(0%,0%,0%);stroke-opacity:1;stroke-miterlimit:4;" d="M 40.104 170.64284 L 36.603 170.64284 " transform="matrix(1.302083,0,0,1.300505,0,12.875)"/>
<path style=" stroke:none;fill-rule:nonzero;fill:rgb(0%,0%,0%);fill-opacity:1;" d="M 27.609375 230.253906 L 33.71875 230.253906 L 33.71875 230.800781 L 30.265625 239.738281 L 28.925781 239.738281 L 32.167969 231.335938 L 27.609375 231.335938 Z M 27.609375 230.253906 "/>
<path style=" stroke:none;fill-rule:nonzero;fill:rgb(0%,0%,0%);fill-opacity:1;" d="M 36.230469 230.253906 L 41.269531 230.253906 L 41.269531 231.335938 L 37.402344 231.335938 L 37.402344 233.664062 C 37.585938 233.597656 37.78125 233.546875 37.960938 233.519531 C 38.144531 233.492188 38.339844 233.46875 38.523438 233.46875 C 39.578125 233.46875 40.410156 233.765625 41.035156 234.339844 C 41.660156 234.925781 41.972656 235.703125 41.972656 236.691406 C 41.972656 237.71875 41.648438 238.515625 41.007812 239.074219 C 40.371094 239.632812 39.472656 239.90625 38.328125 239.90625 C 37.921875 239.90625 37.519531 239.867188 37.101562 239.8125 C 36.6875 239.75 36.269531 239.660156 35.828125 239.515625 L 35.828125 238.226562 C 36.203125 238.4375 36.59375 238.59375 37.011719 238.695312 C 37.414062 238.800781 37.84375 238.839844 38.300781 238.839844 C 39.03125 238.839844 39.617188 238.65625 40.046875 238.265625 C 40.460938 237.875 40.683594 237.355469 40.683594 236.691406 C 40.683594 236.042969 40.460938 235.523438 40.046875 235.132812 C 39.617188 234.742188 39.03125 234.546875 38.300781 234.546875 C 37.960938 234.546875 37.609375 234.585938 37.273438 234.664062 C 36.933594 234.742188 36.582031 234.859375 36.230469 235.015625 Z M 36.230469 230.253906 "/>
<path style="fill:none;stroke-width:0.8;stroke-linecap:butt;stroke-linejoin:round;stroke:rgb(0%,0%,0%);stroke-opacity:1;stroke-miterlimit:4;" d="M 40.104 136.581553 L 36.603 136.581553 " transform="matrix(1.302083,0,0,1.300505,0,12.875)"/>
<path style=" stroke:none;fill-rule:nonzero;fill:rgb(0%,0%,0%);fill-opacity:1;" d="M 19.878906 194.359375 L 21.972656 194.359375 L 21.972656 187.128906 L 19.695312 187.582031 L 19.695312 186.410156 L 21.960938 185.957031 L 23.25 185.957031 L 23.25 194.359375 L 25.347656 194.359375 L 25.347656 195.4375 L 19.878906 195.4375 Z M 19.878906 194.359375 "/>
<path style=" stroke:none;fill-rule:nonzero;fill:rgb(0%,0%,0%);fill-opacity:1;" d="M 30.683594 186.800781 C 30.019531 186.800781 29.527344 187.128906 29.1875 187.777344 C 28.847656 188.425781 28.691406 189.402344 28.691406 190.703125 C 28.691406 192.003906 28.847656 192.980469 29.1875 193.628906 C 29.527344 194.28125 30.019531 194.605469 30.683594 194.605469 C 31.347656 194.605469 31.84375 194.28125 32.183594 193.628906 C 32.507812 192.980469 32.675781 192.003906 32.675781 190.703125 C 32.675781 189.402344 32.507812 188.425781 32.183594 187.777344 C 31.84375 187.128906 31.347656 186.800781 30.683594 186.800781 Z M 30.683594 185.789062 C 31.738281 185.789062 32.546875 186.214844 33.121094 187.050781 C 33.679688 187.894531 33.964844 189.117188 33.964844 190.703125 C 33.964844 192.304688 33.679688 193.527344 33.121094 194.359375 C 32.546875 195.191406 31.738281 195.605469 30.671875 195.605469 C 29.605469 195.605469 28.796875 195.191406 28.238281 194.359375 C 27.675781 193.527344 27.402344 192.304688 27.402344 190.703125 C 27.402344 189.117188 27.675781 187.894531 28.238281 187.050781 C 28.796875 186.214844 29.617188 185.789062 30.683594 185.789062 Z M 30.683594 185.789062 "/>
<path style=" stroke:none;fill-rule:nonzero;fill:rgb(0%,0%,0%);fill-opacity:1;" d="M 38.964844 186.800781 C 38.300781 186.800781 37.808594 187.128906 37.46875 187.777344 C 37.128906 188.425781 36.972656 189.402344 36.972656 190.703125 C 36.972656 192.003906 37.128906 192.980469 37.46875 193.628906 C 37.808594 194.28125 38.300781 194.605469 38.964844 194.605469 C 39.628906 194.605469 40.125 194.28125 40.464844 193.628906 C 40.789062 192.980469 40.957031 192.003906 40.957031 190.703125 C 40.957031 189.402344 40.789062 188.425781 40.464844 187.777344 C 40.125 187.128906 39.628906 186.800781 38.964844 186.800781 Z M 38.964844 185.789062 C 40.019531 185.789062 40.828125 186.214844 41.402344 187.050781 C 41.960938 187.894531 42.246094 189.117188 42.246094 190.703125 C 42.246094 192.304688 41.960938 193.527344 41.402344 194.359375 C 40.828125 195.191406 40.019531 195.605469 38.953125 195.605469 C 37.886719 195.605469 37.078125 195.191406 36.519531 194.359375 C 35.957031 193.527344 35.683594 192.304688 35.683594 190.703125 C 35.683594 189.117188 35.957031 187.894531 36.519531 187.050781 C 37.078125 186.214844 37.898438 185.789062 38.964844 185.789062 Z M 38.964844 185.789062 "/>
<path style="fill:none;stroke-width:0.8;stroke-linecap:butt;stroke-linejoin:round;stroke:rgb(0%,0%,0%);stroke-opacity:1;stroke-miterlimit:4;" d="M 40.104 102.520267 L 36.603 102.520267 " transform="matrix(1.302083,0,0,1.300505,0,12.875)"/>
<path style=" stroke:none;fill-rule:nonzero;fill:rgb(0%,0%,0%);fill-opacity:1;" d="M 19.878906 150.058594 L 21.972656 150.058594 L 21.972656 142.828125 L 19.695312 143.285156 L 19.695312 142.113281 L 21.960938 141.660156 L 23.25 141.660156 L 23.25 150.058594 L 25.347656 150.058594 L 25.347656 151.140625 L 19.878906 151.140625 Z M 19.878906 150.058594 "/>
<path style=" stroke:none;fill-rule:nonzero;fill:rgb(0%,0%,0%);fill-opacity:1;" d="M 29.042969 150.058594 L 33.523438 150.058594 L 33.523438 151.140625 L 27.496094 151.140625 L 27.496094 150.058594 C 27.976562 149.566406 28.640625 148.890625 29.488281 148.03125 C 30.320312 147.1875 30.855469 146.640625 31.074219 146.394531 C 31.492188 145.9375 31.777344 145.546875 31.933594 145.222656 C 32.089844 144.910156 32.183594 144.585938 32.183594 144.273438 C 32.183594 143.777344 32 143.363281 31.648438 143.050781 C 31.296875 142.738281 30.839844 142.570312 30.269531 142.570312 C 29.863281 142.570312 29.433594 142.648438 28.992188 142.777344 C 28.550781 142.921875 28.066406 143.128906 27.558594 143.414062 L 27.558594 142.113281 C 28.082031 141.90625 28.5625 141.75 29.003906 141.644531 C 29.449219 141.542969 29.863281 141.488281 30.242188 141.488281 C 31.21875 141.488281 32 141.738281 32.585938 142.230469 C 33.171875 142.726562 33.472656 143.375 33.472656 144.195312 C 33.472656 144.585938 33.394531 144.960938 33.25 145.300781 C 33.105469 145.652344 32.847656 146.066406 32.457031 146.535156 C 32.351562 146.664062 32.011719 147.015625 31.441406 147.601562 C 30.867188 148.1875 30.074219 149.007812 29.042969 150.058594 Z M 29.042969 150.058594 "/>
<path style=" stroke:none;fill-rule:nonzero;fill:rgb(0%,0%,0%);fill-opacity:1;" d="M 36.230469 141.660156 L 41.269531 141.660156 L 41.269531 142.738281 L 37.402344 142.738281 L 37.402344 145.066406 C 37.585938 145 37.78125 144.949219 37.964844 144.921875 C 38.144531 144.898438 38.339844 144.871094 38.523438 144.871094 C 39.578125 144.871094 40.410156 145.171875 41.035156 145.742188 C 41.660156 146.328125 41.972656 147.109375 41.972656 148.097656 C 41.972656 149.125 41.648438 149.917969 41.011719 150.476562 C 40.371094 151.035156 39.472656 151.308594 38.328125 151.308594 C 37.925781 151.308594 37.519531 151.269531 37.105469 151.21875 C 36.6875 151.152344 36.269531 151.0625 35.828125 150.917969 L 35.828125 149.632812 C 36.207031 149.839844 36.597656 149.996094 37.011719 150.097656 C 37.417969 150.203125 37.847656 150.242188 38.300781 150.242188 C 39.03125 150.242188 39.617188 150.058594 40.046875 149.671875 C 40.464844 149.28125 40.683594 148.757812 40.683594 148.097656 C 40.683594 147.445312 40.464844 146.925781 40.046875 146.535156 C 39.617188 146.144531 39.03125 145.949219 38.300781 145.949219 C 37.964844 145.949219 37.613281 145.988281 37.273438 146.066406 C 36.933594 146.144531 36.582031 146.261719 36.230469 146.417969 Z M 36.230469 141.660156 "/>
<path style="fill:none;stroke-width:0.8;stroke-linecap:butt;stroke-linejoin:round;stroke:rgb(0%,0%,0%);stroke-opacity:1;stroke-miterlimit:4;" d="M 40.104 68.455977 L 36.603 68.455977 " transform="matrix(1.302083,0,0,1.300505,0,12.875)"/>
<path style=" stroke:none;fill-rule:nonzero;fill:rgb(0%,0%,0%);fill-opacity:1;" d="M 19.878906 105.761719 L 21.972656 105.761719 L 21.972656 98.53125 L 19.695312 98.984375 L 19.695312 97.816406 L 21.960938 97.359375 L 23.25 97.359375 L 23.25 105.761719 L 25.347656 105.761719 L 25.347656 106.839844 L 19.878906 106.839844 Z M 19.878906 105.761719 "/>
<path style=" stroke:none;fill-rule:nonzero;fill:rgb(0%,0%,0%);fill-opacity:1;" d="M 27.949219 97.359375 L 32.988281 97.359375 L 32.988281 98.4375 L 29.121094 98.4375 L 29.121094 100.765625 C 29.304688 100.703125 29.5 100.648438 29.683594 100.625 C 29.863281 100.597656 30.058594 100.570312 30.242188 100.570312 C 31.296875 100.570312 32.128906 100.871094 32.753906 101.441406 C 33.378906 102.027344 33.691406 102.808594 33.691406 103.796875 C 33.691406 104.824219 33.367188 105.617188 32.730469 106.175781 C 32.089844 106.738281 31.191406 107.007812 30.046875 107.007812 C 29.644531 107.007812 29.238281 106.96875 28.824219 106.917969 C 28.40625 106.851562 27.988281 106.761719 27.546875 106.621094 L 27.546875 105.332031 C 27.925781 105.539062 28.316406 105.695312 28.730469 105.800781 C 29.136719 105.902344 29.566406 105.941406 30.019531 105.941406 C 30.75 105.941406 31.335938 105.761719 31.765625 105.371094 C 32.183594 104.980469 32.402344 104.460938 32.402344 103.796875 C 32.402344 103.148438 32.183594 102.625 31.765625 102.238281 C 31.335938 101.847656 30.75 101.652344 30.019531 101.652344 C 29.683594 101.652344 29.332031 101.691406 28.992188 101.769531 C 28.652344 101.847656 28.300781 101.964844 27.949219 102.121094 Z M 27.949219 97.359375 "/>
<path style=" stroke:none;fill-rule:nonzero;fill:rgb(0%,0%,0%);fill-opacity:1;" d="M 38.964844 98.203125 C 38.300781 98.203125 37.808594 98.53125 37.46875 99.179688 C 37.128906 99.832031 36.972656 100.804688 36.972656 102.105469 C 36.972656 103.40625 37.128906 104.382812 37.46875 105.03125 C 37.808594 105.683594 38.300781 106.007812 38.964844 106.007812 C 39.628906 106.007812 40.125 105.683594 40.464844 105.03125 C 40.789062 104.382812 40.957031 103.40625 40.957031 102.105469 C 40.957031 100.804688 40.789062 99.832031 40.464844 99.179688 C 40.125 98.53125 39.628906 98.203125 38.964844 98.203125 Z M 38.964844 97.191406 C 40.019531 97.191406 40.828125 97.621094 41.402344 98.453125 C 41.960938 99.296875 42.246094 100.519531 42.246094 102.105469 C 42.246094 103.707031 41.960938 104.929688 41.402344 105.761719 C 40.828125 106.59375 40.019531 107.007812 38.953125 107.007812 C 37.886719 107.007812 37.078125 106.59375 36.519531 105.761719 C 35.957031 104.929688 35.683594 103.707031 35.683594 102.105469 C 35.683594 100.519531 35.957031 99.296875 36.519531 98.453125 C 37.078125 97.621094 37.898438 97.191406 38.964844 97.191406 Z M 38.964844 97.191406 "/>
<path style="fill:none;stroke-width:0.8;stroke-linecap:butt;stroke-linejoin:round;stroke:rgb(0%,0%,0%);stroke-opacity:1;stroke-miterlimit:4;" d="M 40.104 34.394691 L 36.603 34.394691 " transform="matrix(1.302083,0,0,1.300505,0,12.875)"/>
<path style=" stroke:none;fill-rule:nonzero;fill:rgb(0%,0%,0%);fill-opacity:1;" d="M 19.878906 61.460938 L 21.972656 61.460938 L 21.972656 54.230469 L 19.695312 54.6875 L 19.695312 53.515625 L 21.960938 53.0625 L 23.25 53.0625 L 23.25 61.460938 L 25.347656 61.460938 L 25.347656 62.542969 L 19.878906 62.542969 Z M 19.878906 61.460938 "/>
<path style=" stroke:none;fill-rule:nonzero;fill:rgb(0%,0%,0%);fill-opacity:1;" d="M 27.613281 53.0625 L 33.71875 53.0625 L 33.71875 53.605469 L 30.269531 62.542969 L 28.925781 62.542969 L 32.167969 54.140625 L 27.613281 54.140625 Z M 27.613281 53.0625 "/>
<path style=" stroke:none;fill-rule:nonzero;fill:rgb(0%,0%,0%);fill-opacity:1;" d="M 36.230469 53.0625 L 41.269531 53.0625 L 41.269531 54.140625 L 37.402344 54.140625 L 37.402344 56.46875 C 37.585938 56.402344 37.78125 56.351562 37.964844 56.324219 C 38.144531 56.300781 38.339844 56.273438 38.523438 56.273438 C 39.578125 56.273438 40.410156 56.570312 41.035156 57.144531 C 41.660156 57.730469 41.972656 58.507812 41.972656 59.5 C 41.972656 60.527344 41.648438 61.320312 41.011719 61.878906 C 40.371094 62.4375 39.472656 62.710938 38.328125 62.710938 C 37.925781 62.710938 37.519531 62.671875 37.105469 62.621094 C 36.6875 62.554688 36.269531 62.464844 35.828125 62.320312 L 35.828125 61.03125 C 36.207031 61.242188 36.597656 61.398438 37.011719 61.5 C 37.417969 61.605469 37.847656 61.644531 38.300781 61.644531 C 39.03125 61.644531 39.617188 61.460938 40.046875 61.070312 C 40.464844 60.679688 40.683594 60.160156 40.683594 59.5 C 40.683594 58.847656 40.464844 58.328125 40.046875 57.9375 C 39.617188 57.546875 39.03125 57.351562 38.300781 57.351562 C 37.964844 57.351562 37.613281 57.390625 37.273438 57.46875 C 36.933594 57.546875 36.582031 57.664062 36.230469 57.820312 Z M 36.230469 53.0625 "/>
<path style=" stroke:none;fill-rule:nonzero;fill:rgb(0%,0%,0%);fill-opacity:1;" d="M 1.910156 226.429688 L 9.292969 226.429688 L 9.292969 224.878906 C 9.292969 223.582031 9.007812 222.617188 8.410156 222.007812 C 7.808594 221.410156 6.871094 221.097656 5.597656 221.097656 C 4.320312 221.097656 3.394531 221.410156 2.796875 222.007812 C 2.210938 222.617188 1.910156 223.582031 1.910156 224.878906 Z M 0.855469 227.714844 L 0.855469 225.074219 C 0.855469 223.242188 1.246094 221.890625 2.003906 221.03125 C 2.769531 220.171875 3.96875 219.742188 5.597656 219.742188 C 7.238281 219.742188 8.433594 220.1875 9.203125 221.042969 C 9.972656 221.902344 10.347656 223.253906 10.347656 225.074219 L 10.347656 227.714844 Z M 0.855469 227.714844 "/>
<path style=" stroke:none;fill-rule:nonzero;fill:rgb(0%,0%,0%);fill-opacity:1;" d="M 3.226562 217.753906 L 3.226562 216.582031 L 10.347656 216.582031 L 10.347656 217.753906 Z M 0.453125 217.753906 L 0.453125 216.582031 L 1.9375 216.582031 L 1.9375 217.753906 Z M 0.453125 217.753906 "/>
<path style=" stroke:none;fill-rule:nonzero;fill:rgb(0%,0%,0%);fill-opacity:1;" d="M 3.433594 209.601562 L 4.542969 209.601562 C 4.386719 209.9375 4.253906 210.277344 4.164062 210.628906 C 4.085938 210.992188 4.035156 211.355469 4.035156 211.734375 C 4.035156 212.316406 4.125 212.761719 4.308594 213.046875 C 4.488281 213.332031 4.75 213.476562 5.101562 213.476562 C 5.375 213.476562 5.582031 213.371094 5.738281 213.164062 C 5.894531 212.957031 6.050781 212.539062 6.183594 211.914062 L 6.273438 211.511719 C 6.457031 210.679688 6.714844 210.09375 7.027344 209.742188 C 7.355469 209.40625 7.808594 209.222656 8.382812 209.222656 C 9.046875 209.222656 9.566406 209.484375 9.945312 210.003906 C 10.335938 210.523438 10.519531 211.25 10.519531 212.160156 C 10.519531 212.550781 10.480469 212.941406 10.414062 213.359375 C 10.347656 213.773438 10.246094 214.203125 10.089844 214.660156 L 8.878906 214.660156 C 9.113281 214.230469 9.28125 213.800781 9.386719 213.382812 C 9.503906 212.96875 9.554688 212.550781 9.554688 212.136719 C 9.554688 211.589844 9.464844 211.160156 9.28125 210.859375 C 9.097656 210.574219 8.824219 210.417969 8.472656 210.417969 C 8.160156 210.417969 7.914062 210.535156 7.746094 210.746094 C 7.574219 210.953125 7.40625 211.421875 7.25 212.148438 L 7.160156 212.550781 C 7.003906 213.28125 6.769531 213.8125 6.457031 214.125 C 6.144531 214.449219 5.714844 214.605469 5.152344 214.605469 C 4.488281 214.605469 3.96875 214.371094 3.605469 213.90625 C 3.238281 213.4375 3.058594 212.761719 3.058594 211.875 C 3.058594 211.445312 3.097656 211.042969 3.160156 210.652344 C 3.226562 210.277344 3.316406 209.925781 3.433594 209.601562 Z M 3.433594 209.601562 "/>
<path style=" stroke:none;fill-rule:nonzero;fill:rgb(0%,0%,0%);fill-opacity:1;" d="M 1.207031 206.207031 L 3.226562 206.207031 L 3.226562 203.800781 L 4.136719 203.800781 L 4.136719 206.207031 L 8.003906 206.207031 C 8.589844 206.207031 8.96875 206.128906 9.125 205.972656 C 9.292969 205.816406 9.371094 205.488281 9.371094 204.996094 L 9.371094 203.800781 L 10.347656 203.800781 L 10.347656 204.996094 C 10.347656 205.90625 10.179688 206.53125 9.839844 206.867188 C 9.503906 207.207031 8.890625 207.375 8.003906 207.375 L 4.136719 207.375 L 4.136719 208.234375 L 3.226562 208.234375 L 3.226562 207.375 L 1.207031 207.375 Z M 1.207031 206.207031 "/>
<path style=" stroke:none;fill-rule:nonzero;fill:rgb(0%,0%,0%);fill-opacity:1;" d="M 6.769531 199.027344 C 6.769531 199.976562 6.886719 200.625 7.09375 200.992188 C 7.316406 201.355469 7.679688 201.535156 8.199219 201.535156 C 8.617188 201.535156 8.957031 201.40625 9.191406 201.132812 C 9.4375 200.859375 9.554688 200.484375 9.554688 200.015625 C 9.554688 199.363281 9.332031 198.84375 8.863281 198.453125 C 8.410156 198.0625 7.796875 197.871094 7.027344 197.871094 L 6.769531 197.871094 Z M 6.285156 196.699219 L 10.347656 196.699219 L 10.347656 197.871094 L 9.269531 197.871094 C 9.710938 198.140625 10.023438 198.480469 10.21875 198.871094 C 10.414062 199.261719 10.519531 199.753906 10.519531 200.328125 C 10.519531 201.054688 10.324219 201.640625 9.917969 202.070312 C 9.515625 202.5 8.96875 202.707031 8.277344 202.707031 C 7.484375 202.707031 6.886719 202.445312 6.46875 201.902344 C 6.066406 201.367188 5.855469 200.574219 5.855469 199.507812 L 5.855469 197.871094 L 5.738281 197.871094 C 5.207031 197.871094 4.789062 198.050781 4.488281 198.402344 C 4.203125 198.753906 4.046875 199.246094 4.046875 199.886719 C 4.046875 200.300781 4.097656 200.691406 4.203125 201.082031 C 4.308594 201.472656 4.449219 201.835938 4.632812 202.1875 L 3.550781 202.1875 C 3.394531 201.769531 3.265625 201.355469 3.1875 200.953125 C 3.109375 200.546875 3.058594 200.15625 3.058594 199.769531 C 3.058594 198.742188 3.332031 197.972656 3.863281 197.464844 C 4.398438 196.957031 5.207031 196.699219 6.285156 196.699219 Z M 6.285156 196.699219 "/>
<path style=" stroke:none;fill-rule:nonzero;fill:rgb(0%,0%,0%);fill-opacity:1;" d="M 6.050781 188.375 L 10.347656 188.375 L 10.347656 189.546875 L 6.089844 189.546875 C 5.414062 189.546875 4.917969 189.6875 4.582031 189.949219 C 4.242188 190.210938 4.074219 190.597656 4.074219 191.121094 C 4.074219 191.757812 4.28125 192.25 4.683594 192.613281 C 5.089844 192.980469 5.636719 193.160156 6.324219 193.160156 L 10.347656 193.160156 L 10.347656 194.332031 L 3.226562 194.332031 L 3.226562 193.160156 L 4.332031 193.160156 C 3.917969 192.886719 3.589844 192.5625 3.382812 192.171875 C 3.175781 191.796875 3.058594 191.355469 3.058594 190.859375 C 3.058594 190.054688 3.316406 189.429688 3.824219 189.011719 C 4.332031 188.597656 5.074219 188.375 6.050781 188.375 Z M 6.050781 188.375 "/>
<path style=" stroke:none;fill-rule:nonzero;fill:rgb(0%,0%,0%);fill-opacity:1;" d="M 3.5 180.921875 L 4.59375 180.921875 C 4.410156 181.261719 4.28125 181.585938 4.191406 181.925781 C 4.097656 182.261719 4.046875 182.589844 4.046875 182.925781 C 4.046875 183.679688 4.292969 184.277344 4.777344 184.695312 C 5.257812 185.109375 5.933594 185.320312 6.792969 185.320312 C 7.667969 185.320312 8.34375 185.109375 8.824219 184.695312 C 9.308594 184.277344 9.542969 183.679688 9.542969 182.925781 C 9.542969 182.589844 9.503906 182.261719 9.410156 181.925781 C 9.320312 181.585938 9.175781 181.261719 8.996094 180.921875 L 10.074219 180.921875 C 10.230469 181.261719 10.347656 181.601562 10.414062 181.9375 C 10.480469 182.289062 10.519531 182.667969 10.519531 183.054688 C 10.519531 184.121094 10.191406 184.980469 9.515625 185.605469 C 8.851562 186.242188 7.941406 186.554688 6.792969 186.554688 C 5.636719 186.554688 4.722656 186.242188 4.058594 185.605469 C 3.394531 184.96875 3.058594 184.097656 3.058594 182.976562 C 3.058594 182.613281 3.097656 182.261719 3.175781 181.925781 C 3.253906 181.585938 3.355469 181.25 3.5 180.921875 Z M 3.5 180.921875 "/>
<path style=" stroke:none;fill-rule:nonzero;fill:rgb(0%,0%,0%);fill-opacity:1;" d="M 6.496094 172.808594 L 7.066406 172.808594 L 7.066406 178.179688 C 7.875 178.128906 8.5 177.894531 8.917969 177.453125 C 9.332031 177.023438 9.542969 176.425781 9.542969 175.644531 C 9.542969 175.203125 9.488281 174.757812 9.386719 174.34375 C 9.28125 173.925781 9.113281 173.496094 8.878906 173.082031 L 9.984375 173.082031 C 10.167969 173.496094 10.308594 173.925781 10.386719 174.367188 C 10.464844 174.8125 10.519531 175.265625 10.519531 175.707031 C 10.519531 176.851562 10.191406 177.75 9.542969 178.414062 C 8.890625 179.078125 7.992188 179.402344 6.859375 179.402344 C 5.699219 179.402344 4.777344 179.089844 4.085938 178.464844 C 3.410156 177.839844 3.058594 176.984375 3.058594 175.917969 C 3.058594 174.953125 3.371094 174.199219 3.980469 173.640625 C 4.605469 173.09375 5.441406 172.808594 6.496094 172.808594 Z M 6.15625 173.980469 C 5.519531 173.992188 5.011719 174.175781 4.621094 174.511719 C 4.242188 174.863281 4.046875 175.332031 4.046875 175.902344 C 4.046875 176.554688 4.242188 177.074219 4.605469 177.464844 C 4.972656 177.855469 5.492188 178.089844 6.15625 178.140625 Z M 6.15625 173.980469 "/>
<path style=" stroke:none;fill-rule:nonzero;fill:rgb(0%,0%,0%);fill-opacity:1;" d="M 0.453125 166.863281 L 0.453125 164.171875 L 1.363281 164.171875 L 1.363281 165.695312 L 11.144531 165.695312 L 11.144531 164.171875 L 12.054688 164.171875 L 12.054688 166.863281 Z M 0.453125 166.863281 "/>
<path style=" stroke:none;fill-rule:nonzero;fill:rgb(0%,0%,0%);fill-opacity:1;" d="M 4.59375 156.148438 C 4.074219 155.863281 3.695312 155.511719 3.433594 155.109375 C 3.1875 154.707031 3.058594 154.222656 3.058594 153.664062 C 3.058594 152.9375 3.316406 152.363281 3.839844 151.960938 C 4.359375 151.558594 5.101562 151.351562 6.050781 151.351562 L 10.347656 151.351562 L 10.347656 152.519531 L 6.089844 152.519531 C 5.414062 152.519531 4.90625 152.652344 4.566406 152.886719 C 4.242188 153.132812 4.074219 153.496094 4.074219 153.988281 C 4.074219 154.601562 4.28125 155.082031 4.683594 155.433594 C 5.089844 155.785156 5.636719 155.953125 6.324219 155.953125 L 10.347656 155.953125 L 10.347656 157.125 L 6.089844 157.125 C 5.414062 157.125 4.90625 157.253906 4.566406 157.488281 C 4.242188 157.734375 4.074219 158.113281 4.074219 158.605469 C 4.074219 159.207031 4.28125 159.6875 4.683594 160.039062 C 5.089844 160.390625 5.636719 160.558594 6.324219 160.558594 L 10.347656 160.558594 L 10.347656 161.726562 L 3.226562 161.726562 L 3.226562 160.558594 L 4.332031 160.558594 C 3.902344 160.296875 3.578125 159.972656 3.371094 159.59375 C 3.160156 159.230469 3.058594 158.789062 3.058594 158.269531 C 3.058594 157.75 3.1875 157.320312 3.449219 156.957031 C 3.707031 156.589844 4.097656 156.332031 4.59375 156.148438 Z M 4.59375 156.148438 "/>
<path style=" stroke:none;fill-rule:nonzero;fill:rgb(0%,0%,0%);fill-opacity:1;" d="M 0.453125 146.292969 L 12.054688 146.292969 L 12.054688 148.984375 L 11.144531 148.984375 L 11.144531 147.460938 L 1.363281 147.460938 L 1.363281 148.984375 L 0.453125 148.984375 Z M 0.453125 146.292969 "/>
<path style="fill:none;stroke-width:2.5;stroke-linecap:square;stroke-linejoin:round;stroke:rgb(0%,0%,100%);stroke-opacity:1;stroke-miterlimit:4;" d="M 52.2 12.966717 L 53.721 13.426274 L 54.183 13.618507 L 54.753 13.891839 L 55.251 14.270297 L 55.497 14.312348 L 55.632 14.498574 L 56.184 14.871025 L 57.306 15.606917 L 57.435 15.847209 L 57.804 16.05446 L 60.06 18.190049 L 60.549 18.748726 L 61.101 19.196268 L 61.797 20.12139 L 61.977 20.190473 L 62.16 20.529885 L 62.685 21.016475 L 63.084 21.584163 L 63.273 21.653246 L 63.42 22.019691 L 63.591 22.088774 L 63.798 22.458222 L 63.981 22.530309 L 64.188 22.752579 L 64.341 23.134041 L 64.614 23.206129 L 65.049 24.056159 L 65.292 24.128246 L 65.43 24.527731 L 65.799 25.005309 L 66.189 25.485892 L 66.351 25.560983 L 66.696 26.050576 L 67.8 27.558404 L 68.118 28.252245 L 69.594 30.180583 L 69.774 30.643143 L 69.948 30.721238 L 70.509 31.541232 L 70.689 32.015807 L 70.878 32.093902 L 71.25 32.652579 L 71.586 33.421511 L 71.766 33.499606 L 72.546 34.857251 L 72.681 34.93835 L 79.626 46.820752 L 79.761 47.139138 L 79.953 47.220237 L 80.097 47.77591 L 80.268 47.857008 L 80.811 49.049454 L 81.066 49.130552 L 81.165 49.689229 L 81.909 50.728489 L 82.632 52.248331 L 82.869 52.332433 L 83.403 53.530886 L 84.081 54.576153 L 84.279 54.894539 L 84.426 55.45622 L 84.606 55.537318 L 84.987 56.417385 L 85.539 57.141262 L 86.226 58.420813 L 87.948 61.532585 L 88.074 61.613683 L 88.5 62.487743 L 88.626 62.571845 L 88.935 63.205613 L 89.433 64.076669 L 90.048 65.347209 L 90.219 65.428307 L 90.636 66.293356 L 90.81 66.377458 L 91.959 68.498028 L 92.049 68.58213 L 92.202 69.125789 L 93.126 70.462409 L 93.291 71.006068 L 93.507 71.087166 L 94.746 73.49909 L 94.929 73.580188 L 95.091 74.120843 L 95.28 74.201942 L 95.652 74.820692 L 96.015 75.442445 L 97.68 78.443083 L 97.836 78.527184 L 98.742 80.062045 L 98.913 80.590686 L 99.093 80.671784 L 99.267 81.203428 L 99.492 81.284527 L 99.654 81.816171 L 99.819 81.897269 L 100.008 82.42591 L 100.281 82.507008 L 100.761 83.645388 L 100.968 83.726487 L 101.628 85.165231 L 101.919 85.468598 L 102.219 86.075334 L 102.336 86.156432 L 103.35 87.670267 L 103.431 88.1929 L 103.602 88.273999 L 103.83 88.796632 L 103.992 88.877731 L 104.364 89.700728 L 104.526 89.78483 L 104.88 90.385558 L 105.252 90.98929 L 105.441 91.50892 L 106.191 92.49111 L 109.143 97.489169 L 109.245 97.573271 L 111.072 100.760133 L 111.273 100.841232 L 111.417 101.351851 L 111.726 101.435953 L 112.149 102.32503 L 112.884 103.721723 L 113.256 104.313441 L 113.79 105.199515 L 113.988 105.280613 L 114.315 105.87233 L 114.666 106.461044 L 115.056 107.266019 L 115.236 107.347118 L 115.764 108.443447 L 116.496 109.410619 L 117.012 110.503944 L 117.192 110.585042 L 117.402 111.092658 L 117.582 111.173756 L 118.479 112.642536 L 118.668 113.147148 L 118.833 113.23125 L 119.295 114.027215 L 119.547 114.612925 L 120.219 115.282737 L 120.309 115.787348 L 123.378 120.545115 L 123.75 121.34108 L 124.11 121.923786 L 124.365 122.004885 L 124.617 122.587591 L 124.998 123.380552 L 128.115 128.117294 L 128.268 128.615898 L 128.601 128.98835 L 129.534 130.442112 L 129.969 131.229066 L 130.05 131.520419 L 130.242 131.601517 L 130.413 132.100121 L 130.65 132.18122 L 131.139 133.052275 L 131.499 133.631978 L 133.638 137.023089 L 133.719 137.104187 L 134.244 138.182494 L 134.433 138.263592 L 134.994 139.128641 L 135.114 139.627245 L 135.357 139.708343 L 135.657 140.285042 L 135.909 140.780643 L 136.119 140.861742 L 136.587 141.729794 L 136.869 142.018143 L 136.968 142.513744 L 137.133 142.594842 L 137.403 142.883192 L 137.484 143.378792 L 137.667 143.459891 L 138.045 144.243841 L 138.273 144.324939 L 138.39 144.82054 L 138.591 144.901638 L 140.202 147.704035 L 140.418 147.785133 L 140.736 148.361833 L 141.006 148.650182 L 141.297 149.431129 L 141.84 150.296177 L 142.011 150.377275 L 142.176 150.872876 L 142.374 150.953975 L 142.773 151.530674 L 142.944 152.023271 L 143.136 152.107373 L 143.271 152.59997 L 143.472 152.681068 L 144.918 155.189108 L 145.11 155.27321 L 145.272 155.765807 L 145.473 155.846905 L 145.869 156.627852 L 145.995 156.70895 L 146.367 157.489897 L 146.613 157.573999 L 147.081 158.640291 L 147.264 158.724393 L 147.888 159.586438 L 148.197 160.364381 L 149.103 161.803125 L 149.328 161.884223 L 149.979 163.238865 L 150.207 163.319964 L 151.104 164.962955 L 151.257 165.044053 L 151.437 165.53665 L 152.163 166.479794 L 152.325 166.972391 L 152.553 167.053489 L 153.042 167.834436 L 153.639 168.777579 L 154.371 170.132221 L 154.545 170.213319 L 154.68 170.498665 L 154.971 170.787015 L 155.061 171.276608 L 155.232 171.36071 L 155.955 172.508101 L 156.147 172.997694 L 156.372 173.081796 L 156.501 173.574393 L 156.933 174.145085 L 157.062 174.433434 L 157.233 174.514533 L 157.434 175.00713 L 157.596 175.088228 L 157.965 175.866171 L 158.346 176.235619 L 158.484 176.728216 L 160.674 179.966141 L 161.037 180.744084 L 161.217 180.825182 L 161.931 181.972573 L 162.114 182.46517 L 162.846 183.408313 L 163.371 184.267354 L 163.554 184.759951 L 163.725 184.84105 L 163.962 185.129399 L 164.286 185.907342 L 164.466 186.192688 L 164.694 186.273786 L 165.039 186.847482 L 165.228 187.135831 L 165.372 187.628428 L 166.278 188.856917 L 166.47 189.346511 L 166.677 189.427609 L 167.031 190.205552 L 167.211 190.493902 L 167.448 190.575 L 167.547 191.067597 L 168.162 191.926638 L 168.279 192.007737 L 168.489 192.296086 L 168.633 192.78568 L 168.849 192.869782 L 169.347 193.93307 L 170.634 195.654157 L 170.814 196.020601 L 171.339 196.882646 L 171.63 197.170995 L 171.9 197.744691 L 172.101 198.234284 L 172.38 198.522633 L 172.626 198.889078 L 172.824 199.378671 L 173.061 199.462773 L 173.349 200.237712 L 173.514 200.526062 L 173.703 200.60716 L 174.066 201.177852 L 174.501 201.955795 L 174.798 202.52949 L 174.99 202.610589 L 177 205.7554 L 177.642 206.617445 L 178.791 208.344539 L 181.299 212.126123 L 182.034 213.297542 L 182.595 214.177609 L 183.021 214.766323 L 183.873 216.523453 L 184.941 218.764169 L 185.337 219.340868 L 186.036 220.494266 L 186.234 220.575364 L 187.485 222.774029 L 187.629 222.852124 L 189.15 225.104854 L 190.608 227.540807 L 190.761 227.612894 L 192.357 230.268113 L 192.663 230.334193 L 193.551 231.409496 L 195.816 234.314017 L 196.176 234.830643 L 196.884 235.602579 L 198.804 237.86432 L 199.464 238.597209 L 203.094 242.81432 L 204.489 244.556432 L 205.359 245.406462 L 207.315 247.815382 L 208.185 248.563289 L 210.375 250.641808 L 210.81 250.957191 L 211.215 251.416748 L 212.076 251.99645 L 212.34 252.086559 L 212.739 252.531098 L 214.032 253.348089 L 216.324 254.432403 L 218.703 254.879945 L 219.564 254.732767 L 221.73 254.092992 L 222.081 253.91878 L 224.97 252.939593 L 227.151 252.020479 L 228.936 251.116383 L 231.672 249.527458 L 232.014 249.296177 L 234.45 247.644175 L 234.912 247.247694 L 235.284 247.049454 L 236.217 246.364624 L 236.559 246.082282 L 237.666 245.127124 L 237.891 245.067051 L 238.353 244.613501 L 240.063 243.096663 L 240.165 242.934466 L 240.525 242.712197 L 242.409 240.910012 L 242.691 240.681735 L 243.081 240.333313 L 244.185 239.264017 L 244.509 238.77142 L 244.701 238.723362 L 245.052 238.221754 L 245.235 238.170692 L 245.886 237.476851 L 245.985 237.287621 L 246.141 237.239563 L 247.236 236.107191 L 247.788 235.383313 L 247.986 235.338258 L 248.133 234.995843 L 248.313 234.950789 L 250.521 232.571905 L 250.839 232.007221 L 251.028 231.79997 L 251.247 231.754915 L 252.126 230.712652 L 252.333 230.3402 L 252.504 230.292142 L 253.554 228.994569 L 253.764 228.604096 L 254.025 228.553034 L 255.258 226.801911 L 255.447 226.744842 L 256.308 225.411226 L 256.479 225.351153 L 256.68 224.939654 L 256.851 224.879581 L 257.358 224.167718 L 257.748 223.509921 L 259.386 221.323271 L 259.614 221.257191 L 259.92 220.581371 L 260.112 220.515291 L 260.628 219.767385 L 260.817 219.33486 L 261.036 219.265777 L 261.534 218.508859 L 262.002 217.815018 L 262.257 217.490625 L 262.473 217.232312 L 262.611 216.790777 L 262.836 216.718689 L 263.172 216.202063 L 264.303 214.453944 L 264.603 213.928307 L 264.891 213.853216 L 264.999 213.399666 L 265.914 212.26429 L 266.106 211.807737 L 266.259 211.729642 L 267.528 209.852367 L 270.072 206.04375 L 270.261 205.575182 L 270.432 205.494084 L 270.858 204.944417 L 271.131 204.199515 L 271.311 203.92318 L 271.503 203.842081 L 271.683 203.37051 L 271.872 203.289411 L 272.424 202.262166 L 273.675 200.50804 L 274.743 198.832008 L 274.971 198.55267 L 275.865 196.954733 L 276.201 196.393052 L 276.444 196.30895 L 276.555 195.831371 L 277.812 194.059223 L 278.022 193.581644 L 278.574 192.932858 L 278.736 192.455279 L 278.925 192.371177 L 279.189 192.088835 L 279.306 191.611256 L 279.471 191.527154 L 279.633 191.046572 L 279.903 190.96247 L 280.014 190.484891 L 280.167 190.397785 L 280.392 190.118447 L 280.899 189.07318 L 281.625 188.142051 L 281.814 187.661468 L 282.186 187.295024 L 282.567 186.5321 L 282.72 186.249757 L 282.9 186.165655 L 283.191 185.883313 L 283.464 185.318629 L 284.169 184.18926 L 284.358 183.708677 L 285.057 182.777549 L 285.447 182.014624 L 285.636 181.930522 L 286.461 180.602913 L 286.542 180.32057 L 287.421 179.110103 L 287.637 178.629521 L 287.808 178.545419 L 288.171 177.782494 L 288.696 176.938471 L 288.876 176.854369 L 289.059 176.373786 L 289.23 176.289684 L 289.611 175.52676 L 290.127 174.880977 L 290.391 174.598635 L 290.706 173.83571 L 290.886 173.754612 L 291.984 171.862318 L 292.128 171.78122 L 292.317 171.297633 L 292.482 171.216535 L 293.034 170.369508 L 293.232 169.885922 L 293.397 169.804824 L 293.595 169.324242 L 293.757 169.24014 L 293.958 168.756553 L 294.12 168.675455 " transform="matrix(1.302083,0,0,1.300505,0,12.875)"/>
<path style="fill-rule:nonzero;fill:rgb(100%,64.705882%,0%);fill-opacity:1;stroke-width:2.5;stroke-linecap:butt;stroke-linejoin:round;stroke:rgb(100%,64.705882%,0%);stroke-opacity:1;stroke-miterlimit:4;" d="M 215.568 257.88659 L 221.568 251.888319 M 215.568 251.888319 L 221.568 257.88659 " transform="matrix(1.302083,0,0,1.300505,0,12.875)"/>
<path style="fill:none;stroke-width:0.8;stroke-linecap:square;stroke-linejoin:miter;stroke:rgb(0%,0%,0%);stroke-opacity:1;stroke-miterlimit:10;" d="M 40.104 266.984618 L 40.104 0.871056 M 306.216 266.984618 L 306.216 0.871056 M 40.104 266.984618 L 306.216 266.984618 M 40.104 0.871056 L 306.216 0.871056 " transform="matrix(1.302083,0,0,1.300505,0,12.875)"/>
<path style="fill-rule:nonzero;fill:rgb(100%,100%,100%);fill-opacity:0.8;stroke-width:1;stroke-linecap:butt;stroke-linejoin:miter;stroke:rgb(83.529412%,83.921569%,83.529412%);stroke-opacity:0.8;stroke-miterlimit:10;" d="M 121.965 38.215322 L 299.217 38.215322 C 300.549 38.215322 301.215 37.548513 301.215 36.214897 L 301.215 7.872542 C 301.215 6.538926 300.549 5.872118 299.217 5.872118 L 121.965 5.872118 C 120.633 5.872118 119.967 6.538926 119.967 7.872542 L 119.967 36.214897 C 119.967 37.548513 120.633 38.215322 121.965 38.215322 Z M 121.965 38.215322 " transform="matrix(1.302083,0,0,1.300505,0,12.875)"/>
<path style="fill:none;stroke-width:2.5;stroke-linecap:square;stroke-linejoin:round;stroke:rgb(0%,0%,100%);stroke-opacity:1;stroke-miterlimit:4;" d="M 123.966 13.96693 L 143.967 13.96693 " transform="matrix(1.302083,0,0,1.300505,0,12.875)"/>
<path style=" stroke:none;fill-rule:nonzero;fill:rgb(0%,0%,0%);fill-opacity:1;" d="M 200.4375 27.164062 L 200.4375 34.535156 L 201.988281 34.535156 C 203.289062 34.535156 204.253906 34.25 204.863281 33.652344 C 205.464844 33.054688 205.777344 32.117188 205.777344 30.84375 C 205.777344 29.566406 205.464844 28.644531 204.863281 28.046875 C 204.253906 27.460938 203.289062 27.164062 201.988281 27.164062 Z M 199.148438 26.109375 L 201.792969 26.109375 C 203.628906 26.109375 204.980469 26.5 205.839844 27.253906 C 206.699219 28.019531 207.128906 29.21875 207.128906 30.84375 C 207.128906 32.480469 206.6875 33.679688 205.828125 34.445312 C 204.96875 35.210938 203.613281 35.589844 201.792969 35.589844 L 199.148438 35.589844 Z M 199.148438 26.109375 "/>
<path style=" stroke:none;fill-rule:nonzero;fill:rgb(0%,0%,0%);fill-opacity:1;" d="M 209.121094 28.476562 L 210.292969 28.476562 L 210.292969 35.589844 L 209.121094 35.589844 Z M 209.121094 25.707031 L 210.292969 25.707031 L 210.292969 27.1875 L 209.121094 27.1875 Z M 209.121094 25.707031 "/>
<path style=" stroke:none;fill-rule:nonzero;fill:rgb(0%,0%,0%);fill-opacity:1;" d="M 217.285156 28.683594 L 217.285156 29.789062 C 216.949219 29.632812 216.609375 29.503906 216.257812 29.414062 C 215.894531 29.335938 215.527344 29.28125 215.152344 29.28125 C 214.566406 29.28125 214.121094 29.375 213.835938 29.554688 C 213.550781 29.738281 213.40625 29.996094 213.40625 30.347656 C 213.40625 30.621094 213.511719 30.828125 213.71875 30.984375 C 213.925781 31.140625 214.34375 31.296875 214.96875 31.429688 L 215.371094 31.519531 C 216.207031 31.699219 216.792969 31.960938 217.144531 32.273438 C 217.480469 32.597656 217.664062 33.054688 217.664062 33.625 C 217.664062 34.289062 217.402344 34.808594 216.882812 35.1875 C 216.363281 35.578125 215.632812 35.757812 214.722656 35.757812 C 214.332031 35.757812 213.941406 35.71875 213.523438 35.65625 C 213.105469 35.589844 212.675781 35.484375 212.222656 35.328125 L 212.222656 34.121094 C 212.652344 34.355469 213.082031 34.523438 213.496094 34.628906 C 213.914062 34.746094 214.332031 34.796875 214.746094 34.796875 C 215.292969 34.796875 215.722656 34.707031 216.023438 34.523438 C 216.308594 34.339844 216.464844 34.066406 216.464844 33.71875 C 216.464844 33.40625 216.347656 33.15625 216.140625 32.988281 C 215.933594 32.820312 215.464844 32.652344 214.734375 32.496094 L 214.332031 32.402344 C 213.601562 32.246094 213.066406 32.011719 212.753906 31.699219 C 212.429688 31.390625 212.273438 30.960938 212.273438 30.402344 C 212.273438 29.738281 212.507812 29.21875 212.976562 28.851562 C 213.445312 28.488281 214.121094 28.308594 215.007812 28.308594 C 215.4375 28.308594 215.839844 28.347656 216.230469 28.410156 C 216.609375 28.476562 216.960938 28.566406 217.285156 28.683594 Z M 217.285156 28.683594 "/>
<path style=" stroke:none;fill-rule:nonzero;fill:rgb(0%,0%,0%);fill-opacity:1;" d="M 220.683594 26.460938 L 220.683594 28.476562 L 223.09375 28.476562 L 223.09375 29.386719 L 220.683594 29.386719 L 220.683594 33.25 C 220.683594 33.832031 220.761719 34.210938 220.917969 34.367188 C 221.074219 34.535156 221.402344 34.613281 221.894531 34.613281 L 223.09375 34.613281 L 223.09375 35.589844 L 221.894531 35.589844 C 220.984375 35.589844 220.359375 35.421875 220.019531 35.082031 C 219.683594 34.746094 219.511719 34.132812 219.511719 33.25 L 219.511719 29.386719 L 218.652344 29.386719 L 218.652344 28.476562 L 219.511719 28.476562 L 219.511719 26.460938 Z M 220.683594 26.460938 "/>
<path style=" stroke:none;fill-rule:nonzero;fill:rgb(0%,0%,0%);fill-opacity:1;" d="M 227.871094 32.011719 C 226.921875 32.011719 226.269531 32.128906 225.90625 32.339844 C 225.542969 32.558594 225.359375 32.921875 225.359375 33.445312 C 225.359375 33.859375 225.488281 34.199219 225.761719 34.433594 C 226.035156 34.679688 226.414062 34.796875 226.882812 34.796875 C 227.535156 34.796875 228.054688 34.574219 228.445312 34.105469 C 228.835938 33.652344 229.03125 33.039062 229.03125 32.273438 L 229.03125 32.011719 Z M 230.203125 31.53125 L 230.203125 35.589844 L 229.03125 35.589844 L 229.03125 34.511719 C 228.757812 34.953125 228.417969 35.265625 228.027344 35.460938 C 227.636719 35.65625 227.144531 35.757812 226.570312 35.757812 C 225.839844 35.757812 225.253906 35.5625 224.824219 35.160156 C 224.394531 34.757812 224.1875 34.210938 224.1875 33.523438 C 224.1875 32.726562 224.449219 32.128906 224.996094 31.714844 C 225.527344 31.3125 226.324219 31.101562 227.390625 31.101562 L 229.03125 31.101562 L 229.03125 30.984375 C 229.03125 30.453125 228.847656 30.035156 228.496094 29.738281 C 228.144531 29.453125 227.652344 29.296875 227.011719 29.296875 C 226.597656 29.296875 226.207031 29.347656 225.816406 29.453125 C 225.425781 29.554688 225.058594 29.699219 224.707031 29.878906 L 224.707031 28.800781 C 225.125 28.644531 225.542969 28.515625 225.945312 28.4375 C 226.347656 28.359375 226.738281 28.308594 227.128906 28.308594 C 228.160156 28.308594 228.925781 28.578125 229.433594 29.113281 C 229.941406 29.644531 230.203125 30.453125 230.203125 31.53125 Z M 230.203125 31.53125 "/>
<path style=" stroke:none;fill-rule:nonzero;fill:rgb(0%,0%,0%);fill-opacity:1;" d="M 238.535156 31.296875 L 238.535156 35.589844 L 237.363281 35.589844 L 237.363281 31.335938 C 237.363281 30.660156 237.222656 30.167969 236.960938 29.828125 C 236.699219 29.492188 236.308594 29.320312 235.789062 29.320312 C 235.152344 29.320312 234.65625 29.527344 234.292969 29.933594 C 233.925781 30.335938 233.746094 30.882812 233.746094 31.570312 L 233.746094 35.589844 L 232.574219 35.589844 L 232.574219 28.476562 L 233.746094 28.476562 L 233.746094 29.582031 C 234.019531 29.164062 234.34375 28.839844 234.734375 28.632812 C 235.113281 28.425781 235.554688 28.308594 236.050781 28.308594 C 236.855469 28.308594 237.480469 28.566406 237.898438 29.074219 C 238.316406 29.582031 238.535156 30.324219 238.535156 31.296875 Z M 238.535156 31.296875 "/>
<path style=" stroke:none;fill-rule:nonzero;fill:rgb(0%,0%,0%);fill-opacity:1;" d="M 245.996094 28.75 L 245.996094 29.839844 C 245.660156 29.660156 245.332031 29.527344 244.996094 29.4375 C 244.65625 29.347656 244.332031 29.296875 243.992188 29.296875 C 243.238281 29.296875 242.636719 29.542969 242.222656 30.023438 C 241.804688 30.503906 241.597656 31.179688 241.597656 32.039062 C 241.597656 32.910156 241.804688 33.585938 242.222656 34.066406 C 242.636719 34.550781 243.238281 34.785156 243.992188 34.785156 C 244.332031 34.785156 244.65625 34.746094 244.996094 34.652344 C 245.332031 34.5625 245.660156 34.417969 245.996094 34.238281 L 245.996094 35.316406 C 245.660156 35.472656 245.320312 35.589844 244.980469 35.65625 C 244.628906 35.71875 244.253906 35.757812 243.863281 35.757812 C 242.792969 35.757812 241.933594 35.433594 241.308594 34.757812 C 240.671875 34.09375 240.359375 33.183594 240.359375 32.039062 C 240.359375 30.882812 240.671875 29.972656 241.308594 29.308594 C 241.949219 28.644531 242.820312 28.308594 243.941406 28.308594 C 244.304688 28.308594 244.65625 28.347656 244.996094 28.425781 C 245.332031 28.5 245.671875 28.605469 245.996094 28.75 Z M 245.996094 28.75 "/>
<path style=" stroke:none;fill-rule:nonzero;fill:rgb(0%,0%,0%);fill-opacity:1;" d="M 254.121094 31.738281 L 254.121094 32.3125 L 248.746094 32.3125 C 248.796875 33.117188 249.03125 33.742188 249.472656 34.160156 C 249.902344 34.574219 250.503906 34.785156 251.285156 34.785156 C 251.726562 34.785156 252.167969 34.730469 252.585938 34.628906 C 253.003906 34.523438 253.433594 34.355469 253.847656 34.121094 L 253.847656 35.226562 C 253.433594 35.40625 253.003906 35.550781 252.558594 35.628906 C 252.117188 35.707031 251.660156 35.757812 251.21875 35.757812 C 250.074219 35.757812 249.175781 35.433594 248.511719 34.785156 C 247.847656 34.132812 247.519531 33.234375 247.519531 32.105469 C 247.519531 30.945312 247.832031 30.023438 248.457031 29.335938 C 249.082031 28.65625 249.941406 28.308594 251.011719 28.308594 C 251.972656 28.308594 252.730469 28.617188 253.289062 29.230469 C 253.835938 29.855469 254.121094 30.6875 254.121094 31.738281 Z M 252.949219 31.402344 C 252.9375 30.765625 252.753906 30.257812 252.417969 29.867188 C 252.066406 29.492188 251.597656 29.296875 251.023438 29.296875 C 250.371094 29.296875 249.851562 29.492188 249.460938 29.855469 C 249.070312 30.21875 248.835938 30.738281 248.785156 31.402344 Z M 252.949219 31.402344 "/>
<path style=" stroke:none;fill-rule:nonzero;fill:rgb(0%,0%,0%);fill-opacity:1;" d="M 265.292969 32.039062 C 265.292969 31.179688 265.113281 30.519531 264.761719 30.023438 C 264.394531 29.527344 263.914062 29.28125 263.300781 29.28125 C 262.675781 29.28125 262.195312 29.527344 261.84375 30.023438 C 261.480469 30.519531 261.308594 31.179688 261.308594 32.039062 C 261.308594 32.898438 261.480469 33.574219 261.84375 34.066406 C 262.195312 34.5625 262.675781 34.796875 263.300781 34.796875 C 263.914062 34.796875 264.394531 34.5625 264.761719 34.066406 C 265.113281 33.574219 265.292969 32.898438 265.292969 32.039062 Z M 261.308594 29.554688 C 261.542969 29.140625 261.855469 28.828125 262.234375 28.617188 C 262.613281 28.410156 263.066406 28.308594 263.589844 28.308594 C 264.449219 28.308594 265.152344 28.65625 265.699219 29.335938 C 266.230469 30.023438 266.503906 30.921875 266.503906 32.039062 C 266.503906 33.15625 266.230469 34.066406 265.699219 34.746094 C 265.152344 35.421875 264.449219 35.757812 263.589844 35.757812 C 263.066406 35.757812 262.613281 35.65625 262.234375 35.460938 C 261.855469 35.265625 261.542969 34.953125 261.308594 34.523438 L 261.308594 35.589844 L 260.136719 35.589844 L 260.136719 25.707031 L 261.308594 25.707031 Z M 261.308594 29.554688 "/>
<path style=" stroke:none;fill-rule:nonzero;fill:rgb(0%,0%,0%);fill-opacity:1;" d="M 274.539062 31.738281 L 274.539062 32.3125 L 269.160156 32.3125 C 269.214844 33.117188 269.449219 33.742188 269.890625 34.160156 C 270.320312 34.574219 270.917969 34.785156 271.699219 34.785156 C 272.144531 34.785156 272.585938 34.730469 273.003906 34.628906 C 273.417969 34.523438 273.847656 34.355469 274.265625 34.121094 L 274.265625 35.226562 C 273.847656 35.40625 273.417969 35.550781 272.976562 35.628906 C 272.535156 35.707031 272.078125 35.757812 271.636719 35.757812 C 270.488281 35.757812 269.589844 35.433594 268.925781 34.785156 C 268.261719 34.132812 267.9375 33.234375 267.9375 32.105469 C 267.9375 30.945312 268.25 30.023438 268.875 29.335938 C 269.5 28.65625 270.359375 28.308594 271.425781 28.308594 C 272.390625 28.308594 273.144531 28.617188 273.707031 29.230469 C 274.253906 29.855469 274.539062 30.6875 274.539062 31.738281 Z M 273.367188 31.402344 C 273.355469 30.765625 273.171875 30.257812 272.832031 29.867188 C 272.480469 29.492188 272.011719 29.296875 271.441406 29.296875 C 270.789062 29.296875 270.269531 29.492188 269.878906 29.855469 C 269.488281 30.21875 269.253906 30.738281 269.199219 31.402344 Z M 273.367188 31.402344 "/>
<path style=" stroke:none;fill-rule:nonzero;fill:rgb(0%,0%,0%);fill-opacity:1;" d="M 277.613281 26.460938 L 277.613281 28.476562 L 280.019531 28.476562 L 280.019531 29.386719 L 277.613281 29.386719 L 277.613281 33.25 C 277.613281 33.832031 277.691406 34.210938 277.847656 34.367188 C 278.003906 34.535156 278.328125 34.613281 278.824219 34.613281 L 280.019531 34.613281 L 280.019531 35.589844 L 278.824219 35.589844 C 277.910156 35.589844 277.285156 35.421875 276.949219 35.082031 C 276.609375 34.746094 276.441406 34.132812 276.441406 33.25 L 276.441406 29.386719 L 275.582031 29.386719 L 275.582031 28.476562 L 276.441406 28.476562 L 276.441406 26.460938 Z M 277.613281 26.460938 "/>
<path style=" stroke:none;fill-rule:nonzero;fill:rgb(0%,0%,0%);fill-opacity:1;" d="M 280.878906 28.476562 L 282.050781 28.476562 L 283.511719 34.027344 L 284.96875 28.476562 L 286.347656 28.476562 L 287.808594 34.027344 L 289.265625 28.476562 L 290.4375 28.476562 L 288.574219 35.589844 L 287.195312 35.589844 L 285.660156 29.761719 L 284.121094 35.589844 L 282.742188 35.589844 Z M 280.878906 28.476562 "/>
<path style=" stroke:none;fill-rule:nonzero;fill:rgb(0%,0%,0%);fill-opacity:1;" d="M 298.300781 31.738281 L 298.300781 32.3125 L 292.925781 32.3125 C 292.976562 33.117188 293.210938 33.742188 293.652344 34.160156 C 294.082031 34.574219 294.683594 34.785156 295.464844 34.785156 C 295.90625 34.785156 296.347656 34.730469 296.765625 34.628906 C 297.183594 34.523438 297.613281 34.355469 298.027344 34.121094 L 298.027344 35.226562 C 297.613281 35.40625 297.183594 35.550781 296.738281 35.628906 C 296.296875 35.707031 295.839844 35.757812 295.398438 35.757812 C 294.253906 35.757812 293.355469 35.433594 292.691406 34.785156 C 292.027344 34.132812 291.699219 33.234375 291.699219 32.105469 C 291.699219 30.945312 292.011719 30.023438 292.636719 29.335938 C 293.261719 28.65625 294.121094 28.308594 295.191406 28.308594 C 296.152344 28.308594 296.910156 28.617188 297.46875 29.230469 C 298.015625 29.855469 298.300781 30.6875 298.300781 31.738281 Z M 297.128906 31.402344 C 297.117188 30.765625 296.933594 30.257812 296.597656 29.867188 C 296.246094 29.492188 295.777344 29.296875 295.203125 29.296875 C 294.550781 29.296875 294.03125 29.492188 293.640625 29.855469 C 293.25 30.21875 293.015625 30.738281 292.964844 31.402344 Z M 297.128906 31.402344 "/>
<path style=" stroke:none;fill-rule:nonzero;fill:rgb(0%,0%,0%);fill-opacity:1;" d="M 306.308594 31.738281 L 306.308594 32.3125 L 300.933594 32.3125 C 300.984375 33.117188 301.21875 33.742188 301.660156 34.160156 C 302.089844 34.574219 302.691406 34.785156 303.472656 34.785156 C 303.914062 34.785156 304.355469 34.730469 304.773438 34.628906 C 305.191406 34.523438 305.621094 34.355469 306.035156 34.121094 L 306.035156 35.226562 C 305.621094 35.40625 305.191406 35.550781 304.746094 35.628906 C 304.304688 35.707031 303.847656 35.757812 303.40625 35.757812 C 302.261719 35.757812 301.363281 35.433594 300.699219 34.785156 C 300.035156 34.132812 299.707031 33.234375 299.707031 32.105469 C 299.707031 30.945312 300.019531 30.023438 300.644531 29.335938 C 301.269531 28.65625 302.128906 28.308594 303.199219 28.308594 C 304.160156 28.308594 304.917969 28.617188 305.476562 29.230469 C 306.023438 29.855469 306.308594 30.6875 306.308594 31.738281 Z M 305.136719 31.402344 C 305.125 30.765625 304.941406 30.257812 304.605469 29.867188 C 304.253906 29.492188 303.785156 29.296875 303.210938 29.296875 C 302.558594 29.296875 302.039062 29.492188 301.648438 29.855469 C 301.257812 30.21875 301.023438 30.738281 300.972656 31.402344 Z M 305.136719 31.402344 "/>
<path style=" stroke:none;fill-rule:nonzero;fill:rgb(0%,0%,0%);fill-opacity:1;" d="M 314.148438 31.296875 L 314.148438 35.589844 L 312.976562 35.589844 L 312.976562 31.335938 C 312.976562 30.660156 312.832031 30.167969 312.574219 29.828125 C 312.3125 29.492188 311.921875 29.320312 311.402344 29.320312 C 310.761719 29.320312 310.269531 29.527344 309.902344 29.933594 C 309.539062 30.335938 309.355469 30.882812 309.355469 31.570312 L 309.355469 35.589844 L 308.183594 35.589844 L 308.183594 28.476562 L 309.355469 28.476562 L 309.355469 29.582031 C 309.628906 29.164062 309.957031 28.839844 310.347656 28.632812 C 310.722656 28.425781 311.167969 28.308594 311.660156 28.308594 C 312.46875 28.308594 313.09375 28.566406 313.511719 29.074219 C 313.925781 29.582031 314.148438 30.324219 314.148438 31.296875 Z M 314.148438 31.296875 "/>
<path style=" stroke:none;fill-rule:nonzero;fill:rgb(0%,0%,0%);fill-opacity:1;" d="M 324.527344 26.980469 C 323.589844 26.980469 322.847656 27.332031 322.300781 28.019531 C 321.753906 28.722656 321.480469 29.660156 321.480469 30.855469 C 321.480469 32.050781 321.753906 33 322.300781 33.691406 C 322.847656 34.394531 323.589844 34.730469 324.527344 34.730469 C 325.449219 34.730469 326.191406 34.394531 326.738281 33.691406 C 327.285156 33 327.558594 32.050781 327.558594 30.855469 C 327.558594 29.660156 327.285156 28.722656 326.738281 28.019531 C 326.191406 27.332031 325.449219 26.980469 324.527344 26.980469 Z M 324.527344 25.941406 C 325.855469 25.941406 326.910156 26.394531 327.714844 27.28125 C 328.511719 28.164062 328.914062 29.359375 328.914062 30.855469 C 328.914062 32.363281 328.511719 33.546875 327.714844 34.433594 C 326.910156 35.316406 325.855469 35.757812 324.527344 35.757812 C 323.183594 35.757812 322.117188 35.316406 321.324219 34.433594 C 320.515625 33.546875 320.125 32.363281 320.125 30.855469 C 320.125 29.359375 320.515625 28.164062 321.324219 27.28125 C 322.117188 26.394531 323.183594 25.941406 324.527344 25.941406 Z M 324.527344 25.941406 "/>
<path style=" stroke:none;fill-rule:nonzero;fill:rgb(0%,0%,0%);fill-opacity:1;" d="M 336.609375 26.421875 L 336.609375 27.667969 C 336.113281 27.433594 335.660156 27.265625 335.230469 27.148438 C 334.785156 27.046875 334.371094 26.980469 333.980469 26.980469 C 333.277344 26.980469 332.730469 27.125 332.351562 27.382812 C 331.972656 27.65625 331.792969 28.046875 331.792969 28.539062 C 331.792969 28.957031 331.910156 29.28125 332.167969 29.492188 C 332.417969 29.710938 332.898438 29.878906 333.601562 30.011719 L 334.382812 30.167969 C 335.332031 30.347656 336.035156 30.671875 336.492188 31.128906 C 336.949219 31.597656 337.183594 32.207031 337.183594 32.976562 C 337.183594 33.898438 336.871094 34.589844 336.257812 35.054688 C 335.632812 35.523438 334.734375 35.757812 333.550781 35.757812 C 333.09375 35.757812 332.613281 35.707031 332.105469 35.617188 C 331.597656 35.523438 331.074219 35.382812 330.542969 35.171875 L 330.542969 33.847656 C 331.0625 34.144531 331.570312 34.367188 332.066406 34.511719 C 332.558594 34.667969 333.054688 34.730469 333.550781 34.730469 C 334.277344 34.730469 334.839844 34.589844 335.242188 34.300781 C 335.632812 34.015625 335.839844 33.613281 335.839844 33.066406 C 335.839844 32.597656 335.699219 32.234375 335.410156 31.972656 C 335.125 31.714844 334.65625 31.519531 334.003906 31.390625 L 333.222656 31.234375 C 332.261719 31.050781 331.570312 30.75 331.140625 30.335938 C 330.710938 29.933594 330.503906 29.375 330.503906 28.644531 C 330.503906 27.8125 330.789062 27.148438 331.386719 26.667969 C 331.972656 26.1875 332.792969 25.941406 333.835938 25.941406 C 334.277344 25.941406 334.722656 25.980469 335.191406 26.058594 C 335.644531 26.136719 336.113281 26.265625 336.609375 26.421875 Z M 336.609375 26.421875 "/>
<path style=" stroke:none;fill-rule:nonzero;fill:rgb(0%,0%,0%);fill-opacity:1;" d="M 346.519531 32.011719 C 345.566406 32.011719 344.917969 32.128906 344.550781 32.339844 C 344.1875 32.558594 344.003906 32.921875 344.003906 33.445312 C 344.003906 33.859375 344.136719 34.199219 344.410156 34.433594 C 344.683594 34.679688 345.058594 34.796875 345.527344 34.796875 C 346.179688 34.796875 346.699219 34.574219 347.089844 34.105469 C 347.480469 33.652344 347.675781 33.039062 347.675781 32.273438 L 347.675781 32.011719 Z M 348.847656 31.53125 L 348.847656 35.589844 L 347.675781 35.589844 L 347.675781 34.511719 C 347.402344 34.953125 347.066406 35.265625 346.675781 35.460938 C 346.285156 35.65625 345.789062 35.757812 345.214844 35.757812 C 344.488281 35.757812 343.902344 35.5625 343.472656 35.160156 C 343.042969 34.757812 342.832031 34.210938 342.832031 33.523438 C 342.832031 32.726562 343.09375 32.128906 343.640625 31.714844 C 344.175781 31.3125 344.96875 31.101562 346.035156 31.101562 L 347.675781 31.101562 L 347.675781 30.984375 C 347.675781 30.453125 347.496094 30.035156 347.144531 29.738281 C 346.792969 29.453125 346.296875 29.296875 345.660156 29.296875 C 345.242188 29.296875 344.851562 29.347656 344.460938 29.453125 C 344.070312 29.554688 343.707031 29.699219 343.355469 29.878906 L 343.355469 28.800781 C 343.769531 28.644531 344.1875 28.515625 344.589844 28.4375 C 344.996094 28.359375 345.386719 28.308594 345.777344 28.308594 C 346.804688 28.308594 347.574219 28.578125 348.082031 29.113281 C 348.589844 29.644531 348.847656 30.453125 348.847656 31.53125 Z M 348.847656 31.53125 "/>
<path style=" stroke:none;fill-rule:nonzero;fill:rgb(0%,0%,0%);fill-opacity:1;" d="M 357.183594 31.296875 L 357.183594 35.589844 L 356.011719 35.589844 L 356.011719 31.335938 C 356.011719 30.660156 355.867188 30.167969 355.605469 29.828125 C 355.347656 29.492188 354.957031 29.320312 354.433594 29.320312 C 353.796875 29.320312 353.300781 29.527344 352.9375 29.933594 C 352.574219 30.335938 352.390625 30.882812 352.390625 31.570312 L 352.390625 35.589844 L 351.21875 35.589844 L 351.21875 28.476562 L 352.390625 28.476562 L 352.390625 29.582031 C 352.664062 29.164062 352.988281 28.839844 353.378906 28.632812 C 353.757812 28.425781 354.199219 28.308594 354.695312 28.308594 C 355.503906 28.308594 356.128906 28.566406 356.542969 29.074219 C 356.960938 29.582031 357.183594 30.324219 357.183594 31.296875 Z M 357.183594 31.296875 "/>
<path style=" stroke:none;fill-rule:nonzero;fill:rgb(0%,0%,0%);fill-opacity:1;" d="M 364.199219 29.554688 L 364.199219 25.707031 L 365.371094 25.707031 L 365.371094 35.589844 L 364.199219 35.589844 L 364.199219 34.523438 C 363.953125 34.953125 363.640625 35.265625 363.261719 35.460938 C 362.886719 35.65625 362.441406 35.757812 361.921875 35.757812 C 361.0625 35.757812 360.359375 35.421875 359.8125 34.746094 C 359.265625 34.066406 359.003906 33.15625 359.003906 32.039062 C 359.003906 30.921875 359.265625 30.023438 359.8125 29.335938 C 360.359375 28.65625 361.0625 28.308594 361.921875 28.308594 C 362.441406 28.308594 362.886719 28.410156 363.261719 28.617188 C 363.640625 28.828125 363.953125 29.140625 364.199219 29.554688 Z M 360.214844 32.039062 C 360.214844 32.898438 360.386719 33.574219 360.738281 34.066406 C 361.089844 34.5625 361.570312 34.796875 362.195312 34.796875 C 362.820312 34.796875 363.300781 34.5625 363.667969 34.066406 C 364.019531 33.574219 364.199219 32.898438 364.199219 32.039062 C 364.199219 31.179688 364.019531 30.519531 363.667969 30.023438 C 363.300781 29.527344 362.820312 29.28125 362.195312 29.28125 C 361.570312 29.28125 361.089844 29.527344 360.738281 30.023438 C 360.386719 30.519531 360.214844 31.179688 360.214844 32.039062 Z M 360.214844 32.039062 "/>
<path style=" stroke:none;fill-rule:nonzero;fill:rgb(0%,0%,0%);fill-opacity:1;" d="M 370.671875 26.109375 L 378.691406 26.109375 L 378.691406 27.1875 L 375.320312 27.1875 L 375.320312 35.589844 L 374.03125 35.589844 L 374.03125 27.1875 L 370.671875 27.1875 Z M 370.671875 26.109375 "/>
<path style=" stroke:none;fill-rule:nonzero;fill:rgb(0%,0%,0%);fill-opacity:1;" d="M 385.621094 26.421875 L 385.621094 27.667969 C 385.125 27.433594 384.667969 27.265625 384.238281 27.148438 C 383.796875 27.046875 383.378906 26.980469 382.988281 26.980469 C 382.285156 26.980469 381.738281 27.125 381.363281 27.382812 C 380.984375 27.65625 380.800781 28.046875 380.800781 28.539062 C 380.800781 28.957031 380.917969 29.28125 381.179688 29.492188 C 381.425781 29.710938 381.910156 29.878906 382.613281 30.011719 L 383.394531 30.167969 C 384.34375 30.347656 385.046875 30.671875 385.503906 31.128906 C 385.957031 31.597656 386.191406 32.207031 386.191406 32.976562 C 386.191406 33.898438 385.878906 34.589844 385.269531 35.054688 C 384.644531 35.523438 383.746094 35.757812 382.558594 35.757812 C 382.105469 35.757812 381.621094 35.707031 381.113281 35.617188 C 380.605469 35.523438 380.085938 35.382812 379.550781 35.171875 L 379.550781 33.847656 C 380.074219 34.144531 380.582031 34.367188 381.074219 34.511719 C 381.570312 34.667969 382.066406 34.730469 382.558594 34.730469 C 383.289062 34.730469 383.847656 34.589844 384.253906 34.300781 C 384.644531 34.015625 384.851562 33.613281 384.851562 33.066406 C 384.851562 32.597656 384.707031 32.234375 384.421875 31.972656 C 384.136719 31.714844 383.667969 31.519531 383.015625 31.390625 L 382.234375 31.234375 C 381.269531 31.050781 380.582031 30.75 380.152344 30.335938 C 379.722656 29.933594 379.511719 29.375 379.511719 28.644531 C 379.511719 27.8125 379.800781 27.148438 380.398438 26.667969 C 380.984375 26.1875 381.804688 25.941406 382.847656 25.941406 C 383.289062 25.941406 383.730469 25.980469 384.199219 26.058594 C 384.65625 26.136719 385.125 26.265625 385.621094 26.421875 Z M 385.621094 26.421875 "/>
<path style="fill-rule:nonzero;fill:rgb(100%,64.705882%,0%);fill-opacity:1;stroke-width:2.5;stroke-linecap:butt;stroke-linejoin:round;stroke:rgb(100%,64.705882%,0%);stroke-opacity:1;stroke-miterlimit:4;" d="M 130.965 32.514411 L 136.965 26.513137 M 130.965 26.513137 L 136.965 32.514411 " transform="matrix(1.302083,0,0,1.300505,0,12.875)"/>
<path style=" stroke:none;fill-rule:nonzero;fill:rgb(0%,0%,0%);fill-opacity:1;" d="M 204.644531 48.921875 C 204.929688 48.402344 205.28125 48.023438 205.683594 47.765625 C 206.089844 47.519531 206.570312 47.386719 207.128906 47.386719 C 207.859375 47.386719 208.433594 47.648438 208.835938 48.167969 C 209.238281 48.6875 209.449219 49.429688 209.449219 50.378906 L 209.449219 54.671875 L 208.277344 54.671875 L 208.277344 50.417969 C 208.277344 49.742188 208.144531 49.234375 207.910156 48.894531 C 207.664062 48.570312 207.300781 48.402344 206.804688 48.402344 C 206.191406 48.402344 205.710938 48.609375 205.359375 49.011719 C 205.007812 49.417969 204.839844 49.960938 204.839844 50.652344 L 204.839844 54.671875 L 203.667969 54.671875 L 203.667969 50.417969 C 203.667969 49.742188 203.535156 49.234375 203.300781 48.894531 C 203.054688 48.570312 202.675781 48.402344 202.183594 48.402344 C 201.582031 48.402344 201.101562 48.609375 200.75 49.011719 C 200.398438 49.417969 200.230469 49.960938 200.230469 50.652344 L 200.230469 54.671875 L 199.058594 54.671875 L 199.058594 47.558594 L 200.230469 47.558594 L 200.230469 48.664062 C 200.488281 48.234375 200.816406 47.90625 201.191406 47.699219 C 201.558594 47.492188 202 47.386719 202.519531 47.386719 C 203.042969 47.386719 203.472656 47.519531 203.835938 47.777344 C 204.199219 48.039062 204.460938 48.429688 204.644531 48.921875 Z M 204.644531 48.921875 "/>
<path style=" stroke:none;fill-rule:nonzero;fill:rgb(0%,0%,0%);fill-opacity:1;" d="M 211.777344 47.558594 L 212.949219 47.558594 L 212.949219 54.671875 L 211.777344 54.671875 Z M 211.777344 44.785156 L 212.949219 44.785156 L 212.949219 46.269531 L 211.777344 46.269531 Z M 211.777344 44.785156 "/>
<path style=" stroke:none;fill-rule:nonzero;fill:rgb(0%,0%,0%);fill-opacity:1;" d="M 221.324219 50.378906 L 221.324219 54.671875 L 220.152344 54.671875 L 220.152344 50.417969 C 220.152344 49.742188 220.007812 49.246094 219.746094 48.910156 C 219.488281 48.570312 219.097656 48.402344 218.574219 48.402344 C 217.9375 48.402344 217.441406 48.609375 217.078125 49.011719 C 216.714844 49.417969 216.53125 49.960938 216.53125 50.652344 L 216.53125 54.671875 L 215.359375 54.671875 L 215.359375 47.558594 L 216.53125 47.558594 L 216.53125 48.664062 C 216.804688 48.246094 217.128906 47.921875 217.519531 47.714844 C 217.898438 47.503906 218.339844 47.386719 218.835938 47.386719 C 219.644531 47.386719 220.269531 47.648438 220.683594 48.15625 C 221.101562 48.664062 221.324219 49.402344 221.324219 50.378906 Z M 221.324219 50.378906 "/>
<path style=" stroke:none;fill-rule:nonzero;fill:rgb(0%,0%,0%);fill-opacity:1;" d="M 223.824219 53.058594 L 225.164062 53.058594 L 225.164062 54.671875 L 223.824219 54.671875 Z M 223.824219 53.058594 "/>
<path style=" stroke:none;fill-rule:nonzero;fill:rgb(0%,0%,0%);fill-opacity:1;" d="M 236.621094 48.636719 L 236.621094 44.785156 L 237.792969 44.785156 L 237.792969 54.671875 L 236.621094 54.671875 L 236.621094 53.605469 C 236.375 54.035156 236.0625 54.34375 235.683594 54.539062 C 235.308594 54.734375 234.863281 54.839844 234.34375 54.839844 C 233.484375 54.839844 232.78125 54.5 232.234375 53.824219 C 231.6875 53.148438 231.425781 52.238281 231.425781 51.121094 C 231.425781 50 231.6875 49.105469 232.234375 48.414062 C 232.78125 47.738281 233.484375 47.386719 234.34375 47.386719 C 234.863281 47.386719 235.308594 47.492188 235.683594 47.699219 C 236.0625 47.90625 236.375 48.21875 236.621094 48.636719 Z M 232.636719 51.121094 C 232.636719 51.980469 232.808594 52.65625 233.160156 53.148438 C 233.511719 53.644531 233.992188 53.878906 234.617188 53.878906 C 235.242188 53.878906 235.722656 53.644531 236.089844 53.148438 C 236.441406 52.65625 236.621094 51.980469 236.621094 51.121094 C 236.621094 50.261719 236.441406 49.597656 236.089844 49.105469 C 235.722656 48.609375 235.242188 48.363281 234.617188 48.363281 C 233.992188 48.363281 233.511719 48.609375 233.160156 49.105469 C 232.808594 49.597656 232.636719 50.261719 232.636719 51.121094 Z M 232.636719 51.121094 "/>
<path style=" stroke:none;fill-rule:nonzero;fill:rgb(0%,0%,0%);fill-opacity:1;" d="M 240.203125 47.558594 L 241.375 47.558594 L 241.375 54.671875 L 240.203125 54.671875 Z M 240.203125 44.785156 L 241.375 44.785156 L 241.375 46.269531 L 240.203125 46.269531 Z M 240.203125 44.785156 "/>
<path style=" stroke:none;fill-rule:nonzero;fill:rgb(0%,0%,0%);fill-opacity:1;" d="M 248.367188 47.765625 L 248.367188 48.871094 C 248.027344 48.714844 247.691406 48.585938 247.339844 48.492188 C 246.972656 48.414062 246.609375 48.363281 246.230469 48.363281 C 245.644531 48.363281 245.203125 48.453125 244.917969 48.636719 C 244.628906 48.816406 244.488281 49.078125 244.488281 49.429688 C 244.488281 49.703125 244.589844 49.910156 244.800781 50.066406 C 245.007812 50.222656 245.425781 50.378906 246.050781 50.507812 L 246.453125 50.601562 C 247.285156 50.78125 247.871094 51.042969 248.222656 51.355469 C 248.5625 51.679688 248.746094 52.132812 248.746094 52.707031 C 248.746094 53.371094 248.484375 53.890625 247.964844 54.265625 C 247.441406 54.65625 246.714844 54.839844 245.800781 54.839844 C 245.410156 54.839844 245.019531 54.800781 244.605469 54.734375 C 244.1875 54.671875 243.757812 54.566406 243.300781 54.410156 L 243.300781 53.199219 C 243.730469 53.433594 244.160156 53.605469 244.578125 53.707031 C 244.996094 53.824219 245.410156 53.878906 245.828125 53.878906 C 246.375 53.878906 246.804688 53.785156 247.105469 53.605469 C 247.390625 53.421875 247.546875 53.148438 247.546875 52.796875 C 247.546875 52.484375 247.429688 52.238281 247.222656 52.070312 C 247.011719 51.902344 246.542969 51.730469 245.816406 51.574219 L 245.410156 51.484375 C 244.683594 51.328125 244.148438 51.09375 243.835938 50.78125 C 243.511719 50.46875 243.355469 50.039062 243.355469 49.480469 C 243.355469 48.816406 243.589844 48.296875 244.058594 47.933594 C 244.527344 47.570312 245.203125 47.386719 246.089844 47.386719 C 246.519531 47.386719 246.921875 47.425781 247.3125 47.492188 C 247.691406 47.558594 248.042969 47.648438 248.367188 47.765625 Z M 248.367188 47.765625 "/>
<path style=" stroke:none;fill-rule:nonzero;fill:rgb(0%,0%,0%);fill-opacity:1;" d="M 251.765625 45.542969 L 251.765625 47.558594 L 254.175781 47.558594 L 254.175781 48.46875 L 251.765625 48.46875 L 251.765625 52.328125 C 251.765625 52.914062 251.84375 53.292969 252 53.449219 C 252.15625 53.617188 252.480469 53.695312 252.976562 53.695312 L 254.175781 53.695312 L 254.175781 54.671875 L 252.976562 54.671875 C 252.066406 54.671875 251.441406 54.5 251.101562 54.164062 C 250.761719 53.824219 250.59375 53.214844 250.59375 52.328125 L 250.59375 48.46875 L 249.734375 48.46875 L 249.734375 47.558594 L 250.59375 47.558594 L 250.59375 45.542969 Z M 251.765625 45.542969 "/>
<path style=" stroke:none;fill-rule:nonzero;fill:rgb(0%,0%,0%);fill-opacity:1;" d="M 258.953125 51.09375 C 258.003906 51.09375 257.351562 51.210938 256.988281 51.417969 C 256.621094 51.640625 256.441406 52.003906 256.441406 52.523438 C 256.441406 52.941406 256.570312 53.277344 256.84375 53.511719 C 257.117188 53.761719 257.496094 53.878906 257.964844 53.878906 C 258.613281 53.878906 259.136719 53.65625 259.527344 53.1875 C 259.917969 52.734375 260.113281 52.121094 260.113281 51.355469 L 260.113281 51.09375 Z M 261.285156 50.613281 L 261.285156 54.671875 L 260.113281 54.671875 L 260.113281 53.589844 C 259.839844 54.035156 259.5 54.34375 259.109375 54.539062 C 258.71875 54.734375 258.222656 54.839844 257.652344 54.839844 C 256.921875 54.839844 256.335938 54.644531 255.90625 54.242188 C 255.476562 53.839844 255.269531 53.292969 255.269531 52.601562 C 255.269531 51.808594 255.527344 51.210938 256.074219 50.796875 C 256.609375 50.390625 257.402344 50.183594 258.472656 50.183594 L 260.113281 50.183594 L 260.113281 50.066406 C 260.113281 49.535156 259.929688 49.117188 259.578125 48.816406 C 259.226562 48.53125 258.730469 48.375 258.09375 48.375 C 257.675781 48.375 257.285156 48.429688 256.894531 48.53125 C 256.503906 48.636719 256.140625 48.78125 255.789062 48.960938 L 255.789062 47.882812 C 256.207031 47.726562 256.621094 47.597656 257.027344 47.519531 C 257.429688 47.441406 257.820312 47.386719 258.210938 47.386719 C 259.238281 47.386719 260.007812 47.660156 260.515625 48.195312 C 261.023438 48.726562 261.285156 49.535156 261.285156 50.613281 Z M 261.285156 50.613281 "/>
<path style=" stroke:none;fill-rule:nonzero;fill:rgb(0%,0%,0%);fill-opacity:1;" d="M 269.617188 50.378906 L 269.617188 54.671875 L 268.445312 54.671875 L 268.445312 50.417969 C 268.445312 49.742188 268.300781 49.246094 268.042969 48.910156 C 267.78125 48.570312 267.390625 48.402344 266.871094 48.402344 C 266.230469 48.402344 265.738281 48.609375 265.371094 49.011719 C 265.007812 49.417969 264.824219 49.960938 264.824219 50.652344 L 264.824219 54.671875 L 263.652344 54.671875 L 263.652344 47.558594 L 264.824219 47.558594 L 264.824219 48.664062 C 265.097656 48.246094 265.425781 47.921875 265.816406 47.714844 C 266.191406 47.503906 266.636719 47.386719 267.128906 47.386719 C 267.9375 47.386719 268.5625 47.648438 268.980469 48.15625 C 269.394531 48.664062 269.617188 49.402344 269.617188 50.378906 Z M 269.617188 50.378906 "/>
<path style=" stroke:none;fill-rule:nonzero;fill:rgb(0%,0%,0%);fill-opacity:1;" d="M 277.078125 47.828125 L 277.078125 48.921875 C 276.738281 48.742188 276.414062 48.609375 276.074219 48.519531 C 275.738281 48.429688 275.410156 48.375 275.074219 48.375 C 274.316406 48.375 273.71875 48.625 273.300781 49.105469 C 272.886719 49.585938 272.675781 50.261719 272.675781 51.121094 C 272.675781 51.992188 272.886719 52.667969 273.300781 53.148438 C 273.71875 53.628906 274.316406 53.863281 275.074219 53.863281 C 275.410156 53.863281 275.738281 53.824219 276.074219 53.734375 C 276.414062 53.644531 276.738281 53.5 277.078125 53.316406 L 277.078125 54.398438 C 276.738281 54.554688 276.402344 54.671875 276.0625 54.734375 C 275.710938 54.800781 275.332031 54.839844 274.941406 54.839844 C 273.875 54.839844 273.015625 54.515625 272.390625 53.839844 C 271.753906 53.175781 271.441406 52.265625 271.441406 51.121094 C 271.441406 49.960938 271.753906 49.050781 272.390625 48.390625 C 273.027344 47.726562 273.902344 47.386719 275.019531 47.386719 C 275.386719 47.386719 275.738281 47.425781 276.074219 47.503906 C 276.414062 47.582031 276.753906 47.6875 277.078125 47.828125 Z M 277.078125 47.828125 "/>
<path style=" stroke:none;fill-rule:nonzero;fill:rgb(0%,0%,0%);fill-opacity:1;" d="M 285.203125 50.820312 L 285.203125 51.394531 L 279.824219 51.394531 C 279.878906 52.199219 280.113281 52.824219 280.554688 53.238281 C 280.984375 53.65625 281.582031 53.863281 282.363281 53.863281 C 282.808594 53.863281 283.25 53.8125 283.667969 53.707031 C 284.082031 53.605469 284.511719 53.433594 284.929688 53.199219 L 284.929688 54.304688 C 284.511719 54.488281 284.082031 54.632812 283.640625 54.710938 C 283.199219 54.789062 282.742188 54.839844 282.300781 54.839844 C 281.152344 54.839844 280.253906 54.515625 279.589844 53.863281 C 278.925781 53.214844 278.601562 52.316406 278.601562 51.183594 C 278.601562 50.027344 278.914062 49.105469 279.539062 48.414062 C 280.164062 47.738281 281.023438 47.386719 282.089844 47.386719 C 283.054688 47.386719 283.808594 47.699219 284.371094 48.3125 C 284.917969 48.933594 285.203125 49.769531 285.203125 50.820312 Z M 284.03125 50.484375 C 284.019531 49.847656 283.835938 49.339844 283.496094 48.949219 C 283.144531 48.570312 282.675781 48.375 282.105469 48.375 C 281.453125 48.375 280.933594 48.570312 280.542969 48.933594 C 280.152344 49.300781 279.917969 49.820312 279.863281 50.484375 Z M 284.03125 50.484375 "/>
<path style=" stroke:none;fill-rule:nonzero;fill:rgb(0%,0%,0%);fill-opacity:1;" d="M 291.414062 48.765625 L 299.566406 48.765625 L 299.566406 49.832031 L 291.414062 49.832031 Z M 291.414062 51.355469 L 299.566406 51.355469 L 299.566406 52.433594 L 291.414062 52.433594 Z M 291.414062 51.355469 "/>
<path style=" stroke:none;fill-rule:nonzero;fill:rgb(0%,0%,0%);fill-opacity:1;" d="M 306.699219 53.589844 L 308.796875 53.589844 L 308.796875 46.359375 L 306.519531 46.816406 L 306.519531 45.644531 L 308.785156 45.191406 L 310.074219 45.191406 L 310.074219 53.589844 L 312.167969 53.589844 L 312.167969 54.671875 L 306.699219 54.671875 Z M 306.699219 53.589844 "/>
<path style=" stroke:none;fill-rule:nonzero;fill:rgb(0%,0%,0%);fill-opacity:1;" d="M 318.652344 49.558594 C 319.265625 49.691406 319.746094 49.960938 320.085938 50.378906 C 320.425781 50.796875 320.605469 51.316406 320.605469 51.914062 C 320.605469 52.851562 320.28125 53.578125 319.644531 54.085938 C 318.992188 54.59375 318.082031 54.839844 316.894531 54.839844 C 316.492188 54.839844 316.074219 54.800781 315.660156 54.722656 C 315.242188 54.65625 314.800781 54.539062 314.355469 54.382812 L 314.355469 53.148438 C 314.707031 53.355469 315.097656 53.511719 315.527344 53.617188 C 315.945312 53.722656 316.386719 53.773438 316.855469 53.773438 C 317.664062 53.773438 318.277344 53.617188 318.691406 53.304688 C 319.109375 52.992188 319.332031 52.523438 319.332031 51.914062 C 319.332031 51.367188 319.136719 50.925781 318.746094 50.613281 C 318.355469 50.300781 317.808594 50.132812 317.105469 50.132812 L 315.996094 50.132812 L 315.996094 49.078125 L 317.15625 49.078125 C 317.78125 49.078125 318.261719 48.960938 318.601562 48.703125 C 318.941406 48.453125 319.109375 48.089844 319.109375 47.609375 C 319.109375 47.128906 318.925781 46.75 318.589844 46.492188 C 318.238281 46.230469 317.742188 46.101562 317.105469 46.101562 C 316.753906 46.101562 316.375 46.140625 315.972656 46.21875 C 315.566406 46.296875 315.125 46.414062 314.644531 46.570312 L 314.644531 45.425781 C 315.125 45.292969 315.582031 45.191406 316.011719 45.125 C 316.425781 45.058594 316.832031 45.019531 317.222656 45.019531 C 318.183594 45.019531 318.953125 45.242188 319.527344 45.683594 C 320.097656 46.125 320.386719 46.722656 320.386719 47.480469 C 320.386719 48 320.230469 48.441406 319.929688 48.804688 C 319.628906 49.167969 319.199219 49.429688 318.652344 49.558594 Z M 318.652344 49.558594 "/>
<path style=" stroke:none;fill-rule:nonzero;fill:rgb(0%,0%,0%);fill-opacity:1;" d="M 323.042969 53.058594 L 324.382812 53.058594 L 324.382812 54.671875 L 323.042969 54.671875 Z M 323.042969 53.058594 "/>
<path style=" stroke:none;fill-rule:nonzero;fill:rgb(0%,0%,0%);fill-opacity:1;" d="M 327.402344 53.589844 L 329.5 53.589844 L 329.5 46.359375 L 327.222656 46.816406 L 327.222656 45.644531 L 329.488281 45.191406 L 330.777344 45.191406 L 330.777344 53.589844 L 332.871094 53.589844 L 332.871094 54.671875 L 327.402344 54.671875 Z M 327.402344 53.589844 "/>
<path style=" stroke:none;fill-rule:nonzero;fill:rgb(0%,0%,0%);fill-opacity:1;" d="M 335.136719 45.191406 L 341.246094 45.191406 L 341.246094 45.734375 L 337.792969 54.671875 L 336.453125 54.671875 L 339.695312 46.269531 L 335.136719 46.269531 Z M 335.136719 45.191406 "/>
<path style=" stroke:none;fill-rule:nonzero;fill:rgb(0%,0%,0%);fill-opacity:1;" d="M 353.261719 48.921875 C 353.550781 48.402344 353.902344 48.023438 354.304688 47.765625 C 354.707031 47.519531 355.191406 47.386719 355.75 47.386719 C 356.480469 47.386719 357.050781 47.648438 357.457031 48.167969 C 357.859375 48.6875 358.066406 49.429688 358.066406 50.378906 L 358.066406 54.671875 L 356.894531 54.671875 L 356.894531 50.417969 C 356.894531 49.742188 356.765625 49.234375 356.53125 48.894531 C 356.285156 48.570312 355.917969 48.402344 355.425781 48.402344 C 354.8125 48.402344 354.332031 48.609375 353.980469 49.011719 C 353.628906 49.417969 353.457031 49.960938 353.457031 50.652344 L 353.457031 54.671875 L 352.285156 54.671875 L 352.285156 50.417969 C 352.285156 49.742188 352.15625 49.234375 351.921875 48.894531 C 351.675781 48.570312 351.296875 48.402344 350.800781 48.402344 C 350.203125 48.402344 349.722656 48.609375 349.371094 49.011719 C 349.019531 49.417969 348.847656 49.960938 348.847656 50.652344 L 348.847656 54.671875 L 347.675781 54.671875 L 347.675781 47.558594 L 348.847656 47.558594 L 348.847656 48.664062 C 349.109375 48.234375 349.433594 47.90625 349.8125 47.699219 C 350.175781 47.492188 350.621094 47.386719 351.140625 47.386719 C 351.660156 47.386719 352.089844 47.519531 352.457031 47.777344 C 352.820312 48.039062 353.082031 48.429688 353.261719 48.921875 Z M 353.261719 48.921875 "/>
</g>
</svg>
