<svg width="460.8" height="345.6" xmlns="http://www.w3.org/2000/svg" xmlns:xlink="http://www.w3.org/1999/xlink">

 <symbol id="a">
  <path id="svg_1" d="m0.252,0.677c-0.051,0 -0.089,-0.025 -0.115,-0.075s-0.038,-0.125 -0.038,-0.225s0.012,-0.175 0.038,-0.225s0.064,-0.075 0.115,-0.075s0.089,0.025 0.115,0.075c0.025,0.05 0.038,0.125 0.038,0.225s-0.013,0.175 -0.038,0.225c-0.026,0.05 -0.064,0.075 -0.115,0.075zm0,0.078c0.081,0 0.143,-0.033 0.187,-0.097c0.043,-0.065 0.065,-0.159 0.065,-0.281c0,-0.123 -0.022,-0.217 -0.065,-0.281c-0.044,-0.064 -0.106,-0.096 -0.188,-0.096s-0.144,0.032 -0.187,0.096s-0.064,0.158 -0.064,0.281c0,0.122 0.021,0.216 0.064,0.281c0.043,0.064 0.106,0.097 0.188,0.097z"/>
 </symbol>
 <symbol id="b">
  <path id="svg_2" d="m124,83l161,0l0,556l-175,-35l0,90l174,35l99,0l0,-646l161,0l0,-83l-420,0l0,83z" transform="translate(-.11) scale(.001)"/>
 </symbol>
 <symbol id="c">
  <path id="svg_3" d="m192,83l344,0l0,-83l-463,0l0,83c37,38 88,90 153,156c64,65 105,107 122,126c32,35 54,65 66,90c12,24 19,49 19,73c0,38 -14,70 -41,94s-62,37 -106,37c-31,0 -64,-6 -98,-16c-34,-11 -71,-27 -110,-49l0,100c40,16 77,28 111,36s66,12 95,12c75,0 135,-19 180,-57s68,-88 68,-151c0,-30 -6,-59 -17,-85c-11,-27 -31,-59 -61,-95c-8,-10 -34,-37 -78,-82s-105,-108 -184,-189z" transform="translate(-.073) scale(.001)"/>
 </symbol>
 <symbol id="d">
  <path id="svg_4" d="m0.33,0.406c0.047,-0.01 0.084,-0.031 0.11,-0.063s0.04,-0.072 0.04,-0.118c0,-0.072 -0.025,-0.128 -0.074,-0.167c-0.05,-0.039 -0.12,-0.058 -0.211,-0.058c-0.031,0 -0.063,0.003 -0.095,0.009c-0.032,0.005 -0.066,0.014 -0.1,0.026l0,0.095c0.027,-0.016 0.057,-0.028 0.09,-0.036c0.032,-0.008 0.066,-0.012 0.102,-0.012c0.062,0 0.109,0.012 0.141,0.036s0.049,0.06 0.049,0.107c0,0.042 -0.015,0.076 -0.045,0.1s-0.072,0.037 -0.126,0.037l-0.085,0l0,0.081l0.089,0c0.048,0 0.085,0.009 0.111,0.029c0.026,0.019 0.039,0.047 0.039,0.084s-0.014,0.066 -0.04,0.086c-0.027,0.02 -0.065,0.03 -0.114,0.03c-0.027,0 -0.056,-0.003 -0.087,-0.009s-0.065,-0.015 -0.102,-0.027l0,0.088c0.037,0.01 0.072,0.018 0.105,0.023c0.032,0.005 0.063,0.008 0.093,0.008c0.074,0 0.133,-0.017 0.177,-0.051s0.066,-0.08 0.066,-0.138c0,-0.04 -0.012,-0.074 -0.035,-0.102s-0.056,-0.048 -0.098,-0.058z"/>
 </symbol>
 <symbol id="e">
  <path id="svg_5" d="m378,643l-249,-389l249,0l0,389zm-26,86l124,0l0,-475l104,0l0,-82l-104,0l0,-172l-98,0l0,172l-329,0l0,95l303,462z" transform="translate(-.049) scale(.001)"/>
 </symbol>
 <symbol id="f">
  <path id="svg_6" d="m-2,729l616,0l0,-83l-259,0l0,-646l-99,0l0,646l-258,0l0,83z" transform="translate(.002) scale(.001)"/>
 </symbol>
 <symbol id="g">
  <path id="svg_7" d="m94,547l90,0l0,-547l-90,0l0,547zm0,213l90,0l0,-114l-90,0l0,114z" transform="translate(-.094) scale(.001)"/>
 </symbol>
 <symbol id="h">
  <path id="svg_8" d="m520,442c22,40 49,69 80,89c31,19 68,29 111,29c56,0 100,-20 131,-60s47,-97 47,-170l0,-330l-90,0l0,327c0,52 -10,91 -28,117c-19,25 -47,38 -85,38c-47,0 -84,-16 -111,-47s-40,-73 -40,-126l0,-309l-90,0l0,327c0,52 -10,91 -28,117c-19,25 -48,38 -86,38c-46,0 -83,-16 -110,-47s-40,-73 -40,-126l0,-309l-90,0l0,547l90,0l0,-85c20,33 45,58 74,74c28,16 62,24 102,24s73,-10 101,-30s48,-50 62,-88z" transform="translate(-.091) scale(.001)"/>
 </symbol>
 <symbol id="i">
  <path id="svg_9" d="m0.507,0.309l0,-0.044l-0.413,0c0.004,-0.062 0.022,-0.11 0.056,-0.142c0.033,-0.032 0.079,-0.048 0.139,-0.048c0.034,0 0.068,0.004 0.1,0.012s0.065,0.021 0.097,0.039l0,-0.085c-0.032,-0.014 -0.065,-0.025 -0.099,-0.031s-0.069,-0.01 -0.103,-0.01c-0.088,0 -0.157,0.025 -0.208,0.075s-0.076,0.119 -0.076,0.206c0,0.089 0.024,0.16 0.072,0.213c0.048,0.052 0.114,0.079 0.196,0.079c0.074,0 0.132,-0.024 0.175,-0.071c0.042,-0.048 0.064,-0.112 0.064,-0.193zm-0.09,0.026c-0.001,0.049 -0.015,0.088 -0.041,0.118c-0.027,0.029 -0.063,0.044 -0.107,0.044c-0.05,0 -0.09,-0.015 -0.12,-0.043s-0.048,-0.068 -0.052,-0.119l0.32,0z"/>
 </symbol>
 <symbol id="k">
  <path id="svg_10" d="m0,0.891l0.207,0l0,-0.07l-0.117,0l0,-0.751l0.117,0l0,-0.07l-0.207,0l0,0.891z"/>
 </symbol>
 <symbol id="l">
  <path id="svg_11" d="m0.389,0.544l0,-0.085c-0.026,0.012 -0.052,0.022 -0.079,0.029c-0.028,0.006 -0.056,0.01 -0.085,0.01c-0.045,0 -0.079,-0.007 -0.101,-0.021s-0.033,-0.034 -0.033,-0.061c0,-0.021 0.008,-0.037 0.024,-0.049s0.048,-0.024 0.096,-0.034l0.031,-0.007c0.064,-0.014 0.109,-0.034 0.136,-0.058c0.026,-0.025 0.04,-0.06 0.04,-0.104c0,-0.051 -0.02,-0.091 -0.06,-0.12c-0.04,-0.03 -0.096,-0.044 -0.166,-0.044c-0.03,0 -0.06,0.003 -0.092,0.008s-0.065,0.013 -0.1,0.025l0,0.093c0.033,-0.018 0.066,-0.031 0.098,-0.039c0.032,-0.009 0.064,-0.013 0.096,-0.013c0.042,0 0.075,0.007 0.098,0.021c0.022,0.014 0.034,0.035 0.034,0.062c0,0.024 -0.009,0.043 -0.025,0.056s-0.052,0.026 -0.108,0.038l-0.031,0.007c-0.056,0.012 -0.097,0.03 -0.121,0.054c-0.025,0.024 -0.037,0.057 -0.037,0.1c0,0.051 0.018,0.091 0.054,0.119s0.088,0.042 0.156,0.042c0.033,0 0.064,-0.003 0.094,-0.008c0.029,-0.005 0.056,-0.012 0.081,-0.021z"/>
 </symbol>
 <symbol id="m">
  <path id="svg_12" d="m0.207,0.891l0,-0.891l-0.207,0l0,0.07l0.117,0l0,0.751l-0.117,0l0,0.07l0.207,0z"/>
 </symbol>
 <symbol id="n">
  <path id="svg_13" d="m0.25,0.359c-0.047,0 -0.084,-0.013 -0.111,-0.038s-0.04,-0.059 -0.04,-0.103s0.013,-0.079 0.04,-0.104s0.064,-0.037 0.111,-0.037c0.046,0 0.083,0.012 0.11,0.038c0.027,0.025 0.041,0.059 0.041,0.103s-0.014,0.078 -0.04,0.103c-0.027,0.025 -0.064,0.038 -0.111,0.038zm-0.099,0.042c-0.042,0.01 -0.075,0.03 -0.099,0.059s-0.035,0.064 -0.035,0.106c0,0.058 0.02,0.104 0.062,0.138c0.041,0.034 0.098,0.051 0.171,0.051c0.072,0 0.129,-0.017 0.171,-0.051c0.041,-0.034 0.062,-0.08 0.062,-0.138c0,-0.042 -0.012,-0.077 -0.036,-0.106s-0.056,-0.049 -0.098,-0.059c0.047,-0.011 0.084,-0.033 0.111,-0.065c0.026,-0.032 0.04,-0.072 0.04,-0.118c0,-0.071 -0.022,-0.125 -0.065,-0.162c-0.044,-0.038 -0.106,-0.056 -0.186,-0.056s-0.142,0.018 -0.185,0.056c-0.043,0.037 -0.064,0.091 -0.064,0.162c0,0.046 0.013,0.086 0.04,0.118c0.026,0.032 0.063,0.054 0.111,0.065zm-0.036,0.156c0,-0.038 0.011,-0.068 0.035,-0.089s0.057,-0.031 0.1,-0.031c0.042,0 0.075,0.01 0.099,0.031s0.036,0.051 0.036,0.089s-0.012,0.067 -0.036,0.088s-0.057,0.032 -0.099,0.032c-0.043,0 -0.076,-0.011 -0.1,-0.032s-0.035,-0.05 -0.035,-0.088z"/>
 </symbol>
 <symbol id="o">
  <path id="svg_14" d="m0.047,0.028l0,0.09c0.024,-0.012 0.049,-0.021 0.075,-0.027c0.025,-0.006 0.05,-0.009 0.075,-0.009c0.064,0 0.114,0.021 0.148,0.065s0.054,0.11 0.06,0.2c-0.02,-0.028 -0.044,-0.05 -0.072,-0.065c-0.029,-0.015 -0.061,-0.022 -0.096,-0.022c-0.074,0 -0.132,0.022 -0.174,0.066s-0.063,0.104 -0.063,0.181c0,0.074 0.022,0.134 0.066,0.18c0.044,0.045 0.103,0.068 0.177,0.068c0.084,0 0.149,-0.033 0.193,-0.097c0.044,-0.065 0.067,-0.159 0.067,-0.281c0,-0.116 -0.028,-0.207 -0.082,-0.275c-0.055,-0.068 -0.128,-0.102 -0.22,-0.102c-0.025,0 -0.05,0.003 -0.075,0.007c-0.026,0.004 -0.052,0.011 -0.079,0.021zm0.196,0.309c0.044,0 0.079,0.015 0.105,0.045s0.039,0.072 0.039,0.125c0,0.052 -0.013,0.094 -0.039,0.124s-0.061,0.046 -0.105,0.046s-0.079,-0.016 -0.105,-0.046s-0.039,-0.072 -0.039,-0.124c0,-0.053 0.013,-0.095 0.039,-0.125s0.061,-0.045 0.105,-0.045z"/>
 </symbol>
 <symbol id="p">
  <path id="svg_15" d="m0.338,0.675c-0.072,0 -0.129,-0.027 -0.171,-0.08c-0.042,-0.054 -0.063,-0.126 -0.063,-0.218s0.021,-0.165 0.063,-0.218c0.042,-0.054 0.099,-0.08 0.171,-0.08c0.071,0 0.128,0.026 0.17,0.08c0.042,0.053 0.063,0.126 0.063,0.218s-0.021,0.164 -0.063,0.218c-0.042,0.053 -0.099,0.08 -0.17,0.08zm0,0.08c0.102,0 0.183,-0.035 0.245,-0.103c0.061,-0.068 0.092,-0.16 0.092,-0.275c0,-0.116 -0.031,-0.207 -0.092,-0.275c-0.062,-0.068 -0.143,-0.102 -0.245,-0.102c-0.103,0 -0.185,0.034 -0.246,0.102c-0.062,0.068 -0.092,0.159 -0.092,0.275c0,0.115 0.03,0.207 0.092,0.275c0.061,0.068 0.143,0.103 0.246,0.103z"/>
 </symbol>
 <symbol id="q">
  <path id="svg_16" d="m411,463c-10,6 -21,10 -33,13c-12,2 -25,4 -39,4c-51,0 -90,-17 -117,-50c-28,-33 -41,-80 -41,-142l0,-288l-90,0l0,547l90,0l0,-85c18,33 43,58 73,74s67,24 111,24c6,0 13,-1 21,-1c7,-1 15,-2 25,-4l0,-92z" transform="translate(-.091) scale(.001)"/>
 </symbol>
 <symbol id="r">
  <path id="svg_17" d="m183,702l0,-155l185,0l0,-70l-185,0l0,-297c0,-45 6,-74 18,-86c12,-13 37,-19 75,-19l92,0l0,-75l-92,0c-70,0 -118,13 -144,39s-39,73 -39,141l0,297l-66,0l0,70l66,0l0,155l90,0z" transform="translate(-.027) scale(.001)"/>
 </symbol>
 <symbol id="s">
  <path id="svg_18" d="m549,330l0,-330l-90,0l0,327c0,52 -11,90 -31,116s-50,39 -90,39c-49,0 -87,-16 -115,-47s-42,-73 -42,-126l0,-309l-90,0l0,547l90,0l0,-85c21,32 46,57 76,73c29,16 63,25 101,25c62,0 110,-20 142,-59s49,-96 49,-171z" transform="translate(-.091) scale(.001)"/>
 </symbol>
 <symbol id="t">
  <path id="svg_19" d="m0.283,0.288c-0.073,0 -0.123,-0.009 -0.151,-0.025c-0.028,-0.017 -0.042,-0.045 -0.042,-0.085c0,-0.032 0.01,-0.058 0.031,-0.076c0.021,-0.019 0.05,-0.028 0.086,-0.028c0.05,0 0.09,0.017 0.12,0.053c0.03,0.035 0.045,0.082 0.045,0.141l0,0.02l-0.089,0zm0.179,0.037l0,-0.312l-0.09,0l0,0.083c-0.021,-0.034 -0.047,-0.058 -0.077,-0.073s-0.068,-0.023 -0.112,-0.023c-0.056,0 -0.101,0.015 -0.134,0.046s-0.049,0.073 -0.049,0.126c0,0.061 0.02,0.107 0.062,0.139c0.041,0.031 0.102,0.047 0.184,0.047l0.126,0l0,0.009c0,0.041 -0.014,0.073 -0.041,0.096c-0.027,0.022 -0.065,0.034 -0.114,0.034c-0.032,0 -0.062,-0.004 -0.092,-0.012s-0.058,-0.019 -0.085,-0.033l0,0.083c0.032,0.012 0.064,0.022 0.095,0.028s0.061,0.01 0.091,0.01c0.079,0 0.138,-0.021 0.177,-0.062s0.059,-0.103 0.059,-0.186z"/>
 </symbol>
 <symbol id="u">
  <path id="svg_20" d="m0.251,0.497c-0.048,0 -0.086,-0.019 -0.114,-0.057s-0.042,-0.089 -0.042,-0.154c0,-0.066 0.013,-0.117 0.041,-0.155s0.066,-0.056 0.115,-0.056c0.048,0 0.086,0.018 0.114,0.056s0.042,0.089 0.042,0.155c0,0.064 -0.014,0.116 -0.042,0.154s-0.066,0.057 -0.114,0.057zm0,0.076c0.078,0 0.139,-0.026 0.184,-0.076c0.044,-0.051 0.067,-0.121 0.067,-0.211s-0.023,-0.16 -0.067,-0.21c-0.045,-0.051 -0.106,-0.076 -0.184,-0.076c-0.079,0 -0.141,0.025 -0.185,0.076c-0.044,0.05 -0.066,0.12 -0.066,0.21s0.022,0.16 0.066,0.211c0.044,0.05 0.106,0.076 0.185,0.076z"/>
 </symbol>
 <symbol id="v">
  <path id="svg_21" d="m0.155,0.247c-0.026,0 -0.048,-0.009 -0.066,-0.027s-0.027,-0.04 -0.027,-0.066s0.009,-0.048 0.027,-0.066s0.04,-0.026 0.066,-0.026s0.048,0.008 0.066,0.026s0.027,0.04 0.027,0.066s-0.009,0.048 -0.027,0.066s-0.04,0.027 -0.066,0.027zm0,0.063c0.02,0 0.04,-0.004 0.06,-0.012c0.019,-0.008 0.036,-0.02 0.05,-0.034c0.014,-0.015 0.025,-0.032 0.033,-0.05c0.008,-0.019 0.012,-0.039 0.012,-0.06c0,-0.044 -0.016,-0.08 -0.046,-0.11s-0.067,-0.044 -0.11,-0.044c-0.044,0 -0.081,0.014 -0.11,0.044c-0.03,0.029 -0.044,0.066 -0.044,0.11c0,0.043 0.015,0.08 0.045,0.11s0.066,0.046 0.11,0.046z"/>
 </symbol>
 <clipPath id="w">
  <path id="svg_22" d="m103.104,307.58401l266.112,0l0,-266.112l-266.112,0l0,266.112z"/>
 </clipPath>
 <clipPath id="x">
  <path id="svg_23" d="m103.104,307.58401l266.112,0l0,-266.112l-266.112,0l0,266.112z"/>
 </clipPath>
 <symbol id="y">
  <path id="svg_24" d="m0.588,0.686l0,-0.104c-0.034,0.03 -0.069,0.053 -0.107,0.069c-0.038,0.015 -0.077,0.023 -0.119,0.023c-0.084,0 -0.148,-0.026 -0.192,-0.077s-0.066,-0.124 -0.066,-0.22s0.022,-0.17 0.066,-0.221s0.108,-0.076 0.192,-0.076c0.042,0 0.081,0.007 0.119,0.023c0.038,0.015 0.073,0.038 0.107,0.069l0,-0.103c-0.035,-0.024 -0.072,-0.041 -0.11,-0.052s-0.079,-0.017 -0.122,-0.017c-0.11,0 -0.197,0.033 -0.261,0.1s-0.095,0.159 -0.095,0.277c0,0.117 0.031,0.209 0.095,0.277c0.064,0.067 0.151,0.101 0.261,0.101c0.044,0 0.085,-0.006 0.123,-0.017c0.038,-0.012 0.075,-0.029 0.109,-0.052z"/>
 </symbol>
 <symbol id="z">
  <path id="svg_25" d="m0,0.229l0,0.331l0.09,0l0,-0.328c0,-0.052 0.01,-0.09 0.03,-0.116s0.05,-0.039 0.091,-0.039c0.048,0 0.087,0.015 0.115,0.046s0.042,0.073 0.042,0.127l0,0.31l0.09,0l0,-0.547l-0.09,0l0,0.084c-0.022,-0.034 -0.048,-0.058 -0.076,-0.074c-0.029,-0.015 -0.062,-0.023 -0.1,-0.023c-0.063,0 -0.111,0.019 -0.143,0.058c-0.033,0.038 -0.049,0.095 -0.049,0.171zm0.226,0.344z"/>
 </symbol>
 <symbol id="A">
  <path id="svg_26" d="m0.224,0.89c-0.044,-0.076 -0.076,-0.15 -0.097,-0.223c-0.022,-0.073 -0.032,-0.147 -0.032,-0.222c0,-0.076 0.01,-0.15 0.032,-0.223c0.021,-0.074 0.053,-0.147 0.097,-0.222l-0.078,0c-0.049,0.077 -0.086,0.151 -0.11,0.225s-0.036,0.147 -0.036,0.22c0,0.072 0.012,0.145 0.036,0.219s0.06,0.149 0.11,0.226l0.078,0z"/>
 </symbol>
 <symbol id="B">
  <path id="svg_27" d="m0.469,0.718l0,-0.096c-0.038,0.018 -0.073,0.031 -0.106,0.04c-0.034,0.008 -0.066,0.013 -0.096,0.013c-0.054,0 -0.096,-0.011 -0.125,-0.031c-0.029,-0.021 -0.043,-0.051 -0.043,-0.089c0,-0.032 0.009,-0.057 0.029,-0.073c0.019,-0.017 0.056,-0.03 0.11,-0.04l0.06,-0.012c0.073,-0.014 0.127,-0.039 0.162,-0.074c0.035,-0.036 0.053,-0.083 0.053,-0.142c0,-0.071 -0.024,-0.124 -0.071,-0.16c-0.048,-0.036 -0.117,-0.054 -0.208,-0.054c-0.035,0 -0.072,0.004 -0.111,0.011s-0.079,0.018 -0.12,0.034l0,0.102c0.04,-0.023 0.079,-0.04 0.117,-0.051c0.038,-0.012 0.076,-0.017 0.114,-0.017c0.056,0 0.099,0.011 0.13,0.033c0.03,0.022 0.046,0.053 0.046,0.095c0,0.036 -0.011,0.064 -0.033,0.084s-0.058,0.035 -0.108,0.045l-0.06,0.012c-0.074,0.014 -0.127,0.037 -0.16,0.069c-0.033,0.031 -0.049,0.074 -0.049,0.13c0,0.064 0.022,0.115 0.068,0.152c0.045,0.037 0.108,0.056 0.188,0.056c0.034,0 0.068,-0.003 0.104,-0.009c0.035,-0.006 0.071,-0.016 0.109,-0.028z"/>
 </symbol>
 <symbol id="C">
  <path id="svg_28" d="m0,0.89l0.078,0c0.048,-0.077 0.085,-0.152 0.109,-0.226s0.037,-0.147 0.037,-0.219c0,-0.073 -0.013,-0.146 -0.037,-0.22s-0.061,-0.148 -0.109,-0.225l-0.078,0c0.043,0.075 0.075,0.148 0.097,0.222c0.021,0.073 0.032,0.147 0.032,0.223c0,0.075 -0.011,0.149 -0.032,0.222c-0.022,0.073 -0.054,0.147 -0.097,0.223z"/>
 </symbol>
 <symbol id="D">
  <path id="svg_29" d="m197,648l0,-567l119,0c100,0 174,22 221,68c46,46 70,118 70,216s-24,169 -70,215c-47,45 -121,68 -221,68l-119,0zm-99,81l203,0c141,0 245,-30 311,-88c66,-59 99,-151 99,-276c0,-126 -34,-218 -100,-277s-170,-88 -310,-88l-203,0l0,729z" transform="translate(-.098) scale(.001)"/>
 </symbol>
 <symbol id="E">
  <path id="svg_30" d="m0.399,0.477l0,0.296l0.09,0l0,-0.76l-0.09,0l0,0.082c-0.019,-0.033 -0.043,-0.057 -0.072,-0.072s-0.063,-0.023 -0.103,-0.023c-0.066,0 -0.12,0.026 -0.162,0.078s-0.062,0.122 -0.062,0.208s0.02,0.155 0.062,0.208c0.042,0.052 0.096,0.079 0.162,0.079c0.04,0 0.074,-0.008 0.103,-0.024s0.053,-0.04 0.072,-0.072zm-0.306,-0.191c0,-0.066 0.013,-0.118 0.04,-0.156s0.064,-0.056 0.112,-0.056s0.085,0.018 0.113,0.056c0.027,0.038 0.041,0.09 0.041,0.156s-0.014,0.117 -0.041,0.155c-0.028,0.038 -0.065,0.057 -0.113,0.057s-0.085,-0.019 -0.112,-0.057s-0.04,-0.089 -0.04,-0.155z"/>
 </symbol>
 <g>
  <title>Layer 1</title>
  <path id="svg_31" fill="#fff" d="m0,345.6l460.8,0l0,-345.6l-460.8,0l0,345.6z"/>
  <path id="svg_32" fill="#fff" d="m103.104,307.584l266.112,0l0,-266.112l-266.112,0l0,266.112z"/>
  <path id="svg_33" d="m113.528,307.584l0,3.5" stroke="#000" fill="none" stroke-linejoin="round" stroke-width="0.8"/>
  <use id="svg_34" transform="matrix(10 0 0 -10 111.008 322.308)" xlink:href="#a"/>
  <path id="svg_35" d="m166.28,307.584l0,3.5" stroke="#000" fill="none" stroke-linejoin="round" stroke-width="0.8"/>
  <use id="svg_36" transform="matrix(10 0 0 -10 161.021 322.178)" xlink:href="#b"/>
  <use id="svg_37" transform="matrix(10 0 0 -10 166.941 322.308)" xlink:href="#a"/>
  <path id="svg_38" d="m219.034,307.584l0,3.5" stroke="#000" fill="none" stroke-linejoin="round" stroke-width="0.8"/>
  <use id="svg_39" transform="matrix(10 0 0 -10 213.404 322.178)" xlink:href="#c"/>
  <use id="svg_40" transform="matrix(10 0 0 -10 219.694 322.308)" xlink:href="#a"/>
  <path id="svg_41" d="m271.787,307.584l0,3.5" stroke="#000" fill="none" stroke-linejoin="round" stroke-width="0.8"/>
  <use id="svg_42" transform="matrix(10 0 0 -10 266.187 322.308)" xlink:href="#d"/>
  <use id="svg_43" transform="matrix(10 0 0 -10 272.447 322.308)" xlink:href="#a"/>
  <path id="svg_44" d="m324.54,307.584l0,3.5" stroke="#000" fill="none" stroke-linejoin="round" stroke-width="0.8"/>
  <use id="svg_45" transform="matrix(10 0 0 -10 318.67 322.178)" xlink:href="#e"/>
  <use id="svg_46" transform="matrix(10 0 0 -10 325.2 322.308)" xlink:href="#a"/>
  <use id="svg_47" transform="matrix(10 0 0 -10 215.757 335.85)" xlink:href="#f"/>
  <use id="svg_48" transform="matrix(10 0 0 -10 222.53 335.85)" xlink:href="#g"/>
  <use id="svg_49" transform="matrix(10 0 0 -10 225.28 335.85)" xlink:href="#h"/>
  <use id="svg_50" transform="matrix(10 0 0 -10 234.66 335.98)" xlink:href="#i"/>
  <use id="svg_51" transform="matrix(10 0 0 -10 240.26 335.85)" xlink:href="#j"/>
  <use id="svg_52" transform="matrix(10 0 0 -10 244.3 337.16)" xlink:href="#k"/>
  <use id="svg_53" transform="matrix(10 0 0 -10 247.88 335.98)" xlink:href="#l"/>
  <use id="svg_54" transform="matrix(10 0 0 -10 253.52 337.16)" xlink:href="#m"/>
  <path id="svg_55" d="m103.104,280.327l-3.5,0" stroke="#000" fill="none" stroke-linejoin="round" stroke-width="0.8"/>
  <use id="svg_56" transform="matrix(10 0 0 -10 84.065 284.254)" xlink:href="#n"/>
  <use id="svg_57" transform="matrix(10 0 0 -10 90.405 284.254)" xlink:href="#a"/>
  <path id="svg_58" d="m103.104,233.041l-3.5,0" stroke="#000" fill="none" stroke-linejoin="round" stroke-width="0.8"/>
  <use id="svg_59" transform="matrix(10 0 0 -10 84.015 236.968)" xlink:href="#o"/>
  <use id="svg_60" transform="matrix(10 0 0 -10 90.405 236.968)" xlink:href="#a"/>
  <path id="svg_61" d="m103.104,185.756l-3.5,0" stroke="#000" fill="none" stroke-linejoin="round" stroke-width="0.8"/>
  <use id="svg_62" transform="matrix(10 0 0 -10 78.126 189.553)" xlink:href="#b"/>
  <use id="svg_63" transform="matrix(10 0 0 -10 84.046 189.683)" xlink:href="#a"/>
  <use id="svg_64" transform="matrix(10 0 0 -10 90.406 189.683)" xlink:href="#a"/>
  <path id="svg_65" d="m103.104,138.47l-3.5,0" stroke="#000" fill="none" stroke-linejoin="round" stroke-width="0.8"/>
  <use id="svg_66" transform="matrix(10 0 0 -10 78.126 142.267)" xlink:href="#b"/>
  <use id="svg_67" transform="matrix(10 0 0 -10 84.486 142.267)" xlink:href="#b"/>
  <use id="svg_68" transform="matrix(10 0 0 -10 90.406 142.397)" xlink:href="#a"/>
  <path id="svg_69" d="m103.104,91.184l-3.5,0" stroke="#000" fill="none" stroke-linejoin="round" stroke-width="0.8"/>
  <use id="svg_70" transform="matrix(10 0 0 -10 78.126 94.981)" xlink:href="#b"/>
  <use id="svg_71" transform="matrix(10 0 0 -10 84.116 94.981)" xlink:href="#c"/>
  <use id="svg_72" transform="matrix(10 0 0 -10 90.406 95.111)" xlink:href="#a"/>
  <path id="svg_73" d="m103.104,43.898l-3.5,0" stroke="#000" fill="none" stroke-linejoin="round" stroke-width="0.8"/>
  <use id="svg_74" transform="matrix(10 0 0 -10 78.126 47.695)" xlink:href="#b"/>
  <use id="svg_75" transform="matrix(10 0 0 -10 84.146 47.825)" xlink:href="#d"/>
  <use id="svg_76" transform="matrix(10 0 0 -10 90.406 47.825)" xlink:href="#a"/>
  <use x="0.42683" y="0" id="svg_77" transform="matrix(0 -10 -10 0 71.078 212.171)" xlink:href="#p"/>
  <use x="0.42683" y="0" id="svg_78" transform="matrix(0 -10 -10 0 70.948 203.951)" xlink:href="#q"/>
  <use x="0.42683" y="0" id="svg_79" transform="matrix(0 -10 -10 0 70.948 199.811)" xlink:href="#g"/>
  <use id="svg_81" transform="matrix(0 -10 -10 0 71.078 193.501)" xlink:href="#i"/>
  <use id="svg_82" transform="matrix(0 -10 -10 0 70.948 186.991)" xlink:href="#s"/>
  <use id="svg_83" transform="matrix(0 -10 -10 0 70.948 181.291)" xlink:href="#r"/>
  <use id="svg_84" transform="matrix(0 -10 -10 0 71.078 177.041)" xlink:href="#t"/>
  <use id="svg_85" transform="matrix(0 -10 -10 0 70.948 171.241)" xlink:href="#r"/>
  <use id="svg_86" transform="matrix(0 -10 -10 0 70.948 166.651)" xlink:href="#g"/>
  <use id="svg_87" transform="matrix(0 -10 -10 0 71.078 164.261)" xlink:href="#u"/>
  <use id="svg_88" transform="matrix(0 -10 -10 0 70.948 157.781)" xlink:href="#s"/>
  <use id="svg_89" transform="matrix(0 -10 -10 0 70.948 152.351)" xlink:href="#j"/>
  <use id="svg_90" transform="matrix(0 -10 -10 0 72.258 148.311)" xlink:href="#k"/>
  <use id="svg_91" transform="matrix(0 -10 -10 0 66.628 144.321)" xlink:href="#v"/>
  <use id="svg_92" transform="matrix(0 -10 -10 0 72.258 139.301)" xlink:href="#m"/>
  <g id="svg_93" clip-path="url(#w)">
   <path id="svg_94" d="m115.2,233.036l0.095,0l0.116,0.377l0.2,-0.377l0.1,0l0.333,0.758l0.095,-0.278l0.106,0.436l0.38,-0.51l0.047,0.38l0.332,-0.428l0.085,-0.01l0.105,0.162l0.332,-0.67l0.111,0.16l0.422,-0.434l0.116,-0.135l0.09,0.288l0.105,-0.548l0.111,0.284l0.37,-0.375l0.058,0.27l0.153,-0.122l0.137,-0.237l0.11,0.134l0.222,-0.232l0.222,0.016l0.116,-0.232l0.079,0.127l0.232,-0.103l0.095,-0.345l0.1,0.244l0.317,-0.321l0.116,0.122l0.2,-0.321l0.106,0.121l0.2,-0.205l0.216,-0.091l0.306,-0.298l0.327,-0.399l0.75,-0.656l0.11,0.22l0.217,-0.286l0.09,0.113l0.21,-0.286l0.153,0.215l0.069,-0.193l0.285,-0.071l0.11,-0.092l0.117,0.21l0.205,-0.082l0.111,0.009l0.132,0.205l0.095,-0.192l0.105,0.206l0.206,-0.087l0.185,0.111l0.242,0.108l0.19,0.01l0.217,0.205l0.226,0.007l0.217,0.202l0.084,-0.094l0.106,0.294l0.116,-0.19l0.205,0.295l0.122,-0.094l0.506,0.3l0.116,-0.094l0.211,0.196l0.137,-0.093l0.29,0.292l0.08,-0.093l0.116,0.097l0.121,-0.094l0.1,0.192l0.85,0.106l0.105,0.19l0.095,-0.093l0.3,0.192l0.101,0l0.11,0.19l0.112,-0.093l0.142,0.189l0.069,-0.094l0.685,0.474l0.053,0l0.333,0.377l0.079,-0.094l0.237,0.188l0.148,0.188l0.037,-0.094l0.158,0l0.338,0.375l0.147,0l0.143,0.188l0.079,-0.094l0.3,0.187l0.106,0l0.359,0.373l0.132,0l0.058,0.187l0.084,-0.093l0.116,0.186l0.11,-0.093l0.217,0.186l0.195,0.092l0.111,0.093l0.106,-0.093l0.485,0.371l0.417,0.092l0.058,0.279l0.084,-0.093l0.449,0.37l0.084,-0.093l0.216,0.185l0.111,-0.093l0.206,0.279l0.227,-0.093l0.079,0.278l0.1,-0.185l0.11,0.184l0.175,-0.092l0.253,0.186l0.106,0.092l0.116,-0.093l0.105,0.186l0.09,-0.094l0.316,0.186l0.122,-0.093l0.1,0.185l0.09,-0.093l0.21,0.185l0.117,-0.093l0.216,0.093l0.195,-0.001l0.137,0.186l0.1,-0.186l0.301,0.185l0.311,0l0.1,0.185l0.127,-0.185l0.09,0.184l0.116,-0.185l0.09,0.278l0.132,-0.187l0.116,0.186l0.09,-0.186l0.094,0.184l0.2,-0.093l0.106,0.093l0.122,-0.091l0.332,0.184l0.95,-0.002l0.137,0.184l0.058,-0.092l0.105,-0.092l0.11,0.093l0.101,-0.093l0.153,0.185l0.069,-0.186l0.116,0.094l0.132,-0.185l0.052,0.185l0.111,-0.184l0.211,0.185l0.106,-0.185l0.21,0.092l0.75,-0.094l0.132,-0.093l0.174,0.186l0.227,-0.185l0.095,0.184l0.195,-0.185l0.158,0.092l0.074,-0.185l0.095,0.185l0.11,-0.092l0.106,0.093l0.417,-0.185l0.248,0.092l0.068,-0.092l0.127,0.092l0.18,-0.093l0.142,-0.093l0.184,0.093l0.538,-0.089l0.196,-0.092l0.058,0.186l0.074,-0.093l0.084,-0.092l0.211,0.093l0.359,-0.186l0.168,0.093l0.301,-0.093l0.137,0.185l0.095,-0.186l0.1,0.094l0.196,-0.093l0.232,0.093l0.206,-0.186l0.47,0.185l0.057,-0.184l0.09,0.091l0.137,-0.092l0.116,0.185l0.121,-0.185l0.116,0.092l0.074,-0.092l0.195,0.092l0.132,-0.092l0.08,0.093l0.12,-0.093l0.106,0.093l0.085,-0.184l0.242,0.095l0.111,-0.093l0.185,0.092l0.195,-0.093l0.11,0.093l0.117,-0.092l0.2,0.093l0.211,-0.093l1.894,0.092l0.116,0.094l0.11,-0.186l0.106,0.092l0.074,-0.185l0.106,0.185l0.132,0l0.11,-0.186l0.217,0.094l0.57,-0.093l0.057,-0.093l0.19,0.093l1.815,0.094l0.085,0.094l0.337,-0.186l0.238,0.186l0.174,-0.093l0.57,0.093l0.152,0.094l0.317,-0.187l0.105,0.093l0.106,-0.092l0.116,0.094l0.105,-0.186l0.122,0.186l0.11,-0.186l0.127,0.186l0.08,-0.186l0.205,0.093l4.658,0.008l0.074,0.185l0.216,-0.184l0.222,0.093l0.939,-0.094l0.148,-0.188l0.094,0.186l0.074,-0.092l0.106,0.001l0.105,0.187l0.106,-0.185l0.216,0.093l0.127,-0.093l0.084,0.094l0.211,-0.095l2.21,-0.003l0.111,0.185l0.2,-0.187l3.81,0.096l0.11,0.093l0.217,-0.094l5.998,-0.006l0.142,0.185l0.195,-0.092l0.085,0.093l0.216,-0.094l0.1,0.093l0.11,-0.094l0.101,0.094l0.216,-0.093l7.265,0l0.126,-0.186l0.206,0.093l0.533,-0.094l0.1,0.279l0.095,-0.187l0.216,0.093l2.316,0.005l0.121,0.186l0.09,-0.185l0.116,0.095l0.248,-0.185l0.174,0.184l0.127,-0.185l3.95,-0.001l0.059,0.094l0.517,0l0.11,-0.187l0.075,0.093l0.242,-0.093l0.074,0.092l0.232,-0.187l0.111,0.187l0.132,-0.186l0.184,0.186l0.117,-0.188l0.094,0.094l0.111,-0.094l0.08,0.186l0.105,-0.186l0.116,0.186l0.206,-0.187l0.221,0.187l2.638,-0.093l0.105,0.186l0.206,-0.091l0.116,0.184l0.2,-0.092l0.106,0.092l0.127,-0.184l0.116,0.187l0.079,-0.092l0.148,0.095l0.121,-0.093l0.116,0.185l0.121,-0.187l1.177,-0.002l0.121,-0.186l0.09,0.185l0.21,-0.094l0.982,0.093l0.069,0.187l0.221,-0.278l0.206,0.092l0.137,-0.093l0.227,0.094l0.058,-0.094l0.322,0.187l0.221,-0.184l0.08,0.187l0.21,-0.094l0.127,0.186l0.142,-0.278l0.048,0.093l0.137,0.092l0.106,-0.094l0.084,0.092l0.206,-0.091l0.1,0.093l0.227,-0.095l0.153,0.094l0.074,-0.091l0.079,0.093l0.11,-0.092l0.122,0.093l0.21,-0.095l0.08,0.092l0.106,-0.093l0.221,0.096l0.106,-0.093l0.153,0.094l0.105,-0.187l0.069,0.186l0.216,-0.187l0.195,0.092l0.164,-0.093l0.063,0.092l0.2,-0.094l0.122,0.094l0.068,-0.188l0.1,0.186l0.111,-0.092l0.232,0.095l2.891,0.004l0.058,-0.188l0.106,0.187l0.09,-0.187l0.158,0.185l0.163,-0.186l0.116,0.094l0.095,-0.093l0.222,0.089l1.577,0.003l0.095,-0.093l0.185,0.187l0.053,-0.093l0.131,0.092l0.059,-0.186l0.126,0.185l0.09,-0.093l0.116,0.088l0.1,-0.092l0.327,0.103l0.106,-0.093l0.1,0.091l0.11,-0.093l0.111,0.094l0.08,-0.189l0.116,0.187l0.116,-0.188l0.1,0.187l0.2,-0.188l0.111,0.092l0.11,-0.185l1.035,-0.002l0.116,-0.186l0.105,0.185l0.317,-0.094l2.115,0l0.106,0.186l0.163,-0.187l0.058,0.186l0.296,-0.092l0.221,0.092l0.955,-0.001l0.106,-0.186l0.116,0.185l0.21,-0.093l1.156,0.091l0.106,0.094l0.116,-0.186l0.295,0.092l0.153,0.088l0.137,-0.09l0.132,0.19l0.839,0.006l0.11,-0.094l0.106,0.093l0.222,-0.188l0.132,0.093l0.168,-0.185l0.29,0.092l0.813,-0.093l0.443,4.838l0.243,1.77l0.153,0.463l0.174,0.093l0.121,-0.098l0.243,-0.845l0.253,-0.768l0.812,-5.956l0.517,-4.566l0.533,-3.35l3.366,-38.394l0.601,-9.33l0.443,-6.465l1.03,-19.013l0.574,-16.636l0.981,-30.771l0.549,-14.185l1.572,-24.707l0.918,-7.78l0.459,-2.656l0.438,-1.435l0.627,-0.927l0.127,0.019l0.084,0.125l0.122,-0.087l0.306,0.56l0.717,1.78l0.422,0.547l0.116,0.281l0.338,-3.11l0.295,-1.27l0.111,-0.383l0.248,0.417l0.39,1.65l1.03,10.043l0.442,5.312l0.422,5.689l0.216,2.997l0.417,6.038l2.052,28.143l0.254,4.993l1.229,19.772l0.459,10.923l0.585,11.385l0.27,7.126l4.547,107.178l0.527,14.625l0.422,5.387l0.211,0.242l0.206,-1.31l0.227,-1.911l0.933,-10.717l0.739,-6.156l0.528,-3.297l0.253,-1.626l0.274,-2.326l0.306,-2.525l0.844,-8.506l0.343,-4.05l2.084,-54.078l1.582,-25.416l0.734,-4.298l0.437,-0.986l0.227,0.336l0.348,1.411l0.285,1.247l0.085,0.168l0.205,0.634l0.517,1.717l0.111,0.164l0.238,0.6l0.284,0.737l0.702,1.212l0.164,0.66l0.19,0.598l0.659,3.247l0.2,1.525l0.333,2.646l0.654,6.343l0.058,1.386l0.169,1.185l0.163,2.749l0.654,8.026l0.39,5.654l2.216,27.902l0.422,4.75l0.85,8.556l0.232,1.67l0.39,3.408l0.538,3.68l0.317,1.529l0.728,1.08l0.227,-0.136l0.306,-0.128l0.86,-0.698l0.19,0.16l0.115,0.092l0.111,-0.091l0.354,0.364l0.068,0.007l0.243,0.273l0.084,-0.007l0.211,0.288l0.401,0.265l0.127,-0.09l0.206,0.075l0.437,-0.258l0.175,-0.364l0.126,-0.007l0.412,-0.925l0.12,-0.182l0.46,-1.29l0.364,-1.269l0.322,-1.1l0.179,-0.196l0.343,-1.563l0.707,-2.025l0.237,-1.086l1.683,-4.759l0.338,-0.817l0.084,-0.36l0.127,-0.007l0.21,-0.727l0.217,-0.18l0.29,-0.886l0.807,-1.23l0.164,-0.362l0.105,-0.086l0.422,-0.64l0.1,0.095l0.217,-0.368l0.1,-0.005l0.216,-0.276l0.106,0.003l0.09,-0.19l0.12,0.006l0.106,-0.281l0.095,0.184l0.206,-0.193l0.332,-0.28l0.106,0.091l0.311,-0.188l0.116,0.177l0.11,-0.277l0.196,0.273l0.185,-0.181l0.148,0.085l0.416,0.087l0.195,0.09l0.148,0.001l0.19,0.184l0.623,0.66l0.105,0l0.2,0.286l0.217,0.097l0.1,0.189l0.11,-0.092l0.328,0.465l0.116,-0.095l0.19,0.282l0.216,0.192l0.77,0.561l0.174,0.27l1.688,1.494l0.09,0.18l0.227,0.093l0.411,0.36l0.111,0.192l0.122,-0.092l0.216,0.291l0.126,0l0.1,0.276l0.185,0.093l1.076,0.83l0.08,0.175l0.116,-0.088l0.216,0.18l0.084,0l0.232,0.297l0.117,0.1l0.079,-0.092l0.137,0.277l0.11,-0.1l0.17,0.092l0.332,0.08l0.216,0.192l0.127,-0.1l0.079,0.091l0.432,0.084l0.08,0.092l0.116,-0.096l0.11,0.188l0.132,-0.092l0.19,0.092l0.296,0.088l0.126,0.096l0.08,-0.192l0.226,0.28l0.11,0l0.096,-0.184l0.132,0.28l0.169,-0.096l0.226,0.092l0.111,-0.088l0.206,0.009l0.058,0.188l0.058,-0.184l0.306,0.184l0.11,-0.092l0.254,0.092l0.08,-0.096l0.073,0.184l0.116,-0.188l0.105,0.096l0.095,-0.184l0.233,0.184l0.205,0.009l0.122,-0.184l0.19,0.083l0.933,0.004l0.116,-0.087l0.111,0.092l0.106,-0.08l0.21,0.097l0.227,-0.184l0.185,0.1l0.222,-0.091l0.11,0.092l0.111,-0.097l0.085,0.101l0.337,-0.189l0.137,0.088l0.174,-0.184l0.206,0.096l0.111,-0.184l0.248,0.096l0.18,-0.096l0.078,-0.005l0.132,-0.184l0.08,0.189l0.115,-0.097l0.175,0.088l0.263,-0.172l2.939,-0.084l0.21,-0.184l0.222,0.096l0.628,0.009l0.216,-0.097l0.1,0.084l0.217,-0.084l1.05,-0.076l0.105,-0.096l0.2,0.092l1.103,-0.004l0.085,0.189l0.09,-0.19l0.305,0.198l0.143,-0.18l0.163,0.084l0.074,-0.093l0.047,0.185l0.2,-0.172l0.46,0.273l0.079,-0.185l0.127,0.185l0.184,-0.097l0.106,0.084l0.11,-0.185l0.117,0.093l0.12,-0.097l0.08,0.097l0.132,-0.101l0.195,0.18l0.11,-0.18l0.217,0.176l0.074,-0.088l0.227,0.11l0.786,0.017l0.047,-0.089l0.116,0.185l1.071,-0.075l0.132,0.177l0.232,-0.182l0.053,0.08l0.195,-0.088l0.122,0.278l0.216,-0.194l2.194,0.088l0.106,0.093l0.116,-0.093l0.222,0.093l1.471,0.008l0.143,-0.096l0.153,0.269l0.105,-0.173l0.238,0.097l0.074,-0.097l0.158,0.093l0.269,-0.084l0.147,0.19l0.064,-0.19l0.126,0.093l0.09,-0.097l0.211,0.088l0.106,-0.088l0.21,0.088l0.117,-0.181l0.2,0.185l0.169,-0.092l0.153,0.185l0.206,-0.075l0.116,0.287l0.158,-0.283l0.047,0.185l0.306,-0.101l1.177,-0.093l0.105,-0.092l0.454,0.18l0.084,-0.092l0.085,0.088l1.487,-0.004l0.111,0.278l0.085,-0.186l0.1,0.089l0.169,-0.093l0.052,0.185l0.106,-0.18l0.311,0.202l0.227,-0.083l0.306,0.092l0.222,-0.097l0.1,0.088l0.311,-0.18l0.216,0.264l0.1,-0.18l0.117,0.087l0.216,-0.092l0.311,0.19l0.1,-0.181l0.095,0.092l0.122,-0.092l0.09,0.088l0.1,-0.097l0.116,0.097l0.11,-0.093l0.227,0.097l0.2,-0.092l0.096,0.097l0.11,-0.19l0.116,0.185l0.09,-0.088l0.232,0.097l1.266,-0.013l0.185,0.176l0.121,-0.088l0.2,0.097l0.096,-0.097l0.121,0.19l0.311,-0.168l0.217,0.177l0.242,-0.084l0.074,-0.004l0.1,0.106l0.227,-0.097l1.055,-0.005l0.132,0.19l0.11,-0.194l0.096,0.097l0.074,-0.102l0.316,0.185l0.111,-0.176l0.222,0.102l0.295,0" stroke="teal" fill="none" stroke-linejoin="round" stroke-linecap="square" stroke-width="2.5"/>
  </g>
  <g id="svg_95" clip-path="url(#x)">
   <path id="svg_96" d="m115.2,235.739l13.758,0.137l6.715,0.06l97.768,0.272l0.052,-130.838l17.166,0l0.222,135.956l2.231,1.454l0.496,0.348l1.614,0.985l0.507,0.301l4.02,1.75l0.422,0.03l3.576,0l0.111,-126.638l5.919,0l0.105,126.558l0.09,-0.002l1.588,0.07l1.725,0.307l1.762,0.5l5.365,1.53l4.658,0.566l2.864,-0.054l6.573,-0.181l4.279,0.11l17.419,0.693l11.42,0.315l29.495,1.068" stroke="red" fill="none" stroke-linejoin="round" stroke-dasharray="9.25,4" stroke-width="2.5"/>
  </g>
  <path id="svg_97" d="m103.104,307.584l0,-266.112m266.112,266.112l0,-266.112m-266.112,266.112l266.112,0m-266.112,-266.112l266.112,0" stroke="#000" fill="none" stroke-miterlimit="10" stroke-linecap="square" stroke-width="0.8"/>
  <path id="svg_98" fill-opacity="0.8" fill="#fff" d="m110.104,302.584l153.36,0c1.333,0 2,-0.667 2,-2l0,-28.344c0,-1.333 -0.667,-2 -2,-2l-153.36,0c-1.333,0 -2,0.667 -2,2l0,28.344c0,1.333 0.667,2 2,2z"/>
  <path id="svg_99" d="m110.104,302.584l153.36,0c1.333,0 2,-0.667 2,-2l0,-28.344c0,-1.333 -0.667,-2 -2,-2l-153.36,0c-1.333,0 -2,0.667 -2,2l0,28.344c0,1.333 0.667,2 2,2z" stroke-opacity="0.8" stroke="#d5d6d5" fill="none" stroke-miterlimit="10"/>
  <path id="svg_100" d="m112.104,278.334l20,0" stroke="teal" fill="none" stroke-linejoin="round" stroke-linecap="square" stroke-width="2.5"/>
  <use id="svg_101" transform="matrix(10 0 0 -10 140.664 281.964)" xlink:href="#y"/>
  <use id="svg_102" transform="matrix(10 0 0 -10 147.934 281.964)" xlink:href="#z"/>
  <use id="svg_103" transform="matrix(10 0 0 -10 154.334 281.834)" xlink:href="#q"/>
  <use id="svg_104" transform="matrix(10 0 0 -10 158.272 281.834)" xlink:href="#q"/>
  <use id="svg_105" transform="matrix(10 0 0 -10 161.803 281.964)" xlink:href="#i"/>
  <use id="svg_106" transform="matrix(10 0 0 -10 168.313 281.834)" xlink:href="#s"/>
  <use id="svg_107" transform="matrix(10 0 0 -10 174.013 281.834)" xlink:href="#r"/>
  <use id="svg_108" transform="matrix(10 0 0 -10 177.663 281.834)" xlink:href="#j"/>
  <use id="svg_109" transform="matrix(10 0 0 -10 181.393 281.964)" xlink:href="#u"/>
  <use id="svg_110" transform="matrix(10 0 0 -10 187.873 281.834)" xlink:href="#q"/>
  <use id="svg_111" transform="matrix(10 0 0 -10 192.013 281.834)" xlink:href="#g"/>
  <use id="svg_112" transform="matrix(10 0 0 -10 194.403 281.964)" xlink:href="#i"/>
  <use id="svg_113" transform="matrix(10 0 0 -10 200.913 281.834)" xlink:href="#s"/>
  <use id="svg_114" transform="matrix(10 0 0 -10 206.613 281.834)" xlink:href="#r"/>
  <use id="svg_115" transform="matrix(10 0 0 -10 210.863 281.964)" xlink:href="#t"/>
  <use id="svg_116" transform="matrix(10 0 0 -10 216.663 281.834)" xlink:href="#r"/>
  <use id="svg_117" transform="matrix(10 0 0 -10 221.253 281.834)" xlink:href="#g"/>
  <use id="svg_118" transform="matrix(10 0 0 -10 223.643 281.964)" xlink:href="#u"/>
  <use id="svg_119" transform="matrix(10 0 0 -10 230.123 281.834)" xlink:href="#s"/>
  <use id="svg_120" transform="matrix(10 0 0 -10 235.553 281.834)" xlink:href="#j"/>
  <use id="svg_121" transform="matrix(10 0 0 -10 239.593 283.144)" xlink:href="#A"/>
  <use id="svg_122" transform="matrix(10 0 0 -10 243.193 281.964)" xlink:href="#p"/>
  <use id="svg_123" transform="matrix(10 0 0 -10 251.163 281.964)" xlink:href="#B"/>
  <use id="svg_124" transform="matrix(10 0 0 -10 257.653 283.144)" xlink:href="#C"/>
  <path id="svg_125" d="m112.104,293.006l20,0" stroke="red" fill="none" stroke-linejoin="round" stroke-dasharray="9.25,4" stroke-width="2.5"/>
  <use id="svg_126" transform="matrix(10 0 0 -10 141.084 296.506)" xlink:href="#D"/>
  <use id="svg_127" transform="matrix(10 0 0 -10 148.354 296.636)" xlink:href="#i"/>
  <use id="svg_128" transform="matrix(10 0 0 -10 154.494 296.636)" xlink:href="#l"/>
  <use id="svg_129" transform="matrix(10 0 0 -10 160.104 296.506)" xlink:href="#g"/>
  <use id="svg_130" transform="matrix(10 0 0 -10 162.854 296.506)" xlink:href="#q"/>
  <use id="svg_131" transform="matrix(10 0 0 -10 166.385 296.636)" xlink:href="#i"/>
  <use id="svg_132" transform="matrix(10 0 0 -10 172.535 296.636)" xlink:href="#E"/>
  <use id="svg_133" transform="matrix(10 0 0 -10 178.335 296.506)" xlink:href="#j"/>
  <use id="svg_134" transform="matrix(10 0 0 -10 182.065 296.636)" xlink:href="#u"/>
  <use id="svg_135" transform="matrix(10 0 0 -10 188.545 296.506)" xlink:href="#q"/>
  <use id="svg_136" transform="matrix(10 0 0 -10 192.685 296.506)" xlink:href="#g"/>
  <use id="svg_137" transform="matrix(10 0 0 -10 195.075 296.636)" xlink:href="#i"/>
  <use id="svg_138" transform="matrix(10 0 0 -10 201.585 296.506)" xlink:href="#s"/>
  <use id="svg_139" transform="matrix(10 0 0 -10 207.285 296.506)" xlink:href="#r"/>
  <use id="svg_140" transform="matrix(10 0 0 -10 211.535 296.636)" xlink:href="#t"/>
  <use id="svg_141" transform="matrix(10 0 0 -10 217.335 296.506)" xlink:href="#r"/>
  <use id="svg_142" transform="matrix(10 0 0 -10 221.925 296.506)" xlink:href="#g"/>
  <use id="svg_143" transform="matrix(10 0 0 -10 224.315 296.636)" xlink:href="#u"/>
  <use id="svg_144" transform="matrix(10 0 0 -10 230.795 296.506)" xlink:href="#s"/>
  <use id="svg_145" transform="matrix(10 0 0 -10 236.225 296.506)" xlink:href="#j"/>
  <use id="svg_146" transform="matrix(10 0 0 -10 240.265 297.816)" xlink:href="#A"/>
  <use id="svg_147" transform="matrix(10 0 0 -10 243.865 296.636)" xlink:href="#p"/>
  <use id="svg_148" transform="matrix(10 0 0 -10 251.835 296.636)" xlink:href="#B"/>
  <use id="svg_149" transform="matrix(10 0 0 -10 258.325 297.816)" xlink:href="#C"/>
 </g>
</svg>