<?xml version="1.0" encoding="UTF-8"?>
<svg xmlns="http://www.w3.org/2000/svg" xmlns:xlink="http://www.w3.org/1999/xlink" width="500px" height="px" viewBox="0 0 499 375" version="1.1">
<g id="surface1">
<path style=" stroke:none;fill-rule:nonzero;fill:rgb(100%,100%,100%);fill-opacity:1;" d="M 0 374.835938 L 499.324219 374.835938 L 499.324219 0 L 0 0 Z M 0 374.835938 "/>
<path style=" stroke:none;fill-rule:nonzero;fill:rgb(100%,100%,100%);fill-opacity:1;" d="M 111.722656 333.605469 L 400.085938 333.605469 L 400.085938 44.980469 L 111.722656 44.980469 Z M 111.722656 333.605469 "/>
<path style="fill:none;stroke-width:0.8;stroke-linecap:butt;stroke-linejoin:round;stroke:rgb(0%,0%,0%);stroke-opacity:1;stroke-miterlimit:4;" d="M 113.697473 307.584242 L 113.697473 311.084961 " transform="matrix(1.083605,0,0,1.084599,0,0)"/>
<path style=" stroke:none;fill-rule:nonzero;fill:rgb(0%,0%,0%);fill-opacity:1;" d="M 123.203125 342.230469 C 122.652344 342.230469 122.242188 342.503906 121.957031 343.046875 C 121.675781 343.585938 121.546875 344.402344 121.546875 345.484375 C 121.546875 346.570312 121.675781 347.382812 121.957031 347.925781 C 122.242188 348.46875 122.652344 348.738281 123.203125 348.738281 C 123.757812 348.738281 124.167969 348.46875 124.449219 347.925781 C 124.722656 347.382812 124.863281 346.570312 124.863281 345.484375 C 124.863281 344.402344 124.722656 343.585938 124.449219 343.046875 C 124.167969 342.503906 123.757812 342.230469 123.203125 342.230469 Z M 123.203125 341.386719 C 124.082031 341.386719 124.753906 341.742188 125.230469 342.4375 C 125.695312 343.144531 125.933594 344.164062 125.933594 345.484375 C 125.933594 346.820312 125.695312 347.839844 125.230469 348.535156 C 124.753906 349.226562 124.082031 349.574219 123.195312 349.574219 C 122.304688 349.574219 121.632812 349.226562 121.167969 348.535156 C 120.703125 347.839844 120.472656 346.820312 120.472656 345.484375 C 120.472656 344.164062 120.703125 343.144531 121.167969 342.4375 C 121.632812 341.742188 122.316406 341.386719 123.203125 341.386719 Z M 123.203125 341.386719 "/>
<path style="fill:none;stroke-width:0.8;stroke-linecap:butt;stroke-linejoin:round;stroke:rgb(0%,0%,0%);stroke-opacity:1;stroke-miterlimit:4;" d="M 160.474214 307.584242 L 160.474214 311.084961 " transform="matrix(1.083605,0,0,1.084599,0,0)"/>
<path style=" stroke:none;fill-rule:nonzero;fill:rgb(0%,0%,0%);fill-opacity:1;" d="M 168.34375 348.535156 L 170.089844 348.535156 L 170.089844 342.503906 L 168.191406 342.882812 L 168.191406 341.90625 L 170.078125 341.527344 L 171.148438 341.527344 L 171.148438 348.535156 L 172.894531 348.535156 L 172.894531 349.433594 L 168.34375 349.433594 Z M 168.34375 348.535156 "/>
<path style=" stroke:none;fill-rule:nonzero;fill:rgb(0%,0%,0%);fill-opacity:1;" d="M 177.335938 342.230469 C 176.785156 342.230469 176.371094 342.503906 176.089844 343.046875 C 175.808594 343.585938 175.679688 344.402344 175.679688 345.484375 C 175.679688 346.570312 175.808594 347.382812 176.089844 347.925781 C 176.371094 348.46875 176.785156 348.738281 177.335938 348.738281 C 177.890625 348.738281 178.300781 348.46875 178.582031 347.925781 C 178.855469 347.382812 178.996094 346.570312 178.996094 345.484375 C 178.996094 344.402344 178.855469 343.585938 178.582031 343.046875 C 178.300781 342.503906 177.890625 342.230469 177.335938 342.230469 Z M 177.335938 341.386719 C 178.214844 341.386719 178.886719 341.742188 179.363281 342.4375 C 179.828125 343.144531 180.066406 344.164062 180.066406 345.484375 C 180.066406 346.820312 179.828125 347.839844 179.363281 348.535156 C 178.886719 349.226562 178.214844 349.574219 177.328125 349.574219 C 176.4375 349.574219 175.765625 349.226562 175.300781 348.535156 C 174.835938 347.839844 174.605469 346.820312 174.605469 345.484375 C 174.605469 344.164062 174.835938 343.144531 175.300781 342.4375 C 175.765625 341.742188 176.449219 341.386719 177.335938 341.386719 Z M 177.335938 341.386719 "/>
<path style="fill:none;stroke-width:0.8;stroke-linecap:butt;stroke-linejoin:round;stroke:rgb(0%,0%,0%);stroke-opacity:1;stroke-miterlimit:4;" d="M 207.250955 307.584242 L 207.250955 311.084961 " transform="matrix(1.083605,0,0,1.084599,0,0)"/>
<path style=" stroke:none;fill-rule:nonzero;fill:rgb(0%,0%,0%);fill-opacity:1;" d="M 219.765625 348.535156 L 223.492188 348.535156 L 223.492188 349.433594 L 218.476562 349.433594 L 218.476562 348.535156 C 218.878906 348.121094 219.429688 347.558594 220.132812 346.839844 C 220.828125 346.136719 221.273438 345.679688 221.457031 345.476562 C 221.804688 345.09375 222.042969 344.769531 222.171875 344.5 C 222.300781 344.238281 222.378906 343.96875 222.378906 343.707031 C 222.378906 343.296875 222.226562 342.949219 221.933594 342.6875 C 221.640625 342.425781 221.261719 342.285156 220.785156 342.285156 C 220.449219 342.285156 220.089844 342.351562 219.722656 342.460938 C 219.355469 342.578125 218.953125 342.753906 218.53125 342.992188 L 218.53125 341.90625 C 218.964844 341.734375 219.363281 341.601562 219.734375 341.515625 C 220.101562 341.429688 220.449219 341.386719 220.761719 341.386719 C 221.574219 341.386719 222.226562 341.59375 222.714844 342.003906 C 223.199219 342.417969 223.449219 342.957031 223.449219 343.640625 C 223.449219 343.96875 223.386719 344.28125 223.265625 344.5625 C 223.148438 344.855469 222.929688 345.203125 222.605469 345.59375 C 222.519531 345.703125 222.238281 345.996094 221.757812 346.484375 C 221.28125 346.972656 220.621094 347.65625 219.765625 348.535156 Z M 219.765625 348.535156 "/>
<path style=" stroke:none;fill-rule:nonzero;fill:rgb(0%,0%,0%);fill-opacity:1;" d="M 228.023438 342.230469 C 227.46875 342.230469 227.058594 342.503906 226.777344 343.046875 C 226.496094 343.585938 226.363281 344.402344 226.363281 345.484375 C 226.363281 346.570312 226.496094 347.382812 226.777344 347.925781 C 227.058594 348.46875 227.46875 348.738281 228.023438 348.738281 C 228.574219 348.738281 228.988281 348.46875 229.269531 347.925781 C 229.539062 347.382812 229.679688 346.570312 229.679688 345.484375 C 229.679688 344.402344 229.539062 343.585938 229.269531 343.046875 C 228.988281 342.503906 228.574219 342.230469 228.023438 342.230469 Z M 228.023438 341.386719 C 228.902344 341.386719 229.574219 341.742188 230.050781 342.4375 C 230.515625 343.144531 230.753906 344.164062 230.753906 345.484375 C 230.753906 346.820312 230.515625 347.839844 230.050781 348.535156 C 229.574219 349.226562 228.902344 349.574219 228.011719 349.574219 C 227.125 349.574219 226.453125 349.226562 225.984375 348.535156 C 225.519531 347.839844 225.292969 346.820312 225.292969 345.484375 C 225.292969 344.164062 225.519531 343.144531 225.984375 342.4375 C 226.453125 341.742188 227.132812 341.386719 228.023438 341.386719 Z M 228.023438 341.386719 "/>
<path style="fill:none;stroke-width:0.8;stroke-linecap:butt;stroke-linejoin:round;stroke:rgb(0%,0%,0%);stroke-opacity:1;stroke-miterlimit:4;" d="M 254.027696 307.584242 L 254.027696 311.084961 " transform="matrix(1.083605,0,0,1.084599,0,0)"/>
<path style=" stroke:none;fill-rule:nonzero;fill:rgb(0%,0%,0%);fill-opacity:1;" d="M 272.773438 345.171875 C 273.28125 345.28125 273.683594 345.507812 273.964844 345.855469 C 274.246094 346.203125 274.398438 346.636719 274.398438 347.132812 C 274.398438 347.914062 274.128906 348.523438 273.597656 348.945312 C 273.054688 349.367188 272.296875 349.574219 271.308594 349.574219 C 270.972656 349.574219 270.628906 349.542969 270.28125 349.476562 C 269.933594 349.421875 269.566406 349.324219 269.195312 349.195312 L 269.195312 348.164062 C 269.488281 348.339844 269.8125 348.46875 270.171875 348.554688 C 270.519531 348.640625 270.886719 348.683594 271.277344 348.683594 C 271.949219 348.683594 272.457031 348.554688 272.804688 348.296875 C 273.152344 348.035156 273.335938 347.644531 273.335938 347.132812 C 273.335938 346.679688 273.171875 346.308594 272.847656 346.050781 C 272.523438 345.789062 272.066406 345.648438 271.484375 345.648438 L 270.5625 345.648438 L 270.5625 344.769531 L 271.527344 344.769531 C 272.046875 344.769531 272.449219 344.671875 272.730469 344.457031 C 273.011719 344.25 273.152344 343.945312 273.152344 343.542969 C 273.152344 343.144531 273 342.828125 272.71875 342.613281 C 272.425781 342.394531 272.015625 342.285156 271.484375 342.285156 C 271.191406 342.285156 270.875 342.320312 270.539062 342.382812 C 270.203125 342.449219 269.835938 342.546875 269.433594 342.675781 L 269.433594 341.722656 C 269.835938 341.613281 270.214844 341.527344 270.574219 341.472656 C 270.917969 341.417969 271.253906 341.386719 271.582031 341.386719 C 272.382812 341.386719 273.023438 341.570312 273.5 341.9375 C 273.976562 342.308594 274.214844 342.808594 274.214844 343.4375 C 274.214844 343.871094 274.082031 344.238281 273.835938 344.542969 C 273.585938 344.847656 273.226562 345.0625 272.773438 345.171875 Z M 272.773438 345.171875 "/>
<path style=" stroke:none;fill-rule:nonzero;fill:rgb(0%,0%,0%);fill-opacity:1;" d="M 278.710938 342.230469 C 278.15625 342.230469 277.746094 342.503906 277.464844 343.046875 C 277.183594 343.585938 277.054688 344.402344 277.054688 345.484375 C 277.054688 346.570312 277.183594 347.382812 277.464844 347.925781 C 277.746094 348.46875 278.15625 348.738281 278.710938 348.738281 C 279.261719 348.738281 279.675781 348.46875 279.957031 347.925781 C 280.226562 347.382812 280.367188 346.570312 280.367188 345.484375 C 280.367188 344.402344 280.226562 343.585938 279.957031 343.046875 C 279.675781 342.503906 279.261719 342.230469 278.710938 342.230469 Z M 278.710938 341.386719 C 279.589844 341.386719 280.261719 341.742188 280.738281 342.4375 C 281.203125 343.144531 281.441406 344.164062 281.441406 345.484375 C 281.441406 346.820312 281.203125 347.839844 280.738281 348.535156 C 280.261719 349.226562 279.589844 349.574219 278.699219 349.574219 C 277.8125 349.574219 277.140625 349.226562 276.671875 348.535156 C 276.207031 347.839844 275.980469 346.820312 275.980469 345.484375 C 275.980469 344.164062 276.207031 343.144531 276.671875 342.4375 C 277.140625 341.742188 277.820312 341.386719 278.710938 341.386719 Z M 278.710938 341.386719 "/>
<path style="fill:none;stroke-width:0.8;stroke-linecap:butt;stroke-linejoin:round;stroke:rgb(0%,0%,0%);stroke-opacity:1;stroke-miterlimit:4;" d="M 300.800832 307.584242 L 300.800832 311.084961 " transform="matrix(1.083605,0,0,1.084599,0,0)"/>
<path style=" stroke:none;fill-rule:nonzero;fill:rgb(0%,0%,0%);fill-opacity:1;" d="M 323.15625 342.460938 L 320.457031 346.679688 L 323.15625 346.679688 Z M 322.875 341.527344 L 324.21875 341.527344 L 324.21875 346.679688 L 325.34375 346.679688 L 325.34375 347.566406 L 324.21875 347.566406 L 324.21875 349.433594 L 323.15625 349.433594 L 323.15625 347.566406 L 319.589844 347.566406 L 319.589844 346.539062 Z M 322.875 341.527344 "/>
<path style=" stroke:none;fill-rule:nonzero;fill:rgb(0%,0%,0%);fill-opacity:1;" d="M 329.394531 342.230469 C 328.84375 342.230469 328.433594 342.503906 328.148438 343.046875 C 327.867188 343.585938 327.738281 344.402344 327.738281 345.484375 C 327.738281 346.570312 327.867188 347.382812 328.148438 347.925781 C 328.433594 348.46875 328.84375 348.738281 329.394531 348.738281 C 329.949219 348.738281 330.359375 348.46875 330.640625 347.925781 C 330.914062 347.382812 331.054688 346.570312 331.054688 345.484375 C 331.054688 344.402344 330.914062 343.585938 330.640625 343.046875 C 330.359375 342.503906 329.949219 342.230469 329.394531 342.230469 Z M 329.394531 341.386719 C 330.273438 341.386719 330.945312 341.742188 331.421875 342.4375 C 331.886719 343.144531 332.128906 344.164062 332.128906 345.484375 C 332.128906 346.820312 331.886719 347.839844 331.421875 348.535156 C 330.945312 349.226562 330.273438 349.574219 329.386719 349.574219 C 328.496094 349.574219 327.824219 349.226562 327.359375 348.535156 C 326.894531 347.839844 326.664062 346.820312 326.664062 345.484375 C 326.664062 344.164062 326.894531 343.144531 327.359375 342.4375 C 327.824219 341.742188 328.507812 341.386719 329.394531 341.386719 Z M 329.394531 341.386719 "/>
<path style="fill:none;stroke-width:0.8;stroke-linecap:butt;stroke-linejoin:round;stroke:rgb(0%,0%,0%);stroke-opacity:1;stroke-miterlimit:4;" d="M 347.577573 307.584242 L 347.577573 311.084961 " transform="matrix(1.083605,0,0,1.084599,0,0)"/>
<path style=" stroke:none;fill-rule:nonzero;fill:rgb(0%,0%,0%);fill-opacity:1;" d="M 370.914062 341.527344 L 375.109375 341.527344 L 375.109375 342.425781 L 371.890625 342.425781 L 371.890625 344.367188 C 372.042969 344.316406 372.207031 344.269531 372.355469 344.25 C 372.507812 344.226562 372.671875 344.207031 372.824219 344.207031 C 373.699219 344.207031 374.394531 344.457031 374.914062 344.933594 C 375.433594 345.421875 375.695312 346.070312 375.695312 346.894531 C 375.695312 347.753906 375.421875 348.414062 374.890625 348.878906 C 374.363281 349.347656 373.613281 349.574219 372.660156 349.574219 C 372.324219 349.574219 371.988281 349.542969 371.640625 349.5 C 371.296875 349.445312 370.949219 349.367188 370.578125 349.25 L 370.578125 348.175781 C 370.894531 348.347656 371.21875 348.480469 371.566406 348.566406 C 371.902344 348.652344 372.257812 348.683594 372.640625 348.683594 C 373.246094 348.683594 373.734375 348.535156 374.089844 348.207031 C 374.4375 347.882812 374.621094 347.449219 374.621094 346.894531 C 374.621094 346.355469 374.4375 345.917969 374.089844 345.59375 C 373.734375 345.269531 373.246094 345.105469 372.640625 345.105469 C 372.355469 345.105469 372.0625 345.140625 371.78125 345.203125 C 371.5 345.269531 371.207031 345.367188 370.914062 345.496094 Z M 370.914062 341.527344 "/>
<path style=" stroke:none;fill-rule:nonzero;fill:rgb(0%,0%,0%);fill-opacity:1;" d="M 380.082031 342.230469 C 379.53125 342.230469 379.117188 342.503906 378.835938 343.046875 C 378.554688 343.585938 378.425781 344.402344 378.425781 345.484375 C 378.425781 346.570312 378.554688 347.382812 378.835938 347.925781 C 379.117188 348.46875 379.53125 348.738281 380.082031 348.738281 C 380.636719 348.738281 381.046875 348.46875 381.328125 347.925781 C 381.601562 347.382812 381.742188 346.570312 381.742188 345.484375 C 381.742188 344.402344 381.601562 343.585938 381.328125 343.046875 C 381.046875 342.503906 380.636719 342.230469 380.082031 342.230469 Z M 380.082031 341.386719 C 380.960938 341.386719 381.632812 341.742188 382.109375 342.4375 C 382.574219 343.144531 382.8125 344.164062 382.8125 345.484375 C 382.8125 346.820312 382.574219 347.839844 382.109375 348.535156 C 381.632812 349.226562 380.960938 349.574219 380.070312 349.574219 C 379.183594 349.574219 378.511719 349.226562 378.046875 348.535156 C 377.578125 347.839844 377.351562 346.820312 377.351562 345.484375 C 377.351562 344.164062 377.578125 343.144531 378.046875 342.4375 C 378.511719 341.742188 379.195312 341.386719 380.082031 341.386719 Z M 380.082031 341.386719 "/>
<path style=" stroke:none;fill-rule:nonzero;fill:rgb(0%,0%,0%);fill-opacity:1;" d="M 233.796875 356.355469 L 240.46875 356.355469 L 240.46875 357.257812 L 237.664062 357.257812 L 237.664062 364.261719 L 236.589844 364.261719 L 236.589844 357.257812 L 233.796875 357.257812 Z M 233.796875 356.355469 "/>
<path style=" stroke:none;fill-rule:nonzero;fill:rgb(0%,0%,0%);fill-opacity:1;" d="M 241.132812 358.328125 L 242.109375 358.328125 L 242.109375 364.261719 L 241.132812 364.261719 Z M 241.132812 356.019531 L 242.109375 356.019531 L 242.109375 357.257812 L 241.132812 357.257812 Z M 241.132812 356.019531 "/>
<path style=" stroke:none;fill-rule:nonzero;fill:rgb(0%,0%,0%);fill-opacity:1;" d="M 248.761719 359.46875 C 249 359.035156 249.292969 358.71875 249.628906 358.503906 C 249.964844 358.296875 250.367188 358.1875 250.832031 358.1875 C 251.441406 358.1875 251.917969 358.40625 252.253906 358.839844 C 252.589844 359.273438 252.761719 359.890625 252.761719 360.683594 L 252.761719 364.261719 L 251.785156 364.261719 L 251.785156 360.714844 C 251.785156 360.152344 251.679688 359.730469 251.484375 359.445312 C 251.277344 359.175781 250.972656 359.035156 250.5625 359.035156 C 250.050781 359.035156 249.652344 359.207031 249.359375 359.542969 C 249.066406 359.878906 248.925781 360.335938 248.925781 360.910156 L 248.925781 364.261719 L 247.949219 364.261719 L 247.949219 360.714844 C 247.949219 360.152344 247.84375 359.730469 247.648438 359.445312 C 247.441406 359.175781 247.125 359.035156 246.714844 359.035156 C 246.214844 359.035156 245.816406 359.207031 245.523438 359.542969 C 245.230469 359.878906 245.089844 360.335938 245.089844 360.910156 L 245.089844 364.261719 L 244.113281 364.261719 L 244.113281 358.328125 L 245.089844 358.328125 L 245.089844 359.25 C 245.304688 358.894531 245.578125 358.621094 245.890625 358.449219 C 246.195312 358.277344 246.5625 358.1875 246.996094 358.1875 C 247.429688 358.1875 247.789062 358.296875 248.089844 358.515625 C 248.394531 358.730469 248.613281 359.054688 248.761719 359.46875 Z M 248.761719 359.46875 "/>
<path style=" stroke:none;fill-rule:nonzero;fill:rgb(0%,0%,0%);fill-opacity:1;" d="M 259.773438 361.050781 L 259.773438 361.527344 L 255.296875 361.527344 C 255.339844 362.203125 255.535156 362.722656 255.902344 363.070312 C 256.261719 363.417969 256.761719 363.589844 257.410156 363.589844 C 257.777344 363.589844 258.148438 363.546875 258.492188 363.460938 C 258.839844 363.375 259.199219 363.230469 259.546875 363.035156 L 259.546875 363.957031 C 259.199219 364.109375 258.839844 364.230469 258.472656 364.296875 C 258.105469 364.359375 257.722656 364.402344 257.355469 364.402344 C 256.402344 364.402344 255.65625 364.132812 255.101562 363.589844 C 254.550781 363.046875 254.277344 362.300781 254.277344 361.355469 C 254.277344 360.390625 254.539062 359.621094 255.058594 359.046875 C 255.578125 358.480469 256.292969 358.1875 257.183594 358.1875 C 257.984375 358.1875 258.613281 358.449219 259.078125 358.957031 C 259.535156 359.480469 259.773438 360.171875 259.773438 361.050781 Z M 258.796875 360.769531 C 258.785156 360.238281 258.636719 359.816406 258.351562 359.492188 C 258.058594 359.175781 257.671875 359.011719 257.195312 359.011719 C 256.652344 359.011719 256.21875 359.175781 255.894531 359.480469 C 255.566406 359.78125 255.375 360.21875 255.328125 360.769531 Z M 258.796875 360.769531 "/>
<path style=" stroke:none;fill-rule:nonzero;fill:rgb(0%,0%,0%);fill-opacity:1;" d="M 264.726562 356.019531 L 266.96875 356.019531 L 266.96875 356.777344 L 265.699219 356.777344 L 265.699219 364.925781 L 266.96875 364.925781 L 266.96875 365.683594 L 264.726562 365.683594 Z M 264.726562 356.019531 "/>
<path style=" stroke:none;fill-rule:nonzero;fill:rgb(0%,0%,0%);fill-opacity:1;" d="M 272.820312 358.503906 L 272.820312 359.425781 C 272.539062 359.296875 272.253906 359.1875 271.964844 359.109375 C 271.660156 359.046875 271.355469 359.003906 271.042969 359.003906 C 270.554688 359.003906 270.1875 359.078125 269.949219 359.230469 C 269.710938 359.382812 269.589844 359.597656 269.589844 359.890625 C 269.589844 360.121094 269.675781 360.292969 269.851562 360.421875 C 270.023438 360.554688 270.371094 360.683594 270.890625 360.792969 L 271.226562 360.867188 C 271.917969 361.019531 272.40625 361.238281 272.699219 361.496094 C 272.980469 361.769531 273.132812 362.148438 273.132812 362.625 C 273.132812 363.179688 272.917969 363.613281 272.484375 363.925781 C 272.050781 364.25 271.441406 364.402344 270.683594 364.402344 C 270.359375 364.402344 270.035156 364.371094 269.6875 364.316406 C 269.339844 364.261719 268.984375 364.175781 268.605469 364.046875 L 268.605469 363.035156 C 268.960938 363.230469 269.320312 363.375 269.664062 363.460938 C 270.011719 363.558594 270.359375 363.601562 270.707031 363.601562 C 271.160156 363.601562 271.519531 363.523438 271.769531 363.375 C 272.007812 363.222656 272.136719 362.992188 272.136719 362.699219 C 272.136719 362.441406 272.039062 362.234375 271.867188 362.09375 C 271.691406 361.953125 271.300781 361.8125 270.695312 361.679688 L 270.359375 361.605469 C 269.753906 361.476562 269.308594 361.28125 269.046875 361.019531 C 268.777344 360.757812 268.648438 360.402344 268.648438 359.933594 C 268.648438 359.382812 268.84375 358.949219 269.234375 358.644531 C 269.621094 358.339844 270.1875 358.1875 270.921875 358.1875 C 271.28125 358.1875 271.617188 358.222656 271.941406 358.277344 C 272.253906 358.328125 272.546875 358.40625 272.820312 358.503906 Z M 272.820312 358.503906 "/>
<path style=" stroke:none;fill-rule:nonzero;fill:rgb(0%,0%,0%);fill-opacity:1;" d="M 276.957031 356.019531 L 276.957031 365.683594 L 274.714844 365.683594 L 274.714844 364.925781 L 275.984375 364.925781 L 275.984375 356.777344 L 274.714844 356.777344 L 274.714844 356.019531 Z M 276.957031 356.019531 "/>
<path style="fill:none;stroke-width:0.8;stroke-linecap:butt;stroke-linejoin:round;stroke:rgb(0%,0%,0%);stroke-opacity:1;stroke-miterlimit:4;" d="M 103.102772 284.339758 L 99.602447 284.339758 " transform="matrix(1.083605,0,0,1.084599,0,0)"/>
<path style=" stroke:none;fill-rule:nonzero;fill:rgb(0%,0%,0%);fill-opacity:1;" d="M 92.4375 311.609375 L 96.164062 311.609375 L 96.164062 312.511719 L 91.148438 312.511719 L 91.148438 311.609375 C 91.546875 311.199219 92.101562 310.632812 92.804688 309.917969 C 93.5 309.214844 93.941406 308.757812 94.128906 308.550781 C 94.472656 308.171875 94.710938 307.847656 94.84375 307.574219 C 94.972656 307.316406 95.046875 307.042969 95.046875 306.785156 C 95.046875 306.371094 94.898438 306.023438 94.605469 305.765625 C 94.3125 305.503906 93.933594 305.363281 93.457031 305.363281 C 93.121094 305.363281 92.761719 305.429688 92.394531 305.535156 C 92.023438 305.65625 91.625 305.828125 91.203125 306.066406 L 91.203125 304.984375 C 91.636719 304.808594 92.035156 304.679688 92.40625 304.59375 C 92.773438 304.507812 93.121094 304.464844 93.433594 304.464844 C 94.246094 304.464844 94.898438 304.667969 95.382812 305.082031 C 95.871094 305.492188 96.121094 306.035156 96.121094 306.71875 C 96.121094 307.042969 96.054688 307.359375 95.9375 307.640625 C 95.816406 307.933594 95.601562 308.28125 95.277344 308.671875 C 95.1875 308.78125 94.90625 309.074219 94.429688 309.5625 C 93.953125 310.046875 93.292969 310.730469 92.4375 311.609375 Z M 92.4375 311.609375 "/>
<path style=" stroke:none;fill-rule:nonzero;fill:rgb(0%,0%,0%);fill-opacity:1;" d="M 100.695312 305.308594 C 100.140625 305.308594 99.730469 305.582031 99.449219 306.121094 C 99.167969 306.664062 99.035156 307.476562 99.035156 308.5625 C 99.035156 309.648438 99.167969 310.460938 99.449219 311.003906 C 99.730469 311.546875 100.140625 311.816406 100.695312 311.816406 C 101.246094 311.816406 101.660156 311.546875 101.941406 311.003906 C 102.210938 310.460938 102.351562 309.648438 102.351562 308.5625 C 102.351562 307.476562 102.210938 306.664062 101.941406 306.121094 C 101.660156 305.582031 101.246094 305.308594 100.695312 305.308594 Z M 100.695312 304.464844 C 101.570312 304.464844 102.242188 304.820312 102.71875 305.515625 C 103.1875 306.21875 103.425781 307.238281 103.425781 308.5625 C 103.425781 309.898438 103.1875 310.917969 102.71875 311.609375 C 102.242188 312.304688 101.570312 312.652344 100.683594 312.652344 C 99.792969 312.652344 99.121094 312.304688 98.65625 311.609375 C 98.191406 310.917969 97.964844 309.898438 97.964844 308.5625 C 97.964844 307.238281 98.191406 306.21875 98.65625 305.515625 C 99.121094 304.820312 99.804688 304.464844 100.695312 304.464844 Z M 100.695312 304.464844 "/>
<path style="fill:none;stroke-width:0.8;stroke-linecap:butt;stroke-linejoin:round;stroke:rgb(0%,0%,0%);stroke-opacity:1;stroke-miterlimit:4;" d="M 103.102772 245.893078 L 99.602447 245.893078 " transform="matrix(1.083605,0,0,1.084599,0,0)"/>
<path style=" stroke:none;fill-rule:nonzero;fill:rgb(0%,0%,0%);fill-opacity:1;" d="M 94.453125 263.839844 L 91.753906 268.058594 L 94.453125 268.058594 Z M 94.171875 262.90625 L 95.515625 262.90625 L 95.515625 268.058594 L 96.640625 268.058594 L 96.640625 268.949219 L 95.515625 268.949219 L 95.515625 270.8125 L 94.453125 270.8125 L 94.453125 268.949219 L 90.886719 268.949219 L 90.886719 267.917969 Z M 94.171875 262.90625 "/>
<path style=" stroke:none;fill-rule:nonzero;fill:rgb(0%,0%,0%);fill-opacity:1;" d="M 100.695312 263.613281 C 100.140625 263.613281 99.730469 263.882812 99.449219 264.425781 C 99.167969 264.96875 99.035156 265.78125 99.035156 266.867188 C 99.035156 267.949219 99.167969 268.761719 99.449219 269.304688 C 99.730469 269.847656 100.140625 270.121094 100.695312 270.121094 C 101.246094 270.121094 101.660156 269.847656 101.941406 269.304688 C 102.210938 268.761719 102.351562 267.949219 102.351562 266.867188 C 102.351562 265.78125 102.210938 264.96875 101.941406 264.425781 C 101.660156 263.882812 101.246094 263.613281 100.695312 263.613281 Z M 100.695312 262.765625 C 101.570312 262.765625 102.242188 263.125 102.71875 263.816406 C 103.1875 264.523438 103.425781 265.542969 103.425781 266.867188 C 103.425781 268.199219 103.1875 269.21875 102.71875 269.914062 C 102.242188 270.605469 101.570312 270.953125 100.683594 270.953125 C 99.792969 270.953125 99.121094 270.605469 98.65625 269.914062 C 98.191406 269.21875 97.964844 268.199219 97.964844 266.867188 C 97.964844 265.542969 98.191406 264.523438 98.65625 263.816406 C 99.121094 263.125 99.804688 262.765625 100.695312 262.765625 Z M 100.695312 262.765625 "/>
<path style="fill:none;stroke-width:0.8;stroke-linecap:butt;stroke-linejoin:round;stroke:rgb(0%,0%,0%);stroke-opacity:1;stroke-miterlimit:4;" d="M 103.102772 207.45 L 99.602447 207.45 " transform="matrix(1.083605,0,0,1.084599,0,0)"/>
<path style=" stroke:none;fill-rule:nonzero;fill:rgb(0%,0%,0%);fill-opacity:1;" d="M 93.933594 224.738281 C 93.457031 224.738281 93.078125 224.910156 92.792969 225.234375 C 92.511719 225.5625 92.371094 226.015625 92.371094 226.582031 C 92.371094 227.15625 92.511719 227.609375 92.792969 227.9375 C 93.078125 228.261719 93.457031 228.425781 93.933594 228.425781 C 94.410156 228.425781 94.789062 228.261719 95.070312 227.9375 C 95.351562 227.609375 95.492188 227.15625 95.492188 226.582031 C 95.492188 226.015625 95.351562 225.5625 95.070312 225.234375 C 94.789062 224.910156 94.410156 224.738281 93.933594 224.738281 Z M 96.054688 221.386719 L 96.054688 222.359375 C 95.785156 222.230469 95.515625 222.132812 95.242188 222.066406 C 94.960938 222.003906 94.691406 221.972656 94.429688 221.972656 C 93.714844 221.972656 93.171875 222.210938 92.804688 222.6875 C 92.4375 223.164062 92.21875 223.890625 92.175781 224.84375 C 92.382812 224.542969 92.644531 224.300781 92.957031 224.140625 C 93.269531 223.976562 93.617188 223.890625 93.996094 223.890625 C 94.789062 223.890625 95.417969 224.140625 95.871094 224.617188 C 96.328125 225.09375 96.566406 225.757812 96.566406 226.582031 C 96.566406 227.394531 96.316406 228.042969 95.839844 228.53125 C 95.363281 229.019531 94.722656 229.257812 93.933594 229.257812 C 93.023438 229.257812 92.316406 228.914062 91.839844 228.21875 C 91.351562 227.523438 91.113281 226.503906 91.113281 225.171875 C 91.113281 223.921875 91.40625 222.925781 92.003906 222.1875 C 92.589844 221.449219 93.390625 221.070312 94.386719 221.070312 C 94.648438 221.070312 94.917969 221.101562 95.199219 221.144531 C 95.472656 221.199219 95.753906 221.277344 96.054688 221.386719 Z M 96.054688 221.386719 "/>
<path style=" stroke:none;fill-rule:nonzero;fill:rgb(0%,0%,0%);fill-opacity:1;" d="M 100.695312 221.917969 C 100.140625 221.917969 99.730469 222.1875 99.449219 222.730469 C 99.167969 223.273438 99.035156 224.085938 99.035156 225.171875 C 99.035156 226.253906 99.167969 227.066406 99.449219 227.609375 C 99.730469 228.152344 100.140625 228.425781 100.695312 228.425781 C 101.246094 228.425781 101.660156 228.152344 101.941406 227.609375 C 102.210938 227.066406 102.351562 226.253906 102.351562 225.171875 C 102.351562 224.085938 102.210938 223.273438 101.941406 222.730469 C 101.660156 222.1875 101.246094 221.917969 100.695312 221.917969 Z M 100.695312 221.070312 C 101.570312 221.070312 102.242188 221.429688 102.71875 222.121094 C 103.1875 222.828125 103.425781 223.847656 103.425781 225.171875 C 103.425781 226.503906 103.1875 227.523438 102.71875 228.21875 C 102.242188 228.914062 101.570312 229.257812 100.683594 229.257812 C 99.792969 229.257812 99.121094 228.914062 98.65625 228.21875 C 98.191406 227.523438 97.964844 226.503906 97.964844 225.171875 C 97.964844 223.847656 98.191406 222.828125 98.65625 222.121094 C 99.121094 221.429688 99.804688 221.070312 100.695312 221.070312 Z M 100.695312 221.070312 "/>
<path style="fill:none;stroke-width:0.8;stroke-linecap:butt;stroke-linejoin:round;stroke:rgb(0%,0%,0%);stroke-opacity:1;stroke-miterlimit:4;" d="M 103.102772 169.006922 L 99.602447 169.006922 " transform="matrix(1.083605,0,0,1.084599,0,0)"/>
<path style=" stroke:none;fill-rule:nonzero;fill:rgb(0%,0%,0%);fill-opacity:1;" d="M 93.800781 183.667969 C 93.292969 183.667969 92.890625 183.808594 92.597656 184.082031 C 92.308594 184.351562 92.164062 184.722656 92.164062 185.199219 C 92.164062 185.675781 92.308594 186.054688 92.597656 186.328125 C 92.890625 186.597656 93.292969 186.726562 93.800781 186.726562 C 94.300781 186.726562 94.703125 186.597656 94.996094 186.316406 C 95.285156 186.042969 95.4375 185.675781 95.4375 185.199219 C 95.4375 184.722656 95.285156 184.351562 95.003906 184.082031 C 94.710938 183.808594 94.3125 183.667969 93.800781 183.667969 Z M 92.730469 183.214844 C 92.273438 183.105469 91.917969 182.886719 91.65625 182.574219 C 91.398438 182.257812 91.277344 181.878906 91.277344 181.425781 C 91.277344 180.796875 91.496094 180.296875 91.949219 179.925781 C 92.394531 179.558594 93.011719 179.375 93.800781 179.375 C 94.582031 179.375 95.199219 179.558594 95.65625 179.925781 C 96.097656 180.296875 96.328125 180.796875 96.328125 181.425781 C 96.328125 181.878906 96.195312 182.257812 95.9375 182.574219 C 95.675781 182.886719 95.332031 183.105469 94.875 183.214844 C 95.382812 183.332031 95.785156 183.570312 96.078125 183.917969 C 96.359375 184.265625 96.511719 184.699219 96.511719 185.199219 C 96.511719 185.96875 96.273438 186.554688 95.808594 186.957031 C 95.332031 187.367188 94.660156 187.5625 93.792969 187.5625 C 92.925781 187.5625 92.253906 187.367188 91.785156 186.957031 C 91.320312 186.554688 91.09375 185.96875 91.09375 185.199219 C 91.09375 184.699219 91.234375 184.265625 91.527344 183.917969 C 91.808594 183.570312 92.210938 183.332031 92.730469 183.214844 Z M 92.339844 181.523438 C 92.339844 181.933594 92.457031 182.257812 92.71875 182.488281 C 92.980469 182.714844 93.335938 182.824219 93.800781 182.824219 C 94.257812 182.824219 94.613281 182.714844 94.875 182.488281 C 95.136719 182.257812 95.265625 181.933594 95.265625 181.523438 C 95.265625 181.109375 95.136719 180.796875 94.875 180.566406 C 94.613281 180.339844 94.257812 180.21875 93.800781 180.21875 C 93.335938 180.21875 92.980469 180.339844 92.71875 180.566406 C 92.457031 180.796875 92.339844 181.109375 92.339844 181.523438 Z M 92.339844 181.523438 "/>
<path style=" stroke:none;fill-rule:nonzero;fill:rgb(0%,0%,0%);fill-opacity:1;" d="M 100.695312 180.21875 C 100.140625 180.21875 99.730469 180.492188 99.449219 181.035156 C 99.167969 181.574219 99.035156 182.390625 99.035156 183.472656 C 99.035156 184.558594 99.167969 185.371094 99.449219 185.914062 C 99.730469 186.457031 100.140625 186.726562 100.695312 186.726562 C 101.246094 186.726562 101.660156 186.457031 101.941406 185.914062 C 102.210938 185.371094 102.351562 184.558594 102.351562 183.472656 C 102.351562 182.390625 102.210938 181.574219 101.941406 181.035156 C 101.660156 180.492188 101.246094 180.21875 100.695312 180.21875 Z M 100.695312 179.375 C 101.570312 179.375 102.242188 179.730469 102.71875 180.425781 C 103.1875 181.132812 103.425781 182.152344 103.425781 183.472656 C 103.425781 184.808594 103.1875 185.828125 102.71875 186.523438 C 102.242188 187.214844 101.570312 187.5625 100.683594 187.5625 C 99.792969 187.5625 99.121094 187.214844 98.65625 186.523438 C 98.191406 185.828125 97.964844 184.808594 97.964844 183.472656 C 97.964844 182.152344 98.191406 181.132812 98.65625 180.425781 C 99.121094 179.730469 99.804688 179.375 100.695312 179.375 Z M 100.695312 179.375 "/>
<path style="fill:none;stroke-width:0.8;stroke-linecap:butt;stroke-linejoin:round;stroke:rgb(0%,0%,0%);stroke-opacity:1;stroke-miterlimit:4;" d="M 103.102772 130.560242 L 99.602447 130.560242 " transform="matrix(1.083605,0,0,1.084599,0,0)"/>
<path style=" stroke:none;fill-rule:nonzero;fill:rgb(0%,0%,0%);fill-opacity:1;" d="M 84.808594 144.824219 L 86.554688 144.824219 L 86.554688 138.792969 L 84.65625 139.171875 L 84.65625 138.199219 L 86.542969 137.816406 L 87.617188 137.816406 L 87.617188 144.824219 L 89.359375 144.824219 L 89.359375 145.722656 L 84.808594 145.722656 Z M 84.808594 144.824219 "/>
<path style=" stroke:none;fill-rule:nonzero;fill:rgb(0%,0%,0%);fill-opacity:1;" d="M 93.804688 138.523438 C 93.25 138.523438 92.839844 138.792969 92.558594 139.335938 C 92.277344 139.878906 92.144531 140.691406 92.144531 141.777344 C 92.144531 142.859375 92.277344 143.675781 92.558594 144.21875 C 92.839844 144.757812 93.25 145.03125 93.804688 145.03125 C 94.355469 145.03125 94.769531 144.757812 95.050781 144.21875 C 95.320312 143.675781 95.460938 142.859375 95.460938 141.777344 C 95.460938 140.691406 95.320312 139.878906 95.050781 139.335938 C 94.769531 138.792969 94.355469 138.523438 93.804688 138.523438 Z M 93.804688 137.675781 C 94.679688 137.675781 95.351562 138.035156 95.828125 138.730469 C 96.296875 139.433594 96.535156 140.453125 96.535156 141.777344 C 96.535156 143.109375 96.296875 144.128906 95.828125 144.824219 C 95.351562 145.519531 94.679688 145.867188 93.792969 145.867188 C 92.902344 145.867188 92.230469 145.519531 91.765625 144.824219 C 91.300781 144.128906 91.074219 143.109375 91.074219 141.777344 C 91.074219 140.453125 91.300781 139.433594 91.765625 138.730469 C 92.230469 138.035156 92.914062 137.675781 93.804688 137.675781 Z M 93.804688 137.675781 "/>
<path style=" stroke:none;fill-rule:nonzero;fill:rgb(0%,0%,0%);fill-opacity:1;" d="M 100.695312 138.523438 C 100.140625 138.523438 99.730469 138.792969 99.449219 139.335938 C 99.167969 139.878906 99.039062 140.691406 99.039062 141.777344 C 99.039062 142.859375 99.167969 143.675781 99.449219 144.21875 C 99.730469 144.757812 100.140625 145.03125 100.695312 145.03125 C 101.246094 145.03125 101.660156 144.757812 101.941406 144.21875 C 102.210938 143.675781 102.351562 142.859375 102.351562 141.777344 C 102.351562 140.691406 102.210938 139.878906 101.941406 139.335938 C 101.660156 138.792969 101.246094 138.523438 100.695312 138.523438 Z M 100.695312 137.675781 C 101.574219 137.675781 102.246094 138.035156 102.722656 138.730469 C 103.1875 139.433594 103.425781 140.453125 103.425781 141.777344 C 103.425781 143.109375 103.1875 144.128906 102.722656 144.824219 C 102.246094 145.519531 101.574219 145.867188 100.683594 145.867188 C 99.796875 145.867188 99.125 145.519531 98.65625 144.824219 C 98.191406 144.128906 97.964844 143.109375 97.964844 141.777344 C 97.964844 140.453125 98.191406 139.433594 98.65625 138.730469 C 99.125 138.035156 99.804688 137.675781 100.695312 137.675781 Z M 100.695312 137.675781 "/>
<path style="fill:none;stroke-width:0.8;stroke-linecap:butt;stroke-linejoin:round;stroke:rgb(0%,0%,0%);stroke-opacity:1;stroke-miterlimit:4;" d="M 103.102772 92.117164 L 99.602447 92.117164 " transform="matrix(1.083605,0,0,1.084599,0,0)"/>
<path style=" stroke:none;fill-rule:nonzero;fill:rgb(0%,0%,0%);fill-opacity:1;" d="M 84.808594 103.128906 L 86.554688 103.128906 L 86.554688 97.097656 L 84.65625 97.476562 L 84.65625 96.5 L 86.542969 96.121094 L 87.617188 96.121094 L 87.617188 103.128906 L 89.359375 103.128906 L 89.359375 104.027344 L 84.808594 104.027344 Z M 84.808594 103.128906 "/>
<path style=" stroke:none;fill-rule:nonzero;fill:rgb(0%,0%,0%);fill-opacity:1;" d="M 92.4375 103.128906 L 96.164062 103.128906 L 96.164062 104.027344 L 91.148438 104.027344 L 91.148438 103.128906 C 91.550781 102.714844 92.101562 102.152344 92.804688 101.4375 C 93.5 100.730469 93.945312 100.277344 94.128906 100.070312 C 94.476562 99.691406 94.714844 99.363281 94.84375 99.09375 C 94.972656 98.832031 95.050781 98.5625 95.050781 98.300781 C 95.050781 97.890625 94.898438 97.542969 94.605469 97.28125 C 94.3125 97.023438 93.933594 96.878906 93.457031 96.878906 C 93.121094 96.878906 92.761719 96.945312 92.394531 97.054688 C 92.027344 97.171875 91.625 97.347656 91.203125 97.585938 L 91.203125 96.5 C 91.636719 96.328125 92.035156 96.199219 92.40625 96.109375 C 92.773438 96.023438 93.121094 95.980469 93.433594 95.980469 C 94.246094 95.980469 94.898438 96.1875 95.386719 96.597656 C 95.871094 97.011719 96.121094 97.554688 96.121094 98.238281 C 96.121094 98.5625 96.058594 98.875 95.9375 99.160156 C 95.820312 99.453125 95.601562 99.796875 95.277344 100.1875 C 95.191406 100.296875 94.910156 100.589844 94.433594 101.078125 C 93.953125 101.566406 93.292969 102.25 92.4375 103.128906 Z M 92.4375 103.128906 "/>
<path style=" stroke:none;fill-rule:nonzero;fill:rgb(0%,0%,0%);fill-opacity:1;" d="M 100.695312 96.828125 C 100.140625 96.828125 99.730469 97.097656 99.449219 97.640625 C 99.167969 98.183594 99.039062 98.996094 99.039062 100.082031 C 99.039062 101.164062 99.167969 101.976562 99.449219 102.519531 C 99.730469 103.0625 100.140625 103.335938 100.695312 103.335938 C 101.246094 103.335938 101.660156 103.0625 101.941406 102.519531 C 102.210938 101.976562 102.351562 101.164062 102.351562 100.082031 C 102.351562 98.996094 102.210938 98.183594 101.941406 97.640625 C 101.660156 97.097656 101.246094 96.828125 100.695312 96.828125 Z M 100.695312 95.980469 C 101.574219 95.980469 102.246094 96.339844 102.722656 97.03125 C 103.1875 97.738281 103.425781 98.757812 103.425781 100.082031 C 103.425781 101.414062 103.1875 102.433594 102.722656 103.128906 C 102.246094 103.820312 101.574219 104.167969 100.683594 104.167969 C 99.796875 104.167969 99.125 103.820312 98.65625 103.128906 C 98.191406 102.433594 97.964844 101.414062 97.964844 100.082031 C 97.964844 98.757812 98.191406 97.738281 98.65625 97.03125 C 99.125 96.339844 99.804688 95.980469 100.695312 95.980469 Z M 100.695312 95.980469 "/>
<path style="fill:none;stroke-width:0.8;stroke-linecap:butt;stroke-linejoin:round;stroke:rgb(0%,0%,0%);stroke-opacity:1;stroke-miterlimit:4;" d="M 103.102772 53.674086 L 99.602447 53.674086 " transform="matrix(1.083605,0,0,1.084599,0,0)"/>
<path style=" stroke:none;fill-rule:nonzero;fill:rgb(0%,0%,0%);fill-opacity:1;" d="M 84.808594 61.433594 L 86.554688 61.433594 L 86.554688 55.402344 L 84.65625 55.78125 L 84.65625 54.804688 L 86.542969 54.425781 L 87.617188 54.425781 L 87.617188 61.433594 L 89.359375 61.433594 L 89.359375 62.332031 L 84.808594 62.332031 Z M 84.808594 61.433594 "/>
<path style=" stroke:none;fill-rule:nonzero;fill:rgb(0%,0%,0%);fill-opacity:1;" d="M 94.453125 55.359375 L 91.753906 59.578125 L 94.453125 59.578125 Z M 94.171875 54.425781 L 95.515625 54.425781 L 95.515625 59.578125 L 96.640625 59.578125 L 96.640625 60.464844 L 95.515625 60.464844 L 95.515625 62.332031 L 94.453125 62.332031 L 94.453125 60.464844 L 90.886719 60.464844 L 90.886719 59.4375 Z M 94.171875 54.425781 "/>
<path style=" stroke:none;fill-rule:nonzero;fill:rgb(0%,0%,0%);fill-opacity:1;" d="M 100.695312 55.128906 C 100.140625 55.128906 99.730469 55.402344 99.449219 55.945312 C 99.167969 56.484375 99.039062 57.300781 99.039062 58.382812 C 99.039062 59.46875 99.167969 60.28125 99.449219 60.824219 C 99.730469 61.367188 100.140625 61.636719 100.695312 61.636719 C 101.246094 61.636719 101.660156 61.367188 101.941406 60.824219 C 102.210938 60.28125 102.351562 59.46875 102.351562 58.382812 C 102.351562 57.300781 102.210938 56.484375 101.941406 55.945312 C 101.660156 55.402344 101.246094 55.128906 100.695312 55.128906 Z M 100.695312 54.285156 C 101.574219 54.285156 102.246094 54.640625 102.722656 55.335938 C 103.1875 56.042969 103.425781 57.0625 103.425781 58.382812 C 103.425781 59.71875 103.1875 60.738281 102.722656 61.433594 C 102.246094 62.125 101.574219 62.472656 100.683594 62.472656 C 99.796875 62.472656 99.125 62.125 98.65625 61.433594 C 98.191406 60.738281 97.964844 59.71875 97.964844 58.382812 C 97.964844 57.0625 98.191406 56.042969 98.65625 55.335938 C 99.125 54.640625 99.804688 54.285156 100.695312 54.285156 Z M 100.695312 54.285156 "/>
<path style=" stroke:none;fill-rule:nonzero;fill:rgb(0%,0%,0%);fill-opacity:1;" d="M 69.859375 222.132812 L 76 222.132812 L 76 220.84375 C 76 219.757812 75.761719 218.957031 75.265625 218.445312 C 74.765625 217.949219 73.988281 217.6875 72.925781 217.6875 C 71.863281 217.6875 71.09375 217.949219 70.59375 218.445312 C 70.105469 218.957031 69.859375 219.757812 69.859375 220.84375 Z M 68.980469 223.207031 L 68.980469 221.007812 C 68.980469 219.476562 69.304688 218.347656 69.933594 217.632812 C 70.574219 216.917969 71.570312 216.558594 72.925781 216.558594 C 74.289062 216.558594 75.285156 216.929688 75.925781 217.644531 C 76.566406 218.359375 76.878906 219.488281 76.878906 221.007812 L 76.878906 223.207031 Z M 68.980469 223.207031 "/>
<path style=" stroke:none;fill-rule:nonzero;fill:rgb(0%,0%,0%);fill-opacity:1;" d="M 70.953125 214.898438 L 70.953125 213.925781 L 76.878906 213.925781 L 76.878906 214.898438 Z M 68.644531 214.898438 L 68.644531 213.925781 L 69.878906 213.925781 L 69.878906 214.898438 Z M 68.644531 214.898438 "/>
<path style=" stroke:none;fill-rule:nonzero;fill:rgb(0%,0%,0%);fill-opacity:1;" d="M 71.125 208.101562 L 72.046875 208.101562 C 71.917969 208.382812 71.808594 208.664062 71.734375 208.957031 C 71.667969 209.261719 71.625 209.5625 71.625 209.878906 C 71.625 210.367188 71.699219 210.734375 71.851562 210.972656 C 72.003906 211.210938 72.21875 211.332031 72.511719 211.332031 C 72.738281 211.332031 72.914062 211.246094 73.042969 211.070312 C 73.171875 210.898438 73.304688 210.550781 73.410156 210.03125 L 73.488281 209.695312 C 73.640625 209 73.855469 208.511719 74.117188 208.21875 C 74.386719 207.9375 74.765625 207.785156 75.242188 207.785156 C 75.796875 207.785156 76.230469 208.003906 76.542969 208.4375 C 76.867188 208.871094 77.019531 209.476562 77.019531 210.238281 C 77.019531 210.5625 76.988281 210.886719 76.933594 211.234375 C 76.878906 211.582031 76.792969 211.9375 76.664062 212.320312 L 75.65625 212.320312 C 75.851562 211.960938 75.992188 211.601562 76.078125 211.257812 C 76.175781 210.910156 76.21875 210.5625 76.21875 210.214844 C 76.21875 209.757812 76.144531 209.402344 75.992188 209.152344 C 75.839844 208.914062 75.613281 208.78125 75.320312 208.78125 C 75.058594 208.78125 74.851562 208.878906 74.710938 209.054688 C 74.570312 209.226562 74.429688 209.617188 74.300781 210.226562 L 74.226562 210.5625 C 74.09375 211.167969 73.898438 211.613281 73.640625 211.875 C 73.378906 212.144531 73.023438 212.277344 72.554688 212.277344 C 72.003906 212.277344 71.570312 212.082031 71.265625 211.691406 C 70.964844 211.300781 70.8125 210.734375 70.8125 209.996094 C 70.8125 209.640625 70.84375 209.304688 70.898438 208.976562 C 70.953125 208.664062 71.027344 208.371094 71.125 208.101562 Z M 71.125 208.101562 "/>
<path style=" stroke:none;fill-rule:nonzero;fill:rgb(0%,0%,0%);fill-opacity:1;" d="M 69.273438 205.269531 L 70.953125 205.269531 L 70.953125 203.261719 L 71.710938 203.261719 L 71.710938 205.269531 L 74.929688 205.269531 C 75.417969 205.269531 75.730469 205.203125 75.859375 205.074219 C 76 204.945312 76.066406 204.671875 76.066406 204.261719 L 76.066406 203.261719 L 76.878906 203.261719 L 76.878906 204.261719 C 76.878906 205.019531 76.738281 205.539062 76.457031 205.820312 C 76.175781 206.105469 75.664062 206.246094 74.929688 206.246094 L 71.710938 206.246094 L 71.710938 206.960938 L 70.953125 206.960938 L 70.953125 206.246094 L 69.273438 206.246094 Z M 69.273438 205.269531 "/>
<path style=" stroke:none;fill-rule:nonzero;fill:rgb(0%,0%,0%);fill-opacity:1;" d="M 73.898438 199.28125 C 73.898438 200.074219 73.996094 200.617188 74.171875 200.917969 C 74.355469 201.222656 74.65625 201.375 75.089844 201.375 C 75.4375 201.375 75.71875 201.265625 75.914062 201.039062 C 76.121094 200.8125 76.21875 200.496094 76.21875 200.105469 C 76.21875 199.5625 76.035156 199.128906 75.644531 198.804688 C 75.265625 198.480469 74.753906 198.316406 74.117188 198.316406 L 73.898438 198.316406 Z M 73.5 197.339844 L 76.878906 197.339844 L 76.878906 198.316406 L 75.980469 198.316406 C 76.347656 198.542969 76.609375 198.828125 76.769531 199.152344 C 76.933594 199.476562 77.019531 199.890625 77.019531 200.367188 C 77.019531 200.972656 76.859375 201.460938 76.523438 201.820312 C 76.1875 202.179688 75.730469 202.351562 75.15625 202.351562 C 74.496094 202.351562 73.996094 202.132812 73.652344 201.679688 C 73.316406 201.234375 73.140625 200.574219 73.140625 199.683594 L 73.140625 198.316406 L 73.042969 198.316406 C 72.597656 198.316406 72.253906 198.46875 72.003906 198.761719 C 71.765625 199.054688 71.636719 199.464844 71.636719 199.996094 C 71.636719 200.34375 71.679688 200.671875 71.765625 200.996094 C 71.851562 201.320312 71.972656 201.625 72.121094 201.917969 L 71.222656 201.917969 C 71.09375 201.570312 70.984375 201.222656 70.917969 200.886719 C 70.855469 200.550781 70.8125 200.226562 70.8125 199.898438 C 70.8125 199.042969 71.039062 198.402344 71.484375 197.980469 C 71.925781 197.558594 72.597656 197.339844 73.5 197.339844 Z M 73.5 197.339844 "/>
<path style=" stroke:none;fill-rule:nonzero;fill:rgb(0%,0%,0%);fill-opacity:1;" d="M 73.304688 190.398438 L 76.878906 190.398438 L 76.878906 191.375 L 73.335938 191.375 C 72.773438 191.375 72.359375 191.496094 72.078125 191.710938 C 71.796875 191.929688 71.65625 192.253906 71.65625 192.6875 C 71.65625 193.21875 71.828125 193.632812 72.164062 193.933594 C 72.5 194.238281 72.957031 194.390625 73.53125 194.390625 L 76.878906 194.390625 L 76.878906 195.367188 L 70.953125 195.367188 L 70.953125 194.390625 L 71.875 194.390625 C 71.527344 194.164062 71.253906 193.890625 71.082031 193.566406 C 70.910156 193.25 70.8125 192.882812 70.8125 192.472656 C 70.8125 191.796875 71.027344 191.277344 71.449219 190.929688 C 71.875 190.582031 72.492188 190.398438 73.304688 190.398438 Z M 73.304688 190.398438 "/>
<path style=" stroke:none;fill-rule:nonzero;fill:rgb(0%,0%,0%);fill-opacity:1;" d="M 71.179688 184.183594 L 72.089844 184.183594 C 71.9375 184.464844 71.828125 184.738281 71.753906 185.019531 C 71.679688 185.300781 71.636719 185.574219 71.636719 185.855469 C 71.636719 186.484375 71.839844 186.984375 72.242188 187.328125 C 72.644531 187.675781 73.207031 187.851562 73.921875 187.851562 C 74.648438 187.851562 75.210938 187.675781 75.613281 187.328125 C 76.011719 186.984375 76.207031 186.484375 76.207031 185.855469 C 76.207031 185.574219 76.175781 185.300781 76.097656 185.019531 C 76.023438 184.738281 75.90625 184.464844 75.753906 184.183594 L 76.652344 184.183594 C 76.78125 184.464844 76.878906 184.75 76.933594 185.03125 C 76.988281 185.324219 77.019531 185.636719 77.019531 185.964844 C 77.019531 186.851562 76.75 187.566406 76.1875 188.089844 C 75.632812 188.621094 74.875 188.878906 73.921875 188.878906 C 72.957031 188.878906 72.199219 188.621094 71.644531 188.089844 C 71.09375 187.558594 70.8125 186.832031 70.8125 185.898438 C 70.8125 185.59375 70.84375 185.300781 70.910156 185.019531 C 70.972656 184.738281 71.0625 184.457031 71.179688 184.183594 Z M 71.179688 184.183594 "/>
<path style=" stroke:none;fill-rule:nonzero;fill:rgb(0%,0%,0%);fill-opacity:1;" d="M 73.671875 177.417969 L 74.148438 177.417969 L 74.148438 181.894531 C 74.820312 181.851562 75.339844 181.65625 75.6875 181.289062 C 76.035156 180.929688 76.207031 180.433594 76.207031 179.78125 C 76.207031 179.414062 76.164062 179.042969 76.078125 178.695312 C 75.992188 178.347656 75.851562 177.992188 75.65625 177.644531 L 76.578125 177.644531 C 76.726562 177.992188 76.847656 178.347656 76.910156 178.71875 C 76.976562 179.085938 77.019531 179.464844 77.019531 179.835938 C 77.019531 180.789062 76.75 181.539062 76.207031 182.089844 C 75.664062 182.644531 74.917969 182.914062 73.976562 182.914062 C 73.011719 182.914062 72.242188 182.65625 71.667969 182.132812 C 71.105469 181.613281 70.8125 180.898438 70.8125 180.007812 C 70.8125 179.207031 71.070312 178.578125 71.582031 178.109375 C 72.101562 177.65625 72.792969 177.417969 73.671875 177.417969 Z M 73.390625 178.394531 C 72.859375 178.402344 72.4375 178.554688 72.113281 178.835938 C 71.796875 179.128906 71.636719 179.519531 71.636719 179.996094 C 71.636719 180.539062 71.796875 180.972656 72.101562 181.300781 C 72.40625 181.625 72.835938 181.820312 73.390625 181.863281 Z M 73.390625 178.394531 "/>
<path style=" stroke:none;fill-rule:nonzero;fill:rgb(0%,0%,0%);fill-opacity:1;" d="M 68.644531 172.460938 L 68.644531 170.214844 L 69.402344 170.214844 L 69.402344 171.484375 L 77.539062 171.484375 L 77.539062 170.214844 L 78.300781 170.214844 L 78.300781 172.460938 Z M 68.644531 172.460938 "/>
<path style=" stroke:none;fill-rule:nonzero;fill:rgb(0%,0%,0%);fill-opacity:1;" d="M 72.089844 163.523438 C 71.65625 163.285156 71.34375 162.992188 71.125 162.65625 C 70.917969 162.320312 70.8125 161.917969 70.8125 161.453125 C 70.8125 160.84375 71.027344 160.367188 71.460938 160.03125 C 71.894531 159.695312 72.511719 159.519531 73.304688 159.519531 L 76.878906 159.519531 L 76.878906 160.496094 L 73.335938 160.496094 C 72.773438 160.496094 72.351562 160.605469 72.070312 160.800781 C 71.796875 161.007812 71.65625 161.308594 71.65625 161.722656 C 71.65625 162.230469 71.828125 162.632812 72.164062 162.925781 C 72.5 163.21875 72.957031 163.359375 73.53125 163.359375 L 76.878906 163.359375 L 76.878906 164.335938 L 73.335938 164.335938 C 72.773438 164.335938 72.351562 164.445312 72.070312 164.640625 C 71.796875 164.847656 71.65625 165.160156 71.65625 165.574219 C 71.65625 166.070312 71.828125 166.472656 72.164062 166.765625 C 72.5 167.058594 72.957031 167.199219 73.53125 167.199219 L 76.878906 167.199219 L 76.878906 168.175781 L 70.953125 168.175781 L 70.953125 167.199219 L 71.875 167.199219 C 71.515625 166.984375 71.246094 166.710938 71.070312 166.398438 C 70.898438 166.09375 70.8125 165.722656 70.8125 165.289062 C 70.8125 164.855469 70.917969 164.5 71.136719 164.195312 C 71.351562 163.890625 71.679688 163.675781 72.089844 163.523438 Z M 72.089844 163.523438 "/>
<path style=" stroke:none;fill-rule:nonzero;fill:rgb(0%,0%,0%);fill-opacity:1;" d="M 68.644531 155.300781 L 78.300781 155.300781 L 78.300781 157.546875 L 77.539062 157.546875 L 77.539062 156.277344 L 69.402344 156.277344 L 69.402344 157.546875 L 68.644531 157.546875 Z M 68.644531 155.300781 "/>
<path style="fill:none;stroke-width:2.5;stroke-linecap:square;stroke-linejoin:round;stroke:rgb(0%,0%,100%);stroke-opacity:1;stroke-miterlimit:4;" d="M 115.200702 53.569641 L 115.954119 53.915391 L 118.452291 56.267211 L 118.549623 56.555336 L 119.299435 57.46293 L 119.771672 58.168836 L 120.045642 58.496578 L 120.608001 59.30693 L 121.361418 60.495445 L 122.291474 61.882047 L 123.228739 63.3875 L 123.610855 64.079 L 123.708186 64.154633 L 124.256126 65.087438 L 125.009543 66.344383 L 125.294327 66.819789 L 125.676443 67.532898 L 131.930885 78.398813 L 141.674838 95.419797 L 141.844267 95.502633 L 142.02451 95.992445 L 143.156438 97.951695 L 143.387149 98.358672 L 144.56594 100.397156 L 144.832701 100.966203 L 144.940847 101.049039 L 145.131904 101.37318 L 147.345292 105.198039 L 148.023007 106.418969 L 148.311396 106.908781 L 149.342388 108.777992 L 149.43251 108.857227 L 149.807416 109.588344 L 150.182322 110.160992 L 151.029465 111.623227 L 151.289016 112.109438 L 152.330822 113.978648 L 152.428153 114.061484 L 152.803059 114.792602 L 152.896786 114.871836 L 153.44833 115.930695 L 153.653808 116.172 L 154.025109 116.903117 L 154.216167 117.227258 L 154.591073 117.799906 L 155.506709 119.503445 L 155.614855 119.586281 L 155.896034 120.151727 L 156.343038 120.882844 L 158.870049 125.262344 L 159.165648 125.748555 L 160.957266 128.910727 L 161.869297 130.452195 L 162.795748 132.069297 L 163.195888 132.800414 L 163.743827 133.69 L 164.216065 134.579586 L 164.399913 134.903727 L 164.673883 135.310703 L 164.965877 135.876148 L 165.43451 136.603664 L 166.836803 139.113953 L 167.096353 139.52093 L 167.752438 140.65182 L 168.253515 141.541406 L 168.50946 141.944781 L 168.78343 142.510227 L 169.255668 143.241344 L 169.843261 144.289398 L 171.173456 146.554781 L 171.411377 146.958156 L 212.957458 218.672469 L 213.112467 218.751703 L 213.509002 219.637688 L 213.685641 219.878992 L 217.723091 226.793992 L 218.307079 226.952461 L 219.424587 228.400289 L 220.545701 230.08582 L 221.010728 231.065445 L 221.291908 231.483227 L 226.522569 241.117406 L 227.005621 242.194273 L 227.614843 243.271141 L 227.924861 243.991453 L 228.079871 244.171531 L 228.447567 244.891844 L 228.829683 245.612156 L 230.076966 248.100836 L 231.706366 251.118945 L 232.059643 251.832055 L 232.65805 252.90532 L 233.130288 253.805711 L 233.847656 255.257141 L 234.265821 255.984656 L 235.206691 257.990727 L 235.390539 258.354484 L 236.172795 260.353352 L 237.448917 263.227398 L 237.715677 263.76043 L 239.150414 267.095477 L 239.8065 268.244375 L 240.830282 270.127992 L 242.055936 272.310539 L 242.506544 273.192922 L 242.910289 273.852008 L 243.371712 274.669563 L 245.682431 278.609672 L 246.439453 279.888227 L 246.828779 280.500492 L 248.13374 282.549781 L 248.703309 283.450172 L 249.157522 284.127266 L 250.275031 285.776781 L 250.523766 286.043297 L 251.406958 287.357867 L 252.268521 288.456344 L 254.218754 290.746938 L 256.262713 292.691781 L 259.618843 294.744672 L 259.820716 294.777086 L 260.134339 294.881531 L 261.770948 295.364141 L 261.983635 295.331727 L 262.235976 295.425367 L 263.360694 295.486594 L 263.656293 295.414563 L 265.422677 295.252492 L 266.69159 295.047203 L 267.030448 294.97157 L 267.207086 295.025594 L 272.073655 293.901906 L 272.279132 293.736234 L 272.452166 293.811867 L 272.553102 293.642594 L 272.740555 293.682211 L 276.38868 291.885031 L 276.471592 291.712156 L 276.565318 291.762578 L 277.235823 291.186328 L 277.502583 291.085484 L 278.338912 290.404789 L 278.641721 290.044633 L 279.369904 289.356734 L 279.46363 289.381945 L 279.651083 289.201867 L 281.904125 286.81043 L 282.080763 286.597938 L 282.372757 286.273797 L 282.682776 285.830805 L 282.733244 285.834406 L 283.198272 285.276164 L 283.385725 284.937617 L 283.504685 284.937617 L 283.958898 284.249719 L 285.451313 282.495758 L 285.642371 282.254453 L 287.059083 280.338422 L 287.15281 280.331219 L 287.41957 279.852211 L 290.137639 276.383906 L 290.325092 276.135398 L 294.917691 269.793047 L 295.188056 269.404078 L 295.292597 269.382469 L 295.458421 269.123156 L 295.862166 268.492883 L 295.923448 268.471273 L 296.121716 268.103914 L 296.211838 268.082305 L 296.482203 267.581688 L 296.871528 267.163906 L 297.156313 266.663289 L 297.22841 266.638078 L 297.531219 266.133859 L 297.606921 266.11225 L 297.999851 265.579219 L 302.952937 258.451727 L 303.313424 257.799844 L 305.973815 253.949773 L 306.319882 253.395133 L 306.788515 252.703633 L 306.867822 252.667617 L 307.149001 252.148992 L 307.253542 252.112977 L 307.523907 251.594352 L 317.462523 236.647867 L 317.93476 235.934758 L 318.010462 235.891539 L 318.399788 235.221648 L 319.319029 233.892672 L 319.596603 233.464086 L 322.044307 229.747273 L 332.433531 213.770742 L 332.592145 213.482617 L 332.963446 212.809125 L 333.078802 212.758703 L 333.352772 212.326516 L 334.75146 210.064734 L 335.140785 209.578523 L 335.443594 209.052695 L 335.515692 209.002273 L 336.463771 207.460805 L 336.827863 206.974594 L 336.986477 206.682867 L 337.876879 205.289063 L 337.952581 205.235039 L 338.208526 204.709211 L 339.798272 202.335781 L 340.180388 201.662289 L 340.27772 201.611867 L 340.65623 200.938375 L 357.119653 175.442914 " transform="matrix(1.083605,0,0,1.084599,0,0)"/>
<path style="fill-rule:nonzero;fill:rgb(100%,64.705882%,0%);fill-opacity:1;stroke-width:2.5;stroke-linecap:butt;stroke-linejoin:round;stroke:rgb(100%,64.705882%,0%);stroke-opacity:1;stroke-miterlimit:4;" d="M 260.361446 298.486695 L 266.363547 292.486492 M 260.361446 292.486492 L 266.363547 298.486695 " transform="matrix(1.083605,0,0,1.084599,0,0)"/>
<path style="fill:none;stroke-width:0.8;stroke-linecap:square;stroke-linejoin:miter;stroke:rgb(0%,0%,0%);stroke-opacity:1;stroke-miterlimit:10;" d="M 103.102772 307.584242 L 103.102772 41.471992 M 369.217584 307.584242 L 369.217584 41.471992 M 103.102772 307.584242 L 369.217584 307.584242 M 103.102772 41.471992 L 369.217584 41.471992 " transform="matrix(1.083605,0,0,1.084599,0,0)"/>
<path style="fill-rule:nonzero;fill:rgb(100%,100%,100%);fill-opacity:0.8;stroke-width:1;stroke-linecap:butt;stroke-linejoin:miter;stroke:rgb(83.529412%,83.921569%,83.529412%);stroke-opacity:0.8;stroke-miterlimit:10;" d="M 184.965674 78.816594 L 362.216934 78.816594 C 363.550734 78.816594 364.217634 78.150305 364.217634 76.817727 L 364.217634 48.47343 C 364.217634 47.13725 363.550734 46.470961 362.216934 46.470961 L 184.965674 46.470961 C 183.631873 46.470961 182.964973 47.13725 182.964973 48.47343 L 182.964973 76.817727 C 182.964973 78.150305 183.631873 78.816594 184.965674 78.816594 Z M 184.965674 78.816594 " transform="matrix(1.083605,0,0,1.084599,0,0)"/>
<path style="fill:none;stroke-width:2.5;stroke-linecap:square;stroke-linejoin:round;stroke:rgb(0%,0%,100%);stroke-opacity:1;stroke-miterlimit:4;" d="M 186.966374 54.567273 L 206.966171 54.567273 " transform="matrix(1.083605,0,0,1.084599,0,0)"/>
<path style=" stroke:none;fill-rule:nonzero;fill:rgb(0%,0%,0%);fill-opacity:1;" d="M 235.074219 55.949219 L 235.074219 62.101562 L 236.363281 62.101562 C 237.445312 62.101562 238.246094 61.859375 238.757812 61.363281 C 239.253906 60.863281 239.515625 60.082031 239.515625 59.019531 C 239.515625 57.957031 239.253906 57.1875 238.757812 56.6875 C 238.246094 56.199219 237.445312 55.949219 236.363281 55.949219 Z M 234 55.070312 L 236.199219 55.070312 C 237.726562 55.070312 238.855469 55.398438 239.570312 56.027344 C 240.285156 56.664062 240.644531 57.664062 240.644531 59.019531 C 240.644531 60.386719 240.273438 61.382812 239.558594 62.023438 C 238.84375 62.664062 237.71875 62.976562 236.199219 62.976562 L 234 62.976562 Z M 234 55.070312 "/>
<path style=" stroke:none;fill-rule:nonzero;fill:rgb(0%,0%,0%);fill-opacity:1;" d="M 242.300781 57.046875 L 243.277344 57.046875 L 243.277344 62.976562 L 242.300781 62.976562 Z M 242.300781 54.734375 L 243.277344 54.734375 L 243.277344 55.972656 L 242.300781 55.972656 Z M 242.300781 54.734375 "/>
<path style=" stroke:none;fill-rule:nonzero;fill:rgb(0%,0%,0%);fill-opacity:1;" d="M 249.09375 57.21875 L 249.09375 58.140625 C 248.8125 58.011719 248.53125 57.902344 248.238281 57.828125 C 247.933594 57.761719 247.632812 57.71875 247.316406 57.71875 C 246.828125 57.71875 246.460938 57.792969 246.222656 57.945312 C 245.984375 58.097656 245.867188 58.316406 245.867188 58.605469 C 245.867188 58.835938 245.953125 59.007812 246.125 59.140625 C 246.300781 59.269531 246.644531 59.398438 247.164062 59.507812 L 247.5 59.582031 C 248.195312 59.734375 248.683594 59.953125 248.976562 60.210938 C 249.257812 60.484375 249.410156 60.863281 249.410156 61.339844 C 249.410156 61.894531 249.191406 62.328125 248.757812 62.640625 C 248.324219 62.96875 247.71875 63.121094 246.960938 63.121094 C 246.636719 63.121094 246.308594 63.085938 245.964844 63.03125 C 245.617188 62.976562 245.257812 62.890625 244.878906 62.761719 L 244.878906 61.753906 C 245.238281 61.949219 245.59375 62.089844 245.941406 62.175781 C 246.289062 62.273438 246.636719 62.316406 246.980469 62.316406 C 247.4375 62.316406 247.792969 62.242188 248.042969 62.089844 C 248.28125 61.9375 248.410156 61.710938 248.410156 61.417969 C 248.410156 61.15625 248.316406 60.949219 248.140625 60.808594 C 247.96875 60.667969 247.578125 60.527344 246.972656 60.398438 L 246.636719 60.320312 C 246.027344 60.191406 245.582031 59.996094 245.324219 59.734375 C 245.054688 59.476562 244.921875 59.117188 244.921875 58.652344 C 244.921875 58.097656 245.117188 57.664062 245.507812 57.359375 C 245.898438 57.054688 246.460938 56.90625 247.199219 56.90625 C 247.554688 56.90625 247.890625 56.9375 248.21875 56.992188 C 248.53125 57.046875 248.824219 57.121094 249.09375 57.21875 Z M 249.09375 57.21875 "/>
<path style=" stroke:none;fill-rule:nonzero;fill:rgb(0%,0%,0%);fill-opacity:1;" d="M 251.921875 55.363281 L 251.921875 57.046875 L 253.925781 57.046875 L 253.925781 57.804688 L 251.921875 57.804688 L 251.921875 61.027344 C 251.921875 61.515625 251.988281 61.828125 252.117188 61.957031 C 252.246094 62.101562 252.519531 62.164062 252.929688 62.164062 L 253.925781 62.164062 L 253.925781 62.976562 L 252.929688 62.976562 C 252.171875 62.976562 251.652344 62.835938 251.371094 62.554688 C 251.089844 62.273438 250.949219 61.761719 250.949219 61.027344 L 250.949219 57.804688 L 250.234375 57.804688 L 250.234375 57.046875 L 250.949219 57.046875 L 250.949219 55.363281 Z M 251.921875 55.363281 "/>
<path style=" stroke:none;fill-rule:nonzero;fill:rgb(0%,0%,0%);fill-opacity:1;" d="M 257.90625 59.996094 C 257.113281 59.996094 256.570312 60.09375 256.269531 60.265625 C 255.964844 60.453125 255.8125 60.753906 255.8125 61.1875 C 255.8125 61.535156 255.921875 61.816406 256.148438 62.011719 C 256.375 62.21875 256.691406 62.316406 257.082031 62.316406 C 257.621094 62.316406 258.054688 62.132812 258.382812 61.742188 C 258.707031 61.363281 258.867188 60.851562 258.867188 60.210938 L 258.867188 59.996094 Z M 259.84375 59.59375 L 259.84375 62.976562 L 258.867188 62.976562 L 258.867188 62.078125 C 258.640625 62.445312 258.359375 62.707031 258.035156 62.871094 C 257.710938 63.03125 257.296875 63.121094 256.820312 63.121094 C 256.214844 63.121094 255.726562 62.957031 255.367188 62.621094 C 255.011719 62.285156 254.835938 61.828125 254.835938 61.253906 C 254.835938 60.59375 255.054688 60.09375 255.507812 59.746094 C 255.953125 59.410156 256.613281 59.238281 257.503906 59.238281 L 258.867188 59.238281 L 258.867188 59.140625 C 258.867188 58.695312 258.71875 58.347656 258.425781 58.097656 C 258.132812 57.859375 257.71875 57.730469 257.1875 57.730469 C 256.84375 57.730469 256.515625 57.773438 256.191406 57.859375 C 255.867188 57.945312 255.5625 58.066406 255.269531 58.21875 L 255.269531 57.316406 C 255.617188 57.1875 255.964844 57.078125 256.300781 57.011719 C 256.636719 56.949219 256.960938 56.90625 257.285156 56.90625 C 258.144531 56.90625 258.78125 57.132812 259.203125 57.578125 C 259.628906 58.023438 259.84375 58.695312 259.84375 59.59375 Z M 259.84375 59.59375 "/>
<path style=" stroke:none;fill-rule:nonzero;fill:rgb(0%,0%,0%);fill-opacity:1;" d="M 266.777344 59.398438 L 266.777344 62.976562 L 265.804688 62.976562 L 265.804688 59.433594 C 265.804688 58.867188 265.683594 58.457031 265.46875 58.171875 C 265.25 57.890625 264.925781 57.75 264.492188 57.75 C 263.960938 57.75 263.550781 57.925781 263.246094 58.261719 C 262.941406 58.597656 262.792969 59.050781 262.792969 59.625 L 262.792969 62.976562 L 261.816406 62.976562 L 261.816406 57.046875 L 262.792969 57.046875 L 262.792969 57.96875 C 263.019531 57.621094 263.289062 57.347656 263.613281 57.175781 C 263.929688 57.003906 264.296875 56.90625 264.710938 56.90625 C 265.382812 56.90625 265.902344 57.121094 266.25 57.542969 C 266.59375 57.96875 266.777344 58.585938 266.777344 59.398438 Z M 266.777344 59.398438 "/>
<path style=" stroke:none;fill-rule:nonzero;fill:rgb(0%,0%,0%);fill-opacity:1;" d="M 272.988281 57.273438 L 272.988281 58.183594 C 272.707031 58.03125 272.4375 57.925781 272.152344 57.847656 C 271.871094 57.773438 271.601562 57.730469 271.320312 57.730469 C 270.691406 57.730469 270.191406 57.933594 269.847656 58.335938 C 269.5 58.738281 269.324219 59.300781 269.324219 60.015625 C 269.324219 60.742188 269.5 61.308594 269.847656 61.710938 C 270.191406 62.109375 270.691406 62.304688 271.320312 62.304688 C 271.601562 62.304688 271.871094 62.273438 272.152344 62.199219 C 272.4375 62.121094 272.707031 62.003906 272.988281 61.851562 L 272.988281 62.75 C 272.707031 62.878906 272.425781 62.976562 272.144531 63.03125 C 271.851562 63.085938 271.535156 63.121094 271.210938 63.121094 C 270.324219 63.121094 269.605469 62.847656 269.085938 62.285156 C 268.554688 61.730469 268.296875 60.972656 268.296875 60.015625 C 268.296875 59.050781 268.554688 58.292969 269.085938 57.738281 C 269.617188 57.1875 270.34375 56.90625 271.277344 56.90625 C 271.578125 56.90625 271.871094 56.9375 272.152344 57.003906 C 272.4375 57.066406 272.71875 57.152344 272.988281 57.273438 Z M 272.988281 57.273438 "/>
<path style=" stroke:none;fill-rule:nonzero;fill:rgb(0%,0%,0%);fill-opacity:1;" d="M 279.75 59.769531 L 279.75 60.246094 L 275.273438 60.246094 C 275.316406 60.917969 275.511719 61.4375 275.882812 61.785156 C 276.238281 62.132812 276.738281 62.304688 277.386719 62.304688 C 277.757812 62.304688 278.125 62.261719 278.472656 62.175781 C 278.816406 62.089844 279.175781 61.949219 279.523438 61.753906 L 279.523438 62.675781 C 279.175781 62.828125 278.816406 62.945312 278.449219 63.011719 C 278.082031 63.074219 277.703125 63.121094 277.332031 63.121094 C 276.378906 63.121094 275.632812 62.847656 275.078125 62.304688 C 274.527344 61.761719 274.257812 61.015625 274.257812 60.070312 C 274.257812 59.105469 274.515625 58.335938 275.035156 57.761719 C 275.554688 57.199219 276.273438 56.90625 277.160156 56.90625 C 277.960938 56.90625 278.589844 57.164062 279.054688 57.675781 C 279.511719 58.195312 279.75 58.890625 279.75 59.769531 Z M 278.773438 59.484375 C 278.765625 58.953125 278.613281 58.53125 278.332031 58.207031 C 278.039062 57.890625 277.648438 57.730469 277.171875 57.730469 C 276.628906 57.730469 276.195312 57.890625 275.871094 58.195312 C 275.546875 58.5 275.351562 58.933594 275.308594 59.484375 Z M 278.773438 59.484375 "/>
<path style=" stroke:none;fill-rule:nonzero;fill:rgb(0%,0%,0%);fill-opacity:1;" d="M 289.046875 60.015625 C 289.046875 59.300781 288.894531 58.75 288.601562 58.335938 C 288.300781 57.925781 287.898438 57.71875 287.390625 57.71875 C 286.871094 57.71875 286.46875 57.925781 286.175781 58.335938 C 285.871094 58.75 285.730469 59.300781 285.730469 60.015625 C 285.730469 60.734375 285.871094 61.296875 286.175781 61.710938 C 286.46875 62.121094 286.871094 62.316406 287.390625 62.316406 C 287.898438 62.316406 288.300781 62.121094 288.601562 61.710938 C 288.894531 61.296875 289.046875 60.734375 289.046875 60.015625 Z M 285.730469 57.945312 C 285.925781 57.597656 286.1875 57.339844 286.5 57.164062 C 286.816406 56.992188 287.195312 56.90625 287.628906 56.90625 C 288.34375 56.90625 288.929688 57.199219 289.382812 57.761719 C 289.828125 58.335938 290.054688 59.085938 290.054688 60.015625 C 290.054688 60.949219 289.828125 61.710938 289.382812 62.273438 C 288.929688 62.835938 288.34375 63.121094 287.628906 63.121094 C 287.195312 63.121094 286.816406 63.03125 286.5 62.871094 C 286.1875 62.707031 285.925781 62.445312 285.730469 62.089844 L 285.730469 62.976562 L 284.757812 62.976562 L 284.757812 54.734375 L 285.730469 54.734375 Z M 285.730469 57.945312 "/>
<path style=" stroke:none;fill-rule:nonzero;fill:rgb(0%,0%,0%);fill-opacity:1;" d="M 296.742188 59.769531 L 296.742188 60.246094 L 292.265625 60.246094 C 292.308594 60.917969 292.503906 61.4375 292.871094 61.785156 C 293.230469 62.132812 293.726562 62.304688 294.378906 62.304688 C 294.746094 62.304688 295.117188 62.261719 295.460938 62.175781 C 295.808594 62.089844 296.167969 61.949219 296.511719 61.753906 L 296.511719 62.675781 C 296.167969 62.828125 295.808594 62.945312 295.441406 63.011719 C 295.070312 63.074219 294.691406 63.121094 294.324219 63.121094 C 293.371094 63.121094 292.625 62.847656 292.070312 62.304688 C 291.519531 61.761719 291.246094 61.015625 291.246094 60.070312 C 291.246094 59.105469 291.507812 58.335938 292.027344 57.761719 C 292.546875 57.199219 293.261719 56.90625 294.152344 56.90625 C 294.953125 56.90625 295.582031 57.164062 296.046875 57.675781 C 296.503906 58.195312 296.742188 58.890625 296.742188 59.769531 Z M 295.765625 59.484375 C 295.753906 58.953125 295.601562 58.53125 295.320312 58.207031 C 295.027344 57.890625 294.636719 57.730469 294.160156 57.730469 C 293.621094 57.730469 293.1875 57.890625 292.863281 58.195312 C 292.535156 58.5 292.339844 58.933594 292.296875 59.484375 Z M 295.765625 59.484375 "/>
<path style=" stroke:none;fill-rule:nonzero;fill:rgb(0%,0%,0%);fill-opacity:1;" d="M 299.296875 55.363281 L 299.296875 57.046875 L 301.304688 57.046875 L 301.304688 57.804688 L 299.296875 57.804688 L 299.296875 61.027344 C 299.296875 61.515625 299.363281 61.828125 299.492188 61.957031 C 299.625 62.101562 299.894531 62.164062 300.304688 62.164062 L 301.304688 62.164062 L 301.304688 62.976562 L 300.304688 62.976562 C 299.546875 62.976562 299.027344 62.835938 298.746094 62.554688 C 298.464844 62.273438 298.324219 61.761719 298.324219 61.027344 L 298.324219 57.804688 L 297.609375 57.804688 L 297.609375 57.046875 L 298.324219 57.046875 L 298.324219 55.363281 Z M 299.296875 55.363281 "/>
<path style=" stroke:none;fill-rule:nonzero;fill:rgb(0%,0%,0%);fill-opacity:1;" d="M 302.019531 57.046875 L 302.992188 57.046875 L 304.207031 61.675781 L 305.421875 57.046875 L 306.570312 57.046875 L 307.78125 61.675781 L 308.996094 57.046875 L 309.972656 57.046875 L 308.421875 62.976562 L 307.273438 62.976562 L 305.996094 58.121094 L 304.714844 62.976562 L 303.566406 62.976562 Z M 302.019531 57.046875 "/>
<path style=" stroke:none;fill-rule:nonzero;fill:rgb(0%,0%,0%);fill-opacity:1;" d="M 316.515625 59.769531 L 316.515625 60.246094 L 312.042969 60.246094 C 312.085938 60.917969 312.28125 61.4375 312.648438 61.785156 C 313.003906 62.132812 313.503906 62.304688 314.15625 62.304688 C 314.523438 62.304688 314.890625 62.261719 315.238281 62.175781 C 315.585938 62.089844 315.941406 61.949219 316.289062 61.753906 L 316.289062 62.675781 C 315.941406 62.828125 315.585938 62.945312 315.214844 63.011719 C 314.847656 63.074219 314.46875 63.121094 314.101562 63.121094 C 313.148438 63.121094 312.398438 62.847656 311.847656 62.304688 C 311.292969 61.761719 311.023438 61.015625 311.023438 60.070312 C 311.023438 59.105469 311.28125 58.335938 311.804688 57.761719 C 312.324219 57.199219 313.039062 56.90625 313.925781 56.90625 C 314.730469 56.90625 315.355469 57.164062 315.824219 57.675781 C 316.277344 58.195312 316.515625 58.890625 316.515625 59.769531 Z M 315.542969 59.484375 C 315.53125 58.953125 315.378906 58.53125 315.097656 58.207031 C 314.804688 57.890625 314.414062 57.730469 313.9375 57.730469 C 313.394531 57.730469 312.960938 57.890625 312.636719 58.195312 C 312.3125 58.5 312.117188 58.933594 312.074219 59.484375 Z M 315.542969 59.484375 "/>
<path style=" stroke:none;fill-rule:nonzero;fill:rgb(0%,0%,0%);fill-opacity:1;" d="M 323.179688 59.769531 L 323.179688 60.246094 L 318.707031 60.246094 C 318.75 60.917969 318.945312 61.4375 319.3125 61.785156 C 319.667969 62.132812 320.167969 62.304688 320.820312 62.304688 C 321.1875 62.304688 321.554688 62.261719 321.902344 62.175781 C 322.25 62.089844 322.605469 61.949219 322.953125 61.753906 L 322.953125 62.675781 C 322.605469 62.828125 322.25 62.945312 321.878906 63.011719 C 321.511719 63.074219 321.132812 63.121094 320.765625 63.121094 C 319.8125 63.121094 319.0625 62.847656 318.511719 62.304688 C 317.957031 61.761719 317.6875 61.015625 317.6875 60.070312 C 317.6875 59.105469 317.945312 58.335938 318.46875 57.761719 C 318.988281 57.199219 319.703125 56.90625 320.589844 56.90625 C 321.394531 56.90625 322.019531 57.164062 322.488281 57.675781 C 322.941406 58.195312 323.179688 58.890625 323.179688 59.769531 Z M 322.207031 59.484375 C 322.195312 58.953125 322.042969 58.53125 321.761719 58.207031 C 321.46875 57.890625 321.078125 57.730469 320.601562 57.730469 C 320.058594 57.730469 319.625 57.890625 319.300781 58.195312 C 318.976562 58.5 318.78125 58.933594 318.738281 59.484375 Z M 322.207031 59.484375 "/>
<path style=" stroke:none;fill-rule:nonzero;fill:rgb(0%,0%,0%);fill-opacity:1;" d="M 329.703125 59.398438 L 329.703125 62.976562 L 328.730469 62.976562 L 328.730469 59.433594 C 328.730469 58.867188 328.609375 58.457031 328.394531 58.171875 C 328.175781 57.890625 327.851562 57.75 327.417969 57.75 C 326.886719 57.75 326.476562 57.925781 326.171875 58.261719 C 325.867188 58.597656 325.714844 59.050781 325.714844 59.625 L 325.714844 62.976562 L 324.742188 62.976562 L 324.742188 57.046875 L 325.714844 57.046875 L 325.714844 57.96875 C 325.945312 57.621094 326.214844 57.347656 326.539062 57.175781 C 326.855469 57.003906 327.222656 56.90625 327.632812 56.90625 C 328.304688 56.90625 328.828125 57.121094 329.171875 57.542969 C 329.519531 57.96875 329.703125 58.585938 329.703125 59.398438 Z M 329.703125 59.398438 "/>
<path style=" stroke:none;fill-rule:nonzero;fill:rgb(0%,0%,0%);fill-opacity:1;" d="M 338.339844 55.796875 C 337.558594 55.796875 336.941406 56.089844 336.488281 56.664062 C 336.03125 57.25 335.804688 58.03125 335.804688 59.03125 C 335.804688 60.027344 336.03125 60.820312 336.488281 61.394531 C 336.941406 61.980469 337.558594 62.261719 338.339844 62.261719 C 339.109375 62.261719 339.726562 61.980469 340.183594 61.394531 C 340.636719 60.820312 340.863281 60.027344 340.863281 59.03125 C 340.863281 58.03125 340.636719 57.25 340.183594 56.664062 C 339.726562 56.089844 339.109375 55.796875 338.339844 55.796875 Z M 338.339844 54.929688 C 339.445312 54.929688 340.324219 55.308594 340.996094 56.046875 C 341.65625 56.785156 341.992188 57.78125 341.992188 59.03125 C 341.992188 60.289062 341.65625 61.277344 340.996094 62.011719 C 340.324219 62.75 339.445312 63.121094 338.339844 63.121094 C 337.222656 63.121094 336.335938 62.75 335.675781 62.011719 C 335.003906 61.277344 334.679688 60.289062 334.679688 59.03125 C 334.679688 57.78125 335.003906 56.785156 335.675781 56.046875 C 336.335938 55.308594 337.222656 54.929688 338.339844 54.929688 Z M 338.339844 54.929688 "/>
<path style=" stroke:none;fill-rule:nonzero;fill:rgb(0%,0%,0%);fill-opacity:1;" d="M 348.394531 55.332031 L 348.394531 56.375 C 347.984375 56.179688 347.605469 56.035156 347.246094 55.9375 C 346.878906 55.851562 346.53125 55.796875 346.207031 55.796875 C 345.621094 55.796875 345.167969 55.917969 344.851562 56.132812 C 344.539062 56.363281 344.386719 56.6875 344.386719 57.101562 C 344.386719 57.445312 344.484375 57.71875 344.703125 57.890625 C 344.90625 58.074219 345.308594 58.21875 345.894531 58.324219 L 346.542969 58.457031 C 347.335938 58.605469 347.917969 58.878906 348.296875 59.257812 C 348.679688 59.648438 348.875 60.160156 348.875 60.796875 C 348.875 61.566406 348.613281 62.144531 348.105469 62.535156 C 347.582031 62.925781 346.835938 63.121094 345.851562 63.121094 C 345.46875 63.121094 345.070312 63.074219 344.648438 63 C 344.222656 62.925781 343.789062 62.804688 343.347656 62.632812 L 343.347656 61.523438 C 343.78125 61.773438 344.203125 61.957031 344.613281 62.078125 C 345.027344 62.207031 345.4375 62.261719 345.851562 62.261719 C 346.457031 62.261719 346.921875 62.144531 347.257812 61.90625 C 347.582031 61.664062 347.757812 61.328125 347.757812 60.875 C 347.757812 60.484375 347.636719 60.179688 347.398438 59.964844 C 347.160156 59.746094 346.769531 59.582031 346.230469 59.476562 L 345.578125 59.34375 C 344.777344 59.191406 344.203125 58.945312 343.84375 58.597656 C 343.488281 58.261719 343.3125 57.792969 343.3125 57.1875 C 343.3125 56.492188 343.550781 55.9375 344.050781 55.539062 C 344.539062 55.136719 345.222656 54.929688 346.089844 54.929688 C 346.457031 54.929688 346.824219 54.964844 347.214844 55.027344 C 347.59375 55.09375 347.984375 55.203125 348.394531 55.332031 Z M 348.394531 55.332031 "/>
<path style=" stroke:none;fill-rule:nonzero;fill:rgb(0%,0%,0%);fill-opacity:1;" d="M 356.640625 59.996094 C 355.851562 59.996094 355.308594 60.09375 355.007812 60.265625 C 354.703125 60.453125 354.550781 60.753906 354.550781 61.1875 C 354.550781 61.535156 354.660156 61.816406 354.886719 62.011719 C 355.113281 62.21875 355.429688 62.316406 355.820312 62.316406 C 356.359375 62.316406 356.792969 62.132812 357.121094 61.742188 C 357.445312 61.363281 357.605469 60.851562 357.605469 60.210938 L 357.605469 59.996094 Z M 358.582031 59.59375 L 358.582031 62.976562 L 357.605469 62.976562 L 357.605469 62.078125 C 357.378906 62.445312 357.097656 62.707031 356.773438 62.871094 C 356.449219 63.03125 356.035156 63.121094 355.558594 63.121094 C 354.953125 63.121094 354.464844 62.957031 354.105469 62.621094 C 353.75 62.285156 353.574219 61.828125 353.574219 61.253906 C 353.574219 60.59375 353.792969 60.09375 354.246094 59.746094 C 354.691406 59.410156 355.351562 59.238281 356.242188 59.238281 L 357.605469 59.238281 L 357.605469 59.140625 C 357.605469 58.695312 357.457031 58.347656 357.164062 58.097656 C 356.871094 57.859375 356.457031 57.730469 355.925781 57.730469 C 355.582031 57.730469 355.253906 57.773438 354.929688 57.859375 C 354.605469 57.945312 354.300781 58.066406 354.007812 58.21875 L 354.007812 57.316406 C 354.355469 57.1875 354.703125 57.078125 355.039062 57.011719 C 355.375 56.949219 355.699219 56.90625 356.023438 56.90625 C 356.882812 56.90625 357.519531 57.132812 357.941406 57.578125 C 358.367188 58.023438 358.582031 58.695312 358.582031 59.59375 Z M 358.582031 59.59375 "/>
<path style=" stroke:none;fill-rule:nonzero;fill:rgb(0%,0%,0%);fill-opacity:1;" d="M 365.515625 59.398438 L 365.515625 62.976562 L 364.542969 62.976562 L 364.542969 59.433594 C 364.542969 58.867188 364.421875 58.457031 364.207031 58.171875 C 363.988281 57.890625 363.664062 57.75 363.230469 57.75 C 362.699219 57.75 362.289062 57.925781 361.984375 58.261719 C 361.679688 58.597656 361.53125 59.050781 361.53125 59.625 L 361.53125 62.976562 L 360.554688 62.976562 L 360.554688 57.046875 L 361.53125 57.046875 L 361.53125 57.96875 C 361.757812 57.621094 362.027344 57.347656 362.351562 57.175781 C 362.667969 57.003906 363.035156 56.90625 363.449219 56.90625 C 364.121094 56.90625 364.640625 57.121094 364.984375 57.542969 C 365.332031 57.96875 365.515625 58.585938 365.515625 59.398438 Z M 365.515625 59.398438 "/>
<path style=" stroke:none;fill-rule:nonzero;fill:rgb(0%,0%,0%);fill-opacity:1;" d="M 371.359375 57.945312 L 371.359375 54.734375 L 372.332031 54.734375 L 372.332031 62.976562 L 371.359375 62.976562 L 371.359375 62.089844 C 371.152344 62.445312 370.890625 62.707031 370.578125 62.871094 C 370.261719 63.03125 369.894531 63.121094 369.460938 63.121094 C 368.746094 63.121094 368.160156 62.835938 367.707031 62.273438 C 367.25 61.710938 367.035156 60.949219 367.035156 60.015625 C 367.035156 59.085938 367.25 58.335938 367.707031 57.761719 C 368.160156 57.199219 368.746094 56.90625 369.460938 56.90625 C 369.894531 56.90625 370.261719 56.992188 370.578125 57.164062 C 370.890625 57.339844 371.152344 57.597656 371.359375 57.945312 Z M 368.042969 60.015625 C 368.042969 60.734375 368.183594 61.296875 368.476562 61.710938 C 368.769531 62.121094 369.167969 62.316406 369.6875 62.316406 C 370.210938 62.316406 370.609375 62.121094 370.914062 61.710938 C 371.207031 61.296875 371.359375 60.734375 371.359375 60.015625 C 371.359375 59.300781 371.207031 58.75 370.914062 58.335938 C 370.609375 57.925781 370.210938 57.71875 369.6875 57.71875 C 369.167969 57.71875 368.769531 57.925781 368.476562 58.335938 C 368.183594 58.75 368.042969 59.300781 368.042969 60.015625 Z M 368.042969 60.015625 "/>
<path style=" stroke:none;fill-rule:nonzero;fill:rgb(0%,0%,0%);fill-opacity:1;" d="M 376.742188 55.070312 L 383.417969 55.070312 L 383.417969 55.972656 L 380.613281 55.972656 L 380.613281 62.976562 L 379.539062 62.976562 L 379.539062 55.972656 L 376.742188 55.972656 Z M 376.742188 55.070312 "/>
<path style=" stroke:none;fill-rule:nonzero;fill:rgb(0%,0%,0%);fill-opacity:1;" d="M 389.183594 55.332031 L 389.183594 56.375 C 388.769531 56.179688 388.390625 56.035156 388.035156 55.9375 C 387.667969 55.851562 387.320312 55.796875 386.996094 55.796875 C 386.410156 55.796875 385.953125 55.917969 385.640625 56.132812 C 385.324219 56.363281 385.171875 56.6875 385.171875 57.101562 C 385.171875 57.445312 385.269531 57.71875 385.488281 57.890625 C 385.695312 58.074219 386.09375 58.21875 386.679688 58.324219 L 387.332031 58.457031 C 388.121094 58.605469 388.707031 58.878906 389.085938 59.257812 C 389.464844 59.648438 389.660156 60.160156 389.660156 60.796875 C 389.660156 61.566406 389.398438 62.144531 388.890625 62.535156 C 388.371094 62.925781 387.621094 63.121094 386.636719 63.121094 C 386.257812 63.121094 385.855469 63.074219 385.433594 63 C 385.011719 62.925781 384.578125 62.804688 384.132812 62.632812 L 384.132812 61.523438 C 384.566406 61.773438 384.988281 61.957031 385.402344 62.078125 C 385.8125 62.207031 386.226562 62.261719 386.636719 62.261719 C 387.242188 62.261719 387.710938 62.144531 388.046875 61.90625 C 388.371094 61.664062 388.542969 61.328125 388.542969 60.875 C 388.542969 60.484375 388.425781 60.179688 388.1875 59.964844 C 387.949219 59.746094 387.558594 59.582031 387.015625 59.476562 L 386.367188 59.34375 C 385.5625 59.191406 384.988281 58.945312 384.632812 58.597656 C 384.273438 58.261719 384.101562 57.792969 384.101562 57.1875 C 384.101562 56.492188 384.339844 55.9375 384.839844 55.539062 C 385.324219 55.136719 386.007812 54.929688 386.875 54.929688 C 387.242188 54.929688 387.613281 54.964844 388.003906 55.027344 C 388.382812 55.09375 388.769531 55.203125 389.183594 55.332031 Z M 389.183594 55.332031 "/>
<path style="fill-rule:nonzero;fill:rgb(100%,64.705882%,0%);fill-opacity:1;stroke-width:2.5;stroke-linecap:butt;stroke-linejoin:round;stroke:rgb(100%,64.705882%,0%);stroke-opacity:1;stroke-miterlimit:4;" d="M 193.967024 73.111719 L 199.965521 67.111516 M 193.967024 67.111516 L 199.965521 73.111719 " transform="matrix(1.083605,0,0,1.084599,0,0)"/>
<path style=" stroke:none;fill-rule:nonzero;fill:rgb(0%,0%,0%);fill-opacity:1;" d="M 238.574219 74.097656 C 238.8125 73.664062 239.105469 73.347656 239.441406 73.132812 C 239.777344 72.925781 240.175781 72.816406 240.644531 72.816406 C 241.25 72.816406 241.726562 73.035156 242.0625 73.46875 C 242.398438 73.902344 242.570312 74.519531 242.570312 75.3125 L 242.570312 78.890625 L 241.597656 78.890625 L 241.597656 75.34375 C 241.597656 74.78125 241.488281 74.359375 241.292969 74.074219 C 241.085938 73.804688 240.785156 73.664062 240.371094 73.664062 C 239.863281 73.664062 239.460938 73.835938 239.167969 74.171875 C 238.875 74.507812 238.734375 74.964844 238.734375 75.539062 L 238.734375 78.890625 L 237.761719 78.890625 L 237.761719 75.34375 C 237.761719 74.78125 237.652344 74.359375 237.457031 74.074219 C 237.25 73.804688 236.9375 73.664062 236.523438 73.664062 C 236.027344 73.664062 235.625 73.835938 235.332031 74.171875 C 235.039062 74.507812 234.898438 74.964844 234.898438 75.539062 L 234.898438 78.890625 L 233.925781 78.890625 L 233.925781 72.957031 L 234.898438 72.957031 L 234.898438 73.878906 C 235.117188 73.523438 235.386719 73.25 235.703125 73.078125 C 236.003906 72.90625 236.375 72.816406 236.808594 72.816406 C 237.238281 72.816406 237.597656 72.925781 237.902344 73.144531 C 238.203125 73.359375 238.421875 73.683594 238.574219 74.097656 Z M 238.574219 74.097656 "/>
<path style=" stroke:none;fill-rule:nonzero;fill:rgb(0%,0%,0%);fill-opacity:1;" d="M 244.511719 72.957031 L 245.484375 72.957031 L 245.484375 78.890625 L 244.511719 78.890625 Z M 244.511719 70.648438 L 245.484375 70.648438 L 245.484375 71.886719 L 244.511719 71.886719 Z M 244.511719 70.648438 "/>
<path style=" stroke:none;fill-rule:nonzero;fill:rgb(0%,0%,0%);fill-opacity:1;" d="M 252.453125 75.3125 L 252.453125 78.890625 L 251.480469 78.890625 L 251.480469 75.34375 C 251.480469 74.78125 251.359375 74.367188 251.144531 74.085938 C 250.925781 73.804688 250.601562 73.664062 250.167969 73.664062 C 249.636719 73.664062 249.226562 73.835938 248.921875 74.171875 C 248.617188 74.507812 248.464844 74.964844 248.464844 75.539062 L 248.464844 78.890625 L 247.492188 78.890625 L 247.492188 72.957031 L 248.464844 72.957031 L 248.464844 73.878906 C 248.695312 73.535156 248.964844 73.261719 249.289062 73.089844 C 249.605469 72.914062 249.972656 72.816406 250.382812 72.816406 C 251.054688 72.816406 251.578125 73.035156 251.921875 73.457031 C 252.269531 73.878906 252.453125 74.5 252.453125 75.3125 Z M 252.453125 75.3125 "/>
<path style=" stroke:none;fill-rule:nonzero;fill:rgb(0%,0%,0%);fill-opacity:1;" d="M 254.535156 77.546875 L 255.652344 77.546875 L 255.652344 78.890625 L 254.535156 78.890625 Z M 254.535156 77.546875 "/>
<path style=" stroke:none;fill-rule:nonzero;fill:rgb(0%,0%,0%);fill-opacity:1;" d="M 265.1875 73.859375 L 265.1875 70.648438 L 266.160156 70.648438 L 266.160156 78.890625 L 265.1875 78.890625 L 265.1875 78.003906 C 264.980469 78.359375 264.71875 78.621094 264.40625 78.78125 C 264.09375 78.945312 263.722656 79.03125 263.289062 79.03125 C 262.574219 79.03125 261.988281 78.75 261.535156 78.1875 C 261.078125 77.621094 260.863281 76.863281 260.863281 75.929688 C 260.863281 74.996094 261.078125 74.25 261.535156 73.675781 C 261.988281 73.109375 262.574219 72.816406 263.289062 72.816406 C 263.722656 72.816406 264.09375 72.90625 264.40625 73.078125 C 264.71875 73.25 264.980469 73.511719 265.1875 73.859375 Z M 261.871094 75.929688 C 261.871094 76.644531 262.011719 77.210938 262.304688 77.621094 C 262.597656 78.035156 262.996094 78.230469 263.515625 78.230469 C 264.039062 78.230469 264.4375 78.035156 264.742188 77.621094 C 265.035156 77.210938 265.1875 76.644531 265.1875 75.929688 C 265.1875 75.214844 265.035156 74.660156 264.742188 74.25 C 264.4375 73.835938 264.039062 73.632812 263.515625 73.632812 C 262.996094 73.632812 262.597656 73.835938 262.304688 74.25 C 262.011719 74.660156 261.871094 75.214844 261.871094 75.929688 Z M 261.871094 75.929688 "/>
<path style=" stroke:none;fill-rule:nonzero;fill:rgb(0%,0%,0%);fill-opacity:1;" d="M 268.167969 72.957031 L 269.140625 72.957031 L 269.140625 78.890625 L 268.167969 78.890625 Z M 268.167969 70.648438 L 269.140625 70.648438 L 269.140625 71.886719 L 268.167969 71.886719 Z M 268.167969 70.648438 "/>
<path style=" stroke:none;fill-rule:nonzero;fill:rgb(0%,0%,0%);fill-opacity:1;" d="M 274.960938 73.132812 L 274.960938 74.054688 C 274.679688 73.925781 274.398438 73.816406 274.105469 73.738281 C 273.800781 73.675781 273.496094 73.632812 273.183594 73.632812 C 272.695312 73.632812 272.328125 73.707031 272.089844 73.859375 C 271.851562 74.011719 271.730469 74.226562 271.730469 74.519531 C 271.730469 74.75 271.816406 74.921875 271.992188 75.050781 C 272.164062 75.183594 272.511719 75.3125 273.03125 75.421875 L 273.367188 75.496094 C 274.0625 75.648438 274.546875 75.867188 274.839844 76.125 C 275.121094 76.398438 275.273438 76.777344 275.273438 77.253906 C 275.273438 77.808594 275.058594 78.242188 274.625 78.554688 C 274.191406 78.878906 273.585938 79.03125 272.824219 79.03125 C 272.5 79.03125 272.175781 79 271.828125 78.945312 C 271.480469 78.890625 271.125 78.804688 270.746094 78.675781 L 270.746094 77.664062 C 271.101562 77.859375 271.460938 78.003906 271.808594 78.089844 C 272.152344 78.1875 272.5 78.230469 272.847656 78.230469 C 273.300781 78.230469 273.660156 78.152344 273.910156 78.003906 C 274.148438 77.851562 274.277344 77.621094 274.277344 77.328125 C 274.277344 77.070312 274.179688 76.863281 274.007812 76.722656 C 273.832031 76.582031 273.441406 76.441406 272.835938 76.308594 L 272.5 76.234375 C 271.894531 76.105469 271.449219 75.910156 271.1875 75.648438 C 270.917969 75.386719 270.789062 75.03125 270.789062 74.5625 C 270.789062 74.011719 270.984375 73.578125 271.375 73.273438 C 271.765625 72.96875 272.328125 72.816406 273.0625 72.816406 C 273.421875 72.816406 273.757812 72.851562 274.082031 72.90625 C 274.398438 72.957031 274.691406 73.035156 274.960938 73.132812 Z M 274.960938 73.132812 "/>
<path style=" stroke:none;fill-rule:nonzero;fill:rgb(0%,0%,0%);fill-opacity:1;" d="M 277.789062 71.277344 L 277.789062 72.957031 L 279.792969 72.957031 L 279.792969 73.71875 L 277.789062 73.71875 L 277.789062 76.9375 C 277.789062 77.425781 277.855469 77.742188 277.984375 77.871094 C 278.113281 78.011719 278.382812 78.078125 278.796875 78.078125 L 279.792969 78.078125 L 279.792969 78.890625 L 278.796875 78.890625 C 278.039062 78.890625 277.519531 78.75 277.234375 78.46875 C 276.953125 78.1875 276.8125 77.675781 276.8125 76.9375 L 276.8125 73.71875 L 276.097656 73.71875 L 276.097656 72.957031 L 276.8125 72.957031 L 276.8125 71.277344 Z M 277.789062 71.277344 "/>
<path style=" stroke:none;fill-rule:nonzero;fill:rgb(0%,0%,0%);fill-opacity:1;" d="M 283.769531 75.910156 C 282.980469 75.910156 282.4375 76.007812 282.132812 76.179688 C 281.832031 76.363281 281.679688 76.667969 281.679688 77.101562 C 281.679688 77.449219 281.785156 77.730469 282.015625 77.925781 C 282.242188 78.132812 282.554688 78.230469 282.945312 78.230469 C 283.488281 78.230469 283.921875 78.046875 284.246094 77.65625 C 284.570312 77.277344 284.734375 76.765625 284.734375 76.125 L 284.734375 75.910156 Z M 285.710938 75.507812 L 285.710938 78.890625 L 284.734375 78.890625 L 284.734375 77.992188 C 284.507812 78.359375 284.226562 78.621094 283.898438 78.78125 C 283.574219 78.945312 283.164062 79.03125 282.6875 79.03125 C 282.078125 79.03125 281.59375 78.871094 281.234375 78.535156 C 280.875 78.199219 280.703125 77.742188 280.703125 77.167969 C 280.703125 76.503906 280.921875 76.007812 281.375 75.660156 C 281.820312 75.324219 282.480469 75.148438 283.371094 75.148438 L 284.734375 75.148438 L 284.734375 75.050781 C 284.734375 74.605469 284.582031 74.261719 284.289062 74.011719 C 283.996094 73.773438 283.585938 73.640625 283.054688 73.640625 C 282.707031 73.640625 282.382812 73.683594 282.058594 73.773438 C 281.734375 73.859375 281.429688 73.976562 281.136719 74.128906 L 281.136719 73.230469 C 281.484375 73.101562 281.832031 72.992188 282.167969 72.925781 C 282.503906 72.859375 282.828125 72.816406 283.152344 72.816406 C 284.007812 72.816406 284.648438 73.046875 285.070312 73.492188 C 285.492188 73.933594 285.710938 74.605469 285.710938 75.507812 Z M 285.710938 75.507812 "/>
<path style=" stroke:none;fill-rule:nonzero;fill:rgb(0%,0%,0%);fill-opacity:1;" d="M 292.644531 75.3125 L 292.644531 78.890625 L 291.667969 78.890625 L 291.667969 75.34375 C 291.667969 74.78125 291.550781 74.367188 291.332031 74.085938 C 291.117188 73.804688 290.792969 73.664062 290.359375 73.664062 C 289.828125 73.664062 289.414062 73.835938 289.113281 74.171875 C 288.808594 74.507812 288.65625 74.964844 288.65625 75.539062 L 288.65625 78.890625 L 287.683594 78.890625 L 287.683594 72.957031 L 288.65625 72.957031 L 288.65625 73.878906 C 288.882812 73.535156 289.15625 73.261719 289.480469 73.089844 C 289.796875 72.914062 290.164062 72.816406 290.574219 72.816406 C 291.246094 72.816406 291.765625 73.035156 292.113281 73.457031 C 292.460938 73.878906 292.644531 74.5 292.644531 75.3125 Z M 292.644531 75.3125 "/>
<path style=" stroke:none;fill-rule:nonzero;fill:rgb(0%,0%,0%);fill-opacity:1;" d="M 298.855469 73.1875 L 298.855469 74.097656 C 298.570312 73.945312 298.300781 73.835938 298.019531 73.761719 C 297.738281 73.683594 297.46875 73.640625 297.183594 73.640625 C 296.554688 73.640625 296.058594 73.847656 295.710938 74.25 C 295.363281 74.652344 295.191406 75.214844 295.191406 75.929688 C 295.191406 76.65625 295.363281 77.222656 295.710938 77.621094 C 296.058594 78.023438 296.554688 78.21875 297.183594 78.21875 C 297.46875 78.21875 297.738281 78.1875 298.019531 78.109375 C 298.300781 78.035156 298.570312 77.914062 298.855469 77.761719 L 298.855469 78.664062 C 298.570312 78.792969 298.289062 78.890625 298.007812 78.945312 C 297.714844 79 297.402344 79.03125 297.078125 79.03125 C 296.1875 79.03125 295.472656 78.761719 294.953125 78.199219 C 294.421875 77.644531 294.160156 76.886719 294.160156 75.929688 C 294.160156 74.964844 294.421875 74.207031 294.953125 73.652344 C 295.484375 73.101562 296.210938 72.816406 297.140625 72.816406 C 297.445312 72.816406 297.738281 72.851562 298.019531 72.914062 C 298.300781 72.980469 298.582031 73.066406 298.855469 73.1875 Z M 298.855469 73.1875 "/>
<path style=" stroke:none;fill-rule:nonzero;fill:rgb(0%,0%,0%);fill-opacity:1;" d="M 305.617188 75.679688 L 305.617188 76.160156 L 301.140625 76.160156 C 301.183594 76.832031 301.378906 77.351562 301.746094 77.699219 C 302.105469 78.046875 302.601562 78.21875 303.253906 78.21875 C 303.621094 78.21875 303.988281 78.175781 304.335938 78.089844 C 304.683594 78.003906 305.042969 77.859375 305.386719 77.664062 L 305.386719 78.585938 C 305.042969 78.738281 304.683594 78.859375 304.316406 78.925781 C 303.945312 78.988281 303.566406 79.03125 303.199219 79.03125 C 302.246094 79.03125 301.496094 78.761719 300.945312 78.21875 C 300.394531 77.675781 300.121094 76.929688 300.121094 75.984375 C 300.121094 75.019531 300.382812 74.25 300.902344 73.675781 C 301.421875 73.109375 302.136719 72.816406 303.027344 72.816406 C 303.828125 72.816406 304.457031 73.078125 304.921875 73.585938 C 305.378906 74.109375 305.617188 74.800781 305.617188 75.679688 Z M 304.640625 75.398438 C 304.628906 74.867188 304.476562 74.445312 304.195312 74.121094 C 303.902344 73.804688 303.511719 73.640625 303.035156 73.640625 C 302.496094 73.640625 302.0625 73.804688 301.734375 74.109375 C 301.410156 74.414062 301.214844 74.847656 301.171875 75.398438 Z M 304.640625 75.398438 "/>
<path style=" stroke:none;fill-rule:nonzero;fill:rgb(0%,0%,0%);fill-opacity:1;" d="M 310.785156 73.96875 L 317.566406 73.96875 L 317.566406 74.855469 L 310.785156 74.855469 Z M 310.785156 76.125 L 317.566406 76.125 L 317.566406 77.027344 L 310.785156 77.027344 Z M 310.785156 76.125 "/>
<path style=" stroke:none;fill-rule:nonzero;fill:rgb(0%,0%,0%);fill-opacity:1;" d="M 323.507812 77.992188 L 325.25 77.992188 L 325.25 71.960938 L 323.355469 72.339844 L 323.355469 71.363281 L 325.238281 70.984375 L 326.3125 70.984375 L 326.3125 77.992188 L 328.058594 77.992188 L 328.058594 78.890625 L 323.507812 78.890625 Z M 323.507812 77.992188 "/>
<path style=" stroke:none;fill-rule:nonzero;fill:rgb(0%,0%,0%);fill-opacity:1;" d="M 333.148438 71.917969 L 330.453125 76.136719 L 333.148438 76.136719 Z M 332.867188 70.984375 L 334.210938 70.984375 L 334.210938 76.136719 L 335.339844 76.136719 L 335.339844 77.027344 L 334.210938 77.027344 L 334.210938 78.890625 L 333.148438 78.890625 L 333.148438 77.027344 L 329.585938 77.027344 L 329.585938 75.996094 Z M 332.867188 70.984375 "/>
<path style=" stroke:none;fill-rule:nonzero;fill:rgb(0%,0%,0%);fill-opacity:1;" d="M 337.105469 77.546875 L 338.222656 77.546875 L 338.222656 78.890625 L 337.105469 78.890625 Z M 337.105469 77.546875 "/>
<path style=" stroke:none;fill-rule:nonzero;fill:rgb(0%,0%,0%);fill-opacity:1;" d="M 341.472656 77.992188 L 345.199219 77.992188 L 345.199219 78.890625 L 340.183594 78.890625 L 340.183594 77.992188 C 340.582031 77.578125 341.136719 77.015625 341.839844 76.300781 C 342.535156 75.59375 342.976562 75.140625 343.164062 74.933594 C 343.507812 74.554688 343.746094 74.226562 343.878906 73.957031 C 344.007812 73.695312 344.082031 73.425781 344.082031 73.164062 C 344.082031 72.753906 343.933594 72.40625 343.640625 72.144531 C 343.347656 71.886719 342.96875 71.742188 342.492188 71.742188 C 342.15625 71.742188 341.796875 71.808594 341.429688 71.917969 C 341.058594 72.035156 340.660156 72.210938 340.238281 72.449219 L 340.238281 71.363281 C 340.671875 71.191406 341.070312 71.0625 341.441406 70.972656 C 341.808594 70.886719 342.15625 70.84375 342.46875 70.84375 C 343.28125 70.84375 343.933594 71.050781 344.417969 71.460938 C 344.90625 71.875 345.15625 72.417969 345.15625 73.101562 C 345.15625 73.425781 345.089844 73.738281 344.972656 74.023438 C 344.851562 74.316406 344.636719 74.660156 344.3125 75.050781 C 344.222656 75.160156 343.941406 75.453125 343.464844 75.941406 C 342.988281 76.429688 342.328125 77.113281 341.472656 77.992188 Z M 341.472656 77.992188 "/>
<path style=" stroke:none;fill-rule:nonzero;fill:rgb(0%,0%,0%);fill-opacity:1;" d="M 355.363281 74.097656 C 355.601562 73.664062 355.894531 73.347656 356.230469 73.132812 C 356.566406 72.925781 356.96875 72.816406 357.433594 72.816406 C 358.039062 72.816406 358.515625 73.035156 358.851562 73.46875 C 359.1875 73.902344 359.363281 74.519531 359.363281 75.3125 L 359.363281 78.890625 L 358.386719 78.890625 L 358.386719 75.34375 C 358.386719 74.78125 358.277344 74.359375 358.082031 74.074219 C 357.878906 73.804688 357.574219 73.664062 357.164062 73.664062 C 356.652344 73.664062 356.253906 73.835938 355.960938 74.171875 C 355.667969 74.507812 355.527344 74.964844 355.527344 75.539062 L 355.527344 78.890625 L 354.550781 78.890625 L 354.550781 75.34375 C 354.550781 74.78125 354.441406 74.359375 354.246094 74.074219 C 354.042969 73.804688 353.726562 73.664062 353.316406 73.664062 C 352.816406 73.664062 352.417969 73.835938 352.125 74.171875 C 351.832031 74.507812 351.691406 74.964844 351.691406 75.539062 L 351.691406 78.890625 L 350.714844 78.890625 L 350.714844 72.957031 L 351.691406 72.957031 L 351.691406 73.878906 C 351.90625 73.523438 352.179688 73.25 352.492188 73.078125 C 352.796875 72.90625 353.164062 72.816406 353.597656 72.816406 C 354.03125 72.816406 354.386719 72.925781 354.691406 73.144531 C 354.996094 73.359375 355.210938 73.683594 355.363281 74.097656 Z M 355.363281 74.097656 "/>
</g>
</svg>
