<?xml version="1.0" encoding="UTF-8"?>
<svg xmlns="http://www.w3.org/2000/svg" xmlns:xlink="http://www.w3.org/1999/xlink" width="500px" height="px" viewBox="0 0 499 375" version="1.1">
<g id="surface1">
<path style=" stroke:none;fill-rule:nonzero;fill:rgb(100%,100%,100%);fill-opacity:1;" d="M 0 374.835938 L 499.324219 374.835938 L 499.324219 0 L 0 0 Z M 0 374.835938 "/>
<path style=" stroke:none;fill-rule:nonzero;fill:rgb(100%,100%,100%);fill-opacity:1;" d="M 111.722656 333.605469 L 400.085938 333.605469 L 400.085938 44.980469 L 111.722656 44.980469 Z M 111.722656 333.605469 "/>
<path style="fill:none;stroke-width:0.8;stroke-linecap:butt;stroke-linejoin:round;stroke:rgb(0%,0%,0%);stroke-opacity:1;stroke-miterlimit:4;" d="M 113.556883 307.584242 L 113.556883 311.084961 " transform="matrix(1.083605,0,0,1.084599,0,0)"/>
<path style=" stroke:none;fill-rule:nonzero;fill:rgb(0%,0%,0%);fill-opacity:1;" d="M 123.054688 342.230469 C 122.5 342.230469 122.089844 342.503906 121.808594 343.046875 C 121.523438 343.585938 121.394531 344.402344 121.394531 345.484375 C 121.394531 346.570312 121.523438 347.382812 121.808594 347.925781 C 122.089844 348.46875 122.5 348.738281 123.054688 348.738281 C 123.605469 348.738281 124.015625 348.46875 124.300781 347.925781 C 124.570312 347.382812 124.710938 346.570312 124.710938 345.484375 C 124.710938 344.402344 124.570312 343.585938 124.300781 343.046875 C 124.015625 342.503906 123.605469 342.230469 123.054688 342.230469 Z M 123.054688 341.386719 C 123.929688 341.386719 124.601562 341.742188 125.078125 342.4375 C 125.546875 343.144531 125.785156 344.164062 125.785156 345.484375 C 125.785156 346.820312 125.546875 347.839844 125.078125 348.535156 C 124.601562 349.226562 123.929688 349.574219 123.042969 349.574219 C 122.152344 349.574219 121.480469 349.226562 121.015625 348.535156 C 120.550781 347.839844 120.324219 346.820312 120.324219 345.484375 C 120.324219 344.164062 120.550781 343.144531 121.015625 342.4375 C 121.480469 341.742188 122.164062 341.386719 123.054688 341.386719 Z M 123.054688 341.386719 "/>
<path style="fill:none;stroke-width:0.8;stroke-linecap:butt;stroke-linejoin:round;stroke:rgb(0%,0%,0%);stroke-opacity:1;stroke-miterlimit:4;" d="M 167.031465 307.584242 L 167.031465 311.084961 " transform="matrix(1.083605,0,0,1.084599,0,0)"/>
<path style=" stroke:none;fill-rule:nonzero;fill:rgb(0%,0%,0%);fill-opacity:1;" d="M 175.449219 348.535156 L 177.195312 348.535156 L 177.195312 342.503906 L 175.296875 342.882812 L 175.296875 341.90625 L 177.183594 341.527344 L 178.257812 341.527344 L 178.257812 348.535156 L 180 348.535156 L 180 349.433594 L 175.449219 349.433594 Z M 175.449219 348.535156 "/>
<path style=" stroke:none;fill-rule:nonzero;fill:rgb(0%,0%,0%);fill-opacity:1;" d="M 184.445312 342.230469 C 183.890625 342.230469 183.480469 342.503906 183.199219 343.046875 C 182.914062 343.585938 182.785156 344.402344 182.785156 345.484375 C 182.785156 346.570312 182.914062 347.382812 183.199219 347.925781 C 183.480469 348.46875 183.890625 348.738281 184.445312 348.738281 C 184.996094 348.738281 185.40625 348.46875 185.691406 347.925781 C 185.960938 347.382812 186.101562 346.570312 186.101562 345.484375 C 186.101562 344.402344 185.960938 343.585938 185.691406 343.046875 C 185.40625 342.503906 184.996094 342.230469 184.445312 342.230469 Z M 184.445312 341.386719 C 185.320312 341.386719 185.992188 341.742188 186.46875 342.4375 C 186.9375 343.144531 187.175781 344.164062 187.175781 345.484375 C 187.175781 346.820312 186.9375 347.839844 186.46875 348.535156 C 185.992188 349.226562 185.320312 349.574219 184.433594 349.574219 C 183.542969 349.574219 182.871094 349.226562 182.40625 348.535156 C 181.941406 347.839844 181.714844 346.820312 181.714844 345.484375 C 181.714844 344.164062 181.941406 343.144531 182.40625 342.4375 C 182.871094 341.742188 183.554688 341.386719 184.445312 341.386719 Z M 184.445312 341.386719 "/>
<path style="fill:none;stroke-width:0.8;stroke-linecap:butt;stroke-linejoin:round;stroke:rgb(0%,0%,0%);stroke-opacity:1;stroke-miterlimit:4;" d="M 220.506047 307.584242 L 220.506047 311.084961 " transform="matrix(1.083605,0,0,1.084599,0,0)"/>
<path style=" stroke:none;fill-rule:nonzero;fill:rgb(0%,0%,0%);fill-opacity:1;" d="M 234.128906 348.535156 L 237.859375 348.535156 L 237.859375 349.433594 L 232.839844 349.433594 L 232.839844 348.535156 C 233.242188 348.121094 233.792969 347.558594 234.5 346.839844 C 235.191406 346.136719 235.636719 345.679688 235.820312 345.476562 C 236.167969 345.09375 236.40625 344.769531 236.535156 344.5 C 236.664062 344.238281 236.742188 343.96875 236.742188 343.707031 C 236.742188 343.296875 236.589844 342.949219 236.296875 342.6875 C 236.003906 342.425781 235.625 342.285156 235.148438 342.285156 C 234.8125 342.285156 234.457031 342.351562 234.085938 342.460938 C 233.71875 342.578125 233.316406 342.753906 232.894531 342.992188 L 232.894531 341.90625 C 233.328125 341.734375 233.730469 341.601562 234.097656 341.515625 C 234.464844 341.429688 234.8125 341.386719 235.128906 341.386719 C 235.941406 341.386719 236.589844 341.59375 237.078125 342.003906 C 237.566406 342.417969 237.8125 342.957031 237.8125 343.640625 C 237.8125 343.96875 237.75 344.28125 237.628906 344.5625 C 237.511719 344.855469 237.292969 345.203125 236.96875 345.59375 C 236.882812 345.703125 236.601562 345.996094 236.125 346.484375 C 235.648438 346.972656 234.984375 347.65625 234.128906 348.535156 Z M 234.128906 348.535156 "/>
<path style=" stroke:none;fill-rule:nonzero;fill:rgb(0%,0%,0%);fill-opacity:1;" d="M 242.386719 342.230469 C 241.835938 342.230469 241.421875 342.503906 241.140625 343.046875 C 240.859375 343.585938 240.730469 344.402344 240.730469 345.484375 C 240.730469 346.570312 240.859375 347.382812 241.140625 347.925781 C 241.421875 348.46875 241.835938 348.738281 242.386719 348.738281 C 242.941406 348.738281 243.351562 348.46875 243.632812 347.925781 C 243.902344 347.382812 244.046875 346.570312 244.046875 345.484375 C 244.046875 344.402344 243.902344 343.585938 243.632812 343.046875 C 243.351562 342.503906 242.941406 342.230469 242.386719 342.230469 Z M 242.386719 341.386719 C 243.265625 341.386719 243.9375 341.742188 244.414062 342.4375 C 244.878906 343.144531 245.117188 344.164062 245.117188 345.484375 C 245.117188 346.820312 244.878906 347.839844 244.414062 348.535156 C 243.9375 349.226562 243.265625 349.574219 242.375 349.574219 C 241.488281 349.574219 240.816406 349.226562 240.351562 348.535156 C 239.882812 347.839844 239.65625 346.820312 239.65625 345.484375 C 239.65625 344.164062 239.882812 343.144531 240.351562 342.4375 C 240.816406 341.742188 241.5 341.386719 242.386719 341.386719 Z M 242.386719 341.386719 "/>
<path style="fill:none;stroke-width:0.8;stroke-linecap:butt;stroke-linejoin:round;stroke:rgb(0%,0%,0%);stroke-opacity:1;stroke-miterlimit:4;" d="M 273.980629 307.584242 L 273.980629 311.084961 " transform="matrix(1.083605,0,0,1.084599,0,0)"/>
<path style=" stroke:none;fill-rule:nonzero;fill:rgb(0%,0%,0%);fill-opacity:1;" d="M 294.394531 345.171875 C 294.902344 345.28125 295.304688 345.507812 295.585938 345.855469 C 295.867188 346.203125 296.019531 346.636719 296.019531 347.132812 C 296.019531 347.914062 295.75 348.523438 295.21875 348.945312 C 294.675781 349.367188 293.917969 349.574219 292.929688 349.574219 C 292.59375 349.574219 292.25 349.542969 291.902344 349.476562 C 291.554688 349.421875 291.1875 349.324219 290.816406 349.195312 L 290.816406 348.164062 C 291.109375 348.339844 291.433594 348.46875 291.792969 348.554688 C 292.140625 348.640625 292.507812 348.683594 292.898438 348.683594 C 293.570312 348.683594 294.078125 348.554688 294.425781 348.296875 C 294.773438 348.035156 294.957031 347.644531 294.957031 347.132812 C 294.957031 346.679688 294.792969 346.308594 294.46875 346.050781 C 294.144531 345.789062 293.6875 345.648438 293.105469 345.648438 L 292.183594 345.648438 L 292.183594 344.769531 L 293.148438 344.769531 C 293.667969 344.769531 294.070312 344.671875 294.351562 344.457031 C 294.632812 344.25 294.773438 343.945312 294.773438 343.542969 C 294.773438 343.144531 294.621094 342.828125 294.339844 342.613281 C 294.046875 342.394531 293.636719 342.285156 293.105469 342.285156 C 292.8125 342.285156 292.496094 342.320312 292.160156 342.382812 C 291.824219 342.449219 291.457031 342.546875 291.054688 342.675781 L 291.054688 341.722656 C 291.457031 341.613281 291.835938 341.527344 292.195312 341.472656 C 292.539062 341.417969 292.875 341.386719 293.203125 341.386719 C 294.003906 341.386719 294.644531 341.570312 295.121094 341.9375 C 295.597656 342.308594 295.835938 342.808594 295.835938 343.4375 C 295.835938 343.871094 295.703125 344.238281 295.457031 344.542969 C 295.207031 344.847656 294.847656 345.0625 294.394531 345.171875 Z M 294.394531 345.171875 "/>
<path style=" stroke:none;fill-rule:nonzero;fill:rgb(0%,0%,0%);fill-opacity:1;" d="M 300.332031 342.230469 C 299.777344 342.230469 299.367188 342.503906 299.085938 343.046875 C 298.804688 343.585938 298.675781 344.402344 298.675781 345.484375 C 298.675781 346.570312 298.804688 347.382812 299.085938 347.925781 C 299.367188 348.46875 299.777344 348.738281 300.332031 348.738281 C 300.882812 348.738281 301.296875 348.46875 301.578125 347.925781 C 301.847656 347.382812 301.988281 346.570312 301.988281 345.484375 C 301.988281 344.402344 301.847656 343.585938 301.578125 343.046875 C 301.296875 342.503906 300.882812 342.230469 300.332031 342.230469 Z M 300.332031 341.386719 C 301.210938 341.386719 301.882812 341.742188 302.359375 342.4375 C 302.824219 343.144531 303.0625 344.164062 303.0625 345.484375 C 303.0625 346.820312 302.824219 347.839844 302.359375 348.535156 C 301.882812 349.226562 301.210938 349.574219 300.320312 349.574219 C 299.433594 349.574219 298.761719 349.226562 298.292969 348.535156 C 297.828125 347.839844 297.601562 346.820312 297.601562 345.484375 C 297.601562 344.164062 297.828125 343.144531 298.292969 342.4375 C 298.761719 341.742188 299.441406 341.386719 300.332031 341.386719 Z M 300.332031 341.386719 "/>
<path style="fill:none;stroke-width:0.8;stroke-linecap:butt;stroke-linejoin:round;stroke:rgb(0%,0%,0%);stroke-opacity:1;stroke-miterlimit:4;" d="M 327.451606 307.584242 L 327.451606 311.084961 " transform="matrix(1.083605,0,0,1.084599,0,0)"/>
<path style=" stroke:none;fill-rule:nonzero;fill:rgb(0%,0%,0%);fill-opacity:1;" d="M 352.035156 342.460938 L 349.335938 346.679688 L 352.035156 346.679688 Z M 351.753906 341.527344 L 353.097656 341.527344 L 353.097656 346.679688 L 354.222656 346.679688 L 354.222656 347.566406 L 353.097656 347.566406 L 353.097656 349.433594 L 352.035156 349.433594 L 352.035156 347.566406 L 348.46875 347.566406 L 348.46875 346.539062 Z M 351.753906 341.527344 "/>
<path style=" stroke:none;fill-rule:nonzero;fill:rgb(0%,0%,0%);fill-opacity:1;" d="M 358.277344 342.230469 C 357.722656 342.230469 357.3125 342.503906 357.03125 343.046875 C 356.746094 343.585938 356.617188 344.402344 356.617188 345.484375 C 356.617188 346.570312 356.746094 347.382812 357.03125 347.925781 C 357.3125 348.46875 357.722656 348.738281 358.277344 348.738281 C 358.828125 348.738281 359.238281 348.46875 359.523438 347.925781 C 359.792969 347.382812 359.933594 346.570312 359.933594 345.484375 C 359.933594 344.402344 359.792969 343.585938 359.523438 343.046875 C 359.238281 342.503906 358.828125 342.230469 358.277344 342.230469 Z M 358.277344 341.386719 C 359.152344 341.386719 359.824219 341.742188 360.300781 342.4375 C 360.769531 343.144531 361.007812 344.164062 361.007812 345.484375 C 361.007812 346.820312 360.769531 347.839844 360.300781 348.535156 C 359.824219 349.226562 359.152344 349.574219 358.265625 349.574219 C 357.375 349.574219 356.703125 349.226562 356.238281 348.535156 C 355.773438 347.839844 355.542969 346.820312 355.542969 345.484375 C 355.542969 344.164062 355.773438 343.144531 356.238281 342.4375 C 356.703125 341.742188 357.386719 341.386719 358.277344 341.386719 Z M 358.277344 341.386719 "/>
<path style=" stroke:none;fill-rule:nonzero;fill:rgb(0%,0%,0%);fill-opacity:1;" d="M 233.796875 356.355469 L 240.46875 356.355469 L 240.46875 357.257812 L 237.664062 357.257812 L 237.664062 364.261719 L 236.589844 364.261719 L 236.589844 357.257812 L 233.796875 357.257812 Z M 233.796875 356.355469 "/>
<path style=" stroke:none;fill-rule:nonzero;fill:rgb(0%,0%,0%);fill-opacity:1;" d="M 241.132812 358.328125 L 242.109375 358.328125 L 242.109375 364.261719 L 241.132812 364.261719 Z M 241.132812 356.019531 L 242.109375 356.019531 L 242.109375 357.257812 L 241.132812 357.257812 Z M 241.132812 356.019531 "/>
<path style=" stroke:none;fill-rule:nonzero;fill:rgb(0%,0%,0%);fill-opacity:1;" d="M 248.761719 359.46875 C 249 359.035156 249.292969 358.71875 249.628906 358.503906 C 249.964844 358.296875 250.367188 358.1875 250.832031 358.1875 C 251.441406 358.1875 251.917969 358.40625 252.253906 358.839844 C 252.589844 359.273438 252.761719 359.890625 252.761719 360.683594 L 252.761719 364.261719 L 251.785156 364.261719 L 251.785156 360.714844 C 251.785156 360.152344 251.679688 359.730469 251.484375 359.445312 C 251.277344 359.175781 250.972656 359.035156 250.5625 359.035156 C 250.050781 359.035156 249.652344 359.207031 249.359375 359.542969 C 249.066406 359.878906 248.925781 360.335938 248.925781 360.910156 L 248.925781 364.261719 L 247.949219 364.261719 L 247.949219 360.714844 C 247.949219 360.152344 247.84375 359.730469 247.648438 359.445312 C 247.441406 359.175781 247.125 359.035156 246.714844 359.035156 C 246.214844 359.035156 245.816406 359.207031 245.523438 359.542969 C 245.230469 359.878906 245.089844 360.335938 245.089844 360.910156 L 245.089844 364.261719 L 244.113281 364.261719 L 244.113281 358.328125 L 245.089844 358.328125 L 245.089844 359.25 C 245.304688 358.894531 245.578125 358.621094 245.890625 358.449219 C 246.195312 358.277344 246.5625 358.1875 246.996094 358.1875 C 247.429688 358.1875 247.789062 358.296875 248.089844 358.515625 C 248.394531 358.730469 248.613281 359.054688 248.761719 359.46875 Z M 248.761719 359.46875 "/>
<path style=" stroke:none;fill-rule:nonzero;fill:rgb(0%,0%,0%);fill-opacity:1;" d="M 259.773438 361.050781 L 259.773438 361.527344 L 255.296875 361.527344 C 255.339844 362.203125 255.535156 362.722656 255.902344 363.070312 C 256.261719 363.417969 256.761719 363.589844 257.410156 363.589844 C 257.777344 363.589844 258.148438 363.546875 258.492188 363.460938 C 258.839844 363.375 259.199219 363.230469 259.546875 363.035156 L 259.546875 363.957031 C 259.199219 364.109375 258.839844 364.230469 258.472656 364.296875 C 258.105469 364.359375 257.722656 364.402344 257.355469 364.402344 C 256.402344 364.402344 255.65625 364.132812 255.101562 363.589844 C 254.550781 363.046875 254.277344 362.300781 254.277344 361.355469 C 254.277344 360.390625 254.539062 359.621094 255.058594 359.046875 C 255.578125 358.480469 256.292969 358.1875 257.183594 358.1875 C 257.984375 358.1875 258.613281 358.449219 259.078125 358.957031 C 259.535156 359.480469 259.773438 360.171875 259.773438 361.050781 Z M 258.796875 360.769531 C 258.785156 360.238281 258.636719 359.816406 258.351562 359.492188 C 258.058594 359.175781 257.671875 359.011719 257.195312 359.011719 C 256.652344 359.011719 256.21875 359.175781 255.894531 359.480469 C 255.566406 359.78125 255.375 360.21875 255.328125 360.769531 Z M 258.796875 360.769531 "/>
<path style=" stroke:none;fill-rule:nonzero;fill:rgb(0%,0%,0%);fill-opacity:1;" d="M 264.726562 356.019531 L 266.96875 356.019531 L 266.96875 356.777344 L 265.699219 356.777344 L 265.699219 364.925781 L 266.96875 364.925781 L 266.96875 365.683594 L 264.726562 365.683594 Z M 264.726562 356.019531 "/>
<path style=" stroke:none;fill-rule:nonzero;fill:rgb(0%,0%,0%);fill-opacity:1;" d="M 272.820312 358.503906 L 272.820312 359.425781 C 272.539062 359.296875 272.253906 359.1875 271.964844 359.109375 C 271.660156 359.046875 271.355469 359.003906 271.042969 359.003906 C 270.554688 359.003906 270.1875 359.078125 269.949219 359.230469 C 269.710938 359.382812 269.589844 359.597656 269.589844 359.890625 C 269.589844 360.121094 269.675781 360.292969 269.851562 360.421875 C 270.023438 360.554688 270.371094 360.683594 270.890625 360.792969 L 271.226562 360.867188 C 271.917969 361.019531 272.40625 361.238281 272.699219 361.496094 C 272.980469 361.769531 273.132812 362.148438 273.132812 362.625 C 273.132812 363.179688 272.917969 363.613281 272.484375 363.925781 C 272.050781 364.25 271.441406 364.402344 270.683594 364.402344 C 270.359375 364.402344 270.035156 364.371094 269.6875 364.316406 C 269.339844 364.261719 268.984375 364.175781 268.605469 364.046875 L 268.605469 363.035156 C 268.960938 363.230469 269.320312 363.375 269.664062 363.460938 C 270.011719 363.558594 270.359375 363.601562 270.707031 363.601562 C 271.160156 363.601562 271.519531 363.523438 271.769531 363.375 C 272.007812 363.222656 272.136719 362.992188 272.136719 362.699219 C 272.136719 362.441406 272.039062 362.234375 271.867188 362.09375 C 271.691406 361.953125 271.300781 361.8125 270.695312 361.679688 L 270.359375 361.605469 C 269.753906 361.476562 269.308594 361.28125 269.046875 361.019531 C 268.777344 360.757812 268.648438 360.402344 268.648438 359.933594 C 268.648438 359.382812 268.84375 358.949219 269.234375 358.644531 C 269.621094 358.339844 270.1875 358.1875 270.921875 358.1875 C 271.28125 358.1875 271.617188 358.222656 271.941406 358.277344 C 272.253906 358.328125 272.546875 358.40625 272.820312 358.503906 Z M 272.820312 358.503906 "/>
<path style=" stroke:none;fill-rule:nonzero;fill:rgb(0%,0%,0%);fill-opacity:1;" d="M 276.957031 356.019531 L 276.957031 365.683594 L 274.714844 365.683594 L 274.714844 364.925781 L 275.984375 364.925781 L 275.984375 356.777344 L 274.714844 356.777344 L 274.714844 356.019531 Z M 276.957031 356.019531 "/>
<path style="fill:none;stroke-width:0.8;stroke-linecap:butt;stroke-linejoin:round;stroke:rgb(0%,0%,0%);stroke-opacity:1;stroke-miterlimit:4;" d="M 103.102772 272.026016 L 99.602447 272.026016 " transform="matrix(1.083605,0,0,1.084599,0,0)"/>
<path style=" stroke:none;fill-rule:nonzero;fill:rgb(0%,0%,0%);fill-opacity:1;" d="M 88.246094 298.257812 L 89.992188 298.257812 L 89.992188 292.226562 L 88.09375 292.605469 L 88.09375 291.628906 L 89.980469 291.25 L 91.054688 291.25 L 91.054688 298.257812 L 92.796875 298.257812 L 92.796875 299.15625 L 88.246094 299.15625 Z M 88.246094 298.257812 "/>
<path style=" stroke:none;fill-rule:nonzero;fill:rgb(0%,0%,0%);fill-opacity:1;" d="M 94.953125 297.8125 L 96.070312 297.8125 L 96.070312 299.15625 L 94.953125 299.15625 Z M 94.953125 297.8125 "/>
<path style=" stroke:none;fill-rule:nonzero;fill:rgb(0%,0%,0%);fill-opacity:1;" d="M 100.6875 291.953125 C 100.132812 291.953125 99.722656 292.226562 99.441406 292.769531 C 99.160156 293.308594 99.027344 294.125 99.027344 295.207031 C 99.027344 296.292969 99.160156 297.105469 99.441406 297.648438 C 99.722656 298.191406 100.132812 298.460938 100.6875 298.460938 C 101.238281 298.460938 101.652344 298.191406 101.933594 297.648438 C 102.203125 297.105469 102.34375 296.292969 102.34375 295.207031 C 102.34375 294.125 102.203125 293.308594 101.933594 292.769531 C 101.652344 292.226562 101.238281 291.953125 100.6875 291.953125 Z M 100.6875 291.109375 C 101.5625 291.109375 102.234375 291.464844 102.710938 292.160156 C 103.179688 292.867188 103.417969 293.886719 103.417969 295.207031 C 103.417969 296.542969 103.179688 297.5625 102.710938 298.257812 C 102.234375 298.949219 101.5625 299.296875 100.675781 299.296875 C 99.785156 299.296875 99.113281 298.949219 98.648438 298.257812 C 98.183594 297.5625 97.957031 296.542969 97.957031 295.207031 C 97.957031 293.886719 98.183594 292.867188 98.648438 292.160156 C 99.113281 291.464844 99.796875 291.109375 100.6875 291.109375 Z M 100.6875 291.109375 "/>
<path style="fill:none;stroke-width:0.8;stroke-linecap:butt;stroke-linejoin:round;stroke:rgb(0%,0%,0%);stroke-opacity:1;stroke-miterlimit:4;" d="M 103.102772 228.634391 L 99.602447 228.634391 " transform="matrix(1.083605,0,0,1.084599,0,0)"/>
<path style=" stroke:none;fill-rule:nonzero;fill:rgb(0%,0%,0%);fill-opacity:1;" d="M 88.246094 251.195312 L 89.992188 251.195312 L 89.992188 245.164062 L 88.09375 245.546875 L 88.09375 244.570312 L 89.980469 244.191406 L 91.054688 244.191406 L 91.054688 251.195312 L 92.796875 251.195312 L 92.796875 252.097656 L 88.246094 252.097656 Z M 88.246094 251.195312 "/>
<path style=" stroke:none;fill-rule:nonzero;fill:rgb(0%,0%,0%);fill-opacity:1;" d="M 94.953125 250.75 L 96.070312 250.75 L 96.070312 252.097656 L 94.953125 252.097656 Z M 94.953125 250.75 "/>
<path style=" stroke:none;fill-rule:nonzero;fill:rgb(0%,0%,0%);fill-opacity:1;" d="M 98.410156 244.191406 L 102.605469 244.191406 L 102.605469 245.089844 L 99.386719 245.089844 L 99.386719 247.03125 C 99.539062 246.976562 99.699219 246.933594 99.851562 246.914062 C 100.003906 246.890625 100.167969 246.867188 100.316406 246.867188 C 101.195312 246.867188 101.890625 247.117188 102.410156 247.59375 C 102.929688 248.082031 103.191406 248.734375 103.191406 249.558594 C 103.191406 250.414062 102.917969 251.078125 102.386719 251.542969 C 101.855469 252.007812 101.109375 252.238281 100.15625 252.238281 C 99.820312 252.238281 99.484375 252.203125 99.136719 252.160156 C 98.789062 252.105469 98.441406 252.03125 98.074219 251.914062 L 98.074219 250.839844 C 98.390625 251.011719 98.714844 251.140625 99.0625 251.230469 C 99.398438 251.316406 99.753906 251.347656 100.132812 251.347656 C 100.742188 251.347656 101.226562 251.195312 101.585938 250.871094 C 101.933594 250.546875 102.117188 250.113281 102.117188 249.558594 C 102.117188 249.015625 101.933594 248.582031 101.585938 248.257812 C 101.226562 247.933594 100.742188 247.769531 100.132812 247.769531 C 99.851562 247.769531 99.558594 247.800781 99.277344 247.867188 C 98.996094 247.933594 98.703125 248.027344 98.410156 248.160156 Z M 98.410156 244.191406 "/>
<path style="fill:none;stroke-width:0.8;stroke-linecap:butt;stroke-linejoin:round;stroke:rgb(0%,0%,0%);stroke-opacity:1;stroke-miterlimit:4;" d="M 103.102772 185.246367 L 99.602447 185.246367 " transform="matrix(1.083605,0,0,1.084599,0,0)"/>
<path style=" stroke:none;fill-rule:nonzero;fill:rgb(0%,0%,0%);fill-opacity:1;" d="M 88.984375 204.136719 L 92.710938 204.136719 L 92.710938 205.035156 L 87.695312 205.035156 L 87.695312 204.136719 C 88.09375 203.722656 88.648438 203.160156 89.351562 202.445312 C 90.046875 201.738281 90.488281 201.285156 90.675781 201.078125 C 91.019531 200.699219 91.257812 200.375 91.390625 200.101562 C 91.519531 199.839844 91.59375 199.570312 91.59375 199.308594 C 91.59375 198.898438 91.441406 198.550781 91.152344 198.289062 C 90.859375 198.03125 90.480469 197.890625 90.003906 197.890625 C 89.667969 197.890625 89.308594 197.953125 88.941406 198.0625 C 88.570312 198.183594 88.171875 198.355469 87.75 198.59375 L 87.75 197.507812 C 88.179688 197.335938 88.582031 197.207031 88.949219 197.121094 C 89.320312 197.03125 89.667969 196.988281 89.980469 196.988281 C 90.792969 196.988281 91.441406 197.195312 91.929688 197.605469 C 92.417969 198.019531 92.667969 198.5625 92.667969 199.246094 C 92.667969 199.570312 92.601562 199.886719 92.484375 200.167969 C 92.363281 200.460938 92.148438 200.808594 91.824219 201.199219 C 91.734375 201.304688 91.453125 201.597656 90.976562 202.085938 C 90.5 202.574219 89.839844 203.257812 88.984375 204.136719 Z M 88.984375 204.136719 "/>
<path style=" stroke:none;fill-rule:nonzero;fill:rgb(0%,0%,0%);fill-opacity:1;" d="M 94.953125 203.691406 L 96.070312 203.691406 L 96.070312 205.035156 L 94.953125 205.035156 Z M 94.953125 203.691406 "/>
<path style=" stroke:none;fill-rule:nonzero;fill:rgb(0%,0%,0%);fill-opacity:1;" d="M 100.6875 197.835938 C 100.132812 197.835938 99.722656 198.105469 99.441406 198.648438 C 99.160156 199.191406 99.027344 200.003906 99.027344 201.089844 C 99.027344 202.171875 99.160156 202.988281 99.441406 203.527344 C 99.722656 204.070312 100.132812 204.34375 100.6875 204.34375 C 101.238281 204.34375 101.652344 204.070312 101.933594 203.527344 C 102.203125 202.988281 102.34375 202.171875 102.34375 201.089844 C 102.34375 200.003906 102.203125 199.191406 101.933594 198.648438 C 101.652344 198.105469 101.238281 197.835938 100.6875 197.835938 Z M 100.6875 196.988281 C 101.5625 196.988281 102.234375 197.347656 102.710938 198.042969 C 103.179688 198.746094 103.417969 199.765625 103.417969 201.089844 C 103.417969 202.421875 103.179688 203.441406 102.710938 204.136719 C 102.234375 204.832031 101.5625 205.179688 100.675781 205.179688 C 99.785156 205.179688 99.113281 204.832031 98.648438 204.136719 C 98.183594 203.441406 97.957031 202.421875 97.957031 201.089844 C 97.957031 199.765625 98.183594 198.746094 98.648438 198.042969 C 99.113281 197.347656 99.796875 196.988281 100.6875 196.988281 Z M 100.6875 196.988281 "/>
<path style="fill:none;stroke-width:0.8;stroke-linecap:butt;stroke-linejoin:round;stroke:rgb(0%,0%,0%);stroke-opacity:1;stroke-miterlimit:4;" d="M 103.102772 141.858344 L 99.602447 141.858344 " transform="matrix(1.083605,0,0,1.084599,0,0)"/>
<path style=" stroke:none;fill-rule:nonzero;fill:rgb(0%,0%,0%);fill-opacity:1;" d="M 88.984375 157.078125 L 92.710938 157.078125 L 92.710938 157.976562 L 87.695312 157.976562 L 87.695312 157.078125 C 88.09375 156.664062 88.648438 156.101562 89.351562 155.386719 C 90.046875 154.679688 90.488281 154.222656 90.675781 154.019531 C 91.019531 153.640625 91.257812 153.3125 91.390625 153.042969 C 91.519531 152.78125 91.59375 152.511719 91.59375 152.25 C 91.59375 151.839844 91.441406 151.492188 91.152344 151.230469 C 90.859375 150.972656 90.480469 150.828125 90.003906 150.828125 C 89.667969 150.828125 89.308594 150.894531 88.941406 151.003906 C 88.570312 151.121094 88.171875 151.296875 87.75 151.535156 L 87.75 150.449219 C 88.179688 150.277344 88.582031 150.144531 88.949219 150.058594 C 89.320312 149.972656 89.667969 149.929688 89.980469 149.929688 C 90.792969 149.929688 91.441406 150.136719 91.929688 150.546875 C 92.417969 150.960938 92.667969 151.503906 92.667969 152.183594 C 92.667969 152.511719 92.601562 152.824219 92.484375 153.105469 C 92.363281 153.398438 92.148438 153.746094 91.824219 154.136719 C 91.734375 154.246094 91.453125 154.539062 90.976562 155.027344 C 90.5 155.515625 89.839844 156.199219 88.984375 157.078125 Z M 88.984375 157.078125 "/>
<path style=" stroke:none;fill-rule:nonzero;fill:rgb(0%,0%,0%);fill-opacity:1;" d="M 94.953125 156.632812 L 96.070312 156.632812 L 96.070312 157.976562 L 94.953125 157.976562 Z M 94.953125 156.632812 "/>
<path style=" stroke:none;fill-rule:nonzero;fill:rgb(0%,0%,0%);fill-opacity:1;" d="M 98.410156 150.070312 L 102.605469 150.070312 L 102.605469 150.972656 L 99.386719 150.972656 L 99.386719 152.914062 C 99.539062 152.859375 99.699219 152.816406 99.851562 152.792969 C 100.003906 152.769531 100.167969 152.75 100.316406 152.75 C 101.195312 152.75 101.890625 153 102.410156 153.476562 C 102.929688 153.964844 103.191406 154.613281 103.191406 155.4375 C 103.191406 156.296875 102.917969 156.957031 102.386719 157.425781 C 101.855469 157.890625 101.109375 158.117188 100.15625 158.117188 C 99.820312 158.117188 99.484375 158.085938 99.136719 158.042969 C 98.789062 157.988281 98.441406 157.914062 98.074219 157.792969 L 98.074219 156.71875 C 98.390625 156.894531 98.714844 157.023438 99.0625 157.109375 C 99.398438 157.195312 99.753906 157.230469 100.132812 157.230469 C 100.742188 157.230469 101.226562 157.078125 101.585938 156.75 C 101.933594 156.425781 102.117188 155.992188 102.117188 155.4375 C 102.117188 154.898438 101.933594 154.464844 101.585938 154.136719 C 101.226562 153.8125 100.742188 153.648438 100.132812 153.648438 C 99.851562 153.648438 99.558594 153.683594 99.277344 153.746094 C 98.996094 153.8125 98.703125 153.910156 98.410156 154.039062 Z M 98.410156 150.070312 "/>
<path style="fill:none;stroke-width:0.8;stroke-linecap:butt;stroke-linejoin:round;stroke:rgb(0%,0%,0%);stroke-opacity:1;stroke-miterlimit:4;" d="M 103.102772 98.47032 L 99.602447 98.47032 " transform="matrix(1.083605,0,0,1.084599,0,0)"/>
<path style=" stroke:none;fill-rule:nonzero;fill:rgb(0%,0%,0%);fill-opacity:1;" d="M 91.300781 106.65625 C 91.8125 106.761719 92.210938 106.992188 92.496094 107.339844 C 92.777344 107.683594 92.929688 108.121094 92.929688 108.617188 C 92.929688 109.398438 92.65625 110.007812 92.125 110.429688 C 91.585938 110.851562 90.824219 111.058594 89.839844 111.058594 C 89.503906 111.058594 89.15625 111.027344 88.808594 110.960938 C 88.464844 110.90625 88.09375 110.808594 87.726562 110.679688 L 87.726562 109.648438 C 88.019531 109.820312 88.34375 109.953125 88.703125 110.039062 C 89.046875 110.125 89.417969 110.167969 89.808594 110.167969 C 90.480469 110.167969 90.988281 110.039062 91.335938 109.777344 C 91.679688 109.519531 91.867188 109.128906 91.867188 108.617188 C 91.867188 108.164062 91.703125 107.792969 91.378906 107.535156 C 91.054688 107.273438 90.597656 107.132812 90.011719 107.132812 L 89.09375 107.132812 L 89.09375 106.253906 L 90.054688 106.253906 C 90.578125 106.253906 90.976562 106.15625 91.257812 105.9375 C 91.539062 105.734375 91.679688 105.429688 91.679688 105.027344 C 91.679688 104.625 91.53125 104.3125 91.25 104.09375 C 90.957031 103.878906 90.542969 103.769531 90.011719 103.769531 C 89.71875 103.769531 89.40625 103.800781 89.070312 103.867188 C 88.734375 103.933594 88.367188 104.03125 87.964844 104.160156 L 87.964844 103.207031 C 88.367188 103.097656 88.746094 103.011719 89.101562 102.957031 C 89.449219 102.902344 89.785156 102.871094 90.109375 102.871094 C 90.914062 102.871094 91.550781 103.054688 92.027344 103.421875 C 92.503906 103.792969 92.742188 104.289062 92.742188 104.917969 C 92.742188 105.355469 92.613281 105.722656 92.363281 106.027344 C 92.113281 106.328125 91.757812 106.546875 91.300781 106.65625 Z M 91.300781 106.65625 "/>
<path style=" stroke:none;fill-rule:nonzero;fill:rgb(0%,0%,0%);fill-opacity:1;" d="M 94.953125 109.574219 L 96.070312 109.574219 L 96.070312 110.917969 L 94.953125 110.917969 Z M 94.953125 109.574219 "/>
<path style=" stroke:none;fill-rule:nonzero;fill:rgb(0%,0%,0%);fill-opacity:1;" d="M 100.6875 103.714844 C 100.132812 103.714844 99.722656 103.988281 99.441406 104.527344 C 99.160156 105.070312 99.027344 105.886719 99.027344 106.96875 C 99.027344 108.054688 99.160156 108.867188 99.441406 109.410156 C 99.722656 109.953125 100.132812 110.222656 100.6875 110.222656 C 101.238281 110.222656 101.652344 109.953125 101.933594 109.410156 C 102.203125 108.867188 102.34375 108.054688 102.34375 106.96875 C 102.34375 105.886719 102.203125 105.070312 101.933594 104.527344 C 101.652344 103.988281 101.238281 103.714844 100.6875 103.714844 Z M 100.6875 102.871094 C 101.5625 102.871094 102.234375 103.226562 102.710938 103.921875 C 103.179688 104.625 103.417969 105.644531 103.417969 106.96875 C 103.417969 108.304688 103.179688 109.324219 102.710938 110.015625 C 102.234375 110.710938 101.5625 111.058594 100.675781 111.058594 C 99.785156 111.058594 99.113281 110.710938 98.648438 110.015625 C 98.183594 109.324219 97.957031 108.304688 97.957031 106.96875 C 97.957031 105.644531 98.183594 104.625 98.648438 103.921875 C 99.113281 103.226562 99.796875 102.871094 100.6875 102.871094 Z M 100.6875 102.871094 "/>
<path style="fill:none;stroke-width:0.8;stroke-linecap:butt;stroke-linejoin:round;stroke:rgb(0%,0%,0%);stroke-opacity:1;stroke-miterlimit:4;" d="M 103.102772 55.078695 L 99.602447 55.078695 " transform="matrix(1.083605,0,0,1.084599,0,0)"/>
<path style=" stroke:none;fill-rule:nonzero;fill:rgb(0%,0%,0%);fill-opacity:1;" d="M 91.300781 59.59375 C 91.8125 59.703125 92.210938 59.933594 92.496094 60.277344 C 92.777344 60.625 92.929688 61.058594 92.929688 61.558594 C 92.929688 62.339844 92.65625 62.945312 92.125 63.371094 C 91.585938 63.792969 90.824219 64 89.839844 64 C 89.503906 64 89.15625 63.964844 88.808594 63.902344 C 88.464844 63.847656 88.09375 63.75 87.726562 63.621094 L 87.726562 62.589844 C 88.019531 62.761719 88.34375 62.894531 88.703125 62.980469 C 89.046875 63.066406 89.417969 63.109375 89.808594 63.109375 C 90.480469 63.109375 90.988281 62.980469 91.335938 62.71875 C 91.679688 62.457031 91.867188 62.066406 91.867188 61.558594 C 91.867188 61.101562 91.703125 60.734375 91.378906 60.472656 C 91.054688 60.214844 90.597656 60.074219 90.011719 60.074219 L 89.09375 60.074219 L 89.09375 59.195312 L 90.054688 59.195312 C 90.578125 59.195312 90.976562 59.097656 91.257812 58.878906 C 91.539062 58.671875 91.679688 58.371094 91.679688 57.96875 C 91.679688 57.566406 91.53125 57.253906 91.25 57.035156 C 90.957031 56.820312 90.542969 56.710938 90.011719 56.710938 C 89.71875 56.710938 89.40625 56.742188 89.070312 56.808594 C 88.734375 56.875 88.367188 56.972656 87.964844 57.101562 L 87.964844 56.144531 C 88.367188 56.039062 88.746094 55.953125 89.101562 55.898438 C 89.449219 55.84375 89.785156 55.808594 90.109375 55.808594 C 90.914062 55.808594 91.550781 55.996094 92.027344 56.363281 C 92.503906 56.730469 92.742188 57.230469 92.742188 57.859375 C 92.742188 58.292969 92.613281 58.664062 92.363281 58.964844 C 92.113281 59.269531 91.757812 59.488281 91.300781 59.59375 Z M 91.300781 59.59375 "/>
<path style=" stroke:none;fill-rule:nonzero;fill:rgb(0%,0%,0%);fill-opacity:1;" d="M 94.953125 62.511719 L 96.070312 62.511719 L 96.070312 63.859375 L 94.953125 63.859375 Z M 94.953125 62.511719 "/>
<path style=" stroke:none;fill-rule:nonzero;fill:rgb(0%,0%,0%);fill-opacity:1;" d="M 98.410156 55.953125 L 102.605469 55.953125 L 102.605469 56.851562 L 99.386719 56.851562 L 99.386719 58.792969 C 99.539062 58.738281 99.699219 58.695312 99.851562 58.671875 C 100.003906 58.652344 100.167969 58.628906 100.316406 58.628906 C 101.195312 58.628906 101.890625 58.878906 102.410156 59.355469 C 102.929688 59.84375 103.191406 60.496094 103.191406 61.320312 C 103.191406 62.175781 102.917969 62.839844 102.386719 63.304688 C 101.855469 63.769531 101.109375 64 100.15625 64 C 99.820312 64 99.484375 63.964844 99.136719 63.921875 C 98.789062 63.867188 98.441406 63.792969 98.074219 63.671875 L 98.074219 62.601562 C 98.390625 62.773438 98.714844 62.902344 99.0625 62.992188 C 99.398438 63.078125 99.753906 63.109375 100.132812 63.109375 C 100.742188 63.109375 101.226562 62.957031 101.585938 62.632812 C 101.933594 62.308594 102.117188 61.875 102.117188 61.320312 C 102.117188 60.777344 101.933594 60.34375 101.585938 60.019531 C 101.226562 59.691406 100.742188 59.53125 100.132812 59.53125 C 99.851562 59.53125 99.558594 59.5625 99.277344 59.628906 C 98.996094 59.691406 98.703125 59.789062 98.410156 59.921875 Z M 98.410156 55.953125 "/>
<path style=" stroke:none;fill-rule:nonzero;fill:rgb(0%,0%,0%);fill-opacity:1;" d="M 72.675781 216.402344 L 73.71875 216.402344 C 73.523438 216.8125 73.382812 217.191406 73.285156 217.550781 C 73.199219 217.917969 73.144531 218.265625 73.144531 218.59375 C 73.144531 219.179688 73.261719 219.632812 73.480469 219.949219 C 73.707031 220.261719 74.03125 220.414062 74.445312 220.414062 C 74.789062 220.414062 75.0625 220.316406 75.234375 220.101562 C 75.417969 219.894531 75.558594 219.492188 75.667969 218.90625 L 75.796875 218.257812 C 75.949219 217.464844 76.222656 216.878906 76.601562 216.5 C 76.988281 216.121094 77.5 215.925781 78.140625 215.925781 C 78.90625 215.925781 79.480469 216.183594 79.871094 216.695312 C 80.261719 217.214844 80.457031 217.964844 80.457031 218.949219 C 80.457031 219.328125 80.414062 219.730469 80.339844 220.152344 C 80.261719 220.578125 80.144531 221.011719 79.96875 221.457031 L 78.863281 221.457031 C 79.113281 221.023438 79.296875 220.597656 79.417969 220.1875 C 79.546875 219.773438 79.601562 219.363281 79.601562 218.949219 C 79.601562 218.34375 79.480469 217.875 79.242188 217.539062 C 79.003906 217.214844 78.667969 217.042969 78.214844 217.042969 C 77.824219 217.042969 77.519531 217.160156 77.304688 217.398438 C 77.085938 217.636719 76.925781 218.027344 76.816406 218.570312 L 76.6875 219.222656 C 76.535156 220.023438 76.285156 220.597656 75.9375 220.957031 C 75.601562 221.316406 75.136719 221.488281 74.53125 221.488281 C 73.835938 221.488281 73.285156 221.25 72.882812 220.75 C 72.480469 220.261719 72.277344 219.578125 72.277344 218.710938 C 72.277344 218.34375 72.308594 217.972656 72.375 217.582031 C 72.4375 217.203125 72.546875 216.8125 72.675781 216.402344 Z M 72.675781 216.402344 "/>
<path style=" stroke:none;fill-rule:nonzero;fill:rgb(0%,0%,0%);fill-opacity:1;" d="M 79.429688 213.355469 L 82.558594 213.355469 L 82.558594 214.328125 L 74.390625 214.328125 L 74.390625 213.355469 L 75.289062 213.355469 C 74.941406 213.160156 74.683594 212.898438 74.507812 212.582031 C 74.335938 212.269531 74.25 211.890625 74.25 211.457031 C 74.25 210.738281 74.542969 210.152344 75.105469 209.699219 C 75.679688 209.253906 76.425781 209.027344 77.359375 209.027344 C 78.289062 209.027344 79.050781 209.253906 79.613281 209.699219 C 80.175781 210.152344 80.457031 210.738281 80.457031 211.457031 C 80.457031 211.890625 80.371094 212.269531 80.207031 212.582031 C 80.046875 212.898438 79.785156 213.160156 79.429688 213.355469 Z M 77.359375 210.035156 C 76.644531 210.035156 76.089844 210.1875 75.679688 210.480469 C 75.265625 210.78125 75.0625 211.183594 75.0625 211.695312 C 75.0625 212.214844 75.265625 212.617188 75.679688 212.910156 C 76.089844 213.210938 76.644531 213.355469 77.359375 213.355469 C 78.074219 213.355469 78.636719 213.210938 79.050781 212.910156 C 79.460938 212.617188 79.65625 212.214844 79.65625 211.695312 C 79.65625 211.183594 79.460938 210.78125 79.050781 210.480469 C 78.636719 210.1875 78.074219 210.035156 77.359375 210.035156 Z M 77.359375 210.035156 "/>
<path style=" stroke:none;fill-rule:nonzero;fill:rgb(0%,0%,0%);fill-opacity:1;" d="M 77.109375 202.335938 L 77.585938 202.335938 L 77.585938 206.8125 C 78.257812 206.769531 78.777344 206.574219 79.125 206.207031 C 79.472656 205.847656 79.644531 205.347656 79.644531 204.699219 C 79.644531 204.328125 79.601562 203.960938 79.515625 203.613281 C 79.429688 203.265625 79.289062 202.910156 79.09375 202.5625 L 80.011719 202.5625 C 80.164062 202.910156 80.285156 203.265625 80.347656 203.636719 C 80.414062 204.003906 80.457031 204.382812 80.457031 204.753906 C 80.457031 205.707031 80.1875 206.457031 79.644531 207.007812 C 79.101562 207.5625 78.355469 207.832031 77.414062 207.832031 C 76.449219 207.832031 75.679688 207.574219 75.105469 207.050781 C 74.542969 206.53125 74.25 205.816406 74.25 204.925781 C 74.25 204.125 74.507812 203.496094 75.019531 203.027344 C 75.539062 202.574219 76.230469 202.335938 77.109375 202.335938 Z M 76.828125 203.308594 C 76.296875 203.320312 75.875 203.472656 75.550781 203.753906 C 75.234375 204.046875 75.070312 204.4375 75.070312 204.914062 C 75.070312 205.457031 75.234375 205.890625 75.539062 206.21875 C 75.839844 206.542969 76.273438 206.738281 76.828125 206.78125 Z M 76.828125 203.308594 "/>
<path style=" stroke:none;fill-rule:nonzero;fill:rgb(0%,0%,0%);fill-opacity:1;" d="M 77.109375 195.664062 L 77.585938 195.664062 L 77.585938 200.144531 C 78.257812 200.101562 78.777344 199.90625 79.125 199.535156 C 79.472656 199.179688 79.644531 198.679688 79.644531 198.027344 C 79.644531 197.660156 79.601562 197.289062 79.515625 196.945312 C 79.429688 196.597656 79.289062 196.238281 79.09375 195.890625 L 80.011719 195.890625 C 80.164062 196.238281 80.285156 196.597656 80.347656 196.964844 C 80.414062 197.335938 80.457031 197.714844 80.457031 198.082031 C 80.457031 199.035156 80.1875 199.785156 79.644531 200.339844 C 79.101562 200.890625 78.355469 201.164062 77.414062 201.164062 C 76.449219 201.164062 75.679688 200.902344 75.105469 200.382812 C 74.542969 199.859375 74.25 199.144531 74.25 198.257812 C 74.25 197.453125 74.507812 196.824219 75.019531 196.359375 C 75.539062 195.902344 76.230469 195.664062 77.109375 195.664062 Z M 76.828125 196.640625 C 76.296875 196.652344 75.875 196.800781 75.550781 197.085938 C 75.234375 197.378906 75.070312 197.769531 75.070312 198.246094 C 75.070312 198.789062 75.234375 199.222656 75.539062 199.546875 C 75.839844 199.871094 76.273438 200.066406 76.828125 200.109375 Z M 76.828125 196.640625 "/>
<path style=" stroke:none;fill-rule:nonzero;fill:rgb(0%,0%,0%);fill-opacity:1;" d="M 75.289062 190.164062 L 72.082031 190.164062 L 72.082031 189.1875 L 80.316406 189.1875 L 80.316406 190.164062 L 79.429688 190.164062 C 79.785156 190.371094 80.046875 190.632812 80.207031 190.945312 C 80.371094 191.261719 80.457031 191.628906 80.457031 192.0625 C 80.457031 192.777344 80.175781 193.363281 79.613281 193.820312 C 79.050781 194.277344 78.289062 194.492188 77.359375 194.492188 C 76.425781 194.492188 75.679688 194.277344 75.105469 193.820312 C 74.542969 193.363281 74.25 192.777344 74.25 192.0625 C 74.25 191.628906 74.335938 191.261719 74.507812 190.945312 C 74.683594 190.632812 74.941406 190.371094 75.289062 190.164062 Z M 77.359375 193.484375 C 78.074219 193.484375 78.636719 193.34375 79.050781 193.050781 C 79.460938 192.757812 79.65625 192.355469 79.65625 191.835938 C 79.65625 191.316406 79.460938 190.914062 79.050781 190.609375 C 78.636719 190.316406 78.074219 190.164062 77.359375 190.164062 C 76.644531 190.164062 76.089844 190.316406 75.679688 190.609375 C 75.265625 190.914062 75.0625 191.316406 75.0625 191.835938 C 75.0625 192.355469 75.265625 192.757812 75.679688 193.050781 C 76.089844 193.34375 76.644531 193.484375 77.359375 193.484375 Z M 77.359375 193.484375 "/>
<path style=" stroke:none;fill-rule:nonzero;fill:rgb(0%,0%,0%);fill-opacity:1;" d="M 72.082031 183.820312 L 72.082031 181.574219 L 72.839844 181.574219 L 72.839844 182.84375 L 80.976562 182.84375 L 80.976562 181.574219 L 81.734375 181.574219 L 81.734375 183.820312 Z M 72.082031 183.820312 "/>
<path style=" stroke:none;fill-rule:nonzero;fill:rgb(0%,0%,0%);fill-opacity:1;" d="M 75.527344 174.882812 C 75.09375 174.644531 74.78125 174.351562 74.5625 174.015625 C 74.355469 173.679688 74.25 173.277344 74.25 172.8125 C 74.25 172.203125 74.464844 171.726562 74.898438 171.390625 C 75.332031 171.054688 75.949219 170.878906 76.742188 170.878906 L 80.316406 170.878906 L 80.316406 171.855469 L 76.773438 171.855469 C 76.210938 171.855469 75.789062 171.964844 75.503906 172.160156 C 75.234375 172.367188 75.09375 172.671875 75.09375 173.082031 C 75.09375 173.59375 75.265625 173.992188 75.601562 174.285156 C 75.9375 174.578125 76.394531 174.71875 76.96875 174.71875 L 80.316406 174.71875 L 80.316406 175.695312 L 76.773438 175.695312 C 76.210938 175.695312 75.789062 175.804688 75.503906 176 C 75.234375 176.207031 75.09375 176.519531 75.09375 176.933594 C 75.09375 177.433594 75.265625 177.832031 75.601562 178.125 C 75.9375 178.417969 76.394531 178.558594 76.96875 178.558594 L 80.316406 178.558594 L 80.316406 179.535156 L 74.390625 179.535156 L 74.390625 178.558594 L 75.308594 178.558594 C 74.953125 178.34375 74.683594 178.070312 74.507812 177.757812 C 74.335938 177.453125 74.25 177.085938 74.25 176.652344 C 74.25 176.21875 74.355469 175.859375 74.574219 175.554688 C 74.789062 175.25 75.117188 175.035156 75.527344 174.882812 Z M 75.527344 174.882812 "/>
<path style=" stroke:none;fill-rule:nonzero;fill:rgb(0%,0%,0%);fill-opacity:1;" d="M 72.417969 167.203125 L 72.417969 166.304688 L 81.3125 169.058594 L 81.3125 169.957031 Z M 72.417969 167.203125 "/>
<path style=" stroke:none;fill-rule:nonzero;fill:rgb(0%,0%,0%);fill-opacity:1;" d="M 74.5625 161.5 L 75.484375 161.5 C 75.355469 161.78125 75.246094 162.0625 75.167969 162.355469 C 75.105469 162.660156 75.0625 162.964844 75.0625 163.277344 C 75.0625 163.765625 75.136719 164.132812 75.289062 164.375 C 75.441406 164.613281 75.65625 164.730469 75.949219 164.730469 C 76.175781 164.730469 76.351562 164.644531 76.480469 164.472656 C 76.609375 164.296875 76.742188 163.949219 76.847656 163.429688 L 76.925781 163.09375 C 77.078125 162.398438 77.292969 161.910156 77.554688 161.617188 C 77.824219 161.335938 78.203125 161.183594 78.679688 161.183594 C 79.234375 161.183594 79.667969 161.402344 79.980469 161.835938 C 80.304688 162.269531 80.457031 162.875 80.457031 163.636719 C 80.457031 163.960938 80.425781 164.285156 80.371094 164.632812 C 80.316406 164.980469 80.230469 165.339844 80.101562 165.71875 L 79.09375 165.71875 C 79.289062 165.359375 79.429688 165.003906 79.515625 164.65625 C 79.613281 164.308594 79.65625 163.960938 79.65625 163.613281 C 79.65625 163.160156 79.578125 162.800781 79.429688 162.550781 C 79.277344 162.3125 79.050781 162.183594 78.757812 162.183594 C 78.496094 162.183594 78.289062 162.28125 78.148438 162.453125 C 78.007812 162.625 77.867188 163.015625 77.738281 163.625 L 77.660156 163.960938 C 77.53125 164.566406 77.335938 165.011719 77.078125 165.273438 C 76.816406 165.542969 76.460938 165.675781 75.992188 165.675781 C 75.441406 165.675781 75.007812 165.480469 74.703125 165.089844 C 74.398438 164.699219 74.25 164.132812 74.25 163.398438 C 74.25 163.039062 74.28125 162.703125 74.335938 162.378906 C 74.390625 162.0625 74.464844 161.769531 74.5625 161.5 Z M 74.5625 161.5 "/>
<path style=" stroke:none;fill-rule:nonzero;fill:rgb(0%,0%,0%);fill-opacity:1;" d="M 72.082031 157.355469 L 81.734375 157.355469 L 81.734375 159.601562 L 80.976562 159.601562 L 80.976562 158.332031 L 72.839844 158.332031 L 72.839844 159.601562 L 72.082031 159.601562 Z M 72.082031 157.355469 "/>
<path style="fill:none;stroke-width:2.5;stroke-linecap:square;stroke-linejoin:round;stroke:rgb(0%,50.196078%,50.196078%);stroke-opacity:1;stroke-miterlimit:4;" d="M 115.200702 295.486594 L 116.372284 241.549594 L 117.659221 199.227633 L 117.990868 190.879211 L 118.401823 181.33507 L 118.62893 176.980781 L 119.580614 161.562492 L 120.665679 149.183922 L 121.826446 137.72375 L 122.078786 135.778906 L 122.248215 133.859273 L 122.475322 132.83643 L 122.677194 130.063227 L 124.605798 117.810711 L 126.112632 112.365148 L 126.851629 110.485133 L 127.179672 109.728805 L 127.713192 108.540289 L 128.019606 107.848789 L 128.895588 106.199273 L 129.847273 104.647 L 130.503358 103.789828 L 130.71965 103.595344 L 130.932337 103.361242 L 131.263985 103.0335 L 131.548769 102.673344 L 131.992168 102.374414 L 133.15654 101.517242 L 134.241604 100.793328 L 134.803963 100.425969 L 135.636687 99.864125 L 135.943101 99.831711 L 136.155788 99.666039 L 136.588372 99.464352 L 136.703728 99.500367 L 137.031771 99.302281 L 137.219224 99.266266 L 137.673437 99.06818 L 137.878914 99.003352 L 138.509766 98.736836 L 138.819784 98.635992 L 141.173762 98.005719 L 141.408078 97.940891 L 142.161495 97.836445 L 143.102365 97.674375 L 143.989162 97.609547 L 144.183825 97.508703 L 144.504658 97.573531 L 144.85433 97.505102 L 145.690659 97.443875 L 146.130452 97.382648 L 146.209759 97.440273 L 146.418842 97.411461 L 146.642343 97.375445 L 147.064113 97.609547 L 147.727408 97.544719 L 148.996321 97.443875 L 149.263081 97.411461 L 149.407275 97.476289 L 149.738923 97.443875 L 150.924924 97.742805 L 151.015046 97.677977 L 151.234943 97.710391 L 152.738172 97.811234 L 152.947254 97.912078 L 153.059005 97.811234 L 153.289716 97.843648 L 153.913358 97.908477 L 154.12965 98.00932 L 154.673985 97.944492 L 156.069068 98.041734 L 156.364667 98.106563 L 156.577354 98.074148 L 157.330771 97.973305 L 157.983252 98.074148 L 158.224778 98.301047 L 158.401416 98.304648 L 159.032268 98.174992 L 159.36031 98.178594 L 159.91546 98.106563 L 160.344439 98.106563 L 160.567941 98.142578 L 162.896684 98.041734 L 163.102161 98.00932 L 163.433809 98.07775 L 163.53835 98.005719 L 163.743827 98.041734 L 166.047337 98.106563 L 166.0942 98.211008 L 167.172055 98.207406 L 167.817326 98.53875 L 167.929077 98.47032 L 168.145369 98.535148 L 168.675284 98.337063 L 168.891576 98.466719 L 168.992512 98.473922 L 169.100658 98.668406 L 169.309741 98.535148 L 169.518823 98.603578 L 171.779074 98.603578 L 171.995366 98.47032 L 172.197238 98.405492 L 172.308989 98.337063 L 172.42074 98.47032 L 172.640637 98.405492 L 172.849719 98.53875 L 173.047987 98.668406 L 173.36882 98.603578 L 174.56203 98.668406 L 174.763903 98.93132 L 174.872049 98.93132 L 174.9838 98.801664 L 175.09555 98.866492 L 175.293818 98.733234 L 175.780475 98.668406 L 175.841758 98.603578 L 175.957113 98.668406 L 176.03642 98.535148 L 176.407722 98.603578 L 176.4654 98.53875 L 176.580755 98.603578 L 176.807862 98.53875 L 176.897983 98.599977 L 177.326963 98.47032 L 178.181316 98.405492 L 178.21376 98.340664 L 178.32551 93.384914 L 178.401213 95.03443 L 179.032064 97.940891 L 179.810715 100.119836 L 179.998168 100.38275 L 180.120734 100.386352 L 180.21446 100.516008 L 180.434357 100.317922 L 180.538898 100.45118 L 180.650649 100.321523 L 180.7624 100.389953 L 180.971482 100.055008 L 181.299525 99.99018 L 181.523027 99.795695 L 181.923167 99.334695 L 182.045732 99.331094 L 182.366565 99.071781 L 182.63693 99.003352 L 183.105563 98.60718 L 183.32546 98.60718 L 183.804907 98.675609 L 183.913053 98.805266 L 183.963521 98.740438 L 184.298773 98.805266 L 185.369419 99.269867 L 185.470355 99.201438 L 185.910148 99.399523 L 186.018294 99.334695 L 186.115626 99.467953 L 186.256216 99.273469 L 186.321103 99.331094 L 186.555419 99.399523 L 187.07452 99.136609 L 187.22232 99.201438 L 187.283602 99.003352 L 187.384539 99.071781 L 187.835147 98.805266 L 188.026205 98.740438 L 188.480418 98.412695 L 188.783227 98.347867 L 188.999519 98.207406 L 189.633975 98.409094 L 189.972832 98.275836 L 190.282851 98.405492 L 191.126389 98.542352 L 191.677934 98.733234 L 192.730555 98.672008 L 193.390245 98.53875 L 193.920161 98.47032 L 194.233784 98.409094 L 194.88266 98.272234 L 195.073718 98.272234 L 195.574794 98.207406 L 195.729803 98.142578 L 197.442115 98.203805 L 197.676431 98.268633 L 197.766553 98.203805 L 197.874699 98.333461 L 198.080176 98.203805 L 198.307283 98.200203 L 199.143611 98.200203 L 199.5798 98.074148 L 199.907843 98.135375 L 200.131345 97.937289 L 200.210652 98.070547 L 200.441363 98.070547 L 200.751382 98.203805 L 200.978488 98.265031 L 201.101054 98.337063 L 201.612945 98.135375 L 202.041924 98.268633 L 202.481717 98.203805 L 202.561024 98.135375 L 202.795341 98.135375 L 203.105359 98.200203 L 203.325256 98.268633 L 203.638879 98.135375 L 204.060649 98.268633 L 204.922212 98.272234 L 205.041172 98.066945 L 205.23223 98.337063 L 205.675629 98.138977 L 205.769355 98.337063 L 205.992857 98.401891 L 206.302875 98.531547 L 206.753484 98.337063 L 206.969775 98.535148 L 207.297818 98.668406 L 207.485271 98.603578 L 207.816919 98.535148 L 207.92867 98.47032 L 208.361254 98.603578 L 208.682087 98.47032 L 209.201188 98.405492 L 209.302124 98.340664 L 209.630167 98.405492 L 209.965419 98.272234 L 210.073565 98.405492 L 210.21776 98.340664 L 210.286252 98.47032 L 210.372769 98.401891 L 210.592666 98.47032 L 210.805353 98.405492 L 211.02525 98.405492 L 211.234332 98.535148 L 211.764247 98.340664 L 211.857974 98.405492 L 212.838497 98.012922 L 212.953853 98.142578 L 213.162935 98.00932 L 213.469349 98.207406 L 213.591914 98.00932 L 213.912747 98.272234 L 214.132644 98.603578 L 214.345331 98.729633 L 214.565228 98.603578 L 215.008627 98.405492 L 215.077119 98.53875 L 215.415976 98.272234 L 216.165789 98.733234 L 216.281144 98.603578 L 216.598373 98.603578 L 216.901181 98.801664 L 217.009327 98.798063 L 217.243644 98.733234 L 217.665413 98.53875 L 218.076368 98.603578 L 218.303474 98.409094 L 218.393596 98.466719 L 218.505347 98.337063 L 218.736058 98.340664 L 219.154223 98.340664 L 219.388539 98.207406 L 219.601226 98.211008 L 221.09364 98.138977 L 221.180157 98.272234 L 221.51541 98.074148 L 221.735307 98.207406 L 221.821823 98.207406 L 221.92276 98.074148 L 222.045325 98.142578 L 222.243593 98.07775 L 222.586055 98.53875 L 222.697806 98.603578 L 222.809557 98.535148 L 222.896073 98.272234 L 223.022244 98.337063 L 223.220511 98.603578 L 223.436803 98.535148 L 223.761241 98.466719 L 224.298366 98.405492 L 224.525473 98.272234 L 224.59757 98.272234 L 224.712926 98.405492 L 224.824677 98.340664 L 225.098647 98.535148 L 225.177954 98.53875 L 225.372616 98.405492 L 225.740313 98.47032 L 225.985444 98.668406 L 226.111614 98.47032 L 226.223365 98.60718 L 226.327906 98.473922 L 226.868636 99.262664 L 227.510302 98.93132 L 227.766247 98.996148 L 227.939281 98.801664 L 228.472801 98.736836 L 228.570132 98.668406 L 228.804449 98.668406 L 229.44251 98.47032 L 229.97603 98.53875 L 230.073362 98.340664 L 230.477107 98.473922 L 230.707818 98.405492 L 230.920505 98.47032 L 231.017836 98.405492 L 231.129587 98.47032 L 231.230524 98.340664 L 231.436001 98.53875 L 231.547752 98.473922 L 231.987545 98.99975 L 232.189418 98.93132 L 232.632816 98.866492 L 232.722938 98.733234 L 233.061795 98.798063 L 233.162732 98.60718 L 233.270878 98.736836 L 233.494379 98.668406 L 233.685437 98.99975 L 233.811608 98.99975 L 233.901729 99.129406 L 234.024295 98.99975 L 234.14686 99.064578 L 234.236982 98.870094 L 234.658751 99.262664 L 234.795736 99.395922 L 235.617645 99.06818 L 235.89522 99.06818 L 236.172795 98.801664 L 236.360248 98.733234 L 236.490023 98.733234 L 236.58375 98.866492 L 237.023543 98.672008 L 237.214601 98.736836 L 237.665209 98.53875 L 237.766146 98.668406 L 237.874292 98.47032 L 238.072559 98.603578 L 238.296061 98.409094 L 238.631313 98.47032 L 238.728645 98.340664 L 238.955751 98.405492 L 239.377521 98.405492 L 239.478457 98.272234 L 239.579393 98.409094 L 239.820919 98.268633 L 239.93267 98.340664 L 240.062445 98.272234 L 240.246293 96.637125 L 240.451771 96.114898 L 242.589456 82.151641 L 242.88866 80.768641 L 243.537536 79.56932 L 243.872789 70.396141 L 244.204436 75.974961 L 244.445962 79.317211 L 244.521664 79.219969 L 244.831683 77.556047 L 244.943434 77.105852 L 245.260662 78.168313 L 245.588705 78.434828 L 246.046523 79.288398 L 246.306073 79.990703 L 246.417824 79.987102 L 247.156821 81.352094 L 247.301016 81.341289 L 248.569929 82.983602 L 249.096239 83.174484 L 249.427887 83.138469 L 249.561267 83.14207 L 249.846051 82.832336 L 249.954197 82.738695 L 250.217353 82.670266 L 250.278635 82.342523 L 250.375967 80.28243 L 250.462484 80.563352 L 250.642727 80.336453 L 250.722034 80.343656 L 251.028448 79.594531 L 251.558363 78.816594 L 252.85251 73.194555 L 254.027696 67.367227 L 254.280037 66.700938 L 254.788323 64.968586 L 255.011824 64.446359 L 255.13439 64.446359 L 255.350682 63.956547 L 255.649886 63.491945 L 255.783266 63.45593 L 255.94188 63.268648 L 256.251898 63.149797 L 256.673668 62.746422 L 256.796233 62.822055 L 257.221607 62.296227 L 257.546045 61.928867 L 257.866878 61.478672 L 258.187711 60.758359 L 259.990144 58.244469 L 260.310977 58.309297 L 260.444357 58.258875 L 260.552503 58.060789 L 260.765191 58.046383 L 260.956248 57.967148 L 261.18696 57.877109 L 261.540237 57.938336 L 261.659197 57.873508 L 261.716875 57.988758 L 262.466687 57.452125 L 262.78752 57.833891 L 263.018232 57.801477 L 263.155217 57.729445 L 263.32825 57.383695 L 263.519308 57.297258 L 264.611583 56.677789 L 264.82427 56.389664 L 265.069401 56.249203 L 265.246039 56.133953 L 266.536581 55.233563 L 266.651937 55.374023 L 266.868229 55.226359 L 266.961955 55.363219 L 267.819913 55.175938 L 267.931664 55.053484 L 268.072254 55.161531 L 268.151561 55.064289 L 268.775203 54.999461 L 269.013124 54.783367 L 269.157319 54.869805 L 269.64758 54.437617 L 269.871082 54.35118 L 269.968413 54.030641 L 270.296456 54.030641 L 270.419022 53.59125 L 270.501934 53.681289 L 270.620894 53.569641 L 270.822767 53.955008 L 270.927308 54.225125 L 271.071502 54.199914 L 271.493272 53.645273 L 271.774451 53.915391 L 271.893412 53.836156 L 272.116914 53.886578 L 272.542288 53.670484 L 272.866726 53.864969 L 272.956847 53.778531 L 273.15151 53.929797 L 273.807596 53.947805 L 274.236575 54.199914 L 274.539383 54.239531 L 274.780909 54.315164 L 275.31443 54.185508 L 275.411761 54.340375 L 275.635263 54.35118 L 275.829925 54.502445 L 276.305768 54.462828 L 276.395889 54.289953 L 276.504035 54.473633 L 276.608577 54.387195 L 277.127677 54.736547 L 277.444905 54.592484 L 277.664802 54.6285 L 277.780158 54.660914 L 277.98924 54.574477 L 278.086572 54.495242 L 278.212742 54.556469 L 278.306468 54.383594 L 278.519155 54.473633 L 278.951739 54.693328 L 279.052676 54.488039 L 279.164427 54.58168 L 279.402348 54.372789 L 279.48526 54.286352 L 279.824117 54.531258 L 280.022385 54.416008 L 280.444154 54.423211 L 280.873133 54.28275 L 280.988489 54.398 L 281.193966 54.217922 L 281.817608 54.160297 L 281.918544 54.257539 L 282.261006 54.048648 L 282.610678 53.976617 L 282.83418 54.189109 L 282.924302 54.127883 L 283.025238 53.746117 L 283.140594 53.893781 L 283.255949 53.861367 L 283.522709 54.441219 L 283.955293 54.185508 L 284.391482 54.347578 L 284.506838 53.998227 L 284.611379 54.084664 L 284.834881 53.991023 L 285.159319 53.969414 L 285.335957 54.113477 L 285.458523 53.843359 L 285.894711 54.045047 L 286.089374 54.365586 L 286.226359 54.423211 L 286.543587 54.066656 L 286.947332 54.477234 L 287.394336 54.322367 L 287.588998 54.063055 L 287.81971 54.300758 L 287.931461 54.023438 L 288.032397 54.261141 L 288.266713 54.113477 L 288.908379 54.549266 L 289.02734 54.217922 L 289.2941 54.304359 L 289.41306 54.361984 L 289.506787 54.185508 L 289.755523 54.239531 L 289.961 54.203516 L 290.332301 54.693328 L 290.678368 57.041547 L 291.100138 59.07643 L 291.824716 60.682727 L 292.149154 61.287789 L 293.230614 63.798078 L 294.185903 66.722547 L 295.411557 71.487414 L 295.707157 72.470641 L 296.795826 77.635281 L 297.855657 83.804758 L 298.529767 87.957359 L 301.341562 104.290445 L 301.496571 104.596578 L 302.163471 108.050477 L 303.500877 114.407234 L 303.706354 114.983484 L 304.171382 115.883875 L 305.137486 116.539359 L 305.249237 116.575375 L 305.591699 116.251234 L 305.934161 115.736211 L 306.539779 113.978648 L 306.875031 112.401164 L 307.213889 111.061383 L 307.426576 109.88007 L 308.699093 103.145148 L 309.128073 100.922984 L 309.308316 100.368344 L 309.549842 99.705656 L 309.888699 99.269867 L 310.393381 98.762047 L 310.454663 98.772852 L 310.523156 98.574766 L 310.580834 98.650398 L 311.233314 98.200203 L 311.334251 98.272234 L 311.438792 98.153383 L 311.550542 98.221813 L 311.76323 97.998516 L 312.714914 97.584336 L 312.82306 97.440273 L 312.95644 97.555523 L 313.147498 97.375445 L 313.468331 97.260195 L 313.587292 97.0405 L 313.807189 97.346633 L 313.89731 97.281805 L 314.109997 97.314219 L 314.30466 97.289008 L 314.448855 97.375445 L 316.683872 98.056141 L 316.806437 98.225414 L 317.437289 98.142578 L 317.538225 98.304648 L 317.866268 98.066945 L 318.507934 97.789625 L 318.62329 97.631156 L 318.724226 97.692383 L 319.94988 96.64793 L 320.245479 96.244555 L 320.649224 96.039266 L 320.865516 96.05007 L 320.912379 95.93482 L 320.977267 94.015188 L 321.287286 94.764313 L 321.737894 95.189297 L 322.469682 96.014055 L 322.581432 96.010453 L 322.729232 96.143711 L 322.804934 96.014055 L 323.003202 96.082484 L 323.125767 96.078883 L 323.208679 95.949227 L 323.31322 96.075281 L 323.432181 95.938422 L 323.630448 95.931219 L 324.063032 95.783555 L 325.357179 95.689914 L 325.559052 95.733133 L 325.678012 95.653898 L 325.764529 95.776352 L 325.887095 95.621484 L 326.13583 95.733133 L 326.197113 95.581867 L 326.431429 95.625086 L 326.539575 95.545852 L 327.0767 96.017656 L 327.606616 96.021258 L 327.916634 96.255359 L 328.028385 96.104094 L 328.143741 96.215742 L 328.453759 96.042867 L 328.569115 96.104094 L 328.659236 96.021258 L 328.778197 96.132906 L 329.297298 95.880797 L 330.382362 95.920414 L 330.71401 96.057273 L 330.908673 95.963633 L 331.355676 96.00325 L 331.561154 96.032063 L 331.878382 96.104094 L 332.008157 96.014055 L 332.087464 96.143711 L 332.199215 96.111297 L 332.307361 96.230148 L 332.548887 96.201336 L 333.049963 96.05007 L 333.168924 96.244555 L 333.367191 96.150914 L 333.702444 95.913211 L 333.792566 96.042867 L 334.008858 96.021258 L 335.82571 95.765547 L 335.977114 95.625086 L 336.042002 95.758344 L 336.258294 95.614281 L 336.445747 95.743938 L 336.568312 95.992445 L 336.993687 95.830375 L 337.116252 95.895203 L 337.364988 95.754742 L 337.534416 95.682711 L 337.649772 95.632289 L 337.747104 95.740336 L 337.851645 95.617883 L 337.970605 95.747539 L 338.204922 95.675508 L 338.38877 95.797961 L 338.817749 95.920414 L 339.149396 95.84118 L 339.906418 95.826773 L 340.007355 95.682711 L 340.12271 95.81957 L 340.324583 95.751141 L 340.757167 96.266164 L 341.287082 96.136508 L 341.377204 96.057273 L 341.506979 96.136508 L 341.61873 96.060875 L 341.762924 96.125703 L 341.827812 95.996047 L 341.939563 96.136508 L 342.051314 95.996047 L 342.141435 96.201336 L 342.368542 95.996047 L 342.55239 96.064477 L 342.790311 96.392219 L 343.201266 96.323789 L 343.323831 96.201336 L 343.644664 96.341797 L 343.756415 96.273367 L 343.947473 96.475055 L 344.282726 96.28057 L 344.44134 96.341797 L 344.614373 96.215742 L 344.718914 96.28057 L 345.039747 96.158117 L 345.24162 96.161719 L 345.573268 96.158117 L 345.677809 96.370609 L 345.793164 96.291375 L 345.998642 96.561492 L 346.542977 97.022492 L 346.734034 96.968469 L 346.950326 96.961266 L 347.822704 96.986477 L 348.680662 96.928852 L 349.033939 96.788391 L 349.617927 97.314219 L 350.490305 97.051305 L 350.602056 97.191766 L 350.803928 97.126938 L 351.02022 97.123336 L 351.232907 97.116133 L 351.97551 97.112531 L 352.206221 97.051305 L 352.750556 97.123336 L 352.880331 97.238586 L 352.948823 97.044102 L 353.038945 97.10893 L 353.273261 97.177359 L 353.813991 97.706789 L 353.907718 97.559125 L 354.340302 97.5015 L 354.794515 97.292609 L 354.884636 97.429469 L 355.104533 97.429469 L 355.18384 97.559125 L 355.439786 97.422266 L 355.814692 97.422266 L 356.056218 97.613148 L 356.157154 97.54832 L 356.276115 97.216977 L 356.355422 97.469086 L 356.788006 97.796828 L 357.119653 97.656367 " transform="matrix(1.083605,0,0,1.084599,0,0)"/>
<path style="fill:none;stroke-width:2.5;stroke-linecap:butt;stroke-linejoin:round;stroke:rgb(100%,0%,0%);stroke-opacity:1;stroke-dasharray:9.25,4;stroke-miterlimit:4;" d="M 115.200702 98.47032 L 243.220308 98.47032 L 243.328454 55.078695 L 289.506787 55.078695 L 289.755523 98.47032 L 357.119653 98.47032 " transform="matrix(1.083605,0,0,1.084599,0,0)"/>
<path style="fill:none;stroke-width:0.8;stroke-linecap:square;stroke-linejoin:miter;stroke:rgb(0%,0%,0%);stroke-opacity:1;stroke-miterlimit:10;" d="M 103.102772 307.584242 L 103.102772 41.471992 M 369.217584 307.584242 L 369.217584 41.471992 M 103.102772 307.584242 L 369.217584 307.584242 M 103.102772 41.471992 L 369.217584 41.471992 " transform="matrix(1.083605,0,0,1.084599,0,0)"/>
<path style="fill-rule:nonzero;fill:rgb(100%,100%,100%);fill-opacity:0.8;stroke-width:1;stroke-linecap:butt;stroke-linejoin:miter;stroke:rgb(83.529412%,83.921569%,83.529412%);stroke-opacity:0.8;stroke-miterlimit:10;" d="M 110.103422 78.816594 L 238.948542 78.816594 C 240.282342 78.816594 240.949242 78.150305 240.949242 76.817727 L 240.949242 48.47343 C 240.949242 47.13725 240.282342 46.470961 238.948542 46.470961 L 110.103422 46.470961 C 108.769621 46.470961 108.102721 47.13725 108.102721 48.47343 L 108.102721 76.817727 C 108.102721 78.150305 108.769621 78.816594 110.103422 78.816594 Z M 110.103422 78.816594 " transform="matrix(1.083605,0,0,1.084599,0,0)"/>
<path style="fill:none;stroke-width:2.5;stroke-linecap:square;stroke-linejoin:round;stroke:rgb(0%,50.196078%,50.196078%);stroke-opacity:1;stroke-miterlimit:4;" d="M 112.104122 54.567273 L 132.103919 54.567273 " transform="matrix(1.083605,0,0,1.084599,0,0)"/>
<path style=" stroke:none;fill-rule:nonzero;fill:rgb(0%,0%,0%);fill-opacity:1;" d="M 158.796875 55.679688 L 158.796875 56.808594 C 158.425781 56.480469 158.046875 56.230469 157.636719 56.058594 C 157.222656 55.894531 156.800781 55.808594 156.347656 55.808594 C 155.4375 55.808594 154.742188 56.089844 154.265625 56.644531 C 153.789062 57.199219 153.550781 57.988281 153.550781 59.03125 C 153.550781 60.070312 153.789062 60.875 154.265625 61.425781 C 154.742188 61.980469 155.4375 62.25 156.347656 62.25 C 156.800781 62.25 157.222656 62.175781 157.636719 62.003906 C 158.046875 61.839844 158.425781 61.589844 158.796875 61.253906 L 158.796875 62.371094 C 158.417969 62.632812 158.015625 62.816406 157.605469 62.933594 C 157.191406 63.054688 156.746094 63.121094 156.28125 63.121094 C 155.089844 63.121094 154.148438 62.761719 153.453125 62.035156 C 152.761719 61.308594 152.425781 60.308594 152.425781 59.03125 C 152.425781 57.761719 152.761719 56.761719 153.453125 56.027344 C 154.148438 55.300781 155.089844 54.929688 156.28125 54.929688 C 156.757812 54.929688 157.203125 54.996094 157.613281 55.113281 C 158.027344 55.246094 158.425781 55.429688 158.796875 55.679688 Z M 158.796875 55.679688 "/>
<path style=" stroke:none;fill-rule:nonzero;fill:rgb(0%,0%,0%);fill-opacity:1;" d="M 160.300781 60.636719 L 160.300781 57.046875 L 161.277344 57.046875 L 161.277344 60.601562 C 161.277344 61.167969 161.386719 61.578125 161.601562 61.859375 C 161.820312 62.144531 162.144531 62.285156 162.589844 62.285156 C 163.109375 62.285156 163.53125 62.121094 163.835938 61.785156 C 164.136719 61.449219 164.289062 60.992188 164.289062 60.40625 L 164.289062 57.046875 L 165.265625 57.046875 L 165.265625 62.976562 L 164.289062 62.976562 L 164.289062 62.066406 C 164.050781 62.4375 163.769531 62.695312 163.464844 62.871094 C 163.152344 63.03125 162.792969 63.121094 162.382812 63.121094 C 161.699219 63.121094 161.179688 62.914062 160.832031 62.492188 C 160.476562 62.078125 160.300781 61.460938 160.300781 60.636719 Z M 162.75 56.90625 Z M 162.75 56.90625 "/>
<path style=" stroke:none;fill-rule:nonzero;fill:rgb(0%,0%,0%);fill-opacity:1;" d="M 170.703125 57.957031 C 170.597656 57.890625 170.476562 57.847656 170.347656 57.816406 C 170.21875 57.792969 170.074219 57.773438 169.925781 57.773438 C 169.371094 57.773438 168.949219 57.957031 168.65625 58.316406 C 168.351562 58.671875 168.210938 59.183594 168.210938 59.855469 L 168.210938 62.976562 L 167.238281 62.976562 L 167.238281 57.046875 L 168.210938 57.046875 L 168.210938 57.96875 C 168.40625 57.609375 168.679688 57.339844 169.003906 57.164062 C 169.328125 56.992188 169.730469 56.90625 170.207031 56.90625 C 170.269531 56.90625 170.347656 56.914062 170.433594 56.914062 C 170.507812 56.925781 170.597656 56.9375 170.703125 56.957031 Z M 170.703125 57.957031 "/>
<path style=" stroke:none;fill-rule:nonzero;fill:rgb(0%,0%,0%);fill-opacity:1;" d="M 174.972656 57.957031 C 174.863281 57.890625 174.746094 57.847656 174.613281 57.816406 C 174.484375 57.792969 174.34375 57.773438 174.191406 57.773438 C 173.640625 57.773438 173.214844 57.957031 172.921875 58.316406 C 172.621094 58.671875 172.480469 59.183594 172.480469 59.855469 L 172.480469 62.976562 L 171.503906 62.976562 L 171.503906 57.046875 L 172.480469 57.046875 L 172.480469 57.96875 C 172.675781 57.609375 172.945312 57.339844 173.269531 57.164062 C 173.59375 56.992188 173.996094 56.90625 174.472656 56.90625 C 174.539062 56.90625 174.613281 56.914062 174.699219 56.914062 C 174.777344 56.925781 174.863281 56.9375 174.972656 56.957031 Z M 174.972656 57.957031 "/>
<path style=" stroke:none;fill-rule:nonzero;fill:rgb(0%,0%,0%);fill-opacity:1;" d="M 180.824219 59.769531 L 180.824219 60.246094 L 176.347656 60.246094 C 176.390625 60.917969 176.585938 61.4375 176.957031 61.785156 C 177.3125 62.132812 177.8125 62.304688 178.460938 62.304688 C 178.832031 62.304688 179.199219 62.261719 179.546875 62.175781 C 179.890625 62.089844 180.25 61.949219 180.597656 61.753906 L 180.597656 62.675781 C 180.25 62.828125 179.890625 62.945312 179.523438 63.011719 C 179.15625 63.074219 178.777344 63.121094 178.40625 63.121094 C 177.453125 63.121094 176.707031 62.847656 176.152344 62.304688 C 175.601562 61.761719 175.332031 61.015625 175.332031 60.070312 C 175.332031 59.105469 175.589844 58.335938 176.109375 57.761719 C 176.628906 57.199219 177.347656 56.90625 178.234375 56.90625 C 179.035156 56.90625 179.664062 57.164062 180.132812 57.675781 C 180.585938 58.195312 180.824219 58.890625 180.824219 59.769531 Z M 179.847656 59.484375 C 179.839844 58.953125 179.6875 58.53125 179.40625 58.207031 C 179.113281 57.890625 178.722656 57.730469 178.246094 57.730469 C 177.703125 57.730469 177.269531 57.890625 176.945312 58.195312 C 176.621094 58.5 176.425781 58.933594 176.382812 59.484375 Z M 179.847656 59.484375 "/>
<path style=" stroke:none;fill-rule:nonzero;fill:rgb(0%,0%,0%);fill-opacity:1;" d="M 187.347656 59.398438 L 187.347656 62.976562 L 186.371094 62.976562 L 186.371094 59.433594 C 186.371094 58.867188 186.253906 58.457031 186.035156 58.171875 C 185.820312 57.890625 185.496094 57.75 185.0625 57.75 C 184.53125 57.75 184.117188 57.925781 183.816406 58.261719 C 183.511719 58.597656 183.359375 59.050781 183.359375 59.625 L 183.359375 62.976562 L 182.386719 62.976562 L 182.386719 57.046875 L 183.359375 57.046875 L 183.359375 57.96875 C 183.585938 57.621094 183.859375 57.347656 184.183594 57.175781 C 184.496094 57.003906 184.867188 56.90625 185.277344 56.90625 C 185.949219 56.90625 186.46875 57.121094 186.816406 57.542969 C 187.164062 57.96875 187.347656 58.585938 187.347656 59.398438 Z M 187.347656 59.398438 "/>
<path style=" stroke:none;fill-rule:nonzero;fill:rgb(0%,0%,0%);fill-opacity:1;" d="M 190.25 55.363281 L 190.25 57.046875 L 192.257812 57.046875 L 192.257812 57.804688 L 190.25 57.804688 L 190.25 61.027344 C 190.25 61.515625 190.316406 61.828125 190.445312 61.957031 C 190.578125 62.101562 190.847656 62.164062 191.257812 62.164062 L 192.257812 62.164062 L 192.257812 62.976562 L 191.257812 62.976562 C 190.5 62.976562 189.980469 62.835938 189.699219 62.554688 C 189.417969 62.273438 189.277344 61.761719 189.277344 61.027344 L 189.277344 57.804688 L 188.5625 57.804688 L 188.5625 57.046875 L 189.277344 57.046875 L 189.277344 55.363281 Z M 190.25 55.363281 "/>
<path style=" stroke:none;fill-rule:nonzero;fill:rgb(0%,0%,0%);fill-opacity:1;" d="M 200.761719 57.21875 L 200.761719 58.140625 C 200.480469 58.011719 200.199219 57.902344 199.90625 57.828125 C 199.601562 57.761719 199.300781 57.71875 198.984375 57.71875 C 198.496094 57.71875 198.128906 57.792969 197.890625 57.945312 C 197.652344 58.097656 197.535156 58.316406 197.535156 58.605469 C 197.535156 58.835938 197.621094 59.007812 197.792969 59.140625 C 197.96875 59.269531 198.3125 59.398438 198.832031 59.507812 L 199.167969 59.582031 C 199.863281 59.734375 200.351562 59.953125 200.644531 60.210938 C 200.925781 60.484375 201.078125 60.863281 201.078125 61.339844 C 201.078125 61.894531 200.859375 62.328125 200.425781 62.640625 C 199.992188 62.96875 199.386719 63.121094 198.628906 63.121094 C 198.304688 63.121094 197.976562 63.085938 197.632812 63.03125 C 197.285156 62.976562 196.925781 62.890625 196.546875 62.761719 L 196.546875 61.753906 C 196.90625 61.949219 197.261719 62.089844 197.609375 62.175781 C 197.957031 62.273438 198.304688 62.316406 198.648438 62.316406 C 199.105469 62.316406 199.460938 62.242188 199.710938 62.089844 C 199.949219 61.9375 200.078125 61.710938 200.078125 61.417969 C 200.078125 61.15625 199.984375 60.949219 199.808594 60.808594 C 199.636719 60.667969 199.246094 60.527344 198.640625 60.398438 L 198.304688 60.320312 C 197.695312 60.191406 197.25 59.996094 196.992188 59.734375 C 196.722656 59.476562 196.589844 59.117188 196.589844 58.652344 C 196.589844 58.097656 196.785156 57.664062 197.175781 57.359375 C 197.566406 57.054688 198.128906 56.90625 198.867188 56.90625 C 199.222656 56.90625 199.558594 56.9375 199.886719 56.992188 C 200.199219 57.046875 200.492188 57.121094 200.761719 57.21875 Z M 200.761719 57.21875 "/>
<path style=" stroke:none;fill-rule:nonzero;fill:rgb(0%,0%,0%);fill-opacity:1;" d="M 203.570312 62.089844 L 203.570312 65.222656 L 202.59375 65.222656 L 202.59375 57.046875 L 203.570312 57.046875 L 203.570312 57.945312 C 203.765625 57.597656 204.023438 57.339844 204.339844 57.164062 C 204.652344 56.992188 205.03125 56.90625 205.464844 56.90625 C 206.179688 56.90625 206.765625 57.199219 207.222656 57.761719 C 207.664062 58.335938 207.894531 59.085938 207.894531 60.015625 C 207.894531 60.949219 207.664062 61.710938 207.222656 62.273438 C 206.765625 62.835938 206.179688 63.121094 205.464844 63.121094 C 205.03125 63.121094 204.652344 63.03125 204.339844 62.871094 C 204.023438 62.707031 203.765625 62.445312 203.570312 62.089844 Z M 206.886719 60.015625 C 206.886719 59.300781 206.734375 58.75 206.441406 58.335938 C 206.136719 57.925781 205.738281 57.71875 205.226562 57.71875 C 204.707031 57.71875 204.304688 57.925781 204.011719 58.335938 C 203.710938 58.75 203.570312 59.300781 203.570312 60.015625 C 203.570312 60.734375 203.710938 61.296875 204.011719 61.710938 C 204.304688 62.121094 204.707031 62.316406 205.226562 62.316406 C 205.738281 62.316406 206.136719 62.121094 206.441406 61.710938 C 206.734375 61.296875 206.886719 60.734375 206.886719 60.015625 Z M 206.886719 60.015625 "/>
<path style=" stroke:none;fill-rule:nonzero;fill:rgb(0%,0%,0%);fill-opacity:1;" d="M 214.578125 59.769531 L 214.578125 60.246094 L 210.101562 60.246094 C 210.148438 60.917969 210.339844 61.4375 210.710938 61.785156 C 211.066406 62.132812 211.566406 62.304688 212.214844 62.304688 C 212.585938 62.304688 212.953125 62.261719 213.300781 62.175781 C 213.648438 62.089844 214.003906 61.949219 214.351562 61.753906 L 214.351562 62.675781 C 214.003906 62.828125 213.648438 62.945312 213.277344 63.011719 C 212.910156 63.074219 212.53125 63.121094 212.164062 63.121094 C 211.207031 63.121094 210.460938 62.847656 209.910156 62.304688 C 209.355469 61.761719 209.085938 61.015625 209.085938 60.070312 C 209.085938 59.105469 209.34375 58.335938 209.863281 57.761719 C 210.386719 57.199219 211.101562 56.90625 211.988281 56.90625 C 212.789062 56.90625 213.417969 57.164062 213.886719 57.675781 C 214.339844 58.195312 214.578125 58.890625 214.578125 59.769531 Z M 213.601562 59.484375 C 213.59375 58.953125 213.441406 58.53125 213.160156 58.207031 C 212.867188 57.890625 212.476562 57.730469 212 57.730469 C 211.457031 57.730469 211.023438 57.890625 210.699219 58.195312 C 210.375 58.5 210.179688 58.933594 210.136719 59.484375 Z M 213.601562 59.484375 "/>
<path style=" stroke:none;fill-rule:nonzero;fill:rgb(0%,0%,0%);fill-opacity:1;" d="M 221.242188 59.769531 L 221.242188 60.246094 L 216.765625 60.246094 C 216.8125 60.917969 217.007812 61.4375 217.375 61.785156 C 217.730469 62.132812 218.230469 62.304688 218.878906 62.304688 C 219.25 62.304688 219.617188 62.261719 219.964844 62.175781 C 220.3125 62.089844 220.667969 61.949219 221.015625 61.753906 L 221.015625 62.675781 C 220.667969 62.828125 220.3125 62.945312 219.941406 63.011719 C 219.574219 63.074219 219.195312 63.121094 218.828125 63.121094 C 217.871094 63.121094 217.125 62.847656 216.574219 62.304688 C 216.019531 61.761719 215.75 61.015625 215.75 60.070312 C 215.75 59.105469 216.007812 58.335938 216.527344 57.761719 C 217.050781 57.199219 217.765625 56.90625 218.652344 56.90625 C 219.453125 56.90625 220.082031 57.164062 220.550781 57.675781 C 221.003906 58.195312 221.242188 58.890625 221.242188 59.769531 Z M 220.269531 59.484375 C 220.257812 58.953125 220.105469 58.53125 219.824219 58.207031 C 219.53125 57.890625 219.140625 57.730469 218.664062 57.730469 C 218.121094 57.730469 217.6875 57.890625 217.363281 58.195312 C 217.039062 58.5 216.84375 58.933594 216.800781 59.484375 Z M 220.269531 59.484375 "/>
<path style=" stroke:none;fill-rule:nonzero;fill:rgb(0%,0%,0%);fill-opacity:1;" d="M 226.738281 57.945312 L 226.738281 54.734375 L 227.710938 54.734375 L 227.710938 62.976562 L 226.738281 62.976562 L 226.738281 62.089844 C 226.53125 62.445312 226.269531 62.707031 225.957031 62.871094 C 225.640625 63.03125 225.273438 63.121094 224.839844 63.121094 C 224.125 63.121094 223.539062 62.835938 223.085938 62.273438 C 222.628906 61.710938 222.414062 60.949219 222.414062 60.015625 C 222.414062 59.085938 222.628906 58.335938 223.085938 57.761719 C 223.539062 57.199219 224.125 56.90625 224.839844 56.90625 C 225.273438 56.90625 225.640625 56.992188 225.957031 57.164062 C 226.269531 57.339844 226.53125 57.597656 226.738281 57.945312 Z M 223.421875 60.015625 C 223.421875 60.734375 223.5625 61.296875 223.855469 61.710938 C 224.148438 62.121094 224.546875 62.316406 225.066406 62.316406 C 225.589844 62.316406 225.988281 62.121094 226.292969 61.710938 C 226.585938 61.296875 226.738281 60.734375 226.738281 60.015625 C 226.738281 59.300781 226.585938 58.75 226.292969 58.335938 C 225.988281 57.925781 225.589844 57.71875 225.066406 57.71875 C 224.546875 57.71875 224.148438 57.925781 223.855469 58.335938 C 223.5625 58.75 223.421875 59.300781 223.421875 60.015625 Z M 223.421875 60.015625 "/>
<path style=" stroke:none;fill-rule:nonzero;fill:rgb(0%,0%,0%);fill-opacity:1;" d="M 235.503906 54.746094 C 235.027344 55.570312 234.679688 56.375 234.453125 57.164062 C 234.214844 57.957031 234.105469 58.757812 234.105469 59.574219 C 234.105469 60.398438 234.214844 61.199219 234.453125 61.992188 C 234.679688 62.792969 235.027344 63.585938 235.503906 64.398438 L 234.65625 64.398438 C 234.125 63.5625 233.726562 62.761719 233.464844 61.957031 C 233.207031 61.15625 233.074219 60.363281 233.074219 59.574219 C 233.074219 58.792969 233.207031 58 233.464844 57.199219 C 233.726562 56.394531 234.117188 55.582031 234.65625 54.746094 Z M 235.503906 54.746094 "/>
<path style=" stroke:none;fill-rule:nonzero;fill:rgb(0%,0%,0%);fill-opacity:1;" d="M 240.640625 55.796875 C 239.859375 55.796875 239.242188 56.089844 238.785156 56.664062 C 238.332031 57.25 238.105469 58.03125 238.105469 59.03125 C 238.105469 60.027344 238.332031 60.820312 238.785156 61.394531 C 239.242188 61.980469 239.859375 62.261719 240.640625 62.261719 C 241.410156 62.261719 242.027344 61.980469 242.480469 61.394531 C 242.9375 60.820312 243.164062 60.027344 243.164062 59.03125 C 243.164062 58.03125 242.9375 57.25 242.480469 56.664062 C 242.027344 56.089844 241.410156 55.796875 240.640625 55.796875 Z M 240.640625 54.929688 C 241.746094 54.929688 242.621094 55.308594 243.292969 56.046875 C 243.957031 56.785156 244.292969 57.78125 244.292969 59.03125 C 244.292969 60.289062 243.957031 61.277344 243.292969 62.011719 C 242.621094 62.75 241.746094 63.121094 240.640625 63.121094 C 239.523438 63.121094 238.632812 62.75 237.972656 62.011719 C 237.300781 61.277344 236.976562 60.289062 236.976562 59.03125 C 236.976562 57.78125 237.300781 56.785156 237.972656 56.046875 C 238.632812 55.308594 239.523438 54.929688 240.640625 54.929688 Z M 240.640625 54.929688 "/>
<path style=" stroke:none;fill-rule:nonzero;fill:rgb(0%,0%,0%);fill-opacity:1;" d="M 250.695312 55.332031 L 250.695312 56.375 C 250.285156 56.179688 249.902344 56.035156 249.546875 55.9375 C 249.179688 55.851562 248.832031 55.796875 248.507812 55.796875 C 247.921875 55.796875 247.464844 55.917969 247.152344 56.132812 C 246.835938 56.363281 246.6875 56.6875 246.6875 57.101562 C 246.6875 57.445312 246.785156 57.71875 247 57.890625 C 247.207031 58.074219 247.605469 58.21875 248.191406 58.324219 L 248.84375 58.457031 C 249.632812 58.605469 250.21875 58.878906 250.597656 59.257812 C 250.976562 59.648438 251.171875 60.160156 251.171875 60.796875 C 251.171875 61.566406 250.910156 62.144531 250.402344 62.535156 C 249.882812 62.925781 249.136719 63.121094 248.148438 63.121094 C 247.769531 63.121094 247.367188 63.074219 246.945312 63 C 246.523438 62.925781 246.089844 62.804688 245.644531 62.632812 L 245.644531 61.523438 C 246.078125 61.773438 246.5 61.957031 246.914062 62.078125 C 247.324219 62.207031 247.738281 62.261719 248.148438 62.261719 C 248.753906 62.261719 249.222656 62.144531 249.558594 61.90625 C 249.882812 61.664062 250.054688 61.328125 250.054688 60.875 C 250.054688 60.484375 249.9375 60.179688 249.699219 59.964844 C 249.460938 59.746094 249.070312 59.582031 248.527344 59.476562 L 247.878906 59.34375 C 247.074219 59.191406 246.5 58.945312 246.144531 58.597656 C 245.785156 58.261719 245.613281 57.792969 245.613281 57.1875 C 245.613281 56.492188 245.851562 55.9375 246.351562 55.539062 C 246.835938 55.136719 247.519531 54.929688 248.386719 54.929688 C 248.753906 54.929688 249.125 54.964844 249.515625 55.027344 C 249.894531 55.09375 250.285156 55.203125 250.695312 55.332031 Z M 250.695312 55.332031 "/>
<path style=" stroke:none;fill-rule:nonzero;fill:rgb(0%,0%,0%);fill-opacity:1;" d="M 252.644531 54.746094 L 253.492188 54.746094 C 254.011719 55.582031 254.410156 56.394531 254.671875 57.199219 C 254.933594 58 255.074219 58.792969 255.074219 59.574219 C 255.074219 60.363281 254.933594 61.15625 254.671875 61.957031 C 254.410156 62.761719 254.011719 63.5625 253.492188 64.398438 L 252.644531 64.398438 C 253.113281 63.585938 253.457031 62.792969 253.695312 61.992188 C 253.925781 61.199219 254.042969 60.398438 254.042969 59.574219 C 254.042969 58.757812 253.925781 57.957031 253.695312 57.164062 C 253.457031 56.375 253.113281 55.570312 252.644531 54.746094 Z M 252.644531 54.746094 "/>
<path style="fill:none;stroke-width:2.5;stroke-linecap:butt;stroke-linejoin:round;stroke:rgb(100%,0%,0%);stroke-opacity:1;stroke-dasharray:9.25,4;stroke-miterlimit:4;" d="M 112.104122 69.236438 L 132.103919 69.236438 " transform="matrix(1.083605,0,0,1.084599,0,0)"/>
<path style=" stroke:none;fill-rule:nonzero;fill:rgb(0%,0%,0%);fill-opacity:1;" d="M 153.953125 71.863281 L 153.953125 78.011719 L 155.242188 78.011719 C 156.324219 78.011719 157.128906 77.773438 157.636719 77.277344 C 158.136719 76.777344 158.394531 75.996094 158.394531 74.933594 C 158.394531 73.871094 158.136719 73.101562 157.636719 72.601562 C 157.128906 72.113281 156.324219 71.863281 155.242188 71.863281 Z M 152.878906 70.984375 L 155.078125 70.984375 C 156.605469 70.984375 157.734375 71.308594 158.449219 71.9375 C 159.164062 72.578125 159.523438 73.578125 159.523438 74.933594 C 159.523438 76.300781 159.152344 77.296875 158.4375 77.9375 C 157.722656 78.578125 156.597656 78.890625 155.078125 78.890625 L 152.878906 78.890625 Z M 152.878906 70.984375 "/>
<path style=" stroke:none;fill-rule:nonzero;fill:rgb(0%,0%,0%);fill-opacity:1;" d="M 166.25 75.679688 L 166.25 76.160156 L 161.777344 76.160156 C 161.820312 76.832031 162.015625 77.351562 162.382812 77.699219 C 162.738281 78.046875 163.238281 78.21875 163.890625 78.21875 C 164.257812 78.21875 164.625 78.175781 164.972656 78.089844 C 165.320312 78.003906 165.675781 77.859375 166.023438 77.664062 L 166.023438 78.585938 C 165.675781 78.738281 165.320312 78.859375 164.949219 78.925781 C 164.582031 78.988281 164.203125 79.03125 163.835938 79.03125 C 162.882812 79.03125 162.132812 78.761719 161.582031 78.21875 C 161.027344 77.675781 160.757812 76.929688 160.757812 75.984375 C 160.757812 75.019531 161.015625 74.25 161.539062 73.675781 C 162.058594 73.109375 162.773438 72.816406 163.660156 72.816406 C 164.464844 72.816406 165.089844 73.078125 165.558594 73.585938 C 166.011719 74.109375 166.25 74.800781 166.25 75.679688 Z M 165.277344 75.398438 C 165.265625 74.867188 165.113281 74.445312 164.832031 74.121094 C 164.539062 73.804688 164.148438 73.640625 163.671875 73.640625 C 163.128906 73.640625 162.695312 73.804688 162.371094 74.109375 C 162.046875 74.414062 161.851562 74.847656 161.808594 75.398438 Z M 165.277344 75.398438 "/>
<path style=" stroke:none;fill-rule:nonzero;fill:rgb(0%,0%,0%);fill-opacity:1;" d="M 171.625 73.132812 L 171.625 74.054688 C 171.34375 73.925781 171.0625 73.816406 170.769531 73.738281 C 170.464844 73.675781 170.164062 73.632812 169.847656 73.632812 C 169.359375 73.632812 168.992188 73.707031 168.753906 73.859375 C 168.515625 74.011719 168.398438 74.226562 168.398438 74.519531 C 168.398438 74.75 168.484375 74.921875 168.65625 75.050781 C 168.828125 75.183594 169.175781 75.3125 169.695312 75.421875 L 170.03125 75.496094 C 170.726562 75.648438 171.214844 75.867188 171.507812 76.125 C 171.789062 76.398438 171.941406 76.777344 171.941406 77.253906 C 171.941406 77.808594 171.722656 78.242188 171.289062 78.554688 C 170.855469 78.878906 170.25 79.03125 169.492188 79.03125 C 169.164062 79.03125 168.839844 79 168.492188 78.945312 C 168.148438 78.890625 167.789062 78.804688 167.410156 78.675781 L 167.410156 77.664062 C 167.769531 77.859375 168.125 78.003906 168.472656 78.089844 C 168.820312 78.1875 169.164062 78.230469 169.511719 78.230469 C 169.96875 78.230469 170.324219 78.152344 170.574219 78.003906 C 170.8125 77.851562 170.941406 77.621094 170.941406 77.328125 C 170.941406 77.070312 170.84375 76.863281 170.671875 76.722656 C 170.5 76.582031 170.109375 76.441406 169.5 76.308594 L 169.164062 76.234375 C 168.558594 76.105469 168.113281 75.910156 167.855469 75.648438 C 167.582031 75.386719 167.453125 75.03125 167.453125 74.5625 C 167.453125 74.011719 167.648438 73.578125 168.039062 73.273438 C 168.429688 72.96875 168.992188 72.816406 169.730469 72.816406 C 170.085938 72.816406 170.421875 72.851562 170.746094 72.90625 C 171.0625 72.957031 171.355469 73.035156 171.625 73.132812 Z M 171.625 73.132812 "/>
<path style=" stroke:none;fill-rule:nonzero;fill:rgb(0%,0%,0%);fill-opacity:1;" d="M 173.488281 72.957031 L 174.464844 72.957031 L 174.464844 78.890625 L 173.488281 78.890625 Z M 173.488281 70.648438 L 174.464844 70.648438 L 174.464844 71.886719 L 173.488281 71.886719 Z M 173.488281 70.648438 "/>
<path style=" stroke:none;fill-rule:nonzero;fill:rgb(0%,0%,0%);fill-opacity:1;" d="M 179.9375 73.871094 C 179.828125 73.804688 179.710938 73.761719 179.578125 73.730469 C 179.449219 73.707031 179.308594 73.683594 179.15625 73.683594 C 178.605469 73.683594 178.179688 73.871094 177.890625 74.226562 C 177.585938 74.585938 177.445312 75.09375 177.445312 75.769531 L 177.445312 78.890625 L 176.46875 78.890625 L 176.46875 72.957031 L 177.445312 72.957031 L 177.445312 73.878906 C 177.640625 73.523438 177.910156 73.25 178.234375 73.078125 C 178.5625 72.90625 178.960938 72.816406 179.4375 72.816406 C 179.503906 72.816406 179.578125 72.828125 179.664062 72.828125 C 179.742188 72.839844 179.828125 72.851562 179.9375 72.871094 Z M 179.9375 73.871094 "/>
<path style=" stroke:none;fill-rule:nonzero;fill:rgb(0%,0%,0%);fill-opacity:1;" d="M 185.789062 75.679688 L 185.789062 76.160156 L 181.3125 76.160156 C 181.359375 76.832031 181.550781 77.351562 181.921875 77.699219 C 182.277344 78.046875 182.777344 78.21875 183.425781 78.21875 C 183.796875 78.21875 184.164062 78.175781 184.511719 78.089844 C 184.859375 78.003906 185.214844 77.859375 185.5625 77.664062 L 185.5625 78.585938 C 185.214844 78.738281 184.859375 78.859375 184.488281 78.925781 C 184.121094 78.988281 183.742188 79.03125 183.371094 79.03125 C 182.417969 79.03125 181.671875 78.761719 181.117188 78.21875 C 180.566406 77.675781 180.296875 76.929688 180.296875 75.984375 C 180.296875 75.019531 180.554688 74.25 181.074219 73.675781 C 181.597656 73.109375 182.3125 72.816406 183.199219 72.816406 C 184 72.816406 184.628906 73.078125 185.097656 73.585938 C 185.550781 74.109375 185.789062 74.800781 185.789062 75.679688 Z M 184.8125 75.398438 C 184.804688 74.867188 184.652344 74.445312 184.371094 74.121094 C 184.078125 73.804688 183.6875 73.640625 183.210938 73.640625 C 182.667969 73.640625 182.234375 73.804688 181.910156 74.109375 C 181.585938 74.414062 181.390625 74.847656 181.347656 75.398438 Z M 184.8125 75.398438 "/>
<path style=" stroke:none;fill-rule:nonzero;fill:rgb(0%,0%,0%);fill-opacity:1;" d="M 191.285156 73.859375 L 191.285156 70.648438 L 192.257812 70.648438 L 192.257812 78.890625 L 191.285156 78.890625 L 191.285156 78.003906 C 191.078125 78.359375 190.816406 78.621094 190.503906 78.78125 C 190.1875 78.945312 189.820312 79.03125 189.386719 79.03125 C 188.671875 79.03125 188.085938 78.75 187.632812 78.1875 C 187.175781 77.621094 186.960938 76.863281 186.960938 75.929688 C 186.960938 74.996094 187.175781 74.25 187.632812 73.675781 C 188.085938 73.109375 188.671875 72.816406 189.386719 72.816406 C 189.820312 72.816406 190.1875 72.90625 190.503906 73.078125 C 190.816406 73.25 191.078125 73.511719 191.285156 73.859375 Z M 187.96875 75.929688 C 187.96875 76.644531 188.109375 77.210938 188.402344 77.621094 C 188.695312 78.035156 189.09375 78.230469 189.613281 78.230469 C 190.132812 78.230469 190.535156 78.035156 190.839844 77.621094 C 191.132812 77.210938 191.285156 76.644531 191.285156 75.929688 C 191.285156 75.214844 191.132812 74.660156 190.839844 74.25 C 190.535156 73.835938 190.132812 73.632812 189.613281 73.632812 C 189.09375 73.632812 188.695312 73.835938 188.402344 74.25 C 188.109375 74.660156 187.96875 75.214844 187.96875 75.929688 Z M 187.96875 75.929688 "/>
<path style=" stroke:none;fill-rule:nonzero;fill:rgb(0%,0%,0%);fill-opacity:1;" d="M 201.492188 73.132812 L 201.492188 74.054688 C 201.210938 73.925781 200.925781 73.816406 200.636719 73.738281 C 200.332031 73.675781 200.027344 73.632812 199.714844 73.632812 C 199.226562 73.632812 198.859375 73.707031 198.621094 73.859375 C 198.382812 74.011719 198.261719 74.226562 198.261719 74.519531 C 198.261719 74.75 198.347656 74.921875 198.523438 75.050781 C 198.695312 75.183594 199.042969 75.3125 199.5625 75.421875 L 199.898438 75.496094 C 200.589844 75.648438 201.078125 75.867188 201.371094 76.125 C 201.652344 76.398438 201.804688 76.777344 201.804688 77.253906 C 201.804688 77.808594 201.589844 78.242188 201.15625 78.554688 C 200.722656 78.878906 200.113281 79.03125 199.355469 79.03125 C 199.03125 79.03125 198.707031 79 198.359375 78.945312 C 198.011719 78.890625 197.65625 78.804688 197.277344 78.675781 L 197.277344 77.664062 C 197.632812 77.859375 197.992188 78.003906 198.335938 78.089844 C 198.683594 78.1875 199.03125 78.230469 199.378906 78.230469 C 199.832031 78.230469 200.191406 78.152344 200.441406 78.003906 C 200.679688 77.851562 200.808594 77.621094 200.808594 77.328125 C 200.808594 77.070312 200.710938 76.863281 200.539062 76.722656 C 200.363281 76.582031 199.972656 76.441406 199.367188 76.308594 L 199.03125 76.234375 C 198.425781 76.105469 197.980469 75.910156 197.71875 75.648438 C 197.449219 75.386719 197.320312 75.03125 197.320312 74.5625 C 197.320312 74.011719 197.515625 73.578125 197.902344 73.273438 C 198.292969 72.96875 198.859375 72.816406 199.59375 72.816406 C 199.953125 72.816406 200.289062 72.851562 200.613281 72.90625 C 200.925781 72.957031 201.21875 73.035156 201.492188 73.132812 Z M 201.492188 73.132812 "/>
<path style=" stroke:none;fill-rule:nonzero;fill:rgb(0%,0%,0%);fill-opacity:1;" d="M 204.296875 78.003906 L 204.296875 81.136719 L 203.320312 81.136719 L 203.320312 72.957031 L 204.296875 72.957031 L 204.296875 73.859375 C 204.492188 73.511719 204.753906 73.25 205.066406 73.078125 C 205.382812 72.90625 205.761719 72.816406 206.195312 72.816406 C 206.910156 72.816406 207.492188 73.109375 207.949219 73.675781 C 208.394531 74.25 208.621094 74.996094 208.621094 75.929688 C 208.621094 76.863281 208.394531 77.621094 207.949219 78.1875 C 207.492188 78.75 206.910156 79.03125 206.195312 79.03125 C 205.761719 79.03125 205.382812 78.945312 205.066406 78.78125 C 204.753906 78.621094 204.492188 78.359375 204.296875 78.003906 Z M 207.613281 75.929688 C 207.613281 75.214844 207.460938 74.660156 207.167969 74.25 C 206.867188 73.835938 206.464844 73.632812 205.957031 73.632812 C 205.433594 73.632812 205.035156 73.835938 204.742188 74.25 C 204.4375 74.660156 204.296875 75.214844 204.296875 75.929688 C 204.296875 76.644531 204.4375 77.210938 204.742188 77.621094 C 205.035156 78.035156 205.433594 78.230469 205.957031 78.230469 C 206.464844 78.230469 206.867188 78.035156 207.167969 77.621094 C 207.460938 77.210938 207.613281 76.644531 207.613281 75.929688 Z M 207.613281 75.929688 "/>
<path style=" stroke:none;fill-rule:nonzero;fill:rgb(0%,0%,0%);fill-opacity:1;" d="M 215.308594 75.679688 L 215.308594 76.160156 L 210.832031 76.160156 C 210.875 76.832031 211.070312 77.351562 211.4375 77.699219 C 211.796875 78.046875 212.292969 78.21875 212.945312 78.21875 C 213.3125 78.21875 213.679688 78.175781 214.027344 78.089844 C 214.375 78.003906 214.734375 77.859375 215.078125 77.664062 L 215.078125 78.585938 C 214.734375 78.738281 214.375 78.859375 214.007812 78.925781 C 213.636719 78.988281 213.257812 79.03125 212.890625 79.03125 C 211.9375 79.03125 211.1875 78.761719 210.636719 78.21875 C 210.082031 77.675781 209.8125 76.929688 209.8125 75.984375 C 209.8125 75.019531 210.074219 74.25 210.59375 73.675781 C 211.113281 73.109375 211.828125 72.816406 212.71875 72.816406 C 213.519531 72.816406 214.148438 73.078125 214.613281 73.585938 C 215.070312 74.109375 215.308594 74.800781 215.308594 75.679688 Z M 214.332031 75.398438 C 214.320312 74.867188 214.167969 74.445312 213.886719 74.121094 C 213.59375 73.804688 213.203125 73.640625 212.726562 73.640625 C 212.1875 73.640625 211.753906 73.804688 211.425781 74.109375 C 211.101562 74.414062 210.90625 74.847656 210.863281 75.398438 Z M 214.332031 75.398438 "/>
<path style=" stroke:none;fill-rule:nonzero;fill:rgb(0%,0%,0%);fill-opacity:1;" d="M 221.972656 75.679688 L 221.972656 76.160156 L 217.496094 76.160156 C 217.539062 76.832031 217.734375 77.351562 218.101562 77.699219 C 218.460938 78.046875 218.957031 78.21875 219.609375 78.21875 C 219.976562 78.21875 220.34375 78.175781 220.691406 78.089844 C 221.039062 78.003906 221.398438 77.859375 221.742188 77.664062 L 221.742188 78.585938 C 221.398438 78.738281 221.039062 78.859375 220.671875 78.925781 C 220.300781 78.988281 219.921875 79.03125 219.554688 79.03125 C 218.601562 79.03125 217.851562 78.761719 217.300781 78.21875 C 216.746094 77.675781 216.476562 76.929688 216.476562 75.984375 C 216.476562 75.019531 216.738281 74.25 217.257812 73.675781 C 217.777344 73.109375 218.492188 72.816406 219.382812 72.816406 C 220.183594 72.816406 220.8125 73.078125 221.277344 73.585938 C 221.734375 74.109375 221.972656 74.800781 221.972656 75.679688 Z M 220.996094 75.398438 C 220.984375 74.867188 220.832031 74.445312 220.550781 74.121094 C 220.257812 73.804688 219.867188 73.640625 219.390625 73.640625 C 218.851562 73.640625 218.417969 73.804688 218.089844 74.109375 C 217.765625 74.414062 217.570312 74.847656 217.527344 75.398438 Z M 220.996094 75.398438 "/>
<path style=" stroke:none;fill-rule:nonzero;fill:rgb(0%,0%,0%);fill-opacity:1;" d="M 227.464844 73.859375 L 227.464844 70.648438 L 228.441406 70.648438 L 228.441406 78.890625 L 227.464844 78.890625 L 227.464844 78.003906 C 227.257812 78.359375 227 78.621094 226.683594 78.78125 C 226.371094 78.945312 226.003906 79.03125 225.570312 79.03125 C 224.851562 79.03125 224.269531 78.75 223.8125 78.1875 C 223.359375 77.621094 223.140625 76.863281 223.140625 75.929688 C 223.140625 74.996094 223.359375 74.25 223.8125 73.675781 C 224.269531 73.109375 224.851562 72.816406 225.570312 72.816406 C 226.003906 72.816406 226.371094 72.90625 226.683594 73.078125 C 227 73.25 227.257812 73.511719 227.464844 73.859375 Z M 224.148438 75.929688 C 224.148438 76.644531 224.289062 77.210938 224.582031 77.621094 C 224.875 78.035156 225.277344 78.230469 225.796875 78.230469 C 226.316406 78.230469 226.71875 78.035156 227.019531 77.621094 C 227.3125 77.210938 227.464844 76.644531 227.464844 75.929688 C 227.464844 75.214844 227.3125 74.660156 227.019531 74.25 C 226.71875 73.835938 226.316406 73.632812 225.796875 73.632812 C 225.277344 73.632812 224.875 73.835938 224.582031 74.25 C 224.289062 74.660156 224.148438 75.214844 224.148438 75.929688 Z M 224.148438 75.929688 "/>
<path style=" stroke:none;fill-rule:nonzero;fill:rgb(0%,0%,0%);fill-opacity:1;" d="M 236.230469 70.660156 C 235.753906 71.484375 235.40625 72.285156 235.179688 73.078125 C 234.941406 73.871094 234.832031 74.671875 234.832031 75.484375 C 234.832031 76.308594 234.941406 77.113281 235.179688 77.90625 C 235.40625 78.707031 235.753906 79.5 236.230469 80.3125 L 235.386719 80.3125 C 234.855469 79.476562 234.453125 78.675781 234.195312 77.871094 C 233.933594 77.070312 233.804688 76.277344 233.804688 75.484375 C 233.804688 74.703125 233.933594 73.914062 234.195312 73.109375 C 234.453125 72.308594 234.84375 71.496094 235.386719 70.660156 Z M 236.230469 70.660156 "/>
<path style=" stroke:none;fill-rule:nonzero;fill:rgb(0%,0%,0%);fill-opacity:1;" d="M 241.367188 71.710938 C 240.585938 71.710938 239.96875 72.003906 239.515625 72.578125 C 239.058594 73.164062 238.832031 73.945312 238.832031 74.945312 C 238.832031 75.941406 239.058594 76.734375 239.515625 77.308594 C 239.96875 77.894531 240.585938 78.175781 241.367188 78.175781 C 242.136719 78.175781 242.753906 77.894531 243.210938 77.308594 C 243.664062 76.734375 243.890625 75.941406 243.890625 74.945312 C 243.890625 73.945312 243.664062 73.164062 243.210938 72.578125 C 242.753906 72.003906 242.136719 71.710938 241.367188 71.710938 Z M 241.367188 70.84375 C 242.472656 70.84375 243.351562 71.222656 244.023438 71.960938 C 244.683594 72.699219 245.019531 73.695312 245.019531 74.945312 C 245.019531 76.203125 244.683594 77.1875 244.023438 77.925781 C 243.351562 78.664062 242.472656 79.03125 241.367188 79.03125 C 240.25 79.03125 239.363281 78.664062 238.703125 77.925781 C 238.03125 77.1875 237.703125 76.203125 237.703125 74.945312 C 237.703125 73.695312 238.03125 72.699219 238.703125 71.960938 C 239.363281 71.222656 240.25 70.84375 241.367188 70.84375 Z M 241.367188 70.84375 "/>
<path style=" stroke:none;fill-rule:nonzero;fill:rgb(0%,0%,0%);fill-opacity:1;" d="M 251.421875 71.246094 L 251.421875 72.285156 C 251.011719 72.089844 250.632812 71.949219 250.273438 71.851562 C 249.90625 71.765625 249.558594 71.710938 249.234375 71.710938 C 248.648438 71.710938 248.195312 71.832031 247.878906 72.046875 C 247.566406 72.277344 247.414062 72.601562 247.414062 73.011719 C 247.414062 73.359375 247.511719 73.632812 247.726562 73.804688 C 247.933594 73.988281 248.335938 74.128906 248.921875 74.238281 L 249.570312 74.367188 C 250.363281 74.519531 250.945312 74.792969 251.324219 75.171875 C 251.707031 75.5625 251.898438 76.070312 251.898438 76.710938 C 251.898438 77.480469 251.640625 78.054688 251.128906 78.445312 C 250.609375 78.835938 249.863281 79.03125 248.875 79.03125 C 248.496094 79.03125 248.097656 78.988281 247.675781 78.914062 C 247.25 78.835938 246.816406 78.71875 246.375 78.542969 L 246.375 77.4375 C 246.808594 77.6875 247.230469 77.871094 247.640625 77.992188 C 248.054688 78.121094 248.464844 78.175781 248.875 78.175781 C 249.484375 78.175781 249.949219 78.054688 250.285156 77.816406 C 250.609375 77.578125 250.785156 77.242188 250.785156 76.789062 C 250.785156 76.398438 250.664062 76.09375 250.425781 75.875 C 250.1875 75.660156 249.796875 75.496094 249.257812 75.386719 L 248.605469 75.257812 C 247.804688 75.105469 247.230469 74.855469 246.871094 74.507812 C 246.515625 74.171875 246.339844 73.707031 246.339844 73.101562 C 246.339844 72.40625 246.578125 71.851562 247.078125 71.453125 C 247.566406 71.050781 248.25 70.84375 249.117188 70.84375 C 249.484375 70.84375 249.851562 70.875 250.242188 70.941406 C 250.621094 71.007812 251.011719 71.113281 251.421875 71.246094 Z M 251.421875 71.246094 "/>
<path style=" stroke:none;fill-rule:nonzero;fill:rgb(0%,0%,0%);fill-opacity:1;" d="M 253.375 70.660156 L 254.21875 70.660156 C 254.738281 71.496094 255.140625 72.308594 255.398438 73.109375 C 255.660156 73.914062 255.800781 74.703125 255.800781 75.484375 C 255.800781 76.277344 255.660156 77.070312 255.398438 77.871094 C 255.140625 78.675781 254.738281 79.476562 254.21875 80.3125 L 253.375 80.3125 C 253.839844 79.5 254.1875 78.707031 254.425781 77.90625 C 254.652344 77.113281 254.773438 76.308594 254.773438 75.484375 C 254.773438 74.671875 254.652344 73.871094 254.425781 73.078125 C 254.1875 72.285156 253.839844 71.484375 253.375 70.660156 Z M 253.375 70.660156 "/>
</g>
</svg>
