<svg xmlns="http://www.w3.org/2000/svg" xmlns:xlink="http://www.w3.org/1999/xlink" width="307pt" height="396" viewBox="0 0 307 297"><clipPath id="a"><path transform="matrix(1 0 0 -1 -63 305)" d="M0 0h460.8v345.6H0z"/></clipPath><g clip-path="url(#a)"><path d="M-63 305h460.8V-40.6H-63z" fill="#fff"/><path d="M40.104 266.984h266.112V.872H40.104z" fill="#fff"/><path stroke-width=".8" stroke-linejoin="round" fill="none" stroke="#000" d="M50.558 266.984v3.5"/><symbol id="b"><path transform="matrix(.001 0 0 .001 -.066 .013)" d="M318 664c-51 0-89-25-115-75s-38-125-38-225 12-175 38-225 64-75 115-75 89 25 115 75c25 50 38 125 38 225s-13 175-38 225c-26 50-64 75-115 75zm0 78c81 0 143-33 187-97 43-65 65-159 65-281 0-123-22-217-65-281-44-64-106-96-188-96S173 19 130 83 66 241 66 364c0 122 21 216 64 281 43 64 106 97 188 97z"/></symbol><use xlink:href="#b" transform="matrix(10 0 0 -10 48.039 281.708)"/><path stroke-width=".8" stroke-linejoin="round" fill="none" stroke="#000" d="M104.032 266.984v3.5"/><symbol id="c"><path transform="translate(-.11) scale(.001)" d="M124 83h161v556l-175-35v90l174 35h99V83h161V0H124v83z"/></symbol><use xlink:href="#c" transform="matrix(10 0 0 -10 98.773 281.578)"/><use xlink:href="#b" transform="matrix(10 0 0 -10 104.693 281.708)"/><path stroke-width=".8" stroke-linejoin="round" fill="none" stroke="#000" d="M157.506 266.984v3.5"/><symbol id="d"><path transform="translate(-.073) scale(.001)" d="M192 83h344V0H73v83c37 38 88 90 153 156 64 65 105 107 122 126 32 35 54 65 66 90 12 24 19 49 19 73 0 38-14 70-41 94s-62 37-106 37c-31 0-64-6-98-16-34-11-71-27-110-49v100c40 16 77 28 111 36s66 12 95 12c75 0 135-19 180-57s68-88 68-151c0-30-6-59-17-85-11-27-31-59-61-95-8-10-34-37-78-82S271 164 192 83z"/></symbol><use xlink:href="#d" transform="matrix(10 0 0 -10 151.876 281.578)"/><use xlink:href="#b" transform="matrix(10 0 0 -10 158.166 281.708)"/><path stroke-width=".8" stroke-linejoin="round" fill="none" stroke="#000" d="M210.98 266.984v3.5"/><symbol id="e"><path transform="matrix(.001 0 0 .001 -.076 .013)" d="M406 393c47-10 84-31 110-63s40-72 40-118c0-72-25-128-74-167-50-39-120-58-211-58-31 0-63 3-95 9-32 5-66 14-100 26v95c27-16 57-28 90-36 32-8 66-12 102-12 62 0 109 12 141 36s49 60 49 107c0 42-15 76-45 100s-72 37-126 37h-85v81h89c48 0 85 9 111 29 26 19 39 47 39 84s-14 66-40 86c-27 20-65 30-114 30-27 0-56-3-87-9s-65-15-102-27v88c37 10 72 18 105 23 32 5 63 8 93 8 74 0 133-17 177-51s66-80 66-138c0-40-12-74-35-102s-56-48-98-58z"/></symbol><use xlink:href="#e" transform="matrix(10 0 0 -10 205.38 281.708)"/><use xlink:href="#b" transform="matrix(10 0 0 -10 211.64 281.708)"/><path stroke-width=".8" stroke-linejoin="round" fill="none" stroke="#000" d="M264.453 266.984v3.5"/><symbol id="f"><path transform="translate(-.049) scale(.001)" d="M378 643 129 254h249v389zm-26 86h124V254h104v-82H476V0h-98v172H49v95l303 462z"/></symbol><use xlink:href="#f" transform="matrix(10 0 0 -10 258.583 281.578)"/><use xlink:href="#b" transform="matrix(10 0 0 -10 265.113 281.708)"/><symbol id="g"><path transform="translate(.002) scale(.001)" d="M-2 729h616v-83H355V0h-99v646H-2v83z"/></symbol><symbol id="h"><path transform="translate(-.094) scale(.001)" d="M94 547h90V0H94v547zm0 213h90V646H94v114z"/></symbol><symbol id="i"><path transform="translate(-.091) scale(.001)" d="M520 442c22 40 49 69 80 89 31 19 68 29 111 29 56 0 100-20 131-60s47-97 47-170V0h-90v327c0 52-10 91-28 117-19 25-47 38-85 38-47 0-84-16-111-47s-40-73-40-126V0h-90v327c0 52-10 91-28 117-19 25-48 38-86 38-46 0-83-16-110-47s-40-73-40-126V0H91v547h90v-85c20 33 45 58 74 74 28 16 62 24 102 24s73-10 101-30 48-50 62-88z"/></symbol><symbol id="j"><path transform="matrix(.001 0 0 .001 -.055 .013)" d="M562 296v-44H149c4-62 22-110 56-142 33-32 79-48 139-48 34 0 68 4 100 12s65 21 97 39V28c-32-14-65-25-99-31s-69-10-103-10c-88 0-157 25-208 75S55 181 55 268c0 89 24 160 72 213 48 52 114 79 196 79 74 0 132-24 175-71 42-48 64-112 64-193zm-90 26c-1 49-15 88-41 118-27 29-63 44-107 44-50 0-90-15-120-43s-48-68-52-119h320z"/></symbol><symbol id="l"><path transform="matrix(.001 0 0 .001 -.086 .131)" d="M86 760h207v-70H176V-61h117v-70H86v891z"/></symbol><symbol id="m"><path transform="matrix(.001 0 0 .001 -.054 .013)" d="M443 531v-85c-26 12-52 22-79 29-28 6-56 10-85 10-45 0-79-7-101-21s-33-34-33-61c0-21 8-37 24-49s48-24 96-34l31-7c64-14 109-34 136-58 26-25 40-60 40-104 0-51-20-91-60-120-40-30-96-44-166-44-30 0-60 3-92 8S89 8 54 20v93c33-18 66-31 98-39 32-9 64-13 96-13 42 0 75 7 98 21 22 14 34 35 34 62 0 24-9 43-25 56s-52 26-108 38l-31 7c-56 12-97 30-121 54-25 24-37 57-37 100 0 51 18 91 54 119s88 42 156 42c33 0 64-3 94-8 29-5 56-12 81-21z"/></symbol><symbol id="n"><path transform="matrix(.001 0 0 .001 -.097 .131)" d="M304 760v-891H97v70h117v751H97v70h207z"/></symbol><use xlink:href="#g" transform="matrix(10 0 0 -10 152.757 295.25)"/><use xlink:href="#h" transform="matrix(10 0 0 -10 159.53 295.25)"/><use xlink:href="#i" transform="matrix(10 0 0 -10 162.28 295.25)"/><use xlink:href="#j" transform="matrix(10 0 0 -10 171.66 295.38)"/><use xlink:href="#k" transform="matrix(10 0 0 -10 177.26 295.25)"/><use xlink:href="#l" transform="matrix(10 0 0 -10 181.3 296.56)"/><use xlink:href="#m" transform="matrix(10 0 0 -10 184.88 295.38)"/><use xlink:href="#n" transform="matrix(10 0 0 -10 190.52 296.56)"/><path stroke-width=".8" stroke-linejoin="round" fill="none" stroke="#000" d="M40.104 242.74h-3.5"/><use xlink:href="#d" transform="matrix(10 0 0 -10 21.115 246.536)"/><use xlink:href="#b" transform="matrix(10 0 0 -10 27.405 246.666)"/><path stroke-width=".8" stroke-linejoin="round" fill="none" stroke="#000" d="M40.104 193.05h-3.5"/><use xlink:href="#f" transform="matrix(10 0 0 -10 20.875 196.847)"/><use xlink:href="#b" transform="matrix(10 0 0 -10 27.405 196.977)"/><path stroke-width=".8" stroke-linejoin="round" fill="none" stroke="#000" d="M40.104 143.362h-3.5"/><symbol id="o"><path transform="matrix(.001 0 0 .001 -.07 .013)" d="M330 404c-44 0-79-16-105-46s-39-72-39-124c0-53 13-95 39-125s61-45 105-45 79 15 105 45 39 72 39 125c0 52-13 94-39 124s-61 46-105 46zm196 309v-90c-25 12-50 21-75 27-26 6-51 9-75 9-66 0-116-22-150-66s-54-111-58-199c19 28 43 50 72 65s61 23 96 23c73 0 131-23 173-67s64-105 64-181c0-75-23-135-67-180S403-13 330-13c-84 0-149 32-193 96-45 64-67 158-67 281 0 115 27 207 82 275 54 68 128 103 220 103 24 0 49-3 75-7 25-5 51-12 79-22z"/></symbol><use xlink:href="#o" transform="matrix(10 0 0 -10 21.085 147.289)"/><use xlink:href="#b" transform="matrix(10 0 0 -10 27.405 147.289)"/><path stroke-width=".8" stroke-linejoin="round" fill="none" stroke="#000" d="M40.104 93.673h-3.5"/><symbol id="p"><path transform="matrix(.001 0 0 .001 -.068 .013)" d="M318 346c-47 0-84-13-111-38s-40-59-40-103 13-79 40-104 64-37 111-37c46 0 83 12 110 38 27 25 41 59 41 103s-14 78-40 103c-27 25-64 38-111 38zm-99 42c-42 10-75 30-99 59s-35 64-35 106c0 58 20 104 62 138 41 34 98 51 171 51 72 0 129-17 171-51 41-34 62-80 62-138 0-42-12-77-36-106s-56-49-98-59c47-11 84-33 111-65 26-32 40-72 40-118 0-71-22-125-65-162-44-38-106-56-186-56S175 5 132 43c-43 37-64 91-64 162 0 46 13 86 40 118 26 32 63 54 111 65zm-36 156c0-38 11-68 35-89s57-31 100-31c42 0 75 10 99 31s36 51 36 89-12 67-36 88-57 32-99 32c-43 0-76-11-100-32s-35-50-35-88z"/></symbol><use xlink:href="#p" transform="matrix(10 0 0 -10 21.065 97.6)"/><use xlink:href="#b" transform="matrix(10 0 0 -10 27.405 97.6)"/><path stroke-width=".8" stroke-linejoin="round" fill="none" stroke="#000" d="M40.104 43.985h-3.5"/><use xlink:href="#c" transform="matrix(10 0 0 -10 15.126 47.782)"/><use xlink:href="#b" transform="matrix(10 0 0 -10 21.046 47.912)"/><use xlink:href="#b" transform="matrix(10 0 0 -10 27.406 47.912)"/><symbol id="q"><path transform="translate(-.098) scale(.001)" d="M197 648V81h119c100 0 174 22 221 68 46 46 70 118 70 216s-24 169-70 215c-47 45-121 68-221 68H197zm-99 81h203c141 0 245-30 311-88 66-59 99-151 99-276 0-126-34-218-100-277S441 0 301 0H98v729z"/></symbol><symbol id="r"><path transform="translate(-.027) scale(.001)" d="M183 702V547h185v-70H183V180c0-45 6-74 18-86 12-13 37-19 75-19h92V0h-92c-70 0-118 13-144 39s-39 73-39 141v297H27v70h66v155h90z"/></symbol><symbol id="s"><path transform="matrix(.001 0 0 .001 -.06 .013)" d="M343 275c-73 0-123-9-151-25-28-17-42-45-42-85 0-32 10-58 31-76 21-19 50-28 86-28 50 0 90 17 120 53 30 35 45 82 45 141v20h-89zm179 37V0h-90v83c-21-34-47-58-77-73s-68-23-112-23c-56 0-101 15-134 46s-49 73-49 126c0 61 20 107 62 139 41 31 102 47 184 47h126v9c0 41-14 73-41 96-27 22-65 34-114 34-32 0-62-4-92-12s-58-19-85-33v83c32 12 64 22 95 28s61 10 91 10c79 0 138-21 177-62s59-103 59-186z"/></symbol><symbol id="t"><path transform="translate(-.091) scale(.001)" d="M549 330V0h-90v327c0 52-11 90-31 116s-50 39-90 39c-49 0-87-16-115-47s-42-73-42-126V0H91v547h90v-85c21 32 46 57 76 73 29 16 63 25 101 25 62 0 110-20 142-59s49-96 49-171z"/></symbol><symbol id="u"><path transform="matrix(.001 0 0 .001 -.055 .013)" d="M488 526v-84c-26 14-51 24-77 31s-51 11-77 11c-58 0-104-19-136-56s-48-89-48-155c0-67 16-119 48-156s78-55 136-55c26 0 51 3 77 10s51 18 77 32V21C462 9 436 0 410-5c-27-5-56-8-86-8-82 0-148 25-196 77-49 51-73 121-73 209 0 89 24 159 73 210s116 77 202 77c28 0 55-3 81-9s52-14 77-25z"/></symbol><use xlink:href="#q" transform="matrix(0 -10 -10 0 7.948 165.198)"/><use xlink:href="#h" transform="matrix(0 -10 -10 0 7.948 157.538)"/><use xlink:href="#m" transform="matrix(0 -10 -10 0 8.078 155.158)"/><use xlink:href="#r" transform="matrix(0 -10 -10 0 7.948 150.218)"/><use xlink:href="#s" transform="matrix(0 -10 -10 0 8.078 145.968)"/><use xlink:href="#t" transform="matrix(0 -10 -10 0 7.948 139.528)"/><use xlink:href="#u" transform="matrix(0 -10 -10 0 8.078 133.548)"/><use xlink:href="#j" transform="matrix(0 -10 -10 0 8.078 128.048)"/><use xlink:href="#k" transform="matrix(0 -10 -10 0 7.948 122.448)"/><use xlink:href="#l" transform="matrix(0 -10 -10 0 9.258 118.408)"/><use xlink:href="#i" transform="matrix(0 -10 -10 0 7.948 114.458)"/><use xlink:href="#n" transform="matrix(0 -10 -10 0 9.258 104.658)"/><clipPath id="v"><path transform="matrix(1 0 0 -1 -63 305)" d="M103.104 38.016h266.112v266.112H103.104z"/></clipPath><g clip-path="url(#v)"><path stroke-width="2.5" stroke-linecap="square" stroke-linejoin="round" fill="none" stroke="#00f" d="m52.2 12.968 2.246 1.632 1.182 1.149.433.545.3.307 4.176 5.519.331.545.626.935.112.072.438.717.209.232.647 1.047.62.882.984 1.468.326.583.188.24 5.053 7.977.412.68.107.078.54.945.112.078 1.396 2.317.214.25.304.608 2.91 4.553.202.438 2.444 3.88.45.785 1.716 2.77.192.253.434.786.123.08.23.44L83 57.574l.641 1.134.958 1.466.652 1.135.112.079.305.52 1.722 2.77.422.786 2.476 3.976.348.52.075.078.203.44.112.078.407.785.465.691.283.424 22.684 36.702.315.076.145.617.3.522.095.078.31.617.439.595.342.614.08.076.321.516.439.688 2.101 3.363.246.517.22.248 16.913 27.306.08.272.455.595.31.618.235.248.187.347.551.964.61 1.04.235.247.968 1.66.09.074.46.793.097.074.193.446.224.247.31.62.097.074.368.62.075.073.091.273.348.42.524.965.208.247.637 1.038.444.792.192.246 1.61 2.595.235.446.107.073.85 1.485.102.072.208.346.872 1.384.428.793 1.48 2.425.236.245 1.268 2.18.203.244 1.871 3.045.487.866.224.244.204.346 4.08 6.68.224.242.626 1.038 1.09 1.834.188.242 1.813 2.94.342.622.412.587.23.45.331.518.963 1.553.636.93.203.45.086.068.449.795.192.24 14.77 23.73.22.197.684 1.02.262.444.112.034.235.29 3.037 3.713.07-.003.193.22.326.216 1.497 1.617.107-.024.32.393 2.076 1.654.272.133.877.788.353.25.16.046.252.288.059.083.117-.037.097.204.208.046.337.37.091-.037.342.372.968.755.09-.038.103.207.106-.038.76.594.31.382.112-.038.23.297.086-.038 9.662 8.218.097-.05.246.308.08-.051.326.391.203.169.102-.053.433.47.968.598.214.3.096-.059 2.246 1.743.085-.069.22.145.337.356 2.026 1.154.439.26.096.209.22-.018.213.271 5.24 2.653.198-.058.123.193.102-.104.209.236.219.085.096-.106.31.273.214-.068.23.08.209.227.224.077.086-.11.112.037.246.223.08-.112.235.22.412.14.198-.083.556.16.112.18.214-.089.428.116.22.204 3.031.596 6.37 1.082 3.972.936 4.936 1.35 1.743.203.99-.103 1.839-.62.214-.17 2.01-1.048 1.53-.964.443-.33.305-.256.3-.321.123-.033.208-.181.348-.332.502-.474.337-.245.952-.92.305-.36.273-.173 1.128-1.259.262-.228.283-.313.728-.86.235-.207.422-.484.321-.394.637-.74.754-.86.513-.664 3.764-4.715.958-1.284 2.032-2.766 4.203-5.97.278-.473 1.444-2.068.165-.304.321-.5.235-.304.61-.988.765-1.14 12.721-20.196 4.818-7.925"/></g><clipPath id="w"><path transform="matrix(1 0 0 -1 -63 305)" d="M103.104 38.016h266.112v266.112H103.104z"/></clipPath><g clip-path="url(#w)"><path d="m242.935 257.888 6-6m-6 0 6 6" fill="orange"/><path stroke-width="2.5" stroke-linejoin="round" fill="none" stroke="orange" d="m242.935 257.888 6-6m-6 0 6 6"/></g><path stroke-width=".8" stroke-linecap="square" stroke-miterlimit="10" fill="none" stroke="#000" d="M40.104 266.984V.872M306.216 266.984V.872M40.104 266.984h266.112M40.104.872h266.112"/><path d="M121.966 38.216h177.25c1.333 0 2-.667 2-2V7.872c0-1.333-.667-2-2-2h-177.25c-1.333 0-2 .667-2 2v28.344c0 1.333.667 2 2 2z" fill="#fff" fill-opacity=".8"/><path stroke-miterlimit="10" fill="none" stroke="#d5d6d5" stroke-opacity=".8" d="M121.966 38.216h177.25c1.333 0 2-.667 2-2V7.872c0-1.333-.667-2-2-2h-177.25c-1.333 0-2 .667-2 2v28.344c0 1.333.667 2 2 2z"/><path stroke-width="2.5" stroke-linecap="square" stroke-linejoin="round" fill="none" stroke="#00f" d="M123.966 13.966h20"/><symbol id="x"><path transform="matrix(.001 0 0 .001 -.091 .013)" d="M487 273c0 66-14 117-41 155-28 38-65 57-112 57-48 0-85-19-112-57-28-38-41-89-41-155s13-118 41-156c27-38 64-56 112-56 47 0 84 18 112 56 27 38 41 90 41 156zM181 464c18 32 42 56 71 72s64 24 104 24c66 0 120-27 162-79 41-53 62-122 62-208s-21-156-62-208c-42-52-96-78-162-78-40 0-75 8-104 23s-53 39-71 72V0H91v760h90V464z"/></symbol><symbol id="y"><path transform="translate(-.042) scale(.001)" d="M42 547h90l112-427 112 427h106l112-427 112 427h90L633 0H527L409 448 291 0H185L42 547z"/></symbol><symbol id="z"><path transform="matrix(.001 0 0 .001 -.056 .013)" d="M394 662c-72 0-129-27-171-80-42-54-63-126-63-218s21-165 63-218c42-54 99-80 171-80 71 0 128 26 170 80 42 53 63 126 63 218s-21 164-63 218c-42 53-99 80-170 80zm0 80c102 0 183-35 245-103 61-68 92-160 92-275 0-116-31-207-92-275C577 21 496-13 394-13 291-13 209 21 148 89c-62 68-92 159-92 275 0 115 30 207 92 275 61 68 143 103 246 103z"/></symbol><symbol id="A"><path transform="matrix(.001 0 0 .001 -.066 .013)" d="M535 705v-96c-38 18-73 31-106 40-34 8-66 13-96 13-54 0-96-11-125-31-29-21-43-51-43-89 0-32 9-57 29-73 19-17 56-30 110-40l60-12c73-14 127-39 162-74 35-36 53-83 53-142 0-71-24-124-71-160-48-36-117-54-208-54-35 0-72 4-111 11S110 16 69 32v102c40-23 79-40 117-51 38-12 76-17 114-17 56 0 99 11 130 33 30 22 46 53 46 95 0 36-11 64-33 84s-58 35-108 45l-60 12c-74 14-127 37-160 69-33 31-49 74-49 130 0 64 22 115 68 152 45 37 108 56 188 56 34 0 68-3 104-9 35-6 71-16 109-28z"/></symbol><symbol id="B"><path transform="matrix(.001 0 0 .001 -.055 .013)" d="M454 464v296h90V0h-90v82c-19-33-43-57-72-72s-63-23-103-23c-66 0-120 26-162 78S55 187 55 273s20 155 62 208c42 52 96 79 162 79 40 0 74-8 103-24s53-40 72-72zM148 273c0-66 13-118 40-156s64-56 112-56 85 18 113 56c27 38 41 90 41 156s-14 117-41 155c-28 38-65 57-113 57s-85-19-112-57-40-89-40-155z"/></symbol><use xlink:href="#q" transform="matrix(10 0 0 -10 152.946 17.466)"/><use xlink:href="#h" transform="matrix(10 0 0 -10 160.606 17.466)"/><use xlink:href="#m" transform="matrix(10 0 0 -10 162.986 17.596)"/><use xlink:href="#r" transform="matrix(10 0 0 -10 167.926 17.466)"/><use xlink:href="#s" transform="matrix(10 0 0 -10 172.176 17.596)"/><use xlink:href="#t" transform="matrix(10 0 0 -10 178.616 17.466)"/><use xlink:href="#u" transform="matrix(10 0 0 -10 184.596 17.596)"/><use xlink:href="#j" transform="matrix(10 0 0 -10 190.096 17.596)"/><use xlink:href="#k" transform="matrix(10 0 0 -10 195.696 17.466)"/><use xlink:href="#x" transform="matrix(10 0 0 -10 199.786 17.596)"/><use xlink:href="#j" transform="matrix(10 0 0 -10 205.776 17.596)"/><use xlink:href="#r" transform="matrix(10 0 0 -10 211.646 17.466)"/><use xlink:href="#y" transform="matrix(10 0 0 -10 215.716 17.466)"/><use xlink:href="#j" transform="matrix(10 0 0 -10 224.026 17.596)"/><use xlink:href="#j" transform="matrix(10 0 0 -10 230.176 17.596)"/><use xlink:href="#t" transform="matrix(10 0 0 -10 236.686 17.466)"/><use xlink:href="#k" transform="matrix(10 0 0 -10 242.116 17.466)"/><use xlink:href="#z" transform="matrix(10 0 0 -10 245.856 17.596)"/><use xlink:href="#A" transform="matrix(10 0 0 -10 253.826 17.596)"/><use xlink:href="#k" transform="matrix(10 0 0 -10 259.516 17.466)"/><use xlink:href="#s" transform="matrix(10 0 0 -10 263.296 17.596)"/><use xlink:href="#t" transform="matrix(10 0 0 -10 269.736 17.466)"/><use xlink:href="#B" transform="matrix(10 0 0 -10 275.716 17.596)"/><use xlink:href="#k" transform="matrix(10 0 0 -10 281.516 17.466)"/><use xlink:href="#g" transform="matrix(10 0 0 -10 284.676 17.466)"/><use xlink:href="#A" transform="matrix(10 0 0 -10 291.466 17.596)"/><path d="m130.966 32.513 6-6m-6 0 6 6" fill="orange"/><path stroke-width="2.5" stroke-linejoin="round" fill="none" stroke="orange" d="m130.966 32.513 6-6m-6 0 6 6"/><symbol id="C"><path transform="translate(-.107) scale(.001)" d="M107 124h103V0H107v124z"/></symbol><symbol id="D"><path transform="matrix(.001 0 0 .001 -.106 -.172)" d="M106 454h626v-82H106v82zm0-199h626v-83H106v83z"/></symbol><symbol id="E"><path transform="matrix(.001 0 0 .001 -.077 .013)" d="M108 729h387v-83H198V467c14 5 29 9 43 11s29 4 43 4c81 0 145-23 193-67 48-45 72-105 72-181 0-79-25-140-74-183S357-13 269-13c-31 0-62 3-94 7-32 5-64 12-98 23v99c29-16 59-28 91-36 31-8 64-11 99-11 56 0 101 14 134 44 32 30 49 70 49 121 0 50-17 90-49 120-33 30-78 45-134 45-26 0-53-3-79-9s-53-15-80-27v366z"/></symbol><use xlink:href="#i" transform="matrix(10 0 0 -10 152.876 32.138)"/><use xlink:href="#h" transform="matrix(10 0 0 -10 162.646 32.138)"/><use xlink:href="#t" transform="matrix(10 0 0 -10 165.396 32.138)"/><use xlink:href="#C" transform="matrix(10 0 0 -10 171.896 32.138)"/><use xlink:href="#k" transform="matrix(10 0 0 -10 174.006 32.138)"/><use xlink:href="#B" transform="matrix(10 0 0 -10 177.736 32.268)"/><use xlink:href="#h" transform="matrix(10 0 0 -10 184.476 32.138)"/><use xlink:href="#m" transform="matrix(10 0 0 -10 186.856 32.268)"/><use xlink:href="#r" transform="matrix(10 0 0 -10 191.796 32.138)"/><use xlink:href="#s" transform="matrix(10 0 0 -10 196.046 32.268)"/><use xlink:href="#t" transform="matrix(10 0 0 -10 202.486 32.138)"/><use xlink:href="#u" transform="matrix(10 0 0 -10 208.466 32.268)"/><use xlink:href="#j" transform="matrix(10 0 0 -10 213.966 32.268)"/><use xlink:href="#k" transform="matrix(10 0 0 -10 219.566 32.138)"/><use xlink:href="#D" transform="matrix(10 0 0 -10 223.806 30.418)"/><use xlink:href="#k" transform="matrix(10 0 0 -10 231.126 32.138)"/><use xlink:href="#c" transform="matrix(10 0 0 -10 235.406 32.138)"/><use xlink:href="#E" transform="matrix(10 0 0 -10 241.436 32.268)"/><use xlink:href="#C" transform="matrix(10 0 0 -10 248.096 32.138)"/><use xlink:href="#c" transform="matrix(10 0 0 -10 251.306 32.138)"/><use xlink:href="#c" transform="matrix(10 0 0 -10 257.666 32.138)"/><use xlink:href="#k" transform="matrix(10 0 0 -10 262.926 32.138)"/><use xlink:href="#i" transform="matrix(10 0 0 -10 267.016 32.138)"/></g></svg>