<svg xmlns="http://www.w3.org/2000/svg" xmlns:xlink="http://www.w3.org/1999/xlink" width="614.4" height="460.8" viewBox="0 0 460.8 345.6"><path d="M0 345.6h460.8V0H0z" fill="#fff"/><path d="M103.104 307.584h266.112V41.472H103.104z" fill="#fff"/><path stroke-width=".8" stroke-linejoin="round" fill="none" stroke="#000" d="M113.558 307.584v3.5"/><symbol id="a"><path transform="matrix(.001 0 0 .001 -.066 .013)" d="M318 664c-51 0-89-25-115-75s-38-125-38-225 12-175 38-225 64-75 115-75 89 25 115 75c25 50 38 125 38 225s-13 175-38 225c-26 50-64 75-115 75zm0 78c81 0 143-33 187-97 43-65 65-159 65-281 0-123-22-217-65-281-44-64-106-96-188-96S173 19 130 83 66 241 66 364c0 122 21 216 64 281 43 64 106 97 188 97z"/></symbol><use xlink:href="#a" transform="matrix(10 0 0 -10 111.039 322.308)"/><path stroke-width=".8" stroke-linejoin="round" fill="none" stroke="#000" d="M167.032 307.584v3.5"/><symbol id="b"><path transform="translate(-.11) scale(.001)" d="M124 83h161v556l-175-35v90l174 35h99V83h161V0H124v83z"/></symbol><use xlink:href="#b" transform="matrix(10 0 0 -10 161.773 322.178)"/><use xlink:href="#a" transform="matrix(10 0 0 -10 167.693 322.308)"/><path stroke-width=".8" stroke-linejoin="round" fill="none" stroke="#000" d="M220.506 307.584v3.5"/><symbol id="c"><path transform="translate(-.073) scale(.001)" d="M192 83h344V0H73v83c37 38 88 90 153 156 64 65 105 107 122 126 32 35 54 65 66 90 12 24 19 49 19 73 0 38-14 70-41 94s-62 37-106 37c-31 0-64-6-98-16-34-11-71-27-110-49v100c40 16 77 28 111 36s66 12 95 12c75 0 135-19 180-57s68-88 68-151c0-30-6-59-17-85-11-27-31-59-61-95-8-10-34-37-78-82S271 164 192 83z"/></symbol><use xlink:href="#c" transform="matrix(10 0 0 -10 214.876 322.178)"/><use xlink:href="#a" transform="matrix(10 0 0 -10 221.166 322.308)"/><path stroke-width=".8" stroke-linejoin="round" fill="none" stroke="#000" d="M273.98 307.584v3.5"/><symbol id="d"><path transform="matrix(.001 0 0 .001 -.076 .013)" d="M406 393c47-10 84-31 110-63s40-72 40-118c0-72-25-128-74-167-50-39-120-58-211-58-31 0-63 3-95 9-32 5-66 14-100 26v95c27-16 57-28 90-36 32-8 66-12 102-12 62 0 109 12 141 36s49 60 49 107c0 42-15 76-45 100s-72 37-126 37h-85v81h89c48 0 85 9 111 29 26 19 39 47 39 84s-14 66-40 86c-27 20-65 30-114 30-27 0-56-3-87-9s-65-15-102-27v88c37 10 72 18 105 23 32 5 63 8 93 8 74 0 133-17 177-51s66-80 66-138c0-40-12-74-35-102s-56-48-98-58z"/></symbol><use xlink:href="#d" transform="matrix(10 0 0 -10 268.38 322.308)"/><use xlink:href="#a" transform="matrix(10 0 0 -10 274.64 322.308)"/><path stroke-width=".8" stroke-linejoin="round" fill="none" stroke="#000" d="M327.453 307.584v3.5"/><symbol id="e"><path transform="translate(-.049) scale(.001)" d="M378 643 129 254h249v389zm-26 86h124V254h104v-82H476V0h-98v172H49v95l303 462z"/></symbol><use xlink:href="#e" transform="matrix(10 0 0 -10 321.583 322.178)"/><use xlink:href="#a" transform="matrix(10 0 0 -10 328.113 322.308)"/><symbol id="f"><path transform="translate(.002) scale(.001)" d="M-2 729h616v-83H355V0h-99v646H-2v83z"/></symbol><symbol id="g"><path transform="translate(-.094) scale(.001)" d="M94 547h90V0H94v547zm0 213h90V646H94v114z"/></symbol><symbol id="h"><path transform="translate(-.091) scale(.001)" d="M520 442c22 40 49 69 80 89 31 19 68 29 111 29 56 0 100-20 131-60s47-97 47-170V0h-90v327c0 52-10 91-28 117-19 25-47 38-85 38-47 0-84-16-111-47s-40-73-40-126V0h-90v327c0 52-10 91-28 117-19 25-48 38-86 38-46 0-83-16-110-47s-40-73-40-126V0H91v547h90v-85c20 33 45 58 74 74 28 16 62 24 102 24s73-10 101-30 48-50 62-88z"/></symbol><symbol id="i"><path transform="matrix(.001 0 0 .001 -.055 .013)" d="M562 296v-44H149c4-62 22-110 56-142 33-32 79-48 139-48 34 0 68 4 100 12s65 21 97 39V28c-32-14-65-25-99-31s-69-10-103-10c-88 0-157 25-208 75S55 181 55 268c0 89 24 160 72 213 48 52 114 79 196 79 74 0 132-24 175-71 42-48 64-112 64-193zm-90 26c-1 49-15 88-41 118-27 29-63 44-107 44-50 0-90-15-120-43s-48-68-52-119h320z"/></symbol><symbol id="k"><path transform="matrix(.001 0 0 .001 -.086 .131)" d="M86 760h207v-70H176V-61h117v-70H86v891z"/></symbol><symbol id="l"><path transform="matrix(.001 0 0 .001 -.054 .013)" d="M443 531v-85c-26 12-52 22-79 29-28 6-56 10-85 10-45 0-79-7-101-21s-33-34-33-61c0-21 8-37 24-49s48-24 96-34l31-7c64-14 109-34 136-58 26-25 40-60 40-104 0-51-20-91-60-120-40-30-96-44-166-44-30 0-60 3-92 8S89 8 54 20v93c33-18 66-31 98-39 32-9 64-13 96-13 42 0 75 7 98 21 22 14 34 35 34 62 0 24-9 43-25 56s-52 26-108 38l-31 7c-56 12-97 30-121 54-25 24-37 57-37 100 0 51 18 91 54 119s88 42 156 42c33 0 64-3 94-8 29-5 56-12 81-21z"/></symbol><symbol id="m"><path transform="matrix(.001 0 0 .001 -.097 .131)" d="M304 760v-891H97v70h117v751H97v70h207z"/></symbol><use xlink:href="#f" transform="matrix(10 0 0 -10 215.757 335.85)"/><use xlink:href="#g" transform="matrix(10 0 0 -10 222.53 335.85)"/><use xlink:href="#h" transform="matrix(10 0 0 -10 225.28 335.85)"/><use xlink:href="#i" transform="matrix(10 0 0 -10 234.66 335.98)"/><use xlink:href="#j" transform="matrix(10 0 0 -10 240.26 335.85)"/><use xlink:href="#k" transform="matrix(10 0 0 -10 244.3 337.16)"/><use xlink:href="#l" transform="matrix(10 0 0 -10 247.88 335.98)"/><use xlink:href="#m" transform="matrix(10 0 0 -10 253.52 337.16)"/><path stroke-width=".8" stroke-linejoin="round" fill="none" stroke="#000" d="M103.104 286.624h-3.5"/><symbol id="n"><path transform="translate(-.082) scale(.001)" d="M82 729h469v-42L286 0H183l249 646H82v83z"/></symbol><use xlink:href="#n" transform="matrix(10 0 0 -10 84.205 290.42)"/><use xlink:href="#a" transform="matrix(10 0 0 -10 90.405 290.55)"/><path stroke-width=".8" stroke-linejoin="round" fill="none" stroke="#000" d="M103.104 250.769h-3.5"/><symbol id="o"><path transform="matrix(.001 0 0 .001 -.068 .013)" d="M318 346c-47 0-84-13-111-38s-40-59-40-103 13-79 40-104 64-37 111-37c46 0 83 12 110 38 27 25 41 59 41 103s-14 78-40 103c-27 25-64 38-111 38zm-99 42c-42 10-75 30-99 59s-35 64-35 106c0 58 20 104 62 138 41 34 98 51 171 51 72 0 129-17 171-51 41-34 62-80 62-138 0-42-12-77-36-106s-56-49-98-59c47-11 84-33 111-65 26-32 40-72 40-118 0-71-22-125-65-162-44-38-106-56-186-56S175 5 132 43c-43 37-64 91-64 162 0 46 13 86 40 118 26 32 63 54 111 65zm-36 156c0-38 11-68 35-89s57-31 100-31c42 0 75 10 99 31s36 51 36 89-12 67-36 88-57 32-99 32c-43 0-76-11-100-32s-35-50-35-88z"/></symbol><use xlink:href="#o" transform="matrix(10 0 0 -10 84.065 254.696)"/><use xlink:href="#a" transform="matrix(10 0 0 -10 90.405 254.696)"/><path stroke-width=".8" stroke-linejoin="round" fill="none" stroke="#000" d="M103.104 214.914h-3.5"/><symbol id="p"><path transform="matrix(.001 0 0 .001 -.063 .013)" d="M110 15v90c24-12 49-21 75-27 25-6 50-9 75-9 64 0 114 21 148 65s54 110 60 200c-20-28-44-50-72-65-29-15-61-22-96-22-74 0-132 22-174 66S63 417 63 494c0 74 22 134 66 180 44 45 103 68 177 68 84 0 149-33 193-97 44-65 67-159 67-281 0-116-28-207-82-275C429 21 356-13 264-13c-25 0-50 3-75 7-26 4-52 11-79 21zm196 309c44 0 79 15 105 45s39 72 39 125c0 52-13 94-39 124s-61 46-105 46-79-16-105-46-39-72-39-124c0-53 13-95 39-125s61-45 105-45z"/></symbol><use xlink:href="#p" transform="matrix(10 0 0 -10 84.015 218.841)"/><use xlink:href="#a" transform="matrix(10 0 0 -10 90.405 218.841)"/><path stroke-width=".8" stroke-linejoin="round" fill="none" stroke="#000" d="M103.104 179.06h-3.5"/><use xlink:href="#b" transform="matrix(10 0 0 -10 78.126 182.856)"/><use xlink:href="#a" transform="matrix(10 0 0 -10 84.046 182.986)"/><use xlink:href="#a" transform="matrix(10 0 0 -10 90.406 182.986)"/><path stroke-width=".8" stroke-linejoin="round" fill="none" stroke="#000" d="M103.104 143.205h-3.5"/><use xlink:href="#b" transform="matrix(10 0 0 -10 78.126 147.002)"/><use xlink:href="#b" transform="matrix(10 0 0 -10 84.486 147.002)"/><use xlink:href="#a" transform="matrix(10 0 0 -10 90.406 147.132)"/><path stroke-width=".8" stroke-linejoin="round" fill="none" stroke="#000" d="M103.104 107.35h-3.5"/><use xlink:href="#b" transform="matrix(10 0 0 -10 78.126 111.147)"/><use xlink:href="#c" transform="matrix(10 0 0 -10 84.116 111.147)"/><use xlink:href="#a" transform="matrix(10 0 0 -10 90.406 111.277)"/><path stroke-width=".8" stroke-linejoin="round" fill="none" stroke="#000" d="M103.104 71.495h-3.5"/><use xlink:href="#b" transform="matrix(10 0 0 -10 78.126 75.292)"/><use xlink:href="#d" transform="matrix(10 0 0 -10 84.146 75.422)"/><use xlink:href="#a" transform="matrix(10 0 0 -10 90.406 75.422)"/><symbol id="q"><path transform="matrix(.001 0 0 .001 -.056 .013)" d="M394 662c-72 0-129-27-171-80-42-54-63-126-63-218s21-165 63-218c42-54 99-80 171-80 71 0 128 26 170 80 42 53 63 126 63 218s-21 164-63 218c-42 53-99 80-170 80zm0 80c102 0 183-35 245-103 61-68 92-160 92-275 0-116-31-207-92-275C577 21 496-13 394-13 291-13 209 21 148 89c-62 68-92 159-92 275 0 115 30 207 92 275 61 68 143 103 246 103z"/></symbol><symbol id="r"><path transform="translate(-.091) scale(.001)" d="M411 463c-10 6-21 10-33 13-12 2-25 4-39 4-51 0-90-17-117-50-28-33-41-80-41-142V0H91v547h90v-85c18 33 43 58 73 74s67 24 111 24c6 0 13-1 21-1 7-1 15-2 25-4v-92z"/></symbol><symbol id="s"><path transform="translate(-.027) scale(.001)" d="M183 702V547h185v-70H183V180c0-45 6-74 18-86 12-13 37-19 75-19h92V0h-92c-70 0-118 13-144 39s-39 73-39 141v297H27v70h66v155h90z"/></symbol><symbol id="t"><path transform="translate(-.091) scale(.001)" d="M549 330V0h-90v327c0 52-11 90-31 116s-50 39-90 39c-49 0-87-16-115-47s-42-73-42-126V0H91v547h90v-85c21 32 46 57 76 73 29 16 63 25 101 25 62 0 110-20 142-59s49-96 49-171z"/></symbol><symbol id="u"><path transform="matrix(.001 0 0 .001 -.06 .013)" d="M343 275c-73 0-123-9-151-25-28-17-42-45-42-85 0-32 10-58 31-76 21-19 50-28 86-28 50 0 90 17 120 53 30 35 45 82 45 141v20h-89zm179 37V0h-90v83c-21-34-47-58-77-73s-68-23-112-23c-56 0-101 15-134 46s-49 73-49 126c0 61 20 107 62 139 41 31 102 47 184 47h126v9c0 41-14 73-41 96-27 22-65 34-114 34-32 0-62-4-92-12s-58-19-85-33v83c32 12 64 22 95 28s61 10 91 10c79 0 138-21 177-62s59-103 59-186z"/></symbol><symbol id="v"><path transform="matrix(.001 0 0 .001 -.055 .013)" d="M306 484c-48 0-86-19-114-57s-42-89-42-154c0-66 13-117 41-155s66-56 115-56c48 0 86 18 114 56s42 89 42 155c0 64-14 116-42 154s-66 57-114 57zm0 76c78 0 139-26 184-76 44-51 67-121 67-211s-23-160-67-210c-45-51-106-76-184-76-79 0-141 25-185 76-44 50-66 120-66 210s22 160 66 211c44 50 106 76 185 76z"/></symbol><symbol id="w"><path transform="matrix(.001 0 0 .001 -.095 -.432)" d="M250 679c-26 0-48-9-66-27s-27-40-27-66 9-48 27-66 40-26 66-26 48 8 66 26 27 40 27 66-9 48-27 66-40 27-66 27zm0 63c20 0 40-4 60-12 19-8 36-20 50-34 14-15 25-32 33-50 8-19 12-39 12-60 0-44-16-80-46-110s-67-44-110-44c-44 0-81 14-110 44-30 29-44 66-44 110 0 43 15 80 45 110s66 46 110 46z"/></symbol><use xlink:href="#q" transform="matrix(0 -10 -10 0 71.078 212.171)"/><use xlink:href="#r" transform="matrix(0 -10 -10 0 70.948 203.951)"/><use xlink:href="#g" transform="matrix(0 -10 -10 0 70.948 199.811)"/><use xlink:href="#s" transform="matrix(0 -10 -10 0 70.948 197.701)"/><use xlink:href="#i" transform="matrix(0 -10 -10 0 71.078 193.501)"/><use xlink:href="#t" transform="matrix(0 -10 -10 0 70.948 186.991)"/><use xlink:href="#s" transform="matrix(0 -10 -10 0 70.948 181.291)"/><use xlink:href="#u" transform="matrix(0 -10 -10 0 71.078 177.041)"/><use xlink:href="#s" transform="matrix(0 -10 -10 0 70.948 171.241)"/><use xlink:href="#g" transform="matrix(0 -10 -10 0 70.948 166.651)"/><use xlink:href="#v" transform="matrix(0 -10 -10 0 71.078 164.261)"/><use xlink:href="#t" transform="matrix(0 -10 -10 0 70.948 157.781)"/><use xlink:href="#j" transform="matrix(0 -10 -10 0 70.948 152.351)"/><use xlink:href="#k" transform="matrix(0 -10 -10 0 72.258 148.311)"/><use xlink:href="#w" transform="matrix(0 -10 -10 0 66.628 144.321)"/><use xlink:href="#m" transform="matrix(0 -10 -10 0 72.258 139.301)"/><clipPath id="x"><path transform="matrix(1 0 0 -1 0 345.6)" d="M103.104 38.016h266.112v266.112H103.104z"/></clipPath><g clip-path="url(#x)"><path stroke-width="2.5" stroke-linecap="square" stroke-linejoin="round" fill="none" stroke="teal" d="M115.2 214.91h.107l.107.496.22-.279.315.523.107-.21.112.147.203-.364.112.293.204-.322.155.268.181-.552.113.255.31-.375.112.12.102-.346.198.123.133-.215.091.114.102-.208.112.112.107-.098.337-.082.107-.191.214.209.09-.284.102.199.107-.279.15.195.182-.174.123-.086.101.098.102-.266.102.187.101-.173.118.096.107-.172.112.096.107-.257.198.1.208-.157.23-.071.113-.162.08.176.117-.245.107.092.107-.16.252-.066.17-.229.23-.071.199-.295.128.09.187-.223.647-.34.118.085.203-.139.118.085.267-.061.588.113.112.081.118-.07.305.163.326.087.198.08.47.087.06.151.117-.146.118.225.096-.146.433.231.123-.072.096.076.107-.071.22.077.112.002.075.148.107-.071.262.15.107-.145.064.147.657.082.246.075.385.076.439.22.102-.071.331.29.096-.071.22.216.117-.071.316.36.08-.071 1.524.718.085.214.209-.071.118.142.107-.071.219.214.128-.072.193.214.353.07.176.143.647.283.107-.072.225.213h.214l.09.212.214-.142.113.212.107-.07.106.212.107-.143.22.142.224.07.3.212.096-.142.246.14.203.07.305.07.438.14h.123l.075.141.246-.07.086.14.23-.071.251.14.112-.07.268.07.112-.001.102.141.219-.071.096.07.112-.07.364.14.808.068.208.07h.23l.957.069.118.07.262-.07.064.07.112-.07.102.07.305-.072.112.071.118-.07.09.14.214-.141.14.07.117-.07.064.141.113-.141.23.07h.62l.128-.141.08.14.321-.07 1.284.001.224-.14.112.07.214-.141.305.14.112-.07h1.059l.129-.14.213.072h.744l.214-.14 3.106-.069.091-.07.236.07.101-.07h.225l3.085.071.107-.21.134.212.075-.14.208.07.22-.071 1.187.069.09.07.118-.14.22.07h6.513l.117.142.198-.141.102.141.25-.068 10.877.108.321.084.31.084.54-.053.241-.067.187.003.123-.214.091.073.642-.359.118.07.23-.142.096.07.224-.143.29-.073.111-.071.123.141.476-.214.23.07.059-.142.091.07h.096l.107-.142.112.071.107-.071.107.07.214-.07.535-.14.118.07.31-.07.117.071.214-.14.305.071.123-.07.102.07.214-.07.224.07.112-.141.097.213.438-.142.209.07.09-.07.22.07.208-.072.102.071.332-.072.844.069.107.07.332-.071.16.141.07-.141.3.141h.224l.112-.14.107.21.08-.07.23.071.417-.07.113.212.112-.141.428.142.112-.07.214.141.08-.07.23.141h.225l.684.07.059.07.09-.07.119.14.224-.07.326.14h.204l.112.07.203-.07.24.07.188.07.112.07.225-.071.304.141.15-.07.278.14.113-.07.224.07h.182l.118.07.326-.071.112.07.112-.07.118.211.075-.07.765.073.117.07.086-.142.438.142.113-.07.192.07.209-.071.112.07.23-.07.208.069.327-.07.304.07h.23l2.257-.07.096-.07.091.14.107-.14.112.141.316-.07.342.07.09-.14.327.07.861-.002.096-.139.22.07 1.058-.068.337-.072.096.072.241-.07.075.071.433-.14 1.604-.003.102-.141.22.14.106-.14.102.14.101-.07.24.071.145-.141.07.142.085-.071h.107l.113.141.112-.14.101.07.118-.142.203.071h.637l.096-.141.246.139.112-.14.15.14.059-.07.107.07.101-.142.321.07 7.385-.07.107.141.085-.07 2.572.074.118.07.091-.14.123.14.112-.142.086.071h.128l.177-.141.07.14.17-.14 2.567.076.32.07.872-.002.107-.141.091.07.433-.142.236.07.315-.07 2.01.069.102.07.204-.07.55.004.097.14.107-.14.331.07.203-.072h.209l.561.07.091.072.102-.07.214.073.123-.143.123.142.09-.072.097.07.112-.068.214.001 1.075-.072.16-.071.209-.001 1.561-.003.102.142.224-.142 1.172-.002.117.14.198-.07h.583l.31 5.163.278 2.124.225.091.112-.162.326-1.323.407-3.275.336-2.925 1.605-18.49.294-6.718 1.07-10.959.454-4.085.743-8.55.546-7.324.304-4.827 2.358-39.316 2.348-30.324.647-4.638.22-.922.304-1.44.439-1.449.529-1.32.364-.246.085.114.08-.1.567.248h.123l.075.157.22.086.636.903.4.473.755 1.321 1.604 4.108 2.059 7.963.304 1.404 1.171 5.109.861 3.185.963 2.253 2.909 5.312.096.05.209.382.107.07.09.261h.123l.353.41.487.403.599.282.22.062.069.07.107-.109.187.07.476.024.288-.187h.198l.792-.22.283-.32.118.14.315-.29 1.305-.767.198-.099.203-.132 1.273-.85.128.042.32-.231 1.086-.569h.129l.16-.112.433-.218 1.294-.484.097.007.219-.126.203-.098.23-.006.22-.113.202-.049.45-.048.31-.168.09.07.113-.098.118.077.101-.126.214.022.423-.05.09.12.22-.049.444-.006.23.076 1.15.294.095-.147.123.168.214-.07.097.077.219-.083.224.091.182-.049.797.07.278.14.246-.077.08.161.129-.097.31.132.09-.042.118.07.198-.028.134.07.192-.083.129.126.213-.056.466.105.101-.049.182.105.23.007.503.183.096-.056.454.168.23.036.487-3.316.102-.267.32.295.551 2.16.711 4.292 1.696 9.758 1.438 9.79.856 7.744 1.951 19.054.92 10.963.396 4.42 2.652 38.174 1.433 25.249.995 16.418 1 15.283.69 8.984.909 10.218 1.123 8.644.096.082.182.409.235.141.674-1.642.465-2.312.508-1.561.535-1.351.433-1.052.433-1.38.84-4.01.646-4.054 1.198-9.043.332-2.69.716-6.506.278-1.813.262-2.627.776-5.989 1.278-9.584 1.101-5.602.204-.79.176-.781.455-1.502.406-1.13.214-.209.048-.356.064.033.631-.92.23-.191.246-.261.075.006.31-.269.112.07.225-.14.401-.003.225.21.107.003 1.123 1.873.588 1.251.31.838.577 1.116.06.268.165.144.289.56.63 1.075 1.915 3.113.22.219 3.422 6.3.112.07.22.359 1.058 1.024 1.45.808.085-.016.064.145 1.064.36.224.213.107-.085.145.138.118-.069.048.129.117-.145.097.222.224-.069 1.177.36.112-.07.22.138.427.068.214.069.101-.077.423.187.732.06h.241l.749-.008.09-.069.22.034.112.085.32-.077.092.069.123-.086.101.077.22-.128 1.93-.163.102-.112.117.129.086-.112.235.162.091-.181.107.146.53-.146.106.077.113-.138.224.07.198-.13.118.069.219-.078 5.593.11.845.095.23-.077.193.068.502.017.337.052.107-.069.187.07 1.305.24"/></g><clipPath id="y"><path transform="matrix(1 0 0 -1 0 345.6)" d="M103.104 38.016h266.112v266.112H103.104z"/></clipPath><g clip-path="url(#y)"><path stroke-width="2.5" stroke-dasharray="9.25,4" stroke-linejoin="round" fill="none" stroke="red" d="m115.2 216.96 17.438.137 40.303.074 66.537.103.102-152.95h2.042l.097-10.756h1.502l.107 53.782h46.18l.246 133.64 2.396 1.562 1.08.613 4.155 2.135 2.598.956 2.69.64 1.93.184 1.787-.045 2.92-.455 2.24-.47 3.764-.363 2.455.039 3.208.335 2.455.347 5.449.678 4.71.405 23.529 1.595"/></g><path stroke-width=".8" stroke-linecap="square" stroke-miterlimit="10" fill="none" stroke="#000" d="M103.104 307.584V41.472M369.216 307.584V41.472M103.104 307.584h266.112M103.104 41.472h266.112"/><path d="M110.104 302.584h153.36c1.333 0 2-.667 2-2V272.24c0-1.333-.667-2-2-2h-153.36c-1.333 0-2 .667-2 2v28.344c0 1.333.667 2 2 2z" fill="#fff" fill-opacity=".8"/><path stroke-miterlimit="10" fill="none" stroke="#d5d6d5" stroke-opacity=".8" d="M110.104 302.584h153.36c1.333 0 2-.667 2-2V272.24c0-1.333-.667-2-2-2h-153.36c-1.333 0-2 .667-2 2v28.344c0 1.333.667 2 2 2z"/><path stroke-width="2.5" stroke-linecap="square" stroke-linejoin="round" fill="none" stroke="teal" d="M112.104 278.334h20"/><symbol id="z"><path transform="matrix(.001 0 0 .001 -.056 .013)" d="M644 673V569c-34 30-69 53-107 69-38 15-77 23-119 23-84 0-148-26-192-77s-66-124-66-220 22-170 66-221 108-76 192-76c42 0 81 7 119 23 38 15 73 38 107 69V56c-35-24-72-41-110-52s-79-17-122-17C302-13 215 20 151 87S56 246 56 364c0 117 31 209 95 277 64 67 151 101 261 101 44 0 85-6 123-17 38-12 75-29 109-52z"/></symbol><symbol id="A"><path transform="matrix(.001 0 0 .001 -.085 .013)" d="M85 216v331h90V219c0-52 10-90 30-116s50-39 91-39c48 0 87 15 115 46s42 73 42 127v310h90V0h-90v84c-22-34-48-58-76-74-29-15-62-23-100-23-63 0-111 19-143 58-33 38-49 95-49 171zm226 344z"/></symbol><symbol id="B"><path transform="matrix(.001 0 0 .001 -.086 .131)" d="M310 759c-44-76-76-150-97-223-22-73-32-147-32-222 0-76 10-150 32-223 21-74 53-147 97-222h-78C183-54 146 20 122 94S86 241 86 314c0 72 12 145 36 219s60 149 110 226h78z"/></symbol><symbol id="C"><path transform="matrix(.001 0 0 .001 -.066 .013)" d="M535 705v-96c-38 18-73 31-106 40-34 8-66 13-96 13-54 0-96-11-125-31-29-21-43-51-43-89 0-32 9-57 29-73 19-17 56-30 110-40l60-12c73-14 127-39 162-74 35-36 53-83 53-142 0-71-24-124-71-160-48-36-117-54-208-54-35 0-72 4-111 11S110 16 69 32v102c40-23 79-40 117-51 38-12 76-17 114-17 56 0 99 11 130 33 30 22 46 53 46 95 0 36-11 64-33 84s-58 35-108 45l-60 12c-74 14-127 37-160 69-33 31-49 74-49 130 0 64 22 115 68 152 45 37 108 56 188 56 34 0 68-3 104-9 35-6 71-16 109-28z"/></symbol><symbol id="D"><path transform="matrix(.001 0 0 .001 -.08 .131)" d="M80 759h78c48-77 85-152 109-226s37-147 37-219c0-73-13-146-37-220S206-54 158-131H80c43 75 75 148 97 222 21 73 32 147 32 223 0 75-11 149-32 222-22 73-54 147-97 223z"/></symbol><use xlink:href="#z" transform="matrix(10 0 0 -10 140.664 281.964)"/><use xlink:href="#A" transform="matrix(10 0 0 -10 147.934 281.964)"/><use xlink:href="#r" transform="matrix(10 0 0 -10 154.334 281.834)"/><use xlink:href="#r" transform="matrix(10 0 0 -10 158.272 281.834)"/><use xlink:href="#i" transform="matrix(10 0 0 -10 161.803 281.964)"/><use xlink:href="#t" transform="matrix(10 0 0 -10 168.313 281.834)"/><use xlink:href="#s" transform="matrix(10 0 0 -10 174.013 281.834)"/><use xlink:href="#j" transform="matrix(10 0 0 -10 177.663 281.834)"/><use xlink:href="#v" transform="matrix(10 0 0 -10 181.393 281.964)"/><use xlink:href="#r" transform="matrix(10 0 0 -10 187.873 281.834)"/><use xlink:href="#g" transform="matrix(10 0 0 -10 192.013 281.834)"/><use xlink:href="#i" transform="matrix(10 0 0 -10 194.403 281.964)"/><use xlink:href="#t" transform="matrix(10 0 0 -10 200.913 281.834)"/><use xlink:href="#s" transform="matrix(10 0 0 -10 206.613 281.834)"/><use xlink:href="#u" transform="matrix(10 0 0 -10 210.863 281.964)"/><use xlink:href="#s" transform="matrix(10 0 0 -10 216.663 281.834)"/><use xlink:href="#g" transform="matrix(10 0 0 -10 221.253 281.834)"/><use xlink:href="#v" transform="matrix(10 0 0 -10 223.643 281.964)"/><use xlink:href="#t" transform="matrix(10 0 0 -10 230.123 281.834)"/><use xlink:href="#j" transform="matrix(10 0 0 -10 235.553 281.834)"/><use xlink:href="#B" transform="matrix(10 0 0 -10 239.593 283.144)"/><use xlink:href="#q" transform="matrix(10 0 0 -10 243.193 281.964)"/><use xlink:href="#C" transform="matrix(10 0 0 -10 251.163 281.964)"/><use xlink:href="#D" transform="matrix(10 0 0 -10 257.653 283.144)"/><path stroke-width="2.5" stroke-dasharray="9.25,4" stroke-linejoin="round" fill="none" stroke="red" d="M112.104 293.006h20"/><symbol id="E"><path transform="translate(-.098) scale(.001)" d="M197 648V81h119c100 0 174 22 221 68 46 46 70 118 70 216s-24 169-70 215c-47 45-121 68-221 68H197zm-99 81h203c141 0 245-30 311-88 66-59 99-151 99-276 0-126-34-218-100-277S441 0 301 0H98v729z"/></symbol><symbol id="F"><path transform="matrix(.001 0 0 .001 -.055 .013)" d="M454 464v296h90V0h-90v82c-19-33-43-57-72-72s-63-23-103-23c-66 0-120 26-162 78S55 187 55 273s20 155 62 208c42 52 96 79 162 79 40 0 74-8 103-24s53-40 72-72zM148 273c0-66 13-118 40-156s64-56 112-56 85 18 113 56c27 38 41 90 41 156s-14 117-41 155c-28 38-65 57-113 57s-85-19-112-57-40-89-40-155z"/></symbol><use xlink:href="#E" transform="matrix(10 0 0 -10 141.084 296.506)"/><use xlink:href="#i" transform="matrix(10 0 0 -10 148.354 296.636)"/><use xlink:href="#l" transform="matrix(10 0 0 -10 154.494 296.636)"/><use xlink:href="#g" transform="matrix(10 0 0 -10 160.104 296.506)"/><use xlink:href="#r" transform="matrix(10 0 0 -10 162.854 296.506)"/><use xlink:href="#i" transform="matrix(10 0 0 -10 166.385 296.636)"/><use xlink:href="#F" transform="matrix(10 0 0 -10 172.535 296.636)"/><use xlink:href="#j" transform="matrix(10 0 0 -10 178.335 296.506)"/><use xlink:href="#v" transform="matrix(10 0 0 -10 182.065 296.636)"/><use xlink:href="#r" transform="matrix(10 0 0 -10 188.545 296.506)"/><use xlink:href="#g" transform="matrix(10 0 0 -10 192.685 296.506)"/><use xlink:href="#i" transform="matrix(10 0 0 -10 195.075 296.636)"/><use xlink:href="#t" transform="matrix(10 0 0 -10 201.585 296.506)"/><use xlink:href="#s" transform="matrix(10 0 0 -10 207.285 296.506)"/><use xlink:href="#u" transform="matrix(10 0 0 -10 211.535 296.636)"/><use xlink:href="#s" transform="matrix(10 0 0 -10 217.335 296.506)"/><use xlink:href="#g" transform="matrix(10 0 0 -10 221.925 296.506)"/><use xlink:href="#v" transform="matrix(10 0 0 -10 224.315 296.636)"/><use xlink:href="#t" transform="matrix(10 0 0 -10 230.795 296.506)"/><use xlink:href="#j" transform="matrix(10 0 0 -10 236.225 296.506)"/><use xlink:href="#B" transform="matrix(10 0 0 -10 240.265 297.816)"/><use xlink:href="#q" transform="matrix(10 0 0 -10 243.865 296.636)"/><use xlink:href="#C" transform="matrix(10 0 0 -10 251.835 296.636)"/><use xlink:href="#D" transform="matrix(10 0 0 -10 258.325 297.816)"/></svg>