<svg xmlns="http://www.w3.org/2000/svg" xmlns:xlink="http://www.w3.org/1999/xlink" width="304pt" height="396" viewBox="0 0 304 297"><clipPath id="a"><path transform="matrix(1 0 0 -1 -66 305)" d="M0 0h460.8v345.6H0z"/></clipPath><g clip-path="url(#a)"><path d="M-66 305h460.8V-40.6H-66z" fill="#fff"/><path d="M37.104 266.984h266.112V.872H37.104z" fill="#fff"/><path stroke-width=".8" stroke-linejoin="round" fill="none" stroke="#000" d="M47.558 266.984v3.5"/><symbol id="b"><path transform="matrix(.001 0 0 .001 -.066 .013)" d="M318 664c-51 0-89-25-115-75s-38-125-38-225 12-175 38-225 64-75 115-75 89 25 115 75c25 50 38 125 38 225s-13 175-38 225c-26 50-64 75-115 75zm0 78c81 0 143-33 187-97 43-65 65-159 65-281 0-123-22-217-65-281-44-64-106-96-188-96S173 19 130 83 66 241 66 364c0 122 21 216 64 281 43 64 106 97 188 97z"/></symbol><use xlink:href="#b" transform="matrix(10 0 0 -10 45.039 281.708)"/><path stroke-width=".8" stroke-linejoin="round" fill="none" stroke="#000" d="M101.032 266.984v3.5"/><symbol id="c"><path transform="translate(-.11) scale(.001)" d="M124 83h161v556l-175-35v90l174 35h99V83h161V0H124v83z"/></symbol><use xlink:href="#c" transform="matrix(10 0 0 -10 95.773 281.578)"/><use xlink:href="#b" transform="matrix(10 0 0 -10 101.693 281.708)"/><path stroke-width=".8" stroke-linejoin="round" fill="none" stroke="#000" d="M154.506 266.984v3.5"/><symbol id="d"><path transform="translate(-.073) scale(.001)" d="M192 83h344V0H73v83c37 38 88 90 153 156 64 65 105 107 122 126 32 35 54 65 66 90 12 24 19 49 19 73 0 38-14 70-41 94s-62 37-106 37c-31 0-64-6-98-16-34-11-71-27-110-49v100c40 16 77 28 111 36s66 12 95 12c75 0 135-19 180-57s68-88 68-151c0-30-6-59-17-85-11-27-31-59-61-95-8-10-34-37-78-82S271 164 192 83z"/></symbol><use xlink:href="#d" transform="matrix(10 0 0 -10 148.876 281.578)"/><use xlink:href="#b" transform="matrix(10 0 0 -10 155.166 281.708)"/><path stroke-width=".8" stroke-linejoin="round" fill="none" stroke="#000" d="M207.98 266.984v3.5"/><symbol id="e"><path transform="matrix(.001 0 0 .001 -.076 .013)" d="M406 393c47-10 84-31 110-63s40-72 40-118c0-72-25-128-74-167-50-39-120-58-211-58-31 0-63 3-95 9-32 5-66 14-100 26v95c27-16 57-28 90-36 32-8 66-12 102-12 62 0 109 12 141 36s49 60 49 107c0 42-15 76-45 100s-72 37-126 37h-85v81h89c48 0 85 9 111 29 26 19 39 47 39 84s-14 66-40 86c-27 20-65 30-114 30-27 0-56-3-87-9s-65-15-102-27v88c37 10 72 18 105 23 32 5 63 8 93 8 74 0 133-17 177-51s66-80 66-138c0-40-12-74-35-102s-56-48-98-58z"/></symbol><use xlink:href="#e" transform="matrix(10 0 0 -10 202.38 281.708)"/><use xlink:href="#b" transform="matrix(10 0 0 -10 208.64 281.708)"/><path stroke-width=".8" stroke-linejoin="round" fill="none" stroke="#000" d="M261.453 266.984v3.5"/><symbol id="f"><path transform="translate(-.049) scale(.001)" d="M378 643 129 254h249v389zm-26 86h124V254h104v-82H476V0h-98v172H49v95l303 462z"/></symbol><use xlink:href="#f" transform="matrix(10 0 0 -10 255.583 281.578)"/><use xlink:href="#b" transform="matrix(10 0 0 -10 262.113 281.708)"/><symbol id="g"><path transform="translate(.002) scale(.001)" d="M-2 729h616v-83H355V0h-99v646H-2v83z"/></symbol><symbol id="h"><path transform="translate(-.094) scale(.001)" d="M94 547h90V0H94v547zm0 213h90V646H94v114z"/></symbol><symbol id="i"><path transform="translate(-.091) scale(.001)" d="M520 442c22 40 49 69 80 89 31 19 68 29 111 29 56 0 100-20 131-60s47-97 47-170V0h-90v327c0 52-10 91-28 117-19 25-47 38-85 38-47 0-84-16-111-47s-40-73-40-126V0h-90v327c0 52-10 91-28 117-19 25-48 38-86 38-46 0-83-16-110-47s-40-73-40-126V0H91v547h90v-85c20 33 45 58 74 74 28 16 62 24 102 24s73-10 101-30 48-50 62-88z"/></symbol><symbol id="j"><path transform="matrix(.001 0 0 .001 -.055 .013)" d="M562 296v-44H149c4-62 22-110 56-142 33-32 79-48 139-48 34 0 68 4 100 12s65 21 97 39V28c-32-14-65-25-99-31s-69-10-103-10c-88 0-157 25-208 75S55 181 55 268c0 89 24 160 72 213 48 52 114 79 196 79 74 0 132-24 175-71 42-48 64-112 64-193zm-90 26c-1 49-15 88-41 118-27 29-63 44-107 44-50 0-90-15-120-43s-48-68-52-119h320z"/></symbol><symbol id="l"><path transform="matrix(.001 0 0 .001 -.086 .131)" d="M86 760h207v-70H176V-61h117v-70H86v891z"/></symbol><symbol id="m"><path transform="matrix(.001 0 0 .001 -.054 .013)" d="M443 531v-85c-26 12-52 22-79 29-28 6-56 10-85 10-45 0-79-7-101-21s-33-34-33-61c0-21 8-37 24-49s48-24 96-34l31-7c64-14 109-34 136-58 26-25 40-60 40-104 0-51-20-91-60-120-40-30-96-44-166-44-30 0-60 3-92 8S89 8 54 20v93c33-18 66-31 98-39 32-9 64-13 96-13 42 0 75 7 98 21 22 14 34 35 34 62 0 24-9 43-25 56s-52 26-108 38l-31 7c-56 12-97 30-121 54-25 24-37 57-37 100 0 51 18 91 54 119s88 42 156 42c33 0 64-3 94-8 29-5 56-12 81-21z"/></symbol><symbol id="n"><path transform="matrix(.001 0 0 .001 -.097 .131)" d="M304 760v-891H97v70h117v751H97v70h207z"/></symbol><use xlink:href="#g" transform="matrix(10 0 0 -10 149.757 295.25)"/><use xlink:href="#h" transform="matrix(10 0 0 -10 156.53 295.25)"/><use xlink:href="#i" transform="matrix(10 0 0 -10 159.28 295.25)"/><use xlink:href="#j" transform="matrix(10 0 0 -10 168.66 295.38)"/><use xlink:href="#k" transform="matrix(10 0 0 -10 174.26 295.25)"/><use xlink:href="#l" transform="matrix(10 0 0 -10 178.3 296.56)"/><use xlink:href="#m" transform="matrix(10 0 0 -10 181.88 295.38)"/><use xlink:href="#n" transform="matrix(10 0 0 -10 187.52 296.56)"/><path stroke-width=".8" stroke-linejoin="round" fill="none" stroke="#000" d="M37.104 231.425h-3.5"/><symbol id="o"><path transform="translate(-.107) scale(.001)" d="M107 124h103V0H107v124z"/></symbol><use xlink:href="#c" transform="matrix(10 0 0 -10 15.298 235.222)"/><use xlink:href="#o" transform="matrix(10 0 0 -10 21.628 235.222)"/><use xlink:href="#b" transform="matrix(10 0 0 -10 24.398 235.352)"/><path stroke-width=".8" stroke-linejoin="round" fill="none" stroke="#000" d="M37.104 188.036h-3.5"/><symbol id="p"><path transform="matrix(.001 0 0 .001 -.077 .013)" d="M108 729h387v-83H198V467c14 5 29 9 43 11s29 4 43 4c81 0 145-23 193-67 48-45 72-105 72-181 0-79-25-140-74-183S357-13 269-13c-31 0-62 3-94 7-32 5-64 12-98 23v99c29-16 59-28 91-36 31-8 64-11 99-11 56 0 101 14 134 44 32 30 49 70 49 121 0 50-17 90-49 120-33 30-78 45-134 45-26 0-53-3-79-9s-53-15-80-27v366z"/></symbol><use xlink:href="#c" transform="matrix(10 0 0 -10 15.298 191.833)"/><use xlink:href="#o" transform="matrix(10 0 0 -10 21.628 191.833)"/><use xlink:href="#p" transform="matrix(10 0 0 -10 24.508 191.963)"/><path stroke-width=".8" stroke-linejoin="round" fill="none" stroke="#000" d="M37.104 144.647h-3.5"/><use xlink:href="#d" transform="matrix(10 0 0 -10 14.928 148.444)"/><use xlink:href="#o" transform="matrix(10 0 0 -10 21.628 148.444)"/><use xlink:href="#b" transform="matrix(10 0 0 -10 24.398 148.574)"/><path stroke-width=".8" stroke-linejoin="round" fill="none" stroke="#000" d="M37.104 101.258h-3.5"/><use xlink:href="#d" transform="matrix(10 0 0 -10 14.928 105.055)"/><use xlink:href="#o" transform="matrix(10 0 0 -10 21.628 105.055)"/><use xlink:href="#p" transform="matrix(10 0 0 -10 24.508 105.185)"/><path stroke-width=".8" stroke-linejoin="round" fill="none" stroke="#000" d="M37.104 57.869h-3.5"/><use xlink:href="#e" transform="matrix(10 0 0 -10 14.958 61.796)"/><use xlink:href="#o" transform="matrix(10 0 0 -10 21.628 61.666)"/><use xlink:href="#b" transform="matrix(10 0 0 -10 24.398 61.796)"/><path stroke-width=".8" stroke-linejoin="round" fill="none" stroke="#000" d="M37.104 14.48h-3.5"/><use xlink:href="#e" transform="matrix(10 0 0 -10 14.958 18.407)"/><use xlink:href="#o" transform="matrix(10 0 0 -10 21.628 18.277)"/><use xlink:href="#p" transform="matrix(10 0 0 -10 24.508 18.407)"/><symbol id="q"><path transform="matrix(.001 0 0 .001 -.066 .013)" d="M535 705v-96c-38 18-73 31-106 40-34 8-66 13-96 13-54 0-96-11-125-31-29-21-43-51-43-89 0-32 9-57 29-73 19-17 56-30 110-40l60-12c73-14 127-39 162-74 35-36 53-83 53-142 0-71-24-124-71-160-48-36-117-54-208-54-35 0-72 4-111 11S110 16 69 32v102c40-23 79-40 117-51 38-12 76-17 114-17 56 0 99 11 130 33 30 22 46 53 46 95 0 36-11 64-33 84s-58 35-108 45l-60 12c-74 14-127 37-160 69-33 31-49 74-49 130 0 64 22 115 68 152 45 37 108 56 188 56 34 0 68-3 104-9 35-6 71-16 109-28z"/></symbol><symbol id="r"><path transform="matrix(.001 0 0 .001 -.091 .207)" d="M181 82v-289H91v754h90v-83c18 32 42 56 71 72s64 24 104 24c66 0 120-27 162-79 41-53 62-122 62-208s-21-156-62-208c-42-52-96-78-162-78-40 0-75 8-104 23s-53 39-71 72zm306 191c0 66-14 117-41 155-28 38-65 57-112 57-48 0-85-19-112-57-28-38-41-89-41-155s13-118 41-156c27-38 64-56 112-56 47 0 84 18 112 56 27 38 41 90 41 156z"/></symbol><symbol id="s"><path transform="matrix(.001 0 0 .001 -.055 .013)" d="M454 464v296h90V0h-90v82c-19-33-43-57-72-72s-63-23-103-23c-66 0-120 26-162 78S55 187 55 273s20 155 62 208c42 52 96 79 162 79 40 0 74-8 103-24s53-40 72-72zM148 273c0-66 13-118 40-156s64-56 112-56 85 18 113 56c27 38 41 90 41 156s-14 117-41 155c-28 38-65 57-113 57s-85-19-112-57-40-89-40-155z"/></symbol><symbol id="t"><path transform="matrix(.001 0 0 .001 0 .092)" d="M254 729h83L83-92H0l254 821z"/></symbol><use xlink:href="#q" transform="matrix(0 -10 -10 0 8.25 163.612)"/><use xlink:href="#r" transform="matrix(0 -10 -10 0 10.19 157.012)"/><use xlink:href="#j" transform="matrix(0 -10 -10 0 8.25 151.022)"/><use xlink:href="#j" transform="matrix(0 -10 -10 0 8.25 144.872)"/><use xlink:href="#s" transform="matrix(0 -10 -10 0 8.25 138.722)"/><use xlink:href="#k" transform="matrix(0 -10 -10 0 8.12 132.922)"/><use xlink:href="#l" transform="matrix(0 -10 -10 0 9.43 128.882)"/><use xlink:href="#i" transform="matrix(0 -10 -10 0 8.12 124.932)"/><use xlink:href="#t" transform="matrix(0 -10 -10 0 9.04 116.102)"/><use xlink:href="#m" transform="matrix(0 -10 -10 0 8.25 112.192)"/><use xlink:href="#n" transform="matrix(0 -10 -10 0 9.43 106.552)"/><clipPath id="u"><path transform="matrix(1 0 0 -1 -66 305)" d="M103.104 38.016h266.112v266.112H103.104z"/></clipPath><g clip-path="url(#u)"><path stroke-width="2.5" stroke-linecap="square" stroke-linejoin="round" fill="none" stroke="teal" d="m49.2 254.888 1.171-53.94 1.289-42.32.331-8.35.412-9.542.225-4.357.951-15.417 1.086-12.378 1.16-11.46.252-1.945.17-1.919.23-1.023.199-2.775 1.93-12.25 1.508-5.448.738-1.878.326-.758.535-1.188.305-.692.877-1.647.951-1.553.658-.857.214-.197.214-.231.331-.33.284-.36.444-.3 1.165-.857 1.086-.723.561-.367.835-.562.304-.034.214-.164.433-.2.113.036.331-.201.187-.034.455-.199.203-.066.631-.266.31-.1 2.353-.63.235-.066.754-.102.942-.164.887-.066.193-.099.32.065.353-.069.835-.062.438-.062.08.058.209-.029.224-.033.423.232.663-.066 1.267-.098.268-.033.144.066.332-.033 1.187.297.09-.065.22.033 1.502.103.209.099.112-.102.23.033.626.066.214.102.545-.068 1.396.098.294.066.214-.032.754-.1.652.1.24.227.177.004.631-.132.327.003.556-.07.208.001h.22l.224.033 2.331-.1.204-.032.331.069.107-.073.203.037 2.305.066.048.102 1.075-.003.647.33.112-.067.214.066.53-.198.219.13.101.005.107.195.209-.132.209.066h2.261l.214-.132.204-.066.112-.066.112.133.22-.067.208.135.198.129.32-.066 1.193.066.203.264h.107l.112-.132.113.066.198-.132.486-.066.06-.066.117.066.08-.132.369.066.059-.065.117.066.225-.063.09.06.429-.13.855-.066.032-.063.113-4.957.074 1.652.631 2.904.781 2.18.187.264.123.001.091.132.22-.198.106.133.113-.132.112.07.209-.336.326-.063.224-.197.401-.461.123-.001.321-.26.268-.07.47-.394h.22l.48.066.108.132.048-.066.337.066 1.07.463.1-.066.44.198.111-.066.097.134.139-.197.064.06.235.069.519-.264.15.066.058-.198.102.065.45-.263.192-.066.454-.33.305-.064.214-.138.636.2.337-.132.31.13.845.134.551.194 1.053-.064.658-.132.53-.067.315-.063.647-.136h.193l.502-.064.155-.067 1.711.062.236.065.09-.065.108.131.203-.131.23-.005.834.003.438-.128.327.063.224-.199.08.132h.23l.31.133.225.062.123.073.513-.202.428.132.439-.065.08-.066h.235l.31.065.22.068.315-.136.422.136.861.003.118-.205.193.268.443-.198.091.198.225.066.31.13.45-.195.218.198.327.132.187-.063.331-.068.113-.067.433.133.32-.132.52-.066.1-.065.327.066.337-.133.107.132.144-.062.07.13.085-.07.22.067.213-.065h.22l.208.132.53-.195.096.064.978-.393.118.132.209-.135.304.198.123-.198.321.264.22.33.213.128.22-.129.444-.198.069.133.337-.264.749.461.117-.131h.316l.304.2.107-.005.236-.063.422-.198.412.066.224-.195.091.06.113-.13.23.001h.417l.235-.132.214.003 1.492-.072.085.135.337-.198.22.131h.085l.102-.131.123.066.197-.063.343.459.112.065.112-.066.086-.264.128.066.198.264.214-.066.326-.069.535-.062.23-.132h.07l.117.132.112-.066.273.195.08.006.193-.135.369.066.246.198.123-.198.112.135.107-.132.54.788.642-.33.256.063.171-.195.535-.064.096-.066h.236l.636-.198.535.065.096-.197.406.134.23-.069.214.066.097-.066.112.066.101-.132.204.198.112-.063.438.525.204-.066.443-.066.091-.132.337.063.102-.192.107.13.224-.067.193.33h.123l.09.131.124-.13.123.064.09-.194.423.393.134.132.823-.326h.278l.278-.267.188-.067h.128l.096.133.439-.196.192.064.45-.198.1.13.108-.196.198.132.224-.196.337.064.096-.133.225.066h.422l.102-.132.102.135.24-.138.113.07.128-.067.187-1.637.203-.52 2.14-13.965.299-1.383.647-1.2.337-9.172.331 5.58.24 3.34.076-.096.31-1.665.112-.45.316 1.064.331.265.455.854.262.704.112-.005.738 1.366.144-.012 1.268 1.641.529.194.331-.038.134.005.284-.31.107-.094.262-.07.064-.325.096-2.061.086.279.181-.225.08.007.305-.748.53-.78 1.294-5.62 1.176-5.827.252-.668.508-1.734.224-.522h.123l.214-.489.3-.464.133-.037.16-.187.31-.118.423-.404.123.076.423-.524.326-.37.32-.451.321-.717 1.803-2.515.32.064.134-.05.107-.2.214-.014.192-.077.23-.091.353.06.118-.063.059.114.748-.535.321.38.23-.03.14-.074.17-.347.193-.086 1.09-.619.215-.289.246-.139.176-.116 1.289-.9.117.141.214-.149.096.139.856-.187.112-.125.14.109.08-.097.625-.066.236-.216.144.087.492-.431.224-.087.097-.32h.326l.123-.438.085.09.118-.115.203.388.102.27.144-.026.423-.554.283.268.118-.078.224.05.423-.214.326.192.09-.086.193.153.658.017.428.253.305.04.24.074.535-.13.096.157.225.01.192.152.476-.04.091-.173.107.182.107-.087.519.35.315-.143.22.035.117.034.209-.087.096-.078.128.06.091-.173.214.09.433.22.102-.207.112.094.235-.208.086-.087.337.246.198-.117.422.008.428-.14.118.114.203-.178.625-.057.102.095.342-.208.348-.072.224.212.091-.06.102-.383.112.148.118-.034.267.582.433-.258.434.163.117-.348.102.087.224-.095.327-.022.176.143.123-.268.433.2.198.321.134.06.32-.358.402.411.449-.155.192-.26.23.237.112-.276.102.238.235-.147.642.434.118-.33.267.084.118.06.096-.178.246.053.208-.035.37.489.347 2.35.422 2.036.722 1.604.327.607 1.08 2.51.957 2.924 1.224 4.766.295.98 1.09 5.167 1.06 6.167.673 4.154 2.813 16.334.155.305.668 3.455 1.337 6.356.203.576.465.901.968.656.113.036.342-.326.342-.514.604-1.758.337-1.578.337-1.337.214-1.184 1.273-6.735.427-2.222.182-.555.24-.663.338-.433.508-.509.059.01.07-.197.058.075.652-.448.102.07.101-.12.113.07.214-.222.952-.417.106-.142.134.113.193-.177.32-.117.118-.22.22.305.09-.063.214.034.193-.027.144.085 2.235.681.123.17.631-.082.102.16.326-.236.642-.277.117-.159.102.061 1.224-1.045.295-.404.406-.204.214.011.048-.114.064-1.92.31.75.45.422.732.827.112-.003.15.131.075-.128.198.066.123-.003.08-.13.107.126.118-.135.197-.006.434-.151 1.294-.093.203.044.118-.078.085.12.123-.153.251.11.06-.15.235.044.106-.08.54.472.53.002.31.237.112-.154.113.114.31-.173.117.06.091-.082.118.11.519-.25 1.085.037.332.138.192-.094.45.042.203.026.32.074.129-.092.08.13.112-.03.107.117.24-.028.503-.151.118.193.198-.094.337-.238.09.131.215-.022 1.818-.257.15-.139.064.133.219-.144.187.131.123.247.423-.162.123.065.25-.142.167-.07.117-.05.097.107.106-.123.118.131.235-.073.182.123.428.123.332-.081.759-.013.101-.145.113.137.203-.069.433.516.53-.128.09-.08.129.077.112-.073.144.065.065-.13.112.138.112-.139.091.205.225-.205.187.069.235.328.412-.07.123-.122.32.139.113-.066.192.2.332-.192.16.058.172-.123.106.065.321-.123.203.004.332-.004.102.213.117-.082.204.27.545.463.192-.056.214-.005.872.024.86-.058.354-.139.583.525.871-.263.113.142.203-.065.214-.003.214-.008.743-.005.23-.06.545.073.129.115.07-.197.09.066.235.069.54.529.091-.147.433-.058.455-.208.09.135h.22l.08.13.257-.138h.374l.24.193.102-.067.118-.331.08.254.433.328.332-.14"/></g><clipPath id="v"><path transform="matrix(1 0 0 -1 -66 305)" d="M103.104 38.016h266.112v266.112H103.104z"/></clipPath><g clip-path="url(#v)"><path stroke-width="2.5" stroke-dasharray="9.25,4" stroke-linejoin="round" fill="none" stroke="red" d="M49.2 57.869h128.021l.107-43.39h46.18l.246 43.39h67.366"/></g><path stroke-width=".8" stroke-linecap="square" stroke-miterlimit="10" fill="none" stroke="#000" d="M37.104 266.984V.872M303.216 266.984V.872M37.104 266.984h266.112M37.104.872h266.112"/><path d="M44.104 38.216h128.844c1.333 0 2-.667 2-2V7.872c0-1.333-.667-2-2-2H44.104c-1.333 0-2 .667-2 2v28.344c0 1.333.667 2 2 2z" fill="#fff" fill-opacity=".8"/><path stroke-miterlimit="10" fill="none" stroke="#d5d6d5" stroke-opacity=".8" d="M44.104 38.216h128.844c1.333 0 2-.667 2-2V7.872c0-1.333-.667-2-2-2H44.104c-1.333 0-2 .667-2 2v28.344c0 1.333.667 2 2 2z"/><path stroke-width="2.5" stroke-linecap="square" stroke-linejoin="round" fill="none" stroke="teal" d="M46.104 13.966h20"/><symbol id="w"><path transform="matrix(.001 0 0 .001 -.056 .013)" d="M644 673V569c-34 30-69 53-107 69-38 15-77 23-119 23-84 0-148-26-192-77s-66-124-66-220 22-170 66-221 108-76 192-76c42 0 81 7 119 23 38 15 73 38 107 69V56c-35-24-72-41-110-52s-79-17-122-17C302-13 215 20 151 87S56 246 56 364c0 117 31 209 95 277 64 67 151 101 261 101 44 0 85-6 123-17 38-12 75-29 109-52z"/></symbol><symbol id="x"><path transform="matrix(.001 0 0 .001 -.085 .013)" d="M85 216v331h90V219c0-52 10-90 30-116s50-39 91-39c48 0 87 15 115 46s42 73 42 127v310h90V0h-90v84c-22-34-48-58-76-74-29-15-62-23-100-23-63 0-111 19-143 58-33 38-49 95-49 171zm226 344z"/></symbol><symbol id="y"><path transform="translate(-.091) scale(.001)" d="M411 463c-10 6-21 10-33 13-12 2-25 4-39 4-51 0-90-17-117-50-28-33-41-80-41-142V0H91v547h90v-85c18 33 43 58 73 74s67 24 111 24c6 0 13-1 21-1 7-1 15-2 25-4v-92z"/></symbol><symbol id="z"><path transform="translate(-.091) scale(.001)" d="M549 330V0h-90v327c0 52-11 90-31 116s-50 39-90 39c-49 0-87-16-115-47s-42-73-42-126V0H91v547h90v-85c21 32 46 57 76 73 29 16 63 25 101 25 62 0 110-20 142-59s49-96 49-171z"/></symbol><symbol id="A"><path transform="translate(-.027) scale(.001)" d="M183 702V547h185v-70H183V180c0-45 6-74 18-86 12-13 37-19 75-19h92V0h-92c-70 0-118 13-144 39s-39 73-39 141v297H27v70h66v155h90z"/></symbol><symbol id="B"><path transform="matrix(.001 0 0 .001 -.086 .131)" d="M310 759c-44-76-76-150-97-223-22-73-32-147-32-222 0-76 10-150 32-223 21-74 53-147 97-222h-78C183-54 146 20 122 94S86 241 86 314c0 72 12 145 36 219s60 149 110 226h78z"/></symbol><symbol id="C"><path transform="matrix(.001 0 0 .001 -.056 .013)" d="M394 662c-72 0-129-27-171-80-42-54-63-126-63-218s21-165 63-218c42-54 99-80 171-80 71 0 128 26 170 80 42 53 63 126 63 218s-21 164-63 218c-42 53-99 80-170 80zm0 80c102 0 183-35 245-103 61-68 92-160 92-275 0-116-31-207-92-275C577 21 496-13 394-13 291-13 209 21 148 89c-62 68-92 159-92 275 0 115 30 207 92 275 61 68 143 103 246 103z"/></symbol><symbol id="D"><path transform="matrix(.001 0 0 .001 -.08 .131)" d="M80 759h78c48-77 85-152 109-226s37-147 37-219c0-73-13-146-37-220S206-54 158-131H80c43 75 75 148 97 222 21 73 32 147 32 223 0 75-11 149-32 222-22 73-54 147-97 223z"/></symbol><use xlink:href="#w" transform="matrix(10 0 0 -10 74.664 17.596)"/><use xlink:href="#x" transform="matrix(10 0 0 -10 81.934 17.596)"/><use xlink:href="#y" transform="matrix(10 0 0 -10 88.334 17.466)"/><use xlink:href="#y" transform="matrix(10 0 0 -10 92.272 17.466)"/><use xlink:href="#j" transform="matrix(10 0 0 -10 95.803 17.596)"/><use xlink:href="#z" transform="matrix(10 0 0 -10 102.313 17.466)"/><use xlink:href="#A" transform="matrix(10 0 0 -10 108.013 17.466)"/><use xlink:href="#k" transform="matrix(10 0 0 -10 111.663 17.466)"/><use xlink:href="#m" transform="matrix(10 0 0 -10 115.383 17.596)"/><use xlink:href="#r" transform="matrix(10 0 0 -10 120.963 19.536)"/><use xlink:href="#j" transform="matrix(10 0 0 -10 126.953 17.596)"/><use xlink:href="#j" transform="matrix(10 0 0 -10 133.103 17.596)"/><use xlink:href="#s" transform="matrix(10 0 0 -10 139.253 17.596)"/><use xlink:href="#k" transform="matrix(10 0 0 -10 145.053 17.466)"/><use xlink:href="#B" transform="matrix(10 0 0 -10 149.093 18.776)"/><use xlink:href="#C" transform="matrix(10 0 0 -10 152.693 17.596)"/><use xlink:href="#q" transform="matrix(10 0 0 -10 160.663 17.596)"/><use xlink:href="#D" transform="matrix(10 0 0 -10 167.153 18.776)"/><path stroke-width="2.5" stroke-dasharray="9.25,4" stroke-linejoin="round" fill="none" stroke="red" d="M46.104 28.638h20"/><symbol id="E"><path transform="translate(-.098) scale(.001)" d="M197 648V81h119c100 0 174 22 221 68 46 46 70 118 70 216s-24 169-70 215c-47 45-121 68-221 68H197zm-99 81h203c141 0 245-30 311-88 66-59 99-151 99-276 0-126-34-218-100-277S441 0 301 0H98v729z"/></symbol><use xlink:href="#E" transform="matrix(10 0 0 -10 75.084 32.138)"/><use xlink:href="#j" transform="matrix(10 0 0 -10 82.354 32.268)"/><use xlink:href="#m" transform="matrix(10 0 0 -10 88.494 32.268)"/><use xlink:href="#h" transform="matrix(10 0 0 -10 94.104 32.138)"/><use xlink:href="#y" transform="matrix(10 0 0 -10 96.854 32.138)"/><use xlink:href="#j" transform="matrix(10 0 0 -10 100.385 32.268)"/><use xlink:href="#s" transform="matrix(10 0 0 -10 106.535 32.268)"/><use xlink:href="#k" transform="matrix(10 0 0 -10 112.335 32.138)"/><use xlink:href="#m" transform="matrix(10 0 0 -10 116.055 32.268)"/><use xlink:href="#r" transform="matrix(10 0 0 -10 121.635 34.208)"/><use xlink:href="#j" transform="matrix(10 0 0 -10 127.625 32.268)"/><use xlink:href="#j" transform="matrix(10 0 0 -10 133.775 32.268)"/><use xlink:href="#s" transform="matrix(10 0 0 -10 139.925 32.268)"/><use xlink:href="#k" transform="matrix(10 0 0 -10 145.725 32.138)"/><use xlink:href="#B" transform="matrix(10 0 0 -10 149.765 33.448)"/><use xlink:href="#C" transform="matrix(10 0 0 -10 153.365 32.268)"/><use xlink:href="#q" transform="matrix(10 0 0 -10 161.335 32.268)"/><use xlink:href="#D" transform="matrix(10 0 0 -10 167.825 33.448)"/></g></svg>