<svg xmlns="http://www.w3.org/2000/svg" xmlns:xlink="http://www.w3.org/1999/xlink" width="614.4" height="460.8" viewBox="0 0 460.8 345.6"><path d="M0 345.6h460.8V0H0z" fill="#fff"/><path d="M103.104 307.584h266.112V41.472H103.104z" fill="#fff"/><path stroke-width=".8" stroke-linejoin="round" fill="none" stroke="#000" d="M113.154 307.584v3.5"/><symbol id="a"><path transform="matrix(.001 0 0 .001 -.066 .013)" d="M318 664c-51 0-89-25-115-75s-38-125-38-225 12-175 38-225 64-75 115-75 89 25 115 75c25 50 38 125 38 225s-13 175-38 225c-26 50-64 75-115 75zm0 78c81 0 143-33 187-97 43-65 65-159 65-281 0-123-22-217-65-281-44-64-106-96-188-96S173 19 130 83 66 241 66 364c0 122 21 216 64 281 43 64 106 97 188 97z"/></symbol><use xlink:href="#a" transform="matrix(10 0 0 -10 110.634 322.308)"/><path stroke-width=".8" stroke-linejoin="round" fill="none" stroke="#000" d="M177.296 307.584v3.5"/><symbol id="b"><path transform="translate(-.11) scale(.001)" d="M124 83h161v556l-175-35v90l174 35h99V83h161V0H124v83z"/></symbol><use xlink:href="#b" transform="matrix(10 0 0 -10 172.037 322.178)"/><use xlink:href="#a" transform="matrix(10 0 0 -10 177.957 322.308)"/><path stroke-width=".8" stroke-linejoin="round" fill="none" stroke="#000" d="M241.439 307.584v3.5"/><symbol id="c"><path transform="translate(-.073) scale(.001)" d="M192 83h344V0H73v83c37 38 88 90 153 156 64 65 105 107 122 126 32 35 54 65 66 90 12 24 19 49 19 73 0 38-14 70-41 94s-62 37-106 37c-31 0-64-6-98-16-34-11-71-27-110-49v100c40 16 77 28 111 36s66 12 95 12c75 0 135-19 180-57s68-88 68-151c0-30-6-59-17-85-11-27-31-59-61-95-8-10-34-37-78-82S271 164 192 83z"/></symbol><use xlink:href="#c" transform="matrix(10 0 0 -10 235.81 322.178)"/><use xlink:href="#a" transform="matrix(10 0 0 -10 242.1 322.308)"/><path stroke-width=".8" stroke-linejoin="round" fill="none" stroke="#000" d="M305.581 307.584v3.5"/><symbol id="d"><path transform="matrix(.001 0 0 .001 -.076 .013)" d="M406 393c47-10 84-31 110-63s40-72 40-118c0-72-25-128-74-167-50-39-120-58-211-58-31 0-63 3-95 9-32 5-66 14-100 26v95c27-16 57-28 90-36 32-8 66-12 102-12 62 0 109 12 141 36s49 60 49 107c0 42-15 76-45 100s-72 37-126 37h-85v81h89c48 0 85 9 111 29 26 19 39 47 39 84s-14 66-40 86c-27 20-65 30-114 30-27 0-56-3-87-9s-65-15-102-27v88c37 10 72 18 105 23 32 5 63 8 93 8 74 0 133-17 177-51s66-80 66-138c0-40-12-74-35-102s-56-48-98-58z"/></symbol><use xlink:href="#d" transform="matrix(10 0 0 -10 299.982 322.308)"/><use xlink:href="#a" transform="matrix(10 0 0 -10 306.242 322.308)"/><symbol id="e"><path transform="translate(.002) scale(.001)" d="M-2 729h616v-83H355V0h-99v646H-2v83z"/></symbol><symbol id="f"><path transform="translate(-.094) scale(.001)" d="M94 547h90V0H94v547zm0 213h90V646H94v114z"/></symbol><symbol id="g"><path transform="translate(-.091) scale(.001)" d="M520 442c22 40 49 69 80 89 31 19 68 29 111 29 56 0 100-20 131-60s47-97 47-170V0h-90v327c0 52-10 91-28 117-19 25-47 38-85 38-47 0-84-16-111-47s-40-73-40-126V0h-90v327c0 52-10 91-28 117-19 25-48 38-86 38-46 0-83-16-110-47s-40-73-40-126V0H91v547h90v-85c20 33 45 58 74 74 28 16 62 24 102 24s73-10 101-30 48-50 62-88z"/></symbol><symbol id="h"><path transform="matrix(.001 0 0 .001 -.055 .013)" d="M562 296v-44H149c4-62 22-110 56-142 33-32 79-48 139-48 34 0 68 4 100 12s65 21 97 39V28c-32-14-65-25-99-31s-69-10-103-10c-88 0-157 25-208 75S55 181 55 268c0 89 24 160 72 213 48 52 114 79 196 79 74 0 132-24 175-71 42-48 64-112 64-193zm-90 26c-1 49-15 88-41 118-27 29-63 44-107 44-50 0-90-15-120-43s-48-68-52-119h320z"/></symbol><symbol id="j"><path transform="matrix(.001 0 0 .001 -.086 .131)" d="M86 760h207v-70H176V-61h117v-70H86v891z"/></symbol><symbol id="k"><path transform="matrix(.001 0 0 .001 -.054 .013)" d="M443 531v-85c-26 12-52 22-79 29-28 6-56 10-85 10-45 0-79-7-101-21s-33-34-33-61c0-21 8-37 24-49s48-24 96-34l31-7c64-14 109-34 136-58 26-25 40-60 40-104 0-51-20-91-60-120-40-30-96-44-166-44-30 0-60 3-92 8S89 8 54 20v93c33-18 66-31 98-39 32-9 64-13 96-13 42 0 75 7 98 21 22 14 34 35 34 62 0 24-9 43-25 56s-52 26-108 38l-31 7c-56 12-97 30-121 54-25 24-37 57-37 100 0 51 18 91 54 119s88 42 156 42c33 0 64-3 94-8 29-5 56-12 81-21z"/></symbol><symbol id="l"><path transform="matrix(.001 0 0 .001 -.097 .131)" d="M304 760v-891H97v70h117v751H97v70h207z"/></symbol><use xlink:href="#e" transform="matrix(10 0 0 -10 215.757 335.85)"/><use xlink:href="#f" transform="matrix(10 0 0 -10 222.53 335.85)"/><use xlink:href="#g" transform="matrix(10 0 0 -10 225.28 335.85)"/><use xlink:href="#h" transform="matrix(10 0 0 -10 234.66 335.98)"/><use xlink:href="#i" transform="matrix(10 0 0 -10 240.26 335.85)"/><use xlink:href="#j" transform="matrix(10 0 0 -10 244.3 337.16)"/><use xlink:href="#k" transform="matrix(10 0 0 -10 247.88 335.98)"/><use xlink:href="#l" transform="matrix(10 0 0 -10 253.52 337.16)"/><path stroke-width=".8" stroke-linejoin="round" fill="none" stroke="#000" d="M103.104 279.972h-3.5"/><symbol id="m"><path transform="matrix(.001 0 0 .001 -.077 .013)" d="M108 729h387v-83H198V467c14 5 29 9 43 11s29 4 43 4c81 0 145-23 193-67 48-45 72-105 72-181 0-79-25-140-74-183S357-13 269-13c-31 0-62 3-94 7-32 5-64 12-98 23v99c29-16 59-28 91-36 31-8 64-11 99-11 56 0 101 14 134 44 32 30 49 70 49 121 0 50-17 90-49 120-33 30-78 45-134 45-26 0-53-3-79-9s-53-15-80-27v366z"/></symbol><use xlink:href="#c" transform="matrix(10 0 0 -10 84.115 283.77)"/><use xlink:href="#m" transform="matrix(10 0 0 -10 90.515 283.9)"/><path stroke-width=".8" stroke-linejoin="round" fill="none" stroke="#000" d="M103.104 245.797h-3.5"/><use xlink:href="#m" transform="matrix(10 0 0 -10 84.155 249.724)"/><use xlink:href="#a" transform="matrix(10 0 0 -10 90.405 249.724)"/><path stroke-width=".8" stroke-linejoin="round" fill="none" stroke="#000" d="M103.104 211.621h-3.5"/><symbol id="n"><path transform="translate(-.082) scale(.001)" d="M82 729h469v-42L286 0H183l249 646H82v83z"/></symbol><use xlink:href="#n" transform="matrix(10 0 0 -10 84.205 215.418)"/><use xlink:href="#m" transform="matrix(10 0 0 -10 90.515 215.548)"/><path stroke-width=".8" stroke-linejoin="round" fill="none" stroke="#000" d="M103.104 177.446h-3.5"/><use xlink:href="#b" transform="matrix(10 0 0 -10 78.126 181.242)"/><use xlink:href="#a" transform="matrix(10 0 0 -10 84.046 181.372)"/><use xlink:href="#a" transform="matrix(10 0 0 -10 90.406 181.372)"/><path stroke-width=".8" stroke-linejoin="round" fill="none" stroke="#000" d="M103.104 143.27h-3.5"/><use xlink:href="#b" transform="matrix(10 0 0 -10 78.126 147.067)"/><use xlink:href="#c" transform="matrix(10 0 0 -10 84.116 147.067)"/><use xlink:href="#m" transform="matrix(10 0 0 -10 90.516 147.197)"/><path stroke-width=".8" stroke-linejoin="round" fill="none" stroke="#000" d="M103.104 109.094h-3.5"/><use xlink:href="#b" transform="matrix(10 0 0 -10 78.126 112.891)"/><use xlink:href="#m" transform="matrix(10 0 0 -10 84.156 113.021)"/><use xlink:href="#a" transform="matrix(10 0 0 -10 90.406 113.021)"/><path stroke-width=".8" stroke-linejoin="round" fill="none" stroke="#000" d="M103.104 74.919h-3.5"/><use xlink:href="#b" transform="matrix(10 0 0 -10 78.126 78.716)"/><use xlink:href="#n" transform="matrix(10 0 0 -10 84.206 78.716)"/><use xlink:href="#m" transform="matrix(10 0 0 -10 90.516 78.846)"/><symbol id="o"><path transform="translate(-.098) scale(.001)" d="M197 648V81h119c100 0 174 22 221 68 46 46 70 118 70 216s-24 169-70 215c-47 45-121 68-221 68H197zm-99 81h203c141 0 245-30 311-88 66-59 99-151 99-276 0-126-34-218-100-277S441 0 301 0H98v729z"/></symbol><symbol id="p"><path transform="translate(-.027) scale(.001)" d="M183 702V547h185v-70H183V180c0-45 6-74 18-86 12-13 37-19 75-19h92V0h-92c-70 0-118 13-144 39s-39 73-39 141v297H27v70h66v155h90z"/></symbol><symbol id="q"><path transform="matrix(.001 0 0 .001 -.06 .013)" d="M343 275c-73 0-123-9-151-25-28-17-42-45-42-85 0-32 10-58 31-76 21-19 50-28 86-28 50 0 90 17 120 53 30 35 45 82 45 141v20h-89zm179 37V0h-90v83c-21-34-47-58-77-73s-68-23-112-23c-56 0-101 15-134 46s-49 73-49 126c0 61 20 107 62 139 41 31 102 47 184 47h126v9c0 41-14 73-41 96-27 22-65 34-114 34-32 0-62-4-92-12s-58-19-85-33v83c32 12 64 22 95 28s61 10 91 10c79 0 138-21 177-62s59-103 59-186z"/></symbol><symbol id="r"><path transform="translate(-.091) scale(.001)" d="M549 330V0h-90v327c0 52-11 90-31 116s-50 39-90 39c-49 0-87-16-115-47s-42-73-42-126V0H91v547h90v-85c21 32 46 57 76 73 29 16 63 25 101 25 62 0 110-20 142-59s49-96 49-171z"/></symbol><symbol id="s"><path transform="matrix(.001 0 0 .001 -.055 .013)" d="M488 526v-84c-26 14-51 24-77 31s-51 11-77 11c-58 0-104-19-136-56s-48-89-48-155c0-67 16-119 48-156s78-55 136-55c26 0 51 3 77 10s51 18 77 32V21C462 9 436 0 410-5c-27-5-56-8-86-8-82 0-148 25-196 77-49 51-73 121-73 209 0 89 24 159 73 210s116 77 202 77c28 0 55-3 81-9s52-14 77-25z"/></symbol><use xlink:href="#o" transform="matrix(0 -10 -10 0 70.948 205.798)"/><use xlink:href="#f" transform="matrix(0 -10 -10 0 70.948 198.138)"/><use xlink:href="#k" transform="matrix(0 -10 -10 0 71.078 195.758)"/><use xlink:href="#p" transform="matrix(0 -10 -10 0 70.948 190.818)"/><use xlink:href="#q" transform="matrix(0 -10 -10 0 71.078 186.568)"/><use xlink:href="#r" transform="matrix(0 -10 -10 0 70.948 180.128)"/><use xlink:href="#s" transform="matrix(0 -10 -10 0 71.078 174.148)"/><use xlink:href="#h" transform="matrix(0 -10 -10 0 71.078 168.648)"/><use xlink:href="#i" transform="matrix(0 -10 -10 0 70.948 163.048)"/><use xlink:href="#j" transform="matrix(0 -10 -10 0 72.258 159.008)"/><use xlink:href="#g" transform="matrix(0 -10 -10 0 70.948 155.058)"/><use xlink:href="#l" transform="matrix(0 -10 -10 0 72.258 145.258)"/><clipPath id="t"><path transform="matrix(1 0 0 -1 0 345.6)" d="M103.104 38.016h266.112v266.112H103.104z"/></clipPath><g clip-path="url(#t)"><path stroke-width="2.5" stroke-linecap="square" stroke-linejoin="round" fill="none" stroke="#00f" d="m115.2 53.568.674.334.198.163 1.655 1.425.34.35.302.328.417.527.416.454.103.056.103.255.385.375 2.424 3.295.27.491.237.258 2.322 3.535.372.741.147.074.764 1.37.134.076.231.55.167.076 1.706 2.89.052.215.154.078.263.43 2.488 4.268.141.08.193.578 2.444 4.183.102.221.206.08.198.583.135.08 1.014 1.912.134.081 29.884 51.454.2.22.057.356.128.082 39.146 66.877.16.083.212.574.642.956.147.22.103.355.147.082.238.574.134.082.623 1.231.14.082.764 1.314 1.033 1.888 2.553 4.24.211.219.193.438.14.218.225.575.533.739.359.793.122.082.263.438.667 1.23.141.083.276.574.211.301 1.303 2.325.128.082.423.793.379.52.327.655.648 1.093.493 1.012.135.082 1.43 2.405.257.438 2.88 4.946.083.082.11.355.16.082.462.875.532.875.244.573.147.082.25.574.334.437.314.656 1.533 2.625.116.082.263.437.385.656.577 1.012.32.519 4.029 6.737 1.058 1.783.462.668 1.212 2.001.655.888.378.443.436.663 1.225 1.976.526.654.456.651 4.83 7.63.442.617.642 1.022.461.608.353.605.616 1 1.405 2.167.391.582.539.96 1.007 1.886 3.027 5.309 3.958 4.789.135.012.757.82.288.265 1.54 1.499 1.892 1.526.699.481 3.066 1.88.847.315.128-.048.41.19.809.161.333-.016 1.918.122 1.026-.19 1.732-.4.314-.167.392-.147.52-.215 1.667-.82 1.783-1.046 3.791-2.598.32-.291 2.303-1.768.276-.208 3.83-3.213.256-.3.654-.463.404-.419.09-.023.404-.425.135-.022.11-.205.288-.228.224-.138.16-.116.219-.33 2.322-2.3.641-.595.872-.976.276-.448.276-.192.25-.416 2.123-2.559.173-.218 1.027-1.365.276-.35.295-.351.327-.534.462-.66.102-.061.11-.303.14-.062.635-1.044.334-.374.686-1.133.141-.068 1.161-1.86.238-.268.352-.715.16-.073 1.406-2.326.128-.077.872-1.55.314-.283.225-.412.494-.952.128-.08.128-.334.193-.08 4.676-7.74.904-1.605.5-.714.398-.633.263-.553.173-.081.321-.765.135-.08.532-.976.122-.08.52-.846 2.963-4.991.096-.08.263-.422.25-.424.263-.555.5-.715.29-.556 15.002-24.822.238-.43.218-.214.166-.429 1.033-1.717.507-.995.263-.294 2.18-3.653.398-.78.135-.08.096-.35.141-.08 1.168-1.935.391-.78.398-.509.48-.995.135-.08.398-.78.225-.43.147-.08.75-1.29.398-.78.135-.08 1.033-1.854.115-.08.494-.86.802-1.29.103-.35.153-.08.379-.646.289-.566.211-.295 1.283-2.154.244-.431.564-.998 1.033-1.725.372-.647.616-.942.25-.215.122-.432.276-.433.25-.567.256-.296.263-.431.77-1.292"/></g><clipPath id="u"><path transform="matrix(1 0 0 -1 0 345.6)" d="M103.104 38.016h266.112v266.112H103.104z"/></clipPath><g clip-path="url(#u)"><path d="m267.014 298.488 6-6m-6 0 6 6" fill="orange"/><path stroke-width="2.5" stroke-linejoin="round" fill="none" stroke="orange" d="m267.014 298.488 6-6m-6 0 6 6"/></g><path stroke-width=".8" stroke-linecap="square" stroke-miterlimit="10" fill="none" stroke="#000" d="M103.104 307.584V41.472M369.216 307.584V41.472M103.104 307.584h266.112M103.104 41.472h266.112"/><path d="M184.966 78.816h177.25c1.333 0 2-.667 2-2V48.472c0-1.333-.667-2-2-2h-177.25c-1.333 0-2 .667-2 2v28.344c0 1.333.667 2 2 2z" fill="#fff" fill-opacity=".8"/><path stroke-miterlimit="10" fill="none" stroke="#d5d6d5" stroke-opacity=".8" d="M184.966 78.816h177.25c1.333 0 2-.667 2-2V48.472c0-1.333-.667-2-2-2h-177.25c-1.333 0-2 .667-2 2v28.344c0 1.333.667 2 2 2z"/><path stroke-width="2.5" stroke-linecap="square" stroke-linejoin="round" fill="none" stroke="#00f" d="M186.966 54.566h20"/><symbol id="v"><path transform="matrix(.001 0 0 .001 -.091 .013)" d="M487 273c0 66-14 117-41 155-28 38-65 57-112 57-48 0-85-19-112-57-28-38-41-89-41-155s13-118 41-156c27-38 64-56 112-56 47 0 84 18 112 56 27 38 41 90 41 156zM181 464c18 32 42 56 71 72s64 24 104 24c66 0 120-27 162-79 41-53 62-122 62-208s-21-156-62-208c-42-52-96-78-162-78-40 0-75 8-104 23s-53 39-71 72V0H91v760h90V464z"/></symbol><symbol id="w"><path transform="translate(-.042) scale(.001)" d="M42 547h90l112-427 112 427h106l112-427 112 427h90L633 0H527L409 448 291 0H185L42 547z"/></symbol><symbol id="x"><path transform="matrix(.001 0 0 .001 -.056 .013)" d="M394 662c-72 0-129-27-171-80-42-54-63-126-63-218s21-165 63-218c42-54 99-80 171-80 71 0 128 26 170 80 42 53 63 126 63 218s-21 164-63 218c-42 53-99 80-170 80zm0 80c102 0 183-35 245-103 61-68 92-160 92-275 0-116-31-207-92-275C577 21 496-13 394-13 291-13 209 21 148 89c-62 68-92 159-92 275 0 115 30 207 92 275 61 68 143 103 246 103z"/></symbol><symbol id="y"><path transform="matrix(.001 0 0 .001 -.066 .013)" d="M535 705v-96c-38 18-73 31-106 40-34 8-66 13-96 13-54 0-96-11-125-31-29-21-43-51-43-89 0-32 9-57 29-73 19-17 56-30 110-40l60-12c73-14 127-39 162-74 35-36 53-83 53-142 0-71-24-124-71-160-48-36-117-54-208-54-35 0-72 4-111 11S110 16 69 32v102c40-23 79-40 117-51 38-12 76-17 114-17 56 0 99 11 130 33 30 22 46 53 46 95 0 36-11 64-33 84s-58 35-108 45l-60 12c-74 14-127 37-160 69-33 31-49 74-49 130 0 64 22 115 68 152 45 37 108 56 188 56 34 0 68-3 104-9 35-6 71-16 109-28z"/></symbol><symbol id="z"><path transform="matrix(.001 0 0 .001 -.055 .013)" d="M454 464v296h90V0h-90v82c-19-33-43-57-72-72s-63-23-103-23c-66 0-120 26-162 78S55 187 55 273s20 155 62 208c42 52 96 79 162 79 40 0 74-8 103-24s53-40 72-72zM148 273c0-66 13-118 40-156s64-56 112-56 85 18 113 56c27 38 41 90 41 156s-14 117-41 155c-28 38-65 57-113 57s-85-19-112-57-40-89-40-155z"/></symbol><use xlink:href="#o" transform="matrix(10 0 0 -10 215.946 58.066)"/><use xlink:href="#f" transform="matrix(10 0 0 -10 223.606 58.066)"/><use xlink:href="#k" transform="matrix(10 0 0 -10 225.986 58.196)"/><use xlink:href="#p" transform="matrix(10 0 0 -10 230.926 58.066)"/><use xlink:href="#q" transform="matrix(10 0 0 -10 235.176 58.196)"/><use xlink:href="#r" transform="matrix(10 0 0 -10 241.616 58.066)"/><use xlink:href="#s" transform="matrix(10 0 0 -10 247.596 58.196)"/><use xlink:href="#h" transform="matrix(10 0 0 -10 253.096 58.196)"/><use xlink:href="#i" transform="matrix(10 0 0 -10 258.696 58.066)"/><use xlink:href="#v" transform="matrix(10 0 0 -10 262.786 58.196)"/><use xlink:href="#h" transform="matrix(10 0 0 -10 268.776 58.196)"/><use xlink:href="#p" transform="matrix(10 0 0 -10 274.646 58.066)"/><use xlink:href="#w" transform="matrix(10 0 0 -10 278.716 58.066)"/><use xlink:href="#h" transform="matrix(10 0 0 -10 287.026 58.196)"/><use xlink:href="#h" transform="matrix(10 0 0 -10 293.176 58.196)"/><use xlink:href="#r" transform="matrix(10 0 0 -10 299.686 58.066)"/><use xlink:href="#i" transform="matrix(10 0 0 -10 305.116 58.066)"/><use xlink:href="#x" transform="matrix(10 0 0 -10 308.856 58.196)"/><use xlink:href="#y" transform="matrix(10 0 0 -10 316.826 58.196)"/><use xlink:href="#i" transform="matrix(10 0 0 -10 322.516 58.066)"/><use xlink:href="#q" transform="matrix(10 0 0 -10 326.296 58.196)"/><use xlink:href="#r" transform="matrix(10 0 0 -10 332.736 58.066)"/><use xlink:href="#z" transform="matrix(10 0 0 -10 338.716 58.196)"/><use xlink:href="#i" transform="matrix(10 0 0 -10 344.516 58.066)"/><use xlink:href="#e" transform="matrix(10 0 0 -10 347.676 58.066)"/><use xlink:href="#y" transform="matrix(10 0 0 -10 354.466 58.196)"/><path d="m193.966 73.113 6-6m-6 0 6 6" fill="orange"/><path stroke-width="2.5" stroke-linejoin="round" fill="none" stroke="orange" d="m193.966 73.113 6-6m-6 0 6 6"/><symbol id="A"><path transform="translate(-.107) scale(.001)" d="M107 124h103V0H107v124z"/></symbol><symbol id="B"><path transform="matrix(.001 0 0 .001 -.106 -.172)" d="M106 454h626v-82H106v82zm0-199h626v-83H106v83z"/></symbol><symbol id="C"><path transform="matrix(.001 0 0 .001 -.07 .013)" d="M330 404c-44 0-79-16-105-46s-39-72-39-124c0-53 13-95 39-125s61-45 105-45 79 15 105 45 39 72 39 125c0 52-13 94-39 124s-61 46-105 46zm196 309v-90c-25 12-50 21-75 27-26 6-51 9-75 9-66 0-116-22-150-66s-54-111-58-199c19 28 43 50 72 65s61 23 96 23c73 0 131-23 173-67s64-105 64-181c0-75-23-135-67-180S403-13 330-13c-84 0-149 32-193 96-45 64-67 158-67 281 0 115 27 207 82 275 54 68 128 103 220 103 24 0 49-3 75-7 25-5 51-12 79-22z"/></symbol><use xlink:href="#g" transform="matrix(10 0 0 -10 215.876 72.738)"/><use xlink:href="#f" transform="matrix(10 0 0 -10 225.646 72.738)"/><use xlink:href="#r" transform="matrix(10 0 0 -10 228.396 72.738)"/><use xlink:href="#A" transform="matrix(10 0 0 -10 234.896 72.738)"/><use xlink:href="#i" transform="matrix(10 0 0 -10 237.006 72.738)"/><use xlink:href="#z" transform="matrix(10 0 0 -10 240.736 72.868)"/><use xlink:href="#f" transform="matrix(10 0 0 -10 247.476 72.738)"/><use xlink:href="#k" transform="matrix(10 0 0 -10 249.856 72.868)"/><use xlink:href="#p" transform="matrix(10 0 0 -10 254.796 72.738)"/><use xlink:href="#q" transform="matrix(10 0 0 -10 259.046 72.868)"/><use xlink:href="#r" transform="matrix(10 0 0 -10 265.486 72.738)"/><use xlink:href="#s" transform="matrix(10 0 0 -10 271.466 72.868)"/><use xlink:href="#h" transform="matrix(10 0 0 -10 276.966 72.868)"/><use xlink:href="#i" transform="matrix(10 0 0 -10 282.566 72.738)"/><use xlink:href="#B" transform="matrix(10 0 0 -10 286.806 71.018)"/><use xlink:href="#i" transform="matrix(10 0 0 -10 294.126 72.738)"/><use xlink:href="#b" transform="matrix(10 0 0 -10 298.406 72.738)"/><use xlink:href="#d" transform="matrix(10 0 0 -10 304.426 72.868)"/><use xlink:href="#A" transform="matrix(10 0 0 -10 311.096 72.738)"/><use xlink:href="#C" transform="matrix(10 0 0 -10 313.906 72.868)"/><use xlink:href="#m" transform="matrix(10 0 0 -10 320.336 72.868)"/><use xlink:href="#i" transform="matrix(10 0 0 -10 325.926 72.738)"/><use xlink:href="#g" transform="matrix(10 0 0 -10 330.016 72.738)"/></svg>