<svg width="460.80000000000007" height="345.6" xmlns="http://www.w3.org/2000/svg" xmlns:xlink="http://www.w3.org/1999/xlink">

 <symbol id="a">
  <path id="svg_1" d="m0.252,0.677c-0.051,0 -0.089,-0.025 -0.115,-0.075s-0.038,-0.125 -0.038,-0.225s0.012,-0.175 0.038,-0.225s0.064,-0.075 0.115,-0.075s0.089,0.025 0.115,0.075c0.025,0.05 0.038,0.125 0.038,0.225s-0.013,0.175 -0.038,0.225c-0.026,0.05 -0.064,0.075 -0.115,0.075zm0,0.078c0.081,0 0.143,-0.033 0.187,-0.097c0.043,-0.065 0.065,-0.159 0.065,-0.281c0,-0.123 -0.022,-0.217 -0.065,-0.281c-0.044,-0.064 -0.106,-0.096 -0.188,-0.096s-0.144,0.032 -0.187,0.096s-0.064,0.158 -0.064,0.281c0,0.122 0.021,0.216 0.064,0.281c0.043,0.064 0.106,0.097 0.188,0.097z"/>
 </symbol>
 <symbol id="b">
  <path id="svg_2" d="m124,83l161,0l0,556l-175,-35l0,90l174,35l99,0l0,-646l161,0l0,-83l-420,0l0,83z" transform="translate(-.11) scale(.001)"/>
 </symbol>
 <symbol id="c">
  <path id="svg_3" d="m192,83l344,0l0,-83l-463,0l0,83c37,38 88,90 153,156c64,65 105,107 122,126c32,35 54,65 66,90c12,24 19,49 19,73c0,38 -14,70 -41,94s-62,37 -106,37c-31,0 -64,-6 -98,-16c-34,-11 -71,-27 -110,-49l0,100c40,16 77,28 111,36s66,12 95,12c75,0 135,-19 180,-57s68,-88 68,-151c0,-30 -6,-59 -17,-85c-11,-27 -31,-59 -61,-95c-8,-10 -34,-37 -78,-82s-105,-108 -184,-189z" transform="translate(-.073) scale(.001)"/>
 </symbol>
 <symbol id="d">
  <path id="svg_4" d="m0.33,0.406c0.047,-0.01 0.084,-0.031 0.11,-0.063s0.04,-0.072 0.04,-0.118c0,-0.072 -0.025,-0.128 -0.074,-0.167c-0.05,-0.039 -0.12,-0.058 -0.211,-0.058c-0.031,0 -0.063,0.003 -0.095,0.009c-0.032,0.005 -0.066,0.014 -0.1,0.026l0,0.095c0.027,-0.016 0.057,-0.028 0.09,-0.036c0.032,-0.008 0.066,-0.012 0.102,-0.012c0.062,0 0.109,0.012 0.141,0.036s0.049,0.06 0.049,0.107c0,0.042 -0.015,0.076 -0.045,0.1s-0.072,0.037 -0.126,0.037l-0.085,0l0,0.081l0.089,0c0.048,0 0.085,0.009 0.111,0.029c0.026,0.019 0.039,0.047 0.039,0.084s-0.014,0.066 -0.04,0.086c-0.027,0.02 -0.065,0.03 -0.114,0.03c-0.027,0 -0.056,-0.003 -0.087,-0.009s-0.065,-0.015 -0.102,-0.027l0,0.088c0.037,0.01 0.072,0.018 0.105,0.023c0.032,0.005 0.063,0.008 0.093,0.008c0.074,0 0.133,-0.017 0.177,-0.051s0.066,-0.08 0.066,-0.138c0,-0.04 -0.012,-0.074 -0.035,-0.102s-0.056,-0.048 -0.098,-0.058z"/>
 </symbol>
 <symbol id="e">
  <path id="svg_5" d="m-2,729l616,0l0,-83l-259,0l0,-646l-99,0l0,646l-258,0l0,83z" transform="translate(.002) scale(.001)"/>
 </symbol>
 <symbol id="f">
  <path id="svg_6" d="m94,547l90,0l0,-547l-90,0l0,547zm0,213l90,0l0,-114l-90,0l0,114z" transform="translate(-.094) scale(.001)"/>
 </symbol>
 <symbol id="g">
  <path id="svg_7" d="m520,442c22,40 49,69 80,89c31,19 68,29 111,29c56,0 100,-20 131,-60s47,-97 47,-170l0,-330l-90,0l0,327c0,52 -10,91 -28,117c-19,25 -47,38 -85,38c-47,0 -84,-16 -111,-47s-40,-73 -40,-126l0,-309l-90,0l0,327c0,52 -10,91 -28,117c-19,25 -48,38 -86,38c-46,0 -83,-16 -110,-47s-40,-73 -40,-126l0,-309l-90,0l0,547l90,0l0,-85c20,33 45,58 74,74c28,16 62,24 102,24s73,-10 101,-30s48,-50 62,-88z" transform="translate(-.091) scale(.001)"/>
 </symbol>
 <symbol id="h">
  <path id="svg_8" d="m0.507,0.309l0,-0.044l-0.413,0c0.004,-0.062 0.022,-0.11 0.056,-0.142c0.033,-0.032 0.079,-0.048 0.139,-0.048c0.034,0 0.068,0.004 0.1,0.012s0.065,0.021 0.097,0.039l0,-0.085c-0.032,-0.014 -0.065,-0.025 -0.099,-0.031s-0.069,-0.01 -0.103,-0.01c-0.088,0 -0.157,0.025 -0.208,0.075s-0.076,0.119 -0.076,0.206c0,0.089 0.024,0.16 0.072,0.213c0.048,0.052 0.114,0.079 0.196,0.079c0.074,0 0.132,-0.024 0.175,-0.071c0.042,-0.048 0.064,-0.112 0.064,-0.193zm-0.09,0.026c-0.001,0.049 -0.015,0.088 -0.041,0.118c-0.027,0.029 -0.063,0.044 -0.107,0.044c-0.05,0 -0.09,-0.015 -0.12,-0.043s-0.048,-0.068 -0.052,-0.119l0.32,0z"/>
 </symbol>
 <symbol id="j">
  <path id="svg_9" d="m0,0.891l0.207,0l0,-0.07l-0.117,0l0,-0.751l0.117,0l0,-0.07l-0.207,0l0,0.891z"/>
 </symbol>
 <symbol id="k">
  <path id="svg_10" d="m0.389,0.544l0,-0.085c-0.026,0.012 -0.052,0.022 -0.079,0.029c-0.028,0.006 -0.056,0.01 -0.085,0.01c-0.045,0 -0.079,-0.007 -0.101,-0.021s-0.033,-0.034 -0.033,-0.061c0,-0.021 0.008,-0.037 0.024,-0.049s0.048,-0.024 0.096,-0.034l0.031,-0.007c0.064,-0.014 0.109,-0.034 0.136,-0.058c0.026,-0.025 0.04,-0.06 0.04,-0.104c0,-0.051 -0.02,-0.091 -0.06,-0.12c-0.04,-0.03 -0.096,-0.044 -0.166,-0.044c-0.03,0 -0.06,0.003 -0.092,0.008s-0.065,0.013 -0.1,0.025l0,0.093c0.033,-0.018 0.066,-0.031 0.098,-0.039c0.032,-0.009 0.064,-0.013 0.096,-0.013c0.042,0 0.075,0.007 0.098,0.021c0.022,0.014 0.034,0.035 0.034,0.062c0,0.024 -0.009,0.043 -0.025,0.056s-0.052,0.026 -0.108,0.038l-0.031,0.007c-0.056,0.012 -0.097,0.03 -0.121,0.054c-0.025,0.024 -0.037,0.057 -0.037,0.1c0,0.051 0.018,0.091 0.054,0.119s0.088,0.042 0.156,0.042c0.033,0 0.064,-0.003 0.094,-0.008c0.029,-0.005 0.056,-0.012 0.081,-0.021z"/>
 </symbol>
 <symbol id="l">
  <path id="svg_11" d="m0.207,0.891l0,-0.891l-0.207,0l0,0.07l0.117,0l0,0.751l-0.117,0l0,0.07l0.207,0z"/>
 </symbol>
 <symbol id="m">
  <path id="svg_12" d="m0.26,0.417c-0.044,0 -0.079,-0.016 -0.105,-0.046s-0.039,-0.072 -0.039,-0.124c0,-0.053 0.013,-0.095 0.039,-0.125s0.061,-0.045 0.105,-0.045s0.079,0.015 0.105,0.045s0.039,0.072 0.039,0.125c0,0.052 -0.013,0.094 -0.039,0.124s-0.061,0.046 -0.105,0.046zm0.196,0.309l0,-0.09c-0.025,0.012 -0.05,0.021 -0.075,0.027c-0.026,0.006 -0.051,0.009 -0.075,0.009c-0.066,0 -0.116,-0.022 -0.15,-0.066s-0.054,-0.111 -0.058,-0.199c0.019,0.028 0.043,0.05 0.072,0.065s0.061,0.023 0.096,0.023c0.073,0 0.131,-0.023 0.173,-0.067s0.064,-0.105 0.064,-0.181c0,-0.075 -0.023,-0.135 -0.067,-0.18s-0.103,-0.067 -0.176,-0.067c-0.084,0 -0.149,0.032 -0.193,0.096c-0.045,0.064 -0.067,0.158 -0.067,0.281c0,0.115 0.027,0.207 0.082,0.275c0.054,0.068 0.128,0.103 0.22,0.103c0.024,0 0.049,-0.003 0.075,-0.007c0.025,-0.005 0.051,-0.012 0.079,-0.022z"/>
 </symbol>
 <symbol id="n">
  <path id="svg_13" d="m0.25,0.359c-0.047,0 -0.084,-0.013 -0.111,-0.038s-0.04,-0.059 -0.04,-0.103s0.013,-0.079 0.04,-0.104s0.064,-0.037 0.111,-0.037c0.046,0 0.083,0.012 0.11,0.038c0.027,0.025 0.041,0.059 0.041,0.103s-0.014,0.078 -0.04,0.103c-0.027,0.025 -0.064,0.038 -0.111,0.038zm-0.099,0.042c-0.042,0.01 -0.075,0.03 -0.099,0.059s-0.035,0.064 -0.035,0.106c0,0.058 0.02,0.104 0.062,0.138c0.041,0.034 0.098,0.051 0.171,0.051c0.072,0 0.129,-0.017 0.171,-0.051c0.041,-0.034 0.062,-0.08 0.062,-0.138c0,-0.042 -0.012,-0.077 -0.036,-0.106s-0.056,-0.049 -0.098,-0.059c0.047,-0.011 0.084,-0.033 0.111,-0.065c0.026,-0.032 0.04,-0.072 0.04,-0.118c0,-0.071 -0.022,-0.125 -0.065,-0.162c-0.044,-0.038 -0.106,-0.056 -0.186,-0.056s-0.142,0.018 -0.185,0.056c-0.043,0.037 -0.064,0.091 -0.064,0.162c0,0.046 0.013,0.086 0.04,0.118c0.026,0.032 0.063,0.054 0.111,0.065zm-0.036,0.156c0,-0.038 0.011,-0.068 0.035,-0.089s0.057,-0.031 0.1,-0.031c0.042,0 0.075,0.01 0.099,0.031s0.036,0.051 0.036,0.089s-0.012,0.067 -0.036,0.088s-0.057,0.032 -0.099,0.032c-0.043,0 -0.076,-0.011 -0.1,-0.032s-0.035,-0.05 -0.035,-0.088z"/>
 </symbol>
 <symbol id="o">
  <path id="svg_14" d="m378,643l-249,-389l249,0l0,389zm-26,86l124,0l0,-475l104,0l0,-82l-104,0l0,-172l-98,0l0,172l-329,0l0,95l303,462z" transform="translate(-.049) scale(.001)"/>
 </symbol>
 <symbol id="p">
  <path id="svg_15" d="m0.338,0.675c-0.072,0 -0.129,-0.027 -0.171,-0.08c-0.042,-0.054 -0.063,-0.126 -0.063,-0.218s0.021,-0.165 0.063,-0.218c0.042,-0.054 0.099,-0.08 0.171,-0.08c0.071,0 0.128,0.026 0.17,0.08c0.042,0.053 0.063,0.126 0.063,0.218s-0.021,0.164 -0.063,0.218c-0.042,0.053 -0.099,0.08 -0.17,0.08zm0,0.08c0.102,0 0.183,-0.035 0.245,-0.103c0.061,-0.068 0.092,-0.16 0.092,-0.275c0,-0.116 -0.031,-0.207 -0.092,-0.275c-0.062,-0.068 -0.143,-0.102 -0.245,-0.102c-0.103,0 -0.185,0.034 -0.246,0.102c-0.062,0.068 -0.092,0.159 -0.092,0.275c0,0.115 0.03,0.207 0.092,0.275c0.061,0.068 0.143,0.103 0.246,0.103z"/>
 </symbol>
 <symbol id="q">
  <path id="svg_16" d="m411,463c-10,6 -21,10 -33,13c-12,2 -25,4 -39,4c-51,0 -90,-17 -117,-50c-28,-33 -41,-80 -41,-142l0,-288l-90,0l0,547l90,0l0,-85c18,33 43,58 73,74s67,24 111,24c6,0 13,-1 21,-1c7,-1 15,-2 25,-4l0,-92z" transform="translate(-.091) scale(.001)"/>
 </symbol>
 <symbol id="r">
  <path id="svg_17" d="m183,702l0,-155l185,0l0,-70l-185,0l0,-297c0,-45 6,-74 18,-86c12,-13 37,-19 75,-19l92,0l0,-75l-92,0c-70,0 -118,13 -144,39s-39,73 -39,141l0,297l-66,0l0,70l66,0l0,155l90,0z" transform="translate(-.027) scale(.001)"/>
 </symbol>
 <symbol id="s">
  <path id="svg_18" d="m549,330l0,-330l-90,0l0,327c0,52 -11,90 -31,116s-50,39 -90,39c-49,0 -87,-16 -115,-47s-42,-73 -42,-126l0,-309l-90,0l0,547l90,0l0,-85c21,32 46,57 76,73c29,16 63,25 101,25c62,0 110,-20 142,-59s49,-96 49,-171z" transform="translate(-.091) scale(.001)"/>
 </symbol>
 <symbol id="t">
  <path id="svg_19" d="m0.283,0.288c-0.073,0 -0.123,-0.009 -0.151,-0.025c-0.028,-0.017 -0.042,-0.045 -0.042,-0.085c0,-0.032 0.01,-0.058 0.031,-0.076c0.021,-0.019 0.05,-0.028 0.086,-0.028c0.05,0 0.09,0.017 0.12,0.053c0.03,0.035 0.045,0.082 0.045,0.141l0,0.02l-0.089,0zm0.179,0.037l0,-0.312l-0.09,0l0,0.083c-0.021,-0.034 -0.047,-0.058 -0.077,-0.073s-0.068,-0.023 -0.112,-0.023c-0.056,0 -0.101,0.015 -0.134,0.046s-0.049,0.073 -0.049,0.126c0,0.061 0.02,0.107 0.062,0.139c0.041,0.031 0.102,0.047 0.184,0.047l0.126,0l0,0.009c0,0.041 -0.014,0.073 -0.041,0.096c-0.027,0.022 -0.065,0.034 -0.114,0.034c-0.032,0 -0.062,-0.004 -0.092,-0.012s-0.058,-0.019 -0.085,-0.033l0,0.083c0.032,0.012 0.064,0.022 0.095,0.028s0.061,0.01 0.091,0.01c0.079,0 0.138,-0.021 0.177,-0.062s0.059,-0.103 0.059,-0.186z"/>
 </symbol>
 <symbol id="u">
  <path id="svg_20" d="m0.251,0.497c-0.048,0 -0.086,-0.019 -0.114,-0.057s-0.042,-0.089 -0.042,-0.154c0,-0.066 0.013,-0.117 0.041,-0.155s0.066,-0.056 0.115,-0.056c0.048,0 0.086,0.018 0.114,0.056s0.042,0.089 0.042,0.155c0,0.064 -0.014,0.116 -0.042,0.154s-0.066,0.057 -0.114,0.057zm0,0.076c0.078,0 0.139,-0.026 0.184,-0.076c0.044,-0.051 0.067,-0.121 0.067,-0.211s-0.023,-0.16 -0.067,-0.21c-0.045,-0.051 -0.106,-0.076 -0.184,-0.076c-0.079,0 -0.141,0.025 -0.185,0.076c-0.044,0.05 -0.066,0.12 -0.066,0.21s0.022,0.16 0.066,0.211c0.044,0.05 0.106,0.076 0.185,0.076z"/>
 </symbol>
 <symbol id="v">
  <path id="svg_21" d="m0.155,0.247c-0.026,0 -0.048,-0.009 -0.066,-0.027s-0.027,-0.04 -0.027,-0.066s0.009,-0.048 0.027,-0.066s0.04,-0.026 0.066,-0.026s0.048,0.008 0.066,0.026s0.027,0.04 0.027,0.066s-0.009,0.048 -0.027,0.066s-0.04,0.027 -0.066,0.027zm0,0.063c0.02,0 0.04,-0.004 0.06,-0.012c0.019,-0.008 0.036,-0.02 0.05,-0.034c0.014,-0.015 0.025,-0.032 0.033,-0.05c0.008,-0.019 0.012,-0.039 0.012,-0.06c0,-0.044 -0.016,-0.08 -0.046,-0.11s-0.067,-0.044 -0.11,-0.044c-0.044,0 -0.081,0.014 -0.11,0.044c-0.03,0.029 -0.044,0.066 -0.044,0.11c0,0.043 0.015,0.08 0.045,0.11s0.066,0.046 0.11,0.046z"/>
 </symbol>
 <clipPath id="w">
  <path id="svg_22" d="m103.104,307.58401l266.112,0l0,-266.112l-266.112,0l0,266.112z"/>
 </clipPath>
 <clipPath id="x">
  <path id="svg_23" d="m103.104,307.58401l266.112,0l0,-266.112l-266.112,0l0,266.112z"/>
 </clipPath>
 <symbol id="y">
  <path id="svg_24" d="m0.588,0.686l0,-0.104c-0.034,0.03 -0.069,0.053 -0.107,0.069c-0.038,0.015 -0.077,0.023 -0.119,0.023c-0.084,0 -0.148,-0.026 -0.192,-0.077s-0.066,-0.124 -0.066,-0.22s0.022,-0.17 0.066,-0.221s0.108,-0.076 0.192,-0.076c0.042,0 0.081,0.007 0.119,0.023c0.038,0.015 0.073,0.038 0.107,0.069l0,-0.103c-0.035,-0.024 -0.072,-0.041 -0.11,-0.052s-0.079,-0.017 -0.122,-0.017c-0.11,0 -0.197,0.033 -0.261,0.1s-0.095,0.159 -0.095,0.277c0,0.117 0.031,0.209 0.095,0.277c0.064,0.067 0.151,0.101 0.261,0.101c0.044,0 0.085,-0.006 0.123,-0.017c0.038,-0.012 0.075,-0.029 0.109,-0.052z"/>
 </symbol>
 <symbol id="z">
  <path id="svg_25" d="m0,0.229l0,0.331l0.09,0l0,-0.328c0,-0.052 0.01,-0.09 0.03,-0.116s0.05,-0.039 0.091,-0.039c0.048,0 0.087,0.015 0.115,0.046s0.042,0.073 0.042,0.127l0,0.31l0.09,0l0,-0.547l-0.09,0l0,0.084c-0.022,-0.034 -0.048,-0.058 -0.076,-0.074c-0.029,-0.015 -0.062,-0.023 -0.1,-0.023c-0.063,0 -0.111,0.019 -0.143,0.058c-0.033,0.038 -0.049,0.095 -0.049,0.171zm0.226,0.344z"/>
 </symbol>
 <symbol id="A">
  <path id="svg_26" d="m0.224,0.89c-0.044,-0.076 -0.076,-0.15 -0.097,-0.223c-0.022,-0.073 -0.032,-0.147 -0.032,-0.222c0,-0.076 0.01,-0.15 0.032,-0.223c0.021,-0.074 0.053,-0.147 0.097,-0.222l-0.078,0c-0.049,0.077 -0.086,0.151 -0.11,0.225s-0.036,0.147 -0.036,0.22c0,0.072 0.012,0.145 0.036,0.219s0.06,0.149 0.11,0.226l0.078,0z"/>
 </symbol>
 <symbol id="B">
  <path id="svg_27" d="m0.469,0.718l0,-0.096c-0.038,0.018 -0.073,0.031 -0.106,0.04c-0.034,0.008 -0.066,0.013 -0.096,0.013c-0.054,0 -0.096,-0.011 -0.125,-0.031c-0.029,-0.021 -0.043,-0.051 -0.043,-0.089c0,-0.032 0.009,-0.057 0.029,-0.073c0.019,-0.017 0.056,-0.03 0.11,-0.04l0.06,-0.012c0.073,-0.014 0.127,-0.039 0.162,-0.074c0.035,-0.036 0.053,-0.083 0.053,-0.142c0,-0.071 -0.024,-0.124 -0.071,-0.16c-0.048,-0.036 -0.117,-0.054 -0.208,-0.054c-0.035,0 -0.072,0.004 -0.111,0.011s-0.079,0.018 -0.12,0.034l0,0.102c0.04,-0.023 0.079,-0.04 0.117,-0.051c0.038,-0.012 0.076,-0.017 0.114,-0.017c0.056,0 0.099,0.011 0.13,0.033c0.03,0.022 0.046,0.053 0.046,0.095c0,0.036 -0.011,0.064 -0.033,0.084s-0.058,0.035 -0.108,0.045l-0.06,0.012c-0.074,0.014 -0.127,0.037 -0.16,0.069c-0.033,0.031 -0.049,0.074 -0.049,0.13c0,0.064 0.022,0.115 0.068,0.152c0.045,0.037 0.108,0.056 0.188,0.056c0.034,0 0.068,-0.003 0.104,-0.009c0.035,-0.006 0.071,-0.016 0.109,-0.028z"/>
 </symbol>
 <symbol id="C">
  <path id="svg_28" d="m0,0.89l0.078,0c0.048,-0.077 0.085,-0.152 0.109,-0.226s0.037,-0.147 0.037,-0.219c0,-0.073 -0.013,-0.146 -0.037,-0.22s-0.061,-0.148 -0.109,-0.225l-0.078,0c0.043,0.075 0.075,0.148 0.097,0.222c0.021,0.073 0.032,0.147 0.032,0.223c0,0.075 -0.011,0.149 -0.032,0.222c-0.022,0.073 -0.054,0.147 -0.097,0.223z"/>
 </symbol>
 <symbol id="D">
  <path id="svg_29" d="m197,648l0,-567l119,0c100,0 174,22 221,68c46,46 70,118 70,216s-24,169 -70,215c-47,45 -121,68 -221,68l-119,0zm-99,81l203,0c141,0 245,-30 311,-88c66,-59 99,-151 99,-276c0,-126 -34,-218 -100,-277s-170,-88 -310,-88l-203,0l0,729z" transform="translate(-.098) scale(.001)"/>
 </symbol>
 <symbol id="E">
  <path id="svg_30" d="m0.399,0.477l0,0.296l0.09,0l0,-0.76l-0.09,0l0,0.082c-0.019,-0.033 -0.043,-0.057 -0.072,-0.072s-0.063,-0.023 -0.103,-0.023c-0.066,0 -0.12,0.026 -0.162,0.078s-0.062,0.122 -0.062,0.208s0.02,0.155 0.062,0.208c0.042,0.052 0.096,0.079 0.162,0.079c0.04,0 0.074,-0.008 0.103,-0.024s0.053,-0.04 0.072,-0.072zm-0.306,-0.191c0,-0.066 0.013,-0.118 0.04,-0.156s0.064,-0.056 0.112,-0.056s0.085,0.018 0.113,0.056c0.027,0.038 0.041,0.09 0.041,0.156s-0.014,0.117 -0.041,0.155c-0.028,0.038 -0.065,0.057 -0.113,0.057s-0.085,-0.019 -0.112,-0.057s-0.04,-0.089 -0.04,-0.155z"/>
 </symbol>
 <g>
  <title>Layer 1</title>
  <path id="svg_31" fill="#fff" d="m0,345.6l460.8,0l0,-345.6l-460.8,0l0,345.6z"/>
  <path id="svg_32" fill="#fff" d="m103.104,307.584l266.112,0l0,-266.112l-266.112,0l0,266.112z"/>
  <path id="svg_33" d="m113.154,307.584l0,3.5" stroke="#000" fill="none" stroke-linejoin="round" stroke-width="0.8"/>
  <use id="svg_34" transform="matrix(10 0 0 -10 110.634 322.308)" xlink:href="#a"/>
  <path id="svg_35" d="m177.296,307.584l0,3.5" stroke="#000" fill="none" stroke-linejoin="round" stroke-width="0.8"/>
  <use id="svg_36" transform="matrix(10 0 0 -10 172.037 322.178)" xlink:href="#b"/>
  <use id="svg_37" transform="matrix(10 0 0 -10 177.957 322.308)" xlink:href="#a"/>
  <path id="svg_38" d="m241.439,307.584l0,3.5" stroke="#000" fill="none" stroke-linejoin="round" stroke-width="0.8"/>
  <use id="svg_39" transform="matrix(10 0 0 -10 235.81 322.178)" xlink:href="#c"/>
  <use id="svg_40" transform="matrix(10 0 0 -10 242.1 322.308)" xlink:href="#a"/>
  <path id="svg_41" d="m305.581,307.584l0,3.5" stroke="#000" fill="none" stroke-linejoin="round" stroke-width="0.8"/>
  <use id="svg_42" transform="matrix(10 0 0 -10 299.982 322.308)" xlink:href="#d"/>
  <use id="svg_43" transform="matrix(10 0 0 -10 306.242 322.308)" xlink:href="#a"/>
  <use id="svg_44" transform="matrix(10 0 0 -10 215.757 335.85)" xlink:href="#e"/>
  <use id="svg_45" transform="matrix(10 0 0 -10 222.53 335.85)" xlink:href="#f"/>
  <use id="svg_46" transform="matrix(10 0 0 -10 225.28 335.85)" xlink:href="#g"/>
  <use id="svg_47" transform="matrix(10 0 0 -10 234.66 335.98)" xlink:href="#h"/>
  <use id="svg_48" transform="matrix(10 0 0 -10 240.26 335.85)" xlink:href="#i"/>
  <use id="svg_49" transform="matrix(10 0 0 -10 244.3 337.16)" xlink:href="#j"/>
  <use id="svg_50" transform="matrix(10 0 0 -10 247.88 335.98)" xlink:href="#k"/>
  <use id="svg_51" transform="matrix(10 0 0 -10 253.52 337.16)" xlink:href="#l"/>
  <path id="svg_52" d="m103.104,290.328l-3.5,0" stroke="#000" fill="none" stroke-linejoin="round" stroke-width="0.8"/>
  <use id="svg_53" transform="matrix(10 0 0 -10 84.085 294.255)" xlink:href="#m"/>
  <use id="svg_54" transform="matrix(10 0 0 -10 90.405 294.255)" xlink:href="#a"/>
  <path id="svg_55" d="m103.104,248.378l-3.5,0" stroke="#000" fill="none" stroke-linejoin="round" stroke-width="0.8"/>
  <use id="svg_56" transform="matrix(10 0 0 -10 84.065 252.305)" xlink:href="#n"/>
  <use id="svg_57" transform="matrix(10 0 0 -10 90.405 252.305)" xlink:href="#a"/>
  <path id="svg_58" d="m103.104,206.428l-3.5,0" stroke="#000" fill="none" stroke-linejoin="round" stroke-width="0.8"/>
  <use id="svg_59" transform="matrix(10 0 0 -10 78.126 210.225)" xlink:href="#b"/>
  <use id="svg_60" transform="matrix(10 0 0 -10 84.046 210.355)" xlink:href="#a"/>
  <use id="svg_61" transform="matrix(10 0 0 -10 90.406 210.355)" xlink:href="#a"/>
  <path id="svg_62" d="m103.104,164.478l-3.5,0" stroke="#000" fill="none" stroke-linejoin="round" stroke-width="0.8"/>
  <use id="svg_63" transform="matrix(10 0 0 -10 78.126 168.275)" xlink:href="#b"/>
  <use id="svg_64" transform="matrix(10 0 0 -10 84.116 168.275)" xlink:href="#c"/>
  <use id="svg_65" transform="matrix(10 0 0 -10 90.406 168.405)" xlink:href="#a"/>
  <path id="svg_66" d="m103.104,122.528l-3.5,0" stroke="#000" fill="none" stroke-linejoin="round" stroke-width="0.8"/>
  <use id="svg_67" transform="matrix(10 0 0 -10 78.126 126.325)" xlink:href="#b"/>
  <use id="svg_68" transform="matrix(10 0 0 -10 83.876 126.325)" xlink:href="#o"/>
  <use id="svg_69" transform="matrix(10 0 0 -10 90.406 126.455)" xlink:href="#a"/>
  <path id="svg_70" d="m103.104,80.578l-3.5,0" stroke="#000" fill="none" stroke-linejoin="round" stroke-width="0.8"/>
  <use id="svg_71" transform="matrix(10 0 0 -10 78.126 84.375)" xlink:href="#b"/>
  <use id="svg_72" transform="matrix(10 0 0 -10 84.086 84.505)" xlink:href="#m"/>
  <use id="svg_73" transform="matrix(10 0 0 -10 90.406 84.505)" xlink:href="#a"/>
  <use x="0.45902" y="0" id="svg_74" transform="matrix(0 -10 -10 0 71.078 212.171)" xlink:href="#p"/>
  <use x="0.45902" y="0" id="svg_75" transform="matrix(0 -10 -10 0 70.948 203.951)" xlink:href="#q"/>
  <use x="0.45902" y="0" id="svg_76" transform="matrix(0 -10 -10 0 70.948 199.811)" xlink:href="#f"/>
  <use id="svg_78" transform="matrix(0 -10 -10 0 71.078 193.501)" xlink:href="#h"/>
  <use id="svg_79" transform="matrix(0 -10 -10 0 70.948 186.991)" xlink:href="#s"/>
  <use id="svg_80" transform="matrix(0 -10 -10 0 70.948 181.291)" xlink:href="#r"/>
  <use id="svg_81" transform="matrix(0 -10 -10 0 71.078 177.041)" xlink:href="#t"/>
  <use id="svg_82" transform="matrix(0 -10 -10 0 70.948 171.241)" xlink:href="#r"/>
  <use id="svg_83" transform="matrix(0 -10 -10 0 70.948 166.651)" xlink:href="#f"/>
  <use id="svg_84" transform="matrix(0 -10 -10 0 71.078 164.261)" xlink:href="#u"/>
  <use id="svg_85" transform="matrix(0 -10 -10 0 70.948 157.781)" xlink:href="#s"/>
  <use id="svg_86" transform="matrix(0 -10 -10 0 70.948 152.351)" xlink:href="#i"/>
  <use id="svg_87" transform="matrix(0 -10 -10 0 72.258 148.311)" xlink:href="#j"/>
  <use id="svg_88" transform="matrix(0 -10 -10 0 66.628 144.321)" xlink:href="#v"/>
  <use id="svg_89" transform="matrix(0 -10 -10 0 72.258 139.301)" xlink:href="#l"/>
  <g id="svg_90" clip-path="url(#w)">
   <path id="svg_91" d="m115.2,227.4l0.128,0l0.135,0.258l0.122,-0.136l0.16,0.34l1.123,-0.296l0.122,-0.166l0.237,0.077l0.115,-0.152l0.385,0.075l0.135,-0.21l0.276,0.075l0.23,-0.062l0.155,0.002l0.147,-0.125l0.212,0.07l0.32,-0.117l0.103,0.125l0.103,-0.177l0.211,0.123l0.065,-0.173l0.109,0.12l0.878,-0.197l0.283,0.009l1.385,-0.31l0.385,-0.036l0.128,-0.142l0.154,0.004l0.116,-0.14l0.243,0.01l0.565,-0.267l0.699,-0.071l0.07,-0.09l0.071,0.098l0.276,-0.085l0.141,0.096l0.096,-0.134l0.776,0.111l0.141,0.048l0.129,-0.087l0.365,0.144l0.295,-0.04l0.635,0.057l0.25,0.093l1.162,0.235l0.25,-0.04l0.628,0.092l1.302,0.095l0.45,0.044l0.564,0.088l0.699,0.129l0.468,0.086l0.642,0.128l0.57,0.042l0.058,0.085l0.141,-0.084l0.372,0.126l0.7,0.126l0.59,0.084l0.122,0.126l0.134,-0.084l0.385,0.125l0.892,0.208l0.122,-0.041l0.327,0.083l0.77,0.207l0.185,0l0.372,0.083l0.706,0.124l0.462,0.082l0.564,0.082l0.103,-0.041l0.513,0.165l0.257,-0.042l0.115,0.083l0.969,0l0.064,0.123l0.256,0l0.873,0.082l0.641,0.082l0.167,-0.083l0.244,0.083l1.289,0.082l0.218,0l0.186,-0.001l0.103,0.124l0.622,-0.042l5.606,-0.084l0.16,0l2.06,-0.084l0.692,-0.041l0.07,0.083l0.514,-0.042l1.167,-0.041l0.135,-0.083l0.237,0.082l0.346,0l1.328,-0.04l0.25,-0.042l0.295,0.041l0.507,-0.041l17.94,0.043l0.123,0.082l0.243,-0.041l10.667,0.094l0.135,0.042l0.372,-0.082l0.815,-0.084l0.224,-0.084l0.885,-0.084l0.661,-0.084l0.36,0l1.532,-0.044l0.16,-0.083l0.257,0.041l8.608,0.08l0.225,0l0.962,0.083l0.211,0l0.25,0.084l0.263,-0.041l0.379,0.042l0.52,-0.043l0.102,0.083l0.417,-0.083l0.353,0.04l1.18,0.041l0.135,0.083l0.237,-0.042l2.18,0.041l0.257,0.041l2.553,0.04l0.148,0.084l0.263,-0.042l0.25,-0.041l0.378,0.042l0.244,0l8.743,-0.082l0.372,0l0.391,0.043l0.116,-0.04l0.128,0.082l0.398,-0.04l0.77,-0.084l0.121,-0.042l0.122,0.083l0.135,-0.083l0.52,0.04l1.667,-0.04l0.186,-0.083l0.07,0.124l0.514,-0.084l0.301,0.083l0.205,-0.04l0.27,0.04l0.699,3.439l0.147,0.319l0.29,0.062l0.121,-0.094l0.423,-0.97l0.7,-2.286l1.167,-5.367l0.686,-2.846l2.143,-8.482l0.378,-1.144l0.943,-4.13l2.893,-14.11l3.637,-27.59l0.307,-1.956l2.085,-15.21l2.662,-19.65l1.456,-11.782l0.302,-2.192l0.436,-3.528l0.34,-2.074l0.808,-5.224l0.32,-1.895l1.31,-5.903l0.487,-2.29l1.872,-7.2l0.732,-2.872l0.506,-1.78l0.88,-3.06l0.384,-0.887l2.566,-7.272l0.455,-0.979l1.232,-3.01l0.61,-1.492l1.147,-2.984l0.802,-1.486l0.366,-0.518l1.173,-1.23l0.507,-0.434l0.642,-0.451l1.032,-0.497l0.385,-2.627l0.385,-1.163l0.378,-0.318l0.122,-0.03l0.526,0.579l0.622,1.383l0.584,1.613l0.314,1.346l0.25,0.94l1.065,4.157l0.546,2.275l0.333,1.813l1.148,6.22l0.776,5.27l0.655,5.276l0.5,4.796l0.776,8.463l1.084,13.288l0.314,5.572l0.706,9.866l0.173,4.095l0.66,10.503l2.47,45.29l0.59,13.48l0.469,8.47l0.205,5.719l0.385,8.621l0.622,13.919l0.257,5.563l1.34,24.707l0.731,11.793l0.88,9.912l0.288,2.073l0.224,1.713l0.629,2.833l0.391,0.372l0.436,-0.302l0.898,-2.124l0.462,-1.332l0.398,-0.806l0.712,-1.041l0.18,-0.106l0.192,-0.308l0.115,-0.096l0.212,-0.378l0.648,-1.336l0.583,-1.376l0.295,-1.28l0.398,-1.504l0.654,-3.006l1.412,-8.732l0.205,-0.855l0.417,-3.626l0.462,-2.769l0.455,-3.916l0.295,-1.973l0.237,-1.997l0.334,-1.967l0.539,-4.93l0.68,-4.896l0.365,-2.899l0.308,-1.856l0.456,-3.73l0.77,-4.93l1.404,-6.23l0.301,-0.676l0.212,-0.67l0.423,-0.781l0.578,-0.88l0.397,-0.301l0.905,0.098l0.667,0.709l0.872,0.984l0.27,0.115l0.237,0.49l0.526,0.659l0.686,0.583l0.18,0.234l0.808,1.02l0.218,0.156l0.051,0.275l0.231,0.393l1.283,2.698l0.308,0.585l0.186,0.625l1.309,3.527l1.013,2.57l0.11,0.317l0.224,0.205l0.173,0.6l0.641,1.195l0.16,0.003l0.482,0.638l0.16,0.036l0.096,0.202l0.141,0l0.122,0.153l0.141,-0.036l0.231,0.091l0.385,0.29l0.199,-0.042l0.186,0.249l0.41,0.206l1.303,0.942l0.365,0.192l0.372,0.316l0.135,0l1.071,0.64l0.128,-0.019l0.225,0.172l0.353,0.086l0.128,0l0.135,0.122l0.397,-0.086l0.11,0.082l0.262,-0.027l0.667,-0.074l0.526,-0.106l0.218,0.008l0.122,-0.121l0.129,0.074l0.134,-0.118l0.135,0.044l0.263,-0.106l0.391,-0.07l0.507,-0.186l0.186,0.052l0.058,-0.13l0.526,-0.08l1.02,-0.21l0.14,0.005l0.27,-0.064l0.346,-0.119l0.142,0.047l0.121,-0.083l0.5,-0.009l0.29,-0.083l0.91,-0.02l0.238,-0.124l0.14,0.087l0.116,-0.123l0.391,-0.004l1.905,-0.027l0.142,-0.072l0.237,0.055l0.808,-0.048l0.09,-0.036l0.122,0.08l0.263,-0.036l0.455,0.058l0.186,-0.025l0.27,0.04l0.609,-0.043l0.667,0.058l0.462,0.06l0.442,-0.056l0.135,0.132l0.391,-0.029l0.77,0.063l0.122,0.08l0.333,-0.084l0.206,0.08l0.09,-0.084l0.39,0.044l0.386,0.092l0.243,0.052l0.276,-0.04l0.135,0.08l0.23,0.008l0.527,0l0.5,0.108l0.167,-0.04l0.212,0.048l0.384,-0.008l0.16,0.165l0.277,-0.113l0.077,0.08l0.41,-0.004l6.267,0.359l0.917,0.19l0.385,-0.052l0.135,0.048l0.121,-0.117l0.257,0.049" stroke="teal" fill="none" stroke-linejoin="round" stroke-linecap="square" stroke-width="2.5"/>
  </g>
  <g id="svg_92" clip-path="url(#x)">
   <path id="svg_93" d="m115.2,228.6l115.341,0.175l0.205,-76.882l6.46,0l0.186,6.292l1.731,0l0.174,-6.292l1.712,0l0.116,-6.293l1.193,0l0.128,-6.292l0.93,0l0.135,-6.293l1.07,0l0.136,-6.292l1.077,0l0.129,-6.293l1.051,0l0.167,-6.292l1.026,0l0.154,-6.293l1.02,0l0.096,-6.292l0.86,0l0.186,-6.293l0.815,0l0.18,-6.292l0.93,0l0.083,-6.293l1.231,0l0.238,-6.292l1.308,0l0.11,-6.293l2.129,0l0.121,-6.292l3.586,0l0.186,-6.293l1.174,0l0.122,6.293l0.192,-6.293l0.148,6.293l7.235,0l0.128,174.32l2.06,0.856l1.52,0.649l0.91,0.379l5.138,1.943l2.713,0.751l1.63,0.342l3.335,0.34l2.328,-0.064l2.688,-0.297l9.916,-0.932l3.169,0.062l15.381,0.863l16.819,0.296l19.114,0.384" stroke="red" fill="none" stroke-linejoin="round" stroke-dasharray="9.25,4" stroke-width="2.5"/>
  </g>
  <path id="svg_94" d="m103.104,307.584l0,-266.112m266.112,266.112l0,-266.112m-266.112,266.112l266.112,0m-266.112,-266.112l266.112,0" stroke="#000" fill="none" stroke-miterlimit="10" stroke-linecap="square" stroke-width="0.8"/>
  <path id="svg_95" fill-opacity="0.8" fill="#fff" d="m110.104,302.584l153.36,0c1.333,0 2,-0.667 2,-2l0,-28.344c0,-1.333 -0.667,-2 -2,-2l-153.36,0c-1.333,0 -2,0.667 -2,2l0,28.344c0,1.333 0.667,2 2,2z"/>
  <path id="svg_96" d="m110.104,302.584l153.36,0c1.333,0 2,-0.667 2,-2l0,-28.344c0,-1.333 -0.667,-2 -2,-2l-153.36,0c-1.333,0 -2,0.667 -2,2l0,28.344c0,1.333 0.667,2 2,2z" stroke-opacity="0.8" stroke="#d5d6d5" fill="none" stroke-miterlimit="10"/>
  <path id="svg_97" d="m112.104,278.334l20,0" stroke="teal" fill="none" stroke-linejoin="round" stroke-linecap="square" stroke-width="2.5"/>
  <use id="svg_98" transform="matrix(10 0 0 -10 140.664 281.964)" xlink:href="#y"/>
  <use id="svg_99" transform="matrix(10 0 0 -10 147.934 281.964)" xlink:href="#z"/>
  <use id="svg_100" transform="matrix(10 0 0 -10 154.334 281.834)" xlink:href="#q"/>
  <use id="svg_101" transform="matrix(10 0 0 -10 158.272 281.834)" xlink:href="#q"/>
  <use id="svg_102" transform="matrix(10 0 0 -10 161.803 281.964)" xlink:href="#h"/>
  <use id="svg_103" transform="matrix(10 0 0 -10 168.313 281.834)" xlink:href="#s"/>
  <use id="svg_104" transform="matrix(10 0 0 -10 174.013 281.834)" xlink:href="#r"/>
  <use id="svg_105" transform="matrix(10 0 0 -10 177.663 281.834)" xlink:href="#i"/>
  <use id="svg_106" transform="matrix(10 0 0 -10 181.393 281.964)" xlink:href="#u"/>
  <use id="svg_107" transform="matrix(10 0 0 -10 187.873 281.834)" xlink:href="#q"/>
  <use id="svg_108" transform="matrix(10 0 0 -10 192.013 281.834)" xlink:href="#f"/>
  <use id="svg_109" transform="matrix(10 0 0 -10 194.403 281.964)" xlink:href="#h"/>
  <use id="svg_110" transform="matrix(10 0 0 -10 200.913 281.834)" xlink:href="#s"/>
  <use id="svg_111" transform="matrix(10 0 0 -10 206.613 281.834)" xlink:href="#r"/>
  <use id="svg_112" transform="matrix(10 0 0 -10 210.863 281.964)" xlink:href="#t"/>
  <use id="svg_113" transform="matrix(10 0 0 -10 216.663 281.834)" xlink:href="#r"/>
  <use id="svg_114" transform="matrix(10 0 0 -10 221.253 281.834)" xlink:href="#f"/>
  <use id="svg_115" transform="matrix(10 0 0 -10 223.643 281.964)" xlink:href="#u"/>
  <use id="svg_116" transform="matrix(10 0 0 -10 230.123 281.834)" xlink:href="#s"/>
  <use id="svg_117" transform="matrix(10 0 0 -10 235.553 281.834)" xlink:href="#i"/>
  <use id="svg_118" transform="matrix(10 0 0 -10 239.593 283.144)" xlink:href="#A"/>
  <use id="svg_119" transform="matrix(10 0 0 -10 243.193 281.964)" xlink:href="#p"/>
  <use id="svg_120" transform="matrix(10 0 0 -10 251.163 281.964)" xlink:href="#B"/>
  <use id="svg_121" transform="matrix(10 0 0 -10 257.653 283.144)" xlink:href="#C"/>
  <path id="svg_122" d="m112.104,293.006l20,0" stroke="red" fill="none" stroke-linejoin="round" stroke-dasharray="9.25,4" stroke-width="2.5"/>
  <use id="svg_123" transform="matrix(10 0 0 -10 141.084 296.506)" xlink:href="#D"/>
  <use id="svg_124" transform="matrix(10 0 0 -10 148.354 296.636)" xlink:href="#h"/>
  <use id="svg_125" transform="matrix(10 0 0 -10 154.494 296.636)" xlink:href="#k"/>
  <use id="svg_126" transform="matrix(10 0 0 -10 160.104 296.506)" xlink:href="#f"/>
  <use id="svg_127" transform="matrix(10 0 0 -10 162.854 296.506)" xlink:href="#q"/>
  <use id="svg_128" transform="matrix(10 0 0 -10 166.385 296.636)" xlink:href="#h"/>
  <use id="svg_129" transform="matrix(10 0 0 -10 172.535 296.636)" xlink:href="#E"/>
  <use id="svg_130" transform="matrix(10 0 0 -10 178.335 296.506)" xlink:href="#i"/>
  <use id="svg_131" transform="matrix(10 0 0 -10 182.065 296.636)" xlink:href="#u"/>
  <use id="svg_132" transform="matrix(10 0 0 -10 188.545 296.506)" xlink:href="#q"/>
  <use id="svg_133" transform="matrix(10 0 0 -10 192.685 296.506)" xlink:href="#f"/>
  <use id="svg_134" transform="matrix(10 0 0 -10 195.075 296.636)" xlink:href="#h"/>
  <use id="svg_135" transform="matrix(10 0 0 -10 201.585 296.506)" xlink:href="#s"/>
  <use id="svg_136" transform="matrix(10 0 0 -10 207.285 296.506)" xlink:href="#r"/>
  <use id="svg_137" transform="matrix(10 0 0 -10 211.535 296.636)" xlink:href="#t"/>
  <use id="svg_138" transform="matrix(10 0 0 -10 217.335 296.506)" xlink:href="#r"/>
  <use id="svg_139" transform="matrix(10 0 0 -10 221.925 296.506)" xlink:href="#f"/>
  <use id="svg_140" transform="matrix(10 0 0 -10 224.315 296.636)" xlink:href="#u"/>
  <use id="svg_141" transform="matrix(10 0 0 -10 230.795 296.506)" xlink:href="#s"/>
  <use id="svg_142" transform="matrix(10 0 0 -10 236.225 296.506)" xlink:href="#i"/>
  <use id="svg_143" transform="matrix(10 0 0 -10 240.265 297.816)" xlink:href="#A"/>
  <use id="svg_144" transform="matrix(10 0 0 -10 243.865 296.636)" xlink:href="#p"/>
  <use id="svg_145" transform="matrix(10 0 0 -10 251.835 296.636)" xlink:href="#B"/>
  <use id="svg_146" transform="matrix(10 0 0 -10 258.325 297.816)" xlink:href="#C"/>
 </g>
</svg>