<svg xmlns="http://www.w3.org/2000/svg" xmlns:xlink="http://www.w3.org/1999/xlink" width="304pt" height="396" viewBox="0 0 304 297"><clipPath id="a"><path transform="matrix(1 0 0 -1 -66 305)" d="M0 0h460.8v345.6H0z"/></clipPath><g clip-path="url(#a)"><path d="M-66 305h460.8V-40.6H-66z" fill="#fff"/><path d="M37.104 266.984h266.112V.872H37.104z" fill="#fff"/><path stroke-width=".8" stroke-linejoin="round" fill="none" stroke="#000" d="M47.154 266.984v3.5"/><symbol id="b"><path transform="matrix(.001 0 0 .001 -.066 .013)" d="M318 664c-51 0-89-25-115-75s-38-125-38-225 12-175 38-225 64-75 115-75 89 25 115 75c25 50 38 125 38 225s-13 175-38 225c-26 50-64 75-115 75zm0 78c81 0 143-33 187-97 43-65 65-159 65-281 0-123-22-217-65-281-44-64-106-96-188-96S173 19 130 83 66 241 66 364c0 122 21 216 64 281 43 64 106 97 188 97z"/></symbol><use xlink:href="#b" transform="matrix(10 0 0 -10 44.634 281.708)"/><path stroke-width=".8" stroke-linejoin="round" fill="none" stroke="#000" d="M111.296 266.984v3.5"/><symbol id="c"><path transform="translate(-.11) scale(.001)" d="M124 83h161v556l-175-35v90l174 35h99V83h161V0H124v83z"/></symbol><use xlink:href="#c" transform="matrix(10 0 0 -10 106.037 281.578)"/><use xlink:href="#b" transform="matrix(10 0 0 -10 111.957 281.708)"/><path stroke-width=".8" stroke-linejoin="round" fill="none" stroke="#000" d="M175.439 266.984v3.5"/><symbol id="d"><path transform="translate(-.073) scale(.001)" d="M192 83h344V0H73v83c37 38 88 90 153 156 64 65 105 107 122 126 32 35 54 65 66 90 12 24 19 49 19 73 0 38-14 70-41 94s-62 37-106 37c-31 0-64-6-98-16-34-11-71-27-110-49v100c40 16 77 28 111 36s66 12 95 12c75 0 135-19 180-57s68-88 68-151c0-30-6-59-17-85-11-27-31-59-61-95-8-10-34-37-78-82S271 164 192 83z"/></symbol><use xlink:href="#d" transform="matrix(10 0 0 -10 169.81 281.578)"/><use xlink:href="#b" transform="matrix(10 0 0 -10 176.1 281.708)"/><path stroke-width=".8" stroke-linejoin="round" fill="none" stroke="#000" d="M239.581 266.984v3.5"/><symbol id="e"><path transform="matrix(.001 0 0 .001 -.076 .013)" d="M406 393c47-10 84-31 110-63s40-72 40-118c0-72-25-128-74-167-50-39-120-58-211-58-31 0-63 3-95 9-32 5-66 14-100 26v95c27-16 57-28 90-36 32-8 66-12 102-12 62 0 109 12 141 36s49 60 49 107c0 42-15 76-45 100s-72 37-126 37h-85v81h89c48 0 85 9 111 29 26 19 39 47 39 84s-14 66-40 86c-27 20-65 30-114 30-27 0-56-3-87-9s-65-15-102-27v88c37 10 72 18 105 23 32 5 63 8 93 8 74 0 133-17 177-51s66-80 66-138c0-40-12-74-35-102s-56-48-98-58z"/></symbol><use xlink:href="#e" transform="matrix(10 0 0 -10 233.982 281.708)"/><use xlink:href="#b" transform="matrix(10 0 0 -10 240.242 281.708)"/><symbol id="f"><path transform="translate(.002) scale(.001)" d="M-2 729h616v-83H355V0h-99v646H-2v83z"/></symbol><symbol id="g"><path transform="translate(-.094) scale(.001)" d="M94 547h90V0H94v547zm0 213h90V646H94v114z"/></symbol><symbol id="h"><path transform="translate(-.091) scale(.001)" d="M520 442c22 40 49 69 80 89 31 19 68 29 111 29 56 0 100-20 131-60s47-97 47-170V0h-90v327c0 52-10 91-28 117-19 25-47 38-85 38-47 0-84-16-111-47s-40-73-40-126V0h-90v327c0 52-10 91-28 117-19 25-48 38-86 38-46 0-83-16-110-47s-40-73-40-126V0H91v547h90v-85c20 33 45 58 74 74 28 16 62 24 102 24s73-10 101-30 48-50 62-88z"/></symbol><symbol id="i"><path transform="matrix(.001 0 0 .001 -.055 .013)" d="M562 296v-44H149c4-62 22-110 56-142 33-32 79-48 139-48 34 0 68 4 100 12s65 21 97 39V28c-32-14-65-25-99-31s-69-10-103-10c-88 0-157 25-208 75S55 181 55 268c0 89 24 160 72 213 48 52 114 79 196 79 74 0 132-24 175-71 42-48 64-112 64-193zm-90 26c-1 49-15 88-41 118-27 29-63 44-107 44-50 0-90-15-120-43s-48-68-52-119h320z"/></symbol><symbol id="k"><path transform="matrix(.001 0 0 .001 -.086 .131)" d="M86 760h207v-70H176V-61h117v-70H86v891z"/></symbol><symbol id="l"><path transform="matrix(.001 0 0 .001 -.054 .013)" d="M443 531v-85c-26 12-52 22-79 29-28 6-56 10-85 10-45 0-79-7-101-21s-33-34-33-61c0-21 8-37 24-49s48-24 96-34l31-7c64-14 109-34 136-58 26-25 40-60 40-104 0-51-20-91-60-120-40-30-96-44-166-44-30 0-60 3-92 8S89 8 54 20v93c33-18 66-31 98-39 32-9 64-13 96-13 42 0 75 7 98 21 22 14 34 35 34 62 0 24-9 43-25 56s-52 26-108 38l-31 7c-56 12-97 30-121 54-25 24-37 57-37 100 0 51 18 91 54 119s88 42 156 42c33 0 64-3 94-8 29-5 56-12 81-21z"/></symbol><symbol id="m"><path transform="matrix(.001 0 0 .001 -.097 .131)" d="M304 760v-891H97v70h117v751H97v70h207z"/></symbol><use xlink:href="#f" transform="matrix(10 0 0 -10 149.757 295.25)"/><use xlink:href="#g" transform="matrix(10 0 0 -10 156.53 295.25)"/><use xlink:href="#h" transform="matrix(10 0 0 -10 159.28 295.25)"/><use xlink:href="#i" transform="matrix(10 0 0 -10 168.66 295.38)"/><use xlink:href="#j" transform="matrix(10 0 0 -10 174.26 295.25)"/><use xlink:href="#k" transform="matrix(10 0 0 -10 178.3 296.56)"/><use xlink:href="#l" transform="matrix(10 0 0 -10 181.88 295.38)"/><use xlink:href="#m" transform="matrix(10 0 0 -10 187.52 296.56)"/><path stroke-width=".8" stroke-linejoin="round" fill="none" stroke="#000" d="M37.104 238.308h-3.5"/><symbol id="n"><path transform="translate(-.107) scale(.001)" d="M107 124h103V0H107v124z"/></symbol><use xlink:href="#c" transform="matrix(10 0 0 -10 15.298 242.105)"/><use xlink:href="#n" transform="matrix(10 0 0 -10 21.628 242.105)"/><use xlink:href="#b" transform="matrix(10 0 0 -10 24.398 242.235)"/><path stroke-width=".8" stroke-linejoin="round" fill="none" stroke="#000" d="M37.104 186.517h-3.5"/><symbol id="o"><path transform="matrix(.001 0 0 .001 -.077 .013)" d="M108 729h387v-83H198V467c14 5 29 9 43 11s29 4 43 4c81 0 145-23 193-67 48-45 72-105 72-181 0-79-25-140-74-183S357-13 269-13c-31 0-62 3-94 7-32 5-64 12-98 23v99c29-16 59-28 91-36 31-8 64-11 99-11 56 0 101 14 134 44 32 30 49 70 49 121 0 50-17 90-49 120-33 30-78 45-134 45-26 0-53-3-79-9s-53-15-80-27v366z"/></symbol><use xlink:href="#c" transform="matrix(10 0 0 -10 15.298 190.314)"/><use xlink:href="#n" transform="matrix(10 0 0 -10 21.628 190.314)"/><use xlink:href="#o" transform="matrix(10 0 0 -10 24.508 190.444)"/><path stroke-width=".8" stroke-linejoin="round" fill="none" stroke="#000" d="M37.104 134.727h-3.5"/><use xlink:href="#d" transform="matrix(10 0 0 -10 14.928 138.524)"/><use xlink:href="#n" transform="matrix(10 0 0 -10 21.628 138.524)"/><use xlink:href="#b" transform="matrix(10 0 0 -10 24.398 138.654)"/><path stroke-width=".8" stroke-linejoin="round" fill="none" stroke="#000" d="M37.104 82.936h-3.5"/><use xlink:href="#d" transform="matrix(10 0 0 -10 14.928 86.733)"/><use xlink:href="#n" transform="matrix(10 0 0 -10 21.628 86.733)"/><use xlink:href="#o" transform="matrix(10 0 0 -10 24.508 86.863)"/><path stroke-width=".8" stroke-linejoin="round" fill="none" stroke="#000" d="M37.104 31.145h-3.5"/><use xlink:href="#e" transform="matrix(10 0 0 -10 14.958 35.072)"/><use xlink:href="#n" transform="matrix(10 0 0 -10 21.628 34.942)"/><use xlink:href="#b" transform="matrix(10 0 0 -10 24.398 35.072)"/><symbol id="p"><path transform="matrix(.001 0 0 .001 -.066 .013)" d="M535 705v-96c-38 18-73 31-106 40-34 8-66 13-96 13-54 0-96-11-125-31-29-21-43-51-43-89 0-32 9-57 29-73 19-17 56-30 110-40l60-12c73-14 127-39 162-74 35-36 53-83 53-142 0-71-24-124-71-160-48-36-117-54-208-54-35 0-72 4-111 11S110 16 69 32v102c40-23 79-40 117-51 38-12 76-17 114-17 56 0 99 11 130 33 30 22 46 53 46 95 0 36-11 64-33 84s-58 35-108 45l-60 12c-74 14-127 37-160 69-33 31-49 74-49 130 0 64 22 115 68 152 45 37 108 56 188 56 34 0 68-3 104-9 35-6 71-16 109-28z"/></symbol><symbol id="q"><path transform="matrix(.001 0 0 .001 -.091 .207)" d="M181 82v-289H91v754h90v-83c18 32 42 56 71 72s64 24 104 24c66 0 120-27 162-79 41-53 62-122 62-208s-21-156-62-208c-42-52-96-78-162-78-40 0-75 8-104 23s-53 39-71 72zm306 191c0 66-14 117-41 155-28 38-65 57-112 57-48 0-85-19-112-57-28-38-41-89-41-155s13-118 41-156c27-38 64-56 112-56 47 0 84 18 112 56 27 38 41 90 41 156z"/></symbol><symbol id="r"><path transform="matrix(.001 0 0 .001 -.055 .013)" d="M454 464v296h90V0h-90v82c-19-33-43-57-72-72s-63-23-103-23c-66 0-120 26-162 78S55 187 55 273s20 155 62 208c42 52 96 79 162 79 40 0 74-8 103-24s53-40 72-72zM148 273c0-66 13-118 40-156s64-56 112-56 85 18 113 56c27 38 41 90 41 156s-14 117-41 155c-28 38-65 57-113 57s-85-19-112-57-40-89-40-155z"/></symbol><symbol id="s"><path transform="matrix(.001 0 0 .001 0 .092)" d="M254 729h83L83-92H0l254 821z"/></symbol><use xlink:href="#p" transform="matrix(0 -10 -10 0 8.25 163.612)"/><use xlink:href="#q" transform="matrix(0 -10 -10 0 10.19 157.012)"/><use xlink:href="#i" transform="matrix(0 -10 -10 0 8.25 151.022)"/><use xlink:href="#i" transform="matrix(0 -10 -10 0 8.25 144.872)"/><use xlink:href="#r" transform="matrix(0 -10 -10 0 8.25 138.722)"/><use xlink:href="#j" transform="matrix(0 -10 -10 0 8.12 132.922)"/><use xlink:href="#k" transform="matrix(0 -10 -10 0 9.43 128.882)"/><use xlink:href="#h" transform="matrix(0 -10 -10 0 8.12 124.932)"/><use xlink:href="#s" transform="matrix(0 -10 -10 0 9.04 116.102)"/><use xlink:href="#l" transform="matrix(0 -10 -10 0 8.25 112.192)"/><use xlink:href="#m" transform="matrix(0 -10 -10 0 9.43 106.552)"/><clipPath id="t"><path transform="matrix(1 0 0 -1 -66 305)" d="M103.104 38.016h266.112v266.112H103.104z"/></clipPath><g clip-path="url(#t)"><path stroke-width="2.5" stroke-linecap="square" stroke-linejoin="round" fill="none" stroke="teal" d="m49.2 254.888.981-45.866.687-22.538.615-18.48.186-3.349.193-6.226.205-3.07.302-8.317.513-10.008 1.558-26.362.174-1.812.198-3.822 2.04-25.817 1.565-12.136.212-.755.141-1.494.205-.671.308-2.05 2.066-9.331.205-.437.173-1.066.84-2.753.206-.867.82-2.481.193-.63.654-1.497.898-1.851.327-.394.43-.745.41-.597.25-.311 1.22-1.418.198-.358.635-.745h.135l.366-.468.295-.2.09-.162.186-.072.211-.279.5-.433.398-.312 2.053-1.262.18-.004.185-.158.372-.198.59-.237.257-.083.988-.43.237-.001 1.283-.437.526-.114.128.07.513-.233h.27l.09-.119.641-.083.289-.075h.122l.121-.119.142.078.096-.157.526.2.308-.118.975-.084.128-.118h.295l.36-.115.14-.358.353.314h.135l.147-.158.372.162.238.08.397-.162.27.04.23-.04.257-.039.263-.04.379.123.397-.2.385.197h.141l.096.118 2.374-.433.115.08.231-.119.571-.038.192-.04.302-.003.218.121.5-.158 1.751-.078.18.001.115.043.392-.087.442.084.2-.04.39.079.405-.078 1.148.039.52.2.127-.125.206.122.038-.08.129.04.128-.079.917.394.507-.119.353.12.14-.04.135-.197.27.28.314.156.186-.082.257-.078h.397l.347-.035.276-.044.121.075.507-.035.276-.04 1.148-.04.27-.039 1.039-.083.14-.07.61.31.327.001 1.34-.08.238-.039.135.043.173-.16.212.192.378-.075.27.04.185.039.187-.118.269.082.673.154.007-.039.468-.118.276.04.52-.043.77.003.23-.078.282.082.103-.084 1.571.078.116.08.256-.076.616.233.276-.078.712-.005.077-.153.244.079.27-.158.403.236.07-.153.25.075.161-.161.122.165.135-.082.135.157.23-.236.257.157.667.476.263-.081.295-.001.064-.157.88.393.14-.082.122.086.27-.161.128.079.134-.08.11.159.384-.158.154.082.141-.161.231.075.218-.075.2.08.095-2.366.5 3.624.52.233.263.476.629.238.147.08.16-.08.084.083.7-.396.07.158 1.93-1.023.565-.311.064-.082.128.161.263-.24.404-.078.257-.08.763-.002.116-.23.14.312.495-.237.128.157h.199l.058-.158.154.163.115-.241.366.473.128-.158.16.08.18-.08.18.158.256-.157.193.083.192-.24.122.075.282-.233h.263l.263-.158.244-.078.244.003.262-.157.52-.083.455-.157.071.078.122-.078.115.082.129-.082.385.16.301-.082 2.033.077.231.235.141.084.122.232.263-.161.507.239.25-.237.372-.079.314-.078.206-.083.52-.154.115.079.128-.079.276.08.391-.08.135-.084.372.083.91.003.103-.161.327.076.334-.234.237.158 1.411-.08.469-.158.205.158.09.003.128.154.122-.075.134.072.129-.154.16.079.096-.158.148.077.154-.156.25.078.109.001.378.236.392-.08.128-.078.141.158h.244l.526.003.09-.16.846.314.07-.078.123.078.14-.157h1.136l.27.237.506-.153.193-.084.051.162 1.674-.008.257-.232.397.157.379-.157.122.078.134-.154.257.157.122-.085.288.24.27-.078.141-.08.09.159.23-.159.142-.074.782.705h.45l.134.157.186-.236.629-.077.52-.237.134.158.494-.158.263.154.147-.15.238.076.301.078.09.08.256-.159.385-.078.129-.075.301.074.11-.078.095.079.27-.158.186-1.285.109.207.167-.03.128-.183.545-2.165 1.59-10.092.386-1.118.564-1.271.11-.109.121-.345.141-.047.186-.276.706.491.462 1.213.32.4.135.222.186.076.334.978.218.289.724 2.724.642 3.902.667 3.693 1.04 5.242.788 1.757 1.238 4.75.186.231 1.29 3.277.134.172.924 2.411.551 1.016.994 2.288.353.305.334.584.16.092.398-.117.423-.043.456.489.115-.099.135-.292.18-.052.095-.256.385.25h.084l.09.35.301-.634.289-.123.218.17.102-.14.295-.765.186-.217.09-.045.578-1.196.173-.047.73-1.126.232-.194.77-2.232.404-.556.25-.648.532-.891.61-.966.147-.09.244-.493.737-1.339.988-1.74.103.027.109-.089.892-1.741.166-.067.603-.77.385-.261.141-.189.289.131.84-.276.545-.594.116-.04.635-1.275.192-.013.507-.51.295.024.173.056.141-.194.122.22.122-.232.135.036 1.289-2.056.148.02.224-.264.205-.2.321-.549.096-.033.276-.34.282-.35.084.063.397-.301.141-.025.507-.483.128.034.648-.62.11.164.256-.283.295.12.083-.12.141.148.257-.245.391-.364.129-.99.384 1.148.257.878.378.51.122-.138.635-2.165.424-1.251.23-1.028.533-1.637.224-.466.392-.453.327.298 1.039 4.61.693 6.172 1.026 10.642.212 1.24.43 5.023.365 3.453 1.071 9.381.738 6.367.757 4.433.397 2.8 1.161 4.108.154.153.469.98.32.228.09.235.135-.076.096.167.398.002.372-.255.814-1.383.212-.625.141-.15.122-.366.115.128 1.572-1.295.757-2.122.763-4.033.186-.706 1.899-18.183.224-3.076.924-11.601.372-4.873 1.276-10.627.507-2.004.667-1.76.468-.75.084-2.584.115.088.212-.414.289-.1.102.229.135-.112.263.214.141-.1.103.118.198.028.2.194.384.193.11-.026.134.118.16-.063.295.17.173.472.668 1.042.224.324.706 1.11.205.509.584.855.455 1.56.295.82.237.696.43 1.205.443 1.502.288.365.392.673.365.33.308.223.186.112.148-.047.243.114.27-.09.244-.285.744-1.284.545-1.19.474-1.133.29-1.612 1.14-3.881.257-.569.315-.469.218-.396.237-.228.27-.071.455.185.205-.537.103-.069.14-.306.11.246.154-.075.237.25.34.173.096-2.358.071.398.128.086.122.315.135.014.66.963h.167l.18.242.66.092.366.16.205-.235.077.078.238-.238.782-.741.122-.086.141.068.379-.28.494.01.93.432.885.859.237.155.648.764.25.171.302.2.121-.027.116.124.122-.094.122.21.16-.085.096.125.513.04.263.378.244.205.199-.064.186.27.41.2.186-.106.071.142.16-.014.231.278.481-.38 1.296-.07.263.209.558-.064.231.455.23.38.245-.009.77-.028.262.243.54.173.224-.066.77.35.262-.07.398.333.244.318.147-.15.173.095.142-.078.192.259.186.227.058-.212.256.314.392.584.378.176.25.008.27.321.295.262.115.146.09-.067.135.149.121-.06.142.15.121-.064.2.314.14-.07.16.392.29-.06h.39l.52.396.731.034.154-.083.417.243.084-.078.128.157.128-.079.764.792.218.071.057-.16.25.34.148-.015.09.32.16.158.135-.243.154.093.205-.078.154-.075.212.071.14-.157.123.24.14-.008.501.713.135.15.135-.157.128.168.263-.16.526-.087.096.243.199-.007.199.306.327.236.07-.232.372-.079.135.217.244.008.147.235.135-.079.507.546.25-.019.141-.145.398.067.09-.064.134.071.122-.093.892.631.282-.097.43.243.077-.173.109.25.282-.167.36.534.166.015.212.145.269-.164.391.07.385.314.263-.247.18.16.064-.078.256-.164.25.227.29.079.243.078.891.15.135.156.135-.165.109.079.372-.165 1.982.223.372.075h.212l.16-.165.244.157.301-.078.07-2.294.411 1.8.507 1.09.77.952.128.016"/></g><clipPath id="u"><path transform="matrix(1 0 0 -1 -66 305)" d="M103.104 38.016h266.112v266.112H103.104z"/></clipPath><g clip-path="url(#u)"><path stroke-width="2.5" stroke-dasharray="9.25,4" stroke-linejoin="round" fill="none" stroke="red" d="M49.2 31.145h241.92"/></g><path stroke-width=".8" stroke-linecap="square" stroke-miterlimit="10" fill="none" stroke="#000" d="M37.104 266.984V.872M303.216 266.984V.872M37.104 266.984h266.112M37.104.872h266.112"/><path d="M167.372 261.984h128.844c1.333 0 2-.667 2-2V231.64c0-1.333-.667-2-2-2H167.372c-1.333 0-2 .667-2 2v28.344c0 1.333.667 2 2 2z" fill="#fff" fill-opacity=".8"/><path stroke-miterlimit="10" fill="none" stroke="#d5d6d5" stroke-opacity=".8" d="M167.372 261.984h128.844c1.333 0 2-.667 2-2V231.64c0-1.333-.667-2-2-2H167.372c-1.333 0-2 .667-2 2v28.344c0 1.333.667 2 2 2z"/><path stroke-width="2.5" stroke-linecap="square" stroke-linejoin="round" fill="none" stroke="teal" d="M169.372 237.734h20"/><symbol id="v"><path transform="matrix(.001 0 0 .001 -.056 .013)" d="M644 673V569c-34 30-69 53-107 69-38 15-77 23-119 23-84 0-148-26-192-77s-66-124-66-220 22-170 66-221 108-76 192-76c42 0 81 7 119 23 38 15 73 38 107 69V56c-35-24-72-41-110-52s-79-17-122-17C302-13 215 20 151 87S56 246 56 364c0 117 31 209 95 277 64 67 151 101 261 101 44 0 85-6 123-17 38-12 75-29 109-52z"/></symbol><symbol id="w"><path transform="matrix(.001 0 0 .001 -.085 .013)" d="M85 216v331h90V219c0-52 10-90 30-116s50-39 91-39c48 0 87 15 115 46s42 73 42 127v310h90V0h-90v84c-22-34-48-58-76-74-29-15-62-23-100-23-63 0-111 19-143 58-33 38-49 95-49 171zm226 344z"/></symbol><symbol id="x"><path transform="translate(-.091) scale(.001)" d="M411 463c-10 6-21 10-33 13-12 2-25 4-39 4-51 0-90-17-117-50-28-33-41-80-41-142V0H91v547h90v-85c18 33 43 58 73 74s67 24 111 24c6 0 13-1 21-1 7-1 15-2 25-4v-92z"/></symbol><symbol id="y"><path transform="translate(-.091) scale(.001)" d="M549 330V0h-90v327c0 52-11 90-31 116s-50 39-90 39c-49 0-87-16-115-47s-42-73-42-126V0H91v547h90v-85c21 32 46 57 76 73 29 16 63 25 101 25 62 0 110-20 142-59s49-96 49-171z"/></symbol><symbol id="z"><path transform="translate(-.027) scale(.001)" d="M183 702V547h185v-70H183V180c0-45 6-74 18-86 12-13 37-19 75-19h92V0h-92c-70 0-118 13-144 39s-39 73-39 141v297H27v70h66v155h90z"/></symbol><symbol id="A"><path transform="matrix(.001 0 0 .001 -.086 .131)" d="M310 759c-44-76-76-150-97-223-22-73-32-147-32-222 0-76 10-150 32-223 21-74 53-147 97-222h-78C183-54 146 20 122 94S86 241 86 314c0 72 12 145 36 219s60 149 110 226h78z"/></symbol><symbol id="B"><path transform="matrix(.001 0 0 .001 -.056 .013)" d="M394 662c-72 0-129-27-171-80-42-54-63-126-63-218s21-165 63-218c42-54 99-80 171-80 71 0 128 26 170 80 42 53 63 126 63 218s-21 164-63 218c-42 53-99 80-170 80zm0 80c102 0 183-35 245-103 61-68 92-160 92-275 0-116-31-207-92-275C577 21 496-13 394-13 291-13 209 21 148 89c-62 68-92 159-92 275 0 115 30 207 92 275 61 68 143 103 246 103z"/></symbol><symbol id="C"><path transform="matrix(.001 0 0 .001 -.08 .131)" d="M80 759h78c48-77 85-152 109-226s37-147 37-219c0-73-13-146-37-220S206-54 158-131H80c43 75 75 148 97 222 21 73 32 147 32 223 0 75-11 149-32 222-22 73-54 147-97 223z"/></symbol><use xlink:href="#v" transform="matrix(10 0 0 -10 197.932 241.364)"/><use xlink:href="#w" transform="matrix(10 0 0 -10 205.202 241.364)"/><use xlink:href="#x" transform="matrix(10 0 0 -10 211.602 241.234)"/><use xlink:href="#x" transform="matrix(10 0 0 -10 215.54 241.234)"/><use xlink:href="#i" transform="matrix(10 0 0 -10 219.072 241.364)"/><use xlink:href="#y" transform="matrix(10 0 0 -10 225.582 241.234)"/><use xlink:href="#z" transform="matrix(10 0 0 -10 231.282 241.234)"/><use xlink:href="#j" transform="matrix(10 0 0 -10 234.932 241.234)"/><use xlink:href="#l" transform="matrix(10 0 0 -10 238.652 241.364)"/><use xlink:href="#q" transform="matrix(10 0 0 -10 244.232 243.304)"/><use xlink:href="#i" transform="matrix(10 0 0 -10 250.222 241.364)"/><use xlink:href="#i" transform="matrix(10 0 0 -10 256.372 241.364)"/><use xlink:href="#r" transform="matrix(10 0 0 -10 262.522 241.364)"/><use xlink:href="#j" transform="matrix(10 0 0 -10 268.322 241.234)"/><use xlink:href="#A" transform="matrix(10 0 0 -10 272.362 242.544)"/><use xlink:href="#B" transform="matrix(10 0 0 -10 275.962 241.364)"/><use xlink:href="#p" transform="matrix(10 0 0 -10 283.932 241.364)"/><use xlink:href="#C" transform="matrix(10 0 0 -10 290.422 242.544)"/><path stroke-width="2.5" stroke-dasharray="9.25,4" stroke-linejoin="round" fill="none" stroke="red" d="M169.372 252.406h20"/><symbol id="D"><path transform="translate(-.098) scale(.001)" d="M197 648V81h119c100 0 174 22 221 68 46 46 70 118 70 216s-24 169-70 215c-47 45-121 68-221 68H197zm-99 81h203c141 0 245-30 311-88 66-59 99-151 99-276 0-126-34-218-100-277S441 0 301 0H98v729z"/></symbol><use xlink:href="#D" transform="matrix(10 0 0 -10 198.352 255.906)"/><use xlink:href="#i" transform="matrix(10 0 0 -10 205.622 256.036)"/><use xlink:href="#l" transform="matrix(10 0 0 -10 211.762 256.036)"/><use xlink:href="#g" transform="matrix(10 0 0 -10 217.372 255.906)"/><use xlink:href="#x" transform="matrix(10 0 0 -10 220.122 255.906)"/><use xlink:href="#i" transform="matrix(10 0 0 -10 223.654 256.036)"/><use xlink:href="#r" transform="matrix(10 0 0 -10 229.804 256.036)"/><use xlink:href="#j" transform="matrix(10 0 0 -10 235.604 255.906)"/><use xlink:href="#l" transform="matrix(10 0 0 -10 239.323 256.036)"/><use xlink:href="#q" transform="matrix(10 0 0 -10 244.904 257.976)"/><use xlink:href="#i" transform="matrix(10 0 0 -10 250.894 256.036)"/><use xlink:href="#i" transform="matrix(10 0 0 -10 257.043 256.036)"/><use xlink:href="#r" transform="matrix(10 0 0 -10 263.193 256.036)"/><use xlink:href="#j" transform="matrix(10 0 0 -10 268.993 255.906)"/><use xlink:href="#A" transform="matrix(10 0 0 -10 273.034 257.216)"/><use xlink:href="#B" transform="matrix(10 0 0 -10 276.634 256.036)"/><use xlink:href="#p" transform="matrix(10 0 0 -10 284.604 256.036)"/><use xlink:href="#C" transform="matrix(10 0 0 -10 291.094 257.216)"/></g></svg>